<svg width="24" height="24" viewBox="0 0 24 24" fill="none" xmlns="http://www.w3.org/2000/svg">
<path d="M21.4158 6.68806C21.2291 6.59691 21.149 6.77031 21.0394 6.8585C21.0023 6.88814 20.9704 6.92519 20.9393 6.95854C20.6666 7.25126 20.3487 7.44171 19.933 7.41874C19.3246 7.38539 18.8058 7.57658 18.3471 8.04271C18.2485 7.46765 17.9247 7.12528 17.4319 6.90518C17.1733 6.79032 16.9124 6.6762 16.7323 6.4272C16.6056 6.25083 16.5715 6.05371 16.5078 5.8603C16.4678 5.74247 16.4278 5.62316 16.2929 5.60241C16.1469 5.57944 16.0898 5.70245 16.032 5.80472C15.8023 6.22489 15.7134 6.68806 15.7215 7.15714C15.7423 8.21019 16.1869 9.0498 17.0703 9.64709C17.171 9.71601 17.1962 9.78493 17.1651 9.88497C17.1051 10.0902 17.0332 10.2903 16.9695 10.4956C16.9295 10.6275 16.8694 10.6564 16.7294 10.5993C16.2531 10.395 15.8206 10.1009 15.4555 9.73306C14.8271 9.12539 14.2594 8.45399 13.551 7.92858C13.3842 7.80557 13.2182 7.69145 13.0463 7.58251C12.3231 6.87851 13.1412 6.30122 13.3301 6.23379C13.528 6.16265 13.3991 5.91662 12.7595 5.91958C12.12 5.92254 11.5346 6.13671 10.7891 6.42127C10.6785 6.46437 10.5645 6.49784 10.4482 6.52132C9.75112 6.39087 9.03843 6.36589 8.33395 6.44721C6.95114 6.60283 5.84696 7.25645 5.03476 8.37396C4.06028 9.71527 3.83055 11.2418 4.11141 12.8336C4.40709 14.5092 5.26153 15.8986 6.57616 16.9843C7.93748 18.1092 9.50704 18.6606 11.2967 18.5553C12.3831 18.4923 13.594 18.3464 14.959 17.1903C15.3036 17.3607 15.6645 17.4289 16.2647 17.4808C16.7264 17.5245 17.171 17.4578 17.5149 17.3867C18.0544 17.2726 18.0166 16.7731 17.8217 16.6805C16.2418 15.9438 16.5878 16.2432 16.2729 16.0016C17.0762 15.0494 18.2863 14.0608 18.7599 10.8587C18.7969 10.6045 18.7651 10.4452 18.7599 10.2385C18.7569 10.114 18.7851 10.0643 18.9281 10.0502C19.3253 10.01 19.7106 9.89168 20.0619 9.70193C21.086 9.14095 21.4981 8.22204 21.5959 7.11935C21.6107 6.95113 21.5929 6.77624 21.4158 6.68806ZM12.4928 16.6115C10.961 15.4058 10.2177 15.0094 9.91166 15.0272C9.62487 15.0427 9.676 15.3718 9.73899 15.5859C9.80494 15.7971 9.89091 15.9431 10.0117 16.1284C10.0954 16.2514 10.1525 16.4352 9.9287 16.5715C9.43516 16.8783 8.57775 16.4685 8.537 16.4485C7.53879 15.8608 6.70436 15.0835 6.11597 14.0208C5.54906 12.9981 5.21929 11.9006 5.16445 10.7298C5.14963 10.446 5.23337 10.3459 5.51423 10.2955C5.88414 10.2249 6.26306 10.2149 6.63619 10.2659C8.19907 10.4956 9.53001 11.1959 10.6453 12.303C11.2826 12.9352 11.7643 13.6896 12.2608 14.4262C12.7877 15.2095 13.3561 15.955 14.0794 16.5656C14.3335 16.7798 14.5381 16.9435 14.7322 17.0636C14.1446 17.1288 13.1634 17.1429 12.4928 16.6115ZM13.2264 11.8836C13.2264 11.8238 13.2502 11.7664 13.2925 11.724C13.3348 11.6817 13.3922 11.6579 13.4521 11.6579C13.5119 11.6579 13.5693 11.6817 13.6116 11.724C13.6539 11.7664 13.6777 11.8238 13.6777 11.8836C13.6777 12.0096 13.5769 12.1089 13.4509 12.1089C13.4212 12.1092 13.3918 12.1035 13.3643 12.0923C13.3368 12.081 13.3119 12.0643 13.291 12.0433C13.27 12.0222 13.2535 11.9971 13.2425 11.9696C13.2314 11.942 13.2259 11.9126 13.2264 11.8829V11.8836ZM15.5066 13.056C15.3606 13.1152 15.2147 13.1671 15.0739 13.173C14.8631 13.1795 14.6565 13.1136 14.4884 12.9863C14.2883 12.8181 14.1453 12.724 14.0838 12.429C14.0637 12.2856 14.0677 12.1398 14.0957 11.9977C14.1475 11.7569 14.0897 11.6042 13.9215 11.4642C13.7829 11.3493 13.6088 11.3189 13.4161 11.3189C13.3501 11.3151 13.286 11.2952 13.2294 11.2611C13.1493 11.2204 13.0834 11.1203 13.1464 10.9973C13.1664 10.958 13.2642 10.8617 13.2872 10.8439C13.548 10.6949 13.8489 10.7439 14.1275 10.8558C14.3862 10.961 14.5803 11.1551 14.8612 11.4286C15.1487 11.7598 15.1998 11.8525 15.3636 12.1C15.4925 12.2956 15.6104 12.4957 15.6904 12.724C15.7393 12.8662 15.6756 12.9833 15.5066 13.056Z" fill="#4D6BFE"/>
</svg>
