<svg width="24" height="24" viewBox="0 0 24 24" fill="none" xmlns="http://www.w3.org/2000/svg">
<path d="M8.25767 6.40039C8.25201 6.40039 8.24638 6.40041 8.24073 6.40044L8.21759 8.31214C8.22288 8.31208 8.22817 8.31204 8.23348 8.31204C9.49177 8.31204 10.4678 9.30416 12.5892 12.8774L12.7185 13.0949L12.7269 13.1092L13.9145 11.3274L13.9062 11.3137C13.6268 10.8591 13.3583 10.4409 13.1008 10.0591C12.8022 9.61661 12.5166 9.22135 12.2394 8.86845C10.8361 7.08162 9.66216 6.40039 8.25767 6.40039Z" fill="url(#paint0_linear_2713_7397)"/>
<path d="M8.24073 6.40044C6.82942 6.4077 5.58162 7.3203 4.68068 8.71678C4.67804 8.72086 4.6754 8.72496 4.67277 8.72906L6.32654 9.62919C6.32923 9.62512 6.33192 9.62105 6.33462 9.61699C6.86071 8.82489 7.51554 8.31967 8.21759 8.31214C8.22288 8.31208 8.22817 8.31204 8.23348 8.31204L8.25767 6.40039C8.25201 6.40039 8.24638 6.40041 8.24073 6.40044Z" fill="url(#paint1_linear_2713_7397)"/>
<path d="M4.68068 8.71678C4.67804 8.72086 4.6754 8.72496 4.67277 8.72906C4.08075 9.65063 3.63932 10.7826 3.40081 12.0026C3.39978 12.0079 3.39875 12.0132 3.39772 12.0185L5.25567 12.4569C5.25665 12.4516 5.25763 12.4463 5.2586 12.441C5.4572 11.3688 5.83539 10.3733 6.32654 9.62919C6.32923 9.62512 6.33192 9.62105 6.33462 9.61699L4.68068 8.71678Z" fill="url(#paint2_linear_2713_7397)"/>
<path d="M5.2586 12.441L3.40081 12.0026C3.39978 12.0079 3.39875 12.0132 3.39772 12.0185C3.26767 12.6895 3.2016 13.3718 3.20021 14.0553C3.2002 14.0608 3.20019 14.0663 3.2002 14.0719L5.10561 14.2423C5.10546 14.2368 5.10529 14.2313 5.10517 14.2257C5.10422 14.1861 5.10375 14.1459 5.10373 14.1052C5.10469 13.5525 5.15547 13.0004 5.25567 12.4569C5.25665 12.4516 5.25763 12.4463 5.2586 12.441Z" fill="url(#paint3_linear_2713_7397)"/>
<path d="M5.16355 14.8342C5.12937 14.6377 5.11 14.439 5.10561 14.2397C5.10546 14.2341 5.10529 14.2287 5.10517 14.2231L3.20021 14.0526C3.2002 14.0582 3.20019 14.0637 3.2002 14.0692C3.2002 14.4946 3.23567 14.8939 3.3046 15.2618C3.3056 15.2671 3.30658 15.2724 3.30759 15.2777L5.16644 14.8501C5.16546 14.8448 5.1645 14.8395 5.16355 14.8342Z" fill="url(#paint4_linear_2713_7397)"/>
<path d="M5.59762 15.8227C5.39029 15.5964 5.24355 15.2699 5.1664 14.8524C5.16542 14.8471 5.16448 14.8418 5.16353 14.8365L3.30457 15.2642C3.30556 15.2695 3.30654 15.2747 3.30756 15.28C3.44806 16.0177 3.72362 16.6325 4.11824 17.0977C4.12175 17.1018 4.12527 17.1059 4.12881 17.1101L5.60871 15.8346C5.60501 15.8307 5.60128 15.8267 5.59762 15.8227Z" fill="url(#paint5_linear_2713_7397)"/>
<path d="M11.1049 10.5332C9.98473 12.2515 9.30611 13.3292 9.30611 13.3292C7.81389 15.6683 7.29766 16.1926 6.46686 16.1926C6.12019 16.1926 5.83058 16.0692 5.60871 15.8332C5.60501 15.8293 5.6013 15.8253 5.59763 15.8213L4.11824 17.0963C4.12175 17.1004 4.12527 17.1045 4.12881 17.1086C4.67369 17.7438 5.4428 18.0962 6.39427 18.0962C7.83379 18.0962 8.8691 17.4175 10.7096 14.2003C10.7096 14.2003 11.4768 12.8454 12.0046 11.9121C11.6777 11.3843 11.3802 10.9273 11.1049 10.5332Z" fill="#0082FB"/>
<path d="M13.1017 7.82269C13.0979 7.82671 13.094 7.8308 13.0903 7.83483C12.7961 8.14824 12.5138 8.49825 12.2391 8.86961C12.5163 9.22251 12.8024 9.61854 13.101 10.061C13.453 9.51776 13.7815 9.07779 14.1035 8.74056C14.1073 8.73657 14.1111 8.73269 14.1149 8.72871L13.1017 7.82269Z" fill="url(#paint6_linear_2713_7397)"/>
<path d="M18.5402 7.65274C17.7589 6.86349 16.8274 6.40039 15.8317 6.40039C14.7816 6.40039 13.8983 6.97581 13.1017 7.82118C13.0979 7.82518 13.094 7.82927 13.0903 7.8333L14.1035 8.73903C14.1074 8.73504 14.1111 8.73116 14.1149 8.72719C14.6397 8.1813 15.1477 7.90874 15.7107 7.90874C16.3168 7.90874 16.884 8.19401 17.3752 8.69412C17.3791 8.69804 17.3829 8.70193 17.3868 8.70587L18.5518 7.66449C18.548 7.66055 18.544 7.65666 18.5402 7.65274Z" fill="#0082FB"/>
<path d="M20.7985 13.8015C20.7548 11.2674 19.8681 9.00236 18.5518 7.66449C18.548 7.66055 18.544 7.65666 18.5402 7.65274L17.3752 8.69412C17.3791 8.69804 17.3829 8.70193 17.3868 8.70587C18.3769 9.72304 19.0562 11.6145 19.1179 13.801C19.1181 13.8065 19.1182 13.812 19.1184 13.8175L20.7988 13.818C20.7988 13.8125 20.7987 13.807 20.7985 13.8015Z" fill="url(#paint7_linear_2713_7397)"/>
<path d="M20.7988 13.8198C20.7988 13.8143 20.7987 13.8088 20.7986 13.8033L19.118 13.8027C19.1181 13.8082 19.1182 13.8137 19.1184 13.8192C19.1211 13.9219 19.1225 14.0251 19.1225 14.129C19.1225 14.7251 19.0335 15.207 18.8524 15.5549C18.8497 15.56 18.8469 15.5652 18.8442 15.5703L20.0972 16.8735C20.1004 16.8688 20.1034 16.8641 20.1065 16.8593C20.5614 16.1574 20.8002 15.1823 20.8002 13.9999C20.8002 13.9397 20.7997 13.8797 20.7988 13.8198Z" fill="url(#paint8_linear_2713_7397)"/>
<path d="M18.8524 15.5522C18.8498 15.5574 18.847 15.5625 18.8443 15.5676C18.6876 15.8609 18.4639 16.0565 18.1716 16.142L18.7427 17.9422C18.8184 17.9166 18.892 17.8877 18.9637 17.8557C18.9851 17.8462 19.0064 17.8364 19.0274 17.8263C19.0395 17.8205 19.0516 17.8146 19.0636 17.8086C19.4413 17.6204 19.7605 17.3427 20.0186 16.985C20.0345 16.9631 20.0501 16.9411 20.0653 16.9187C20.0761 16.9029 20.0868 16.8869 20.0973 16.8708C20.1004 16.8661 20.1034 16.8614 20.1066 16.8566L18.8524 15.5522Z" fill="url(#paint9_linear_2713_7397)"/>
<path d="M17.8077 16.1908C17.6162 16.1908 17.4472 16.1623 17.2818 16.0884L16.6969 17.9315C17.0256 18.0438 17.3763 18.0944 17.7674 18.0944C18.1277 18.0944 18.4584 18.0405 18.7583 17.9365L18.1873 16.1369C18.0642 16.1738 17.9362 16.192 17.8077 16.1908Z" fill="url(#paint10_linear_2713_7397)"/>
<path d="M16.6374 15.5625C16.6338 15.5583 16.6302 15.5542 16.6265 15.5499L15.2807 16.9496C15.2845 16.9536 15.2882 16.9576 15.292 16.9617C15.7596 17.46 16.2062 17.7691 16.7126 17.9388L17.297 16.0971C17.0837 16.0054 16.8772 15.8393 16.6374 15.5625Z" fill="url(#paint11_linear_2713_7397)"/>
<path d="M16.6265 15.5485C16.2229 15.0791 15.7235 14.2975 14.938 13.0336L13.9145 11.3274L13.9062 11.3137L12.7185 13.0949L12.7269 13.1092L13.4522 14.3282C14.1552 15.5048 14.728 16.3559 15.2807 16.9482C15.2846 16.9523 15.2883 16.9563 15.292 16.9603L16.6374 15.5611C16.6338 15.557 16.6302 15.5528 16.6265 15.5485Z" fill="url(#paint12_linear_2713_7397)"/>
<defs>
<linearGradient id="paint0_linear_2713_7397" x1="18.3616" y1="16.833" x2="13.1842" y2="4.81074" gradientUnits="userSpaceOnUse">
<stop offset="0.0006" stop-color="#0867DF"/>
<stop offset="0.4539" stop-color="#0668E1"/>
<stop offset="0.8591" stop-color="#0064E0"/>
</linearGradient>
<linearGradient id="paint1_linear_2713_7397" x1="7.01404" y1="15.9547" x2="17.1746" y2="5.49961" gradientUnits="userSpaceOnUse">
<stop offset="0.1323" stop-color="#0064DF"/>
<stop offset="0.9988" stop-color="#0064E0"/>
</linearGradient>
<linearGradient id="paint2_linear_2713_7397" x1="8.63046" y1="16.8246" x2="10.5956" y2="7.34719" gradientUnits="userSpaceOnUse">
<stop offset="0.0147" stop-color="#0072EC"/>
<stop offset="0.6881" stop-color="#0064DF"/>
</linearGradient>
<linearGradient id="paint3_linear_2713_7397" x1="11.3781" y1="16.9489" x2="11.7799" y2="8.21102" gradientUnits="userSpaceOnUse">
<stop offset="0.0731" stop-color="#007CF6"/>
<stop offset="0.9943" stop-color="#0072EC"/>
</linearGradient>
<linearGradient id="paint4_linear_2713_7397" x1="12.3795" y1="14.7335" x2="11.4678" y2="8.37299" gradientUnits="userSpaceOnUse">
<stop offset="0.0731" stop-color="#007FF9"/>
<stop offset="1" stop-color="#007CF6"/>
</linearGradient>
<linearGradient id="paint5_linear_2713_7397" x1="9.83347" y1="7.77254" x2="11.9848" y2="14.5478" gradientUnits="userSpaceOnUse">
<stop offset="0.0731" stop-color="#007FF9"/>
<stop offset="1" stop-color="#0082FB"/>
</linearGradient>
<linearGradient id="paint6_linear_2713_7397" x1="8.16856" y1="14.454" x2="10.9877" y2="7.45269" gradientUnits="userSpaceOnUse">
<stop offset="0.2799" stop-color="#007FF8"/>
<stop offset="0.9141" stop-color="#0082FB"/>
</linearGradient>
<linearGradient id="paint7_linear_2713_7397" x1="8.41621" y1="7.1296" x2="9.56723" y2="18.6046" gradientUnits="userSpaceOnUse">
<stop stop-color="#0082FB"/>
<stop offset="0.9995" stop-color="#0081FA"/>
</linearGradient>
<linearGradient id="paint8_linear_2713_7397" x1="16.3903" y1="6.9455" x2="14.5082" y2="15.9304" gradientUnits="userSpaceOnUse">
<stop offset="0.0619" stop-color="#0081FA"/>
<stop offset="1" stop-color="#0080F9"/>
</linearGradient>
<linearGradient id="paint9_linear_2713_7397" x1="6.67174" y1="13.3383" x2="11.3532" y2="7.41207" gradientUnits="userSpaceOnUse">
<stop stop-color="#027AF3"/>
<stop offset="1" stop-color="#0080F9"/>
</linearGradient>
<linearGradient id="paint10_linear_2713_7397" x1="6.79647" y1="12.2484" x2="17.6518" y2="12.2484" gradientUnits="userSpaceOnUse">
<stop stop-color="#0377EF"/>
<stop offset="0.9994" stop-color="#0279F1"/>
</linearGradient>
<linearGradient id="paint11_linear_2713_7397" x1="9.58912" y1="10.5288" x2="14.7033" y2="15.8931" gradientUnits="userSpaceOnUse">
<stop offset="0.0019" stop-color="#0471E9"/>
<stop offset="1" stop-color="#0377EF"/>
</linearGradient>
<linearGradient id="paint12_linear_2713_7397" x1="13.2242" y1="12.4262" x2="16.1525" y2="16.1079" gradientUnits="userSpaceOnUse">
<stop offset="0.2765" stop-color="#0867DF"/>
<stop offset="1" stop-color="#0471E9"/>
</linearGradient>
</defs>
</svg>
