<svg width="30" height="30" viewBox="0 0 30 30" fill="none" xmlns="http://www.w3.org/2000/svg">
<path d="M14.9124 4.00071C16.4307 3.98409 17.8572 4.25831 19.1919 4.82335C20.5267 5.38839 21.6988 6.15702 22.7082 7.12922C23.7176 8.10143 24.5143 9.24813 25.0982 10.5693C25.6822 11.8905 25.9825 13.3073 25.9992 14.8196C26.0159 16.2489 25.7698 17.595 25.2609 18.858C24.752 20.1211 24.0429 21.2387 23.1336 22.2109C22.2243 23.1831 21.1565 23.985 19.9302 24.6165C18.7039 25.248 17.3817 25.6385 15.9635 25.7881C15.5964 25.838 15.2043 25.8795 14.7872 25.9128C14.3701 25.946 13.9071 25.9709 13.3982 25.9875C12.8894 26.0042 12.3221 26.0042 11.6964 25.9875C11.0708 25.9709 10.3658 25.9211 9.58167 25.838C7.84649 25.6718 6.55761 25.4557 5.71505 25.1898C4.87248 24.9239 4.53462 24.7744 4.70146 24.7411C5.58574 24.5915 6.34488 24.3506 6.9789 24.0182C7.31258 23.8354 7.45023 23.5736 7.39184 23.233C7.33344 22.8923 7.17077 22.5723 6.90382 22.2732C6.05291 21.3425 5.36467 20.2582 4.83911 19.0201C4.31355 17.7819 4.03408 16.4483 4.00072 15.0191C3.98403 13.5067 4.25932 12.0858 4.8266 10.7563C5.39387 9.42679 6.1697 8.26346 7.15408 7.26633C8.13847 6.26919 9.29804 5.4798 10.6328 4.89813C11.9676 4.31647 13.3941 4.01733 14.9124 4.00071Z" fill="url(#paint0_linear_2713_7356)"/>
<path d="M9.08801 13.2525C10.0502 13.1911 8.96548 15.1636 8.59788 16.1101C8.23028 17.0567 7.93265 18.1998 8.30025 18.6819C8.66785 19.1639 9.24537 19.1106 10.313 18.3959C11.3447 17.7056 13.6735 15.0027 13.6735 15.0027C13.4286 16.2708 12.9909 18.5032 13.516 19.0927C14.0411 19.6821 14.5662 19.3786 15.5288 18.557C16.4913 17.7354 18.4341 15.0386 18.4341 15.0386C17.9092 19.9324 19.0587 19.5928 20.3245 18.8429C21.4096 18.2 22.425 16.6104 22.425 16.6104C19.1695 18.057 20.7621 15.378 21.0423 12.4489C21.3008 9.74574 19.5019 10.6271 18.4867 11.5022C17.4714 12.3773 16.2288 14.0384 16.2288 14.0384C17.6293 9.2876 15.1262 10.6092 14.1809 11.3416C13.2358 12.0739 11.4855 13.8777 11.4855 13.8777C13.2182 10.1627 11.4329 10.4485 10.5228 11.1093C9.75641 11.6659 8.125 13.3062 8.125 13.3062C8.125 13.3062 8.80796 13.2703 9.08801 13.2525Z" fill="white"/>
<defs>
<linearGradient id="paint0_linear_2713_7356" x1="22.7" y1="7.025" x2="4.55" y2="24.9" gradientUnits="userSpaceOnUse">
<stop stop-color="#F4439F"/>
<stop offset="1" stop-color="#7C3AED"/>
</linearGradient>
</defs>
</svg>
