<svg width="24" height="24" viewBox="0 0 24 24" fill="none" xmlns="http://www.w3.org/2000/svg">
<path d="M19.7023 10.4047C19.9264 9.79924 19.9828 9.1938 19.9264 8.58925C19.8708 7.98381 19.6467 7.37926 19.3662 6.82926C18.8625 6.00383 18.1338 5.34384 17.294 4.95928C16.3977 4.57384 15.445 4.46385 14.4932 4.68384C14.045 4.24385 13.5404 3.85929 12.9803 3.58385C12.4201 3.31018 11.7479 3.1993 11.1322 3.1993C10.1704 3.19378 9.23064 3.48226 8.44335 4.02473C7.65911 4.57384 7.09894 5.34472 6.81841 6.22471C6.14621 6.38927 5.58604 6.66471 5.02587 6.9947C4.52217 7.37926 4.1296 7.8747 3.7935 8.36925C3.28979 9.19468 3.12129 10.1292 3.23333 11.0647C3.3459 11.9974 3.73553 12.8769 4.35367 13.5938C4.1418 14.1749 4.06524 14.7952 4.1296 15.4092C4.18606 16.0146 4.41013 16.6192 4.68977 17.1692C5.19437 17.9946 5.92214 18.6546 6.76284 19.0392C7.65911 19.4246 8.61095 19.5346 9.56369 19.3146C10.0118 19.7546 10.5155 20.1391 11.0757 20.4146C11.6359 20.6891 12.3081 20.7991 12.9247 20.7991C13.8865 20.8047 14.8262 20.5162 15.6135 19.9737C16.3977 19.4237 16.9579 18.6537 17.2375 17.7737C17.8704 17.6556 18.4657 17.3917 18.9745 17.0037C19.4782 16.6192 19.9264 16.1792 20.2069 15.6292C20.7106 14.8038 20.8791 13.8692 20.7671 12.9338C20.655 11.9992 20.3189 11.1192 19.7023 10.4047ZM12.9803 19.6446C12.084 19.6446 11.4118 19.3692 10.7961 18.8746C10.7961 18.8746 10.8516 18.8192 10.9081 18.8192L14.4932 16.7837C14.5932 16.7405 14.6732 16.662 14.7172 16.5637C14.7728 16.4537 14.7728 16.3992 14.7728 16.2892V11.3392L16.2857 12.2192V16.2892C16.3011 16.7246 16.227 17.1587 16.0678 17.5654C15.9085 17.9721 15.6675 18.3431 15.3589 18.6563C15.0504 18.9695 14.6808 19.2184 14.2721 19.3882C13.8634 19.558 13.424 19.6452 12.9803 19.6446ZM5.75454 16.6192C5.36197 15.9592 5.19437 15.1892 5.36197 14.4192C5.36197 14.4192 5.41844 14.4746 5.474 14.4746L9.05908 16.5092C9.14519 16.5539 9.24262 16.5731 9.33962 16.5646C9.45165 16.5646 9.56369 16.5646 9.61925 16.5092L13.9886 14.0338V15.7392L10.3479 17.8292C9.58527 18.2629 8.67845 18.3816 7.82671 18.1592C6.93044 17.9392 6.20267 17.3892 5.75454 16.6192ZM4.8018 8.97381C5.19806 8.31705 5.81087 7.81286 6.53877 7.5447V11.7247C6.53877 11.8338 6.53877 11.9447 6.59434 11.9992C6.6384 12.0975 6.71834 12.176 6.81841 12.2192L11.1877 14.6946L9.67572 15.5746L6.09064 13.5392C5.70876 13.3275 5.37348 13.0435 5.10423 12.7036C4.83499 12.3637 4.63715 11.9747 4.52217 11.5592C4.2981 10.7338 4.35367 9.7438 4.8018 8.97381ZM17.182 11.7792L12.8127 9.3038L14.3247 8.42381L17.9098 10.4592C18.4699 10.7892 18.9181 11.2292 19.1986 11.7792C19.4782 12.3292 19.6467 12.9347 19.5903 13.5946C19.5357 14.214 19.3025 14.8052 18.9181 15.2992C18.5264 15.7946 18.0218 16.1792 17.406 16.3992V12.2192C17.406 12.1092 17.406 11.9992 17.3496 11.9438C17.3496 11.9438 17.294 11.8347 17.182 11.7792ZM18.694 9.57924C18.694 9.57924 18.6384 9.5238 18.582 9.5238L14.9969 7.48926C14.8848 7.43382 14.8293 7.43382 14.7172 7.43382C14.6052 7.43382 14.4932 7.43382 14.4367 7.48926L10.0674 9.96468V8.25925L13.7089 6.16927C14.2691 5.83927 14.8848 5.72927 15.557 5.72927C16.1737 5.72927 16.7894 5.94927 17.3496 6.33471C17.8542 6.71926 18.3023 7.2147 18.5264 7.7647C18.7505 8.31469 18.806 8.97468 18.694 9.57924ZM9.28315 12.6592L7.77114 11.7792V7.65382C7.77114 7.04926 7.93875 6.38927 8.27485 5.89383C8.61095 5.34472 9.11555 4.95928 9.67572 4.68472C10.2466 4.40336 10.8937 4.30722 11.5238 4.41017C12.1405 4.46561 12.7562 4.74016 13.2608 5.1256C13.2608 5.1256 13.2043 5.18016 13.1488 5.18016L9.56369 7.21558C9.46361 7.25884 9.38367 7.33733 9.33962 7.43558C9.28315 7.54558 9.28315 7.60014 9.28315 7.71014V12.6601V12.6592ZM10.0674 10.8992L12.0284 9.79924L13.9886 10.8992V13.0992L12.0284 14.1992L10.0674 13.0992V10.8992Z" fill="black"/>
</svg>
