<svg width="24" height="24" viewBox="0 0 24 24" fill="none" xmlns="http://www.w3.org/2000/svg">
<path d="M7.42605 7.77148H5.46615C5.39996 7.77149 5.33494 7.7889 5.27761 7.82197C5.22027 7.85504 5.17264 7.9026 5.1395 7.95989L4.05047 9.84571C4.0174 9.9031 4 9.96817 4 10.0344C4 10.1006 4.0174 10.1657 4.05047 10.2231L8.51974 17.9565H10.6925L13.9211 15.2442L7.42605 7.77148Z" fill="#615CED"/>
<path d="M6.12005 13.8091L5.13952 15.5066C5.10634 15.5639 5.08887 15.629 5.08887 15.6953C5.08887 15.7615 5.10634 15.8266 5.13952 15.884L6.22855 17.7698C6.26139 17.8274 6.30893 17.8752 6.36632 17.9084C6.42372 17.9416 6.48889 17.959 6.5552 17.9588H10.6926L6.11947 13.8091H6.12005ZM17.8812 10.0358L18.8611 8.33893C18.8943 8.28155 18.9117 8.21647 18.9117 8.15023C18.9117 8.08398 18.8943 8.0189 18.8611 7.96153L17.7721 6.07571C17.739 6.01835 17.6914 5.9707 17.6341 5.93753C17.5767 5.90436 17.5117 5.88684 17.4455 5.88672L8.51335 5.8908L7.42665 7.77254L8.16161 11.9245L17.8812 10.0358Z" fill="#615CED"/>
<path d="M13.3061 5.88641L12.3261 4.18899C12.2931 4.13156 12.2455 4.08384 12.1882 4.05066C12.1308 4.01748 12.0657 4.00001 11.9995 4H9.82141C9.75516 3.99971 9.69002 4.01699 9.63264 4.05009C9.57525 4.08319 9.52768 4.13092 9.49476 4.18841L8.50431 5.90391L7.42578 7.77164L13.3061 5.88641ZM10.6929 17.9585L11.6722 19.6559C11.7054 19.7132 11.753 19.7607 11.8103 19.7938C11.8677 19.8269 11.9327 19.8443 11.9989 19.8443H14.1769C14.2431 19.8442 14.3081 19.8268 14.3654 19.7937C14.4228 19.7606 14.4704 19.7131 14.5036 19.6559L18.9659 11.9183L17.8797 10.036L13.9168 8.59702L10.6923 17.9585H10.6929Z" fill="#615CED"/>
<path d="M16.5728 16.0706H18.5332C18.668 16.0706 18.7928 15.9983 18.8599 15.8816L19.9489 13.9958C19.9823 13.9385 19.9999 13.8734 19.9999 13.8071C19.9999 13.7408 19.9823 13.6757 19.9489 13.6184L18.9585 11.9029L17.8805 10.0352L16.5733 16.0706H16.5728Z" fill="#615CED"/>
<path d="M10.9364 17.5734L6.5908 17.5909L7.66757 15.7068L9.8433 15.6975L5.46094 8.17986L7.63783 8.17578L12.0155 15.6846L10.9364 17.5734Z" fill="white"/>
<path d="M7.63721 8.17594L9.79485 4.4043L10.888 6.27903L9.80885 8.16719L18.51 8.13161L17.425 10.0186L8.73382 10.0548L7.63721 8.17652V8.17594Z" fill="white"/>
<path d="M17.4258 10.0176L19.6132 13.7717L17.4433 13.7816L16.3478 11.9022L12.0285 19.456L10.9365 17.5731L15.2506 10.0275L17.4264 10.0176H17.4258Z" fill="white"/>
<path d="M12.0156 15.6842L15.2511 10.0273L8.73389 10.0542L12.0156 15.6848V15.6842Z" fill="#605BEC"/>
<path d="M12.0154 15.6831L7.6377 8.17427L7.85352 7.79688L12.2306 15.3063L12.0154 15.6837V15.6831Z" fill="#605BEC"/>
<path d="M8.7334 10.0537L17.4258 10.0176L17.6445 10.3932L8.95272 10.4294L8.7334 10.0537Z" fill="#605BEC"/>
<path d="M15.2511 10.0254L10.937 17.571L10.5024 17.5728L14.8171 10.0277L15.2511 10.0254Z" fill="#605BEC"/>
</svg>
