<svg width="1400" height="120" viewBox="0 0 1400 120" fill="none" xmlns="http://www.w3.org/2000/svg">
<path d="M272 56H1129V72H272V56Z" fill="url(#paint0_linear_112_4110)"/>
<mask id="mask0_112_4110" style="mask-type:alpha" maskUnits="userSpaceOnUse" x="272" y="72" width="857" height="45">
<path d="M272 72H1129V117H272V72Z" fill="#C4C4C4"/>
</mask>
<g mask="url(#mask0_112_4110)">
<g filter="url(#filter0_f_112_4110)">
<path d="M1004.44 47.4159C1006.88 47.4159 1008.9 47.8852 1010.52 48.8239C1012.15 49.7199 1013.49 50.9359 1014.56 52.4719H1014.81L1015.71 48.0559H1023.9V83.2559C1023.9 86.5412 1023.26 89.2932 1021.98 91.5119C1020.7 93.7732 1018.76 95.4799 1016.16 96.6319C1013.6 97.7839 1010.33 98.3599 1006.36 98.3599C1003.68 98.3599 1001.27 98.1892 999.133 97.8479C996.999 97.5492 994.994 97.0159 993.117 96.2479V88.0559C995.037 88.9092 996.999 89.5706 999.005 90.0399C1001.05 90.5092 1003.4 90.7439 1006.04 90.7439C1008.73 90.7439 1010.76 90.1252 1012.12 88.8879C1013.53 87.6506 1014.24 85.9439 1014.24 83.7679V82.8079C1014.24 82.2959 1014.26 81.6132 1014.3 80.7599C1014.39 79.9066 1014.47 79.1599 1014.56 78.5199H1014.24C1013.26 80.0559 1011.95 81.2932 1010.33 82.2319C1008.75 83.1706 1006.77 83.6399 1004.38 83.6399C1000.37 83.6399 997.149 82.0826 994.717 78.9679C992.327 75.8532 991.133 71.3946 991.133 65.5919C991.133 59.7892 992.349 55.3092 994.781 52.1519C997.213 48.9946 1000.43 47.4159 1004.44 47.4159ZM1007.58 55.0319C1006.17 55.0319 1004.96 55.4372 1003.93 56.2479C1002.95 57.0586 1002.2 58.2532 1001.69 59.8319C1001.22 61.4106 1000.99 63.3732 1000.99 65.7199C1000.99 69.2186 1001.54 71.8212 1002.65 73.5279C1003.8 75.2346 1005.51 76.0879 1007.77 76.0879C1009.05 76.0879 1010.14 75.8959 1011.04 75.5119C1011.93 75.1279 1012.66 74.5732 1013.21 73.8479C1013.77 73.0799 1014.17 72.1199 1014.43 70.9679C1014.73 69.8159 1014.88 68.4506 1014.88 66.8719V65.4639C1014.88 63.1172 1014.64 61.1759 1014.17 59.6399C1013.7 58.1039 1012.94 56.9519 1011.87 56.1839C1010.8 55.4159 1009.37 55.0319 1007.58 55.0319Z" fill="url(#paint1_linear_112_4110)" fill-opacity="0.7"/>
<path d="M971.14 47.4159C974.98 47.4159 978.009 48.4186 980.228 50.4239C982.446 52.4292 983.556 55.6932 983.556 60.2159V82.9999H973.956V62.6479C973.956 60.1306 973.486 58.2532 972.548 57.0159C971.652 55.7359 970.244 55.0959 968.324 55.0959C965.422 55.0959 963.438 56.0986 962.372 58.1039C961.348 60.0666 960.836 62.9039 960.836 66.6159V82.9999H951.172V48.0559H958.596L959.94 52.7279H960.324C961.092 51.5759 962.009 50.6159 963.076 49.8479C964.185 49.0372 965.401 48.4399 966.724 48.0559C968.089 47.6292 969.561 47.4159 971.14 47.4159Z" fill="url(#paint2_linear_112_4110)" fill-opacity="0.7"/>
<path d="M941.739 48.0559V82.9999H934.315L933.099 78.5199H932.523C931.797 79.7146 930.859 80.6959 929.707 81.4639C928.597 82.2319 927.36 82.7866 925.995 83.1279C924.672 83.4692 923.264 83.6399 921.771 83.6399C919.296 83.6399 917.12 83.1919 915.243 82.2959C913.408 81.3999 911.957 80.0132 910.891 78.1359C909.867 76.2586 909.355 73.8266 909.355 70.8399V48.0559H919.083V68.4079C919.083 70.8826 919.509 72.7599 920.363 74.0399C921.259 75.2772 922.667 75.8959 924.587 75.8959C926.549 75.8959 928.064 75.4692 929.131 74.6159C930.24 73.7199 931.008 72.4186 931.435 70.7119C931.861 69.0052 932.075 66.9146 932.075 64.4399V48.0559H941.739Z" fill="url(#paint3_linear_112_4110)" fill-opacity="0.7"/>
<path d="M902.88 82.9999H875.232V77.3039L891.36 55.4159H876.128V48.0559H902.304V54.2639L886.624 75.5759H902.88V82.9999Z" fill="url(#paint4_linear_112_4110)" fill-opacity="0.7"/>
<path d="M865.274 76.0239C866.341 76.0239 867.365 75.9172 868.346 75.7039C869.328 75.4906 870.309 75.2346 871.29 74.9359V82.0399C870.266 82.4666 868.986 82.8292 867.45 83.1279C865.957 83.4692 864.314 83.6399 862.522 83.6399C860.432 83.6399 858.554 83.2986 856.89 82.6159C855.269 81.9332 853.968 80.7599 852.986 79.0959C852.048 77.3892 851.578 75.0426 851.578 72.0559V55.2239H847.034V51.1919L852.282 47.9919L855.034 40.6319H861.114V48.0559H870.906V55.2239H861.114V72.0559C861.114 73.3786 861.498 74.3812 862.266 75.0639C863.034 75.7039 864.037 76.0239 865.274 76.0239Z" fill="url(#paint5_linear_112_4110)" fill-opacity="0.7"/>
<path d="M826.959 47.4159C830.201 47.4159 832.996 48.0346 835.343 49.2719C837.689 50.4666 839.481 52.2586 840.719 54.6479C841.999 56.9946 842.639 59.8746 842.639 63.2879V67.9599H820.175C820.26 70.6052 821.071 72.6959 822.607 74.2319C824.143 75.7252 826.34 76.4719 829.199 76.4719C831.375 76.4719 833.359 76.2586 835.151 75.8319C836.943 75.4052 838.777 74.7652 840.655 73.9119V81.1439C838.948 81.9972 837.135 82.6159 835.215 82.9999C833.337 83.4266 830.991 83.6399 828.175 83.6399C824.719 83.6399 821.647 82.9999 818.959 81.7199C816.313 80.4399 814.223 78.4772 812.687 75.8319C811.151 73.1439 810.383 69.7946 810.383 65.7839C810.383 61.6879 811.065 58.2959 812.431 55.6079C813.839 52.8772 815.78 50.8292 818.255 49.4639C820.772 48.0986 823.673 47.4159 826.959 47.4159ZM827.215 54.2639C825.295 54.2639 823.737 54.8826 822.543 56.1199C821.348 57.3146 820.644 59.1066 820.431 61.4959H833.615C833.615 60.0879 833.38 58.8506 832.911 57.7839C832.441 56.7172 831.716 55.8639 830.735 55.2239C829.796 54.5839 828.623 54.2639 827.215 54.2639Z" fill="url(#paint6_linear_112_4110)" fill-opacity="0.7"/>
<path d="M804.69 72.6959C804.69 74.9146 804.156 76.8559 803.09 78.5199C802.066 80.1412 800.487 81.3999 798.354 82.2959C796.22 83.1919 793.511 83.6399 790.226 83.6399C787.751 83.6399 785.575 83.4692 783.698 83.1279C781.82 82.8292 780.007 82.3172 778.258 81.5919V73.5919C780.135 74.4879 782.162 75.1919 784.338 75.7039C786.514 76.2159 788.391 76.4719 789.97 76.4719C791.932 76.4719 793.34 76.1946 794.194 75.6399C795.09 75.0852 795.538 74.3386 795.538 73.3999C795.538 72.7599 795.303 72.1839 794.834 71.6719C794.407 71.1599 793.618 70.6266 792.466 70.0719C791.356 69.5172 789.756 68.8346 787.666 68.0239C785.575 67.1706 783.826 66.2959 782.418 65.3999C781.01 64.4612 779.943 63.3519 779.218 62.0719C778.535 60.7919 778.194 59.1919 778.194 57.2719C778.194 54.0719 779.452 51.6399 781.97 49.9759C784.53 48.2692 787.9 47.4159 792.082 47.4159C794.343 47.4159 796.434 47.6506 798.354 48.1199C800.316 48.5892 802.3 49.2506 804.306 50.1039L801.49 56.6959C799.868 55.9706 798.204 55.3732 796.498 54.9039C794.791 54.4346 793.276 54.1999 791.954 54.1999C790.503 54.1999 789.372 54.4346 788.562 54.9039C787.751 55.3306 787.346 55.9492 787.346 56.7599C787.346 57.3572 787.559 57.8906 787.986 58.3599C788.455 58.8292 789.244 59.3199 790.354 59.8319C791.506 60.3439 793.106 61.0052 795.154 61.8159C797.244 62.6266 798.994 63.5012 800.402 64.4399C801.852 65.3359 802.919 66.4452 803.602 67.7679C804.327 69.0479 804.69 70.6906 804.69 72.6959Z" fill="url(#paint7_linear_112_4110)" fill-opacity="0.7"/>
<path d="M770.625 47.4159C771.265 47.4159 771.947 47.4586 772.673 47.5439C773.441 47.5866 774.038 47.6719 774.465 47.7999L773.505 56.8239C773.035 56.7386 772.481 56.6532 771.841 56.5679C771.201 56.4826 770.433 56.4399 769.537 56.4399C768.555 56.4399 767.553 56.5892 766.529 56.8879C765.547 57.1866 764.63 57.6772 763.777 58.3599C762.923 59.0426 762.241 59.9386 761.729 61.0479C761.217 62.1572 760.961 63.5652 760.961 65.2719V82.9999H751.297V48.0559H758.657L760.065 53.9439H760.513C761.195 52.7066 762.049 51.5972 763.073 50.6159C764.097 49.6346 765.249 48.8666 766.529 48.3119C767.809 47.7146 769.174 47.4159 770.625 47.4159Z" fill="url(#paint8_linear_112_4110)" fill-opacity="0.7"/>
<path d="M728.021 47.4159C731.264 47.4159 734.059 48.0346 736.405 49.2719C738.752 50.4666 740.544 52.2586 741.781 54.6479C743.061 56.9946 743.701 59.8746 743.701 63.2879V67.9599H721.237C721.323 70.6052 722.133 72.6959 723.669 74.2319C725.205 75.7252 727.403 76.4719 730.261 76.4719C732.437 76.4719 734.421 76.2586 736.213 75.8319C738.005 75.4052 739.84 74.7652 741.717 73.9119V81.1439C740.011 81.9972 738.197 82.6159 736.277 82.9999C734.4 83.4266 732.053 83.6399 729.237 83.6399C725.781 83.6399 722.709 82.9999 720.021 81.7199C717.376 80.4399 715.285 78.4772 713.749 75.8319C712.213 73.1439 711.445 69.7946 711.445 65.7839C711.445 61.6879 712.128 58.2959 713.493 55.6079C714.901 52.8772 716.843 50.8292 719.317 49.4639C721.835 48.0986 724.736 47.4159 728.021 47.4159ZM728.277 54.2639C726.357 54.2639 724.8 54.8826 723.605 56.1199C722.411 57.3146 721.707 59.1066 721.493 61.4959H734.677C734.677 60.0879 734.443 58.8506 733.973 57.7839C733.504 56.7172 732.779 55.8639 731.797 55.2239C730.859 54.5839 729.685 54.2639 728.277 54.2639Z" fill="url(#paint9_linear_112_4110)" fill-opacity="0.7"/>
<path d="M682.336 45.6879C682.336 47.0106 682.293 48.2692 682.208 49.4639C682.165 50.6586 682.08 51.7039 681.952 52.5999H682.336C683.274 51.1492 684.533 49.9332 686.112 48.9519C687.69 47.9279 689.738 47.4159 692.256 47.4159C696.138 47.4159 699.296 48.9519 701.728 52.0239C704.16 55.0532 705.376 59.5332 705.376 65.4639C705.376 69.4319 704.821 72.7812 703.712 75.5119C702.602 78.1999 701.024 80.2266 698.976 81.5919C696.97 82.9572 694.645 83.6399 692 83.6399C689.44 83.6399 687.413 83.1919 685.92 82.2959C684.469 81.3572 683.274 80.3332 682.336 79.2239H681.696L680.096 82.9999H672.672V34.3599H682.336V45.6879ZM689.12 55.0959C687.498 55.0959 686.176 55.4372 685.152 56.1199C684.17 56.8026 683.445 57.8479 682.976 59.2559C682.549 60.6212 682.336 62.4132 682.336 64.6319V65.7839C682.336 69.0692 682.826 71.5652 683.808 73.2719C684.832 74.9786 686.645 75.8319 689.248 75.8319C691.338 75.8319 692.917 74.9359 693.984 73.1439C695.05 71.3519 695.584 68.7492 695.584 65.3359C695.584 61.9652 695.05 59.4266 693.984 57.7199C692.96 55.9706 691.338 55.0959 689.12 55.0959Z" fill="url(#paint10_linear_112_4110)" fill-opacity="0.7"/>
<path d="M663.239 48.0559V82.9999H655.815L654.599 78.5199H654.023C653.297 79.7146 652.359 80.6959 651.207 81.4639C650.097 82.2319 648.86 82.7866 647.495 83.1279C646.172 83.4692 644.764 83.6399 643.271 83.6399C640.796 83.6399 638.62 83.1919 636.743 82.2959C634.908 81.3999 633.457 80.0132 632.391 78.1359C631.367 76.2586 630.855 73.8266 630.855 70.8399V48.0559H640.583V68.4079C640.583 70.8826 641.009 72.7599 641.863 74.0399C642.759 75.2772 644.167 75.8959 646.087 75.8959C648.049 75.8959 649.564 75.4692 650.631 74.6159C651.74 73.7199 652.508 72.4186 652.935 70.7119C653.361 69.0052 653.575 66.9146 653.575 64.4399V48.0559H663.239ZM635.847 39.0959C635.847 37.6026 636.273 36.5146 637.127 35.8319C637.98 35.1492 639.025 34.8079 640.263 34.8079C641.457 34.8079 642.481 35.1492 643.335 35.8319C644.231 36.5146 644.679 37.6026 644.679 39.0959C644.679 40.5039 644.231 41.5492 643.335 42.2319C642.481 42.9146 641.457 43.2559 640.263 43.2559C639.025 43.2559 637.98 42.9146 637.127 42.2319C636.273 41.5492 635.847 40.5039 635.847 39.0959ZM649.671 39.0959C649.671 37.6026 650.076 36.5146 650.887 35.8319C651.74 35.1492 652.807 34.8079 654.087 34.8079C655.281 34.8079 656.305 35.1492 657.159 35.8319C658.055 36.5146 658.503 37.6026 658.503 39.0959C658.503 40.5039 658.055 41.5492 657.159 42.2319C656.305 42.9146 655.281 43.2559 654.087 43.2559C652.807 43.2559 651.74 42.9146 650.887 42.2319C650.076 41.5492 649.671 40.5039 649.671 39.0959Z" fill="url(#paint11_linear_112_4110)" fill-opacity="0.7"/>
<path d="M607.771 47.4159C611.014 47.4159 613.809 48.0346 616.155 49.2719C618.502 50.4666 620.294 52.2586 621.531 54.6479C622.811 56.9946 623.451 59.8746 623.451 63.2879V67.9599H600.987C601.073 70.6052 601.883 72.6959 603.419 74.2319C604.955 75.7252 607.153 76.4719 610.011 76.4719C612.187 76.4719 614.171 76.2586 615.963 75.8319C617.755 75.4052 619.59 74.7652 621.467 73.9119V81.1439C619.761 81.9972 617.947 82.6159 616.027 82.9999C614.15 83.4266 611.803 83.6399 608.987 83.6399C605.531 83.6399 602.459 82.9999 599.771 81.7199C597.126 80.4399 595.035 78.4772 593.499 75.8319C591.963 73.1439 591.195 69.7946 591.195 65.7839C591.195 61.6879 591.878 58.2959 593.243 55.6079C594.651 52.8772 596.593 50.8292 599.067 49.4639C601.585 48.0986 604.486 47.4159 607.771 47.4159ZM608.027 54.2639C606.107 54.2639 604.55 54.8826 603.355 56.1199C602.161 57.3146 601.457 59.1066 601.243 61.4959H614.427C614.427 60.0879 614.193 58.8506 613.723 57.7839C613.254 56.7172 612.529 55.8639 611.547 55.2239C610.609 54.5839 609.435 54.2639 608.027 54.2639Z" fill="url(#paint12_linear_112_4110)" fill-opacity="0.7"/>
<path d="M562.086 45.6879C562.086 47.0106 562.043 48.2692 561.958 49.4639C561.915 50.6586 561.83 51.7039 561.702 52.5999H562.086C563.024 51.1492 564.283 49.9332 565.862 48.9519C567.44 47.9279 569.488 47.4159 572.006 47.4159C575.888 47.4159 579.046 48.9519 581.478 52.0239C583.91 55.0532 585.126 59.5332 585.126 65.4639C585.126 69.4319 584.571 72.7812 583.462 75.5119C582.352 78.1999 580.774 80.2266 578.726 81.5919C576.72 82.9572 574.395 83.6399 571.75 83.6399C569.19 83.6399 567.163 83.1919 565.67 82.2959C564.219 81.3572 563.024 80.3332 562.086 79.2239H561.446L559.846 82.9999H552.422V34.3599H562.086V45.6879ZM568.87 55.0959C567.248 55.0959 565.926 55.4372 564.902 56.1199C563.92 56.8026 563.195 57.8479 562.726 59.2559C562.299 60.6212 562.086 62.4132 562.086 64.6319V65.7839C562.086 69.0692 562.576 71.5652 563.558 73.2719C564.582 74.9786 566.395 75.8319 568.998 75.8319C571.088 75.8319 572.667 74.9359 573.734 73.1439C574.8 71.3519 575.334 68.7492 575.334 65.3359C575.334 61.9652 574.8 59.4266 573.734 57.7199C572.71 55.9706 571.088 55.0959 568.87 55.0959Z" fill="url(#paint13_linear_112_4110)" fill-opacity="0.7"/>
<path d="M529.725 47.4159C534.12 47.4159 537.469 48.4612 539.773 50.5519C542.077 52.5999 543.229 55.6506 543.229 59.7039V82.9999H536.509L534.653 78.2639H534.397C533.416 79.5012 532.392 80.5252 531.325 81.3359C530.301 82.1466 529.107 82.7226 527.741 83.0639C526.376 83.4479 524.712 83.6399 522.749 83.6399C520.701 83.6399 518.867 83.2559 517.245 82.4879C515.624 81.6772 514.344 80.4612 513.405 78.8399C512.467 77.2186 511.997 75.1706 511.997 72.6959C511.997 69.0266 513.32 66.2746 515.965 64.4399C518.611 62.6052 522.557 61.5812 527.805 61.3679L533.629 61.1759V60.0879C533.629 57.9972 533.16 56.5466 532.221 55.7359C531.283 54.8826 529.96 54.4559 528.253 54.4559C526.675 54.4559 525.053 54.7119 523.389 55.2239C521.725 55.7359 520.083 56.3546 518.461 57.0799L515.645 50.4879C517.48 49.5492 519.571 48.8026 521.917 48.2479C524.307 47.6932 526.909 47.4159 529.725 47.4159ZM529.981 66.9999C526.952 67.0852 524.84 67.5759 523.645 68.4719C522.451 69.3679 521.853 70.6266 521.853 72.2479C521.853 73.7412 522.259 74.8506 523.069 75.5759C523.923 76.2586 525.053 76.5999 526.461 76.5999C528.467 76.5999 530.152 76.0026 531.517 74.8079C532.925 73.6132 533.629 71.9066 533.629 69.6879V66.8079L529.981 66.9999Z" fill="url(#paint14_linear_112_4110)" fill-opacity="0.7"/>
<path d="M485.32 47.4159C487.752 47.4159 489.778 47.8852 491.4 48.8239C493.021 49.7199 494.365 50.9359 495.432 52.4719H495.688L496.584 48.0559H504.776V83.2559C504.776 86.5412 504.136 89.2932 502.856 91.5119C501.576 93.7732 499.634 95.4799 497.032 96.6319C494.472 97.7839 491.208 98.3599 487.24 98.3599C484.552 98.3599 482.141 98.1892 480.008 97.8479C477.874 97.5492 475.869 97.0159 473.992 96.2479V88.0559C475.912 88.9092 477.874 89.5706 479.88 90.0399C481.928 90.5092 484.274 90.7439 486.92 90.7439C489.608 90.7439 491.634 90.1252 493 88.8879C494.408 87.6506 495.112 85.9439 495.112 83.7679V82.8079C495.112 82.2959 495.133 81.6132 495.176 80.7599C495.261 79.9066 495.346 79.1599 495.432 78.5199H495.112C494.13 80.0559 492.829 81.2932 491.208 82.2319C489.629 83.1706 487.645 83.6399 485.256 83.6399C481.245 83.6399 478.024 82.0826 475.592 78.9679C473.202 75.8532 472.008 71.3946 472.008 65.5919C472.008 59.7892 473.224 55.3092 475.656 52.1519C478.088 48.9946 481.309 47.4159 485.32 47.4159ZM488.456 55.0319C487.048 55.0319 485.832 55.4372 484.808 56.2479C483.826 57.0586 483.08 58.2532 482.568 59.8319C482.098 61.4106 481.864 63.3732 481.864 65.7199C481.864 69.2186 482.418 71.8212 483.528 73.5279C484.68 75.2346 486.386 76.0879 488.648 76.0879C489.928 76.0879 491.016 75.8959 491.912 75.5119C492.808 75.1279 493.533 74.5732 494.088 73.8479C494.642 73.0799 495.048 72.1199 495.304 70.9679C495.602 69.8159 495.752 68.4506 495.752 66.8719V65.4639C495.752 63.1172 495.517 61.1759 495.048 59.6399C494.578 58.1039 493.81 56.9519 492.744 56.1839C491.677 55.4159 490.248 55.0319 488.456 55.0319Z" fill="url(#paint15_linear_112_4110)" fill-opacity="0.7"/>
<path d="M452.015 47.4159C455.855 47.4159 458.884 48.4186 461.103 50.4239C463.321 52.4292 464.431 55.6932 464.431 60.2159V82.9999H454.831V62.6479C454.831 60.1306 454.361 58.2532 453.423 57.0159C452.527 55.7359 451.119 55.0959 449.199 55.0959C446.297 55.0959 444.313 56.0986 443.247 58.1039C442.223 60.0666 441.711 62.9039 441.711 66.6159V82.9999H432.047V48.0559H439.471L440.815 52.7279H441.199C441.967 51.5759 442.884 50.6159 443.951 49.8479C445.06 49.0372 446.276 48.4399 447.599 48.0559C448.964 47.6292 450.436 47.4159 452.015 47.4159Z" fill="url(#paint16_linear_112_4110)" fill-opacity="0.7"/>
<path d="M422.65 48.0559V82.9999H412.986V48.0559H422.65ZM417.85 34.2959C419.258 34.2959 420.474 34.6372 421.498 35.3199C422.564 35.9599 423.098 37.1972 423.098 39.0319C423.098 40.7812 422.564 41.9972 421.498 42.6799C420.474 43.3626 419.258 43.7039 417.85 43.7039C416.399 43.7039 415.162 43.3626 414.138 42.6799C413.114 41.9972 412.602 40.7812 412.602 39.0319C412.602 37.1972 413.114 35.9599 414.138 35.3199C415.162 34.6372 416.399 34.2959 417.85 34.2959Z" fill="url(#paint17_linear_112_4110)" fill-opacity="0.7"/>
<path d="M404.501 82.9999H378.197V37.3039H404.501V45.2399H387.861V55.2879H403.349V63.2239H387.861V74.9999H404.501V82.9999Z" fill="url(#paint18_linear_112_4110)" fill-opacity="0.7"/>
</g>
</g>
<path d="M272 72H1129V105C1129 111.627 1123.63 117 1117 117H284C277.373 117 272 111.627 272 105V72Z" fill="url(#paint19_linear_112_4110)"/>
<path d="M1004.44 35.4159C1006.88 35.4159 1008.9 35.8852 1010.52 36.8239C1012.15 37.7199 1013.49 38.9359 1014.56 40.4719H1014.81L1015.71 36.0559H1023.9V71.2559C1023.9 74.5412 1023.26 77.2932 1021.98 79.5119C1020.7 81.7732 1018.76 83.4799 1016.16 84.6319C1013.6 85.7839 1010.33 86.3599 1006.36 86.3599C1003.68 86.3599 1001.27 86.1892 999.133 85.8479C996.999 85.5492 994.994 85.0159 993.117 84.2479V76.0559C995.037 76.9092 996.999 77.5706 999.005 78.0399C1001.05 78.5092 1003.4 78.7439 1006.04 78.7439C1008.73 78.7439 1010.76 78.1252 1012.12 76.8879C1013.53 75.6506 1014.24 73.9439 1014.24 71.7679V70.8079C1014.24 70.2959 1014.26 69.6132 1014.3 68.7599C1014.39 67.9066 1014.47 67.1599 1014.56 66.5199H1014.24C1013.26 68.0559 1011.95 69.2932 1010.33 70.2319C1008.75 71.1706 1006.77 71.6399 1004.38 71.6399C1000.37 71.6399 997.149 70.0826 994.717 66.9679C992.327 63.8532 991.133 59.3946 991.133 53.5919C991.133 47.7892 992.349 43.3092 994.781 40.1519C997.213 36.9946 1000.43 35.4159 1004.44 35.4159ZM1007.58 43.0319C1006.17 43.0319 1004.96 43.4372 1003.93 44.2479C1002.95 45.0586 1002.2 46.2532 1001.69 47.8319C1001.22 49.4106 1000.99 51.3732 1000.99 53.7199C1000.99 57.2186 1001.54 59.8212 1002.65 61.5279C1003.8 63.2346 1005.51 64.0879 1007.77 64.0879C1009.05 64.0879 1010.14 63.8959 1011.04 63.5119C1011.93 63.1279 1012.66 62.5732 1013.21 61.8479C1013.77 61.0799 1014.17 60.1199 1014.43 58.9679C1014.73 57.8159 1014.88 56.4506 1014.88 54.8719V53.4639C1014.88 51.1172 1014.64 49.1759 1014.17 47.6399C1013.7 46.1039 1012.94 44.9519 1011.87 44.1839C1010.8 43.4159 1009.37 43.0319 1007.58 43.0319Z" fill="url(#paint20_linear_112_4110)"/>
<path d="M971.14 35.4159C974.98 35.4159 978.009 36.4186 980.228 38.4239C982.446 40.4292 983.556 43.6932 983.556 48.2159V70.9999H973.956V50.6479C973.956 48.1306 973.486 46.2532 972.548 45.0159C971.652 43.7359 970.244 43.0959 968.324 43.0959C965.422 43.0959 963.438 44.0986 962.372 46.1039C961.348 48.0666 960.836 50.9039 960.836 54.6159V70.9999H951.172V36.0559H958.596L959.94 40.7279H960.324C961.092 39.5759 962.009 38.6159 963.076 37.8479C964.185 37.0372 965.401 36.4399 966.724 36.0559C968.089 35.6292 969.561 35.4159 971.14 35.4159Z" fill="url(#paint21_linear_112_4110)"/>
<path d="M941.739 36.0559V70.9999H934.315L933.099 66.5199H932.523C931.797 67.7146 930.859 68.6959 929.707 69.4639C928.597 70.2319 927.36 70.7866 925.995 71.1279C924.672 71.4692 923.264 71.6399 921.771 71.6399C919.296 71.6399 917.12 71.1919 915.243 70.2959C913.408 69.3999 911.957 68.0132 910.891 66.1359C909.867 64.2586 909.355 61.8266 909.355 58.8399V36.0559H919.083V56.4079C919.083 58.8826 919.509 60.7599 920.363 62.0399C921.259 63.2772 922.667 63.8959 924.587 63.8959C926.549 63.8959 928.064 63.4692 929.131 62.6159C930.24 61.7199 931.008 60.4186 931.435 58.7119C931.861 57.0052 932.075 54.9146 932.075 52.4399V36.0559H941.739Z" fill="url(#paint22_linear_112_4110)"/>
<path d="M902.88 70.9999H875.232V65.3039L891.36 43.4159H876.128V36.0559H902.304V42.2639L886.624 63.5759H902.88V70.9999Z" fill="url(#paint23_linear_112_4110)"/>
<path d="M865.274 64.0239C866.341 64.0239 867.365 63.9172 868.346 63.7039C869.328 63.4906 870.309 63.2346 871.29 62.9359V70.0399C870.266 70.4666 868.986 70.8292 867.45 71.1279C865.957 71.4692 864.314 71.6399 862.522 71.6399C860.432 71.6399 858.554 71.2986 856.89 70.6159C855.269 69.9332 853.968 68.7599 852.986 67.0959C852.048 65.3892 851.578 63.0426 851.578 60.0559V43.2239H847.034V39.1919L852.282 35.9919L855.034 28.6319H861.114V36.0559H870.906V43.2239H861.114V60.0559C861.114 61.3786 861.498 62.3812 862.266 63.0639C863.034 63.7039 864.037 64.0239 865.274 64.0239Z" fill="url(#paint24_linear_112_4110)"/>
<path d="M826.959 35.4159C830.201 35.4159 832.996 36.0346 835.343 37.2719C837.689 38.4666 839.481 40.2586 840.719 42.6479C841.999 44.9946 842.639 47.8746 842.639 51.2879V55.9599H820.175C820.26 58.6052 821.071 60.6959 822.607 62.2319C824.143 63.7252 826.34 64.4719 829.199 64.4719C831.375 64.4719 833.359 64.2586 835.151 63.8319C836.943 63.4052 838.777 62.7652 840.655 61.9119V69.1439C838.948 69.9972 837.135 70.6159 835.215 70.9999C833.337 71.4266 830.991 71.6399 828.175 71.6399C824.719 71.6399 821.647 70.9999 818.959 69.7199C816.313 68.4399 814.223 66.4772 812.687 63.8319C811.151 61.1439 810.383 57.7946 810.383 53.7839C810.383 49.6879 811.065 46.2959 812.431 43.6079C813.839 40.8772 815.78 38.8292 818.255 37.4639C820.772 36.0986 823.673 35.4159 826.959 35.4159ZM827.215 42.2639C825.295 42.2639 823.737 42.8826 822.543 44.1199C821.348 45.3146 820.644 47.1066 820.431 49.4959H833.615C833.615 48.0879 833.38 46.8506 832.911 45.7839C832.441 44.7172 831.716 43.8639 830.735 43.2239C829.796 42.5839 828.623 42.2639 827.215 42.2639Z" fill="url(#paint25_linear_112_4110)"/>
<path d="M804.69 60.6959C804.69 62.9146 804.156 64.8559 803.09 66.5199C802.066 68.1412 800.487 69.3999 798.354 70.2959C796.22 71.1919 793.511 71.6399 790.226 71.6399C787.751 71.6399 785.575 71.4692 783.698 71.1279C781.82 70.8292 780.007 70.3172 778.258 69.5919V61.5919C780.135 62.4879 782.162 63.1919 784.338 63.7039C786.514 64.2159 788.391 64.4719 789.97 64.4719C791.932 64.4719 793.34 64.1946 794.194 63.6399C795.09 63.0852 795.538 62.3386 795.538 61.3999C795.538 60.7599 795.303 60.1839 794.834 59.6719C794.407 59.1599 793.618 58.6266 792.466 58.0719C791.356 57.5172 789.756 56.8346 787.666 56.0239C785.575 55.1706 783.826 54.2959 782.418 53.3999C781.01 52.4612 779.943 51.3519 779.218 50.0719C778.535 48.7919 778.194 47.1919 778.194 45.2719C778.194 42.0719 779.452 39.6399 781.97 37.9759C784.53 36.2692 787.9 35.4159 792.082 35.4159C794.343 35.4159 796.434 35.6506 798.354 36.1199C800.316 36.5892 802.3 37.2506 804.306 38.1039L801.49 44.6959C799.868 43.9706 798.204 43.3732 796.498 42.9039C794.791 42.4346 793.276 42.1999 791.954 42.1999C790.503 42.1999 789.372 42.4346 788.562 42.9039C787.751 43.3306 787.346 43.9492 787.346 44.7599C787.346 45.3572 787.559 45.8906 787.986 46.3599C788.455 46.8292 789.244 47.3199 790.354 47.8319C791.506 48.3439 793.106 49.0052 795.154 49.8159C797.244 50.6266 798.994 51.5012 800.402 52.4399C801.852 53.3359 802.919 54.4452 803.602 55.7679C804.327 57.0479 804.69 58.6906 804.69 60.6959Z" fill="url(#paint26_linear_112_4110)"/>
<path d="M770.625 35.4159C771.265 35.4159 771.947 35.4586 772.673 35.5439C773.441 35.5866 774.038 35.6719 774.465 35.7999L773.505 44.8239C773.035 44.7386 772.481 44.6532 771.841 44.5679C771.201 44.4826 770.433 44.4399 769.537 44.4399C768.555 44.4399 767.553 44.5892 766.529 44.8879C765.547 45.1866 764.63 45.6772 763.777 46.3599C762.923 47.0426 762.241 47.9386 761.729 49.0479C761.217 50.1572 760.961 51.5652 760.961 53.2719V70.9999H751.297V36.0559H758.657L760.065 41.9439H760.513C761.195 40.7066 762.049 39.5972 763.073 38.6159C764.097 37.6346 765.249 36.8666 766.529 36.3119C767.809 35.7146 769.174 35.4159 770.625 35.4159Z" fill="url(#paint27_linear_112_4110)"/>
<path d="M728.021 35.4159C731.264 35.4159 734.059 36.0346 736.405 37.2719C738.752 38.4666 740.544 40.2586 741.781 42.6479C743.061 44.9946 743.701 47.8746 743.701 51.2879V55.9599H721.237C721.323 58.6052 722.133 60.6959 723.669 62.2319C725.205 63.7252 727.403 64.4719 730.261 64.4719C732.437 64.4719 734.421 64.2586 736.213 63.8319C738.005 63.4052 739.84 62.7652 741.717 61.9119V69.1439C740.011 69.9972 738.197 70.6159 736.277 70.9999C734.4 71.4266 732.053 71.6399 729.237 71.6399C725.781 71.6399 722.709 70.9999 720.021 69.7199C717.376 68.4399 715.285 66.4772 713.749 63.8319C712.213 61.1439 711.445 57.7946 711.445 53.7839C711.445 49.6879 712.128 46.2959 713.493 43.6079C714.901 40.8772 716.843 38.8292 719.317 37.4639C721.835 36.0986 724.736 35.4159 728.021 35.4159ZM728.277 42.2639C726.357 42.2639 724.8 42.8826 723.605 44.1199C722.411 45.3146 721.707 47.1066 721.493 49.4959H734.677C734.677 48.0879 734.443 46.8506 733.973 45.7839C733.504 44.7172 732.779 43.8639 731.797 43.2239C730.859 42.5839 729.685 42.2639 728.277 42.2639Z" fill="url(#paint28_linear_112_4110)"/>
<path d="M682.336 33.6879C682.336 35.0106 682.293 36.2692 682.208 37.4639C682.165 38.6586 682.08 39.7039 681.952 40.5999H682.336C683.274 39.1492 684.533 37.9332 686.112 36.9519C687.69 35.9279 689.738 35.4159 692.256 35.4159C696.138 35.4159 699.296 36.9519 701.728 40.0239C704.16 43.0532 705.376 47.5332 705.376 53.4639C705.376 57.4319 704.821 60.7812 703.712 63.5119C702.602 66.1999 701.024 68.2266 698.976 69.5919C696.97 70.9572 694.645 71.6399 692 71.6399C689.44 71.6399 687.413 71.1919 685.92 70.2959C684.469 69.3572 683.274 68.3332 682.336 67.2239H681.696L680.096 70.9999H672.672V22.3599H682.336V33.6879ZM689.12 43.0959C687.498 43.0959 686.176 43.4372 685.152 44.1199C684.17 44.8026 683.445 45.8479 682.976 47.2559C682.549 48.6212 682.336 50.4132 682.336 52.6319V53.7839C682.336 57.0692 682.826 59.5652 683.808 61.2719C684.832 62.9786 686.645 63.8319 689.248 63.8319C691.338 63.8319 692.917 62.9359 693.984 61.1439C695.05 59.3519 695.584 56.7492 695.584 53.3359C695.584 49.9652 695.05 47.4266 693.984 45.7199C692.96 43.9706 691.338 43.0959 689.12 43.0959Z" fill="url(#paint29_linear_112_4110)"/>
<path d="M663.239 36.0559V70.9999H655.815L654.599 66.5199H654.023C653.297 67.7146 652.359 68.6959 651.207 69.4639C650.097 70.2319 648.86 70.7866 647.495 71.1279C646.172 71.4692 644.764 71.6399 643.271 71.6399C640.796 71.6399 638.62 71.1919 636.743 70.2959C634.908 69.3999 633.457 68.0132 632.391 66.1359C631.367 64.2586 630.855 61.8266 630.855 58.8399V36.0559H640.583V56.4079C640.583 58.8826 641.009 60.7599 641.863 62.0399C642.759 63.2772 644.167 63.8959 646.087 63.8959C648.049 63.8959 649.564 63.4692 650.631 62.6159C651.74 61.7199 652.508 60.4186 652.935 58.7119C653.361 57.0052 653.575 54.9146 653.575 52.4399V36.0559H663.239ZM635.847 27.0959C635.847 25.6026 636.273 24.5146 637.127 23.8319C637.98 23.1492 639.025 22.8079 640.263 22.8079C641.457 22.8079 642.481 23.1492 643.335 23.8319C644.231 24.5146 644.679 25.6026 644.679 27.0959C644.679 28.5039 644.231 29.5492 643.335 30.2319C642.481 30.9146 641.457 31.2559 640.263 31.2559C639.025 31.2559 637.98 30.9146 637.127 30.2319C636.273 29.5492 635.847 28.5039 635.847 27.0959ZM649.671 27.0959C649.671 25.6026 650.076 24.5146 650.887 23.8319C651.74 23.1492 652.807 22.8079 654.087 22.8079C655.281 22.8079 656.305 23.1492 657.159 23.8319C658.055 24.5146 658.503 25.6026 658.503 27.0959C658.503 28.5039 658.055 29.5492 657.159 30.2319C656.305 30.9146 655.281 31.2559 654.087 31.2559C652.807 31.2559 651.74 30.9146 650.887 30.2319C650.076 29.5492 649.671 28.5039 649.671 27.0959Z" fill="url(#paint30_linear_112_4110)"/>
<path d="M607.771 35.4159C611.014 35.4159 613.809 36.0346 616.155 37.2719C618.502 38.4666 620.294 40.2586 621.531 42.6479C622.811 44.9946 623.451 47.8746 623.451 51.2879V55.9599H600.987C601.073 58.6052 601.883 60.6959 603.419 62.2319C604.955 63.7252 607.153 64.4719 610.011 64.4719C612.187 64.4719 614.171 64.2586 615.963 63.8319C617.755 63.4052 619.59 62.7652 621.467 61.9119V69.1439C619.761 69.9972 617.947 70.6159 616.027 70.9999C614.15 71.4266 611.803 71.6399 608.987 71.6399C605.531 71.6399 602.459 70.9999 599.771 69.7199C597.126 68.4399 595.035 66.4772 593.499 63.8319C591.963 61.1439 591.195 57.7946 591.195 53.7839C591.195 49.6879 591.878 46.2959 593.243 43.6079C594.651 40.8772 596.593 38.8292 599.067 37.4639C601.585 36.0986 604.486 35.4159 607.771 35.4159ZM608.027 42.2639C606.107 42.2639 604.55 42.8826 603.355 44.1199C602.161 45.3146 601.457 47.1066 601.243 49.4959H614.427C614.427 48.0879 614.193 46.8506 613.723 45.7839C613.254 44.7172 612.529 43.8639 611.547 43.2239C610.609 42.5839 609.435 42.2639 608.027 42.2639Z" fill="url(#paint31_linear_112_4110)"/>
<path d="M562.086 33.6879C562.086 35.0106 562.043 36.2692 561.958 37.4639C561.915 38.6586 561.83 39.7039 561.702 40.5999H562.086C563.024 39.1492 564.283 37.9332 565.862 36.9519C567.44 35.9279 569.488 35.4159 572.006 35.4159C575.888 35.4159 579.046 36.9519 581.478 40.0239C583.91 43.0532 585.126 47.5332 585.126 53.4639C585.126 57.4319 584.571 60.7812 583.462 63.5119C582.352 66.1999 580.774 68.2266 578.726 69.5919C576.72 70.9572 574.395 71.6399 571.75 71.6399C569.19 71.6399 567.163 71.1919 565.67 70.2959C564.219 69.3572 563.024 68.3332 562.086 67.2239H561.446L559.846 70.9999H552.422V22.3599H562.086V33.6879ZM568.87 43.0959C567.248 43.0959 565.926 43.4372 564.902 44.1199C563.92 44.8026 563.195 45.8479 562.726 47.2559C562.299 48.6212 562.086 50.4132 562.086 52.6319V53.7839C562.086 57.0692 562.576 59.5652 563.558 61.2719C564.582 62.9786 566.395 63.8319 568.998 63.8319C571.088 63.8319 572.667 62.9359 573.734 61.1439C574.8 59.3519 575.334 56.7492 575.334 53.3359C575.334 49.9652 574.8 47.4266 573.734 45.7199C572.71 43.9706 571.088 43.0959 568.87 43.0959Z" fill="url(#paint32_linear_112_4110)"/>
<path d="M529.725 35.4159C534.12 35.4159 537.469 36.4612 539.773 38.5519C542.077 40.5999 543.229 43.6506 543.229 47.7039V70.9999H536.509L534.653 66.2639H534.397C533.416 67.5012 532.392 68.5252 531.325 69.3359C530.301 70.1466 529.107 70.7226 527.741 71.0639C526.376 71.4479 524.712 71.6399 522.749 71.6399C520.701 71.6399 518.867 71.2559 517.245 70.4879C515.624 69.6772 514.344 68.4612 513.405 66.8399C512.467 65.2186 511.997 63.1706 511.997 60.6959C511.997 57.0266 513.32 54.2746 515.965 52.4399C518.611 50.6052 522.557 49.5812 527.805 49.3679L533.629 49.1759V48.0879C533.629 45.9972 533.16 44.5466 532.221 43.7359C531.283 42.8826 529.96 42.4559 528.253 42.4559C526.675 42.4559 525.053 42.7119 523.389 43.2239C521.725 43.7359 520.083 44.3546 518.461 45.0799L515.645 38.4879C517.48 37.5492 519.571 36.8026 521.917 36.2479C524.307 35.6932 526.909 35.4159 529.725 35.4159ZM529.981 54.9999C526.952 55.0852 524.84 55.5759 523.645 56.4719C522.451 57.3679 521.853 58.6266 521.853 60.2479C521.853 61.7412 522.259 62.8506 523.069 63.5759C523.923 64.2586 525.053 64.5999 526.461 64.5999C528.467 64.5999 530.152 64.0026 531.517 62.8079C532.925 61.6132 533.629 59.9066 533.629 57.6879V54.8079L529.981 54.9999Z" fill="url(#paint33_linear_112_4110)"/>
<path d="M485.32 35.4159C487.752 35.4159 489.778 35.8852 491.4 36.8239C493.021 37.7199 494.365 38.9359 495.432 40.4719H495.688L496.584 36.0559H504.776V71.2559C504.776 74.5412 504.136 77.2932 502.856 79.5119C501.576 81.7732 499.634 83.4799 497.032 84.6319C494.472 85.7839 491.208 86.3599 487.24 86.3599C484.552 86.3599 482.141 86.1892 480.008 85.8479C477.874 85.5492 475.869 85.0159 473.992 84.2479V76.0559C475.912 76.9092 477.874 77.5706 479.88 78.0399C481.928 78.5092 484.274 78.7439 486.92 78.7439C489.608 78.7439 491.634 78.1252 493 76.8879C494.408 75.6506 495.112 73.9439 495.112 71.7679V70.8079C495.112 70.2959 495.133 69.6132 495.176 68.7599C495.261 67.9066 495.346 67.1599 495.432 66.5199H495.112C494.13 68.0559 492.829 69.2932 491.208 70.2319C489.629 71.1706 487.645 71.6399 485.256 71.6399C481.245 71.6399 478.024 70.0826 475.592 66.9679C473.202 63.8532 472.008 59.3946 472.008 53.5919C472.008 47.7892 473.224 43.3092 475.656 40.1519C478.088 36.9946 481.309 35.4159 485.32 35.4159ZM488.456 43.0319C487.048 43.0319 485.832 43.4372 484.808 44.2479C483.826 45.0586 483.08 46.2532 482.568 47.8319C482.098 49.4106 481.864 51.3732 481.864 53.7199C481.864 57.2186 482.418 59.8212 483.528 61.5279C484.68 63.2346 486.386 64.0879 488.648 64.0879C489.928 64.0879 491.016 63.8959 491.912 63.5119C492.808 63.1279 493.533 62.5732 494.088 61.8479C494.642 61.0799 495.048 60.1199 495.304 58.9679C495.602 57.8159 495.752 56.4506 495.752 54.8719V53.4639C495.752 51.1172 495.517 49.1759 495.048 47.6399C494.578 46.1039 493.81 44.9519 492.744 44.1839C491.677 43.4159 490.248 43.0319 488.456 43.0319Z" fill="url(#paint34_linear_112_4110)"/>
<path d="M452.015 35.4159C455.855 35.4159 458.884 36.4186 461.103 38.4239C463.321 40.4292 464.431 43.6932 464.431 48.2159V70.9999H454.831V50.6479C454.831 48.1306 454.361 46.2532 453.423 45.0159C452.527 43.7359 451.119 43.0959 449.199 43.0959C446.297 43.0959 444.313 44.0986 443.247 46.1039C442.223 48.0666 441.711 50.9039 441.711 54.6159V70.9999H432.047V36.0559H439.471L440.815 40.7279H441.199C441.967 39.5759 442.884 38.6159 443.951 37.8479C445.06 37.0372 446.276 36.4399 447.599 36.0559C448.964 35.6292 450.436 35.4159 452.015 35.4159Z" fill="url(#paint35_linear_112_4110)"/>
<path d="M422.65 36.0559V70.9999H412.986V36.0559H422.65ZM417.85 22.2959C419.258 22.2959 420.474 22.6372 421.498 23.3199C422.564 23.9599 423.098 25.1972 423.098 27.0319C423.098 28.7812 422.564 29.9972 421.498 30.6799C420.474 31.3626 419.258 31.7039 417.85 31.7039C416.399 31.7039 415.162 31.3626 414.138 30.6799C413.114 29.9972 412.602 28.7812 412.602 27.0319C412.602 25.1972 413.114 23.9599 414.138 23.3199C415.162 22.6372 416.399 22.2959 417.85 22.2959Z" fill="url(#paint36_linear_112_4110)"/>
<path d="M404.501 70.9999H378.197V25.3039H404.501V33.2399H387.861V43.2879H403.349V51.2239H387.861V62.9999H404.501V70.9999Z" fill="url(#paint37_linear_112_4110)"/>
<defs>
<filter id="filter0_f_112_4110" x="358.197" y="14.2959" width="685.704" height="104.064" filterUnits="userSpaceOnUse" color-interpolation-filters="sRGB">
<feFlood flood-opacity="0" result="BackgroundImageFix"/>
<feBlend mode="normal" in="SourceGraphic" in2="BackgroundImageFix" result="shape"/>
<feGaussianBlur stdDeviation="10" result="effect1_foregroundBlur_112_4110"/>
</filter>
<linearGradient id="paint0_linear_112_4110" x1="272" y1="64.0036" x2="1129" y2="64.0028" gradientUnits="userSpaceOnUse">
<stop stop-color="white" stop-opacity="0.3"/>
<stop offset="0.495" stop-color="#CBB0F8"/>
<stop offset="1" stop-color="white" stop-opacity="0.3"/>
</linearGradient>
<linearGradient id="paint1_linear_112_4110" x1="1124.38" y1="48.2344" x2="-11822" y2="48.2598" gradientUnits="userSpaceOnUse">
<stop stop-color="#F4439F"/>
<stop offset="1" stop-color="#7C3AED"/>
</linearGradient>
<linearGradient id="paint2_linear_112_4110" x1="1930.01" y1="54.2511" x2="-11169.9" y2="54.2692" gradientUnits="userSpaceOnUse">
<stop stop-color="#F4439F"/>
<stop offset="1" stop-color="#7C3AED"/>
</linearGradient>
<linearGradient id="paint3_linear_112_4110" x1="2763.79" y1="53.0989" x2="-10336.1" y2="53.117" gradientUnits="userSpaceOnUse">
<stop stop-color="#F4439F"/>
<stop offset="1" stop-color="#7C3AED"/>
</linearGradient>
<linearGradient id="paint4_linear_112_4110" x1="3969.35" y1="53.4432" x2="-11374.5" y2="53.4677" gradientUnits="userSpaceOnUse">
<stop stop-color="#F4439F"/>
<stop offset="1" stop-color="#7C3AED"/>
</linearGradient>
<linearGradient id="paint5_linear_112_4110" x1="5222.18" y1="60.9118" x2="-12267.4" y2="60.9509" gradientUnits="userSpaceOnUse">
<stop stop-color="#F4439F"/>
<stop offset="1" stop-color="#7C3AED"/>
</linearGradient>
<linearGradient id="paint6_linear_112_4110" x1="4754.49" y1="53.8985" x2="-8397.39" y2="53.9171" gradientUnits="userSpaceOnUse">
<stop stop-color="#F4439F"/>
<stop offset="1" stop-color="#7C3AED"/>
</linearGradient>
<linearGradient id="paint7_linear_112_4110" x1="6490.3" y1="53.8985" x2="-9520.69" y2="53.9261" gradientUnits="userSpaceOnUse">
<stop stop-color="#F4439F"/>
<stop offset="1" stop-color="#7C3AED"/>
</linearGradient>
<linearGradient id="paint8_linear_112_4110" x1="8117.92" y1="54.2511" x2="-10193" y2="54.2865" gradientUnits="userSpaceOnUse">
<stop stop-color="#F4439F"/>
<stop offset="1" stop-color="#7C3AED"/>
</linearGradient>
<linearGradient id="paint9_linear_112_4110" x1="6735.03" y1="53.8986" x2="-6416.85" y2="53.9172" gradientUnits="userSpaceOnUse">
<stop stop-color="#F4439F"/>
<stop offset="1" stop-color="#7C3AED"/>
</linearGradient>
<linearGradient id="paint10_linear_112_4110" x1="7413.49" y1="65.6779" x2="-5558.23" y2="65.7025" gradientUnits="userSpaceOnUse">
<stop stop-color="#F4439F"/>
<stop offset="1" stop-color="#7C3AED"/>
</linearGradient>
<linearGradient id="paint11_linear_112_4110" x1="8316.8" y1="65.3781" x2="-4783.1" y2="65.403" gradientUnits="userSpaceOnUse">
<stop stop-color="#F4439F"/>
<stop offset="1" stop-color="#7C3AED"/>
</linearGradient>
<linearGradient id="paint12_linear_112_4110" x1="9142.2" y1="53.8986" x2="-4009.68" y2="53.9172" gradientUnits="userSpaceOnUse">
<stop stop-color="#F4439F"/>
<stop offset="1" stop-color="#7C3AED"/>
</linearGradient>
<linearGradient id="paint13_linear_112_4110" x1="9787.69" y1="65.6779" x2="-3184.03" y2="65.7025" gradientUnits="userSpaceOnUse">
<stop stop-color="#F4439F"/>
<stop offset="1" stop-color="#7C3AED"/>
</linearGradient>
<linearGradient id="paint14_linear_112_4110" x1="11066.9" y1="53.8986" x2="-2516.17" y2="53.9184" gradientUnits="userSpaceOnUse">
<stop stop-color="#F4439F"/>
<stop offset="1" stop-color="#7C3AED"/>
</linearGradient>
<linearGradient id="paint15_linear_112_4110" x1="11353.9" y1="48.2345" x2="-1592.49" y2="48.2599" gradientUnits="userSpaceOnUse">
<stop stop-color="#F4439F"/>
<stop offset="1" stop-color="#7C3AED"/>
</linearGradient>
<linearGradient id="paint16_linear_112_4110" x1="12280.8" y1="54.2511" x2="-819.078" y2="54.2693" gradientUnits="userSpaceOnUse">
<stop stop-color="#F4439F"/>
<stop offset="1" stop-color="#7C3AED"/>
</linearGradient>
<linearGradient id="paint17_linear_112_4110" x1="38298.4" y1="66.1333" x2="-2119.6" y2="66.3696" gradientUnits="userSpaceOnUse">
<stop stop-color="#F4439F"/>
<stop offset="1" stop-color="#7C3AED"/>
</linearGradient>
<linearGradient id="paint18_linear_112_4110" x1="1029" y1="58.4997" x2="372" y2="58.4998" gradientUnits="userSpaceOnUse">
<stop stop-color="#F4439F"/>
<stop offset="1" stop-color="#7C3AED"/>
</linearGradient>
<linearGradient id="paint19_linear_112_4110" x1="700.5" y1="72" x2="700.5" y2="117" gradientUnits="userSpaceOnUse">
<stop offset="0.0001" stop-color="white" stop-opacity="0.1"/>
<stop offset="1" stop-color="white" stop-opacity="0"/>
</linearGradient>
<linearGradient id="paint20_linear_112_4110" x1="1124.38" y1="-18.4685" x2="935.759" y2="1575.42" gradientUnits="userSpaceOnUse">
<stop stop-color="#F4439F"/>
<stop offset="1" stop-color="#7C3AED"/>
</linearGradient>
<linearGradient id="paint21_linear_112_4110" x1="1930.01" y1="-36.0646" x2="1553.15" y2="2214.7" gradientUnits="userSpaceOnUse">
<stop stop-color="#F4439F"/>
<stop offset="1" stop-color="#7C3AED"/>
</linearGradient>
<linearGradient id="paint22_linear_112_4110" x1="2763.79" y1="-37.2168" x2="2386.94" y2="2213.54" gradientUnits="userSpaceOnUse">
<stop stop-color="#F4439F"/>
<stop offset="1" stop-color="#7C3AED"/>
</linearGradient>
<linearGradient id="paint23_linear_112_4110" x1="3969.35" y1="-38.3068" x2="3633.48" y2="2269.04" gradientUnits="userSpaceOnUse">
<stop stop-color="#F4439F"/>
<stop offset="1" stop-color="#7C3AED"/>
</linearGradient>
<linearGradient id="paint24_linear_112_4110" x1="5222.18" y1="-15.8851" x2="5025.65" y2="1878.17" gradientUnits="userSpaceOnUse">
<stop stop-color="#F4439F"/>
<stop offset="1" stop-color="#7C3AED"/>
</linearGradient>
<linearGradient id="paint25_linear_112_4110" x1="4754.49" y1="-35.0335" x2="4391.85" y2="2178.54" gradientUnits="userSpaceOnUse">
<stop stop-color="#F4439F"/>
<stop offset="1" stop-color="#7C3AED"/>
</linearGradient>
<linearGradient id="paint26_linear_112_4110" x1="6490.3" y1="-35.0335" x2="6189.86" y2="2197.51" gradientUnits="userSpaceOnUse">
<stop stop-color="#F4439F"/>
<stop offset="1" stop-color="#7C3AED"/>
</linearGradient>
<linearGradient id="paint27_linear_112_4110" x1="8117.92" y1="-36.0645" x2="7844.67" y2="2245.06" gradientUnits="userSpaceOnUse">
<stop stop-color="#F4439F"/>
<stop offset="1" stop-color="#7C3AED"/>
</linearGradient>
<linearGradient id="paint28_linear_112_4110" x1="6735.03" y1="-35.0335" x2="6372.39" y2="2178.54" gradientUnits="userSpaceOnUse">
<stop stop-color="#F4439F"/>
<stop offset="1" stop-color="#7C3AED"/>
</linearGradient>
<linearGradient id="paint29_linear_112_4110" x1="7413.49" y1="-2.87209" x2="7212.49" y2="1643.37" gradientUnits="userSpaceOnUse">
<stop stop-color="#F4439F"/>
<stop offset="1" stop-color="#7C3AED"/>
</linearGradient>
<linearGradient id="paint30_linear_112_4110" x1="8316.8" y1="-3.69078" x2="8114.09" y2="1657.69" gradientUnits="userSpaceOnUse">
<stop stop-color="#F4439F"/>
<stop offset="1" stop-color="#7C3AED"/>
</linearGradient>
<linearGradient id="paint31_linear_112_4110" x1="9142.2" y1="-35.0335" x2="8779.56" y2="2178.54" gradientUnits="userSpaceOnUse">
<stop stop-color="#F4439F"/>
<stop offset="1" stop-color="#7C3AED"/>
</linearGradient>
<linearGradient id="paint32_linear_112_4110" x1="9787.69" y1="-2.87208" x2="9586.69" y2="1643.37" gradientUnits="userSpaceOnUse">
<stop stop-color="#F4439F"/>
<stop offset="1" stop-color="#7C3AED"/>
</linearGradient>
<linearGradient id="paint33_linear_112_4110" x1="11066.9" y1="-35.0335" x2="10715.2" y2="2182.16" gradientUnits="userSpaceOnUse">
<stop stop-color="#F4439F"/>
<stop offset="1" stop-color="#7C3AED"/>
</linearGradient>
<linearGradient id="paint34_linear_112_4110" x1="11353.9" y1="-18.4685" x2="11165.3" y2="1575.42" gradientUnits="userSpaceOnUse">
<stop stop-color="#F4439F"/>
<stop offset="1" stop-color="#7C3AED"/>
</linearGradient>
<linearGradient id="paint35_linear_112_4110" x1="12280.8" y1="-36.0646" x2="11904" y2="2214.7" gradientUnits="userSpaceOnUse">
<stop stop-color="#F4439F"/>
<stop offset="1" stop-color="#7C3AED"/>
</linearGradient>
<linearGradient id="paint36_linear_112_4110" x1="38298.4" y1="-3.08559" x2="38231.5" y2="1684.81" gradientUnits="userSpaceOnUse">
<stop stop-color="#F4439F"/>
<stop offset="1" stop-color="#7C3AED"/>
</linearGradient>
<linearGradient id="paint37_linear_112_4110" x1="1029" y1="2.99972" x2="492.062" y2="292.558" gradientUnits="userSpaceOnUse">
<stop stop-color="#F4439F"/>
<stop offset="1" stop-color="#7C3AED"/>
</linearGradient>
</defs>
</svg>
