<svg width="1400" height="120" viewBox="0 0 1400 120" fill="none" xmlns="http://www.w3.org/2000/svg">
<path d="M167 56H1234V72H167V56Z" fill="url(#paint0_linear_112_4166)"/>
<mask id="mask0_112_4166" style="mask-type:alpha" maskUnits="userSpaceOnUse" x="167" y="72" width="1067" height="45">
<path d="M167 72H1234V117H167V72Z" fill="#C4C4C4"/>
</mask>
<g mask="url(#mask0_112_4166)">
<g filter="url(#filter0_f_112_4166)">
<path d="M1130.85 72.6962C1130.85 74.9148 1130.31 76.8562 1129.25 78.5202C1128.22 80.1415 1126.64 81.4002 1124.51 82.2962C1122.38 83.1922 1119.67 83.6402 1116.38 83.6402C1113.91 83.6402 1111.73 83.4695 1109.85 83.1282C1107.98 82.8295 1106.16 82.3175 1104.41 81.5922V73.5922C1106.29 74.4882 1108.32 75.1922 1110.49 75.7042C1112.67 76.2162 1114.55 76.4722 1116.13 76.4722C1118.09 76.4722 1119.5 76.1948 1120.35 75.6402C1121.25 75.0855 1121.69 74.3388 1121.69 73.4002C1121.69 72.7602 1121.46 72.1842 1120.99 71.6722C1120.56 71.1602 1119.77 70.6268 1118.62 70.0722C1117.51 69.5175 1115.91 68.8348 1113.82 68.0242C1111.73 67.1708 1109.98 66.2962 1108.57 65.4002C1107.17 64.4615 1106.1 63.3522 1105.37 62.0722C1104.69 60.7922 1104.35 59.1922 1104.35 57.2722C1104.35 54.0722 1105.61 51.6402 1108.13 49.9762C1110.69 48.2695 1114.06 47.4162 1118.24 47.4162C1120.5 47.4162 1122.59 47.6508 1124.51 48.1202C1126.47 48.5895 1128.46 49.2508 1130.46 50.1042L1127.65 56.6962C1126.02 55.9708 1124.36 55.3735 1122.65 54.9042C1120.95 54.4348 1119.43 54.2002 1118.11 54.2002C1116.66 54.2002 1115.53 54.4348 1114.72 54.9042C1113.91 55.3308 1113.5 55.9495 1113.5 56.7602C1113.5 57.3575 1113.72 57.8908 1114.14 58.3602C1114.61 58.8295 1115.4 59.3202 1116.51 59.8322C1117.66 60.3442 1119.26 61.0055 1121.31 61.8162C1123.4 62.6268 1125.15 63.5015 1126.56 64.4402C1128.01 65.3362 1129.08 66.4455 1129.76 67.7682C1130.48 69.0482 1130.85 70.6908 1130.85 72.6962Z" fill="url(#paint1_linear_112_4166)" fill-opacity="0.7"/>
<path d="M1096.68 83.0002H1087.02V34.3602H1096.68V83.0002Z" fill="url(#paint2_linear_112_4166)" fill-opacity="0.7"/>
<path d="M1079.27 65.4642C1079.27 68.3655 1078.87 70.9468 1078.06 73.2082C1077.29 75.4695 1076.16 77.3682 1074.66 78.9042C1073.21 80.4402 1071.44 81.6135 1069.35 82.4242C1067.26 83.2348 1064.89 83.6402 1062.25 83.6402C1059.77 83.6402 1057.51 83.2348 1055.46 82.4242C1053.42 81.6135 1051.65 80.4402 1050.15 78.9042C1048.66 77.3682 1047.49 75.4695 1046.63 73.2082C1045.78 70.9468 1045.35 68.3655 1045.35 65.4642C1045.35 61.5815 1046.03 58.2962 1047.4 55.6082C1048.77 52.9202 1050.73 50.8935 1053.29 49.5282C1055.85 48.1202 1058.9 47.4162 1062.44 47.4162C1065.73 47.4162 1068.63 48.1202 1071.14 49.5282C1073.66 50.8935 1075.65 52.9202 1077.1 55.6082C1078.55 58.2962 1079.27 61.5815 1079.27 65.4642ZM1055.21 65.4642C1055.21 67.7255 1055.44 69.6668 1055.91 71.2882C1056.42 72.9095 1057.19 74.1468 1058.22 75.0002C1059.28 75.8535 1060.67 76.2802 1062.38 76.2802C1064.04 76.2802 1065.38 75.8535 1066.41 75.0002C1067.47 74.1468 1068.24 72.9095 1068.71 71.2882C1069.18 69.6668 1069.42 67.7255 1069.42 65.4642C1069.42 63.1602 1069.16 61.2188 1068.65 59.6402C1068.18 58.0615 1067.43 56.8668 1066.41 56.0562C1065.38 55.2028 1064.02 54.7762 1062.31 54.7762C1059.84 54.7762 1058.02 55.6935 1056.87 57.5282C1055.76 59.3628 1055.21 62.0082 1055.21 65.4642Z" fill="url(#paint3_linear_112_4166)" fill-opacity="0.7"/>
<path d="M1039.27 65.4642C1039.27 68.3655 1038.87 70.9468 1038.06 73.2082C1037.29 75.4695 1036.16 77.3682 1034.66 78.9042C1033.21 80.4402 1031.44 81.6135 1029.35 82.4242C1027.26 83.2348 1024.89 83.6402 1022.25 83.6402C1019.77 83.6402 1017.51 83.2348 1015.46 82.4242C1013.42 81.6135 1011.65 80.4402 1010.15 78.9042C1008.66 77.3682 1007.49 75.4695 1006.63 73.2082C1005.78 70.9468 1005.35 68.3655 1005.35 65.4642C1005.35 61.5815 1006.03 58.2962 1007.4 55.6082C1008.77 52.9202 1010.73 50.8935 1013.29 49.5282C1015.85 48.1202 1018.9 47.4162 1022.44 47.4162C1025.73 47.4162 1028.63 48.1202 1031.14 49.5282C1033.66 50.8935 1035.65 52.9202 1037.1 55.6082C1038.55 58.2962 1039.27 61.5815 1039.27 65.4642ZM1015.21 65.4642C1015.21 67.7255 1015.44 69.6668 1015.91 71.2882C1016.42 72.9095 1017.19 74.1468 1018.22 75.0002C1019.28 75.8535 1020.67 76.2802 1022.38 76.2802C1024.04 76.2802 1025.38 75.8535 1026.41 75.0002C1027.47 74.1468 1028.24 72.9095 1028.71 71.2882C1029.18 69.6668 1029.42 67.7255 1029.42 65.4642C1029.42 63.1602 1029.16 61.2188 1028.65 59.6402C1028.18 58.0615 1027.43 56.8668 1026.41 56.0562C1025.38 55.2028 1024.02 54.7762 1022.31 54.7762C1019.84 54.7762 1018.02 55.6935 1016.87 57.5282C1015.76 59.3628 1015.21 62.0082 1015.21 65.4642Z" fill="url(#paint4_linear_112_4166)" fill-opacity="0.7"/>
<path d="M994.306 76.0242C995.372 76.0242 996.396 75.9175 997.378 75.7042C998.359 75.4908 999.34 75.2348 1000.32 74.9362V82.0402C999.298 82.4668 998.018 82.8295 996.482 83.1282C994.988 83.4695 993.346 83.6402 991.554 83.6402C989.463 83.6402 987.586 83.2988 985.922 82.6162C984.3 81.9335 982.999 80.7602 982.018 79.0962C981.079 77.3895 980.61 75.0428 980.61 72.0562V55.2242H976.066V51.1922L981.314 47.9922L984.066 40.6322H990.146V48.0562H999.938V55.2242H990.146V72.0562C990.146 73.3788 990.53 74.3815 991.298 75.0642C992.066 75.7042 993.068 76.0242 994.306 76.0242Z" fill="url(#paint5_linear_112_4166)" fill-opacity="0.7"/>
<path d="M971.909 72.6962C971.909 74.9148 971.375 76.8562 970.309 78.5202C969.285 80.1415 967.706 81.4002 965.573 82.2962C963.439 83.1922 960.73 83.6402 957.445 83.6402C954.97 83.6402 952.794 83.4695 950.917 83.1282C949.039 82.8295 947.226 82.3175 945.477 81.5922V73.5922C947.354 74.4882 949.381 75.1922 951.557 75.7042C953.733 76.2162 955.61 76.4722 957.189 76.4722C959.151 76.4722 960.559 76.1948 961.413 75.6402C962.309 75.0855 962.757 74.3388 962.757 73.4002C962.757 72.7602 962.522 72.1842 962.053 71.6722C961.626 71.1602 960.837 70.6268 959.685 70.0722C958.575 69.5175 956.975 68.8348 954.885 68.0242C952.794 67.1708 951.045 66.2962 949.637 65.4002C948.229 64.4615 947.162 63.3522 946.437 62.0722C945.754 60.7922 945.413 59.1922 945.413 57.2722C945.413 54.0722 946.671 51.6402 949.189 49.9762C951.749 48.2695 955.119 47.4162 959.301 47.4162C961.562 47.4162 963.653 47.6508 965.573 48.1202C967.535 48.5895 969.519 49.2508 971.525 50.1042L968.709 56.6962C967.087 55.9708 965.423 55.3735 963.717 54.9042C962.01 54.4348 960.495 54.2002 959.173 54.2002C957.722 54.2002 956.591 54.4348 955.781 54.9042C954.97 55.3308 954.565 55.9495 954.565 56.7602C954.565 57.3575 954.778 57.8908 955.205 58.3602C955.674 58.8295 956.463 59.3202 957.573 59.8322C958.725 60.3442 960.325 61.0055 962.373 61.8162C964.463 62.6268 966.213 63.5015 967.621 64.4402C969.071 65.3362 970.138 66.4455 970.821 67.7682C971.546 69.0482 971.909 70.6908 971.909 72.6962Z" fill="url(#paint6_linear_112_4166)" fill-opacity="0.7"/>
<path d="M918.351 47.4162C920.783 47.4162 922.81 47.8855 924.431 48.8242C926.053 49.7202 927.397 50.9362 928.463 52.4722H928.719L929.615 48.0562H937.807V83.2562C937.807 86.5415 937.167 89.2935 935.887 91.5122C934.607 93.7735 932.666 95.4802 930.063 96.6322C927.503 97.7842 924.239 98.3602 920.271 98.3602C917.583 98.3602 915.173 98.1895 913.039 97.8482C910.906 97.5495 908.901 97.0162 907.023 96.2482V88.0562C908.943 88.9095 910.906 89.5708 912.911 90.0402C914.959 90.5095 917.306 90.7442 919.951 90.7442C922.639 90.7442 924.666 90.1255 926.031 88.8882C927.439 87.6508 928.143 85.9442 928.143 83.7682V82.8082C928.143 82.2962 928.165 81.6135 928.207 80.7602C928.293 79.9068 928.378 79.1602 928.463 78.5202H928.143C927.162 80.0562 925.861 81.2935 924.239 82.2322C922.661 83.1708 920.677 83.6402 918.287 83.6402C914.277 83.6402 911.055 82.0828 908.623 78.9682C906.234 75.8535 905.039 71.3948 905.039 65.5922C905.039 59.7895 906.255 55.3095 908.687 52.1522C911.119 48.9948 914.341 47.4162 918.351 47.4162ZM921.487 55.0322C920.079 55.0322 918.863 55.4375 917.839 56.2482C916.858 57.0588 916.111 58.2535 915.599 59.8322C915.13 61.4108 914.895 63.3735 914.895 65.7202C914.895 69.2188 915.45 71.8215 916.559 73.5282C917.711 75.2348 919.418 76.0882 921.679 76.0882C922.959 76.0882 924.047 75.8962 924.943 75.5122C925.839 75.1282 926.565 74.5735 927.119 73.8482C927.674 73.0802 928.079 72.1202 928.335 70.9682C928.634 69.8162 928.783 68.4508 928.783 66.8722V65.4642C928.783 63.1175 928.549 61.1762 928.079 59.6402C927.61 58.1042 926.842 56.9522 925.775 56.1842C924.709 55.4162 923.279 55.0322 921.487 55.0322Z" fill="url(#paint7_linear_112_4166)" fill-opacity="0.7"/>
<path d="M885.046 47.4162C888.886 47.4162 891.916 48.4188 894.134 50.4242C896.353 52.4295 897.462 55.6935 897.462 60.2162V83.0002H887.862V62.6482C887.862 60.1308 887.393 58.2535 886.454 57.0162C885.558 55.7362 884.15 55.0962 882.23 55.0962C879.329 55.0962 877.345 56.0988 876.278 58.1042C875.254 60.0668 874.742 62.9042 874.742 66.6162V83.0002H865.078V48.0562H872.502L873.846 52.7282H874.23C874.998 51.5762 875.916 50.6162 876.982 49.8482C878.092 49.0375 879.308 48.4402 880.63 48.0562C881.996 47.6295 883.468 47.4162 885.046 47.4162Z" fill="url(#paint8_linear_112_4166)" fill-opacity="0.7"/>
<path d="M855.645 48.0562V83.0002H848.221L847.005 78.5202H846.429C845.704 79.7148 844.765 80.6962 843.613 81.4642C842.504 82.2322 841.267 82.7868 839.901 83.1282C838.579 83.4695 837.171 83.6402 835.677 83.6402C833.203 83.6402 831.027 83.1922 829.149 82.2962C827.315 81.4002 825.864 80.0135 824.797 78.1362C823.773 76.2588 823.261 73.8268 823.261 70.8402V48.0562H832.989V68.4082C832.989 70.8828 833.416 72.7602 834.269 74.0402C835.165 75.2775 836.573 75.8962 838.493 75.8962C840.456 75.8962 841.971 75.4695 843.037 74.6162C844.147 73.7202 844.915 72.4188 845.341 70.7122C845.768 69.0055 845.981 66.9148 845.981 64.4402V48.0562H855.645Z" fill="url(#paint9_linear_112_4166)" fill-opacity="0.7"/>
<path d="M816.787 83.0002H789.139V77.3042L805.267 55.4162H790.035V48.0562H816.211V54.2642L800.531 75.5762H816.787V83.0002Z" fill="url(#paint10_linear_112_4166)" fill-opacity="0.7"/>
<path d="M779.181 76.0242C780.247 76.0242 781.271 75.9175 782.253 75.7042C783.234 75.4908 784.215 75.2348 785.197 74.9362V82.0402C784.173 82.4668 782.893 82.8295 781.357 83.1282C779.863 83.4695 778.221 83.6402 776.429 83.6402C774.338 83.6402 772.461 83.2988 770.797 82.6162C769.175 81.9335 767.874 80.7602 766.893 79.0962C765.954 77.3895 765.485 75.0428 765.485 72.0562V55.2242H760.941V51.1922L766.189 47.9922L768.941 40.6322H775.021V48.0562H784.813V55.2242H775.021V72.0562C775.021 73.3788 775.405 74.3815 776.173 75.0642C776.941 75.7042 777.943 76.0242 779.181 76.0242Z" fill="url(#paint11_linear_112_4166)" fill-opacity="0.7"/>
<path d="M740.865 47.4162C744.108 47.4162 746.903 48.0348 749.249 49.2722C751.596 50.4668 753.388 52.2588 754.625 54.6482C755.905 56.9948 756.545 59.8748 756.545 63.2882V67.9602H734.081C734.167 70.6055 734.977 72.6962 736.513 74.2322C738.049 75.7255 740.247 76.4722 743.105 76.4722C745.281 76.4722 747.265 76.2588 749.057 75.8322C750.849 75.4055 752.684 74.7655 754.561 73.9122V81.1442C752.855 81.9975 751.041 82.6162 749.121 83.0002C747.244 83.4268 744.897 83.6402 742.081 83.6402C738.625 83.6402 735.553 83.0002 732.865 81.7202C730.22 80.4402 728.129 78.4775 726.593 75.8322C725.057 73.1442 724.289 69.7948 724.289 65.7842C724.289 61.6882 724.972 58.2962 726.337 55.6082C727.745 52.8775 729.687 50.8295 732.161 49.4642C734.679 48.0988 737.58 47.4162 740.865 47.4162ZM741.121 54.2642C739.201 54.2642 737.644 54.8828 736.449 56.1202C735.255 57.3148 734.551 59.1068 734.337 61.4962H747.521C747.521 60.0882 747.287 58.8508 746.817 57.7842C746.348 56.7175 745.623 55.8642 744.641 55.2242C743.703 54.5842 742.529 54.2642 741.121 54.2642Z" fill="url(#paint12_linear_112_4166)" fill-opacity="0.7"/>
<path d="M718.596 72.6962C718.596 74.9148 718.063 76.8562 716.996 78.5202C715.972 80.1415 714.394 81.4002 712.26 82.2962C710.127 83.1922 707.418 83.6402 704.132 83.6402C701.658 83.6402 699.482 83.4695 697.604 83.1282C695.727 82.8295 693.914 82.3175 692.164 81.5922V73.5922C694.042 74.4882 696.068 75.1922 698.244 75.7042C700.42 76.2162 702.298 76.4722 703.876 76.4722C705.839 76.4722 707.247 76.1948 708.1 75.6402C708.996 75.0855 709.444 74.3388 709.444 73.4002C709.444 72.7602 709.21 72.1842 708.74 71.6722C708.314 71.1602 707.524 70.6268 706.372 70.0722C705.263 69.5175 703.663 68.8348 701.572 68.0242C699.482 67.1708 697.732 66.2962 696.324 65.4002C694.916 64.4615 693.85 63.3522 693.124 62.0722C692.442 60.7922 692.1 59.1922 692.1 57.2722C692.1 54.0722 693.359 51.6402 695.876 49.9762C698.436 48.2695 701.807 47.4162 705.988 47.4162C708.25 47.4162 710.34 47.6508 712.26 48.1202C714.223 48.5895 716.207 49.2508 718.212 50.1042L715.396 56.6962C713.775 55.9708 712.111 55.3735 710.404 54.9042C708.698 54.4348 707.183 54.2002 705.86 54.2002C704.41 54.2002 703.279 54.4348 702.468 54.9042C701.658 55.3308 701.252 55.9495 701.252 56.7602C701.252 57.3575 701.466 57.8908 701.892 58.3602C702.362 58.8295 703.151 59.3202 704.26 59.8322C705.412 60.3442 707.012 61.0055 709.06 61.8162C711.151 62.6268 712.9 63.5015 714.308 64.4402C715.759 65.3362 716.826 66.4455 717.508 67.7682C718.234 69.0482 718.596 70.6908 718.596 72.6962Z" fill="url(#paint13_linear_112_4166)" fill-opacity="0.7"/>
<path d="M684.531 47.4162C685.171 47.4162 685.854 47.4588 686.579 47.5442C687.347 47.5868 687.945 47.6722 688.371 47.8002L687.411 56.8242C686.942 56.7388 686.387 56.6535 685.747 56.5682C685.107 56.4828 684.339 56.4402 683.443 56.4402C682.462 56.4402 681.459 56.5895 680.435 56.8882C679.454 57.1868 678.537 57.6775 677.683 58.3602C676.83 59.0428 676.147 59.9388 675.635 61.0482C675.123 62.1575 674.867 63.5655 674.867 65.2722V83.0002H665.203V48.0562H672.563L673.971 53.9442H674.419C675.102 52.7068 675.955 51.5975 676.979 50.6162C678.003 49.6348 679.155 48.8668 680.435 48.3122C681.715 47.7148 683.081 47.4162 684.531 47.4162Z" fill="url(#paint14_linear_112_4166)" fill-opacity="0.7"/>
<path d="M641.928 47.4162C645.17 47.4162 647.965 48.0348 650.312 49.2722C652.658 50.4668 654.45 52.2588 655.688 54.6482C656.968 56.9948 657.608 59.8748 657.608 63.2882V67.9602H635.144C635.229 70.6055 636.04 72.6962 637.576 74.2322C639.112 75.7255 641.309 76.4722 644.168 76.4722C646.344 76.4722 648.328 76.2588 650.12 75.8322C651.912 75.4055 653.746 74.7655 655.624 73.9122V81.1442C653.917 81.9975 652.104 82.6162 650.184 83.0002C648.306 83.4268 645.96 83.6402 643.144 83.6402C639.688 83.6402 636.616 83.0002 633.928 81.7202C631.282 80.4402 629.192 78.4775 627.656 75.8322C626.12 73.1442 625.352 69.7948 625.352 65.7842C625.352 61.6882 626.034 58.2962 627.4 55.6082C628.808 52.8775 630.749 50.8295 633.224 49.4642C635.741 48.0988 638.642 47.4162 641.928 47.4162ZM642.184 54.2642C640.264 54.2642 638.706 54.8828 637.512 56.1202C636.317 57.3148 635.613 59.1068 635.4 61.4962H648.584C648.584 60.0882 648.349 58.8508 647.88 57.7842C647.41 56.7175 646.685 55.8642 645.704 55.2242C644.765 54.5842 643.592 54.2642 642.184 54.2642Z" fill="url(#paint15_linear_112_4166)" fill-opacity="0.7"/>
<path d="M596.242 45.6882C596.242 47.0108 596.2 48.2695 596.114 49.4642C596.072 50.6588 595.986 51.7042 595.858 52.6002H596.242C597.181 51.1495 598.44 49.9335 600.018 48.9522C601.597 47.9282 603.645 47.4162 606.162 47.4162C610.045 47.4162 613.202 48.9522 615.634 52.0242C618.066 55.0535 619.282 59.5335 619.282 65.4642C619.282 69.4322 618.728 72.7815 617.618 75.5122C616.509 78.2002 614.93 80.2268 612.882 81.5922C610.877 82.9575 608.552 83.6402 605.906 83.6402C603.346 83.6402 601.32 83.1922 599.826 82.2962C598.376 81.3575 597.181 80.3335 596.242 79.2242H595.602L594.002 83.0002H586.578V34.3602H596.242V45.6882ZM603.026 55.0962C601.405 55.0962 600.082 55.4375 599.058 56.1202C598.077 56.8028 597.352 57.8482 596.882 59.2562C596.456 60.6215 596.242 62.4135 596.242 64.6322V65.7842C596.242 69.0695 596.733 71.5655 597.714 73.2722C598.738 74.9788 600.552 75.8322 603.154 75.8322C605.245 75.8322 606.824 74.9362 607.89 73.1442C608.957 71.3522 609.49 68.7495 609.49 65.3362C609.49 61.9655 608.957 59.4268 607.89 57.7202C606.866 55.9708 605.245 55.0962 603.026 55.0962Z" fill="url(#paint16_linear_112_4166)" fill-opacity="0.7"/>
<path d="M576.475 66.8722C576.475 70.0295 575.771 72.8882 574.363 75.4482C572.998 77.9655 570.907 79.9708 568.091 81.4642C565.318 82.9148 561.798 83.6402 557.531 83.6402C551.473 83.6402 546.865 82.1042 543.707 79.0322C540.55 75.9175 538.971 71.8215 538.971 66.7442V37.3042H548.635V65.2722C548.635 69.0268 549.403 71.6722 550.939 73.2082C552.475 74.7442 554.758 75.5122 557.787 75.5122C559.921 75.5122 561.649 75.1495 562.971 74.4242C564.294 73.6988 565.254 72.5682 565.851 71.0322C566.491 69.4962 566.811 67.5548 566.811 65.2082V37.3042H576.475V66.8722ZM546.267 28.3442C546.267 26.8508 546.694 25.7628 547.547 25.0802C548.401 24.3975 549.446 24.0562 550.683 24.0562C551.878 24.0562 552.902 24.3975 553.755 25.0802C554.651 25.7628 555.099 26.8508 555.099 28.3442C555.099 29.7522 554.651 30.7975 553.755 31.4802C552.902 32.1628 551.878 32.5042 550.683 32.5042C549.446 32.5042 548.401 32.1628 547.547 31.4802C546.694 30.7975 546.267 29.7522 546.267 28.3442ZM560.091 28.3442C560.091 26.8508 560.497 25.7628 561.307 25.0802C562.161 24.3975 563.227 24.0562 564.507 24.0562C565.702 24.0562 566.726 24.3975 567.579 25.0802C568.475 25.7628 568.923 26.8508 568.923 28.3442C568.923 29.7522 568.475 30.7975 567.579 31.4802C566.726 32.1628 565.702 32.5042 564.507 32.5042C563.227 32.5042 562.161 32.1628 561.307 31.4802C560.497 30.7975 560.091 29.7522 560.091 28.3442Z" fill="url(#paint17_linear_112_4166)" fill-opacity="0.7"/>
<path d="M498.303 47.4162C501.545 47.4162 504.34 48.0348 506.687 49.2722C509.033 50.4668 510.825 52.2588 512.063 54.6482C513.343 56.9948 513.983 59.8748 513.983 63.2882V67.9602H491.519C491.604 70.6055 492.415 72.6962 493.951 74.2322C495.487 75.7255 497.684 76.4722 500.543 76.4722C502.719 76.4722 504.703 76.2588 506.495 75.8322C508.287 75.4055 510.121 74.7655 511.999 73.9122V81.1442C510.292 81.9975 508.479 82.6162 506.559 83.0002C504.681 83.4268 502.335 83.6402 499.519 83.6402C496.063 83.6402 492.991 83.0002 490.303 81.7202C487.657 80.4402 485.567 78.4775 484.031 75.8322C482.495 73.1442 481.727 69.7948 481.727 65.7842C481.727 61.6882 482.409 58.2962 483.775 55.6082C485.183 52.8775 487.124 50.8295 489.599 49.4642C492.116 48.0988 495.017 47.4162 498.303 47.4162ZM498.559 54.2642C496.639 54.2642 495.081 54.8828 493.887 56.1202C492.692 57.3148 491.988 59.1068 491.775 61.4962H504.959C504.959 60.0882 504.724 58.8508 504.255 57.7842C503.785 56.7175 503.06 55.8642 502.079 55.2242C501.14 54.5842 499.967 54.2642 498.559 54.2642Z" fill="url(#paint18_linear_112_4166)" fill-opacity="0.7"/>
<path d="M475.344 47.4162C475.984 47.4162 476.666 47.4588 477.392 47.5442C478.16 47.5868 478.757 47.6722 479.184 47.8002L478.224 56.8242C477.754 56.7388 477.2 56.6535 476.56 56.5682C475.92 56.4828 475.152 56.4402 474.256 56.4402C473.274 56.4402 472.272 56.5895 471.248 56.8882C470.266 57.1868 469.349 57.6775 468.496 58.3602C467.642 59.0428 466.96 59.9388 466.448 61.0482C465.936 62.1575 465.68 63.5655 465.68 65.2722V83.0002H456.016V48.0562H463.376L464.784 53.9442H465.232C465.914 52.7068 466.768 51.5975 467.792 50.6162C468.816 49.6348 469.968 48.8668 471.248 48.3122C472.528 47.7148 473.893 47.4162 475.344 47.4162Z" fill="url(#paint19_linear_112_4166)" fill-opacity="0.7"/>
<path d="M432.74 47.4162C435.983 47.4162 438.778 48.0348 441.124 49.2722C443.471 50.4668 445.263 52.2588 446.5 54.6482C447.78 56.9948 448.42 59.8748 448.42 63.2882V67.9602H425.956C426.042 70.6055 426.852 72.6962 428.388 74.2322C429.924 75.7255 432.122 76.4722 434.98 76.4722C437.156 76.4722 439.14 76.2588 440.932 75.8322C442.724 75.4055 444.559 74.7655 446.436 73.9122V81.1442C444.73 81.9975 442.916 82.6162 440.996 83.0002C439.119 83.4268 436.772 83.6402 433.956 83.6402C430.5 83.6402 427.428 83.0002 424.74 81.7202C422.095 80.4402 420.004 78.4775 418.468 75.8322C416.932 73.1442 416.164 69.7948 416.164 65.7842C416.164 61.6882 416.847 58.2962 418.212 55.6082C419.62 52.8775 421.562 50.8295 424.036 49.4642C426.554 48.0988 429.455 47.4162 432.74 47.4162ZM432.996 54.2642C431.076 54.2642 429.519 54.8828 428.324 56.1202C427.13 57.3148 426.426 59.1068 426.212 61.4962H439.396C439.396 60.0882 439.162 58.8508 438.692 57.7842C438.223 56.7175 437.498 55.8642 436.516 55.2242C435.578 54.5842 434.404 54.2642 432.996 54.2642Z" fill="url(#paint20_linear_112_4166)" fill-opacity="0.7"/>
<path d="M405.118 76.0242C406.185 76.0242 407.209 75.9175 408.19 75.7042C409.172 75.4908 410.153 75.2348 411.134 74.9362V82.0402C410.11 82.4668 408.83 82.8295 407.294 83.1282C405.801 83.4695 404.158 83.6402 402.366 83.6402C400.276 83.6402 398.398 83.2988 396.734 82.6162C395.113 81.9335 393.812 80.7602 392.83 79.0962C391.892 77.3895 391.422 75.0428 391.422 72.0562V55.2242H386.878V51.1922L392.126 47.9922L394.878 40.6322H400.958V48.0562H410.75V55.2242H400.958V72.0562C400.958 73.3788 401.342 74.3815 402.11 75.0642C402.878 75.7042 403.881 76.0242 405.118 76.0242Z" fill="url(#paint21_linear_112_4166)" fill-opacity="0.7"/>
<path d="M380.681 48.0562V83.0002H371.017V48.0562H380.681ZM375.881 34.2962C377.289 34.2962 378.505 34.6375 379.529 35.3202C380.596 35.9602 381.129 37.1975 381.129 39.0322C381.129 40.7815 380.596 41.9975 379.529 42.6802C378.505 43.3628 377.289 43.7042 375.881 43.7042C374.431 43.7042 373.193 43.3628 372.169 42.6802C371.145 41.9975 370.633 40.7815 370.633 39.0322C370.633 37.1975 371.145 35.9602 372.169 35.3202C373.193 34.6375 374.431 34.2962 375.881 34.2962Z" fill="url(#paint22_linear_112_4166)" fill-opacity="0.7"/>
<path d="M347.678 47.4162C350.92 47.4162 353.715 48.0348 356.062 49.2722C358.408 50.4668 360.2 52.2588 361.438 54.6482C362.718 56.9948 363.358 59.8748 363.358 63.2882V67.9602H340.894C340.979 70.6055 341.79 72.6962 343.326 74.2322C344.862 75.7255 347.059 76.4722 349.918 76.4722C352.094 76.4722 354.078 76.2588 355.87 75.8322C357.662 75.4055 359.496 74.7655 361.374 73.9122V81.1442C359.667 81.9975 357.854 82.6162 355.934 83.0002C354.056 83.4268 351.71 83.6402 348.894 83.6402C345.438 83.6402 342.366 83.0002 339.678 81.7202C337.032 80.4402 334.942 78.4775 333.406 75.8322C331.87 73.1442 331.102 69.7948 331.102 65.7842C331.102 61.6882 331.784 58.2962 333.15 55.6082C334.558 52.8775 336.499 50.8295 338.974 49.4642C341.491 48.0988 344.392 47.4162 347.678 47.4162ZM347.934 54.2642C346.014 54.2642 344.456 54.8828 343.262 56.1202C342.067 57.3148 341.363 59.1068 341.15 61.4962H354.334C354.334 60.0882 354.099 58.8508 353.63 57.7842C353.16 56.7175 352.435 55.8642 351.454 55.2242C350.515 54.5842 349.342 54.2642 347.934 54.2642Z" fill="url(#paint23_linear_112_4166)" fill-opacity="0.7"/>
<path d="M329.357 37.3042L317.709 83.0002H306.701L300.493 59.0002C300.365 58.5308 300.194 57.8268 299.981 56.8882C299.81 55.9495 299.597 54.9255 299.341 53.8162C299.127 52.7068 298.935 51.6615 298.765 50.6802C298.594 49.6562 298.466 48.8668 298.381 48.3122C298.338 48.8668 298.21 49.6562 297.997 50.6802C297.826 51.6615 297.634 52.7068 297.421 53.8162C297.207 54.8828 296.994 55.9068 296.781 56.8882C296.567 57.8268 296.397 58.5522 296.269 59.0642L290.125 83.0002H279.117L267.469 37.3042H277.005L282.829 62.2642C282.999 62.9895 283.191 63.8855 283.405 64.9522C283.618 65.9762 283.831 67.0642 284.045 68.2162C284.258 69.3255 284.45 70.4135 284.621 71.4802C284.834 72.5468 284.983 73.4642 285.069 74.2322C285.154 73.4215 285.282 72.5042 285.453 71.4802C285.623 70.4135 285.815 69.3468 286.029 68.2802C286.242 67.1708 286.434 66.1468 286.605 65.2082C286.818 64.2268 287.01 63.4588 287.181 62.9042L293.837 37.3042H302.989L309.645 62.9042C309.773 63.4588 309.943 64.2268 310.157 65.2082C310.37 66.1468 310.583 67.1708 310.797 68.2802C311.01 69.3895 311.202 70.4775 311.373 71.5442C311.543 72.5682 311.671 73.4642 311.757 74.2322C311.885 73.1655 312.077 71.9068 312.333 70.4562C312.589 68.9628 312.866 67.4695 313.165 65.9762C313.506 64.4828 313.783 63.2455 313.997 62.2642L319.821 37.3042H329.357Z" fill="url(#paint24_linear_112_4166)" fill-opacity="0.7"/>
</g>
</g>
<path d="M167 72H1234V105C1234 111.627 1228.63 117 1222 117H179C172.373 117 167 111.627 167 105V72Z" fill="url(#paint25_linear_112_4166)"/>
<path d="M1130.85 60.6962C1130.85 62.9148 1130.31 64.8562 1129.25 66.5202C1128.22 68.1415 1126.64 69.4002 1124.51 70.2962C1122.38 71.1922 1119.67 71.6402 1116.38 71.6402C1113.91 71.6402 1111.73 71.4695 1109.85 71.1282C1107.98 70.8295 1106.16 70.3175 1104.41 69.5922V61.5922C1106.29 62.4882 1108.32 63.1922 1110.49 63.7042C1112.67 64.2162 1114.55 64.4722 1116.13 64.4722C1118.09 64.4722 1119.5 64.1948 1120.35 63.6402C1121.25 63.0855 1121.69 62.3388 1121.69 61.4002C1121.69 60.7602 1121.46 60.1842 1120.99 59.6722C1120.56 59.1602 1119.77 58.6268 1118.62 58.0722C1117.51 57.5175 1115.91 56.8348 1113.82 56.0242C1111.73 55.1708 1109.98 54.2962 1108.57 53.4002C1107.17 52.4615 1106.1 51.3522 1105.37 50.0722C1104.69 48.7922 1104.35 47.1922 1104.35 45.2722C1104.35 42.0722 1105.61 39.6402 1108.13 37.9762C1110.69 36.2695 1114.06 35.4162 1118.24 35.4162C1120.5 35.4162 1122.59 35.6508 1124.51 36.1202C1126.47 36.5895 1128.46 37.2508 1130.46 38.1042L1127.65 44.6962C1126.02 43.9708 1124.36 43.3735 1122.65 42.9042C1120.95 42.4348 1119.43 42.2002 1118.11 42.2002C1116.66 42.2002 1115.53 42.4348 1114.72 42.9042C1113.91 43.3308 1113.5 43.9495 1113.5 44.7602C1113.5 45.3575 1113.72 45.8908 1114.14 46.3602C1114.61 46.8295 1115.4 47.3202 1116.51 47.8322C1117.66 48.3442 1119.26 49.0055 1121.31 49.8162C1123.4 50.6268 1125.15 51.5015 1126.56 52.4402C1128.01 53.3362 1129.08 54.4455 1129.76 55.7682C1130.48 57.0482 1130.85 58.6908 1130.85 60.6962Z" fill="url(#paint26_linear_112_4166)"/>
<path d="M1096.68 71.0002H1087.02V22.3602H1096.68V71.0002Z" fill="url(#paint27_linear_112_4166)"/>
<path d="M1079.27 53.4642C1079.27 56.3655 1078.87 58.9468 1078.06 61.2082C1077.29 63.4695 1076.16 65.3682 1074.66 66.9042C1073.21 68.4402 1071.44 69.6135 1069.35 70.4242C1067.26 71.2348 1064.89 71.6402 1062.25 71.6402C1059.77 71.6402 1057.51 71.2348 1055.46 70.4242C1053.42 69.6135 1051.65 68.4402 1050.15 66.9042C1048.66 65.3682 1047.49 63.4695 1046.63 61.2082C1045.78 58.9468 1045.35 56.3655 1045.35 53.4642C1045.35 49.5815 1046.03 46.2962 1047.4 43.6082C1048.77 40.9202 1050.73 38.8935 1053.29 37.5282C1055.85 36.1202 1058.9 35.4162 1062.44 35.4162C1065.73 35.4162 1068.63 36.1202 1071.14 37.5282C1073.66 38.8935 1075.65 40.9202 1077.1 43.6082C1078.55 46.2962 1079.27 49.5815 1079.27 53.4642ZM1055.21 53.4642C1055.21 55.7255 1055.44 57.6668 1055.91 59.2882C1056.42 60.9095 1057.19 62.1468 1058.22 63.0002C1059.28 63.8535 1060.67 64.2802 1062.38 64.2802C1064.04 64.2802 1065.38 63.8535 1066.41 63.0002C1067.47 62.1468 1068.24 60.9095 1068.71 59.2882C1069.18 57.6668 1069.42 55.7255 1069.42 53.4642C1069.42 51.1602 1069.16 49.2188 1068.65 47.6402C1068.18 46.0615 1067.43 44.8668 1066.41 44.0562C1065.38 43.2028 1064.02 42.7762 1062.31 42.7762C1059.84 42.7762 1058.02 43.6935 1056.87 45.5282C1055.76 47.3628 1055.21 50.0082 1055.21 53.4642Z" fill="url(#paint28_linear_112_4166)"/>
<path d="M1039.27 53.4642C1039.27 56.3655 1038.87 58.9468 1038.06 61.2082C1037.29 63.4695 1036.16 65.3682 1034.66 66.9042C1033.21 68.4402 1031.44 69.6135 1029.35 70.4242C1027.26 71.2348 1024.89 71.6402 1022.25 71.6402C1019.77 71.6402 1017.51 71.2348 1015.46 70.4242C1013.42 69.6135 1011.65 68.4402 1010.15 66.9042C1008.66 65.3682 1007.49 63.4695 1006.63 61.2082C1005.78 58.9468 1005.35 56.3655 1005.35 53.4642C1005.35 49.5815 1006.03 46.2962 1007.4 43.6082C1008.77 40.9202 1010.73 38.8935 1013.29 37.5282C1015.85 36.1202 1018.9 35.4162 1022.44 35.4162C1025.73 35.4162 1028.63 36.1202 1031.14 37.5282C1033.66 38.8935 1035.65 40.9202 1037.1 43.6082C1038.55 46.2962 1039.27 49.5815 1039.27 53.4642ZM1015.21 53.4642C1015.21 55.7255 1015.44 57.6668 1015.91 59.2882C1016.42 60.9095 1017.19 62.1468 1018.22 63.0002C1019.28 63.8535 1020.67 64.2802 1022.38 64.2802C1024.04 64.2802 1025.38 63.8535 1026.41 63.0002C1027.47 62.1468 1028.24 60.9095 1028.71 59.2882C1029.18 57.6668 1029.42 55.7255 1029.42 53.4642C1029.42 51.1602 1029.16 49.2188 1028.65 47.6402C1028.18 46.0615 1027.43 44.8668 1026.41 44.0562C1025.38 43.2028 1024.02 42.7762 1022.31 42.7762C1019.84 42.7762 1018.02 43.6935 1016.87 45.5282C1015.76 47.3628 1015.21 50.0082 1015.21 53.4642Z" fill="url(#paint29_linear_112_4166)"/>
<path d="M994.306 64.0242C995.372 64.0242 996.396 63.9175 997.378 63.7042C998.359 63.4908 999.34 63.2348 1000.32 62.9362V70.0402C999.298 70.4668 998.018 70.8295 996.482 71.1282C994.988 71.4695 993.346 71.6402 991.554 71.6402C989.463 71.6402 987.586 71.2988 985.922 70.6162C984.3 69.9335 982.999 68.7602 982.018 67.0962C981.079 65.3895 980.61 63.0428 980.61 60.0562V43.2242H976.066V39.1922L981.314 35.9922L984.066 28.6322H990.146V36.0562H999.938V43.2242H990.146V60.0562C990.146 61.3788 990.53 62.3815 991.298 63.0642C992.066 63.7042 993.068 64.0242 994.306 64.0242Z" fill="url(#paint30_linear_112_4166)"/>
<path d="M971.909 60.6962C971.909 62.9148 971.375 64.8562 970.309 66.5202C969.285 68.1415 967.706 69.4002 965.573 70.2962C963.439 71.1922 960.73 71.6402 957.445 71.6402C954.97 71.6402 952.794 71.4695 950.917 71.1282C949.039 70.8295 947.226 70.3175 945.477 69.5922V61.5922C947.354 62.4882 949.381 63.1922 951.557 63.7042C953.733 64.2162 955.61 64.4722 957.189 64.4722C959.151 64.4722 960.559 64.1948 961.413 63.6402C962.309 63.0855 962.757 62.3388 962.757 61.4002C962.757 60.7602 962.522 60.1842 962.053 59.6722C961.626 59.1602 960.837 58.6268 959.685 58.0722C958.575 57.5175 956.975 56.8348 954.885 56.0242C952.794 55.1708 951.045 54.2962 949.637 53.4002C948.229 52.4615 947.162 51.3522 946.437 50.0722C945.754 48.7922 945.413 47.1922 945.413 45.2722C945.413 42.0722 946.671 39.6402 949.189 37.9762C951.749 36.2695 955.119 35.4162 959.301 35.4162C961.562 35.4162 963.653 35.6508 965.573 36.1202C967.535 36.5895 969.519 37.2508 971.525 38.1042L968.709 44.6962C967.087 43.9708 965.423 43.3735 963.717 42.9042C962.01 42.4348 960.495 42.2002 959.173 42.2002C957.722 42.2002 956.591 42.4348 955.781 42.9042C954.97 43.3308 954.565 43.9495 954.565 44.7602C954.565 45.3575 954.778 45.8908 955.205 46.3602C955.674 46.8295 956.463 47.3202 957.573 47.8322C958.725 48.3442 960.325 49.0055 962.373 49.8162C964.463 50.6268 966.213 51.5015 967.621 52.4402C969.071 53.3362 970.138 54.4455 970.821 55.7682C971.546 57.0482 971.909 58.6908 971.909 60.6962Z" fill="url(#paint31_linear_112_4166)"/>
<path d="M918.351 35.4162C920.783 35.4162 922.81 35.8855 924.431 36.8242C926.053 37.7202 927.397 38.9362 928.463 40.4722H928.719L929.615 36.0562H937.807V71.2562C937.807 74.5415 937.167 77.2935 935.887 79.5122C934.607 81.7735 932.666 83.4802 930.063 84.6322C927.503 85.7842 924.239 86.3602 920.271 86.3602C917.583 86.3602 915.173 86.1895 913.039 85.8482C910.906 85.5495 908.901 85.0162 907.023 84.2482V76.0562C908.943 76.9095 910.906 77.5708 912.911 78.0402C914.959 78.5095 917.306 78.7442 919.951 78.7442C922.639 78.7442 924.666 78.1255 926.031 76.8882C927.439 75.6508 928.143 73.9442 928.143 71.7682V70.8082C928.143 70.2962 928.165 69.6135 928.207 68.7602C928.293 67.9068 928.378 67.1602 928.463 66.5202H928.143C927.162 68.0562 925.861 69.2935 924.239 70.2322C922.661 71.1708 920.677 71.6402 918.287 71.6402C914.277 71.6402 911.055 70.0828 908.623 66.9682C906.234 63.8535 905.039 59.3948 905.039 53.5922C905.039 47.7895 906.255 43.3095 908.687 40.1522C911.119 36.9948 914.341 35.4162 918.351 35.4162ZM921.487 43.0322C920.079 43.0322 918.863 43.4375 917.839 44.2482C916.858 45.0588 916.111 46.2535 915.599 47.8322C915.13 49.4108 914.895 51.3735 914.895 53.7202C914.895 57.2188 915.45 59.8215 916.559 61.5282C917.711 63.2348 919.418 64.0882 921.679 64.0882C922.959 64.0882 924.047 63.8962 924.943 63.5122C925.839 63.1282 926.565 62.5735 927.119 61.8482C927.674 61.0802 928.079 60.1202 928.335 58.9682C928.634 57.8162 928.783 56.4508 928.783 54.8722V53.4642C928.783 51.1175 928.549 49.1762 928.079 47.6402C927.61 46.1042 926.842 44.9522 925.775 44.1842C924.709 43.4162 923.279 43.0322 921.487 43.0322Z" fill="url(#paint32_linear_112_4166)"/>
<path d="M885.046 35.4162C888.886 35.4162 891.916 36.4188 894.134 38.4242C896.353 40.4295 897.462 43.6935 897.462 48.2162V71.0002H887.862V50.6482C887.862 48.1308 887.393 46.2535 886.454 45.0162C885.558 43.7362 884.15 43.0962 882.23 43.0962C879.329 43.0962 877.345 44.0988 876.278 46.1042C875.254 48.0668 874.742 50.9042 874.742 54.6162V71.0002H865.078V36.0562H872.502L873.846 40.7282H874.23C874.998 39.5762 875.916 38.6162 876.982 37.8482C878.092 37.0375 879.308 36.4402 880.63 36.0562C881.996 35.6295 883.468 35.4162 885.046 35.4162Z" fill="url(#paint33_linear_112_4166)"/>
<path d="M855.645 36.0562V71.0002H848.221L847.005 66.5202H846.429C845.704 67.7148 844.765 68.6962 843.613 69.4642C842.504 70.2322 841.267 70.7868 839.901 71.1282C838.579 71.4695 837.171 71.6402 835.677 71.6402C833.203 71.6402 831.027 71.1922 829.149 70.2962C827.315 69.4002 825.864 68.0135 824.797 66.1362C823.773 64.2588 823.261 61.8268 823.261 58.8402V36.0562H832.989V56.4082C832.989 58.8828 833.416 60.7602 834.269 62.0402C835.165 63.2775 836.573 63.8962 838.493 63.8962C840.456 63.8962 841.971 63.4695 843.037 62.6162C844.147 61.7202 844.915 60.4188 845.341 58.7122C845.768 57.0055 845.981 54.9148 845.981 52.4402V36.0562H855.645Z" fill="url(#paint34_linear_112_4166)"/>
<path d="M816.787 71.0002H789.139V65.3042L805.267 43.4162H790.035V36.0562H816.211V42.2642L800.531 63.5762H816.787V71.0002Z" fill="url(#paint35_linear_112_4166)"/>
<path d="M779.181 64.0242C780.247 64.0242 781.271 63.9175 782.253 63.7042C783.234 63.4908 784.215 63.2348 785.197 62.9362V70.0402C784.173 70.4668 782.893 70.8295 781.357 71.1282C779.863 71.4695 778.221 71.6402 776.429 71.6402C774.338 71.6402 772.461 71.2988 770.797 70.6162C769.175 69.9335 767.874 68.7602 766.893 67.0962C765.954 65.3895 765.485 63.0428 765.485 60.0562V43.2242H760.941V39.1922L766.189 35.9922L768.941 28.6322H775.021V36.0562H784.813V43.2242H775.021V60.0562C775.021 61.3788 775.405 62.3815 776.173 63.0642C776.941 63.7042 777.943 64.0242 779.181 64.0242Z" fill="url(#paint36_linear_112_4166)"/>
<path d="M740.865 35.4162C744.108 35.4162 746.903 36.0348 749.249 37.2722C751.596 38.4668 753.388 40.2588 754.625 42.6482C755.905 44.9948 756.545 47.8748 756.545 51.2882V55.9602H734.081C734.167 58.6055 734.977 60.6962 736.513 62.2322C738.049 63.7255 740.247 64.4722 743.105 64.4722C745.281 64.4722 747.265 64.2588 749.057 63.8322C750.849 63.4055 752.684 62.7655 754.561 61.9122V69.1442C752.855 69.9975 751.041 70.6162 749.121 71.0002C747.244 71.4268 744.897 71.6402 742.081 71.6402C738.625 71.6402 735.553 71.0002 732.865 69.7202C730.22 68.4402 728.129 66.4775 726.593 63.8322C725.057 61.1442 724.289 57.7948 724.289 53.7842C724.289 49.6882 724.972 46.2962 726.337 43.6082C727.745 40.8775 729.687 38.8295 732.161 37.4642C734.679 36.0988 737.58 35.4162 740.865 35.4162ZM741.121 42.2642C739.201 42.2642 737.644 42.8828 736.449 44.1202C735.255 45.3148 734.551 47.1068 734.337 49.4962H747.521C747.521 48.0882 747.287 46.8508 746.817 45.7842C746.348 44.7175 745.623 43.8642 744.641 43.2242C743.703 42.5842 742.529 42.2642 741.121 42.2642Z" fill="url(#paint37_linear_112_4166)"/>
<path d="M718.596 60.6962C718.596 62.9148 718.063 64.8562 716.996 66.5202C715.972 68.1415 714.394 69.4002 712.26 70.2962C710.127 71.1922 707.418 71.6402 704.132 71.6402C701.658 71.6402 699.482 71.4695 697.604 71.1282C695.727 70.8295 693.914 70.3175 692.164 69.5922V61.5922C694.042 62.4882 696.068 63.1922 698.244 63.7042C700.42 64.2162 702.298 64.4722 703.876 64.4722C705.839 64.4722 707.247 64.1948 708.1 63.6402C708.996 63.0855 709.444 62.3388 709.444 61.4002C709.444 60.7602 709.21 60.1842 708.74 59.6722C708.314 59.1602 707.524 58.6268 706.372 58.0722C705.263 57.5175 703.663 56.8348 701.572 56.0242C699.482 55.1708 697.732 54.2962 696.324 53.4002C694.916 52.4615 693.85 51.3522 693.124 50.0722C692.442 48.7922 692.1 47.1922 692.1 45.2722C692.1 42.0722 693.359 39.6402 695.876 37.9762C698.436 36.2695 701.807 35.4162 705.988 35.4162C708.25 35.4162 710.34 35.6508 712.26 36.1202C714.223 36.5895 716.207 37.2508 718.212 38.1042L715.396 44.6962C713.775 43.9708 712.111 43.3735 710.404 42.9042C708.698 42.4348 707.183 42.2002 705.86 42.2002C704.41 42.2002 703.279 42.4348 702.468 42.9042C701.658 43.3308 701.252 43.9495 701.252 44.7602C701.252 45.3575 701.466 45.8908 701.892 46.3602C702.362 46.8295 703.151 47.3202 704.26 47.8322C705.412 48.3442 707.012 49.0055 709.06 49.8162C711.151 50.6268 712.9 51.5015 714.308 52.4402C715.759 53.3362 716.826 54.4455 717.508 55.7682C718.234 57.0482 718.596 58.6908 718.596 60.6962Z" fill="url(#paint38_linear_112_4166)"/>
<path d="M684.531 35.4162C685.171 35.4162 685.854 35.4588 686.579 35.5442C687.347 35.5868 687.945 35.6722 688.371 35.8002L687.411 44.8242C686.942 44.7388 686.387 44.6535 685.747 44.5682C685.107 44.4828 684.339 44.4402 683.443 44.4402C682.462 44.4402 681.459 44.5895 680.435 44.8882C679.454 45.1868 678.537 45.6775 677.683 46.3602C676.83 47.0428 676.147 47.9388 675.635 49.0482C675.123 50.1575 674.867 51.5655 674.867 53.2722V71.0002H665.203V36.0562H672.563L673.971 41.9442H674.419C675.102 40.7068 675.955 39.5975 676.979 38.6162C678.003 37.6348 679.155 36.8668 680.435 36.3122C681.715 35.7148 683.081 35.4162 684.531 35.4162Z" fill="url(#paint39_linear_112_4166)"/>
<path d="M641.928 35.4162C645.17 35.4162 647.965 36.0348 650.312 37.2722C652.658 38.4668 654.45 40.2588 655.688 42.6482C656.968 44.9948 657.608 47.8748 657.608 51.2882V55.9602H635.144C635.229 58.6055 636.04 60.6962 637.576 62.2322C639.112 63.7255 641.309 64.4722 644.168 64.4722C646.344 64.4722 648.328 64.2588 650.12 63.8322C651.912 63.4055 653.746 62.7655 655.624 61.9122V69.1442C653.917 69.9975 652.104 70.6162 650.184 71.0002C648.306 71.4268 645.96 71.6402 643.144 71.6402C639.688 71.6402 636.616 71.0002 633.928 69.7202C631.282 68.4402 629.192 66.4775 627.656 63.8322C626.12 61.1442 625.352 57.7948 625.352 53.7842C625.352 49.6882 626.034 46.2962 627.4 43.6082C628.808 40.8775 630.749 38.8295 633.224 37.4642C635.741 36.0988 638.642 35.4162 641.928 35.4162ZM642.184 42.2642C640.264 42.2642 638.706 42.8828 637.512 44.1202C636.317 45.3148 635.613 47.1068 635.4 49.4962H648.584C648.584 48.0882 648.349 46.8508 647.88 45.7842C647.41 44.7175 646.685 43.8642 645.704 43.2242C644.765 42.5842 643.592 42.2642 642.184 42.2642Z" fill="url(#paint40_linear_112_4166)"/>
<path d="M596.242 33.6882C596.242 35.0108 596.2 36.2695 596.114 37.4642C596.072 38.6588 595.986 39.7042 595.858 40.6002H596.242C597.181 39.1495 598.44 37.9335 600.018 36.9522C601.597 35.9282 603.645 35.4162 606.162 35.4162C610.045 35.4162 613.202 36.9522 615.634 40.0242C618.066 43.0535 619.282 47.5335 619.282 53.4642C619.282 57.4322 618.728 60.7815 617.618 63.5122C616.509 66.2002 614.93 68.2268 612.882 69.5922C610.877 70.9575 608.552 71.6402 605.906 71.6402C603.346 71.6402 601.32 71.1922 599.826 70.2962C598.376 69.3575 597.181 68.3335 596.242 67.2242H595.602L594.002 71.0002H586.578V22.3602H596.242V33.6882ZM603.026 43.0962C601.405 43.0962 600.082 43.4375 599.058 44.1202C598.077 44.8028 597.352 45.8482 596.882 47.2562C596.456 48.6215 596.242 50.4135 596.242 52.6322V53.7842C596.242 57.0695 596.733 59.5655 597.714 61.2722C598.738 62.9788 600.552 63.8322 603.154 63.8322C605.245 63.8322 606.824 62.9362 607.89 61.1442C608.957 59.3522 609.49 56.7495 609.49 53.3362C609.49 49.9655 608.957 47.4268 607.89 45.7202C606.866 43.9708 605.245 43.0962 603.026 43.0962Z" fill="url(#paint41_linear_112_4166)"/>
<path d="M576.475 54.8722C576.475 58.0295 575.771 60.8882 574.363 63.4482C572.998 65.9655 570.907 67.9708 568.091 69.4642C565.318 70.9148 561.798 71.6402 557.531 71.6402C551.473 71.6402 546.865 70.1042 543.707 67.0322C540.55 63.9175 538.971 59.8215 538.971 54.7442V25.3042H548.635V53.2722C548.635 57.0268 549.403 59.6722 550.939 61.2082C552.475 62.7442 554.758 63.5122 557.787 63.5122C559.921 63.5122 561.649 63.1495 562.971 62.4242C564.294 61.6988 565.254 60.5682 565.851 59.0322C566.491 57.4962 566.811 55.5548 566.811 53.2082V25.3042H576.475V54.8722ZM546.267 16.3442C546.267 14.8508 546.694 13.7628 547.547 13.0802C548.401 12.3975 549.446 12.0562 550.683 12.0562C551.878 12.0562 552.902 12.3975 553.755 13.0802C554.651 13.7628 555.099 14.8508 555.099 16.3442C555.099 17.7522 554.651 18.7975 553.755 19.4802C552.902 20.1628 551.878 20.5042 550.683 20.5042C549.446 20.5042 548.401 20.1628 547.547 19.4802C546.694 18.7975 546.267 17.7522 546.267 16.3442ZM560.091 16.3442C560.091 14.8508 560.497 13.7628 561.307 13.0802C562.161 12.3975 563.227 12.0562 564.507 12.0562C565.702 12.0562 566.726 12.3975 567.579 13.0802C568.475 13.7628 568.923 14.8508 568.923 16.3442C568.923 17.7522 568.475 18.7975 567.579 19.4802C566.726 20.1628 565.702 20.5042 564.507 20.5042C563.227 20.5042 562.161 20.1628 561.307 19.4802C560.497 18.7975 560.091 17.7522 560.091 16.3442Z" fill="url(#paint42_linear_112_4166)"/>
<path d="M498.303 35.4162C501.545 35.4162 504.34 36.0348 506.687 37.2722C509.033 38.4668 510.825 40.2588 512.063 42.6482C513.343 44.9948 513.983 47.8748 513.983 51.2882V55.9602H491.519C491.604 58.6055 492.415 60.6962 493.951 62.2322C495.487 63.7255 497.684 64.4722 500.543 64.4722C502.719 64.4722 504.703 64.2588 506.495 63.8322C508.287 63.4055 510.121 62.7655 511.999 61.9122V69.1442C510.292 69.9975 508.479 70.6162 506.559 71.0002C504.681 71.4268 502.335 71.6402 499.519 71.6402C496.063 71.6402 492.991 71.0002 490.303 69.7202C487.657 68.4402 485.567 66.4775 484.031 63.8322C482.495 61.1442 481.727 57.7948 481.727 53.7842C481.727 49.6882 482.409 46.2962 483.775 43.6082C485.183 40.8775 487.124 38.8295 489.599 37.4642C492.116 36.0988 495.017 35.4162 498.303 35.4162ZM498.559 42.2642C496.639 42.2642 495.081 42.8828 493.887 44.1202C492.692 45.3148 491.988 47.1068 491.775 49.4962H504.959C504.959 48.0882 504.724 46.8508 504.255 45.7842C503.785 44.7175 503.06 43.8642 502.079 43.2242C501.14 42.5842 499.967 42.2642 498.559 42.2642Z" fill="url(#paint43_linear_112_4166)"/>
<path d="M475.344 35.4162C475.984 35.4162 476.666 35.4588 477.392 35.5442C478.16 35.5868 478.757 35.6722 479.184 35.8002L478.224 44.8242C477.754 44.7388 477.2 44.6535 476.56 44.5682C475.92 44.4828 475.152 44.4402 474.256 44.4402C473.274 44.4402 472.272 44.5895 471.248 44.8882C470.266 45.1868 469.349 45.6775 468.496 46.3602C467.642 47.0428 466.96 47.9388 466.448 49.0482C465.936 50.1575 465.68 51.5655 465.68 53.2722V71.0002H456.016V36.0562H463.376L464.784 41.9442H465.232C465.914 40.7068 466.768 39.5975 467.792 38.6162C468.816 37.6348 469.968 36.8668 471.248 36.3122C472.528 35.7148 473.893 35.4162 475.344 35.4162Z" fill="url(#paint44_linear_112_4166)"/>
<path d="M432.74 35.4162C435.983 35.4162 438.778 36.0348 441.124 37.2722C443.471 38.4668 445.263 40.2588 446.5 42.6482C447.78 44.9948 448.42 47.8748 448.42 51.2882V55.9602H425.956C426.042 58.6055 426.852 60.6962 428.388 62.2322C429.924 63.7255 432.122 64.4722 434.98 64.4722C437.156 64.4722 439.14 64.2588 440.932 63.8322C442.724 63.4055 444.559 62.7655 446.436 61.9122V69.1442C444.73 69.9975 442.916 70.6162 440.996 71.0002C439.119 71.4268 436.772 71.6402 433.956 71.6402C430.5 71.6402 427.428 71.0002 424.74 69.7202C422.095 68.4402 420.004 66.4775 418.468 63.8322C416.932 61.1442 416.164 57.7948 416.164 53.7842C416.164 49.6882 416.847 46.2962 418.212 43.6082C419.62 40.8775 421.562 38.8295 424.036 37.4642C426.554 36.0988 429.455 35.4162 432.74 35.4162ZM432.996 42.2642C431.076 42.2642 429.519 42.8828 428.324 44.1202C427.13 45.3148 426.426 47.1068 426.212 49.4962H439.396C439.396 48.0882 439.162 46.8508 438.692 45.7842C438.223 44.7175 437.498 43.8642 436.516 43.2242C435.578 42.5842 434.404 42.2642 432.996 42.2642Z" fill="url(#paint45_linear_112_4166)"/>
<path d="M405.118 64.0242C406.185 64.0242 407.209 63.9175 408.19 63.7042C409.172 63.4908 410.153 63.2348 411.134 62.9362V70.0402C410.11 70.4668 408.83 70.8295 407.294 71.1282C405.801 71.4695 404.158 71.6402 402.366 71.6402C400.276 71.6402 398.398 71.2988 396.734 70.6162C395.113 69.9335 393.812 68.7602 392.83 67.0962C391.892 65.3895 391.422 63.0428 391.422 60.0562V43.2242H386.878V39.1922L392.126 35.9922L394.878 28.6322H400.958V36.0562H410.75V43.2242H400.958V60.0562C400.958 61.3788 401.342 62.3815 402.11 63.0642C402.878 63.7042 403.881 64.0242 405.118 64.0242Z" fill="url(#paint46_linear_112_4166)"/>
<path d="M380.681 36.0562V71.0002H371.017V36.0562H380.681ZM375.881 22.2962C377.289 22.2962 378.505 22.6375 379.529 23.3202C380.596 23.9602 381.129 25.1975 381.129 27.0322C381.129 28.7815 380.596 29.9975 379.529 30.6802C378.505 31.3628 377.289 31.7042 375.881 31.7042C374.431 31.7042 373.193 31.3628 372.169 30.6802C371.145 29.9975 370.633 28.7815 370.633 27.0322C370.633 25.1975 371.145 23.9602 372.169 23.3202C373.193 22.6375 374.431 22.2962 375.881 22.2962Z" fill="url(#paint47_linear_112_4166)"/>
<path d="M347.678 35.4162C350.92 35.4162 353.715 36.0348 356.062 37.2722C358.408 38.4668 360.2 40.2588 361.438 42.6482C362.718 44.9948 363.358 47.8748 363.358 51.2882V55.9602H340.894C340.979 58.6055 341.79 60.6962 343.326 62.2322C344.862 63.7255 347.059 64.4722 349.918 64.4722C352.094 64.4722 354.078 64.2588 355.87 63.8322C357.662 63.4055 359.496 62.7655 361.374 61.9122V69.1442C359.667 69.9975 357.854 70.6162 355.934 71.0002C354.056 71.4268 351.71 71.6402 348.894 71.6402C345.438 71.6402 342.366 71.0002 339.678 69.7202C337.032 68.4402 334.942 66.4775 333.406 63.8322C331.87 61.1442 331.102 57.7948 331.102 53.7842C331.102 49.6882 331.784 46.2962 333.15 43.6082C334.558 40.8775 336.499 38.8295 338.974 37.4642C341.491 36.0988 344.392 35.4162 347.678 35.4162ZM347.934 42.2642C346.014 42.2642 344.456 42.8828 343.262 44.1202C342.067 45.3148 341.363 47.1068 341.15 49.4962H354.334C354.334 48.0882 354.099 46.8508 353.63 45.7842C353.16 44.7175 352.435 43.8642 351.454 43.2242C350.515 42.5842 349.342 42.2642 347.934 42.2642Z" fill="url(#paint48_linear_112_4166)"/>
<path d="M329.357 25.3042L317.709 71.0002H306.701L300.493 47.0002C300.365 46.5308 300.194 45.8268 299.981 44.8882C299.81 43.9495 299.597 42.9255 299.341 41.8162C299.127 40.7068 298.935 39.6615 298.765 38.6802C298.594 37.6562 298.466 36.8668 298.381 36.3122C298.338 36.8668 298.21 37.6562 297.997 38.6802C297.826 39.6615 297.634 40.7068 297.421 41.8162C297.207 42.8828 296.994 43.9068 296.781 44.8882C296.567 45.8268 296.397 46.5522 296.269 47.0642L290.125 71.0002H279.117L267.469 25.3042H277.005L282.829 50.2642C282.999 50.9895 283.191 51.8855 283.405 52.9522C283.618 53.9762 283.831 55.0642 284.045 56.2162C284.258 57.3255 284.45 58.4135 284.621 59.4802C284.834 60.5468 284.983 61.4642 285.069 62.2322C285.154 61.4215 285.282 60.5042 285.453 59.4802C285.623 58.4135 285.815 57.3468 286.029 56.2802C286.242 55.1708 286.434 54.1468 286.605 53.2082C286.818 52.2268 287.01 51.4588 287.181 50.9042L293.837 25.3042H302.989L309.645 50.9042C309.773 51.4588 309.943 52.2268 310.157 53.2082C310.37 54.1468 310.583 55.1708 310.797 56.2802C311.01 57.3895 311.202 58.4775 311.373 59.5442C311.543 60.5682 311.671 61.4642 311.757 62.2322C311.885 61.1655 312.077 59.9068 312.333 58.4562C312.589 56.9628 312.866 55.4695 313.165 53.9762C313.506 52.4828 313.783 51.2455 313.997 50.2642L319.821 25.3042H329.357Z" fill="url(#paint49_linear_112_4166)"/>
<defs>
<filter id="filter0_f_112_4166" x="247.469" y="4.05615" width="903.377" height="114.304" filterUnits="userSpaceOnUse" color-interpolation-filters="sRGB">
<feFlood flood-opacity="0" result="BackgroundImageFix"/>
<feBlend mode="normal" in="SourceGraphic" in2="BackgroundImageFix" result="shape"/>
<feGaussianBlur stdDeviation="10" result="effect1_foregroundBlur_112_4166"/>
</filter>
<linearGradient id="paint0_linear_112_4166" x1="167" y1="64.0036" x2="1234" y2="64.0023" gradientUnits="userSpaceOnUse">
<stop stop-color="white" stop-opacity="0.3"/>
<stop offset="0.495" stop-color="#CBB0F8"/>
<stop offset="1" stop-color="white" stop-opacity="0.3"/>
</linearGradient>
<linearGradient id="paint1_linear_112_4166" x1="1233.61" y1="46.792" x2="-27017.7" y2="46.8661" gradientUnits="userSpaceOnUse">
<stop stop-color="#F4439F"/>
<stop offset="1" stop-color="#7C3AED"/>
</linearGradient>
<linearGradient id="paint2_linear_112_4166" x1="4465.02" y1="60.9332" x2="-72992.4" y2="61.6806" gradientUnits="userSpaceOnUse">
<stop stop-color="#F4439F"/>
<stop offset="1" stop-color="#7C3AED"/>
</linearGradient>
<linearGradient id="paint3_linear_112_4166" x1="2523.86" y1="46.792" x2="-19544.2" y2="46.8372" gradientUnits="userSpaceOnUse">
<stop stop-color="#F4439F"/>
<stop offset="1" stop-color="#7C3AED"/>
</linearGradient>
<linearGradient id="paint4_linear_112_4166" x1="3542" y1="46.792" x2="-18526.1" y2="46.8372" gradientUnits="userSpaceOnUse">
<stop stop-color="#F4439F"/>
<stop offset="1" stop-color="#7C3AED"/>
</linearGradient>
<linearGradient id="paint5_linear_112_4166" x1="5889.03" y1="54.9263" x2="-24971.2" y2="55.0312" gradientUnits="userSpaceOnUse">
<stop stop-color="#F4439F"/>
<stop offset="1" stop-color="#7C3AED"/>
</linearGradient>
<linearGradient id="paint6_linear_112_4166" x1="6412.62" y1="46.792" x2="-21838.7" y2="46.8661" gradientUnits="userSpaceOnUse">
<stop stop-color="#F4439F"/>
<stop offset="1" stop-color="#7C3AED"/>
</linearGradient>
<linearGradient id="paint7_linear_112_4166" x1="6300.17" y1="40.2226" x2="-16543.7" y2="40.2907" gradientUnits="userSpaceOnUse">
<stop stop-color="#F4439F"/>
<stop offset="1" stop-color="#7C3AED"/>
</linearGradient>
<linearGradient id="paint8_linear_112_4166" x1="7437.08" y1="47.201" x2="-15677.7" y2="47.2497" gradientUnits="userSpaceOnUse">
<stop stop-color="#F4439F"/>
<stop offset="1" stop-color="#7C3AED"/>
</linearGradient>
<linearGradient id="paint9_linear_112_4166" x1="8551.95" y1="45.8646" x2="-14562.8" y2="45.9133" gradientUnits="userSpaceOnUse">
<stop stop-color="#F4439F"/>
<stop offset="1" stop-color="#7C3AED"/>
</linearGradient>
<linearGradient id="paint10_linear_112_4166" x1="11036.6" y1="46.264" x2="-16037.6" y2="46.3296" gradientUnits="userSpaceOnUse">
<stop stop-color="#F4439F"/>
<stop offset="1" stop-color="#7C3AED"/>
</linearGradient>
<linearGradient id="paint11_linear_112_4166" x1="13546.3" y1="54.9263" x2="-17314" y2="55.0312" gradientUnits="userSpaceOnUse">
<stop stop-color="#F4439F"/>
<stop offset="1" stop-color="#7C3AED"/>
</linearGradient>
<linearGradient id="paint12_linear_112_4166" x1="11234" y1="46.7921" x2="-11972.5" y2="46.8421" gradientUnits="userSpaceOnUse">
<stop stop-color="#F4439F"/>
<stop offset="1" stop-color="#7C3AED"/>
</linearGradient>
<linearGradient id="paint13_linear_112_4166" x1="14666.9" y1="46.7921" x2="-13584.5" y2="46.8662" gradientUnits="userSpaceOnUse">
<stop stop-color="#F4439F"/>
<stop offset="1" stop-color="#7C3AED"/>
</linearGradient>
<linearGradient id="paint14_linear_112_4166" x1="17737.6" y1="47.2011" x2="-14572" y2="47.2962" gradientUnits="userSpaceOnUse">
<stop stop-color="#F4439F"/>
<stop offset="1" stop-color="#7C3AED"/>
</linearGradient>
<linearGradient id="paint15_linear_112_4166" x1="13882.2" y1="46.7921" x2="-9324.32" y2="46.8421" gradientUnits="userSpaceOnUse">
<stop stop-color="#F4439F"/>
<stop offset="1" stop-color="#7C3AED"/>
</linearGradient>
<linearGradient id="paint16_linear_112_4166" x1="14719.3" y1="60.4543" x2="-8169.31" y2="60.5204" gradientUnits="userSpaceOnUse">
<stop stop-color="#F4439F"/>
<stop offset="1" stop-color="#7C3AED"/>
</linearGradient>
<linearGradient id="paint17_linear_112_4166" x1="13965.6" y1="67.0095" x2="-5993.57" y2="67.0702" gradientUnits="userSpaceOnUse">
<stop stop-color="#F4439F"/>
<stop offset="1" stop-color="#7C3AED"/>
</linearGradient>
<linearGradient id="paint18_linear_112_4166" x1="17726.5" y1="46.7921" x2="-5479.99" y2="46.8421" gradientUnits="userSpaceOnUse">
<stop stop-color="#F4439F"/>
<stop offset="1" stop-color="#7C3AED"/>
</linearGradient>
<linearGradient id="paint19_linear_112_4166" x1="25533.2" y1="47.2011" x2="-6776.38" y2="47.2962" gradientUnits="userSpaceOnUse">
<stop stop-color="#F4439F"/>
<stop offset="1" stop-color="#7C3AED"/>
</linearGradient>
<linearGradient id="paint20_linear_112_4166" x1="19481.4" y1="46.7921" x2="-3725.12" y2="46.8421" gradientUnits="userSpaceOnUse">
<stop stop-color="#F4439F"/>
<stop offset="1" stop-color="#7C3AED"/>
</linearGradient>
<linearGradient id="paint21_linear_112_4166" x1="26860.8" y1="54.9263" x2="-3999.52" y2="55.0312" gradientUnits="userSpaceOnUse">
<stop stop-color="#F4439F"/>
<stop offset="1" stop-color="#7C3AED"/>
</linearGradient>
<linearGradient id="paint22_linear_112_4166" x1="63060.3" y1="60.9824" x2="-8257.17" y2="61.6169" gradientUnits="userSpaceOnUse">
<stop stop-color="#F4439F"/>
<stop offset="1" stop-color="#7C3AED"/>
</linearGradient>
<linearGradient id="paint23_linear_112_4166" x1="21758.2" y1="46.7921" x2="-1448.3" y2="46.8421" gradientUnits="userSpaceOnUse">
<stop stop-color="#F4439F"/>
<stop offset="1" stop-color="#7C3AED"/>
</linearGradient>
<linearGradient id="paint24_linear_112_4166" x1="1134" y1="58.5002" x2="267" y2="58.5004" gradientUnits="userSpaceOnUse">
<stop stop-color="#F4439F"/>
<stop offset="1" stop-color="#7C3AED"/>
</linearGradient>
<linearGradient id="paint25_linear_112_4166" x1="700.5" y1="72" x2="700.5" y2="117" gradientUnits="userSpaceOnUse">
<stop offset="0.0001" stop-color="white" stop-opacity="0.1"/>
<stop offset="1" stop-color="white" stop-opacity="0"/>
</linearGradient>
<linearGradient id="paint26_linear_112_4166" x1="1233.61" y1="-54.4368" x2="1002.22" y2="2561.39" gradientUnits="userSpaceOnUse">
<stop stop-color="#F4439F"/>
<stop offset="1" stop-color="#7C3AED"/>
</linearGradient>
<linearGradient id="paint27_linear_112_4166" x1="4465.02" y1="-17.5188" x2="4417.87" y2="1944.69" gradientUnits="userSpaceOnUse">
<stop stop-color="#F4439F"/>
<stop offset="1" stop-color="#7C3AED"/>
</linearGradient>
<linearGradient id="paint28_linear_112_4166" x1="2523.86" y1="-54.4367" x2="2229.11" y2="2548.48" gradientUnits="userSpaceOnUse">
<stop stop-color="#F4439F"/>
<stop offset="1" stop-color="#7C3AED"/>
</linearGradient>
<linearGradient id="paint29_linear_112_4166" x1="3542" y1="-54.4367" x2="3247.24" y2="2548.48" gradientUnits="userSpaceOnUse">
<stop stop-color="#F4439F"/>
<stop offset="1" stop-color="#7C3AED"/>
</linearGradient>
<linearGradient id="paint30_linear_112_4166" x1="5889.03" y1="-32.2277" x2="5738.29" y2="2177.94" gradientUnits="userSpaceOnUse">
<stop stop-color="#F4439F"/>
<stop offset="1" stop-color="#7C3AED"/>
</linearGradient>
<linearGradient id="paint31_linear_112_4166" x1="6412.62" y1="-54.4367" x2="6181.23" y2="2561.39" gradientUnits="userSpaceOnUse">
<stop stop-color="#F4439F"/>
<stop offset="1" stop-color="#7C3AED"/>
</linearGradient>
<linearGradient id="paint32_linear_112_4166" x1="6300.17" y1="-35.224" x2="6155.23" y2="1828.05" gradientUnits="userSpaceOnUse">
<stop stop-color="#F4439F"/>
<stop offset="1" stop-color="#7C3AED"/>
</linearGradient>
<linearGradient id="paint33_linear_112_4166" x1="7437.08" y1="-55.6327" x2="7145.25" y2="2595.96" gradientUnits="userSpaceOnUse">
<stop stop-color="#F4439F"/>
<stop offset="1" stop-color="#7C3AED"/>
</linearGradient>
<linearGradient id="paint34_linear_112_4166" x1="8551.95" y1="-56.9691" x2="8260.12" y2="2594.62" gradientUnits="userSpaceOnUse">
<stop stop-color="#F4439F"/>
<stop offset="1" stop-color="#7C3AED"/>
</linearGradient>
<linearGradient id="paint35_linear_112_4166" x1="11036.6" y1="-58.2333" x2="10777.5" y2="2649.83" gradientUnits="userSpaceOnUse">
<stop stop-color="#F4439F"/>
<stop offset="1" stop-color="#7C3AED"/>
</linearGradient>
<linearGradient id="paint36_linear_112_4166" x1="13546.3" y1="-32.2277" x2="13395.5" y2="2177.94" gradientUnits="userSpaceOnUse">
<stop stop-color="#F4439F"/>
<stop offset="1" stop-color="#7C3AED"/>
</linearGradient>
<linearGradient id="paint37_linear_112_4166" x1="11234" y1="-54.4367" x2="10953.3" y2="2551.63" gradientUnits="userSpaceOnUse">
<stop stop-color="#F4439F"/>
<stop offset="1" stop-color="#7C3AED"/>
</linearGradient>
<linearGradient id="paint38_linear_112_4166" x1="14666.9" y1="-54.4367" x2="14435.5" y2="2561.39" gradientUnits="userSpaceOnUse">
<stop stop-color="#F4439F"/>
<stop offset="1" stop-color="#7C3AED"/>
</linearGradient>
<linearGradient id="paint39_linear_112_4166" x1="17737.6" y1="-55.6327" x2="17527.6" y2="2611.54" gradientUnits="userSpaceOnUse">
<stop stop-color="#F4439F"/>
<stop offset="1" stop-color="#7C3AED"/>
</linearGradient>
<linearGradient id="paint40_linear_112_4166" x1="13882.2" y1="-54.4368" x2="13601.5" y2="2551.63" gradientUnits="userSpaceOnUse">
<stop stop-color="#F4439F"/>
<stop offset="1" stop-color="#7C3AED"/>
</linearGradient>
<linearGradient id="paint41_linear_112_4166" x1="14719.3" y1="-17.1347" x2="14564.7" y2="1908.31" gradientUnits="userSpaceOnUse">
<stop stop-color="#F4439F"/>
<stop offset="1" stop-color="#7C3AED"/>
</linearGradient>
<linearGradient id="paint42_linear_112_4166" x1="13965.6" y1="0.762884" x2="13844.3" y2="1594.26" gradientUnits="userSpaceOnUse">
<stop stop-color="#F4439F"/>
<stop offset="1" stop-color="#7C3AED"/>
</linearGradient>
<linearGradient id="paint43_linear_112_4166" x1="17726.5" y1="-54.4368" x2="17445.8" y2="2551.63" gradientUnits="userSpaceOnUse">
<stop stop-color="#F4439F"/>
<stop offset="1" stop-color="#7C3AED"/>
</linearGradient>
<linearGradient id="paint44_linear_112_4166" x1="25533.2" y1="-55.6327" x2="25323.2" y2="2611.54" gradientUnits="userSpaceOnUse">
<stop stop-color="#F4439F"/>
<stop offset="1" stop-color="#7C3AED"/>
</linearGradient>
<linearGradient id="paint45_linear_112_4166" x1="19481.4" y1="-54.4368" x2="19200.7" y2="2551.63" gradientUnits="userSpaceOnUse">
<stop stop-color="#F4439F"/>
<stop offset="1" stop-color="#7C3AED"/>
</linearGradient>
<linearGradient id="paint46_linear_112_4166" x1="26860.8" y1="-32.2277" x2="26710.1" y2="2177.94" gradientUnits="userSpaceOnUse">
<stop stop-color="#F4439F"/>
<stop offset="1" stop-color="#7C3AED"/>
</linearGradient>
<linearGradient id="paint47_linear_112_4166" x1="63060.3" y1="-17.3823" x2="63009.2" y2="1942.05" gradientUnits="userSpaceOnUse">
<stop stop-color="#F4439F"/>
<stop offset="1" stop-color="#7C3AED"/>
</linearGradient>
<linearGradient id="paint48_linear_112_4166" x1="21758.2" y1="-54.4368" x2="21477.5" y2="2551.63" gradientUnits="userSpaceOnUse">
<stop stop-color="#F4439F"/>
<stop offset="1" stop-color="#7C3AED"/>
</linearGradient>
<linearGradient id="paint49_linear_112_4166" x1="1134" y1="3.00021" x2="526.858" y2="435.072" gradientUnits="userSpaceOnUse">
<stop stop-color="#F4439F"/>
<stop offset="1" stop-color="#7C3AED"/>
</linearGradient>
</defs>
</svg>
