<svg width="1400" height="120" viewBox="0 0 1400 120" fill="none" xmlns="http://www.w3.org/2000/svg">
<path d="M241 56H1160V72H241V56Z" fill="url(#paint0_linear_112_3998)"/>
<mask id="mask0_112_3998" style="mask-type:alpha" maskUnits="userSpaceOnUse" x="241" y="72" width="919" height="45">
<path d="M241 72H1160V117H241V72Z" fill="#C4C4C4"/>
</mask>
<g mask="url(#mask0_112_3998)">
<g filter="url(#filter0_f_112_3998)">
<path d="M1035.69 47.4159C1038.13 47.4159 1040.15 47.8852 1041.77 48.8239C1043.4 49.7199 1044.74 50.9359 1045.81 52.4719H1046.06L1046.96 48.0559H1055.15V83.2559C1055.15 86.5412 1054.51 89.2932 1053.23 91.5119C1051.95 93.7732 1050.01 95.4799 1047.41 96.6319C1044.85 97.7839 1041.58 98.3599 1037.61 98.3599C1034.93 98.3599 1032.52 98.1892 1030.38 97.8479C1028.25 97.5492 1026.24 97.0159 1024.37 96.2479V88.0559C1026.29 88.9092 1028.25 89.5706 1030.25 90.0399C1032.3 90.5092 1034.65 90.7439 1037.29 90.7439C1039.98 90.7439 1042.01 90.1252 1043.37 88.8879C1044.78 87.6506 1045.49 85.9439 1045.49 83.7679V82.8079C1045.49 82.2959 1045.51 81.6132 1045.55 80.7599C1045.64 79.9066 1045.72 79.1599 1045.81 78.5199H1045.49C1044.51 80.0559 1043.2 81.2932 1041.58 82.2319C1040 83.1706 1038.02 83.6399 1035.63 83.6399C1031.62 83.6399 1028.4 82.0826 1025.97 78.9679C1023.58 75.8532 1022.38 71.3946 1022.38 65.5919C1022.38 59.7892 1023.6 55.3092 1026.03 52.1519C1028.46 48.9946 1031.68 47.4159 1035.69 47.4159ZM1038.83 55.0319C1037.42 55.0319 1036.21 55.4372 1035.18 56.2479C1034.2 57.0586 1033.45 58.2532 1032.94 59.8319C1032.47 61.4106 1032.24 63.3732 1032.24 65.7199C1032.24 69.2186 1032.79 71.8212 1033.9 73.5279C1035.05 75.2346 1036.76 76.0879 1039.02 76.0879C1040.3 76.0879 1041.39 75.8959 1042.29 75.5119C1043.18 75.1279 1043.91 74.5732 1044.46 73.8479C1045.02 73.0799 1045.42 72.1199 1045.68 70.9679C1045.98 69.8159 1046.13 68.4506 1046.13 66.8719V65.4639C1046.13 63.1172 1045.89 61.1759 1045.42 59.6399C1044.95 58.1039 1044.19 56.9519 1043.12 56.1839C1042.05 55.4159 1040.62 55.0319 1038.83 55.0319Z" fill="url(#paint1_linear_112_3998)" fill-opacity="0.7"/>
<path d="M1002.39 47.4159C1006.23 47.4159 1009.26 48.4186 1011.48 50.4239C1013.7 52.4292 1014.81 55.6932 1014.81 60.2159V82.9999H1005.21V62.6479C1005.21 60.1306 1004.74 58.2532 1003.8 57.0159C1002.9 55.7359 1001.49 55.0959 999.574 55.0959C996.673 55.0959 994.689 56.0986 993.622 58.1039C992.598 60.0666 992.086 62.9039 992.086 66.6159V82.9999H982.422V48.0559H989.846L991.19 52.7279H991.574C992.342 51.5759 993.259 50.6159 994.326 49.8479C995.435 49.0372 996.651 48.4399 997.974 48.0559C999.339 47.6292 1000.81 47.4159 1002.39 47.4159Z" fill="url(#paint2_linear_112_3998)" fill-opacity="0.7"/>
<path d="M972.989 48.0559V82.9999H965.565L964.349 78.5199H963.773C963.048 79.7146 962.109 80.6959 960.957 81.4639C959.848 82.2319 958.61 82.7866 957.245 83.1279C955.922 83.4692 954.514 83.6399 953.021 83.6399C950.546 83.6399 948.37 83.1919 946.493 82.2959C944.658 81.3999 943.208 80.0132 942.141 78.1359C941.117 76.2586 940.605 73.8266 940.605 70.8399V48.0559H950.333V68.4079C950.333 70.8826 950.76 72.7599 951.613 74.0399C952.509 75.2772 953.917 75.8959 955.837 75.8959C957.8 75.8959 959.314 75.4692 960.381 74.6159C961.49 73.7199 962.258 72.4186 962.685 70.7119C963.112 69.0052 963.325 66.9146 963.325 64.4399V48.0559H972.989Z" fill="url(#paint3_linear_112_3998)" fill-opacity="0.7"/>
<path d="M934.13 82.9999H906.482V77.3039L922.61 55.4159H907.378V48.0559H933.554V54.2639L917.874 75.5759H934.13V82.9999Z" fill="url(#paint4_linear_112_3998)" fill-opacity="0.7"/>
<path d="M896.524 76.0239C897.591 76.0239 898.615 75.9172 899.596 75.7039C900.578 75.4906 901.559 75.2346 902.54 74.9359V82.0399C901.516 82.4666 900.236 82.8292 898.7 83.1279C897.207 83.4692 895.564 83.6399 893.772 83.6399C891.682 83.6399 889.804 83.2986 888.14 82.6159C886.519 81.9332 885.218 80.7599 884.236 79.0959C883.298 77.3892 882.828 75.0426 882.828 72.0559V55.2239H878.284V51.1919L883.532 47.9919L886.284 40.6319H892.364V48.0559H902.156V55.2239H892.364V72.0559C892.364 73.3786 892.748 74.3812 893.516 75.0639C894.284 75.7039 895.287 76.0239 896.524 76.0239Z" fill="url(#paint5_linear_112_3998)" fill-opacity="0.7"/>
<path d="M858.209 47.4159C861.452 47.4159 864.246 48.0346 866.593 49.2719C868.94 50.4666 870.732 52.2586 871.969 54.6479C873.249 56.9946 873.889 59.8746 873.889 63.2879V67.9599H851.425C851.51 70.6052 852.321 72.6959 853.857 74.2319C855.393 75.7252 857.59 76.4719 860.449 76.4719C862.625 76.4719 864.609 76.2586 866.401 75.8319C868.193 75.4052 870.028 74.7652 871.905 73.9119V81.1439C870.198 81.9972 868.385 82.6159 866.465 82.9999C864.588 83.4266 862.241 83.6399 859.425 83.6399C855.969 83.6399 852.897 82.9999 850.209 81.7199C847.564 80.4399 845.473 78.4772 843.937 75.8319C842.401 73.1439 841.633 69.7946 841.633 65.7839C841.633 61.6879 842.316 58.2959 843.681 55.6079C845.089 52.8772 847.03 50.8292 849.505 49.4639C852.022 48.0986 854.924 47.4159 858.209 47.4159ZM858.465 54.2639C856.545 54.2639 854.988 54.8826 853.793 56.1199C852.598 57.3146 851.894 59.1066 851.681 61.4959H864.865C864.865 60.0879 864.63 58.8506 864.161 57.7839C863.692 56.7172 862.966 55.8639 861.985 55.2239C861.046 54.5839 859.873 54.2639 858.465 54.2639Z" fill="url(#paint6_linear_112_3998)" fill-opacity="0.7"/>
<path d="M835.94 72.6959C835.94 74.9146 835.407 76.8559 834.34 78.5199C833.316 80.1412 831.737 81.3999 829.604 82.2959C827.471 83.1919 824.761 83.6399 821.476 83.6399C819.001 83.6399 816.825 83.4692 814.948 83.1279C813.071 82.8292 811.257 82.3172 809.508 81.5919V73.5919C811.385 74.4879 813.412 75.1919 815.588 75.7039C817.764 76.2159 819.641 76.4719 821.22 76.4719C823.183 76.4719 824.591 76.1946 825.444 75.6399C826.34 75.0852 826.788 74.3386 826.788 73.3999C826.788 72.7599 826.553 72.1839 826.084 71.6719C825.657 71.1599 824.868 70.6266 823.716 70.0719C822.607 69.5172 821.007 68.8346 818.916 68.0239C816.825 67.1706 815.076 66.2959 813.668 65.3999C812.26 64.4612 811.193 63.3519 810.468 62.0719C809.785 60.7919 809.444 59.1919 809.444 57.2719C809.444 54.0719 810.703 51.6399 813.22 49.9759C815.78 48.2692 819.151 47.4159 823.332 47.4159C825.593 47.4159 827.684 47.6506 829.604 48.1199C831.567 48.5892 833.551 49.2506 835.556 50.1039L832.74 56.6959C831.119 55.9706 829.455 55.3732 827.748 54.9039C826.041 54.4346 824.527 54.1999 823.204 54.1999C821.753 54.1999 820.623 54.4346 819.812 54.9039C819.001 55.3306 818.596 55.9492 818.596 56.7599C818.596 57.3572 818.809 57.8906 819.236 58.3599C819.705 58.8292 820.495 59.3199 821.604 59.8319C822.756 60.3439 824.356 61.0052 826.404 61.8159C828.495 62.6266 830.244 63.5012 831.652 64.4399C833.103 65.3359 834.169 66.4452 834.852 67.7679C835.577 69.0479 835.94 70.6906 835.94 72.6959Z" fill="url(#paint7_linear_112_3998)" fill-opacity="0.7"/>
<path d="M801.875 47.4159C802.515 47.4159 803.198 47.4586 803.923 47.5439C804.691 47.5866 805.288 47.6719 805.715 47.7999L804.755 56.8239C804.286 56.7386 803.731 56.6532 803.091 56.5679C802.451 56.4826 801.683 56.4399 800.787 56.4399C799.806 56.4399 798.803 56.5892 797.779 56.8879C796.798 57.1866 795.88 57.6772 795.027 58.3599C794.174 59.0426 793.491 59.9386 792.979 61.0479C792.467 62.1572 792.211 63.5652 792.211 65.2719V82.9999H782.547V48.0559H789.907L791.315 53.9439H791.763C792.446 52.7066 793.299 51.5972 794.323 50.6159C795.347 49.6346 796.499 48.8666 797.779 48.3119C799.059 47.7146 800.424 47.4159 801.875 47.4159Z" fill="url(#paint8_linear_112_3998)" fill-opacity="0.7"/>
<path d="M759.271 47.4159C762.514 47.4159 765.309 48.0346 767.655 49.2719C770.002 50.4666 771.794 52.2586 773.031 54.6479C774.311 56.9946 774.951 59.8746 774.951 63.2879V67.9599H752.487C752.573 70.6052 753.383 72.6959 754.919 74.2319C756.455 75.7252 758.653 76.4719 761.511 76.4719C763.687 76.4719 765.671 76.2586 767.463 75.8319C769.255 75.4052 771.09 74.7652 772.967 73.9119V81.1439C771.261 81.9972 769.447 82.6159 767.527 82.9999C765.65 83.4266 763.303 83.6399 760.487 83.6399C757.031 83.6399 753.959 82.9999 751.271 81.7199C748.626 80.4399 746.535 78.4772 744.999 75.8319C743.463 73.1439 742.695 69.7946 742.695 65.7839C742.695 61.6879 743.378 58.2959 744.743 55.6079C746.151 52.8772 748.093 50.8292 750.567 49.4639C753.085 48.0986 755.986 47.4159 759.271 47.4159ZM759.527 54.2639C757.607 54.2639 756.05 54.8826 754.855 56.1199C753.661 57.3146 752.957 59.1066 752.743 61.4959H765.927C765.927 60.0879 765.693 58.8506 765.223 57.7839C764.754 56.7172 764.029 55.8639 763.047 55.2239C762.109 54.5839 760.935 54.2639 759.527 54.2639Z" fill="url(#paint9_linear_112_3998)" fill-opacity="0.7"/>
<path d="M713.586 45.6879C713.586 47.0106 713.543 48.2692 713.458 49.4639C713.415 50.6586 713.33 51.7039 713.202 52.5999H713.586C714.525 51.1492 715.783 49.9332 717.362 48.9519C718.941 47.9279 720.989 47.4159 723.506 47.4159C727.389 47.4159 730.546 48.9519 732.978 52.0239C735.41 55.0532 736.626 59.5332 736.626 65.4639C736.626 69.4319 736.071 72.7812 734.962 75.5119C733.853 78.1999 732.274 80.2266 730.226 81.5919C728.221 82.9572 725.895 83.6399 723.25 83.6399C720.69 83.6399 718.663 83.1919 717.17 82.2959C715.719 81.3572 714.525 80.3332 713.586 79.2239H712.946L711.346 82.9999H703.922V34.3599H713.586V45.6879ZM720.37 55.0959C718.749 55.0959 717.426 55.4372 716.402 56.1199C715.421 56.8026 714.695 57.8479 714.226 59.2559C713.799 60.6212 713.586 62.4132 713.586 64.6319V65.7839C713.586 69.0692 714.077 71.5652 715.058 73.2719C716.082 74.9786 717.895 75.8319 720.498 75.8319C722.589 75.8319 724.167 74.9359 725.234 73.1439C726.301 71.3519 726.834 68.7492 726.834 65.3359C726.834 61.9652 726.301 59.4266 725.234 57.7199C724.21 55.9706 722.589 55.0959 720.37 55.0959Z" fill="url(#paint10_linear_112_3998)" fill-opacity="0.7"/>
<path d="M694.489 48.0559V82.9999H687.065L685.849 78.5199H685.273C684.548 79.7146 683.609 80.6959 682.457 81.4639C681.348 82.2319 680.11 82.7866 678.745 83.1279C677.422 83.4692 676.014 83.6399 674.521 83.6399C672.046 83.6399 669.87 83.1919 667.993 82.2959C666.158 81.3999 664.708 80.0132 663.641 78.1359C662.617 76.2586 662.105 73.8266 662.105 70.8399V48.0559H671.833V68.4079C671.833 70.8826 672.26 72.7599 673.113 74.0399C674.009 75.2772 675.417 75.8959 677.337 75.8959C679.3 75.8959 680.814 75.4692 681.881 74.6159C682.99 73.7199 683.758 72.4186 684.185 70.7119C684.612 69.0052 684.825 66.9146 684.825 64.4399V48.0559H694.489ZM667.097 39.0959C667.097 37.6026 667.524 36.5146 668.377 35.8319C669.23 35.1492 670.276 34.8079 671.513 34.8079C672.708 34.8079 673.732 35.1492 674.585 35.8319C675.481 36.5146 675.929 37.6026 675.929 39.0959C675.929 40.5039 675.481 41.5492 674.585 42.2319C673.732 42.9146 672.708 43.2559 671.513 43.2559C670.276 43.2559 669.23 42.9146 668.377 42.2319C667.524 41.5492 667.097 40.5039 667.097 39.0959ZM680.921 39.0959C680.921 37.6026 681.326 36.5146 682.137 35.8319C682.99 35.1492 684.057 34.8079 685.337 34.8079C686.532 34.8079 687.556 35.1492 688.409 35.8319C689.305 36.5146 689.753 37.6026 689.753 39.0959C689.753 40.5039 689.305 41.5492 688.409 42.2319C687.556 42.9146 686.532 43.2559 685.337 43.2559C684.057 43.2559 682.99 42.9146 682.137 42.2319C681.326 41.5492 680.921 40.5039 680.921 39.0959Z" fill="url(#paint11_linear_112_3998)" fill-opacity="0.7"/>
<path d="M652.898 82.9999H643.234V34.3599H652.898V82.9999Z" fill="url(#paint12_linear_112_3998)" fill-opacity="0.7"/>
<path d="M619.959 47.4159C623.202 47.4159 625.996 48.0346 628.343 49.2719C630.69 50.4666 632.482 52.2586 633.719 54.6479C634.999 56.9946 635.639 59.8746 635.639 63.2879V67.9599H613.175C613.26 70.6052 614.071 72.6959 615.607 74.2319C617.143 75.7252 619.34 76.4719 622.199 76.4719C624.375 76.4719 626.359 76.2586 628.151 75.8319C629.943 75.4052 631.778 74.7652 633.655 73.9119V81.1439C631.948 81.9972 630.135 82.6159 628.215 82.9999C626.338 83.4266 623.991 83.6399 621.175 83.6399C617.719 83.6399 614.647 82.9999 611.959 81.7199C609.314 80.4399 607.223 78.4772 605.687 75.8319C604.151 73.1439 603.383 69.7946 603.383 65.7839C603.383 61.6879 604.066 58.2959 605.431 55.6079C606.839 52.8772 608.78 50.8292 611.255 49.4639C613.772 48.0986 616.674 47.4159 619.959 47.4159ZM620.215 54.2639C618.295 54.2639 616.738 54.8826 615.543 56.1199C614.348 57.3146 613.644 59.1066 613.431 61.4959H626.615C626.615 60.0879 626.38 58.8506 625.911 57.7839C625.442 56.7172 624.716 55.8639 623.735 55.2239C622.796 54.5839 621.623 54.2639 620.215 54.2639Z" fill="url(#paint13_linear_112_3998)" fill-opacity="0.7"/>
<path d="M592.337 76.0239C593.404 76.0239 594.428 75.9172 595.409 75.7039C596.39 75.4906 597.372 75.2346 598.353 74.9359V82.0399C597.329 82.4666 596.049 82.8292 594.513 83.1279C593.02 83.4692 591.377 83.6399 589.585 83.6399C587.494 83.6399 585.617 83.2986 583.953 82.6159C582.332 81.9332 581.03 80.7599 580.049 79.0959C579.11 77.3892 578.641 75.0426 578.641 72.0559V55.2239H574.097V51.1919L579.345 47.9919L582.097 40.6319H588.177V48.0559H597.969V55.2239H588.177V72.0559C588.177 73.3786 588.561 74.3812 589.329 75.0639C590.097 75.7039 591.1 76.0239 592.337 76.0239Z" fill="url(#paint14_linear_112_3998)" fill-opacity="0.7"/>
<path d="M567.9 48.0559V82.9999H558.236V48.0559H567.9ZM563.1 34.2959C564.508 34.2959 565.724 34.6372 566.748 35.3199C567.815 35.9599 568.348 37.1972 568.348 39.0319C568.348 40.7812 567.815 41.9972 566.748 42.6799C565.724 43.3626 564.508 43.7039 563.1 43.7039C561.649 43.7039 560.412 43.3626 559.388 42.6799C558.364 41.9972 557.852 40.7812 557.852 39.0319C557.852 37.1972 558.364 35.9599 559.388 35.3199C560.412 34.6372 561.649 34.2959 563.1 34.2959Z" fill="url(#paint15_linear_112_3998)" fill-opacity="0.7"/>
<path d="M545.462 76.0239C546.529 76.0239 547.553 75.9172 548.534 75.7039C549.515 75.4906 550.497 75.2346 551.478 74.9359V82.0399C550.454 82.4666 549.174 82.8292 547.638 83.1279C546.145 83.4692 544.502 83.6399 542.71 83.6399C540.619 83.6399 538.742 83.2986 537.078 82.6159C535.457 81.9332 534.155 80.7599 533.174 79.0959C532.235 77.3892 531.766 75.0426 531.766 72.0559V55.2239H527.222V51.1919L532.47 47.9919L535.222 40.6319H541.302V48.0559H551.094V55.2239H541.302V72.0559C541.302 73.3786 541.686 74.3812 542.454 75.0639C543.222 75.7039 544.225 76.0239 545.462 76.0239Z" fill="url(#paint16_linear_112_3998)" fill-opacity="0.7"/>
<path d="M521.125 47.4159C521.765 47.4159 522.448 47.4586 523.173 47.5439C523.941 47.5866 524.538 47.6719 524.965 47.7999L524.005 56.8239C523.536 56.7386 522.981 56.6532 522.341 56.5679C521.701 56.4826 520.933 56.4399 520.037 56.4399C519.056 56.4399 518.053 56.5892 517.029 56.8879C516.048 57.1866 515.13 57.6772 514.277 58.3599C513.424 59.0426 512.741 59.9386 512.229 61.0479C511.717 62.1572 511.461 63.5652 511.461 65.2719V82.9999H501.797V48.0559H509.157L510.565 53.9439H511.013C511.696 52.7066 512.549 51.5972 513.573 50.6159C514.597 49.6346 515.749 48.8666 517.029 48.3119C518.309 47.7146 519.674 47.4159 521.125 47.4159Z" fill="url(#paint17_linear_112_3998)" fill-opacity="0.7"/>
<path d="M478.521 47.4159C481.764 47.4159 484.559 48.0346 486.905 49.2719C489.252 50.4666 491.044 52.2586 492.281 54.6479C493.561 56.9946 494.201 59.8746 494.201 63.2879V67.9599H471.737C471.823 70.6052 472.633 72.6959 474.169 74.2319C475.705 75.7252 477.903 76.4719 480.761 76.4719C482.937 76.4719 484.921 76.2586 486.713 75.8319C488.505 75.4052 490.34 74.7652 492.217 73.9119V81.1439C490.511 81.9972 488.697 82.6159 486.777 82.9999C484.9 83.4266 482.553 83.6399 479.737 83.6399C476.281 83.6399 473.209 82.9999 470.521 81.7199C467.876 80.4399 465.785 78.4772 464.249 75.8319C462.713 73.1439 461.945 69.7946 461.945 65.7839C461.945 61.6879 462.628 58.2959 463.993 55.6079C465.401 52.8772 467.343 50.8292 469.817 49.4639C472.335 48.0986 475.236 47.4159 478.521 47.4159ZM478.777 54.2639C476.857 54.2639 475.3 54.8826 474.105 56.1199C472.911 57.3146 472.207 59.1066 471.993 61.4959H485.177C485.177 60.0879 484.943 58.8506 484.473 57.7839C484.004 56.7172 483.279 55.8639 482.297 55.2239C481.359 54.5839 480.185 54.2639 478.777 54.2639Z" fill="url(#paint18_linear_112_3998)" fill-opacity="0.7"/>
<path d="M450.899 76.0239C451.966 76.0239 452.99 75.9172 453.971 75.7039C454.953 75.4906 455.934 75.2346 456.915 74.9359V82.0399C455.891 82.4666 454.611 82.8292 453.075 83.1279C451.582 83.4692 449.939 83.6399 448.147 83.6399C446.057 83.6399 444.179 83.2986 442.515 82.6159C440.894 81.9332 439.593 80.7599 438.611 79.0959C437.673 77.3892 437.203 75.0426 437.203 72.0559V55.2239H432.659V51.1919L437.907 47.9919L440.659 40.6319H446.739V48.0559H456.531V55.2239H446.739V72.0559C446.739 73.3786 447.123 74.3812 447.891 75.0639C448.659 75.7039 449.662 76.0239 450.899 76.0239Z" fill="url(#paint19_linear_112_3998)" fill-opacity="0.7"/>
<path d="M414.202 47.4159C418.042 47.4159 421.072 48.4186 423.29 50.4239C425.509 52.4292 426.618 55.6932 426.618 60.2159V82.9999H417.018V62.6479C417.018 60.1306 416.549 58.2532 415.61 57.0159C414.714 55.7359 413.306 55.0959 411.386 55.0959C408.485 55.0959 406.501 56.0986 405.434 58.1039C404.41 60.0666 403.898 62.9039 403.898 66.6159V82.9999H394.234V48.0559H401.658L403.002 52.7279H403.386C404.154 51.5759 405.072 50.6159 406.138 49.8479C407.248 49.0372 408.464 48.4399 409.786 48.0559C411.152 47.6292 412.624 47.4159 414.202 47.4159Z" fill="url(#paint20_linear_112_3998)" fill-opacity="0.7"/>
<path d="M384.131 66.8719C384.131 70.0292 383.427 72.8879 382.019 75.4479C380.654 77.9652 378.563 79.9706 375.747 81.4639C372.974 82.9146 369.454 83.6399 365.187 83.6399C359.129 83.6399 354.521 82.1039 351.363 79.0319C348.206 75.9172 346.627 71.8212 346.627 66.7439V37.3039H356.291V65.2719C356.291 69.0266 357.059 71.6719 358.595 73.2079C360.131 74.7439 362.414 75.5119 365.443 75.5119C367.577 75.5119 369.305 75.1492 370.627 74.4239C371.95 73.6986 372.91 72.5679 373.507 71.0319C374.147 69.4959 374.467 67.5546 374.467 65.2079V37.3039H384.131V66.8719Z" fill="url(#paint21_linear_112_3998)" fill-opacity="0.7"/>
</g>
</g>
<path d="M241 72H1160V105C1160 111.627 1154.63 117 1148 117H253C246.373 117 241 111.627 241 105V72Z" fill="url(#paint22_linear_112_3998)"/>
<path d="M1035.69 35.4159C1038.13 35.4159 1040.15 35.8852 1041.77 36.8239C1043.4 37.7199 1044.74 38.9359 1045.81 40.4719H1046.06L1046.96 36.0559H1055.15V71.2559C1055.15 74.5412 1054.51 77.2932 1053.23 79.5119C1051.95 81.7732 1050.01 83.4799 1047.41 84.6319C1044.85 85.7839 1041.58 86.3599 1037.61 86.3599C1034.93 86.3599 1032.52 86.1892 1030.38 85.8479C1028.25 85.5492 1026.24 85.0159 1024.37 84.2479V76.0559C1026.29 76.9092 1028.25 77.5706 1030.25 78.0399C1032.3 78.5092 1034.65 78.7439 1037.29 78.7439C1039.98 78.7439 1042.01 78.1252 1043.37 76.8879C1044.78 75.6506 1045.49 73.9439 1045.49 71.7679V70.8079C1045.49 70.2959 1045.51 69.6132 1045.55 68.7599C1045.64 67.9066 1045.72 67.1599 1045.81 66.5199H1045.49C1044.51 68.0559 1043.2 69.2932 1041.58 70.2319C1040 71.1706 1038.02 71.6399 1035.63 71.6399C1031.62 71.6399 1028.4 70.0826 1025.97 66.9679C1023.58 63.8532 1022.38 59.3946 1022.38 53.5919C1022.38 47.7892 1023.6 43.3092 1026.03 40.1519C1028.46 36.9946 1031.68 35.4159 1035.69 35.4159ZM1038.83 43.0319C1037.42 43.0319 1036.21 43.4372 1035.18 44.2479C1034.2 45.0586 1033.45 46.2532 1032.94 47.8319C1032.47 49.4106 1032.24 51.3732 1032.24 53.7199C1032.24 57.2186 1032.79 59.8212 1033.9 61.5279C1035.05 63.2346 1036.76 64.0879 1039.02 64.0879C1040.3 64.0879 1041.39 63.8959 1042.29 63.5119C1043.18 63.1279 1043.91 62.5732 1044.46 61.8479C1045.02 61.0799 1045.42 60.1199 1045.68 58.9679C1045.98 57.8159 1046.13 56.4506 1046.13 54.8719V53.4639C1046.13 51.1172 1045.89 49.1759 1045.42 47.6399C1044.95 46.1039 1044.19 44.9519 1043.12 44.1839C1042.05 43.4159 1040.62 43.0319 1038.83 43.0319Z" fill="url(#paint23_linear_112_3998)"/>
<path d="M1002.39 35.4159C1006.23 35.4159 1009.26 36.4186 1011.48 38.4239C1013.7 40.4292 1014.81 43.6932 1014.81 48.2159V70.9999H1005.21V50.6479C1005.21 48.1306 1004.74 46.2532 1003.8 45.0159C1002.9 43.7359 1001.49 43.0959 999.574 43.0959C996.673 43.0959 994.689 44.0986 993.622 46.1039C992.598 48.0666 992.086 50.9039 992.086 54.6159V70.9999H982.422V36.0559H989.846L991.19 40.7279H991.574C992.342 39.5759 993.259 38.6159 994.326 37.8479C995.435 37.0372 996.651 36.4399 997.974 36.0559C999.339 35.6292 1000.81 35.4159 1002.39 35.4159Z" fill="url(#paint24_linear_112_3998)"/>
<path d="M972.989 36.0559V70.9999H965.565L964.349 66.5199H963.773C963.048 67.7146 962.109 68.6959 960.957 69.4639C959.848 70.2319 958.61 70.7866 957.245 71.1279C955.922 71.4692 954.514 71.6399 953.021 71.6399C950.546 71.6399 948.37 71.1919 946.493 70.2959C944.658 69.3999 943.208 68.0132 942.141 66.1359C941.117 64.2586 940.605 61.8266 940.605 58.8399V36.0559H950.333V56.4079C950.333 58.8826 950.76 60.7599 951.613 62.0399C952.509 63.2772 953.917 63.8959 955.837 63.8959C957.8 63.8959 959.314 63.4692 960.381 62.6159C961.49 61.7199 962.258 60.4186 962.685 58.7119C963.112 57.0052 963.325 54.9146 963.325 52.4399V36.0559H972.989Z" fill="url(#paint25_linear_112_3998)"/>
<path d="M934.13 70.9999H906.482V65.3039L922.61 43.4159H907.378V36.0559H933.554V42.2639L917.874 63.5759H934.13V70.9999Z" fill="url(#paint26_linear_112_3998)"/>
<path d="M896.524 64.0239C897.591 64.0239 898.615 63.9172 899.596 63.7039C900.578 63.4906 901.559 63.2346 902.54 62.9359V70.0399C901.516 70.4666 900.236 70.8292 898.7 71.1279C897.207 71.4692 895.564 71.6399 893.772 71.6399C891.682 71.6399 889.804 71.2986 888.14 70.6159C886.519 69.9332 885.218 68.7599 884.236 67.0959C883.298 65.3892 882.828 63.0426 882.828 60.0559V43.2239H878.284V39.1919L883.532 35.9919L886.284 28.6319H892.364V36.0559H902.156V43.2239H892.364V60.0559C892.364 61.3786 892.748 62.3812 893.516 63.0639C894.284 63.7039 895.287 64.0239 896.524 64.0239Z" fill="url(#paint27_linear_112_3998)"/>
<path d="M858.209 35.4159C861.452 35.4159 864.246 36.0346 866.593 37.2719C868.94 38.4666 870.732 40.2586 871.969 42.6479C873.249 44.9946 873.889 47.8746 873.889 51.2879V55.9599H851.425C851.51 58.6052 852.321 60.6959 853.857 62.2319C855.393 63.7252 857.59 64.4719 860.449 64.4719C862.625 64.4719 864.609 64.2586 866.401 63.8319C868.193 63.4052 870.028 62.7652 871.905 61.9119V69.1439C870.198 69.9972 868.385 70.6159 866.465 70.9999C864.588 71.4266 862.241 71.6399 859.425 71.6399C855.969 71.6399 852.897 70.9999 850.209 69.7199C847.564 68.4399 845.473 66.4772 843.937 63.8319C842.401 61.1439 841.633 57.7946 841.633 53.7839C841.633 49.6879 842.316 46.2959 843.681 43.6079C845.089 40.8772 847.03 38.8292 849.505 37.4639C852.022 36.0986 854.924 35.4159 858.209 35.4159ZM858.465 42.2639C856.545 42.2639 854.988 42.8826 853.793 44.1199C852.598 45.3146 851.894 47.1066 851.681 49.4959H864.865C864.865 48.0879 864.63 46.8506 864.161 45.7839C863.692 44.7172 862.966 43.8639 861.985 43.2239C861.046 42.5839 859.873 42.2639 858.465 42.2639Z" fill="url(#paint28_linear_112_3998)"/>
<path d="M835.94 60.6959C835.94 62.9146 835.407 64.8559 834.34 66.5199C833.316 68.1412 831.737 69.3999 829.604 70.2959C827.471 71.1919 824.761 71.6399 821.476 71.6399C819.001 71.6399 816.825 71.4692 814.948 71.1279C813.071 70.8292 811.257 70.3172 809.508 69.5919V61.5919C811.385 62.4879 813.412 63.1919 815.588 63.7039C817.764 64.2159 819.641 64.4719 821.22 64.4719C823.183 64.4719 824.591 64.1946 825.444 63.6399C826.34 63.0852 826.788 62.3386 826.788 61.3999C826.788 60.7599 826.553 60.1839 826.084 59.6719C825.657 59.1599 824.868 58.6266 823.716 58.0719C822.607 57.5172 821.007 56.8346 818.916 56.0239C816.825 55.1706 815.076 54.2959 813.668 53.3999C812.26 52.4612 811.193 51.3519 810.468 50.0719C809.785 48.7919 809.444 47.1919 809.444 45.2719C809.444 42.0719 810.703 39.6399 813.22 37.9759C815.78 36.2692 819.151 35.4159 823.332 35.4159C825.593 35.4159 827.684 35.6506 829.604 36.1199C831.567 36.5892 833.551 37.2506 835.556 38.1039L832.74 44.6959C831.119 43.9706 829.455 43.3732 827.748 42.9039C826.041 42.4346 824.527 42.1999 823.204 42.1999C821.753 42.1999 820.623 42.4346 819.812 42.9039C819.001 43.3306 818.596 43.9492 818.596 44.7599C818.596 45.3572 818.809 45.8906 819.236 46.3599C819.705 46.8292 820.495 47.3199 821.604 47.8319C822.756 48.3439 824.356 49.0052 826.404 49.8159C828.495 50.6266 830.244 51.5012 831.652 52.4399C833.103 53.3359 834.169 54.4452 834.852 55.7679C835.577 57.0479 835.94 58.6906 835.94 60.6959Z" fill="url(#paint29_linear_112_3998)"/>
<path d="M801.875 35.4159C802.515 35.4159 803.198 35.4586 803.923 35.5439C804.691 35.5866 805.288 35.6719 805.715 35.7999L804.755 44.8239C804.286 44.7386 803.731 44.6532 803.091 44.5679C802.451 44.4826 801.683 44.4399 800.787 44.4399C799.806 44.4399 798.803 44.5892 797.779 44.8879C796.798 45.1866 795.88 45.6772 795.027 46.3599C794.174 47.0426 793.491 47.9386 792.979 49.0479C792.467 50.1572 792.211 51.5652 792.211 53.2719V70.9999H782.547V36.0559H789.907L791.315 41.9439H791.763C792.446 40.7066 793.299 39.5972 794.323 38.6159C795.347 37.6346 796.499 36.8666 797.779 36.3119C799.059 35.7146 800.424 35.4159 801.875 35.4159Z" fill="url(#paint30_linear_112_3998)"/>
<path d="M759.271 35.4159C762.514 35.4159 765.309 36.0346 767.655 37.2719C770.002 38.4666 771.794 40.2586 773.031 42.6479C774.311 44.9946 774.951 47.8746 774.951 51.2879V55.9599H752.487C752.573 58.6052 753.383 60.6959 754.919 62.2319C756.455 63.7252 758.653 64.4719 761.511 64.4719C763.687 64.4719 765.671 64.2586 767.463 63.8319C769.255 63.4052 771.09 62.7652 772.967 61.9119V69.1439C771.261 69.9972 769.447 70.6159 767.527 70.9999C765.65 71.4266 763.303 71.6399 760.487 71.6399C757.031 71.6399 753.959 70.9999 751.271 69.7199C748.626 68.4399 746.535 66.4772 744.999 63.8319C743.463 61.1439 742.695 57.7946 742.695 53.7839C742.695 49.6879 743.378 46.2959 744.743 43.6079C746.151 40.8772 748.093 38.8292 750.567 37.4639C753.085 36.0986 755.986 35.4159 759.271 35.4159ZM759.527 42.2639C757.607 42.2639 756.05 42.8826 754.855 44.1199C753.661 45.3146 752.957 47.1066 752.743 49.4959H765.927C765.927 48.0879 765.693 46.8506 765.223 45.7839C764.754 44.7172 764.029 43.8639 763.047 43.2239C762.109 42.5839 760.935 42.2639 759.527 42.2639Z" fill="url(#paint31_linear_112_3998)"/>
<path d="M713.586 33.6879C713.586 35.0106 713.543 36.2692 713.458 37.4639C713.415 38.6586 713.33 39.7039 713.202 40.5999H713.586C714.525 39.1492 715.783 37.9332 717.362 36.9519C718.941 35.9279 720.989 35.4159 723.506 35.4159C727.389 35.4159 730.546 36.9519 732.978 40.0239C735.41 43.0532 736.626 47.5332 736.626 53.4639C736.626 57.4319 736.071 60.7812 734.962 63.5119C733.853 66.1999 732.274 68.2266 730.226 69.5919C728.221 70.9572 725.895 71.6399 723.25 71.6399C720.69 71.6399 718.663 71.1919 717.17 70.2959C715.719 69.3572 714.525 68.3332 713.586 67.2239H712.946L711.346 70.9999H703.922V22.3599H713.586V33.6879ZM720.37 43.0959C718.749 43.0959 717.426 43.4372 716.402 44.1199C715.421 44.8026 714.695 45.8479 714.226 47.2559C713.799 48.6212 713.586 50.4132 713.586 52.6319V53.7839C713.586 57.0692 714.077 59.5652 715.058 61.2719C716.082 62.9786 717.895 63.8319 720.498 63.8319C722.589 63.8319 724.167 62.9359 725.234 61.1439C726.301 59.3519 726.834 56.7492 726.834 53.3359C726.834 49.9652 726.301 47.4266 725.234 45.7199C724.21 43.9706 722.589 43.0959 720.37 43.0959Z" fill="url(#paint32_linear_112_3998)"/>
<path d="M694.489 36.0559V70.9999H687.065L685.849 66.5199H685.273C684.548 67.7146 683.609 68.6959 682.457 69.4639C681.348 70.2319 680.11 70.7866 678.745 71.1279C677.422 71.4692 676.014 71.6399 674.521 71.6399C672.046 71.6399 669.87 71.1919 667.993 70.2959C666.158 69.3999 664.708 68.0132 663.641 66.1359C662.617 64.2586 662.105 61.8266 662.105 58.8399V36.0559H671.833V56.4079C671.833 58.8826 672.26 60.7599 673.113 62.0399C674.009 63.2772 675.417 63.8959 677.337 63.8959C679.3 63.8959 680.814 63.4692 681.881 62.6159C682.99 61.7199 683.758 60.4186 684.185 58.7119C684.612 57.0052 684.825 54.9146 684.825 52.4399V36.0559H694.489ZM667.097 27.0959C667.097 25.6026 667.524 24.5146 668.377 23.8319C669.23 23.1492 670.276 22.8079 671.513 22.8079C672.708 22.8079 673.732 23.1492 674.585 23.8319C675.481 24.5146 675.929 25.6026 675.929 27.0959C675.929 28.5039 675.481 29.5492 674.585 30.2319C673.732 30.9146 672.708 31.2559 671.513 31.2559C670.276 31.2559 669.23 30.9146 668.377 30.2319C667.524 29.5492 667.097 28.5039 667.097 27.0959ZM680.921 27.0959C680.921 25.6026 681.326 24.5146 682.137 23.8319C682.99 23.1492 684.057 22.8079 685.337 22.8079C686.532 22.8079 687.556 23.1492 688.409 23.8319C689.305 24.5146 689.753 25.6026 689.753 27.0959C689.753 28.5039 689.305 29.5492 688.409 30.2319C687.556 30.9146 686.532 31.2559 685.337 31.2559C684.057 31.2559 682.99 30.9146 682.137 30.2319C681.326 29.5492 680.921 28.5039 680.921 27.0959Z" fill="url(#paint33_linear_112_3998)"/>
<path d="M652.898 70.9999H643.234V22.3599H652.898V70.9999Z" fill="url(#paint34_linear_112_3998)"/>
<path d="M619.959 35.4159C623.202 35.4159 625.996 36.0346 628.343 37.2719C630.69 38.4666 632.482 40.2586 633.719 42.6479C634.999 44.9946 635.639 47.8746 635.639 51.2879V55.9599H613.175C613.26 58.6052 614.071 60.6959 615.607 62.2319C617.143 63.7252 619.34 64.4719 622.199 64.4719C624.375 64.4719 626.359 64.2586 628.151 63.8319C629.943 63.4052 631.778 62.7652 633.655 61.9119V69.1439C631.948 69.9972 630.135 70.6159 628.215 70.9999C626.338 71.4266 623.991 71.6399 621.175 71.6399C617.719 71.6399 614.647 70.9999 611.959 69.7199C609.314 68.4399 607.223 66.4772 605.687 63.8319C604.151 61.1439 603.383 57.7946 603.383 53.7839C603.383 49.6879 604.066 46.2959 605.431 43.6079C606.839 40.8772 608.78 38.8292 611.255 37.4639C613.772 36.0986 616.674 35.4159 619.959 35.4159ZM620.215 42.2639C618.295 42.2639 616.738 42.8826 615.543 44.1199C614.348 45.3146 613.644 47.1066 613.431 49.4959H626.615C626.615 48.0879 626.38 46.8506 625.911 45.7839C625.442 44.7172 624.716 43.8639 623.735 43.2239C622.796 42.5839 621.623 42.2639 620.215 42.2639Z" fill="url(#paint35_linear_112_3998)"/>
<path d="M592.337 64.0239C593.404 64.0239 594.428 63.9172 595.409 63.7039C596.39 63.4906 597.372 63.2346 598.353 62.9359V70.0399C597.329 70.4666 596.049 70.8292 594.513 71.1279C593.02 71.4692 591.377 71.6399 589.585 71.6399C587.494 71.6399 585.617 71.2986 583.953 70.6159C582.332 69.9332 581.03 68.7599 580.049 67.0959C579.11 65.3892 578.641 63.0426 578.641 60.0559V43.2239H574.097V39.1919L579.345 35.9919L582.097 28.6319H588.177V36.0559H597.969V43.2239H588.177V60.0559C588.177 61.3786 588.561 62.3812 589.329 63.0639C590.097 63.7039 591.1 64.0239 592.337 64.0239Z" fill="url(#paint36_linear_112_3998)"/>
<path d="M567.9 36.0559V70.9999H558.236V36.0559H567.9ZM563.1 22.2959C564.508 22.2959 565.724 22.6372 566.748 23.3199C567.815 23.9599 568.348 25.1972 568.348 27.0319C568.348 28.7812 567.815 29.9972 566.748 30.6799C565.724 31.3626 564.508 31.7039 563.1 31.7039C561.649 31.7039 560.412 31.3626 559.388 30.6799C558.364 29.9972 557.852 28.7812 557.852 27.0319C557.852 25.1972 558.364 23.9599 559.388 23.3199C560.412 22.6372 561.649 22.2959 563.1 22.2959Z" fill="url(#paint37_linear_112_3998)"/>
<path d="M545.462 64.0239C546.529 64.0239 547.553 63.9172 548.534 63.7039C549.515 63.4906 550.497 63.2346 551.478 62.9359V70.0399C550.454 70.4666 549.174 70.8292 547.638 71.1279C546.145 71.4692 544.502 71.6399 542.71 71.6399C540.619 71.6399 538.742 71.2986 537.078 70.6159C535.457 69.9332 534.155 68.7599 533.174 67.0959C532.235 65.3892 531.766 63.0426 531.766 60.0559V43.2239H527.222V39.1919L532.47 35.9919L535.222 28.6319H541.302V36.0559H551.094V43.2239H541.302V60.0559C541.302 61.3786 541.686 62.3812 542.454 63.0639C543.222 63.7039 544.225 64.0239 545.462 64.0239Z" fill="url(#paint38_linear_112_3998)"/>
<path d="M521.125 35.4159C521.765 35.4159 522.448 35.4586 523.173 35.5439C523.941 35.5866 524.538 35.6719 524.965 35.7999L524.005 44.8239C523.536 44.7386 522.981 44.6532 522.341 44.5679C521.701 44.4826 520.933 44.4399 520.037 44.4399C519.056 44.4399 518.053 44.5892 517.029 44.8879C516.048 45.1866 515.13 45.6772 514.277 46.3599C513.424 47.0426 512.741 47.9386 512.229 49.0479C511.717 50.1572 511.461 51.5652 511.461 53.2719V70.9999H501.797V36.0559H509.157L510.565 41.9439H511.013C511.696 40.7066 512.549 39.5972 513.573 38.6159C514.597 37.6346 515.749 36.8666 517.029 36.3119C518.309 35.7146 519.674 35.4159 521.125 35.4159Z" fill="url(#paint39_linear_112_3998)"/>
<path d="M478.521 35.4159C481.764 35.4159 484.559 36.0346 486.905 37.2719C489.252 38.4666 491.044 40.2586 492.281 42.6479C493.561 44.9946 494.201 47.8746 494.201 51.2879V55.9599H471.737C471.823 58.6052 472.633 60.6959 474.169 62.2319C475.705 63.7252 477.903 64.4719 480.761 64.4719C482.937 64.4719 484.921 64.2586 486.713 63.8319C488.505 63.4052 490.34 62.7652 492.217 61.9119V69.1439C490.511 69.9972 488.697 70.6159 486.777 70.9999C484.9 71.4266 482.553 71.6399 479.737 71.6399C476.281 71.6399 473.209 70.9999 470.521 69.7199C467.876 68.4399 465.785 66.4772 464.249 63.8319C462.713 61.1439 461.945 57.7946 461.945 53.7839C461.945 49.6879 462.628 46.2959 463.993 43.6079C465.401 40.8772 467.343 38.8292 469.817 37.4639C472.335 36.0986 475.236 35.4159 478.521 35.4159ZM478.777 42.2639C476.857 42.2639 475.3 42.8826 474.105 44.1199C472.911 45.3146 472.207 47.1066 471.993 49.4959H485.177C485.177 48.0879 484.943 46.8506 484.473 45.7839C484.004 44.7172 483.279 43.8639 482.297 43.2239C481.359 42.5839 480.185 42.2639 478.777 42.2639Z" fill="url(#paint40_linear_112_3998)"/>
<path d="M450.899 64.0239C451.966 64.0239 452.99 63.9172 453.971 63.7039C454.953 63.4906 455.934 63.2346 456.915 62.9359V70.0399C455.891 70.4666 454.611 70.8292 453.075 71.1279C451.582 71.4692 449.939 71.6399 448.147 71.6399C446.057 71.6399 444.179 71.2986 442.515 70.6159C440.894 69.9332 439.593 68.7599 438.611 67.0959C437.673 65.3892 437.203 63.0426 437.203 60.0559V43.2239H432.659V39.1919L437.907 35.9919L440.659 28.6319H446.739V36.0559H456.531V43.2239H446.739V60.0559C446.739 61.3786 447.123 62.3812 447.891 63.0639C448.659 63.7039 449.662 64.0239 450.899 64.0239Z" fill="url(#paint41_linear_112_3998)"/>
<path d="M414.202 35.4159C418.042 35.4159 421.072 36.4186 423.29 38.4239C425.509 40.4292 426.618 43.6932 426.618 48.2159V70.9999H417.018V50.6479C417.018 48.1306 416.549 46.2532 415.61 45.0159C414.714 43.7359 413.306 43.0959 411.386 43.0959C408.485 43.0959 406.501 44.0986 405.434 46.1039C404.41 48.0666 403.898 50.9039 403.898 54.6159V70.9999H394.234V36.0559H401.658L403.002 40.7279H403.386C404.154 39.5759 405.072 38.6159 406.138 37.8479C407.248 37.0372 408.464 36.4399 409.786 36.0559C411.152 35.6292 412.624 35.4159 414.202 35.4159Z" fill="url(#paint42_linear_112_3998)"/>
<path d="M384.131 54.8719C384.131 58.0292 383.427 60.8879 382.019 63.4479C380.654 65.9652 378.563 67.9706 375.747 69.4639C372.974 70.9146 369.454 71.6399 365.187 71.6399C359.129 71.6399 354.521 70.1039 351.363 67.0319C348.206 63.9172 346.627 59.8212 346.627 54.7439V25.3039H356.291V53.2719C356.291 57.0266 357.059 59.6719 358.595 61.2079C360.131 62.7439 362.414 63.5119 365.443 63.5119C367.577 63.5119 369.305 63.1492 370.627 62.4239C371.95 61.6986 372.91 60.5679 373.507 59.0319C374.147 57.4959 374.467 55.5546 374.467 53.2079V25.3039H384.131V54.8719Z" fill="url(#paint43_linear_112_3998)"/>
<defs>
<filter id="filter0_f_112_3998" x="326.627" y="14.2959" width="748.523" height="104.064" filterUnits="userSpaceOnUse" color-interpolation-filters="sRGB">
<feFlood flood-opacity="0" result="BackgroundImageFix"/>
<feBlend mode="normal" in="SourceGraphic" in2="BackgroundImageFix" result="shape"/>
<feGaussianBlur stdDeviation="10" result="effect1_foregroundBlur_112_3998"/>
</filter>
<linearGradient id="paint0_linear_112_3998" x1="241" y1="64.0036" x2="1160" y2="64.0026" gradientUnits="userSpaceOnUse">
<stop stop-color="white" stop-opacity="0.3"/>
<stop offset="0.359008" stop-color="#CBB0F8"/>
<stop offset="0.788712" stop-color="#FCD9ED"/>
<stop offset="1" stop-color="white" stop-opacity="0.3"/>
</linearGradient>
<linearGradient id="paint1_linear_112_3998" x1="1160" y1="48.2344" x2="-14386.5" y2="48.271" gradientUnits="userSpaceOnUse">
<stop stop-color="#F4439F"/>
<stop offset="1" stop-color="#7C3AED"/>
</linearGradient>
<linearGradient id="paint2_linear_112_3998" x1="2043.94" y1="54.2511" x2="-13686.9" y2="54.2772" gradientUnits="userSpaceOnUse">
<stop stop-color="#F4439F"/>
<stop offset="1" stop-color="#7C3AED"/>
</linearGradient>
<linearGradient id="paint3_linear_112_3998" x1="2958.85" y1="53.0989" x2="-12772" y2="53.125" gradientUnits="userSpaceOnUse">
<stop stop-color="#F4439F"/>
<stop offset="1" stop-color="#7C3AED"/>
</linearGradient>
<linearGradient id="paint4_linear_112_3998" x1="4280.75" y1="53.4432" x2="-14144.7" y2="53.4785" gradientUnits="userSpaceOnUse">
<stop stop-color="#F4439F"/>
<stop offset="1" stop-color="#7C3AED"/>
</linearGradient>
<linearGradient id="paint5_linear_112_3998" x1="5654.57" y1="60.9118" x2="-15347.6" y2="60.9681" gradientUnits="userSpaceOnUse">
<stop stop-color="#F4439F"/>
<stop offset="1" stop-color="#7C3AED"/>
</linearGradient>
<linearGradient id="paint6_linear_112_3998" x1="5143.2" y1="53.8985" x2="-10650.1" y2="53.9253" gradientUnits="userSpaceOnUse">
<stop stop-color="#F4439F"/>
<stop offset="1" stop-color="#7C3AED"/>
</linearGradient>
<linearGradient id="paint7_linear_112_3998" x1="7046.69" y1="53.8985" x2="-12179.9" y2="53.9383" gradientUnits="userSpaceOnUse">
<stop stop-color="#F4439F"/>
<stop offset="1" stop-color="#7C3AED"/>
</linearGradient>
<linearGradient id="paint8_linear_112_3998" x1="8831.69" y1="54.2511" x2="-13156.8" y2="54.3022" gradientUnits="userSpaceOnUse">
<stop stop-color="#F4439F"/>
<stop offset="1" stop-color="#7C3AED"/>
</linearGradient>
<linearGradient id="paint9_linear_112_3998" x1="7316.42" y1="53.8985" x2="-8476.87" y2="53.9253" gradientUnits="userSpaceOnUse">
<stop stop-color="#F4439F"/>
<stop offset="1" stop-color="#7C3AED"/>
</linearGradient>
<linearGradient id="paint10_linear_112_3998" x1="8060.96" y1="65.6779" x2="-7515.98" y2="65.7134" gradientUnits="userSpaceOnUse">
<stop stop-color="#F4439F"/>
<stop offset="1" stop-color="#7C3AED"/>
</linearGradient>
<linearGradient id="paint11_linear_112_3998" x1="9052.1" y1="65.3781" x2="-6678.77" y2="65.414" gradientUnits="userSpaceOnUse">
<stop stop-color="#F4439F"/>
<stop offset="1" stop-color="#7C3AED"/>
</linearGradient>
<linearGradient id="paint12_linear_112_3998" x1="30902.1" y1="66.0908" x2="-21811.9" y2="66.4923" gradientUnits="userSpaceOnUse">
<stop stop-color="#F4439F"/>
<stop offset="1" stop-color="#7C3AED"/>
</linearGradient>
<linearGradient id="paint13_linear_112_3998" x1="10376.5" y1="53.8986" x2="-5416.78" y2="53.9254" gradientUnits="userSpaceOnUse">
<stop stop-color="#F4439F"/>
<stop offset="1" stop-color="#7C3AED"/>
</linearGradient>
<linearGradient id="paint14_linear_112_3998" x1="14540" y1="60.9118" x2="-6462.19" y2="60.9681" gradientUnits="userSpaceOnUse">
<stop stop-color="#F4439F"/>
<stop offset="1" stop-color="#7C3AED"/>
</linearGradient>
<linearGradient id="paint15_linear_112_3998" x1="34243.7" y1="66.1333" x2="-14291.8" y2="66.4741" gradientUnits="userSpaceOnUse">
<stop stop-color="#F4439F"/>
<stop offset="1" stop-color="#7C3AED"/>
</linearGradient>
<linearGradient id="paint16_linear_112_3998" x1="15909.2" y1="60.9118" x2="-5092.96" y2="60.9681" gradientUnits="userSpaceOnUse">
<stop stop-color="#F4439F"/>
<stop offset="1" stop-color="#7C3AED"/>
</linearGradient>
<linearGradient id="paint17_linear_112_3998" x1="17417.6" y1="54.2511" x2="-4570.86" y2="54.3023" gradientUnits="userSpaceOnUse">
<stop stop-color="#F4439F"/>
<stop offset="1" stop-color="#7C3AED"/>
</linearGradient>
<linearGradient id="paint18_linear_112_3998" x1="13483.3" y1="53.8986" x2="-2310.02" y2="53.9254" gradientUnits="userSpaceOnUse">
<stop stop-color="#F4439F"/>
<stop offset="1" stop-color="#7C3AED"/>
</linearGradient>
<linearGradient id="paint19_linear_112_3998" x1="18671.4" y1="60.9118" x2="-2330.77" y2="60.9681" gradientUnits="userSpaceOnUse">
<stop stop-color="#F4439F"/>
<stop offset="1" stop-color="#7C3AED"/>
</linearGradient>
<linearGradient id="paint20_linear_112_3998" x1="14912.8" y1="54.2511" x2="-818.08" y2="54.2773" gradientUnits="userSpaceOnUse">
<stop stop-color="#F4439F"/>
<stop offset="1" stop-color="#7C3AED"/>
</linearGradient>
<linearGradient id="paint21_linear_112_3998" x1="1060" y1="58.4997" x2="341" y2="58.4998" gradientUnits="userSpaceOnUse">
<stop stop-color="#F4439F"/>
<stop offset="1" stop-color="#7C3AED"/>
</linearGradient>
<linearGradient id="paint22_linear_112_3998" x1="700.5" y1="72" x2="700.5" y2="117" gradientUnits="userSpaceOnUse">
<stop offset="0.0001" stop-color="white" stop-opacity="0.1"/>
<stop offset="1" stop-color="white" stop-opacity="0"/>
</linearGradient>
<linearGradient id="paint23_linear_112_3998" x1="1160" y1="-18.4684" x2="1002.26" y2="1582.2" gradientUnits="userSpaceOnUse">
<stop stop-color="#F4439F"/>
<stop offset="1" stop-color="#7C3AED"/>
</linearGradient>
<linearGradient id="paint24_linear_112_3998" x1="2043.94" y1="-36.0646" x2="1727.47" y2="2233.67" gradientUnits="userSpaceOnUse">
<stop stop-color="#F4439F"/>
<stop offset="1" stop-color="#7C3AED"/>
</linearGradient>
<linearGradient id="paint25_linear_112_3998" x1="2958.85" y1="-37.2168" x2="2642.37" y2="2232.52" gradientUnits="userSpaceOnUse">
<stop stop-color="#F4439F"/>
<stop offset="1" stop-color="#7C3AED"/>
</linearGradient>
<linearGradient id="paint26_linear_112_3998" x1="4280.75" y1="-38.3068" x2="3999.27" y2="2283.81" gradientUnits="userSpaceOnUse">
<stop stop-color="#F4439F"/>
<stop offset="1" stop-color="#7C3AED"/>
</linearGradient>
<linearGradient id="paint27_linear_112_3998" x1="5654.57" y1="-15.8851" x2="5490.37" y2="1884.37" gradientUnits="userSpaceOnUse">
<stop stop-color="#F4439F"/>
<stop offset="1" stop-color="#7C3AED"/>
</linearGradient>
<linearGradient id="paint28_linear_112_3998" x1="5143.2" y1="-35.0335" x2="4838.77" y2="2196.41" gradientUnits="userSpaceOnUse">
<stop stop-color="#F4439F"/>
<stop offset="1" stop-color="#7C3AED"/>
</linearGradient>
<linearGradient id="paint29_linear_112_3998" x1="7046.69" y1="-35.0334" x2="6795.13" y2="2209.75" gradientUnits="userSpaceOnUse">
<stop stop-color="#F4439F"/>
<stop offset="1" stop-color="#7C3AED"/>
</linearGradient>
<linearGradient id="paint30_linear_112_3998" x1="8831.69" y1="-36.0646" x2="8603.16" y2="2255" gradientUnits="userSpaceOnUse">
<stop stop-color="#F4439F"/>
<stop offset="1" stop-color="#7C3AED"/>
</linearGradient>
<linearGradient id="paint31_linear_112_3998" x1="7316.42" y1="-35.0335" x2="7011.99" y2="2196.41" gradientUnits="userSpaceOnUse">
<stop stop-color="#F4439F"/>
<stop offset="1" stop-color="#7C3AED"/>
</linearGradient>
<linearGradient id="paint32_linear_112_3998" x1="8060.96" y1="-2.87213" x2="7892.82" y2="1650.82" gradientUnits="userSpaceOnUse">
<stop stop-color="#F4439F"/>
<stop offset="1" stop-color="#7C3AED"/>
</linearGradient>
<linearGradient id="paint33_linear_112_3998" x1="9052.1" y1="-3.69074" x2="8882.53" y2="1665.2" gradientUnits="userSpaceOnUse">
<stop stop-color="#F4439F"/>
<stop offset="1" stop-color="#7C3AED"/>
</linearGradient>
<linearGradient id="paint34_linear_112_3998" x1="30902.1" y1="-3.20328" x2="30850.6" y2="1688" gradientUnits="userSpaceOnUse">
<stop stop-color="#F4439F"/>
<stop offset="1" stop-color="#7C3AED"/>
</linearGradient>
<linearGradient id="paint35_linear_112_3998" x1="10376.5" y1="-35.0335" x2="10072.1" y2="2196.41" gradientUnits="userSpaceOnUse">
<stop stop-color="#F4439F"/>
<stop offset="1" stop-color="#7C3AED"/>
</linearGradient>
<linearGradient id="paint36_linear_112_3998" x1="14540" y1="-15.8851" x2="14375.8" y2="1884.37" gradientUnits="userSpaceOnUse">
<stop stop-color="#F4439F"/>
<stop offset="1" stop-color="#7C3AED"/>
</linearGradient>
<linearGradient id="paint37_linear_112_3998" x1="34243.7" y1="-3.08558" x2="34187.9" y2="1685.62" gradientUnits="userSpaceOnUse">
<stop stop-color="#F4439F"/>
<stop offset="1" stop-color="#7C3AED"/>
</linearGradient>
<linearGradient id="paint38_linear_112_3998" x1="15909.2" y1="-15.8851" x2="15745" y2="1884.37" gradientUnits="userSpaceOnUse">
<stop stop-color="#F4439F"/>
<stop offset="1" stop-color="#7C3AED"/>
</linearGradient>
<linearGradient id="paint39_linear_112_3998" x1="17417.6" y1="-36.0646" x2="17189" y2="2255" gradientUnits="userSpaceOnUse">
<stop stop-color="#F4439F"/>
<stop offset="1" stop-color="#7C3AED"/>
</linearGradient>
<linearGradient id="paint40_linear_112_3998" x1="13483.3" y1="-35.0335" x2="13178.8" y2="2196.41" gradientUnits="userSpaceOnUse">
<stop stop-color="#F4439F"/>
<stop offset="1" stop-color="#7C3AED"/>
</linearGradient>
<linearGradient id="paint41_linear_112_3998" x1="18671.4" y1="-15.8851" x2="18507.2" y2="1884.37" gradientUnits="userSpaceOnUse">
<stop stop-color="#F4439F"/>
<stop offset="1" stop-color="#7C3AED"/>
</linearGradient>
<linearGradient id="paint42_linear_112_3998" x1="14912.8" y1="-36.0646" x2="14596.3" y2="2233.67" gradientUnits="userSpaceOnUse">
<stop stop-color="#F4439F"/>
<stop offset="1" stop-color="#7C3AED"/>
</linearGradient>
<linearGradient id="paint43_linear_112_3998" x1="1060" y1="2.99971" x2="497.442" y2="335.003" gradientUnits="userSpaceOnUse">
<stop stop-color="#F4439F"/>
<stop offset="1" stop-color="#7C3AED"/>
</linearGradient>
</defs>
</svg>
