<svg width="1400" height="120" viewBox="0 0 1400 120" fill="none" xmlns="http://www.w3.org/2000/svg">
<path d="M332 56H1069V72H332V56Z" fill="url(#paint0_linear_112_4054)"/>
<mask id="mask0_112_4054" style="mask-type:alpha" maskUnits="userSpaceOnUse" x="332" y="72" width="737" height="45">
<path d="M332 72H1069V117H332V72Z" fill="#C4C4C4"/>
</mask>
<g mask="url(#mask0_112_4054)">
<g filter="url(#filter0_f_112_4054)">
<path d="M944.539 47.4159C946.971 47.4159 948.997 47.8852 950.619 48.8239C952.24 49.7199 953.584 50.9359 954.651 52.4719H954.907L955.803 48.0559H963.995V83.2559C963.995 86.5412 963.355 89.2932 962.075 91.5119C960.795 93.7732 958.853 95.4799 956.251 96.6319C953.691 97.7839 950.427 98.3599 946.459 98.3599C943.771 98.3599 941.36 98.1892 939.227 97.8479C937.093 97.5492 935.088 97.0159 933.211 96.2479V88.0559C935.131 88.9092 937.093 89.5705 939.099 90.0399C941.147 90.5092 943.493 90.7439 946.139 90.7439C948.827 90.7439 950.853 90.1252 952.219 88.8879C953.627 87.6505 954.331 85.9439 954.331 83.7679V82.8079C954.331 82.2959 954.352 81.6132 954.395 80.7599C954.48 79.9065 954.565 79.1599 954.651 78.5199H954.331C953.349 80.0559 952.048 81.2932 950.427 82.2319C948.848 83.1705 946.864 83.6399 944.475 83.6399C940.464 83.6399 937.243 82.0825 934.811 78.9679C932.421 75.8532 931.227 71.3945 931.227 65.5919C931.227 59.7892 932.443 55.3092 934.875 52.1519C937.307 48.9945 940.528 47.4159 944.539 47.4159ZM947.675 55.0319C946.267 55.0319 945.051 55.4372 944.027 56.2479C943.045 57.0585 942.299 58.2532 941.787 59.8319C941.317 61.4105 941.083 63.3732 941.083 65.7199C941.083 69.2185 941.637 71.8212 942.747 73.5279C943.899 75.2345 945.605 76.0879 947.867 76.0879C949.147 76.0879 950.235 75.8959 951.131 75.5119C952.027 75.1279 952.752 74.5732 953.307 73.8479C953.861 73.0799 954.267 72.1199 954.523 70.9679C954.821 69.8159 954.971 68.4505 954.971 66.8719V65.4639C954.971 63.1172 954.736 61.1759 954.267 59.6399C953.797 58.1039 953.029 56.9519 951.963 56.1839C950.896 55.4159 949.467 55.0319 947.675 55.0319Z" fill="url(#paint1_linear_112_4054)" fill-opacity="0.7"/>
<path d="M911.234 47.4159C915.074 47.4159 918.103 48.4185 920.322 50.4239C922.54 52.4292 923.65 55.6932 923.65 60.2159V82.9999H914.05V62.6479C914.05 60.1305 913.58 58.2532 912.642 57.0159C911.746 55.7359 910.338 55.0959 908.418 55.0959C905.516 55.0959 903.532 56.0985 902.466 58.1039C901.442 60.0665 900.93 62.9039 900.93 66.6159V82.9999H891.266V48.0559H898.69L900.034 52.7279H900.418C901.186 51.5759 902.103 50.6159 903.17 49.8479C904.279 49.0372 905.495 48.4399 906.818 48.0559C908.183 47.6292 909.655 47.4159 911.234 47.4159Z" fill="url(#paint2_linear_112_4054)" fill-opacity="0.7"/>
<path d="M881.833 48.0559V82.9999H874.409L873.193 78.5199H872.617C871.891 79.7145 870.953 80.6959 869.801 81.4639C868.691 82.2319 867.454 82.7865 866.089 83.1279C864.766 83.4692 863.358 83.6399 861.865 83.6399C859.39 83.6399 857.214 83.1919 855.337 82.2959C853.502 81.3999 852.051 80.0132 850.985 78.1359C849.961 76.2585 849.449 73.8265 849.449 70.8399V48.0559H859.177V68.4079C859.177 70.8825 859.603 72.7599 860.457 74.0399C861.353 75.2772 862.761 75.8959 864.681 75.8959C866.643 75.8959 868.158 75.4692 869.225 74.6159C870.334 73.7199 871.102 72.4185 871.529 70.7119C871.955 69.0052 872.169 66.9145 872.169 64.4399V48.0559H881.833Z" fill="url(#paint3_linear_112_4054)" fill-opacity="0.7"/>
<path d="M842.974 82.9999H815.326V77.3039L831.454 55.4159H816.222V48.0559H842.398V54.2639L826.718 75.5759H842.974V82.9999Z" fill="url(#paint4_linear_112_4054)" fill-opacity="0.7"/>
<path d="M805.368 76.0239C806.435 76.0239 807.459 75.9172 808.44 75.7039C809.421 75.4905 810.403 75.2345 811.384 74.9359V82.0399C810.36 82.4665 809.08 82.8292 807.544 83.1279C806.051 83.4692 804.408 83.6399 802.616 83.6399C800.525 83.6399 798.648 83.2985 796.984 82.6159C795.363 81.9332 794.061 80.7599 793.08 79.0959C792.141 77.3892 791.672 75.0425 791.672 72.0559V55.2239H787.128V51.1919L792.376 47.9919L795.128 40.6319H801.208V48.0559H811V55.2239H801.208V72.0559C801.208 73.3785 801.592 74.3812 802.36 75.0639C803.128 75.7039 804.131 76.0239 805.368 76.0239Z" fill="url(#paint5_linear_112_4054)" fill-opacity="0.7"/>
<path d="M767.053 47.4159C770.295 47.4159 773.09 48.0345 775.437 49.2719C777.783 50.4665 779.575 52.2585 780.813 54.6479C782.093 56.9945 782.733 59.8745 782.733 63.2879V67.9599H760.269C760.354 70.6052 761.165 72.6959 762.701 74.2319C764.237 75.7252 766.434 76.4719 769.293 76.4719C771.469 76.4719 773.453 76.2585 775.245 75.8319C777.037 75.4052 778.871 74.7652 780.749 73.9119V81.1439C779.042 81.9972 777.229 82.6159 775.309 82.9999C773.431 83.4265 771.085 83.6399 768.269 83.6399C764.813 83.6399 761.741 82.9999 759.053 81.7199C756.407 80.4399 754.317 78.4772 752.781 75.8319C751.245 73.1439 750.477 69.7945 750.477 65.7839C750.477 61.6879 751.159 58.2959 752.525 55.6079C753.933 52.8772 755.874 50.8292 758.349 49.4639C760.866 48.0985 763.767 47.4159 767.053 47.4159ZM767.309 54.2639C765.389 54.2639 763.831 54.8825 762.637 56.1199C761.442 57.3145 760.738 59.1065 760.525 61.4959H773.709C773.709 60.0879 773.474 58.8505 773.005 57.7839C772.535 56.7172 771.81 55.8639 770.829 55.2239C769.89 54.5839 768.717 54.2639 767.309 54.2639Z" fill="url(#paint6_linear_112_4054)" fill-opacity="0.7"/>
<path d="M744.784 72.6959C744.784 74.9145 744.25 76.8559 743.184 78.5199C742.16 80.1412 740.581 81.3999 738.448 82.2959C736.314 83.1919 733.605 83.6399 730.32 83.6399C727.845 83.6399 725.669 83.4692 723.792 83.1279C721.914 82.8292 720.101 82.3172 718.352 81.5919V73.5919C720.229 74.4879 722.256 75.1919 724.432 75.7039C726.608 76.2159 728.485 76.4719 730.064 76.4719C732.026 76.4719 733.434 76.1945 734.288 75.6399C735.184 75.0852 735.632 74.3385 735.632 73.3999C735.632 72.7599 735.397 72.1839 734.928 71.6719C734.501 71.1599 733.712 70.6265 732.56 70.0719C731.45 69.5172 729.85 68.8345 727.76 68.0239C725.669 67.1705 723.92 66.2959 722.512 65.3999C721.104 64.4612 720.037 63.3519 719.312 62.0719C718.629 60.7919 718.288 59.1919 718.288 57.2719C718.288 54.0719 719.546 51.6399 722.064 49.9759C724.624 48.2692 727.994 47.4159 732.176 47.4159C734.437 47.4159 736.528 47.6505 738.448 48.1199C740.41 48.5892 742.394 49.2505 744.4 50.1039L741.584 56.6959C739.962 55.9705 738.298 55.3732 736.592 54.9039C734.885 54.4345 733.37 54.1999 732.048 54.1999C730.597 54.1999 729.466 54.4345 728.656 54.9039C727.845 55.3305 727.44 55.9492 727.44 56.7599C727.44 57.3572 727.653 57.8905 728.08 58.3599C728.549 58.8292 729.338 59.3199 730.448 59.8319C731.6 60.3439 733.2 61.0052 735.248 61.8159C737.338 62.6265 739.088 63.5012 740.496 64.4399C741.946 65.3359 743.013 66.4452 743.696 67.7679C744.421 69.0479 744.784 70.6905 744.784 72.6959Z" fill="url(#paint7_linear_112_4054)" fill-opacity="0.7"/>
<path d="M710.719 47.4159C711.359 47.4159 712.041 47.4585 712.767 47.5439C713.535 47.5865 714.132 47.6719 714.559 47.7999L713.599 56.8239C713.129 56.7385 712.575 56.6532 711.935 56.5679C711.295 56.4825 710.527 56.4399 709.631 56.4399C708.649 56.4399 707.647 56.5892 706.623 56.8879C705.641 57.1865 704.724 57.6772 703.871 58.3599C703.017 59.0425 702.335 59.9385 701.823 61.0479C701.311 62.1572 701.055 63.5652 701.055 65.2719V82.9999H691.391V48.0559H698.751L700.159 53.9439H700.607C701.289 52.7065 702.143 51.5972 703.167 50.6159C704.191 49.6345 705.343 48.8665 706.623 48.3119C707.903 47.7145 709.268 47.4159 710.719 47.4159Z" fill="url(#paint8_linear_112_4054)" fill-opacity="0.7"/>
<path d="M668.115 47.4159C671.358 47.4159 674.152 48.0345 676.499 49.2719C678.846 50.4665 680.638 52.2585 681.875 54.6479C683.155 56.9945 683.795 59.8745 683.795 63.2879V67.9599H661.331C661.416 70.6052 662.227 72.6959 663.763 74.2319C665.299 75.7252 667.496 76.4719 670.355 76.4719C672.531 76.4719 674.515 76.2585 676.307 75.8319C678.099 75.4052 679.934 74.7652 681.811 73.9119V81.1439C680.104 81.9972 678.291 82.6159 676.371 82.9999C674.494 83.4265 672.147 83.6399 669.331 83.6399C665.875 83.6399 662.803 82.9999 660.115 81.7199C657.47 80.4399 655.379 78.4772 653.843 75.8319C652.307 73.1439 651.539 69.7945 651.539 65.7839C651.539 61.6879 652.222 58.2959 653.587 55.6079C654.995 52.8772 656.936 50.8292 659.411 49.4639C661.928 48.0985 664.83 47.4159 668.115 47.4159ZM668.371 54.2639C666.451 54.2639 664.894 54.8825 663.699 56.1199C662.504 57.3145 661.8 59.1065 661.587 61.4959H674.771C674.771 60.0879 674.536 58.8505 674.067 57.7839C673.598 56.7172 672.872 55.8639 671.891 55.2239C670.952 54.5839 669.779 54.2639 668.371 54.2639Z" fill="url(#paint9_linear_112_4054)" fill-opacity="0.7"/>
<path d="M622.43 45.6879C622.43 47.0105 622.387 48.2692 622.302 49.4639C622.259 50.6585 622.174 51.7039 622.046 52.5999H622.43C623.368 51.1492 624.627 49.9332 626.206 48.9519C627.784 47.9279 629.832 47.4159 632.35 47.4159C636.232 47.4159 639.39 48.9519 641.822 52.0239C644.254 55.0532 645.47 59.5332 645.47 65.4639C645.47 69.4319 644.915 72.7812 643.806 75.5119C642.696 78.1999 641.118 80.2265 639.07 81.5919C637.064 82.9572 634.739 83.6399 632.094 83.6399C629.534 83.6399 627.507 83.1919 626.014 82.2959C624.563 81.3572 623.368 80.3332 622.43 79.2239H621.79L620.19 82.9999H612.766V34.3599H622.43V45.6879ZM629.214 55.0959C627.592 55.0959 626.27 55.4372 625.246 56.1199C624.264 56.8025 623.539 57.8479 623.07 59.2559C622.643 60.6212 622.43 62.4132 622.43 64.6319V65.7839C622.43 69.0692 622.92 71.5652 623.902 73.2719C624.926 74.9785 626.739 75.8319 629.342 75.8319C631.432 75.8319 633.011 74.9359 634.078 73.1439C635.144 71.3519 635.678 68.7492 635.678 65.3359C635.678 61.9652 635.144 59.4265 634.078 57.7199C633.054 55.9705 631.432 55.0959 629.214 55.0959Z" fill="url(#paint10_linear_112_4054)" fill-opacity="0.7"/>
<path d="M603.333 48.0559V82.9999H595.909L594.693 78.5199H594.117C593.391 79.7145 592.453 80.6959 591.301 81.4639C590.191 82.2319 588.954 82.7865 587.589 83.1279C586.266 83.4692 584.858 83.6399 583.365 83.6399C580.89 83.6399 578.714 83.1919 576.837 82.2959C575.002 81.3999 573.551 80.0132 572.485 78.1359C571.461 76.2585 570.949 73.8265 570.949 70.8399V48.0559H580.677V68.4079C580.677 70.8825 581.103 72.7599 581.957 74.0399C582.853 75.2772 584.261 75.8959 586.181 75.8959C588.143 75.8959 589.658 75.4692 590.725 74.6159C591.834 73.7199 592.602 72.4185 593.029 70.7119C593.455 69.0052 593.669 66.9145 593.669 64.4399V48.0559H603.333ZM575.941 39.0959C575.941 37.6025 576.367 36.5145 577.221 35.8319C578.074 35.1492 579.119 34.8079 580.357 34.8079C581.551 34.8079 582.575 35.1492 583.429 35.8319C584.325 36.5145 584.773 37.6025 584.773 39.0959C584.773 40.5039 584.325 41.5492 583.429 42.2319C582.575 42.9145 581.551 43.2559 580.357 43.2559C579.119 43.2559 578.074 42.9145 577.221 42.2319C576.367 41.5492 575.941 40.5039 575.941 39.0959ZM589.765 39.0959C589.765 37.6025 590.17 36.5145 590.981 35.8319C591.834 35.1492 592.901 34.8079 594.181 34.8079C595.375 34.8079 596.399 35.1492 597.253 35.8319C598.149 36.5145 598.597 37.6025 598.597 39.0959C598.597 40.5039 598.149 41.5492 597.253 42.2319C596.399 42.9145 595.375 43.2559 594.181 43.2559C592.901 43.2559 591.834 42.9145 590.981 42.2319C590.17 41.5492 589.765 40.5039 589.765 39.0959Z" fill="url(#paint11_linear_112_4054)" fill-opacity="0.7"/>
<path d="M558.431 76.0239C559.497 76.0239 560.521 75.9172 561.503 75.7039C562.484 75.4905 563.465 75.2345 564.447 74.9359V82.0399C563.423 82.4665 562.143 82.8292 560.607 83.1279C559.113 83.4692 557.471 83.6399 555.679 83.6399C553.588 83.6399 551.711 83.2985 550.047 82.6159C548.425 81.9332 547.124 80.7599 546.143 79.0959C545.204 77.3892 544.735 75.0425 544.735 72.0559V55.2239H540.191V51.1919L545.439 47.9919L548.191 40.6319H554.271V48.0559H564.063V55.2239H554.271V72.0559C554.271 73.3785 554.655 74.3812 555.423 75.0639C556.191 75.7039 557.193 76.0239 558.431 76.0239Z" fill="url(#paint12_linear_112_4054)" fill-opacity="0.7"/>
<path d="M513.879 65.1439L502.615 48.0559H513.431L520.215 59.1919L527.063 48.0559H537.879L526.487 65.1439L538.391 82.9999H527.575L520.215 71.0319L512.855 82.9999H502.039L513.879 65.1439Z" fill="url(#paint13_linear_112_4054)" fill-opacity="0.7"/>
<path d="M484.365 47.4159C487.608 47.4159 490.402 48.0345 492.749 49.2719C495.096 50.4665 496.888 52.2585 498.125 54.6479C499.405 56.9945 500.045 59.8745 500.045 63.2879V67.9599H477.581C477.666 70.6052 478.477 72.6959 480.013 74.2319C481.549 75.7252 483.746 76.4719 486.605 76.4719C488.781 76.4719 490.765 76.2585 492.557 75.8319C494.349 75.4052 496.184 74.7652 498.061 73.9119V81.1439C496.354 81.9972 494.541 82.6159 492.621 82.9999C490.744 83.4265 488.397 83.6399 485.581 83.6399C482.125 83.6399 479.053 82.9999 476.365 81.7199C473.72 80.4399 471.629 78.4772 470.093 75.8319C468.557 73.1439 467.789 69.7945 467.789 65.7839C467.789 61.6879 468.472 58.2959 469.837 55.6079C471.245 52.8772 473.186 50.8292 475.661 49.4639C478.178 48.0985 481.08 47.4159 484.365 47.4159ZM484.621 54.2639C482.701 54.2639 481.144 54.8825 479.949 56.1199C478.754 57.3145 478.05 59.1065 477.837 61.4959H491.021C491.021 60.0879 490.786 58.8505 490.317 57.7839C489.848 56.7172 489.122 55.8639 488.141 55.2239C487.202 54.5839 486.029 54.2639 484.621 54.2639Z" fill="url(#paint14_linear_112_4054)" fill-opacity="0.7"/>
<path d="M455.704 82.9999H445.912V45.4319H433.56V37.3039H468.056V45.4319H455.704V82.9999Z" fill="url(#paint15_linear_112_4054)" fill-opacity="0.7"/>
</g>
</g>
<path d="M332 72H1069V105C1069 111.627 1063.63 117 1057 117H344C337.373 117 332 111.627 332 105V72Z" fill="url(#paint16_linear_112_4054)"/>
<path d="M944.539 35.4159C946.971 35.4159 948.997 35.8852 950.619 36.8239C952.24 37.7199 953.584 38.9359 954.651 40.4719H954.907L955.803 36.0559H963.995V71.2559C963.995 74.5412 963.355 77.2932 962.075 79.5119C960.795 81.7732 958.853 83.4799 956.251 84.6319C953.691 85.7839 950.427 86.3599 946.459 86.3599C943.771 86.3599 941.36 86.1892 939.227 85.8479C937.093 85.5492 935.088 85.0159 933.211 84.2479V76.0559C935.131 76.9092 937.093 77.5705 939.099 78.0399C941.147 78.5092 943.493 78.7439 946.139 78.7439C948.827 78.7439 950.853 78.1252 952.219 76.8879C953.627 75.6505 954.331 73.9439 954.331 71.7679V70.8079C954.331 70.2959 954.352 69.6132 954.395 68.7599C954.48 67.9065 954.565 67.1599 954.651 66.5199H954.331C953.349 68.0559 952.048 69.2932 950.427 70.2319C948.848 71.1705 946.864 71.6399 944.475 71.6399C940.464 71.6399 937.243 70.0825 934.811 66.9679C932.421 63.8532 931.227 59.3945 931.227 53.5919C931.227 47.7892 932.443 43.3092 934.875 40.1519C937.307 36.9945 940.528 35.4159 944.539 35.4159ZM947.675 43.0319C946.267 43.0319 945.051 43.4372 944.027 44.2479C943.045 45.0585 942.299 46.2532 941.787 47.8319C941.317 49.4105 941.083 51.3732 941.083 53.7199C941.083 57.2185 941.637 59.8212 942.747 61.5279C943.899 63.2345 945.605 64.0879 947.867 64.0879C949.147 64.0879 950.235 63.8959 951.131 63.5119C952.027 63.1279 952.752 62.5732 953.307 61.8479C953.861 61.0799 954.267 60.1199 954.523 58.9679C954.821 57.8159 954.971 56.4505 954.971 54.8719V53.4639C954.971 51.1172 954.736 49.1759 954.267 47.6399C953.797 46.1039 953.029 44.9519 951.963 44.1839C950.896 43.4159 949.467 43.0319 947.675 43.0319Z" fill="url(#paint17_linear_112_4054)"/>
<path d="M911.234 35.4159C915.074 35.4159 918.103 36.4185 920.322 38.4239C922.54 40.4292 923.65 43.6932 923.65 48.2159V70.9999H914.05V50.6479C914.05 48.1305 913.58 46.2532 912.642 45.0159C911.746 43.7359 910.338 43.0959 908.418 43.0959C905.516 43.0959 903.532 44.0985 902.466 46.1039C901.442 48.0665 900.93 50.9039 900.93 54.6159V70.9999H891.266V36.0559H898.69L900.034 40.7279H900.418C901.186 39.5759 902.103 38.6159 903.17 37.8479C904.279 37.0372 905.495 36.4399 906.818 36.0559C908.183 35.6292 909.655 35.4159 911.234 35.4159Z" fill="url(#paint18_linear_112_4054)"/>
<path d="M881.833 36.0559V70.9999H874.409L873.193 66.5199H872.617C871.891 67.7145 870.953 68.6959 869.801 69.4639C868.691 70.2319 867.454 70.7865 866.089 71.1279C864.766 71.4692 863.358 71.6399 861.865 71.6399C859.39 71.6399 857.214 71.1919 855.337 70.2959C853.502 69.3999 852.051 68.0132 850.985 66.1359C849.961 64.2585 849.449 61.8265 849.449 58.8399V36.0559H859.177V56.4079C859.177 58.8825 859.603 60.7599 860.457 62.0399C861.353 63.2772 862.761 63.8959 864.681 63.8959C866.643 63.8959 868.158 63.4692 869.225 62.6159C870.334 61.7199 871.102 60.4185 871.529 58.7119C871.955 57.0052 872.169 54.9145 872.169 52.4399V36.0559H881.833Z" fill="url(#paint19_linear_112_4054)"/>
<path d="M842.974 70.9999H815.326V65.3039L831.454 43.4159H816.222V36.0559H842.398V42.2639L826.718 63.5759H842.974V70.9999Z" fill="url(#paint20_linear_112_4054)"/>
<path d="M805.368 64.0239C806.435 64.0239 807.459 63.9172 808.44 63.7039C809.421 63.4905 810.403 63.2345 811.384 62.9359V70.0399C810.36 70.4665 809.08 70.8292 807.544 71.1279C806.051 71.4692 804.408 71.6399 802.616 71.6399C800.525 71.6399 798.648 71.2985 796.984 70.6159C795.363 69.9332 794.061 68.7599 793.08 67.0959C792.141 65.3892 791.672 63.0425 791.672 60.0559V43.2239H787.128V39.1919L792.376 35.9919L795.128 28.6319H801.208V36.0559H811V43.2239H801.208V60.0559C801.208 61.3785 801.592 62.3812 802.36 63.0639C803.128 63.7039 804.131 64.0239 805.368 64.0239Z" fill="url(#paint21_linear_112_4054)"/>
<path d="M767.053 35.4159C770.295 35.4159 773.09 36.0345 775.437 37.2719C777.783 38.4665 779.575 40.2585 780.813 42.6479C782.093 44.9945 782.733 47.8745 782.733 51.2879V55.9599H760.269C760.354 58.6052 761.165 60.6959 762.701 62.2319C764.237 63.7252 766.434 64.4719 769.293 64.4719C771.469 64.4719 773.453 64.2585 775.245 63.8319C777.037 63.4052 778.871 62.7652 780.749 61.9119V69.1439C779.042 69.9972 777.229 70.6159 775.309 70.9999C773.431 71.4265 771.085 71.6399 768.269 71.6399C764.813 71.6399 761.741 70.9999 759.053 69.7199C756.407 68.4399 754.317 66.4772 752.781 63.8319C751.245 61.1439 750.477 57.7945 750.477 53.7839C750.477 49.6879 751.159 46.2959 752.525 43.6079C753.933 40.8772 755.874 38.8292 758.349 37.4639C760.866 36.0985 763.767 35.4159 767.053 35.4159ZM767.309 42.2639C765.389 42.2639 763.831 42.8825 762.637 44.1199C761.442 45.3145 760.738 47.1065 760.525 49.4959H773.709C773.709 48.0879 773.474 46.8505 773.005 45.7839C772.535 44.7172 771.81 43.8639 770.829 43.2239C769.89 42.5839 768.717 42.2639 767.309 42.2639Z" fill="url(#paint22_linear_112_4054)"/>
<path d="M744.784 60.6959C744.784 62.9145 744.25 64.8559 743.184 66.5199C742.16 68.1412 740.581 69.3999 738.448 70.2959C736.314 71.1919 733.605 71.6399 730.32 71.6399C727.845 71.6399 725.669 71.4692 723.792 71.1279C721.914 70.8292 720.101 70.3172 718.352 69.5919V61.5919C720.229 62.4879 722.256 63.1919 724.432 63.7039C726.608 64.2159 728.485 64.4719 730.064 64.4719C732.026 64.4719 733.434 64.1945 734.288 63.6399C735.184 63.0852 735.632 62.3385 735.632 61.3999C735.632 60.7599 735.397 60.1839 734.928 59.6719C734.501 59.1599 733.712 58.6265 732.56 58.0719C731.45 57.5172 729.85 56.8345 727.76 56.0239C725.669 55.1705 723.92 54.2959 722.512 53.3999C721.104 52.4612 720.037 51.3519 719.312 50.0719C718.629 48.7919 718.288 47.1919 718.288 45.2719C718.288 42.0719 719.546 39.6399 722.064 37.9759C724.624 36.2692 727.994 35.4159 732.176 35.4159C734.437 35.4159 736.528 35.6505 738.448 36.1199C740.41 36.5892 742.394 37.2505 744.4 38.1039L741.584 44.6959C739.962 43.9705 738.298 43.3732 736.592 42.9039C734.885 42.4345 733.37 42.1999 732.048 42.1999C730.597 42.1999 729.466 42.4345 728.656 42.9039C727.845 43.3305 727.44 43.9492 727.44 44.7599C727.44 45.3572 727.653 45.8905 728.08 46.3599C728.549 46.8292 729.338 47.3199 730.448 47.8319C731.6 48.3439 733.2 49.0052 735.248 49.8159C737.338 50.6265 739.088 51.5012 740.496 52.4399C741.946 53.3359 743.013 54.4452 743.696 55.7679C744.421 57.0479 744.784 58.6905 744.784 60.6959Z" fill="url(#paint23_linear_112_4054)"/>
<path d="M710.719 35.4159C711.359 35.4159 712.041 35.4585 712.767 35.5439C713.535 35.5865 714.132 35.6719 714.559 35.7999L713.599 44.8239C713.129 44.7385 712.575 44.6532 711.935 44.5679C711.295 44.4825 710.527 44.4399 709.631 44.4399C708.649 44.4399 707.647 44.5892 706.623 44.8879C705.641 45.1865 704.724 45.6772 703.871 46.3599C703.017 47.0425 702.335 47.9385 701.823 49.0479C701.311 50.1572 701.055 51.5652 701.055 53.2719V70.9999H691.391V36.0559H698.751L700.159 41.9439H700.607C701.289 40.7065 702.143 39.5972 703.167 38.6159C704.191 37.6345 705.343 36.8665 706.623 36.3119C707.903 35.7145 709.268 35.4159 710.719 35.4159Z" fill="url(#paint24_linear_112_4054)"/>
<path d="M668.115 35.4159C671.358 35.4159 674.152 36.0345 676.499 37.2719C678.846 38.4665 680.638 40.2585 681.875 42.6479C683.155 44.9945 683.795 47.8745 683.795 51.2879V55.9599H661.331C661.416 58.6052 662.227 60.6959 663.763 62.2319C665.299 63.7252 667.496 64.4719 670.355 64.4719C672.531 64.4719 674.515 64.2585 676.307 63.8319C678.099 63.4052 679.934 62.7652 681.811 61.9119V69.1439C680.104 69.9972 678.291 70.6159 676.371 70.9999C674.494 71.4265 672.147 71.6399 669.331 71.6399C665.875 71.6399 662.803 70.9999 660.115 69.7199C657.47 68.4399 655.379 66.4772 653.843 63.8319C652.307 61.1439 651.539 57.7945 651.539 53.7839C651.539 49.6879 652.222 46.2959 653.587 43.6079C654.995 40.8772 656.936 38.8292 659.411 37.4639C661.928 36.0985 664.83 35.4159 668.115 35.4159ZM668.371 42.2639C666.451 42.2639 664.894 42.8825 663.699 44.1199C662.504 45.3145 661.8 47.1065 661.587 49.4959H674.771C674.771 48.0879 674.536 46.8505 674.067 45.7839C673.598 44.7172 672.872 43.8639 671.891 43.2239C670.952 42.5839 669.779 42.2639 668.371 42.2639Z" fill="url(#paint25_linear_112_4054)"/>
<path d="M622.43 33.6879C622.43 35.0105 622.387 36.2692 622.302 37.4639C622.259 38.6585 622.174 39.7039 622.046 40.5999H622.43C623.368 39.1492 624.627 37.9332 626.206 36.9519C627.784 35.9279 629.832 35.4159 632.35 35.4159C636.232 35.4159 639.39 36.9519 641.822 40.0239C644.254 43.0532 645.47 47.5332 645.47 53.4639C645.47 57.4319 644.915 60.7812 643.806 63.5119C642.696 66.1999 641.118 68.2265 639.07 69.5919C637.064 70.9572 634.739 71.6399 632.094 71.6399C629.534 71.6399 627.507 71.1919 626.014 70.2959C624.563 69.3572 623.368 68.3332 622.43 67.2239H621.79L620.19 70.9999H612.766V22.3599H622.43V33.6879ZM629.214 43.0959C627.592 43.0959 626.27 43.4372 625.246 44.1199C624.264 44.8025 623.539 45.8479 623.07 47.2559C622.643 48.6212 622.43 50.4132 622.43 52.6319V53.7839C622.43 57.0692 622.92 59.5652 623.902 61.2719C624.926 62.9785 626.739 63.8319 629.342 63.8319C631.432 63.8319 633.011 62.9359 634.078 61.1439C635.144 59.3519 635.678 56.7492 635.678 53.3359C635.678 49.9652 635.144 47.4265 634.078 45.7199C633.054 43.9705 631.432 43.0959 629.214 43.0959Z" fill="url(#paint26_linear_112_4054)"/>
<path d="M603.333 36.0559V70.9999H595.909L594.693 66.5199H594.117C593.391 67.7145 592.453 68.6959 591.301 69.4639C590.191 70.2319 588.954 70.7865 587.589 71.1279C586.266 71.4692 584.858 71.6399 583.365 71.6399C580.89 71.6399 578.714 71.1919 576.837 70.2959C575.002 69.3999 573.551 68.0132 572.485 66.1359C571.461 64.2585 570.949 61.8265 570.949 58.8399V36.0559H580.677V56.4079C580.677 58.8825 581.103 60.7599 581.957 62.0399C582.853 63.2772 584.261 63.8959 586.181 63.8959C588.143 63.8959 589.658 63.4692 590.725 62.6159C591.834 61.7199 592.602 60.4185 593.029 58.7119C593.455 57.0052 593.669 54.9145 593.669 52.4399V36.0559H603.333ZM575.941 27.0959C575.941 25.6025 576.367 24.5145 577.221 23.8319C578.074 23.1492 579.119 22.8079 580.357 22.8079C581.551 22.8079 582.575 23.1492 583.429 23.8319C584.325 24.5145 584.773 25.6025 584.773 27.0959C584.773 28.5039 584.325 29.5492 583.429 30.2319C582.575 30.9145 581.551 31.2559 580.357 31.2559C579.119 31.2559 578.074 30.9145 577.221 30.2319C576.367 29.5492 575.941 28.5039 575.941 27.0959ZM589.765 27.0959C589.765 25.6025 590.17 24.5145 590.981 23.8319C591.834 23.1492 592.901 22.8079 594.181 22.8079C595.375 22.8079 596.399 23.1492 597.253 23.8319C598.149 24.5145 598.597 25.6025 598.597 27.0959C598.597 28.5039 598.149 29.5492 597.253 30.2319C596.399 30.9145 595.375 31.2559 594.181 31.2559C592.901 31.2559 591.834 30.9145 590.981 30.2319C590.17 29.5492 589.765 28.5039 589.765 27.0959Z" fill="url(#paint27_linear_112_4054)"/>
<path d="M558.431 64.0239C559.497 64.0239 560.521 63.9172 561.503 63.7039C562.484 63.4905 563.465 63.2345 564.447 62.9359V70.0399C563.423 70.4665 562.143 70.8292 560.607 71.1279C559.113 71.4692 557.471 71.6399 555.679 71.6399C553.588 71.6399 551.711 71.2985 550.047 70.6159C548.425 69.9332 547.124 68.7599 546.143 67.0959C545.204 65.3892 544.735 63.0425 544.735 60.0559V43.2239H540.191V39.1919L545.439 35.9919L548.191 28.6319H554.271V36.0559H564.063V43.2239H554.271V60.0559C554.271 61.3785 554.655 62.3812 555.423 63.0639C556.191 63.7039 557.193 64.0239 558.431 64.0239Z" fill="url(#paint28_linear_112_4054)"/>
<path d="M513.879 53.1439L502.615 36.0559H513.431L520.215 47.1919L527.063 36.0559H537.879L526.487 53.1439L538.391 70.9999H527.575L520.215 59.0319L512.855 70.9999H502.039L513.879 53.1439Z" fill="url(#paint29_linear_112_4054)"/>
<path d="M484.365 35.4159C487.608 35.4159 490.402 36.0345 492.749 37.2719C495.096 38.4665 496.888 40.2585 498.125 42.6479C499.405 44.9945 500.045 47.8745 500.045 51.2879V55.9599H477.581C477.666 58.6052 478.477 60.6959 480.013 62.2319C481.549 63.7252 483.746 64.4719 486.605 64.4719C488.781 64.4719 490.765 64.2585 492.557 63.8319C494.349 63.4052 496.184 62.7652 498.061 61.9119V69.1439C496.354 69.9972 494.541 70.6159 492.621 70.9999C490.744 71.4265 488.397 71.6399 485.581 71.6399C482.125 71.6399 479.053 70.9999 476.365 69.7199C473.72 68.4399 471.629 66.4772 470.093 63.8319C468.557 61.1439 467.789 57.7945 467.789 53.7839C467.789 49.6879 468.472 46.2959 469.837 43.6079C471.245 40.8772 473.186 38.8292 475.661 37.4639C478.178 36.0985 481.08 35.4159 484.365 35.4159ZM484.621 42.2639C482.701 42.2639 481.144 42.8825 479.949 44.1199C478.754 45.3145 478.05 47.1065 477.837 49.4959H491.021C491.021 48.0879 490.786 46.8505 490.317 45.7839C489.848 44.7172 489.122 43.8639 488.141 43.2239C487.202 42.5839 486.029 42.2639 484.621 42.2639Z" fill="url(#paint30_linear_112_4054)"/>
<path d="M455.704 70.9999H445.912V33.4319H433.56V25.3039H468.056V33.4319H455.704V70.9999Z" fill="url(#paint31_linear_112_4054)"/>
<defs>
<filter id="filter0_f_112_4054" x="413.56" y="14.3599" width="570.435" height="104" filterUnits="userSpaceOnUse" color-interpolation-filters="sRGB">
<feFlood flood-opacity="0" result="BackgroundImageFix"/>
<feBlend mode="normal" in="SourceGraphic" in2="BackgroundImageFix" result="shape"/>
<feGaussianBlur stdDeviation="10" result="effect1_foregroundBlur_112_4054"/>
</filter>
<linearGradient id="paint0_linear_112_4054" x1="332" y1="64.0036" x2="1069" y2="64.003" gradientUnits="userSpaceOnUse">
<stop stop-color="white" stop-opacity="0.3"/>
<stop offset="0.359008" stop-color="#CBB0F8"/>
<stop offset="0.788712" stop-color="#FCD9ED"/>
<stop offset="1" stop-color="white" stop-opacity="0.3"/>
</linearGradient>
<linearGradient id="paint1_linear_112_4054" x1="1045.02" y1="48.2845" x2="-7647.72" y2="48.2959" gradientUnits="userSpaceOnUse">
<stop stop-color="#F4439F"/>
<stop offset="1" stop-color="#7C3AED"/>
</linearGradient>
<linearGradient id="paint2_linear_112_4054" x1="1706.81" y1="54.2951" x2="-7089" y2="54.3033" gradientUnits="userSpaceOnUse">
<stop stop-color="#F4439F"/>
<stop offset="1" stop-color="#7C3AED"/>
</linearGradient>
<linearGradient id="paint3_linear_112_4054" x1="2391.75" y1="53.144" x2="-6404.06" y2="53.1522" gradientUnits="userSpaceOnUse">
<stop stop-color="#F4439F"/>
<stop offset="1" stop-color="#7C3AED"/>
</linearGradient>
<linearGradient id="paint4_linear_112_4054" x1="3381.84" y1="53.4881" x2="-6920.67" y2="53.4991" gradientUnits="userSpaceOnUse">
<stop stop-color="#F4439F"/>
<stop offset="1" stop-color="#7C3AED"/>
</linearGradient>
<linearGradient id="paint5_linear_112_4054" x1="4410.77" y1="60.9492" x2="-7332.45" y2="60.9668" gradientUnits="userSpaceOnUse">
<stop stop-color="#F4439F"/>
<stop offset="1" stop-color="#7C3AED"/>
</linearGradient>
<linearGradient id="paint6_linear_112_4054" x1="4027.07" y1="53.9429" x2="-4803.64" y2="53.9513" gradientUnits="userSpaceOnUse">
<stop stop-color="#F4439F"/>
<stop offset="1" stop-color="#7C3AED"/>
</linearGradient>
<linearGradient id="paint7_linear_112_4054" x1="5452.68" y1="53.943" x2="-5297.76" y2="53.9554" gradientUnits="userSpaceOnUse">
<stop stop-color="#F4439F"/>
<stop offset="1" stop-color="#7C3AED"/>
</linearGradient>
<linearGradient id="paint8_linear_112_4054" x1="6789.47" y1="54.2952" x2="-5505.23" y2="54.3112" gradientUnits="userSpaceOnUse">
<stop stop-color="#F4439F"/>
<stop offset="1" stop-color="#7C3AED"/>
</linearGradient>
<linearGradient id="paint9_linear_112_4054" x1="5654.05" y1="53.943" x2="-3176.66" y2="53.9514" gradientUnits="userSpaceOnUse">
<stop stop-color="#F4439F"/>
<stop offset="1" stop-color="#7C3AED"/>
</linearGradient>
<linearGradient id="paint10_linear_112_4054" x1="6211.42" y1="65.7105" x2="-2498.33" y2="65.7216" gradientUnits="userSpaceOnUse">
<stop stop-color="#F4439F"/>
<stop offset="1" stop-color="#7C3AED"/>
</linearGradient>
<linearGradient id="paint11_linear_112_4054" x1="6953.46" y1="65.411" x2="-1842.36" y2="65.4222" gradientUnits="userSpaceOnUse">
<stop stop-color="#F4439F"/>
<stop offset="1" stop-color="#7C3AED"/>
</linearGradient>
<linearGradient id="paint12_linear_112_4054" x1="9810.85" y1="60.9492" x2="-1932.38" y2="60.9668" gradientUnits="userSpaceOnUse">
<stop stop-color="#F4439F"/>
<stop offset="1" stop-color="#7C3AED"/>
</linearGradient>
<linearGradient id="paint13_linear_112_4054" x1="7247.29" y1="53.4881" x2="-588.42" y2="53.4944" gradientUnits="userSpaceOnUse">
<stop stop-color="#F4439F"/>
<stop offset="1" stop-color="#7C3AED"/>
</linearGradient>
<linearGradient id="paint14_linear_112_4054" x1="8675.74" y1="53.943" x2="-154.978" y2="53.9514" gradientUnits="userSpaceOnUse">
<stop stop-color="#F4439F"/>
<stop offset="1" stop-color="#7C3AED"/>
</linearGradient>
<linearGradient id="paint15_linear_112_4054" x1="969" y1="58.4997" x2="432" y2="58.4998" gradientUnits="userSpaceOnUse">
<stop stop-color="#F4439F"/>
<stop offset="1" stop-color="#7C3AED"/>
</linearGradient>
<linearGradient id="paint16_linear_112_4054" x1="700.5" y1="72" x2="700.5" y2="117" gradientUnits="userSpaceOnUse">
<stop offset="0.0001" stop-color="white" stop-opacity="0.1"/>
<stop offset="1" stop-color="white" stop-opacity="0"/>
</linearGradient>
<linearGradient id="paint17_linear_112_4054" x1="1045.02" y1="-18.3637" x2="769.284" y2="1547.69" gradientUnits="userSpaceOnUse">
<stop stop-color="#F4439F"/>
<stop offset="1" stop-color="#7C3AED"/>
</linearGradient>
<linearGradient id="paint18_linear_112_4054" x1="1706.81" y1="-35.9423" x2="1164.61" y2="2140.54" gradientUnits="userSpaceOnUse">
<stop stop-color="#F4439F"/>
<stop offset="1" stop-color="#7C3AED"/>
</linearGradient>
<linearGradient id="paint19_linear_112_4054" x1="2391.75" y1="-37.0934" x2="1849.56" y2="2139.38" gradientUnits="userSpaceOnUse">
<stop stop-color="#F4439F"/>
<stop offset="1" stop-color="#7C3AED"/>
</linearGradient>
<linearGradient id="paint20_linear_112_4054" x1="3381.84" y1="-38.1823" x2="2894.88" y2="2210.24" gradientUnits="userSpaceOnUse">
<stop stop-color="#F4439F"/>
<stop offset="1" stop-color="#7C3AED"/>
</linearGradient>
<linearGradient id="paint21_linear_112_4054" x1="4410.77" y1="-15.783" x2="4122.38" y2="1852.23" gradientUnits="userSpaceOnUse">
<stop stop-color="#F4439F"/>
<stop offset="1" stop-color="#7C3AED"/>
</linearGradient>
<linearGradient id="paint22_linear_112_4054" x1="4027.07" y1="-34.9122" x2="3504.63" y2="2108.45" gradientUnits="userSpaceOnUse">
<stop stop-color="#F4439F"/>
<stop offset="1" stop-color="#7C3AED"/>
</linearGradient>
<linearGradient id="paint23_linear_112_4054" x1="5452.68" y1="-34.9122" x2="5015.56" y2="2148.27" gradientUnits="userSpaceOnUse">
<stop stop-color="#F4439F"/>
<stop offset="1" stop-color="#7C3AED"/>
</linearGradient>
<linearGradient id="paint24_linear_112_4054" x1="6789.47" y1="-35.9423" x2="6390.18" y2="2204.44" gradientUnits="userSpaceOnUse">
<stop stop-color="#F4439F"/>
<stop offset="1" stop-color="#7C3AED"/>
</linearGradient>
<linearGradient id="paint25_linear_112_4054" x1="5654.05" y1="-34.9122" x2="5131.61" y2="2108.45" gradientUnits="userSpaceOnUse">
<stop stop-color="#F4439F"/>
<stop offset="1" stop-color="#7C3AED"/>
</linearGradient>
<linearGradient id="paint26_linear_112_4054" x1="6211.42" y1="-2.78301" x2="5917.89" y2="1613.01" gradientUnits="userSpaceOnUse">
<stop stop-color="#F4439F"/>
<stop offset="1" stop-color="#7C3AED"/>
</linearGradient>
<linearGradient id="paint27_linear_112_4054" x1="6953.45" y1="-3.60084" x2="6657.43" y2="1627.09" gradientUnits="userSpaceOnUse">
<stop stop-color="#F4439F"/>
<stop offset="1" stop-color="#7C3AED"/>
</linearGradient>
<linearGradient id="paint28_linear_112_4054" x1="9810.85" y1="-15.783" x2="9522.46" y2="1852.23" gradientUnits="userSpaceOnUse">
<stop stop-color="#F4439F"/>
<stop offset="1" stop-color="#7C3AED"/>
</linearGradient>
<linearGradient id="paint29_linear_112_4054" x1="7247.29" y1="-38.1823" x2="6627.27" y2="2139.14" gradientUnits="userSpaceOnUse">
<stop stop-color="#F4439F"/>
<stop offset="1" stop-color="#7C3AED"/>
</linearGradient>
<linearGradient id="paint30_linear_112_4054" x1="8675.74" y1="-34.9122" x2="8153.3" y2="2108.45" gradientUnits="userSpaceOnUse">
<stop stop-color="#F4439F"/>
<stop offset="1" stop-color="#7C3AED"/>
</linearGradient>
<linearGradient id="paint31_linear_112_4054" x1="969" y1="2.99972" x2="494.659" y2="212.079" gradientUnits="userSpaceOnUse">
<stop stop-color="#F4439F"/>
<stop offset="1" stop-color="#7C3AED"/>
</linearGradient>
</defs>
</svg>
