<svg width="1400" height="120" viewBox="0 0 1400 120" fill="none" xmlns="http://www.w3.org/2000/svg">
<path d="M231 56H1170V72H231V56Z" fill="url(#paint0_linear_112_3942)"/>
<mask id="mask0_112_3942" style="mask-type:alpha" maskUnits="userSpaceOnUse" x="231" y="72" width="939" height="45">
<path d="M231 72H1170V117H231V72Z" fill="#C4C4C4"/>
</mask>
<g mask="url(#mask0_112_3942)">
<g filter="url(#filter0_f_112_3942)">
<path d="M1045.6 47.4159C1048.03 47.4159 1050.06 47.8852 1051.68 48.8239C1053.3 49.7199 1054.65 50.9359 1055.71 52.4719H1055.97L1056.87 48.0559H1065.06V83.2559C1065.06 86.5412 1064.42 89.2932 1063.14 91.5119C1061.86 93.7732 1059.92 95.4799 1057.31 96.6319C1054.75 97.7839 1051.49 98.3599 1047.52 98.3599C1044.83 98.3599 1042.42 98.1892 1040.29 97.8479C1038.16 97.5492 1036.15 97.0159 1034.27 96.2479V88.0559C1036.19 88.9092 1038.16 89.5706 1040.16 90.0399C1042.21 90.5092 1044.56 90.7439 1047.2 90.7439C1049.89 90.7439 1051.92 90.1252 1053.28 88.8879C1054.69 87.6506 1055.39 85.9439 1055.39 83.7679V82.8079C1055.39 82.2959 1055.41 81.6132 1055.46 80.7599C1055.54 79.9066 1055.63 79.1599 1055.71 78.5199H1055.39C1054.41 80.0559 1053.11 81.2932 1051.49 82.2319C1049.91 83.1706 1047.93 83.6399 1045.54 83.6399C1041.53 83.6399 1038.31 82.0826 1035.87 78.9679C1033.48 75.8532 1032.29 71.3946 1032.29 65.5919C1032.29 59.7892 1033.51 55.3092 1035.94 52.1519C1038.37 48.9946 1041.59 47.4159 1045.6 47.4159ZM1048.74 55.0319C1047.33 55.0319 1046.11 55.4372 1045.09 56.2479C1044.11 57.0586 1043.36 58.2532 1042.85 59.8319C1042.38 61.4106 1042.15 63.3732 1042.15 65.7199C1042.15 69.2186 1042.7 71.8212 1043.81 73.5279C1044.96 75.2346 1046.67 76.0879 1048.93 76.0879C1050.21 76.0879 1051.3 75.8959 1052.19 75.5119C1053.09 75.1279 1053.81 74.5732 1054.37 73.8479C1054.92 73.0799 1055.33 72.1199 1055.59 70.9679C1055.88 69.8159 1056.03 68.4506 1056.03 66.8719V65.4639C1056.03 63.1172 1055.8 61.1759 1055.33 59.6399C1054.86 58.1039 1054.09 56.9519 1053.03 56.1839C1051.96 55.4159 1050.53 55.0319 1048.74 55.0319Z" fill="url(#paint1_linear_112_3942)" fill-opacity="0.7"/>
<path d="M1012.3 47.4159C1016.14 47.4159 1019.17 48.4186 1021.38 50.4239C1023.6 52.4292 1024.71 55.6932 1024.71 60.2159V82.9999H1015.11V62.6479C1015.11 60.1306 1014.64 58.2532 1013.7 57.0159C1012.81 55.7359 1011.4 55.0959 1009.48 55.0959C1006.58 55.0959 1004.59 56.0986 1003.53 58.1039C1002.5 60.0666 1001.99 62.9039 1001.99 66.6159V82.9999H992.328V48.0559H999.752L1001.1 52.7279H1001.48C1002.25 51.5759 1003.17 50.6159 1004.23 49.8479C1005.34 49.0372 1006.56 48.4399 1007.88 48.0559C1009.25 47.6292 1010.72 47.4159 1012.3 47.4159Z" fill="url(#paint2_linear_112_3942)" fill-opacity="0.7"/>
<path d="M982.895 48.0559V82.9999H975.471L974.255 78.5199H973.679C972.954 79.7146 972.015 80.6959 970.863 81.4639C969.754 82.2319 968.517 82.7866 967.151 83.1279C965.829 83.4692 964.421 83.6399 962.927 83.6399C960.453 83.6399 958.277 83.1919 956.399 82.2959C954.565 81.3999 953.114 80.0132 952.047 78.1359C951.023 76.2586 950.511 73.8266 950.511 70.8399V48.0559H960.239V68.4079C960.239 70.8826 960.666 72.7599 961.519 74.0399C962.415 75.2772 963.823 75.8959 965.743 75.8959C967.706 75.8959 969.221 75.4692 970.287 74.6159C971.397 73.7199 972.165 72.4186 972.591 70.7119C973.018 69.0052 973.231 66.9146 973.231 64.4399V48.0559H982.895Z" fill="url(#paint3_linear_112_3942)" fill-opacity="0.7"/>
<path d="M944.037 82.9999H916.389V77.3039L932.517 55.4159H917.285V48.0559H943.461V54.2639L927.781 75.5759H944.037V82.9999Z" fill="url(#paint4_linear_112_3942)" fill-opacity="0.7"/>
<path d="M906.431 76.0239C907.497 76.0239 908.521 75.9172 909.503 75.7039C910.484 75.4906 911.465 75.2346 912.447 74.9359V82.0399C911.423 82.4666 910.143 82.8292 908.607 83.1279C907.113 83.4692 905.471 83.6399 903.679 83.6399C901.588 83.6399 899.711 83.2986 898.047 82.6159C896.425 81.9332 895.124 80.7599 894.143 79.0959C893.204 77.3892 892.735 75.0426 892.735 72.0559V55.2239H888.191V51.1919L893.439 47.9919L896.191 40.6319H902.271V48.0559H912.063V55.2239H902.271V72.0559C902.271 73.3786 902.655 74.3812 903.423 75.0639C904.191 75.7039 905.193 76.0239 906.431 76.0239Z" fill="url(#paint5_linear_112_3942)" fill-opacity="0.7"/>
<path d="M868.115 47.4159C871.358 47.4159 874.153 48.0346 876.499 49.2719C878.846 50.4666 880.638 52.2586 881.875 54.6479C883.155 56.9946 883.795 59.8746 883.795 63.2879V67.9599H861.331C861.417 70.6052 862.227 72.6959 863.763 74.2319C865.299 75.7252 867.497 76.4719 870.355 76.4719C872.531 76.4719 874.515 76.2586 876.307 75.8319C878.099 75.4052 879.934 74.7652 881.811 73.9119V81.1439C880.105 81.9972 878.291 82.6159 876.371 82.9999C874.494 83.4266 872.147 83.6399 869.331 83.6399C865.875 83.6399 862.803 82.9999 860.115 81.7199C857.47 80.4399 855.379 78.4772 853.843 75.8319C852.307 73.1439 851.539 69.7946 851.539 65.7839C851.539 61.6879 852.222 58.2959 853.587 55.6079C854.995 52.8772 856.937 50.8292 859.411 49.4639C861.929 48.0986 864.83 47.4159 868.115 47.4159ZM868.371 54.2639C866.451 54.2639 864.894 54.8826 863.699 56.1199C862.505 57.3146 861.801 59.1066 861.587 61.4959H874.771C874.771 60.0879 874.537 58.8506 874.067 57.7839C873.598 56.7172 872.873 55.8639 871.891 55.2239C870.953 54.5839 869.779 54.2639 868.371 54.2639Z" fill="url(#paint6_linear_112_3942)" fill-opacity="0.7"/>
<path d="M845.846 72.6959C845.846 74.9146 845.313 76.8559 844.246 78.5199C843.222 80.1412 841.644 81.3999 839.51 82.2959C837.377 83.1919 834.668 83.6399 831.382 83.6399C828.908 83.6399 826.732 83.4692 824.854 83.1279C822.977 82.8292 821.164 82.3172 819.414 81.5919V73.5919C821.292 74.4879 823.318 75.1919 825.494 75.7039C827.67 76.2159 829.548 76.4719 831.126 76.4719C833.089 76.4719 834.497 76.1946 835.35 75.6399C836.246 75.0852 836.694 74.3386 836.694 73.3999C836.694 72.7599 836.46 72.1839 835.99 71.6719C835.564 71.1599 834.774 70.6266 833.622 70.0719C832.513 69.5172 830.913 68.8346 828.822 68.0239C826.732 67.1706 824.982 66.2959 823.574 65.3999C822.166 64.4612 821.1 63.3519 820.374 62.0719C819.692 60.7919 819.35 59.1919 819.35 57.2719C819.35 54.0719 820.609 51.6399 823.126 49.9759C825.686 48.2692 829.057 47.4159 833.238 47.4159C835.5 47.4159 837.59 47.6506 839.51 48.1199C841.473 48.5892 843.457 49.2506 845.462 50.1039L842.646 56.6959C841.025 55.9706 839.361 55.3732 837.654 54.9039C835.948 54.4346 834.433 54.1999 833.11 54.1999C831.66 54.1999 830.529 54.4346 829.718 54.9039C828.908 55.3306 828.502 55.9492 828.502 56.7599C828.502 57.3572 828.716 57.8906 829.142 58.3599C829.612 58.8292 830.401 59.3199 831.51 59.8319C832.662 60.3439 834.262 61.0052 836.31 61.8159C838.401 62.6266 840.15 63.5012 841.558 64.4399C843.009 65.3359 844.076 66.4452 844.758 67.7679C845.484 69.0479 845.846 70.6906 845.846 72.6959Z" fill="url(#paint7_linear_112_3942)" fill-opacity="0.7"/>
<path d="M811.781 47.4159C812.421 47.4159 813.104 47.4586 813.829 47.5439C814.597 47.5866 815.195 47.6719 815.621 47.7999L814.661 56.8239C814.192 56.7386 813.637 56.6532 812.997 56.5679C812.357 56.4826 811.589 56.4399 810.693 56.4399C809.712 56.4399 808.709 56.5892 807.685 56.8879C806.704 57.1866 805.787 57.6772 804.933 58.3599C804.08 59.0426 803.397 59.9386 802.885 61.0479C802.373 62.1572 802.117 63.5652 802.117 65.2719V82.9999H792.453V48.0559H799.813L801.221 53.9439H801.669C802.352 52.7066 803.205 51.5972 804.229 50.6159C805.253 49.6346 806.405 48.8666 807.685 48.3119C808.965 47.7146 810.331 47.4159 811.781 47.4159Z" fill="url(#paint8_linear_112_3942)" fill-opacity="0.7"/>
<path d="M769.178 47.4159C772.42 47.4159 775.215 48.0346 777.562 49.2719C779.908 50.4666 781.7 52.2586 782.938 54.6479C784.218 56.9946 784.858 59.8746 784.858 63.2879V67.9599H762.394C762.479 70.6052 763.29 72.6959 764.826 74.2319C766.362 75.7252 768.559 76.4719 771.418 76.4719C773.594 76.4719 775.578 76.2586 777.37 75.8319C779.162 75.4052 780.996 74.7652 782.874 73.9119V81.1439C781.167 81.9972 779.354 82.6159 777.434 82.9999C775.556 83.4266 773.21 83.6399 770.394 83.6399C766.938 83.6399 763.866 82.9999 761.178 81.7199C758.532 80.4399 756.442 78.4772 754.906 75.8319C753.37 73.1439 752.602 69.7946 752.602 65.7839C752.602 61.6879 753.284 58.2959 754.65 55.6079C756.058 52.8772 757.999 50.8292 760.474 49.4639C762.991 48.0986 765.892 47.4159 769.178 47.4159ZM769.434 54.2639C767.514 54.2639 765.956 54.8826 764.762 56.1199C763.567 57.3146 762.863 59.1066 762.65 61.4959H775.834C775.834 60.0879 775.599 58.8506 775.13 57.7839C774.66 56.7172 773.935 55.8639 772.954 55.2239C772.015 54.5839 770.842 54.2639 769.434 54.2639Z" fill="url(#paint9_linear_112_3942)" fill-opacity="0.7"/>
<path d="M723.492 45.6879C723.492 47.0106 723.45 48.2692 723.364 49.4639C723.322 50.6586 723.236 51.7039 723.108 52.5999H723.492C724.431 51.1492 725.69 49.9332 727.268 48.9519C728.847 47.9279 730.895 47.4159 733.412 47.4159C737.295 47.4159 740.452 48.9519 742.884 52.0239C745.316 55.0532 746.532 59.5332 746.532 65.4639C746.532 69.4319 745.978 72.7812 744.868 75.5119C743.759 78.1999 742.18 80.2266 740.132 81.5919C738.127 82.9572 735.802 83.6399 733.156 83.6399C730.596 83.6399 728.57 83.1919 727.076 82.2959C725.626 81.3572 724.431 80.3332 723.492 79.2239H722.852L721.252 82.9999H713.828V34.3599H723.492V45.6879ZM730.276 55.0959C728.655 55.0959 727.332 55.4372 726.308 56.1199C725.327 56.8026 724.602 57.8479 724.132 59.2559C723.706 60.6212 723.492 62.4132 723.492 64.6319V65.7839C723.492 69.0692 723.983 71.5652 724.964 73.2719C725.988 74.9786 727.802 75.8319 730.404 75.8319C732.495 75.8319 734.074 74.9359 735.14 73.1439C736.207 71.3519 736.74 68.7492 736.74 65.3359C736.74 61.9652 736.207 59.4266 735.14 57.7199C734.116 55.9706 732.495 55.0959 730.276 55.0959Z" fill="url(#paint10_linear_112_3942)" fill-opacity="0.7"/>
<path d="M704.395 48.0559V82.9999H696.971L695.755 78.5199H695.179C694.454 79.7146 693.515 80.6959 692.363 81.4639C691.254 82.2319 690.017 82.7866 688.651 83.1279C687.329 83.4692 685.921 83.6399 684.427 83.6399C681.953 83.6399 679.777 83.1919 677.899 82.2959C676.065 81.3999 674.614 80.0132 673.547 78.1359C672.523 76.2586 672.011 73.8266 672.011 70.8399V48.0559H681.739V68.4079C681.739 70.8826 682.166 72.7599 683.019 74.0399C683.915 75.2772 685.323 75.8959 687.243 75.8959C689.206 75.8959 690.721 75.4692 691.787 74.6159C692.897 73.7199 693.665 72.4186 694.091 70.7119C694.518 69.0052 694.731 66.9146 694.731 64.4399V48.0559H704.395ZM677.003 39.0959C677.003 37.6026 677.43 36.5146 678.283 35.8319C679.137 35.1492 680.182 34.8079 681.419 34.8079C682.614 34.8079 683.638 35.1492 684.491 35.8319C685.387 36.5146 685.835 37.6026 685.835 39.0959C685.835 40.5039 685.387 41.5492 684.491 42.2319C683.638 42.9146 682.614 43.2559 681.419 43.2559C680.182 43.2559 679.137 42.9146 678.283 42.2319C677.43 41.5492 677.003 40.5039 677.003 39.0959ZM690.827 39.0959C690.827 37.6026 691.233 36.5146 692.043 35.8319C692.897 35.1492 693.963 34.8079 695.243 34.8079C696.438 34.8079 697.462 35.1492 698.315 35.8319C699.211 36.5146 699.659 37.6026 699.659 39.0959C699.659 40.5039 699.211 41.5492 698.315 42.2319C697.462 42.9146 696.438 43.2559 695.243 43.2559C693.963 43.2559 692.897 42.9146 692.043 42.2319C691.233 41.5492 690.827 40.5039 690.827 39.0959Z" fill="url(#paint11_linear_112_3942)" fill-opacity="0.7"/>
<path d="M650.546 47.4159C654.386 47.4159 657.416 48.4186 659.634 50.4239C661.853 52.4292 662.962 55.6932 662.962 60.2159V82.9999H653.362V62.6479C653.362 60.1306 652.893 58.2532 651.954 57.0159C651.058 55.7359 649.65 55.0959 647.73 55.0959C644.829 55.0959 642.845 56.0986 641.778 58.1039C640.754 60.0666 640.242 62.9039 640.242 66.6159V82.9999H630.578V48.0559H638.002L639.346 52.7279H639.73C640.498 51.5759 641.416 50.6159 642.482 49.8479C643.592 49.0372 644.808 48.4399 646.13 48.0559C647.496 47.6292 648.968 47.4159 650.546 47.4159Z" fill="url(#paint12_linear_112_3942)" fill-opacity="0.7"/>
<path d="M607.303 47.4159C610.545 47.4159 613.34 48.0346 615.687 49.2719C618.033 50.4666 619.825 52.2586 621.063 54.6479C622.343 56.9946 622.983 59.8746 622.983 63.2879V67.9599H600.519C600.604 70.6052 601.415 72.6959 602.951 74.2319C604.487 75.7252 606.684 76.4719 609.543 76.4719C611.719 76.4719 613.703 76.2586 615.495 75.8319C617.287 75.4052 619.121 74.7652 620.999 73.9119V81.1439C619.292 81.9972 617.479 82.6159 615.559 82.9999C613.681 83.4266 611.335 83.6399 608.519 83.6399C605.063 83.6399 601.991 82.9999 599.303 81.7199C596.657 80.4399 594.567 78.4772 593.031 75.8319C591.495 73.1439 590.727 69.7946 590.727 65.7839C590.727 61.6879 591.409 58.2959 592.775 55.6079C594.183 52.8772 596.124 50.8292 598.599 49.4639C601.116 48.0986 604.017 47.4159 607.303 47.4159ZM607.559 54.2639C605.639 54.2639 604.081 54.8826 602.887 56.1199C601.692 57.3146 600.988 59.1066 600.775 61.4959H613.959C613.959 60.0879 613.724 58.8506 613.255 57.7839C612.785 56.7172 612.06 55.8639 611.079 55.2239C610.14 54.5839 608.967 54.2639 607.559 54.2639Z" fill="url(#paint13_linear_112_3942)" fill-opacity="0.7"/>
<path d="M579.681 76.0239C580.747 76.0239 581.771 75.9172 582.753 75.7039C583.734 75.4906 584.715 75.2346 585.697 74.9359V82.0399C584.673 82.4666 583.393 82.8292 581.857 83.1279C580.363 83.4692 578.721 83.6399 576.929 83.6399C574.838 83.6399 572.961 83.2986 571.297 82.6159C569.675 81.9332 568.374 80.7599 567.393 79.0959C566.454 77.3892 565.985 75.0426 565.985 72.0559V55.2239H561.441V51.1919L566.689 47.9919L569.441 40.6319H575.521V48.0559H585.313V55.2239H575.521V72.0559C575.521 73.3786 575.905 74.3812 576.673 75.0639C577.441 75.7039 578.443 76.0239 579.681 76.0239Z" fill="url(#paint14_linear_112_3942)" fill-opacity="0.7"/>
<path d="M555.244 48.0559V82.9999H545.58V48.0559H555.244ZM550.444 34.2959C551.852 34.2959 553.068 34.6372 554.092 35.3199C555.158 35.9599 555.692 37.1972 555.692 39.0319C555.692 40.7812 555.158 41.9972 554.092 42.6799C553.068 43.3626 551.852 43.7039 550.444 43.7039C548.993 43.7039 547.756 43.3626 546.732 42.6799C545.708 41.9972 545.196 40.7812 545.196 39.0319C545.196 37.1972 545.708 35.9599 546.732 35.3199C547.756 34.6372 548.993 34.2959 550.444 34.2959Z" fill="url(#paint15_linear_112_3942)" fill-opacity="0.7"/>
<path d="M522.24 47.4159C525.483 47.4159 528.278 48.0346 530.624 49.2719C532.971 50.4666 534.763 52.2586 536 54.6479C537.28 56.9946 537.92 59.8746 537.92 63.2879V67.9599H515.456C515.542 70.6052 516.352 72.6959 517.888 74.2319C519.424 75.7252 521.622 76.4719 524.48 76.4719C526.656 76.4719 528.64 76.2586 530.432 75.8319C532.224 75.4052 534.059 74.7652 535.936 73.9119V81.1439C534.23 81.9972 532.416 82.6159 530.496 82.9999C528.619 83.4266 526.272 83.6399 523.456 83.6399C520 83.6399 516.928 82.9999 514.24 81.7199C511.595 80.4399 509.504 78.4772 507.968 75.8319C506.432 73.1439 505.664 69.7946 505.664 65.7839C505.664 61.6879 506.347 58.2959 507.712 55.6079C509.12 52.8772 511.062 50.8292 513.536 49.4639C516.054 48.0986 518.955 47.4159 522.24 47.4159ZM522.496 54.2639C520.576 54.2639 519.019 54.8826 517.824 56.1199C516.63 57.3146 515.926 59.1066 515.712 61.4959H528.896C528.896 60.0879 528.662 58.8506 528.192 57.7839C527.723 56.7172 526.998 55.8639 526.016 55.2239C525.078 54.5839 523.904 54.2639 522.496 54.2639Z" fill="url(#paint16_linear_112_3942)" fill-opacity="0.7"/>
<path d="M499.971 72.6959C499.971 74.9146 499.438 76.8559 498.371 78.5199C497.347 80.1412 495.769 81.3999 493.635 82.2959C491.502 83.1919 488.793 83.6399 485.507 83.6399C483.033 83.6399 480.857 83.4692 478.979 83.1279C477.102 82.8292 475.289 82.3172 473.539 81.5919V73.5919C475.417 74.4879 477.443 75.1919 479.619 75.7039C481.795 76.2159 483.673 76.4719 485.251 76.4719C487.214 76.4719 488.622 76.1946 489.475 75.6399C490.371 75.0852 490.819 74.3386 490.819 73.3999C490.819 72.7599 490.585 72.1839 490.115 71.6719C489.689 71.1599 488.899 70.6266 487.747 70.0719C486.638 69.5172 485.038 68.8346 482.947 68.0239C480.857 67.1706 479.107 66.2959 477.699 65.3999C476.291 64.4612 475.225 63.3519 474.499 62.0719C473.817 60.7919 473.475 59.1919 473.475 57.2719C473.475 54.0719 474.734 51.6399 477.251 49.9759C479.811 48.2692 483.182 47.4159 487.363 47.4159C489.625 47.4159 491.715 47.6506 493.635 48.1199C495.598 48.5892 497.582 49.2506 499.587 50.1039L496.771 56.6959C495.15 55.9706 493.486 55.3732 491.779 54.9039C490.073 54.4346 488.558 54.1999 487.235 54.1999C485.785 54.1999 484.654 54.4346 483.843 54.9039C483.033 55.3306 482.627 55.9492 482.627 56.7599C482.627 57.3572 482.841 57.8906 483.267 58.3599C483.737 58.8292 484.526 59.3199 485.635 59.8319C486.787 60.3439 488.387 61.0052 490.435 61.8159C492.526 62.6266 494.275 63.5012 495.683 64.4399C497.134 65.3359 498.201 66.4452 498.883 67.7679C499.609 69.0479 499.971 70.6906 499.971 72.6959Z" fill="url(#paint17_linear_112_3942)" fill-opacity="0.7"/>
<path d="M444.43 45.6879C444.43 47.0106 444.387 48.2692 444.302 49.4639C444.259 50.6586 444.174 51.7039 444.046 52.5999H444.43C445.368 51.1492 446.627 49.9332 448.206 48.9519C449.784 47.9279 451.832 47.4159 454.35 47.4159C458.232 47.4159 461.39 48.9519 463.822 52.0239C466.254 55.0532 467.47 59.5332 467.47 65.4639C467.47 69.4319 466.915 72.7812 465.806 75.5119C464.696 78.1999 463.118 80.2266 461.07 81.5919C459.064 82.9572 456.739 83.6399 454.094 83.6399C451.534 83.6399 449.507 83.1919 448.014 82.2959C446.563 81.3572 445.368 80.3332 444.43 79.2239H443.79L442.19 82.9999H434.766V34.3599H444.43V45.6879ZM451.214 55.0959C449.592 55.0959 448.27 55.4372 447.246 56.1199C446.264 56.8026 445.539 57.8479 445.07 59.2559C444.643 60.6212 444.43 62.4132 444.43 64.6319V65.7839C444.43 69.0692 444.92 71.5652 445.902 73.2719C446.926 74.9786 448.739 75.8319 451.342 75.8319C453.432 75.8319 455.011 74.9359 456.078 73.1439C457.144 71.3519 457.678 68.7492 457.678 65.3359C457.678 61.9652 457.144 59.4266 456.078 57.7199C455.054 55.9706 453.432 55.0959 451.214 55.0959Z" fill="url(#paint18_linear_112_3942)" fill-opacity="0.7"/>
<path d="M411.49 47.4159C414.733 47.4159 417.528 48.0346 419.874 49.2719C422.221 50.4666 424.013 52.2586 425.25 54.6479C426.53 56.9946 427.17 59.8746 427.17 63.2879V67.9599H404.706C404.792 70.6052 405.602 72.6959 407.138 74.2319C408.674 75.7252 410.872 76.4719 413.73 76.4719C415.906 76.4719 417.89 76.2586 419.682 75.8319C421.474 75.4052 423.309 74.7652 425.186 73.9119V81.1439C423.48 81.9972 421.666 82.6159 419.746 82.9999C417.869 83.4266 415.522 83.6399 412.706 83.6399C409.25 83.6399 406.178 82.9999 403.49 81.7199C400.845 80.4399 398.754 78.4772 397.218 75.8319C395.682 73.1439 394.914 69.7946 394.914 65.7839C394.914 61.6879 395.597 58.2959 396.962 55.6079C398.37 52.8772 400.312 50.8292 402.786 49.4639C405.304 48.0986 408.205 47.4159 411.49 47.4159ZM411.746 54.2639C409.826 54.2639 408.269 54.8826 407.074 56.1199C405.88 57.3146 405.176 59.1066 404.962 61.4959H418.146C418.146 60.0879 417.912 58.8506 417.442 57.7839C416.973 56.7172 416.248 55.8639 415.266 55.2239C414.328 54.5839 413.154 54.2639 411.746 54.2639Z" fill="url(#paint19_linear_112_3942)" fill-opacity="0.7"/>
<path d="M393.169 37.3039L381.521 82.9999H370.513L364.305 58.9999C364.177 58.5306 364.007 57.8266 363.793 56.8879C363.623 55.9492 363.409 54.9252 363.153 53.8159C362.94 52.7066 362.748 51.6612 362.577 50.6799C362.407 49.6559 362.279 48.8666 362.193 48.3119C362.151 48.8666 362.023 49.6559 361.809 50.6799C361.639 51.6612 361.447 52.7066 361.233 53.8159C361.02 54.8826 360.807 55.9066 360.593 56.8879C360.38 57.8266 360.209 58.5519 360.081 59.0639L353.937 82.9999H342.929L331.281 37.3039H340.817L346.641 62.2639C346.812 62.9892 347.004 63.8852 347.217 64.9519C347.431 65.9759 347.644 67.0639 347.857 68.2159C348.071 69.3252 348.263 70.4132 348.433 71.4799C348.647 72.5466 348.796 73.4639 348.881 74.2319C348.967 73.4212 349.095 72.5039 349.265 71.4799C349.436 70.4132 349.628 69.3466 349.841 68.2799C350.055 67.1706 350.247 66.1466 350.417 65.2079C350.631 64.2266 350.823 63.4586 350.993 62.9039L357.649 37.3039H366.801L373.457 62.9039C373.585 63.4586 373.756 64.2266 373.969 65.2079C374.183 66.1466 374.396 67.1706 374.609 68.2799C374.823 69.3892 375.015 70.4772 375.185 71.5439C375.356 72.5679 375.484 73.4639 375.569 74.2319C375.697 73.1652 375.889 71.9066 376.145 70.4559C376.401 68.9626 376.679 67.4692 376.977 65.9759C377.319 64.4826 377.596 63.2452 377.809 62.2639L383.633 37.3039H393.169Z" fill="url(#paint20_linear_112_3942)" fill-opacity="0.7"/>
</g>
</g>
<path d="M231 72H1170V105C1170 111.627 1164.63 117 1158 117H243C236.373 117 231 111.627 231 105V72Z" fill="url(#paint21_linear_112_3942)"/>
<path d="M1045.6 35.4159C1048.03 35.4159 1050.06 35.8852 1051.68 36.8239C1053.3 37.7199 1054.65 38.9359 1055.71 40.4719H1055.97L1056.87 36.0559H1065.06V71.2559C1065.06 74.5412 1064.42 77.2932 1063.14 79.5119C1061.86 81.7732 1059.92 83.4799 1057.31 84.6319C1054.75 85.7839 1051.49 86.3599 1047.52 86.3599C1044.83 86.3599 1042.42 86.1892 1040.29 85.8479C1038.16 85.5492 1036.15 85.0159 1034.27 84.2479V76.0559C1036.19 76.9092 1038.16 77.5706 1040.16 78.0399C1042.21 78.5092 1044.56 78.7439 1047.2 78.7439C1049.89 78.7439 1051.92 78.1252 1053.28 76.8879C1054.69 75.6506 1055.39 73.9439 1055.39 71.7679V70.8079C1055.39 70.2959 1055.41 69.6132 1055.46 68.7599C1055.54 67.9066 1055.63 67.1599 1055.71 66.5199H1055.39C1054.41 68.0559 1053.11 69.2932 1051.49 70.2319C1049.91 71.1706 1047.93 71.6399 1045.54 71.6399C1041.53 71.6399 1038.31 70.0826 1035.87 66.9679C1033.48 63.8532 1032.29 59.3946 1032.29 53.5919C1032.29 47.7892 1033.51 43.3092 1035.94 40.1519C1038.37 36.9946 1041.59 35.4159 1045.6 35.4159ZM1048.74 43.0319C1047.33 43.0319 1046.11 43.4372 1045.09 44.2479C1044.11 45.0586 1043.36 46.2532 1042.85 47.8319C1042.38 49.4106 1042.15 51.3732 1042.15 53.7199C1042.15 57.2186 1042.7 59.8212 1043.81 61.5279C1044.96 63.2346 1046.67 64.0879 1048.93 64.0879C1050.21 64.0879 1051.3 63.8959 1052.19 63.5119C1053.09 63.1279 1053.81 62.5732 1054.37 61.8479C1054.92 61.0799 1055.33 60.1199 1055.59 58.9679C1055.88 57.8159 1056.03 56.4506 1056.03 54.8719V53.4639C1056.03 51.1172 1055.8 49.1759 1055.33 47.6399C1054.86 46.1039 1054.09 44.9519 1053.03 44.1839C1051.96 43.4159 1050.53 43.0319 1048.74 43.0319Z" fill="url(#paint22_linear_112_3942)"/>
<path d="M1012.3 35.4159C1016.14 35.4159 1019.17 36.4186 1021.38 38.4239C1023.6 40.4292 1024.71 43.6932 1024.71 48.2159V70.9999H1015.11V50.6479C1015.11 48.1306 1014.64 46.2532 1013.7 45.0159C1012.81 43.7359 1011.4 43.0959 1009.48 43.0959C1006.58 43.0959 1004.59 44.0986 1003.53 46.1039C1002.5 48.0666 1001.99 50.9039 1001.99 54.6159V70.9999H992.328V36.0559H999.752L1001.1 40.7279H1001.48C1002.25 39.5759 1003.17 38.6159 1004.23 37.8479C1005.34 37.0372 1006.56 36.4399 1007.88 36.0559C1009.25 35.6292 1010.72 35.4159 1012.3 35.4159Z" fill="url(#paint23_linear_112_3942)"/>
<path d="M982.895 36.0559V70.9999H975.471L974.255 66.5199H973.679C972.954 67.7146 972.015 68.6959 970.863 69.4639C969.754 70.2319 968.517 70.7866 967.151 71.1279C965.829 71.4692 964.421 71.6399 962.927 71.6399C960.453 71.6399 958.277 71.1919 956.399 70.2959C954.565 69.3999 953.114 68.0132 952.047 66.1359C951.023 64.2586 950.511 61.8266 950.511 58.8399V36.0559H960.239V56.4079C960.239 58.8826 960.666 60.7599 961.519 62.0399C962.415 63.2772 963.823 63.8959 965.743 63.8959C967.706 63.8959 969.221 63.4692 970.287 62.6159C971.397 61.7199 972.165 60.4186 972.591 58.7119C973.018 57.0052 973.231 54.9146 973.231 52.4399V36.0559H982.895Z" fill="url(#paint24_linear_112_3942)"/>
<path d="M944.037 70.9999H916.389V65.3039L932.517 43.4159H917.285V36.0559H943.461V42.2639L927.781 63.5759H944.037V70.9999Z" fill="url(#paint25_linear_112_3942)"/>
<path d="M906.431 64.0239C907.497 64.0239 908.521 63.9172 909.503 63.7039C910.484 63.4906 911.465 63.2346 912.447 62.9359V70.0399C911.423 70.4666 910.143 70.8292 908.607 71.1279C907.113 71.4692 905.471 71.6399 903.679 71.6399C901.588 71.6399 899.711 71.2986 898.047 70.6159C896.425 69.9332 895.124 68.7599 894.143 67.0959C893.204 65.3892 892.735 63.0426 892.735 60.0559V43.2239H888.191V39.1919L893.439 35.9919L896.191 28.6319H902.271V36.0559H912.063V43.2239H902.271V60.0559C902.271 61.3786 902.655 62.3812 903.423 63.0639C904.191 63.7039 905.193 64.0239 906.431 64.0239Z" fill="url(#paint26_linear_112_3942)"/>
<path d="M868.115 35.4159C871.358 35.4159 874.153 36.0346 876.499 37.2719C878.846 38.4666 880.638 40.2586 881.875 42.6479C883.155 44.9946 883.795 47.8746 883.795 51.2879V55.9599H861.331C861.417 58.6052 862.227 60.6959 863.763 62.2319C865.299 63.7252 867.497 64.4719 870.355 64.4719C872.531 64.4719 874.515 64.2586 876.307 63.8319C878.099 63.4052 879.934 62.7652 881.811 61.9119V69.1439C880.105 69.9972 878.291 70.6159 876.371 70.9999C874.494 71.4266 872.147 71.6399 869.331 71.6399C865.875 71.6399 862.803 70.9999 860.115 69.7199C857.47 68.4399 855.379 66.4772 853.843 63.8319C852.307 61.1439 851.539 57.7946 851.539 53.7839C851.539 49.6879 852.222 46.2959 853.587 43.6079C854.995 40.8772 856.937 38.8292 859.411 37.4639C861.929 36.0986 864.83 35.4159 868.115 35.4159ZM868.371 42.2639C866.451 42.2639 864.894 42.8826 863.699 44.1199C862.505 45.3146 861.801 47.1066 861.587 49.4959H874.771C874.771 48.0879 874.537 46.8506 874.067 45.7839C873.598 44.7172 872.873 43.8639 871.891 43.2239C870.953 42.5839 869.779 42.2639 868.371 42.2639Z" fill="url(#paint27_linear_112_3942)"/>
<path d="M845.846 60.6959C845.846 62.9146 845.313 64.8559 844.246 66.5199C843.222 68.1412 841.644 69.3999 839.51 70.2959C837.377 71.1919 834.668 71.6399 831.382 71.6399C828.908 71.6399 826.732 71.4692 824.854 71.1279C822.977 70.8292 821.164 70.3172 819.414 69.5919V61.5919C821.292 62.4879 823.318 63.1919 825.494 63.7039C827.67 64.2159 829.548 64.4719 831.126 64.4719C833.089 64.4719 834.497 64.1946 835.35 63.6399C836.246 63.0852 836.694 62.3386 836.694 61.3999C836.694 60.7599 836.46 60.1839 835.99 59.6719C835.564 59.1599 834.774 58.6266 833.622 58.0719C832.513 57.5172 830.913 56.8346 828.822 56.0239C826.732 55.1706 824.982 54.2959 823.574 53.3999C822.166 52.4612 821.1 51.3519 820.374 50.0719C819.692 48.7919 819.35 47.1919 819.35 45.2719C819.35 42.0719 820.609 39.6399 823.126 37.9759C825.686 36.2692 829.057 35.4159 833.238 35.4159C835.5 35.4159 837.59 35.6506 839.51 36.1199C841.473 36.5892 843.457 37.2506 845.462 38.1039L842.646 44.6959C841.025 43.9706 839.361 43.3732 837.654 42.9039C835.948 42.4346 834.433 42.1999 833.11 42.1999C831.66 42.1999 830.529 42.4346 829.718 42.9039C828.908 43.3306 828.502 43.9492 828.502 44.7599C828.502 45.3572 828.716 45.8906 829.142 46.3599C829.612 46.8292 830.401 47.3199 831.51 47.8319C832.662 48.3439 834.262 49.0052 836.31 49.8159C838.401 50.6266 840.15 51.5012 841.558 52.4399C843.009 53.3359 844.076 54.4452 844.758 55.7679C845.484 57.0479 845.846 58.6906 845.846 60.6959Z" fill="url(#paint28_linear_112_3942)"/>
<path d="M811.781 35.4159C812.421 35.4159 813.104 35.4586 813.829 35.5439C814.597 35.5866 815.195 35.6719 815.621 35.7999L814.661 44.8239C814.192 44.7386 813.637 44.6532 812.997 44.5679C812.357 44.4826 811.589 44.4399 810.693 44.4399C809.712 44.4399 808.709 44.5892 807.685 44.8879C806.704 45.1866 805.787 45.6772 804.933 46.3599C804.08 47.0426 803.397 47.9386 802.885 49.0479C802.373 50.1572 802.117 51.5652 802.117 53.2719V70.9999H792.453V36.0559H799.813L801.221 41.9439H801.669C802.352 40.7066 803.205 39.5972 804.229 38.6159C805.253 37.6346 806.405 36.8666 807.685 36.3119C808.965 35.7146 810.331 35.4159 811.781 35.4159Z" fill="url(#paint29_linear_112_3942)"/>
<path d="M769.178 35.4159C772.42 35.4159 775.215 36.0346 777.562 37.2719C779.908 38.4666 781.7 40.2586 782.938 42.6479C784.218 44.9946 784.858 47.8746 784.858 51.2879V55.9599H762.394C762.479 58.6052 763.29 60.6959 764.826 62.2319C766.362 63.7252 768.559 64.4719 771.418 64.4719C773.594 64.4719 775.578 64.2586 777.37 63.8319C779.162 63.4052 780.996 62.7652 782.874 61.9119V69.1439C781.167 69.9972 779.354 70.6159 777.434 70.9999C775.556 71.4266 773.21 71.6399 770.394 71.6399C766.938 71.6399 763.866 70.9999 761.178 69.7199C758.532 68.4399 756.442 66.4772 754.906 63.8319C753.37 61.1439 752.602 57.7946 752.602 53.7839C752.602 49.6879 753.284 46.2959 754.65 43.6079C756.058 40.8772 757.999 38.8292 760.474 37.4639C762.991 36.0986 765.892 35.4159 769.178 35.4159ZM769.434 42.2639C767.514 42.2639 765.956 42.8826 764.762 44.1199C763.567 45.3146 762.863 47.1066 762.65 49.4959H775.834C775.834 48.0879 775.599 46.8506 775.13 45.7839C774.66 44.7172 773.935 43.8639 772.954 43.2239C772.015 42.5839 770.842 42.2639 769.434 42.2639Z" fill="url(#paint30_linear_112_3942)"/>
<path d="M723.492 33.6879C723.492 35.0106 723.45 36.2692 723.364 37.4639C723.322 38.6586 723.236 39.7039 723.108 40.5999H723.492C724.431 39.1492 725.69 37.9332 727.268 36.9519C728.847 35.9279 730.895 35.4159 733.412 35.4159C737.295 35.4159 740.452 36.9519 742.884 40.0239C745.316 43.0532 746.532 47.5332 746.532 53.4639C746.532 57.4319 745.978 60.7812 744.868 63.5119C743.759 66.1999 742.18 68.2266 740.132 69.5919C738.127 70.9572 735.802 71.6399 733.156 71.6399C730.596 71.6399 728.57 71.1919 727.076 70.2959C725.626 69.3572 724.431 68.3332 723.492 67.2239H722.852L721.252 70.9999H713.828V22.3599H723.492V33.6879ZM730.276 43.0959C728.655 43.0959 727.332 43.4372 726.308 44.1199C725.327 44.8026 724.602 45.8479 724.132 47.2559C723.706 48.6212 723.492 50.4132 723.492 52.6319V53.7839C723.492 57.0692 723.983 59.5652 724.964 61.2719C725.988 62.9786 727.802 63.8319 730.404 63.8319C732.495 63.8319 734.074 62.9359 735.14 61.1439C736.207 59.3519 736.74 56.7492 736.74 53.3359C736.74 49.9652 736.207 47.4266 735.14 45.7199C734.116 43.9706 732.495 43.0959 730.276 43.0959Z" fill="url(#paint31_linear_112_3942)"/>
<path d="M704.395 36.0559V70.9999H696.971L695.755 66.5199H695.179C694.454 67.7146 693.515 68.6959 692.363 69.4639C691.254 70.2319 690.017 70.7866 688.651 71.1279C687.329 71.4692 685.921 71.6399 684.427 71.6399C681.953 71.6399 679.777 71.1919 677.899 70.2959C676.065 69.3999 674.614 68.0132 673.547 66.1359C672.523 64.2586 672.011 61.8266 672.011 58.8399V36.0559H681.739V56.4079C681.739 58.8826 682.166 60.7599 683.019 62.0399C683.915 63.2772 685.323 63.8959 687.243 63.8959C689.206 63.8959 690.721 63.4692 691.787 62.6159C692.897 61.7199 693.665 60.4186 694.091 58.7119C694.518 57.0052 694.731 54.9146 694.731 52.4399V36.0559H704.395ZM677.003 27.0959C677.003 25.6026 677.43 24.5146 678.283 23.8319C679.137 23.1492 680.182 22.8079 681.419 22.8079C682.614 22.8079 683.638 23.1492 684.491 23.8319C685.387 24.5146 685.835 25.6026 685.835 27.0959C685.835 28.5039 685.387 29.5492 684.491 30.2319C683.638 30.9146 682.614 31.2559 681.419 31.2559C680.182 31.2559 679.137 30.9146 678.283 30.2319C677.43 29.5492 677.003 28.5039 677.003 27.0959ZM690.827 27.0959C690.827 25.6026 691.233 24.5146 692.043 23.8319C692.897 23.1492 693.963 22.8079 695.243 22.8079C696.438 22.8079 697.462 23.1492 698.315 23.8319C699.211 24.5146 699.659 25.6026 699.659 27.0959C699.659 28.5039 699.211 29.5492 698.315 30.2319C697.462 30.9146 696.438 31.2559 695.243 31.2559C693.963 31.2559 692.897 30.9146 692.043 30.2319C691.233 29.5492 690.827 28.5039 690.827 27.0959Z" fill="url(#paint32_linear_112_3942)"/>
<path d="M650.546 35.4159C654.386 35.4159 657.416 36.4186 659.634 38.4239C661.853 40.4292 662.962 43.6932 662.962 48.2159V70.9999H653.362V50.6479C653.362 48.1306 652.893 46.2532 651.954 45.0159C651.058 43.7359 649.65 43.0959 647.73 43.0959C644.829 43.0959 642.845 44.0986 641.778 46.1039C640.754 48.0666 640.242 50.9039 640.242 54.6159V70.9999H630.578V36.0559H638.002L639.346 40.7279H639.73C640.498 39.5759 641.416 38.6159 642.482 37.8479C643.592 37.0372 644.808 36.4399 646.13 36.0559C647.496 35.6292 648.968 35.4159 650.546 35.4159Z" fill="url(#paint33_linear_112_3942)"/>
<path d="M607.303 35.4159C610.545 35.4159 613.34 36.0346 615.687 37.2719C618.033 38.4666 619.825 40.2586 621.063 42.6479C622.343 44.9946 622.983 47.8746 622.983 51.2879V55.9599H600.519C600.604 58.6052 601.415 60.6959 602.951 62.2319C604.487 63.7252 606.684 64.4719 609.543 64.4719C611.719 64.4719 613.703 64.2586 615.495 63.8319C617.287 63.4052 619.121 62.7652 620.999 61.9119V69.1439C619.292 69.9972 617.479 70.6159 615.559 70.9999C613.681 71.4266 611.335 71.6399 608.519 71.6399C605.063 71.6399 601.991 70.9999 599.303 69.7199C596.657 68.4399 594.567 66.4772 593.031 63.8319C591.495 61.1439 590.727 57.7946 590.727 53.7839C590.727 49.6879 591.409 46.2959 592.775 43.6079C594.183 40.8772 596.124 38.8292 598.599 37.4639C601.116 36.0986 604.017 35.4159 607.303 35.4159ZM607.559 42.2639C605.639 42.2639 604.081 42.8826 602.887 44.1199C601.692 45.3146 600.988 47.1066 600.775 49.4959H613.959C613.959 48.0879 613.724 46.8506 613.255 45.7839C612.785 44.7172 612.06 43.8639 611.079 43.2239C610.14 42.5839 608.967 42.2639 607.559 42.2639Z" fill="url(#paint34_linear_112_3942)"/>
<path d="M579.681 64.0239C580.747 64.0239 581.771 63.9172 582.753 63.7039C583.734 63.4906 584.715 63.2346 585.697 62.9359V70.0399C584.673 70.4666 583.393 70.8292 581.857 71.1279C580.363 71.4692 578.721 71.6399 576.929 71.6399C574.838 71.6399 572.961 71.2986 571.297 70.6159C569.675 69.9332 568.374 68.7599 567.393 67.0959C566.454 65.3892 565.985 63.0426 565.985 60.0559V43.2239H561.441V39.1919L566.689 35.9919L569.441 28.6319H575.521V36.0559H585.313V43.2239H575.521V60.0559C575.521 61.3786 575.905 62.3812 576.673 63.0639C577.441 63.7039 578.443 64.0239 579.681 64.0239Z" fill="url(#paint35_linear_112_3942)"/>
<path d="M555.244 36.0559V70.9999H545.58V36.0559H555.244ZM550.444 22.2959C551.852 22.2959 553.068 22.6372 554.092 23.3199C555.158 23.9599 555.692 25.1972 555.692 27.0319C555.692 28.7812 555.158 29.9972 554.092 30.6799C553.068 31.3626 551.852 31.7039 550.444 31.7039C548.993 31.7039 547.756 31.3626 546.732 30.6799C545.708 29.9972 545.196 28.7812 545.196 27.0319C545.196 25.1972 545.708 23.9599 546.732 23.3199C547.756 22.6372 548.993 22.2959 550.444 22.2959Z" fill="url(#paint36_linear_112_3942)"/>
<path d="M522.24 35.4159C525.483 35.4159 528.278 36.0346 530.624 37.2719C532.971 38.4666 534.763 40.2586 536 42.6479C537.28 44.9946 537.92 47.8746 537.92 51.2879V55.9599H515.456C515.542 58.6052 516.352 60.6959 517.888 62.2319C519.424 63.7252 521.622 64.4719 524.48 64.4719C526.656 64.4719 528.64 64.2586 530.432 63.8319C532.224 63.4052 534.059 62.7652 535.936 61.9119V69.1439C534.23 69.9972 532.416 70.6159 530.496 70.9999C528.619 71.4266 526.272 71.6399 523.456 71.6399C520 71.6399 516.928 70.9999 514.24 69.7199C511.595 68.4399 509.504 66.4772 507.968 63.8319C506.432 61.1439 505.664 57.7946 505.664 53.7839C505.664 49.6879 506.347 46.2959 507.712 43.6079C509.12 40.8772 511.062 38.8292 513.536 37.4639C516.054 36.0986 518.955 35.4159 522.24 35.4159ZM522.496 42.2639C520.576 42.2639 519.019 42.8826 517.824 44.1199C516.63 45.3146 515.926 47.1066 515.712 49.4959H528.896C528.896 48.0879 528.662 46.8506 528.192 45.7839C527.723 44.7172 526.998 43.8639 526.016 43.2239C525.078 42.5839 523.904 42.2639 522.496 42.2639Z" fill="url(#paint37_linear_112_3942)"/>
<path d="M499.971 60.6959C499.971 62.9146 499.438 64.8559 498.371 66.5199C497.347 68.1412 495.769 69.3999 493.635 70.2959C491.502 71.1919 488.793 71.6399 485.507 71.6399C483.033 71.6399 480.857 71.4692 478.979 71.1279C477.102 70.8292 475.289 70.3172 473.539 69.5919V61.5919C475.417 62.4879 477.443 63.1919 479.619 63.7039C481.795 64.2159 483.673 64.4719 485.251 64.4719C487.214 64.4719 488.622 64.1946 489.475 63.6399C490.371 63.0852 490.819 62.3386 490.819 61.3999C490.819 60.7599 490.585 60.1839 490.115 59.6719C489.689 59.1599 488.899 58.6266 487.747 58.0719C486.638 57.5172 485.038 56.8346 482.947 56.0239C480.857 55.1706 479.107 54.2959 477.699 53.3999C476.291 52.4612 475.225 51.3519 474.499 50.0719C473.817 48.7919 473.475 47.1919 473.475 45.2719C473.475 42.0719 474.734 39.6399 477.251 37.9759C479.811 36.2692 483.182 35.4159 487.363 35.4159C489.625 35.4159 491.715 35.6506 493.635 36.1199C495.598 36.5892 497.582 37.2506 499.587 38.1039L496.771 44.6959C495.15 43.9706 493.486 43.3732 491.779 42.9039C490.073 42.4346 488.558 42.1999 487.235 42.1999C485.785 42.1999 484.654 42.4346 483.843 42.9039C483.033 43.3306 482.627 43.9492 482.627 44.7599C482.627 45.3572 482.841 45.8906 483.267 46.3599C483.737 46.8292 484.526 47.3199 485.635 47.8319C486.787 48.3439 488.387 49.0052 490.435 49.8159C492.526 50.6266 494.275 51.5012 495.683 52.4399C497.134 53.3359 498.201 54.4452 498.883 55.7679C499.609 57.0479 499.971 58.6906 499.971 60.6959Z" fill="url(#paint38_linear_112_3942)"/>
<path d="M444.43 33.6879C444.43 35.0106 444.387 36.2692 444.302 37.4639C444.259 38.6586 444.174 39.7039 444.046 40.5999H444.43C445.368 39.1492 446.627 37.9332 448.206 36.9519C449.784 35.9279 451.832 35.4159 454.35 35.4159C458.232 35.4159 461.39 36.9519 463.822 40.0239C466.254 43.0532 467.47 47.5332 467.47 53.4639C467.47 57.4319 466.915 60.7812 465.806 63.5119C464.696 66.1999 463.118 68.2266 461.07 69.5919C459.064 70.9572 456.739 71.6399 454.094 71.6399C451.534 71.6399 449.507 71.1919 448.014 70.2959C446.563 69.3572 445.368 68.3332 444.43 67.2239H443.79L442.19 70.9999H434.766V22.3599H444.43V33.6879ZM451.214 43.0959C449.592 43.0959 448.27 43.4372 447.246 44.1199C446.264 44.8026 445.539 45.8479 445.07 47.2559C444.643 48.6212 444.43 50.4132 444.43 52.6319V53.7839C444.43 57.0692 444.92 59.5652 445.902 61.2719C446.926 62.9786 448.739 63.8319 451.342 63.8319C453.432 63.8319 455.011 62.9359 456.078 61.1439C457.144 59.3519 457.678 56.7492 457.678 53.3359C457.678 49.9652 457.144 47.4266 456.078 45.7199C455.054 43.9706 453.432 43.0959 451.214 43.0959Z" fill="url(#paint39_linear_112_3942)"/>
<path d="M411.49 35.4159C414.733 35.4159 417.528 36.0346 419.874 37.2719C422.221 38.4666 424.013 40.2586 425.25 42.6479C426.53 44.9946 427.17 47.8746 427.17 51.2879V55.9599H404.706C404.792 58.6052 405.602 60.6959 407.138 62.2319C408.674 63.7252 410.872 64.4719 413.73 64.4719C415.906 64.4719 417.89 64.2586 419.682 63.8319C421.474 63.4052 423.309 62.7652 425.186 61.9119V69.1439C423.48 69.9972 421.666 70.6159 419.746 70.9999C417.869 71.4266 415.522 71.6399 412.706 71.6399C409.25 71.6399 406.178 70.9999 403.49 69.7199C400.845 68.4399 398.754 66.4772 397.218 63.8319C395.682 61.1439 394.914 57.7946 394.914 53.7839C394.914 49.6879 395.597 46.2959 396.962 43.6079C398.37 40.8772 400.312 38.8292 402.786 37.4639C405.304 36.0986 408.205 35.4159 411.49 35.4159ZM411.746 42.2639C409.826 42.2639 408.269 42.8826 407.074 44.1199C405.88 45.3146 405.176 47.1066 404.962 49.4959H418.146C418.146 48.0879 417.912 46.8506 417.442 45.7839C416.973 44.7172 416.248 43.8639 415.266 43.2239C414.328 42.5839 413.154 42.2639 411.746 42.2639Z" fill="url(#paint40_linear_112_3942)"/>
<path d="M393.169 25.3039L381.521 70.9999H370.513L364.305 46.9999C364.177 46.5306 364.007 45.8266 363.793 44.8879C363.623 43.9492 363.409 42.9252 363.153 41.8159C362.94 40.7066 362.748 39.6612 362.577 38.6799C362.407 37.6559 362.279 36.8666 362.193 36.3119C362.151 36.8666 362.023 37.6559 361.809 38.6799C361.639 39.6612 361.447 40.7066 361.233 41.8159C361.02 42.8826 360.807 43.9066 360.593 44.8879C360.38 45.8266 360.209 46.5519 360.081 47.0639L353.937 70.9999H342.929L331.281 25.3039H340.817L346.641 50.2639C346.812 50.9892 347.004 51.8852 347.217 52.9519C347.431 53.9759 347.644 55.0639 347.857 56.2159C348.071 57.3252 348.263 58.4132 348.433 59.4799C348.647 60.5466 348.796 61.4639 348.881 62.2319C348.967 61.4212 349.095 60.5039 349.265 59.4799C349.436 58.4132 349.628 57.3466 349.841 56.2799C350.055 55.1706 350.247 54.1466 350.417 53.2079C350.631 52.2266 350.823 51.4586 350.993 50.9039L357.649 25.3039H366.801L373.457 50.9039C373.585 51.4586 373.756 52.2266 373.969 53.2079C374.183 54.1466 374.396 55.1706 374.609 56.2799C374.823 57.3892 375.015 58.4772 375.185 59.5439C375.356 60.5679 375.484 61.4639 375.569 62.2319C375.697 61.1652 375.889 59.9066 376.145 58.4559C376.401 56.9626 376.679 55.4692 376.977 53.9759C377.319 52.4826 377.596 51.2452 377.809 50.2639L383.633 25.3039H393.169Z" fill="url(#paint41_linear_112_3942)"/>
<defs>
<filter id="filter0_f_112_3942" x="311.281" y="14.2959" width="773.776" height="104.064" filterUnits="userSpaceOnUse" color-interpolation-filters="sRGB">
<feFlood flood-opacity="0" result="BackgroundImageFix"/>
<feBlend mode="normal" in="SourceGraphic" in2="BackgroundImageFix" result="shape"/>
<feGaussianBlur stdDeviation="10" result="effect1_foregroundBlur_112_3942"/>
</filter>
<linearGradient id="paint0_linear_112_3942" x1="231" y1="64.0036" x2="1170" y2="64.0026" gradientUnits="userSpaceOnUse">
<stop stop-color="white" stop-opacity="0.3"/>
<stop offset="0.359008" stop-color="#CBB0F8"/>
<stop offset="0.788712" stop-color="#FCD9ED"/>
<stop offset="1" stop-color="white" stop-opacity="0.3"/>
</linearGradient>
<linearGradient id="paint1_linear_112_3942" x1="1175.74" y1="48.2344" x2="-15372.7" y2="48.2759" gradientUnits="userSpaceOnUse">
<stop stop-color="#F4439F"/>
<stop offset="1" stop-color="#7C3AED"/>
</linearGradient>
<linearGradient id="paint2_linear_112_3942" x1="2091.21" y1="54.2511" x2="-14653.5" y2="54.2807" gradientUnits="userSpaceOnUse">
<stop stop-color="#F4439F"/>
<stop offset="1" stop-color="#7C3AED"/>
</linearGradient>
<linearGradient id="paint3_linear_112_3942" x1="3038.73" y1="53.0989" x2="-13706" y2="53.1285" gradientUnits="userSpaceOnUse">
<stop stop-color="#F4439F"/>
<stop offset="1" stop-color="#7C3AED"/>
</linearGradient>
<linearGradient id="paint4_linear_112_3942" x1="4408.11" y1="53.4432" x2="-15204.9" y2="53.4832" gradientUnits="userSpaceOnUse">
<stop stop-color="#F4439F"/>
<stop offset="1" stop-color="#7C3AED"/>
</linearGradient>
<linearGradient id="paint5_linear_112_3942" x1="5831.24" y1="60.9118" x2="-16524.4" y2="60.9756" gradientUnits="userSpaceOnUse">
<stop stop-color="#F4439F"/>
<stop offset="1" stop-color="#7C3AED"/>
</linearGradient>
<linearGradient id="paint6_linear_112_3942" x1="5300.94" y1="53.8985" x2="-11510.2" y2="53.9289" gradientUnits="userSpaceOnUse">
<stop stop-color="#F4439F"/>
<stop offset="1" stop-color="#7C3AED"/>
</linearGradient>
<linearGradient id="paint7_linear_112_3942" x1="7272.74" y1="53.8985" x2="-13193" y2="53.9436" gradientUnits="userSpaceOnUse">
<stop stop-color="#F4439F"/>
<stop offset="1" stop-color="#7C3AED"/>
</linearGradient>
<linearGradient id="paint8_linear_112_3942" x1="9121.73" y1="54.2511" x2="-14283.8" y2="54.309" gradientUnits="userSpaceOnUse">
<stop stop-color="#F4439F"/>
<stop offset="1" stop-color="#7C3AED"/>
</linearGradient>
<linearGradient id="paint9_linear_112_3942" x1="7551.62" y1="53.8985" x2="-9259.53" y2="53.9289" gradientUnits="userSpaceOnUse">
<stop stop-color="#F4439F"/>
<stop offset="1" stop-color="#7C3AED"/>
</linearGradient>
<linearGradient id="paint10_linear_112_3942" x1="8322.67" y1="65.6779" x2="-8258.19" y2="65.7181" gradientUnits="userSpaceOnUse">
<stop stop-color="#F4439F"/>
<stop offset="1" stop-color="#7C3AED"/>
</linearGradient>
<linearGradient id="paint11_linear_112_3942" x1="9349.15" y1="65.3781" x2="-7395.56" y2="65.4187" gradientUnits="userSpaceOnUse">
<stop stop-color="#F4439F"/>
<stop offset="1" stop-color="#7C3AED"/>
</linearGradient>
<linearGradient id="paint12_linear_112_3942" x1="10288" y1="54.2512" x2="-6456.74" y2="54.2808" gradientUnits="userSpaceOnUse">
<stop stop-color="#F4439F"/>
<stop offset="1" stop-color="#7C3AED"/>
</linearGradient>
<linearGradient id="paint13_linear_112_3942" x1="11234" y1="53.8986" x2="-5577.11" y2="53.929" gradientUnits="userSpaceOnUse">
<stop stop-color="#F4439F"/>
<stop offset="1" stop-color="#7C3AED"/>
</linearGradient>
<linearGradient id="paint14_linear_112_3942" x1="15715.9" y1="60.9118" x2="-6639.86" y2="60.9756" gradientUnits="userSpaceOnUse">
<stop stop-color="#F4439F"/>
<stop offset="1" stop-color="#7C3AED"/>
</linearGradient>
<linearGradient id="paint15_linear_112_3942" x1="37020.4" y1="66.1333" x2="-14643.2" y2="66.5194" gradientUnits="userSpaceOnUse">
<stop stop-color="#F4439F"/>
<stop offset="1" stop-color="#7C3AED"/>
</linearGradient>
<linearGradient id="paint16_linear_112_3942" x1="13169.1" y1="53.8986" x2="-3642.07" y2="53.929" gradientUnits="userSpaceOnUse">
<stop stop-color="#F4439F"/>
<stop offset="1" stop-color="#7C3AED"/>
</linearGradient>
<linearGradient id="paint17_linear_112_3942" x1="16851.3" y1="53.8986" x2="-3614.4" y2="53.9437" gradientUnits="userSpaceOnUse">
<stop stop-color="#F4439F"/>
<stop offset="1" stop-color="#7C3AED"/>
</linearGradient>
<linearGradient id="paint18_linear_112_3942" x1="14584" y1="65.6779" x2="-1996.9" y2="65.7181" gradientUnits="userSpaceOnUse">
<stop stop-color="#F4439F"/>
<stop offset="1" stop-color="#7C3AED"/>
</linearGradient>
<linearGradient id="paint19_linear_112_3942" x1="15688.5" y1="53.8986" x2="-1122.67" y2="53.929" gradientUnits="userSpaceOnUse">
<stop stop-color="#F4439F"/>
<stop offset="1" stop-color="#7C3AED"/>
</linearGradient>
<linearGradient id="paint20_linear_112_3942" x1="1070" y1="58.4997" x2="331" y2="58.4998" gradientUnits="userSpaceOnUse">
<stop stop-color="#F4439F"/>
<stop offset="1" stop-color="#7C3AED"/>
</linearGradient>
<linearGradient id="paint21_linear_112_3942" x1="700.5" y1="72" x2="700.5" y2="117" gradientUnits="userSpaceOnUse">
<stop offset="0.0001" stop-color="white" stop-opacity="0.1"/>
<stop offset="1" stop-color="white" stop-opacity="0"/>
</linearGradient>
<linearGradient id="paint22_linear_112_3942" x1="1175.74" y1="-18.4685" x2="1027.38" y2="1584.01" gradientUnits="userSpaceOnUse">
<stop stop-color="#F4439F"/>
<stop offset="1" stop-color="#7C3AED"/>
</linearGradient>
<linearGradient id="paint23_linear_112_3942" x1="2091.21" y1="-36.0646" x2="1793.23" y2="2238.76" gradientUnits="userSpaceOnUse">
<stop stop-color="#F4439F"/>
<stop offset="1" stop-color="#7C3AED"/>
</linearGradient>
<linearGradient id="paint24_linear_112_3942" x1="3038.73" y1="-37.2168" x2="2740.75" y2="2237.61" gradientUnits="userSpaceOnUse">
<stop stop-color="#F4439F"/>
<stop offset="1" stop-color="#7C3AED"/>
</linearGradient>
<linearGradient id="paint25_linear_112_3942" x1="4408.11" y1="-38.3068" x2="4143.22" y2="2287.76" gradientUnits="userSpaceOnUse">
<stop stop-color="#F4439F"/>
<stop offset="1" stop-color="#7C3AED"/>
</linearGradient>
<linearGradient id="paint26_linear_112_3942" x1="5831.24" y1="-15.8851" x2="5676.85" y2="1886.03" gradientUnits="userSpaceOnUse">
<stop stop-color="#F4439F"/>
<stop offset="1" stop-color="#7C3AED"/>
</linearGradient>
<linearGradient id="paint27_linear_112_3942" x1="5300.94" y1="-35.0334" x2="5014.33" y2="2201.21" gradientUnits="userSpaceOnUse">
<stop stop-color="#F4439F"/>
<stop offset="1" stop-color="#7C3AED"/>
</linearGradient>
<linearGradient id="paint28_linear_112_3942" x1="7272.74" y1="-35.0334" x2="7036.06" y2="2213.03" gradientUnits="userSpaceOnUse">
<stop stop-color="#F4439F"/>
<stop offset="1" stop-color="#7C3AED"/>
</linearGradient>
<linearGradient id="paint29_linear_112_3942" x1="9121.73" y1="-36.0646" x2="8906.78" y2="2257.65" gradientUnits="userSpaceOnUse">
<stop stop-color="#F4439F"/>
<stop offset="1" stop-color="#7C3AED"/>
</linearGradient>
<linearGradient id="paint30_linear_112_3942" x1="7551.62" y1="-35.0334" x2="7265.01" y2="2201.21" gradientUnits="userSpaceOnUse">
<stop stop-color="#F4439F"/>
<stop offset="1" stop-color="#7C3AED"/>
</linearGradient>
<linearGradient id="paint31_linear_112_3942" x1="8322.66" y1="-2.87213" x2="8164.52" y2="1652.81" gradientUnits="userSpaceOnUse">
<stop stop-color="#F4439F"/>
<stop offset="1" stop-color="#7C3AED"/>
</linearGradient>
<linearGradient id="paint32_linear_112_3942" x1="9349.15" y1="-3.69076" x2="9189.66" y2="1667.2" gradientUnits="userSpaceOnUse">
<stop stop-color="#F4439F"/>
<stop offset="1" stop-color="#7C3AED"/>
</linearGradient>
<linearGradient id="paint33_linear_112_3942" x1="10288" y1="-36.0645" x2="9989.98" y2="2238.76" gradientUnits="userSpaceOnUse">
<stop stop-color="#F4439F"/>
<stop offset="1" stop-color="#7C3AED"/>
</linearGradient>
<linearGradient id="paint34_linear_112_3942" x1="11234" y1="-35.0334" x2="10947.4" y2="2201.21" gradientUnits="userSpaceOnUse">
<stop stop-color="#F4439F"/>
<stop offset="1" stop-color="#7C3AED"/>
</linearGradient>
<linearGradient id="paint35_linear_112_3942" x1="15715.9" y1="-15.8851" x2="15561.5" y2="1886.03" gradientUnits="userSpaceOnUse">
<stop stop-color="#F4439F"/>
<stop offset="1" stop-color="#7C3AED"/>
</linearGradient>
<linearGradient id="paint36_linear_112_3942" x1="37020.4" y1="-3.08558" x2="36968" y2="1685.84" gradientUnits="userSpaceOnUse">
<stop stop-color="#F4439F"/>
<stop offset="1" stop-color="#7C3AED"/>
</linearGradient>
<linearGradient id="paint37_linear_112_3942" x1="13169.1" y1="-35.0334" x2="12882.5" y2="2201.21" gradientUnits="userSpaceOnUse">
<stop stop-color="#F4439F"/>
<stop offset="1" stop-color="#7C3AED"/>
</linearGradient>
<linearGradient id="paint38_linear_112_3942" x1="16851.3" y1="-35.0334" x2="16614.7" y2="2213.03" gradientUnits="userSpaceOnUse">
<stop stop-color="#F4439F"/>
<stop offset="1" stop-color="#7C3AED"/>
</linearGradient>
<linearGradient id="paint39_linear_112_3942" x1="14584" y1="-2.8721" x2="14425.8" y2="1652.81" gradientUnits="userSpaceOnUse">
<stop stop-color="#F4439F"/>
<stop offset="1" stop-color="#7C3AED"/>
</linearGradient>
<linearGradient id="paint40_linear_112_3942" x1="15688.5" y1="-35.0335" x2="15401.9" y2="2201.21" gradientUnits="userSpaceOnUse">
<stop stop-color="#F4439F"/>
<stop offset="1" stop-color="#7C3AED"/>
</linearGradient>
<linearGradient id="paint41_linear_112_3942" x1="1070" y1="2.99973" x2="500.098" y2="348.693" gradientUnits="userSpaceOnUse">
<stop stop-color="#F4439F"/>
<stop offset="1" stop-color="#7C3AED"/>
</linearGradient>
</defs>
</svg>
