<svg width="1400" height="120" viewBox="0 0 1400 120" fill="none" xmlns="http://www.w3.org/2000/svg">
<path d="M324 56H1076V72H324V56Z" fill="url(#paint0_linear_112_4086)"/>
<mask id="mask0_112_4086" style="mask-type:alpha" maskUnits="userSpaceOnUse" x="324" y="72" width="752" height="45">
<path d="M324 72H1076V117H324V72Z" fill="#C4C4C4"/>
</mask>
<g mask="url(#mask0_112_4086)">
<g filter="url(#filter0_f_112_4086)">
<path d="M958.455 47.4159C962.295 47.4159 965.324 48.4186 967.543 50.4239C969.762 52.4292 970.871 55.6932 970.871 60.2159V82.9999H961.271V62.6479C961.271 60.1306 960.802 58.2532 959.863 57.0159C958.967 55.7359 957.559 55.0959 955.639 55.0959C952.738 55.0959 950.754 56.0986 949.687 58.1039C948.663 60.0666 948.151 62.9039 948.151 66.6159V82.9999H938.487V48.0559H945.911L947.255 52.7279H947.639C948.407 51.5759 949.324 50.6159 950.391 49.8479C951.5 49.0372 952.716 48.4399 954.039 48.0559C955.404 47.6292 956.876 47.4159 958.455 47.4159Z" fill="url(#paint1_linear_112_4086)" fill-opacity="0.7"/>
<path d="M930.743 65.4639C930.743 68.3652 930.338 70.9466 929.527 73.2079C928.759 75.4692 927.628 77.3679 926.135 78.9039C924.684 80.4399 922.914 81.6132 920.823 82.4239C918.732 83.2346 916.364 83.6399 913.719 83.6399C911.244 83.6399 908.983 83.2346 906.935 82.4239C904.887 81.6132 903.116 80.4399 901.623 78.9039C900.13 77.3679 898.956 75.4692 898.103 73.2079C897.25 70.9466 896.823 68.3652 896.823 65.4639C896.823 61.5812 897.506 58.2959 898.871 55.6079C900.236 52.9199 902.199 50.8932 904.759 49.5279C907.319 48.1199 910.37 47.4159 913.911 47.4159C917.196 47.4159 920.098 48.1199 922.615 49.5279C925.132 50.8932 927.116 52.9199 928.567 55.6079C930.018 58.2959 930.743 61.5812 930.743 65.4639ZM906.679 65.4639C906.679 67.7252 906.914 69.6666 907.383 71.2879C907.895 72.9092 908.663 74.1466 909.687 74.9999C910.754 75.8532 912.14 76.2799 913.847 76.2799C915.511 76.2799 916.855 75.8532 917.879 74.9999C918.946 74.1466 919.714 72.9092 920.183 71.2879C920.652 69.6666 920.887 67.7252 920.887 65.4639C920.887 63.1599 920.631 61.2186 920.119 59.6399C919.65 58.0612 918.903 56.8666 917.879 56.0559C916.855 55.2026 915.49 54.7759 913.783 54.7759C911.308 54.7759 909.495 55.6932 908.343 57.5279C907.234 59.3626 906.679 62.0079 906.679 65.4639Z" fill="url(#paint2_linear_112_4086)" fill-opacity="0.7"/>
<path d="M889.09 48.0559V82.9999H879.426V48.0559H889.09ZM884.29 34.2959C885.698 34.2959 886.914 34.6372 887.938 35.3199C889.005 35.9599 889.538 37.1972 889.538 39.0319C889.538 40.7812 889.005 41.9972 887.938 42.6799C886.914 43.3626 885.698 43.7039 884.29 43.7039C882.839 43.7039 881.602 43.3626 880.578 42.6799C879.554 41.9972 879.042 40.7812 879.042 39.0319C879.042 37.1972 879.554 35.9599 880.578 35.3199C881.602 34.6372 882.839 34.2959 884.29 34.2959Z" fill="url(#paint3_linear_112_4086)" fill-opacity="0.7"/>
<path d="M866.652 76.0239C867.719 76.0239 868.743 75.9172 869.724 75.7039C870.705 75.4906 871.687 75.2346 872.668 74.9359V82.0399C871.644 82.4666 870.364 82.8292 868.828 83.1279C867.335 83.4692 865.692 83.6399 863.9 83.6399C861.809 83.6399 859.932 83.2986 858.268 82.6159C856.647 81.9332 855.345 80.7599 854.364 79.0959C853.425 77.3892 852.956 75.0426 852.956 72.0559V55.2239H848.412V51.1919L853.66 47.9919L856.412 40.6319H862.492V48.0559H872.284V55.2239H862.492V72.0559C862.492 73.3786 862.876 74.3812 863.644 75.0639C864.412 75.7039 865.415 76.0239 866.652 76.0239Z" fill="url(#paint4_linear_112_4086)" fill-opacity="0.7"/>
<path d="M828.915 47.4159C833.31 47.4159 836.66 48.4612 838.964 50.5519C841.267 52.5999 842.419 55.6506 842.419 59.7039V82.9999H835.699L833.844 78.2639H833.587C832.606 79.5012 831.582 80.5252 830.516 81.3359C829.492 82.1466 828.297 82.7226 826.932 83.0639C825.566 83.4479 823.902 83.6399 821.94 83.6399C819.892 83.6399 818.057 83.2559 816.436 82.4879C814.814 81.6772 813.534 80.4612 812.595 78.8399C811.657 77.2186 811.188 75.1706 811.188 72.6959C811.188 69.0266 812.51 66.2746 815.156 64.4399C817.801 62.6052 821.748 61.5812 826.996 61.3679L832.82 61.1759V60.0879C832.82 57.9972 832.35 56.5466 831.411 55.7359C830.473 54.8826 829.15 54.4559 827.444 54.4559C825.865 54.4559 824.243 54.7119 822.579 55.2239C820.915 55.7359 819.273 56.3546 817.651 57.0799L814.836 50.4879C816.67 49.5492 818.761 48.8026 821.108 48.2479C823.497 47.6932 826.099 47.4159 828.915 47.4159ZM829.172 66.9999C826.142 67.0852 824.03 67.5759 822.836 68.4719C821.641 69.3679 821.044 70.6266 821.044 72.2479C821.044 73.7412 821.449 74.8506 822.259 75.5759C823.113 76.2586 824.243 76.5999 825.651 76.5999C827.657 76.5999 829.342 76.0026 830.708 74.8079C832.116 73.6132 832.82 71.9066 832.82 69.6879V66.8079L829.172 66.9999Z" fill="url(#paint5_linear_112_4086)" fill-opacity="0.7"/>
<path d="M803.901 82.9999H794.237V34.3599H803.901V82.9999Z" fill="url(#paint6_linear_112_4086)" fill-opacity="0.7"/>
<path d="M786.88 72.6959C786.88 74.9146 786.347 76.8559 785.28 78.5199C784.256 80.1412 782.677 81.3999 780.544 82.2959C778.411 83.1919 775.701 83.6399 772.416 83.6399C769.941 83.6399 767.765 83.4692 765.888 83.1279C764.011 82.8292 762.197 82.3172 760.448 81.5919V73.5919C762.325 74.4879 764.352 75.1919 766.528 75.7039C768.704 76.2159 770.581 76.4719 772.16 76.4719C774.123 76.4719 775.531 76.1946 776.384 75.6399C777.28 75.0852 777.728 74.3386 777.728 73.3999C777.728 72.7599 777.493 72.1839 777.024 71.6719C776.597 71.1599 775.808 70.6266 774.656 70.0719C773.547 69.5172 771.947 68.8346 769.856 68.0239C767.765 67.1706 766.016 66.2959 764.608 65.3999C763.2 64.4612 762.133 63.3519 761.408 62.0719C760.725 60.7919 760.384 59.1919 760.384 57.2719C760.384 54.0719 761.643 51.6399 764.16 49.9759C766.72 48.2692 770.091 47.4159 774.272 47.4159C776.533 47.4159 778.624 47.6506 780.544 48.1199C782.507 48.5892 784.491 49.2506 786.496 50.1039L783.68 56.6959C782.059 55.9706 780.395 55.3732 778.688 54.9039C776.981 54.4346 775.467 54.1999 774.144 54.1999C772.693 54.1999 771.563 54.4346 770.752 54.9039C769.941 55.3306 769.536 55.9492 769.536 56.7599C769.536 57.3572 769.749 57.8906 770.176 58.3599C770.645 58.8292 771.435 59.3199 772.544 59.8319C773.696 60.3439 775.296 61.0052 777.344 61.8159C779.435 62.6266 781.184 63.5012 782.592 64.4399C784.043 65.3359 785.109 66.4452 785.792 67.7679C786.517 69.0479 786.88 70.6906 786.88 72.6959Z" fill="url(#paint7_linear_112_4086)" fill-opacity="0.7"/>
<path d="M740.455 47.4159C744.295 47.4159 747.324 48.4186 749.543 50.4239C751.762 52.4292 752.871 55.6932 752.871 60.2159V82.9999H743.271V62.6479C743.271 60.1306 742.802 58.2532 741.863 57.0159C740.967 55.7359 739.559 55.0959 737.639 55.0959C734.738 55.0959 732.754 56.0986 731.687 58.1039C730.663 60.0666 730.151 62.9039 730.151 66.6159V82.9999H720.487V48.0559H727.911L729.255 52.7279H729.639C730.407 51.5759 731.324 50.6159 732.391 49.8479C733.5 49.0372 734.716 48.4399 736.039 48.0559C737.404 47.6292 738.876 47.4159 740.455 47.4159Z" fill="url(#paint8_linear_112_4086)" fill-opacity="0.7"/>
<path d="M697.79 47.4159C702.185 47.4159 705.535 48.4612 707.839 50.5519C710.142 52.5999 711.294 55.6506 711.294 59.7039V82.9999H704.574L702.719 78.2639H702.462C701.481 79.5012 700.457 80.5252 699.391 81.3359C698.367 82.1466 697.172 82.7226 695.807 83.0639C694.441 83.4479 692.777 83.6399 690.815 83.6399C688.767 83.6399 686.932 83.2559 685.311 82.4879C683.689 81.6772 682.409 80.4612 681.47 78.8399C680.532 77.2186 680.062 75.1706 680.062 72.6959C680.062 69.0266 681.385 66.2746 684.031 64.4399C686.676 62.6052 690.623 61.5812 695.871 61.3679L701.695 61.1759V60.0879C701.695 57.9972 701.225 56.5466 700.286 55.7359C699.348 54.8826 698.025 54.4559 696.319 54.4559C694.74 54.4559 693.118 54.7119 691.454 55.2239C689.79 55.7359 688.148 56.3546 686.526 57.0799L683.711 50.4879C685.545 49.5492 687.636 48.8026 689.983 48.2479C692.372 47.6932 694.974 47.4159 697.79 47.4159ZM698.047 66.9999C695.017 67.0852 692.905 67.5759 691.711 68.4719C690.516 69.3679 689.919 70.6266 689.919 72.2479C689.919 73.7412 690.324 74.8506 691.134 75.5759C691.988 76.2586 693.118 76.5999 694.526 76.5999C696.532 76.5999 698.217 76.0026 699.583 74.8079C700.991 73.6132 701.695 71.9066 701.695 69.6879V66.8079L698.047 66.9999Z" fill="url(#paint9_linear_112_4086)" fill-opacity="0.7"/>
<path d="M674.128 47.4159C674.768 47.4159 675.45 47.4586 676.176 47.5439C676.944 47.5866 677.541 47.6719 677.967 47.7999L677.008 56.8239C676.538 56.7386 675.984 56.6532 675.344 56.5679C674.704 56.4826 673.936 56.4399 673.04 56.4399C672.058 56.4399 671.056 56.5892 670.032 56.8879C669.05 57.1866 668.133 57.6772 667.28 58.3599C666.426 59.0426 665.744 59.9386 665.232 61.0479C664.72 62.1572 664.464 63.5652 664.464 65.2719V82.9999H654.799V48.0559H662.16L663.568 53.9439H664.016C664.698 52.7066 665.552 51.5972 666.576 50.6159C667.6 49.6346 668.752 48.8666 670.032 48.3119C671.312 47.7146 672.677 47.4159 674.128 47.4159Z" fill="url(#paint10_linear_112_4086)" fill-opacity="0.7"/>
<path d="M639.738 82.9999H629.945V45.4319H617.594V37.3039H652.09V45.4319H639.738V82.9999Z" fill="url(#paint11_linear_112_4086)" fill-opacity="0.7"/>
<path d="M591.715 76.0239C592.781 76.0239 593.805 75.9172 594.787 75.7039C595.768 75.4906 596.749 75.2346 597.731 74.9359V82.0399C596.707 82.4666 595.427 82.8292 593.891 83.1279C592.397 83.4692 590.755 83.6399 588.963 83.6399C586.872 83.6399 584.995 83.2986 583.331 82.6159C581.709 81.9332 580.408 80.7599 579.427 79.0959C578.488 77.3892 578.019 75.0426 578.019 72.0559V55.2239H573.475V51.1919L578.723 47.9919L581.475 40.6319H587.555V48.0559H597.347V55.2239H587.555V72.0559C587.555 73.3786 587.939 74.3812 588.707 75.0639C589.475 75.7039 590.477 76.0239 591.715 76.0239Z" fill="url(#paint12_linear_112_4086)" fill-opacity="0.7"/>
<path d="M567.242 48.0559V82.9999H559.818L558.602 78.5199H558.026C557.3 79.7146 556.362 80.6959 555.21 81.4639C554.1 82.2319 552.863 82.7866 551.498 83.1279C550.175 83.4692 548.767 83.6399 547.274 83.6399C544.799 83.6399 542.623 83.1919 540.746 82.2959C538.911 81.3999 537.46 80.0132 536.394 78.1359C535.37 76.2586 534.858 73.8266 534.858 70.8399V48.0559H544.586V68.4079C544.586 70.8826 545.012 72.7599 545.866 74.0399C546.762 75.2772 548.17 75.8959 550.09 75.8959C552.052 75.8959 553.567 75.4692 554.634 74.6159C555.743 73.7199 556.511 72.4186 556.938 70.7119C557.364 69.0052 557.578 66.9146 557.578 64.4399V48.0559H567.242Z" fill="url(#paint13_linear_112_4086)" fill-opacity="0.7"/>
<path d="M514.196 47.4159C518.249 47.4159 521.449 48.9519 523.796 52.0239C526.143 55.0532 527.316 59.5332 527.316 65.4639C527.316 69.3892 526.74 72.7172 525.588 75.4479C524.479 78.1786 522.921 80.2266 520.916 81.5919C518.911 82.9572 516.585 83.6399 513.94 83.6399C512.233 83.6399 510.761 83.4266 509.524 82.9999C508.287 82.5306 507.241 81.9759 506.388 81.3359C505.577 80.6532 504.873 79.9492 504.276 79.2239H503.892C503.977 79.9919 504.063 80.8879 504.148 81.9119C504.233 82.8932 504.276 83.9172 504.276 84.9839V98.3599H494.612V48.0559H502.484L503.828 52.5999H504.276C504.916 51.6186 505.663 50.7439 506.516 49.9759C507.412 49.2079 508.479 48.5892 509.716 48.1199C510.996 47.6506 512.489 47.4159 514.196 47.4159ZM510.996 55.0959C509.375 55.0959 508.073 55.4372 507.092 56.1199C506.111 56.8026 505.407 57.8266 504.98 59.1919C504.553 60.5572 504.319 62.2852 504.276 64.3759V65.3999C504.276 67.6186 504.468 69.5172 504.852 71.0959C505.279 72.6319 505.983 73.8052 506.964 74.6159C507.988 75.4266 509.353 75.8319 511.06 75.8319C512.511 75.8319 513.705 75.4266 514.644 74.6159C515.625 73.8052 516.351 72.6319 516.82 71.0959C517.289 69.5172 517.524 67.5972 517.524 65.3359C517.524 61.8799 516.969 59.3199 515.86 57.6559C514.793 55.9492 513.172 55.0959 510.996 55.0959Z" fill="url(#paint14_linear_112_4086)" fill-opacity="0.7"/>
<path d="M472.955 47.4159C476.795 47.4159 479.824 48.4186 482.043 50.4239C484.262 52.4292 485.371 55.6932 485.371 60.2159V82.9999H475.771V62.6479C475.771 60.1306 475.302 58.2532 474.363 57.0159C473.467 55.7359 472.059 55.0959 470.139 55.0959C467.238 55.0959 465.254 56.0986 464.187 58.1039C463.163 60.0666 462.651 62.9039 462.651 66.6159V82.9999H452.987V48.0559H460.411L461.755 52.7279H462.139C462.907 51.5759 463.824 50.6159 464.891 49.8479C466 49.0372 467.216 48.4399 468.539 48.0559C469.904 47.6292 471.376 47.4159 472.955 47.4159Z" fill="url(#paint15_linear_112_4086)" fill-opacity="0.7"/>
<path d="M446.288 82.9999H425.488V77.4959L431.056 74.9359V45.3679L425.488 42.8079V37.3039H446.288V42.8079L440.72 45.3679V74.9359L446.288 77.4959V82.9999Z" fill="url(#paint16_linear_112_4086)" fill-opacity="0.7"/>
</g>
</g>
<path d="M324 72H1076V105C1076 111.627 1070.63 117 1064 117H336C329.373 117 324 111.627 324 105V72Z" fill="url(#paint17_linear_112_4086)"/>
<path d="M959.015 35.4159C962.855 35.4159 965.884 36.4186 968.103 38.4239C970.322 40.4292 971.431 43.6932 971.431 48.2159V70.9999H961.831V50.6479C961.831 48.1306 961.362 46.2532 960.423 45.0159C959.527 43.7359 958.119 43.0959 956.199 43.0959C953.298 43.0959 951.314 44.0986 950.247 46.1039C949.223 48.0666 948.711 50.9039 948.711 54.6159V70.9999H939.047V36.0559H946.471L947.815 40.7279H948.199C948.967 39.5759 949.884 38.6159 950.951 37.8479C952.06 37.0372 953.276 36.4399 954.599 36.0559C955.964 35.6292 957.436 35.4159 959.015 35.4159Z" fill="url(#paint18_linear_112_4086)"/>
<path d="M931.303 53.4639C931.303 56.3652 930.898 58.9466 930.087 61.2079C929.319 63.4692 928.188 65.3679 926.695 66.9039C925.244 68.4399 923.474 69.6132 921.383 70.4239C919.292 71.2346 916.924 71.6399 914.279 71.6399C911.804 71.6399 909.543 71.2346 907.495 70.4239C905.447 69.6132 903.676 68.4399 902.183 66.9039C900.69 65.3679 899.516 63.4692 898.663 61.2079C897.81 58.9466 897.383 56.3652 897.383 53.4639C897.383 49.5812 898.066 46.2959 899.431 43.6079C900.796 40.9199 902.759 38.8932 905.319 37.5279C907.879 36.1199 910.93 35.4159 914.471 35.4159C917.756 35.4159 920.658 36.1199 923.175 37.5279C925.692 38.8932 927.676 40.9199 929.127 43.6079C930.578 46.2959 931.303 49.5812 931.303 53.4639ZM907.239 53.4639C907.239 55.7252 907.474 57.6666 907.943 59.2879C908.455 60.9092 909.223 62.1466 910.247 62.9999C911.314 63.8532 912.7 64.2799 914.407 64.2799C916.071 64.2799 917.415 63.8532 918.439 62.9999C919.506 62.1466 920.274 60.9092 920.743 59.2879C921.212 57.6666 921.447 55.7252 921.447 53.4639C921.447 51.1599 921.191 49.2186 920.679 47.6399C920.21 46.0612 919.463 44.8666 918.439 44.0559C917.415 43.2026 916.05 42.7759 914.343 42.7759C911.868 42.7759 910.055 43.6932 908.903 45.5279C907.794 47.3626 907.239 50.0079 907.239 53.4639Z" fill="url(#paint19_linear_112_4086)"/>
<path d="M889.65 36.0559V70.9999H879.986V36.0559H889.65ZM884.85 22.2959C886.258 22.2959 887.474 22.6372 888.498 23.3199C889.565 23.9599 890.098 25.1972 890.098 27.0319C890.098 28.7812 889.565 29.9972 888.498 30.6799C887.474 31.3626 886.258 31.7039 884.85 31.7039C883.399 31.7039 882.162 31.3626 881.138 30.6799C880.114 29.9972 879.602 28.7812 879.602 27.0319C879.602 25.1972 880.114 23.9599 881.138 23.3199C882.162 22.6372 883.399 22.2959 884.85 22.2959Z" fill="url(#paint20_linear_112_4086)"/>
<path d="M867.212 64.0239C868.279 64.0239 869.303 63.9172 870.284 63.7039C871.265 63.4906 872.247 63.2346 873.228 62.9359V70.0399C872.204 70.4666 870.924 70.8292 869.388 71.1279C867.895 71.4692 866.252 71.6399 864.46 71.6399C862.369 71.6399 860.492 71.2986 858.828 70.6159C857.207 69.9332 855.905 68.7599 854.924 67.0959C853.985 65.3892 853.516 63.0426 853.516 60.0559V43.2239H848.972V39.1919L854.22 35.9919L856.972 28.6319H863.052V36.0559H872.844V43.2239H863.052V60.0559C863.052 61.3786 863.436 62.3812 864.204 63.0639C864.972 63.7039 865.975 64.0239 867.212 64.0239Z" fill="url(#paint21_linear_112_4086)"/>
<path d="M829.475 35.4159C833.87 35.4159 837.219 36.4612 839.523 38.5519C841.827 40.5999 842.979 43.6506 842.979 47.7039V70.9999H836.259L834.404 66.2639H834.147C833.166 67.5012 832.142 68.5252 831.076 69.3359C830.052 70.1466 828.857 70.7226 827.492 71.0639C826.126 71.4479 824.462 71.6399 822.5 71.6399C820.452 71.6399 818.617 71.2559 816.996 70.4879C815.374 69.6772 814.094 68.4612 813.155 66.8399C812.217 65.2186 811.747 63.1706 811.747 60.6959C811.747 57.0266 813.07 54.2746 815.716 52.4399C818.361 50.6052 822.308 49.5812 827.556 49.3679L833.38 49.1759V48.0879C833.38 45.9972 832.91 44.5466 831.971 43.7359C831.033 42.8826 829.71 42.4559 828.004 42.4559C826.425 42.4559 824.803 42.7119 823.139 43.2239C821.475 43.7359 819.833 44.3546 818.211 45.0799L815.396 38.4879C817.23 37.5492 819.321 36.8026 821.668 36.2479C824.057 35.6932 826.659 35.4159 829.475 35.4159ZM829.732 54.9999C826.702 55.0852 824.59 55.5759 823.396 56.4719C822.201 57.3679 821.604 58.6266 821.604 60.2479C821.604 61.7412 822.009 62.8506 822.819 63.5759C823.673 64.2586 824.803 64.5999 826.211 64.5999C828.217 64.5999 829.902 64.0026 831.268 62.8079C832.676 61.6132 833.38 59.9066 833.38 57.6879V54.8079L829.732 54.9999Z" fill="url(#paint22_linear_112_4086)"/>
<path d="M804.461 70.9999H794.797V22.3599H804.461V70.9999Z" fill="url(#paint23_linear_112_4086)"/>
<path d="M787.44 60.6959C787.44 62.9146 786.907 64.8559 785.84 66.5199C784.816 68.1412 783.237 69.3999 781.104 70.2959C778.971 71.1919 776.261 71.6399 772.976 71.6399C770.501 71.6399 768.325 71.4692 766.448 71.1279C764.571 70.8292 762.757 70.3172 761.008 69.5919V61.5919C762.885 62.4879 764.912 63.1919 767.088 63.7039C769.264 64.2159 771.141 64.4719 772.72 64.4719C774.683 64.4719 776.091 64.1946 776.944 63.6399C777.84 63.0852 778.288 62.3386 778.288 61.3999C778.288 60.7599 778.053 60.1839 777.584 59.6719C777.157 59.1599 776.368 58.6266 775.216 58.0719C774.107 57.5172 772.507 56.8346 770.416 56.0239C768.325 55.1706 766.576 54.2959 765.168 53.3999C763.76 52.4612 762.693 51.3519 761.968 50.0719C761.285 48.7919 760.944 47.1919 760.944 45.2719C760.944 42.0719 762.203 39.6399 764.72 37.9759C767.28 36.2692 770.651 35.4159 774.832 35.4159C777.093 35.4159 779.184 35.6506 781.104 36.1199C783.067 36.5892 785.051 37.2506 787.056 38.1039L784.24 44.6959C782.619 43.9706 780.955 43.3732 779.248 42.9039C777.541 42.4346 776.027 42.1999 774.704 42.1999C773.253 42.1999 772.123 42.4346 771.312 42.9039C770.501 43.3306 770.096 43.9492 770.096 44.7599C770.096 45.3572 770.309 45.8906 770.736 46.3599C771.205 46.8292 771.995 47.3199 773.104 47.8319C774.256 48.3439 775.856 49.0052 777.904 49.8159C779.995 50.6266 781.744 51.5012 783.152 52.4399C784.603 53.3359 785.669 54.4452 786.352 55.7679C787.077 57.0479 787.44 58.6906 787.44 60.6959Z" fill="url(#paint24_linear_112_4086)"/>
<path d="M741.015 35.4159C744.855 35.4159 747.884 36.4186 750.103 38.4239C752.322 40.4292 753.431 43.6932 753.431 48.2159V70.9999H743.831V50.6479C743.831 48.1306 743.362 46.2532 742.423 45.0159C741.527 43.7359 740.119 43.0959 738.199 43.0959C735.298 43.0959 733.314 44.0986 732.247 46.1039C731.223 48.0666 730.711 50.9039 730.711 54.6159V70.9999H721.047V36.0559H728.471L729.815 40.7279H730.199C730.967 39.5759 731.884 38.6159 732.951 37.8479C734.06 37.0372 735.276 36.4399 736.599 36.0559C737.964 35.6292 739.436 35.4159 741.015 35.4159Z" fill="url(#paint25_linear_112_4086)"/>
<path d="M698.35 35.4159C702.745 35.4159 706.094 36.4612 708.398 38.5519C710.702 40.5999 711.854 43.6506 711.854 47.7039V70.9999H705.134L703.279 66.2639H703.022C702.041 67.5012 701.017 68.5252 699.951 69.3359C698.927 70.1466 697.732 70.7226 696.367 71.0639C695.001 71.4479 693.337 71.6399 691.375 71.6399C689.327 71.6399 687.492 71.2559 685.871 70.4879C684.249 69.6772 682.969 68.4612 682.03 66.8399C681.092 65.2186 680.622 63.1706 680.622 60.6959C680.622 57.0266 681.945 54.2746 684.591 52.4399C687.236 50.6052 691.183 49.5812 696.431 49.3679L702.255 49.1759V48.0879C702.255 45.9972 701.785 44.5466 700.846 43.7359C699.908 42.8826 698.585 42.4559 696.879 42.4559C695.3 42.4559 693.678 42.7119 692.014 43.2239C690.35 43.7359 688.708 44.3546 687.086 45.0799L684.271 38.4879C686.105 37.5492 688.196 36.8026 690.543 36.2479C692.932 35.6932 695.534 35.4159 698.35 35.4159ZM698.607 54.9999C695.577 55.0852 693.465 55.5759 692.271 56.4719C691.076 57.3679 690.479 58.6266 690.479 60.2479C690.479 61.7412 690.884 62.8506 691.694 63.5759C692.548 64.2586 693.678 64.5999 695.086 64.5999C697.092 64.5999 698.777 64.0026 700.143 62.8079C701.551 61.6132 702.255 59.9066 702.255 57.6879V54.8079L698.607 54.9999Z" fill="url(#paint26_linear_112_4086)"/>
<path d="M674.688 35.4159C675.327 35.4159 676.01 35.4586 676.736 35.5439C677.504 35.5866 678.101 35.6719 678.527 35.7999L677.568 44.8239C677.098 44.7386 676.544 44.6532 675.904 44.5679C675.264 44.4826 674.496 44.4399 673.6 44.4399C672.618 44.4399 671.616 44.5892 670.592 44.8879C669.61 45.1866 668.693 45.6772 667.84 46.3599C666.986 47.0426 666.304 47.9386 665.792 49.0479C665.28 50.1572 665.023 51.5652 665.023 53.2719V70.9999H655.359V36.0559H662.719L664.128 41.9439H664.576C665.258 40.7066 666.111 39.5972 667.135 38.6159C668.159 37.6346 669.312 36.8666 670.592 36.3119C671.872 35.7146 673.237 35.4159 674.688 35.4159Z" fill="url(#paint27_linear_112_4086)"/>
<path d="M640.298 70.9999H630.505V33.4319H618.154V25.3039H652.65V33.4319H640.298V70.9999Z" fill="url(#paint28_linear_112_4086)"/>
<path d="M592.275 64.0239C593.341 64.0239 594.365 63.9172 595.347 63.7039C596.328 63.4906 597.309 63.2346 598.291 62.9359V70.0399C597.267 70.4666 595.987 70.8292 594.451 71.1279C592.957 71.4692 591.315 71.6399 589.523 71.6399C587.432 71.6399 585.555 71.2986 583.891 70.6159C582.269 69.9332 580.968 68.7599 579.987 67.0959C579.048 65.3892 578.579 63.0426 578.579 60.0559V43.2239H574.035V39.1919L579.283 35.9919L582.035 28.6319H588.115V36.0559H597.907V43.2239H588.115V60.0559C588.115 61.3786 588.499 62.3812 589.267 63.0639C590.035 63.7039 591.037 64.0239 592.275 64.0239Z" fill="url(#paint29_linear_112_4086)"/>
<path d="M567.802 36.0559V70.9999H560.378L559.162 66.5199H558.586C557.86 67.7146 556.922 68.6959 555.77 69.4639C554.66 70.2319 553.423 70.7866 552.058 71.1279C550.735 71.4692 549.327 71.6399 547.834 71.6399C545.359 71.6399 543.183 71.1919 541.306 70.2959C539.471 69.3999 538.02 68.0132 536.954 66.1359C535.93 64.2586 535.418 61.8266 535.418 58.8399V36.0559H545.146V56.4079C545.146 58.8826 545.572 60.7599 546.426 62.0399C547.322 63.2772 548.73 63.8959 550.65 63.8959C552.612 63.8959 554.127 63.4692 555.194 62.6159C556.303 61.7199 557.071 60.4186 557.498 58.7119C557.924 57.0052 558.138 54.9146 558.138 52.4399V36.0559H567.802Z" fill="url(#paint30_linear_112_4086)"/>
<path d="M514.756 35.4159C518.809 35.4159 522.009 36.9519 524.356 40.0239C526.703 43.0532 527.876 47.5332 527.876 53.4639C527.876 57.3892 527.3 60.7172 526.148 63.4479C525.039 66.1786 523.481 68.2266 521.476 69.5919C519.471 70.9572 517.145 71.6399 514.5 71.6399C512.793 71.6399 511.321 71.4266 510.084 70.9999C508.847 70.5306 507.801 69.9759 506.948 69.3359C506.137 68.6532 505.433 67.9492 504.836 67.2239H504.452C504.537 67.9919 504.623 68.8879 504.708 69.9119C504.793 70.8932 504.836 71.9172 504.836 72.9839V86.3599H495.172V36.0559H503.044L504.388 40.5999H504.836C505.476 39.6186 506.223 38.7439 507.076 37.9759C507.972 37.2079 509.039 36.5892 510.276 36.1199C511.556 35.6506 513.049 35.4159 514.756 35.4159ZM511.556 43.0959C509.935 43.0959 508.633 43.4372 507.652 44.1199C506.671 44.8026 505.967 45.8266 505.54 47.1919C505.113 48.5572 504.879 50.2852 504.836 52.3759V53.3999C504.836 55.6186 505.028 57.5172 505.412 59.0959C505.839 60.6319 506.543 61.8052 507.524 62.6159C508.548 63.4266 509.913 63.8319 511.62 63.8319C513.071 63.8319 514.265 63.4266 515.204 62.6159C516.185 61.8052 516.911 60.6319 517.38 59.0959C517.849 57.5172 518.084 55.5972 518.084 53.3359C518.084 49.8799 517.529 47.3199 516.42 45.6559C515.353 43.9492 513.732 43.0959 511.556 43.0959Z" fill="url(#paint31_linear_112_4086)"/>
<path d="M473.515 35.4159C477.355 35.4159 480.384 36.4186 482.603 38.4239C484.822 40.4292 485.931 43.6932 485.931 48.2159V70.9999H476.331V50.6479C476.331 48.1306 475.862 46.2532 474.923 45.0159C474.027 43.7359 472.619 43.0959 470.699 43.0959C467.798 43.0959 465.814 44.0986 464.747 46.1039C463.723 48.0666 463.211 50.9039 463.211 54.6159V70.9999H453.547V36.0559H460.971L462.315 40.7279H462.699C463.467 39.5759 464.384 38.6159 465.451 37.8479C466.56 37.0372 467.776 36.4399 469.099 36.0559C470.464 35.6292 471.936 35.4159 473.515 35.4159Z" fill="url(#paint32_linear_112_4086)"/>
<path d="M446.848 70.9999H426.048V65.4959L431.616 62.9359V33.3679L426.048 30.8079V25.3039H446.848V30.8079L441.28 33.3679V62.9359L446.848 65.4959V70.9999Z" fill="url(#paint33_linear_112_4086)"/>
<defs>
<filter id="filter0_f_112_4086" x="405.488" y="14.2959" width="585.383" height="104.064" filterUnits="userSpaceOnUse" color-interpolation-filters="sRGB">
<feFlood flood-opacity="0" result="BackgroundImageFix"/>
<feBlend mode="normal" in="SourceGraphic" in2="BackgroundImageFix" result="shape"/>
<feGaussianBlur stdDeviation="10" result="effect1_foregroundBlur_112_4086"/>
</filter>
<linearGradient id="paint0_linear_112_4086" x1="324" y1="64.0036" x2="1076" y2="64.0029" gradientUnits="userSpaceOnUse">
<stop stop-color="white" stop-opacity="0.3"/>
<stop offset="0.495" stop-color="#CBB0F8"/>
<stop offset="1" stop-color="white" stop-opacity="0.3"/>
</linearGradient>
<linearGradient id="paint1_linear_112_4086" x1="1047.82" y1="54.2511" x2="-8248.47" y2="54.2602" gradientUnits="userSpaceOnUse">
<stop stop-color="#F4439F"/>
<stop offset="1" stop-color="#7C3AED"/>
</linearGradient>
<linearGradient id="paint2_linear_112_4086" x1="1689.53" y1="53.8985" x2="-7185.8" y2="53.907" gradientUnits="userSpaceOnUse">
<stop stop-color="#F4439F"/>
<stop offset="1" stop-color="#7C3AED"/>
</linearGradient>
<linearGradient id="paint3_linear_112_4086" x1="5434.43" y1="66.1333" x2="-23248.1" y2="66.2523" gradientUnits="userSpaceOnUse">
<stop stop-color="#F4439F"/>
<stop offset="1" stop-color="#7C3AED"/>
</linearGradient>
<linearGradient id="paint4_linear_112_4086" x1="3281.64" y1="60.9118" x2="-9129.77" y2="60.9315" gradientUnits="userSpaceOnUse">
<stop stop-color="#F4439F"/>
<stop offset="1" stop-color="#7C3AED"/>
</linearGradient>
<linearGradient id="paint5_linear_112_4086" x1="3293.72" y1="53.8985" x2="-6345.48" y2="53.9085" gradientUnits="userSpaceOnUse">
<stop stop-color="#F4439F"/>
<stop offset="1" stop-color="#7C3AED"/>
</linearGradient>
<linearGradient id="paint6_linear_112_4086" x1="10651.6" y1="66.0908" x2="-20500.3" y2="66.231" gradientUnits="userSpaceOnUse">
<stop stop-color="#F4439F"/>
<stop offset="1" stop-color="#7C3AED"/>
</linearGradient>
<linearGradient id="paint7_linear_112_4086" x1="4852.11" y1="53.8985" x2="-6510.03" y2="53.9124" gradientUnits="userSpaceOnUse">
<stop stop-color="#F4439F"/>
<stop offset="1" stop-color="#7C3AED"/>
</linearGradient>
<linearGradient id="paint8_linear_112_4086" x1="4719.18" y1="54.2511" x2="-4577.12" y2="54.2602" gradientUnits="userSpaceOnUse">
<stop stop-color="#F4439F"/>
<stop offset="1" stop-color="#7C3AED"/>
</linearGradient>
<linearGradient id="paint9_linear_112_4086" x1="5583.46" y1="53.8986" x2="-4055.74" y2="53.9086" gradientUnits="userSpaceOnUse">
<stop stop-color="#F4439F"/>
<stop offset="1" stop-color="#7C3AED"/>
</linearGradient>
<linearGradient id="paint10_linear_112_4086" x1="7973.48" y1="54.2512" x2="-5020.8" y2="54.269" gradientUnits="userSpaceOnUse">
<stop stop-color="#F4439F"/>
<stop offset="1" stop-color="#7C3AED"/>
</linearGradient>
<linearGradient id="paint11_linear_112_4086" x1="6083.05" y1="64.0119" x2="-2644.09" y2="64.0222" gradientUnits="userSpaceOnUse">
<stop stop-color="#F4439F"/>
<stop offset="1" stop-color="#7C3AED"/>
</linearGradient>
<linearGradient id="paint12_linear_112_4086" x1="9463.47" y1="60.9118" x2="-2947.96" y2="60.9315" gradientUnits="userSpaceOnUse">
<stop stop-color="#F4439F"/>
<stop offset="1" stop-color="#7C3AED"/>
</linearGradient>
<linearGradient id="paint13_linear_112_4086" x1="7845.39" y1="53.0988" x2="-1450.91" y2="53.108" gradientUnits="userSpaceOnUse">
<stop stop-color="#F4439F"/>
<stop offset="1" stop-color="#7C3AED"/>
</linearGradient>
<linearGradient id="paint14_linear_112_4086" x1="8443.94" y1="48.2345" x2="-761.4" y2="48.2473" gradientUnits="userSpaceOnUse">
<stop stop-color="#F4439F"/>
<stop offset="1" stop-color="#7C3AED"/>
</linearGradient>
<linearGradient id="paint15_linear_112_4086" x1="9224.18" y1="54.2511" x2="-72.1167" y2="54.2603" gradientUnits="userSpaceOnUse">
<stop stop-color="#F4439F"/>
<stop offset="1" stop-color="#7C3AED"/>
</linearGradient>
<linearGradient id="paint16_linear_112_4086" x1="975.44" y1="58.4997" x2="423.44" y2="58.4998" gradientUnits="userSpaceOnUse">
<stop stop-color="#F4439F"/>
<stop offset="1" stop-color="#7C3AED"/>
</linearGradient>
<linearGradient id="paint17_linear_112_4086" x1="700" y1="72" x2="700" y2="117" gradientUnits="userSpaceOnUse">
<stop offset="0.0001" stop-color="white" stop-opacity="0.1"/>
<stop offset="1" stop-color="white" stop-opacity="0"/>
</linearGradient>
<linearGradient id="paint18_linear_112_4086" x1="1048.38" y1="-36.0646" x2="531.232" y2="2155.78" gradientUnits="userSpaceOnUse">
<stop stop-color="#F4439F"/>
<stop offset="1" stop-color="#7C3AED"/>
</linearGradient>
<linearGradient id="paint19_linear_112_4086" x1="1690.09" y1="-35.0335" x2="1169" y2="2111.44" gradientUnits="userSpaceOnUse">
<stop stop-color="#F4439F"/>
<stop offset="1" stop-color="#7C3AED"/>
</linearGradient>
<linearGradient id="paint20_linear_112_4086" x1="5434.99" y1="-3.08558" x2="5340.83" y2="1682.2" gradientUnits="userSpaceOnUse">
<stop stop-color="#F4439F"/>
<stop offset="1" stop-color="#7C3AED"/>
</linearGradient>
<linearGradient id="paint21_linear_112_4086" x1="3282.2" y1="-15.8851" x2="3008.14" y2="1858.49" gradientUnits="userSpaceOnUse">
<stop stop-color="#F4439F"/>
<stop offset="1" stop-color="#7C3AED"/>
</linearGradient>
<linearGradient id="paint22_linear_112_4086" x1="3294.28" y1="-35.0334" x2="2810.38" y2="2129.78" gradientUnits="userSpaceOnUse">
<stop stop-color="#F4439F"/>
<stop offset="1" stop-color="#7C3AED"/>
</linearGradient>
<linearGradient id="paint23_linear_112_4086" x1="10652.1" y1="-3.20328" x2="10565.2" y2="1685.09" gradientUnits="userSpaceOnUse">
<stop stop-color="#F4439F"/>
<stop offset="1" stop-color="#7C3AED"/>
</linearGradient>
<linearGradient id="paint24_linear_112_4086" x1="4852.67" y1="-35.0335" x2="4436.61" y2="2159.05" gradientUnits="userSpaceOnUse">
<stop stop-color="#F4439F"/>
<stop offset="1" stop-color="#7C3AED"/>
</linearGradient>
<linearGradient id="paint25_linear_112_4086" x1="4719.74" y1="-36.0645" x2="4202.6" y2="2155.78" gradientUnits="userSpaceOnUse">
<stop stop-color="#F4439F"/>
<stop offset="1" stop-color="#7C3AED"/>
</linearGradient>
<linearGradient id="paint26_linear_112_4086" x1="5584.02" y1="-35.0335" x2="5100.13" y2="2129.78" gradientUnits="userSpaceOnUse">
<stop stop-color="#F4439F"/>
<stop offset="1" stop-color="#7C3AED"/>
</linearGradient>
<linearGradient id="paint27_linear_112_4086" x1="7974.04" y1="-36.0645" x2="7594.29" y2="2213.7" gradientUnits="userSpaceOnUse">
<stop stop-color="#F4439F"/>
<stop offset="1" stop-color="#7C3AED"/>
</linearGradient>
<linearGradient id="paint28_linear_112_4086" x1="6083.61" y1="-8.97345" x2="5743.98" y2="1726.39" gradientUnits="userSpaceOnUse">
<stop stop-color="#F4439F"/>
<stop offset="1" stop-color="#7C3AED"/>
</linearGradient>
<linearGradient id="paint29_linear_112_4086" x1="9464.03" y1="-15.8851" x2="9189.96" y2="1858.49" gradientUnits="userSpaceOnUse">
<stop stop-color="#F4439F"/>
<stop offset="1" stop-color="#7C3AED"/>
</linearGradient>
<linearGradient id="paint30_linear_112_4086" x1="7845.95" y1="-37.2168" x2="7328.81" y2="2154.63" gradientUnits="userSpaceOnUse">
<stop stop-color="#F4439F"/>
<stop offset="1" stop-color="#7C3AED"/>
</linearGradient>
<linearGradient id="paint31_linear_112_4086" x1="8444.5" y1="-18.4685" x2="8182.76" y2="1554.18" gradientUnits="userSpaceOnUse">
<stop stop-color="#F4439F"/>
<stop offset="1" stop-color="#7C3AED"/>
</linearGradient>
<linearGradient id="paint32_linear_112_4086" x1="9224.74" y1="-36.0646" x2="8707.6" y2="2155.78" gradientUnits="userSpaceOnUse">
<stop stop-color="#F4439F"/>
<stop offset="1" stop-color="#7C3AED"/>
</linearGradient>
<linearGradient id="paint33_linear_112_4086" x1="976" y1="2.99971" x2="492.862" y2="221.905" gradientUnits="userSpaceOnUse">
<stop stop-color="#F4439F"/>
<stop offset="1" stop-color="#7C3AED"/>
</linearGradient>
</defs>
</svg>
