<svg width="1400" height="120" viewBox="0 0 1400 120" fill="none" xmlns="http://www.w3.org/2000/svg">
<path d="M261 56H1140V72H261V56Z" fill="url(#paint0_linear_112_4142)"/>
<mask id="mask0_112_4142" style="mask-type:alpha" maskUnits="userSpaceOnUse" x="261" y="72" width="879" height="45">
<path d="M261 72H1140V117H261V72Z" fill="#C4C4C4"/>
</mask>
<g mask="url(#mask0_112_4142)">
<g filter="url(#filter0_f_112_4142)">
<path d="M1055.96 72.6959C1055.96 74.9146 1055.42 76.8559 1054.36 78.5199C1053.33 80.1412 1051.75 81.3999 1049.62 82.2959C1047.49 83.1919 1044.78 83.6399 1041.49 83.6399C1039.02 83.6399 1036.84 83.4692 1034.96 83.1279C1033.09 82.8292 1031.27 82.3172 1029.52 81.5919V73.5919C1031.4 74.4879 1033.43 75.1919 1035.6 75.7039C1037.78 76.2159 1039.66 76.4719 1041.24 76.4719C1043.2 76.4719 1044.61 76.1946 1045.46 75.6399C1046.36 75.0852 1046.8 74.3386 1046.8 73.3999C1046.8 72.7599 1046.57 72.1839 1046.1 71.6719C1045.67 71.1599 1044.88 70.6266 1043.73 70.0719C1042.62 69.5172 1041.02 68.8346 1038.93 68.0239C1036.84 67.1706 1035.09 66.2959 1033.68 65.3999C1032.28 64.4612 1031.21 63.3519 1030.48 62.0719C1029.8 60.7919 1029.46 59.1919 1029.46 57.2719C1029.46 54.0719 1030.72 51.6399 1033.24 49.9759C1035.8 48.2692 1039.17 47.4159 1043.35 47.4159C1045.61 47.4159 1047.7 47.6506 1049.62 48.1199C1051.58 48.5892 1053.57 49.2506 1055.57 50.1039L1052.76 56.6959C1051.13 55.9706 1049.47 55.3732 1047.76 54.9039C1046.06 54.4346 1044.54 54.1999 1043.22 54.1999C1041.77 54.1999 1040.64 54.4346 1039.83 54.9039C1039.02 55.3306 1038.61 55.9492 1038.61 56.7599C1038.61 57.3572 1038.83 57.8906 1039.25 58.3599C1039.72 58.8292 1040.51 59.3199 1041.62 59.8319C1042.77 60.3439 1044.37 61.0052 1046.42 61.8159C1048.51 62.6266 1050.26 63.5012 1051.67 64.4399C1053.12 65.3359 1054.19 66.4452 1054.87 67.7679C1055.59 69.0479 1055.96 70.6906 1055.96 72.6959Z" fill="url(#paint1_linear_112_4142)" fill-opacity="0.7"/>
<path d="M1021.79 82.9999H1012.13V34.3599H1021.79V82.9999Z" fill="url(#paint2_linear_112_4142)" fill-opacity="0.7"/>
<path d="M1004.38 65.4639C1004.38 68.3652 1003.98 70.9466 1003.17 73.2079C1002.4 75.4692 1001.27 77.3679 999.774 78.9039C998.323 80.4399 996.552 81.6132 994.462 82.4239C992.371 83.2346 990.003 83.6399 987.358 83.6399C984.883 83.6399 982.622 83.2346 980.574 82.4239C978.526 81.6132 976.755 80.4399 975.262 78.9039C973.768 77.3679 972.595 75.4692 971.742 73.2079C970.888 70.9466 970.462 68.3652 970.462 65.4639C970.462 61.5812 971.144 58.2959 972.51 55.6079C973.875 52.9199 975.838 50.8932 978.398 49.5279C980.958 48.1199 984.008 47.4159 987.55 47.4159C990.835 47.4159 993.736 48.1199 996.254 49.5279C998.771 50.8932 1000.75 52.9199 1002.21 55.6079C1003.66 58.2959 1004.38 61.5812 1004.38 65.4639ZM980.318 65.4639C980.318 67.7252 980.552 69.6666 981.022 71.2879C981.534 72.9092 982.302 74.1466 983.326 74.9999C984.392 75.8532 985.779 76.2799 987.486 76.2799C989.15 76.2799 990.494 75.8532 991.518 74.9999C992.584 74.1466 993.352 72.9092 993.822 71.2879C994.291 69.6666 994.526 67.7252 994.526 65.4639C994.526 63.1599 994.27 61.2186 993.758 59.6399C993.288 58.0612 992.542 56.8666 991.518 56.0559C990.494 55.2026 989.128 54.7759 987.422 54.7759C984.947 54.7759 983.134 55.6932 981.982 57.5279C980.872 59.3626 980.318 62.0079 980.318 65.4639Z" fill="url(#paint3_linear_112_4142)" fill-opacity="0.7"/>
<path d="M964.382 65.4639C964.382 68.3652 963.976 70.9466 963.166 73.2079C962.398 75.4692 961.267 77.3679 959.774 78.9039C958.323 80.4399 956.552 81.6132 954.462 82.4239C952.371 83.2346 950.003 83.6399 947.358 83.6399C944.883 83.6399 942.622 83.2346 940.574 82.4239C938.526 81.6132 936.755 80.4399 935.262 78.9039C933.768 77.3679 932.595 75.4692 931.742 73.2079C930.888 70.9466 930.462 68.3652 930.462 65.4639C930.462 61.5812 931.144 58.2959 932.51 55.6079C933.875 52.9199 935.838 50.8932 938.398 49.5279C940.958 48.1199 944.008 47.4159 947.55 47.4159C950.835 47.4159 953.736 48.1199 956.254 49.5279C958.771 50.8932 960.755 52.9199 962.206 55.6079C963.656 58.2959 964.382 61.5812 964.382 65.4639ZM940.318 65.4639C940.318 67.7252 940.552 69.6666 941.022 71.2879C941.534 72.9092 942.302 74.1466 943.326 74.9999C944.392 75.8532 945.779 76.2799 947.486 76.2799C949.15 76.2799 950.494 75.8532 951.518 74.9999C952.584 74.1466 953.352 72.9092 953.822 71.2879C954.291 69.6666 954.526 67.7252 954.526 65.4639C954.526 63.1599 954.27 61.2186 953.758 59.6399C953.288 58.0612 952.542 56.8666 951.518 56.0559C950.494 55.2026 949.128 54.7759 947.422 54.7759C944.947 54.7759 943.134 55.6932 941.982 57.5279C940.872 59.3626 940.318 62.0079 940.318 65.4639Z" fill="url(#paint4_linear_112_4142)" fill-opacity="0.7"/>
<path d="M918.376 82.9999H908.584V45.4319H896.232V37.3039H930.728V45.4319H918.376V82.9999Z" fill="url(#paint5_linear_112_4142)" fill-opacity="0.7"/>
<path d="M861.406 47.4159C865.246 47.4159 868.275 48.4186 870.494 50.4239C872.713 52.4292 873.822 55.6932 873.822 60.2159V82.9999H864.222V62.6479C864.222 60.1306 863.753 58.2532 862.814 57.0159C861.918 55.7359 860.51 55.0959 858.59 55.0959C855.689 55.0959 853.705 56.0986 852.638 58.1039C851.614 60.0666 851.102 62.9039 851.102 66.6159V82.9999H841.438V48.0559H848.862L850.206 52.7279H850.59C851.358 51.5759 852.275 50.6159 853.342 49.8479C854.451 49.0372 855.667 48.4399 856.99 48.0559C858.355 47.6292 859.827 47.4159 861.406 47.4159Z" fill="url(#paint6_linear_112_4142)" fill-opacity="0.7"/>
<path d="M833.694 65.4639C833.694 68.3652 833.289 70.9466 832.478 73.2079C831.71 75.4692 830.579 77.3679 829.086 78.9039C827.635 80.4399 825.865 81.6132 823.774 82.4239C821.683 83.2346 819.315 83.6399 816.67 83.6399C814.195 83.6399 811.934 83.2346 809.886 82.4239C807.838 81.6132 806.067 80.4399 804.574 78.9039C803.081 77.3679 801.907 75.4692 801.054 73.2079C800.201 70.9466 799.774 68.3652 799.774 65.4639C799.774 61.5812 800.457 58.2959 801.822 55.6079C803.187 52.9199 805.15 50.8932 807.71 49.5279C810.27 48.1199 813.321 47.4159 816.862 47.4159C820.147 47.4159 823.049 48.1199 825.566 49.5279C828.083 50.8932 830.067 52.9199 831.518 55.6079C832.969 58.2959 833.694 61.5812 833.694 65.4639ZM809.63 65.4639C809.63 67.7252 809.865 69.6666 810.334 71.2879C810.846 72.9092 811.614 74.1466 812.638 74.9999C813.705 75.8532 815.091 76.2799 816.798 76.2799C818.462 76.2799 819.806 75.8532 820.83 74.9999C821.897 74.1466 822.665 72.9092 823.134 71.2879C823.603 69.6666 823.838 67.7252 823.838 65.4639C823.838 63.1599 823.582 61.2186 823.07 59.6399C822.601 58.0612 821.854 56.8666 820.83 56.0559C819.806 55.2026 818.441 54.7759 816.734 54.7759C814.259 54.7759 812.446 55.6932 811.294 57.5279C810.185 59.3626 809.63 62.0079 809.63 65.4639Z" fill="url(#paint7_linear_112_4142)" fill-opacity="0.7"/>
<path d="M792.041 48.0559V82.9999H782.377V48.0559H792.041ZM787.241 34.2959C788.649 34.2959 789.865 34.6372 790.889 35.3199C791.956 35.9599 792.489 37.1972 792.489 39.0319C792.489 40.7812 791.956 41.9972 790.889 42.6799C789.865 43.3626 788.649 43.7039 787.241 43.7039C785.79 43.7039 784.553 43.3626 783.529 42.6799C782.505 41.9972 781.993 40.7812 781.993 39.0319C781.993 37.1972 782.505 35.9599 783.529 35.3199C784.553 34.6372 785.79 34.2959 787.241 34.2959Z" fill="url(#paint8_linear_112_4142)" fill-opacity="0.7"/>
<path d="M769.603 76.0239C770.67 76.0239 771.694 75.9172 772.675 75.7039C773.656 75.4906 774.638 75.2346 775.619 74.9359V82.0399C774.595 82.4666 773.315 82.8292 771.779 83.1279C770.286 83.4692 768.643 83.6399 766.851 83.6399C764.76 83.6399 762.883 83.2986 761.219 82.6159C759.598 81.9332 758.296 80.7599 757.315 79.0959C756.376 77.3892 755.907 75.0426 755.907 72.0559V55.2239H751.363V51.1919L756.611 47.9919L759.363 40.6319H765.443V48.0559H775.235V55.2239H765.443V72.0559C765.443 73.3786 765.827 74.3812 766.595 75.0639C767.363 75.7039 768.366 76.0239 769.603 76.0239Z" fill="url(#paint9_linear_112_4142)" fill-opacity="0.7"/>
<path d="M731.867 47.4159C736.261 47.4159 739.611 48.4612 741.915 50.5519C744.219 52.5999 745.371 55.6506 745.371 59.7039V82.9999H738.651L736.795 78.2639H736.539C735.557 79.5012 734.533 80.5252 733.467 81.3359C732.443 82.1466 731.248 82.7226 729.883 83.0639C728.517 83.4479 726.853 83.6399 724.891 83.6399C722.843 83.6399 721.008 83.2559 719.387 82.4879C717.765 81.6772 716.485 80.4612 715.547 78.8399C714.608 77.2186 714.139 75.1706 714.139 72.6959C714.139 69.0266 715.461 66.2746 718.107 64.4399C720.752 62.6052 724.699 61.5812 729.947 61.3679L735.771 61.1759V60.0879C735.771 57.9972 735.301 56.5466 734.363 55.7359C733.424 54.8826 732.101 54.4559 730.395 54.4559C728.816 54.4559 727.195 54.7119 725.531 55.2239C723.867 55.7359 722.224 56.3546 720.603 57.0799L717.787 50.4879C719.621 49.5492 721.712 48.8026 724.059 48.2479C726.448 47.6932 729.051 47.4159 731.867 47.4159ZM732.123 66.9999C729.093 67.0852 726.981 67.5759 725.787 68.4719C724.592 69.3679 723.995 70.6266 723.995 72.2479C723.995 73.7412 724.4 74.8506 725.211 75.5759C726.064 76.2586 727.195 76.5999 728.603 76.5999C730.608 76.5999 732.293 76.0026 733.659 74.8079C735.067 73.6132 735.771 71.9066 735.771 69.6879V66.8079L732.123 66.9999Z" fill="url(#paint10_linear_112_4142)" fill-opacity="0.7"/>
<path d="M706.852 82.9999H697.188V34.3599H706.852V82.9999Z" fill="url(#paint11_linear_112_4142)" fill-opacity="0.7"/>
<path d="M689.831 72.6959C689.831 74.9146 689.298 76.8559 688.231 78.5199C687.207 80.1412 685.628 81.3999 683.495 82.2959C681.362 83.1919 678.652 83.6399 675.367 83.6399C672.892 83.6399 670.716 83.4692 668.839 83.1279C666.962 82.8292 665.148 82.3172 663.399 81.5919V73.5919C665.276 74.4879 667.303 75.1919 669.479 75.7039C671.655 76.2159 673.532 76.4719 675.111 76.4719C677.074 76.4719 678.482 76.1946 679.335 75.6399C680.231 75.0852 680.679 74.3386 680.679 73.3999C680.679 72.7599 680.444 72.1839 679.975 71.6719C679.548 71.1599 678.759 70.6266 677.607 70.0719C676.498 69.5172 674.898 68.8346 672.807 68.0239C670.716 67.1706 668.967 66.2959 667.559 65.3999C666.151 64.4612 665.084 63.3519 664.359 62.0719C663.676 60.7919 663.335 59.1919 663.335 57.2719C663.335 54.0719 664.594 51.6399 667.111 49.9759C669.671 48.2692 673.042 47.4159 677.223 47.4159C679.484 47.4159 681.575 47.6506 683.495 48.1199C685.458 48.5892 687.442 49.2506 689.447 50.1039L686.631 56.6959C685.01 55.9706 683.346 55.3732 681.639 54.9039C679.932 54.4346 678.418 54.1999 677.095 54.1999C675.644 54.1999 674.514 54.4346 673.703 54.9039C672.892 55.3306 672.487 55.9492 672.487 56.7599C672.487 57.3572 672.7 57.8906 673.127 58.3599C673.596 58.8292 674.386 59.3199 675.495 59.8319C676.647 60.3439 678.247 61.0052 680.295 61.8159C682.386 62.6266 684.135 63.5012 685.543 64.4399C686.994 65.3359 688.06 66.4452 688.743 67.7679C689.468 69.0479 689.831 70.6906 689.831 72.6959Z" fill="url(#paint12_linear_112_4142)" fill-opacity="0.7"/>
<path d="M643.406 47.4159C647.246 47.4159 650.275 48.4186 652.494 50.4239C654.713 52.4292 655.822 55.6932 655.822 60.2159V82.9999H646.222V62.6479C646.222 60.1306 645.753 58.2532 644.814 57.0159C643.918 55.7359 642.51 55.0959 640.59 55.0959C637.689 55.0959 635.705 56.0986 634.638 58.1039C633.614 60.0666 633.102 62.9039 633.102 66.6159V82.9999H623.438V48.0559H630.862L632.206 52.7279H632.59C633.358 51.5759 634.275 50.6159 635.342 49.8479C636.451 49.0372 637.667 48.4399 638.99 48.0559C640.355 47.6292 641.827 47.4159 643.406 47.4159Z" fill="url(#paint13_linear_112_4142)" fill-opacity="0.7"/>
<path d="M600.742 47.4159C605.136 47.4159 608.486 48.4612 610.79 50.5519C613.094 52.5999 614.246 55.6506 614.246 59.7039V82.9999H607.526L605.67 78.2639H605.414C604.432 79.5012 603.408 80.5252 602.342 81.3359C601.318 82.1466 600.123 82.7226 598.758 83.0639C597.392 83.4479 595.728 83.6399 593.766 83.6399C591.718 83.6399 589.883 83.2559 588.262 82.4879C586.64 81.6772 585.36 80.4612 584.422 78.8399C583.483 77.2186 583.014 75.1706 583.014 72.6959C583.014 69.0266 584.336 66.2746 586.982 64.4399C589.627 62.6052 593.574 61.5812 598.822 61.3679L604.646 61.1759V60.0879C604.646 57.9972 604.176 56.5466 603.238 55.7359C602.299 54.8826 600.976 54.4559 599.27 54.4559C597.691 54.4559 596.07 54.7119 594.406 55.2239C592.742 55.7359 591.099 56.3546 589.478 57.0799L586.662 50.4879C588.496 49.5492 590.587 48.8026 592.934 48.2479C595.323 47.6932 597.926 47.4159 600.742 47.4159ZM600.998 66.9999C597.968 67.0852 595.856 67.5759 594.662 68.4719C593.467 69.3679 592.87 70.6266 592.87 72.2479C592.87 73.7412 593.275 74.8506 594.086 75.5759C594.939 76.2586 596.07 76.5999 597.478 76.5999C599.483 76.5999 601.168 76.0026 602.534 74.8079C603.942 73.6132 604.646 71.9066 604.646 69.6879V66.8079L600.998 66.9999Z" fill="url(#paint14_linear_112_4142)" fill-opacity="0.7"/>
<path d="M577.079 47.4159C577.719 47.4159 578.401 47.4586 579.127 47.5439C579.895 47.5866 580.492 47.6719 580.919 47.7999L579.959 56.8239C579.489 56.7386 578.935 56.6532 578.295 56.5679C577.655 56.4826 576.887 56.4399 575.991 56.4399C575.009 56.4399 574.007 56.5892 572.983 56.8879C572.001 57.1866 571.084 57.6772 570.231 58.3599C569.377 59.0426 568.695 59.9386 568.183 61.0479C567.671 62.1572 567.415 63.5652 567.415 65.2719V82.9999H557.751V48.0559H565.111L566.519 53.9439H566.967C567.649 52.7066 568.503 51.5972 569.527 50.6159C570.551 49.6346 571.703 48.8666 572.983 48.3119C574.263 47.7146 575.628 47.4159 577.079 47.4159Z" fill="url(#paint15_linear_112_4142)" fill-opacity="0.7"/>
<path d="M542.689 82.9999H532.897V45.4319H520.545V37.3039H555.041V45.4319H542.689V82.9999Z" fill="url(#paint16_linear_112_4142)" fill-opacity="0.7"/>
<path d="M484.1 47.4159C487.343 47.4159 490.137 48.0346 492.484 49.2719C494.831 50.4666 496.623 52.2586 497.86 54.6479C499.14 56.9946 499.78 59.8746 499.78 63.2879V67.9599H477.316C477.401 70.6052 478.212 72.6959 479.748 74.2319C481.284 75.7252 483.481 76.4719 486.34 76.4719C488.516 76.4719 490.5 76.2586 492.292 75.8319C494.084 75.4052 495.919 74.7652 497.796 73.9119V81.1439C496.089 81.9972 494.276 82.6159 492.356 82.9999C490.479 83.4266 488.132 83.6399 485.316 83.6399C481.86 83.6399 478.788 82.9999 476.1 81.7199C473.455 80.4399 471.364 78.4772 469.828 75.8319C468.292 73.1439 467.524 69.7946 467.524 65.7839C467.524 61.6879 468.207 58.2959 469.572 55.6079C470.98 52.8772 472.921 50.8292 475.396 49.4639C477.913 48.0986 480.815 47.4159 484.1 47.4159ZM484.356 54.2639C482.436 54.2639 480.879 54.8826 479.684 56.1199C478.489 57.3146 477.785 59.1066 477.572 61.4959H490.756C490.756 60.0879 490.521 58.8506 490.052 57.7839C489.583 56.7172 488.857 55.8639 487.876 55.2239C486.937 54.5839 485.764 54.2639 484.356 54.2639Z" fill="url(#paint17_linear_112_4142)" fill-opacity="0.7"/>
<path d="M461.141 47.4159C461.781 47.4159 462.464 47.4586 463.189 47.5439C463.957 47.5866 464.554 47.6719 464.981 47.7999L464.021 56.8239C463.552 56.7386 462.997 56.6532 462.357 56.5679C461.717 56.4826 460.949 56.4399 460.053 56.4399C459.072 56.4399 458.069 56.5892 457.045 56.8879C456.064 57.1866 455.146 57.6772 454.293 58.3599C453.44 59.0426 452.757 59.9386 452.245 61.0479C451.733 62.1572 451.477 63.5652 451.477 65.2719V82.9999H441.813V48.0559H449.173L450.581 53.9439H451.029C451.712 52.7066 452.565 51.5972 453.589 50.6159C454.613 49.6346 455.765 48.8666 457.045 48.3119C458.325 47.7146 459.69 47.4159 461.141 47.4159Z" fill="url(#paint18_linear_112_4142)" fill-opacity="0.7"/>
<path d="M434.069 65.4639C434.069 68.3652 433.664 70.9466 432.853 73.2079C432.085 75.4692 430.954 77.3679 429.461 78.9039C428.01 80.4399 426.24 81.6132 424.149 82.4239C422.058 83.2346 419.69 83.6399 417.045 83.6399C414.57 83.6399 412.309 83.2346 410.261 82.4239C408.213 81.6132 406.442 80.4399 404.949 78.9039C403.456 77.3679 402.282 75.4692 401.429 73.2079C400.576 70.9466 400.149 68.3652 400.149 65.4639C400.149 61.5812 400.832 58.2959 402.197 55.6079C403.562 52.9199 405.525 50.8932 408.085 49.5279C410.645 48.1199 413.696 47.4159 417.237 47.4159C420.522 47.4159 423.424 48.1199 425.941 49.5279C428.458 50.8932 430.442 52.9199 431.893 55.6079C433.344 58.2959 434.069 61.5812 434.069 65.4639ZM410.005 65.4639C410.005 67.7252 410.24 69.6666 410.709 71.2879C411.221 72.9092 411.989 74.1466 413.013 74.9999C414.08 75.8532 415.466 76.2799 417.173 76.2799C418.837 76.2799 420.181 75.8532 421.205 74.9999C422.272 74.1466 423.04 72.9092 423.509 71.2879C423.978 69.6666 424.213 67.7252 424.213 65.4639C424.213 63.1599 423.957 61.2186 423.445 59.6399C422.976 58.0612 422.229 56.8666 421.205 56.0559C420.181 55.2026 418.816 54.7759 417.109 54.7759C414.634 54.7759 412.821 55.6932 411.669 57.5279C410.56 59.3626 410.005 62.0079 410.005 65.4639Z" fill="url(#paint19_linear_112_4142)" fill-opacity="0.7"/>
<path d="M361.854 82.9999L350.846 47.1599H350.59C350.633 48.0132 350.697 49.2932 350.782 50.9999C350.867 52.7066 350.953 54.5412 351.038 56.5039C351.123 58.4239 351.166 60.1732 351.166 61.7519V82.9999H342.526V37.3039H355.71L366.526 72.2479H366.718L378.174 37.3039H391.358V82.9999H382.334V61.3679C382.334 59.9172 382.355 58.2532 382.398 56.3759C382.483 54.4986 382.547 52.7279 382.59 51.0639C382.675 49.3572 382.739 48.0772 382.782 47.2239H382.526L370.75 82.9999H361.854Z" fill="url(#paint20_linear_112_4142)" fill-opacity="0.7"/>
</g>
</g>
<path d="M261 72H1140V105C1140 111.627 1134.63 117 1128 117H273C266.373 117 261 111.627 261 105V72Z" fill="url(#paint21_linear_112_4142)"/>
<path d="M1058.25 60.6959C1058.25 62.9146 1057.72 64.8559 1056.65 66.5199C1055.63 68.1412 1054.05 69.3999 1051.92 70.2959C1049.78 71.1919 1047.07 71.6399 1043.79 71.6399C1041.31 71.6399 1039.14 71.4692 1037.26 71.1279C1035.38 70.8292 1033.57 70.3172 1031.82 69.5919V61.5919C1033.7 62.4879 1035.72 63.1919 1037.9 63.7039C1040.08 64.2159 1041.95 64.4719 1043.53 64.4719C1045.5 64.4719 1046.9 64.1946 1047.76 63.6399C1048.65 63.0852 1049.1 62.3386 1049.1 61.3999C1049.1 60.7599 1048.87 60.1839 1048.4 59.6719C1047.97 59.1599 1047.18 58.6266 1046.03 58.0719C1044.92 57.5172 1043.32 56.8346 1041.23 56.0239C1039.14 55.1706 1037.39 54.2959 1035.98 53.3999C1034.57 52.4612 1033.51 51.3519 1032.78 50.0719C1032.1 48.7919 1031.76 47.1919 1031.76 45.2719C1031.76 42.0719 1033.02 39.6399 1035.53 37.9759C1038.09 36.2692 1041.46 35.4159 1045.64 35.4159C1047.91 35.4159 1050 35.6506 1051.92 36.1199C1053.88 36.5892 1055.86 37.2506 1057.87 38.1039L1055.05 44.6959C1053.43 43.9706 1051.77 43.3732 1050.06 42.9039C1048.35 42.4346 1046.84 42.1999 1045.52 42.1999C1044.07 42.1999 1042.94 42.4346 1042.12 42.9039C1041.31 43.3306 1040.91 43.9492 1040.91 44.7599C1040.91 45.3572 1041.12 45.8906 1041.55 46.3599C1042.02 46.8292 1042.81 47.3199 1043.92 47.8319C1045.07 48.3439 1046.67 49.0052 1048.72 49.8159C1050.81 50.6266 1052.56 51.5012 1053.96 52.4399C1055.42 53.3359 1056.48 54.4452 1057.16 55.7679C1057.89 57.0479 1058.25 58.6906 1058.25 60.6959Z" fill="url(#paint22_linear_112_4142)"/>
<path d="M1024.09 70.9999H1014.42V22.3599H1024.09V70.9999Z" fill="url(#paint23_linear_112_4142)"/>
<path d="M1006.68 53.4639C1006.68 56.3652 1006.27 58.9466 1005.46 61.2079C1004.69 63.4692 1003.56 65.3679 1002.07 66.9039C1000.62 68.4399 998.849 69.6132 996.758 70.4239C994.667 71.2346 992.299 71.6399 989.654 71.6399C987.179 71.6399 984.918 71.2346 982.87 70.4239C980.822 69.6132 979.051 68.4399 977.558 66.9039C976.065 65.3679 974.891 63.4692 974.038 61.2079C973.185 58.9466 972.758 56.3652 972.758 53.4639C972.758 49.5812 973.441 46.2959 974.806 43.6079C976.171 40.9199 978.134 38.8932 980.694 37.5279C983.254 36.1199 986.305 35.4159 989.846 35.4159C993.131 35.4159 996.033 36.1199 998.55 37.5279C1001.07 38.8932 1003.05 40.9199 1004.5 43.6079C1005.95 46.2959 1006.68 49.5812 1006.68 53.4639ZM982.614 53.4639C982.614 55.7252 982.849 57.6666 983.318 59.2879C983.83 60.9092 984.598 62.1466 985.622 62.9999C986.689 63.8532 988.075 64.2799 989.782 64.2799C991.446 64.2799 992.79 63.8532 993.814 62.9999C994.881 62.1466 995.649 60.9092 996.118 59.2879C996.587 57.6666 996.822 55.7252 996.822 53.4639C996.822 51.1599 996.566 49.2186 996.054 47.6399C995.585 46.0612 994.838 44.8666 993.814 44.0559C992.79 43.2026 991.425 42.7759 989.718 42.7759C987.243 42.7759 985.43 43.6932 984.278 45.5279C983.169 47.3626 982.614 50.0079 982.614 53.4639Z" fill="url(#paint24_linear_112_4142)"/>
<path d="M966.678 53.4639C966.678 56.3652 966.273 58.9466 965.462 61.2079C964.694 63.4692 963.563 65.3679 962.07 66.9039C960.619 68.4399 958.849 69.6132 956.758 70.4239C954.667 71.2346 952.299 71.6399 949.654 71.6399C947.179 71.6399 944.918 71.2346 942.87 70.4239C940.822 69.6132 939.051 68.4399 937.558 66.9039C936.065 65.3679 934.891 63.4692 934.038 61.2079C933.185 58.9466 932.758 56.3652 932.758 53.4639C932.758 49.5812 933.441 46.2959 934.806 43.6079C936.171 40.9199 938.134 38.8932 940.694 37.5279C943.254 36.1199 946.305 35.4159 949.846 35.4159C953.131 35.4159 956.033 36.1199 958.55 37.5279C961.067 38.8932 963.051 40.9199 964.502 43.6079C965.953 46.2959 966.678 49.5812 966.678 53.4639ZM942.614 53.4639C942.614 55.7252 942.849 57.6666 943.318 59.2879C943.83 60.9092 944.598 62.1466 945.622 62.9999C946.689 63.8532 948.075 64.2799 949.782 64.2799C951.446 64.2799 952.79 63.8532 953.814 62.9999C954.881 62.1466 955.649 60.9092 956.118 59.2879C956.587 57.6666 956.822 55.7252 956.822 53.4639C956.822 51.1599 956.566 49.2186 956.054 47.6399C955.585 46.0612 954.838 44.8666 953.814 44.0559C952.79 43.2026 951.425 42.7759 949.718 42.7759C947.243 42.7759 945.43 43.6932 944.278 45.5279C943.169 47.3626 942.614 50.0079 942.614 53.4639Z" fill="url(#paint25_linear_112_4142)"/>
<path d="M920.672 70.9999H910.88V33.4319H898.529V25.3039H933.024V33.4319H920.672V70.9999Z" fill="url(#paint26_linear_112_4142)"/>
<path d="M863.703 35.4159C867.543 35.4159 870.572 36.4186 872.791 38.4239C875.009 40.4292 876.119 43.6932 876.119 48.2159V70.9999H866.518V50.6479C866.518 48.1306 866.049 46.2532 865.11 45.0159C864.214 43.7359 862.806 43.0959 860.886 43.0959C857.985 43.0959 856.001 44.0986 854.935 46.1039C853.911 48.0666 853.398 50.9039 853.398 54.6159V70.9999H843.734V36.0559H851.159L852.503 40.7279H852.886C853.654 39.5759 854.572 38.6159 855.638 37.8479C856.748 37.0372 857.964 36.4399 859.286 36.0559C860.652 35.6292 862.124 35.4159 863.703 35.4159Z" fill="url(#paint27_linear_112_4142)"/>
<path d="M835.991 53.4639C835.991 56.3652 835.585 58.9466 834.775 61.2079C834.007 63.4692 832.876 65.3679 831.383 66.9039C829.932 68.4399 828.161 69.6132 826.07 70.4239C823.98 71.2346 821.612 71.6399 818.966 71.6399C816.492 71.6399 814.23 71.2346 812.182 70.4239C810.134 69.6132 808.364 68.4399 806.871 66.9039C805.377 65.3679 804.204 63.4692 803.35 61.2079C802.497 58.9466 802.07 56.3652 802.07 53.4639C802.07 49.5812 802.753 46.2959 804.118 43.6079C805.484 40.9199 807.447 38.8932 810.007 37.5279C812.567 36.1199 815.617 35.4159 819.159 35.4159C822.444 35.4159 825.345 36.1199 827.862 37.5279C830.38 38.8932 832.364 40.9199 833.815 43.6079C835.265 46.2959 835.991 49.5812 835.991 53.4639ZM811.927 53.4639C811.927 55.7252 812.161 57.6666 812.63 59.2879C813.142 60.9092 813.911 62.1466 814.935 62.9999C816.001 63.8532 817.388 64.2799 819.095 64.2799C820.759 64.2799 822.102 63.8532 823.126 62.9999C824.193 62.1466 824.961 60.9092 825.431 59.2879C825.9 57.6666 826.134 55.7252 826.134 53.4639C826.134 51.1599 825.879 49.2186 825.367 47.6399C824.897 46.0612 824.15 44.8666 823.126 44.0559C822.102 43.2026 820.737 42.7759 819.03 42.7759C816.556 42.7759 814.743 43.6932 813.591 45.5279C812.481 47.3626 811.927 50.0079 811.927 53.4639Z" fill="url(#paint28_linear_112_4142)"/>
<path d="M794.337 36.0559V70.9999H784.673V36.0559H794.337ZM789.538 22.2959C790.946 22.2959 792.161 22.6372 793.185 23.3199C794.252 23.9599 794.785 25.1972 794.785 27.0319C794.785 28.7812 794.252 29.9972 793.185 30.6799C792.161 31.3626 790.946 31.7039 789.538 31.7039C788.087 31.7039 786.85 31.3626 785.826 30.6799C784.802 29.9972 784.289 28.7812 784.289 27.0319C784.289 25.1972 784.802 23.9599 785.826 23.3199C786.85 22.6372 788.087 22.2959 789.538 22.2959Z" fill="url(#paint29_linear_112_4142)"/>
<path d="M771.9 64.0239C772.966 64.0239 773.99 63.9172 774.971 63.7039C775.953 63.4906 776.934 63.2346 777.915 62.9359V70.0399C776.891 70.4666 775.612 70.8292 774.076 71.1279C772.582 71.4692 770.939 71.6399 769.147 71.6399C767.057 71.6399 765.18 71.2986 763.516 70.6159C761.894 69.9332 760.593 68.7599 759.612 67.0959C758.673 65.3892 758.203 63.0426 758.203 60.0559V43.2239H753.659V39.1919L758.908 35.9919L761.659 28.6319H767.74V36.0559H777.531V43.2239H767.74V60.0559C767.74 61.3786 768.124 62.3812 768.892 63.0639C769.66 63.7039 770.662 64.0239 771.9 64.0239Z" fill="url(#paint30_linear_112_4142)"/>
<path d="M734.163 35.4159C738.558 35.4159 741.907 36.4612 744.211 38.5519C746.515 40.5999 747.667 43.6506 747.667 47.7039V70.9999H740.947L739.091 66.2639H738.835C737.854 67.5012 736.83 68.5252 735.763 69.3359C734.739 70.1466 733.544 70.7226 732.179 71.0639C730.814 71.4479 729.15 71.6399 727.187 71.6399C725.139 71.6399 723.304 71.2559 721.683 70.4879C720.062 69.6772 718.782 68.4612 717.843 66.8399C716.904 65.2186 716.435 63.1706 716.435 60.6959C716.435 57.0266 717.758 54.2746 720.403 52.4399C723.048 50.6052 726.995 49.5812 732.243 49.3679L738.067 49.1759V48.0879C738.067 45.9972 737.598 44.5466 736.659 43.7359C735.72 42.8826 734.398 42.4559 732.691 42.4559C731.112 42.4559 729.491 42.7119 727.827 43.2239C726.163 43.7359 724.52 44.3546 722.899 45.0799L720.083 38.4879C721.918 37.5492 724.008 36.8026 726.355 36.2479C728.744 35.6932 731.347 35.4159 734.163 35.4159ZM734.419 54.9999C731.39 55.0852 729.278 55.5759 728.083 56.4719C726.888 57.3679 726.291 58.6266 726.291 60.2479C726.291 61.7412 726.696 62.8506 727.507 63.5759C728.36 64.2586 729.491 64.5999 730.899 64.5999C732.904 64.5999 734.59 64.0026 735.955 62.8079C737.363 61.6132 738.067 59.9066 738.067 57.6879V54.8079L734.419 54.9999Z" fill="url(#paint31_linear_112_4142)"/>
<path d="M709.148 70.9999H699.484V22.3599H709.148V70.9999Z" fill="url(#paint32_linear_112_4142)"/>
<path d="M692.128 60.6959C692.128 62.9146 691.594 64.8559 690.527 66.5199C689.503 68.1412 687.925 69.3999 685.792 70.2959C683.658 71.1919 680.949 71.6399 677.664 71.6399C675.189 71.6399 673.013 71.4692 671.135 71.1279C669.258 70.8292 667.445 70.3172 665.695 69.5919V61.5919C667.573 62.4879 669.6 63.1919 671.776 63.7039C673.952 64.2159 675.829 64.4719 677.408 64.4719C679.37 64.4719 680.778 64.1946 681.632 63.6399C682.528 63.0852 682.975 62.3386 682.975 61.3999C682.975 60.7599 682.741 60.1839 682.272 59.6719C681.845 59.1599 681.056 58.6266 679.904 58.0719C678.794 57.5172 677.194 56.8346 675.104 56.0239C673.013 55.1706 671.263 54.2959 669.855 53.3999C668.447 52.4612 667.381 51.3519 666.655 50.0719C665.973 48.7919 665.632 47.1919 665.632 45.2719C665.632 42.0719 666.89 39.6399 669.408 37.9759C671.968 36.2692 675.338 35.4159 679.52 35.4159C681.781 35.4159 683.872 35.6506 685.792 36.1199C687.754 36.5892 689.738 37.2506 691.743 38.1039L688.927 44.6959C687.306 43.9706 685.642 43.3732 683.935 42.9039C682.229 42.4346 680.714 42.1999 679.392 42.1999C677.941 42.1999 676.81 42.4346 676 42.9039C675.189 43.3306 674.784 43.9492 674.784 44.7599C674.784 45.3572 674.997 45.8906 675.423 46.3599C675.893 46.8292 676.682 47.3199 677.792 47.8319C678.944 48.3439 680.543 49.0052 682.591 49.8159C684.682 50.6266 686.432 51.5012 687.84 52.4399C689.29 53.3359 690.357 54.4452 691.039 55.7679C691.765 57.0479 692.128 58.6906 692.128 60.6959Z" fill="url(#paint33_linear_112_4142)"/>
<path d="M645.703 35.4159C649.543 35.4159 652.572 36.4186 654.79 38.4239C657.009 40.4292 658.118 43.6932 658.118 48.2159V70.9999H648.518V50.6479C648.518 48.1306 648.049 46.2532 647.111 45.0159C646.215 43.7359 644.807 43.0959 642.887 43.0959C639.985 43.0959 638.001 44.0986 636.935 46.1039C635.911 48.0666 635.398 50.9039 635.398 54.6159V70.9999H625.734V36.0559H633.159L634.503 40.7279H634.887C635.655 39.5759 636.572 38.6159 637.638 37.8479C638.748 37.0372 639.964 36.4399 641.286 36.0559C642.652 35.6292 644.124 35.4159 645.703 35.4159Z" fill="url(#paint34_linear_112_4142)"/>
<path d="M603.038 35.4159C607.433 35.4159 610.782 36.4612 613.086 38.5519C615.39 40.5999 616.542 43.6506 616.542 47.7039V70.9999H609.822L607.966 66.2639H607.71C606.729 67.5012 605.705 68.5252 604.638 69.3359C603.614 70.1466 602.419 70.7226 601.054 71.0639C599.689 71.4479 598.025 71.6399 596.062 71.6399C594.014 71.6399 592.179 71.2559 590.558 70.4879C588.937 69.6772 587.657 68.4612 586.718 66.8399C585.779 65.2186 585.31 63.1706 585.31 60.6959C585.31 57.0266 586.633 54.2746 589.278 52.4399C591.923 50.6052 595.87 49.5812 601.118 49.3679L606.942 49.1759V48.0879C606.942 45.9972 606.473 44.5466 605.534 43.7359C604.595 42.8826 603.273 42.4559 601.566 42.4559C599.987 42.4559 598.366 42.7119 596.702 43.2239C595.038 43.7359 593.395 44.3546 591.774 45.0799L588.958 38.4879C590.793 37.5492 592.883 36.8026 595.23 36.2479C597.619 35.6932 600.222 35.4159 603.038 35.4159ZM603.294 54.9999C600.265 55.0852 598.153 55.5759 596.958 56.4719C595.763 57.3679 595.166 58.6266 595.166 60.2479C595.166 61.7412 595.571 62.8506 596.382 63.5759C597.235 64.2586 598.366 64.5999 599.774 64.5999C601.779 64.5999 603.465 64.0026 604.83 62.8079C606.238 61.6132 606.942 59.9066 606.942 57.6879V54.8079L603.294 54.9999Z" fill="url(#paint35_linear_112_4142)"/>
<path d="M579.375 35.4159C580.015 35.4159 580.698 35.4586 581.423 35.5439C582.191 35.5866 582.788 35.6719 583.215 35.7999L582.255 44.8239C581.786 44.7386 581.231 44.6532 580.591 44.5679C579.951 44.4826 579.183 44.4399 578.287 44.4399C577.306 44.4399 576.303 44.5892 575.279 44.8879C574.298 45.1866 573.38 45.6772 572.527 46.3599C571.674 47.0426 570.991 47.9386 570.479 49.0479C569.967 50.1572 569.711 51.5652 569.711 53.2719V70.9999H560.047V36.0559H567.407L568.815 41.9439H569.263C569.946 40.7066 570.799 39.5972 571.823 38.6159C572.847 37.6346 573.999 36.8666 575.279 36.3119C576.559 35.7146 577.924 35.4159 579.375 35.4159Z" fill="url(#paint36_linear_112_4142)"/>
<path d="M544.985 70.9999H535.193V33.4319H522.841V25.3039H557.337V33.4319H544.985V70.9999Z" fill="url(#paint37_linear_112_4142)"/>
<path d="M486.397 35.4159C489.639 35.4159 492.434 36.0346 494.781 37.2719C497.127 38.4666 498.919 40.2586 500.156 42.6479C501.436 44.9946 502.077 47.8746 502.077 51.2879V55.9599H479.613C479.698 58.6052 480.508 60.6959 482.044 62.2319C483.58 63.7252 485.778 64.4719 488.637 64.4719C490.813 64.4719 492.797 64.2586 494.589 63.8319C496.381 63.4052 498.215 62.7652 500.092 61.9119V69.1439C498.386 69.9972 496.572 70.6159 494.652 70.9999C492.775 71.4266 490.429 71.6399 487.613 71.6399C484.157 71.6399 481.085 70.9999 478.397 69.7199C475.751 68.4399 473.661 66.4772 472.125 63.8319C470.589 61.1439 469.821 57.7946 469.821 53.7839C469.821 49.6879 470.503 46.2959 471.869 43.6079C473.277 40.8772 475.218 38.8292 477.693 37.4639C480.21 36.0986 483.111 35.4159 486.397 35.4159ZM486.652 42.2639C484.732 42.2639 483.175 42.8826 481.98 44.1199C480.786 45.3146 480.082 47.1066 479.868 49.4959H493.053C493.053 48.0879 492.818 46.8506 492.349 45.7839C491.879 44.7172 491.154 43.8639 490.173 43.2239C489.234 42.5839 488.06 42.2639 486.652 42.2639Z" fill="url(#paint38_linear_112_4142)"/>
<path d="M463.438 35.4159C464.078 35.4159 464.76 35.4586 465.486 35.5439C466.254 35.5866 466.851 35.6719 467.278 35.7999L466.318 44.8239C465.848 44.7386 465.294 44.6532 464.654 44.5679C464.014 44.4826 463.246 44.4399 462.35 44.4399C461.368 44.4399 460.366 44.5892 459.342 44.8879C458.36 45.1866 457.443 45.6772 456.59 46.3599C455.736 47.0426 455.054 47.9386 454.542 49.0479C454.03 50.1572 453.774 51.5652 453.774 53.2719V70.9999H444.11V36.0559H451.47L452.878 41.9439H453.326C454.008 40.7066 454.862 39.5972 455.886 38.6159C456.91 37.6346 458.062 36.8666 459.342 36.3119C460.622 35.7146 461.987 35.4159 463.438 35.4159Z" fill="url(#paint39_linear_112_4142)"/>
<path d="M436.366 53.4639C436.366 56.3652 435.96 58.9466 435.15 61.2079C434.382 63.4692 433.251 65.3679 431.758 66.9039C430.307 68.4399 428.536 69.6132 426.446 70.4239C424.355 71.2346 421.987 71.6399 419.342 71.6399C416.867 71.6399 414.606 71.2346 412.558 70.4239C410.51 69.6132 408.739 68.4399 407.246 66.9039C405.752 65.3679 404.579 63.4692 403.726 61.2079C402.872 58.9466 402.446 56.3652 402.446 53.4639C402.446 49.5812 403.128 46.2959 404.494 43.6079C405.859 40.9199 407.822 38.8932 410.382 37.5279C412.942 36.1199 415.992 35.4159 419.534 35.4159C422.819 35.4159 425.72 36.1199 428.238 37.5279C430.755 38.8932 432.739 40.9199 434.189 43.6079C435.64 46.2959 436.366 49.5812 436.366 53.4639ZM412.301 53.4639C412.301 55.7252 412.536 57.6666 413.006 59.2879C413.518 60.9092 414.286 62.1466 415.31 62.9999C416.376 63.8532 417.763 64.2799 419.469 64.2799C421.133 64.2799 422.478 63.8532 423.502 62.9999C424.568 62.1466 425.336 60.9092 425.806 59.2879C426.275 57.6666 426.51 55.7252 426.51 53.4639C426.51 51.1599 426.254 49.2186 425.742 47.6399C425.272 46.0612 424.526 44.8666 423.502 44.0559C422.478 43.2026 421.112 42.7759 419.406 42.7759C416.931 42.7759 415.117 43.6932 413.965 45.5279C412.856 47.3626 412.301 50.0079 412.301 53.4639Z" fill="url(#paint40_linear_112_4142)"/>
<path d="M364.151 70.9999L353.143 35.1599H352.887C352.929 36.0132 352.993 37.2932 353.079 38.9999C353.164 40.7066 353.249 42.5412 353.335 44.5039C353.42 46.4239 353.463 48.1732 353.463 49.7519V70.9999H344.823V25.3039H358.007L368.823 60.2479H369.015L380.471 25.3039H393.655V70.9999H384.631V49.3679C384.631 47.9172 384.652 46.2532 384.695 44.3759C384.78 42.4986 384.844 40.7279 384.887 39.0639C384.972 37.3572 385.036 36.0772 385.079 35.2239H384.823L373.047 70.9999H364.151Z" fill="url(#paint41_linear_112_4142)"/>
<defs>
<filter id="filter0_f_112_4142" x="322.526" y="14.2959" width="753.43" height="89.3442" filterUnits="userSpaceOnUse" color-interpolation-filters="sRGB">
<feFlood flood-opacity="0" result="BackgroundImageFix"/>
<feBlend mode="normal" in="SourceGraphic" in2="BackgroundImageFix" result="shape"/>
<feGaussianBlur stdDeviation="10" result="effect1_foregroundBlur_112_4142"/>
</filter>
<linearGradient id="paint0_linear_112_4142" x1="261" y1="64.0036" x2="1140" y2="64.0027" gradientUnits="userSpaceOnUse">
<stop stop-color="white" stop-opacity="0.3"/>
<stop offset="0.495" stop-color="#CBB0F8"/>
<stop offset="1" stop-color="white" stop-opacity="0.3"/>
</linearGradient>
<linearGradient id="paint1_linear_112_4142" x1="1129.93" y1="49.3944" x2="-18310.6" y2="49.4472" gradientUnits="userSpaceOnUse">
<stop stop-color="#F4439F"/>
<stop offset="1" stop-color="#7C3AED"/>
</linearGradient>
<linearGradient id="paint2_linear_112_4142" x1="3781.07" y1="58.7853" x2="-49519.5" y2="59.3182" gradientUnits="userSpaceOnUse">
<stop stop-color="#F4439F"/>
<stop offset="1" stop-color="#7C3AED"/>
</linearGradient>
<linearGradient id="paint3_linear_112_4142" x1="2198.5" y1="49.3944" x2="-12987.1" y2="49.4266" gradientUnits="userSpaceOnUse">
<stop stop-color="#F4439F"/>
<stop offset="1" stop-color="#7C3AED"/>
</linearGradient>
<linearGradient id="paint4_linear_112_4142" x1="3039.81" y1="49.3944" x2="-12145.8" y2="49.4266" gradientUnits="userSpaceOnUse">
<stop stop-color="#F4439F"/>
<stop offset="1" stop-color="#7C3AED"/>
</linearGradient>
<linearGradient id="paint5_linear_112_4142" x1="3702.69" y1="57.184" x2="-11229.4" y2="57.2233" gradientUnits="userSpaceOnUse">
<stop stop-color="#F4439F"/>
<stop offset="1" stop-color="#7C3AED"/>
</linearGradient>
<linearGradient id="paint6_linear_112_4142" x1="5128.95" y1="49.666" x2="-10776.9" y2="49.7007" gradientUnits="userSpaceOnUse">
<stop stop-color="#F4439F"/>
<stop offset="1" stop-color="#7C3AED"/>
</linearGradient>
<linearGradient id="paint7_linear_112_4142" x1="5788.52" y1="49.3944" x2="-9397.1" y2="49.4266" gradientUnits="userSpaceOnUse">
<stop stop-color="#F4439F"/>
<stop offset="1" stop-color="#7C3AED"/>
</linearGradient>
<linearGradient id="paint8_linear_112_4142" x1="19151" y1="58.818" x2="-29924.5" y2="59.2704" gradientUnits="userSpaceOnUse">
<stop stop-color="#F4439F"/>
<stop offset="1" stop-color="#7C3AED"/>
</linearGradient>
<linearGradient id="paint9_linear_112_4142" x1="9382.18" y1="54.7962" x2="-11853.6" y2="54.871" gradientUnits="userSpaceOnUse">
<stop stop-color="#F4439F"/>
<stop offset="1" stop-color="#7C3AED"/>
</linearGradient>
<linearGradient id="paint10_linear_112_4142" x1="8213.4" y1="49.3945" x2="-8279.19" y2="49.4325" gradientUnits="userSpaceOnUse">
<stop stop-color="#F4439F"/>
<stop offset="1" stop-color="#7C3AED"/>
</linearGradient>
<linearGradient id="paint11_linear_112_4142" x1="27030.9" y1="58.7853" x2="-26269.7" y2="59.3182" gradientUnits="userSpaceOnUse">
<stop stop-color="#F4439F"/>
<stop offset="1" stop-color="#7C3AED"/>
</linearGradient>
<linearGradient id="paint12_linear_112_4142" x1="10988.2" y1="49.3945" x2="-8452.34" y2="49.4473" gradientUnits="userSpaceOnUse">
<stop stop-color="#F4439F"/>
<stop offset="1" stop-color="#7C3AED"/>
</linearGradient>
<linearGradient id="paint13_linear_112_4142" x1="9931.57" y1="49.666" x2="-5974.33" y2="49.7007" gradientUnits="userSpaceOnUse">
<stop stop-color="#F4439F"/>
<stop offset="1" stop-color="#7C3AED"/>
</linearGradient>
<linearGradient id="paint14_linear_112_4142" x1="11208.7" y1="49.3945" x2="-5283.91" y2="49.4325" gradientUnits="userSpaceOnUse">
<stop stop-color="#F4439F"/>
<stop offset="1" stop-color="#7C3AED"/>
</linearGradient>
<linearGradient id="paint15_linear_112_4142" x1="15768.8" y1="49.666" x2="-6464.34" y2="49.7339" gradientUnits="userSpaceOnUse">
<stop stop-color="#F4439F"/>
<stop offset="1" stop-color="#7C3AED"/>
</linearGradient>
<linearGradient id="paint16_linear_112_4142" x1="11472.5" y1="57.184" x2="-3459.59" y2="57.2233" gradientUnits="userSpaceOnUse">
<stop stop-color="#F4439F"/>
<stop offset="1" stop-color="#7C3AED"/>
</linearGradient>
<linearGradient id="paint17_linear_112_4142" x1="13418.1" y1="49.3945" x2="-2550.93" y2="49.4301" gradientUnits="userSpaceOnUse">
<stop stop-color="#F4439F"/>
<stop offset="1" stop-color="#7C3AED"/>
</linearGradient>
<linearGradient id="paint18_linear_112_4142" x1="19338.9" y1="49.666" x2="-2894.19" y2="49.7339" gradientUnits="userSpaceOnUse">
<stop stop-color="#F4439F"/>
<stop offset="1" stop-color="#7C3AED"/>
</linearGradient>
<linearGradient id="paint19_linear_112_4142" x1="14193.7" y1="49.3945" x2="-991.905" y2="49.4267" gradientUnits="userSpaceOnUse">
<stop stop-color="#F4439F"/>
<stop offset="1" stop-color="#7C3AED"/>
</linearGradient>
<linearGradient id="paint20_linear_112_4142" x1="1058.7" y1="58.4997" x2="336.704" y2="58.4998" gradientUnits="userSpaceOnUse">
<stop stop-color="#F4439F"/>
<stop offset="1" stop-color="#7C3AED"/>
</linearGradient>
<linearGradient id="paint21_linear_112_4142" x1="700.5" y1="72" x2="700.5" y2="117" gradientUnits="userSpaceOnUse">
<stop offset="0.0001" stop-color="white" stop-opacity="0.1"/>
<stop offset="1" stop-color="white" stop-opacity="0"/>
</linearGradient>
<linearGradient id="paint22_linear_112_4142" x1="1132.23" y1="-21.8609" x2="983.861" y2="1716.19" gradientUnits="userSpaceOnUse">
<stop stop-color="#F4439F"/>
<stop offset="1" stop-color="#7C3AED"/>
</linearGradient>
<linearGradient id="paint23_linear_112_4142" x1="3783.37" y1="2.65569" x2="3753.15" y2="1305.78" gradientUnits="userSpaceOnUse">
<stop stop-color="#F4439F"/>
<stop offset="1" stop-color="#7C3AED"/>
</linearGradient>
<linearGradient id="paint24_linear_112_4142" x1="2200.79" y1="-21.8609" x2="2011.73" y2="1708.19" gradientUnits="userSpaceOnUse">
<stop stop-color="#F4439F"/>
<stop offset="1" stop-color="#7C3AED"/>
</linearGradient>
<linearGradient id="paint25_linear_112_4142" x1="3042.1" y1="-21.8609" x2="2853.03" y2="1708.19" gradientUnits="userSpaceOnUse">
<stop stop-color="#F4439F"/>
<stop offset="1" stop-color="#7C3AED"/>
</linearGradient>
<linearGradient id="paint26_linear_112_4142" x1="3704.98" y1="-1.78869" x2="3583.65" y2="1375.34" gradientUnits="userSpaceOnUse">
<stop stop-color="#F4439F"/>
<stop offset="1" stop-color="#7C3AED"/>
</linearGradient>
<linearGradient id="paint27_linear_112_4142" x1="5131.25" y1="-22.6551" x2="4944.07" y2="1739.67" gradientUnits="userSpaceOnUse">
<stop stop-color="#F4439F"/>
<stop offset="1" stop-color="#7C3AED"/>
</linearGradient>
<linearGradient id="paint28_linear_112_4142" x1="5790.81" y1="-21.8609" x2="5601.74" y2="1708.19" gradientUnits="userSpaceOnUse">
<stop stop-color="#F4439F"/>
<stop offset="1" stop-color="#7C3AED"/>
</linearGradient>
<linearGradient id="paint29_linear_112_4142" x1="19153.3" y1="2.74633" x2="19120.5" y2="1304.03" gradientUnits="userSpaceOnUse">
<stop stop-color="#F4439F"/>
<stop offset="1" stop-color="#7C3AED"/>
</linearGradient>
<linearGradient id="paint30_linear_112_4142" x1="9384.48" y1="-7.11224" x2="9287.84" y2="1461.09" gradientUnits="userSpaceOnUse">
<stop stop-color="#F4439F"/>
<stop offset="1" stop-color="#7C3AED"/>
</linearGradient>
<linearGradient id="paint31_linear_112_4142" x1="8215.69" y1="-21.8609" x2="8041.3" y2="1711.31" gradientUnits="userSpaceOnUse">
<stop stop-color="#F4439F"/>
<stop offset="1" stop-color="#7C3AED"/>
</linearGradient>
<linearGradient id="paint32_linear_112_4142" x1="27033.1" y1="2.65567" x2="27002.9" y2="1305.78" gradientUnits="userSpaceOnUse">
<stop stop-color="#F4439F"/>
<stop offset="1" stop-color="#7C3AED"/>
</linearGradient>
<linearGradient id="paint33_linear_112_4142" x1="10990.5" y1="-21.8609" x2="10842.1" y2="1716.19" gradientUnits="userSpaceOnUse">
<stop stop-color="#F4439F"/>
<stop offset="1" stop-color="#7C3AED"/>
</linearGradient>
<linearGradient id="paint34_linear_112_4142" x1="9933.86" y1="-22.655" x2="9746.68" y2="1739.67" gradientUnits="userSpaceOnUse">
<stop stop-color="#F4439F"/>
<stop offset="1" stop-color="#7C3AED"/>
</linearGradient>
<linearGradient id="paint35_linear_112_4142" x1="11211" y1="-21.8609" x2="11036.6" y2="1711.31" gradientUnits="userSpaceOnUse">
<stop stop-color="#F4439F"/>
<stop offset="1" stop-color="#7C3AED"/>
</linearGradient>
<linearGradient id="paint36_linear_112_4142" x1="15771.1" y1="-22.6551" x2="15636.4" y2="1749.32" gradientUnits="userSpaceOnUse">
<stop stop-color="#F4439F"/>
<stop offset="1" stop-color="#7C3AED"/>
</linearGradient>
<linearGradient id="paint37_linear_112_4142" x1="11474.8" y1="-1.78869" x2="11353.4" y2="1375.34" gradientUnits="userSpaceOnUse">
<stop stop-color="#F4439F"/>
<stop offset="1" stop-color="#7C3AED"/>
</linearGradient>
<linearGradient id="paint38_linear_112_4142" x1="13420.4" y1="-21.8609" x2="13240.4" y2="1710.15" gradientUnits="userSpaceOnUse">
<stop stop-color="#F4439F"/>
<stop offset="1" stop-color="#7C3AED"/>
</linearGradient>
<linearGradient id="paint39_linear_112_4142" x1="19341.2" y1="-22.6551" x2="19206.6" y2="1749.32" gradientUnits="userSpaceOnUse">
<stop stop-color="#F4439F"/>
<stop offset="1" stop-color="#7C3AED"/>
</linearGradient>
<linearGradient id="paint40_linear_112_4142" x1="14196" y1="-21.8609" x2="14006.9" y2="1708.19" gradientUnits="userSpaceOnUse">
<stop stop-color="#F4439F"/>
<stop offset="1" stop-color="#7C3AED"/>
</linearGradient>
<linearGradient id="paint41_linear_112_4142" x1="1061" y1="2.9997" x2="497.312" y2="337.058" gradientUnits="userSpaceOnUse">
<stop stop-color="#F4439F"/>
<stop offset="1" stop-color="#7C3AED"/>
</linearGradient>
</defs>
</svg>
