<svg width="1400" height="120" viewBox="0 0 1400 120" fill="none" xmlns="http://www.w3.org/2000/svg">
<path d="M288 56H1113V72H288V56Z" fill="url(#paint0_linear_112_3974)"/>
<mask id="mask0_112_3974" style="mask-type:alpha" maskUnits="userSpaceOnUse" x="288" y="72" width="825" height="45">
<path d="M288 72H1113V117H288V72Z" fill="#C4C4C4"/>
</mask>
<g mask="url(#mask0_112_3974)">
<g filter="url(#filter0_f_112_3974)">
<path d="M995.419 47.4159C999.259 47.4159 1002.29 48.4186 1004.51 50.4239C1006.73 52.4292 1007.84 55.6932 1007.84 60.2159V82.9999H998.235V62.6479C998.235 60.1306 997.766 58.2532 996.827 57.0159C995.931 55.7359 994.523 55.0959 992.603 55.0959C989.702 55.0959 987.718 56.0986 986.651 58.1039C985.627 60.0666 985.115 62.9039 985.115 66.6159V82.9999H975.451V48.0559H982.875L984.219 52.7279H984.603C985.371 51.5759 986.289 50.6159 987.355 49.8479C988.465 49.0372 989.681 48.4399 991.003 48.0559C992.369 47.6292 993.841 47.4159 995.419 47.4159Z" fill="url(#paint1_linear_112_3974)" fill-opacity="0.7"/>
<path d="M967.707 65.4639C967.707 68.3652 967.302 70.9466 966.491 73.2079C965.723 75.4692 964.592 77.3679 963.099 78.9039C961.648 80.4399 959.878 81.6132 957.787 82.4239C955.696 83.2346 953.328 83.6399 950.683 83.6399C948.208 83.6399 945.947 83.2346 943.899 82.4239C941.851 81.6132 940.08 80.4399 938.587 78.9039C937.094 77.3679 935.921 75.4692 935.067 73.2079C934.214 70.9466 933.787 68.3652 933.787 65.4639C933.787 61.5812 934.47 58.2959 935.835 55.6079C937.201 52.9199 939.163 50.8932 941.723 49.5279C944.283 48.1199 947.334 47.4159 950.875 47.4159C954.16 47.4159 957.062 48.1199 959.579 49.5279C962.096 50.8932 964.08 52.9199 965.531 55.6079C966.982 58.2959 967.707 61.5812 967.707 65.4639ZM943.643 65.4639C943.643 67.7252 943.878 69.6666 944.347 71.2879C944.859 72.9092 945.627 74.1466 946.651 74.9999C947.718 75.8532 949.104 76.2799 950.811 76.2799C952.475 76.2799 953.819 75.8532 954.843 74.9999C955.91 74.1466 956.678 72.9092 957.147 71.2879C957.616 69.6666 957.851 67.7252 957.851 65.4639C957.851 63.1599 957.595 61.2186 957.083 59.6399C956.614 58.0612 955.867 56.8666 954.843 56.0559C953.819 55.2026 952.454 54.7759 950.747 54.7759C948.272 54.7759 946.459 55.6932 945.307 57.5279C944.198 59.3626 943.643 62.0079 943.643 65.4639Z" fill="url(#paint2_linear_112_3974)" fill-opacity="0.7"/>
<path d="M926.054 48.0559V82.9999H916.39V48.0559H926.054ZM921.254 34.2959C922.662 34.2959 923.878 34.6372 924.902 35.3199C925.969 35.9599 926.502 37.1972 926.502 39.0319C926.502 40.7812 925.969 41.9972 924.902 42.6799C923.878 43.3626 922.662 43.7039 921.254 43.7039C919.803 43.7039 918.566 43.3626 917.542 42.6799C916.518 41.9972 916.006 40.7812 916.006 39.0319C916.006 37.1972 916.518 35.9599 917.542 35.3199C918.566 34.6372 919.803 34.2959 921.254 34.2959Z" fill="url(#paint3_linear_112_3974)" fill-opacity="0.7"/>
<path d="M903.616 76.0239C904.683 76.0239 905.707 75.9172 906.688 75.7039C907.669 75.4906 908.651 75.2346 909.632 74.9359V82.0399C908.608 82.4666 907.328 82.8292 905.792 83.1279C904.299 83.4692 902.656 83.6399 900.864 83.6399C898.774 83.6399 896.896 83.2986 895.232 82.6159C893.611 81.9332 892.31 80.7599 891.328 79.0959C890.39 77.3892 889.92 75.0426 889.92 72.0559V55.2239H885.376V51.1919L890.624 47.9919L893.376 40.6319H899.456V48.0559H909.248V55.2239H899.456V72.0559C899.456 73.3786 899.84 74.3812 900.608 75.0639C901.376 75.7039 902.379 76.0239 903.616 76.0239Z" fill="url(#paint4_linear_112_3974)" fill-opacity="0.7"/>
<path d="M865.88 47.4159C870.274 47.4159 873.624 48.4612 875.928 50.5519C878.232 52.5999 879.384 55.6506 879.384 59.7039V82.9999H872.664L870.808 78.2639H870.552C869.57 79.5012 868.546 80.5252 867.48 81.3359C866.456 82.1466 865.261 82.7226 863.896 83.0639C862.53 83.4479 860.866 83.6399 858.904 83.6399C856.856 83.6399 855.021 83.2559 853.4 82.4879C851.778 81.6772 850.498 80.4612 849.56 78.8399C848.621 77.2186 848.152 75.1706 848.152 72.6959C848.152 69.0266 849.474 66.2746 852.12 64.4399C854.765 62.6052 858.712 61.5812 863.96 61.3679L869.784 61.1759V60.0879C869.784 57.9972 869.314 56.5466 868.376 55.7359C867.437 54.8826 866.114 54.4559 864.408 54.4559C862.829 54.4559 861.208 54.7119 859.544 55.2239C857.88 55.7359 856.237 56.3546 854.616 57.0799L851.8 50.4879C853.634 49.5492 855.725 48.8026 858.072 48.2479C860.461 47.6932 863.064 47.4159 865.88 47.4159ZM866.136 66.9999C863.106 67.0852 860.994 67.5759 859.8 68.4719C858.605 69.3679 858.008 70.6266 858.008 72.2479C858.008 73.7412 858.413 74.8506 859.224 75.5759C860.077 76.2586 861.208 76.5999 862.616 76.5999C864.621 76.5999 866.306 76.0026 867.672 74.8079C869.08 73.6132 869.784 71.9066 869.784 69.6879V66.8079L866.136 66.9999Z" fill="url(#paint5_linear_112_3974)" fill-opacity="0.7"/>
<path d="M840.865 82.9999H831.201V34.3599H840.865V82.9999Z" fill="url(#paint6_linear_112_3974)" fill-opacity="0.7"/>
<path d="M823.844 72.6959C823.844 74.9146 823.311 76.8559 822.244 78.5199C821.22 80.1412 819.642 81.3999 817.508 82.2959C815.375 83.1919 812.666 83.6399 809.38 83.6399C806.906 83.6399 804.73 83.4692 802.852 83.1279C800.975 82.8292 799.162 82.3172 797.412 81.5919V73.5919C799.29 74.4879 801.316 75.1919 803.492 75.7039C805.668 76.2159 807.546 76.4719 809.124 76.4719C811.087 76.4719 812.495 76.1946 813.348 75.6399C814.244 75.0852 814.692 74.3386 814.692 73.3999C814.692 72.7599 814.458 72.1839 813.988 71.6719C813.562 71.1599 812.772 70.6266 811.62 70.0719C810.511 69.5172 808.911 68.8346 806.82 68.0239C804.73 67.1706 802.98 66.2959 801.572 65.3999C800.164 64.4612 799.097 63.3519 798.372 62.0719C797.689 60.7919 797.348 59.1919 797.348 57.2719C797.348 54.0719 798.607 51.6399 801.124 49.9759C803.684 48.2692 807.055 47.4159 811.236 47.4159C813.498 47.4159 815.588 47.6506 817.508 48.1199C819.471 48.5892 821.455 49.2506 823.46 50.1039L820.644 56.6959C819.023 55.9706 817.359 55.3732 815.652 54.9039C813.945 54.4346 812.431 54.1999 811.108 54.1999C809.658 54.1999 808.527 54.4346 807.716 54.9039C806.906 55.3306 806.5 55.9492 806.5 56.7599C806.5 57.3572 806.714 57.8906 807.14 58.3599C807.61 58.8292 808.399 59.3199 809.508 59.8319C810.66 60.3439 812.26 61.0052 814.308 61.8159C816.399 62.6266 818.148 63.5012 819.556 64.4399C821.007 65.3359 822.073 66.4452 822.756 67.7679C823.481 69.0479 823.844 70.6906 823.844 72.6959Z" fill="url(#paint7_linear_112_3974)" fill-opacity="0.7"/>
<path d="M777.419 47.4159C781.259 47.4159 784.289 48.4186 786.507 50.4239C788.726 52.4292 789.835 55.6932 789.835 60.2159V82.9999H780.235V62.6479C780.235 60.1306 779.766 58.2532 778.827 57.0159C777.931 55.7359 776.523 55.0959 774.603 55.0959C771.702 55.0959 769.718 56.0986 768.651 58.1039C767.627 60.0666 767.115 62.9039 767.115 66.6159V82.9999H757.451V48.0559H764.875L766.219 52.7279H766.603C767.371 51.5759 768.288 50.6159 769.355 49.8479C770.464 49.0372 771.681 48.4399 773.003 48.0559C774.369 47.6292 775.841 47.4159 777.419 47.4159Z" fill="url(#paint8_linear_112_3974)" fill-opacity="0.7"/>
<path d="M734.755 47.4159C739.149 47.4159 742.499 48.4612 744.803 50.5519C747.107 52.5999 748.259 55.6506 748.259 59.7039V82.9999H741.539L739.683 78.2639H739.427C738.445 79.5012 737.421 80.5252 736.355 81.3359C735.331 82.1466 734.136 82.7226 732.771 83.0639C731.405 83.4479 729.741 83.6399 727.779 83.6399C725.731 83.6399 723.896 83.2559 722.275 82.4879C720.653 81.6772 719.373 80.4612 718.435 78.8399C717.496 77.2186 717.027 75.1706 717.027 72.6959C717.027 69.0266 718.349 66.2746 720.995 64.4399C723.64 62.6052 727.587 61.5812 732.835 61.3679L738.659 61.1759V60.0879C738.659 57.9972 738.189 56.5466 737.251 55.7359C736.312 54.8826 734.989 54.4559 733.283 54.4559C731.704 54.4559 730.083 54.7119 728.419 55.2239C726.755 55.7359 725.112 56.3546 723.491 57.0799L720.675 50.4879C722.509 49.5492 724.6 48.8026 726.947 48.2479C729.336 47.6932 731.939 47.4159 734.755 47.4159ZM735.011 66.9999C731.981 67.0852 729.869 67.5759 728.675 68.4719C727.48 69.3679 726.883 70.6266 726.883 72.2479C726.883 73.7412 727.288 74.8506 728.099 75.5759C728.952 76.2586 730.083 76.5999 731.491 76.5999C733.496 76.5999 735.181 76.0026 736.547 74.8079C737.955 73.6132 738.659 71.9066 738.659 69.6879V66.8079L735.011 66.9999Z" fill="url(#paint9_linear_112_3974)" fill-opacity="0.7"/>
<path d="M711.092 47.4159C711.732 47.4159 712.414 47.4586 713.14 47.5439C713.908 47.5866 714.505 47.6719 714.932 47.7999L713.972 56.8239C713.502 56.7386 712.948 56.6532 712.308 56.5679C711.668 56.4826 710.9 56.4399 710.004 56.4399C709.022 56.4399 708.02 56.5892 706.996 56.8879C706.014 57.1866 705.097 57.6772 704.244 58.3599C703.39 59.0426 702.708 59.9386 702.196 61.0479C701.684 62.1572 701.428 63.5652 701.428 65.2719V82.9999H691.764V48.0559H699.124L700.532 53.9439H700.98C701.662 52.7066 702.516 51.5972 703.54 50.6159C704.564 49.6346 705.716 48.8666 706.996 48.3119C708.276 47.7146 709.641 47.4159 711.092 47.4159Z" fill="url(#paint10_linear_112_3974)" fill-opacity="0.7"/>
<path d="M676.702 82.9999H666.91V45.4319H654.558V37.3039H689.054V45.4319H676.702V82.9999Z" fill="url(#paint11_linear_112_3974)" fill-opacity="0.7"/>
<path d="M618.113 47.4159C621.356 47.4159 624.151 48.0346 626.497 49.2719C628.844 50.4666 630.636 52.2586 631.873 54.6479C633.153 56.9946 633.793 59.8746 633.793 63.2879V67.9599H611.329C611.415 70.6052 612.225 72.6959 613.761 74.2319C615.297 75.7252 617.495 76.4719 620.353 76.4719C622.529 76.4719 624.513 76.2586 626.305 75.8319C628.097 75.4052 629.932 74.7652 631.809 73.9119V81.1439C630.103 81.9972 628.289 82.6159 626.369 82.9999C624.492 83.4266 622.145 83.6399 619.329 83.6399C615.873 83.6399 612.801 82.9999 610.113 81.7199C607.468 80.4399 605.377 78.4772 603.841 75.8319C602.305 73.1439 601.537 69.7946 601.537 65.7839C601.537 61.6879 602.22 58.2959 603.585 55.6079C604.993 52.8772 606.935 50.8292 609.409 49.4639C611.927 48.0986 614.828 47.4159 618.113 47.4159ZM618.369 54.2639C616.449 54.2639 614.892 54.8826 613.697 56.1199C612.503 57.3146 611.799 59.1066 611.585 61.4959H624.769C624.769 60.0879 624.535 58.8506 624.065 57.7839C623.596 56.7172 622.871 55.8639 621.889 55.2239C620.951 54.5839 619.777 54.2639 618.369 54.2639Z" fill="url(#paint12_linear_112_3974)" fill-opacity="0.7"/>
<path d="M593.803 82.9999H584.139V34.3599H593.803V82.9999Z" fill="url(#paint13_linear_112_3974)" fill-opacity="0.7"/>
<path d="M571.429 76.0239C572.495 76.0239 573.519 75.9172 574.501 75.7039C575.482 75.4906 576.463 75.2346 577.445 74.9359V82.0399C576.421 82.4666 575.141 82.8292 573.605 83.1279C572.111 83.4692 570.469 83.6399 568.677 83.6399C566.586 83.6399 564.709 83.2986 563.045 82.6159C561.423 81.9332 560.122 80.7599 559.141 79.0959C558.202 77.3892 557.733 75.0426 557.733 72.0559V55.2239H553.189V51.1919L558.437 47.9919L561.189 40.6319H567.269V48.0559H577.061V55.2239H567.269V72.0559C567.269 73.3786 567.653 74.3812 568.421 75.0639C569.189 75.7039 570.191 76.0239 571.429 76.0239Z" fill="url(#paint14_linear_112_3974)" fill-opacity="0.7"/>
<path d="M546.992 48.0559V82.9999H537.328V48.0559H546.992ZM542.192 34.2959C543.6 34.2959 544.816 34.6372 545.84 35.3199C546.906 35.9599 547.44 37.1972 547.44 39.0319C547.44 40.7812 546.906 41.9972 545.84 42.6799C544.816 43.3626 543.6 43.7039 542.192 43.7039C540.741 43.7039 539.504 43.3626 538.48 42.6799C537.456 41.9972 536.944 40.7812 536.944 39.0319C536.944 37.1972 537.456 35.9599 538.48 35.3199C539.504 34.6372 540.741 34.2959 542.192 34.2959Z" fill="url(#paint15_linear_112_3974)" fill-opacity="0.7"/>
<path d="M524.554 76.0239C525.62 76.0239 526.644 75.9172 527.626 75.7039C528.607 75.4906 529.588 75.2346 530.57 74.9359V82.0399C529.546 82.4666 528.266 82.8292 526.73 83.1279C525.236 83.4692 523.594 83.6399 521.802 83.6399C519.711 83.6399 517.834 83.2986 516.17 82.6159C514.548 81.9332 513.247 80.7599 512.266 79.0959C511.327 77.3892 510.858 75.0426 510.858 72.0559V55.2239H506.314V51.1919L511.562 47.9919L514.314 40.6319H520.394V48.0559H530.186V55.2239H520.394V72.0559C520.394 73.3786 520.778 74.3812 521.546 75.0639C522.314 75.7039 523.316 76.0239 524.554 76.0239Z" fill="url(#paint16_linear_112_3974)" fill-opacity="0.7"/>
<path d="M478.74 45.6879C478.74 47.0106 478.698 48.2692 478.612 49.4639C478.57 50.6586 478.484 51.7039 478.356 52.5999H478.74C479.679 51.1492 480.938 49.9332 482.516 48.9519C484.095 47.9279 486.143 47.4159 488.66 47.4159C492.543 47.4159 495.7 48.9519 498.132 52.0239C500.564 55.0532 501.78 59.5332 501.78 65.4639C501.78 69.4319 501.226 72.7812 500.116 75.5119C499.007 78.1999 497.428 80.2266 495.38 81.5919C493.375 82.9572 491.05 83.6399 488.404 83.6399C485.844 83.6399 483.818 83.1919 482.324 82.2959C480.874 81.3572 479.679 80.3332 478.74 79.2239H478.1L476.5 82.9999H469.076V34.3599H478.74V45.6879ZM485.524 55.0959C483.903 55.0959 482.58 55.4372 481.556 56.1199C480.575 56.8026 479.85 57.8479 479.38 59.2559C478.954 60.6212 478.74 62.4132 478.74 64.6319V65.7839C478.74 69.0692 479.231 71.5652 480.212 73.2719C481.236 74.9786 483.05 75.8319 485.652 75.8319C487.743 75.8319 489.322 74.9359 490.388 73.1439C491.455 71.3519 491.988 68.7492 491.988 65.3359C491.988 61.9652 491.455 59.4266 490.388 57.7199C489.364 55.9706 487.743 55.0959 485.524 55.0959Z" fill="url(#paint17_linear_112_3974)" fill-opacity="0.7"/>
<path d="M459.643 48.0559V82.9999H452.219L451.003 78.5199H450.427C449.702 79.7146 448.763 80.6959 447.611 81.4639C446.502 82.2319 445.265 82.7866 443.899 83.1279C442.577 83.4692 441.169 83.6399 439.675 83.6399C437.201 83.6399 435.025 83.1919 433.147 82.2959C431.313 81.3999 429.862 80.0132 428.795 78.1359C427.771 76.2586 427.259 73.8266 427.259 70.8399V48.0559H436.987V68.4079C436.987 70.8826 437.414 72.7599 438.267 74.0399C439.163 75.2772 440.571 75.8959 442.491 75.8959C444.454 75.8959 445.969 75.4692 447.035 74.6159C448.145 73.7199 448.913 72.4186 449.339 70.7119C449.766 69.0052 449.979 66.9146 449.979 64.4399V48.0559H459.643Z" fill="url(#paint18_linear_112_3974)" fill-opacity="0.7"/>
<path d="M420.233 70.3279C420.233 73.0159 419.572 75.3626 418.249 77.3679C416.927 79.3732 415.007 80.9306 412.489 82.0399C410.015 83.1066 406.985 83.6399 403.401 83.6399C401.823 83.6399 400.265 83.5332 398.729 83.3199C397.236 83.1066 395.785 82.8079 394.377 82.4239C393.012 81.9972 391.711 81.4852 390.473 80.8879V71.8639C392.649 72.8026 394.889 73.6772 397.193 74.4879C399.54 75.2559 401.865 75.6399 404.169 75.6399C405.748 75.6399 407.007 75.4266 407.945 74.9999C408.927 74.5732 409.631 73.9972 410.057 73.2719C410.527 72.5466 410.761 71.7146 410.761 70.7759C410.761 69.6239 410.356 68.6426 409.545 67.8319C408.777 67.0212 407.732 66.2746 406.409 65.5919C405.087 64.8666 403.572 64.0986 401.865 63.2879C400.799 62.7759 399.647 62.1786 398.409 61.4959C397.172 60.7706 395.977 59.8959 394.825 58.8719C393.716 57.8052 392.799 56.5252 392.073 55.0319C391.348 53.5386 390.985 51.7466 390.985 49.6559C390.985 46.9252 391.604 44.5999 392.841 42.6799C394.121 40.7172 395.913 39.2239 398.217 38.1999C400.564 37.1759 403.316 36.6639 406.473 36.6639C408.863 36.6639 411.124 36.9412 413.257 37.4959C415.433 38.0506 417.695 38.8399 420.041 39.8639L416.905 47.4159C414.815 46.5626 412.937 45.9012 411.273 45.4319C409.609 44.9626 407.903 44.7279 406.153 44.7279C404.959 44.7279 403.935 44.9199 403.081 45.3039C402.228 45.6879 401.567 46.2212 401.097 46.9039C400.671 47.5866 400.457 48.3972 400.457 49.3359C400.457 50.4026 400.777 51.3199 401.417 52.0879C402.057 52.8132 403.017 53.5172 404.297 54.1999C405.577 54.8826 407.177 55.6932 409.097 56.6319C411.444 57.7412 413.428 58.8932 415.049 60.0879C416.713 61.2826 417.993 62.6906 418.889 64.3119C419.785 65.9332 420.233 67.9386 420.233 70.3279Z" fill="url(#paint19_linear_112_3974)" fill-opacity="0.7"/>
</g>
</g>
<path d="M288 72H1113V105C1113 111.627 1107.63 117 1101 117H300C293.373 117 288 111.627 288 105V72Z" fill="url(#paint20_linear_112_3974)"/>
<path d="M995.953 35.4159C999.793 35.4159 1002.82 36.4186 1005.04 38.4239C1007.26 40.4292 1008.37 43.6932 1008.37 48.2159V70.9999H998.768V50.6479C998.768 48.1306 998.299 46.2532 997.36 45.0159C996.464 43.7359 995.056 43.0959 993.136 43.0959C990.235 43.0959 988.251 44.0986 987.185 46.1039C986.161 48.0666 985.648 50.9039 985.648 54.6159V70.9999H975.984V36.0559H983.409L984.753 40.7279H985.136C985.904 39.5759 986.822 38.6159 987.888 37.8479C988.998 37.0372 990.214 36.4399 991.536 36.0559C992.902 35.6292 994.374 35.4159 995.953 35.4159Z" fill="url(#paint21_linear_112_3974)"/>
<path d="M968.24 53.4639C968.24 56.3652 967.835 58.9466 967.024 61.2079C966.256 63.4692 965.126 65.3679 963.633 66.9039C962.182 68.4399 960.411 69.6132 958.32 70.4239C956.23 71.2346 953.862 71.6399 951.216 71.6399C948.742 71.6399 946.48 71.2346 944.432 70.4239C942.384 69.6132 940.614 68.4399 939.12 66.9039C937.627 65.3679 936.454 63.4692 935.601 61.2079C934.747 58.9466 934.32 56.3652 934.32 53.4639C934.32 49.5812 935.003 46.2959 936.369 43.6079C937.734 40.9199 939.696 38.8932 942.256 37.5279C944.816 36.1199 947.867 35.4159 951.409 35.4159C954.694 35.4159 957.595 36.1199 960.112 37.5279C962.63 38.8932 964.614 40.9199 966.065 43.6079C967.515 46.2959 968.24 49.5812 968.24 53.4639ZM944.177 53.4639C944.177 55.7252 944.411 57.6666 944.88 59.2879C945.392 60.9092 946.161 62.1466 947.185 62.9999C948.251 63.8532 949.638 64.2799 951.344 64.2799C953.008 64.2799 954.353 63.8532 955.377 62.9999C956.443 62.1466 957.211 60.9092 957.68 59.2879C958.15 57.6666 958.385 55.7252 958.385 53.4639C958.385 51.1599 958.129 49.2186 957.617 47.6399C957.147 46.0612 956.401 44.8666 955.377 44.0559C954.353 43.2026 952.987 42.7759 951.281 42.7759C948.806 42.7759 946.993 43.6932 945.841 45.5279C944.731 47.3626 944.177 50.0079 944.177 53.4639Z" fill="url(#paint22_linear_112_3974)"/>
<path d="M926.588 36.0559V70.9999H916.924V36.0559H926.588ZM921.787 22.2959C923.195 22.2959 924.411 22.6372 925.435 23.3199C926.502 23.9599 927.036 25.1972 927.036 27.0319C927.036 28.7812 926.502 29.9972 925.435 30.6799C924.411 31.3626 923.195 31.7039 921.787 31.7039C920.337 31.7039 919.1 31.3626 918.076 30.6799C917.052 29.9972 916.539 28.7812 916.539 27.0319C916.539 25.1972 917.052 23.9599 918.076 23.3199C919.1 22.6372 920.337 22.2959 921.787 22.2959Z" fill="url(#paint23_linear_112_3974)"/>
<path d="M904.149 64.0239C905.216 64.0239 906.24 63.9172 907.221 63.7039C908.203 63.4906 909.184 63.2346 910.166 62.9359V70.0399C909.142 70.4666 907.862 70.8292 906.326 71.1279C904.832 71.4692 903.19 71.6399 901.398 71.6399C899.307 71.6399 897.43 71.2986 895.766 70.6159C894.144 69.9332 892.843 68.7599 891.862 67.0959C890.923 65.3892 890.453 63.0426 890.453 60.0559V43.2239H885.909V39.1919L891.158 35.9919L893.909 28.6319H899.99V36.0559H909.781V43.2239H899.99V60.0559C899.99 61.3786 900.373 62.3812 901.141 63.0639C901.909 63.7039 902.912 64.0239 904.149 64.0239Z" fill="url(#paint24_linear_112_3974)"/>
<path d="M866.413 35.4159C870.808 35.4159 874.157 36.4612 876.461 38.5519C878.765 40.5999 879.917 43.6506 879.917 47.7039V70.9999H873.197L871.341 66.2639H871.085C870.104 67.5012 869.08 68.5252 868.013 69.3359C866.989 70.1466 865.794 70.7226 864.429 71.0639C863.064 71.4479 861.4 71.6399 859.437 71.6399C857.389 71.6399 855.554 71.2559 853.933 70.4879C852.312 69.6772 851.032 68.4612 850.093 66.8399C849.154 65.2186 848.685 63.1706 848.685 60.6959C848.685 57.0266 850.008 54.2746 852.653 52.4399C855.298 50.6052 859.245 49.5812 864.493 49.3679L870.317 49.1759V48.0879C870.317 45.9972 869.848 44.5466 868.909 43.7359C867.97 42.8826 866.648 42.4559 864.941 42.4559C863.362 42.4559 861.741 42.7119 860.077 43.2239C858.413 43.7359 856.77 44.3546 855.149 45.0799L852.333 38.4879C854.168 37.5492 856.258 36.8026 858.605 36.2479C860.994 35.6932 863.597 35.4159 866.413 35.4159ZM866.669 54.9999C863.64 55.0852 861.528 55.5759 860.333 56.4719C859.138 57.3679 858.541 58.6266 858.541 60.2479C858.541 61.7412 858.946 62.8506 859.757 63.5759C860.61 64.2586 861.741 64.5999 863.149 64.5999C865.154 64.5999 866.84 64.0026 868.205 62.8079C869.613 61.6132 870.317 59.9066 870.317 57.6879V54.8079L866.669 54.9999Z" fill="url(#paint25_linear_112_3974)"/>
<path d="M841.398 70.9999H831.734V22.3599H841.398V70.9999Z" fill="url(#paint26_linear_112_3974)"/>
<path d="M824.378 60.6959C824.378 62.9146 823.844 64.8559 822.778 66.5199C821.754 68.1412 820.175 69.3999 818.042 70.2959C815.908 71.1919 813.199 71.6399 809.914 71.6399C807.439 71.6399 805.263 71.4692 803.386 71.1279C801.508 70.8292 799.695 70.3172 797.946 69.5919V61.5919C799.823 62.4879 801.85 63.1919 804.026 63.7039C806.202 64.2159 808.079 64.4719 809.658 64.4719C811.62 64.4719 813.028 64.1946 813.882 63.6399C814.778 63.0852 815.226 62.3386 815.226 61.3999C815.226 60.7599 814.991 60.1839 814.522 59.6719C814.095 59.1599 813.306 58.6266 812.154 58.0719C811.044 57.5172 809.444 56.8346 807.354 56.0239C805.263 55.1706 803.514 54.2959 802.106 53.3999C800.698 52.4612 799.631 51.3519 798.906 50.0719C798.223 48.7919 797.882 47.1919 797.882 45.2719C797.882 42.0719 799.14 39.6399 801.658 37.9759C804.218 36.2692 807.588 35.4159 811.77 35.4159C814.031 35.4159 816.122 35.6506 818.042 36.1199C820.004 36.5892 821.988 37.2506 823.994 38.1039L821.178 44.6959C819.556 43.9706 817.892 43.3732 816.186 42.9039C814.479 42.4346 812.964 42.1999 811.642 42.1999C810.191 42.1999 809.06 42.4346 808.25 42.9039C807.439 43.3306 807.034 43.9492 807.034 44.7599C807.034 45.3572 807.247 45.8906 807.674 46.3599C808.143 46.8292 808.932 47.3199 810.042 47.8319C811.194 48.3439 812.794 49.0052 814.842 49.8159C816.932 50.6266 818.682 51.5012 820.09 52.4399C821.54 53.3359 822.607 54.4452 823.29 55.7679C824.015 57.0479 824.378 58.6906 824.378 60.6959Z" fill="url(#paint27_linear_112_3974)"/>
<path d="M777.953 35.4159C781.793 35.4159 784.822 36.4186 787.04 38.4239C789.259 40.4292 790.368 43.6932 790.368 48.2159V70.9999H780.768V50.6479C780.768 48.1306 780.299 46.2532 779.361 45.0159C778.465 43.7359 777.057 43.0959 775.137 43.0959C772.235 43.0959 770.251 44.0986 769.185 46.1039C768.161 48.0666 767.648 50.9039 767.648 54.6159V70.9999H757.984V36.0559H765.409L766.753 40.7279H767.137C767.905 39.5759 768.822 38.6159 769.888 37.8479C770.998 37.0372 772.214 36.4399 773.536 36.0559C774.902 35.6292 776.374 35.4159 777.953 35.4159Z" fill="url(#paint28_linear_112_3974)"/>
<path d="M735.288 35.4159C739.683 35.4159 743.032 36.4612 745.336 38.5519C747.64 40.5999 748.792 43.6506 748.792 47.7039V70.9999H742.072L740.216 66.2639H739.96C738.979 67.5012 737.955 68.5252 736.888 69.3359C735.864 70.1466 734.669 70.7226 733.304 71.0639C731.939 71.4479 730.275 71.6399 728.312 71.6399C726.264 71.6399 724.429 71.2559 722.808 70.4879C721.187 69.6772 719.907 68.4612 718.968 66.8399C718.029 65.2186 717.56 63.1706 717.56 60.6959C717.56 57.0266 718.883 54.2746 721.528 52.4399C724.173 50.6052 728.12 49.5812 733.368 49.3679L739.192 49.1759V48.0879C739.192 45.9972 738.723 44.5466 737.784 43.7359C736.845 42.8826 735.523 42.4559 733.816 42.4559C732.237 42.4559 730.616 42.7119 728.952 43.2239C727.288 43.7359 725.645 44.3546 724.024 45.0799L721.208 38.4879C723.043 37.5492 725.133 36.8026 727.48 36.2479C729.869 35.6932 732.472 35.4159 735.288 35.4159ZM735.544 54.9999C732.515 55.0852 730.403 55.5759 729.208 56.4719C728.013 57.3679 727.416 58.6266 727.416 60.2479C727.416 61.7412 727.821 62.8506 728.632 63.5759C729.485 64.2586 730.616 64.5999 732.024 64.5999C734.029 64.5999 735.715 64.0026 737.08 62.8079C738.488 61.6132 739.192 59.9066 739.192 57.6879V54.8079L735.544 54.9999Z" fill="url(#paint29_linear_112_3974)"/>
<path d="M711.625 35.4159C712.265 35.4159 712.948 35.4586 713.673 35.5439C714.441 35.5866 715.038 35.6719 715.465 35.7999L714.505 44.8239C714.036 44.7386 713.481 44.6532 712.841 44.5679C712.201 44.4826 711.433 44.4399 710.537 44.4399C709.556 44.4399 708.553 44.5892 707.529 44.8879C706.548 45.1866 705.63 45.6772 704.777 46.3599C703.924 47.0426 703.241 47.9386 702.729 49.0479C702.217 50.1572 701.961 51.5652 701.961 53.2719V70.9999H692.297V36.0559H699.657L701.065 41.9439H701.513C702.196 40.7066 703.049 39.5972 704.073 38.6159C705.097 37.6346 706.249 36.8666 707.529 36.3119C708.809 35.7146 710.174 35.4159 711.625 35.4159Z" fill="url(#paint30_linear_112_3974)"/>
<path d="M677.235 70.9999H667.443V33.4319H655.091V25.3039H689.587V33.4319H677.235V70.9999Z" fill="url(#paint31_linear_112_3974)"/>
<path d="M618.647 35.4159C621.889 35.4159 624.684 36.0346 627.031 37.2719C629.377 38.4666 631.169 40.2586 632.407 42.6479C633.687 44.9946 634.327 47.8746 634.327 51.2879V55.9599H611.863C611.948 58.6052 612.759 60.6959 614.295 62.2319C615.831 63.7252 618.028 64.4719 620.887 64.4719C623.063 64.4719 625.047 64.2586 626.839 63.8319C628.631 63.4052 630.465 62.7652 632.343 61.9119V69.1439C630.636 69.9972 628.823 70.6159 626.903 70.9999C625.025 71.4266 622.679 71.6399 619.863 71.6399C616.407 71.6399 613.335 70.9999 610.647 69.7199C608.001 68.4399 605.911 66.4772 604.375 63.8319C602.839 61.1439 602.071 57.7946 602.071 53.7839C602.071 49.6879 602.753 46.2959 604.119 43.6079C605.527 40.8772 607.468 38.8292 609.943 37.4639C612.46 36.0986 615.361 35.4159 618.647 35.4159ZM618.903 42.2639C616.983 42.2639 615.425 42.8826 614.231 44.1199C613.036 45.3146 612.332 47.1066 612.119 49.4959H625.303C625.303 48.0879 625.068 46.8506 624.599 45.7839C624.129 44.7172 623.404 43.8639 622.423 43.2239C621.484 42.5839 620.311 42.2639 618.903 42.2639Z" fill="url(#paint32_linear_112_3974)"/>
<path d="M594.336 70.9999H584.672V22.3599H594.336V70.9999Z" fill="url(#paint33_linear_112_3974)"/>
<path d="M571.962 64.0239C573.029 64.0239 574.053 63.9172 575.034 63.7039C576.015 63.4906 576.997 63.2346 577.978 62.9359V70.0399C576.954 70.4666 575.674 70.8292 574.138 71.1279C572.645 71.4692 571.002 71.6399 569.21 71.6399C567.119 71.6399 565.242 71.2986 563.578 70.6159C561.957 69.9332 560.655 68.7599 559.674 67.0959C558.735 65.3892 558.266 63.0426 558.266 60.0559V43.2239H553.722V39.1919L558.97 35.9919L561.722 28.6319H567.802V36.0559H577.594V43.2239H567.802V60.0559C567.802 61.3786 568.186 62.3812 568.954 63.0639C569.722 63.7039 570.725 64.0239 571.962 64.0239Z" fill="url(#paint34_linear_112_3974)"/>
<path d="M547.525 36.0559V70.9999H537.861V36.0559H547.525ZM542.725 22.2959C544.133 22.2959 545.349 22.6372 546.373 23.3199C547.44 23.9599 547.973 25.1972 547.973 27.0319C547.973 28.7812 547.44 29.9972 546.373 30.6799C545.349 31.3626 544.133 31.7039 542.725 31.7039C541.274 31.7039 540.037 31.3626 539.013 30.6799C537.989 29.9972 537.477 28.7812 537.477 27.0319C537.477 25.1972 537.989 23.9599 539.013 23.3199C540.037 22.6372 541.274 22.2959 542.725 22.2959Z" fill="url(#paint35_linear_112_3974)"/>
<path d="M525.087 64.0239C526.154 64.0239 527.178 63.9172 528.159 63.7039C529.14 63.4906 530.122 63.2346 531.103 62.9359V70.0399C530.079 70.4666 528.799 70.8292 527.263 71.1279C525.77 71.4692 524.127 71.6399 522.335 71.6399C520.244 71.6399 518.367 71.2986 516.703 70.6159C515.082 69.9332 513.78 68.7599 512.799 67.0959C511.86 65.3892 511.391 63.0426 511.391 60.0559V43.2239H506.847V39.1919L512.095 35.9919L514.847 28.6319H520.927V36.0559H530.719V43.2239H520.927V60.0559C520.927 61.3786 521.311 62.3812 522.079 63.0639C522.847 63.7039 523.85 64.0239 525.087 64.0239Z" fill="url(#paint36_linear_112_3974)"/>
<path d="M479.274 33.6879C479.274 35.0106 479.231 36.2692 479.146 37.4639C479.103 38.6586 479.018 39.7039 478.89 40.5999H479.274C480.212 39.1492 481.471 37.9332 483.05 36.9519C484.628 35.9279 486.676 35.4159 489.194 35.4159C493.076 35.4159 496.234 36.9519 498.666 40.0239C501.098 43.0532 502.314 47.5332 502.314 53.4639C502.314 57.4319 501.759 60.7812 500.65 63.5119C499.54 66.1999 497.962 68.2266 495.914 69.5919C493.908 70.9572 491.583 71.6399 488.938 71.6399C486.378 71.6399 484.351 71.1919 482.858 70.2959C481.407 69.3572 480.212 68.3332 479.274 67.2239H478.634L477.034 70.9999H469.61V22.3599H479.274V33.6879ZM486.058 43.0959C484.436 43.0959 483.114 43.4372 482.09 44.1199C481.108 44.8026 480.383 45.8479 479.914 47.2559C479.487 48.6212 479.274 50.4132 479.274 52.6319V53.7839C479.274 57.0692 479.764 59.5652 480.746 61.2719C481.77 62.9786 483.583 63.8319 486.186 63.8319C488.276 63.8319 489.855 62.9359 490.922 61.1439C491.988 59.3519 492.522 56.7492 492.522 53.3359C492.522 49.9652 491.988 47.4266 490.922 45.7199C489.898 43.9706 488.276 43.0959 486.058 43.0959Z" fill="url(#paint37_linear_112_3974)"/>
<path d="M460.177 36.0559V70.9999H452.753L451.537 66.5199H450.961C450.235 67.7146 449.297 68.6959 448.145 69.4639C447.035 70.2319 445.798 70.7866 444.433 71.1279C443.11 71.4692 441.702 71.6399 440.209 71.6399C437.734 71.6399 435.558 71.1919 433.681 70.2959C431.846 69.3999 430.395 68.0132 429.329 66.1359C428.305 64.2586 427.793 61.8266 427.793 58.8399V36.0559H437.521V56.4079C437.521 58.8826 437.947 60.7599 438.801 62.0399C439.697 63.2772 441.105 63.8959 443.025 63.8959C444.987 63.8959 446.502 63.4692 447.569 62.6159C448.678 61.7199 449.446 60.4186 449.873 58.7119C450.299 57.0052 450.513 54.9146 450.513 52.4399V36.0559H460.177Z" fill="url(#paint38_linear_112_3974)"/>
<path d="M420.767 58.3279C420.767 61.0159 420.105 63.3626 418.783 65.3679C417.46 67.3732 415.54 68.9306 413.023 70.0399C410.548 71.1066 407.519 71.6399 403.935 71.6399C402.356 71.6399 400.799 71.5332 399.263 71.3199C397.769 71.1066 396.319 70.8079 394.911 70.4239C393.545 69.9972 392.244 69.4852 391.007 68.8879V59.8639C393.183 60.8026 395.423 61.6772 397.727 62.4879C400.073 63.2559 402.399 63.6399 404.703 63.6399C406.281 63.6399 407.54 63.4266 408.479 62.9999C409.46 62.5732 410.164 61.9972 410.591 61.2719C411.06 60.5466 411.295 59.7146 411.295 58.7759C411.295 57.6239 410.889 56.6426 410.079 55.8319C409.311 55.0212 408.265 54.2746 406.943 53.5919C405.62 52.8666 404.105 52.0986 402.399 51.2879C401.332 50.7759 400.18 50.1786 398.943 49.4959C397.705 48.7706 396.511 47.8959 395.359 46.8719C394.249 45.8052 393.332 44.5252 392.607 43.0319C391.881 41.5386 391.519 39.7466 391.519 37.6559C391.519 34.9252 392.137 32.5999 393.375 30.6799C394.655 28.7172 396.447 27.2239 398.751 26.1999C401.097 25.1759 403.849 24.6639 407.007 24.6639C409.396 24.6639 411.657 24.9412 413.791 25.4959C415.967 26.0506 418.228 26.8399 420.575 27.8639L417.439 35.4159C415.348 34.5626 413.471 33.9012 411.807 33.4319C410.143 32.9626 408.436 32.7279 406.687 32.7279C405.492 32.7279 404.468 32.9199 403.615 33.3039C402.761 33.6879 402.1 34.2212 401.631 34.9039C401.204 35.5866 400.991 36.3972 400.991 37.3359C400.991 38.4026 401.311 39.3199 401.951 40.0879C402.591 40.8132 403.551 41.5172 404.831 42.1999C406.111 42.8826 407.711 43.6932 409.631 44.6319C411.977 45.7412 413.961 46.8932 415.583 48.0879C417.247 49.2826 418.527 50.6906 419.423 52.3119C420.319 53.9332 420.767 55.9386 420.767 58.3279Z" fill="url(#paint39_linear_112_3974)"/>
<defs>
<filter id="filter0_f_112_3974" x="370.473" y="14.2959" width="657.362" height="89.3442" filterUnits="userSpaceOnUse" color-interpolation-filters="sRGB">
<feFlood flood-opacity="0" result="BackgroundImageFix"/>
<feBlend mode="normal" in="SourceGraphic" in2="BackgroundImageFix" result="shape"/>
<feGaussianBlur stdDeviation="10" result="effect1_foregroundBlur_112_3974"/>
</filter>
<linearGradient id="paint0_linear_112_3974" x1="288" y1="64.0036" x2="1113" y2="64.0028" gradientUnits="userSpaceOnUse">
<stop stop-color="white" stop-opacity="0.3"/>
<stop offset="0.359008" stop-color="#CBB0F8"/>
<stop offset="0.788712" stop-color="#FCD9ED"/>
<stop offset="1" stop-color="white" stop-opacity="0.3"/>
</linearGradient>
<linearGradient id="paint1_linear_112_3974" x1="1096.13" y1="49.666" x2="-10818.7" y2="49.6855" gradientUnits="userSpaceOnUse">
<stop stop-color="#F4439F"/>
<stop offset="1" stop-color="#7C3AED"/>
</linearGradient>
<linearGradient id="paint2_linear_112_3974" x1="1822.48" y1="49.3944" x2="-9552.86" y2="49.4125" gradientUnits="userSpaceOnUse">
<stop stop-color="#F4439F"/>
<stop offset="1" stop-color="#7C3AED"/>
</linearGradient>
<linearGradient id="paint3_linear_112_3974" x1="6064.15" y1="58.818" x2="-30697.5" y2="59.0718" gradientUnits="userSpaceOnUse">
<stop stop-color="#F4439F"/>
<stop offset="1" stop-color="#7C3AED"/>
</linearGradient>
<linearGradient id="paint4_linear_112_3974" x1="3625.17" y1="54.7962" x2="-12282.3" y2="54.8382" gradientUnits="userSpaceOnUse">
<stop stop-color="#F4439F"/>
<stop offset="1" stop-color="#7C3AED"/>
</linearGradient>
<linearGradient id="paint5_linear_112_3974" x1="3638.48" y1="49.3944" x2="-8715.88" y2="49.4157" gradientUnits="userSpaceOnUse">
<stop stop-color="#F4439F"/>
<stop offset="1" stop-color="#7C3AED"/>
</linearGradient>
<linearGradient id="paint6_linear_112_3974" x1="11970.2" y1="58.7853" x2="-27956.5" y2="59.0843" gradientUnits="userSpaceOnUse">
<stop stop-color="#F4439F"/>
<stop offset="1" stop-color="#7C3AED"/>
</linearGradient>
<linearGradient id="paint7_linear_112_3974" x1="5402.78" y1="49.3944" x2="-9159.85" y2="49.424" gradientUnits="userSpaceOnUse">
<stop stop-color="#F4439F"/>
<stop offset="1" stop-color="#7C3AED"/>
</linearGradient>
<linearGradient id="paint8_linear_112_3974" x1="5252.04" y1="49.666" x2="-6662.84" y2="49.6854" gradientUnits="userSpaceOnUse">
<stop stop-color="#F4439F"/>
<stop offset="1" stop-color="#7C3AED"/>
</linearGradient>
<linearGradient id="paint9_linear_112_3974" x1="6230.43" y1="49.3945" x2="-6123.93" y2="49.4158" gradientUnits="userSpaceOnUse">
<stop stop-color="#F4439F"/>
<stop offset="1" stop-color="#7C3AED"/>
</linearGradient>
<linearGradient id="paint10_linear_112_3974" x1="8936.31" y1="49.666" x2="-7718.19" y2="49.7041" gradientUnits="userSpaceOnUse">
<stop stop-color="#F4439F"/>
<stop offset="1" stop-color="#7C3AED"/>
</linearGradient>
<linearGradient id="paint11_linear_112_3974" x1="6795.84" y1="57.184" x2="-4389.55" y2="57.2061" gradientUnits="userSpaceOnUse">
<stop stop-color="#F4439F"/>
<stop offset="1" stop-color="#7C3AED"/>
</linearGradient>
<linearGradient id="paint12_linear_112_3974" x1="8255.43" y1="49.3945" x2="-3706.72" y2="49.4145" gradientUnits="userSpaceOnUse">
<stop stop-color="#F4439F"/>
<stop offset="1" stop-color="#7C3AED"/>
</linearGradient>
<linearGradient id="paint13_linear_112_3974" x1="27753.2" y1="58.7853" x2="-12173.5" y2="59.0843" gradientUnits="userSpaceOnUse">
<stop stop-color="#F4439F"/>
<stop offset="1" stop-color="#7C3AED"/>
</linearGradient>
<linearGradient id="paint14_linear_112_3974" x1="12080" y1="54.7962" x2="-3827.47" y2="54.8382" gradientUnits="userSpaceOnUse">
<stop stop-color="#F4439F"/>
<stop offset="1" stop-color="#7C3AED"/>
</linearGradient>
<linearGradient id="paint15_linear_112_3974" x1="28360.2" y1="58.818" x2="-8401.58" y2="59.0718" gradientUnits="userSpaceOnUse">
<stop stop-color="#F4439F"/>
<stop offset="1" stop-color="#7C3AED"/>
</linearGradient>
<linearGradient id="paint16_linear_112_3974" x1="13273" y1="54.7962" x2="-2634.41" y2="54.8382" gradientUnits="userSpaceOnUse">
<stop stop-color="#F4439F"/>
<stop offset="1" stop-color="#7C3AED"/>
</linearGradient>
<linearGradient id="paint17_linear_112_3974" x1="10648.2" y1="58.4672" x2="-1150.09" y2="58.4937" gradientUnits="userSpaceOnUse">
<stop stop-color="#F4439F"/>
<stop offset="1" stop-color="#7C3AED"/>
</linearGradient>
<linearGradient id="paint18_linear_112_3974" x1="11546.8" y1="48.7785" x2="-368.123" y2="48.798" gradientUnits="userSpaceOnUse">
<stop stop-color="#F4439F"/>
<stop offset="1" stop-color="#7C3AED"/>
</linearGradient>
<linearGradient id="paint19_linear_112_3974" x1="1012.47" y1="58.5001" x2="387.467" y2="58.5001" gradientUnits="userSpaceOnUse">
<stop stop-color="#F4439F"/>
<stop offset="1" stop-color="#7C3AED"/>
</linearGradient>
<linearGradient id="paint20_linear_112_3974" x1="700.5" y1="72" x2="700.5" y2="117" gradientUnits="userSpaceOnUse">
<stop offset="0.0001" stop-color="white" stop-opacity="0.1"/>
<stop offset="1" stop-color="white" stop-opacity="0"/>
</linearGradient>
<linearGradient id="paint21_linear_112_3974" x1="1096.66" y1="-22.6551" x2="848.944" y2="1724.42" gradientUnits="userSpaceOnUse">
<stop stop-color="#F4439F"/>
<stop offset="1" stop-color="#7C3AED"/>
</linearGradient>
<linearGradient id="paint22_linear_112_3974" x1="1823.02" y1="-21.8609" x2="1572.93" y2="1692.37" gradientUnits="userSpaceOnUse">
<stop stop-color="#F4439F"/>
<stop offset="1" stop-color="#7C3AED"/>
</linearGradient>
<linearGradient id="paint23_linear_112_3974" x1="6064.68" y1="2.74634" x2="6021.01" y2="1303.39" gradientUnits="userSpaceOnUse">
<stop stop-color="#F4439F"/>
<stop offset="1" stop-color="#7C3AED"/>
</linearGradient>
<linearGradient id="paint24_linear_112_3974" x1="3625.7" y1="-7.11224" x2="3497.12" y2="1456.15" gradientUnits="userSpaceOnUse">
<stop stop-color="#F4439F"/>
<stop offset="1" stop-color="#7C3AED"/>
</linearGradient>
<linearGradient id="paint25_linear_112_3974" x1="3639.02" y1="-21.8609" x2="3408.01" y2="1697.82" gradientUnits="userSpaceOnUse">
<stop stop-color="#F4439F"/>
<stop offset="1" stop-color="#7C3AED"/>
</linearGradient>
<linearGradient id="paint26_linear_112_3974" x1="11970.7" y1="2.65567" x2="11930.4" y2="1305.23" gradientUnits="userSpaceOnUse">
<stop stop-color="#F4439F"/>
<stop offset="1" stop-color="#7C3AED"/>
</linearGradient>
<linearGradient id="paint27_linear_112_3974" x1="5403.31" y1="-21.8609" x2="5206.36" y2="1706.41" gradientUnits="userSpaceOnUse">
<stop stop-color="#F4439F"/>
<stop offset="1" stop-color="#7C3AED"/>
</linearGradient>
<linearGradient id="paint28_linear_112_3974" x1="5252.57" y1="-22.6551" x2="5004.85" y2="1724.42" gradientUnits="userSpaceOnUse">
<stop stop-color="#F4439F"/>
<stop offset="1" stop-color="#7C3AED"/>
</linearGradient>
<linearGradient id="paint29_linear_112_3974" x1="6230.96" y1="-21.8609" x2="5999.96" y2="1697.82" gradientUnits="userSpaceOnUse">
<stop stop-color="#F4439F"/>
<stop offset="1" stop-color="#7C3AED"/>
</linearGradient>
<linearGradient id="paint30_linear_112_3974" x1="8936.84" y1="-22.6551" x2="8757.9" y2="1741.4" gradientUnits="userSpaceOnUse">
<stop stop-color="#F4439F"/>
<stop offset="1" stop-color="#7C3AED"/>
</linearGradient>
<linearGradient id="paint31_linear_112_3974" x1="6796.37" y1="-1.78866" x2="6635.37" y2="1367.1" gradientUnits="userSpaceOnUse">
<stop stop-color="#F4439F"/>
<stop offset="1" stop-color="#7C3AED"/>
</linearGradient>
<linearGradient id="paint32_linear_112_3974" x1="8255.97" y1="-21.8609" x2="8017.67" y2="1695.8" gradientUnits="userSpaceOnUse">
<stop stop-color="#F4439F"/>
<stop offset="1" stop-color="#7C3AED"/>
</linearGradient>
<linearGradient id="paint33_linear_112_3974" x1="27753.7" y1="2.65571" x2="27713.4" y2="1305.23" gradientUnits="userSpaceOnUse">
<stop stop-color="#F4439F"/>
<stop offset="1" stop-color="#7C3AED"/>
</linearGradient>
<linearGradient id="paint34_linear_112_3974" x1="12080.5" y1="-7.11224" x2="11951.9" y2="1456.15" gradientUnits="userSpaceOnUse">
<stop stop-color="#F4439F"/>
<stop offset="1" stop-color="#7C3AED"/>
</linearGradient>
<linearGradient id="paint35_linear_112_3974" x1="28360.7" y1="2.74632" x2="28317" y2="1303.39" gradientUnits="userSpaceOnUse">
<stop stop-color="#F4439F"/>
<stop offset="1" stop-color="#7C3AED"/>
</linearGradient>
<linearGradient id="paint36_linear_112_3974" x1="13273.6" y1="-7.11225" x2="13145" y2="1456.15" gradientUnits="userSpaceOnUse">
<stop stop-color="#F4439F"/>
<stop offset="1" stop-color="#7C3AED"/>
</linearGradient>
<linearGradient id="paint37_linear_112_3974" x1="10648.7" y1="2.91074" x2="10517.1" y2="1276.19" gradientUnits="userSpaceOnUse">
<stop stop-color="#F4439F"/>
<stop offset="1" stop-color="#7C3AED"/>
</linearGradient>
<linearGradient id="paint38_linear_112_3974" x1="11547.3" y1="-23.5426" x2="11299.6" y2="1723.54" gradientUnits="userSpaceOnUse">
<stop stop-color="#F4439F"/>
<stop offset="1" stop-color="#7C3AED"/>
</linearGradient>
<linearGradient id="paint39_linear_112_3974" x1="1013" y1="3.00005" x2="491.038" y2="270.772" gradientUnits="userSpaceOnUse">
<stop stop-color="#F4439F"/>
<stop offset="1" stop-color="#7C3AED"/>
</linearGradient>
</defs>
</svg>
