<svg width="1400" height="120" viewBox="0 0 1400 120" fill="none" xmlns="http://www.w3.org/2000/svg">
<path d="M345 56H1055V72H345V56Z" fill="url(#paint0_linear_112_4030)"/>
<mask id="mask0_112_4030" style="mask-type:alpha" maskUnits="userSpaceOnUse" x="345" y="72" width="710" height="45">
<path d="M345 72H1055V117H345V72Z" fill="#C4C4C4"/>
</mask>
<g mask="url(#mask0_112_4030)">
<g filter="url(#filter0_f_112_4030)">
<path d="M937.388 47.4159C941.228 47.4159 944.257 48.4186 946.476 50.4239C948.695 52.4292 949.804 55.6932 949.804 60.2159V82.9999H940.204V62.6479C940.204 60.1306 939.735 58.2532 938.796 57.0159C937.9 55.7359 936.492 55.0959 934.572 55.0959C931.671 55.0959 929.687 56.0986 928.62 58.1039C927.596 60.0666 927.084 62.9039 927.084 66.6159V82.9999H917.42V48.0559H924.844L926.188 52.7279H926.572C927.34 51.5759 928.257 50.6159 929.324 49.8479C930.433 49.0372 931.649 48.4399 932.972 48.0559C934.337 47.6292 935.809 47.4159 937.388 47.4159Z" fill="url(#paint1_linear_112_4030)" fill-opacity="0.7"/>
<path d="M909.676 65.4639C909.676 68.3652 909.271 70.9466 908.46 73.2079C907.692 75.4692 906.561 77.3679 905.068 78.9039C903.617 80.4399 901.847 81.6132 899.756 82.4239C897.665 83.2346 895.297 83.6399 892.652 83.6399C890.177 83.6399 887.916 83.2346 885.868 82.4239C883.82 81.6132 882.049 80.4399 880.556 78.9039C879.063 77.3679 877.889 75.4692 877.036 73.2079C876.183 70.9466 875.756 68.3652 875.756 65.4639C875.756 61.5812 876.439 58.2959 877.804 55.6079C879.169 52.9199 881.132 50.8932 883.692 49.5279C886.252 48.1199 889.303 47.4159 892.844 47.4159C896.129 47.4159 899.031 48.1199 901.548 49.5279C904.065 50.8932 906.049 52.9199 907.5 55.6079C908.951 58.2959 909.676 61.5812 909.676 65.4639ZM885.612 65.4639C885.612 67.7252 885.847 69.6666 886.316 71.2879C886.828 72.9092 887.596 74.1466 888.62 74.9999C889.687 75.8532 891.073 76.2799 892.78 76.2799C894.444 76.2799 895.788 75.8532 896.812 74.9999C897.879 74.1466 898.647 72.9092 899.116 71.2879C899.585 69.6666 899.82 67.7252 899.82 65.4639C899.82 63.1599 899.564 61.2186 899.052 59.6399C898.583 58.0612 897.836 56.8666 896.812 56.0559C895.788 55.2026 894.423 54.7759 892.716 54.7759C890.241 54.7759 888.428 55.6932 887.276 57.5279C886.167 59.3626 885.612 62.0079 885.612 65.4639Z" fill="url(#paint2_linear_112_4030)" fill-opacity="0.7"/>
<path d="M868.023 48.0559V82.9999H858.359V48.0559H868.023ZM863.223 34.2959C864.631 34.2959 865.847 34.6372 866.871 35.3199C867.938 35.9599 868.471 37.1972 868.471 39.0319C868.471 40.7812 867.938 41.9972 866.871 42.6799C865.847 43.3626 864.631 43.7039 863.223 43.7039C861.772 43.7039 860.535 43.3626 859.511 42.6799C858.487 41.9972 857.975 40.7812 857.975 39.0319C857.975 37.1972 858.487 35.9599 859.511 35.3199C860.535 34.6372 861.772 34.2959 863.223 34.2959Z" fill="url(#paint3_linear_112_4030)" fill-opacity="0.7"/>
<path d="M845.585 76.0239C846.652 76.0239 847.676 75.9172 848.657 75.7039C849.638 75.4906 850.62 75.2346 851.601 74.9359V82.0399C850.577 82.4666 849.297 82.8292 847.761 83.1279C846.268 83.4692 844.625 83.6399 842.833 83.6399C840.742 83.6399 838.865 83.2986 837.201 82.6159C835.58 81.9332 834.278 80.7599 833.297 79.0959C832.358 77.3892 831.889 75.0426 831.889 72.0559V55.2239H827.345V51.1919L832.593 47.9919L835.345 40.6319H841.425V48.0559H851.217V55.2239H841.425V72.0559C841.425 73.3786 841.809 74.3812 842.577 75.0639C843.345 75.7039 844.348 76.0239 845.585 76.0239Z" fill="url(#paint4_linear_112_4030)" fill-opacity="0.7"/>
<path d="M807.848 47.4159C812.243 47.4159 815.592 48.4612 817.896 50.5519C820.2 52.5999 821.352 55.6506 821.352 59.7039V82.9999H814.632L812.776 78.2639H812.52C811.539 79.5012 810.515 80.5252 809.448 81.3359C808.424 82.1466 807.23 82.7226 805.864 83.0639C804.499 83.4479 802.835 83.6399 800.872 83.6399C798.824 83.6399 796.99 83.2559 795.368 82.4879C793.747 81.6772 792.467 80.4612 791.528 78.8399C790.59 77.2186 790.12 75.1706 790.12 72.6959C790.12 69.0266 791.443 66.2746 794.088 64.4399C796.734 62.6052 800.68 61.5812 805.928 61.3679L811.752 61.1759V60.0879C811.752 57.9972 811.283 56.5466 810.344 55.7359C809.406 54.8826 808.083 54.4559 806.376 54.4559C804.798 54.4559 803.176 54.7119 801.512 55.2239C799.848 55.7359 798.206 56.3546 796.584 57.0799L793.768 50.4879C795.603 49.5492 797.694 48.8026 800.04 48.2479C802.43 47.6932 805.032 47.4159 807.848 47.4159ZM808.104 66.9999C805.075 67.0852 802.963 67.5759 801.768 68.4719C800.574 69.3679 799.976 70.6266 799.976 72.2479C799.976 73.7412 800.382 74.8506 801.192 75.5759C802.046 76.2586 803.176 76.5999 804.584 76.5999C806.59 76.5999 808.275 76.0026 809.64 74.8079C811.048 73.6132 811.752 71.9066 811.752 69.6879V66.8079L808.104 66.9999Z" fill="url(#paint5_linear_112_4030)" fill-opacity="0.7"/>
<path d="M782.834 82.9999H773.17V34.3599H782.834V82.9999Z" fill="url(#paint6_linear_112_4030)" fill-opacity="0.7"/>
<path d="M765.813 72.6959C765.813 74.9146 765.28 76.8559 764.213 78.5199C763.189 80.1412 761.61 81.3999 759.477 82.2959C757.344 83.1919 754.634 83.6399 751.349 83.6399C748.874 83.6399 746.698 83.4692 744.821 83.1279C742.944 82.8292 741.13 82.3172 739.381 81.5919V73.5919C741.258 74.4879 743.285 75.1919 745.461 75.7039C747.637 76.2159 749.514 76.4719 751.093 76.4719C753.056 76.4719 754.464 76.1946 755.317 75.6399C756.213 75.0852 756.661 74.3386 756.661 73.3999C756.661 72.7599 756.426 72.1839 755.957 71.6719C755.53 71.1599 754.741 70.6266 753.589 70.0719C752.48 69.5172 750.88 68.8346 748.789 68.0239C746.698 67.1706 744.949 66.2959 743.541 65.3999C742.133 64.4612 741.066 63.3519 740.341 62.0719C739.658 60.7919 739.317 59.1919 739.317 57.2719C739.317 54.0719 740.576 51.6399 743.093 49.9759C745.653 48.2692 749.024 47.4159 753.205 47.4159C755.466 47.4159 757.557 47.6506 759.477 48.1199C761.44 48.5892 763.424 49.2506 765.429 50.1039L762.613 56.6959C760.992 55.9706 759.328 55.3732 757.621 54.9039C755.914 54.4346 754.4 54.1999 753.077 54.1999C751.626 54.1999 750.496 54.4346 749.685 54.9039C748.874 55.3306 748.469 55.9492 748.469 56.7599C748.469 57.3572 748.682 57.8906 749.109 58.3599C749.578 58.8292 750.368 59.3199 751.477 59.8319C752.629 60.3439 754.229 61.0052 756.277 61.8159C758.368 62.6266 760.117 63.5012 761.525 64.4399C762.976 65.3359 764.042 66.4452 764.725 67.7679C765.45 69.0479 765.813 70.6906 765.813 72.6959Z" fill="url(#paint7_linear_112_4030)" fill-opacity="0.7"/>
<path d="M719.388 47.4159C723.228 47.4159 726.257 48.4186 728.476 50.4239C730.695 52.4292 731.804 55.6932 731.804 60.2159V82.9999H722.204V62.6479C722.204 60.1306 721.735 58.2532 720.796 57.0159C719.9 55.7359 718.492 55.0959 716.572 55.0959C713.671 55.0959 711.687 56.0986 710.62 58.1039C709.596 60.0666 709.084 62.9039 709.084 66.6159V82.9999H699.42V48.0559H706.844L708.188 52.7279H708.572C709.34 51.5759 710.257 50.6159 711.324 49.8479C712.433 49.0372 713.649 48.4399 714.972 48.0559C716.337 47.6292 717.809 47.4159 719.388 47.4159Z" fill="url(#paint8_linear_112_4030)" fill-opacity="0.7"/>
<path d="M676.723 47.4159C681.118 47.4159 684.467 48.4612 686.771 50.5519C689.075 52.5999 690.227 55.6506 690.227 59.7039V82.9999H683.507L681.651 78.2639H681.395C680.414 79.5012 679.39 80.5252 678.323 81.3359C677.299 82.1466 676.105 82.7226 674.739 83.0639C673.374 83.4479 671.71 83.6399 669.747 83.6399C667.699 83.6399 665.865 83.2559 664.243 82.4879C662.622 81.6772 661.342 80.4612 660.403 78.8399C659.465 77.2186 658.995 75.1706 658.995 72.6959C658.995 69.0266 660.318 66.2746 662.963 64.4399C665.609 62.6052 669.555 61.5812 674.803 61.3679L680.627 61.1759V60.0879C680.627 57.9972 680.158 56.5466 679.219 55.7359C678.281 54.8826 676.958 54.4559 675.251 54.4559C673.673 54.4559 672.051 54.7119 670.387 55.2239C668.723 55.7359 667.081 56.3546 665.459 57.0799L662.643 50.4879C664.478 49.5492 666.569 48.8026 668.915 48.2479C671.305 47.6932 673.907 47.4159 676.723 47.4159ZM676.979 66.9999C673.95 67.0852 671.838 67.5759 670.643 68.4719C669.449 69.3679 668.851 70.6266 668.851 72.2479C668.851 73.7412 669.257 74.8506 670.067 75.5759C670.921 76.2586 672.051 76.5999 673.459 76.5999C675.465 76.5999 677.15 76.0026 678.515 74.8079C679.923 73.6132 680.627 71.9066 680.627 69.6879V66.8079L676.979 66.9999Z" fill="url(#paint9_linear_112_4030)" fill-opacity="0.7"/>
<path d="M653.06 47.4159C653.7 47.4159 654.383 47.4586 655.108 47.5439C655.876 47.5866 656.474 47.6719 656.9 47.7999L655.94 56.8239C655.471 56.7386 654.916 56.6532 654.276 56.5679C653.636 56.4826 652.868 56.4399 651.972 56.4399C650.991 56.4399 649.988 56.5892 648.964 56.8879C647.983 57.1866 647.066 57.6772 646.212 58.3599C645.359 59.0426 644.676 59.9386 644.164 61.0479C643.652 62.1572 643.396 63.5652 643.396 65.2719V82.9999H633.732V48.0559H641.092L642.5 53.9439H642.948C643.631 52.7066 644.484 51.5972 645.508 50.6159C646.532 49.6346 647.684 48.8666 648.964 48.3119C650.244 47.7146 651.61 47.4159 653.06 47.4159Z" fill="url(#paint10_linear_112_4030)" fill-opacity="0.7"/>
<path d="M618.67 82.9999H608.878V45.4319H596.526V37.3039H631.022V45.4319H618.67V82.9999Z" fill="url(#paint11_linear_112_4030)" fill-opacity="0.7"/>
<path d="M570.647 76.0239C571.714 76.0239 572.738 75.9172 573.719 75.7039C574.701 75.4906 575.682 75.2346 576.663 74.9359V82.0399C575.639 82.4666 574.359 82.8292 572.823 83.1279C571.33 83.4692 569.687 83.6399 567.895 83.6399C565.805 83.6399 563.927 83.2986 562.263 82.6159C560.642 81.9332 559.341 80.7599 558.359 79.0959C557.421 77.3892 556.951 75.0426 556.951 72.0559V55.2239H552.407V51.1919L557.655 47.9919L560.407 40.6319H566.487V48.0559H576.279V55.2239H566.487V72.0559C566.487 73.3786 566.871 74.3812 567.639 75.0639C568.407 75.7039 569.41 76.0239 570.647 76.0239Z" fill="url(#paint12_linear_112_4030)" fill-opacity="0.7"/>
<path d="M526.095 65.1439L514.831 48.0559H525.647L532.431 59.1919L539.279 48.0559H550.095L538.703 65.1439L550.607 82.9999H539.791L532.431 71.0319L525.071 82.9999H514.255L526.095 65.1439Z" fill="url(#paint13_linear_112_4030)" fill-opacity="0.7"/>
<path d="M496.582 47.4159C499.825 47.4159 502.619 48.0346 504.966 49.2719C507.313 50.4666 509.105 52.2586 510.342 54.6479C511.622 56.9946 512.262 59.8746 512.262 63.2879V67.9599H489.798C489.883 70.6052 490.694 72.6959 492.23 74.2319C493.766 75.7252 495.963 76.4719 498.822 76.4719C500.998 76.4719 502.982 76.2586 504.774 75.8319C506.566 75.4052 508.401 74.7652 510.278 73.9119V81.1439C508.571 81.9972 506.758 82.6159 504.838 82.9999C502.961 83.4266 500.614 83.6399 497.798 83.6399C494.342 83.6399 491.27 82.9999 488.582 81.7199C485.937 80.4399 483.846 78.4772 482.31 75.8319C480.774 73.1439 480.006 69.7946 480.006 65.7839C480.006 61.6879 480.689 58.2959 482.054 55.6079C483.462 52.8772 485.403 50.8292 487.878 49.4639C490.395 48.0986 493.297 47.4159 496.582 47.4159ZM496.838 54.2639C494.918 54.2639 493.361 54.8826 492.166 56.1199C490.971 57.3146 490.267 59.1066 490.054 61.4959H503.238C503.238 60.0879 503.003 58.8506 502.534 57.7839C502.065 56.7172 501.339 55.8639 500.358 55.2239C499.419 54.5839 498.246 54.2639 496.838 54.2639Z" fill="url(#paint14_linear_112_4030)" fill-opacity="0.7"/>
<path d="M467.92 82.9999H458.128V45.4319H445.776V37.3039H480.272V45.4319H467.92V82.9999Z" fill="url(#paint15_linear_112_4030)" fill-opacity="0.7"/>
</g>
</g>
<path d="M345 72H1055V105C1055 111.627 1049.63 117 1043 117H357C350.373 117 345 111.627 345 105V72Z" fill="url(#paint16_linear_112_4030)"/>
<path d="M937.921 35.4159C941.761 35.4159 944.791 36.4186 947.009 38.4239C949.228 40.4292 950.337 43.6932 950.337 48.2159V70.9999H940.737V50.6479C940.737 48.1306 940.268 46.2532 939.329 45.0159C938.433 43.7359 937.025 43.0959 935.105 43.0959C932.204 43.0959 930.22 44.0986 929.153 46.1039C928.129 48.0666 927.617 50.9039 927.617 54.6159V70.9999H917.953V36.0559H925.377L926.721 40.7279H927.105C927.873 39.5759 928.791 38.6159 929.857 37.8479C930.967 37.0372 932.183 36.4399 933.505 36.0559C934.871 35.6292 936.343 35.4159 937.921 35.4159Z" fill="url(#paint17_linear_112_4030)"/>
<path d="M910.209 53.4639C910.209 56.3652 909.804 58.9466 908.993 61.2079C908.225 63.4692 907.095 65.3679 905.601 66.9039C904.151 68.4399 902.38 69.6132 900.289 70.4239C898.199 71.2346 895.831 71.6399 893.185 71.6399C890.711 71.6399 888.449 71.2346 886.401 70.4239C884.353 69.6132 882.583 68.4399 881.089 66.9039C879.596 65.3679 878.423 63.4692 877.569 61.2079C876.716 58.9466 876.289 56.3652 876.289 53.4639C876.289 49.5812 876.972 46.2959 878.337 43.6079C879.703 40.9199 881.665 38.8932 884.225 37.5279C886.785 36.1199 889.836 35.4159 893.377 35.4159C896.663 35.4159 899.564 36.1199 902.081 37.5279C904.599 38.8932 906.583 40.9199 908.033 43.6079C909.484 46.2959 910.209 49.5812 910.209 53.4639ZM886.145 53.4639C886.145 55.7252 886.38 57.6666 886.849 59.2879C887.361 60.9092 888.129 62.1466 889.153 62.9999C890.22 63.8532 891.607 64.2799 893.313 64.2799C894.977 64.2799 896.321 63.8532 897.345 62.9999C898.412 62.1466 899.18 60.9092 899.649 59.2879C900.119 57.6666 900.353 55.7252 900.353 53.4639C900.353 51.1599 900.097 49.2186 899.585 47.6399C899.116 46.0612 898.369 44.8666 897.345 44.0559C896.321 43.2026 894.956 42.7759 893.249 42.7759C890.775 42.7759 888.961 43.6932 887.809 45.5279C886.7 47.3626 886.145 50.0079 886.145 53.4639Z" fill="url(#paint18_linear_112_4030)"/>
<path d="M868.556 36.0559V70.9999H858.892V36.0559H868.556ZM863.756 22.2959C865.164 22.2959 866.38 22.6372 867.404 23.3199C868.471 23.9599 869.004 25.1972 869.004 27.0319C869.004 28.7812 868.471 29.9972 867.404 30.6799C866.38 31.3626 865.164 31.7039 863.756 31.7039C862.306 31.7039 861.068 31.3626 860.044 30.6799C859.02 29.9972 858.508 28.7812 858.508 27.0319C858.508 25.1972 859.02 23.9599 860.044 23.3199C861.068 22.6372 862.306 22.2959 863.756 22.2959Z" fill="url(#paint19_linear_112_4030)"/>
<path d="M846.118 64.0239C847.185 64.0239 848.209 63.9172 849.19 63.7039C850.172 63.4906 851.153 63.2346 852.134 62.9359V70.0399C851.11 70.4666 849.83 70.8292 848.294 71.1279C846.801 71.4692 845.158 71.6399 843.366 71.6399C841.276 71.6399 839.398 71.2986 837.734 70.6159C836.113 69.9332 834.812 68.7599 833.83 67.0959C832.892 65.3892 832.422 63.0426 832.422 60.0559V43.2239H827.878V39.1919L833.126 35.9919L835.878 28.6319H841.958V36.0559H851.75V43.2239H841.958V60.0559C841.958 61.3786 842.342 62.3812 843.11 63.0639C843.878 63.7039 844.881 64.0239 846.118 64.0239Z" fill="url(#paint20_linear_112_4030)"/>
<path d="M808.382 35.4159C812.776 35.4159 816.126 36.4612 818.43 38.5519C820.734 40.5999 821.886 43.6506 821.886 47.7039V70.9999H815.166L813.31 66.2639H813.054C812.072 67.5012 811.048 68.5252 809.982 69.3359C808.958 70.1466 807.763 70.7226 806.398 71.0639C805.032 71.4479 803.368 71.6399 801.406 71.6399C799.358 71.6399 797.523 71.2559 795.902 70.4879C794.28 69.6772 793 68.4612 792.062 66.8399C791.123 65.2186 790.654 63.1706 790.654 60.6959C790.654 57.0266 791.976 54.2746 794.622 52.4399C797.267 50.6052 801.214 49.5812 806.462 49.3679L812.286 49.1759V48.0879C812.286 45.9972 811.816 44.5466 810.878 43.7359C809.939 42.8826 808.616 42.4559 806.91 42.4559C805.331 42.4559 803.71 42.7119 802.046 43.2239C800.382 43.7359 798.739 44.3546 797.118 45.0799L794.302 38.4879C796.136 37.5492 798.227 36.8026 800.574 36.2479C802.963 35.6932 805.566 35.4159 808.382 35.4159ZM808.638 54.9999C805.608 55.0852 803.496 55.5759 802.302 56.4719C801.107 57.3679 800.51 58.6266 800.51 60.2479C800.51 61.7412 800.915 62.8506 801.726 63.5759C802.579 64.2586 803.71 64.5999 805.118 64.5999C807.123 64.5999 808.808 64.0026 810.174 62.8079C811.582 61.6132 812.286 59.9066 812.286 57.6879V54.8079L808.638 54.9999Z" fill="url(#paint21_linear_112_4030)"/>
<path d="M783.367 70.9999H773.703V22.3599H783.367V70.9999Z" fill="url(#paint22_linear_112_4030)"/>
<path d="M766.346 60.6959C766.346 62.9146 765.813 64.8559 764.746 66.5199C763.722 68.1412 762.144 69.3999 760.01 70.2959C757.877 71.1919 755.168 71.6399 751.882 71.6399C749.408 71.6399 747.232 71.4692 745.354 71.1279C743.477 70.8292 741.664 70.3172 739.914 69.5919V61.5919C741.792 62.4879 743.818 63.1919 745.994 63.7039C748.17 64.2159 750.048 64.4719 751.626 64.4719C753.589 64.4719 754.997 64.1946 755.85 63.6399C756.746 63.0852 757.194 62.3386 757.194 61.3999C757.194 60.7599 756.96 60.1839 756.49 59.6719C756.064 59.1599 755.274 58.6266 754.122 58.0719C753.013 57.5172 751.413 56.8346 749.322 56.0239C747.232 55.1706 745.482 54.2959 744.074 53.3999C742.666 52.4612 741.6 51.3519 740.874 50.0719C740.192 48.7919 739.85 47.1919 739.85 45.2719C739.85 42.0719 741.109 39.6399 743.626 37.9759C746.186 36.2692 749.557 35.4159 753.738 35.4159C756 35.4159 758.09 35.6506 760.01 36.1199C761.973 36.5892 763.957 37.2506 765.962 38.1039L763.146 44.6959C761.525 43.9706 759.861 43.3732 758.154 42.9039C756.448 42.4346 754.933 42.1999 753.61 42.1999C752.16 42.1999 751.029 42.4346 750.218 42.9039C749.408 43.3306 749.002 43.9492 749.002 44.7599C749.002 45.3572 749.216 45.8906 749.642 46.3599C750.112 46.8292 750.901 47.3199 752.01 47.8319C753.162 48.3439 754.762 49.0052 756.81 49.8159C758.901 50.6266 760.65 51.5012 762.058 52.4399C763.509 53.3359 764.576 54.4452 765.258 55.7679C765.984 57.0479 766.346 58.6906 766.346 60.6959Z" fill="url(#paint23_linear_112_4030)"/>
<path d="M719.921 35.4159C723.761 35.4159 726.791 36.4186 729.009 38.4239C731.228 40.4292 732.337 43.6932 732.337 48.2159V70.9999H722.737V50.6479C722.737 48.1306 722.268 46.2532 721.329 45.0159C720.433 43.7359 719.025 43.0959 717.105 43.0959C714.204 43.0959 712.22 44.0986 711.153 46.1039C710.129 48.0666 709.617 50.9039 709.617 54.6159V70.9999H699.953V36.0559H707.377L708.721 40.7279H709.105C709.873 39.5759 710.791 38.6159 711.857 37.8479C712.967 37.0372 714.183 36.4399 715.505 36.0559C716.871 35.6292 718.343 35.4159 719.921 35.4159Z" fill="url(#paint24_linear_112_4030)"/>
<path d="M677.257 35.4159C681.651 35.4159 685.001 36.4612 687.305 38.5519C689.609 40.5999 690.761 43.6506 690.761 47.7039V70.9999H684.041L682.185 66.2639H681.929C680.947 67.5012 679.923 68.5252 678.857 69.3359C677.833 70.1466 676.638 70.7226 675.273 71.0639C673.907 71.4479 672.243 71.6399 670.281 71.6399C668.233 71.6399 666.398 71.2559 664.777 70.4879C663.155 69.6772 661.875 68.4612 660.937 66.8399C659.998 65.2186 659.529 63.1706 659.529 60.6959C659.529 57.0266 660.851 54.2746 663.497 52.4399C666.142 50.6052 670.089 49.5812 675.337 49.3679L681.161 49.1759V48.0879C681.161 45.9972 680.691 44.5466 679.753 43.7359C678.814 42.8826 677.491 42.4559 675.785 42.4559C674.206 42.4559 672.585 42.7119 670.921 43.2239C669.257 43.7359 667.614 44.3546 665.993 45.0799L663.177 38.4879C665.011 37.5492 667.102 36.8026 669.449 36.2479C671.838 35.6932 674.441 35.4159 677.257 35.4159ZM677.513 54.9999C674.483 55.0852 672.371 55.5759 671.177 56.4719C669.982 57.3679 669.385 58.6266 669.385 60.2479C669.385 61.7412 669.79 62.8506 670.601 63.5759C671.454 64.2586 672.585 64.5999 673.993 64.5999C675.998 64.5999 677.683 64.0026 679.049 62.8079C680.457 61.6132 681.161 59.9066 681.161 57.6879V54.8079L677.513 54.9999Z" fill="url(#paint25_linear_112_4030)"/>
<path d="M653.594 35.4159C654.234 35.4159 654.916 35.4586 655.642 35.5439C656.41 35.5866 657.007 35.6719 657.434 35.7999L656.474 44.8239C656.004 44.7386 655.45 44.6532 654.81 44.5679C654.17 44.4826 653.402 44.4399 652.506 44.4399C651.524 44.4399 650.522 44.5892 649.498 44.8879C648.516 45.1866 647.599 45.6772 646.746 46.3599C645.892 47.0426 645.21 47.9386 644.698 49.0479C644.186 50.1572 643.93 51.5652 643.93 53.2719V70.9999H634.266V36.0559H641.626L643.034 41.9439H643.482C644.164 40.7066 645.018 39.5972 646.042 38.6159C647.066 37.6346 648.218 36.8666 649.498 36.3119C650.778 35.7146 652.143 35.4159 653.594 35.4159Z" fill="url(#paint26_linear_112_4030)"/>
<path d="M619.204 70.9999H609.412V33.4319H597.06V25.3039H631.556V33.4319H619.204V70.9999Z" fill="url(#paint27_linear_112_4030)"/>
<path d="M571.181 64.0239C572.247 64.0239 573.271 63.9172 574.253 63.7039C575.234 63.4906 576.215 63.2346 577.197 62.9359V70.0399C576.173 70.4666 574.893 70.8292 573.357 71.1279C571.863 71.4692 570.221 71.6399 568.429 71.6399C566.338 71.6399 564.461 71.2986 562.797 70.6159C561.175 69.9332 559.874 68.7599 558.893 67.0959C557.954 65.3892 557.485 63.0426 557.485 60.0559V43.2239H552.941V39.1919L558.189 35.9919L560.941 28.6319H567.021V36.0559H576.813V43.2239H567.021V60.0559C567.021 61.3786 567.405 62.3812 568.173 63.0639C568.941 63.7039 569.943 64.0239 571.181 64.0239Z" fill="url(#paint28_linear_112_4030)"/>
<path d="M526.629 53.1439L515.365 36.0559H526.181L532.965 47.1919L539.813 36.0559H550.629L539.237 53.1439L551.141 70.9999H540.325L532.965 59.0319L525.605 70.9999H514.789L526.629 53.1439Z" fill="url(#paint29_linear_112_4030)"/>
<path d="M497.115 35.4159C500.358 35.4159 503.153 36.0346 505.499 37.2719C507.846 38.4666 509.638 40.2586 510.875 42.6479C512.155 44.9946 512.795 47.8746 512.795 51.2879V55.9599H490.331C490.417 58.6052 491.227 60.6959 492.763 62.2319C494.299 63.7252 496.497 64.4719 499.355 64.4719C501.531 64.4719 503.515 64.2586 505.307 63.8319C507.099 63.4052 508.934 62.7652 510.811 61.9119V69.1439C509.105 69.9972 507.291 70.6159 505.371 70.9999C503.494 71.4266 501.147 71.6399 498.331 71.6399C494.875 71.6399 491.803 70.9999 489.115 69.7199C486.47 68.4399 484.379 66.4772 482.843 63.8319C481.307 61.1439 480.539 57.7946 480.539 53.7839C480.539 49.6879 481.222 46.2959 482.587 43.6079C483.995 40.8772 485.937 38.8292 488.411 37.4639C490.929 36.0986 493.83 35.4159 497.115 35.4159ZM497.371 42.2639C495.451 42.2639 493.894 42.8826 492.699 44.1199C491.505 45.3146 490.801 47.1066 490.587 49.4959H503.771C503.771 48.0879 503.537 46.8506 503.067 45.7839C502.598 44.7172 501.873 43.8639 500.891 43.2239C499.953 42.5839 498.779 42.2639 497.371 42.2639Z" fill="url(#paint30_linear_112_4030)"/>
<path d="M468.454 70.9999H458.662V33.4319H446.31V25.3039H480.806V33.4319H468.454V70.9999Z" fill="url(#paint31_linear_112_4030)"/>
<defs>
<filter id="filter0_f_112_4030" x="425.776" y="14.2959" width="544.028" height="89.3442" filterUnits="userSpaceOnUse" color-interpolation-filters="sRGB">
<feFlood flood-opacity="0" result="BackgroundImageFix"/>
<feBlend mode="normal" in="SourceGraphic" in2="BackgroundImageFix" result="shape"/>
<feGaussianBlur stdDeviation="10" result="effect1_foregroundBlur_112_4030"/>
</filter>
<linearGradient id="paint0_linear_112_4030" x1="345" y1="64.0036" x2="1055" y2="64.003" gradientUnits="userSpaceOnUse">
<stop stop-color="white" stop-opacity="0.3"/>
<stop offset="0.359008" stop-color="#CBB0F8"/>
<stop offset="0.788712" stop-color="#FCD9ED"/>
<stop offset="1" stop-color="white" stop-opacity="0.3"/>
</linearGradient>
<linearGradient id="paint1_linear_112_4030" x1="1022.38" y1="49.666" x2="-6915.31" y2="49.6746" gradientUnits="userSpaceOnUse">
<stop stop-color="#F4439F"/>
<stop offset="1" stop-color="#7C3AED"/>
</linearGradient>
<linearGradient id="paint2_linear_112_4030" x1="1615.36" y1="49.3944" x2="-5962.88" y2="49.4024" gradientUnits="userSpaceOnUse">
<stop stop-color="#F4439F"/>
<stop offset="1" stop-color="#7C3AED"/>
</linearGradient>
<linearGradient id="paint3_linear_112_4030" x1="5079.4" y1="58.818" x2="-19411.3" y2="58.9307" gradientUnits="userSpaceOnUse">
<stop stop-color="#F4439F"/>
<stop offset="1" stop-color="#7C3AED"/>
</linearGradient>
<linearGradient id="paint4_linear_112_4030" x1="3087.3" y1="54.7962" x2="-7510.24" y2="54.8149" gradientUnits="userSpaceOnUse">
<stop stop-color="#F4439F"/>
<stop offset="1" stop-color="#7C3AED"/>
</linearGradient>
<linearGradient id="paint5_linear_112_4030" x1="3098.03" y1="49.3944" x2="-5132.45" y2="49.4039" gradientUnits="userSpaceOnUse">
<stop stop-color="#F4439F"/>
<stop offset="1" stop-color="#7C3AED"/>
</linearGradient>
<linearGradient id="paint6_linear_112_4030" x1="9901.34" y1="58.7853" x2="-16697.8" y2="58.918" gradientUnits="userSpaceOnUse">
<stop stop-color="#F4439F"/>
<stop offset="1" stop-color="#7C3AED"/>
</linearGradient>
<linearGradient id="paint7_linear_112_4030" x1="4538.52" y1="49.3944" x2="-5163.09" y2="49.4076" gradientUnits="userSpaceOnUse">
<stop stop-color="#F4439F"/>
<stop offset="1" stop-color="#7C3AED"/>
</linearGradient>
<linearGradient id="paint8_linear_112_4030" x1="4415.35" y1="49.666" x2="-3522.34" y2="49.6747" gradientUnits="userSpaceOnUse">
<stop stop-color="#F4439F"/>
<stop offset="1" stop-color="#7C3AED"/>
</linearGradient>
<linearGradient id="paint9_linear_112_4030" x1="5214.14" y1="49.3945" x2="-3016.33" y2="49.4039" gradientUnits="userSpaceOnUse">
<stop stop-color="#F4439F"/>
<stop offset="1" stop-color="#7C3AED"/>
</linearGradient>
<linearGradient id="paint10_linear_112_4030" x1="7423.46" y1="49.666" x2="-3671.76" y2="49.6829" gradientUnits="userSpaceOnUse">
<stop stop-color="#F4439F"/>
<stop offset="1" stop-color="#7C3AED"/>
</linearGradient>
<linearGradient id="paint11_linear_112_4030" x1="5675.71" y1="57.184" x2="-1776" y2="57.1938" gradientUnits="userSpaceOnUse">
<stop stop-color="#F4439F"/>
<stop offset="1" stop-color="#7C3AED"/>
</linearGradient>
<linearGradient id="paint12_linear_112_4030" x1="8800.37" y1="54.7962" x2="-1797.18" y2="54.8149" gradientUnits="userSpaceOnUse">
<stop stop-color="#F4439F"/>
<stop offset="1" stop-color="#7C3AED"/>
</linearGradient>
<linearGradient id="paint13_linear_112_4030" x1="6549.39" y1="49.0437" x2="-521.858" y2="49.0505" gradientUnits="userSpaceOnUse">
<stop stop-color="#F4439F"/>
<stop offset="1" stop-color="#7C3AED"/>
</linearGradient>
<linearGradient id="paint14_linear_112_4030" x1="7859.63" y1="49.3945" x2="-109.555" y2="49.4033" gradientUnits="userSpaceOnUse">
<stop stop-color="#F4439F"/>
<stop offset="1" stop-color="#7C3AED"/>
</linearGradient>
<linearGradient id="paint15_linear_112_4030" x1="954.467" y1="58.4997" x2="444.467" y2="58.4998" gradientUnits="userSpaceOnUse">
<stop stop-color="#F4439F"/>
<stop offset="1" stop-color="#7C3AED"/>
</linearGradient>
<linearGradient id="paint16_linear_112_4030" x1="700" y1="72" x2="700" y2="117" gradientUnits="userSpaceOnUse">
<stop offset="0.0001" stop-color="white" stop-opacity="0.1"/>
<stop offset="1" stop-color="white" stop-opacity="0"/>
</linearGradient>
<linearGradient id="paint17_linear_112_4030" x1="1022.91" y1="-22.6551" x2="660.034" y2="1682.32" gradientUnits="userSpaceOnUse">
<stop stop-color="#F4439F"/>
<stop offset="1" stop-color="#7C3AED"/>
</linearGradient>
<linearGradient id="paint18_linear_112_4030" x1="1615.9" y1="-21.8609" x2="1250.05" y2="1648.74" gradientUnits="userSpaceOnUse">
<stop stop-color="#F4439F"/>
<stop offset="1" stop-color="#7C3AED"/>
</linearGradient>
<linearGradient id="paint19_linear_112_4030" x1="5079.93" y1="2.74633" x2="5014.47" y2="1301.56" gradientUnits="userSpaceOnUse">
<stop stop-color="#F4439F"/>
<stop offset="1" stop-color="#7C3AED"/>
</linearGradient>
<linearGradient id="paint20_linear_112_4030" x1="3087.83" y1="-7.11224" x2="2896.67" y2="1442.24" gradientUnits="userSpaceOnUse">
<stop stop-color="#F4439F"/>
<stop offset="1" stop-color="#7C3AED"/>
</linearGradient>
<linearGradient id="paint21_linear_112_4030" x1="3098.56" y1="-21.8609" x2="2759.34" y2="1660.46" gradientUnits="userSpaceOnUse">
<stop stop-color="#F4439F"/>
<stop offset="1" stop-color="#7C3AED"/>
</linearGradient>
<linearGradient id="paint22_linear_112_4030" x1="9901.87" y1="2.65571" x2="9841.42" y2="1303.67" gradientUnits="userSpaceOnUse">
<stop stop-color="#F4439F"/>
<stop offset="1" stop-color="#7C3AED"/>
</linearGradient>
<linearGradient id="paint23_linear_112_4030" x1="4539.05" y1="-21.8609" x2="4248.09" y2="1679.08" gradientUnits="userSpaceOnUse">
<stop stop-color="#F4439F"/>
<stop offset="1" stop-color="#7C3AED"/>
</linearGradient>
<linearGradient id="paint24_linear_112_4030" x1="4415.88" y1="-22.6551" x2="4053.01" y2="1682.32" gradientUnits="userSpaceOnUse">
<stop stop-color="#F4439F"/>
<stop offset="1" stop-color="#7C3AED"/>
</linearGradient>
<linearGradient id="paint25_linear_112_4030" x1="5214.68" y1="-21.8609" x2="4875.46" y2="1660.46" gradientUnits="userSpaceOnUse">
<stop stop-color="#F4439F"/>
<stop offset="1" stop-color="#7C3AED"/>
</linearGradient>
<linearGradient id="paint26_linear_112_4030" x1="7423.99" y1="-22.655" x2="7158.77" y2="1719.17" gradientUnits="userSpaceOnUse">
<stop stop-color="#F4439F"/>
<stop offset="1" stop-color="#7C3AED"/>
</linearGradient>
<linearGradient id="paint27_linear_112_4030" x1="5676.24" y1="-1.78869" x2="5438.63" y2="1344.09" gradientUnits="userSpaceOnUse">
<stop stop-color="#F4439F"/>
<stop offset="1" stop-color="#7C3AED"/>
</linearGradient>
<linearGradient id="paint28_linear_112_4030" x1="8800.9" y1="-7.11227" x2="8609.74" y2="1442.24" gradientUnits="userSpaceOnUse">
<stop stop-color="#F4439F"/>
<stop offset="1" stop-color="#7C3AED"/>
</linearGradient>
<linearGradient id="paint29_linear_112_4030" x1="6549.92" y1="-24.3821" x2="6133.07" y2="1689.05" gradientUnits="userSpaceOnUse">
<stop stop-color="#F4439F"/>
<stop offset="1" stop-color="#7C3AED"/>
</linearGradient>
<linearGradient id="paint30_linear_112_4030" x1="7860.16" y1="-21.8609" x2="7510.74" y2="1656.09" gradientUnits="userSpaceOnUse">
<stop stop-color="#F4439F"/>
<stop offset="1" stop-color="#7C3AED"/>
</linearGradient>
<linearGradient id="paint31_linear_112_4030" x1="955" y1="2.9997" x2="497.208" y2="194.639" gradientUnits="userSpaceOnUse">
<stop stop-color="#F4439F"/>
<stop offset="1" stop-color="#7C3AED"/>
</linearGradient>
</defs>
</svg>
