<svg width="1400" height="120" viewBox="0 0 1400 120" fill="none" xmlns="http://www.w3.org/2000/svg">
<path d="M256 56H1145V72H256V56Z" fill="url(#paint0_linear_112_3918)"/>
<mask id="mask0_112_3918" style="mask-type:alpha" maskUnits="userSpaceOnUse" x="256" y="72" width="889" height="45">
<path d="M256 72H1145V117H256V72Z" fill="#C4C4C4"/>
</mask>
<g mask="url(#mask0_112_3918)">
<g filter="url(#filter0_f_112_3918)">
<path d="M1027.45 47.4159C1031.29 47.4159 1034.32 48.4186 1036.54 50.4239C1038.76 52.4292 1039.87 55.6932 1039.87 60.2159V82.9999H1030.27V62.6479C1030.27 60.1306 1029.8 58.2532 1028.86 57.0159C1027.96 55.7359 1026.55 55.0959 1024.63 55.0959C1021.73 55.0959 1019.75 56.0986 1018.68 58.1039C1017.66 60.0666 1017.15 62.9039 1017.15 66.6159V82.9999H1007.48V48.0559H1014.91L1016.25 52.7279H1016.63C1017.4 51.5759 1018.32 50.6159 1019.39 49.8479C1020.5 49.0372 1021.71 48.4399 1023.03 48.0559C1024.4 47.6292 1025.87 47.4159 1027.45 47.4159Z" fill="url(#paint1_linear_112_3918)" fill-opacity="0.7"/>
<path d="M999.738 65.4639C999.738 68.3652 999.333 70.9466 998.522 73.2079C997.754 75.4692 996.624 77.3679 995.13 78.9039C993.68 80.4399 991.909 81.6132 989.818 82.4239C987.728 83.2346 985.36 83.6399 982.714 83.6399C980.24 83.6399 977.978 83.2346 975.93 82.4239C973.882 81.6132 972.112 80.4399 970.618 78.9039C969.125 77.3679 967.952 75.4692 967.098 73.2079C966.245 70.9466 965.818 68.3652 965.818 65.4639C965.818 61.5812 966.501 58.2959 967.866 55.6079C969.232 52.9199 971.194 50.8932 973.754 49.5279C976.314 48.1199 979.365 47.4159 982.906 47.4159C986.192 47.4159 989.093 48.1199 991.61 49.5279C994.128 50.8932 996.112 52.9199 997.562 55.6079C999.013 58.2959 999.738 61.5812 999.738 65.4639ZM975.674 65.4639C975.674 67.7252 975.909 69.6666 976.378 71.2879C976.89 72.9092 977.658 74.1466 978.682 74.9999C979.749 75.8532 981.136 76.2799 982.842 76.2799C984.506 76.2799 985.85 75.8532 986.874 74.9999C987.941 74.1466 988.709 72.9092 989.178 71.2879C989.648 69.6666 989.882 67.7252 989.882 65.4639C989.882 63.1599 989.626 61.2186 989.114 59.6399C988.645 58.0612 987.898 56.8666 986.874 56.0559C985.85 55.2026 984.485 54.7759 982.778 54.7759C980.304 54.7759 978.49 55.6932 977.338 57.5279C976.229 59.3626 975.674 62.0079 975.674 65.4639Z" fill="url(#paint2_linear_112_3918)" fill-opacity="0.7"/>
<path d="M958.085 48.0559V82.9999H948.421V48.0559H958.085ZM953.285 34.2959C954.693 34.2959 955.909 34.6372 956.933 35.3199C958 35.9599 958.533 37.1972 958.533 39.0319C958.533 40.7812 958 41.9972 956.933 42.6799C955.909 43.3626 954.693 43.7039 953.285 43.7039C951.835 43.7039 950.597 43.3626 949.573 42.6799C948.549 41.9972 948.037 40.7812 948.037 39.0319C948.037 37.1972 948.549 35.9599 949.573 35.3199C950.597 34.6372 951.835 34.2959 953.285 34.2959Z" fill="url(#paint3_linear_112_3918)" fill-opacity="0.7"/>
<path d="M935.647 76.0239C936.714 76.0239 937.738 75.9172 938.719 75.7039C939.701 75.4906 940.682 75.2346 941.663 74.9359V82.0399C940.639 82.4666 939.359 82.8292 937.823 83.1279C936.33 83.4692 934.687 83.6399 932.895 83.6399C930.805 83.6399 928.927 83.2986 927.263 82.6159C925.642 81.9332 924.341 80.7599 923.359 79.0959C922.421 77.3892 921.951 75.0426 921.951 72.0559V55.2239H917.407V51.1919L922.655 47.9919L925.407 40.6319H931.487V48.0559H941.279V55.2239H931.487V72.0559C931.487 73.3786 931.871 74.3812 932.639 75.0639C933.407 75.7039 934.41 76.0239 935.647 76.0239Z" fill="url(#paint4_linear_112_3918)" fill-opacity="0.7"/>
<path d="M897.911 47.4159C902.306 47.4159 905.655 48.4612 907.959 50.5519C910.263 52.5999 911.415 55.6506 911.415 59.7039V82.9999H904.695L902.839 78.2639H902.583C901.602 79.5012 900.578 80.5252 899.511 81.3359C898.487 82.1466 897.292 82.7226 895.927 83.0639C894.562 83.4479 892.898 83.6399 890.935 83.6399C888.887 83.6399 887.052 83.2559 885.431 82.4879C883.81 81.6772 882.53 80.4612 881.591 78.8399C880.652 77.2186 880.183 75.1706 880.183 72.6959C880.183 69.0266 881.506 66.2746 884.151 64.4399C886.796 62.6052 890.743 61.5812 895.991 61.3679L901.815 61.1759V60.0879C901.815 57.9972 901.346 56.5466 900.407 55.7359C899.468 54.8826 898.146 54.4559 896.439 54.4559C894.86 54.4559 893.239 54.7119 891.575 55.2239C889.911 55.7359 888.268 56.3546 886.647 57.0799L883.831 50.4879C885.666 49.5492 887.756 48.8026 890.103 48.2479C892.492 47.6932 895.095 47.4159 897.911 47.4159ZM898.167 66.9999C895.138 67.0852 893.026 67.5759 891.831 68.4719C890.636 69.3679 890.039 70.6266 890.039 72.2479C890.039 73.7412 890.444 74.8506 891.255 75.5759C892.108 76.2586 893.239 76.5999 894.647 76.5999C896.652 76.5999 898.338 76.0026 899.703 74.8079C901.111 73.6132 901.815 71.9066 901.815 69.6879V66.8079L898.167 66.9999Z" fill="url(#paint5_linear_112_3918)" fill-opacity="0.7"/>
<path d="M872.896 82.9999H863.232V34.3599H872.896V82.9999Z" fill="url(#paint6_linear_112_3918)" fill-opacity="0.7"/>
<path d="M855.875 72.6959C855.875 74.9146 855.342 76.8559 854.275 78.5199C853.251 80.1412 851.673 81.3999 849.539 82.2959C847.406 83.1919 844.697 83.6399 841.411 83.6399C838.937 83.6399 836.761 83.4692 834.883 83.1279C833.006 82.8292 831.193 82.3172 829.443 81.5919V73.5919C831.321 74.4879 833.347 75.1919 835.523 75.7039C837.699 76.2159 839.577 76.4719 841.155 76.4719C843.118 76.4719 844.526 76.1946 845.379 75.6399C846.275 75.0852 846.723 74.3386 846.723 73.3999C846.723 72.7599 846.489 72.1839 846.019 71.6719C845.593 71.1599 844.803 70.6266 843.651 70.0719C842.542 69.5172 840.942 68.8346 838.851 68.0239C836.761 67.1706 835.011 66.2959 833.603 65.3999C832.195 64.4612 831.129 63.3519 830.403 62.0719C829.721 60.7919 829.379 59.1919 829.379 57.2719C829.379 54.0719 830.638 51.6399 833.155 49.9759C835.715 48.2692 839.086 47.4159 843.267 47.4159C845.529 47.4159 847.619 47.6506 849.539 48.1199C851.502 48.5892 853.486 49.2506 855.491 50.1039L852.675 56.6959C851.054 55.9706 849.39 55.3732 847.683 54.9039C845.977 54.4346 844.462 54.1999 843.139 54.1999C841.689 54.1999 840.558 54.4346 839.747 54.9039C838.937 55.3306 838.531 55.9492 838.531 56.7599C838.531 57.3572 838.745 57.8906 839.171 58.3599C839.641 58.8292 840.43 59.3199 841.539 59.8319C842.691 60.3439 844.291 61.0052 846.339 61.8159C848.43 62.6266 850.179 63.5012 851.587 64.4399C853.038 65.3359 854.105 66.4452 854.787 67.7679C855.513 69.0479 855.875 70.6906 855.875 72.6959Z" fill="url(#paint7_linear_112_3918)" fill-opacity="0.7"/>
<path d="M809.45 47.4159C813.29 47.4159 816.32 48.4186 818.538 50.4239C820.757 52.4292 821.866 55.6932 821.866 60.2159V82.9999H812.266V62.6479C812.266 60.1306 811.797 58.2532 810.858 57.0159C809.962 55.7359 808.554 55.0959 806.634 55.0959C803.733 55.0959 801.749 56.0986 800.682 58.1039C799.658 60.0666 799.146 62.9039 799.146 66.6159V82.9999H789.482V48.0559H796.906L798.25 52.7279H798.634C799.402 51.5759 800.32 50.6159 801.386 49.8479C802.496 49.0372 803.712 48.4399 805.034 48.0559C806.4 47.6292 807.872 47.4159 809.45 47.4159Z" fill="url(#paint8_linear_112_3918)" fill-opacity="0.7"/>
<path d="M766.786 47.4159C771.181 47.4159 774.53 48.4612 776.834 50.5519C779.138 52.5999 780.29 55.6506 780.29 59.7039V82.9999H773.57L771.714 78.2639H771.458C770.477 79.5012 769.453 80.5252 768.386 81.3359C767.362 82.1466 766.167 82.7226 764.802 83.0639C763.437 83.4479 761.773 83.6399 759.81 83.6399C757.762 83.6399 755.927 83.2559 754.306 82.4879C752.685 81.6772 751.405 80.4612 750.466 78.8399C749.527 77.2186 749.058 75.1706 749.058 72.6959C749.058 69.0266 750.381 66.2746 753.026 64.4399C755.671 62.6052 759.618 61.5812 764.866 61.3679L770.69 61.1759V60.0879C770.69 57.9972 770.221 56.5466 769.282 55.7359C768.343 54.8826 767.021 54.4559 765.314 54.4559C763.735 54.4559 762.114 54.7119 760.45 55.2239C758.786 55.7359 757.143 56.3546 755.522 57.0799L752.706 50.4879C754.541 49.5492 756.631 48.8026 758.978 48.2479C761.367 47.6932 763.97 47.4159 766.786 47.4159ZM767.042 66.9999C764.013 67.0852 761.901 67.5759 760.706 68.4719C759.511 69.3679 758.914 70.6266 758.914 72.2479C758.914 73.7412 759.319 74.8506 760.13 75.5759C760.983 76.2586 762.114 76.5999 763.522 76.5999C765.527 76.5999 767.213 76.0026 768.578 74.8079C769.986 73.6132 770.69 71.9066 770.69 69.6879V66.8079L767.042 66.9999Z" fill="url(#paint9_linear_112_3918)" fill-opacity="0.7"/>
<path d="M743.123 47.4159C743.763 47.4159 744.446 47.4586 745.171 47.5439C745.939 47.5866 746.536 47.6719 746.963 47.7999L746.003 56.8239C745.534 56.7386 744.979 56.6532 744.339 56.5679C743.699 56.4826 742.931 56.4399 742.035 56.4399C741.054 56.4399 740.051 56.5892 739.027 56.8879C738.046 57.1866 737.128 57.6772 736.275 58.3599C735.422 59.0426 734.739 59.9386 734.227 61.0479C733.715 62.1572 733.459 63.5652 733.459 65.2719V82.9999H723.795V48.0559H731.155L732.563 53.9439H733.011C733.694 52.7066 734.547 51.5972 735.571 50.6159C736.595 49.6346 737.747 48.8666 739.027 48.3119C740.307 47.7146 741.672 47.4159 743.123 47.4159Z" fill="url(#paint10_linear_112_3918)" fill-opacity="0.7"/>
<path d="M708.733 82.9999H698.941V45.4319H686.589V37.3039H721.085V45.4319H708.733V82.9999Z" fill="url(#paint11_linear_112_3918)" fill-opacity="0.7"/>
<path d="M650.144 47.4159C653.387 47.4159 656.182 48.0346 658.528 49.2719C660.875 50.4666 662.667 52.2586 663.904 54.6479C665.184 56.9946 665.824 59.8746 665.824 63.2879V67.9599H643.36C643.446 70.6052 644.256 72.6959 645.792 74.2319C647.328 75.7252 649.526 76.4719 652.384 76.4719C654.56 76.4719 656.544 76.2586 658.336 75.8319C660.128 75.4052 661.963 74.7652 663.84 73.9119V81.1439C662.134 81.9972 660.32 82.6159 658.4 82.9999C656.523 83.4266 654.176 83.6399 651.36 83.6399C647.904 83.6399 644.832 82.9999 642.144 81.7199C639.499 80.4399 637.408 78.4772 635.872 75.8319C634.336 73.1439 633.568 69.7946 633.568 65.7839C633.568 61.6879 634.251 58.2959 635.616 55.6079C637.024 52.8772 638.966 50.8292 641.44 49.4639C643.958 48.0986 646.859 47.4159 650.144 47.4159ZM650.4 54.2639C648.48 54.2639 646.923 54.8826 645.728 56.1199C644.534 57.3146 643.83 59.1066 643.616 61.4959H656.8C656.8 60.0879 656.566 58.8506 656.096 57.7839C655.627 56.7172 654.902 55.8639 653.92 55.2239C652.982 54.5839 651.808 54.2639 650.4 54.2639Z" fill="url(#paint12_linear_112_3918)" fill-opacity="0.7"/>
<path d="M606.443 47.4159C608.875 47.4159 610.902 47.8852 612.523 48.8239C614.144 49.7199 615.488 50.9359 616.555 52.4719H616.811L617.707 48.0559H625.899V83.2559C625.899 86.5412 625.259 89.2932 623.979 91.5119C622.699 93.7732 620.758 95.4799 618.155 96.6319C615.595 97.7839 612.331 98.3599 608.363 98.3599C605.675 98.3599 603.264 98.1892 601.131 97.8479C598.998 97.5492 596.992 97.0159 595.115 96.2479V88.0559C597.035 88.9092 598.998 89.5706 601.003 90.0399C603.051 90.5092 605.398 90.7439 608.043 90.7439C610.731 90.7439 612.758 90.1252 614.123 88.8879C615.531 87.6506 616.235 85.9439 616.235 83.7679V82.8079C616.235 82.2959 616.256 81.6132 616.299 80.7599C616.384 79.9066 616.47 79.1599 616.555 78.5199H616.235C615.254 80.0559 613.952 81.2932 612.331 82.2319C610.752 83.1706 608.768 83.6399 606.379 83.6399C602.368 83.6399 599.147 82.0826 596.715 78.9679C594.326 75.8532 593.131 71.3946 593.131 65.5919C593.131 59.7892 594.347 55.3092 596.779 52.1519C599.211 48.9946 602.432 47.4159 606.443 47.4159ZM609.579 55.0319C608.171 55.0319 606.955 55.4372 605.931 56.2479C604.95 57.0586 604.203 58.2532 603.691 59.8319C603.222 61.4106 602.987 63.3732 602.987 65.7199C602.987 69.2186 603.542 71.8212 604.651 73.5279C605.803 75.2346 607.51 76.0879 609.771 76.0879C611.051 76.0879 612.139 75.8959 613.035 75.5119C613.931 75.1279 614.656 74.5732 615.211 73.8479C615.766 73.0799 616.171 72.1199 616.427 70.9679C616.726 69.8159 616.875 68.4506 616.875 66.8719V65.4639C616.875 63.1172 616.64 61.1759 616.171 59.6399C615.702 58.1039 614.934 56.9519 613.867 56.1839C612.8 55.4159 611.371 55.0319 609.579 55.0319Z" fill="url(#paint13_linear_112_3918)" fill-opacity="0.7"/>
<path d="M572.098 47.4159C576.493 47.4159 579.842 48.4612 582.146 50.5519C584.45 52.5999 585.602 55.6506 585.602 59.7039V82.9999H578.882L577.026 78.2639H576.77C575.789 79.5012 574.765 80.5252 573.698 81.3359C572.674 82.1466 571.48 82.7226 570.114 83.0639C568.749 83.4479 567.085 83.6399 565.122 83.6399C563.074 83.6399 561.24 83.2559 559.618 82.4879C557.997 81.6772 556.717 80.4612 555.778 78.8399C554.84 77.2186 554.37 75.1706 554.37 72.6959C554.37 69.0266 555.693 66.2746 558.338 64.4399C560.984 62.6052 564.93 61.5812 570.178 61.3679L576.002 61.1759V60.0879C576.002 57.9972 575.533 56.5466 574.594 55.7359C573.656 54.8826 572.333 54.4559 570.626 54.4559C569.048 54.4559 567.426 54.7119 565.762 55.2239C564.098 55.7359 562.456 56.3546 560.834 57.0799L558.018 50.4879C559.853 49.5492 561.944 48.8026 564.29 48.2479C566.68 47.6932 569.282 47.4159 572.098 47.4159ZM572.354 66.9999C569.325 67.0852 567.213 67.5759 566.018 68.4719C564.824 69.3679 564.226 70.6266 564.226 72.2479C564.226 73.7412 564.632 74.8506 565.442 75.5759C566.296 76.2586 567.426 76.5999 568.834 76.5999C570.84 76.5999 572.525 76.0026 573.89 74.8079C575.298 73.6132 576.002 71.9066 576.002 69.6879V66.8079L572.354 66.9999Z" fill="url(#paint14_linear_112_3918)" fill-opacity="0.7"/>
<path d="M535.629 47.4159C539.682 47.4159 542.882 48.9519 545.229 52.0239C547.576 55.0532 548.749 59.5332 548.749 65.4639C548.749 69.3892 548.173 72.7172 547.021 75.4479C545.912 78.1786 544.354 80.2266 542.349 81.5919C540.344 82.9572 538.018 83.6399 535.373 83.6399C533.666 83.6399 532.194 83.4266 530.957 82.9999C529.72 82.5306 528.674 81.9759 527.821 81.3359C527.01 80.6532 526.306 79.9492 525.709 79.2239H525.325C525.41 79.9919 525.496 80.8879 525.581 81.9119C525.666 82.8932 525.709 83.9172 525.709 84.9839V98.3599H516.045V48.0559H523.917L525.261 52.5999H525.709C526.349 51.6186 527.096 50.7439 527.949 49.9759C528.845 49.2079 529.912 48.5892 531.149 48.1199C532.429 47.6506 533.922 47.4159 535.629 47.4159ZM532.429 55.0959C530.808 55.0959 529.506 55.4372 528.525 56.1199C527.544 56.8026 526.84 57.8266 526.413 59.1919C525.986 60.5572 525.752 62.2852 525.709 64.3759V65.3999C525.709 67.6186 525.901 69.5172 526.285 71.0959C526.712 72.6319 527.416 73.8052 528.397 74.6159C529.421 75.4266 530.786 75.8319 532.493 75.8319C533.944 75.8319 535.138 75.4266 536.077 74.6159C537.058 73.8052 537.784 72.6319 538.253 71.0959C538.722 69.5172 538.957 67.5972 538.957 65.3359C538.957 61.8799 538.402 59.3199 537.293 57.6559C536.226 55.9492 534.605 55.0959 532.429 55.0959Z" fill="url(#paint15_linear_112_3918)" fill-opacity="0.7"/>
<path d="M468.646 45.6879C468.646 47.0106 468.604 48.2692 468.518 49.4639C468.476 50.6586 468.39 51.7039 468.262 52.5999H468.646C469.585 51.1492 470.844 49.9332 472.422 48.9519C474.001 47.9279 476.049 47.4159 478.566 47.4159C482.449 47.4159 485.606 48.9519 488.038 52.0239C490.47 55.0532 491.686 59.5332 491.686 65.4639C491.686 69.4319 491.132 72.7812 490.022 75.5119C488.913 78.1999 487.334 80.2266 485.286 81.5919C483.281 82.9572 480.956 83.6399 478.31 83.6399C475.75 83.6399 473.724 83.1919 472.23 82.2959C470.78 81.3572 469.585 80.3332 468.646 79.2239H468.006L466.406 82.9999H458.982V34.3599H468.646V45.6879ZM475.43 55.0959C473.809 55.0959 472.486 55.4372 471.462 56.1199C470.481 56.8026 469.756 57.8479 469.286 59.2559C468.86 60.6212 468.646 62.4132 468.646 64.6319V65.7839C468.646 69.0692 469.137 71.5652 470.118 73.2719C471.142 74.9786 472.956 75.8319 475.558 75.8319C477.649 75.8319 479.228 74.9359 480.294 73.1439C481.361 71.3519 481.894 68.7492 481.894 65.3359C481.894 61.9652 481.361 59.4266 480.294 57.7199C479.27 55.9706 477.649 55.0959 475.43 55.0959Z" fill="url(#paint16_linear_112_3918)" fill-opacity="0.7"/>
<path d="M435.707 47.4159C438.95 47.4159 441.744 48.0346 444.091 49.2719C446.438 50.4666 448.23 52.2586 449.467 54.6479C450.747 56.9946 451.387 59.8746 451.387 63.2879V67.9599H428.923C429.008 70.6052 429.819 72.6959 431.355 74.2319C432.891 75.7252 435.088 76.4719 437.947 76.4719C440.123 76.4719 442.107 76.2586 443.899 75.8319C445.691 75.4052 447.526 74.7652 449.403 73.9119V81.1439C447.696 81.9972 445.883 82.6159 443.963 82.9999C442.086 83.4266 439.739 83.6399 436.923 83.6399C433.467 83.6399 430.395 82.9999 427.707 81.7199C425.062 80.4399 422.971 78.4772 421.435 75.8319C419.899 73.1439 419.131 69.7946 419.131 65.7839C419.131 61.6879 419.814 58.2959 421.179 55.6079C422.587 52.8772 424.528 50.8292 427.003 49.4639C429.52 48.0986 432.422 47.4159 435.707 47.4159ZM435.963 54.2639C434.043 54.2639 432.486 54.8826 431.291 56.1199C430.096 57.3146 429.392 59.1066 429.179 61.4959H442.363C442.363 60.0879 442.128 58.8506 441.659 57.7839C441.19 56.7172 440.464 55.8639 439.483 55.2239C438.544 54.5839 437.371 54.2639 435.963 54.2639Z" fill="url(#paint17_linear_112_3918)" fill-opacity="0.7"/>
<path d="M417.386 37.3039L405.738 82.9999H394.73L388.522 58.9999C388.394 58.5306 388.223 57.8266 388.01 56.8879C387.839 55.9492 387.626 54.9252 387.37 53.8159C387.157 52.7066 386.965 51.6612 386.794 50.6799C386.623 49.6559 386.495 48.8666 386.41 48.3119C386.367 48.8666 386.239 49.6559 386.026 50.6799C385.855 51.6612 385.663 52.7066 385.45 53.8159C385.237 54.8826 385.023 55.9066 384.81 56.8879C384.597 57.8266 384.426 58.5519 384.298 59.0639L378.154 82.9999H367.146L355.498 37.3039H365.034L370.858 62.2639C371.029 62.9892 371.221 63.8852 371.434 64.9519C371.647 65.9759 371.861 67.0639 372.074 68.2159C372.287 69.3252 372.479 70.4132 372.65 71.4799C372.863 72.5466 373.013 73.4639 373.098 74.2319C373.183 73.4212 373.311 72.5039 373.482 71.4799C373.653 70.4132 373.845 69.3466 374.058 68.2799C374.271 67.1706 374.463 66.1466 374.634 65.2079C374.847 64.2266 375.039 63.4586 375.21 62.9039L381.866 37.3039H391.018L397.674 62.9039C397.802 63.4586 397.973 64.2266 398.186 65.2079C398.399 66.1466 398.613 67.1706 398.826 68.2799C399.039 69.3892 399.231 70.4772 399.402 71.5439C399.573 72.5679 399.701 73.4639 399.786 74.2319C399.914 73.1652 400.106 71.9066 400.362 70.4559C400.618 68.9626 400.895 67.4692 401.194 65.9759C401.535 64.4826 401.813 63.2452 402.026 62.2639L407.85 37.3039H417.386Z" fill="url(#paint18_linear_112_3918)" fill-opacity="0.7"/>
</g>
</g>
<path d="M256 72H1145V105C1145 111.627 1139.63 117 1133 117H268C261.373 117 256 111.627 256 105V72Z" fill="url(#paint19_linear_112_3918)"/>
<path d="M1027.98 35.4159C1031.82 35.4159 1034.85 36.4186 1037.07 38.4239C1039.29 40.4292 1040.4 43.6932 1040.4 48.2159V70.9999H1030.8V50.6479C1030.8 48.1306 1030.33 46.2532 1029.39 45.0159C1028.5 43.7359 1027.09 43.0959 1025.17 43.0959C1022.27 43.0959 1020.28 44.0986 1019.22 46.1039C1018.19 48.0666 1017.68 50.9039 1017.68 54.6159V70.9999H1008.02V36.0559H1015.44L1016.78 40.7279H1017.17C1017.94 39.5759 1018.85 38.6159 1019.92 37.8479C1021.03 37.0372 1022.25 36.4399 1023.57 36.0559C1024.93 35.6292 1026.41 35.4159 1027.98 35.4159Z" fill="url(#paint20_linear_112_3918)"/>
<path d="M1000.27 53.4639C1000.27 56.3652 999.866 58.9466 999.056 61.2079C998.288 63.4692 997.157 65.3679 995.664 66.9039C994.213 68.4399 992.442 69.6132 990.352 70.4239C988.261 71.2346 985.893 71.6399 983.248 71.6399C980.773 71.6399 978.512 71.2346 976.464 70.4239C974.416 69.6132 972.645 68.4399 971.152 66.9039C969.658 65.3679 968.485 63.4692 967.632 61.2079C966.778 58.9466 966.352 56.3652 966.352 53.4639C966.352 49.5812 967.034 46.2959 968.4 43.6079C969.765 40.9199 971.728 38.8932 974.288 37.5279C976.848 36.1199 979.898 35.4159 983.44 35.4159C986.725 35.4159 989.626 36.1199 992.144 37.5279C994.661 38.8932 996.645 40.9199 998.096 43.6079C999.546 46.2959 1000.27 49.5812 1000.27 53.4639ZM976.208 53.4639C976.208 55.7252 976.442 57.6666 976.912 59.2879C977.424 60.9092 978.192 62.1466 979.216 62.9999C980.282 63.8532 981.669 64.2799 983.376 64.2799C985.04 64.2799 986.384 63.8532 987.408 62.9999C988.474 62.1466 989.242 60.9092 989.712 59.2879C990.181 57.6666 990.416 55.7252 990.416 53.4639C990.416 51.1599 990.16 49.2186 989.648 47.6399C989.178 46.0612 988.432 44.8666 987.408 44.0559C986.384 43.2026 985.018 42.7759 983.312 42.7759C980.837 42.7759 979.024 43.6932 977.872 45.5279C976.762 47.3626 976.208 50.0079 976.208 53.4639Z" fill="url(#paint21_linear_112_3918)"/>
<path d="M958.619 36.0559V70.9999H948.955V36.0559H958.619ZM953.819 22.2959C955.227 22.2959 956.443 22.6372 957.467 23.3199C958.533 23.9599 959.067 25.1972 959.067 27.0319C959.067 28.7812 958.533 29.9972 957.467 30.6799C956.443 31.3626 955.227 31.7039 953.819 31.7039C952.368 31.7039 951.131 31.3626 950.107 30.6799C949.083 29.9972 948.571 28.7812 948.571 27.0319C948.571 25.1972 949.083 23.9599 950.107 23.3199C951.131 22.6372 952.368 22.2959 953.819 22.2959Z" fill="url(#paint22_linear_112_3918)"/>
<path d="M936.181 64.0239C937.247 64.0239 938.271 63.9172 939.253 63.7039C940.234 63.4906 941.215 63.2346 942.197 62.9359V70.0399C941.173 70.4666 939.893 70.8292 938.357 71.1279C936.863 71.4692 935.221 71.6399 933.429 71.6399C931.338 71.6399 929.461 71.2986 927.797 70.6159C926.175 69.9332 924.874 68.7599 923.893 67.0959C922.954 65.3892 922.485 63.0426 922.485 60.0559V43.2239H917.941V39.1919L923.189 35.9919L925.941 28.6319H932.021V36.0559H941.813V43.2239H932.021V60.0559C932.021 61.3786 932.405 62.3812 933.173 63.0639C933.941 63.7039 934.943 64.0239 936.181 64.0239Z" fill="url(#paint23_linear_112_3918)"/>
<path d="M898.444 35.4159C902.839 35.4159 906.188 36.4612 908.492 38.5519C910.796 40.5999 911.948 43.6506 911.948 47.7039V70.9999H905.228L903.372 66.2639H903.116C902.135 67.5012 901.111 68.5252 900.044 69.3359C899.02 70.1466 897.826 70.7226 896.46 71.0639C895.095 71.4479 893.431 71.6399 891.468 71.6399C889.42 71.6399 887.586 71.2559 885.964 70.4879C884.343 69.6772 883.063 68.4612 882.124 66.8399C881.186 65.2186 880.716 63.1706 880.716 60.6959C880.716 57.0266 882.039 54.2746 884.684 52.4399C887.33 50.6052 891.276 49.5812 896.524 49.3679L902.348 49.1759V48.0879C902.348 45.9972 901.879 44.5466 900.94 43.7359C900.002 42.8826 898.679 42.4559 896.972 42.4559C895.394 42.4559 893.772 42.7119 892.108 43.2239C890.444 43.7359 888.802 44.3546 887.18 45.0799L884.364 38.4879C886.199 37.5492 888.29 36.8026 890.636 36.2479C893.026 35.6932 895.628 35.4159 898.444 35.4159ZM898.7 54.9999C895.671 55.0852 893.559 55.5759 892.364 56.4719C891.17 57.3679 890.572 58.6266 890.572 60.2479C890.572 61.7412 890.978 62.8506 891.788 63.5759C892.642 64.2586 893.772 64.5999 895.18 64.5999C897.186 64.5999 898.871 64.0026 900.236 62.8079C901.644 61.6132 902.348 59.9066 902.348 57.6879V54.8079L898.7 54.9999Z" fill="url(#paint24_linear_112_3918)"/>
<path d="M873.43 70.9999H863.766V22.3599H873.43V70.9999Z" fill="url(#paint25_linear_112_3918)"/>
<path d="M856.409 60.6959C856.409 62.9146 855.875 64.8559 854.809 66.5199C853.785 68.1412 852.206 69.3999 850.073 70.2959C847.939 71.1919 845.23 71.6399 841.945 71.6399C839.47 71.6399 837.294 71.4692 835.417 71.1279C833.539 70.8292 831.726 70.3172 829.977 69.5919V61.5919C831.854 62.4879 833.881 63.1919 836.057 63.7039C838.233 64.2159 840.11 64.4719 841.689 64.4719C843.651 64.4719 845.059 64.1946 845.913 63.6399C846.809 63.0852 847.257 62.3386 847.257 61.3999C847.257 60.7599 847.022 60.1839 846.553 59.6719C846.126 59.1599 845.337 58.6266 844.185 58.0719C843.075 57.5172 841.475 56.8346 839.385 56.0239C837.294 55.1706 835.545 54.2959 834.137 53.3999C832.729 52.4612 831.662 51.3519 830.937 50.0719C830.254 48.7919 829.913 47.1919 829.913 45.2719C829.913 42.0719 831.171 39.6399 833.689 37.9759C836.249 36.2692 839.619 35.4159 843.801 35.4159C846.062 35.4159 848.153 35.6506 850.073 36.1199C852.035 36.5892 854.019 37.2506 856.025 38.1039L853.209 44.6959C851.587 43.9706 849.923 43.3732 848.217 42.9039C846.51 42.4346 844.995 42.1999 843.673 42.1999C842.222 42.1999 841.091 42.4346 840.281 42.9039C839.47 43.3306 839.065 43.9492 839.065 44.7599C839.065 45.3572 839.278 45.8906 839.705 46.3599C840.174 46.8292 840.963 47.3199 842.073 47.8319C843.225 48.3439 844.825 49.0052 846.873 49.8159C848.963 50.6266 850.713 51.5012 852.121 52.4399C853.571 53.3359 854.638 54.4452 855.321 55.7679C856.046 57.0479 856.409 58.6906 856.409 60.6959Z" fill="url(#paint26_linear_112_3918)"/>
<path d="M809.984 35.4159C813.824 35.4159 816.853 36.4186 819.072 38.4239C821.29 40.4292 822.4 43.6932 822.4 48.2159V70.9999H812.8V50.6479C812.8 48.1306 812.33 46.2532 811.392 45.0159C810.496 43.7359 809.088 43.0959 807.168 43.0959C804.266 43.0959 802.282 44.0986 801.216 46.1039C800.192 48.0666 799.68 50.9039 799.68 54.6159V70.9999H790.016V36.0559H797.44L798.784 40.7279H799.168C799.936 39.5759 800.853 38.6159 801.92 37.8479C803.029 37.0372 804.245 36.4399 805.568 36.0559C806.933 35.6292 808.405 35.4159 809.984 35.4159Z" fill="url(#paint27_linear_112_3918)"/>
<path d="M767.319 35.4159C771.714 35.4159 775.063 36.4612 777.367 38.5519C779.671 40.5999 780.823 43.6506 780.823 47.7039V70.9999H774.103L772.247 66.2639H771.991C771.01 67.5012 769.986 68.5252 768.919 69.3359C767.895 70.1466 766.701 70.7226 765.335 71.0639C763.97 71.4479 762.306 71.6399 760.343 71.6399C758.295 71.6399 756.461 71.2559 754.839 70.4879C753.218 69.6772 751.938 68.4612 750.999 66.8399C750.061 65.2186 749.591 63.1706 749.591 60.6959C749.591 57.0266 750.914 54.2746 753.559 52.4399C756.205 50.6052 760.151 49.5812 765.399 49.3679L771.223 49.1759V48.0879C771.223 45.9972 770.754 44.5466 769.815 43.7359C768.877 42.8826 767.554 42.4559 765.847 42.4559C764.269 42.4559 762.647 42.7119 760.983 43.2239C759.319 43.7359 757.677 44.3546 756.055 45.0799L753.239 38.4879C755.074 37.5492 757.165 36.8026 759.511 36.2479C761.901 35.6932 764.503 35.4159 767.319 35.4159ZM767.575 54.9999C764.546 55.0852 762.434 55.5759 761.239 56.4719C760.045 57.3679 759.447 58.6266 759.447 60.2479C759.447 61.7412 759.853 62.8506 760.663 63.5759C761.517 64.2586 762.647 64.5999 764.055 64.5999C766.061 64.5999 767.746 64.0026 769.111 62.8079C770.519 61.6132 771.223 59.9066 771.223 57.6879V54.8079L767.575 54.9999Z" fill="url(#paint28_linear_112_3918)"/>
<path d="M743.656 35.4159C744.296 35.4159 744.979 35.4586 745.704 35.5439C746.472 35.5866 747.07 35.6719 747.496 35.7999L746.536 44.8239C746.067 44.7386 745.512 44.6532 744.872 44.5679C744.232 44.4826 743.464 44.4399 742.568 44.4399C741.587 44.4399 740.584 44.5892 739.56 44.8879C738.579 45.1866 737.662 45.6772 736.808 46.3599C735.955 47.0426 735.272 47.9386 734.76 49.0479C734.248 50.1572 733.992 51.5652 733.992 53.2719V70.9999H724.328V36.0559H731.688L733.096 41.9439H733.544C734.227 40.7066 735.08 39.5972 736.104 38.6159C737.128 37.6346 738.28 36.8666 739.56 36.3119C740.84 35.7146 742.206 35.4159 743.656 35.4159Z" fill="url(#paint29_linear_112_3918)"/>
<path d="M709.266 70.9999H699.474V33.4319H687.122V25.3039H721.618V33.4319H709.266V70.9999Z" fill="url(#paint30_linear_112_3918)"/>
<path d="M650.678 35.4159C653.92 35.4159 656.715 36.0346 659.062 37.2719C661.408 38.4666 663.2 40.2586 664.438 42.6479C665.718 44.9946 666.358 47.8746 666.358 51.2879V55.9599H643.894C643.979 58.6052 644.79 60.6959 646.326 62.2319C647.862 63.7252 650.059 64.4719 652.918 64.4719C655.094 64.4719 657.078 64.2586 658.87 63.8319C660.662 63.4052 662.496 62.7652 664.374 61.9119V69.1439C662.667 69.9972 660.854 70.6159 658.934 70.9999C657.056 71.4266 654.71 71.6399 651.894 71.6399C648.438 71.6399 645.366 70.9999 642.678 69.7199C640.032 68.4399 637.942 66.4772 636.406 63.8319C634.87 61.1439 634.102 57.7946 634.102 53.7839C634.102 49.6879 634.784 46.2959 636.15 43.6079C637.558 40.8772 639.499 38.8292 641.974 37.4639C644.491 36.0986 647.392 35.4159 650.678 35.4159ZM650.934 42.2639C649.014 42.2639 647.456 42.8826 646.262 44.1199C645.067 45.3146 644.363 47.1066 644.15 49.4959H657.334C657.334 48.0879 657.099 46.8506 656.63 45.7839C656.16 44.7172 655.435 43.8639 654.454 43.2239C653.515 42.5839 652.342 42.2639 650.934 42.2639Z" fill="url(#paint31_linear_112_3918)"/>
<path d="M606.976 35.4159C609.408 35.4159 611.435 35.8852 613.056 36.8239C614.678 37.7199 616.022 38.9359 617.088 40.4719H617.344L618.24 36.0559H626.432V71.2559C626.432 74.5412 625.792 77.2932 624.512 79.5119C623.232 81.7732 621.291 83.4799 618.688 84.6319C616.128 85.7839 612.864 86.3599 608.896 86.3599C606.208 86.3599 603.798 86.1892 601.664 85.8479C599.531 85.5492 597.526 85.0159 595.648 84.2479V76.0559C597.568 76.9092 599.531 77.5706 601.536 78.0399C603.584 78.5092 605.931 78.7439 608.576 78.7439C611.264 78.7439 613.291 78.1252 614.656 76.8879C616.064 75.6506 616.768 73.9439 616.768 71.7679V70.8079C616.768 70.2959 616.79 69.6132 616.832 68.7599C616.918 67.9066 617.003 67.1599 617.088 66.5199H616.768C615.787 68.0559 614.486 69.2932 612.864 70.2319C611.286 71.1706 609.302 71.6399 606.912 71.6399C602.902 71.6399 599.68 70.0826 597.248 66.9679C594.859 63.8532 593.664 59.3946 593.664 53.5919C593.664 47.7892 594.88 43.3092 597.312 40.1519C599.744 36.9946 602.966 35.4159 606.976 35.4159ZM610.112 43.0319C608.704 43.0319 607.488 43.4372 606.464 44.2479C605.483 45.0586 604.736 46.2532 604.224 47.8319C603.755 49.4106 603.52 51.3732 603.52 53.7199C603.52 57.2186 604.075 59.8212 605.184 61.5279C606.336 63.2346 608.043 64.0879 610.304 64.0879C611.584 64.0879 612.672 63.8959 613.568 63.5119C614.464 63.1279 615.19 62.5732 615.744 61.8479C616.299 61.0799 616.704 60.1199 616.96 58.9679C617.259 57.8159 617.408 56.4506 617.408 54.8719V53.4639C617.408 51.1172 617.174 49.1759 616.704 47.6399C616.235 46.1039 615.467 44.9519 614.4 44.1839C613.334 43.4159 611.904 43.0319 610.112 43.0319Z" fill="url(#paint32_linear_112_3918)"/>
<path d="M572.632 35.4159C577.026 35.4159 580.376 36.4612 582.68 38.5519C584.984 40.5999 586.136 43.6506 586.136 47.7039V70.9999H579.416L577.56 66.2639H577.304C576.322 67.5012 575.298 68.5252 574.232 69.3359C573.208 70.1466 572.013 70.7226 570.648 71.0639C569.282 71.4479 567.618 71.6399 565.656 71.6399C563.608 71.6399 561.773 71.2559 560.152 70.4879C558.53 69.6772 557.25 68.4612 556.312 66.8399C555.373 65.2186 554.904 63.1706 554.904 60.6959C554.904 57.0266 556.226 54.2746 558.872 52.4399C561.517 50.6052 565.464 49.5812 570.712 49.3679L576.536 49.1759V48.0879C576.536 45.9972 576.066 44.5466 575.128 43.7359C574.189 42.8826 572.866 42.4559 571.16 42.4559C569.581 42.4559 567.96 42.7119 566.296 43.2239C564.632 43.7359 562.989 44.3546 561.368 45.0799L558.552 38.4879C560.386 37.5492 562.477 36.8026 564.824 36.2479C567.213 35.6932 569.816 35.4159 572.632 35.4159ZM572.888 54.9999C569.858 55.0852 567.746 55.5759 566.552 56.4719C565.357 57.3679 564.76 58.6266 564.76 60.2479C564.76 61.7412 565.165 62.8506 565.976 63.5759C566.829 64.2586 567.96 64.5999 569.368 64.5999C571.373 64.5999 573.058 64.0026 574.424 62.8079C575.832 61.6132 576.536 59.9066 576.536 57.6879V54.8079L572.888 54.9999Z" fill="url(#paint33_linear_112_3918)"/>
<path d="M536.162 35.4159C540.216 35.4159 543.416 36.9519 545.762 40.0239C548.109 43.0532 549.282 47.5332 549.282 53.4639C549.282 57.3892 548.706 60.7172 547.554 63.4479C546.445 66.1786 544.888 68.2266 542.882 69.5919C540.877 70.9572 538.552 71.6399 535.906 71.6399C534.2 71.6399 532.728 71.4266 531.49 70.9999C530.253 70.5306 529.208 69.9759 528.354 69.3359C527.544 68.6532 526.84 67.9492 526.242 67.2239H525.858C525.944 67.9919 526.029 68.8879 526.114 69.9119C526.2 70.8932 526.242 71.9172 526.242 72.9839V86.3599H516.578V36.0559H524.45L525.794 40.5999H526.242C526.882 39.6186 527.629 38.7439 528.482 37.9759C529.378 37.2079 530.445 36.5892 531.682 36.1199C532.962 35.6506 534.456 35.4159 536.162 35.4159ZM532.962 43.0959C531.341 43.0959 530.04 43.4372 529.058 44.1199C528.077 44.8026 527.373 45.8266 526.946 47.1919C526.52 48.5572 526.285 50.2852 526.242 52.3759V53.3999C526.242 55.6186 526.434 57.5172 526.818 59.0959C527.245 60.6319 527.949 61.8052 528.93 62.6159C529.954 63.4266 531.32 63.8319 533.026 63.8319C534.477 63.8319 535.672 63.4266 536.61 62.6159C537.592 61.8052 538.317 60.6319 538.786 59.0959C539.256 57.5172 539.49 55.5972 539.49 53.3359C539.49 49.8799 538.936 47.3199 537.826 45.6559C536.76 43.9492 535.138 43.0959 532.962 43.0959Z" fill="url(#paint34_linear_112_3918)"/>
<path d="M469.18 33.6879C469.18 35.0106 469.137 36.2692 469.052 37.4639C469.009 38.6586 468.924 39.7039 468.796 40.5999H469.18C470.118 39.1492 471.377 37.9332 472.956 36.9519C474.534 35.9279 476.582 35.4159 479.1 35.4159C482.982 35.4159 486.14 36.9519 488.572 40.0239C491.004 43.0532 492.22 47.5332 492.22 53.4639C492.22 57.4319 491.665 60.7812 490.556 63.5119C489.446 66.1999 487.868 68.2266 485.82 69.5919C483.814 70.9572 481.489 71.6399 478.844 71.6399C476.284 71.6399 474.257 71.1919 472.764 70.2959C471.313 69.3572 470.118 68.3332 469.18 67.2239H468.54L466.94 70.9999H459.516V22.3599H469.18V33.6879ZM475.964 43.0959C474.342 43.0959 473.02 43.4372 471.996 44.1199C471.014 44.8026 470.289 45.8479 469.82 47.2559C469.393 48.6212 469.18 50.4132 469.18 52.6319V53.7839C469.18 57.0692 469.67 59.5652 470.652 61.2719C471.676 62.9786 473.489 63.8319 476.092 63.8319C478.182 63.8319 479.761 62.9359 480.828 61.1439C481.894 59.3519 482.428 56.7492 482.428 53.3359C482.428 49.9652 481.894 47.4266 480.828 45.7199C479.804 43.9706 478.182 43.0959 475.964 43.0959Z" fill="url(#paint35_linear_112_3918)"/>
<path d="M436.24 35.4159C439.483 35.4159 442.278 36.0346 444.624 37.2719C446.971 38.4666 448.763 40.2586 450 42.6479C451.28 44.9946 451.92 47.8746 451.92 51.2879V55.9599H429.456C429.542 58.6052 430.352 60.6959 431.888 62.2319C433.424 63.7252 435.622 64.4719 438.48 64.4719C440.656 64.4719 442.64 64.2586 444.432 63.8319C446.224 63.4052 448.059 62.7652 449.936 61.9119V69.1439C448.23 69.9972 446.416 70.6159 444.496 70.9999C442.619 71.4266 440.272 71.6399 437.456 71.6399C434 71.6399 430.928 70.9999 428.24 69.7199C425.595 68.4399 423.504 66.4772 421.968 63.8319C420.432 61.1439 419.664 57.7946 419.664 53.7839C419.664 49.6879 420.347 46.2959 421.712 43.6079C423.12 40.8772 425.062 38.8292 427.536 37.4639C430.054 36.0986 432.955 35.4159 436.24 35.4159ZM436.496 42.2639C434.576 42.2639 433.019 42.8826 431.824 44.1199C430.63 45.3146 429.926 47.1066 429.712 49.4959H442.896C442.896 48.0879 442.662 46.8506 442.192 45.7839C441.723 44.7172 440.998 43.8639 440.016 43.2239C439.078 42.5839 437.904 42.2639 436.496 42.2639Z" fill="url(#paint36_linear_112_3918)"/>
<path d="M417.919 25.3039L406.271 70.9999H395.263L389.055 46.9999C388.927 46.5306 388.757 45.8266 388.543 44.8879C388.373 43.9492 388.159 42.9252 387.903 41.8159C387.69 40.7066 387.498 39.6612 387.327 38.6799C387.157 37.6559 387.029 36.8666 386.943 36.3119C386.901 36.8666 386.773 37.6559 386.559 38.6799C386.389 39.6612 386.197 40.7066 385.983 41.8159C385.77 42.8826 385.557 43.9066 385.343 44.8879C385.13 45.8266 384.959 46.5519 384.831 47.0639L378.687 70.9999H367.679L356.031 25.3039H365.567L371.391 50.2639C371.562 50.9892 371.754 51.8852 371.967 52.9519C372.181 53.9759 372.394 55.0639 372.607 56.2159C372.821 57.3252 373.013 58.4132 373.183 59.4799C373.397 60.5466 373.546 61.4639 373.631 62.2319C373.717 61.4212 373.845 60.5039 374.015 59.4799C374.186 58.4132 374.378 57.3466 374.591 56.2799C374.805 55.1706 374.997 54.1466 375.167 53.2079C375.381 52.2266 375.573 51.4586 375.743 50.9039L382.399 25.3039H391.551L398.207 50.9039C398.335 51.4586 398.506 52.2266 398.719 53.2079C398.933 54.1466 399.146 55.1706 399.359 56.2799C399.573 57.3892 399.765 58.4772 399.935 59.5439C400.106 60.5679 400.234 61.4639 400.319 62.2319C400.447 61.1652 400.639 59.9066 400.895 58.4559C401.151 56.9626 401.429 55.4692 401.727 53.9759C402.069 52.4826 402.346 51.2452 402.559 50.2639L408.383 25.3039H417.919Z" fill="url(#paint37_linear_112_3918)"/>
<defs>
<filter id="filter0_f_112_3918" x="335.498" y="14.2959" width="724.369" height="104.064" filterUnits="userSpaceOnUse" color-interpolation-filters="sRGB">
<feFlood flood-opacity="0" result="BackgroundImageFix"/>
<feBlend mode="normal" in="SourceGraphic" in2="BackgroundImageFix" result="shape"/>
<feGaussianBlur stdDeviation="10" result="effect1_foregroundBlur_112_3918"/>
</filter>
<linearGradient id="paint0_linear_112_3918" x1="256" y1="64.0036" x2="1145" y2="64.0027" gradientUnits="userSpaceOnUse">
<stop stop-color="white" stop-opacity="0.3"/>
<stop offset="0.359008" stop-color="#CBB0F8"/>
<stop offset="0.788712" stop-color="#FCD9ED"/>
<stop offset="1" stop-color="white" stop-opacity="0.3"/>
</linearGradient>
<linearGradient id="paint1_linear_112_3918" x1="1137.08" y1="54.2511" x2="-13423.5" y2="54.2735" gradientUnits="userSpaceOnUse">
<stop stop-color="#F4439F"/>
<stop offset="1" stop-color="#7C3AED"/>
</linearGradient>
<linearGradient id="paint2_linear_112_3918" x1="1942.3" y1="53.8985" x2="-11958.9" y2="53.9193" gradientUnits="userSpaceOnUse">
<stop stop-color="#F4439F"/>
<stop offset="1" stop-color="#7C3AED"/>
</linearGradient>
<linearGradient id="paint3_linear_112_3918" x1="6642.94" y1="66.1333" x2="-38281.6" y2="66.4253" gradientUnits="userSpaceOnUse">
<stop stop-color="#F4439F"/>
<stop offset="1" stop-color="#7C3AED"/>
</linearGradient>
<linearGradient id="paint4_linear_112_3918" x1="3940.39" y1="60.9118" x2="-15499.3" y2="60.9601" gradientUnits="userSpaceOnUse">
<stop stop-color="#F4439F"/>
<stop offset="1" stop-color="#7C3AED"/>
</linearGradient>
<linearGradient id="paint5_linear_112_3918" x1="3955.35" y1="53.8985" x2="-11142.3" y2="53.923" gradientUnits="userSpaceOnUse">
<stop stop-color="#F4439F"/>
<stop offset="1" stop-color="#7C3AED"/>
</linearGradient>
<linearGradient id="paint6_linear_112_3918" x1="13189.8" y1="66.0908" x2="-35602.6" y2="66.4348" gradientUnits="userSpaceOnUse">
<stop stop-color="#F4439F"/>
<stop offset="1" stop-color="#7C3AED"/>
</linearGradient>
<linearGradient id="paint7_linear_112_3918" x1="5911.01" y1="53.8985" x2="-11885.3" y2="53.9326" gradientUnits="userSpaceOnUse">
<stop stop-color="#F4439F"/>
<stop offset="1" stop-color="#7C3AED"/>
</linearGradient>
<linearGradient id="paint8_linear_112_3918" x1="5744.06" y1="54.2511" x2="-8816.52" y2="54.2735" gradientUnits="userSpaceOnUse">
<stop stop-color="#F4439F"/>
<stop offset="1" stop-color="#7C3AED"/>
</linearGradient>
<linearGradient id="paint9_linear_112_3918" x1="6828.62" y1="53.8985" x2="-8269.04" y2="53.923" gradientUnits="userSpaceOnUse">
<stop stop-color="#F4439F"/>
<stop offset="1" stop-color="#7C3AED"/>
</linearGradient>
<linearGradient id="paint10_linear_112_3918" x1="9827.95" y1="54.2512" x2="-10524.7" y2="54.2949" gradientUnits="userSpaceOnUse">
<stop stop-color="#F4439F"/>
<stop offset="1" stop-color="#7C3AED"/>
</linearGradient>
<linearGradient id="paint11_linear_112_3918" x1="7455.46" y1="64.0119" x2="-6213.66" y2="64.0373" gradientUnits="userSpaceOnUse">
<stop stop-color="#F4439F"/>
<stop offset="1" stop-color="#7C3AED"/>
</linearGradient>
<linearGradient id="paint12_linear_112_3918" x1="9073.43" y1="53.8986" x2="-5544.92" y2="53.9216" gradientUnits="userSpaceOnUse">
<stop stop-color="#F4439F"/>
<stop offset="1" stop-color="#7C3AED"/>
</linearGradient>
<linearGradient id="paint13_linear_112_3918" x1="9781.77" y1="48.2345" x2="-4608.18" y2="48.2658" gradientUnits="userSpaceOnUse">
<stop stop-color="#F4439F"/>
<stop offset="1" stop-color="#7C3AED"/>
</linearGradient>
<linearGradient id="paint14_linear_112_3918" x1="11094.7" y1="53.8986" x2="-4002.96" y2="53.9231" gradientUnits="userSpaceOnUse">
<stop stop-color="#F4439F"/>
<stop offset="1" stop-color="#7C3AED"/>
</linearGradient>
<linearGradient id="paint15_linear_112_3918" x1="11413.3" y1="48.2345" x2="-3004.78" y2="48.2659" gradientUnits="userSpaceOnUse">
<stop stop-color="#F4439F"/>
<stop offset="1" stop-color="#7C3AED"/>
</linearGradient>
<linearGradient id="paint16_linear_112_3918" x1="12607.4" y1="65.6779" x2="-1810.69" y2="65.7083" gradientUnits="userSpaceOnUse">
<stop stop-color="#F4439F"/>
<stop offset="1" stop-color="#7C3AED"/>
</linearGradient>
<linearGradient id="paint17_linear_112_3918" x1="13623.1" y1="53.8986" x2="-995.252" y2="53.9216" gradientUnits="userSpaceOnUse">
<stop stop-color="#F4439F"/>
<stop offset="1" stop-color="#7C3AED"/>
</linearGradient>
<linearGradient id="paint18_linear_112_3918" x1="1044.47" y1="58.4997" x2="355.467" y2="58.4998" gradientUnits="userSpaceOnUse">
<stop stop-color="#F4439F"/>
<stop offset="1" stop-color="#7C3AED"/>
</linearGradient>
<linearGradient id="paint19_linear_112_3918" x1="700.5" y1="72" x2="700.5" y2="117" gradientUnits="userSpaceOnUse">
<stop offset="0.0001" stop-color="white" stop-opacity="0.1"/>
<stop offset="1" stop-color="white" stop-opacity="0"/>
</linearGradient>
<linearGradient id="paint20_linear_112_3918" x1="1137.62" y1="-36.0646" x2="796.794" y2="2226.45" gradientUnits="userSpaceOnUse">
<stop stop-color="#F4439F"/>
<stop offset="1" stop-color="#7C3AED"/>
</linearGradient>
<linearGradient id="paint21_linear_112_3918" x1="1942.84" y1="-35.0335" x2="1598.8" y2="2184.62" gradientUnits="userSpaceOnUse">
<stop stop-color="#F4439F"/>
<stop offset="1" stop-color="#7C3AED"/>
</linearGradient>
<linearGradient id="paint22_linear_112_3918" x1="6643.47" y1="-3.08557" x2="6583.24" y2="1685.31" gradientUnits="userSpaceOnUse">
<stop stop-color="#F4439F"/>
<stop offset="1" stop-color="#7C3AED"/>
</linearGradient>
<linearGradient id="paint23_linear_112_3918" x1="3940.93" y1="-15.8851" x2="3763.75" y2="1882.02" gradientUnits="userSpaceOnUse">
<stop stop-color="#F4439F"/>
<stop offset="1" stop-color="#7C3AED"/>
</linearGradient>
<linearGradient id="paint24_linear_112_3918" x1="3955.89" y1="-35.0335" x2="3637.98" y2="2192.58" gradientUnits="userSpaceOnUse">
<stop stop-color="#F4439F"/>
<stop offset="1" stop-color="#7C3AED"/>
</linearGradient>
<linearGradient id="paint25_linear_112_3918" x1="13190.4" y1="-3.20327" x2="13134.8" y2="1687.74" gradientUnits="userSpaceOnUse">
<stop stop-color="#F4439F"/>
<stop offset="1" stop-color="#7C3AED"/>
</linearGradient>
<linearGradient id="paint26_linear_112_3918" x1="5911.55" y1="-35.0335" x2="5640.33" y2="2205.11" gradientUnits="userSpaceOnUse">
<stop stop-color="#F4439F"/>
<stop offset="1" stop-color="#7C3AED"/>
</linearGradient>
<linearGradient id="paint27_linear_112_3918" x1="5744.59" y1="-36.0646" x2="5403.77" y2="2226.45" gradientUnits="userSpaceOnUse">
<stop stop-color="#F4439F"/>
<stop offset="1" stop-color="#7C3AED"/>
</linearGradient>
<linearGradient id="paint28_linear_112_3918" x1="6829.15" y1="-35.0335" x2="6511.24" y2="2192.58" gradientUnits="userSpaceOnUse">
<stop stop-color="#F4439F"/>
<stop offset="1" stop-color="#7C3AED"/>
</linearGradient>
<linearGradient id="paint29_linear_112_3918" x1="9828.48" y1="-36.0646" x2="9581.98" y2="2251.23" gradientUnits="userSpaceOnUse">
<stop stop-color="#F4439F"/>
<stop offset="1" stop-color="#7C3AED"/>
</linearGradient>
<linearGradient id="paint30_linear_112_3918" x1="7455.99" y1="-8.97343" x2="7234.31" y2="1765.16" gradientUnits="userSpaceOnUse">
<stop stop-color="#F4439F"/>
<stop offset="1" stop-color="#7C3AED"/>
</linearGradient>
<linearGradient id="paint31_linear_112_3918" x1="9073.97" y1="-35.0334" x2="8746.07" y2="2189.62" gradientUnits="userSpaceOnUse">
<stop stop-color="#F4439F"/>
<stop offset="1" stop-color="#7C3AED"/>
</linearGradient>
<linearGradient id="paint32_linear_112_3918" x1="9782.3" y1="-18.4684" x2="9612.15" y2="1579.63" gradientUnits="userSpaceOnUse">
<stop stop-color="#F4439F"/>
<stop offset="1" stop-color="#7C3AED"/>
</linearGradient>
<linearGradient id="paint33_linear_112_3918" x1="11095.2" y1="-35.0335" x2="10777.3" y2="2192.58" gradientUnits="userSpaceOnUse">
<stop stop-color="#F4439F"/>
<stop offset="1" stop-color="#7C3AED"/>
</linearGradient>
<linearGradient id="paint34_linear_112_3918" x1="11413.9" y1="-18.4684" x2="11244" y2="1579.7" gradientUnits="userSpaceOnUse">
<stop stop-color="#F4439F"/>
<stop offset="1" stop-color="#7C3AED"/>
</linearGradient>
<linearGradient id="paint35_linear_112_3918" x1="12608" y1="-2.87207" x2="12426.6" y2="1647.99" gradientUnits="userSpaceOnUse">
<stop stop-color="#F4439F"/>
<stop offset="1" stop-color="#7C3AED"/>
</linearGradient>
<linearGradient id="paint36_linear_112_3918" x1="13623.6" y1="-35.0335" x2="13295.7" y2="2189.62" gradientUnits="userSpaceOnUse">
<stop stop-color="#F4439F"/>
<stop offset="1" stop-color="#7C3AED"/>
</linearGradient>
<linearGradient id="paint37_linear_112_3918" x1="1045" y1="2.99969" x2="494.291" y2="314.45" gradientUnits="userSpaceOnUse">
<stop stop-color="#F4439F"/>
<stop offset="1" stop-color="#7C3AED"/>
</linearGradient>
</defs>
</svg>
