<svg width="1400" height="120" viewBox="0 0 1400 120" fill="none" xmlns="http://www.w3.org/2000/svg">
<path d="M118 56H1282V72H118V56Z" fill="url(#paint0_linear_112_4102)"/>
<mask id="mask0_112_4102" style="mask-type:alpha" maskUnits="userSpaceOnUse" x="118" y="72" width="1164" height="45">
<path d="M118 72H1282V117H118V72Z" fill="#C4C4C4"/>
</mask>
<g mask="url(#mask0_112_4102)">
<g filter="url(#filter0_f_112_4102)">
<path d="M1178.83 65.4641C1178.83 68.3654 1178.43 70.9467 1177.62 73.2081C1176.85 75.4694 1175.72 77.3681 1174.23 78.9041C1172.78 80.4401 1171.01 81.6134 1168.91 82.4241C1166.82 83.2347 1164.46 83.6401 1161.81 83.6401C1159.34 83.6401 1157.07 83.2347 1155.03 82.4241C1152.98 81.6134 1151.21 80.4401 1149.71 78.9041C1148.22 77.3681 1147.05 75.4694 1146.19 73.2081C1145.34 70.9467 1144.91 68.3654 1144.91 65.4641C1144.91 61.5814 1145.6 58.2961 1146.96 55.6081C1148.33 52.9201 1150.29 50.8934 1152.85 49.5281C1155.41 48.1201 1158.46 47.4161 1162 47.4161C1165.29 47.4161 1168.19 48.1201 1170.71 49.5281C1173.22 50.8934 1175.21 52.9201 1176.66 55.6081C1178.11 58.2961 1178.83 61.5814 1178.83 65.4641ZM1154.77 65.4641C1154.77 67.7254 1155.01 69.6667 1155.47 71.2881C1155.99 72.9094 1156.75 74.1467 1157.78 75.0001C1158.85 75.8534 1160.23 76.2801 1161.94 76.2801C1163.6 76.2801 1164.95 75.8534 1165.97 75.0001C1167.04 74.1467 1167.81 72.9094 1168.27 71.2881C1168.74 69.6667 1168.98 67.7254 1168.98 65.4641C1168.98 63.1601 1168.72 61.2187 1168.21 59.6401C1167.74 58.0614 1166.99 56.8667 1165.97 56.0561C1164.95 55.2027 1163.58 54.7761 1161.87 54.7761C1159.4 54.7761 1157.59 55.6934 1156.43 57.5281C1155.33 59.3627 1154.77 62.0081 1154.77 65.4641Z" fill="url(#paint1_linear_112_4102)" fill-opacity="0.7"/>
<path d="M1117.6 83.6401C1113.76 83.6401 1110.6 82.1254 1108.12 79.0961C1105.69 76.0241 1104.48 71.5227 1104.48 65.5921C1104.48 59.5761 1105.71 55.0534 1108.19 52.0241C1110.66 48.9521 1113.91 47.4161 1117.92 47.4161C1119.58 47.4161 1121.01 47.6507 1122.2 48.1201C1123.44 48.5467 1124.51 49.1441 1125.4 49.9121C1126.3 50.6801 1127.07 51.5547 1127.71 52.5361H1128.03C1127.9 51.7681 1127.77 50.7014 1127.64 49.3361C1127.56 47.9281 1127.52 46.6481 1127.52 45.4961V34.3601H1137.24V83.0001H1129.82L1127.9 78.4561H1127.52C1126.92 79.4374 1126.17 80.3121 1125.28 81.0801C1124.38 81.8481 1123.29 82.4667 1122.01 82.9361C1120.78 83.4054 1119.3 83.6401 1117.6 83.6401ZM1120.99 75.8961C1123.63 75.8961 1125.49 75.1494 1126.56 73.6561C1127.62 72.1201 1128.16 69.7947 1128.16 66.6801V65.6561C1128.16 62.2854 1127.64 59.7041 1126.62 57.9121C1125.6 56.1201 1123.7 55.2241 1120.92 55.2241C1118.83 55.2241 1117.19 56.1201 1116 57.9121C1114.84 59.7041 1114.27 62.3067 1114.27 65.7201C1114.27 69.1334 1114.84 71.6934 1116 73.4001C1117.19 75.0641 1118.86 75.8961 1120.99 75.8961Z" fill="url(#paint2_linear_112_4102)" fill-opacity="0.7"/>
<path d="M1083.44 47.4161C1087.84 47.4161 1091.19 48.4614 1093.49 50.5521C1095.8 52.6001 1096.95 55.6507 1096.95 59.7041V83.0001H1090.23L1088.37 78.2641H1088.12C1087.13 79.5014 1086.11 80.5254 1085.04 81.3361C1084.02 82.1467 1082.83 82.7227 1081.46 83.0641C1080.09 83.4481 1078.43 83.6401 1076.47 83.6401C1074.42 83.6401 1072.59 83.2561 1070.96 82.4881C1069.34 81.6774 1068.06 80.4614 1067.12 78.8401C1066.19 77.2187 1065.72 75.1707 1065.72 72.6961C1065.72 69.0267 1067.04 66.2747 1069.68 64.4401C1072.33 62.6054 1076.28 61.5814 1081.52 61.3681L1087.35 61.1761V60.0881C1087.35 57.9974 1086.88 56.5467 1085.94 55.7361C1085 54.8827 1083.68 54.4561 1081.97 54.4561C1080.39 54.4561 1078.77 54.7121 1077.11 55.2241C1075.44 55.7361 1073.8 56.3547 1072.18 57.0801L1069.36 50.4881C1071.2 49.5494 1073.29 48.8027 1075.64 48.2481C1078.03 47.6934 1080.63 47.4161 1083.44 47.4161ZM1083.7 67.0001C1080.67 67.0854 1078.56 67.5761 1077.36 68.4721C1076.17 69.3681 1075.57 70.6267 1075.57 72.2481C1075.57 73.7414 1075.98 74.8507 1076.79 75.5761C1077.64 76.2587 1078.77 76.6001 1080.18 76.6001C1082.19 76.6001 1083.87 76.0027 1085.24 74.8081C1086.64 73.6134 1087.35 71.9067 1087.35 69.6881V66.8081L1083.7 67.0001Z" fill="url(#paint3_linear_112_4102)" fill-opacity="0.7"/>
<path d="M1060.47 72.6961C1060.47 74.9147 1059.94 76.8561 1058.87 78.5201C1057.85 80.1414 1056.27 81.4001 1054.14 82.2961C1052 83.1921 1049.29 83.6401 1046.01 83.6401C1043.53 83.6401 1041.36 83.4694 1039.48 83.1281C1037.6 82.8294 1035.79 82.3174 1034.04 81.5921V73.5921C1035.92 74.4881 1037.94 75.1921 1040.12 75.7041C1042.3 76.2161 1044.17 76.4721 1045.75 76.4721C1047.71 76.4721 1049.12 76.1947 1049.98 75.6401C1050.87 75.0854 1051.32 74.3387 1051.32 73.4001C1051.32 72.7601 1051.08 72.1841 1050.62 71.6721C1050.19 71.1601 1049.4 70.6267 1048.25 70.0721C1047.14 69.5174 1045.54 68.8347 1043.45 68.0241C1041.36 67.1707 1039.61 66.2961 1038.2 65.4001C1036.79 64.4614 1035.72 63.3521 1035 62.0721C1034.32 60.7921 1033.98 59.1921 1033.98 57.2721C1033.98 54.0721 1035.23 51.6401 1037.75 49.9761C1040.31 48.2694 1043.68 47.4161 1047.86 47.4161C1050.12 47.4161 1052.22 47.6507 1054.14 48.1201C1056.1 48.5894 1058.08 49.2507 1060.09 50.1041L1057.27 56.6961C1055.65 55.9707 1053.99 55.3734 1052.28 54.9041C1050.57 54.4347 1049.06 54.2001 1047.74 54.2001C1046.28 54.2001 1045.15 54.4347 1044.34 54.9041C1043.53 55.3307 1043.13 55.9494 1043.13 56.7601C1043.13 57.3574 1043.34 57.8907 1043.77 58.3601C1044.24 58.8294 1045.03 59.3201 1046.14 59.8321C1047.29 60.3441 1048.89 61.0054 1050.94 61.8161C1053.03 62.6267 1054.78 63.5014 1056.18 64.4401C1057.63 65.3361 1058.7 66.4454 1059.38 67.7681C1060.11 69.0481 1060.47 70.6907 1060.47 72.6961Z" fill="url(#paint4_linear_112_4102)" fill-opacity="0.7"/>
<path d="M1012.43 47.4161C1015.67 47.4161 1018.47 48.0347 1020.81 49.2721C1023.16 50.4667 1024.95 52.2587 1026.19 54.6481C1027.47 56.9947 1028.11 59.8747 1028.11 63.2881V67.9601H1005.64C1005.73 70.6054 1006.54 72.6961 1008.08 74.2321C1009.61 75.7254 1011.81 76.4721 1014.67 76.4721C1016.84 76.4721 1018.83 76.2587 1020.62 75.8321C1022.41 75.4054 1024.25 74.7654 1026.12 73.9121V81.1441C1024.42 81.9974 1022.6 82.6161 1020.68 83.0001C1018.81 83.4267 1016.46 83.6401 1013.64 83.6401C1010.19 83.6401 1007.12 83.0001 1004.43 81.7201C1001.78 80.4401 999.692 78.4774 998.156 75.8321C996.62 73.1441 995.852 69.7947 995.852 65.7841C995.852 61.6881 996.535 58.2961 997.9 55.6081C999.308 52.8774 1001.25 50.8294 1003.72 49.4641C1006.24 48.0987 1009.14 47.4161 1012.43 47.4161ZM1012.68 54.2641C1010.76 54.2641 1009.21 54.8827 1008.01 56.1201C1006.82 57.3147 1006.11 59.1067 1005.9 61.4961H1019.08C1019.08 60.0881 1018.85 58.8507 1018.38 57.7841C1017.91 56.7174 1017.19 55.8641 1016.2 55.2241C1015.27 54.5841 1014.09 54.2641 1012.68 54.2641Z" fill="url(#paint5_linear_112_4102)" fill-opacity="0.7"/>
<path d="M989.469 47.4161C990.109 47.4161 990.791 47.4587 991.517 47.5441C992.285 47.5867 992.882 47.6721 993.309 47.8001L992.349 56.8241C991.879 56.7387 991.325 56.6534 990.685 56.5681C990.045 56.4827 989.277 56.4401 988.381 56.4401C987.399 56.4401 986.397 56.5894 985.373 56.8881C984.391 57.1867 983.474 57.6774 982.621 58.3601C981.767 59.0427 981.085 59.9387 980.573 61.0481C980.061 62.1574 979.805 63.5654 979.805 65.2721V83.0001H970.141V48.0561H977.501L978.909 53.9441H979.357C980.039 52.7067 980.893 51.5974 981.917 50.6161C982.941 49.6347 984.093 48.8667 985.373 48.3121C986.653 47.7147 988.018 47.4161 989.469 47.4161Z" fill="url(#paint6_linear_112_4102)" fill-opacity="0.7"/>
<path d="M941.351 47.4161C943.783 47.4161 945.81 47.8854 947.431 48.8241C949.053 49.7201 950.397 50.9361 951.463 52.4721H951.719L952.615 48.0561H960.807V83.2561C960.807 86.5414 960.167 89.2934 958.887 91.5121C957.607 93.7734 955.666 95.4801 953.063 96.6321C950.503 97.7841 947.239 98.3601 943.271 98.3601C940.583 98.3601 938.173 98.1894 936.039 97.8481C933.906 97.5494 931.901 97.0161 930.023 96.2481V88.0561C931.943 88.9094 933.906 89.5707 935.911 90.0401C937.959 90.5094 940.306 90.7441 942.951 90.7441C945.639 90.7441 947.666 90.1254 949.031 88.8881C950.439 87.6507 951.143 85.9441 951.143 83.7681V82.8081C951.143 82.2961 951.165 81.6134 951.207 80.7601C951.293 79.9067 951.378 79.1601 951.463 78.5201H951.143C950.162 80.0561 948.861 81.2934 947.239 82.2321C945.661 83.1707 943.677 83.6401 941.287 83.6401C937.277 83.6401 934.055 82.0827 931.623 78.9681C929.234 75.8534 928.039 71.3947 928.039 65.5921C928.039 59.7894 929.255 55.3094 931.687 52.1521C934.119 48.9947 937.341 47.4161 941.351 47.4161ZM944.487 55.0321C943.079 55.0321 941.863 55.4374 940.839 56.2481C939.858 57.0587 939.111 58.2534 938.599 59.8321C938.13 61.4107 937.895 63.3734 937.895 65.7201C937.895 69.2187 938.45 71.8214 939.559 73.5281C940.711 75.2347 942.418 76.0881 944.679 76.0881C945.959 76.0881 947.047 75.8961 947.943 75.5121C948.839 75.1281 949.565 74.5734 950.119 73.8481C950.674 73.0801 951.079 72.1201 951.335 70.9681C951.634 69.8161 951.783 68.4507 951.783 66.8721V65.4641C951.783 63.1174 951.549 61.1761 951.079 59.6401C950.61 58.1041 949.842 56.9521 948.775 56.1841C947.709 55.4161 946.279 55.0321 944.487 55.0321Z" fill="url(#paint7_linear_112_4102)" fill-opacity="0.7"/>
<path d="M908.046 47.4161C911.886 47.4161 914.916 48.4187 917.134 50.4241C919.353 52.4294 920.462 55.6934 920.462 60.2161V83.0001H910.862V62.6481C910.862 60.1307 910.393 58.2534 909.454 57.0161C908.558 55.7361 907.15 55.0961 905.23 55.0961C902.329 55.0961 900.345 56.0987 899.278 58.1041C898.254 60.0667 897.742 62.9041 897.742 66.6161V83.0001H888.078V48.0561H895.502L896.846 52.7281H897.23C897.998 51.5761 898.916 50.6161 899.982 49.8481C901.092 49.0374 902.308 48.4401 903.63 48.0561C904.996 47.6294 906.468 47.4161 908.046 47.4161Z" fill="url(#paint8_linear_112_4102)" fill-opacity="0.7"/>
<path d="M878.681 48.0561V83.0001H869.017V48.0561H878.681ZM873.881 34.2961C875.289 34.2961 876.505 34.6374 877.529 35.3201C878.596 35.9601 879.129 37.1974 879.129 39.0321C879.129 40.7814 878.596 41.9974 877.529 42.6801C876.505 43.3627 875.289 43.7041 873.881 43.7041C872.431 43.7041 871.193 43.3627 870.169 42.6801C869.145 41.9974 868.633 40.7814 868.633 39.0321C868.633 37.1974 869.145 35.9601 870.169 35.3201C871.193 34.6374 872.431 34.2961 873.881 34.2961Z" fill="url(#paint9_linear_112_4102)" fill-opacity="0.7"/>
<path d="M844.584 65.4641C844.584 68.3654 844.179 70.9467 843.368 73.2081C842.6 75.4694 841.47 77.3681 839.976 78.9041C838.526 80.4401 836.755 81.6134 834.664 82.4241C832.574 83.2347 830.206 83.6401 827.56 83.6401C825.086 83.6401 822.824 83.2347 820.776 82.4241C818.728 81.6134 816.958 80.4401 815.464 78.9041C813.971 77.3681 812.798 75.4694 811.944 73.2081C811.091 70.9467 810.664 68.3654 810.664 65.4641C810.664 61.5814 811.347 58.2961 812.712 55.6081C814.078 52.9201 816.04 50.8934 818.6 49.5281C821.16 48.1201 824.211 47.4161 827.752 47.4161C831.038 47.4161 833.939 48.1201 836.456 49.5281C838.974 50.8934 840.958 52.9201 842.408 55.6081C843.859 58.2961 844.584 61.5814 844.584 65.4641ZM820.52 65.4641C820.52 67.7254 820.755 69.6667 821.224 71.2881C821.736 72.9094 822.504 74.1467 823.528 75.0001C824.595 75.8534 825.982 76.2801 827.688 76.2801C829.352 76.2801 830.696 75.8534 831.72 75.0001C832.787 74.1467 833.555 72.9094 834.024 71.2881C834.494 69.6667 834.728 67.7254 834.728 65.4641C834.728 63.1601 834.472 61.2187 833.96 59.6401C833.491 58.0614 832.744 56.8667 831.72 56.0561C830.696 55.2027 829.331 54.7761 827.624 54.7761C825.15 54.7761 823.336 55.6934 822.184 57.5281C821.075 59.3627 820.52 62.0081 820.52 65.4641Z" fill="url(#paint10_linear_112_4102)" fill-opacity="0.7"/>
<path d="M799.618 76.0241C800.685 76.0241 801.709 75.9174 802.69 75.7041C803.672 75.4907 804.653 75.2347 805.634 74.9361V82.0401C804.61 82.4667 803.33 82.8294 801.794 83.1281C800.301 83.4694 798.658 83.6401 796.866 83.6401C794.776 83.6401 792.898 83.2987 791.234 82.6161C789.613 81.9334 788.312 80.7601 787.33 79.0961C786.392 77.3894 785.922 75.0427 785.922 72.0561V55.2241H781.378V51.1921L786.626 47.9921L789.378 40.6321H795.458V48.0561H805.25V55.2241H795.458V72.0561C795.458 73.3787 795.842 74.3814 796.61 75.0641C797.378 75.7041 798.381 76.0241 799.618 76.0241Z" fill="url(#paint11_linear_112_4102)" fill-opacity="0.7"/>
<path d="M755.066 65.1441L743.802 48.0561H754.618L761.402 59.1921L768.25 48.0561H779.066L767.674 65.1441L779.578 83.0001H768.762L761.402 71.0321L754.042 83.0001H743.226L755.066 65.1441Z" fill="url(#paint12_linear_112_4102)" fill-opacity="0.7"/>
<path d="M725.553 47.4161C728.795 47.4161 731.59 48.0347 733.937 49.2721C736.283 50.4667 738.075 52.2587 739.313 54.6481C740.593 56.9947 741.233 59.8747 741.233 63.2881V67.9601H718.769C718.854 70.6054 719.665 72.6961 721.201 74.2321C722.737 75.7254 724.934 76.4721 727.793 76.4721C729.969 76.4721 731.953 76.2587 733.745 75.8321C735.537 75.4054 737.372 74.7654 739.249 73.9121V81.1441C737.542 81.9974 735.729 82.6161 733.809 83.0001C731.932 83.4267 729.585 83.6401 726.769 83.6401C723.313 83.6401 720.241 83.0001 717.553 81.7201C714.907 80.4401 712.817 78.4774 711.281 75.8321C709.745 73.1441 708.977 69.7947 708.977 65.7841C708.977 61.6881 709.659 58.2961 711.025 55.6081C712.433 52.8774 714.374 50.8294 716.849 49.4641C719.366 48.0987 722.267 47.4161 725.553 47.4161ZM725.809 54.2641C723.889 54.2641 722.331 54.8827 721.137 56.1201C719.942 57.3147 719.238 59.1067 719.025 61.4961H732.209C732.209 60.0881 731.974 58.8507 731.505 57.7841C731.035 56.7174 730.31 55.8641 729.329 55.2241C728.39 54.5841 727.217 54.2641 725.809 54.2641Z" fill="url(#paint13_linear_112_4102)" fill-opacity="0.7"/>
<path d="M697.931 76.0241C698.997 76.0241 700.021 75.9174 701.003 75.7041C701.984 75.4907 702.965 75.2347 703.947 74.9361V82.0401C702.923 82.4667 701.643 82.8294 700.107 83.1281C698.613 83.4694 696.971 83.6401 695.179 83.6401C693.088 83.6401 691.211 83.2987 689.547 82.6161C687.925 81.9334 686.624 80.7601 685.643 79.0961C684.704 77.3894 684.235 75.0427 684.235 72.0561V55.2241H679.691V51.1921L684.939 47.9921L687.691 40.6321H693.771V48.0561H703.563V55.2241H693.771V72.0561C693.771 73.3787 694.155 74.3814 694.923 75.0641C695.691 75.7041 696.693 76.0241 697.931 76.0241Z" fill="url(#paint14_linear_112_4102)" fill-opacity="0.7"/>
<path d="M642.99 47.4161C646.233 47.4161 649.028 48.0347 651.374 49.2721C653.721 50.4667 655.513 52.2587 656.75 54.6481C658.03 56.9947 658.67 59.8747 658.67 63.2881V67.9601H636.206C636.292 70.6054 637.102 72.6961 638.638 74.2321C640.174 75.7254 642.372 76.4721 645.23 76.4721C647.406 76.4721 649.39 76.2587 651.182 75.8321C652.974 75.4054 654.809 74.7654 656.686 73.9121V81.1441C654.98 81.9974 653.166 82.6161 651.246 83.0001C649.369 83.4267 647.022 83.6401 644.206 83.6401C640.75 83.6401 637.678 83.0001 634.99 81.7201C632.345 80.4401 630.254 78.4774 628.718 75.8321C627.182 73.1441 626.414 69.7947 626.414 65.7841C626.414 61.6881 627.097 58.2961 628.462 55.6081C629.87 52.8774 631.812 50.8294 634.286 49.4641C636.804 48.0987 639.705 47.4161 642.99 47.4161ZM643.246 54.2641C641.326 54.2641 639.769 54.8827 638.574 56.1201C637.38 57.3147 636.676 59.1067 636.462 61.4961H649.646C649.646 60.0881 649.412 58.8507 648.942 57.7841C648.473 56.7174 647.748 55.8641 646.766 55.2241C645.828 54.5841 644.654 54.2641 643.246 54.2641Z" fill="url(#paint15_linear_112_4102)" fill-opacity="0.7"/>
<path d="M599.097 83.6401C595.257 83.6401 592.099 82.1254 589.625 79.0961C587.193 76.0241 585.977 71.5227 585.977 65.5921C585.977 59.5761 587.214 55.0534 589.689 52.0241C592.163 48.9521 595.406 47.4161 599.417 47.4161C601.081 47.4161 602.51 47.6507 603.705 48.1201C604.942 48.5467 606.009 49.1441 606.905 49.9121C607.801 50.6801 608.569 51.5547 609.209 52.5361H609.529C609.401 51.7681 609.273 50.7014 609.145 49.3361C609.059 47.9281 609.017 46.6481 609.017 45.4961V34.3601H618.745V83.0001H611.321L609.401 78.4561H609.017C608.419 79.4374 607.673 80.3121 606.777 81.0801C605.881 81.8481 604.793 82.4667 603.513 82.9361C602.275 83.4054 600.803 83.6401 599.097 83.6401ZM602.489 75.8961C605.134 75.8961 606.99 75.1494 608.057 73.6561C609.123 72.1201 609.657 69.7947 609.657 66.6801V65.6561C609.657 62.2854 609.145 59.7041 608.121 57.9121C607.097 56.1201 605.198 55.2241 602.425 55.2241C600.334 55.2241 598.691 56.1201 597.497 57.9121C596.345 59.7041 595.769 62.3067 595.769 65.7201C595.769 69.1334 596.345 71.6934 597.497 73.4001C598.691 75.0641 600.355 75.8961 602.489 75.8961Z" fill="url(#paint16_linear_112_4102)" fill-opacity="0.7"/>
<path d="M549.359 47.4161C553.199 47.4161 556.228 48.4187 558.447 50.4241C560.665 52.4294 561.775 55.6934 561.775 60.2161V83.0001H552.175V62.6481C552.175 60.1307 551.705 58.2534 550.767 57.0161C549.871 55.7361 548.463 55.0961 546.543 55.0961C543.641 55.0961 541.657 56.0987 540.591 58.1041C539.567 60.0667 539.055 62.9041 539.055 66.6161V83.0001H529.391V48.0561H536.815L538.159 52.7281H538.543C539.311 51.5761 540.228 50.6161 541.295 49.8481C542.404 49.0374 543.62 48.4401 544.943 48.0561C546.308 47.6294 547.78 47.4161 549.359 47.4161Z" fill="url(#paint17_linear_112_4102)" fill-opacity="0.7"/>
<path d="M521.647 65.4641C521.647 68.3654 521.241 70.9467 520.431 73.2081C519.663 75.4694 518.532 77.3681 517.039 78.9041C515.588 80.4401 513.817 81.6134 511.727 82.4241C509.636 83.2347 507.268 83.6401 504.623 83.6401C502.148 83.6401 499.887 83.2347 497.839 82.4241C495.791 81.6134 494.02 80.4401 492.527 78.9041C491.033 77.3681 489.86 75.4694 489.007 73.2081C488.153 70.9467 487.727 68.3654 487.727 65.4641C487.727 61.5814 488.409 58.2961 489.775 55.6081C491.14 52.9201 493.103 50.8934 495.663 49.5281C498.223 48.1201 501.273 47.4161 504.815 47.4161C508.1 47.4161 511.001 48.1201 513.519 49.5281C516.036 50.8934 518.02 52.9201 519.471 55.6081C520.921 58.2961 521.647 61.5814 521.647 65.4641ZM497.583 65.4641C497.583 67.7254 497.817 69.6667 498.287 71.2881C498.799 72.9094 499.567 74.1467 500.591 75.0001C501.657 75.8534 503.044 76.2801 504.751 76.2801C506.415 76.2801 507.759 75.8534 508.783 75.0001C509.849 74.1467 510.617 72.9094 511.087 71.2881C511.556 69.6667 511.791 67.7254 511.791 65.4641C511.791 63.1601 511.535 61.2187 511.023 59.6401C510.553 58.0614 509.807 56.8667 508.783 56.0561C507.759 55.2027 506.393 54.7761 504.687 54.7761C502.212 54.7761 500.399 55.6934 499.247 57.5281C498.137 59.3627 497.583 62.0081 497.583 65.4641ZM517.807 34.6161C517.167 35.2134 516.356 35.9601 515.375 36.8561C514.393 37.7094 513.327 38.6054 512.175 39.5441C511.023 40.4401 509.892 41.3147 508.783 42.1681C507.716 42.9787 506.777 43.6614 505.967 44.2161H499.567V43.3841C500.249 42.5734 501.039 41.6134 501.935 40.5041C502.873 39.3947 503.791 38.2641 504.687 37.1121C505.625 35.9601 506.393 34.9147 506.991 33.9761H517.807V34.6161Z" fill="url(#paint18_linear_112_4102)" fill-opacity="0.7"/>
<path d="M479.994 48.0561V83.0001H470.33V48.0561H479.994ZM475.194 34.2961C476.602 34.2961 477.818 34.6374 478.842 35.3201C479.908 35.9601 480.442 37.1974 480.442 39.0321C480.442 40.7814 479.908 41.9974 478.842 42.6801C477.818 43.3627 476.602 43.7041 475.194 43.7041C473.743 43.7041 472.506 43.3627 471.482 42.6801C470.458 41.9974 469.946 40.7814 469.946 39.0321C469.946 37.1974 470.458 35.9601 471.482 35.3201C472.506 34.6374 473.743 34.2961 475.194 34.2961Z" fill="url(#paint19_linear_112_4102)" fill-opacity="0.7"/>
<path d="M452.498 83.6401C449.127 83.6401 446.162 83.0214 443.602 81.7841C441.084 80.5041 439.122 78.5414 437.714 75.8961C436.306 73.2081 435.602 69.8161 435.602 65.7201C435.602 61.4107 436.37 57.9121 437.906 55.2241C439.442 52.5361 441.532 50.5734 444.178 49.3361C446.823 48.0561 449.831 47.4161 453.202 47.4161C455.25 47.4161 457.17 47.6294 458.962 48.0561C460.796 48.4827 462.418 49.0587 463.826 49.7841L460.946 57.0801C459.666 56.5254 458.364 56.0774 457.042 55.7361C455.762 55.3521 454.482 55.1601 453.202 55.1601C451.538 55.1601 450.13 55.5441 448.978 56.3121C447.826 57.0801 446.951 58.2534 446.354 59.8321C445.756 61.3681 445.458 63.3094 445.458 65.6561C445.458 67.9601 445.756 69.8587 446.354 71.3521C446.951 72.8454 447.826 73.9761 448.978 74.7441C450.13 75.4694 451.495 75.8321 453.074 75.8321C454.908 75.8321 456.636 75.5974 458.258 75.1281C459.879 74.6161 461.415 73.9547 462.866 73.1441V81.0161C461.543 81.8267 460.05 82.4667 458.386 82.9361C456.722 83.4054 454.759 83.6401 452.498 83.6401Z" fill="url(#paint20_linear_112_4102)" fill-opacity="0.7"/>
<path d="M419.498 83.6401C416.127 83.6401 413.162 83.0214 410.602 81.7841C408.084 80.5041 406.122 78.5414 404.714 75.8961C403.306 73.2081 402.602 69.8161 402.602 65.7201C402.602 61.4107 403.37 57.9121 404.906 55.2241C406.442 52.5361 408.532 50.5734 411.178 49.3361C413.823 48.0561 416.831 47.4161 420.202 47.4161C422.25 47.4161 424.17 47.6294 425.962 48.0561C427.796 48.4827 429.418 49.0587 430.826 49.7841L427.946 57.0801C426.666 56.5254 425.364 56.0774 424.042 55.7361C422.762 55.3521 421.482 55.1601 420.202 55.1601C418.538 55.1601 417.13 55.5441 415.978 56.3121C414.826 57.0801 413.951 58.2534 413.354 59.8321C412.756 61.3681 412.458 63.3094 412.458 65.6561C412.458 67.9601 412.756 69.8587 413.354 71.3521C413.951 72.8454 414.826 73.9761 415.978 74.7441C417.13 75.4694 418.495 75.8321 420.074 75.8321C421.908 75.8321 423.636 75.5974 425.258 75.1281C426.879 74.6161 428.415 73.9547 429.866 73.1441V81.0161C428.543 81.8267 427.05 82.4667 425.386 82.9361C423.722 83.4054 421.759 83.6401 419.498 83.6401Z" fill="url(#paint21_linear_112_4102)" fill-opacity="0.7"/>
<path d="M394.833 48.0561V83.0001H387.409L386.193 78.5201H385.617C384.891 79.7147 383.953 80.6961 382.801 81.4641C381.691 82.2321 380.454 82.7867 379.089 83.1281C377.766 83.4694 376.358 83.6401 374.865 83.6401C372.39 83.6401 370.214 83.1921 368.337 82.2961C366.502 81.4001 365.051 80.0134 363.985 78.1361C362.961 76.2587 362.449 73.8267 362.449 70.8401V48.0561H372.177V68.4081C372.177 70.8827 372.603 72.7601 373.457 74.0401C374.353 75.2774 375.761 75.8961 377.681 75.8961C379.643 75.8961 381.158 75.4694 382.225 74.6161C383.334 73.7201 384.102 72.4187 384.529 70.7121C384.955 69.0054 385.169 66.9147 385.169 64.4401V48.0561H394.833Z" fill="url(#paint22_linear_112_4102)" fill-opacity="0.7"/>
<path d="M333.659 83.6401C329.819 83.6401 326.662 82.1254 324.187 79.0961C321.755 76.0241 320.539 71.5227 320.539 65.5921C320.539 59.5761 321.777 55.0534 324.251 52.0241C326.726 48.9521 329.969 47.4161 333.979 47.4161C335.643 47.4161 337.073 47.6507 338.267 48.1201C339.505 48.5467 340.571 49.1441 341.467 49.9121C342.363 50.6801 343.131 51.5547 343.771 52.5361H344.091C343.963 51.7681 343.835 50.7014 343.707 49.3361C343.622 47.9281 343.579 46.6481 343.579 45.4961V34.3601H353.307V83.0001H345.883L343.963 78.4561H343.579C342.982 79.4374 342.235 80.3121 341.339 81.0801C340.443 81.8481 339.355 82.4667 338.075 82.9361C336.838 83.4054 335.366 83.6401 333.659 83.6401ZM337.051 75.8961C339.697 75.8961 341.553 75.1494 342.619 73.6561C343.686 72.1201 344.219 69.7947 344.219 66.6801V65.6561C344.219 62.2854 343.707 59.7041 342.683 57.9121C341.659 56.1201 339.761 55.2241 336.987 55.2241C334.897 55.2241 333.254 56.1201 332.059 57.9121C330.907 59.7041 330.331 62.3067 330.331 65.7201C330.331 69.1334 330.907 71.6934 332.059 73.4001C333.254 75.0641 334.918 75.8961 337.051 75.8961Z" fill="url(#paint23_linear_112_4102)" fill-opacity="0.7"/>
<path d="M299.507 47.4161C303.901 47.4161 307.251 48.4614 309.555 50.5521C311.859 52.6001 313.011 55.6507 313.011 59.7041V83.0001H306.291L304.435 78.2641H304.179C303.197 79.5014 302.173 80.5254 301.107 81.3361C300.083 82.1467 298.888 82.7227 297.523 83.0641C296.157 83.4481 294.493 83.6401 292.531 83.6401C290.483 83.6401 288.648 83.2561 287.027 82.4881C285.405 81.6774 284.125 80.4614 283.187 78.8401C282.248 77.2187 281.779 75.1707 281.779 72.6961C281.779 69.0267 283.101 66.2747 285.747 64.4401C288.392 62.6054 292.339 61.5814 297.587 61.3681L303.411 61.1761V60.0881C303.411 57.9974 302.941 56.5467 302.003 55.7361C301.064 54.8827 299.741 54.4561 298.035 54.4561C296.456 54.4561 294.835 54.7121 293.171 55.2241C291.507 55.7361 289.864 56.3547 288.243 57.0801L285.427 50.4881C287.261 49.5494 289.352 48.8027 291.699 48.2481C294.088 47.6934 296.691 47.4161 299.507 47.4161ZM299.763 67.0001C296.733 67.0854 294.621 67.5761 293.427 68.4721C292.232 69.3681 291.635 70.6267 291.635 72.2481C291.635 73.7414 292.04 74.8507 292.851 75.5761C293.704 76.2587 294.835 76.6001 296.243 76.6001C298.248 76.6001 299.933 76.0027 301.299 74.8081C302.707 73.6134 303.411 71.9067 303.411 69.6881V66.8081L299.763 67.0001Z" fill="url(#paint24_linear_112_4102)" fill-opacity="0.7"/>
<path d="M275.844 47.4161C276.484 47.4161 277.166 47.4587 277.892 47.5441C278.66 47.5867 279.257 47.6721 279.684 47.8001L278.724 56.8241C278.254 56.7387 277.7 56.6534 277.06 56.5681C276.42 56.4827 275.652 56.4401 274.756 56.4401C273.774 56.4401 272.772 56.5894 271.748 56.8881C270.766 57.1867 269.849 57.6774 268.996 58.3601C268.142 59.0427 267.46 59.9387 266.948 61.0481C266.436 62.1574 266.18 63.5654 266.18 65.2721V83.0001H256.516V48.0561H263.876L265.284 53.9441H265.732C266.414 52.7067 267.268 51.5974 268.292 50.6161C269.316 49.6347 270.468 48.8667 271.748 48.3121C273.028 47.7147 274.393 47.4161 275.844 47.4161Z" fill="url(#paint25_linear_112_4102)" fill-opacity="0.7"/>
<path d="M241.454 83.0001H231.662V45.4321H219.31V37.3041H253.806V45.4321H241.454V83.0001Z" fill="url(#paint26_linear_112_4102)" fill-opacity="0.7"/>
</g>
</g>
<path d="M118 72H1282V105C1282 111.627 1276.63 117 1270 117H130C123.373 117 118 111.627 118 105V72Z" fill="url(#paint27_linear_112_4102)"/>
<path d="M1178.83 53.4641C1178.83 56.3654 1178.43 58.9467 1177.62 61.2081C1176.85 63.4694 1175.72 65.3681 1174.23 66.9041C1172.78 68.4401 1171.01 69.6134 1168.91 70.4241C1166.82 71.2347 1164.46 71.6401 1161.81 71.6401C1159.34 71.6401 1157.07 71.2347 1155.03 70.4241C1152.98 69.6134 1151.21 68.4401 1149.71 66.9041C1148.22 65.3681 1147.05 63.4694 1146.19 61.2081C1145.34 58.9467 1144.91 56.3654 1144.91 53.4641C1144.91 49.5814 1145.6 46.2961 1146.96 43.6081C1148.33 40.9201 1150.29 38.8934 1152.85 37.5281C1155.41 36.1201 1158.46 35.4161 1162 35.4161C1165.29 35.4161 1168.19 36.1201 1170.71 37.5281C1173.22 38.8934 1175.21 40.9201 1176.66 43.6081C1178.11 46.2961 1178.83 49.5814 1178.83 53.4641ZM1154.77 53.4641C1154.77 55.7254 1155.01 57.6667 1155.47 59.2881C1155.99 60.9094 1156.75 62.1467 1157.78 63.0001C1158.85 63.8534 1160.23 64.2801 1161.94 64.2801C1163.6 64.2801 1164.95 63.8534 1165.97 63.0001C1167.04 62.1467 1167.81 60.9094 1168.27 59.2881C1168.74 57.6667 1168.98 55.7254 1168.98 53.4641C1168.98 51.1601 1168.72 49.2187 1168.21 47.6401C1167.74 46.0614 1166.99 44.8667 1165.97 44.0561C1164.95 43.2027 1163.58 42.7761 1161.87 42.7761C1159.4 42.7761 1157.59 43.6934 1156.43 45.5281C1155.33 47.3627 1154.77 50.0081 1154.77 53.4641Z" fill="url(#paint28_linear_112_4102)"/>
<path d="M1117.6 71.6401C1113.76 71.6401 1110.6 70.1254 1108.12 67.0961C1105.69 64.0241 1104.48 59.5227 1104.48 53.5921C1104.48 47.5761 1105.71 43.0534 1108.19 40.0241C1110.66 36.9521 1113.91 35.4161 1117.92 35.4161C1119.58 35.4161 1121.01 35.6507 1122.2 36.1201C1123.44 36.5467 1124.51 37.1441 1125.4 37.9121C1126.3 38.6801 1127.07 39.5547 1127.71 40.5361H1128.03C1127.9 39.7681 1127.77 38.7014 1127.64 37.3361C1127.56 35.9281 1127.52 34.6481 1127.52 33.4961V22.3601H1137.24V71.0001H1129.82L1127.9 66.4561H1127.52C1126.92 67.4374 1126.17 68.3121 1125.28 69.0801C1124.38 69.8481 1123.29 70.4667 1122.01 70.9361C1120.78 71.4054 1119.3 71.6401 1117.6 71.6401ZM1120.99 63.8961C1123.63 63.8961 1125.49 63.1494 1126.56 61.6561C1127.62 60.1201 1128.16 57.7947 1128.16 54.6801V53.6561C1128.16 50.2854 1127.64 47.7041 1126.62 45.9121C1125.6 44.1201 1123.7 43.2241 1120.92 43.2241C1118.83 43.2241 1117.19 44.1201 1116 45.9121C1114.84 47.7041 1114.27 50.3067 1114.27 53.7201C1114.27 57.1334 1114.84 59.6934 1116 61.4001C1117.19 63.0641 1118.86 63.8961 1120.99 63.8961Z" fill="url(#paint29_linear_112_4102)"/>
<path d="M1083.44 35.4161C1087.84 35.4161 1091.19 36.4614 1093.49 38.5521C1095.8 40.6001 1096.95 43.6507 1096.95 47.7041V71.0001H1090.23L1088.37 66.2641H1088.12C1087.13 67.5014 1086.11 68.5254 1085.04 69.3361C1084.02 70.1467 1082.83 70.7227 1081.46 71.0641C1080.09 71.4481 1078.43 71.6401 1076.47 71.6401C1074.42 71.6401 1072.59 71.2561 1070.96 70.4881C1069.34 69.6774 1068.06 68.4614 1067.12 66.8401C1066.19 65.2187 1065.72 63.1707 1065.72 60.6961C1065.72 57.0267 1067.04 54.2747 1069.68 52.4401C1072.33 50.6054 1076.28 49.5814 1081.52 49.3681L1087.35 49.1761V48.0881C1087.35 45.9974 1086.88 44.5467 1085.94 43.7361C1085 42.8827 1083.68 42.4561 1081.97 42.4561C1080.39 42.4561 1078.77 42.7121 1077.11 43.2241C1075.44 43.7361 1073.8 44.3547 1072.18 45.0801L1069.36 38.4881C1071.2 37.5494 1073.29 36.8027 1075.64 36.2481C1078.03 35.6934 1080.63 35.4161 1083.44 35.4161ZM1083.7 55.0001C1080.67 55.0854 1078.56 55.5761 1077.36 56.4721C1076.17 57.3681 1075.57 58.6267 1075.57 60.2481C1075.57 61.7414 1075.98 62.8507 1076.79 63.5761C1077.64 64.2587 1078.77 64.6001 1080.18 64.6001C1082.19 64.6001 1083.87 64.0027 1085.24 62.8081C1086.64 61.6134 1087.35 59.9067 1087.35 57.6881V54.8081L1083.7 55.0001Z" fill="url(#paint30_linear_112_4102)"/>
<path d="M1060.47 60.6961C1060.47 62.9147 1059.94 64.8561 1058.87 66.5201C1057.85 68.1414 1056.27 69.4001 1054.14 70.2961C1052 71.1921 1049.29 71.6401 1046.01 71.6401C1043.53 71.6401 1041.36 71.4694 1039.48 71.1281C1037.6 70.8294 1035.79 70.3174 1034.04 69.5921V61.5921C1035.92 62.4881 1037.94 63.1921 1040.12 63.7041C1042.3 64.2161 1044.17 64.4721 1045.75 64.4721C1047.71 64.4721 1049.12 64.1947 1049.98 63.6401C1050.87 63.0854 1051.32 62.3387 1051.32 61.4001C1051.32 60.7601 1051.08 60.1841 1050.62 59.6721C1050.19 59.1601 1049.4 58.6267 1048.25 58.0721C1047.14 57.5174 1045.54 56.8347 1043.45 56.0241C1041.36 55.1707 1039.61 54.2961 1038.2 53.4001C1036.79 52.4614 1035.72 51.3521 1035 50.0721C1034.32 48.7921 1033.98 47.1921 1033.98 45.2721C1033.98 42.0721 1035.23 39.6401 1037.75 37.9761C1040.31 36.2694 1043.68 35.4161 1047.86 35.4161C1050.12 35.4161 1052.22 35.6507 1054.14 36.1201C1056.1 36.5894 1058.08 37.2507 1060.09 38.1041L1057.27 44.6961C1055.65 43.9707 1053.99 43.3734 1052.28 42.9041C1050.57 42.4347 1049.06 42.2001 1047.74 42.2001C1046.28 42.2001 1045.15 42.4347 1044.34 42.9041C1043.53 43.3307 1043.13 43.9494 1043.13 44.7601C1043.13 45.3574 1043.34 45.8907 1043.77 46.3601C1044.24 46.8294 1045.03 47.3201 1046.14 47.8321C1047.29 48.3441 1048.89 49.0054 1050.94 49.8161C1053.03 50.6267 1054.78 51.5014 1056.18 52.4401C1057.63 53.3361 1058.7 54.4454 1059.38 55.7681C1060.11 57.0481 1060.47 58.6907 1060.47 60.6961Z" fill="url(#paint31_linear_112_4102)"/>
<path d="M1012.43 35.4161C1015.67 35.4161 1018.47 36.0347 1020.81 37.2721C1023.16 38.4667 1024.95 40.2587 1026.19 42.6481C1027.47 44.9947 1028.11 47.8747 1028.11 51.2881V55.9601H1005.64C1005.73 58.6054 1006.54 60.6961 1008.08 62.2321C1009.61 63.7254 1011.81 64.4721 1014.67 64.4721C1016.84 64.4721 1018.83 64.2587 1020.62 63.8321C1022.41 63.4054 1024.25 62.7654 1026.12 61.9121V69.1441C1024.42 69.9974 1022.6 70.6161 1020.68 71.0001C1018.81 71.4267 1016.46 71.6401 1013.64 71.6401C1010.19 71.6401 1007.12 71.0001 1004.43 69.7201C1001.78 68.4401 999.692 66.4774 998.156 63.8321C996.62 61.1441 995.852 57.7947 995.852 53.7841C995.852 49.6881 996.535 46.2961 997.9 43.6081C999.308 40.8774 1001.25 38.8294 1003.72 37.4641C1006.24 36.0987 1009.14 35.4161 1012.43 35.4161ZM1012.68 42.2641C1010.76 42.2641 1009.21 42.8827 1008.01 44.1201C1006.82 45.3147 1006.11 47.1067 1005.9 49.4961H1019.08C1019.08 48.0881 1018.85 46.8507 1018.38 45.7841C1017.91 44.7174 1017.19 43.8641 1016.2 43.2241C1015.27 42.5841 1014.09 42.2641 1012.68 42.2641Z" fill="url(#paint32_linear_112_4102)"/>
<path d="M989.469 35.4161C990.109 35.4161 990.791 35.4587 991.517 35.5441C992.285 35.5867 992.882 35.6721 993.309 35.8001L992.349 44.8241C991.879 44.7387 991.325 44.6534 990.685 44.5681C990.045 44.4827 989.277 44.4401 988.381 44.4401C987.399 44.4401 986.397 44.5894 985.373 44.8881C984.391 45.1867 983.474 45.6774 982.621 46.3601C981.767 47.0427 981.085 47.9387 980.573 49.0481C980.061 50.1574 979.805 51.5654 979.805 53.2721V71.0001H970.141V36.0561H977.501L978.909 41.9441H979.357C980.039 40.7067 980.893 39.5974 981.917 38.6161C982.941 37.6347 984.093 36.8667 985.373 36.3121C986.653 35.7147 988.018 35.4161 989.469 35.4161Z" fill="url(#paint33_linear_112_4102)"/>
<path d="M941.351 35.4161C943.783 35.4161 945.81 35.8854 947.431 36.8241C949.053 37.7201 950.397 38.9361 951.463 40.4721H951.719L952.615 36.0561H960.807V71.2561C960.807 74.5414 960.167 77.2934 958.887 79.5121C957.607 81.7734 955.666 83.4801 953.063 84.6321C950.503 85.7841 947.239 86.3601 943.271 86.3601C940.583 86.3601 938.173 86.1894 936.039 85.8481C933.906 85.5494 931.901 85.0161 930.023 84.2481V76.0561C931.943 76.9094 933.906 77.5707 935.911 78.0401C937.959 78.5094 940.306 78.7441 942.951 78.7441C945.639 78.7441 947.666 78.1254 949.031 76.8881C950.439 75.6507 951.143 73.9441 951.143 71.7681V70.8081C951.143 70.2961 951.165 69.6134 951.207 68.7601C951.293 67.9067 951.378 67.1601 951.463 66.5201H951.143C950.162 68.0561 948.861 69.2934 947.239 70.2321C945.661 71.1707 943.677 71.6401 941.287 71.6401C937.277 71.6401 934.055 70.0827 931.623 66.9681C929.234 63.8534 928.039 59.3947 928.039 53.5921C928.039 47.7894 929.255 43.3094 931.687 40.1521C934.119 36.9947 937.341 35.4161 941.351 35.4161ZM944.487 43.0321C943.079 43.0321 941.863 43.4374 940.839 44.2481C939.858 45.0587 939.111 46.2534 938.599 47.8321C938.13 49.4107 937.895 51.3734 937.895 53.7201C937.895 57.2187 938.45 59.8214 939.559 61.5281C940.711 63.2347 942.418 64.0881 944.679 64.0881C945.959 64.0881 947.047 63.8961 947.943 63.5121C948.839 63.1281 949.565 62.5734 950.119 61.8481C950.674 61.0801 951.079 60.1201 951.335 58.9681C951.634 57.8161 951.783 56.4507 951.783 54.8721V53.4641C951.783 51.1174 951.549 49.1761 951.079 47.6401C950.61 46.1041 949.842 44.9521 948.775 44.1841C947.709 43.4161 946.279 43.0321 944.487 43.0321Z" fill="url(#paint34_linear_112_4102)"/>
<path d="M908.046 35.4161C911.886 35.4161 914.916 36.4187 917.134 38.4241C919.353 40.4294 920.462 43.6934 920.462 48.2161V71.0001H910.862V50.6481C910.862 48.1307 910.393 46.2534 909.454 45.0161C908.558 43.7361 907.15 43.0961 905.23 43.0961C902.329 43.0961 900.345 44.0987 899.278 46.1041C898.254 48.0667 897.742 50.9041 897.742 54.6161V71.0001H888.078V36.0561H895.502L896.846 40.7281H897.23C897.998 39.5761 898.916 38.6161 899.982 37.8481C901.092 37.0374 902.308 36.4401 903.63 36.0561C904.996 35.6294 906.468 35.4161 908.046 35.4161Z" fill="url(#paint35_linear_112_4102)"/>
<path d="M878.681 36.0561V71.0001H869.017V36.0561H878.681ZM873.881 22.2961C875.289 22.2961 876.505 22.6374 877.529 23.3201C878.596 23.9601 879.129 25.1974 879.129 27.0321C879.129 28.7814 878.596 29.9974 877.529 30.6801C876.505 31.3627 875.289 31.7041 873.881 31.7041C872.431 31.7041 871.193 31.3627 870.169 30.6801C869.145 29.9974 868.633 28.7814 868.633 27.0321C868.633 25.1974 869.145 23.9601 870.169 23.3201C871.193 22.6374 872.431 22.2961 873.881 22.2961Z" fill="url(#paint36_linear_112_4102)"/>
<path d="M844.584 53.4641C844.584 56.3654 844.179 58.9467 843.368 61.2081C842.6 63.4694 841.47 65.3681 839.976 66.9041C838.526 68.4401 836.755 69.6134 834.664 70.4241C832.574 71.2347 830.206 71.6401 827.56 71.6401C825.086 71.6401 822.824 71.2347 820.776 70.4241C818.728 69.6134 816.958 68.4401 815.464 66.9041C813.971 65.3681 812.798 63.4694 811.944 61.2081C811.091 58.9467 810.664 56.3654 810.664 53.4641C810.664 49.5814 811.347 46.2961 812.712 43.6081C814.078 40.9201 816.04 38.8934 818.6 37.5281C821.16 36.1201 824.211 35.4161 827.752 35.4161C831.038 35.4161 833.939 36.1201 836.456 37.5281C838.974 38.8934 840.958 40.9201 842.408 43.6081C843.859 46.2961 844.584 49.5814 844.584 53.4641ZM820.52 53.4641C820.52 55.7254 820.755 57.6667 821.224 59.2881C821.736 60.9094 822.504 62.1467 823.528 63.0001C824.595 63.8534 825.982 64.2801 827.688 64.2801C829.352 64.2801 830.696 63.8534 831.72 63.0001C832.787 62.1467 833.555 60.9094 834.024 59.2881C834.494 57.6667 834.728 55.7254 834.728 53.4641C834.728 51.1601 834.472 49.2187 833.96 47.6401C833.491 46.0614 832.744 44.8667 831.72 44.0561C830.696 43.2027 829.331 42.7761 827.624 42.7761C825.15 42.7761 823.336 43.6934 822.184 45.5281C821.075 47.3627 820.52 50.0081 820.52 53.4641Z" fill="url(#paint37_linear_112_4102)"/>
<path d="M799.618 64.0241C800.685 64.0241 801.709 63.9174 802.69 63.7041C803.672 63.4907 804.653 63.2347 805.634 62.9361V70.0401C804.61 70.4667 803.33 70.8294 801.794 71.1281C800.301 71.4694 798.658 71.6401 796.866 71.6401C794.776 71.6401 792.898 71.2987 791.234 70.6161C789.613 69.9334 788.312 68.7601 787.33 67.0961C786.392 65.3894 785.922 63.0427 785.922 60.0561V43.2241H781.378V39.1921L786.626 35.9921L789.378 28.6321H795.458V36.0561H805.25V43.2241H795.458V60.0561C795.458 61.3787 795.842 62.3814 796.61 63.0641C797.378 63.7041 798.381 64.0241 799.618 64.0241Z" fill="url(#paint38_linear_112_4102)"/>
<path d="M755.066 53.1441L743.802 36.0561H754.618L761.402 47.1921L768.25 36.0561H779.066L767.674 53.1441L779.578 71.0001H768.762L761.402 59.0321L754.042 71.0001H743.226L755.066 53.1441Z" fill="url(#paint39_linear_112_4102)"/>
<path d="M725.553 35.4161C728.795 35.4161 731.59 36.0347 733.937 37.2721C736.283 38.4667 738.075 40.2587 739.313 42.6481C740.593 44.9947 741.233 47.8747 741.233 51.2881V55.9601H718.769C718.854 58.6054 719.665 60.6961 721.201 62.2321C722.737 63.7254 724.934 64.4721 727.793 64.4721C729.969 64.4721 731.953 64.2587 733.745 63.8321C735.537 63.4054 737.372 62.7654 739.249 61.9121V69.1441C737.542 69.9974 735.729 70.6161 733.809 71.0001C731.932 71.4267 729.585 71.6401 726.769 71.6401C723.313 71.6401 720.241 71.0001 717.553 69.7201C714.907 68.4401 712.817 66.4774 711.281 63.8321C709.745 61.1441 708.977 57.7947 708.977 53.7841C708.977 49.6881 709.659 46.2961 711.025 43.6081C712.433 40.8774 714.374 38.8294 716.849 37.4641C719.366 36.0987 722.267 35.4161 725.553 35.4161ZM725.809 42.2641C723.889 42.2641 722.331 42.8827 721.137 44.1201C719.942 45.3147 719.238 47.1067 719.025 49.4961H732.209C732.209 48.0881 731.974 46.8507 731.505 45.7841C731.035 44.7174 730.31 43.8641 729.329 43.2241C728.39 42.5841 727.217 42.2641 725.809 42.2641Z" fill="url(#paint40_linear_112_4102)"/>
<path d="M697.931 64.0241C698.997 64.0241 700.021 63.9174 701.003 63.7041C701.984 63.4907 702.965 63.2347 703.947 62.9361V70.0401C702.923 70.4667 701.643 70.8294 700.107 71.1281C698.613 71.4694 696.971 71.6401 695.179 71.6401C693.088 71.6401 691.211 71.2987 689.547 70.6161C687.925 69.9334 686.624 68.7601 685.643 67.0961C684.704 65.3894 684.235 63.0427 684.235 60.0561V43.2241H679.691V39.1921L684.939 35.9921L687.691 28.6321H693.771V36.0561H703.563V43.2241H693.771V60.0561C693.771 61.3787 694.155 62.3814 694.923 63.0641C695.691 63.7041 696.693 64.0241 697.931 64.0241Z" fill="url(#paint41_linear_112_4102)"/>
<path d="M642.99 35.4161C646.233 35.4161 649.028 36.0347 651.374 37.2721C653.721 38.4667 655.513 40.2587 656.75 42.6481C658.03 44.9947 658.67 47.8747 658.67 51.2881V55.9601H636.206C636.292 58.6054 637.102 60.6961 638.638 62.2321C640.174 63.7254 642.372 64.4721 645.23 64.4721C647.406 64.4721 649.39 64.2587 651.182 63.8321C652.974 63.4054 654.809 62.7654 656.686 61.9121V69.1441C654.98 69.9974 653.166 70.6161 651.246 71.0001C649.369 71.4267 647.022 71.6401 644.206 71.6401C640.75 71.6401 637.678 71.0001 634.99 69.7201C632.345 68.4401 630.254 66.4774 628.718 63.8321C627.182 61.1441 626.414 57.7947 626.414 53.7841C626.414 49.6881 627.097 46.2961 628.462 43.6081C629.87 40.8774 631.812 38.8294 634.286 37.4641C636.804 36.0987 639.705 35.4161 642.99 35.4161ZM643.246 42.2641C641.326 42.2641 639.769 42.8827 638.574 44.1201C637.38 45.3147 636.676 47.1067 636.462 49.4961H649.646C649.646 48.0881 649.412 46.8507 648.942 45.7841C648.473 44.7174 647.748 43.8641 646.766 43.2241C645.828 42.5841 644.654 42.2641 643.246 42.2641Z" fill="url(#paint42_linear_112_4102)"/>
<path d="M599.097 71.6401C595.257 71.6401 592.099 70.1254 589.625 67.0961C587.193 64.0241 585.977 59.5227 585.977 53.5921C585.977 47.5761 587.214 43.0534 589.689 40.0241C592.163 36.9521 595.406 35.4161 599.417 35.4161C601.081 35.4161 602.51 35.6507 603.705 36.1201C604.942 36.5467 606.009 37.1441 606.905 37.9121C607.801 38.6801 608.569 39.5547 609.209 40.5361H609.529C609.401 39.7681 609.273 38.7014 609.145 37.3361C609.059 35.9281 609.017 34.6481 609.017 33.4961V22.3601H618.745V71.0001H611.321L609.401 66.4561H609.017C608.419 67.4374 607.673 68.3121 606.777 69.0801C605.881 69.8481 604.793 70.4667 603.513 70.9361C602.275 71.4054 600.803 71.6401 599.097 71.6401ZM602.489 63.8961C605.134 63.8961 606.99 63.1494 608.057 61.6561C609.123 60.1201 609.657 57.7947 609.657 54.6801V53.6561C609.657 50.2854 609.145 47.7041 608.121 45.9121C607.097 44.1201 605.198 43.2241 602.425 43.2241C600.334 43.2241 598.691 44.1201 597.497 45.9121C596.345 47.7041 595.769 50.3067 595.769 53.7201C595.769 57.1334 596.345 59.6934 597.497 61.4001C598.691 63.0641 600.355 63.8961 602.489 63.8961Z" fill="url(#paint43_linear_112_4102)"/>
<path d="M549.359 35.4161C553.199 35.4161 556.228 36.4187 558.447 38.4241C560.665 40.4294 561.775 43.6934 561.775 48.2161V71.0001H552.175V50.6481C552.175 48.1307 551.705 46.2534 550.767 45.0161C549.871 43.7361 548.463 43.0961 546.543 43.0961C543.641 43.0961 541.657 44.0987 540.591 46.1041C539.567 48.0667 539.055 50.9041 539.055 54.6161V71.0001H529.391V36.0561H536.815L538.159 40.7281H538.543C539.311 39.5761 540.228 38.6161 541.295 37.8481C542.404 37.0374 543.62 36.4401 544.943 36.0561C546.308 35.6294 547.78 35.4161 549.359 35.4161Z" fill="url(#paint44_linear_112_4102)"/>
<path d="M521.647 53.4641C521.647 56.3654 521.241 58.9467 520.431 61.2081C519.663 63.4694 518.532 65.3681 517.039 66.9041C515.588 68.4401 513.817 69.6134 511.727 70.4241C509.636 71.2347 507.268 71.6401 504.623 71.6401C502.148 71.6401 499.887 71.2347 497.839 70.4241C495.791 69.6134 494.02 68.4401 492.527 66.9041C491.033 65.3681 489.86 63.4694 489.007 61.2081C488.153 58.9467 487.727 56.3654 487.727 53.4641C487.727 49.5814 488.409 46.2961 489.775 43.6081C491.14 40.9201 493.103 38.8934 495.663 37.5281C498.223 36.1201 501.273 35.4161 504.815 35.4161C508.1 35.4161 511.001 36.1201 513.519 37.5281C516.036 38.8934 518.02 40.9201 519.471 43.6081C520.921 46.2961 521.647 49.5814 521.647 53.4641ZM497.583 53.4641C497.583 55.7254 497.817 57.6667 498.287 59.2881C498.799 60.9094 499.567 62.1467 500.591 63.0001C501.657 63.8534 503.044 64.2801 504.751 64.2801C506.415 64.2801 507.759 63.8534 508.783 63.0001C509.849 62.1467 510.617 60.9094 511.087 59.2881C511.556 57.6667 511.791 55.7254 511.791 53.4641C511.791 51.1601 511.535 49.2187 511.023 47.6401C510.553 46.0614 509.807 44.8667 508.783 44.0561C507.759 43.2027 506.393 42.7761 504.687 42.7761C502.212 42.7761 500.399 43.6934 499.247 45.5281C498.137 47.3627 497.583 50.0081 497.583 53.4641ZM517.807 22.6161C517.167 23.2134 516.356 23.9601 515.375 24.8561C514.393 25.7094 513.327 26.6054 512.175 27.5441C511.023 28.4401 509.892 29.3147 508.783 30.1681C507.716 30.9787 506.777 31.6614 505.967 32.2161H499.567V31.3841C500.249 30.5734 501.039 29.6134 501.935 28.5041C502.873 27.3947 503.791 26.2641 504.687 25.1121C505.625 23.9601 506.393 22.9147 506.991 21.9761H517.807V22.6161Z" fill="url(#paint45_linear_112_4102)"/>
<path d="M479.994 36.0561V71.0001H470.33V36.0561H479.994ZM475.194 22.2961C476.602 22.2961 477.818 22.6374 478.842 23.3201C479.908 23.9601 480.442 25.1974 480.442 27.0321C480.442 28.7814 479.908 29.9974 478.842 30.6801C477.818 31.3627 476.602 31.7041 475.194 31.7041C473.743 31.7041 472.506 31.3627 471.482 30.6801C470.458 29.9974 469.946 28.7814 469.946 27.0321C469.946 25.1974 470.458 23.9601 471.482 23.3201C472.506 22.6374 473.743 22.2961 475.194 22.2961Z" fill="url(#paint46_linear_112_4102)"/>
<path d="M452.498 71.6401C449.127 71.6401 446.162 71.0214 443.602 69.7841C441.084 68.5041 439.122 66.5414 437.714 63.8961C436.306 61.2081 435.602 57.8161 435.602 53.7201C435.602 49.4107 436.37 45.9121 437.906 43.2241C439.442 40.5361 441.532 38.5734 444.178 37.3361C446.823 36.0561 449.831 35.4161 453.202 35.4161C455.25 35.4161 457.17 35.6294 458.962 36.0561C460.796 36.4827 462.418 37.0587 463.826 37.7841L460.946 45.0801C459.666 44.5254 458.364 44.0774 457.042 43.7361C455.762 43.3521 454.482 43.1601 453.202 43.1601C451.538 43.1601 450.13 43.5441 448.978 44.3121C447.826 45.0801 446.951 46.2534 446.354 47.8321C445.756 49.3681 445.458 51.3094 445.458 53.6561C445.458 55.9601 445.756 57.8587 446.354 59.3521C446.951 60.8454 447.826 61.9761 448.978 62.7441C450.13 63.4694 451.495 63.8321 453.074 63.8321C454.908 63.8321 456.636 63.5974 458.258 63.1281C459.879 62.6161 461.415 61.9547 462.866 61.1441V69.0161C461.543 69.8267 460.05 70.4667 458.386 70.9361C456.722 71.4054 454.759 71.6401 452.498 71.6401Z" fill="url(#paint47_linear_112_4102)"/>
<path d="M419.498 71.6401C416.127 71.6401 413.162 71.0214 410.602 69.7841C408.084 68.5041 406.122 66.5414 404.714 63.8961C403.306 61.2081 402.602 57.8161 402.602 53.7201C402.602 49.4107 403.37 45.9121 404.906 43.2241C406.442 40.5361 408.532 38.5734 411.178 37.3361C413.823 36.0561 416.831 35.4161 420.202 35.4161C422.25 35.4161 424.17 35.6294 425.962 36.0561C427.796 36.4827 429.418 37.0587 430.826 37.7841L427.946 45.0801C426.666 44.5254 425.364 44.0774 424.042 43.7361C422.762 43.3521 421.482 43.1601 420.202 43.1601C418.538 43.1601 417.13 43.5441 415.978 44.3121C414.826 45.0801 413.951 46.2534 413.354 47.8321C412.756 49.3681 412.458 51.3094 412.458 53.6561C412.458 55.9601 412.756 57.8587 413.354 59.3521C413.951 60.8454 414.826 61.9761 415.978 62.7441C417.13 63.4694 418.495 63.8321 420.074 63.8321C421.908 63.8321 423.636 63.5974 425.258 63.1281C426.879 62.6161 428.415 61.9547 429.866 61.1441V69.0161C428.543 69.8267 427.05 70.4667 425.386 70.9361C423.722 71.4054 421.759 71.6401 419.498 71.6401Z" fill="url(#paint48_linear_112_4102)"/>
<path d="M394.833 36.0561V71.0001H387.409L386.193 66.5201H385.617C384.891 67.7147 383.953 68.6961 382.801 69.4641C381.691 70.2321 380.454 70.7867 379.089 71.1281C377.766 71.4694 376.358 71.6401 374.865 71.6401C372.39 71.6401 370.214 71.1921 368.337 70.2961C366.502 69.4001 365.051 68.0134 363.985 66.1361C362.961 64.2587 362.449 61.8267 362.449 58.8401V36.0561H372.177V56.4081C372.177 58.8827 372.603 60.7601 373.457 62.0401C374.353 63.2774 375.761 63.8961 377.681 63.8961C379.643 63.8961 381.158 63.4694 382.225 62.6161C383.334 61.7201 384.102 60.4187 384.529 58.7121C384.955 57.0054 385.169 54.9147 385.169 52.4401V36.0561H394.833Z" fill="url(#paint49_linear_112_4102)"/>
<path d="M333.659 71.6401C329.819 71.6401 326.662 70.1254 324.187 67.0961C321.755 64.0241 320.539 59.5227 320.539 53.5921C320.539 47.5761 321.777 43.0534 324.251 40.0241C326.726 36.9521 329.969 35.4161 333.979 35.4161C335.643 35.4161 337.073 35.6507 338.267 36.1201C339.505 36.5467 340.571 37.1441 341.467 37.9121C342.363 38.6801 343.131 39.5547 343.771 40.5361H344.091C343.963 39.7681 343.835 38.7014 343.707 37.3361C343.622 35.9281 343.579 34.6481 343.579 33.4961V22.3601H353.307V71.0001H345.883L343.963 66.4561H343.579C342.982 67.4374 342.235 68.3121 341.339 69.0801C340.443 69.8481 339.355 70.4667 338.075 70.9361C336.838 71.4054 335.366 71.6401 333.659 71.6401ZM337.051 63.8961C339.697 63.8961 341.553 63.1494 342.619 61.6561C343.686 60.1201 344.219 57.7947 344.219 54.6801V53.6561C344.219 50.2854 343.707 47.7041 342.683 45.9121C341.659 44.1201 339.761 43.2241 336.987 43.2241C334.897 43.2241 333.254 44.1201 332.059 45.9121C330.907 47.7041 330.331 50.3067 330.331 53.7201C330.331 57.1334 330.907 59.6934 332.059 61.4001C333.254 63.0641 334.918 63.8961 337.051 63.8961Z" fill="url(#paint50_linear_112_4102)"/>
<path d="M299.507 35.4161C303.901 35.4161 307.251 36.4614 309.555 38.5521C311.859 40.6001 313.011 43.6507 313.011 47.7041V71.0001H306.291L304.435 66.2641H304.179C303.197 67.5014 302.173 68.5254 301.107 69.3361C300.083 70.1467 298.888 70.7227 297.523 71.0641C296.157 71.4481 294.493 71.6401 292.531 71.6401C290.483 71.6401 288.648 71.2561 287.027 70.4881C285.405 69.6774 284.125 68.4614 283.187 66.8401C282.248 65.2187 281.779 63.1707 281.779 60.6961C281.779 57.0267 283.101 54.2747 285.747 52.4401C288.392 50.6054 292.339 49.5814 297.587 49.3681L303.411 49.1761V48.0881C303.411 45.9974 302.941 44.5467 302.003 43.7361C301.064 42.8827 299.741 42.4561 298.035 42.4561C296.456 42.4561 294.835 42.7121 293.171 43.2241C291.507 43.7361 289.864 44.3547 288.243 45.0801L285.427 38.4881C287.261 37.5494 289.352 36.8027 291.699 36.2481C294.088 35.6934 296.691 35.4161 299.507 35.4161ZM299.763 55.0001C296.733 55.0854 294.621 55.5761 293.427 56.4721C292.232 57.3681 291.635 58.6267 291.635 60.2481C291.635 61.7414 292.04 62.8507 292.851 63.5761C293.704 64.2587 294.835 64.6001 296.243 64.6001C298.248 64.6001 299.933 64.0027 301.299 62.8081C302.707 61.6134 303.411 59.9067 303.411 57.6881V54.8081L299.763 55.0001Z" fill="url(#paint51_linear_112_4102)"/>
<path d="M275.844 35.4161C276.484 35.4161 277.166 35.4587 277.892 35.5441C278.66 35.5867 279.257 35.6721 279.684 35.8001L278.724 44.8241C278.254 44.7387 277.7 44.6534 277.06 44.5681C276.42 44.4827 275.652 44.4401 274.756 44.4401C273.774 44.4401 272.772 44.5894 271.748 44.8881C270.766 45.1867 269.849 45.6774 268.996 46.3601C268.142 47.0427 267.46 47.9387 266.948 49.0481C266.436 50.1574 266.18 51.5654 266.18 53.2721V71.0001H256.516V36.0561H263.876L265.284 41.9441H265.732C266.414 40.7067 267.268 39.5974 268.292 38.6161C269.316 37.6347 270.468 36.8667 271.748 36.3121C273.028 35.7147 274.393 35.4161 275.844 35.4161Z" fill="url(#paint52_linear_112_4102)"/>
<path d="M241.454 71.0001H231.662V33.4321H219.31V25.3041H253.806V33.4321H241.454V71.0001Z" fill="url(#paint53_linear_112_4102)"/>
<defs>
<filter id="filter0_f_112_4102" x="199.31" y="13.9761" width="999.525" height="104.384" filterUnits="userSpaceOnUse" color-interpolation-filters="sRGB">
<feFlood flood-opacity="0" result="BackgroundImageFix"/>
<feBlend mode="normal" in="SourceGraphic" in2="BackgroundImageFix" result="shape"/>
<feGaussianBlur stdDeviation="10" result="effect1_foregroundBlur_112_4102"/>
</filter>
<linearGradient id="paint0_linear_112_4102" x1="118" y1="64.0036" x2="1282" y2="64.0021" gradientUnits="userSpaceOnUse">
<stop stop-color="white" stop-opacity="0.3"/>
<stop offset="0.495" stop-color="#CBB0F8"/>
<stop offset="1" stop-color="white" stop-opacity="0.3"/>
</linearGradient>
<linearGradient id="paint1_linear_112_4102" x1="1268.39" y1="53.6766" x2="-26001.1" y2="53.7562" gradientUnits="userSpaceOnUse">
<stop stop-color="#F4439F"/>
<stop offset="1" stop-color="#7C3AED"/>
</linearGradient>
<linearGradient id="paint2_linear_112_4102" x1="2489.37" y1="65.5148" x2="-25738.8" y2="65.6309" gradientUnits="userSpaceOnUse">
<stop stop-color="#F4439F"/>
<stop offset="1" stop-color="#7C3AED"/>
</linearGradient>
<linearGradient id="paint3_linear_112_4102" x1="3791.84" y1="53.6766" x2="-25824.6" y2="53.7705" gradientUnits="userSpaceOnUse">
<stop stop-color="#F4439F"/>
<stop offset="1" stop-color="#7C3AED"/>
</linearGradient>
<linearGradient id="paint4_linear_112_4102" x1="5579.86" y1="53.6766" x2="-29330.3" y2="53.8071" gradientUnits="userSpaceOnUse">
<stop stop-color="#F4439F"/>
<stop offset="1" stop-color="#7C3AED"/>
</linearGradient>
<linearGradient id="paint5_linear_112_4102" x1="5756.7" y1="53.6766" x2="-22919.6" y2="53.7646" gradientUnits="userSpaceOnUse">
<stop stop-color="#F4439F"/>
<stop offset="1" stop-color="#7C3AED"/>
</linearGradient>
<linearGradient id="paint6_linear_112_4102" x1="8993.65" y1="54.0309" x2="-30931.3" y2="54.1986" gradientUnits="userSpaceOnUse">
<stop stop-color="#F4439F"/>
<stop offset="1" stop-color="#7C3AED"/>
</linearGradient>
<linearGradient id="paint7_linear_112_4102" x1="7655.88" y1="47.9842" x2="-20572.3" y2="48.1042" gradientUnits="userSpaceOnUse">
<stop stop-color="#F4439F"/>
<stop offset="1" stop-color="#7C3AED"/>
</linearGradient>
<linearGradient id="paint8_linear_112_4102" x1="8928.08" y1="54.0309" x2="-19634.8" y2="54.1167" gradientUnits="userSpaceOnUse">
<stop stop-color="#F4439F"/>
<stop offset="1" stop-color="#7C3AED"/>
</linearGradient>
<linearGradient id="paint9_linear_112_4102" x1="28866.6" y1="65.9725" x2="-59260.2" y2="67.0905" gradientUnits="userSpaceOnUse">
<stop stop-color="#F4439F"/>
<stop offset="1" stop-color="#7C3AED"/>
</linearGradient>
<linearGradient id="paint10_linear_112_4102" x1="10723.6" y1="53.6766" x2="-16545.9" y2="53.7562" gradientUnits="userSpaceOnUse">
<stop stop-color="#F4439F"/>
<stop offset="1" stop-color="#7C3AED"/>
</linearGradient>
<linearGradient id="paint11_linear_112_4102" x1="16067.2" y1="60.7249" x2="-22066.9" y2="60.9098" gradientUnits="userSpaceOnUse">
<stop stop-color="#F4439F"/>
<stop offset="1" stop-color="#7C3AED"/>
</linearGradient>
<linearGradient id="paint12_linear_112_4102" x1="11800.9" y1="53.219" x2="-13644.2" y2="53.2859" gradientUnits="userSpaceOnUse">
<stop stop-color="#F4439F"/>
<stop offset="1" stop-color="#7C3AED"/>
</linearGradient>
<linearGradient id="paint13_linear_112_4102" x1="14290.4" y1="53.6767" x2="-14385.9" y2="53.7647" gradientUnits="userSpaceOnUse">
<stop stop-color="#F4439F"/>
<stop offset="1" stop-color="#7C3AED"/>
</linearGradient>
<linearGradient id="paint14_linear_112_4102" x1="20089.8" y1="60.7249" x2="-18044.4" y2="60.9098" gradientUnits="userSpaceOnUse">
<stop stop-color="#F4439F"/>
<stop offset="1" stop-color="#7C3AED"/>
</linearGradient>
<linearGradient id="paint15_linear_112_4102" x1="16746.4" y1="53.6767" x2="-11929.9" y2="53.7647" gradientUnits="userSpaceOnUse">
<stop stop-color="#F4439F"/>
<stop offset="1" stop-color="#7C3AED"/>
</linearGradient>
<linearGradient id="paint16_linear_112_4102" x1="17672.3" y1="65.5148" x2="-10555.9" y2="65.6309" gradientUnits="userSpaceOnUse">
<stop stop-color="#F4439F"/>
<stop offset="1" stop-color="#7C3AED"/>
</linearGradient>
<linearGradient id="paint17_linear_112_4102" x1="19555.9" y1="54.031" x2="-9007.07" y2="54.1168" gradientUnits="userSpaceOnUse">
<stop stop-color="#F4439F"/>
<stop offset="1" stop-color="#7C3AED"/>
</linearGradient>
<linearGradient id="paint18_linear_112_4102" x1="19858.8" y1="65.7688" x2="-7410.68" y2="65.878" gradientUnits="userSpaceOnUse">
<stop stop-color="#F4439F"/>
<stop offset="1" stop-color="#7C3AED"/>
</linearGradient>
<linearGradient id="paint19_linear_112_4102" x1="65314" y1="65.9725" x2="-22813.1" y2="67.0905" gradientUnits="userSpaceOnUse">
<stop stop-color="#F4439F"/>
<stop offset="1" stop-color="#7C3AED"/>
</linearGradient>
<linearGradient id="paint20_linear_112_4102" x1="25594.4" y1="53.6767" x2="-7178.45" y2="53.7917" gradientUnits="userSpaceOnUse">
<stop stop-color="#F4439F"/>
<stop offset="1" stop-color="#7C3AED"/>
</linearGradient>
<linearGradient id="paint21_linear_112_4102" x1="26716.3" y1="53.6767" x2="-6056.55" y2="53.7917" gradientUnits="userSpaceOnUse">
<stop stop-color="#F4439F"/>
<stop offset="1" stop-color="#7C3AED"/>
</linearGradient>
<linearGradient id="paint22_linear_112_4102" x1="24502.3" y1="52.8729" x2="-4060.65" y2="52.9588" gradientUnits="userSpaceOnUse">
<stop stop-color="#F4439F"/>
<stop offset="1" stop-color="#7C3AED"/>
</linearGradient>
<linearGradient id="paint23_linear_112_4102" x1="25444.9" y1="65.5148" x2="-2783.28" y2="65.6309" gradientUnits="userSpaceOnUse">
<stop stop-color="#F4439F"/>
<stop offset="1" stop-color="#7C3AED"/>
</linearGradient>
<linearGradient id="paint24_linear_112_4102" x1="27876.3" y1="53.6767" x2="-1740.13" y2="53.7706" gradientUnits="userSpaceOnUse">
<stop stop-color="#F4439F"/>
<stop offset="1" stop-color="#7C3AED"/>
</linearGradient>
<linearGradient id="paint25_linear_112_4102" x1="38549.1" y1="54.031" x2="-1375.85" y2="54.1987" gradientUnits="userSpaceOnUse">
<stop stop-color="#F4439F"/>
<stop offset="1" stop-color="#7C3AED"/>
</linearGradient>
<linearGradient id="paint26_linear_112_4102" x1="1182" y1="58.5002" x2="218" y2="58.5004" gradientUnits="userSpaceOnUse">
<stop stop-color="#F4439F"/>
<stop offset="1" stop-color="#7C3AED"/>
</linearGradient>
<linearGradient id="paint27_linear_112_4102" x1="700" y1="72" x2="700" y2="117" gradientUnits="userSpaceOnUse">
<stop offset="0.0001" stop-color="white" stop-opacity="0.1"/>
<stop offset="1" stop-color="white" stop-opacity="0"/>
</linearGradient>
<linearGradient id="paint28_linear_112_4102" x1="1268.39" y1="-35.6397" x2="1088.13" y2="2234.38" gradientUnits="userSpaceOnUse">
<stop stop-color="#F4439F"/>
<stop offset="1" stop-color="#7C3AED"/>
</linearGradient>
<linearGradient id="paint29_linear_112_4102" x1="2489.37" y1="-3.31764" x2="2394.99" y2="1670.49" gradientUnits="userSpaceOnUse">
<stop stop-color="#F4439F"/>
<stop offset="1" stop-color="#7C3AED"/>
</linearGradient>
<linearGradient id="paint30_linear_112_4102" x1="3791.84" y1="-35.6396" x2="3625.71" y2="2236.55" gradientUnits="userSpaceOnUse">
<stop stop-color="#F4439F"/>
<stop offset="1" stop-color="#7C3AED"/>
</linearGradient>
<linearGradient id="paint31_linear_112_4102" x1="5579.86" y1="-35.6397" x2="5438.72" y2="2239.94" gradientUnits="userSpaceOnUse">
<stop stop-color="#F4439F"/>
<stop offset="1" stop-color="#7C3AED"/>
</linearGradient>
<linearGradient id="paint32_linear_112_4102" x1="5756.7" y1="-35.6396" x2="5585.18" y2="2235.74" gradientUnits="userSpaceOnUse">
<stop stop-color="#F4439F"/>
<stop offset="1" stop-color="#7C3AED"/>
</linearGradient>
<linearGradient id="paint33_linear_112_4102" x1="8993.65" y1="-36.6759" x2="8865.65" y2="2281.67" gradientUnits="userSpaceOnUse">
<stop stop-color="#F4439F"/>
<stop offset="1" stop-color="#7C3AED"/>
</linearGradient>
<linearGradient id="paint34_linear_112_4102" x1="7655.88" y1="-18.9919" x2="7567.55" y2="1600.48" gradientUnits="userSpaceOnUse">
<stop stop-color="#F4439F"/>
<stop offset="1" stop-color="#7C3AED"/>
</linearGradient>
<linearGradient id="paint35_linear_112_4102" x1="8928.08" y1="-36.6759" x2="8749.68" y2="2274.97" gradientUnits="userSpaceOnUse">
<stop stop-color="#F4439F"/>
<stop offset="1" stop-color="#7C3AED"/>
</linearGradient>
<linearGradient id="paint36_linear_112_4102" x1="28866.6" y1="-3.5322" x2="28835.6" y2="1694.89" gradientUnits="userSpaceOnUse">
<stop stop-color="#F4439F"/>
<stop offset="1" stop-color="#7C3AED"/>
</linearGradient>
<linearGradient id="paint37_linear_112_4102" x1="10723.6" y1="-35.6396" x2="10543.4" y2="2234.38" gradientUnits="userSpaceOnUse">
<stop stop-color="#F4439F"/>
<stop offset="1" stop-color="#7C3AED"/>
</linearGradient>
<linearGradient id="paint38_linear_112_4102" x1="16067.2" y1="-16.3956" x2="15975.4" y2="1903.22" gradientUnits="userSpaceOnUse">
<stop stop-color="#F4439F"/>
<stop offset="1" stop-color="#7C3AED"/>
</linearGradient>
<linearGradient id="paint39_linear_112_4102" x1="11800.9" y1="-38.9293" x2="11593.6" y2="2310.79" gradientUnits="userSpaceOnUse">
<stop stop-color="#F4439F"/>
<stop offset="1" stop-color="#7C3AED"/>
</linearGradient>
<linearGradient id="paint40_linear_112_4102" x1="14290.4" y1="-35.6397" x2="14118.9" y2="2235.74" gradientUnits="userSpaceOnUse">
<stop stop-color="#F4439F"/>
<stop offset="1" stop-color="#7C3AED"/>
</linearGradient>
<linearGradient id="paint41_linear_112_4102" x1="20089.8" y1="-16.3957" x2="19998" y2="1903.22" gradientUnits="userSpaceOnUse">
<stop stop-color="#F4439F"/>
<stop offset="1" stop-color="#7C3AED"/>
</linearGradient>
<linearGradient id="paint42_linear_112_4102" x1="16746.4" y1="-35.6396" x2="16574.9" y2="2235.74" gradientUnits="userSpaceOnUse">
<stop stop-color="#F4439F"/>
<stop offset="1" stop-color="#7C3AED"/>
</linearGradient>
<linearGradient id="paint43_linear_112_4102" x1="17672.3" y1="-3.31761" x2="17577.9" y2="1670.49" gradientUnits="userSpaceOnUse">
<stop stop-color="#F4439F"/>
<stop offset="1" stop-color="#7C3AED"/>
</linearGradient>
<linearGradient id="paint44_linear_112_4102" x1="19555.9" y1="-36.6759" x2="19377.4" y2="2274.97" gradientUnits="userSpaceOnUse">
<stop stop-color="#F4439F"/>
<stop offset="1" stop-color="#7C3AED"/>
</linearGradient>
<linearGradient id="paint45_linear_112_4102" x1="19858.8" y1="-2.62425" x2="19762.6" y2="1657.95" gradientUnits="userSpaceOnUse">
<stop stop-color="#F4439F"/>
<stop offset="1" stop-color="#7C3AED"/>
</linearGradient>
<linearGradient id="paint46_linear_112_4102" x1="65314" y1="-3.53219" x2="65283" y2="1694.89" gradientUnits="userSpaceOnUse">
<stop stop-color="#F4439F"/>
<stop offset="1" stop-color="#7C3AED"/>
</linearGradient>
<linearGradient id="paint47_linear_112_4102" x1="25594.4" y1="-35.6396" x2="25444.2" y2="2238.76" gradientUnits="userSpaceOnUse">
<stop stop-color="#F4439F"/>
<stop offset="1" stop-color="#7C3AED"/>
</linearGradient>
<linearGradient id="paint48_linear_112_4102" x1="26716.3" y1="-35.6397" x2="26566" y2="2238.76" gradientUnits="userSpaceOnUse">
<stop stop-color="#F4439F"/>
<stop offset="1" stop-color="#7C3AED"/>
</linearGradient>
<linearGradient id="paint49_linear_112_4102" x1="24502.3" y1="-37.8339" x2="24323.9" y2="2273.82" gradientUnits="userSpaceOnUse">
<stop stop-color="#F4439F"/>
<stop offset="1" stop-color="#7C3AED"/>
</linearGradient>
<linearGradient id="paint50_linear_112_4102" x1="25444.9" y1="-3.31764" x2="25350.5" y2="1670.49" gradientUnits="userSpaceOnUse">
<stop stop-color="#F4439F"/>
<stop offset="1" stop-color="#7C3AED"/>
</linearGradient>
<linearGradient id="paint51_linear_112_4102" x1="27876.3" y1="-35.6397" x2="27710.2" y2="2236.55" gradientUnits="userSpaceOnUse">
<stop stop-color="#F4439F"/>
<stop offset="1" stop-color="#7C3AED"/>
</linearGradient>
<linearGradient id="paint52_linear_112_4102" x1="38549.1" y1="-36.6759" x2="38421.1" y2="2281.67" gradientUnits="userSpaceOnUse">
<stop stop-color="#F4439F"/>
<stop offset="1" stop-color="#7C3AED"/>
</linearGradient>
<linearGradient id="paint53_linear_112_4102" x1="1182" y1="3.00019" x2="556.608" y2="497.853" gradientUnits="userSpaceOnUse">
<stop stop-color="#F4439F"/>
<stop offset="1" stop-color="#7C3AED"/>
</linearGradient>
</defs>
</svg>
