<svg width="1400" height="120" viewBox="0 0 1400 120" fill="none" xmlns="http://www.w3.org/2000/svg">
<path d="M82 56H1318V72H82V56Z" fill="url(#paint0_linear_112_4158)"/>
<mask id="mask0_112_4158" style="mask-type:alpha" maskUnits="userSpaceOnUse" x="82" y="72" width="1236" height="45">
<path d="M82 72H1318V117H82V72Z" fill="#C4C4C4"/>
</mask>
<g mask="url(#mask0_112_4158)">
<g filter="url(#filter0_f_112_4158)">
<path d="M1200.61 47.4161C1204.45 47.4161 1207.48 48.4187 1209.7 50.4241C1211.92 52.4294 1213.02 55.6934 1213.02 60.2161V83.0001H1203.42V62.6481C1203.42 60.1307 1202.96 58.2534 1202.02 57.0161C1201.12 55.7361 1199.71 55.0961 1197.79 55.0961C1194.89 55.0961 1192.91 56.0987 1191.84 58.1041C1190.82 60.0667 1190.3 62.9041 1190.3 66.6161V83.0001H1180.64V48.0561H1188.06L1189.41 52.7281H1189.79C1190.56 51.5761 1191.48 50.6161 1192.54 49.8481C1193.65 49.0374 1194.87 48.4401 1196.19 48.0561C1197.56 47.6294 1199.03 47.4161 1200.61 47.4161Z" fill="url(#paint1_linear_112_4158)" fill-opacity="0.7"/>
<path d="M1172.9 65.4641C1172.9 68.3654 1172.49 70.9467 1171.68 73.2081C1170.91 75.4694 1169.78 77.3681 1168.29 78.9041C1166.84 80.4401 1165.07 81.6134 1162.98 82.4241C1160.89 83.2347 1158.52 83.6401 1155.87 83.6401C1153.4 83.6401 1151.14 83.2347 1149.09 82.4241C1147.04 81.6134 1145.27 80.4401 1143.78 78.9041C1142.28 77.3681 1141.11 75.4694 1140.26 73.2081C1139.4 70.9467 1138.98 68.3654 1138.98 65.4641C1138.98 61.5814 1139.66 58.2961 1141.02 55.6081C1142.39 52.9201 1144.35 50.8934 1146.91 49.5281C1149.47 48.1201 1152.52 47.4161 1156.06 47.4161C1159.35 47.4161 1162.25 48.1201 1164.77 49.5281C1167.29 50.8934 1169.27 52.9201 1170.72 55.6081C1172.17 58.2961 1172.9 61.5814 1172.9 65.4641ZM1148.83 65.4641C1148.83 67.7254 1149.07 69.6667 1149.54 71.2881C1150.05 72.9094 1150.82 74.1467 1151.84 75.0001C1152.91 75.8534 1154.29 76.2801 1156 76.2801C1157.66 76.2801 1159.01 75.8534 1160.03 75.0001C1161.1 74.1467 1161.87 72.9094 1162.34 71.2881C1162.81 69.6667 1163.04 67.7254 1163.04 65.4641C1163.04 63.1601 1162.78 61.2187 1162.27 59.6401C1161.8 58.0614 1161.06 56.8667 1160.03 56.0561C1159.01 55.2027 1157.64 54.7761 1155.94 54.7761C1153.46 54.7761 1151.65 55.6934 1150.5 57.5281C1149.39 59.3627 1148.83 62.0081 1148.83 65.4641ZM1169.06 34.6161C1168.42 35.2134 1167.61 35.9601 1166.62 36.8561C1165.64 37.7094 1164.58 38.6054 1163.42 39.5441C1162.27 40.4401 1161.14 41.3147 1160.03 42.1681C1158.97 42.9787 1158.03 43.6614 1157.22 44.2161H1150.82V43.3841C1151.5 42.5734 1152.29 41.6134 1153.18 40.5041C1154.12 39.3947 1155.04 38.2641 1155.94 37.1121C1156.88 35.9601 1157.64 34.9147 1158.24 33.9761H1169.06V34.6161Z" fill="url(#paint2_linear_112_4158)" fill-opacity="0.7"/>
<path d="M1131.24 48.0561V83.0001H1121.58V48.0561H1131.24ZM1126.44 34.2961C1127.85 34.2961 1129.07 34.6374 1130.09 35.3201C1131.16 35.9601 1131.69 37.1974 1131.69 39.0321C1131.69 40.7814 1131.16 41.9974 1130.09 42.6801C1129.07 43.3627 1127.85 43.7041 1126.44 43.7041C1124.99 43.7041 1123.76 43.3627 1122.73 42.6801C1121.71 41.9974 1121.2 40.7814 1121.2 39.0321C1121.2 37.1974 1121.71 35.9601 1122.73 35.3201C1123.76 34.6374 1124.99 34.2961 1126.44 34.2961Z" fill="url(#paint3_linear_112_4158)" fill-opacity="0.7"/>
<path d="M1103.75 83.6401C1100.38 83.6401 1097.41 83.0214 1094.85 81.7841C1092.33 80.5041 1090.37 78.5414 1088.96 75.8961C1087.56 73.2081 1086.85 69.8161 1086.85 65.7201C1086.85 61.4107 1087.62 57.9121 1089.16 55.2241C1090.69 52.5361 1092.78 50.5734 1095.43 49.3361C1098.07 48.0561 1101.08 47.4161 1104.45 47.4161C1106.5 47.4161 1108.42 47.6294 1110.21 48.0561C1112.05 48.4827 1113.67 49.0587 1115.08 49.7841L1112.2 57.0801C1110.92 56.5254 1109.61 56.0774 1108.29 55.7361C1107.01 55.3521 1105.73 55.1601 1104.45 55.1601C1102.79 55.1601 1101.38 55.5441 1100.23 56.3121C1099.08 57.0801 1098.2 58.2534 1097.6 59.8321C1097.01 61.3681 1096.71 63.3094 1096.71 65.6561C1096.71 67.9601 1097.01 69.8587 1097.6 71.3521C1098.2 72.8454 1099.08 73.9761 1100.23 74.7441C1101.38 75.4694 1102.75 75.8321 1104.32 75.8321C1106.16 75.8321 1107.89 75.5974 1109.51 75.1281C1111.13 74.6161 1112.67 73.9547 1114.12 73.1441V81.0161C1112.79 81.8267 1111.3 82.4667 1109.64 82.9361C1107.97 83.4054 1106.01 83.6401 1103.75 83.6401Z" fill="url(#paint4_linear_112_4158)" fill-opacity="0.7"/>
<path d="M1070.75 83.6401C1067.38 83.6401 1064.41 83.0214 1061.85 81.7841C1059.33 80.5041 1057.37 78.5414 1055.96 75.8961C1054.56 73.2081 1053.85 69.8161 1053.85 65.7201C1053.85 61.4107 1054.62 57.9121 1056.16 55.2241C1057.69 52.5361 1059.78 50.5734 1062.43 49.3361C1065.07 48.0561 1068.08 47.4161 1071.45 47.4161C1073.5 47.4161 1075.42 47.6294 1077.21 48.0561C1079.05 48.4827 1080.67 49.0587 1082.08 49.7841L1079.2 57.0801C1077.92 56.5254 1076.61 56.0774 1075.29 55.7361C1074.01 55.3521 1072.73 55.1601 1071.45 55.1601C1069.79 55.1601 1068.38 55.5441 1067.23 56.3121C1066.08 57.0801 1065.2 58.2534 1064.6 59.8321C1064.01 61.3681 1063.71 63.3094 1063.71 65.6561C1063.71 67.9601 1064.01 69.8587 1064.6 71.3521C1065.2 72.8454 1066.08 73.9761 1067.23 74.7441C1068.38 75.4694 1069.75 75.8321 1071.32 75.8321C1073.16 75.8321 1074.89 75.5974 1076.51 75.1281C1078.13 74.6161 1079.67 73.9547 1081.12 73.1441V81.0161C1079.79 81.8267 1078.3 82.4667 1076.64 82.9361C1074.97 83.4054 1073.01 83.6401 1070.75 83.6401Z" fill="url(#paint5_linear_112_4158)" fill-opacity="0.7"/>
<path d="M1046.08 48.0561V83.0001H1038.66L1037.44 78.5201H1036.87C1036.14 79.7147 1035.2 80.6961 1034.05 81.4641C1032.94 82.2321 1031.7 82.7867 1030.34 83.1281C1029.02 83.4694 1027.61 83.6401 1026.11 83.6401C1023.64 83.6401 1021.46 83.1921 1019.59 82.2961C1017.75 81.4001 1016.3 80.0134 1015.23 78.1361C1014.21 76.2587 1013.7 73.8267 1013.7 70.8401V48.0561H1023.43V68.4081C1023.43 70.8827 1023.85 72.7601 1024.71 74.0401C1025.6 75.2774 1027.01 75.8961 1028.93 75.8961C1030.89 75.8961 1032.41 75.4694 1033.47 74.6161C1034.58 73.7201 1035.35 72.4187 1035.78 70.7121C1036.21 69.0054 1036.42 66.9147 1036.42 64.4401V48.0561H1046.08Z" fill="url(#paint6_linear_112_4158)" fill-opacity="0.7"/>
<path d="M984.909 83.6401C981.069 83.6401 977.912 82.1254 975.437 79.0961C973.005 76.0241 971.789 71.5227 971.789 65.5921C971.789 59.5761 973.027 55.0534 975.501 52.0241C977.976 48.9521 981.219 47.4161 985.229 47.4161C986.893 47.4161 988.323 47.6507 989.517 48.1201C990.755 48.5467 991.821 49.1441 992.717 49.9121C993.613 50.6801 994.381 51.5547 995.021 52.5361H995.341C995.213 51.7681 995.085 50.7014 994.957 49.3361C994.872 47.9281 994.829 46.6481 994.829 45.4961V34.3601H1004.56V83.0001H997.133L995.213 78.4561H994.829C994.232 79.4374 993.485 80.3121 992.589 81.0801C991.693 81.8481 990.605 82.4667 989.325 82.9361C988.088 83.4054 986.616 83.6401 984.909 83.6401ZM988.301 75.8961C990.947 75.8961 992.803 75.1494 993.869 73.6561C994.936 72.1201 995.469 69.7947 995.469 66.6801V65.6561C995.469 62.2854 994.957 59.7041 993.933 57.9121C992.909 56.1201 991.011 55.2241 988.237 55.2241C986.147 55.2241 984.504 56.1201 983.309 57.9121C982.157 59.7041 981.581 62.3067 981.581 65.7201C981.581 69.1334 982.157 71.6934 983.309 73.4001C984.504 75.0641 986.168 75.8961 988.301 75.8961Z" fill="url(#paint7_linear_112_4158)" fill-opacity="0.7"/>
<path d="M950.757 47.4161C955.151 47.4161 958.501 48.4614 960.805 50.5521C963.109 52.6001 964.261 55.6507 964.261 59.7041V83.0001H957.541L955.685 78.2641H955.429C954.447 79.5014 953.423 80.5254 952.357 81.3361C951.333 82.1467 950.138 82.7227 948.773 83.0641C947.407 83.4481 945.743 83.6401 943.781 83.6401C941.733 83.6401 939.898 83.2561 938.277 82.4881C936.655 81.6774 935.375 80.4614 934.437 78.8401C933.498 77.2187 933.029 75.1707 933.029 72.6961C933.029 69.0267 934.351 66.2747 936.997 64.4401C939.642 62.6054 943.589 61.5814 948.837 61.3681L954.661 61.1761V60.0881C954.661 57.9974 954.191 56.5467 953.253 55.7361C952.314 54.8827 950.991 54.4561 949.285 54.4561C947.706 54.4561 946.085 54.7121 944.421 55.2241C942.757 55.7361 941.114 56.3547 939.493 57.0801L936.677 50.4881C938.511 49.5494 940.602 48.8027 942.949 48.2481C945.338 47.6934 947.941 47.4161 950.757 47.4161ZM951.013 67.0001C947.983 67.0854 945.871 67.5761 944.677 68.4721C943.482 69.3681 942.885 70.6267 942.885 72.2481C942.885 73.7414 943.29 74.8507 944.101 75.5761C944.954 76.2587 946.085 76.6001 947.493 76.6001C949.498 76.6001 951.183 76.0027 952.549 74.8081C953.957 73.6134 954.661 71.9067 954.661 69.6881V66.8081L951.013 67.0001Z" fill="url(#paint8_linear_112_4158)" fill-opacity="0.7"/>
<path d="M927.094 47.4161C927.734 47.4161 928.416 47.4587 929.142 47.5441C929.91 47.5867 930.507 47.6721 930.934 47.8001L929.974 56.8241C929.504 56.7387 928.95 56.6534 928.31 56.5681C927.67 56.4827 926.902 56.4401 926.006 56.4401C925.024 56.4401 924.022 56.5894 922.998 56.8881C922.016 57.1867 921.099 57.6774 920.246 58.3601C919.392 59.0427 918.71 59.9387 918.198 61.0481C917.686 62.1574 917.43 63.5654 917.43 65.2721V83.0001H907.766V48.0561H915.126L916.534 53.9441H916.982C917.664 52.7067 918.518 51.5974 919.542 50.6161C920.566 49.6347 921.718 48.8667 922.998 48.3121C924.278 47.7147 925.643 47.4161 927.094 47.4161Z" fill="url(#paint9_linear_112_4158)" fill-opacity="0.7"/>
<path d="M895.056 76.0241C896.122 76.0241 897.146 75.9174 898.128 75.7041C899.109 75.4907 900.09 75.2347 901.072 74.9361V82.0401C900.048 82.4667 898.768 82.8294 897.232 83.1281C895.738 83.4694 894.096 83.6401 892.304 83.6401C890.213 83.6401 888.336 83.2987 886.672 82.6161C885.05 81.9334 883.749 80.7601 882.768 79.0961C881.829 77.3894 881.36 75.0427 881.36 72.0561V55.2241H876.816V51.1921L882.064 47.9921L884.816 40.6321H890.896V48.0561H900.688V55.2241H890.896V72.0561C890.896 73.3787 891.28 74.3814 892.048 75.0641C892.816 75.7041 893.818 76.0241 895.056 76.0241Z" fill="url(#paint10_linear_112_4158)" fill-opacity="0.7"/>
<path d="M840.115 47.4161C843.358 47.4161 846.153 48.0347 848.499 49.2721C850.846 50.4667 852.638 52.2587 853.875 54.6481C855.155 56.9947 855.795 59.8747 855.795 63.2881V67.9601H833.331C833.417 70.6054 834.227 72.6961 835.763 74.2321C837.299 75.7254 839.497 76.4721 842.355 76.4721C844.531 76.4721 846.515 76.2587 848.307 75.8321C850.099 75.4054 851.934 74.7654 853.811 73.9121V81.1441C852.105 81.9974 850.291 82.6161 848.371 83.0001C846.494 83.4267 844.147 83.6401 841.331 83.6401C837.875 83.6401 834.803 83.0001 832.115 81.7201C829.47 80.4401 827.379 78.4774 825.843 75.8321C824.307 73.1441 823.539 69.7947 823.539 65.7841C823.539 61.6881 824.222 58.2961 825.587 55.6081C826.995 52.8774 828.937 50.8294 831.411 49.4641C833.929 48.0987 836.83 47.4161 840.115 47.4161ZM840.371 54.2641C838.451 54.2641 836.894 54.8827 835.699 56.1201C834.505 57.3147 833.801 59.1067 833.587 61.4961H846.771C846.771 60.0881 846.537 58.8507 846.067 57.7841C845.598 56.7174 844.873 55.8641 843.891 55.2241C842.953 54.5841 841.779 54.2641 840.371 54.2641Z" fill="url(#paint11_linear_112_4158)" fill-opacity="0.7"/>
<path d="M796.222 83.6401C792.382 83.6401 789.224 82.1254 786.75 79.0961C784.318 76.0241 783.102 71.5227 783.102 65.5921C783.102 59.5761 784.339 55.0534 786.814 52.0241C789.288 48.9521 792.531 47.4161 796.542 47.4161C798.206 47.4161 799.635 47.6507 800.83 48.1201C802.067 48.5467 803.134 49.1441 804.03 49.9121C804.926 50.6801 805.694 51.5547 806.334 52.5361H806.654C806.526 51.7681 806.398 50.7014 806.27 49.3361C806.184 47.9281 806.142 46.6481 806.142 45.4961V34.3601H815.87V83.0001H808.446L806.526 78.4561H806.142C805.544 79.4374 804.798 80.3121 803.902 81.0801C803.006 81.8481 801.918 82.4667 800.638 82.9361C799.4 83.4054 797.928 83.6401 796.222 83.6401ZM799.614 75.8961C802.259 75.8961 804.115 75.1494 805.182 73.6561C806.248 72.1201 806.782 69.7947 806.782 66.6801V65.6561C806.782 62.2854 806.27 59.7041 805.246 57.9121C804.222 56.1201 802.323 55.2241 799.55 55.2241C797.459 55.2241 795.816 56.1201 794.622 57.9121C793.47 59.7041 792.894 62.3067 792.894 65.7201C792.894 69.1334 793.47 71.6934 794.622 73.4001C795.816 75.0641 797.48 75.8961 799.614 75.8961Z" fill="url(#paint12_linear_112_4158)" fill-opacity="0.7"/>
<path d="M760.784 72.6961C760.784 74.9147 760.25 76.8561 759.184 78.5201C758.16 80.1414 756.581 81.4001 754.448 82.2961C752.314 83.1921 749.605 83.6401 746.32 83.6401C743.845 83.6401 741.669 83.4694 739.792 83.1281C737.914 82.8294 736.101 82.3174 734.352 81.5921V73.5921C736.229 74.4881 738.256 75.1921 740.432 75.7041C742.608 76.2161 744.485 76.4721 746.064 76.4721C748.026 76.4721 749.434 76.1947 750.288 75.6401C751.184 75.0854 751.632 74.3387 751.632 73.4001C751.632 72.7601 751.397 72.1841 750.928 71.6721C750.501 71.1601 749.712 70.6267 748.56 70.0721C747.45 69.5174 745.85 68.8347 743.76 68.0241C741.669 67.1707 739.92 66.2961 738.512 65.4001C737.104 64.4614 736.037 63.3521 735.312 62.0721C734.629 60.7921 734.288 59.1921 734.288 57.2721C734.288 54.0721 735.546 51.6401 738.064 49.9761C740.624 48.2694 743.994 47.4161 748.176 47.4161C750.437 47.4161 752.528 47.6507 754.448 48.1201C756.41 48.5894 758.394 49.2507 760.4 50.1041L757.584 56.6961C755.962 55.9707 754.298 55.3734 752.592 54.9041C750.885 54.4347 749.37 54.2001 748.048 54.2001C746.597 54.2001 745.466 54.4347 744.656 54.9041C743.845 55.3307 743.44 55.9494 743.44 56.7601C743.44 57.3574 743.653 57.8907 744.08 58.3601C744.549 58.8294 745.338 59.3201 746.448 59.8321C747.6 60.3441 749.2 61.0054 751.248 61.8161C753.338 62.6267 755.088 63.5014 756.496 64.4401C757.946 65.3361 759.013 66.4454 759.696 67.7681C760.421 69.0481 760.784 70.6907 760.784 72.6961Z" fill="url(#paint13_linear_112_4158)" fill-opacity="0.7"/>
<path d="M713.319 47.4161C717.714 47.4161 721.063 48.4614 723.367 50.5521C725.671 52.6001 726.823 55.6507 726.823 59.7041V83.0001H720.103L718.247 78.2641H717.991C717.01 79.5014 715.986 80.5254 714.919 81.3361C713.895 82.1467 712.701 82.7227 711.335 83.0641C709.97 83.4481 708.306 83.6401 706.343 83.6401C704.295 83.6401 702.461 83.2561 700.839 82.4881C699.218 81.6774 697.938 80.4614 696.999 78.8401C696.061 77.2187 695.591 75.1707 695.591 72.6961C695.591 69.0267 696.914 66.2747 699.559 64.4401C702.205 62.6054 706.151 61.5814 711.399 61.3681L717.223 61.1761V60.0881C717.223 57.9974 716.754 56.5467 715.815 55.7361C714.877 54.8827 713.554 54.4561 711.847 54.4561C710.269 54.4561 708.647 54.7121 706.983 55.2241C705.319 55.7361 703.677 56.3547 702.055 57.0801L699.239 50.4881C701.074 49.5494 703.165 48.8027 705.511 48.2481C707.901 47.6934 710.503 47.4161 713.319 47.4161ZM713.575 67.0001C710.546 67.0854 708.434 67.5761 707.239 68.4721C706.045 69.3681 705.447 70.6267 705.447 72.2481C705.447 73.7414 705.853 74.8507 706.663 75.5761C707.517 76.2587 708.647 76.6001 710.055 76.6001C712.061 76.6001 713.746 76.0027 715.111 74.8081C716.519 73.6134 717.223 71.9067 717.223 69.6881V66.8081L713.575 67.0001Z" fill="url(#paint14_linear_112_4158)" fill-opacity="0.7"/>
<path d="M684.993 76.0241C686.06 76.0241 687.084 75.9174 688.065 75.7041C689.047 75.4907 690.028 75.2347 691.009 74.9361V82.0401C689.985 82.4667 688.705 82.8294 687.169 83.1281C685.676 83.4694 684.033 83.6401 682.241 83.6401C680.151 83.6401 678.273 83.2987 676.609 82.6161C674.988 81.9334 673.687 80.7601 672.705 79.0961C671.767 77.3894 671.297 75.0427 671.297 72.0561V55.2241H666.753V51.1921L672.001 47.9921L674.753 40.6321H680.833V48.0561H690.625V55.2241H680.833V72.0561C680.833 73.3787 681.217 74.3814 681.985 75.0641C682.753 75.7041 683.756 76.0241 684.993 76.0241Z" fill="url(#paint15_linear_112_4158)" fill-opacity="0.7"/>
<path d="M648.296 47.4161C652.136 47.4161 655.166 48.4187 657.384 50.4241C659.603 52.4294 660.712 55.6934 660.712 60.2161V83.0001H651.112V62.6481C651.112 60.1307 650.643 58.2534 649.704 57.0161C648.808 55.7361 647.4 55.0961 645.48 55.0961C642.579 55.0961 640.595 56.0987 639.528 58.1041C638.504 60.0667 637.992 62.9041 637.992 66.6161V83.0001H628.328V48.0561H635.752L637.096 52.7281H637.48C638.248 51.5761 639.166 50.6161 640.232 49.8481C641.342 49.0374 642.558 48.4401 643.88 48.0561C645.246 47.6294 646.718 47.4161 648.296 47.4161Z" fill="url(#paint16_linear_112_4158)" fill-opacity="0.7"/>
<path d="M605.053 47.4161C608.295 47.4161 611.09 48.0347 613.437 49.2721C615.783 50.4667 617.575 52.2587 618.813 54.6481C620.093 56.9947 620.733 59.8747 620.733 63.2881V67.9601H598.269C598.354 70.6054 599.165 72.6961 600.701 74.2321C602.237 75.7254 604.434 76.4721 607.293 76.4721C609.469 76.4721 611.453 76.2587 613.245 75.8321C615.037 75.4054 616.871 74.7654 618.749 73.9121V81.1441C617.042 81.9974 615.229 82.6161 613.309 83.0001C611.431 83.4267 609.085 83.6401 606.269 83.6401C602.813 83.6401 599.741 83.0001 597.053 81.7201C594.407 80.4401 592.317 78.4774 590.781 75.8321C589.245 73.1441 588.477 69.7947 588.477 65.7841C588.477 61.6881 589.159 58.2961 590.525 55.6081C591.933 52.8774 593.874 50.8294 596.349 49.4641C598.866 48.0987 601.767 47.4161 605.053 47.4161ZM605.309 54.2641C603.389 54.2641 601.831 54.8827 600.637 56.1201C599.442 57.3147 598.738 59.1067 598.525 61.4961H611.709C611.709 60.0881 611.474 58.8507 611.005 57.7841C610.535 56.7174 609.81 55.8641 608.829 55.2241C607.89 54.5841 606.717 54.2641 605.309 54.2641Z" fill="url(#paint17_linear_112_4158)" fill-opacity="0.7"/>
<path d="M580.744 48.0561V83.0001H571.08V48.0561H580.744ZM575.944 34.2961C577.352 34.2961 578.568 34.6374 579.592 35.3201C580.658 35.9601 581.192 37.1974 581.192 39.0321C581.192 40.7814 580.658 41.9974 579.592 42.6801C578.568 43.3627 577.352 43.7041 575.944 43.7041C574.493 43.7041 573.256 43.3627 572.232 42.6801C571.208 41.9974 570.696 40.7814 570.696 39.0321C570.696 37.1974 571.208 35.9601 572.232 35.3201C573.256 34.6374 574.493 34.2961 575.944 34.2961Z" fill="url(#paint18_linear_112_4158)" fill-opacity="0.7"/>
<path d="M549.665 47.4161C553.675 47.4161 556.705 48.4187 558.753 50.4241C560.801 52.4294 561.825 55.6934 561.825 60.2161V83.0001H552.225V62.6481C552.225 59.9601 551.777 58.0401 550.881 56.8881C549.985 55.6934 548.641 55.0961 546.849 55.0961C544.374 55.0961 542.625 56.0134 541.601 57.8481C540.577 59.6401 540.065 62.2001 540.065 65.5281V83.0001H530.401V62.6481C530.401 60.8987 530.209 59.4694 529.825 58.3601C529.441 57.2507 528.865 56.4401 528.097 55.9281C527.329 55.3734 526.347 55.0961 525.153 55.0961C523.403 55.0961 522.017 55.5441 520.993 56.4401C520.011 57.3361 519.307 58.6374 518.881 60.3441C518.497 62.0507 518.305 64.1414 518.305 66.6161V83.0001H508.641V48.0561H516.065L517.473 52.5361H517.793C518.475 51.4694 519.307 50.5521 520.289 49.7841C521.313 49.0161 522.486 48.4401 523.809 48.0561C525.131 47.6294 526.603 47.4161 528.225 47.4161C530.827 47.4161 532.982 47.8641 534.689 48.7601C536.438 49.6561 537.803 50.9574 538.785 52.6641H539.105C540.257 50.9147 541.75 49.6134 543.585 48.7601C545.419 47.8641 547.446 47.4161 549.665 47.4161Z" fill="url(#paint19_linear_112_4158)" fill-opacity="0.7"/>
<path d="M485.944 47.4161C490.339 47.4161 493.688 48.4614 495.992 50.5521C498.296 52.6001 499.448 55.6507 499.448 59.7041V83.0001H492.728L490.872 78.2641H490.616C489.635 79.5014 488.611 80.5254 487.544 81.3361C486.52 82.1467 485.326 82.7227 483.96 83.0641C482.595 83.4481 480.931 83.6401 478.968 83.6401C476.92 83.6401 475.086 83.2561 473.464 82.4881C471.843 81.6774 470.563 80.4614 469.624 78.8401C468.686 77.2187 468.216 75.1707 468.216 72.6961C468.216 69.0267 469.539 66.2747 472.184 64.4401C474.83 62.6054 478.776 61.5814 484.024 61.3681L489.848 61.1761V60.0881C489.848 57.9974 489.379 56.5467 488.44 55.7361C487.502 54.8827 486.179 54.4561 484.472 54.4561C482.894 54.4561 481.272 54.7121 479.608 55.2241C477.944 55.7361 476.302 56.3547 474.68 57.0801L471.864 50.4881C473.699 49.5494 475.79 48.8027 478.136 48.2481C480.526 47.6934 483.128 47.4161 485.944 47.4161ZM486.2 67.0001C483.171 67.0854 481.059 67.5761 479.864 68.4721C478.67 69.3681 478.072 70.6267 478.072 72.2481C478.072 73.7414 478.478 74.8507 479.288 75.5761C480.142 76.2587 481.272 76.6001 482.68 76.6001C484.686 76.6001 486.371 76.0027 487.736 74.8081C489.144 73.6134 489.848 71.9067 489.848 69.6881V66.8081L486.2 67.0001Z" fill="url(#paint20_linear_112_4158)" fill-opacity="0.7"/>
<path d="M462.281 47.4161C462.921 47.4161 463.604 47.4587 464.329 47.5441C465.097 47.5867 465.695 47.6721 466.121 47.8001L465.161 56.8241C464.692 56.7387 464.137 56.6534 463.497 56.5681C462.857 56.4827 462.089 56.4401 461.193 56.4401C460.212 56.4401 459.209 56.5894 458.185 56.8881C457.204 57.1867 456.287 57.6774 455.433 58.3601C454.58 59.0427 453.897 59.9387 453.385 61.0481C452.873 62.1574 452.617 63.5654 452.617 65.2721V83.0001H442.953V48.0561H450.313L451.721 53.9441H452.169C452.852 52.7067 453.705 51.5974 454.729 50.6161C455.753 49.6347 456.905 48.8667 458.185 48.3121C459.465 47.7147 460.831 47.4161 462.281 47.4161Z" fill="url(#paint21_linear_112_4158)" fill-opacity="0.7"/>
<path d="M433.656 47.4161C434.296 47.4161 434.979 47.4587 435.704 47.5441C436.472 47.5867 437.07 47.6721 437.496 47.8001L436.536 56.8241C436.067 56.7387 435.512 56.6534 434.872 56.5681C434.232 56.4827 433.464 56.4401 432.568 56.4401C431.587 56.4401 430.584 56.5894 429.56 56.8881C428.579 57.1867 427.662 57.6774 426.808 58.3601C425.955 59.0427 425.272 59.9387 424.76 61.0481C424.248 62.1574 423.992 63.5654 423.992 65.2721V83.0001H414.328V48.0561H421.688L423.096 53.9441H423.544C424.227 52.7067 425.08 51.5974 426.104 50.6161C427.128 49.6347 428.28 48.8667 429.56 48.3121C430.84 47.7147 432.206 47.4161 433.656 47.4161Z" fill="url(#paint22_linear_112_4158)" fill-opacity="0.7"/>
<path d="M391.053 47.4161C394.295 47.4161 397.09 48.0347 399.437 49.2721C401.783 50.4667 403.575 52.2587 404.813 54.6481C406.093 56.9947 406.733 59.8747 406.733 63.2881V67.9601H384.269C384.354 70.6054 385.165 72.6961 386.701 74.2321C388.237 75.7254 390.434 76.4721 393.293 76.4721C395.469 76.4721 397.453 76.2587 399.245 75.8321C401.037 75.4054 402.871 74.7654 404.749 73.9121V81.1441C403.042 81.9974 401.229 82.6161 399.309 83.0001C397.431 83.4267 395.085 83.6401 392.269 83.6401C388.813 83.6401 385.741 83.0001 383.053 81.7201C380.407 80.4401 378.317 78.4774 376.781 75.8321C375.245 73.1441 374.477 69.7947 374.477 65.7841C374.477 61.6881 375.159 58.2961 376.525 55.6081C377.933 52.8774 379.874 50.8294 382.349 49.4641C384.866 48.0987 387.767 47.4161 391.053 47.4161ZM391.309 54.2641C389.389 54.2641 387.831 54.8827 386.637 56.1201C385.442 57.3147 384.738 59.1067 384.525 61.4961H397.709C397.709 60.0881 397.474 58.8507 397.005 57.7841C396.535 56.7174 395.81 55.8641 394.829 55.2241C393.89 54.5841 392.717 54.2641 391.309 54.2641Z" fill="url(#paint23_linear_112_4158)" fill-opacity="0.7"/>
<path d="M344.18 44.1521C344.18 46.0294 344.116 47.6934 343.988 49.1441C343.902 50.5521 343.817 51.6827 343.732 52.5361H344.244C345.012 51.2987 345.908 50.3174 346.932 49.5921C347.956 48.8667 349.086 48.3334 350.324 47.9921C351.604 47.6081 352.948 47.4161 354.356 47.4161C356.873 47.4161 359.07 47.8641 360.948 48.7601C362.825 49.6561 364.276 51.0427 365.3 52.9201C366.366 54.7547 366.9 57.1867 366.9 60.2161V83.0001H357.236V62.6481C357.236 60.1307 356.788 58.2534 355.892 57.0161C354.996 55.7361 353.588 55.0961 351.668 55.0961C349.79 55.0961 348.297 55.5441 347.188 56.4401C346.121 57.3361 345.353 58.6374 344.884 60.3441C344.414 62.0507 344.18 64.1414 344.18 66.6161V83.0001H334.516V34.3601H344.18V44.1521Z" fill="url(#paint24_linear_112_4158)" fill-opacity="0.7"/>
<path d="M310.534 72.6961C310.534 74.9147 310 76.8561 308.934 78.5201C307.91 80.1414 306.331 81.4001 304.198 82.2961C302.064 83.1921 299.355 83.6401 296.07 83.6401C293.595 83.6401 291.419 83.4694 289.542 83.1281C287.664 82.8294 285.851 82.3174 284.102 81.5921V73.5921C285.979 74.4881 288.006 75.1921 290.182 75.7041C292.358 76.2161 294.235 76.4721 295.814 76.4721C297.776 76.4721 299.184 76.1947 300.038 75.6401C300.934 75.0854 301.382 74.3387 301.382 73.4001C301.382 72.7601 301.147 72.1841 300.678 71.6721C300.251 71.1601 299.462 70.6267 298.31 70.0721C297.2 69.5174 295.6 68.8347 293.51 68.0241C291.419 67.1707 289.67 66.2961 288.262 65.4001C286.854 64.4614 285.787 63.3521 285.062 62.0721C284.379 60.7921 284.038 59.1921 284.038 57.2721C284.038 54.0721 285.296 51.6401 287.814 49.9761C290.374 48.2694 293.744 47.4161 297.926 47.4161C300.187 47.4161 302.278 47.6507 304.198 48.1201C306.16 48.5894 308.144 49.2507 310.15 50.1041L307.334 56.6961C305.712 55.9707 304.048 55.3734 302.342 54.9041C300.635 54.4347 299.12 54.2001 297.798 54.2001C296.347 54.2001 295.216 54.4347 294.406 54.9041C293.595 55.3307 293.19 55.9494 293.19 56.7601C293.19 57.3574 293.403 57.8907 293.83 58.3601C294.299 58.8294 295.088 59.3201 296.198 59.8321C297.35 60.3441 298.95 61.0054 300.998 61.8161C303.088 62.6267 304.838 63.5014 306.246 64.4401C307.696 65.3361 308.763 66.4454 309.446 67.7681C310.171 69.0481 310.534 70.6907 310.534 72.6961Z" fill="url(#paint25_linear_112_4158)" fill-opacity="0.7"/>
<path d="M263.069 47.4161C267.464 47.4161 270.813 48.4614 273.117 50.5521C275.421 52.6001 276.573 55.6507 276.573 59.7041V83.0001H269.853L267.997 78.2641H267.741C266.76 79.5014 265.736 80.5254 264.669 81.3361C263.645 82.1467 262.451 82.7227 261.085 83.0641C259.72 83.4481 258.056 83.6401 256.093 83.6401C254.045 83.6401 252.211 83.2561 250.589 82.4881C248.968 81.6774 247.688 80.4614 246.749 78.8401C245.811 77.2187 245.341 75.1707 245.341 72.6961C245.341 69.0267 246.664 66.2747 249.309 64.4401C251.955 62.6054 255.901 61.5814 261.149 61.3681L266.973 61.1761V60.0881C266.973 57.9974 266.504 56.5467 265.565 55.7361C264.627 54.8827 263.304 54.4561 261.597 54.4561C260.019 54.4561 258.397 54.7121 256.733 55.2241C255.069 55.7361 253.427 56.3547 251.805 57.0801L248.989 50.4881C250.824 49.5494 252.915 48.8027 255.261 48.2481C257.651 47.6934 260.253 47.4161 263.069 47.4161ZM263.325 67.0001C260.296 67.0854 258.184 67.5761 256.989 68.4721C255.795 69.3681 255.197 70.6267 255.197 72.2481C255.197 73.7414 255.603 74.8507 256.413 75.5761C257.267 76.2587 258.397 76.6001 259.805 76.6001C261.811 76.6001 263.496 76.0027 264.861 74.8081C266.269 73.6134 266.973 71.9067 266.973 69.6881V66.8081L263.325 67.0001ZM275.037 34.6161C274.397 35.2134 273.587 35.9601 272.605 36.8561C271.624 37.7094 270.557 38.6054 269.405 39.5441C268.253 40.4401 267.123 41.3147 266.013 42.1681C264.947 42.9787 264.008 43.6614 263.197 44.2161H256.797V43.3841C257.48 42.5734 258.269 41.6134 259.165 40.5041C260.104 39.3947 261.021 38.2641 261.917 37.1121C262.856 35.9601 263.624 34.9147 264.221 33.9761H275.037V34.6161Z" fill="url(#paint26_linear_112_4158)" fill-opacity="0.7"/>
<path d="M207.494 83.0001L196.486 47.1601H196.23C196.273 48.0134 196.337 49.2934 196.422 51.0001C196.508 52.7067 196.593 54.5414 196.678 56.5041C196.764 58.4241 196.806 60.1734 196.806 61.7521V83.0001H188.166V37.3041H201.35L212.166 72.2481H212.358L223.814 37.3041H236.998V83.0001H227.974V61.3681C227.974 59.9174 227.996 58.2534 228.038 56.3761C228.124 54.4987 228.188 52.7281 228.23 51.0641C228.316 49.3574 228.38 48.0774 228.422 47.2241H228.166L216.39 83.0001H207.494Z" fill="url(#paint27_linear_112_4158)" fill-opacity="0.7"/>
</g>
</g>
<path d="M82 72H1318V105C1318 111.627 1312.63 117 1306 117H94C87.3726 117 82 111.627 82 105V72Z" fill="url(#paint28_linear_112_4158)"/>
<path d="M1200.61 35.4161C1204.45 35.4161 1207.48 36.4187 1209.7 38.4241C1211.92 40.4294 1213.02 43.6934 1213.02 48.2161V71.0001H1203.42V50.6481C1203.42 48.1307 1202.96 46.2534 1202.02 45.0161C1201.12 43.7361 1199.71 43.0961 1197.79 43.0961C1194.89 43.0961 1192.91 44.0987 1191.84 46.1041C1190.82 48.0667 1190.3 50.9041 1190.3 54.6161V71.0001H1180.64V36.0561H1188.06L1189.41 40.7281H1189.79C1190.56 39.5761 1191.48 38.6161 1192.54 37.8481C1193.65 37.0374 1194.87 36.4401 1196.19 36.0561C1197.56 35.6294 1199.03 35.4161 1200.61 35.4161Z" fill="url(#paint29_linear_112_4158)"/>
<path d="M1172.9 53.4641C1172.9 56.3654 1172.49 58.9467 1171.68 61.2081C1170.91 63.4694 1169.78 65.3681 1168.29 66.9041C1166.84 68.4401 1165.07 69.6134 1162.98 70.4241C1160.89 71.2347 1158.52 71.6401 1155.87 71.6401C1153.4 71.6401 1151.14 71.2347 1149.09 70.4241C1147.04 69.6134 1145.27 68.4401 1143.78 66.9041C1142.28 65.3681 1141.11 63.4694 1140.26 61.2081C1139.4 58.9467 1138.98 56.3654 1138.98 53.4641C1138.98 49.5814 1139.66 46.2961 1141.02 43.6081C1142.39 40.9201 1144.35 38.8934 1146.91 37.5281C1149.47 36.1201 1152.52 35.4161 1156.06 35.4161C1159.35 35.4161 1162.25 36.1201 1164.77 37.5281C1167.29 38.8934 1169.27 40.9201 1170.72 43.6081C1172.17 46.2961 1172.9 49.5814 1172.9 53.4641ZM1148.83 53.4641C1148.83 55.7254 1149.07 57.6667 1149.54 59.2881C1150.05 60.9094 1150.82 62.1467 1151.84 63.0001C1152.91 63.8534 1154.29 64.2801 1156 64.2801C1157.66 64.2801 1159.01 63.8534 1160.03 63.0001C1161.1 62.1467 1161.87 60.9094 1162.34 59.2881C1162.81 57.6667 1163.04 55.7254 1163.04 53.4641C1163.04 51.1601 1162.78 49.2187 1162.27 47.6401C1161.8 46.0614 1161.06 44.8667 1160.03 44.0561C1159.01 43.2027 1157.64 42.7761 1155.94 42.7761C1153.46 42.7761 1151.65 43.6934 1150.5 45.5281C1149.39 47.3627 1148.83 50.0081 1148.83 53.4641ZM1169.06 22.6161C1168.42 23.2134 1167.61 23.9601 1166.62 24.8561C1165.64 25.7094 1164.58 26.6054 1163.42 27.5441C1162.27 28.4401 1161.14 29.3147 1160.03 30.1681C1158.97 30.9787 1158.03 31.6614 1157.22 32.2161H1150.82V31.3841C1151.5 30.5734 1152.29 29.6134 1153.18 28.5041C1154.12 27.3947 1155.04 26.2641 1155.94 25.1121C1156.88 23.9601 1157.64 22.9147 1158.24 21.9761H1169.06V22.6161Z" fill="url(#paint30_linear_112_4158)"/>
<path d="M1131.24 36.0561V71.0001H1121.58V36.0561H1131.24ZM1126.44 22.2961C1127.85 22.2961 1129.07 22.6374 1130.09 23.3201C1131.16 23.9601 1131.69 25.1974 1131.69 27.0321C1131.69 28.7814 1131.16 29.9974 1130.09 30.6801C1129.07 31.3627 1127.85 31.7041 1126.44 31.7041C1124.99 31.7041 1123.76 31.3627 1122.73 30.6801C1121.71 29.9974 1121.2 28.7814 1121.2 27.0321C1121.2 25.1974 1121.71 23.9601 1122.73 23.3201C1123.76 22.6374 1124.99 22.2961 1126.44 22.2961Z" fill="url(#paint31_linear_112_4158)"/>
<path d="M1103.75 71.6401C1100.38 71.6401 1097.41 71.0214 1094.85 69.7841C1092.33 68.5041 1090.37 66.5414 1088.96 63.8961C1087.56 61.2081 1086.85 57.8161 1086.85 53.7201C1086.85 49.4107 1087.62 45.9121 1089.16 43.2241C1090.69 40.5361 1092.78 38.5734 1095.43 37.3361C1098.07 36.0561 1101.08 35.4161 1104.45 35.4161C1106.5 35.4161 1108.42 35.6294 1110.21 36.0561C1112.05 36.4827 1113.67 37.0587 1115.08 37.7841L1112.2 45.0801C1110.92 44.5254 1109.61 44.0774 1108.29 43.7361C1107.01 43.3521 1105.73 43.1601 1104.45 43.1601C1102.79 43.1601 1101.38 43.5441 1100.23 44.3121C1099.08 45.0801 1098.2 46.2534 1097.6 47.8321C1097.01 49.3681 1096.71 51.3094 1096.71 53.6561C1096.71 55.9601 1097.01 57.8587 1097.6 59.3521C1098.2 60.8454 1099.08 61.9761 1100.23 62.7441C1101.38 63.4694 1102.75 63.8321 1104.32 63.8321C1106.16 63.8321 1107.89 63.5974 1109.51 63.1281C1111.13 62.6161 1112.67 61.9547 1114.12 61.1441V69.0161C1112.79 69.8267 1111.3 70.4667 1109.64 70.9361C1107.97 71.4054 1106.01 71.6401 1103.75 71.6401Z" fill="url(#paint32_linear_112_4158)"/>
<path d="M1070.75 71.6401C1067.38 71.6401 1064.41 71.0214 1061.85 69.7841C1059.33 68.5041 1057.37 66.5414 1055.96 63.8961C1054.56 61.2081 1053.85 57.8161 1053.85 53.7201C1053.85 49.4107 1054.62 45.9121 1056.16 43.2241C1057.69 40.5361 1059.78 38.5734 1062.43 37.3361C1065.07 36.0561 1068.08 35.4161 1071.45 35.4161C1073.5 35.4161 1075.42 35.6294 1077.21 36.0561C1079.05 36.4827 1080.67 37.0587 1082.08 37.7841L1079.2 45.0801C1077.92 44.5254 1076.61 44.0774 1075.29 43.7361C1074.01 43.3521 1072.73 43.1601 1071.45 43.1601C1069.79 43.1601 1068.38 43.5441 1067.23 44.3121C1066.08 45.0801 1065.2 46.2534 1064.6 47.8321C1064.01 49.3681 1063.71 51.3094 1063.71 53.6561C1063.71 55.9601 1064.01 57.8587 1064.6 59.3521C1065.2 60.8454 1066.08 61.9761 1067.23 62.7441C1068.38 63.4694 1069.75 63.8321 1071.32 63.8321C1073.16 63.8321 1074.89 63.5974 1076.51 63.1281C1078.13 62.6161 1079.67 61.9547 1081.12 61.1441V69.0161C1079.79 69.8267 1078.3 70.4667 1076.64 70.9361C1074.97 71.4054 1073.01 71.6401 1070.75 71.6401Z" fill="url(#paint33_linear_112_4158)"/>
<path d="M1046.08 36.0561V71.0001H1038.66L1037.44 66.5201H1036.87C1036.14 67.7147 1035.2 68.6961 1034.05 69.4641C1032.94 70.2321 1031.7 70.7867 1030.34 71.1281C1029.02 71.4694 1027.61 71.6401 1026.11 71.6401C1023.64 71.6401 1021.46 71.1921 1019.59 70.2961C1017.75 69.4001 1016.3 68.0134 1015.23 66.1361C1014.21 64.2587 1013.7 61.8267 1013.7 58.8401V36.0561H1023.43V56.4081C1023.43 58.8827 1023.85 60.7601 1024.71 62.0401C1025.6 63.2774 1027.01 63.8961 1028.93 63.8961C1030.89 63.8961 1032.41 63.4694 1033.47 62.6161C1034.58 61.7201 1035.35 60.4187 1035.78 58.7121C1036.21 57.0054 1036.42 54.9147 1036.42 52.4401V36.0561H1046.08Z" fill="url(#paint34_linear_112_4158)"/>
<path d="M984.909 71.6401C981.069 71.6401 977.912 70.1254 975.437 67.0961C973.005 64.0241 971.789 59.5227 971.789 53.5921C971.789 47.5761 973.027 43.0534 975.501 40.0241C977.976 36.9521 981.219 35.4161 985.229 35.4161C986.893 35.4161 988.323 35.6507 989.517 36.1201C990.755 36.5467 991.821 37.1441 992.717 37.9121C993.613 38.6801 994.381 39.5547 995.021 40.5361H995.341C995.213 39.7681 995.085 38.7014 994.957 37.3361C994.872 35.9281 994.829 34.6481 994.829 33.4961V22.3601H1004.56V71.0001H997.133L995.213 66.4561H994.829C994.232 67.4374 993.485 68.3121 992.589 69.0801C991.693 69.8481 990.605 70.4667 989.325 70.9361C988.088 71.4054 986.616 71.6401 984.909 71.6401ZM988.301 63.8961C990.947 63.8961 992.803 63.1494 993.869 61.6561C994.936 60.1201 995.469 57.7947 995.469 54.6801V53.6561C995.469 50.2854 994.957 47.7041 993.933 45.9121C992.909 44.1201 991.011 43.2241 988.237 43.2241C986.147 43.2241 984.504 44.1201 983.309 45.9121C982.157 47.7041 981.581 50.3067 981.581 53.7201C981.581 57.1334 982.157 59.6934 983.309 61.4001C984.504 63.0641 986.168 63.8961 988.301 63.8961Z" fill="url(#paint35_linear_112_4158)"/>
<path d="M950.757 35.4161C955.151 35.4161 958.501 36.4614 960.805 38.5521C963.109 40.6001 964.261 43.6507 964.261 47.7041V71.0001H957.541L955.685 66.2641H955.429C954.447 67.5014 953.423 68.5254 952.357 69.3361C951.333 70.1467 950.138 70.7227 948.773 71.0641C947.407 71.4481 945.743 71.6401 943.781 71.6401C941.733 71.6401 939.898 71.2561 938.277 70.4881C936.655 69.6774 935.375 68.4614 934.437 66.8401C933.498 65.2187 933.029 63.1707 933.029 60.6961C933.029 57.0267 934.351 54.2747 936.997 52.4401C939.642 50.6054 943.589 49.5814 948.837 49.3681L954.661 49.1761V48.0881C954.661 45.9974 954.191 44.5467 953.253 43.7361C952.314 42.8827 950.991 42.4561 949.285 42.4561C947.706 42.4561 946.085 42.7121 944.421 43.2241C942.757 43.7361 941.114 44.3547 939.493 45.0801L936.677 38.4881C938.511 37.5494 940.602 36.8027 942.949 36.2481C945.338 35.6934 947.941 35.4161 950.757 35.4161ZM951.013 55.0001C947.983 55.0854 945.871 55.5761 944.677 56.4721C943.482 57.3681 942.885 58.6267 942.885 60.2481C942.885 61.7414 943.29 62.8507 944.101 63.5761C944.954 64.2587 946.085 64.6001 947.493 64.6001C949.498 64.6001 951.183 64.0027 952.549 62.8081C953.957 61.6134 954.661 59.9067 954.661 57.6881V54.8081L951.013 55.0001Z" fill="url(#paint36_linear_112_4158)"/>
<path d="M927.094 35.4161C927.734 35.4161 928.416 35.4587 929.142 35.5441C929.91 35.5867 930.507 35.6721 930.934 35.8001L929.974 44.8241C929.504 44.7387 928.95 44.6534 928.31 44.5681C927.67 44.4827 926.902 44.4401 926.006 44.4401C925.024 44.4401 924.022 44.5894 922.998 44.8881C922.016 45.1867 921.099 45.6774 920.246 46.3601C919.392 47.0427 918.71 47.9387 918.198 49.0481C917.686 50.1574 917.43 51.5654 917.43 53.2721V71.0001H907.766V36.0561H915.126L916.534 41.9441H916.982C917.664 40.7067 918.518 39.5974 919.542 38.6161C920.566 37.6347 921.718 36.8667 922.998 36.3121C924.278 35.7147 925.643 35.4161 927.094 35.4161Z" fill="url(#paint37_linear_112_4158)"/>
<path d="M895.056 64.0241C896.122 64.0241 897.146 63.9174 898.128 63.7041C899.109 63.4907 900.09 63.2347 901.072 62.9361V70.0401C900.048 70.4667 898.768 70.8294 897.232 71.1281C895.738 71.4694 894.096 71.6401 892.304 71.6401C890.213 71.6401 888.336 71.2987 886.672 70.6161C885.05 69.9334 883.749 68.7601 882.768 67.0961C881.829 65.3894 881.36 63.0427 881.36 60.0561V43.2241H876.816V39.1921L882.064 35.9921L884.816 28.6321H890.896V36.0561H900.688V43.2241H890.896V60.0561C890.896 61.3787 891.28 62.3814 892.048 63.0641C892.816 63.7041 893.818 64.0241 895.056 64.0241Z" fill="url(#paint38_linear_112_4158)"/>
<path d="M840.115 35.4161C843.358 35.4161 846.153 36.0347 848.499 37.2721C850.846 38.4667 852.638 40.2587 853.875 42.6481C855.155 44.9947 855.795 47.8747 855.795 51.2881V55.9601H833.331C833.417 58.6054 834.227 60.6961 835.763 62.2321C837.299 63.7254 839.497 64.4721 842.355 64.4721C844.531 64.4721 846.515 64.2587 848.307 63.8321C850.099 63.4054 851.934 62.7654 853.811 61.9121V69.1441C852.105 69.9974 850.291 70.6161 848.371 71.0001C846.494 71.4267 844.147 71.6401 841.331 71.6401C837.875 71.6401 834.803 71.0001 832.115 69.7201C829.47 68.4401 827.379 66.4774 825.843 63.8321C824.307 61.1441 823.539 57.7947 823.539 53.7841C823.539 49.6881 824.222 46.2961 825.587 43.6081C826.995 40.8774 828.937 38.8294 831.411 37.4641C833.929 36.0987 836.83 35.4161 840.115 35.4161ZM840.371 42.2641C838.451 42.2641 836.894 42.8827 835.699 44.1201C834.505 45.3147 833.801 47.1067 833.587 49.4961H846.771C846.771 48.0881 846.537 46.8507 846.067 45.7841C845.598 44.7174 844.873 43.8641 843.891 43.2241C842.953 42.5841 841.779 42.2641 840.371 42.2641Z" fill="url(#paint39_linear_112_4158)"/>
<path d="M796.222 71.6401C792.382 71.6401 789.224 70.1254 786.75 67.0961C784.318 64.0241 783.102 59.5227 783.102 53.5921C783.102 47.5761 784.339 43.0534 786.814 40.0241C789.288 36.9521 792.531 35.4161 796.542 35.4161C798.206 35.4161 799.635 35.6507 800.83 36.1201C802.067 36.5467 803.134 37.1441 804.03 37.9121C804.926 38.6801 805.694 39.5547 806.334 40.5361H806.654C806.526 39.7681 806.398 38.7014 806.27 37.3361C806.184 35.9281 806.142 34.6481 806.142 33.4961V22.3601H815.87V71.0001H808.446L806.526 66.4561H806.142C805.544 67.4374 804.798 68.3121 803.902 69.0801C803.006 69.8481 801.918 70.4667 800.638 70.9361C799.4 71.4054 797.928 71.6401 796.222 71.6401ZM799.614 63.8961C802.259 63.8961 804.115 63.1494 805.182 61.6561C806.248 60.1201 806.782 57.7947 806.782 54.6801V53.6561C806.782 50.2854 806.27 47.7041 805.246 45.9121C804.222 44.1201 802.323 43.2241 799.55 43.2241C797.459 43.2241 795.816 44.1201 794.622 45.9121C793.47 47.7041 792.894 50.3067 792.894 53.7201C792.894 57.1334 793.47 59.6934 794.622 61.4001C795.816 63.0641 797.48 63.8961 799.614 63.8961Z" fill="url(#paint40_linear_112_4158)"/>
<path d="M760.784 60.6961C760.784 62.9147 760.25 64.8561 759.184 66.5201C758.16 68.1414 756.581 69.4001 754.448 70.2961C752.314 71.1921 749.605 71.6401 746.32 71.6401C743.845 71.6401 741.669 71.4694 739.792 71.1281C737.914 70.8294 736.101 70.3174 734.352 69.5921V61.5921C736.229 62.4881 738.256 63.1921 740.432 63.7041C742.608 64.2161 744.485 64.4721 746.064 64.4721C748.026 64.4721 749.434 64.1947 750.288 63.6401C751.184 63.0854 751.632 62.3387 751.632 61.4001C751.632 60.7601 751.397 60.1841 750.928 59.6721C750.501 59.1601 749.712 58.6267 748.56 58.0721C747.45 57.5174 745.85 56.8347 743.76 56.0241C741.669 55.1707 739.92 54.2961 738.512 53.4001C737.104 52.4614 736.037 51.3521 735.312 50.0721C734.629 48.7921 734.288 47.1921 734.288 45.2721C734.288 42.0721 735.546 39.6401 738.064 37.9761C740.624 36.2694 743.994 35.4161 748.176 35.4161C750.437 35.4161 752.528 35.6507 754.448 36.1201C756.41 36.5894 758.394 37.2507 760.4 38.1041L757.584 44.6961C755.962 43.9707 754.298 43.3734 752.592 42.9041C750.885 42.4347 749.37 42.2001 748.048 42.2001C746.597 42.2001 745.466 42.4347 744.656 42.9041C743.845 43.3307 743.44 43.9494 743.44 44.7601C743.44 45.3574 743.653 45.8907 744.08 46.3601C744.549 46.8294 745.338 47.3201 746.448 47.8321C747.6 48.3441 749.2 49.0054 751.248 49.8161C753.338 50.6267 755.088 51.5014 756.496 52.4401C757.946 53.3361 759.013 54.4454 759.696 55.7681C760.421 57.0481 760.784 58.6907 760.784 60.6961Z" fill="url(#paint41_linear_112_4158)"/>
<path d="M713.319 35.4161C717.714 35.4161 721.063 36.4614 723.367 38.5521C725.671 40.6001 726.823 43.6507 726.823 47.7041V71.0001H720.103L718.247 66.2641H717.991C717.01 67.5014 715.986 68.5254 714.919 69.3361C713.895 70.1467 712.701 70.7227 711.335 71.0641C709.97 71.4481 708.306 71.6401 706.343 71.6401C704.295 71.6401 702.461 71.2561 700.839 70.4881C699.218 69.6774 697.938 68.4614 696.999 66.8401C696.061 65.2187 695.591 63.1707 695.591 60.6961C695.591 57.0267 696.914 54.2747 699.559 52.4401C702.205 50.6054 706.151 49.5814 711.399 49.3681L717.223 49.1761V48.0881C717.223 45.9974 716.754 44.5467 715.815 43.7361C714.877 42.8827 713.554 42.4561 711.847 42.4561C710.269 42.4561 708.647 42.7121 706.983 43.2241C705.319 43.7361 703.677 44.3547 702.055 45.0801L699.239 38.4881C701.074 37.5494 703.165 36.8027 705.511 36.2481C707.901 35.6934 710.503 35.4161 713.319 35.4161ZM713.575 55.0001C710.546 55.0854 708.434 55.5761 707.239 56.4721C706.045 57.3681 705.447 58.6267 705.447 60.2481C705.447 61.7414 705.853 62.8507 706.663 63.5761C707.517 64.2587 708.647 64.6001 710.055 64.6001C712.061 64.6001 713.746 64.0027 715.111 62.8081C716.519 61.6134 717.223 59.9067 717.223 57.6881V54.8081L713.575 55.0001Z" fill="url(#paint42_linear_112_4158)"/>
<path d="M684.993 64.0241C686.06 64.0241 687.084 63.9174 688.065 63.7041C689.047 63.4907 690.028 63.2347 691.009 62.9361V70.0401C689.985 70.4667 688.705 70.8294 687.169 71.1281C685.676 71.4694 684.033 71.6401 682.241 71.6401C680.151 71.6401 678.273 71.2987 676.609 70.6161C674.988 69.9334 673.687 68.7601 672.705 67.0961C671.767 65.3894 671.297 63.0427 671.297 60.0561V43.2241H666.753V39.1921L672.001 35.9921L674.753 28.6321H680.833V36.0561H690.625V43.2241H680.833V60.0561C680.833 61.3787 681.217 62.3814 681.985 63.0641C682.753 63.7041 683.756 64.0241 684.993 64.0241Z" fill="url(#paint43_linear_112_4158)"/>
<path d="M648.296 35.4161C652.136 35.4161 655.166 36.4187 657.384 38.4241C659.603 40.4294 660.712 43.6934 660.712 48.2161V71.0001H651.112V50.6481C651.112 48.1307 650.643 46.2534 649.704 45.0161C648.808 43.7361 647.4 43.0961 645.48 43.0961C642.579 43.0961 640.595 44.0987 639.528 46.1041C638.504 48.0667 637.992 50.9041 637.992 54.6161V71.0001H628.328V36.0561H635.752L637.096 40.7281H637.48C638.248 39.5761 639.166 38.6161 640.232 37.8481C641.342 37.0374 642.558 36.4401 643.88 36.0561C645.246 35.6294 646.718 35.4161 648.296 35.4161Z" fill="url(#paint44_linear_112_4158)"/>
<path d="M605.053 35.4161C608.295 35.4161 611.09 36.0347 613.437 37.2721C615.783 38.4667 617.575 40.2587 618.813 42.6481C620.093 44.9947 620.733 47.8747 620.733 51.2881V55.9601H598.269C598.354 58.6054 599.165 60.6961 600.701 62.2321C602.237 63.7254 604.434 64.4721 607.293 64.4721C609.469 64.4721 611.453 64.2587 613.245 63.8321C615.037 63.4054 616.871 62.7654 618.749 61.9121V69.1441C617.042 69.9974 615.229 70.6161 613.309 71.0001C611.431 71.4267 609.085 71.6401 606.269 71.6401C602.813 71.6401 599.741 71.0001 597.053 69.7201C594.407 68.4401 592.317 66.4774 590.781 63.8321C589.245 61.1441 588.477 57.7947 588.477 53.7841C588.477 49.6881 589.159 46.2961 590.525 43.6081C591.933 40.8774 593.874 38.8294 596.349 37.4641C598.866 36.0987 601.767 35.4161 605.053 35.4161ZM605.309 42.2641C603.389 42.2641 601.831 42.8827 600.637 44.1201C599.442 45.3147 598.738 47.1067 598.525 49.4961H611.709C611.709 48.0881 611.474 46.8507 611.005 45.7841C610.535 44.7174 609.81 43.8641 608.829 43.2241C607.89 42.5841 606.717 42.2641 605.309 42.2641Z" fill="url(#paint45_linear_112_4158)"/>
<path d="M580.744 36.0561V71.0001H571.08V36.0561H580.744ZM575.944 22.2961C577.352 22.2961 578.568 22.6374 579.592 23.3201C580.658 23.9601 581.192 25.1974 581.192 27.0321C581.192 28.7814 580.658 29.9974 579.592 30.6801C578.568 31.3627 577.352 31.7041 575.944 31.7041C574.493 31.7041 573.256 31.3627 572.232 30.6801C571.208 29.9974 570.696 28.7814 570.696 27.0321C570.696 25.1974 571.208 23.9601 572.232 23.3201C573.256 22.6374 574.493 22.2961 575.944 22.2961Z" fill="url(#paint46_linear_112_4158)"/>
<path d="M549.665 35.4161C553.675 35.4161 556.705 36.4187 558.753 38.4241C560.801 40.4294 561.825 43.6934 561.825 48.2161V71.0001H552.225V50.6481C552.225 47.9601 551.777 46.0401 550.881 44.8881C549.985 43.6934 548.641 43.0961 546.849 43.0961C544.374 43.0961 542.625 44.0134 541.601 45.8481C540.577 47.6401 540.065 50.2001 540.065 53.5281V71.0001H530.401V50.6481C530.401 48.8987 530.209 47.4694 529.825 46.3601C529.441 45.2507 528.865 44.4401 528.097 43.9281C527.329 43.3734 526.347 43.0961 525.153 43.0961C523.403 43.0961 522.017 43.5441 520.993 44.4401C520.011 45.3361 519.307 46.6374 518.881 48.3441C518.497 50.0507 518.305 52.1414 518.305 54.6161V71.0001H508.641V36.0561H516.065L517.473 40.5361H517.793C518.475 39.4694 519.307 38.5521 520.289 37.7841C521.313 37.0161 522.486 36.4401 523.809 36.0561C525.131 35.6294 526.603 35.4161 528.225 35.4161C530.827 35.4161 532.982 35.8641 534.689 36.7601C536.438 37.6561 537.803 38.9574 538.785 40.6641H539.105C540.257 38.9147 541.75 37.6134 543.585 36.7601C545.419 35.8641 547.446 35.4161 549.665 35.4161Z" fill="url(#paint47_linear_112_4158)"/>
<path d="M485.944 35.4161C490.339 35.4161 493.688 36.4614 495.992 38.5521C498.296 40.6001 499.448 43.6507 499.448 47.7041V71.0001H492.728L490.872 66.2641H490.616C489.635 67.5014 488.611 68.5254 487.544 69.3361C486.52 70.1467 485.326 70.7227 483.96 71.0641C482.595 71.4481 480.931 71.6401 478.968 71.6401C476.92 71.6401 475.086 71.2561 473.464 70.4881C471.843 69.6774 470.563 68.4614 469.624 66.8401C468.686 65.2187 468.216 63.1707 468.216 60.6961C468.216 57.0267 469.539 54.2747 472.184 52.4401C474.83 50.6054 478.776 49.5814 484.024 49.3681L489.848 49.1761V48.0881C489.848 45.9974 489.379 44.5467 488.44 43.7361C487.502 42.8827 486.179 42.4561 484.472 42.4561C482.894 42.4561 481.272 42.7121 479.608 43.2241C477.944 43.7361 476.302 44.3547 474.68 45.0801L471.864 38.4881C473.699 37.5494 475.79 36.8027 478.136 36.2481C480.526 35.6934 483.128 35.4161 485.944 35.4161ZM486.2 55.0001C483.171 55.0854 481.059 55.5761 479.864 56.4721C478.67 57.3681 478.072 58.6267 478.072 60.2481C478.072 61.7414 478.478 62.8507 479.288 63.5761C480.142 64.2587 481.272 64.6001 482.68 64.6001C484.686 64.6001 486.371 64.0027 487.736 62.8081C489.144 61.6134 489.848 59.9067 489.848 57.6881V54.8081L486.2 55.0001Z" fill="url(#paint48_linear_112_4158)"/>
<path d="M462.281 35.4161C462.921 35.4161 463.604 35.4587 464.329 35.5441C465.097 35.5867 465.695 35.6721 466.121 35.8001L465.161 44.8241C464.692 44.7387 464.137 44.6534 463.497 44.5681C462.857 44.4827 462.089 44.4401 461.193 44.4401C460.212 44.4401 459.209 44.5894 458.185 44.8881C457.204 45.1867 456.287 45.6774 455.433 46.3601C454.58 47.0427 453.897 47.9387 453.385 49.0481C452.873 50.1574 452.617 51.5654 452.617 53.2721V71.0001H442.953V36.0561H450.313L451.721 41.9441H452.169C452.852 40.7067 453.705 39.5974 454.729 38.6161C455.753 37.6347 456.905 36.8667 458.185 36.3121C459.465 35.7147 460.831 35.4161 462.281 35.4161Z" fill="url(#paint49_linear_112_4158)"/>
<path d="M433.656 35.4161C434.296 35.4161 434.979 35.4587 435.704 35.5441C436.472 35.5867 437.07 35.6721 437.496 35.8001L436.536 44.8241C436.067 44.7387 435.512 44.6534 434.872 44.5681C434.232 44.4827 433.464 44.4401 432.568 44.4401C431.587 44.4401 430.584 44.5894 429.56 44.8881C428.579 45.1867 427.662 45.6774 426.808 46.3601C425.955 47.0427 425.272 47.9387 424.76 49.0481C424.248 50.1574 423.992 51.5654 423.992 53.2721V71.0001H414.328V36.0561H421.688L423.096 41.9441H423.544C424.227 40.7067 425.08 39.5974 426.104 38.6161C427.128 37.6347 428.28 36.8667 429.56 36.3121C430.84 35.7147 432.206 35.4161 433.656 35.4161Z" fill="url(#paint50_linear_112_4158)"/>
<path d="M391.053 35.4161C394.295 35.4161 397.09 36.0347 399.437 37.2721C401.783 38.4667 403.575 40.2587 404.813 42.6481C406.093 44.9947 406.733 47.8747 406.733 51.2881V55.9601H384.269C384.354 58.6054 385.165 60.6961 386.701 62.2321C388.237 63.7254 390.434 64.4721 393.293 64.4721C395.469 64.4721 397.453 64.2587 399.245 63.8321C401.037 63.4054 402.871 62.7654 404.749 61.9121V69.1441C403.042 69.9974 401.229 70.6161 399.309 71.0001C397.431 71.4267 395.085 71.6401 392.269 71.6401C388.813 71.6401 385.741 71.0001 383.053 69.7201C380.407 68.4401 378.317 66.4774 376.781 63.8321C375.245 61.1441 374.477 57.7947 374.477 53.7841C374.477 49.6881 375.159 46.2961 376.525 43.6081C377.933 40.8774 379.874 38.8294 382.349 37.4641C384.866 36.0987 387.767 35.4161 391.053 35.4161ZM391.309 42.2641C389.389 42.2641 387.831 42.8827 386.637 44.1201C385.442 45.3147 384.738 47.1067 384.525 49.4961H397.709C397.709 48.0881 397.474 46.8507 397.005 45.7841C396.535 44.7174 395.81 43.8641 394.829 43.2241C393.89 42.5841 392.717 42.2641 391.309 42.2641Z" fill="url(#paint51_linear_112_4158)"/>
<path d="M344.18 32.1521C344.18 34.0294 344.116 35.6934 343.988 37.1441C343.902 38.5521 343.817 39.6827 343.732 40.5361H344.244C345.012 39.2987 345.908 38.3174 346.932 37.5921C347.956 36.8667 349.086 36.3334 350.324 35.9921C351.604 35.6081 352.948 35.4161 354.356 35.4161C356.873 35.4161 359.07 35.8641 360.948 36.7601C362.825 37.6561 364.276 39.0427 365.3 40.9201C366.366 42.7547 366.9 45.1867 366.9 48.2161V71.0001H357.236V50.6481C357.236 48.1307 356.788 46.2534 355.892 45.0161C354.996 43.7361 353.588 43.0961 351.668 43.0961C349.79 43.0961 348.297 43.5441 347.188 44.4401C346.121 45.3361 345.353 46.6374 344.884 48.3441C344.414 50.0507 344.18 52.1414 344.18 54.6161V71.0001H334.516V22.3601H344.18V32.1521Z" fill="url(#paint52_linear_112_4158)"/>
<path d="M310.534 60.6961C310.534 62.9147 310 64.8561 308.934 66.5201C307.91 68.1414 306.331 69.4001 304.198 70.2961C302.064 71.1921 299.355 71.6401 296.07 71.6401C293.595 71.6401 291.419 71.4694 289.542 71.1281C287.664 70.8294 285.851 70.3174 284.102 69.5921V61.5921C285.979 62.4881 288.006 63.1921 290.182 63.7041C292.358 64.2161 294.235 64.4721 295.814 64.4721C297.776 64.4721 299.184 64.1947 300.038 63.6401C300.934 63.0854 301.382 62.3387 301.382 61.4001C301.382 60.7601 301.147 60.1841 300.678 59.6721C300.251 59.1601 299.462 58.6267 298.31 58.0721C297.2 57.5174 295.6 56.8347 293.51 56.0241C291.419 55.1707 289.67 54.2961 288.262 53.4001C286.854 52.4614 285.787 51.3521 285.062 50.0721C284.379 48.7921 284.038 47.1921 284.038 45.2721C284.038 42.0721 285.296 39.6401 287.814 37.9761C290.374 36.2694 293.744 35.4161 297.926 35.4161C300.187 35.4161 302.278 35.6507 304.198 36.1201C306.16 36.5894 308.144 37.2507 310.15 38.1041L307.334 44.6961C305.712 43.9707 304.048 43.3734 302.342 42.9041C300.635 42.4347 299.12 42.2001 297.798 42.2001C296.347 42.2001 295.216 42.4347 294.406 42.9041C293.595 43.3307 293.19 43.9494 293.19 44.7601C293.19 45.3574 293.403 45.8907 293.83 46.3601C294.299 46.8294 295.088 47.3201 296.198 47.8321C297.35 48.3441 298.95 49.0054 300.998 49.8161C303.088 50.6267 304.838 51.5014 306.246 52.4401C307.696 53.3361 308.763 54.4454 309.446 55.7681C310.171 57.0481 310.534 58.6907 310.534 60.6961Z" fill="url(#paint53_linear_112_4158)"/>
<path d="M263.069 35.4161C267.464 35.4161 270.813 36.4614 273.117 38.5521C275.421 40.6001 276.573 43.6507 276.573 47.7041V71.0001H269.853L267.997 66.2641H267.741C266.76 67.5014 265.736 68.5254 264.669 69.3361C263.645 70.1467 262.451 70.7227 261.085 71.0641C259.72 71.4481 258.056 71.6401 256.093 71.6401C254.045 71.6401 252.211 71.2561 250.589 70.4881C248.968 69.6774 247.688 68.4614 246.749 66.8401C245.811 65.2187 245.341 63.1707 245.341 60.6961C245.341 57.0267 246.664 54.2747 249.309 52.4401C251.955 50.6054 255.901 49.5814 261.149 49.3681L266.973 49.1761V48.0881C266.973 45.9974 266.504 44.5467 265.565 43.7361C264.627 42.8827 263.304 42.4561 261.597 42.4561C260.019 42.4561 258.397 42.7121 256.733 43.2241C255.069 43.7361 253.427 44.3547 251.805 45.0801L248.989 38.4881C250.824 37.5494 252.915 36.8027 255.261 36.2481C257.651 35.6934 260.253 35.4161 263.069 35.4161ZM263.325 55.0001C260.296 55.0854 258.184 55.5761 256.989 56.4721C255.795 57.3681 255.197 58.6267 255.197 60.2481C255.197 61.7414 255.603 62.8507 256.413 63.5761C257.267 64.2587 258.397 64.6001 259.805 64.6001C261.811 64.6001 263.496 64.0027 264.861 62.8081C266.269 61.6134 266.973 59.9067 266.973 57.6881V54.8081L263.325 55.0001ZM275.037 22.6161C274.397 23.2134 273.587 23.9601 272.605 24.8561C271.624 25.7094 270.557 26.6054 269.405 27.5441C268.253 28.4401 267.123 29.3147 266.013 30.1681C264.947 30.9787 264.008 31.6614 263.197 32.2161H256.797V31.3841C257.48 30.5734 258.269 29.6134 259.165 28.5041C260.104 27.3947 261.021 26.2641 261.917 25.1121C262.856 23.9601 263.624 22.9147 264.221 21.9761H275.037V22.6161Z" fill="url(#paint54_linear_112_4158)"/>
<path d="M207.494 71.0001L196.486 35.1601H196.23C196.273 36.0134 196.337 37.2934 196.422 39.0001C196.508 40.7067 196.593 42.5414 196.678 44.5041C196.764 46.4241 196.806 48.1734 196.806 49.7521V71.0001H188.166V25.3041H201.35L212.166 60.2481H212.358L223.814 25.3041H236.998V71.0001H227.974V49.3681C227.974 47.9174 227.996 46.2534 228.038 44.3761C228.124 42.4987 228.188 40.7281 228.23 39.0641C228.316 37.3574 228.38 36.0774 228.422 35.2241H228.166L216.39 71.0001H207.494Z" fill="url(#paint55_linear_112_4158)"/>
<defs>
<filter id="filter0_f_112_4158" x="168.166" y="13.9761" width="1064.86" height="89.6641" filterUnits="userSpaceOnUse" color-interpolation-filters="sRGB">
<feFlood flood-opacity="0" result="BackgroundImageFix"/>
<feBlend mode="normal" in="SourceGraphic" in2="BackgroundImageFix" result="shape"/>
<feGaussianBlur stdDeviation="10" result="effect1_foregroundBlur_112_4158"/>
</filter>
<linearGradient id="paint0_linear_112_4158" x1="82" y1="64.0036" x2="1318" y2="64.0019" gradientUnits="userSpaceOnUse">
<stop stop-color="white" stop-opacity="0.3"/>
<stop offset="0.495" stop-color="#CBB0F8"/>
<stop offset="1" stop-color="white" stop-opacity="0.3"/>
</linearGradient>
<linearGradient id="paint1_linear_112_4158" x1="1370.48" y1="49.4458" x2="-31415.8" y2="49.5924" gradientUnits="userSpaceOnUse">
<stop stop-color="#F4439F"/>
<stop offset="1" stop-color="#7C3AED"/>
</linearGradient>
<linearGradient id="paint2_linear_112_4158" x1="2575.77" y1="58.5001" x2="-28725.9" y2="58.6865" gradientUnits="userSpaceOnUse">
<stop stop-color="#F4439F"/>
<stop offset="1" stop-color="#7C3AED"/>
</linearGradient>
<linearGradient id="paint3_linear_112_4158" x1="9640.37" y1="58.6572" x2="-91517.2" y2="60.5669" gradientUnits="userSpaceOnUse">
<stop stop-color="#F4439F"/>
<stop offset="1" stop-color="#7C3AED"/>
</linearGradient>
<linearGradient id="paint4_linear_112_4158" x1="4950.37" y1="49.1725" x2="-32668.4" y2="49.3689" gradientUnits="userSpaceOnUse">
<stop stop-color="#F4439F"/>
<stop offset="1" stop-color="#7C3AED"/>
</linearGradient>
<linearGradient id="paint5_linear_112_4158" x1="6148.65" y1="49.1725" x2="-31470.2" y2="49.3689" gradientUnits="userSpaceOnUse">
<stop stop-color="#F4439F"/>
<stop offset="1" stop-color="#7C3AED"/>
</linearGradient>
<linearGradient id="paint6_linear_112_4158" x1="6653.69" y1="48.5526" x2="-26132.6" y2="48.6992" gradientUnits="userSpaceOnUse">
<stop stop-color="#F4439F"/>
<stop offset="1" stop-color="#7C3AED"/>
</linearGradient>
<linearGradient id="paint7_linear_112_4158" x1="7888.7" y1="58.3042" x2="-24513.4" y2="58.5024" gradientUnits="userSpaceOnUse">
<stop stop-color="#F4439F"/>
<stop offset="1" stop-color="#7C3AED"/>
</linearGradient>
<linearGradient id="paint8_linear_112_4158" x1="9539.32" y1="49.1725" x2="-24456.4" y2="49.3329" gradientUnits="userSpaceOnUse">
<stop stop-color="#F4439F"/>
<stop offset="1" stop-color="#7C3AED"/>
</linearGradient>
<linearGradient id="paint9_linear_112_4158" x1="13911.7" y1="49.4458" x2="-31916.7" y2="49.7322" gradientUnits="userSpaceOnUse">
<stop stop-color="#F4439F"/>
<stop offset="1" stop-color="#7C3AED"/>
</linearGradient>
<linearGradient id="paint10_linear_112_4158" x1="14603.8" y1="54.6094" x2="-29169" y2="54.9251" gradientUnits="userSpaceOnUse">
<stop stop-color="#F4439F"/>
<stop offset="1" stop-color="#7C3AED"/>
</linearGradient>
<linearGradient id="paint11_linear_112_4158" x1="12721.2" y1="49.1725" x2="-20195.2" y2="49.3229" gradientUnits="userSpaceOnUse">
<stop stop-color="#F4439F"/>
<stop offset="1" stop-color="#7C3AED"/>
</linearGradient>
<linearGradient id="paint12_linear_112_4158" x1="13790.1" y1="58.3042" x2="-18612" y2="58.5024" gradientUnits="userSpaceOnUse">
<stop stop-color="#F4439F"/>
<stop offset="1" stop-color="#7C3AED"/>
</linearGradient>
<linearGradient id="paint13_linear_112_4158" x1="18898" y1="49.1726" x2="-21174.2" y2="49.3955" gradientUnits="userSpaceOnUse">
<stop stop-color="#F4439F"/>
<stop offset="1" stop-color="#7C3AED"/>
</linearGradient>
<linearGradient id="paint14_linear_112_4158" x1="17330.7" y1="49.1726" x2="-16665" y2="49.333" gradientUnits="userSpaceOnUse">
<stop stop-color="#F4439F"/>
<stop offset="1" stop-color="#7C3AED"/>
</linearGradient>
<linearGradient id="paint15_linear_112_4158" x1="23479.3" y1="54.6094" x2="-20293.5" y2="54.9251" gradientUnits="userSpaceOnUse">
<stop stop-color="#F4439F"/>
<stop offset="1" stop-color="#7C3AED"/>
</linearGradient>
<linearGradient id="paint16_linear_112_4158" x1="18849.5" y1="49.4459" x2="-13936.8" y2="49.5925" gradientUnits="userSpaceOnUse">
<stop stop-color="#F4439F"/>
<stop offset="1" stop-color="#7C3AED"/>
</linearGradient>
<linearGradient id="paint17_linear_112_4158" x1="20189.8" y1="49.1726" x2="-12726.7" y2="49.323" gradientUnits="userSpaceOnUse">
<stop stop-color="#F4439F"/>
<stop offset="1" stop-color="#7C3AED"/>
</linearGradient>
<linearGradient id="paint18_linear_112_4158" x1="63392.7" y1="58.6572" x2="-37765.2" y2="60.567" gradientUnits="userSpaceOnUse">
<stop stop-color="#F4439F"/>
<stop offset="1" stop-color="#7C3AED"/>
</linearGradient>
<linearGradient id="paint19_linear_112_4158" x1="13857.6" y1="49.4459" x2="-6106.22" y2="49.5002" gradientUnits="userSpaceOnUse">
<stop stop-color="#F4439F"/>
<stop offset="1" stop-color="#7C3AED"/>
</linearGradient>
<linearGradient id="paint20_linear_112_4158" x1="24791.9" y1="49.1726" x2="-9203.84" y2="49.333" gradientUnits="userSpaceOnUse">
<stop stop-color="#F4439F"/>
<stop offset="1" stop-color="#7C3AED"/>
</linearGradient>
<linearGradient id="paint21_linear_112_4158" x1="34473.1" y1="49.4459" x2="-11355.3" y2="49.7323" gradientUnits="userSpaceOnUse">
<stop stop-color="#F4439F"/>
<stop offset="1" stop-color="#7C3AED"/>
</linearGradient>
<linearGradient id="paint22_linear_112_4158" x1="35739.3" y1="49.4459" x2="-10089.1" y2="49.7323" gradientUnits="userSpaceOnUse">
<stop stop-color="#F4439F"/>
<stop offset="1" stop-color="#7C3AED"/>
</linearGradient>
<linearGradient id="paint23_linear_112_4158" x1="26989.1" y1="49.1726" x2="-5927.33" y2="49.323" gradientUnits="userSpaceOnUse">
<stop stop-color="#F4439F"/>
<stop offset="1" stop-color="#7C3AED"/>
</linearGradient>
<linearGradient id="paint24_linear_112_4158" x1="28147.8" y1="58.6243" x2="-4638.51" y2="58.8246" gradientUnits="userSpaceOnUse">
<stop stop-color="#F4439F"/>
<stop offset="1" stop-color="#7C3AED"/>
</linearGradient>
<linearGradient id="paint25_linear_112_4158" x1="36313.6" y1="49.1726" x2="-3758.63" y2="49.3955" gradientUnits="userSpaceOnUse">
<stop stop-color="#F4439F"/>
<stop offset="1" stop-color="#7C3AED"/>
</linearGradient>
<linearGradient id="paint26_linear_112_4158" x1="32105.4" y1="58.5001" x2="-1890.34" y2="58.72" gradientUnits="userSpaceOnUse">
<stop stop-color="#F4439F"/>
<stop offset="1" stop-color="#7C3AED"/>
</linearGradient>
<linearGradient id="paint27_linear_112_4158" x1="1218" y1="58.5002" x2="182" y2="58.5004" gradientUnits="userSpaceOnUse">
<stop stop-color="#F4439F"/>
<stop offset="1" stop-color="#7C3AED"/>
</linearGradient>
<linearGradient id="paint28_linear_112_4158" x1="700" y1="72" x2="700" y2="117" gradientUnits="userSpaceOnUse">
<stop offset="0.0001" stop-color="white" stop-opacity="0.1"/>
<stop offset="1" stop-color="white" stop-opacity="0"/>
</linearGradient>
<linearGradient id="paint29_linear_112_4158" x1="1370.48" y1="-23.2664" x2="1277.7" y2="1765.68" gradientUnits="userSpaceOnUse">
<stop stop-color="#F4439F"/>
<stop offset="1" stop-color="#7C3AED"/>
</linearGradient>
<linearGradient id="paint30_linear_112_4158" x1="2575.77" y1="3.00007" x2="2525.83" y2="1286.28" gradientUnits="userSpaceOnUse">
<stop stop-color="#F4439F"/>
<stop offset="1" stop-color="#7C3AED"/>
</linearGradient>
<linearGradient id="paint31_linear_112_4158" x1="9640.37" y1="2.29973" x2="9624.27" y2="1312.66" gradientUnits="userSpaceOnUse">
<stop stop-color="#F4439F"/>
<stop offset="1" stop-color="#7C3AED"/>
</linearGradient>
<linearGradient id="paint32_linear_112_4158" x1="4950.37" y1="-22.4671" x2="4872.29" y2="1736.14" gradientUnits="userSpaceOnUse">
<stop stop-color="#F4439F"/>
<stop offset="1" stop-color="#7C3AED"/>
</linearGradient>
<linearGradient id="paint33_linear_112_4158" x1="6148.65" y1="-22.4671" x2="6070.57" y2="1736.14" gradientUnits="userSpaceOnUse">
<stop stop-color="#F4439F"/>
<stop offset="1" stop-color="#7C3AED"/>
</linearGradient>
<linearGradient id="paint34_linear_112_4158" x1="6653.7" y1="-24.1596" x2="6560.92" y2="1764.79" gradientUnits="userSpaceOnUse">
<stop stop-color="#F4439F"/>
<stop offset="1" stop-color="#7C3AED"/>
</linearGradient>
<linearGradient id="paint35_linear_112_4158" x1="7888.7" y1="2.46521" x2="7839.69" y2="1295.84" gradientUnits="userSpaceOnUse">
<stop stop-color="#F4439F"/>
<stop offset="1" stop-color="#7C3AED"/>
</linearGradient>
<linearGradient id="paint36_linear_112_4158" x1="9539.32" y1="-22.4671" x2="9452.95" y2="1735.36" gradientUnits="userSpaceOnUse">
<stop stop-color="#F4439F"/>
<stop offset="1" stop-color="#7C3AED"/>
</linearGradient>
<linearGradient id="paint37_linear_112_4158" x1="13911.7" y1="-23.2664" x2="13845.2" y2="1768.03" gradientUnits="userSpaceOnUse">
<stop stop-color="#F4439F"/>
<stop offset="1" stop-color="#7C3AED"/>
</linearGradient>
<linearGradient id="paint38_linear_112_4158" x1="14603.8" y1="-7.62279" x2="14556.1" y2="1474.97" gradientUnits="userSpaceOnUse">
<stop stop-color="#F4439F"/>
<stop offset="1" stop-color="#7C3AED"/>
</linearGradient>
<linearGradient id="paint39_linear_112_4158" x1="12721.2" y1="-22.4671" x2="12632.1" y2="1735.08" gradientUnits="userSpaceOnUse">
<stop stop-color="#F4439F"/>
<stop offset="1" stop-color="#7C3AED"/>
</linearGradient>
<linearGradient id="paint40_linear_112_4158" x1="13790.1" y1="2.4652" x2="13741.1" y2="1295.84" gradientUnits="userSpaceOnUse">
<stop stop-color="#F4439F"/>
<stop offset="1" stop-color="#7C3AED"/>
</linearGradient>
<linearGradient id="paint41_linear_112_4158" x1="18898" y1="-22.4671" x2="18824.7" y2="1736.55" gradientUnits="userSpaceOnUse">
<stop stop-color="#F4439F"/>
<stop offset="1" stop-color="#7C3AED"/>
</linearGradient>
<linearGradient id="paint42_linear_112_4158" x1="17330.7" y1="-22.4671" x2="17244.3" y2="1735.36" gradientUnits="userSpaceOnUse">
<stop stop-color="#F4439F"/>
<stop offset="1" stop-color="#7C3AED"/>
</linearGradient>
<linearGradient id="paint43_linear_112_4158" x1="23479.3" y1="-7.62278" x2="23431.6" y2="1474.97" gradientUnits="userSpaceOnUse">
<stop stop-color="#F4439F"/>
<stop offset="1" stop-color="#7C3AED"/>
</linearGradient>
<linearGradient id="paint44_linear_112_4158" x1="18849.5" y1="-23.2664" x2="18756.8" y2="1765.68" gradientUnits="userSpaceOnUse">
<stop stop-color="#F4439F"/>
<stop offset="1" stop-color="#7C3AED"/>
</linearGradient>
<linearGradient id="paint45_linear_112_4158" x1="20189.8" y1="-22.4671" x2="20100.6" y2="1735.08" gradientUnits="userSpaceOnUse">
<stop stop-color="#F4439F"/>
<stop offset="1" stop-color="#7C3AED"/>
</linearGradient>
<linearGradient id="paint46_linear_112_4158" x1="63392.7" y1="2.29972" x2="63376.6" y2="1312.66" gradientUnits="userSpaceOnUse">
<stop stop-color="#F4439F"/>
<stop offset="1" stop-color="#7C3AED"/>
</linearGradient>
<linearGradient id="paint47_linear_112_4158" x1="13857.6" y1="-23.2664" x2="13705.9" y2="1757.58" gradientUnits="userSpaceOnUse">
<stop stop-color="#F4439F"/>
<stop offset="1" stop-color="#7C3AED"/>
</linearGradient>
<linearGradient id="paint48_linear_112_4158" x1="24791.9" y1="-22.4671" x2="24705.5" y2="1735.36" gradientUnits="userSpaceOnUse">
<stop stop-color="#F4439F"/>
<stop offset="1" stop-color="#7C3AED"/>
</linearGradient>
<linearGradient id="paint49_linear_112_4158" x1="34473.1" y1="-23.2664" x2="34406.6" y2="1768.03" gradientUnits="userSpaceOnUse">
<stop stop-color="#F4439F"/>
<stop offset="1" stop-color="#7C3AED"/>
</linearGradient>
<linearGradient id="paint50_linear_112_4158" x1="35739.4" y1="-23.2664" x2="35672.9" y2="1768.03" gradientUnits="userSpaceOnUse">
<stop stop-color="#F4439F"/>
<stop offset="1" stop-color="#7C3AED"/>
</linearGradient>
<linearGradient id="paint51_linear_112_4158" x1="26989.1" y1="-22.4671" x2="26899.9" y2="1735.08" gradientUnits="userSpaceOnUse">
<stop stop-color="#F4439F"/>
<stop offset="1" stop-color="#7C3AED"/>
</linearGradient>
<linearGradient id="paint52_linear_112_4158" x1="28147.8" y1="2.2085" x2="28098.1" y2="1312.6" gradientUnits="userSpaceOnUse">
<stop stop-color="#F4439F"/>
<stop offset="1" stop-color="#7C3AED"/>
</linearGradient>
<linearGradient id="paint53_linear_112_4158" x1="36313.6" y1="-22.4671" x2="36240.3" y2="1736.55" gradientUnits="userSpaceOnUse">
<stop stop-color="#F4439F"/>
<stop offset="1" stop-color="#7C3AED"/>
</linearGradient>
<linearGradient id="paint54_linear_112_4158" x1="32105.4" y1="3.00009" x2="32059.4" y2="1286.57" gradientUnits="userSpaceOnUse">
<stop stop-color="#F4439F"/>
<stop offset="1" stop-color="#7C3AED"/>
</linearGradient>
<linearGradient id="paint55_linear_112_4158" x1="1218" y1="3.00017" x2="583.74" y2="542.354" gradientUnits="userSpaceOnUse">
<stop stop-color="#F4439F"/>
<stop offset="1" stop-color="#7C3AED"/>
</linearGradient>
</defs>
</svg>
