<svg width="1400" height="120" viewBox="0 0 1400 120" fill="none" xmlns="http://www.w3.org/2000/svg">
<path d="M209 56H1191V72H209V56Z" fill="url(#paint0_linear_112_3990)"/>
<mask id="mask0_112_3990" style="mask-type:alpha" maskUnits="userSpaceOnUse" x="209" y="72" width="982" height="45">
<path d="M209 72H1191V117H209V72Z" fill="#C4C4C4"/>
</mask>
<g mask="url(#mask0_112_3990)">
<g filter="url(#filter0_f_112_3990)">
<path d="M1088.19 72.6961C1088.19 74.9147 1087.66 76.8561 1086.59 78.5201C1085.57 80.1414 1083.99 81.4001 1081.85 82.2961C1079.72 83.1921 1077.01 83.6401 1073.73 83.6401C1071.25 83.6401 1069.08 83.4694 1067.2 83.1281C1065.32 82.8294 1063.51 82.3174 1061.76 81.5921V73.5921C1063.64 74.4881 1065.66 75.1921 1067.84 75.7041C1070.01 76.2161 1071.89 76.4721 1073.47 76.4721C1075.43 76.4721 1076.84 76.1947 1077.69 75.6401C1078.59 75.0854 1079.04 74.3387 1079.04 73.4001C1079.04 72.7601 1078.8 72.1841 1078.33 71.6721C1077.91 71.1601 1077.12 70.6267 1075.97 70.0721C1074.86 69.5174 1073.26 68.8347 1071.17 68.0241C1069.08 67.1707 1067.33 66.2961 1065.92 65.4001C1064.51 64.4614 1063.44 63.3521 1062.72 62.0721C1062.04 60.7921 1061.69 59.1921 1061.69 57.2721C1061.69 54.0721 1062.95 51.6401 1065.47 49.9761C1068.03 48.2694 1071.4 47.4161 1075.58 47.4161C1077.84 47.4161 1079.93 47.6507 1081.85 48.1201C1083.82 48.5894 1085.8 49.2507 1087.81 50.1041L1084.99 56.6961C1083.37 55.9707 1081.7 55.3734 1080 54.9041C1078.29 54.4347 1076.78 54.2001 1075.45 54.2001C1074 54.2001 1072.87 54.4347 1072.06 54.9041C1071.25 55.3307 1070.85 55.9494 1070.85 56.7601C1070.85 57.3574 1071.06 57.8907 1071.49 58.3601C1071.96 58.8294 1072.74 59.3201 1073.85 59.8321C1075.01 60.3441 1076.61 61.0054 1078.65 61.8161C1080.74 62.6267 1082.49 63.5014 1083.9 64.4401C1085.35 65.3361 1086.42 66.4454 1087.1 67.7681C1087.83 69.0481 1088.19 70.6907 1088.19 72.6961Z" fill="url(#paint1_linear_112_3990)" fill-opacity="0.7"/>
<path d="M1055.68 65.4641C1055.68 68.3654 1055.27 70.9467 1054.46 73.2081C1053.69 75.4694 1052.56 77.3681 1051.07 78.9041C1049.62 80.4401 1047.85 81.6134 1045.76 82.4241C1043.67 83.2347 1041.3 83.6401 1038.65 83.6401C1036.18 83.6401 1033.92 83.2347 1031.87 82.4241C1029.82 81.6134 1028.05 80.4401 1026.56 78.9041C1025.06 77.3681 1023.89 75.4694 1023.04 73.2081C1022.18 70.9467 1021.76 68.3654 1021.76 65.4641C1021.76 61.5814 1022.44 58.2961 1023.81 55.6081C1025.17 52.9201 1027.13 50.8934 1029.69 49.5281C1032.25 48.1201 1035.3 47.4161 1038.85 47.4161C1042.13 47.4161 1045.03 48.1201 1047.55 49.5281C1050.07 50.8934 1052.05 52.9201 1053.5 55.6081C1054.95 58.2961 1055.68 61.5814 1055.68 65.4641ZM1031.61 65.4641C1031.61 67.7254 1031.85 69.6667 1032.32 71.2881C1032.83 72.9094 1033.6 74.1467 1034.62 75.0001C1035.69 75.8534 1037.08 76.2801 1038.78 76.2801C1040.45 76.2801 1041.79 75.8534 1042.81 75.0001C1043.88 74.1467 1044.65 72.9094 1045.12 71.2881C1045.59 69.6667 1045.82 67.7254 1045.82 65.4641C1045.82 63.1601 1045.57 61.2187 1045.05 59.6401C1044.58 58.0614 1043.84 56.8667 1042.81 56.0561C1041.79 55.2027 1040.42 54.7761 1038.72 54.7761C1036.24 54.7761 1034.43 55.6934 1033.28 57.5281C1032.17 59.3627 1031.61 62.0081 1031.61 65.4641Z" fill="url(#paint2_linear_112_3990)" fill-opacity="0.7"/>
<path d="M1014.02 83.0001H1004.36V34.3601H1014.02V83.0001Z" fill="url(#paint3_linear_112_3990)" fill-opacity="0.7"/>
<path d="M994.927 48.0561V83.0001H987.503L986.287 78.5201H985.711C984.985 79.7147 984.047 80.6961 982.895 81.4641C981.785 82.2321 980.548 82.7867 979.183 83.1281C977.86 83.4694 976.452 83.6401 974.959 83.6401C972.484 83.6401 970.308 83.1921 968.431 82.2961C966.596 81.4001 965.145 80.0134 964.079 78.1361C963.055 76.2587 962.543 73.8267 962.543 70.8401V48.0561H972.271V68.4081C972.271 70.8827 972.697 72.7601 973.551 74.0401C974.447 75.2774 975.855 75.8961 977.775 75.8961C979.737 75.8961 981.252 75.4694 982.319 74.6161C983.428 73.7201 984.196 72.4187 984.623 70.7121C985.049 69.0054 985.263 66.9147 985.263 64.4401V48.0561H994.927Z" fill="url(#paint4_linear_112_3990)" fill-opacity="0.7"/>
<path d="M950.025 76.0241C951.091 76.0241 952.115 75.9174 953.097 75.7041C954.078 75.4907 955.059 75.2347 956.041 74.9361V82.0401C955.017 82.4667 953.737 82.8294 952.201 83.1281C950.707 83.4694 949.065 83.6401 947.273 83.6401C945.182 83.6401 943.305 83.2987 941.641 82.6161C940.019 81.9334 938.718 80.7601 937.737 79.0961C936.798 77.3894 936.329 75.0427 936.329 72.0561V55.2241H931.785V51.1921L937.033 47.9921L939.785 40.6321H945.865V48.0561H955.657V55.2241H945.865V72.0561C945.865 73.3787 946.249 74.3814 947.017 75.0641C947.785 75.7041 948.787 76.0241 950.025 76.0241Z" fill="url(#paint5_linear_112_3990)" fill-opacity="0.7"/>
<path d="M925.588 83.0001H915.924V48.0561H925.588V83.0001ZM933.844 34.6161C933.204 35.2134 932.393 35.9601 931.412 36.8561C930.43 37.7094 929.364 38.6054 928.212 39.5441C927.06 40.4401 925.929 41.3147 924.82 42.1681C923.753 42.9787 922.814 43.6614 922.004 44.2161H915.604V43.3841C916.286 42.5734 917.076 41.6134 917.972 40.5041C918.91 39.3947 919.828 38.2641 920.724 37.1121C921.662 35.9601 922.43 34.9147 923.028 33.9761H933.844V34.6161Z" fill="url(#paint6_linear_112_3990)" fill-opacity="0.7"/>
<path d="M903.15 76.0241C904.216 76.0241 905.24 75.9174 906.222 75.7041C907.203 75.4907 908.184 75.2347 909.166 74.9361V82.0401C908.142 82.4667 906.862 82.8294 905.326 83.1281C903.832 83.4694 902.19 83.6401 900.398 83.6401C898.307 83.6401 896.43 83.2987 894.766 82.6161C893.144 81.9334 891.843 80.7601 890.862 79.0961C889.923 77.3894 889.454 75.0427 889.454 72.0561V55.2241H884.91V51.1921L890.158 47.9921L892.91 40.6321H898.99V48.0561H908.782V55.2241H898.99V72.0561C898.99 73.3787 899.374 74.3814 900.142 75.0641C900.91 75.7041 901.912 76.0241 903.15 76.0241Z" fill="url(#paint7_linear_112_3990)" fill-opacity="0.7"/>
<path d="M857.336 45.6881C857.336 47.0107 857.293 48.2694 857.208 49.4641C857.165 50.6587 857.08 51.7041 856.952 52.6001H857.336C858.275 51.1494 859.533 49.9334 861.112 48.9521C862.691 47.9281 864.739 47.4161 867.256 47.4161C871.139 47.4161 874.296 48.9521 876.728 52.0241C879.16 55.0534 880.376 59.5334 880.376 65.4641C880.376 69.4321 879.821 72.7814 878.712 75.5121C877.603 78.2001 876.024 80.2267 873.976 81.5921C871.971 82.9574 869.645 83.6401 867 83.6401C864.44 83.6401 862.413 83.1921 860.92 82.2961C859.469 81.3574 858.275 80.3334 857.336 79.2241H856.696L855.096 83.0001H847.672V34.3601H857.336V45.6881ZM864.12 55.0961C862.499 55.0961 861.176 55.4374 860.152 56.1201C859.171 56.8027 858.445 57.8481 857.976 59.2561C857.549 60.6214 857.336 62.4134 857.336 64.6321V65.7841C857.336 69.0694 857.827 71.5654 858.808 73.2721C859.832 74.9787 861.645 75.8321 864.248 75.8321C866.339 75.8321 867.917 74.9361 868.984 73.1441C870.051 71.3521 870.584 68.7494 870.584 65.3361C870.584 61.9654 870.051 59.4267 868.984 57.7201C867.96 55.9707 866.339 55.0961 864.12 55.0961Z" fill="url(#paint8_linear_112_3990)" fill-opacity="0.7"/>
<path d="M838.239 48.0561V83.0001H830.815L829.599 78.5201H829.023C828.298 79.7147 827.359 80.6961 826.207 81.4641C825.098 82.2321 823.86 82.7867 822.495 83.1281C821.172 83.4694 819.764 83.6401 818.271 83.6401C815.796 83.6401 813.62 83.1921 811.743 82.2961C809.908 81.4001 808.458 80.0134 807.391 78.1361C806.367 76.2587 805.855 73.8267 805.855 70.8401V48.0561H815.583V68.4081C815.583 70.8827 816.01 72.7601 816.863 74.0401C817.759 75.2774 819.167 75.8961 821.087 75.8961C823.05 75.8961 824.564 75.4694 825.631 74.6161C826.74 73.7201 827.508 72.4187 827.935 70.7121C828.362 69.0054 828.575 66.9147 828.575 64.4401V48.0561H838.239Z" fill="url(#paint9_linear_112_3990)" fill-opacity="0.7"/>
<path d="M798.69 72.6961C798.69 74.9147 798.157 76.8561 797.09 78.5201C796.066 80.1414 794.487 81.4001 792.354 82.2961C790.221 83.1921 787.511 83.6401 784.226 83.6401C781.751 83.6401 779.575 83.4694 777.698 83.1281C775.821 82.8294 774.007 82.3174 772.258 81.5921V73.5921C774.135 74.4881 776.162 75.1921 778.338 75.7041C780.514 76.2161 782.391 76.4721 783.97 76.4721C785.933 76.4721 787.341 76.1947 788.194 75.6401C789.09 75.0854 789.538 74.3387 789.538 73.4001C789.538 72.7601 789.303 72.1841 788.834 71.6721C788.407 71.1601 787.618 70.6267 786.466 70.0721C785.357 69.5174 783.757 68.8347 781.666 68.0241C779.575 67.1707 777.826 66.2961 776.418 65.4001C775.01 64.4614 773.943 63.3521 773.218 62.0721C772.535 60.7921 772.194 59.1921 772.194 57.2721C772.194 54.0721 773.453 51.6401 775.97 49.9761C778.53 48.2694 781.901 47.4161 786.082 47.4161C788.343 47.4161 790.434 47.6507 792.354 48.1201C794.317 48.5894 796.301 49.2507 798.306 50.1041L795.49 56.6961C793.869 55.9707 792.205 55.3734 790.498 54.9041C788.791 54.4347 787.277 54.2001 785.954 54.2001C784.503 54.2001 783.373 54.4347 782.562 54.9041C781.751 55.3307 781.346 55.9494 781.346 56.7601C781.346 57.3574 781.559 57.8907 781.986 58.3601C782.455 58.8294 783.245 59.3201 784.354 59.8321C785.506 60.3441 787.106 61.0054 789.154 61.8161C791.245 62.6267 792.994 63.5014 794.402 64.4401C795.853 65.3361 796.919 66.4454 797.602 67.7681C798.327 69.0481 798.69 70.6907 798.69 72.6961Z" fill="url(#paint10_linear_112_3990)" fill-opacity="0.7"/>
<path d="M734.022 47.4161C737.264 47.4161 740.059 48.0347 742.406 49.2721C744.752 50.4667 746.544 52.2587 747.782 54.6481C749.062 56.9947 749.702 59.8747 749.702 63.2881V67.9601H727.238C727.323 70.6054 728.134 72.6961 729.67 74.2321C731.206 75.7254 733.403 76.4721 736.262 76.4721C738.438 76.4721 740.422 76.2587 742.214 75.8321C744.006 75.4054 745.84 74.7654 747.718 73.9121V81.1441C746.011 81.9974 744.198 82.6161 742.278 83.0001C740.4 83.4267 738.054 83.6401 735.238 83.6401C731.782 83.6401 728.71 83.0001 726.022 81.7201C723.376 80.4401 721.286 78.4774 719.75 75.8321C718.214 73.1441 717.446 69.7947 717.446 65.7841C717.446 61.6881 718.128 58.2961 719.494 55.6081C720.902 52.8774 722.843 50.8294 725.318 49.4641C727.835 48.0987 730.736 47.4161 734.022 47.4161ZM734.278 54.2641C732.358 54.2641 730.8 54.8827 729.606 56.1201C728.411 57.3147 727.707 59.1067 727.494 61.4961H740.678C740.678 60.0881 740.443 58.8507 739.974 57.7841C739.504 56.7174 738.779 55.8641 737.798 55.2241C736.859 54.5841 735.686 54.2641 734.278 54.2641Z" fill="url(#paint11_linear_112_3990)" fill-opacity="0.7"/>
<path d="M690.128 83.6401C686.288 83.6401 683.131 82.1254 680.656 79.0961C678.224 76.0241 677.008 71.5227 677.008 65.5921C677.008 59.5761 678.245 55.0534 680.72 52.0241C683.195 48.9521 686.437 47.4161 690.448 47.4161C692.112 47.4161 693.541 47.6507 694.736 48.1201C695.973 48.5467 697.04 49.1441 697.936 49.9121C698.832 50.6801 699.6 51.5547 700.24 52.5361H700.56C700.432 51.7681 700.304 50.7014 700.176 49.3361C700.091 47.9281 700.048 46.6481 700.048 45.4961V34.3601H709.776V83.0001H702.352L700.432 78.4561H700.048C699.451 79.4374 698.704 80.3121 697.808 81.0801C696.912 81.8481 695.824 82.4667 694.544 82.9361C693.307 83.4054 691.835 83.6401 690.128 83.6401ZM693.52 75.8961C696.165 75.8961 698.021 75.1494 699.088 73.6561C700.155 72.1201 700.688 69.7947 700.688 66.6801V65.6561C700.688 62.2854 700.176 59.7041 699.152 57.9121C698.128 56.1201 696.229 55.2241 693.456 55.2241C691.365 55.2241 689.723 56.1201 688.528 57.9121C687.376 59.7041 686.8 62.3067 686.8 65.7201C686.8 69.1334 687.376 71.6934 688.528 73.4001C689.723 75.0641 691.387 75.8961 693.52 75.8961Z" fill="url(#paint12_linear_112_3990)" fill-opacity="0.7"/>
<path d="M640.39 47.4161C644.23 47.4161 647.259 48.4187 649.478 50.4241C651.697 52.4294 652.806 55.6934 652.806 60.2161V83.0001H643.206V62.6481C643.206 60.1307 642.737 58.2534 641.798 57.0161C640.902 55.7361 639.494 55.0961 637.574 55.0961C634.673 55.0961 632.689 56.0987 631.622 58.1041C630.598 60.0667 630.086 62.9041 630.086 66.6161V83.0001H620.422V48.0561H627.846L629.19 52.7281H629.574C630.342 51.5761 631.259 50.6161 632.326 49.8481C633.435 49.0374 634.651 48.4401 635.974 48.0561C637.339 47.6294 638.811 47.4161 640.39 47.4161Z" fill="url(#paint13_linear_112_3990)" fill-opacity="0.7"/>
<path d="M612.678 65.4641C612.678 68.3654 612.273 70.9467 611.462 73.2081C610.694 75.4694 609.563 77.3681 608.07 78.9041C606.619 80.4401 604.849 81.6134 602.758 82.4241C600.667 83.2347 598.299 83.6401 595.654 83.6401C593.179 83.6401 590.918 83.2347 588.87 82.4241C586.822 81.6134 585.051 80.4401 583.558 78.9041C582.065 77.3681 580.891 75.4694 580.038 73.2081C579.185 70.9467 578.758 68.3654 578.758 65.4641C578.758 61.5814 579.441 58.2961 580.806 55.6081C582.171 52.9201 584.134 50.8934 586.694 49.5281C589.254 48.1201 592.305 47.4161 595.846 47.4161C599.131 47.4161 602.033 48.1201 604.55 49.5281C607.067 50.8934 609.051 52.9201 610.502 55.6081C611.953 58.2961 612.678 61.5814 612.678 65.4641ZM588.614 65.4641C588.614 67.7254 588.849 69.6667 589.318 71.2881C589.83 72.9094 590.598 74.1467 591.622 75.0001C592.689 75.8534 594.075 76.2801 595.782 76.2801C597.446 76.2801 598.79 75.8534 599.814 75.0001C600.881 74.1467 601.649 72.9094 602.118 71.2881C602.587 69.6667 602.822 67.7254 602.822 65.4641C602.822 63.1601 602.566 61.2187 602.054 59.6401C601.585 58.0614 600.838 56.8667 599.814 56.0561C598.79 55.2027 597.425 54.7761 595.718 54.7761C593.243 54.7761 591.43 55.6934 590.278 57.5281C589.169 59.3627 588.614 62.0081 588.614 65.4641ZM608.838 34.6161C608.198 35.2134 607.387 35.9601 606.406 36.8561C605.425 37.7094 604.358 38.6054 603.206 39.5441C602.054 40.4401 600.923 41.3147 599.814 42.1681C598.747 42.9787 597.809 43.6614 596.998 44.2161H590.598V43.3841C591.281 42.5734 592.07 41.6134 592.966 40.5041C593.905 39.3947 594.822 38.2641 595.718 37.1121C596.657 35.9601 597.425 34.9147 598.022 33.9761H608.838V34.6161Z" fill="url(#paint14_linear_112_3990)" fill-opacity="0.7"/>
<path d="M571.025 48.0561V83.0001H561.361V48.0561H571.025ZM566.225 34.2961C567.633 34.2961 568.849 34.6374 569.873 35.3201C570.94 35.9601 571.473 37.1974 571.473 39.0321C571.473 40.7814 570.94 41.9974 569.873 42.6801C568.849 43.3627 567.633 43.7041 566.225 43.7041C564.774 43.7041 563.537 43.3627 562.513 42.6801C561.489 41.9974 560.977 40.7814 560.977 39.0321C560.977 37.1974 561.489 35.9601 562.513 35.3201C563.537 34.6374 564.774 34.2961 566.225 34.2961Z" fill="url(#paint15_linear_112_3990)" fill-opacity="0.7"/>
<path d="M543.529 83.6401C540.158 83.6401 537.193 83.0214 534.633 81.7841C532.116 80.5041 530.153 78.5414 528.745 75.8961C527.337 73.2081 526.633 69.8161 526.633 65.7201C526.633 61.4107 527.401 57.9121 528.937 55.2241C530.473 52.5361 532.564 50.5734 535.209 49.3361C537.854 48.0561 540.862 47.4161 544.233 47.4161C546.281 47.4161 548.201 47.6294 549.993 48.0561C551.828 48.4827 553.449 49.0587 554.857 49.7841L551.977 57.0801C550.697 56.5254 549.396 56.0774 548.073 55.7361C546.793 55.3521 545.513 55.1601 544.233 55.1601C542.569 55.1601 541.161 55.5441 540.009 56.3121C538.857 57.0801 537.982 58.2534 537.385 59.8321C536.788 61.3681 536.489 63.3094 536.489 65.6561C536.489 67.9601 536.788 69.8587 537.385 71.3521C537.982 72.8454 538.857 73.9761 540.009 74.7441C541.161 75.4694 542.526 75.8321 544.105 75.8321C545.94 75.8321 547.668 75.5974 549.289 75.1281C550.91 74.6161 552.446 73.9547 553.897 73.1441V81.0161C552.574 81.8267 551.081 82.4667 549.417 82.9361C547.753 83.4054 545.79 83.6401 543.529 83.6401Z" fill="url(#paint16_linear_112_3990)" fill-opacity="0.7"/>
<path d="M510.529 83.6401C507.158 83.6401 504.193 83.0214 501.633 81.7841C499.116 80.5041 497.153 78.5414 495.745 75.8961C494.337 73.2081 493.633 69.8161 493.633 65.7201C493.633 61.4107 494.401 57.9121 495.937 55.2241C497.473 52.5361 499.564 50.5734 502.209 49.3361C504.854 48.0561 507.862 47.4161 511.233 47.4161C513.281 47.4161 515.201 47.6294 516.993 48.0561C518.828 48.4827 520.449 49.0587 521.857 49.7841L518.977 57.0801C517.697 56.5254 516.396 56.0774 515.073 55.7361C513.793 55.3521 512.513 55.1601 511.233 55.1601C509.569 55.1601 508.161 55.5441 507.009 56.3121C505.857 57.0801 504.982 58.2534 504.385 59.8321C503.788 61.3681 503.489 63.3094 503.489 65.6561C503.489 67.9601 503.788 69.8587 504.385 71.3521C504.982 72.8454 505.857 73.9761 507.009 74.7441C508.161 75.4694 509.526 75.8321 511.105 75.8321C512.94 75.8321 514.668 75.5974 516.289 75.1281C517.91 74.6161 519.446 73.9547 520.897 73.1441V81.0161C519.574 81.8267 518.081 82.4667 516.417 82.9361C514.753 83.4054 512.79 83.6401 510.529 83.6401Z" fill="url(#paint17_linear_112_3990)" fill-opacity="0.7"/>
<path d="M485.864 48.0561V83.0001H478.44L477.224 78.5201H476.648C475.923 79.7147 474.984 80.6961 473.832 81.4641C472.723 82.2321 471.485 82.7867 470.12 83.1281C468.797 83.4694 467.389 83.6401 465.896 83.6401C463.421 83.6401 461.245 83.1921 459.368 82.2961C457.533 81.4001 456.083 80.0134 455.016 78.1361C453.992 76.2587 453.48 73.8267 453.48 70.8401V48.0561H463.208V68.4081C463.208 70.8827 463.635 72.7601 464.488 74.0401C465.384 75.2774 466.792 75.8961 468.712 75.8961C470.675 75.8961 472.189 75.4694 473.256 74.6161C474.365 73.7201 475.133 72.4187 475.56 70.7121C475.987 69.0054 476.2 66.9147 476.2 64.4401V48.0561H485.864Z" fill="url(#paint18_linear_112_3990)" fill-opacity="0.7"/>
<path d="M424.691 83.6401C420.851 83.6401 417.693 82.1254 415.219 79.0961C412.787 76.0241 411.571 71.5227 411.571 65.5921C411.571 59.5761 412.808 55.0534 415.283 52.0241C417.757 48.9521 421 47.4161 425.011 47.4161C426.675 47.4161 428.104 47.6507 429.299 48.1201C430.536 48.5467 431.603 49.1441 432.499 49.9121C433.395 50.6801 434.163 51.5547 434.803 52.5361H435.123C434.995 51.7681 434.867 50.7014 434.739 49.3361C434.653 47.9281 434.611 46.6481 434.611 45.4961V34.3601H444.339V83.0001H436.915L434.995 78.4561H434.611C434.013 79.4374 433.267 80.3121 432.371 81.0801C431.475 81.8481 430.387 82.4667 429.107 82.9361C427.869 83.4054 426.397 83.6401 424.691 83.6401ZM428.083 75.8961C430.728 75.8961 432.584 75.1494 433.651 73.6561C434.717 72.1201 435.251 69.7947 435.251 66.6801V65.6561C435.251 62.2854 434.739 59.7041 433.715 57.9121C432.691 56.1201 430.792 55.2241 428.019 55.2241C425.928 55.2241 424.285 56.1201 423.091 57.9121C421.939 59.7041 421.363 62.3067 421.363 65.7201C421.363 69.1334 421.939 71.6934 423.091 73.4001C424.285 75.0641 425.949 75.8961 428.083 75.8961Z" fill="url(#paint19_linear_112_3990)" fill-opacity="0.7"/>
<path d="M390.538 47.4161C394.933 47.4161 398.282 48.4614 400.586 50.5521C402.89 52.6001 404.042 55.6507 404.042 59.7041V83.0001H397.322L395.466 78.2641H395.21C394.229 79.5014 393.205 80.5254 392.138 81.3361C391.114 82.1467 389.919 82.7227 388.554 83.0641C387.189 83.4481 385.525 83.6401 383.562 83.6401C381.514 83.6401 379.679 83.2561 378.058 82.4881C376.437 81.6774 375.157 80.4614 374.218 78.8401C373.279 77.2187 372.81 75.1707 372.81 72.6961C372.81 69.0267 374.133 66.2747 376.778 64.4401C379.423 62.6054 383.37 61.5814 388.618 61.3681L394.442 61.1761V60.0881C394.442 57.9974 393.973 56.5467 393.034 55.7361C392.095 54.8827 390.773 54.4561 389.066 54.4561C387.487 54.4561 385.866 54.7121 384.202 55.2241C382.538 55.7361 380.895 56.3547 379.274 57.0801L376.458 50.4881C378.293 49.5494 380.383 48.8027 382.73 48.2481C385.119 47.6934 387.722 47.4161 390.538 47.4161ZM390.794 67.0001C387.765 67.0854 385.653 67.5761 384.458 68.4721C383.263 69.3681 382.666 70.6267 382.666 72.2481C382.666 73.7414 383.071 74.8507 383.882 75.5761C384.735 76.2587 385.866 76.6001 387.274 76.6001C389.279 76.6001 390.965 76.0027 392.33 74.8081C393.738 73.6134 394.442 71.9067 394.442 69.6881V66.8081L390.794 67.0001Z" fill="url(#paint20_linear_112_3990)" fill-opacity="0.7"/>
<path d="M366.875 47.4161C367.515 47.4161 368.198 47.4587 368.923 47.5441C369.691 47.5867 370.288 47.6721 370.715 47.8001L369.755 56.8241C369.286 56.7387 368.731 56.6534 368.091 56.5681C367.451 56.4827 366.683 56.4401 365.787 56.4401C364.806 56.4401 363.803 56.5894 362.779 56.8881C361.798 57.1867 360.88 57.6774 360.027 58.3601C359.174 59.0427 358.491 59.9387 357.979 61.0481C357.467 62.1574 357.211 63.5654 357.211 65.2721V83.0001H347.547V48.0561H354.907L356.315 53.9441H356.763C357.446 52.7067 358.299 51.5974 359.323 50.6161C360.347 49.6347 361.499 48.8667 362.779 48.3121C364.059 47.7147 365.424 47.4161 366.875 47.4161Z" fill="url(#paint21_linear_112_3990)" fill-opacity="0.7"/>
<path d="M332.485 83.0001H322.693V45.4321H310.341V37.3041H344.837V45.4321H332.485V83.0001Z" fill="url(#paint22_linear_112_3990)" fill-opacity="0.7"/>
</g>
</g>
<path d="M209 72H1191V105C1191 111.627 1185.63 117 1179 117H221C214.373 117 209 111.627 209 105V72Z" fill="url(#paint23_linear_112_3990)"/>
<path d="M1088.19 60.6961C1088.19 62.9147 1087.66 64.8561 1086.59 66.5201C1085.57 68.1414 1083.99 69.4001 1081.85 70.2961C1079.72 71.1921 1077.01 71.6401 1073.73 71.6401C1071.25 71.6401 1069.08 71.4694 1067.2 71.1281C1065.32 70.8294 1063.51 70.3174 1061.76 69.5921V61.5921C1063.64 62.4881 1065.66 63.1921 1067.84 63.7041C1070.01 64.2161 1071.89 64.4721 1073.47 64.4721C1075.43 64.4721 1076.84 64.1947 1077.69 63.6401C1078.59 63.0854 1079.04 62.3387 1079.04 61.4001C1079.04 60.7601 1078.8 60.1841 1078.33 59.6721C1077.91 59.1601 1077.12 58.6267 1075.97 58.0721C1074.86 57.5174 1073.26 56.8347 1071.17 56.0241C1069.08 55.1707 1067.33 54.2961 1065.92 53.4001C1064.51 52.4614 1063.44 51.3521 1062.72 50.0721C1062.04 48.7921 1061.69 47.1921 1061.69 45.2721C1061.69 42.0721 1062.95 39.6401 1065.47 37.9761C1068.03 36.2694 1071.4 35.4161 1075.58 35.4161C1077.84 35.4161 1079.93 35.6507 1081.85 36.1201C1083.82 36.5894 1085.8 37.2507 1087.81 38.1041L1084.99 44.6961C1083.37 43.9707 1081.7 43.3734 1080 42.9041C1078.29 42.4347 1076.78 42.2001 1075.45 42.2001C1074 42.2001 1072.87 42.4347 1072.06 42.9041C1071.25 43.3307 1070.85 43.9494 1070.85 44.7601C1070.85 45.3574 1071.06 45.8907 1071.49 46.3601C1071.96 46.8294 1072.74 47.3201 1073.85 47.8321C1075.01 48.3441 1076.61 49.0054 1078.65 49.8161C1080.74 50.6267 1082.49 51.5014 1083.9 52.4401C1085.35 53.3361 1086.42 54.4454 1087.1 55.7681C1087.83 57.0481 1088.19 58.6907 1088.19 60.6961Z" fill="url(#paint24_linear_112_3990)"/>
<path d="M1055.68 53.4641C1055.68 56.3654 1055.27 58.9467 1054.46 61.2081C1053.69 63.4694 1052.56 65.3681 1051.07 66.9041C1049.62 68.4401 1047.85 69.6134 1045.76 70.4241C1043.67 71.2347 1041.3 71.6401 1038.65 71.6401C1036.18 71.6401 1033.92 71.2347 1031.87 70.4241C1029.82 69.6134 1028.05 68.4401 1026.56 66.9041C1025.06 65.3681 1023.89 63.4694 1023.04 61.2081C1022.18 58.9467 1021.76 56.3654 1021.76 53.4641C1021.76 49.5814 1022.44 46.2961 1023.81 43.6081C1025.17 40.9201 1027.13 38.8934 1029.69 37.5281C1032.25 36.1201 1035.3 35.4161 1038.85 35.4161C1042.13 35.4161 1045.03 36.1201 1047.55 37.5281C1050.07 38.8934 1052.05 40.9201 1053.5 43.6081C1054.95 46.2961 1055.68 49.5814 1055.68 53.4641ZM1031.61 53.4641C1031.61 55.7254 1031.85 57.6667 1032.32 59.2881C1032.83 60.9094 1033.6 62.1467 1034.62 63.0001C1035.69 63.8534 1037.08 64.2801 1038.78 64.2801C1040.45 64.2801 1041.79 63.8534 1042.81 63.0001C1043.88 62.1467 1044.65 60.9094 1045.12 59.2881C1045.59 57.6667 1045.82 55.7254 1045.82 53.4641C1045.82 51.1601 1045.57 49.2187 1045.05 47.6401C1044.58 46.0614 1043.84 44.8667 1042.81 44.0561C1041.79 43.2027 1040.42 42.7761 1038.72 42.7761C1036.24 42.7761 1034.43 43.6934 1033.28 45.5281C1032.17 47.3627 1031.61 50.0081 1031.61 53.4641Z" fill="url(#paint25_linear_112_3990)"/>
<path d="M1014.02 71.0001H1004.36V22.3601H1014.02V71.0001Z" fill="url(#paint26_linear_112_3990)"/>
<path d="M994.927 36.0561V71.0001H987.503L986.287 66.5201H985.711C984.985 67.7147 984.047 68.6961 982.895 69.4641C981.785 70.2321 980.548 70.7867 979.183 71.1281C977.86 71.4694 976.452 71.6401 974.959 71.6401C972.484 71.6401 970.308 71.1921 968.431 70.2961C966.596 69.4001 965.145 68.0134 964.079 66.1361C963.055 64.2587 962.543 61.8267 962.543 58.8401V36.0561H972.271V56.4081C972.271 58.8827 972.697 60.7601 973.551 62.0401C974.447 63.2774 975.855 63.8961 977.775 63.8961C979.737 63.8961 981.252 63.4694 982.319 62.6161C983.428 61.7201 984.196 60.4187 984.623 58.7121C985.049 57.0054 985.263 54.9147 985.263 52.4401V36.0561H994.927Z" fill="url(#paint27_linear_112_3990)"/>
<path d="M950.025 64.0241C951.091 64.0241 952.115 63.9174 953.097 63.7041C954.078 63.4907 955.059 63.2347 956.041 62.9361V70.0401C955.017 70.4667 953.737 70.8294 952.201 71.1281C950.707 71.4694 949.065 71.6401 947.273 71.6401C945.182 71.6401 943.305 71.2987 941.641 70.6161C940.019 69.9334 938.718 68.7601 937.737 67.0961C936.798 65.3894 936.329 63.0427 936.329 60.0561V43.2241H931.785V39.1921L937.033 35.9921L939.785 28.6321H945.865V36.0561H955.657V43.2241H945.865V60.0561C945.865 61.3787 946.249 62.3814 947.017 63.0641C947.785 63.7041 948.787 64.0241 950.025 64.0241Z" fill="url(#paint28_linear_112_3990)"/>
<path d="M925.588 71.0001H915.924V36.0561H925.588V71.0001ZM933.844 22.6161C933.204 23.2134 932.393 23.9601 931.412 24.8561C930.43 25.7094 929.364 26.6054 928.212 27.5441C927.06 28.4401 925.929 29.3147 924.82 30.1681C923.753 30.9787 922.814 31.6614 922.004 32.2161H915.604V31.3841C916.286 30.5734 917.076 29.6134 917.972 28.5041C918.91 27.3947 919.828 26.2641 920.724 25.1121C921.662 23.9601 922.43 22.9147 923.028 21.9761H933.844V22.6161Z" fill="url(#paint29_linear_112_3990)"/>
<path d="M903.15 64.0241C904.216 64.0241 905.24 63.9174 906.222 63.7041C907.203 63.4907 908.184 63.2347 909.166 62.9361V70.0401C908.142 70.4667 906.862 70.8294 905.326 71.1281C903.832 71.4694 902.19 71.6401 900.398 71.6401C898.307 71.6401 896.43 71.2987 894.766 70.6161C893.144 69.9334 891.843 68.7601 890.862 67.0961C889.923 65.3894 889.454 63.0427 889.454 60.0561V43.2241H884.91V39.1921L890.158 35.9921L892.91 28.6321H898.99V36.0561H908.782V43.2241H898.99V60.0561C898.99 61.3787 899.374 62.3814 900.142 63.0641C900.91 63.7041 901.912 64.0241 903.15 64.0241Z" fill="url(#paint30_linear_112_3990)"/>
<path d="M857.336 33.6881C857.336 35.0107 857.293 36.2694 857.208 37.4641C857.165 38.6587 857.08 39.7041 856.952 40.6001H857.336C858.275 39.1494 859.533 37.9334 861.112 36.9521C862.691 35.9281 864.739 35.4161 867.256 35.4161C871.139 35.4161 874.296 36.9521 876.728 40.0241C879.16 43.0534 880.376 47.5334 880.376 53.4641C880.376 57.4321 879.821 60.7814 878.712 63.5121C877.603 66.2001 876.024 68.2267 873.976 69.5921C871.971 70.9574 869.645 71.6401 867 71.6401C864.44 71.6401 862.413 71.1921 860.92 70.2961C859.469 69.3574 858.275 68.3334 857.336 67.2241H856.696L855.096 71.0001H847.672V22.3601H857.336V33.6881ZM864.12 43.0961C862.499 43.0961 861.176 43.4374 860.152 44.1201C859.171 44.8027 858.445 45.8481 857.976 47.2561C857.549 48.6214 857.336 50.4134 857.336 52.6321V53.7841C857.336 57.0694 857.827 59.5654 858.808 61.2721C859.832 62.9787 861.645 63.8321 864.248 63.8321C866.339 63.8321 867.917 62.9361 868.984 61.1441C870.051 59.3521 870.584 56.7494 870.584 53.3361C870.584 49.9654 870.051 47.4267 868.984 45.7201C867.96 43.9707 866.339 43.0961 864.12 43.0961Z" fill="url(#paint31_linear_112_3990)"/>
<path d="M838.239 36.0561V71.0001H830.815L829.599 66.5201H829.023C828.298 67.7147 827.359 68.6961 826.207 69.4641C825.098 70.2321 823.86 70.7867 822.495 71.1281C821.172 71.4694 819.764 71.6401 818.271 71.6401C815.796 71.6401 813.62 71.1921 811.743 70.2961C809.908 69.4001 808.458 68.0134 807.391 66.1361C806.367 64.2587 805.855 61.8267 805.855 58.8401V36.0561H815.583V56.4081C815.583 58.8827 816.01 60.7601 816.863 62.0401C817.759 63.2774 819.167 63.8961 821.087 63.8961C823.05 63.8961 824.564 63.4694 825.631 62.6161C826.74 61.7201 827.508 60.4187 827.935 58.7121C828.362 57.0054 828.575 54.9147 828.575 52.4401V36.0561H838.239Z" fill="url(#paint32_linear_112_3990)"/>
<path d="M798.69 60.6961C798.69 62.9147 798.157 64.8561 797.09 66.5201C796.066 68.1414 794.487 69.4001 792.354 70.2961C790.221 71.1921 787.511 71.6401 784.226 71.6401C781.751 71.6401 779.575 71.4694 777.698 71.1281C775.821 70.8294 774.007 70.3174 772.258 69.5921V61.5921C774.135 62.4881 776.162 63.1921 778.338 63.7041C780.514 64.2161 782.391 64.4721 783.97 64.4721C785.933 64.4721 787.341 64.1947 788.194 63.6401C789.09 63.0854 789.538 62.3387 789.538 61.4001C789.538 60.7601 789.303 60.1841 788.834 59.6721C788.407 59.1601 787.618 58.6267 786.466 58.0721C785.357 57.5174 783.757 56.8347 781.666 56.0241C779.575 55.1707 777.826 54.2961 776.418 53.4001C775.01 52.4614 773.943 51.3521 773.218 50.0721C772.535 48.7921 772.194 47.1921 772.194 45.2721C772.194 42.0721 773.453 39.6401 775.97 37.9761C778.53 36.2694 781.901 35.4161 786.082 35.4161C788.343 35.4161 790.434 35.6507 792.354 36.1201C794.317 36.5894 796.301 37.2507 798.306 38.1041L795.49 44.6961C793.869 43.9707 792.205 43.3734 790.498 42.9041C788.791 42.4347 787.277 42.2001 785.954 42.2001C784.503 42.2001 783.373 42.4347 782.562 42.9041C781.751 43.3307 781.346 43.9494 781.346 44.7601C781.346 45.3574 781.559 45.8907 781.986 46.3601C782.455 46.8294 783.245 47.3201 784.354 47.8321C785.506 48.3441 787.106 49.0054 789.154 49.8161C791.245 50.6267 792.994 51.5014 794.402 52.4401C795.853 53.3361 796.919 54.4454 797.602 55.7681C798.327 57.0481 798.69 58.6907 798.69 60.6961Z" fill="url(#paint33_linear_112_3990)"/>
<path d="M734.022 35.4161C737.264 35.4161 740.059 36.0347 742.406 37.2721C744.752 38.4667 746.544 40.2587 747.782 42.6481C749.062 44.9947 749.702 47.8747 749.702 51.2881V55.9601H727.238C727.323 58.6054 728.134 60.6961 729.67 62.2321C731.206 63.7254 733.403 64.4721 736.262 64.4721C738.438 64.4721 740.422 64.2587 742.214 63.8321C744.006 63.4054 745.84 62.7654 747.718 61.9121V69.1441C746.011 69.9974 744.198 70.6161 742.278 71.0001C740.4 71.4267 738.054 71.6401 735.238 71.6401C731.782 71.6401 728.71 71.0001 726.022 69.7201C723.376 68.4401 721.286 66.4774 719.75 63.8321C718.214 61.1441 717.446 57.7947 717.446 53.7841C717.446 49.6881 718.128 46.2961 719.494 43.6081C720.902 40.8774 722.843 38.8294 725.318 37.4641C727.835 36.0987 730.736 35.4161 734.022 35.4161ZM734.278 42.2641C732.358 42.2641 730.8 42.8827 729.606 44.1201C728.411 45.3147 727.707 47.1067 727.494 49.4961H740.678C740.678 48.0881 740.443 46.8507 739.974 45.7841C739.504 44.7174 738.779 43.8641 737.798 43.2241C736.859 42.5841 735.686 42.2641 734.278 42.2641Z" fill="url(#paint34_linear_112_3990)"/>
<path d="M690.128 71.6401C686.288 71.6401 683.131 70.1254 680.656 67.0961C678.224 64.0241 677.008 59.5227 677.008 53.5921C677.008 47.5761 678.245 43.0534 680.72 40.0241C683.195 36.9521 686.437 35.4161 690.448 35.4161C692.112 35.4161 693.541 35.6507 694.736 36.1201C695.973 36.5467 697.04 37.1441 697.936 37.9121C698.832 38.6801 699.6 39.5547 700.24 40.5361H700.56C700.432 39.7681 700.304 38.7014 700.176 37.3361C700.091 35.9281 700.048 34.6481 700.048 33.4961V22.3601H709.776V71.0001H702.352L700.432 66.4561H700.048C699.451 67.4374 698.704 68.3121 697.808 69.0801C696.912 69.8481 695.824 70.4667 694.544 70.9361C693.307 71.4054 691.835 71.6401 690.128 71.6401ZM693.52 63.8961C696.165 63.8961 698.021 63.1494 699.088 61.6561C700.155 60.1201 700.688 57.7947 700.688 54.6801V53.6561C700.688 50.2854 700.176 47.7041 699.152 45.9121C698.128 44.1201 696.229 43.2241 693.456 43.2241C691.365 43.2241 689.723 44.1201 688.528 45.9121C687.376 47.7041 686.8 50.3067 686.8 53.7201C686.8 57.1334 687.376 59.6934 688.528 61.4001C689.723 63.0641 691.387 63.8961 693.52 63.8961Z" fill="url(#paint35_linear_112_3990)"/>
<path d="M640.39 35.4161C644.23 35.4161 647.259 36.4187 649.478 38.4241C651.697 40.4294 652.806 43.6934 652.806 48.2161V71.0001H643.206V50.6481C643.206 48.1307 642.737 46.2534 641.798 45.0161C640.902 43.7361 639.494 43.0961 637.574 43.0961C634.673 43.0961 632.689 44.0987 631.622 46.1041C630.598 48.0667 630.086 50.9041 630.086 54.6161V71.0001H620.422V36.0561H627.846L629.19 40.7281H629.574C630.342 39.5761 631.259 38.6161 632.326 37.8481C633.435 37.0374 634.651 36.4401 635.974 36.0561C637.339 35.6294 638.811 35.4161 640.39 35.4161Z" fill="url(#paint36_linear_112_3990)"/>
<path d="M612.678 53.4641C612.678 56.3654 612.273 58.9467 611.462 61.2081C610.694 63.4694 609.563 65.3681 608.07 66.9041C606.619 68.4401 604.849 69.6134 602.758 70.4241C600.667 71.2347 598.299 71.6401 595.654 71.6401C593.179 71.6401 590.918 71.2347 588.87 70.4241C586.822 69.6134 585.051 68.4401 583.558 66.9041C582.065 65.3681 580.891 63.4694 580.038 61.2081C579.185 58.9467 578.758 56.3654 578.758 53.4641C578.758 49.5814 579.441 46.2961 580.806 43.6081C582.171 40.9201 584.134 38.8934 586.694 37.5281C589.254 36.1201 592.305 35.4161 595.846 35.4161C599.131 35.4161 602.033 36.1201 604.55 37.5281C607.067 38.8934 609.051 40.9201 610.502 43.6081C611.953 46.2961 612.678 49.5814 612.678 53.4641ZM588.614 53.4641C588.614 55.7254 588.849 57.6667 589.318 59.2881C589.83 60.9094 590.598 62.1467 591.622 63.0001C592.689 63.8534 594.075 64.2801 595.782 64.2801C597.446 64.2801 598.79 63.8534 599.814 63.0001C600.881 62.1467 601.649 60.9094 602.118 59.2881C602.587 57.6667 602.822 55.7254 602.822 53.4641C602.822 51.1601 602.566 49.2187 602.054 47.6401C601.585 46.0614 600.838 44.8667 599.814 44.0561C598.79 43.2027 597.425 42.7761 595.718 42.7761C593.243 42.7761 591.43 43.6934 590.278 45.5281C589.169 47.3627 588.614 50.0081 588.614 53.4641ZM608.838 22.6161C608.198 23.2134 607.387 23.9601 606.406 24.8561C605.425 25.7094 604.358 26.6054 603.206 27.5441C602.054 28.4401 600.923 29.3147 599.814 30.1681C598.747 30.9787 597.809 31.6614 596.998 32.2161H590.598V31.3841C591.281 30.5734 592.07 29.6134 592.966 28.5041C593.905 27.3947 594.822 26.2641 595.718 25.1121C596.657 23.9601 597.425 22.9147 598.022 21.9761H608.838V22.6161Z" fill="url(#paint37_linear_112_3990)"/>
<path d="M571.025 36.0561V71.0001H561.361V36.0561H571.025ZM566.225 22.2961C567.633 22.2961 568.849 22.6374 569.873 23.3201C570.94 23.9601 571.473 25.1974 571.473 27.0321C571.473 28.7814 570.94 29.9974 569.873 30.6801C568.849 31.3627 567.633 31.7041 566.225 31.7041C564.774 31.7041 563.537 31.3627 562.513 30.6801C561.489 29.9974 560.977 28.7814 560.977 27.0321C560.977 25.1974 561.489 23.9601 562.513 23.3201C563.537 22.6374 564.774 22.2961 566.225 22.2961Z" fill="url(#paint38_linear_112_3990)"/>
<path d="M543.529 71.6401C540.158 71.6401 537.193 71.0214 534.633 69.7841C532.116 68.5041 530.153 66.5414 528.745 63.8961C527.337 61.2081 526.633 57.8161 526.633 53.7201C526.633 49.4107 527.401 45.9121 528.937 43.2241C530.473 40.5361 532.564 38.5734 535.209 37.3361C537.854 36.0561 540.862 35.4161 544.233 35.4161C546.281 35.4161 548.201 35.6294 549.993 36.0561C551.828 36.4827 553.449 37.0587 554.857 37.7841L551.977 45.0801C550.697 44.5254 549.396 44.0774 548.073 43.7361C546.793 43.3521 545.513 43.1601 544.233 43.1601C542.569 43.1601 541.161 43.5441 540.009 44.3121C538.857 45.0801 537.982 46.2534 537.385 47.8321C536.788 49.3681 536.489 51.3094 536.489 53.6561C536.489 55.9601 536.788 57.8587 537.385 59.3521C537.982 60.8454 538.857 61.9761 540.009 62.7441C541.161 63.4694 542.526 63.8321 544.105 63.8321C545.94 63.8321 547.668 63.5974 549.289 63.1281C550.91 62.6161 552.446 61.9547 553.897 61.1441V69.0161C552.574 69.8267 551.081 70.4667 549.417 70.9361C547.753 71.4054 545.79 71.6401 543.529 71.6401Z" fill="url(#paint39_linear_112_3990)"/>
<path d="M510.529 71.6401C507.158 71.6401 504.193 71.0214 501.633 69.7841C499.116 68.5041 497.153 66.5414 495.745 63.8961C494.337 61.2081 493.633 57.8161 493.633 53.7201C493.633 49.4107 494.401 45.9121 495.937 43.2241C497.473 40.5361 499.564 38.5734 502.209 37.3361C504.854 36.0561 507.862 35.4161 511.233 35.4161C513.281 35.4161 515.201 35.6294 516.993 36.0561C518.828 36.4827 520.449 37.0587 521.857 37.7841L518.977 45.0801C517.697 44.5254 516.396 44.0774 515.073 43.7361C513.793 43.3521 512.513 43.1601 511.233 43.1601C509.569 43.1601 508.161 43.5441 507.009 44.3121C505.857 45.0801 504.982 46.2534 504.385 47.8321C503.788 49.3681 503.489 51.3094 503.489 53.6561C503.489 55.9601 503.788 57.8587 504.385 59.3521C504.982 60.8454 505.857 61.9761 507.009 62.7441C508.161 63.4694 509.526 63.8321 511.105 63.8321C512.94 63.8321 514.668 63.5974 516.289 63.1281C517.91 62.6161 519.446 61.9547 520.897 61.1441V69.0161C519.574 69.8267 518.081 70.4667 516.417 70.9361C514.753 71.4054 512.79 71.6401 510.529 71.6401Z" fill="url(#paint40_linear_112_3990)"/>
<path d="M485.864 36.0561V71.0001H478.44L477.224 66.5201H476.648C475.923 67.7147 474.984 68.6961 473.832 69.4641C472.723 70.2321 471.485 70.7867 470.12 71.1281C468.797 71.4694 467.389 71.6401 465.896 71.6401C463.421 71.6401 461.245 71.1921 459.368 70.2961C457.533 69.4001 456.083 68.0134 455.016 66.1361C453.992 64.2587 453.48 61.8267 453.48 58.8401V36.0561H463.208V56.4081C463.208 58.8827 463.635 60.7601 464.488 62.0401C465.384 63.2774 466.792 63.8961 468.712 63.8961C470.675 63.8961 472.189 63.4694 473.256 62.6161C474.365 61.7201 475.133 60.4187 475.56 58.7121C475.987 57.0054 476.2 54.9147 476.2 52.4401V36.0561H485.864Z" fill="url(#paint41_linear_112_3990)"/>
<path d="M424.691 71.6401C420.851 71.6401 417.693 70.1254 415.219 67.0961C412.787 64.0241 411.571 59.5227 411.571 53.5921C411.571 47.5761 412.808 43.0534 415.283 40.0241C417.757 36.9521 421 35.4161 425.011 35.4161C426.675 35.4161 428.104 35.6507 429.299 36.1201C430.536 36.5467 431.603 37.1441 432.499 37.9121C433.395 38.6801 434.163 39.5547 434.803 40.5361H435.123C434.995 39.7681 434.867 38.7014 434.739 37.3361C434.653 35.9281 434.611 34.6481 434.611 33.4961V22.3601H444.339V71.0001H436.915L434.995 66.4561H434.611C434.013 67.4374 433.267 68.3121 432.371 69.0801C431.475 69.8481 430.387 70.4667 429.107 70.9361C427.869 71.4054 426.397 71.6401 424.691 71.6401ZM428.083 63.8961C430.728 63.8961 432.584 63.1494 433.651 61.6561C434.717 60.1201 435.251 57.7947 435.251 54.6801V53.6561C435.251 50.2854 434.739 47.7041 433.715 45.9121C432.691 44.1201 430.792 43.2241 428.019 43.2241C425.928 43.2241 424.285 44.1201 423.091 45.9121C421.939 47.7041 421.363 50.3067 421.363 53.7201C421.363 57.1334 421.939 59.6934 423.091 61.4001C424.285 63.0641 425.949 63.8961 428.083 63.8961Z" fill="url(#paint42_linear_112_3990)"/>
<path d="M390.538 35.4161C394.933 35.4161 398.282 36.4614 400.586 38.5521C402.89 40.6001 404.042 43.6507 404.042 47.7041V71.0001H397.322L395.466 66.2641H395.21C394.229 67.5014 393.205 68.5254 392.138 69.3361C391.114 70.1467 389.919 70.7227 388.554 71.0641C387.189 71.4481 385.525 71.6401 383.562 71.6401C381.514 71.6401 379.679 71.2561 378.058 70.4881C376.437 69.6774 375.157 68.4614 374.218 66.8401C373.279 65.2187 372.81 63.1707 372.81 60.6961C372.81 57.0267 374.133 54.2747 376.778 52.4401C379.423 50.6054 383.37 49.5814 388.618 49.3681L394.442 49.1761V48.0881C394.442 45.9974 393.973 44.5467 393.034 43.7361C392.095 42.8827 390.773 42.4561 389.066 42.4561C387.487 42.4561 385.866 42.7121 384.202 43.2241C382.538 43.7361 380.895 44.3547 379.274 45.0801L376.458 38.4881C378.293 37.5494 380.383 36.8027 382.73 36.2481C385.119 35.6934 387.722 35.4161 390.538 35.4161ZM390.794 55.0001C387.765 55.0854 385.653 55.5761 384.458 56.4721C383.263 57.3681 382.666 58.6267 382.666 60.2481C382.666 61.7414 383.071 62.8507 383.882 63.5761C384.735 64.2587 385.866 64.6001 387.274 64.6001C389.279 64.6001 390.965 64.0027 392.33 62.8081C393.738 61.6134 394.442 59.9067 394.442 57.6881V54.8081L390.794 55.0001Z" fill="url(#paint43_linear_112_3990)"/>
<path d="M366.875 35.4161C367.515 35.4161 368.198 35.4587 368.923 35.5441C369.691 35.5867 370.288 35.6721 370.715 35.8001L369.755 44.8241C369.286 44.7387 368.731 44.6534 368.091 44.5681C367.451 44.4827 366.683 44.4401 365.787 44.4401C364.806 44.4401 363.803 44.5894 362.779 44.8881C361.798 45.1867 360.88 45.6774 360.027 46.3601C359.174 47.0427 358.491 47.9387 357.979 49.0481C357.467 50.1574 357.211 51.5654 357.211 53.2721V71.0001H347.547V36.0561H354.907L356.315 41.9441H356.763C357.446 40.7067 358.299 39.5974 359.323 38.6161C360.347 37.6347 361.499 36.8667 362.779 36.3121C364.059 35.7147 365.424 35.4161 366.875 35.4161Z" fill="url(#paint44_linear_112_3990)"/>
<path d="M332.485 71.0001H322.693V33.4321H310.341V25.3041H344.837V33.4321H332.485V71.0001Z" fill="url(#paint45_linear_112_3990)"/>
<defs>
<filter id="filter0_f_112_3990" x="290.341" y="13.9761" width="817.849" height="89.6641" filterUnits="userSpaceOnUse" color-interpolation-filters="sRGB">
<feFlood flood-opacity="0" result="BackgroundImageFix"/>
<feBlend mode="normal" in="SourceGraphic" in2="BackgroundImageFix" result="shape"/>
<feGaussianBlur stdDeviation="10" result="effect1_foregroundBlur_112_3990"/>
</filter>
<linearGradient id="paint0_linear_112_3990" x1="209" y1="64.0036" x2="1191" y2="64.0025" gradientUnits="userSpaceOnUse">
<stop stop-color="white" stop-opacity="0.3"/>
<stop offset="0.359008" stop-color="#CBB0F8"/>
<stop offset="0.788712" stop-color="#FCD9ED"/>
<stop offset="1" stop-color="white" stop-opacity="0.3"/>
</linearGradient>
<linearGradient id="paint1_linear_112_3990" x1="1170.68" y1="49.1725" x2="-21786.6" y2="49.2457" gradientUnits="userSpaceOnUse">
<stop stop-color="#F4439F"/>
<stop offset="1" stop-color="#7C3AED"/>
</linearGradient>
<linearGradient id="paint2_linear_112_3990" x1="1898.19" y1="49.1725" x2="-16034.5" y2="49.2171" gradientUnits="userSpaceOnUse">
<stop stop-color="#F4439F"/>
<stop offset="1" stop-color="#7C3AED"/>
</linearGradient>
<linearGradient id="paint3_linear_112_3990" x1="7283.98" y1="58.6243" x2="-55658.7" y2="59.3627" gradientUnits="userSpaceOnUse">
<stop stop-color="#F4439F"/>
<stop offset="1" stop-color="#7C3AED"/>
</linearGradient>
<linearGradient id="paint4_linear_112_3990" x1="3395.83" y1="48.5526" x2="-15387.4" y2="48.6007" gradientUnits="userSpaceOnUse">
<stop stop-color="#F4439F"/>
<stop offset="1" stop-color="#7C3AED"/>
</linearGradient>
<linearGradient id="paint5_linear_112_3990" x1="5416.11" y1="54.6094" x2="-19661.3" y2="54.713" gradientUnits="userSpaceOnUse">
<stop stop-color="#F4439F"/>
<stop offset="1" stop-color="#7C3AED"/>
</linearGradient>
<linearGradient id="paint6_linear_112_3990" x1="7790.17" y1="58.8202" x2="-25558.4" y2="59.0292" gradientUnits="userSpaceOnUse">
<stop stop-color="#F4439F"/>
<stop offset="1" stop-color="#7C3AED"/>
</linearGradient>
<linearGradient id="paint7_linear_112_3990" x1="6919.3" y1="54.6094" x2="-18158.1" y2="54.713" gradientUnits="userSpaceOnUse">
<stop stop-color="#F4439F"/>
<stop offset="1" stop-color="#7C3AED"/>
</linearGradient>
<linearGradient id="paint8_linear_112_3990" x1="6097.78" y1="58.3042" x2="-12501.7" y2="58.3695" gradientUnits="userSpaceOnUse">
<stop stop-color="#F4439F"/>
<stop offset="1" stop-color="#7C3AED"/>
</linearGradient>
<linearGradient id="paint9_linear_112_3990" x1="7159.39" y1="48.5526" x2="-11623.9" y2="48.6007" gradientUnits="userSpaceOnUse">
<stop stop-color="#F4439F"/>
<stop offset="1" stop-color="#7C3AED"/>
</linearGradient>
<linearGradient id="paint10_linear_112_3990" x1="9669.6" y1="49.1725" x2="-13287.7" y2="49.2457" gradientUnits="userSpaceOnUse">
<stop stop-color="#F4439F"/>
<stop offset="1" stop-color="#7C3AED"/>
</linearGradient>
<linearGradient id="paint11_linear_112_3990" x1="9318.55" y1="49.1726" x2="-9539.26" y2="49.2219" gradientUnits="userSpaceOnUse">
<stop stop-color="#F4439F"/>
<stop offset="1" stop-color="#7C3AED"/>
</linearGradient>
<linearGradient id="paint12_linear_112_3990" x1="10137.7" y1="58.3042" x2="-8425.46" y2="58.3692" gradientUnits="userSpaceOnUse">
<stop stop-color="#F4439F"/>
<stop offset="1" stop-color="#7C3AED"/>
</linearGradient>
<linearGradient id="paint13_linear_112_3990" x1="11613.4" y1="49.4459" x2="-7169.87" y2="49.494" gradientUnits="userSpaceOnUse">
<stop stop-color="#F4439F"/>
<stop offset="1" stop-color="#7C3AED"/>
</linearGradient>
<linearGradient id="paint14_linear_112_3990" x1="12057" y1="58.5001" x2="-5875.71" y2="58.5613" gradientUnits="userSpaceOnUse">
<stop stop-color="#F4439F"/>
<stop offset="1" stop-color="#7C3AED"/>
</linearGradient>
<linearGradient id="paint15_linear_112_3990" x1="39589.9" y1="58.6572" x2="-18363.5" y2="59.284" gradientUnits="userSpaceOnUse">
<stop stop-color="#F4439F"/>
<stop offset="1" stop-color="#7C3AED"/>
</linearGradient>
<linearGradient id="paint16_linear_112_3990" x1="15864.2" y1="49.1726" x2="-5687.59" y2="49.237" gradientUnits="userSpaceOnUse">
<stop stop-color="#F4439F"/>
<stop offset="1" stop-color="#7C3AED"/>
</linearGradient>
<linearGradient id="paint17_linear_112_3990" x1="16773.7" y1="49.1726" x2="-4778.12" y2="49.237" gradientUnits="userSpaceOnUse">
<stop stop-color="#F4439F"/>
<stop offset="1" stop-color="#7C3AED"/>
</linearGradient>
<linearGradient id="paint18_linear_112_3990" x1="15623.3" y1="48.5526" x2="-3160" y2="48.6007" gradientUnits="userSpaceOnUse">
<stop stop-color="#F4439F"/>
<stop offset="1" stop-color="#7C3AED"/>
</linearGradient>
<linearGradient id="paint19_linear_112_3990" x1="16438.7" y1="58.3042" x2="-2124.48" y2="58.3692" gradientUnits="userSpaceOnUse">
<stop stop-color="#F4439F"/>
<stop offset="1" stop-color="#7C3AED"/>
</linearGradient>
<linearGradient id="paint20_linear_112_3990" x1="18197.2" y1="49.1726" x2="-1278.88" y2="49.2252" gradientUnits="userSpaceOnUse">
<stop stop-color="#F4439F"/>
<stop offset="1" stop-color="#7C3AED"/>
</linearGradient>
<linearGradient id="paint21_linear_112_3990" x1="25271.2" y1="49.4459" x2="-983.846" y2="49.5399" gradientUnits="userSpaceOnUse">
<stop stop-color="#F4439F"/>
<stop offset="1" stop-color="#7C3AED"/>
</linearGradient>
<linearGradient id="paint22_linear_112_3990" x1="1091" y1="58.5002" x2="309" y2="58.5003" gradientUnits="userSpaceOnUse">
<stop stop-color="#F4439F"/>
<stop offset="1" stop-color="#7C3AED"/>
</linearGradient>
<linearGradient id="paint23_linear_112_3990" x1="700" y1="72" x2="700" y2="117" gradientUnits="userSpaceOnUse">
<stop offset="0.0001" stop-color="white" stop-opacity="0.1"/>
<stop offset="1" stop-color="white" stop-opacity="0"/>
</linearGradient>
<linearGradient id="paint24_linear_112_3990" x1="1170.68" y1="-22.4671" x2="1043.16" y2="1730.32" gradientUnits="userSpaceOnUse">
<stop stop-color="#F4439F"/>
<stop offset="1" stop-color="#7C3AED"/>
</linearGradient>
<linearGradient id="paint25_linear_112_3990" x1="1898.19" y1="-22.4671" x2="1735.48" y2="1724.45" gradientUnits="userSpaceOnUse">
<stop stop-color="#F4439F"/>
<stop offset="1" stop-color="#7C3AED"/>
</linearGradient>
<linearGradient id="paint26_linear_112_3990" x1="7283.98" y1="2.2085" x2="7258.05" y2="1313.97" gradientUnits="userSpaceOnUse">
<stop stop-color="#F4439F"/>
<stop offset="1" stop-color="#7C3AED"/>
</linearGradient>
<linearGradient id="paint27_linear_112_3990" x1="3395.83" y1="-24.1597" x2="3234.77" y2="1755.02" gradientUnits="userSpaceOnUse">
<stop stop-color="#F4439F"/>
<stop offset="1" stop-color="#7C3AED"/>
</linearGradient>
<linearGradient id="paint28_linear_112_3990" x1="5416.11" y1="-7.62278" x2="5333.11" y2="1471.84" gradientUnits="userSpaceOnUse">
<stop stop-color="#F4439F"/>
<stop offset="1" stop-color="#7C3AED"/>
</linearGradient>
<linearGradient id="paint29_linear_112_3990" x1="7790.17" y1="2.75234" x2="7742.05" y2="1302.97" gradientUnits="userSpaceOnUse">
<stop stop-color="#F4439F"/>
<stop offset="1" stop-color="#7C3AED"/>
</linearGradient>
<linearGradient id="paint30_linear_112_3990" x1="6919.31" y1="-7.62279" x2="6836.31" y2="1471.84" gradientUnits="userSpaceOnUse">
<stop stop-color="#F4439F"/>
<stop offset="1" stop-color="#7C3AED"/>
</linearGradient>
<linearGradient id="paint31_linear_112_3990" x1="6097.79" y1="2.46524" x2="6012.66" y2="1292.08" gradientUnits="userSpaceOnUse">
<stop stop-color="#F4439F"/>
<stop offset="1" stop-color="#7C3AED"/>
</linearGradient>
<linearGradient id="paint32_linear_112_3990" x1="7159.39" y1="-24.1597" x2="6998.33" y2="1755.02" gradientUnits="userSpaceOnUse">
<stop stop-color="#F4439F"/>
<stop offset="1" stop-color="#7C3AED"/>
</linearGradient>
<linearGradient id="paint33_linear_112_3990" x1="9669.6" y1="-22.4671" x2="9542.07" y2="1730.32" gradientUnits="userSpaceOnUse">
<stop stop-color="#F4439F"/>
<stop offset="1" stop-color="#7C3AED"/>
</linearGradient>
<linearGradient id="paint34_linear_112_3990" x1="9318.55" y1="-22.4671" x2="9163.69" y2="1725.89" gradientUnits="userSpaceOnUse">
<stop stop-color="#F4439F"/>
<stop offset="1" stop-color="#7C3AED"/>
</linearGradient>
<linearGradient id="paint35_linear_112_3990" x1="10137.7" y1="2.46522" x2="10052.4" y2="1292.06" gradientUnits="userSpaceOnUse">
<stop stop-color="#F4439F"/>
<stop offset="1" stop-color="#7C3AED"/>
</linearGradient>
<linearGradient id="paint36_linear_112_3990" x1="11613.4" y1="-23.2664" x2="11452.4" y2="1755.91" gradientUnits="userSpaceOnUse">
<stop stop-color="#F4439F"/>
<stop offset="1" stop-color="#7C3AED"/>
</linearGradient>
<linearGradient id="paint37_linear_112_3990" x1="12057" y1="3.00009" x2="11970.1" y2="1282.32" gradientUnits="userSpaceOnUse">
<stop stop-color="#F4439F"/>
<stop offset="1" stop-color="#7C3AED"/>
</linearGradient>
<linearGradient id="paint38_linear_112_3990" x1="39589.9" y1="2.29972" x2="39561.8" y2="1312.25" gradientUnits="userSpaceOnUse">
<stop stop-color="#F4439F"/>
<stop offset="1" stop-color="#7C3AED"/>
</linearGradient>
<linearGradient id="paint39_linear_112_3990" x1="15864.2" y1="-22.467" x2="15728.5" y2="1729.08" gradientUnits="userSpaceOnUse">
<stop stop-color="#F4439F"/>
<stop offset="1" stop-color="#7C3AED"/>
</linearGradient>
<linearGradient id="paint40_linear_112_3990" x1="16773.7" y1="-22.467" x2="16637.9" y2="1729.08" gradientUnits="userSpaceOnUse">
<stop stop-color="#F4439F"/>
<stop offset="1" stop-color="#7C3AED"/>
</linearGradient>
<linearGradient id="paint41_linear_112_3990" x1="15623.3" y1="-24.1596" x2="15462.2" y2="1755.02" gradientUnits="userSpaceOnUse">
<stop stop-color="#F4439F"/>
<stop offset="1" stop-color="#7C3AED"/>
</linearGradient>
<linearGradient id="paint42_linear_112_3990" x1="16438.7" y1="2.46524" x2="16353.4" y2="1292.06" gradientUnits="userSpaceOnUse">
<stop stop-color="#F4439F"/>
<stop offset="1" stop-color="#7C3AED"/>
</linearGradient>
<linearGradient id="paint43_linear_112_3990" x1="18197.2" y1="-22.467" x2="18047.2" y2="1726.74" gradientUnits="userSpaceOnUse">
<stop stop-color="#F4439F"/>
<stop offset="1" stop-color="#7C3AED"/>
</linearGradient>
<linearGradient id="paint44_linear_112_3990" x1="25271.2" y1="-23.2664" x2="25155.6" y2="1763" gradientUnits="userSpaceOnUse">
<stop stop-color="#F4439F"/>
<stop offset="1" stop-color="#7C3AED"/>
</linearGradient>
<linearGradient id="paint45_linear_112_3990" x1="1091" y1="3.0002" x2="506.757" y2="378.014" gradientUnits="userSpaceOnUse">
<stop stop-color="#F4439F"/>
<stop offset="1" stop-color="#7C3AED"/>
</linearGradient>
</defs>
</svg>
