<svg width="1400" height="120" viewBox="0 0 1400 120" fill="none" xmlns="http://www.w3.org/2000/svg">
<path d="M269 56H1131V72H269V56Z" fill="url(#paint0_linear_112_4046)"/>
<mask id="mask0_112_4046" style="mask-type:alpha" maskUnits="userSpaceOnUse" x="269" y="72" width="862" height="45">
<path d="M269 72H1131V117H269V72Z" fill="#C4C4C4"/>
</mask>
<g mask="url(#mask0_112_4046)">
<g filter="url(#filter0_f_112_4046)">
<path d="M1027.63 72.6961C1027.63 74.9147 1027.09 76.8561 1026.03 78.5201C1025 80.1414 1023.42 81.4001 1021.29 82.2961C1019.16 83.1921 1016.45 83.6401 1013.16 83.6401C1010.69 83.6401 1008.51 83.4694 1006.63 83.1281C1004.76 82.8294 1002.94 82.3174 1001.19 81.5921V73.5921C1003.07 74.4881 1005.1 75.1921 1007.27 75.7041C1009.45 76.2161 1011.33 76.4721 1012.91 76.4721C1014.87 76.4721 1016.28 76.1947 1017.13 75.6401C1018.03 75.0854 1018.47 74.3387 1018.47 73.4001C1018.47 72.7601 1018.24 72.1841 1017.77 71.6721C1017.34 71.1601 1016.55 70.6267 1015.4 70.0721C1014.29 69.5174 1012.69 68.8347 1010.6 68.0241C1008.51 67.1707 1006.76 66.2961 1005.35 65.4001C1003.95 64.4614 1002.88 63.3521 1002.15 62.0721C1001.47 60.7921 1001.13 59.1921 1001.13 57.2721C1001.13 54.0721 1002.39 51.6401 1004.91 49.9761C1007.47 48.2694 1010.84 47.4161 1015.02 47.4161C1017.28 47.4161 1019.37 47.6507 1021.29 48.1201C1023.25 48.5894 1025.24 49.2507 1027.24 50.1041L1024.43 56.6961C1022.8 55.9707 1021.14 55.3734 1019.43 54.9041C1017.73 54.4347 1016.21 54.2001 1014.89 54.2001C1013.44 54.2001 1012.31 54.4347 1011.5 54.9041C1010.69 55.3307 1010.28 55.9494 1010.28 56.7601C1010.28 57.3574 1010.49 57.8907 1010.92 58.3601C1011.39 58.8294 1012.18 59.3201 1013.29 59.8321C1014.44 60.3441 1016.04 61.0054 1018.09 61.8161C1020.18 62.6267 1021.93 63.5014 1023.34 64.4401C1024.79 65.3361 1025.85 66.4454 1026.54 67.7681C1027.26 69.0481 1027.63 70.6907 1027.63 72.6961Z" fill="url(#paint1_linear_112_4046)" fill-opacity="0.7"/>
<path d="M995.113 65.4641C995.113 68.3654 994.708 70.9467 993.897 73.2081C993.129 75.4694 991.999 77.3681 990.505 78.9041C989.055 80.4401 987.284 81.6134 985.193 82.4241C983.103 83.2347 980.735 83.6401 978.089 83.6401C975.615 83.6401 973.353 83.2347 971.305 82.4241C969.257 81.6134 967.487 80.4401 965.993 78.9041C964.5 77.3681 963.327 75.4694 962.473 73.2081C961.62 70.9467 961.193 68.3654 961.193 65.4641C961.193 61.5814 961.876 58.2961 963.241 55.6081C964.607 52.9201 966.569 50.8934 969.129 49.5281C971.689 48.1201 974.74 47.4161 978.281 47.4161C981.567 47.4161 984.468 48.1201 986.985 49.5281C989.503 50.8934 991.487 52.9201 992.937 55.6081C994.388 58.2961 995.113 61.5814 995.113 65.4641ZM971.049 65.4641C971.049 67.7254 971.284 69.6667 971.753 71.2881C972.265 72.9094 973.033 74.1467 974.057 75.0001C975.124 75.8534 976.511 76.2801 978.217 76.2801C979.881 76.2801 981.225 75.8534 982.249 75.0001C983.316 74.1467 984.084 72.9094 984.553 71.2881C985.023 69.6667 985.257 67.7254 985.257 65.4641C985.257 63.1601 985.001 61.2187 984.489 59.6401C984.02 58.0614 983.273 56.8667 982.249 56.0561C981.225 55.2027 979.86 54.7761 978.153 54.7761C975.679 54.7761 973.865 55.6934 972.713 57.5281C971.604 59.3627 971.049 62.0081 971.049 65.4641Z" fill="url(#paint2_linear_112_4046)" fill-opacity="0.7"/>
<path d="M950.147 76.0241C951.214 76.0241 952.238 75.9174 953.219 75.7041C954.201 75.4907 955.182 75.2347 956.163 74.9361V82.0401C955.139 82.4667 953.859 82.8294 952.323 83.1281C950.83 83.4694 949.187 83.6401 947.395 83.6401C945.305 83.6401 943.427 83.2987 941.763 82.6161C940.142 81.9334 938.841 80.7601 937.859 79.0961C936.921 77.3894 936.451 75.0427 936.451 72.0561V55.2241H931.907V51.1921L937.155 47.9921L939.907 40.6321H945.987V48.0561H955.779V55.2241H945.987V72.0561C945.987 73.3787 946.371 74.3814 947.139 75.0641C947.907 75.7041 948.91 76.0241 950.147 76.0241Z" fill="url(#paint3_linear_112_4046)" fill-opacity="0.7"/>
<path d="M905.595 65.1441L894.331 48.0561H905.147L911.931 59.1921L918.779 48.0561H929.595L918.203 65.1441L930.107 83.0001H919.291L911.931 71.0321L904.571 83.0001H893.755L905.595 65.1441Z" fill="url(#paint4_linear_112_4046)" fill-opacity="0.7"/>
<path d="M876.082 47.4161C879.325 47.4161 882.119 48.0347 884.466 49.2721C886.813 50.4667 888.605 52.2587 889.842 54.6481C891.122 56.9947 891.762 59.8747 891.762 63.2881V67.9601H869.298C869.383 70.6054 870.194 72.6961 871.73 74.2321C873.266 75.7254 875.463 76.4721 878.322 76.4721C880.498 76.4721 882.482 76.2587 884.274 75.8321C886.066 75.4054 887.901 74.7654 889.778 73.9121V81.1441C888.071 81.9974 886.258 82.6161 884.338 83.0001C882.461 83.4267 880.114 83.6401 877.298 83.6401C873.842 83.6401 870.77 83.0001 868.082 81.7201C865.437 80.4401 863.346 78.4774 861.81 75.8321C860.274 73.1441 859.506 69.7947 859.506 65.7841C859.506 61.6881 860.189 58.2961 861.554 55.6081C862.962 52.8774 864.903 50.8294 867.378 49.4641C869.895 48.0987 872.797 47.4161 876.082 47.4161ZM876.338 54.2641C874.418 54.2641 872.861 54.8827 871.666 56.1201C870.471 57.3147 869.767 59.1067 869.554 61.4961H882.738C882.738 60.0881 882.503 58.8507 882.034 57.7841C881.565 56.7174 880.839 55.8641 879.858 55.2241C878.919 54.5841 877.746 54.2641 876.338 54.2641Z" fill="url(#paint5_linear_112_4046)" fill-opacity="0.7"/>
<path d="M848.46 76.0241C849.527 76.0241 850.551 75.9174 851.532 75.7041C852.513 75.4907 853.495 75.2347 854.476 74.9361V82.0401C853.452 82.4667 852.172 82.8294 850.636 83.1281C849.143 83.4694 847.5 83.6401 845.708 83.6401C843.617 83.6401 841.74 83.2987 840.076 82.6161C838.455 81.9334 837.153 80.7601 836.172 79.0961C835.233 77.3894 834.764 75.0427 834.764 72.0561V55.2241H830.22V51.1921L835.468 47.9921L838.22 40.6321H844.3V48.0561H854.092V55.2241H844.3V72.0561C844.3 73.3787 844.684 74.3814 845.452 75.0641C846.22 75.7041 847.223 76.0241 848.46 76.0241Z" fill="url(#paint6_linear_112_4046)" fill-opacity="0.7"/>
<path d="M793.519 47.4161C796.762 47.4161 799.557 48.0347 801.903 49.2721C804.25 50.4667 806.042 52.2587 807.279 54.6481C808.559 56.9947 809.199 59.8747 809.199 63.2881V67.9601H786.735C786.821 70.6054 787.631 72.6961 789.167 74.2321C790.703 75.7254 792.901 76.4721 795.759 76.4721C797.935 76.4721 799.919 76.2587 801.711 75.8321C803.503 75.4054 805.338 74.7654 807.215 73.9121V81.1441C805.509 81.9974 803.695 82.6161 801.775 83.0001C799.898 83.4267 797.551 83.6401 794.735 83.6401C791.279 83.6401 788.207 83.0001 785.519 81.7201C782.874 80.4401 780.783 78.4774 779.247 75.8321C777.711 73.1441 776.943 69.7947 776.943 65.7841C776.943 61.6881 777.626 58.2961 778.991 55.6081C780.399 52.8774 782.341 50.8294 784.815 49.4641C787.333 48.0987 790.234 47.4161 793.519 47.4161ZM793.775 54.2641C791.855 54.2641 790.298 54.8827 789.103 56.1201C787.909 57.3147 787.205 59.1067 786.991 61.4961H800.175C800.175 60.0881 799.941 58.8507 799.471 57.7841C799.002 56.7174 798.277 55.8641 797.295 55.2241C796.357 54.5841 795.183 54.2641 793.775 54.2641Z" fill="url(#paint7_linear_112_4046)" fill-opacity="0.7"/>
<path d="M749.626 83.6401C745.786 83.6401 742.629 82.1254 740.154 79.0961C737.722 76.0241 736.506 71.5227 736.506 65.5921C736.506 59.5761 737.743 55.0534 740.218 52.0241C742.693 48.9521 745.935 47.4161 749.946 47.4161C751.61 47.4161 753.039 47.6507 754.234 48.1201C755.471 48.5467 756.538 49.1441 757.434 49.9121C758.33 50.6801 759.098 51.5547 759.738 52.5361H760.058C759.93 51.7681 759.802 50.7014 759.674 49.3361C759.589 47.9281 759.546 46.6481 759.546 45.4961V34.3601H769.274V83.0001H761.85L759.93 78.4561H759.546C758.949 79.4374 758.202 80.3121 757.306 81.0801C756.41 81.8481 755.322 82.4667 754.042 82.9361C752.805 83.4054 751.333 83.6401 749.626 83.6401ZM753.018 75.8961C755.663 75.8961 757.519 75.1494 758.586 73.6561C759.653 72.1201 760.186 69.7947 760.186 66.6801V65.6561C760.186 62.2854 759.674 59.7041 758.65 57.9121C757.626 56.1201 755.727 55.2241 752.954 55.2241C750.863 55.2241 749.221 56.1201 748.026 57.9121C746.874 59.7041 746.298 62.3067 746.298 65.7201C746.298 69.1334 746.874 71.6934 748.026 73.4001C749.221 75.0641 750.885 75.8961 753.018 75.8961Z" fill="url(#paint8_linear_112_4046)" fill-opacity="0.7"/>
<path d="M699.888 47.4161C703.728 47.4161 706.757 48.4187 708.976 50.4241C711.195 52.4294 712.304 55.6934 712.304 60.2161V83.0001H702.704V62.6481C702.704 60.1307 702.235 58.2534 701.296 57.0161C700.4 55.7361 698.992 55.0961 697.072 55.0961C694.171 55.0961 692.187 56.0987 691.12 58.1041C690.096 60.0667 689.584 62.9041 689.584 66.6161V83.0001H679.92V48.0561H687.344L688.688 52.7281H689.072C689.84 51.5761 690.757 50.6161 691.824 49.8481C692.933 49.0374 694.149 48.4401 695.472 48.0561C696.837 47.6294 698.309 47.4161 699.888 47.4161Z" fill="url(#paint9_linear_112_4046)" fill-opacity="0.7"/>
<path d="M672.176 65.4641C672.176 68.3654 671.771 70.9467 670.96 73.2081C670.192 75.4694 669.061 77.3681 667.568 78.9041C666.117 80.4401 664.347 81.6134 662.256 82.4241C660.165 83.2347 657.797 83.6401 655.152 83.6401C652.677 83.6401 650.416 83.2347 648.368 82.4241C646.32 81.6134 644.549 80.4401 643.056 78.9041C641.563 77.3681 640.389 75.4694 639.536 73.2081C638.683 70.9467 638.256 68.3654 638.256 65.4641C638.256 61.5814 638.939 58.2961 640.304 55.6081C641.669 52.9201 643.632 50.8934 646.192 49.5281C648.752 48.1201 651.803 47.4161 655.344 47.4161C658.629 47.4161 661.531 48.1201 664.048 49.5281C666.565 50.8934 668.549 52.9201 670 55.6081C671.451 58.2961 672.176 61.5814 672.176 65.4641ZM648.112 65.4641C648.112 67.7254 648.347 69.6667 648.816 71.2881C649.328 72.9094 650.096 74.1467 651.12 75.0001C652.187 75.8534 653.573 76.2801 655.28 76.2801C656.944 76.2801 658.288 75.8534 659.312 75.0001C660.379 74.1467 661.147 72.9094 661.616 71.2881C662.085 69.6667 662.32 67.7254 662.32 65.4641C662.32 63.1601 662.064 61.2187 661.552 59.6401C661.083 58.0614 660.336 56.8667 659.312 56.0561C658.288 55.2027 656.923 54.7761 655.216 54.7761C652.741 54.7761 650.928 55.6934 649.776 57.5281C648.667 59.3627 648.112 62.0081 648.112 65.4641ZM668.336 34.6161C667.696 35.2134 666.885 35.9601 665.904 36.8561C664.923 37.7094 663.856 38.6054 662.704 39.5441C661.552 40.4401 660.421 41.3147 659.312 42.1681C658.245 42.9787 657.307 43.6614 656.496 44.2161H650.096V43.3841C650.779 42.5734 651.568 41.6134 652.464 40.5041C653.403 39.3947 654.32 38.2641 655.216 37.1121C656.155 35.9601 656.923 34.9147 657.52 33.9761H668.336V34.6161Z" fill="url(#paint10_linear_112_4046)" fill-opacity="0.7"/>
<path d="M630.523 48.0561V83.0001H620.859V48.0561H630.523ZM625.723 34.2961C627.131 34.2961 628.347 34.6374 629.371 35.3201C630.438 35.9601 630.971 37.1974 630.971 39.0321C630.971 40.7814 630.438 41.9974 629.371 42.6801C628.347 43.3627 627.131 43.7041 625.723 43.7041C624.272 43.7041 623.035 43.3627 622.011 42.6801C620.987 41.9974 620.475 40.7814 620.475 39.0321C620.475 37.1974 620.987 35.9601 622.011 35.3201C623.035 34.6374 624.272 34.2961 625.723 34.2961Z" fill="url(#paint11_linear_112_4046)" fill-opacity="0.7"/>
<path d="M603.027 83.6401C599.656 83.6401 596.691 83.0214 594.131 81.7841C591.614 80.5041 589.651 78.5414 588.243 75.8961C586.835 73.2081 586.131 69.8161 586.131 65.7201C586.131 61.4107 586.899 57.9121 588.435 55.2241C589.971 52.5361 592.062 50.5734 594.707 49.3361C597.352 48.0561 600.36 47.4161 603.731 47.4161C605.779 47.4161 607.699 47.6294 609.491 48.0561C611.326 48.4827 612.947 49.0587 614.355 49.7841L611.475 57.0801C610.195 56.5254 608.894 56.0774 607.571 55.7361C606.291 55.3521 605.011 55.1601 603.731 55.1601C602.067 55.1601 600.659 55.5441 599.507 56.3121C598.355 57.0801 597.48 58.2534 596.883 59.8321C596.286 61.3681 595.987 63.3094 595.987 65.6561C595.987 67.9601 596.286 69.8587 596.883 71.3521C597.48 72.8454 598.355 73.9761 599.507 74.7441C600.659 75.4694 602.024 75.8321 603.603 75.8321C605.438 75.8321 607.166 75.5974 608.787 75.1281C610.408 74.6161 611.944 73.9547 613.395 73.1441V81.0161C612.072 81.8267 610.579 82.4667 608.915 82.9361C607.251 83.4054 605.288 83.6401 603.027 83.6401Z" fill="url(#paint12_linear_112_4046)" fill-opacity="0.7"/>
<path d="M570.027 83.6401C566.656 83.6401 563.691 83.0214 561.131 81.7841C558.614 80.5041 556.651 78.5414 555.243 75.8961C553.835 73.2081 553.131 69.8161 553.131 65.7201C553.131 61.4107 553.899 57.9121 555.435 55.2241C556.971 52.5361 559.062 50.5734 561.707 49.3361C564.352 48.0561 567.36 47.4161 570.731 47.4161C572.779 47.4161 574.699 47.6294 576.491 48.0561C578.326 48.4827 579.947 49.0587 581.355 49.7841L578.475 57.0801C577.195 56.5254 575.894 56.0774 574.571 55.7361C573.291 55.3521 572.011 55.1601 570.731 55.1601C569.067 55.1601 567.659 55.5441 566.507 56.3121C565.355 57.0801 564.48 58.2534 563.883 59.8321C563.286 61.3681 562.987 63.3094 562.987 65.6561C562.987 67.9601 563.286 69.8587 563.883 71.3521C564.48 72.8454 565.355 73.9761 566.507 74.7441C567.659 75.4694 569.024 75.8321 570.603 75.8321C572.438 75.8321 574.166 75.5974 575.787 75.1281C577.408 74.6161 578.944 73.9547 580.395 73.1441V81.0161C579.072 81.8267 577.579 82.4667 575.915 82.9361C574.251 83.4054 572.288 83.6401 570.027 83.6401Z" fill="url(#paint13_linear_112_4046)" fill-opacity="0.7"/>
<path d="M545.362 48.0561V83.0001H537.938L536.722 78.5201H536.146C535.421 79.7147 534.482 80.6961 533.33 81.4641C532.221 82.2321 530.983 82.7867 529.618 83.1281C528.295 83.4694 526.887 83.6401 525.394 83.6401C522.919 83.6401 520.743 83.1921 518.866 82.2961C517.031 81.4001 515.581 80.0134 514.514 78.1361C513.49 76.2587 512.978 73.8267 512.978 70.8401V48.0561H522.706V68.4081C522.706 70.8827 523.133 72.7601 523.986 74.0401C524.882 75.2774 526.29 75.8961 528.21 75.8961C530.173 75.8961 531.687 75.4694 532.754 74.6161C533.863 73.7201 534.631 72.4187 535.058 70.7121C535.485 69.0054 535.698 66.9147 535.698 64.4401V48.0561H545.362Z" fill="url(#paint14_linear_112_4046)" fill-opacity="0.7"/>
<path d="M484.188 83.6401C480.348 83.6401 477.191 82.1254 474.716 79.0961C472.284 76.0241 471.068 71.5227 471.068 65.5921C471.068 59.5761 472.306 55.0534 474.78 52.0241C477.255 48.9521 480.498 47.4161 484.508 47.4161C486.172 47.4161 487.602 47.6507 488.796 48.1201C490.034 48.5467 491.1 49.1441 491.996 49.9121C492.892 50.6801 493.66 51.5547 494.3 52.5361H494.62C494.492 51.7681 494.364 50.7014 494.236 49.3361C494.151 47.9281 494.108 46.6481 494.108 45.4961V34.3601H503.836V83.0001H496.412L494.492 78.4561H494.108C493.511 79.4374 492.764 80.3121 491.868 81.0801C490.972 81.8481 489.884 82.4667 488.604 82.9361C487.367 83.4054 485.895 83.6401 484.188 83.6401ZM487.58 75.8961C490.226 75.8961 492.082 75.1494 493.148 73.6561C494.215 72.1201 494.748 69.7947 494.748 66.6801V65.6561C494.748 62.2854 494.236 59.7041 493.212 57.9121C492.188 56.1201 490.29 55.2241 487.516 55.2241C485.426 55.2241 483.783 56.1201 482.588 57.9121C481.436 59.7041 480.86 62.3067 480.86 65.7201C480.86 69.1334 481.436 71.6934 482.588 73.4001C483.783 75.0641 485.447 75.8961 487.58 75.8961Z" fill="url(#paint15_linear_112_4046)" fill-opacity="0.7"/>
<path d="M450.036 47.4161C454.431 47.4161 457.78 48.4614 460.084 50.5521C462.388 52.6001 463.54 55.6507 463.54 59.7041V83.0001H456.82L454.964 78.2641H454.708C453.727 79.5014 452.703 80.5254 451.636 81.3361C450.612 82.1467 449.417 82.7227 448.052 83.0641C446.687 83.4481 445.023 83.6401 443.06 83.6401C441.012 83.6401 439.177 83.2561 437.556 82.4881C435.935 81.6774 434.655 80.4614 433.716 78.8401C432.777 77.2187 432.308 75.1707 432.308 72.6961C432.308 69.0267 433.631 66.2747 436.276 64.4401C438.921 62.6054 442.868 61.5814 448.116 61.3681L453.94 61.1761V60.0881C453.94 57.9974 453.471 56.5467 452.532 55.7361C451.593 54.8827 450.271 54.4561 448.564 54.4561C446.985 54.4561 445.364 54.7121 443.7 55.2241C442.036 55.7361 440.393 56.3547 438.772 57.0801L435.956 50.4881C437.791 49.5494 439.881 48.8027 442.228 48.2481C444.617 47.6934 447.22 47.4161 450.036 47.4161ZM450.292 67.0001C447.263 67.0854 445.151 67.5761 443.956 68.4721C442.761 69.3681 442.164 70.6267 442.164 72.2481C442.164 73.7414 442.569 74.8507 443.38 75.5761C444.233 76.2587 445.364 76.6001 446.772 76.6001C448.777 76.6001 450.463 76.0027 451.828 74.8081C453.236 73.6134 453.94 71.9067 453.94 69.6881V66.8081L450.292 67.0001Z" fill="url(#paint16_linear_112_4046)" fill-opacity="0.7"/>
<path d="M426.373 47.4161C427.013 47.4161 427.696 47.4587 428.421 47.5441C429.189 47.5867 429.786 47.6721 430.213 47.8001L429.253 56.8241C428.784 56.7387 428.229 56.6534 427.589 56.5681C426.949 56.4827 426.181 56.4401 425.285 56.4401C424.304 56.4401 423.301 56.5894 422.277 56.8881C421.296 57.1867 420.378 57.6774 419.525 58.3601C418.672 59.0427 417.989 59.9387 417.477 61.0481C416.965 62.1574 416.709 63.5654 416.709 65.2721V83.0001H407.045V48.0561H414.405L415.813 53.9441H416.261C416.944 52.7067 417.797 51.5974 418.821 50.6161C419.845 49.6347 420.997 48.8667 422.277 48.3121C423.557 47.7147 424.922 47.4161 426.373 47.4161Z" fill="url(#paint17_linear_112_4046)" fill-opacity="0.7"/>
<path d="M391.983 83.0001H382.191V45.4321H369.839V37.3041H404.335V45.4321H391.983V83.0001Z" fill="url(#paint18_linear_112_4046)" fill-opacity="0.7"/>
</g>
</g>
<path d="M269 72H1131V105C1131 111.627 1125.63 117 1119 117H281C274.373 117 269 111.627 269 105V72Z" fill="url(#paint19_linear_112_4046)"/>
<path d="M1028.16 60.6961C1028.16 62.9147 1027.63 64.8561 1026.56 66.5201C1025.53 68.1414 1023.96 69.4001 1021.82 70.2961C1019.69 71.1921 1016.98 71.6401 1013.69 71.6401C1011.22 71.6401 1009.04 71.4694 1007.17 71.1281C1005.29 70.8294 1003.48 70.3174 1001.73 69.5921V61.5921C1003.6 62.4881 1005.63 63.1921 1007.81 63.7041C1009.98 64.2161 1011.86 64.4721 1013.44 64.4721C1015.4 64.4721 1016.81 64.1947 1017.66 63.6401C1018.56 63.0854 1019.01 62.3387 1019.01 61.4001C1019.01 60.7601 1018.77 60.1841 1018.3 59.6721C1017.88 59.1601 1017.09 58.6267 1015.93 58.0721C1014.83 57.5174 1013.23 56.8347 1011.13 56.0241C1009.04 55.1707 1007.29 54.2961 1005.89 53.4001C1004.48 52.4614 1003.41 51.3521 1002.69 50.0721C1002 48.7921 1001.66 47.1921 1001.66 45.2721C1001.66 42.0721 1002.92 39.6401 1005.44 37.9761C1008 36.2694 1011.37 35.4161 1015.55 35.4161C1017.81 35.4161 1019.9 35.6507 1021.82 36.1201C1023.79 36.5894 1025.77 37.2507 1027.77 38.1041L1024.96 44.6961C1023.34 43.9707 1021.67 43.3734 1019.97 42.9041C1018.26 42.4347 1016.75 42.2001 1015.42 42.2001C1013.97 42.2001 1012.84 42.4347 1012.03 42.9041C1011.22 43.3307 1010.81 43.9494 1010.81 44.7601C1010.81 45.3574 1011.03 45.8907 1011.45 46.3601C1011.92 46.8294 1012.71 47.3201 1013.82 47.8321C1014.97 48.3441 1016.57 49.0054 1018.62 49.8161C1020.71 50.6267 1022.46 51.5014 1023.87 52.4401C1025.32 53.3361 1026.39 54.4454 1027.07 55.7681C1027.8 57.0481 1028.16 58.6907 1028.16 60.6961Z" fill="url(#paint20_linear_112_4046)"/>
<path d="M995.647 53.4641C995.647 56.3654 995.241 58.9467 994.431 61.2081C993.663 63.4694 992.532 65.3681 991.039 66.9041C989.588 68.4401 987.817 69.6134 985.727 70.4241C983.636 71.2347 981.268 71.6401 978.623 71.6401C976.148 71.6401 973.887 71.2347 971.839 70.4241C969.791 69.6134 968.02 68.4401 966.527 66.9041C965.033 65.3681 963.86 63.4694 963.007 61.2081C962.154 58.9467 961.727 56.3654 961.727 53.4641C961.727 49.5814 962.41 46.2961 963.775 43.6081C965.14 40.9201 967.103 38.8934 969.663 37.5281C972.223 36.1201 975.273 35.4161 978.815 35.4161C982.1 35.4161 985.001 36.1201 987.519 37.5281C990.036 38.8934 992.02 40.9201 993.471 43.6081C994.921 46.2961 995.647 49.5814 995.647 53.4641ZM971.583 53.4641C971.583 55.7254 971.817 57.6667 972.287 59.2881C972.799 60.9094 973.567 62.1467 974.591 63.0001C975.657 63.8534 977.044 64.2801 978.751 64.2801C980.415 64.2801 981.759 63.8534 982.783 63.0001C983.85 62.1467 984.617 60.9094 985.087 59.2881C985.556 57.6667 985.791 55.7254 985.791 53.4641C985.791 51.1601 985.535 49.2187 985.023 47.6401C984.553 46.0614 983.807 44.8667 982.783 44.0561C981.759 43.2027 980.393 42.7761 978.687 42.7761C976.212 42.7761 974.399 43.6934 973.247 45.5281C972.137 47.3627 971.583 50.0081 971.583 53.4641Z" fill="url(#paint21_linear_112_4046)"/>
<path d="M950.681 64.0241C951.747 64.0241 952.771 63.9174 953.753 63.7041C954.734 63.4907 955.716 63.2347 956.697 62.9361V70.0401C955.673 70.4667 954.393 70.8294 952.857 71.1281C951.363 71.4694 949.721 71.6401 947.929 71.6401C945.838 71.6401 943.961 71.2987 942.297 70.6161C940.675 69.9334 939.374 68.7601 938.393 67.0961C937.454 65.3894 936.985 63.0427 936.985 60.0561V43.2241H932.441V39.1921L937.689 35.9921L940.441 28.6321H946.521V36.0561H956.313V43.2241H946.521V60.0561C946.521 61.3787 946.905 62.3814 947.673 63.0641C948.441 63.7041 949.443 64.0241 950.681 64.0241Z" fill="url(#paint22_linear_112_4046)"/>
<path d="M906.129 53.1441L894.865 36.0561H905.681L912.465 47.1921L919.313 36.0561H930.129L918.737 53.1441L930.641 71.0001H919.825L912.465 59.0321L905.105 71.0001H894.289L906.129 53.1441Z" fill="url(#paint23_linear_112_4046)"/>
<path d="M876.615 35.4161C879.858 35.4161 882.653 36.0347 884.999 37.2721C887.346 38.4667 889.138 40.2587 890.375 42.6481C891.655 44.9947 892.295 47.8747 892.295 51.2881V55.9601H869.831C869.917 58.6054 870.727 60.6961 872.263 62.2321C873.799 63.7254 875.997 64.4721 878.855 64.4721C881.031 64.4721 883.015 64.2587 884.807 63.8321C886.599 63.4054 888.434 62.7654 890.311 61.9121V69.1441C888.605 69.9974 886.791 70.6161 884.871 71.0001C882.994 71.4267 880.647 71.6401 877.831 71.6401C874.375 71.6401 871.303 71.0001 868.615 69.7201C865.97 68.4401 863.879 66.4774 862.343 63.8321C860.807 61.1441 860.039 57.7947 860.039 53.7841C860.039 49.6881 860.722 46.2961 862.087 43.6081C863.495 40.8774 865.437 38.8294 867.911 37.4641C870.429 36.0987 873.33 35.4161 876.615 35.4161ZM876.871 42.2641C874.951 42.2641 873.394 42.8827 872.199 44.1201C871.005 45.3147 870.301 47.1067 870.087 49.4961H883.271C883.271 48.0881 883.037 46.8507 882.567 45.7841C882.098 44.7174 881.373 43.8641 880.391 43.2241C879.453 42.5841 878.279 42.2641 876.871 42.2641Z" fill="url(#paint24_linear_112_4046)"/>
<path d="M848.993 64.0241C850.06 64.0241 851.084 63.9174 852.065 63.7041C853.047 63.4907 854.028 63.2347 855.009 62.9361V70.0401C853.985 70.4667 852.705 70.8294 851.169 71.1281C849.676 71.4694 848.033 71.6401 846.241 71.6401C844.151 71.6401 842.273 71.2987 840.609 70.6161C838.988 69.9334 837.687 68.7601 836.705 67.0961C835.767 65.3894 835.297 63.0427 835.297 60.0561V43.2241H830.753V39.1921L836.001 35.9921L838.753 28.6321H844.833V36.0561H854.625V43.2241H844.833V60.0561C844.833 61.3787 845.217 62.3814 845.985 63.0641C846.753 63.7041 847.756 64.0241 848.993 64.0241Z" fill="url(#paint25_linear_112_4046)"/>
<path d="M794.053 35.4161C797.295 35.4161 800.09 36.0347 802.437 37.2721C804.783 38.4667 806.575 40.2587 807.813 42.6481C809.093 44.9947 809.733 47.8747 809.733 51.2881V55.9601H787.269C787.354 58.6054 788.165 60.6961 789.701 62.2321C791.237 63.7254 793.434 64.4721 796.293 64.4721C798.469 64.4721 800.453 64.2587 802.245 63.8321C804.037 63.4054 805.871 62.7654 807.749 61.9121V69.1441C806.042 69.9974 804.229 70.6161 802.309 71.0001C800.431 71.4267 798.085 71.6401 795.269 71.6401C791.813 71.6401 788.741 71.0001 786.053 69.7201C783.407 68.4401 781.317 66.4774 779.781 63.8321C778.245 61.1441 777.477 57.7947 777.477 53.7841C777.477 49.6881 778.159 46.2961 779.525 43.6081C780.933 40.8774 782.874 38.8294 785.349 37.4641C787.866 36.0987 790.767 35.4161 794.053 35.4161ZM794.309 42.2641C792.389 42.2641 790.831 42.8827 789.637 44.1201C788.442 45.3147 787.738 47.1067 787.525 49.4961H800.709C800.709 48.0881 800.474 46.8507 800.005 45.7841C799.535 44.7174 798.81 43.8641 797.829 43.2241C796.89 42.5841 795.717 42.2641 794.309 42.2641Z" fill="url(#paint26_linear_112_4046)"/>
<path d="M750.159 71.6401C746.319 71.6401 743.162 70.1254 740.687 67.0961C738.255 64.0241 737.039 59.5227 737.039 53.5921C737.039 47.5761 738.277 43.0534 740.751 40.0241C743.226 36.9521 746.469 35.4161 750.479 35.4161C752.143 35.4161 753.573 35.6507 754.767 36.1201C756.005 36.5467 757.071 37.1441 757.967 37.9121C758.863 38.6801 759.631 39.5547 760.271 40.5361H760.591C760.463 39.7681 760.335 38.7014 760.207 37.3361C760.122 35.9281 760.079 34.6481 760.079 33.4961V22.3601H769.807V71.0001H762.383L760.463 66.4561H760.079C759.482 67.4374 758.735 68.3121 757.839 69.0801C756.943 69.8481 755.855 70.4667 754.575 70.9361C753.338 71.4054 751.866 71.6401 750.159 71.6401ZM753.551 63.8961C756.197 63.8961 758.053 63.1494 759.119 61.6561C760.186 60.1201 760.719 57.7947 760.719 54.6801V53.6561C760.719 50.2854 760.207 47.7041 759.183 45.9121C758.159 44.1201 756.261 43.2241 753.487 43.2241C751.397 43.2241 749.754 44.1201 748.559 45.9121C747.407 47.7041 746.831 50.3067 746.831 53.7201C746.831 57.1334 747.407 59.6934 748.559 61.4001C749.754 63.0641 751.418 63.8961 753.551 63.8961Z" fill="url(#paint27_linear_112_4046)"/>
<path d="M700.421 35.4161C704.261 35.4161 707.291 36.4187 709.509 38.4241C711.728 40.4294 712.837 43.6934 712.837 48.2161V71.0001H703.237V50.6481C703.237 48.1307 702.768 46.2534 701.829 45.0161C700.933 43.7361 699.525 43.0961 697.605 43.0961C694.704 43.0961 692.72 44.0987 691.653 46.1041C690.629 48.0667 690.117 50.9041 690.117 54.6161V71.0001H680.453V36.0561H687.877L689.221 40.7281H689.605C690.373 39.5761 691.291 38.6161 692.357 37.8481C693.467 37.0374 694.683 36.4401 696.005 36.0561C697.371 35.6294 698.843 35.4161 700.421 35.4161Z" fill="url(#paint28_linear_112_4046)"/>
<path d="M672.709 53.4641C672.709 56.3654 672.304 58.9467 671.493 61.2081C670.725 63.4694 669.595 65.3681 668.101 66.9041C666.651 68.4401 664.88 69.6134 662.789 70.4241C660.699 71.2347 658.331 71.6401 655.685 71.6401C653.211 71.6401 650.949 71.2347 648.901 70.4241C646.853 69.6134 645.083 68.4401 643.589 66.9041C642.096 65.3681 640.923 63.4694 640.069 61.2081C639.216 58.9467 638.789 56.3654 638.789 53.4641C638.789 49.5814 639.472 46.2961 640.837 43.6081C642.203 40.9201 644.165 38.8934 646.725 37.5281C649.285 36.1201 652.336 35.4161 655.877 35.4161C659.163 35.4161 662.064 36.1201 664.581 37.5281C667.099 38.8934 669.083 40.9201 670.533 43.6081C671.984 46.2961 672.709 49.5814 672.709 53.4641ZM648.645 53.4641C648.645 55.7254 648.88 57.6667 649.349 59.2881C649.861 60.9094 650.629 62.1467 651.653 63.0001C652.72 63.8534 654.107 64.2801 655.813 64.2801C657.477 64.2801 658.821 63.8534 659.845 63.0001C660.912 62.1467 661.68 60.9094 662.149 59.2881C662.619 57.6667 662.853 55.7254 662.853 53.4641C662.853 51.1601 662.597 49.2187 662.085 47.6401C661.616 46.0614 660.869 44.8667 659.845 44.0561C658.821 43.2027 657.456 42.7761 655.749 42.7761C653.275 42.7761 651.461 43.6934 650.309 45.5281C649.2 47.3627 648.645 50.0081 648.645 53.4641ZM668.869 22.6161C668.229 23.2134 667.419 23.9601 666.437 24.8561C665.456 25.7094 664.389 26.6054 663.237 27.5441C662.085 28.4401 660.955 29.3147 659.845 30.1681C658.779 30.9787 657.84 31.6614 657.029 32.2161H650.629V31.3841C651.312 30.5734 652.101 29.6134 652.997 28.5041C653.936 27.3947 654.853 26.2641 655.749 25.1121C656.688 23.9601 657.456 22.9147 658.053 21.9761H668.869V22.6161Z" fill="url(#paint29_linear_112_4046)"/>
<path d="M631.056 36.0561V71.0001H621.392V36.0561H631.056ZM626.256 22.2961C627.664 22.2961 628.88 22.6374 629.904 23.3201C630.971 23.9601 631.504 25.1974 631.504 27.0321C631.504 28.7814 630.971 29.9974 629.904 30.6801C628.88 31.3627 627.664 31.7041 626.256 31.7041C624.806 31.7041 623.568 31.3627 622.544 30.6801C621.52 29.9974 621.008 28.7814 621.008 27.0321C621.008 25.1974 621.52 23.9601 622.544 23.3201C623.568 22.6374 624.806 22.2961 626.256 22.2961Z" fill="url(#paint30_linear_112_4046)"/>
<path d="M603.56 71.6401C600.19 71.6401 597.224 71.0214 594.664 69.7841C592.147 68.5041 590.184 66.5414 588.776 63.8961C587.368 61.2081 586.664 57.8161 586.664 53.7201C586.664 49.4107 587.432 45.9121 588.968 43.2241C590.504 40.5361 592.595 38.5734 595.24 37.3361C597.886 36.0561 600.894 35.4161 604.264 35.4161C606.312 35.4161 608.232 35.6294 610.024 36.0561C611.859 36.4827 613.48 37.0587 614.888 37.7841L612.008 45.0801C610.728 44.5254 609.427 44.0774 608.104 43.7361C606.824 43.3521 605.544 43.1601 604.264 43.1601C602.6 43.1601 601.192 43.5441 600.04 44.3121C598.888 45.0801 598.014 46.2534 597.416 47.8321C596.819 49.3681 596.52 51.3094 596.52 53.6561C596.52 55.9601 596.819 57.8587 597.416 59.3521C598.014 60.8454 598.888 61.9761 600.04 62.7441C601.192 63.4694 602.558 63.8321 604.136 63.8321C605.971 63.8321 607.699 63.5974 609.32 63.1281C610.942 62.6161 612.478 61.9547 613.928 61.1441V69.0161C612.606 69.8267 611.112 70.4667 609.448 70.9361C607.784 71.4054 605.822 71.6401 603.56 71.6401Z" fill="url(#paint31_linear_112_4046)"/>
<path d="M570.56 71.6401C567.19 71.6401 564.224 71.0214 561.664 69.7841C559.147 68.5041 557.184 66.5414 555.776 63.8961C554.368 61.2081 553.664 57.8161 553.664 53.7201C553.664 49.4107 554.432 45.9121 555.968 43.2241C557.504 40.5361 559.595 38.5734 562.24 37.3361C564.886 36.0561 567.894 35.4161 571.264 35.4161C573.312 35.4161 575.232 35.6294 577.024 36.0561C578.859 36.4827 580.48 37.0587 581.888 37.7841L579.008 45.0801C577.728 44.5254 576.427 44.0774 575.104 43.7361C573.824 43.3521 572.544 43.1601 571.264 43.1601C569.6 43.1601 568.192 43.5441 567.04 44.3121C565.888 45.0801 565.014 46.2534 564.416 47.8321C563.819 49.3681 563.52 51.3094 563.52 53.6561C563.52 55.9601 563.819 57.8587 564.416 59.3521C565.014 60.8454 565.888 61.9761 567.04 62.7441C568.192 63.4694 569.558 63.8321 571.136 63.8321C572.971 63.8321 574.699 63.5974 576.32 63.1281C577.942 62.6161 579.478 61.9547 580.928 61.1441V69.0161C579.606 69.8267 578.112 70.4667 576.448 70.9361C574.784 71.4054 572.822 71.6401 570.56 71.6401Z" fill="url(#paint32_linear_112_4046)"/>
<path d="M545.895 36.0561V71.0001H538.471L537.255 66.5201H536.679C535.954 67.7147 535.015 68.6961 533.863 69.4641C532.754 70.2321 531.517 70.7867 530.151 71.1281C528.829 71.4694 527.421 71.6401 525.927 71.6401C523.453 71.6401 521.277 71.1921 519.399 70.2961C517.565 69.4001 516.114 68.0134 515.047 66.1361C514.023 64.2587 513.511 61.8267 513.511 58.8401V36.0561H523.239V56.4081C523.239 58.8827 523.666 60.7601 524.519 62.0401C525.415 63.2774 526.823 63.8961 528.743 63.8961C530.706 63.8961 532.221 63.4694 533.287 62.6161C534.397 61.7201 535.165 60.4187 535.591 58.7121C536.018 57.0054 536.231 54.9147 536.231 52.4401V36.0561H545.895Z" fill="url(#paint33_linear_112_4046)"/>
<path d="M484.722 71.6401C480.882 71.6401 477.724 70.1254 475.25 67.0961C472.818 64.0241 471.602 59.5227 471.602 53.5921C471.602 47.5761 472.839 43.0534 475.314 40.0241C477.788 36.9521 481.031 35.4161 485.042 35.4161C486.706 35.4161 488.135 35.6507 489.33 36.1201C490.567 36.5467 491.634 37.1441 492.53 37.9121C493.426 38.6801 494.194 39.5547 494.834 40.5361H495.154C495.026 39.7681 494.898 38.7014 494.77 37.3361C494.684 35.9281 494.642 34.6481 494.642 33.4961V22.3601H504.37V71.0001H496.946L495.026 66.4561H494.642C494.044 67.4374 493.298 68.3121 492.402 69.0801C491.506 69.8481 490.418 70.4667 489.138 70.9361C487.9 71.4054 486.428 71.6401 484.722 71.6401ZM488.114 63.8961C490.759 63.8961 492.615 63.1494 493.682 61.6561C494.748 60.1201 495.282 57.7947 495.282 54.6801V53.6561C495.282 50.2854 494.77 47.7041 493.746 45.9121C492.722 44.1201 490.823 43.2241 488.05 43.2241C485.959 43.2241 484.316 44.1201 483.122 45.9121C481.97 47.7041 481.394 50.3067 481.394 53.7201C481.394 57.1334 481.97 59.6934 483.122 61.4001C484.316 63.0641 485.98 63.8961 488.114 63.8961Z" fill="url(#paint34_linear_112_4046)"/>
<path d="M450.569 35.4161C454.964 35.4161 458.313 36.4614 460.617 38.5521C462.921 40.6001 464.073 43.6507 464.073 47.7041V71.0001H457.353L455.497 66.2641H455.241C454.26 67.5014 453.236 68.5254 452.169 69.3361C451.145 70.1467 449.951 70.7227 448.585 71.0641C447.22 71.4481 445.556 71.6401 443.593 71.6401C441.545 71.6401 439.711 71.2561 438.089 70.4881C436.468 69.6774 435.188 68.4614 434.249 66.8401C433.311 65.2187 432.841 63.1707 432.841 60.6961C432.841 57.0267 434.164 54.2747 436.809 52.4401C439.455 50.6054 443.401 49.5814 448.649 49.3681L454.473 49.1761V48.0881C454.473 45.9974 454.004 44.5467 453.065 43.7361C452.127 42.8827 450.804 42.4561 449.097 42.4561C447.519 42.4561 445.897 42.7121 444.233 43.2241C442.569 43.7361 440.927 44.3547 439.305 45.0801L436.489 38.4881C438.324 37.5494 440.415 36.8027 442.761 36.2481C445.151 35.6934 447.753 35.4161 450.569 35.4161ZM450.825 55.0001C447.796 55.0854 445.684 55.5761 444.489 56.4721C443.295 57.3681 442.697 58.6267 442.697 60.2481C442.697 61.7414 443.103 62.8507 443.913 63.5761C444.767 64.2587 445.897 64.6001 447.305 64.6001C449.311 64.6001 450.996 64.0027 452.361 62.8081C453.769 61.6134 454.473 59.9067 454.473 57.6881V54.8081L450.825 55.0001Z" fill="url(#paint35_linear_112_4046)"/>
<path d="M426.906 35.4161C427.546 35.4161 428.229 35.4587 428.954 35.5441C429.722 35.5867 430.32 35.6721 430.746 35.8001L429.786 44.8241C429.317 44.7387 428.762 44.6534 428.122 44.5681C427.482 44.4827 426.714 44.4401 425.818 44.4401C424.837 44.4401 423.834 44.5894 422.81 44.8881C421.829 45.1867 420.912 45.6774 420.058 46.3601C419.205 47.0427 418.522 47.9387 418.01 49.0481C417.498 50.1574 417.242 51.5654 417.242 53.2721V71.0001H407.578V36.0561H414.938L416.346 41.9441H416.794C417.477 40.7067 418.33 39.5974 419.354 38.6161C420.378 37.6347 421.53 36.8667 422.81 36.3121C424.09 35.7147 425.456 35.4161 426.906 35.4161Z" fill="url(#paint36_linear_112_4046)"/>
<path d="M392.516 71.0001H382.724V33.4321H370.372V25.3041H404.868V33.4321H392.516V71.0001Z" fill="url(#paint37_linear_112_4046)"/>
<defs>
<filter id="filter0_f_112_4046" x="349.839" y="13.9761" width="697.787" height="89.6641" filterUnits="userSpaceOnUse" color-interpolation-filters="sRGB">
<feFlood flood-opacity="0" result="BackgroundImageFix"/>
<feBlend mode="normal" in="SourceGraphic" in2="BackgroundImageFix" result="shape"/>
<feGaussianBlur stdDeviation="10" result="effect1_foregroundBlur_112_4046"/>
</filter>
<linearGradient id="paint0_linear_112_4046" x1="269" y1="64.0036" x2="1131" y2="64.0027" gradientUnits="userSpaceOnUse">
<stop stop-color="white" stop-opacity="0.3"/>
<stop offset="0.359008" stop-color="#CBB0F8"/>
<stop offset="0.788712" stop-color="#FCD9ED"/>
<stop offset="1" stop-color="white" stop-opacity="0.3"/>
</linearGradient>
<linearGradient id="paint1_linear_112_4046" x1="1098.16" y1="49.1725" x2="-15336.6" y2="49.21" gradientUnits="userSpaceOnUse">
<stop stop-color="#F4439F"/>
<stop offset="1" stop-color="#7C3AED"/>
</linearGradient>
<linearGradient id="paint2_linear_112_4046" x1="1713.21" y1="49.1725" x2="-11124.5" y2="49.1954" gradientUnits="userSpaceOnUse">
<stop stop-color="#F4439F"/>
<stop offset="1" stop-color="#7C3AED"/>
</linearGradient>
<linearGradient id="paint3_linear_112_4046" x1="3042.61" y1="54.6094" x2="-14909.8" y2="54.6625" gradientUnits="userSpaceOnUse">
<stop stop-color="#F4439F"/>
<stop offset="1" stop-color="#7C3AED"/>
</linearGradient>
<linearGradient id="paint4_linear_112_4046" x1="2843.62" y1="48.8196" x2="-9135.22" y2="48.8388" gradientUnits="userSpaceOnUse">
<stop stop-color="#F4439F"/>
<stop offset="1" stop-color="#7C3AED"/>
</linearGradient>
<linearGradient id="paint5_linear_112_4046" x1="3856.19" y1="49.1725" x2="-9643.78" y2="49.1978" gradientUnits="userSpaceOnUse">
<stop stop-color="#F4439F"/>
<stop offset="1" stop-color="#7C3AED"/>
</linearGradient>
<linearGradient id="paint6_linear_112_4046" x1="5800.23" y1="54.6094" x2="-12152.2" y2="54.6625" gradientUnits="userSpaceOnUse">
<stop stop-color="#F4439F"/>
<stop offset="1" stop-color="#7C3AED"/>
</linearGradient>
<linearGradient id="paint7_linear_112_4046" x1="5539.86" y1="49.1725" x2="-7960.1" y2="49.1978" gradientUnits="userSpaceOnUse">
<stop stop-color="#F4439F"/>
<stop offset="1" stop-color="#7C3AED"/>
</linearGradient>
<linearGradient id="paint8_linear_112_4046" x1="6270.82" y1="58.3042" x2="-7018.2" y2="58.3375" gradientUnits="userSpaceOnUse">
<stop stop-color="#F4439F"/>
<stop offset="1" stop-color="#7C3AED"/>
</linearGradient>
<linearGradient id="paint9_linear_112_4046" x1="7490.17" y1="49.4459" x2="-5956.42" y2="49.4705" gradientUnits="userSpaceOnUse">
<stop stop-color="#F4439F"/>
<stop offset="1" stop-color="#7C3AED"/>
</linearGradient>
<linearGradient id="paint10_linear_112_4046" x1="7975.7" y1="58.5001" x2="-4861.99" y2="58.5314" gradientUnits="userSpaceOnUse">
<stop stop-color="#F4439F"/>
<stop offset="1" stop-color="#7C3AED"/>
</linearGradient>
<linearGradient id="paint11_linear_112_4046" x1="26064.1" y1="58.6572" x2="-15423.6" y2="58.9784" gradientUnits="userSpaceOnUse">
<stop stop-color="#F4439F"/>
<stop offset="1" stop-color="#7C3AED"/>
</linearGradient>
<linearGradient id="paint12_linear_112_4046" x1="10725.5" y1="49.1726" x2="-4703.03" y2="49.2056" gradientUnits="userSpaceOnUse">
<stop stop-color="#F4439F"/>
<stop offset="1" stop-color="#7C3AED"/>
</linearGradient>
<linearGradient id="paint13_linear_112_4046" x1="11494.6" y1="49.1726" x2="-3933.93" y2="49.2056" gradientUnits="userSpaceOnUse">
<stop stop-color="#F4439F"/>
<stop offset="1" stop-color="#7C3AED"/>
</linearGradient>
<linearGradient id="paint14_linear_112_4046" x1="10881.1" y1="48.5526" x2="-2565.49" y2="48.5772" gradientUnits="userSpaceOnUse">
<stop stop-color="#F4439F"/>
<stop offset="1" stop-color="#7C3AED"/>
</linearGradient>
<linearGradient id="paint15_linear_112_4046" x1="11599.2" y1="58.3042" x2="-1689.79" y2="58.3375" gradientUnits="userSpaceOnUse">
<stop stop-color="#F4439F"/>
<stop offset="1" stop-color="#7C3AED"/>
</linearGradient>
<linearGradient id="paint16_linear_112_4046" x1="12967.8" y1="49.1726" x2="-974.741" y2="49.1995" gradientUnits="userSpaceOnUse">
<stop stop-color="#F4439F"/>
<stop offset="1" stop-color="#7C3AED"/>
</linearGradient>
<linearGradient id="paint17_linear_112_4046" x1="18070" y1="49.4459" x2="-725.475" y2="49.494" gradientUnits="userSpaceOnUse">
<stop stop-color="#F4439F"/>
<stop offset="1" stop-color="#7C3AED"/>
</linearGradient>
<linearGradient id="paint18_linear_112_4046" x1="1030.47" y1="58.5002" x2="368.467" y2="58.5003" gradientUnits="userSpaceOnUse">
<stop stop-color="#F4439F"/>
<stop offset="1" stop-color="#7C3AED"/>
</linearGradient>
<linearGradient id="paint19_linear_112_4046" x1="700" y1="72" x2="700" y2="117" gradientUnits="userSpaceOnUse">
<stop offset="0.0001" stop-color="white" stop-opacity="0.1"/>
<stop offset="1" stop-color="white" stop-opacity="0"/>
</linearGradient>
<linearGradient id="paint20_linear_112_4046" x1="1098.7" y1="-22.4671" x2="921.441" y2="1721.59" gradientUnits="userSpaceOnUse">
<stop stop-color="#F4439F"/>
<stop offset="1" stop-color="#7C3AED"/>
</linearGradient>
<linearGradient id="paint21_linear_112_4046" x1="1713.74" y1="-22.4671" x2="1488.29" y2="1710.27" gradientUnits="userSpaceOnUse">
<stop stop-color="#F4439F"/>
<stop offset="1" stop-color="#7C3AED"/>
</linearGradient>
<linearGradient id="paint22_linear_112_4046" x1="3043.15" y1="-7.62277" x2="2927.55" y2="1467.44" gradientUnits="userSpaceOnUse">
<stop stop-color="#F4439F"/>
<stop offset="1" stop-color="#7C3AED"/>
</linearGradient>
<linearGradient id="paint23_linear_112_4046" x1="2844.15" y1="-25.0046" x2="2585.52" y2="1764.23" gradientUnits="userSpaceOnUse">
<stop stop-color="#F4439F"/>
<stop offset="1" stop-color="#7C3AED"/>
</linearGradient>
<linearGradient id="paint24_linear_112_4046" x1="3856.72" y1="-22.4671" x2="3641.99" y2="1713.03" gradientUnits="userSpaceOnUse">
<stop stop-color="#F4439F"/>
<stop offset="1" stop-color="#7C3AED"/>
</linearGradient>
<linearGradient id="paint25_linear_112_4046" x1="5800.76" y1="-7.62277" x2="5685.17" y2="1467.44" gradientUnits="userSpaceOnUse">
<stop stop-color="#F4439F"/>
<stop offset="1" stop-color="#7C3AED"/>
</linearGradient>
<linearGradient id="paint26_linear_112_4046" x1="5540.39" y1="-22.4671" x2="5325.66" y2="1713.03" gradientUnits="userSpaceOnUse">
<stop stop-color="#F4439F"/>
<stop offset="1" stop-color="#7C3AED"/>
</linearGradient>
<linearGradient id="paint27_linear_112_4046" x1="6271.35" y1="2.4652" x2="6152.7" y2="1286.74" gradientUnits="userSpaceOnUse">
<stop stop-color="#F4439F"/>
<stop offset="1" stop-color="#7C3AED"/>
</linearGradient>
<linearGradient id="paint28_linear_112_4046" x1="7490.71" y1="-23.2664" x2="7267.45" y2="1742.26" gradientUnits="userSpaceOnUse">
<stop stop-color="#F4439F"/>
<stop offset="1" stop-color="#7C3AED"/>
</linearGradient>
<linearGradient id="paint29_linear_112_4046" x1="7976.23" y1="3.00007" x2="7855.36" y2="1276.75" gradientUnits="userSpaceOnUse">
<stop stop-color="#F4439F"/>
<stop offset="1" stop-color="#7C3AED"/>
</linearGradient>
<linearGradient id="paint30_linear_112_4046" x1="26064.7" y1="2.29972" x2="26025.5" y2="1311.68" gradientUnits="userSpaceOnUse">
<stop stop-color="#F4439F"/>
<stop offset="1" stop-color="#7C3AED"/>
</linearGradient>
<linearGradient id="paint31_linear_112_4046" x1="10726" y1="-22.467" x2="10537.5" y2="1719.19" gradientUnits="userSpaceOnUse">
<stop stop-color="#F4439F"/>
<stop offset="1" stop-color="#7C3AED"/>
</linearGradient>
<linearGradient id="paint32_linear_112_4046" x1="11495.1" y1="-22.467" x2="11306.6" y2="1719.19" gradientUnits="userSpaceOnUse">
<stop stop-color="#F4439F"/>
<stop offset="1" stop-color="#7C3AED"/>
</linearGradient>
<linearGradient id="paint33_linear_112_4046" x1="10881.6" y1="-24.1597" x2="10658.4" y2="1741.37" gradientUnits="userSpaceOnUse">
<stop stop-color="#F4439F"/>
<stop offset="1" stop-color="#7C3AED"/>
</linearGradient>
<linearGradient id="paint34_linear_112_4046" x1="11599.8" y1="2.46521" x2="11481.1" y2="1286.74" gradientUnits="userSpaceOnUse">
<stop stop-color="#F4439F"/>
<stop offset="1" stop-color="#7C3AED"/>
</linearGradient>
<linearGradient id="paint35_linear_112_4046" x1="12968.4" y1="-22.4671" x2="12760.3" y2="1714.67" gradientUnits="userSpaceOnUse">
<stop stop-color="#F4439F"/>
<stop offset="1" stop-color="#7C3AED"/>
</linearGradient>
<linearGradient id="paint36_linear_112_4046" x1="18070.6" y1="-23.2664" x2="17909.6" y2="1755.93" gradientUnits="userSpaceOnUse">
<stop stop-color="#F4439F"/>
<stop offset="1" stop-color="#7C3AED"/>
</linearGradient>
<linearGradient id="paint37_linear_112_4046" x1="1031" y1="3.00018" x2="491.832" y2="295.974" gradientUnits="userSpaceOnUse">
<stop stop-color="#F4439F"/>
<stop offset="1" stop-color="#7C3AED"/>
</linearGradient>
</defs>
</svg>
