<svg width="1400" height="120" viewBox="0 0 1400 120" fill="none" xmlns="http://www.w3.org/2000/svg">
<path d="M170 56H1231V72H170V56Z" fill="url(#paint0_linear_112_3934)"/>
<mask id="mask0_112_3934" style="mask-type:alpha" maskUnits="userSpaceOnUse" x="170" y="72" width="1061" height="45">
<path d="M170 72H1231V117H170V72Z" fill="#C4C4C4"/>
</mask>
<g mask="url(#mask0_112_3934)">
<g filter="url(#filter0_f_112_3934)">
<path d="M1104.15 45.6881C1104.15 47.0107 1104.1 48.2694 1104.02 49.4641C1103.98 50.6587 1103.89 51.7041 1103.76 52.6001H1104.15C1105.09 51.1494 1106.34 49.9334 1107.92 48.9521C1109.5 47.9281 1111.55 47.4161 1114.07 47.4161C1117.95 47.4161 1121.11 48.9521 1123.54 52.0241C1125.97 55.0534 1127.19 59.5334 1127.19 65.4641C1127.19 69.4321 1126.63 72.7814 1125.52 75.5121C1124.41 78.2001 1122.83 80.2267 1120.79 81.5921C1118.78 82.9574 1116.46 83.6401 1113.81 83.6401C1111.25 83.6401 1109.22 83.1921 1107.73 82.2961C1106.28 81.3574 1105.09 80.3334 1104.15 79.2241H1103.51L1101.91 83.0001H1094.48V34.3601H1104.15V45.6881ZM1110.93 55.0961C1109.31 55.0961 1107.99 55.4374 1106.96 56.1201C1105.98 56.8027 1105.26 57.8481 1104.79 59.2561C1104.36 60.6214 1104.15 62.4134 1104.15 64.6321V65.7841C1104.15 69.0694 1104.64 71.5654 1105.62 73.2721C1106.64 74.9787 1108.46 75.8321 1111.06 75.8321C1113.15 75.8321 1114.73 74.9361 1115.79 73.1441C1116.86 71.3521 1117.39 68.7494 1117.39 65.3361C1117.39 61.9654 1116.86 59.4267 1115.79 57.7201C1114.77 55.9707 1113.15 55.0961 1110.93 55.0961Z" fill="url(#paint1_linear_112_3934)" fill-opacity="0.7"/>
<path d="M1071.21 47.4161C1074.45 47.4161 1077.24 48.0347 1079.59 49.2721C1081.94 50.4667 1083.73 52.2587 1084.97 54.6481C1086.25 56.9947 1086.89 59.8747 1086.89 63.2881V67.9601H1064.42C1064.51 70.6054 1065.32 72.6961 1066.85 74.2321C1068.39 75.7254 1070.59 76.4721 1073.45 76.4721C1075.62 76.4721 1077.61 76.2587 1079.4 75.8321C1081.19 75.4054 1083.03 74.7654 1084.9 73.9121V81.1441C1083.2 81.9974 1081.38 82.6161 1079.46 83.0001C1077.59 83.4267 1075.24 83.6401 1072.42 83.6401C1068.97 83.6401 1065.89 83.0001 1063.21 81.7201C1060.56 80.4401 1058.47 78.4774 1056.93 75.8321C1055.4 73.1441 1054.63 69.7947 1054.63 65.7841C1054.63 61.6881 1055.31 58.2961 1056.68 55.6081C1058.09 52.8774 1060.03 50.8294 1062.5 49.4641C1065.02 48.0987 1067.92 47.4161 1071.21 47.4161ZM1071.46 54.2641C1069.54 54.2641 1067.99 54.8827 1066.79 56.1201C1065.6 57.3147 1064.89 59.1067 1064.68 61.4961H1077.86C1077.86 60.0881 1077.63 58.8507 1077.16 57.7841C1076.69 56.7174 1075.96 55.8641 1074.98 55.2241C1074.04 54.5841 1072.87 54.2641 1071.46 54.2641Z" fill="url(#paint2_linear_112_3934)" fill-opacity="0.7"/>
<path d="M1027.85 70.7761C1027.68 70.0507 1027.42 68.9841 1027.08 67.5761C1026.78 66.1254 1026.44 64.5894 1026.06 62.9681C1025.67 61.3041 1025.31 59.7894 1024.97 58.4241C1024.63 57.0161 1024.39 55.9921 1024.27 55.3521H1024.01C1023.88 55.9921 1023.65 57.0161 1023.31 58.4241C1023.01 59.7894 1022.67 61.3041 1022.28 62.9681C1021.9 64.5894 1021.54 66.1254 1021.19 67.5761C1020.85 69.0267 1020.6 70.1361 1020.43 70.9041L1017.61 83.0001H1007.37L997.45 48.0561H1006.92L1010.95 63.5441C1011.25 64.6107 1011.51 65.8907 1011.72 67.3841C1011.98 68.8774 1012.21 70.3281 1012.43 71.7361C1012.64 73.1014 1012.79 74.1894 1012.87 75.0001H1013.13C1013.17 74.4027 1013.26 73.6134 1013.39 72.6321C1013.51 71.6081 1013.66 70.5627 1013.83 69.4961C1014.05 68.4294 1014.22 67.4694 1014.35 66.6161C1014.52 65.7201 1014.65 65.1227 1014.73 64.8241L1019.02 48.0561H1029.51L1033.61 64.8241C1033.78 65.4214 1033.97 66.3814 1034.19 67.7041C1034.44 69.0267 1034.66 70.3707 1034.83 71.7361C1035.04 73.1014 1035.15 74.1894 1035.15 75.0001H1035.4C1035.49 74.2747 1035.64 73.2294 1035.85 71.8641C1036.06 70.4561 1036.3 68.9841 1036.55 67.4481C1036.85 65.9121 1037.15 64.6107 1037.45 63.5441L1041.61 48.0561H1050.95L1040.91 83.0001H1030.54L1027.85 70.7761Z" fill="url(#paint3_linear_112_3934)" fill-opacity="0.7"/>
<path d="M977.5 72.6961C977.5 74.9147 976.967 76.8561 975.9 78.5201C974.876 80.1414 973.298 81.4001 971.164 82.2961C969.031 83.1921 966.322 83.6401 963.036 83.6401C960.562 83.6401 958.386 83.4694 956.508 83.1281C954.631 82.8294 952.818 82.3174 951.068 81.5921V73.5921C952.946 74.4881 954.972 75.1921 957.148 75.7041C959.324 76.2161 961.202 76.4721 962.78 76.4721C964.743 76.4721 966.151 76.1947 967.004 75.6401C967.9 75.0854 968.348 74.3387 968.348 73.4001C968.348 72.7601 968.114 72.1841 967.644 71.6721C967.218 71.1601 966.428 70.6267 965.276 70.0721C964.167 69.5174 962.567 68.8347 960.476 68.0241C958.386 67.1707 956.636 66.2961 955.228 65.4001C953.82 64.4614 952.754 63.3521 952.028 62.0721C951.346 60.7921 951.004 59.1921 951.004 57.2721C951.004 54.0721 952.263 51.6401 954.78 49.9761C957.34 48.2694 960.711 47.4161 964.892 47.4161C967.154 47.4161 969.244 47.6507 971.164 48.1201C973.127 48.5894 975.111 49.2507 977.116 50.1041L974.3 56.6961C972.679 55.9707 971.015 55.3734 969.308 54.9041C967.602 54.4347 966.087 54.2001 964.764 54.2001C963.314 54.2001 962.183 54.4347 961.372 54.9041C960.562 55.3307 960.156 55.9494 960.156 56.7601C960.156 57.3574 960.37 57.8907 960.796 58.3601C961.266 58.8294 962.055 59.3201 963.164 59.8321C964.316 60.3441 965.916 61.0054 967.964 61.8161C970.055 62.6267 971.804 63.5014 973.212 64.4401C974.663 65.3361 975.73 66.4454 976.412 67.7681C977.138 69.0481 977.5 70.6907 977.5 72.6961Z" fill="url(#paint4_linear_112_3934)" fill-opacity="0.7"/>
<path d="M930.036 47.4161C934.431 47.4161 937.78 48.4614 940.084 50.5521C942.388 52.6001 943.54 55.6507 943.54 59.7041V83.0001H936.82L934.964 78.2641H934.708C933.727 79.5014 932.703 80.5254 931.636 81.3361C930.612 82.1467 929.417 82.7227 928.052 83.0641C926.687 83.4481 925.023 83.6401 923.06 83.6401C921.012 83.6401 919.177 83.2561 917.556 82.4881C915.935 81.6774 914.655 80.4614 913.716 78.8401C912.777 77.2187 912.308 75.1707 912.308 72.6961C912.308 69.0267 913.631 66.2747 916.276 64.4401C918.921 62.6054 922.868 61.5814 928.116 61.3681L933.94 61.1761V60.0881C933.94 57.9974 933.471 56.5467 932.532 55.7361C931.593 54.8827 930.271 54.4561 928.564 54.4561C926.985 54.4561 925.364 54.7121 923.7 55.2241C922.036 55.7361 920.393 56.3547 918.772 57.0801L915.956 50.4881C917.791 49.5494 919.881 48.8027 922.228 48.2481C924.617 47.6934 927.22 47.4161 930.036 47.4161ZM930.292 67.0001C927.263 67.0854 925.151 67.5761 923.956 68.4721C922.761 69.3681 922.164 70.6267 922.164 72.2481C922.164 73.7414 922.569 74.8507 923.38 75.5761C924.233 76.2587 925.364 76.6001 926.772 76.6001C928.777 76.6001 930.463 76.0027 931.828 74.8081C933.236 73.6134 933.94 71.9067 933.94 69.6881V66.8081L930.292 67.0001Z" fill="url(#paint5_linear_112_3934)" fill-opacity="0.7"/>
<path d="M892.763 47.4161C896.603 47.4161 899.632 48.4187 901.851 50.4241C904.07 52.4294 905.179 55.6934 905.179 60.2161V83.0001H895.579V62.6481C895.579 60.1307 895.11 58.2534 894.171 57.0161C893.275 55.7361 891.867 55.0961 889.947 55.0961C887.046 55.0961 885.062 56.0987 883.995 58.1041C882.971 60.0667 882.459 62.9041 882.459 66.6161V83.0001H872.795V48.0561H880.219L881.563 52.7281H881.947C882.715 51.5761 883.632 50.6161 884.699 49.8481C885.808 49.0374 887.024 48.4401 888.347 48.0561C889.712 47.6294 891.184 47.4161 892.763 47.4161Z" fill="url(#paint6_linear_112_3934)" fill-opacity="0.7"/>
<path d="M863.398 48.0561V83.0001H853.734V48.0561H863.398ZM858.598 34.2961C860.006 34.2961 861.222 34.6374 862.246 35.3201C863.313 35.9601 863.846 37.1974 863.846 39.0321C863.846 40.7814 863.313 41.9974 862.246 42.6801C861.222 43.3627 860.006 43.7041 858.598 43.7041C857.147 43.7041 855.91 43.3627 854.886 42.6801C853.862 41.9974 853.35 40.7814 853.35 39.0321C853.35 37.1974 853.862 35.9601 854.886 35.3201C855.91 34.6374 857.147 34.2961 858.598 34.2961Z" fill="url(#paint7_linear_112_3934)" fill-opacity="0.7"/>
<path d="M824.88 47.4161C827.312 47.4161 829.339 47.8854 830.96 48.8241C832.582 49.7201 833.926 50.9361 834.992 52.4721H835.248L836.144 48.0561H844.336V83.2561C844.336 86.5414 843.696 89.2934 842.416 91.5121C841.136 93.7734 839.195 95.4801 836.592 96.6321C834.032 97.7841 830.768 98.3601 826.8 98.3601C824.112 98.3601 821.702 98.1894 819.568 97.8481C817.435 97.5494 815.43 97.0161 813.552 96.2481V88.0561C815.472 88.9094 817.435 89.5707 819.44 90.0401C821.488 90.5094 823.835 90.7441 826.48 90.7441C829.168 90.7441 831.195 90.1254 832.56 88.8881C833.968 87.6507 834.672 85.9441 834.672 83.7681V82.8081C834.672 82.2961 834.694 81.6134 834.736 80.7601C834.822 79.9067 834.907 79.1601 834.992 78.5201H834.672C833.691 80.0561 832.39 81.2934 830.768 82.2321C829.19 83.1707 827.206 83.6401 824.816 83.6401C820.806 83.6401 817.584 82.0827 815.152 78.9681C812.763 75.8534 811.568 71.3947 811.568 65.5921C811.568 59.7894 812.784 55.3094 815.216 52.1521C817.648 48.9947 820.87 47.4161 824.88 47.4161ZM828.016 55.0321C826.608 55.0321 825.392 55.4374 824.368 56.2481C823.387 57.0587 822.64 58.2534 822.128 59.8321C821.659 61.4107 821.424 63.3734 821.424 65.7201C821.424 69.2187 821.979 71.8214 823.088 73.5281C824.24 75.2347 825.947 76.0881 828.208 76.0881C829.488 76.0881 830.576 75.8961 831.472 75.5121C832.368 75.1281 833.094 74.5734 833.648 73.8481C834.203 73.0801 834.608 72.1201 834.864 70.9681C835.163 69.8161 835.312 68.4507 835.312 66.8721V65.4641C835.312 63.1174 835.078 61.1761 834.608 59.6401C834.139 58.1041 833.371 56.9521 832.304 56.1841C831.238 55.4161 829.808 55.0321 828.016 55.0321Z" fill="url(#paint8_linear_112_3934)" fill-opacity="0.7"/>
<path d="M790.536 47.4161C794.931 47.4161 798.28 48.4614 800.584 50.5521C802.888 52.6001 804.04 55.6507 804.04 59.7041V83.0001H797.32L795.464 78.2641H795.208C794.227 79.5014 793.203 80.5254 792.136 81.3361C791.112 82.1467 789.917 82.7227 788.552 83.0641C787.187 83.4481 785.523 83.6401 783.56 83.6401C781.512 83.6401 779.677 83.2561 778.056 82.4881C776.435 81.6774 775.155 80.4614 774.216 78.8401C773.277 77.2187 772.808 75.1707 772.808 72.6961C772.808 69.0267 774.131 66.2747 776.776 64.4401C779.421 62.6054 783.368 61.5814 788.616 61.3681L794.44 61.1761V60.0881C794.44 57.9974 793.971 56.5467 793.032 55.7361C792.093 54.8827 790.771 54.4561 789.064 54.4561C787.485 54.4561 785.864 54.7121 784.2 55.2241C782.536 55.7361 780.893 56.3547 779.272 57.0801L776.456 50.4881C778.291 49.5494 780.381 48.8027 782.728 48.2481C785.117 47.6934 787.72 47.4161 790.536 47.4161ZM790.792 67.0001C787.763 67.0854 785.651 67.5761 784.456 68.4721C783.261 69.3681 782.664 70.6267 782.664 72.2481C782.664 73.7414 783.069 74.8507 783.88 75.5761C784.733 76.2587 785.864 76.6001 787.272 76.6001C789.277 76.6001 790.963 76.0027 792.328 74.8081C793.736 73.6134 794.44 71.9067 794.44 69.6881V66.8081L790.792 67.0001ZM802.504 34.6161C801.864 35.2134 801.053 35.9601 800.072 36.8561C799.091 37.7094 798.024 38.6054 796.872 39.5441C795.72 40.4401 794.589 41.3147 793.48 42.1681C792.413 42.9787 791.475 43.6614 790.664 44.2161H784.264V43.3841C784.947 42.5734 785.736 41.6134 786.632 40.5041C787.571 39.3947 788.488 38.2641 789.384 37.1121C790.323 35.9601 791.091 34.9147 791.688 33.9761H802.504V34.6161Z" fill="url(#paint9_linear_112_3934)" fill-opacity="0.7"/>
<path d="M754.066 47.4161C758.12 47.4161 761.32 48.9521 763.666 52.0241C766.013 55.0534 767.186 59.5334 767.186 65.4641C767.186 69.3894 766.61 72.7174 765.458 75.4481C764.349 78.1787 762.792 80.2267 760.786 81.5921C758.781 82.9574 756.456 83.6401 753.81 83.6401C752.104 83.6401 750.632 83.4267 749.394 83.0001C748.157 82.5307 747.112 81.9761 746.258 81.3361C745.448 80.6534 744.744 79.9494 744.146 79.2241H743.762C743.848 79.9921 743.933 80.8881 744.018 81.9121C744.104 82.8934 744.146 83.9174 744.146 84.9841V98.3601H734.482V48.0561H742.354L743.698 52.6001H744.146C744.786 51.6187 745.533 50.7441 746.386 49.9761C747.282 49.2081 748.349 48.5894 749.586 48.1201C750.866 47.6507 752.36 47.4161 754.066 47.4161ZM750.866 55.0961C749.245 55.0961 747.944 55.4374 746.962 56.1201C745.981 56.8027 745.277 57.8267 744.85 59.1921C744.424 60.5574 744.189 62.2854 744.146 64.3761V65.4001C744.146 67.6187 744.338 69.5174 744.722 71.0961C745.149 72.6321 745.853 73.8054 746.834 74.6161C747.858 75.4267 749.224 75.8321 750.93 75.8321C752.381 75.8321 753.576 75.4267 754.514 74.6161C755.496 73.8054 756.221 72.6321 756.69 71.0961C757.16 69.5174 757.394 67.5974 757.394 65.3361C757.394 61.8801 756.84 59.3201 755.73 57.6561C754.664 55.9494 753.042 55.0961 750.866 55.0961Z" fill="url(#paint10_linear_112_3934)" fill-opacity="0.7"/>
<path d="M694.582 47.4161C697.825 47.4161 700.619 48.0347 702.966 49.2721C705.313 50.4667 707.105 52.2587 708.342 54.6481C709.622 56.9947 710.262 59.8747 710.262 63.2881V67.9601H687.798C687.883 70.6054 688.694 72.6961 690.23 74.2321C691.766 75.7254 693.963 76.4721 696.822 76.4721C698.998 76.4721 700.982 76.2587 702.774 75.8321C704.566 75.4054 706.401 74.7654 708.278 73.9121V81.1441C706.571 81.9974 704.758 82.6161 702.838 83.0001C700.961 83.4267 698.614 83.6401 695.798 83.6401C692.342 83.6401 689.27 83.0001 686.582 81.7201C683.937 80.4401 681.846 78.4774 680.31 75.8321C678.774 73.1441 678.006 69.7947 678.006 65.7841C678.006 61.6881 678.689 58.2961 680.054 55.6081C681.462 52.8774 683.403 50.8294 685.878 49.4641C688.395 48.0987 691.297 47.4161 694.582 47.4161ZM694.838 54.2641C692.918 54.2641 691.361 54.8827 690.166 56.1201C688.971 57.3147 688.267 59.1067 688.054 61.4961H701.238C701.238 60.0881 701.003 58.8507 700.534 57.7841C700.065 56.7174 699.339 55.8641 698.358 55.2241C697.419 54.5841 696.246 54.2641 694.838 54.2641Z" fill="url(#paint11_linear_112_3934)" fill-opacity="0.7"/>
<path d="M650.688 83.6401C646.848 83.6401 643.691 82.1254 641.216 79.0961C638.784 76.0241 637.568 71.5227 637.568 65.5921C637.568 59.5761 638.806 55.0534 641.28 52.0241C643.755 48.9521 646.998 47.4161 651.008 47.4161C652.672 47.4161 654.102 47.6507 655.296 48.1201C656.534 48.5467 657.6 49.1441 658.496 49.9121C659.392 50.6801 660.16 51.5547 660.8 52.5361H661.12C660.992 51.7681 660.864 50.7014 660.736 49.3361C660.651 47.9281 660.608 46.6481 660.608 45.4961V34.3601H670.336V83.0001H662.912L660.992 78.4561H660.608C660.011 79.4374 659.264 80.3121 658.368 81.0801C657.472 81.8481 656.384 82.4667 655.104 82.9361C653.867 83.4054 652.395 83.6401 650.688 83.6401ZM654.08 75.8961C656.726 75.8961 658.582 75.1494 659.648 73.6561C660.715 72.1201 661.248 69.7947 661.248 66.6801V65.6561C661.248 62.2854 660.736 59.7041 659.712 57.9121C658.688 56.1201 656.79 55.2241 654.016 55.2241C651.926 55.2241 650.283 56.1201 649.088 57.9121C647.936 59.7041 647.36 62.3067 647.36 65.7201C647.36 69.1334 647.936 71.6934 649.088 73.4001C650.283 75.0641 651.947 75.8961 654.08 75.8961Z" fill="url(#paint12_linear_112_3934)" fill-opacity="0.7"/>
<path d="M600.95 47.4161C604.79 47.4161 607.82 48.4187 610.038 50.4241C612.257 52.4294 613.366 55.6934 613.366 60.2161V83.0001H603.766V62.6481C603.766 60.1307 603.297 58.2534 602.358 57.0161C601.462 55.7361 600.054 55.0961 598.134 55.0961C595.233 55.0961 593.249 56.0987 592.182 58.1041C591.158 60.0667 590.646 62.9041 590.646 66.6161V83.0001H580.982V48.0561H588.406L589.75 52.7281H590.134C590.902 51.5761 591.82 50.6161 592.886 49.8481C593.996 49.0374 595.212 48.4401 596.534 48.0561C597.9 47.6294 599.372 47.4161 600.95 47.4161Z" fill="url(#paint13_linear_112_3934)" fill-opacity="0.7"/>
<path d="M573.238 65.4641C573.238 68.3654 572.833 70.9467 572.022 73.2081C571.254 75.4694 570.124 77.3681 568.63 78.9041C567.18 80.4401 565.409 81.6134 563.318 82.4241C561.228 83.2347 558.86 83.6401 556.214 83.6401C553.74 83.6401 551.478 83.2347 549.43 82.4241C547.382 81.6134 545.612 80.4401 544.118 78.9041C542.625 77.3681 541.452 75.4694 540.598 73.2081C539.745 70.9467 539.318 68.3654 539.318 65.4641C539.318 61.5814 540.001 58.2961 541.366 55.6081C542.732 52.9201 544.694 50.8934 547.254 49.5281C549.814 48.1201 552.865 47.4161 556.406 47.4161C559.692 47.4161 562.593 48.1201 565.11 49.5281C567.628 50.8934 569.612 52.9201 571.062 55.6081C572.513 58.2961 573.238 61.5814 573.238 65.4641ZM549.174 65.4641C549.174 67.7254 549.409 69.6667 549.878 71.2881C550.39 72.9094 551.158 74.1467 552.182 75.0001C553.249 75.8534 554.636 76.2801 556.342 76.2801C558.006 76.2801 559.35 75.8534 560.374 75.0001C561.441 74.1467 562.209 72.9094 562.678 71.2881C563.148 69.6667 563.382 67.7254 563.382 65.4641C563.382 63.1601 563.126 61.2187 562.614 59.6401C562.145 58.0614 561.398 56.8667 560.374 56.0561C559.35 55.2027 557.985 54.7761 556.278 54.7761C553.804 54.7761 551.99 55.6934 550.838 57.5281C549.729 59.3627 549.174 62.0081 549.174 65.4641ZM569.398 34.6161C568.758 35.2134 567.948 35.9601 566.966 36.8561C565.985 37.7094 564.918 38.6054 563.766 39.5441C562.614 40.4401 561.484 41.3147 560.374 42.1681C559.308 42.9787 558.369 43.6614 557.558 44.2161H551.158V43.3841C551.841 42.5734 552.63 41.6134 553.526 40.5041C554.465 39.3947 555.382 38.2641 556.278 37.1121C557.217 35.9601 557.985 34.9147 558.582 33.9761H569.398V34.6161Z" fill="url(#paint14_linear_112_3934)" fill-opacity="0.7"/>
<path d="M531.585 48.0561V83.0001H521.921V48.0561H531.585ZM526.785 34.2961C528.193 34.2961 529.409 34.6374 530.433 35.3201C531.5 35.9601 532.033 37.1974 532.033 39.0321C532.033 40.7814 531.5 41.9974 530.433 42.6801C529.409 43.3627 528.193 43.7041 526.785 43.7041C525.335 43.7041 524.097 43.3627 523.073 42.6801C522.049 41.9974 521.537 40.7814 521.537 39.0321C521.537 37.1974 522.049 35.9601 523.073 35.3201C524.097 34.6374 525.335 34.2961 526.785 34.2961Z" fill="url(#paint15_linear_112_3934)" fill-opacity="0.7"/>
<path d="M504.089 83.6401C500.719 83.6401 497.753 83.0214 495.193 81.7841C492.676 80.5041 490.713 78.5414 489.305 75.8961C487.897 73.2081 487.193 69.8161 487.193 65.7201C487.193 61.4107 487.961 57.9121 489.497 55.2241C491.033 52.5361 493.124 50.5734 495.769 49.3361C498.415 48.0561 501.423 47.4161 504.793 47.4161C506.841 47.4161 508.761 47.6294 510.553 48.0561C512.388 48.4827 514.009 49.0587 515.417 49.7841L512.537 57.0801C511.257 56.5254 509.956 56.0774 508.633 55.7361C507.353 55.3521 506.073 55.1601 504.793 55.1601C503.129 55.1601 501.721 55.5441 500.569 56.3121C499.417 57.0801 498.543 58.2534 497.945 59.8321C497.348 61.3681 497.049 63.3094 497.049 65.6561C497.049 67.9601 497.348 69.8587 497.945 71.3521C498.543 72.8454 499.417 73.9761 500.569 74.7441C501.721 75.4694 503.087 75.8321 504.665 75.8321C506.5 75.8321 508.228 75.5974 509.849 75.1281C511.471 74.6161 513.007 73.9547 514.457 73.1441V81.0161C513.135 81.8267 511.641 82.4667 509.977 82.9361C508.313 83.4054 506.351 83.6401 504.089 83.6401Z" fill="url(#paint16_linear_112_3934)" fill-opacity="0.7"/>
<path d="M471.089 83.6401C467.719 83.6401 464.753 83.0214 462.193 81.7841C459.676 80.5041 457.713 78.5414 456.305 75.8961C454.897 73.2081 454.193 69.8161 454.193 65.7201C454.193 61.4107 454.961 57.9121 456.497 55.2241C458.033 52.5361 460.124 50.5734 462.769 49.3361C465.415 48.0561 468.423 47.4161 471.793 47.4161C473.841 47.4161 475.761 47.6294 477.553 48.0561C479.388 48.4827 481.009 49.0587 482.417 49.7841L479.537 57.0801C478.257 56.5254 476.956 56.0774 475.633 55.7361C474.353 55.3521 473.073 55.1601 471.793 55.1601C470.129 55.1601 468.721 55.5441 467.569 56.3121C466.417 57.0801 465.543 58.2534 464.945 59.8321C464.348 61.3681 464.049 63.3094 464.049 65.6561C464.049 67.9601 464.348 69.8587 464.945 71.3521C465.543 72.8454 466.417 73.9761 467.569 74.7441C468.721 75.4694 470.087 75.8321 471.665 75.8321C473.5 75.8321 475.228 75.5974 476.849 75.1281C478.471 74.6161 480.007 73.9547 481.457 73.1441V81.0161C480.135 81.8267 478.641 82.4667 476.977 82.9361C475.313 83.4054 473.351 83.6401 471.089 83.6401Z" fill="url(#paint17_linear_112_3934)" fill-opacity="0.7"/>
<path d="M446.424 48.0561V83.0001H439L437.784 78.5201H437.208C436.483 79.7147 435.544 80.6961 434.392 81.4641C433.283 82.2321 432.046 82.7867 430.68 83.1281C429.358 83.4694 427.95 83.6401 426.456 83.6401C423.982 83.6401 421.806 83.1921 419.928 82.2961C418.094 81.4001 416.643 80.0134 415.576 78.1361C414.552 76.2587 414.04 73.8267 414.04 70.8401V48.0561H423.768V68.4081C423.768 70.8827 424.195 72.7601 425.048 74.0401C425.944 75.2774 427.352 75.8961 429.272 75.8961C431.235 75.8961 432.75 75.4694 433.816 74.6161C434.926 73.7201 435.694 72.4187 436.12 70.7121C436.547 69.0054 436.76 66.9147 436.76 64.4401V48.0561H446.424Z" fill="url(#paint18_linear_112_3934)" fill-opacity="0.7"/>
<path d="M385.251 83.6401C381.411 83.6401 378.254 82.1254 375.779 79.0961C373.347 76.0241 372.131 71.5227 372.131 65.5921C372.131 59.5761 373.368 55.0534 375.843 52.0241C378.318 48.9521 381.56 47.4161 385.571 47.4161C387.235 47.4161 388.664 47.6507 389.859 48.1201C391.096 48.5467 392.163 49.1441 393.059 49.9121C393.955 50.6801 394.723 51.5547 395.363 52.5361H395.683C395.555 51.7681 395.427 50.7014 395.299 49.3361C395.214 47.9281 395.171 46.6481 395.171 45.4961V34.3601H404.899V83.0001H397.475L395.555 78.4561H395.171C394.574 79.4374 393.827 80.3121 392.931 81.0801C392.035 81.8481 390.947 82.4667 389.667 82.9361C388.43 83.4054 386.958 83.6401 385.251 83.6401ZM388.643 75.8961C391.288 75.8961 393.144 75.1494 394.211 73.6561C395.278 72.1201 395.811 69.7947 395.811 66.6801V65.6561C395.811 62.2854 395.299 59.7041 394.275 57.9121C393.251 56.1201 391.352 55.2241 388.579 55.2241C386.488 55.2241 384.846 56.1201 383.651 57.9121C382.499 59.7041 381.923 62.3067 381.923 65.7201C381.923 69.1334 382.499 71.6934 383.651 73.4001C384.846 75.0641 386.51 75.8961 388.643 75.8961Z" fill="url(#paint19_linear_112_3934)" fill-opacity="0.7"/>
<path d="M351.098 47.4161C355.493 47.4161 358.842 48.4614 361.146 50.5521C363.45 52.6001 364.602 55.6507 364.602 59.7041V83.0001H357.882L356.026 78.2641H355.77C354.789 79.5014 353.765 80.5254 352.698 81.3361C351.674 82.1467 350.48 82.7227 349.114 83.0641C347.749 83.4481 346.085 83.6401 344.122 83.6401C342.074 83.6401 340.24 83.2561 338.618 82.4881C336.997 81.6774 335.717 80.4614 334.778 78.8401C333.84 77.2187 333.37 75.1707 333.37 72.6961C333.37 69.0267 334.693 66.2747 337.338 64.4401C339.984 62.6054 343.93 61.5814 349.178 61.3681L355.002 61.1761V60.0881C355.002 57.9974 354.533 56.5467 353.594 55.7361C352.656 54.8827 351.333 54.4561 349.626 54.4561C348.048 54.4561 346.426 54.7121 344.762 55.2241C343.098 55.7361 341.456 56.3547 339.834 57.0801L337.018 50.4881C338.853 49.5494 340.944 48.8027 343.29 48.2481C345.68 47.6934 348.282 47.4161 351.098 47.4161ZM351.354 67.0001C348.325 67.0854 346.213 67.5761 345.018 68.4721C343.824 69.3681 343.226 70.6267 343.226 72.2481C343.226 73.7414 343.632 74.8507 344.442 75.5761C345.296 76.2587 346.426 76.6001 347.834 76.6001C349.84 76.6001 351.525 76.0027 352.89 74.8081C354.298 73.6134 355.002 71.9067 355.002 69.6881V66.8081L351.354 67.0001Z" fill="url(#paint20_linear_112_3934)" fill-opacity="0.7"/>
<path d="M327.435 47.4161C328.075 47.4161 328.758 47.4587 329.483 47.5441C330.251 47.5867 330.849 47.6721 331.275 47.8001L330.315 56.8241C329.846 56.7387 329.291 56.6534 328.651 56.5681C328.011 56.4827 327.243 56.4401 326.347 56.4401C325.366 56.4401 324.363 56.5894 323.339 56.8881C322.358 57.1867 321.441 57.6774 320.587 58.3601C319.734 59.0427 319.051 59.9387 318.539 61.0481C318.027 62.1574 317.771 63.5654 317.771 65.2721V83.0001H308.107V48.0561H315.467L316.875 53.9441H317.323C318.006 52.7067 318.859 51.5974 319.883 50.6161C320.907 49.6347 322.059 48.8667 323.339 48.3121C324.619 47.7147 325.985 47.4161 327.435 47.4161Z" fill="url(#paint21_linear_112_3934)" fill-opacity="0.7"/>
<path d="M293.045 83.0001H283.253V45.4321H270.901V37.3041H305.397V45.4321H293.045V83.0001Z" fill="url(#paint22_linear_112_3934)" fill-opacity="0.7"/>
</g>
</g>
<path d="M170 72H1231V105C1231 111.627 1225.63 117 1219 117H182C175.373 117 170 111.627 170 105V72Z" fill="url(#paint23_linear_112_3934)"/>
<path d="M1104.68 33.6881C1104.68 35.0107 1104.64 36.2694 1104.55 37.4641C1104.51 38.6587 1104.42 39.7041 1104.3 40.6001H1104.68C1105.62 39.1494 1106.88 37.9334 1108.46 36.9521C1110.03 35.9281 1112.08 35.4161 1114.6 35.4161C1118.48 35.4161 1121.64 36.9521 1124.07 40.0241C1126.5 43.0534 1127.72 47.5334 1127.72 53.4641C1127.72 57.4321 1127.17 60.7814 1126.06 63.5121C1124.95 66.2001 1123.37 68.2267 1121.32 69.5921C1119.31 70.9574 1116.99 71.6401 1114.34 71.6401C1111.78 71.6401 1109.76 71.1921 1108.26 70.2961C1106.81 69.3574 1105.62 68.3334 1104.68 67.2241H1104.04L1102.44 71.0001H1095.02V22.3601H1104.68V33.6881ZM1111.46 43.0961C1109.84 43.0961 1108.52 43.4374 1107.5 44.1201C1106.51 44.8027 1105.79 45.8481 1105.32 47.2561C1104.89 48.6214 1104.68 50.4134 1104.68 52.6321V53.7841C1104.68 57.0694 1105.17 59.5654 1106.15 61.2721C1107.18 62.9787 1108.99 63.8321 1111.59 63.8321C1113.68 63.8321 1115.26 62.9361 1116.33 61.1441C1117.39 59.3521 1117.93 56.7494 1117.93 53.3361C1117.93 49.9654 1117.39 47.4267 1116.33 45.7201C1115.3 43.9707 1113.68 43.0961 1111.46 43.0961Z" fill="url(#paint24_linear_112_3934)"/>
<path d="M1071.74 35.4161C1074.98 35.4161 1077.78 36.0347 1080.12 37.2721C1082.47 38.4667 1084.26 40.2587 1085.5 42.6481C1086.78 44.9947 1087.42 47.8747 1087.42 51.2881V55.9601H1064.96C1065.04 58.6054 1065.85 60.6961 1067.39 62.2321C1068.92 63.7254 1071.12 64.4721 1073.98 64.4721C1076.16 64.4721 1078.14 64.2587 1079.93 63.8321C1081.72 63.4054 1083.56 62.7654 1085.44 61.9121V69.1441C1083.73 69.9974 1081.92 70.6161 1080 71.0001C1078.12 71.4267 1075.77 71.6401 1072.96 71.6401C1069.5 71.6401 1066.43 71.0001 1063.74 69.7201C1061.09 68.4401 1059 66.4774 1057.47 63.8321C1055.93 61.1441 1055.16 57.7947 1055.16 53.7841C1055.16 49.6881 1055.85 46.2961 1057.21 43.6081C1058.62 40.8774 1060.56 38.8294 1063.04 37.4641C1065.55 36.0987 1068.45 35.4161 1071.74 35.4161ZM1072 42.2641C1070.08 42.2641 1068.52 42.8827 1067.32 44.1201C1066.13 45.3147 1065.43 47.1067 1065.21 49.4961H1078.4C1078.4 48.0881 1078.16 46.8507 1077.69 45.7841C1077.22 44.7174 1076.5 43.8641 1075.52 43.2241C1074.58 42.5841 1073.4 42.2641 1072 42.2641Z" fill="url(#paint25_linear_112_3934)"/>
<path d="M1028.38 58.7761C1028.21 58.0507 1027.96 56.9841 1027.62 55.5761C1027.32 54.1254 1026.98 52.5894 1026.59 50.9681C1026.21 49.3041 1025.85 47.7894 1025.5 46.4241C1025.16 45.0161 1024.93 43.9921 1024.8 43.3521H1024.54C1024.42 43.9921 1024.18 45.0161 1023.84 46.4241C1023.54 47.7894 1023.2 49.3041 1022.82 50.9681C1022.43 52.5894 1022.07 54.1254 1021.73 55.5761C1021.39 57.0267 1021.13 58.1361 1020.96 58.9041L1018.14 71.0001H1007.9L997.984 36.0561H1007.46L1011.49 51.5441C1011.79 52.6107 1012.04 53.8907 1012.26 55.3841C1012.51 56.8774 1012.75 58.3281 1012.96 59.7361C1013.17 61.1014 1013.32 62.1894 1013.41 63.0001H1013.66C1013.71 62.4027 1013.79 61.6134 1013.92 60.6321C1014.05 59.6081 1014.2 58.5627 1014.37 57.4961C1014.58 56.4294 1014.75 55.4694 1014.88 54.6161C1015.05 53.7201 1015.18 53.1227 1015.26 52.8241L1019.55 36.0561H1030.05L1034.14 52.8241C1034.31 53.4214 1034.51 54.3814 1034.72 55.7041C1034.98 57.0267 1035.19 58.3707 1035.36 59.7361C1035.57 61.1014 1035.68 62.1894 1035.68 63.0001H1035.94C1036.02 62.2747 1036.17 61.2294 1036.38 59.8641C1036.6 58.4561 1036.83 56.9841 1037.09 55.4481C1037.39 53.9121 1037.69 52.6107 1037.98 51.5441L1042.14 36.0561H1051.49L1041.44 71.0001H1031.07L1028.38 58.7761Z" fill="url(#paint26_linear_112_3934)"/>
<path d="M978.034 60.6961C978.034 62.9147 977.501 64.8561 976.434 66.5201C975.41 68.1414 973.831 69.4001 971.698 70.2961C969.564 71.1921 966.855 71.6401 963.57 71.6401C961.095 71.6401 958.919 71.4694 957.042 71.1281C955.164 70.8294 953.351 70.3174 951.602 69.5921V61.5921C953.479 62.4881 955.506 63.1921 957.682 63.7041C959.858 64.2161 961.735 64.4721 963.314 64.4721C965.276 64.4721 966.684 64.1947 967.538 63.6401C968.434 63.0854 968.882 62.3387 968.882 61.4001C968.882 60.7601 968.647 60.1841 968.178 59.6721C967.751 59.1601 966.962 58.6267 965.81 58.0721C964.7 57.5174 963.1 56.8347 961.01 56.0241C958.919 55.1707 957.17 54.2961 955.762 53.4001C954.354 52.4614 953.287 51.3521 952.562 50.0721C951.879 48.7921 951.538 47.1921 951.538 45.2721C951.538 42.0721 952.796 39.6401 955.314 37.9761C957.874 36.2694 961.245 35.4161 965.426 35.4161C967.687 35.4161 969.778 35.6507 971.698 36.1201C973.66 36.5894 975.645 37.2507 977.65 38.1041L974.834 44.6961C973.212 43.9707 971.548 43.3734 969.842 42.9041C968.135 42.4347 966.62 42.2001 965.298 42.2001C963.847 42.2001 962.716 42.4347 961.906 42.9041C961.095 43.3307 960.69 43.9494 960.69 44.7601C960.69 45.3574 960.903 45.8907 961.33 46.3601C961.799 46.8294 962.588 47.3201 963.698 47.8321C964.85 48.3441 966.45 49.0054 968.498 49.8161C970.588 50.6267 972.338 51.5014 973.746 52.4401C975.196 53.3361 976.263 54.4454 976.946 55.7681C977.671 57.0481 978.034 58.6907 978.034 60.6961Z" fill="url(#paint27_linear_112_3934)"/>
<path d="M930.569 35.4161C934.964 35.4161 938.313 36.4614 940.617 38.5521C942.921 40.6001 944.073 43.6507 944.073 47.7041V71.0001H937.353L935.497 66.2641H935.241C934.26 67.5014 933.236 68.5254 932.169 69.3361C931.145 70.1467 929.951 70.7227 928.585 71.0641C927.22 71.4481 925.556 71.6401 923.593 71.6401C921.545 71.6401 919.711 71.2561 918.089 70.4881C916.468 69.6774 915.188 68.4614 914.249 66.8401C913.311 65.2187 912.841 63.1707 912.841 60.6961C912.841 57.0267 914.164 54.2747 916.809 52.4401C919.455 50.6054 923.401 49.5814 928.649 49.3681L934.473 49.1761V48.0881C934.473 45.9974 934.004 44.5467 933.065 43.7361C932.127 42.8827 930.804 42.4561 929.097 42.4561C927.519 42.4561 925.897 42.7121 924.233 43.2241C922.569 43.7361 920.927 44.3547 919.305 45.0801L916.489 38.4881C918.324 37.5494 920.415 36.8027 922.761 36.2481C925.151 35.6934 927.753 35.4161 930.569 35.4161ZM930.825 55.0001C927.796 55.0854 925.684 55.5761 924.489 56.4721C923.295 57.3681 922.697 58.6267 922.697 60.2481C922.697 61.7414 923.103 62.8507 923.913 63.5761C924.767 64.2587 925.897 64.6001 927.305 64.6001C929.311 64.6001 930.996 64.0027 932.361 62.8081C933.769 61.6134 934.473 59.9067 934.473 57.6881V54.8081L930.825 55.0001Z" fill="url(#paint28_linear_112_3934)"/>
<path d="M893.296 35.4161C897.136 35.4161 900.166 36.4187 902.384 38.4241C904.603 40.4294 905.712 43.6934 905.712 48.2161V71.0001H896.112V50.6481C896.112 48.1307 895.643 46.2534 894.704 45.0161C893.808 43.7361 892.4 43.0961 890.48 43.0961C887.579 43.0961 885.595 44.0987 884.528 46.1041C883.504 48.0667 882.992 50.9041 882.992 54.6161V71.0001H873.328V36.0561H880.752L882.096 40.7281H882.48C883.248 39.5761 884.166 38.6161 885.232 37.8481C886.342 37.0374 887.558 36.4401 888.88 36.0561C890.246 35.6294 891.718 35.4161 893.296 35.4161Z" fill="url(#paint29_linear_112_3934)"/>
<path d="M863.931 36.0561V71.0001H854.267V36.0561H863.931ZM859.131 22.2961C860.539 22.2961 861.755 22.6374 862.779 23.3201C863.846 23.9601 864.379 25.1974 864.379 27.0321C864.379 28.7814 863.846 29.9974 862.779 30.6801C861.755 31.3627 860.539 31.7041 859.131 31.7041C857.681 31.7041 856.443 31.3627 855.419 30.6801C854.395 29.9974 853.883 28.7814 853.883 27.0321C853.883 25.1974 854.395 23.9601 855.419 23.3201C856.443 22.6374 857.681 22.2961 859.131 22.2961Z" fill="url(#paint30_linear_112_3934)"/>
<path d="M825.414 35.4161C827.846 35.4161 829.873 35.8854 831.494 36.8241C833.115 37.7201 834.459 38.9361 835.526 40.4721H835.782L836.678 36.0561H844.87V71.2561C844.87 74.5414 844.23 77.2934 842.95 79.5121C841.67 81.7734 839.728 83.4801 837.126 84.6321C834.566 85.7841 831.302 86.3601 827.334 86.3601C824.646 86.3601 822.235 86.1894 820.102 85.8481C817.968 85.5494 815.963 85.0161 814.086 84.2481V76.0561C816.006 76.9094 817.968 77.5707 819.974 78.0401C822.022 78.5094 824.368 78.7441 827.014 78.7441C829.702 78.7441 831.728 78.1254 833.094 76.8881C834.502 75.6507 835.206 73.9441 835.206 71.7681V70.8081C835.206 70.2961 835.227 69.6134 835.27 68.7601C835.355 67.9067 835.44 67.1601 835.526 66.5201H835.206C834.224 68.0561 832.923 69.2934 831.302 70.2321C829.723 71.1707 827.739 71.6401 825.35 71.6401C821.339 71.6401 818.118 70.0827 815.686 66.9681C813.296 63.8534 812.102 59.3947 812.102 53.5921C812.102 47.7894 813.318 43.3094 815.75 40.1521C818.182 36.9947 821.403 35.4161 825.414 35.4161ZM828.55 43.0321C827.142 43.0321 825.926 43.4374 824.902 44.2481C823.92 45.0587 823.174 46.2534 822.662 47.8321C822.192 49.4107 821.958 51.3734 821.958 53.7201C821.958 57.2187 822.512 59.8214 823.622 61.5281C824.774 63.2347 826.48 64.0881 828.742 64.0881C830.022 64.0881 831.11 63.8961 832.006 63.5121C832.902 63.1281 833.627 62.5734 834.182 61.8481C834.736 61.0801 835.142 60.1201 835.398 58.9681C835.696 57.8161 835.846 56.4507 835.846 54.8721V53.4641C835.846 51.1174 835.611 49.1761 835.142 47.6401C834.672 46.1041 833.904 44.9521 832.838 44.1841C831.771 43.4161 830.342 43.0321 828.55 43.0321Z" fill="url(#paint31_linear_112_3934)"/>
<path d="M791.069 35.4161C795.464 35.4161 798.813 36.4614 801.117 38.5521C803.421 40.6001 804.573 43.6507 804.573 47.7041V71.0001H797.853L795.997 66.2641H795.741C794.76 67.5014 793.736 68.5254 792.669 69.3361C791.645 70.1467 790.451 70.7227 789.085 71.0641C787.72 71.4481 786.056 71.6401 784.093 71.6401C782.045 71.6401 780.211 71.2561 778.589 70.4881C776.968 69.6774 775.688 68.4614 774.749 66.8401C773.811 65.2187 773.341 63.1707 773.341 60.6961C773.341 57.0267 774.664 54.2747 777.309 52.4401C779.955 50.6054 783.901 49.5814 789.149 49.3681L794.973 49.1761V48.0881C794.973 45.9974 794.504 44.5467 793.565 43.7361C792.627 42.8827 791.304 42.4561 789.597 42.4561C788.019 42.4561 786.397 42.7121 784.733 43.2241C783.069 43.7361 781.427 44.3547 779.805 45.0801L776.989 38.4881C778.824 37.5494 780.915 36.8027 783.261 36.2481C785.651 35.6934 788.253 35.4161 791.069 35.4161ZM791.325 55.0001C788.296 55.0854 786.184 55.5761 784.989 56.4721C783.795 57.3681 783.197 58.6267 783.197 60.2481C783.197 61.7414 783.603 62.8507 784.413 63.5761C785.267 64.2587 786.397 64.6001 787.805 64.6001C789.811 64.6001 791.496 64.0027 792.861 62.8081C794.269 61.6134 794.973 59.9067 794.973 57.6881V54.8081L791.325 55.0001ZM803.037 22.6161C802.397 23.2134 801.587 23.9601 800.605 24.8561C799.624 25.7094 798.557 26.6054 797.405 27.5441C796.253 28.4401 795.123 29.3147 794.013 30.1681C792.947 30.9787 792.008 31.6614 791.197 32.2161H784.797V31.3841C785.48 30.5734 786.269 29.6134 787.165 28.5041C788.104 27.3947 789.021 26.2641 789.917 25.1121C790.856 23.9601 791.624 22.9147 792.221 21.9761H803.037V22.6161Z" fill="url(#paint32_linear_112_3934)"/>
<path d="M754.6 35.4161C758.653 35.4161 761.853 36.9521 764.2 40.0241C766.546 43.0534 767.72 47.5334 767.72 53.4641C767.72 57.3894 767.144 60.7174 765.992 63.4481C764.882 66.1787 763.325 68.2267 761.32 69.5921C759.314 70.9574 756.989 71.6401 754.344 71.6401C752.637 71.6401 751.165 71.4267 749.928 71.0001C748.69 70.5307 747.645 69.9761 746.792 69.3361C745.981 68.6534 745.277 67.9494 744.68 67.2241H744.296C744.381 67.9921 744.466 68.8881 744.552 69.9121C744.637 70.8934 744.68 71.9174 744.68 72.9841V86.3601H735.016V36.0561H742.888L744.232 40.6001H744.68C745.32 39.6187 746.066 38.7441 746.92 37.9761C747.816 37.2081 748.882 36.5894 750.12 36.1201C751.4 35.6507 752.893 35.4161 754.6 35.4161ZM751.4 43.0961C749.778 43.0961 748.477 43.4374 747.496 44.1201C746.514 44.8027 745.81 45.8267 745.384 47.1921C744.957 48.5574 744.722 50.2854 744.68 52.3761V53.4001C744.68 55.6187 744.872 57.5174 745.256 59.0961C745.682 60.6321 746.386 61.8054 747.368 62.6161C748.392 63.4267 749.757 63.8321 751.464 63.8321C752.914 63.8321 754.109 63.4267 755.048 62.6161C756.029 61.8054 756.754 60.6321 757.224 59.0961C757.693 57.5174 757.928 55.5974 757.928 53.3361C757.928 49.8801 757.373 47.3201 756.264 45.6561C755.197 43.9494 753.576 43.0961 751.4 43.0961Z" fill="url(#paint33_linear_112_3934)"/>
<path d="M695.115 35.4161C698.358 35.4161 701.153 36.0347 703.499 37.2721C705.846 38.4667 707.638 40.2587 708.875 42.6481C710.155 44.9947 710.795 47.8747 710.795 51.2881V55.9601H688.331C688.417 58.6054 689.227 60.6961 690.763 62.2321C692.299 63.7254 694.497 64.4721 697.355 64.4721C699.531 64.4721 701.515 64.2587 703.307 63.8321C705.099 63.4054 706.934 62.7654 708.811 61.9121V69.1441C707.105 69.9974 705.291 70.6161 703.371 71.0001C701.494 71.4267 699.147 71.6401 696.331 71.6401C692.875 71.6401 689.803 71.0001 687.115 69.7201C684.47 68.4401 682.379 66.4774 680.843 63.8321C679.307 61.1441 678.539 57.7947 678.539 53.7841C678.539 49.6881 679.222 46.2961 680.587 43.6081C681.995 40.8774 683.937 38.8294 686.411 37.4641C688.929 36.0987 691.83 35.4161 695.115 35.4161ZM695.371 42.2641C693.451 42.2641 691.894 42.8827 690.699 44.1201C689.505 45.3147 688.801 47.1067 688.587 49.4961H701.771C701.771 48.0881 701.537 46.8507 701.067 45.7841C700.598 44.7174 699.873 43.8641 698.891 43.2241C697.953 42.5841 696.779 42.2641 695.371 42.2641Z" fill="url(#paint34_linear_112_3934)"/>
<path d="M651.222 71.6401C647.382 71.6401 644.224 70.1254 641.75 67.0961C639.318 64.0241 638.102 59.5227 638.102 53.5921C638.102 47.5761 639.339 43.0534 641.814 40.0241C644.288 36.9521 647.531 35.4161 651.542 35.4161C653.206 35.4161 654.635 35.6507 655.83 36.1201C657.067 36.5467 658.134 37.1441 659.03 37.9121C659.926 38.6801 660.694 39.5547 661.334 40.5361H661.654C661.526 39.7681 661.398 38.7014 661.27 37.3361C661.184 35.9281 661.142 34.6481 661.142 33.4961V22.3601H670.87V71.0001H663.446L661.526 66.4561H661.142C660.544 67.4374 659.798 68.3121 658.902 69.0801C658.006 69.8481 656.918 70.4667 655.638 70.9361C654.4 71.4054 652.928 71.6401 651.222 71.6401ZM654.614 63.8961C657.259 63.8961 659.115 63.1494 660.182 61.6561C661.248 60.1201 661.782 57.7947 661.782 54.6801V53.6561C661.782 50.2854 661.27 47.7041 660.246 45.9121C659.222 44.1201 657.323 43.2241 654.55 43.2241C652.459 43.2241 650.816 44.1201 649.622 45.9121C648.47 47.7041 647.894 50.3067 647.894 53.7201C647.894 57.1334 648.47 59.6934 649.622 61.4001C650.816 63.0641 652.48 63.8961 654.614 63.8961Z" fill="url(#paint35_linear_112_3934)"/>
<path d="M601.484 35.4161C605.324 35.4161 608.353 36.4187 610.572 38.4241C612.79 40.4294 613.9 43.6934 613.9 48.2161V71.0001H604.3V50.6481C604.3 48.1307 603.83 46.2534 602.892 45.0161C601.996 43.7361 600.588 43.0961 598.668 43.0961C595.766 43.0961 593.782 44.0987 592.716 46.1041C591.692 48.0667 591.18 50.9041 591.18 54.6161V71.0001H581.516V36.0561H588.94L590.284 40.7281H590.668C591.436 39.5761 592.353 38.6161 593.42 37.8481C594.529 37.0374 595.745 36.4401 597.068 36.0561C598.433 35.6294 599.905 35.4161 601.484 35.4161Z" fill="url(#paint36_linear_112_3934)"/>
<path d="M573.772 53.4641C573.772 56.3654 573.366 58.9467 572.556 61.2081C571.788 63.4694 570.657 65.3681 569.164 66.9041C567.713 68.4401 565.942 69.6134 563.852 70.4241C561.761 71.2347 559.393 71.6401 556.748 71.6401C554.273 71.6401 552.012 71.2347 549.964 70.4241C547.916 69.6134 546.145 68.4401 544.652 66.9041C543.158 65.3681 541.985 63.4694 541.132 61.2081C540.278 58.9467 539.852 56.3654 539.852 53.4641C539.852 49.5814 540.534 46.2961 541.9 43.6081C543.265 40.9201 545.228 38.8934 547.788 37.5281C550.348 36.1201 553.398 35.4161 556.94 35.4161C560.225 35.4161 563.126 36.1201 565.644 37.5281C568.161 38.8934 570.145 40.9201 571.596 43.6081C573.046 46.2961 573.772 49.5814 573.772 53.4641ZM549.708 53.4641C549.708 55.7254 549.942 57.6667 550.412 59.2881C550.924 60.9094 551.692 62.1467 552.716 63.0001C553.782 63.8534 555.169 64.2801 556.876 64.2801C558.54 64.2801 559.884 63.8534 560.908 63.0001C561.974 62.1467 562.742 60.9094 563.212 59.2881C563.681 57.6667 563.916 55.7254 563.916 53.4641C563.916 51.1601 563.66 49.2187 563.148 47.6401C562.678 46.0614 561.932 44.8667 560.908 44.0561C559.884 43.2027 558.518 42.7761 556.812 42.7761C554.337 42.7761 552.524 43.6934 551.372 45.5281C550.262 47.3627 549.708 50.0081 549.708 53.4641ZM569.932 22.6161C569.292 23.2134 568.481 23.9601 567.5 24.8561C566.518 25.7094 565.452 26.6054 564.3 27.5441C563.148 28.4401 562.017 29.3147 560.908 30.1681C559.841 30.9787 558.902 31.6614 558.092 32.2161H551.692V31.3841C552.374 30.5734 553.164 29.6134 554.06 28.5041C554.998 27.3947 555.916 26.2641 556.812 25.1121C557.75 23.9601 558.518 22.9147 559.116 21.9761H569.932V22.6161Z" fill="url(#paint37_linear_112_3934)"/>
<path d="M532.119 36.0561V71.0001H522.455V36.0561H532.119ZM527.319 22.2961C528.727 22.2961 529.943 22.6374 530.967 23.3201C532.033 23.9601 532.567 25.1974 532.567 27.0321C532.567 28.7814 532.033 29.9974 530.967 30.6801C529.943 31.3627 528.727 31.7041 527.319 31.7041C525.868 31.7041 524.631 31.3627 523.607 30.6801C522.583 29.9974 522.071 28.7814 522.071 27.0321C522.071 25.1974 522.583 23.9601 523.607 23.3201C524.631 22.6374 525.868 22.2961 527.319 22.2961Z" fill="url(#paint38_linear_112_3934)"/>
<path d="M504.623 71.6401C501.252 71.6401 498.287 71.0214 495.727 69.7841C493.209 68.5041 491.247 66.5414 489.839 63.8961C488.431 61.2081 487.727 57.8161 487.727 53.7201C487.727 49.4107 488.495 45.9121 490.031 43.2241C491.567 40.5361 493.657 38.5734 496.303 37.3361C498.948 36.0561 501.956 35.4161 505.327 35.4161C507.375 35.4161 509.295 35.6294 511.087 36.0561C512.921 36.4827 514.543 37.0587 515.951 37.7841L513.071 45.0801C511.791 44.5254 510.489 44.0774 509.167 43.7361C507.887 43.3521 506.607 43.1601 505.327 43.1601C503.663 43.1601 502.255 43.5441 501.103 44.3121C499.951 45.0801 499.076 46.2534 498.479 47.8321C497.881 49.3681 497.583 51.3094 497.583 53.6561C497.583 55.9601 497.881 57.8587 498.479 59.3521C499.076 60.8454 499.951 61.9761 501.103 62.7441C502.255 63.4694 503.62 63.8321 505.199 63.8321C507.033 63.8321 508.761 63.5974 510.383 63.1281C512.004 62.6161 513.54 61.9547 514.991 61.1441V69.0161C513.668 69.8267 512.175 70.4667 510.511 70.9361C508.847 71.4054 506.884 71.6401 504.623 71.6401Z" fill="url(#paint39_linear_112_3934)"/>
<path d="M471.623 71.6401C468.252 71.6401 465.287 71.0214 462.727 69.7841C460.209 68.5041 458.247 66.5414 456.839 63.8961C455.431 61.2081 454.727 57.8161 454.727 53.7201C454.727 49.4107 455.495 45.9121 457.031 43.2241C458.567 40.5361 460.657 38.5734 463.303 37.3361C465.948 36.0561 468.956 35.4161 472.327 35.4161C474.375 35.4161 476.295 35.6294 478.087 36.0561C479.921 36.4827 481.543 37.0587 482.951 37.7841L480.071 45.0801C478.791 44.5254 477.489 44.0774 476.167 43.7361C474.887 43.3521 473.607 43.1601 472.327 43.1601C470.663 43.1601 469.255 43.5441 468.103 44.3121C466.951 45.0801 466.076 46.2534 465.479 47.8321C464.881 49.3681 464.583 51.3094 464.583 53.6561C464.583 55.9601 464.881 57.8587 465.479 59.3521C466.076 60.8454 466.951 61.9761 468.103 62.7441C469.255 63.4694 470.62 63.8321 472.199 63.8321C474.033 63.8321 475.761 63.5974 477.383 63.1281C479.004 62.6161 480.54 61.9547 481.991 61.1441V69.0161C480.668 69.8267 479.175 70.4667 477.511 70.9361C475.847 71.4054 473.884 71.6401 471.623 71.6401Z" fill="url(#paint40_linear_112_3934)"/>
<path d="M446.958 36.0561V71.0001H439.534L438.318 66.5201H437.742C437.016 67.7147 436.078 68.6961 434.926 69.4641C433.816 70.2321 432.579 70.7867 431.214 71.1281C429.891 71.4694 428.483 71.6401 426.99 71.6401C424.515 71.6401 422.339 71.1921 420.462 70.2961C418.627 69.4001 417.176 68.0134 416.11 66.1361C415.086 64.2587 414.574 61.8267 414.574 58.8401V36.0561H424.302V56.4081C424.302 58.8827 424.728 60.7601 425.582 62.0401C426.478 63.2774 427.886 63.8961 429.806 63.8961C431.768 63.8961 433.283 63.4694 434.35 62.6161C435.459 61.7201 436.227 60.4187 436.654 58.7121C437.08 57.0054 437.294 54.9147 437.294 52.4401V36.0561H446.958Z" fill="url(#paint41_linear_112_3934)"/>
<path d="M385.784 71.6401C381.944 71.6401 378.787 70.1254 376.312 67.0961C373.88 64.0241 372.664 59.5227 372.664 53.5921C372.664 47.5761 373.902 43.0534 376.376 40.0241C378.851 36.9521 382.094 35.4161 386.104 35.4161C387.768 35.4161 389.198 35.6507 390.392 36.1201C391.63 36.5467 392.696 37.1441 393.592 37.9121C394.488 38.6801 395.256 39.5547 395.896 40.5361H396.216C396.088 39.7681 395.96 38.7014 395.832 37.3361C395.747 35.9281 395.704 34.6481 395.704 33.4961V22.3601H405.432V71.0001H398.008L396.088 66.4561H395.704C395.107 67.4374 394.36 68.3121 393.464 69.0801C392.568 69.8481 391.48 70.4667 390.2 70.9361C388.963 71.4054 387.491 71.6401 385.784 71.6401ZM389.176 63.8961C391.822 63.8961 393.678 63.1494 394.744 61.6561C395.811 60.1201 396.344 57.7947 396.344 54.6801V53.6561C396.344 50.2854 395.832 47.7041 394.808 45.9121C393.784 44.1201 391.886 43.2241 389.112 43.2241C387.022 43.2241 385.379 44.1201 384.184 45.9121C383.032 47.7041 382.456 50.3067 382.456 53.7201C382.456 57.1334 383.032 59.6934 384.184 61.4001C385.379 63.0641 387.043 63.8961 389.176 63.8961Z" fill="url(#paint42_linear_112_3934)"/>
<path d="M351.632 35.4161C356.026 35.4161 359.376 36.4614 361.68 38.5521C363.984 40.6001 365.136 43.6507 365.136 47.7041V71.0001H358.416L356.56 66.2641H356.304C355.322 67.5014 354.298 68.5254 353.232 69.3361C352.208 70.1467 351.013 70.7227 349.648 71.0641C348.282 71.4481 346.618 71.6401 344.656 71.6401C342.608 71.6401 340.773 71.2561 339.152 70.4881C337.53 69.6774 336.25 68.4614 335.312 66.8401C334.373 65.2187 333.904 63.1707 333.904 60.6961C333.904 57.0267 335.226 54.2747 337.872 52.4401C340.517 50.6054 344.464 49.5814 349.712 49.3681L355.536 49.1761V48.0881C355.536 45.9974 355.066 44.5467 354.128 43.7361C353.189 42.8827 351.866 42.4561 350.16 42.4561C348.581 42.4561 346.96 42.7121 345.296 43.2241C343.632 43.7361 341.989 44.3547 340.368 45.0801L337.552 38.4881C339.386 37.5494 341.477 36.8027 343.824 36.2481C346.213 35.6934 348.816 35.4161 351.632 35.4161ZM351.888 55.0001C348.858 55.0854 346.746 55.5761 345.552 56.4721C344.357 57.3681 343.76 58.6267 343.76 60.2481C343.76 61.7414 344.165 62.8507 344.976 63.5761C345.829 64.2587 346.96 64.6001 348.368 64.6001C350.373 64.6001 352.058 64.0027 353.424 62.8081C354.832 61.6134 355.536 59.9067 355.536 57.6881V54.8081L351.888 55.0001Z" fill="url(#paint43_linear_112_3934)"/>
<path d="M327.969 35.4161C328.609 35.4161 329.291 35.4587 330.017 35.5441C330.785 35.5867 331.382 35.6721 331.809 35.8001L330.849 44.8241C330.379 44.7387 329.825 44.6534 329.185 44.5681C328.545 44.4827 327.777 44.4401 326.881 44.4401C325.899 44.4401 324.897 44.5894 323.873 44.8881C322.891 45.1867 321.974 45.6774 321.121 46.3601C320.267 47.0427 319.585 47.9387 319.073 49.0481C318.561 50.1574 318.305 51.5654 318.305 53.2721V71.0001H308.641V36.0561H316.001L317.409 41.9441H317.857C318.539 40.7067 319.393 39.5974 320.417 38.6161C321.441 37.6347 322.593 36.8667 323.873 36.3121C325.153 35.7147 326.518 35.4161 327.969 35.4161Z" fill="url(#paint44_linear_112_3934)"/>
<path d="M293.579 71.0001H283.787V33.4321H271.435V25.3041H305.931V33.4321H293.579V71.0001Z" fill="url(#paint45_linear_112_3934)"/>
<defs>
<filter id="filter0_f_112_3934" x="250.901" y="13.9761" width="896.285" height="104.384" filterUnits="userSpaceOnUse" color-interpolation-filters="sRGB">
<feFlood flood-opacity="0" result="BackgroundImageFix"/>
<feBlend mode="normal" in="SourceGraphic" in2="BackgroundImageFix" result="shape"/>
<feGaussianBlur stdDeviation="10" result="effect1_foregroundBlur_112_3934"/>
</filter>
<linearGradient id="paint0_linear_112_3934" x1="170" y1="64.0036" x2="1231" y2="64.0023" gradientUnits="userSpaceOnUse">
<stop stop-color="white" stop-opacity="0.3"/>
<stop offset="0.359008" stop-color="#CBB0F8"/>
<stop offset="0.788712" stop-color="#FCD9ED"/>
<stop offset="1" stop-color="white" stop-opacity="0.3"/>
</linearGradient>
<linearGradient id="paint1_linear_112_3934" x1="1213.07" y1="65.5148" x2="-21330.4" y2="65.5889" gradientUnits="userSpaceOnUse">
<stop stop-color="#F4439F"/>
<stop offset="1" stop-color="#7C3AED"/>
</linearGradient>
<linearGradient id="paint2_linear_112_3934" x1="2284.08" y1="53.6766" x2="-20572.5" y2="53.7325" gradientUnits="userSpaceOnUse">
<stop stop-color="#F4439F"/>
<stop offset="1" stop-color="#7C3AED"/>
</linearGradient>
<linearGradient id="paint3_linear_112_3934" x1="2399.71" y1="53.2191" x2="-11379.9" y2="53.2387" gradientUnits="userSpaceOnUse">
<stop stop-color="#F4439F"/>
<stop offset="1" stop-color="#7C3AED"/>
</linearGradient>
<linearGradient id="paint4_linear_112_3934" x1="6070.67" y1="53.6766" x2="-21754.7" y2="53.7595" gradientUnits="userSpaceOnUse">
<stop stop-color="#F4439F"/>
<stop offset="1" stop-color="#7C3AED"/>
</linearGradient>
<linearGradient id="paint5_linear_112_3934" x1="6252.14" y1="53.6766" x2="-17353.8" y2="53.7363" gradientUnits="userSpaceOnUse">
<stop stop-color="#F4439F"/>
<stop offset="1" stop-color="#7C3AED"/>
</linearGradient>
<linearGradient id="paint6_linear_112_3934" x1="7084.15" y1="54.0309" x2="-15682" y2="54.0854" gradientUnits="userSpaceOnUse">
<stop stop-color="#F4439F"/>
<stop offset="1" stop-color="#7C3AED"/>
</linearGradient>
<linearGradient id="paint7_linear_112_3934" x1="22878.6" y1="65.9725" x2="-47363.3" y2="66.6828" gradientUnits="userSpaceOnUse">
<stop stop-color="#F4439F"/>
<stop offset="1" stop-color="#7C3AED"/>
</linearGradient>
<linearGradient id="paint8_linear_112_3934" x1="8604.27" y1="47.9842" x2="-13895.2" y2="48.0605" gradientUnits="userSpaceOnUse">
<stop stop-color="#F4439F"/>
<stop offset="1" stop-color="#7C3AED"/>
</linearGradient>
<linearGradient id="paint9_linear_112_3934" x1="10076.8" y1="65.7688" x2="-13529.2" y2="65.8506" gradientUnits="userSpaceOnUse">
<stop stop-color="#F4439F"/>
<stop offset="1" stop-color="#7C3AED"/>
</linearGradient>
<linearGradient id="paint10_linear_112_3934" x1="10638.9" y1="47.9842" x2="-11904.5" y2="48.0608" gradientUnits="userSpaceOnUse">
<stop stop-color="#F4439F"/>
<stop offset="1" stop-color="#7C3AED"/>
</linearGradient>
<linearGradient id="paint11_linear_112_3934" x1="12282.2" y1="53.6767" x2="-10574.4" y2="53.7326" gradientUnits="userSpaceOnUse">
<stop stop-color="#F4439F"/>
<stop offset="1" stop-color="#7C3AED"/>
</linearGradient>
<linearGradient id="paint12_linear_112_3934" x1="13151.2" y1="65.5148" x2="-9348.24" y2="65.5886" gradientUnits="userSpaceOnUse">
<stop stop-color="#F4439F"/>
<stop offset="1" stop-color="#7C3AED"/>
</linearGradient>
<linearGradient id="paint13_linear_112_3934" x1="14800.1" y1="54.031" x2="-7966.08" y2="54.0855" gradientUnits="userSpaceOnUse">
<stop stop-color="#F4439F"/>
<stop offset="1" stop-color="#7C3AED"/>
</linearGradient>
<linearGradient id="paint14_linear_112_3934" x1="15194" y1="65.7688" x2="-6541.3" y2="65.8381" gradientUnits="userSpaceOnUse">
<stop stop-color="#F4439F"/>
<stop offset="1" stop-color="#7C3AED"/>
</linearGradient>
<linearGradient id="paint15_linear_112_3934" x1="49948.6" y1="65.9725" x2="-20293.6" y2="66.6828" gradientUnits="userSpaceOnUse">
<stop stop-color="#F4439F"/>
<stop offset="1" stop-color="#7C3AED"/>
</linearGradient>
<linearGradient id="paint16_linear_112_3934" x1="19787.1" y1="53.6767" x2="-6334.69" y2="53.7497" gradientUnits="userSpaceOnUse">
<stop stop-color="#F4439F"/>
<stop offset="1" stop-color="#7C3AED"/>
</linearGradient>
<linearGradient id="paint17_linear_112_3934" x1="20788.3" y1="53.6767" x2="-5333.5" y2="53.7497" gradientUnits="userSpaceOnUse">
<stop stop-color="#F4439F"/>
<stop offset="1" stop-color="#7C3AED"/>
</linearGradient>
<linearGradient id="paint18_linear_112_3934" x1="19214.4" y1="52.8729" x2="-3551.86" y2="52.9275" gradientUnits="userSpaceOnUse">
<stop stop-color="#F4439F"/>
<stop offset="1" stop-color="#7C3AED"/>
</linearGradient>
<linearGradient id="paint19_linear_112_3934" x1="20087.5" y1="65.5148" x2="-2411.89" y2="65.5886" gradientUnits="userSpaceOnUse">
<stop stop-color="#F4439F"/>
<stop offset="1" stop-color="#7C3AED"/>
</linearGradient>
<linearGradient id="paint20_linear_112_3934" x1="22124.8" y1="53.6767" x2="-1481.14" y2="53.7363" gradientUnits="userSpaceOnUse">
<stop stop-color="#F4439F"/>
<stop offset="1" stop-color="#7C3AED"/>
</linearGradient>
<linearGradient id="paint21_linear_112_3934" x1="30665.1" y1="54.031" x2="-1157.25" y2="54.1375" gradientUnits="userSpaceOnUse">
<stop stop-color="#F4439F"/>
<stop offset="1" stop-color="#7C3AED"/>
</linearGradient>
<linearGradient id="paint22_linear_112_3934" x1="1130.47" y1="58.5002" x2="269.467" y2="58.5004" gradientUnits="userSpaceOnUse">
<stop stop-color="#F4439F"/>
<stop offset="1" stop-color="#7C3AED"/>
</linearGradient>
<linearGradient id="paint23_linear_112_3934" x1="700.5" y1="72" x2="700.5" y2="117" gradientUnits="userSpaceOnUse">
<stop offset="0.0001" stop-color="white" stop-opacity="0.1"/>
<stop offset="1" stop-color="white" stop-opacity="0"/>
</linearGradient>
<linearGradient id="paint24_linear_112_3934" x1="1213.61" y1="-3.31764" x2="1095.64" y2="1667.49" gradientUnits="userSpaceOnUse">
<stop stop-color="#F4439F"/>
<stop offset="1" stop-color="#7C3AED"/>
</linearGradient>
<linearGradient id="paint25_linear_112_3934" x1="2284.61" y1="-35.6397" x2="2070.12" y2="2228.37" gradientUnits="userSpaceOnUse">
<stop stop-color="#F4439F"/>
<stop offset="1" stop-color="#7C3AED"/>
</linearGradient>
<linearGradient id="paint26_linear_112_3934" x1="2400.25" y1="-38.9293" x2="2024.47" y2="2267.86" gradientUnits="userSpaceOnUse">
<stop stop-color="#F4439F"/>
<stop offset="1" stop-color="#7C3AED"/>
</linearGradient>
<linearGradient id="paint27_linear_112_3934" x1="6071.2" y1="-35.6396" x2="5894.51" y2="2234.94" gradientUnits="userSpaceOnUse">
<stop stop-color="#F4439F"/>
<stop offset="1" stop-color="#7C3AED"/>
</linearGradient>
<linearGradient id="paint28_linear_112_3934" x1="6252.67" y1="-35.6396" x2="6044.88" y2="2229.63" gradientUnits="userSpaceOnUse">
<stop stop-color="#F4439F"/>
<stop offset="1" stop-color="#7C3AED"/>
</linearGradient>
<linearGradient id="paint29_linear_112_3934" x1="7084.68" y1="-36.6759" x2="6861.62" y2="2267.14" gradientUnits="userSpaceOnUse">
<stop stop-color="#F4439F"/>
<stop offset="1" stop-color="#7C3AED"/>
</linearGradient>
<linearGradient id="paint30_linear_112_3934" x1="22879.1" y1="-3.53216" x2="22840.2" y2="1694.57" gradientUnits="userSpaceOnUse">
<stop stop-color="#F4439F"/>
<stop offset="1" stop-color="#7C3AED"/>
</linearGradient>
<linearGradient id="paint31_linear_112_3934" x1="8604.8" y1="-18.9919" x2="8494.16" y2="1597.72" gradientUnits="userSpaceOnUse">
<stop stop-color="#F4439F"/>
<stop offset="1" stop-color="#7C3AED"/>
</linearGradient>
<linearGradient id="paint32_linear_112_3934" x1="10077.3" y1="-2.62426" x2="9966.36" y2="1656.1" gradientUnits="userSpaceOnUse">
<stop stop-color="#F4439F"/>
<stop offset="1" stop-color="#7C3AED"/>
</linearGradient>
<linearGradient id="paint33_linear_112_3934" x1="10639.4" y1="-18.9919" x2="10529" y2="1597.75" gradientUnits="userSpaceOnUse">
<stop stop-color="#F4439F"/>
<stop offset="1" stop-color="#7C3AED"/>
</linearGradient>
<linearGradient id="paint34_linear_112_3934" x1="12282.7" y1="-35.6396" x2="12068.2" y2="2228.37" gradientUnits="userSpaceOnUse">
<stop stop-color="#F4439F"/>
<stop offset="1" stop-color="#7C3AED"/>
</linearGradient>
<linearGradient id="paint35_linear_112_3934" x1="13151.7" y1="-3.31767" x2="13033.5" y2="1667.45" gradientUnits="userSpaceOnUse">
<stop stop-color="#F4439F"/>
<stop offset="1" stop-color="#7C3AED"/>
</linearGradient>
<linearGradient id="paint36_linear_112_3934" x1="14800.7" y1="-36.6759" x2="14577.6" y2="2267.14" gradientUnits="userSpaceOnUse">
<stop stop-color="#F4439F"/>
<stop offset="1" stop-color="#7C3AED"/>
</linearGradient>
<linearGradient id="paint37_linear_112_3934" x1="15194.5" y1="-2.62424" x2="15074.1" y2="1654.77" gradientUnits="userSpaceOnUse">
<stop stop-color="#F4439F"/>
<stop offset="1" stop-color="#7C3AED"/>
</linearGradient>
<linearGradient id="paint38_linear_112_3934" x1="49949.2" y1="-3.5322" x2="49910.2" y2="1694.57" gradientUnits="userSpaceOnUse">
<stop stop-color="#F4439F"/>
<stop offset="1" stop-color="#7C3AED"/>
</linearGradient>
<linearGradient id="paint39_linear_112_3934" x1="19787.6" y1="-35.6397" x2="19599.6" y2="2233.1" gradientUnits="userSpaceOnUse">
<stop stop-color="#F4439F"/>
<stop offset="1" stop-color="#7C3AED"/>
</linearGradient>
<linearGradient id="paint40_linear_112_3934" x1="20788.8" y1="-35.6397" x2="20600.7" y2="2233.1" gradientUnits="userSpaceOnUse">
<stop stop-color="#F4439F"/>
<stop offset="1" stop-color="#7C3AED"/>
</linearGradient>
<linearGradient id="paint41_linear_112_3934" x1="19214.9" y1="-37.8339" x2="18991.8" y2="2265.99" gradientUnits="userSpaceOnUse">
<stop stop-color="#F4439F"/>
<stop offset="1" stop-color="#7C3AED"/>
</linearGradient>
<linearGradient id="paint42_linear_112_3934" x1="20088.1" y1="-3.31765" x2="19969.9" y2="1667.45" gradientUnits="userSpaceOnUse">
<stop stop-color="#F4439F"/>
<stop offset="1" stop-color="#7C3AED"/>
</linearGradient>
<linearGradient id="paint43_linear_112_3934" x1="22125.4" y1="-35.6397" x2="21917.6" y2="2229.63" gradientUnits="userSpaceOnUse">
<stop stop-color="#F4439F"/>
<stop offset="1" stop-color="#7C3AED"/>
</linearGradient>
<linearGradient id="paint44_linear_112_3934" x1="30665.7" y1="-36.6759" x2="30505.4" y2="2277.64" gradientUnits="userSpaceOnUse">
<stop stop-color="#F4439F"/>
<stop offset="1" stop-color="#7C3AED"/>
</linearGradient>
<linearGradient id="paint45_linear_112_3934" x1="1131" y1="3.00021" x2="525.251" y2="431.098" gradientUnits="userSpaceOnUse">
<stop stop-color="#F4439F"/>
<stop offset="1" stop-color="#7C3AED"/>
</linearGradient>
</defs>
</svg>
