<svg width="1400" height="120" viewBox="0 0 1400 120" fill="none" xmlns="http://www.w3.org/2000/svg">
<path d="M267 56H1133V72H267V56Z" fill="url(#paint0_linear_112_4118)"/>
<mask id="mask0_112_4118" style="mask-type:alpha" maskUnits="userSpaceOnUse" x="267" y="72" width="866" height="45">
<path d="M267 72H1133V117H267V72Z" fill="#C4C4C4"/>
</mask>
<g mask="url(#mask0_112_4118)">
<g filter="url(#filter0_f_112_4118)">
<path d="M1029.76 72.6959C1029.76 74.9146 1029.22 76.8559 1028.16 78.5199C1027.13 80.1412 1025.55 81.3999 1023.42 82.2959C1021.29 83.1919 1018.58 83.6399 1015.29 83.6399C1012.82 83.6399 1010.64 83.4692 1008.76 83.1279C1006.89 82.8292 1005.07 82.3172 1003.32 81.5919V73.5919C1005.2 74.4879 1007.23 75.1919 1009.4 75.7039C1011.58 76.2159 1013.46 76.4719 1015.03 76.4719C1017 76.4719 1018.41 76.1946 1019.26 75.6399C1020.15 75.0852 1020.6 74.3386 1020.6 73.3999C1020.6 72.7599 1020.37 72.1839 1019.9 71.6719C1019.47 71.1599 1018.68 70.6266 1017.53 70.0719C1016.42 69.5172 1014.82 68.8346 1012.73 68.0239C1010.64 67.1706 1008.89 66.2959 1007.48 65.3999C1006.08 64.4612 1005.01 63.3519 1004.28 62.0719C1003.6 60.7919 1003.26 59.1919 1003.26 57.2719C1003.26 54.0719 1004.52 51.6399 1007.03 49.9759C1009.59 48.2692 1012.97 47.4159 1017.15 47.4159C1019.41 47.4159 1021.5 47.6506 1023.42 48.1199C1025.38 48.5892 1027.37 49.2506 1029.37 50.1039L1026.55 56.6959C1024.93 55.9706 1023.27 55.3732 1021.56 54.9039C1019.86 54.4346 1018.34 54.1999 1017.02 54.1999C1015.57 54.1999 1014.44 54.4346 1013.63 54.9039C1012.82 55.3306 1012.41 55.9492 1012.41 56.7599C1012.41 57.3572 1012.62 57.8906 1013.05 58.3599C1013.52 58.8292 1014.31 59.3199 1015.42 59.8319C1016.57 60.3439 1018.17 61.0052 1020.22 61.8159C1022.31 62.6266 1024.06 63.5012 1025.47 64.4399C1026.92 65.3359 1027.98 66.4452 1028.67 67.7679C1029.39 69.0479 1029.76 70.6906 1029.76 72.6959Z" fill="url(#paint1_linear_112_4118)" fill-opacity="0.7"/>
<path d="M981.711 47.4159C984.954 47.4159 987.749 48.0346 990.096 49.2719C992.442 50.4666 994.234 52.2586 995.471 54.6479C996.751 56.9946 997.391 59.8746 997.391 63.2879V67.9599H974.927C975.013 70.6052 975.823 72.6959 977.359 74.2319C978.895 75.7252 981.093 76.4719 983.951 76.4719C986.127 76.4719 988.112 76.2586 989.904 75.8319C991.696 75.4052 993.53 74.7652 995.408 73.9119V81.1439C993.701 81.9972 991.888 82.6159 989.968 82.9999C988.09 83.4266 985.743 83.6399 982.927 83.6399C979.471 83.6399 976.399 82.9999 973.711 81.7199C971.066 80.4399 968.976 78.4772 967.44 75.8319C965.904 73.1439 965.135 69.7946 965.135 65.7839C965.135 61.6879 965.818 58.2959 967.184 55.6079C968.592 52.8772 970.533 50.8292 973.008 49.4639C975.525 48.0986 978.426 47.4159 981.711 47.4159ZM981.968 54.2639C980.048 54.2639 978.49 54.8826 977.296 56.1199C976.101 57.3146 975.397 59.1066 975.184 61.4959H988.367C988.367 60.0879 988.133 58.8506 987.664 57.7839C987.194 56.7172 986.469 55.8639 985.487 55.2239C984.549 54.5839 983.376 54.2639 981.968 54.2639Z" fill="url(#paint2_linear_112_4118)" fill-opacity="0.7"/>
<path d="M957.403 48.0559V82.9999H947.739V48.0559H957.403ZM952.602 34.2959C954.01 34.2959 955.226 34.6372 956.25 35.3199C957.317 35.9599 957.851 37.1972 957.851 39.0319C957.851 40.7812 957.317 41.9972 956.25 42.6799C955.226 43.3626 954.01 43.7039 952.602 43.7039C951.152 43.7039 949.915 43.3626 948.891 42.6799C947.867 41.9972 947.354 40.7812 947.354 39.0319C947.354 37.1972 947.867 35.9599 948.891 35.3199C949.915 34.6372 951.152 34.2959 952.602 34.2959Z" fill="url(#paint3_linear_112_4118)" fill-opacity="0.7"/>
<path d="M940.318 72.6959C940.318 74.9146 939.784 76.8559 938.718 78.5199C937.694 80.1412 936.115 81.3999 933.982 82.2959C931.848 83.1919 929.139 83.6399 925.854 83.6399C923.379 83.6399 921.203 83.4692 919.326 83.1279C917.448 82.8292 915.635 82.3172 913.885 81.5919V73.5919C915.763 74.4879 917.79 75.1919 919.966 75.7039C922.142 76.2159 924.019 76.4719 925.597 76.4719C927.56 76.4719 928.968 76.1946 929.821 75.6399C930.717 75.0852 931.166 74.3386 931.166 73.3999C931.166 72.7599 930.931 72.1839 930.461 71.6719C930.035 71.1599 929.246 70.6266 928.094 70.0719C926.984 69.5172 925.384 68.8346 923.294 68.0239C921.203 67.1706 919.454 66.2959 918.046 65.3999C916.638 64.4612 915.571 63.3519 914.846 62.0719C914.163 60.7919 913.821 59.1919 913.821 57.2719C913.821 54.0719 915.08 51.6399 917.597 49.9759C920.157 48.2692 923.528 47.4159 927.71 47.4159C929.971 47.4159 932.062 47.6506 933.982 48.1199C935.944 48.5892 937.928 49.2506 939.934 50.1039L937.117 56.6959C935.496 55.9706 933.832 55.3732 932.125 54.9039C930.419 54.4346 928.904 54.1999 927.581 54.1999C926.131 54.1999 925 54.4346 924.19 54.9039C923.379 55.3306 922.974 55.9492 922.974 56.7599C922.974 57.3572 923.187 57.8906 923.614 58.3599C924.083 58.8292 924.872 59.3199 925.982 59.8319C927.134 60.3439 928.733 61.0052 930.781 61.8159C932.872 62.6266 934.621 63.5012 936.029 64.4399C937.48 65.3359 938.547 66.4452 939.229 67.7679C939.955 69.0479 940.318 70.6906 940.318 72.6959Z" fill="url(#paint4_linear_112_4118)" fill-opacity="0.7"/>
<path d="M906.153 48.0559V82.9999H896.489V48.0559H906.153ZM901.352 34.2959C902.76 34.2959 903.976 34.6372 905 35.3199C906.067 35.9599 906.601 37.1972 906.601 39.0319C906.601 40.7812 906.067 41.9972 905 42.6799C903.976 43.3626 902.76 43.7039 901.352 43.7039C899.902 43.7039 898.665 43.3626 897.641 42.6799C896.617 41.9972 896.104 40.7812 896.104 39.0319C896.104 37.1972 896.617 35.9599 897.641 35.3199C898.665 34.6372 899.902 34.2959 901.352 34.2959Z" fill="url(#paint5_linear_112_4118)" fill-opacity="0.7"/>
<path d="M873.728 47.4159C878.123 47.4159 881.472 48.4612 883.776 50.5519C886.08 52.5999 887.232 55.6506 887.232 59.7039V82.9999H880.512L878.656 78.2639H878.4C877.419 79.5012 876.395 80.5252 875.328 81.3359C874.304 82.1466 873.109 82.7226 871.744 83.0639C870.379 83.4479 868.715 83.6399 866.752 83.6399C864.704 83.6399 862.869 83.2559 861.248 82.4879C859.627 81.6772 858.347 80.4612 857.408 78.8399C856.469 77.2186 856 75.1706 856 72.6959C856 69.0266 857.323 66.2746 859.968 64.4399C862.613 62.6052 866.56 61.5812 871.808 61.3679L877.632 61.1759V60.0879C877.632 57.9972 877.163 56.5466 876.224 55.7359C875.285 54.8826 873.963 54.4559 872.256 54.4559C870.677 54.4559 869.056 54.7119 867.392 55.2239C865.728 55.7359 864.085 56.3546 862.464 57.0799L859.648 50.4879C861.483 49.5492 863.573 48.8026 865.92 48.2479C868.309 47.6932 870.912 47.4159 873.728 47.4159ZM873.984 66.9999C870.955 67.0852 868.843 67.5759 867.648 68.4719C866.453 69.3679 865.856 70.6266 865.856 72.2479C865.856 73.7412 866.261 74.8506 867.072 75.5759C867.925 76.2586 869.056 76.5999 870.464 76.5999C872.469 76.5999 874.155 76.0026 875.52 74.8079C876.928 73.6132 877.632 71.9066 877.632 69.6879V66.8079L873.984 66.9999Z" fill="url(#paint6_linear_112_4118)" fill-opacity="0.7"/>
<path d="M850.755 72.6959C850.755 74.9146 850.222 76.8559 849.155 78.5199C848.131 80.1412 846.552 81.3999 844.419 82.2959C842.286 83.1919 839.576 83.6399 836.291 83.6399C833.816 83.6399 831.64 83.4692 829.763 83.1279C827.886 82.8292 826.072 82.3172 824.323 81.5919V73.5919C826.2 74.4879 828.227 75.1919 830.403 75.7039C832.579 76.2159 834.456 76.4719 836.035 76.4719C837.998 76.4719 839.406 76.1946 840.259 75.6399C841.155 75.0852 841.603 74.3386 841.603 73.3999C841.603 72.7599 841.368 72.1839 840.899 71.6719C840.472 71.1599 839.683 70.6266 838.531 70.0719C837.422 69.5172 835.822 68.8346 833.731 68.0239C831.64 67.1706 829.891 66.2959 828.483 65.3999C827.075 64.4612 826.008 63.3519 825.283 62.0719C824.6 60.7919 824.259 59.1919 824.259 57.2719C824.259 54.0719 825.518 51.6399 828.035 49.9759C830.595 48.2692 833.966 47.4159 838.147 47.4159C840.408 47.4159 842.499 47.6506 844.419 48.1199C846.382 48.5892 848.366 49.2506 850.371 50.1039L847.555 56.6959C845.934 55.9706 844.27 55.3732 842.563 54.9039C840.856 54.4346 839.342 54.1999 838.019 54.1999C836.568 54.1999 835.438 54.4346 834.627 54.9039C833.816 55.3306 833.411 55.9492 833.411 56.7599C833.411 57.3572 833.624 57.8906 834.051 58.3599C834.52 58.8292 835.31 59.3199 836.419 59.8319C837.571 60.3439 839.171 61.0052 841.219 61.8159C843.31 62.6266 845.059 63.5012 846.467 64.4399C847.918 65.3359 848.984 66.4452 849.667 67.7679C850.392 69.0479 850.755 70.6906 850.755 72.6959Z" fill="url(#paint7_linear_112_4118)" fill-opacity="0.7"/>
<path d="M786.087 47.4159C789.329 47.4159 792.124 48.0346 794.47 49.2719C796.817 50.4666 798.609 52.2586 799.846 54.6479C801.126 56.9946 801.767 59.8746 801.767 63.2879V67.9599H779.302C779.388 70.6052 780.198 72.6959 781.734 74.2319C783.27 75.7252 785.468 76.4719 788.327 76.4719C790.503 76.4719 792.487 76.2586 794.279 75.8319C796.071 75.4052 797.905 74.7652 799.783 73.9119V81.1439C798.076 81.9972 796.262 82.6159 794.342 82.9999C792.465 83.4266 790.118 83.6399 787.302 83.6399C783.846 83.6399 780.775 82.9999 778.087 81.7199C775.441 80.4399 773.351 78.4772 771.815 75.8319C770.279 73.1439 769.51 69.7946 769.51 65.7839C769.51 61.6879 770.193 58.2959 771.559 55.6079C772.967 52.8772 774.908 50.8292 777.383 49.4639C779.9 48.0986 782.801 47.4159 786.087 47.4159ZM786.342 54.2639C784.422 54.2639 782.865 54.8826 781.671 56.1199C780.476 57.3146 779.772 59.1066 779.559 61.4959H792.742C792.742 60.0879 792.508 58.8506 792.039 57.7839C791.569 56.7172 790.844 55.8639 789.862 55.2239C788.924 54.5839 787.75 54.2639 786.342 54.2639Z" fill="url(#paint8_linear_112_4118)" fill-opacity="0.7"/>
<path d="M742.193 83.6399C738.353 83.6399 735.196 82.1252 732.721 79.0959C730.289 76.0239 729.073 71.5226 729.073 65.5919C729.073 59.5759 730.31 55.0532 732.785 52.0239C735.26 48.9519 738.502 47.4159 742.513 47.4159C744.177 47.4159 745.606 47.6506 746.801 48.1199C748.038 48.5466 749.105 49.1439 750.001 49.9119C750.897 50.6799 751.665 51.5546 752.305 52.5359H752.625C752.497 51.7679 752.369 50.7012 752.241 49.3359C752.156 47.9279 752.113 46.6479 752.113 45.4959V34.3599H761.841V82.9999H754.417L752.497 78.4559H752.113C751.516 79.4372 750.769 80.3119 749.873 81.0799C748.977 81.8479 747.889 82.4666 746.609 82.9359C745.372 83.4052 743.9 83.6399 742.193 83.6399ZM745.585 75.8959C748.23 75.8959 750.086 75.1492 751.153 73.6559C752.22 72.1199 752.753 69.7946 752.753 66.6799V65.6559C752.753 62.2852 752.241 59.7039 751.217 57.9119C750.193 56.1199 748.294 55.2239 745.521 55.2239C743.43 55.2239 741.788 56.1199 740.593 57.9119C739.441 59.7039 738.865 62.3066 738.865 65.7199C738.865 69.1332 739.441 71.6932 740.593 73.3999C741.788 75.0639 743.452 75.8959 745.585 75.8959Z" fill="url(#paint9_linear_112_4118)" fill-opacity="0.7"/>
<path d="M692.455 47.4159C696.295 47.4159 699.324 48.4186 701.543 50.4239C703.762 52.4292 704.871 55.6932 704.871 60.2159V82.9999H695.271V62.6479C695.271 60.1306 694.802 58.2532 693.863 57.0159C692.967 55.7359 691.559 55.0959 689.639 55.0959C686.738 55.0959 684.754 56.0986 683.687 58.1039C682.663 60.0666 682.151 62.9039 682.151 66.6159V82.9999H672.487V48.0559H679.911L681.255 52.7279H681.639C682.407 51.5759 683.324 50.6159 684.391 49.8479C685.5 49.0372 686.716 48.4399 688.039 48.0559C689.404 47.6292 690.876 47.4159 692.455 47.4159Z" fill="url(#paint10_linear_112_4118)" fill-opacity="0.7"/>
<path d="M664.743 65.4639C664.743 68.3652 664.338 70.9466 663.527 73.2079C662.759 75.4692 661.628 77.3679 660.135 78.9039C658.684 80.4399 656.914 81.6132 654.823 82.4239C652.732 83.2346 650.364 83.6399 647.719 83.6399C645.244 83.6399 642.983 83.2346 640.935 82.4239C638.887 81.6132 637.116 80.4399 635.623 78.9039C634.13 77.3679 632.956 75.4692 632.103 73.2079C631.25 70.9466 630.823 68.3652 630.823 65.4639C630.823 61.5812 631.506 58.2959 632.871 55.6079C634.236 52.9199 636.199 50.8932 638.759 49.5279C641.319 48.1199 644.37 47.4159 647.911 47.4159C651.196 47.4159 654.098 48.1199 656.615 49.5279C659.132 50.8932 661.116 52.9199 662.567 55.6079C664.018 58.2959 664.743 61.5812 664.743 65.4639ZM640.679 65.4639C640.679 67.7252 640.914 69.6666 641.383 71.2879C641.895 72.9092 642.663 74.1466 643.687 74.9999C644.754 75.8532 646.14 76.2799 647.847 76.2799C649.511 76.2799 650.855 75.8532 651.879 74.9999C652.946 74.1466 653.714 72.9092 654.183 71.2879C654.652 69.6666 654.887 67.7252 654.887 65.4639C654.887 63.1599 654.631 61.2186 654.119 59.6399C653.65 58.0612 652.903 56.8666 651.879 56.0559C650.855 55.2026 649.49 54.7759 647.783 54.7759C645.308 54.7759 643.495 55.6932 642.343 57.5279C641.234 59.3626 640.679 62.0079 640.679 65.4639Z" fill="url(#paint11_linear_112_4118)" fill-opacity="0.7"/>
<path d="M623.09 48.0559V82.9999H613.426V48.0559H623.09ZM618.29 34.2959C619.698 34.2959 620.914 34.6372 621.938 35.3199C623.005 35.9599 623.538 37.1972 623.538 39.0319C623.538 40.7812 623.005 41.9972 621.938 42.6799C620.914 43.3626 619.698 43.7039 618.29 43.7039C616.839 43.7039 615.602 43.3626 614.578 42.6799C613.554 41.9972 613.042 40.7812 613.042 39.0319C613.042 37.1972 613.554 35.9599 614.578 35.3199C615.602 34.6372 616.839 34.2959 618.29 34.2959Z" fill="url(#paint12_linear_112_4118)" fill-opacity="0.7"/>
<path d="M600.652 76.0239C601.719 76.0239 602.743 75.9172 603.724 75.7039C604.705 75.4906 605.687 75.2346 606.668 74.9359V82.0399C605.644 82.4666 604.364 82.8292 602.828 83.1279C601.335 83.4692 599.692 83.6399 597.9 83.6399C595.809 83.6399 593.932 83.2986 592.268 82.6159C590.647 81.9332 589.345 80.7599 588.364 79.0959C587.425 77.3892 586.956 75.0426 586.956 72.0559V55.2239H582.412V51.1919L587.66 47.9919L590.412 40.6319H596.492V48.0559H606.284V55.2239H596.492V72.0559C596.492 73.3786 596.876 74.3812 597.644 75.0639C598.412 75.7039 599.415 76.0239 600.652 76.0239Z" fill="url(#paint13_linear_112_4118)" fill-opacity="0.7"/>
<path d="M567.844 83.6399C564.473 83.6399 561.508 83.0212 558.948 81.7839C556.431 80.5039 554.468 78.5412 553.06 75.8959C551.652 73.2079 550.948 69.8159 550.948 65.7199C550.948 61.4106 551.716 57.9119 553.252 55.2239C554.788 52.5359 556.879 50.5732 559.524 49.3359C562.169 48.0559 565.177 47.4159 568.548 47.4159C570.596 47.4159 572.516 47.6292 574.308 48.0559C576.143 48.4826 577.764 49.0586 579.172 49.7839L576.292 57.0799C575.012 56.5252 573.711 56.0772 572.388 55.7359C571.108 55.3519 569.828 55.1599 568.548 55.1599C566.884 55.1599 565.476 55.5439 564.324 56.3119C563.172 57.0799 562.297 58.2532 561.7 59.8319C561.103 61.3679 560.804 63.3092 560.804 65.6559C560.804 67.9599 561.103 69.8586 561.7 71.3519C562.297 72.8452 563.172 73.9759 564.324 74.7439C565.476 75.4692 566.841 75.8319 568.42 75.8319C570.255 75.8319 571.983 75.5972 573.604 75.1279C575.225 74.6159 576.761 73.9546 578.212 73.1439V81.0159C576.889 81.8266 575.396 82.4666 573.732 82.9359C572.068 83.4052 570.105 83.6399 567.844 83.6399Z" fill="url(#paint14_linear_112_4118)" fill-opacity="0.7"/>
<path d="M543.179 48.0559V82.9999H535.755L534.539 78.5199H533.963C533.238 79.7146 532.299 80.6959 531.147 81.4639C530.038 82.2319 528.8 82.7866 527.435 83.1279C526.112 83.4692 524.704 83.6399 523.211 83.6399C520.736 83.6399 518.56 83.1919 516.683 82.2959C514.848 81.3999 513.398 80.0132 512.331 78.1359C511.307 76.2586 510.795 73.8266 510.795 70.8399V48.0559H520.523V68.4079C520.523 70.8826 520.95 72.7599 521.803 74.0399C522.699 75.2772 524.107 75.8959 526.027 75.8959C527.99 75.8959 529.504 75.4692 530.571 74.6159C531.68 73.7199 532.448 72.4186 532.875 70.7119C533.302 69.0052 533.515 66.9146 533.515 64.4399V48.0559H543.179Z" fill="url(#paint15_linear_112_4118)" fill-opacity="0.7"/>
<path d="M482.005 83.6399C478.165 83.6399 475.008 82.1252 472.533 79.0959C470.101 76.0239 468.885 71.5226 468.885 65.5919C468.885 59.5759 470.123 55.0532 472.597 52.0239C475.072 48.9519 478.315 47.4159 482.325 47.4159C483.989 47.4159 485.419 47.6506 486.613 48.1199C487.851 48.5466 488.917 49.1439 489.813 49.9119C490.709 50.6799 491.477 51.5546 492.118 52.5359H492.437C492.309 51.7679 492.181 50.7012 492.053 49.3359C491.968 47.9279 491.925 46.6479 491.925 45.4959V34.3599H501.654V82.9999H494.229L492.309 78.4559H491.925C491.328 79.4372 490.581 80.3119 489.685 81.0799C488.789 81.8479 487.701 82.4666 486.421 82.9359C485.184 83.4052 483.712 83.6399 482.005 83.6399ZM485.397 75.8959C488.043 75.8959 489.899 75.1492 490.965 73.6559C492.032 72.1199 492.565 69.7946 492.565 66.6799V65.6559C492.565 62.2852 492.053 59.7039 491.029 57.9119C490.005 56.1199 488.107 55.2239 485.333 55.2239C483.243 55.2239 481.6 56.1199 480.405 57.9119C479.253 59.7039 478.677 62.3066 478.677 65.7199C478.677 69.1332 479.253 71.6932 480.405 73.3999C481.6 75.0639 483.264 75.8959 485.397 75.8959Z" fill="url(#paint16_linear_112_4118)" fill-opacity="0.7"/>
<path d="M447.853 47.4159C452.248 47.4159 455.597 48.4612 457.901 50.5519C460.205 52.5999 461.357 55.6506 461.357 59.7039V82.9999H454.637L452.781 78.2639H452.525C451.544 79.5012 450.52 80.5252 449.453 81.3359C448.429 82.1466 447.234 82.7226 445.869 83.0639C444.504 83.4479 442.84 83.6399 440.877 83.6399C438.829 83.6399 436.994 83.2559 435.373 82.4879C433.752 81.6772 432.472 80.4612 431.533 78.8399C430.594 77.2186 430.125 75.1706 430.125 72.6959C430.125 69.0266 431.448 66.2746 434.093 64.4399C436.738 62.6052 440.685 61.5812 445.933 61.3679L451.757 61.1759V60.0879C451.757 57.9972 451.288 56.5466 450.349 55.7359C449.41 54.8826 448.088 54.4559 446.381 54.4559C444.802 54.4559 443.181 54.7119 441.517 55.2239C439.853 55.7359 438.21 56.3546 436.589 57.0799L433.773 50.4879C435.608 49.5492 437.698 48.8026 440.045 48.2479C442.434 47.6932 445.037 47.4159 447.853 47.4159ZM448.109 66.9999C445.08 67.0852 442.968 67.5759 441.773 68.4719C440.578 69.3679 439.981 70.6266 439.981 72.2479C439.981 73.7412 440.386 74.8506 441.197 75.5759C442.05 76.2586 443.181 76.5999 444.589 76.5999C446.594 76.5999 448.28 76.0026 449.645 74.8079C451.053 73.6132 451.757 71.9066 451.757 69.6879V66.8079L448.109 66.9999Z" fill="url(#paint17_linear_112_4118)" fill-opacity="0.7"/>
<path d="M424.19 47.4159C424.83 47.4159 425.513 47.4586 426.238 47.5439C427.006 47.5866 427.603 47.6719 428.03 47.7999L427.07 56.8239C426.601 56.7386 426.046 56.6532 425.406 56.5679C424.766 56.4826 423.998 56.4399 423.102 56.4399C422.121 56.4399 421.118 56.5892 420.094 56.8879C419.113 57.1866 418.195 57.6772 417.342 58.3599C416.489 59.0426 415.806 59.9386 415.294 61.0479C414.782 62.1572 414.526 63.5652 414.526 65.2719V82.9999H404.862V48.0559H412.222L413.63 53.9439H414.078C414.761 52.7066 415.614 51.5972 416.638 50.6159C417.662 49.6346 418.814 48.8666 420.094 48.3119C421.374 47.7146 422.739 47.4159 424.19 47.4159Z" fill="url(#paint18_linear_112_4118)" fill-opacity="0.7"/>
<path d="M389.8 82.9999H380.008V45.4319H367.656V37.3039H402.152V45.4319H389.8V82.9999Z" fill="url(#paint19_linear_112_4118)" fill-opacity="0.7"/>
</g>
</g>
<path d="M267 72H1133V105C1133 111.627 1127.63 117 1121 117H279C272.373 117 267 111.627 267 105V72Z" fill="url(#paint20_linear_112_4118)"/>
<path d="M1030.32 60.6959C1030.32 62.9146 1029.78 64.8559 1028.72 66.5199C1027.69 68.1412 1026.11 69.3999 1023.98 70.2959C1021.85 71.1919 1019.14 71.6399 1015.85 71.6399C1013.38 71.6399 1011.2 71.4692 1009.32 71.1279C1007.45 70.8292 1005.63 70.3172 1003.88 69.5919V61.5919C1005.76 62.4879 1007.79 63.1919 1009.96 63.7039C1012.14 64.2159 1014.02 64.4719 1015.6 64.4719C1017.56 64.4719 1018.97 64.1946 1019.82 63.6399C1020.72 63.0852 1021.16 62.3386 1021.16 61.3999C1021.16 60.7599 1020.93 60.1839 1020.46 59.6719C1020.03 59.1599 1019.24 58.6266 1018.09 58.0719C1016.98 57.5172 1015.38 56.8346 1013.29 56.0239C1011.2 55.1706 1009.45 54.2959 1008.04 53.3999C1006.64 52.4612 1005.57 51.3519 1004.84 50.0719C1004.16 48.7919 1003.82 47.1919 1003.82 45.2719C1003.82 42.0719 1005.08 39.6399 1007.6 37.9759C1010.16 36.2692 1013.53 35.4159 1017.71 35.4159C1019.97 35.4159 1022.06 35.6506 1023.98 36.1199C1025.94 36.5892 1027.93 37.2506 1029.93 38.1039L1027.12 44.6959C1025.49 43.9706 1023.83 43.3732 1022.12 42.9039C1020.42 42.4346 1018.9 42.1999 1017.58 42.1999C1016.13 42.1999 1015 42.4346 1014.19 42.9039C1013.38 43.3306 1012.97 43.9492 1012.97 44.7599C1012.97 45.3572 1013.18 45.8906 1013.61 46.3599C1014.08 46.8292 1014.87 47.3199 1015.98 47.8319C1017.13 48.3439 1018.73 49.0052 1020.78 49.8159C1022.87 50.6266 1024.62 51.5012 1026.03 52.4399C1027.48 53.3359 1028.54 54.4452 1029.23 55.7679C1029.95 57.0479 1030.32 58.6906 1030.32 60.6959Z" fill="url(#paint21_linear_112_4118)"/>
<path d="M982.272 35.4159C985.514 35.4159 988.309 36.0346 990.656 37.2719C993.002 38.4666 994.794 40.2586 996.032 42.6479C997.312 44.9946 997.952 47.8746 997.952 51.2879V55.9599H975.488C975.573 58.6052 976.384 60.6959 977.92 62.2319C979.456 63.7252 981.653 64.4719 984.512 64.4719C986.688 64.4719 988.672 64.2586 990.464 63.8319C992.256 63.4052 994.09 62.7652 995.968 61.9119V69.1439C994.261 69.9972 992.448 70.6159 990.528 70.9999C988.65 71.4266 986.304 71.6399 983.488 71.6399C980.032 71.6399 976.96 70.9999 974.272 69.7199C971.626 68.4399 969.536 66.4772 968 63.8319C966.464 61.1439 965.696 57.7946 965.696 53.7839C965.696 49.6879 966.378 46.2959 967.744 43.6079C969.152 40.8772 971.093 38.8292 973.568 37.4639C976.085 36.0986 978.986 35.4159 982.272 35.4159ZM982.528 42.2639C980.608 42.2639 979.05 42.8826 977.856 44.1199C976.661 45.3146 975.957 47.1066 975.744 49.4959H988.928C988.928 48.0879 988.693 46.8506 988.224 45.7839C987.754 44.7172 987.029 43.8639 986.048 43.2239C985.109 42.5839 983.936 42.2639 982.528 42.2639Z" fill="url(#paint22_linear_112_4118)"/>
<path d="M957.963 36.0559V70.9999H948.299V36.0559H957.963ZM953.163 22.2959C954.571 22.2959 955.787 22.6372 956.811 23.3199C957.877 23.9599 958.411 25.1972 958.411 27.0319C958.411 28.7812 957.877 29.9972 956.811 30.6799C955.787 31.3626 954.571 31.7039 953.163 31.7039C951.712 31.7039 950.475 31.3626 949.451 30.6799C948.427 29.9972 947.915 28.7812 947.915 27.0319C947.915 25.1972 948.427 23.9599 949.451 23.3199C950.475 22.6372 951.712 22.2959 953.163 22.2959Z" fill="url(#paint23_linear_112_4118)"/>
<path d="M940.878 60.6959C940.878 62.9146 940.344 64.8559 939.278 66.5199C938.254 68.1412 936.675 69.3999 934.542 70.2959C932.408 71.1919 929.699 71.6399 926.414 71.6399C923.939 71.6399 921.763 71.4692 919.886 71.1279C918.008 70.8292 916.195 70.3172 914.446 69.5919V61.5919C916.323 62.4879 918.35 63.1919 920.526 63.7039C922.702 64.2159 924.579 64.4719 926.158 64.4719C928.12 64.4719 929.528 64.1946 930.382 63.6399C931.278 63.0852 931.726 62.3386 931.726 61.3999C931.726 60.7599 931.491 60.1839 931.022 59.6719C930.595 59.1599 929.806 58.6266 928.654 58.0719C927.544 57.5172 925.944 56.8346 923.854 56.0239C921.763 55.1706 920.014 54.2959 918.606 53.3999C917.198 52.4612 916.131 51.3519 915.406 50.0719C914.723 48.7919 914.382 47.1919 914.382 45.2719C914.382 42.0719 915.64 39.6399 918.158 37.9759C920.718 36.2692 924.088 35.4159 928.27 35.4159C930.531 35.4159 932.622 35.6506 934.542 36.1199C936.504 36.5892 938.488 37.2506 940.494 38.1039L937.678 44.6959C936.056 43.9706 934.392 43.3732 932.686 42.9039C930.979 42.4346 929.464 42.1999 928.142 42.1999C926.691 42.1999 925.56 42.4346 924.75 42.9039C923.939 43.3306 923.534 43.9492 923.534 44.7599C923.534 45.3572 923.747 45.8906 924.174 46.3599C924.643 46.8292 925.432 47.3199 926.542 47.8319C927.694 48.3439 929.294 49.0052 931.342 49.8159C933.432 50.6266 935.182 51.5012 936.59 52.4399C938.04 53.3359 939.107 54.4452 939.79 55.7679C940.515 57.0479 940.878 58.6906 940.878 60.6959Z" fill="url(#paint24_linear_112_4118)"/>
<path d="M906.713 36.0559V70.9999H897.049V36.0559H906.713ZM901.913 22.2959C903.321 22.2959 904.537 22.6372 905.561 23.3199C906.627 23.9599 907.161 25.1972 907.161 27.0319C907.161 28.7812 906.627 29.9972 905.561 30.6799C904.537 31.3626 903.321 31.7039 901.913 31.7039C900.462 31.7039 899.225 31.3626 898.201 30.6799C897.177 29.9972 896.665 28.7812 896.665 27.0319C896.665 25.1972 897.177 23.9599 898.201 23.3199C899.225 22.6372 900.462 22.2959 901.913 22.2959Z" fill="url(#paint25_linear_112_4118)"/>
<path d="M874.288 35.4159C878.683 35.4159 882.032 36.4612 884.336 38.5519C886.64 40.5999 887.792 43.6506 887.792 47.7039V70.9999H881.072L879.216 66.2639H878.96C877.979 67.5012 876.955 68.5252 875.888 69.3359C874.864 70.1466 873.669 70.7226 872.304 71.0639C870.939 71.4479 869.275 71.6399 867.312 71.6399C865.264 71.6399 863.429 71.2559 861.808 70.4879C860.187 69.6772 858.907 68.4612 857.968 66.8399C857.029 65.2186 856.56 63.1706 856.56 60.6959C856.56 57.0266 857.883 54.2746 860.528 52.4399C863.173 50.6052 867.12 49.5812 872.368 49.3679L878.192 49.1759V48.0879C878.192 45.9972 877.723 44.5466 876.784 43.7359C875.845 42.8826 874.523 42.4559 872.816 42.4559C871.237 42.4559 869.616 42.7119 867.952 43.2239C866.288 43.7359 864.645 44.3546 863.024 45.0799L860.208 38.4879C862.043 37.5492 864.133 36.8026 866.48 36.2479C868.869 35.6932 871.472 35.4159 874.288 35.4159ZM874.544 54.9999C871.515 55.0852 869.403 55.5759 868.208 56.4719C867.013 57.3679 866.416 58.6266 866.416 60.2479C866.416 61.7412 866.821 62.8506 867.632 63.5759C868.485 64.2586 869.616 64.5999 871.024 64.5999C873.029 64.5999 874.715 64.0026 876.08 62.8079C877.488 61.6132 878.192 59.9066 878.192 57.6879V54.8079L874.544 54.9999Z" fill="url(#paint26_linear_112_4118)"/>
<path d="M851.315 60.6959C851.315 62.9146 850.782 64.8559 849.715 66.5199C848.691 68.1412 847.112 69.3999 844.979 70.2959C842.846 71.1919 840.136 71.6399 836.851 71.6399C834.376 71.6399 832.2 71.4692 830.323 71.1279C828.446 70.8292 826.632 70.3172 824.883 69.5919V61.5919C826.76 62.4879 828.787 63.1919 830.963 63.7039C833.139 64.2159 835.016 64.4719 836.595 64.4719C838.558 64.4719 839.966 64.1946 840.819 63.6399C841.715 63.0852 842.163 62.3386 842.163 61.3999C842.163 60.7599 841.928 60.1839 841.459 59.6719C841.032 59.1599 840.243 58.6266 839.091 58.0719C837.982 57.5172 836.382 56.8346 834.291 56.0239C832.2 55.1706 830.451 54.2959 829.043 53.3999C827.635 52.4612 826.568 51.3519 825.843 50.0719C825.16 48.7919 824.819 47.1919 824.819 45.2719C824.819 42.0719 826.078 39.6399 828.595 37.9759C831.155 36.2692 834.526 35.4159 838.707 35.4159C840.968 35.4159 843.059 35.6506 844.979 36.1199C846.942 36.5892 848.926 37.2506 850.931 38.1039L848.115 44.6959C846.494 43.9706 844.83 43.3732 843.123 42.9039C841.416 42.4346 839.902 42.1999 838.579 42.1999C837.128 42.1999 835.998 42.4346 835.187 42.9039C834.376 43.3306 833.971 43.9492 833.971 44.7599C833.971 45.3572 834.184 45.8906 834.611 46.3599C835.08 46.8292 835.87 47.3199 836.979 47.8319C838.131 48.3439 839.731 49.0052 841.779 49.8159C843.87 50.6266 845.619 51.5012 847.027 52.4399C848.478 53.3359 849.544 54.4452 850.227 55.7679C850.952 57.0479 851.315 58.6906 851.315 60.6959Z" fill="url(#paint27_linear_112_4118)"/>
<path d="M786.647 35.4159C789.889 35.4159 792.684 36.0346 795.031 37.2719C797.377 38.4666 799.169 40.2586 800.407 42.6479C801.687 44.9946 802.327 47.8746 802.327 51.2879V55.9599H779.863C779.948 58.6052 780.759 60.6959 782.295 62.2319C783.831 63.7252 786.028 64.4719 788.887 64.4719C791.063 64.4719 793.047 64.2586 794.839 63.8319C796.631 63.4052 798.465 62.7652 800.343 61.9119V69.1439C798.636 69.9972 796.823 70.6159 794.903 70.9999C793.025 71.4266 790.679 71.6399 787.863 71.6399C784.407 71.6399 781.335 70.9999 778.647 69.7199C776.001 68.4399 773.911 66.4772 772.375 63.8319C770.839 61.1439 770.071 57.7946 770.071 53.7839C770.071 49.6879 770.753 46.2959 772.119 43.6079C773.527 40.8772 775.468 38.8292 777.943 37.4639C780.46 36.0986 783.361 35.4159 786.647 35.4159ZM786.903 42.2639C784.983 42.2639 783.425 42.8826 782.231 44.1199C781.036 45.3146 780.332 47.1066 780.119 49.4959H793.303C793.303 48.0879 793.068 46.8506 792.599 45.7839C792.129 44.7172 791.404 43.8639 790.423 43.2239C789.484 42.5839 788.311 42.2639 786.903 42.2639Z" fill="url(#paint28_linear_112_4118)"/>
<path d="M742.753 71.6399C738.913 71.6399 735.756 70.1252 733.281 67.0959C730.849 64.0239 729.633 59.5226 729.633 53.5919C729.633 47.5759 730.87 43.0532 733.345 40.0239C735.82 36.9519 739.062 35.4159 743.073 35.4159C744.737 35.4159 746.166 35.6506 747.361 36.1199C748.598 36.5466 749.665 37.1439 750.561 37.9119C751.457 38.6799 752.225 39.5546 752.865 40.5359H753.185C753.057 39.7679 752.929 38.7012 752.801 37.3359C752.716 35.9279 752.673 34.6479 752.673 33.4959V22.3599H762.401V70.9999H754.977L753.057 66.4559H752.673C752.076 67.4372 751.329 68.3119 750.433 69.0799C749.537 69.8479 748.449 70.4666 747.169 70.9359C745.932 71.4052 744.46 71.6399 742.753 71.6399ZM746.145 63.8959C748.79 63.8959 750.646 63.1492 751.713 61.6559C752.78 60.1199 753.313 57.7946 753.313 54.6799V53.6559C753.313 50.2852 752.801 47.7039 751.777 45.9119C750.753 44.1199 748.854 43.2239 746.081 43.2239C743.99 43.2239 742.348 44.1199 741.153 45.9119C740.001 47.7039 739.425 50.3066 739.425 53.7199C739.425 57.1332 740.001 59.6932 741.153 61.3999C742.348 63.0639 744.012 63.8959 746.145 63.8959Z" fill="url(#paint29_linear_112_4118)"/>
<path d="M693.015 35.4159C696.855 35.4159 699.884 36.4186 702.103 38.4239C704.322 40.4292 705.431 43.6932 705.431 48.2159V70.9999H695.831V50.6479C695.831 48.1306 695.362 46.2532 694.423 45.0159C693.527 43.7359 692.119 43.0959 690.199 43.0959C687.298 43.0959 685.314 44.0986 684.247 46.1039C683.223 48.0666 682.711 50.9039 682.711 54.6159V70.9999H673.047V36.0559H680.471L681.815 40.7279H682.199C682.967 39.5759 683.884 38.6159 684.951 37.8479C686.06 37.0372 687.276 36.4399 688.599 36.0559C689.964 35.6292 691.436 35.4159 693.015 35.4159Z" fill="url(#paint30_linear_112_4118)"/>
<path d="M665.303 53.4639C665.303 56.3652 664.898 58.9466 664.087 61.2079C663.319 63.4692 662.188 65.3679 660.695 66.9039C659.244 68.4399 657.474 69.6132 655.383 70.4239C653.292 71.2346 650.924 71.6399 648.279 71.6399C645.804 71.6399 643.543 71.2346 641.495 70.4239C639.447 69.6132 637.676 68.4399 636.183 66.9039C634.69 65.3679 633.516 63.4692 632.663 61.2079C631.81 58.9466 631.383 56.3652 631.383 53.4639C631.383 49.5812 632.066 46.2959 633.431 43.6079C634.796 40.9199 636.759 38.8932 639.319 37.5279C641.879 36.1199 644.93 35.4159 648.471 35.4159C651.756 35.4159 654.658 36.1199 657.175 37.5279C659.692 38.8932 661.676 40.9199 663.127 43.6079C664.578 46.2959 665.303 49.5812 665.303 53.4639ZM641.239 53.4639C641.239 55.7252 641.474 57.6666 641.943 59.2879C642.455 60.9092 643.223 62.1466 644.247 62.9999C645.314 63.8532 646.7 64.2799 648.407 64.2799C650.071 64.2799 651.415 63.8532 652.439 62.9999C653.506 62.1466 654.274 60.9092 654.743 59.2879C655.212 57.6666 655.447 55.7252 655.447 53.4639C655.447 51.1599 655.191 49.2186 654.679 47.6399C654.21 46.0612 653.463 44.8666 652.439 44.0559C651.415 43.2026 650.05 42.7759 648.343 42.7759C645.868 42.7759 644.055 43.6932 642.903 45.5279C641.794 47.3626 641.239 50.0079 641.239 53.4639Z" fill="url(#paint31_linear_112_4118)"/>
<path d="M623.65 36.0559V70.9999H613.986V36.0559H623.65ZM618.85 22.2959C620.258 22.2959 621.474 22.6372 622.498 23.3199C623.565 23.9599 624.098 25.1972 624.098 27.0319C624.098 28.7812 623.565 29.9972 622.498 30.6799C621.474 31.3626 620.258 31.7039 618.85 31.7039C617.399 31.7039 616.162 31.3626 615.138 30.6799C614.114 29.9972 613.602 28.7812 613.602 27.0319C613.602 25.1972 614.114 23.9599 615.138 23.3199C616.162 22.6372 617.399 22.2959 618.85 22.2959Z" fill="url(#paint32_linear_112_4118)"/>
<path d="M601.212 64.0239C602.279 64.0239 603.303 63.9172 604.284 63.7039C605.265 63.4906 606.247 63.2346 607.228 62.9359V70.0399C606.204 70.4666 604.924 70.8292 603.388 71.1279C601.895 71.4692 600.252 71.6399 598.46 71.6399C596.369 71.6399 594.492 71.2986 592.828 70.6159C591.207 69.9332 589.905 68.7599 588.924 67.0959C587.985 65.3892 587.516 63.0426 587.516 60.0559V43.2239H582.972V39.1919L588.22 35.9919L590.972 28.6319H597.052V36.0559H606.844V43.2239H597.052V60.0559C597.052 61.3786 597.436 62.3812 598.204 63.0639C598.972 63.7039 599.975 64.0239 601.212 64.0239Z" fill="url(#paint33_linear_112_4118)"/>
<path d="M568.404 71.6399C565.033 71.6399 562.068 71.0212 559.508 69.7839C556.991 68.5039 555.028 66.5412 553.62 63.8959C552.212 61.2079 551.508 57.8159 551.508 53.7199C551.508 49.4106 552.276 45.9119 553.812 43.2239C555.348 40.5359 557.439 38.5732 560.084 37.3359C562.729 36.0559 565.737 35.4159 569.108 35.4159C571.156 35.4159 573.076 35.6292 574.868 36.0559C576.703 36.4826 578.324 37.0586 579.732 37.7839L576.852 45.0799C575.572 44.5252 574.271 44.0772 572.948 43.7359C571.668 43.3519 570.388 43.1599 569.108 43.1599C567.444 43.1599 566.036 43.5439 564.884 44.3119C563.732 45.0799 562.857 46.2532 562.26 47.8319C561.663 49.3679 561.364 51.3092 561.364 53.6559C561.364 55.9599 561.663 57.8586 562.26 59.3519C562.857 60.8452 563.732 61.9759 564.884 62.7439C566.036 63.4692 567.401 63.8319 568.98 63.8319C570.815 63.8319 572.543 63.5972 574.164 63.1279C575.785 62.6159 577.321 61.9546 578.772 61.1439V69.0159C577.449 69.8266 575.956 70.4666 574.292 70.9359C572.628 71.4052 570.665 71.6399 568.404 71.6399Z" fill="url(#paint34_linear_112_4118)"/>
<path d="M543.739 36.0559V70.9999H536.315L535.099 66.5199H534.523C533.798 67.7146 532.859 68.6959 531.707 69.4639C530.598 70.2319 529.36 70.7866 527.995 71.1279C526.672 71.4692 525.264 71.6399 523.771 71.6399C521.296 71.6399 519.12 71.1919 517.243 70.2959C515.408 69.3999 513.958 68.0132 512.891 66.1359C511.867 64.2586 511.355 61.8266 511.355 58.8399V36.0559H521.083V56.4079C521.083 58.8826 521.51 60.7599 522.363 62.0399C523.259 63.2772 524.667 63.8959 526.587 63.8959C528.55 63.8959 530.064 63.4692 531.131 62.6159C532.24 61.7199 533.008 60.4186 533.435 58.7119C533.862 57.0052 534.075 54.9146 534.075 52.4399V36.0559H543.739Z" fill="url(#paint35_linear_112_4118)"/>
<path d="M482.566 71.6399C478.726 71.6399 475.568 70.1252 473.094 67.0959C470.662 64.0239 469.446 59.5226 469.446 53.5919C469.446 47.5759 470.683 43.0532 473.158 40.0239C475.632 36.9519 478.875 35.4159 482.886 35.4159C484.55 35.4159 485.979 35.6506 487.174 36.1199C488.411 36.5466 489.478 37.1439 490.374 37.9119C491.27 38.6799 492.038 39.5546 492.678 40.5359H492.998C492.87 39.7679 492.742 38.7012 492.614 37.3359C492.528 35.9279 492.486 34.6479 492.486 33.4959V22.3599H502.214V70.9999H494.79L492.87 66.4559H492.486C491.888 67.4372 491.142 68.3119 490.246 69.0799C489.35 69.8479 488.262 70.4666 486.982 70.9359C485.744 71.4052 484.272 71.6399 482.566 71.6399ZM485.958 63.8959C488.603 63.8959 490.459 63.1492 491.526 61.6559C492.592 60.1199 493.126 57.7946 493.126 54.6799V53.6559C493.126 50.2852 492.614 47.7039 491.59 45.9119C490.566 44.1199 488.667 43.2239 485.894 43.2239C483.803 43.2239 482.16 44.1199 480.966 45.9119C479.814 47.7039 479.238 50.3066 479.238 53.7199C479.238 57.1332 479.814 59.6932 480.966 61.3999C482.16 63.0639 483.824 63.8959 485.958 63.8959Z" fill="url(#paint36_linear_112_4118)"/>
<path d="M448.413 35.4159C452.808 35.4159 456.157 36.4612 458.461 38.5519C460.765 40.5999 461.917 43.6506 461.917 47.7039V70.9999H455.197L453.341 66.2639H453.085C452.104 67.5012 451.08 68.5252 450.013 69.3359C448.989 70.1466 447.794 70.7226 446.429 71.0639C445.064 71.4479 443.4 71.6399 441.437 71.6399C439.389 71.6399 437.554 71.2559 435.933 70.4879C434.312 69.6772 433.032 68.4612 432.093 66.8399C431.154 65.2186 430.685 63.1706 430.685 60.6959C430.685 57.0266 432.008 54.2746 434.653 52.4399C437.298 50.6052 441.245 49.5812 446.493 49.3679L452.317 49.1759V48.0879C452.317 45.9972 451.848 44.5466 450.909 43.7359C449.97 42.8826 448.648 42.4559 446.941 42.4559C445.362 42.4559 443.741 42.7119 442.077 43.2239C440.413 43.7359 438.77 44.3546 437.149 45.0799L434.333 38.4879C436.168 37.5492 438.258 36.8026 440.605 36.2479C442.994 35.6932 445.597 35.4159 448.413 35.4159ZM448.669 54.9999C445.64 55.0852 443.528 55.5759 442.333 56.4719C441.138 57.3679 440.541 58.6266 440.541 60.2479C440.541 61.7412 440.946 62.8506 441.757 63.5759C442.61 64.2586 443.741 64.5999 445.149 64.5999C447.154 64.5999 448.84 64.0026 450.205 62.8079C451.613 61.6132 452.317 59.9066 452.317 57.6879V54.8079L448.669 54.9999Z" fill="url(#paint37_linear_112_4118)"/>
<path d="M424.75 35.4159C425.39 35.4159 426.073 35.4586 426.798 35.5439C427.566 35.5866 428.163 35.6719 428.59 35.7999L427.63 44.8239C427.161 44.7386 426.606 44.6532 425.966 44.5679C425.326 44.4826 424.558 44.4399 423.662 44.4399C422.681 44.4399 421.678 44.5892 420.654 44.8879C419.673 45.1866 418.755 45.6772 417.902 46.3599C417.049 47.0426 416.366 47.9386 415.854 49.0479C415.342 50.1572 415.086 51.5652 415.086 53.2719V70.9999H405.422V36.0559H412.782L414.19 41.9439H414.638C415.321 40.7066 416.174 39.5972 417.198 38.6159C418.222 37.6346 419.374 36.8666 420.654 36.3119C421.934 35.7146 423.299 35.4159 424.75 35.4159Z" fill="url(#paint38_linear_112_4118)"/>
<path d="M390.36 70.9999H380.568V33.4319H368.216V25.3039H402.712V33.4319H390.36V70.9999Z" fill="url(#paint39_linear_112_4118)"/>
<defs>
<filter id="filter0_f_112_4118" x="347.656" y="14.2959" width="702.099" height="89.3442" filterUnits="userSpaceOnUse" color-interpolation-filters="sRGB">
<feFlood flood-opacity="0" result="BackgroundImageFix"/>
<feBlend mode="normal" in="SourceGraphic" in2="BackgroundImageFix" result="shape"/>
<feGaussianBlur stdDeviation="10" result="effect1_foregroundBlur_112_4118"/>
</filter>
<linearGradient id="paint0_linear_112_4118" x1="267" y1="64.0036" x2="1133" y2="64.0027" gradientUnits="userSpaceOnUse">
<stop stop-color="white" stop-opacity="0.3"/>
<stop offset="0.495" stop-color="#CBB0F8"/>
<stop offset="1" stop-color="white" stop-opacity="0.3"/>
</linearGradient>
<linearGradient id="paint1_linear_112_4118" x1="1096.85" y1="49.3944" x2="-15545.6" y2="49.4331" gradientUnits="userSpaceOnUse">
<stop stop-color="#F4439F"/>
<stop offset="1" stop-color="#7C3AED"/>
</linearGradient>
<linearGradient id="paint2_linear_112_4118" x1="1749.17" y1="49.3944" x2="-11921.4" y2="49.4205" gradientUnits="userSpaceOnUse">
<stop stop-color="#F4439F"/>
<stop offset="1" stop-color="#7C3AED"/>
</linearGradient>
<linearGradient id="paint3_linear_112_4118" x1="5734.93" y1="58.818" x2="-36276.9" y2="59.1495" gradientUnits="userSpaceOnUse">
<stop stop-color="#F4439F"/>
<stop offset="1" stop-color="#7C3AED"/>
</linearGradient>
<linearGradient id="paint4_linear_112_4118" x1="3331.77" y1="49.3944" x2="-13310.6" y2="49.4331" gradientUnits="userSpaceOnUse">
<stop stop-color="#F4439F"/>
<stop offset="1" stop-color="#7C3AED"/>
</linearGradient>
<linearGradient id="paint5_linear_112_4118" x1="8967.82" y1="58.818" x2="-33044" y2="59.1495" gradientUnits="userSpaceOnUse">
<stop stop-color="#F4439F"/>
<stop offset="1" stop-color="#7C3AED"/>
</linearGradient>
<linearGradient id="paint6_linear_112_4118" x1="4108.08" y1="49.3944" x2="-10010.7" y2="49.4223" gradientUnits="userSpaceOnUse">
<stop stop-color="#F4439F"/>
<stop offset="1" stop-color="#7C3AED"/>
</linearGradient>
<linearGradient id="paint7_linear_112_4118" x1="5569.82" y1="49.3944" x2="-11072.6" y2="49.4331" gradientUnits="userSpaceOnUse">
<stop stop-color="#F4439F"/>
<stop offset="1" stop-color="#7C3AED"/>
</linearGradient>
<linearGradient id="paint8_linear_112_4118" x1="5764.65" y1="49.3944" x2="-7905.92" y2="49.4205" gradientUnits="userSpaceOnUse">
<stop stop-color="#F4439F"/>
<stop offset="1" stop-color="#7C3AED"/>
</linearGradient>
<linearGradient id="paint9_linear_112_4118" x1="6497.39" y1="58.4672" x2="-6959.58" y2="58.5017" gradientUnits="userSpaceOnUse">
<stop stop-color="#F4439F"/>
<stop offset="1" stop-color="#7C3AED"/>
</linearGradient>
<linearGradient id="paint10_linear_112_4118" x1="7726.99" y1="49.666" x2="-5889.55" y2="49.6915" gradientUnits="userSpaceOnUse">
<stop stop-color="#F4439F"/>
<stop offset="1" stop-color="#7C3AED"/>
</linearGradient>
<linearGradient id="paint11_linear_112_4118" x1="8206.99" y1="49.3945" x2="-4792.95" y2="49.4181" gradientUnits="userSpaceOnUse">
<stop stop-color="#F4439F"/>
<stop offset="1" stop-color="#7C3AED"/>
</linearGradient>
<linearGradient id="paint12_linear_112_4118" x1="26823.8" y1="58.818" x2="-15188.3" y2="59.1495" gradientUnits="userSpaceOnUse">
<stop stop-color="#F4439F"/>
<stop offset="1" stop-color="#7C3AED"/>
</linearGradient>
<linearGradient id="paint13_linear_112_4118" x1="12651.8" y1="54.7962" x2="-5527.58" y2="54.8511" gradientUnits="userSpaceOnUse">
<stop stop-color="#F4439F"/>
<stop offset="1" stop-color="#7C3AED"/>
</linearGradient>
<linearGradient id="paint14_linear_112_4118" x1="11662.8" y1="49.3945" x2="-3960.67" y2="49.4286" gradientUnits="userSpaceOnUse">
<stop stop-color="#F4439F"/>
<stop offset="1" stop-color="#7C3AED"/>
</linearGradient>
<linearGradient id="paint15_linear_112_4118" x1="11032.8" y1="48.7785" x2="-2583.72" y2="48.8039" gradientUnits="userSpaceOnUse">
<stop stop-color="#F4439F"/>
<stop offset="1" stop-color="#7C3AED"/>
</linearGradient>
<linearGradient id="paint16_linear_112_4118" x1="11754.6" y1="58.4672" x2="-1702.32" y2="58.5017" gradientUnits="userSpaceOnUse">
<stop stop-color="#F4439F"/>
<stop offset="1" stop-color="#7C3AED"/>
</linearGradient>
<linearGradient id="paint17_linear_112_4118" x1="13136.4" y1="49.3945" x2="-982.427" y2="49.4223" gradientUnits="userSpaceOnUse">
<stop stop-color="#F4439F"/>
<stop offset="1" stop-color="#7C3AED"/>
</linearGradient>
<linearGradient id="paint18_linear_112_4118" x1="18302.7" y1="49.666" x2="-730.374" y2="49.7157" gradientUnits="userSpaceOnUse">
<stop stop-color="#F4439F"/>
<stop offset="1" stop-color="#7C3AED"/>
</linearGradient>
<linearGradient id="paint19_linear_112_4118" x1="1032.44" y1="58.4997" x2="366.44" y2="58.4998" gradientUnits="userSpaceOnUse">
<stop stop-color="#F4439F"/>
<stop offset="1" stop-color="#7C3AED"/>
</linearGradient>
<linearGradient id="paint20_linear_112_4118" x1="700" y1="72" x2="700" y2="117" gradientUnits="userSpaceOnUse">
<stop offset="0.0001" stop-color="white" stop-opacity="0.1"/>
<stop offset="1" stop-color="white" stop-opacity="0"/>
</linearGradient>
<linearGradient id="paint21_linear_112_4118" x1="1097.41" y1="-21.8609" x2="924.55" y2="1711.62" gradientUnits="userSpaceOnUse">
<stop stop-color="#F4439F"/>
<stop offset="1" stop-color="#7C3AED"/>
</linearGradient>
<linearGradient id="paint22_linear_112_4118" x1="1749.73" y1="-21.8609" x2="1540.29" y2="1703.43" gradientUnits="userSpaceOnUse">
<stop stop-color="#F4439F"/>
<stop offset="1" stop-color="#7C3AED"/>
</linearGradient>
<linearGradient id="paint23_linear_112_4118" x1="5735.48" y1="2.74633" x2="5697.26" y2="1303.73" gradientUnits="userSpaceOnUse">
<stop stop-color="#F4439F"/>
<stop offset="1" stop-color="#7C3AED"/>
</linearGradient>
<linearGradient id="paint24_linear_112_4118" x1="3332.33" y1="-21.8609" x2="3159.47" y2="1711.62" gradientUnits="userSpaceOnUse">
<stop stop-color="#F4439F"/>
<stop offset="1" stop-color="#7C3AED"/>
</linearGradient>
<linearGradient id="paint25_linear_112_4118" x1="8968.38" y1="2.74633" x2="8930.16" y2="1303.73" gradientUnits="userSpaceOnUse">
<stop stop-color="#F4439F"/>
<stop offset="1" stop-color="#7C3AED"/>
</linearGradient>
<linearGradient id="paint26_linear_112_4118" x1="4108.64" y1="-21.8609" x2="3905.66" y2="1705" gradientUnits="userSpaceOnUse">
<stop stop-color="#F4439F"/>
<stop offset="1" stop-color="#7C3AED"/>
</linearGradient>
<linearGradient id="paint27_linear_112_4118" x1="5570.38" y1="-21.8609" x2="5397.52" y2="1711.62" gradientUnits="userSpaceOnUse">
<stop stop-color="#F4439F"/>
<stop offset="1" stop-color="#7C3AED"/>
</linearGradient>
<linearGradient id="paint28_linear_112_4118" x1="5765.21" y1="-21.8609" x2="5555.76" y2="1703.43" gradientUnits="userSpaceOnUse">
<stop stop-color="#F4439F"/>
<stop offset="1" stop-color="#7C3AED"/>
</linearGradient>
<linearGradient id="paint29_linear_112_4118" x1="6497.94" y1="2.91076" x2="6382.24" y2="1279.31" gradientUnits="userSpaceOnUse">
<stop stop-color="#F4439F"/>
<stop offset="1" stop-color="#7C3AED"/>
</linearGradient>
<linearGradient id="paint30_linear_112_4118" x1="7727.54" y1="-22.6551" x2="7509.78" y2="1732.53" gradientUnits="userSpaceOnUse">
<stop stop-color="#F4439F"/>
<stop offset="1" stop-color="#7C3AED"/>
</linearGradient>
<linearGradient id="paint31_linear_112_4118" x1="8207.55" y1="-21.8609" x2="7987.64" y2="1700.78" gradientUnits="userSpaceOnUse">
<stop stop-color="#F4439F"/>
<stop offset="1" stop-color="#7C3AED"/>
</linearGradient>
<linearGradient id="paint32_linear_112_4118" x1="26824.3" y1="2.74634" x2="26786.1" y2="1303.73" gradientUnits="userSpaceOnUse">
<stop stop-color="#F4439F"/>
<stop offset="1" stop-color="#7C3AED"/>
</linearGradient>
<linearGradient id="paint33_linear_112_4118" x1="12652.3" y1="-7.11227" x2="12539.6" y2="1458.78" gradientUnits="userSpaceOnUse">
<stop stop-color="#F4439F"/>
<stop offset="1" stop-color="#7C3AED"/>
</linearGradient>
<linearGradient id="paint34_linear_112_4118" x1="11663.4" y1="-21.8609" x2="11479.5" y2="1709.32" gradientUnits="userSpaceOnUse">
<stop stop-color="#F4439F"/>
<stop offset="1" stop-color="#7C3AED"/>
</linearGradient>
<linearGradient id="paint35_linear_112_4118" x1="11033.4" y1="-23.5426" x2="10815.6" y2="1731.64" gradientUnits="userSpaceOnUse">
<stop stop-color="#F4439F"/>
<stop offset="1" stop-color="#7C3AED"/>
</linearGradient>
<linearGradient id="paint36_linear_112_4118" x1="11755.2" y1="2.91074" x2="11639.5" y2="1279.31" gradientUnits="userSpaceOnUse">
<stop stop-color="#F4439F"/>
<stop offset="1" stop-color="#7C3AED"/>
</linearGradient>
<linearGradient id="paint37_linear_112_4118" x1="13136.9" y1="-21.8609" x2="12933.9" y2="1705" gradientUnits="userSpaceOnUse">
<stop stop-color="#F4439F"/>
<stop offset="1" stop-color="#7C3AED"/>
</linearGradient>
<linearGradient id="paint38_linear_112_4118" x1="18303.2" y1="-22.6551" x2="18146.3" y2="1745.62" gradientUnits="userSpaceOnUse">
<stop stop-color="#F4439F"/>
<stop offset="1" stop-color="#7C3AED"/>
</linearGradient>
<linearGradient id="paint39_linear_112_4118" x1="1033" y1="2.99971" x2="492.069" y2="298.708" gradientUnits="userSpaceOnUse">
<stop stop-color="#F4439F"/>
<stop offset="1" stop-color="#7C3AED"/>
</linearGradient>
</defs>
</svg>
