<svg width="1400" height="120" viewBox="0 0 1400 120" fill="none" xmlns="http://www.w3.org/2000/svg">
<path d="M184 56H1216V72H184V56Z" fill="url(#paint0_linear_112_4174)"/>
<mask id="mask0_112_4174" style="mask-type:alpha" maskUnits="userSpaceOnUse" x="184" y="72" width="1032" height="45">
<path d="M184 72H1216V117H184V72Z" fill="#C4C4C4"/>
</mask>
<g mask="url(#mask0_112_4174)">
<g filter="url(#filter0_f_112_4174)">
<path d="M1096.41 47.4159C1100.25 47.4159 1103.28 48.4186 1105.49 50.4239C1107.71 52.4292 1108.82 55.6932 1108.82 60.2159V82.9999H1099.22V62.6479C1099.22 60.1306 1098.75 58.2532 1097.81 57.0159C1096.92 55.7359 1095.51 55.0959 1093.59 55.0959C1090.69 55.0959 1088.7 56.0986 1087.64 58.1039C1086.61 60.0666 1086.1 62.9039 1086.1 66.6159V82.9999H1076.44V48.0559H1083.86L1085.21 52.7279H1085.59C1086.36 51.5759 1087.28 50.6159 1088.34 49.8479C1089.45 49.0372 1090.67 48.4399 1091.99 48.0559C1093.36 47.6292 1094.83 47.4159 1096.41 47.4159Z" fill="url(#paint1_linear_112_4174)" fill-opacity="0.7"/>
<path d="M1068.69 65.4639C1068.69 68.3652 1068.29 70.9466 1067.48 73.2079C1066.71 75.4692 1065.58 77.3679 1064.09 78.9039C1062.64 80.4399 1060.86 81.6132 1058.77 82.4239C1056.68 83.2346 1054.32 83.6399 1051.67 83.6399C1049.2 83.6399 1046.93 83.2346 1044.89 82.4239C1042.84 81.6132 1041.07 80.4399 1039.57 78.9039C1038.08 77.3679 1036.91 75.4692 1036.05 73.2079C1035.2 70.9466 1034.77 68.3652 1034.77 65.4639C1034.77 61.5812 1035.46 58.2959 1036.82 55.6079C1038.19 52.9199 1040.15 50.8932 1042.71 49.5279C1045.27 48.1199 1048.32 47.4159 1051.86 47.4159C1055.15 47.4159 1058.05 48.1199 1060.57 49.5279C1063.08 50.8932 1065.07 52.9199 1066.52 55.6079C1067.97 58.2959 1068.69 61.5812 1068.69 65.4639ZM1044.63 65.4639C1044.63 67.7252 1044.86 69.6666 1045.33 71.2879C1045.85 72.9092 1046.61 74.1466 1047.64 74.9999C1048.7 75.8532 1050.09 76.2799 1051.8 76.2799C1053.46 76.2799 1054.81 75.8532 1055.83 74.9999C1056.9 74.1466 1057.66 72.9092 1058.13 71.2879C1058.6 69.6666 1058.84 67.7252 1058.84 65.4639C1058.84 63.1599 1058.58 61.2186 1058.07 59.6399C1057.6 58.0612 1056.85 56.8666 1055.83 56.0559C1054.81 55.2026 1053.44 54.7759 1051.73 54.7759C1049.26 54.7759 1047.45 55.6932 1046.29 57.5279C1045.18 59.3626 1044.63 62.0079 1044.63 65.4639Z" fill="url(#paint2_linear_112_4174)" fill-opacity="0.7"/>
<path d="M1027.04 48.0559V82.9999H1017.38V48.0559H1027.04ZM1022.24 34.2959C1023.65 34.2959 1024.87 34.6372 1025.89 35.3199C1026.96 35.9599 1027.49 37.1972 1027.49 39.0319C1027.49 40.7812 1026.96 41.9972 1025.89 42.6799C1024.87 43.3626 1023.65 43.7039 1022.24 43.7039C1020.79 43.7039 1019.55 43.3626 1018.53 42.6799C1017.51 41.9972 1016.99 40.7812 1016.99 39.0319C1016.99 37.1972 1017.51 35.9599 1018.53 35.3199C1019.55 34.6372 1020.79 34.2959 1022.24 34.2959Z" fill="url(#paint3_linear_112_4174)" fill-opacity="0.7"/>
<path d="M1004.6 76.0239C1005.67 76.0239 1006.69 75.9172 1007.68 75.7039C1008.66 75.4906 1009.64 75.2346 1010.62 74.9359V82.0399C1009.6 82.4666 1008.32 82.8292 1006.78 83.1279C1005.29 83.4692 1003.64 83.6399 1001.85 83.6399C999.76 83.6399 997.883 83.2986 996.219 82.6159C994.598 81.9332 993.296 80.7599 992.315 79.0959C991.376 77.3892 990.907 75.0426 990.907 72.0559V55.2239H986.363V51.1919L991.611 47.9919L994.363 40.6319H1000.44V48.0559H1010.24V55.2239H1000.44V72.0559C1000.44 73.3786 1000.83 74.3812 1001.6 75.0639C1002.36 75.7039 1003.37 76.0239 1004.6 76.0239Z" fill="url(#paint4_linear_112_4174)" fill-opacity="0.7"/>
<path d="M971.795 83.6399C968.424 83.6399 965.459 83.0212 962.899 81.7839C960.382 80.5039 958.419 78.5412 957.011 75.8959C955.603 73.2079 954.899 69.8159 954.899 65.7199C954.899 61.4106 955.667 57.9119 957.203 55.2239C958.739 52.5359 960.83 50.5732 963.475 49.3359C966.12 48.0559 969.128 47.4159 972.499 47.4159C974.547 47.4159 976.467 47.6292 978.259 48.0559C980.094 48.4826 981.715 49.0586 983.123 49.7839L980.243 57.0799C978.963 56.5252 977.662 56.0772 976.339 55.7359C975.059 55.3519 973.779 55.1599 972.499 55.1599C970.835 55.1599 969.427 55.5439 968.275 56.3119C967.123 57.0799 966.248 58.2532 965.651 59.8319C965.054 61.3679 964.755 63.3092 964.755 65.6559C964.755 67.9599 965.054 69.8586 965.651 71.3519C966.248 72.8452 967.123 73.9759 968.275 74.7439C969.427 75.4692 970.792 75.8319 972.371 75.8319C974.206 75.8319 975.934 75.5972 977.555 75.1279C979.176 74.6159 980.712 73.9546 982.163 73.1439V81.0159C980.84 81.8266 979.347 82.4666 977.683 82.9359C976.019 83.4052 974.056 83.6399 971.795 83.6399Z" fill="url(#paint5_linear_112_4174)" fill-opacity="0.7"/>
<path d="M947.13 48.0559V82.9999H939.706L938.49 78.5199H937.914C937.189 79.7146 936.25 80.6959 935.098 81.4639C933.989 82.2319 932.751 82.7866 931.386 83.1279C930.063 83.4692 928.655 83.6399 927.162 83.6399C924.687 83.6399 922.511 83.1919 920.634 82.2959C918.799 81.3999 917.349 80.0132 916.282 78.1359C915.258 76.2586 914.746 73.8266 914.746 70.8399V48.0559H924.474V68.4079C924.474 70.8826 924.901 72.7599 925.754 74.0399C926.65 75.2772 928.058 75.8959 929.978 75.8959C931.941 75.8959 933.455 75.4692 934.522 74.6159C935.631 73.7199 936.399 72.4186 936.826 70.7119C937.253 69.0052 937.466 66.9146 937.466 64.4399V48.0559H947.13Z" fill="url(#paint6_linear_112_4174)" fill-opacity="0.7"/>
<path d="M885.957 83.6399C882.117 83.6399 878.959 82.1252 876.485 79.0959C874.053 76.0239 872.837 71.5226 872.837 65.5919C872.837 59.5759 874.074 55.0532 876.549 52.0239C879.023 48.9519 882.266 47.4159 886.277 47.4159C887.941 47.4159 889.37 47.6506 890.565 48.1199C891.802 48.5466 892.869 49.1439 893.765 49.9119C894.661 50.6799 895.429 51.5546 896.069 52.5359H896.389C896.261 51.7679 896.133 50.7012 896.005 49.3359C895.919 47.9279 895.877 46.6479 895.877 45.4959V34.3599H905.605V82.9999H898.181L896.261 78.4559H895.877C895.279 79.4372 894.533 80.3119 893.637 81.0799C892.741 81.8479 891.653 82.4666 890.373 82.9359C889.135 83.4052 887.663 83.6399 885.957 83.6399ZM889.349 75.8959C891.994 75.8959 893.85 75.1492 894.917 73.6559C895.983 72.1199 896.517 69.7946 896.517 66.6799V65.6559C896.517 62.2852 896.005 59.7039 894.981 57.9119C893.957 56.1199 892.058 55.2239 889.285 55.2239C887.194 55.2239 885.551 56.1199 884.357 57.9119C883.205 59.7039 882.629 62.3066 882.629 65.7199C882.629 69.1332 883.205 71.6932 884.357 73.3999C885.551 75.0639 887.215 75.8959 889.349 75.8959Z" fill="url(#paint7_linear_112_4174)" fill-opacity="0.7"/>
<path d="M851.804 47.4159C856.199 47.4159 859.548 48.4612 861.852 50.5519C864.156 52.5999 865.308 55.6506 865.308 59.7039V82.9999H858.588L856.732 78.2639H856.476C855.495 79.5012 854.471 80.5252 853.404 81.3359C852.38 82.1466 851.185 82.7226 849.82 83.0639C848.455 83.4479 846.791 83.6399 844.828 83.6399C842.78 83.6399 840.945 83.2559 839.324 82.4879C837.703 81.6772 836.423 80.4612 835.484 78.8399C834.545 77.2186 834.076 75.1706 834.076 72.6959C834.076 69.0266 835.399 66.2746 838.044 64.4399C840.689 62.6052 844.636 61.5812 849.884 61.3679L855.708 61.1759V60.0879C855.708 57.9972 855.239 56.5466 854.3 55.7359C853.361 54.8826 852.039 54.4559 850.332 54.4559C848.753 54.4559 847.132 54.7119 845.468 55.2239C843.804 55.7359 842.161 56.3546 840.54 57.0799L837.724 50.4879C839.559 49.5492 841.649 48.8026 843.996 48.2479C846.385 47.6932 848.988 47.4159 851.804 47.4159ZM852.06 66.9999C849.031 67.0852 846.919 67.5759 845.724 68.4719C844.529 69.3679 843.932 70.6266 843.932 72.2479C843.932 73.7412 844.337 74.8506 845.148 75.5759C846.001 76.2586 847.132 76.5999 848.54 76.5999C850.545 76.5999 852.231 76.0026 853.596 74.8079C855.004 73.6132 855.708 71.9066 855.708 69.6879V66.8079L852.06 66.9999Z" fill="url(#paint8_linear_112_4174)" fill-opacity="0.7"/>
<path d="M828.141 47.4159C828.781 47.4159 829.464 47.4586 830.189 47.5439C830.957 47.5866 831.554 47.6719 831.981 47.7999L831.021 56.8239C830.552 56.7386 829.997 56.6532 829.357 56.5679C828.717 56.4826 827.949 56.4399 827.053 56.4399C826.072 56.4399 825.069 56.5892 824.045 56.8879C823.064 57.1866 822.146 57.6772 821.293 58.3599C820.44 59.0426 819.757 59.9386 819.245 61.0479C818.733 62.1572 818.477 63.5652 818.477 65.2719V82.9999H808.813V48.0559H816.173L817.581 53.9439H818.029C818.712 52.7066 819.565 51.5972 820.589 50.6159C821.613 49.6346 822.765 48.8666 824.045 48.3119C825.325 47.7146 826.69 47.4159 828.141 47.4159Z" fill="url(#paint9_linear_112_4174)" fill-opacity="0.7"/>
<path d="M796.103 76.0239C797.17 76.0239 798.194 75.9172 799.175 75.7039C800.156 75.4906 801.138 75.2346 802.119 74.9359V82.0399C801.095 82.4666 799.815 82.8292 798.279 83.1279C796.786 83.4692 795.143 83.6399 793.351 83.6399C791.26 83.6399 789.383 83.2986 787.719 82.6159C786.098 81.9332 784.796 80.7599 783.815 79.0959C782.876 77.3892 782.407 75.0426 782.407 72.0559V55.2239H777.863V51.1919L783.111 47.9919L785.863 40.6319H791.943V48.0559H801.735V55.2239H791.943V72.0559C791.943 73.3786 792.327 74.3812 793.095 75.0639C793.863 75.7039 794.866 76.0239 796.103 76.0239Z" fill="url(#paint10_linear_112_4174)" fill-opacity="0.7"/>
<path d="M741.163 47.4159C744.405 47.4159 747.2 48.0346 749.547 49.2719C751.893 50.4666 753.685 52.2586 754.923 54.6479C756.203 56.9946 756.843 59.8746 756.843 63.2879V67.9599H734.379C734.464 70.6052 735.275 72.6959 736.811 74.2319C738.347 75.7252 740.544 76.4719 743.403 76.4719C745.579 76.4719 747.563 76.2586 749.355 75.8319C751.147 75.4052 752.981 74.7652 754.859 73.9119V81.1439C753.152 81.9972 751.339 82.6159 749.419 82.9999C747.541 83.4266 745.195 83.6399 742.379 83.6399C738.923 83.6399 735.851 82.9999 733.163 81.7199C730.517 80.4399 728.427 78.4772 726.891 75.8319C725.355 73.1439 724.587 69.7946 724.587 65.7839C724.587 61.6879 725.269 58.2959 726.635 55.6079C728.043 52.8772 729.984 50.8292 732.459 49.4639C734.976 48.0986 737.877 47.4159 741.163 47.4159ZM741.419 54.2639C739.499 54.2639 737.941 54.8826 736.747 56.1199C735.552 57.3146 734.848 59.1066 734.635 61.4959H747.819C747.819 60.0879 747.584 58.8506 747.115 57.7839C746.645 56.7172 745.92 55.8639 744.939 55.2239C744 54.5839 742.827 54.2639 741.419 54.2639Z" fill="url(#paint11_linear_112_4174)" fill-opacity="0.7"/>
<path d="M697.269 83.6399C693.429 83.6399 690.272 82.1252 687.797 79.0959C685.365 76.0239 684.149 71.5226 684.149 65.5919C684.149 59.5759 685.386 55.0532 687.861 52.0239C690.336 48.9519 693.578 47.4159 697.589 47.4159C699.253 47.4159 700.682 47.6506 701.877 48.1199C703.114 48.5466 704.181 49.1439 705.077 49.9119C705.973 50.6799 706.741 51.5546 707.381 52.5359H707.701C707.573 51.7679 707.445 50.7012 707.317 49.3359C707.232 47.9279 707.189 46.6479 707.189 45.4959V34.3599H716.917V82.9999H709.493L707.573 78.4559H707.189C706.592 79.4372 705.845 80.3119 704.949 81.0799C704.053 81.8479 702.965 82.4666 701.685 82.9359C700.448 83.4052 698.976 83.6399 697.269 83.6399ZM700.661 75.8959C703.306 75.8959 705.162 75.1492 706.229 73.6559C707.296 72.1199 707.829 69.7946 707.829 66.6799V65.6559C707.829 62.2852 707.317 59.7039 706.293 57.9119C705.269 56.1199 703.37 55.2239 700.597 55.2239C698.506 55.2239 696.864 56.1199 695.669 57.9119C694.517 59.7039 693.941 62.3066 693.941 65.7199C693.941 69.1332 694.517 71.6932 695.669 73.3999C696.864 75.0639 698.528 75.8959 700.661 75.8959Z" fill="url(#paint12_linear_112_4174)" fill-opacity="0.7"/>
<path d="M661.831 72.6959C661.831 74.9146 661.298 76.8559 660.231 78.5199C659.207 80.1412 657.628 81.3999 655.495 82.2959C653.362 83.1919 650.652 83.6399 647.367 83.6399C644.892 83.6399 642.716 83.4692 640.839 83.1279C638.962 82.8292 637.148 82.3172 635.399 81.5919V73.5919C637.276 74.4879 639.303 75.1919 641.479 75.7039C643.655 76.2159 645.532 76.4719 647.111 76.4719C649.074 76.4719 650.482 76.1946 651.335 75.6399C652.231 75.0852 652.679 74.3386 652.679 73.3999C652.679 72.7599 652.444 72.1839 651.975 71.6719C651.548 71.1599 650.759 70.6266 649.607 70.0719C648.498 69.5172 646.898 68.8346 644.807 68.0239C642.716 67.1706 640.967 66.2959 639.559 65.3999C638.151 64.4612 637.084 63.3519 636.359 62.0719C635.676 60.7919 635.335 59.1919 635.335 57.2719C635.335 54.0719 636.594 51.6399 639.111 49.9759C641.671 48.2692 645.042 47.4159 649.223 47.4159C651.484 47.4159 653.575 47.6506 655.495 48.1199C657.458 48.5892 659.442 49.2506 661.447 50.1039L658.631 56.6959C657.01 55.9706 655.346 55.3732 653.639 54.9039C651.932 54.4346 650.418 54.1999 649.095 54.1999C647.644 54.1999 646.514 54.4346 645.703 54.9039C644.892 55.3306 644.487 55.9492 644.487 56.7599C644.487 57.3572 644.7 57.8906 645.127 58.3599C645.596 58.8292 646.386 59.3199 647.495 59.8319C648.647 60.3439 650.247 61.0052 652.295 61.8159C654.386 62.6266 656.135 63.5012 657.543 64.4399C658.994 65.3359 660.06 66.4452 660.743 67.7679C661.468 69.0479 661.831 70.6906 661.831 72.6959Z" fill="url(#paint13_linear_112_4174)" fill-opacity="0.7"/>
<path d="M627.665 82.9999H618.001V34.3599H627.665V82.9999Z" fill="url(#paint14_linear_112_4174)" fill-opacity="0.7"/>
<path d="M608.604 48.0559V82.9999H598.94V48.0559H608.604ZM603.804 34.2959C605.212 34.2959 606.428 34.6372 607.452 35.3199C608.518 35.9599 609.052 37.1972 609.052 39.0319C609.052 40.7812 608.518 41.9972 607.452 42.6799C606.428 43.3626 605.212 43.7039 603.804 43.7039C602.353 43.7039 601.116 43.3626 600.092 42.6799C599.068 41.9972 598.556 40.7812 598.556 39.0319C598.556 37.1972 599.068 35.9599 600.092 35.3199C601.116 34.6372 602.353 34.2959 603.804 34.2959Z" fill="url(#paint15_linear_112_4174)" fill-opacity="0.7"/>
<path d="M586.166 76.0239C587.232 76.0239 588.256 75.9172 589.238 75.7039C590.219 75.4906 591.2 75.2346 592.182 74.9359V82.0399C591.158 82.4666 589.878 82.8292 588.342 83.1279C586.848 83.4692 585.206 83.6399 583.414 83.6399C581.323 83.6399 579.446 83.2986 577.782 82.6159C576.16 81.9332 574.859 80.7599 573.878 79.0959C572.939 77.3892 572.47 75.0426 572.47 72.0559V55.2239H567.926V51.1919L573.174 47.9919L575.926 40.6319H582.006V48.0559H591.798V55.2239H582.006V72.0559C582.006 73.3786 582.39 74.3812 583.158 75.0639C583.926 75.7039 584.928 76.0239 586.166 76.0239Z" fill="url(#paint16_linear_112_4174)" fill-opacity="0.7"/>
<path d="M561.693 48.0559V82.9999H554.269L553.053 78.5199H552.477C551.751 79.7146 550.813 80.6959 549.661 81.4639C548.551 82.2319 547.314 82.7866 545.949 83.1279C544.626 83.4692 543.218 83.6399 541.725 83.6399C539.25 83.6399 537.074 83.1919 535.197 82.2959C533.362 81.3999 531.911 80.0132 530.845 78.1359C529.821 76.2586 529.309 73.8266 529.309 70.8399V48.0559H539.037V68.4079C539.037 70.8826 539.463 72.7599 540.317 74.0399C541.213 75.2772 542.621 75.8959 544.541 75.8959C546.503 75.8959 548.018 75.4692 549.085 74.6159C550.194 73.7199 550.962 72.4186 551.389 70.7119C551.815 69.0052 552.029 66.9146 552.029 64.4399V48.0559H561.693Z" fill="url(#paint17_linear_112_4174)" fill-opacity="0.7"/>
<path d="M521.757 65.4639C521.757 68.3652 521.351 70.9466 520.541 73.2079C519.773 75.4692 518.642 77.3679 517.149 78.9039C515.698 80.4399 513.927 81.6132 511.837 82.4239C509.746 83.2346 507.378 83.6399 504.733 83.6399C502.258 83.6399 499.997 83.2346 497.949 82.4239C495.901 81.6132 494.13 80.4399 492.637 78.9039C491.143 77.3679 489.97 75.4692 489.117 73.2079C488.263 70.9466 487.837 68.3652 487.837 65.4639C487.837 61.5812 488.519 58.2959 489.885 55.6079C491.25 52.9199 493.213 50.8932 495.773 49.5279C498.333 48.1199 501.383 47.4159 504.925 47.4159C508.21 47.4159 511.111 48.1199 513.629 49.5279C516.146 50.8932 518.13 52.9199 519.581 55.6079C521.031 58.2959 521.757 61.5812 521.757 65.4639ZM497.693 65.4639C497.693 67.7252 497.927 69.6666 498.397 71.2879C498.909 72.9092 499.677 74.1466 500.701 74.9999C501.767 75.8532 503.154 76.2799 504.861 76.2799C506.525 76.2799 507.869 75.8532 508.893 74.9999C509.959 74.1466 510.727 72.9092 511.197 71.2879C511.666 69.6666 511.901 67.7252 511.901 65.4639C511.901 63.1599 511.645 61.2186 511.133 59.6399C510.663 58.0612 509.917 56.8666 508.893 56.0559C507.869 55.2026 506.503 54.7759 504.797 54.7759C502.322 54.7759 500.509 55.6932 499.357 57.5279C498.247 59.3626 497.693 62.0079 497.693 65.4639Z" fill="url(#paint18_linear_112_4174)" fill-opacity="0.7"/>
<path d="M484.761 37.3039L483.481 53.8159H476.825L475.545 37.3039H484.761Z" fill="url(#paint19_linear_112_4174)" fill-opacity="0.7"/>
<path d="M447.332 83.6399C443.492 83.6399 440.334 82.1252 437.86 79.0959C435.428 76.0239 434.212 71.5226 434.212 65.5919C434.212 59.5759 435.449 55.0532 437.924 52.0239C440.398 48.9519 443.641 47.4159 447.652 47.4159C449.316 47.4159 450.745 47.6506 451.94 48.1199C453.177 48.5466 454.244 49.1439 455.14 49.9119C456.036 50.6799 456.804 51.5546 457.444 52.5359H457.764C457.636 51.7679 457.508 50.7012 457.38 49.3359C457.294 47.9279 457.252 46.6479 457.252 45.4959V34.3599H466.98V82.9999H459.556L457.636 78.4559H457.252C456.654 79.4372 455.908 80.3119 455.012 81.0799C454.116 81.8479 453.028 82.4666 451.748 82.9359C450.51 83.4052 449.038 83.6399 447.332 83.6399ZM450.724 75.8959C453.369 75.8959 455.225 75.1492 456.292 73.6559C457.358 72.1199 457.892 69.7946 457.892 66.6799V65.6559C457.892 62.2852 457.38 59.7039 456.356 57.9119C455.332 56.1199 453.433 55.2239 450.66 55.2239C448.569 55.2239 446.926 56.1199 445.732 57.9119C444.58 59.7039 444.004 62.3066 444.004 65.7199C444.004 69.1332 444.58 71.6932 445.732 73.3999C446.926 75.0639 448.59 75.8959 450.724 75.8959Z" fill="url(#paint20_linear_112_4174)" fill-opacity="0.7"/>
<path d="M411.894 72.6959C411.894 74.9146 411.36 76.8559 410.294 78.5199C409.27 80.1412 407.691 81.3999 405.558 82.2959C403.424 83.1919 400.715 83.6399 397.43 83.6399C394.955 83.6399 392.779 83.4692 390.902 83.1279C389.024 82.8292 387.211 82.3172 385.462 81.5919V73.5919C387.339 74.4879 389.366 75.1919 391.542 75.7039C393.718 76.2159 395.595 76.4719 397.174 76.4719C399.136 76.4719 400.544 76.1946 401.398 75.6399C402.294 75.0852 402.742 74.3386 402.742 73.3999C402.742 72.7599 402.507 72.1839 402.038 71.6719C401.611 71.1599 400.822 70.6266 399.67 70.0719C398.56 69.5172 396.96 68.8346 394.87 68.0239C392.779 67.1706 391.03 66.2959 389.622 65.3999C388.214 64.4612 387.147 63.3519 386.422 62.0719C385.739 60.7919 385.398 59.1919 385.398 57.2719C385.398 54.0719 386.656 51.6399 389.174 49.9759C391.734 48.2692 395.104 47.4159 399.286 47.4159C401.547 47.4159 403.638 47.6506 405.558 48.1199C407.52 48.5892 409.504 49.2506 411.51 50.1039L408.694 56.6959C407.072 55.9706 405.408 55.3732 403.702 54.9039C401.995 54.4346 400.48 54.1999 399.158 54.1999C397.707 54.1999 396.576 54.4346 395.766 54.9039C394.955 55.3306 394.55 55.9492 394.55 56.7599C394.55 57.3572 394.763 57.8906 395.19 58.3599C395.659 58.8292 396.448 59.3199 397.558 59.8319C398.71 60.3439 400.31 61.0052 402.358 61.8159C404.448 62.6266 406.198 63.5012 407.606 64.4399C409.056 65.3359 410.123 66.4452 410.806 67.7679C411.531 69.0479 411.894 70.6906 411.894 72.6959Z" fill="url(#paint21_linear_112_4174)" fill-opacity="0.7"/>
<path d="M377.693 48.0559V82.9999H370.269L369.053 78.5199H368.477C367.751 79.7146 366.813 80.6959 365.661 81.4639C364.551 82.2319 363.314 82.7866 361.949 83.1279C360.626 83.4692 359.218 83.6399 357.725 83.6399C355.25 83.6399 353.074 83.1919 351.197 82.2959C349.362 81.3999 347.911 80.0132 346.845 78.1359C345.821 76.2586 345.309 73.8266 345.309 70.8399V48.0559H355.037V68.4079C355.037 70.8826 355.463 72.7599 356.317 74.0399C357.213 75.2772 358.621 75.8959 360.541 75.8959C362.503 75.8959 364.018 75.4692 365.085 74.6159C366.194 73.7199 366.962 72.4186 367.389 70.7119C367.815 69.0052 368.029 66.9146 368.029 64.4399V48.0559H377.693Z" fill="url(#paint22_linear_112_4174)" fill-opacity="0.7"/>
<path d="M336.102 82.9999H326.438V34.3599H336.102V82.9999Z" fill="url(#paint23_linear_112_4174)" fill-opacity="0.7"/>
<path d="M301.792 37.3039C307.68 37.3039 312.032 38.5412 314.848 41.0159C317.664 43.4479 319.072 46.9039 319.072 51.3839C319.072 53.3892 318.773 55.3092 318.176 57.1439C317.579 58.9786 316.576 60.6426 315.168 62.1359C313.803 63.5866 311.989 64.7386 309.728 65.5919C307.467 66.4026 304.693 66.8079 301.408 66.8079H297.248V82.9999H287.456V37.3039H301.792ZM301.472 45.3039H297.248V58.7439H300.512C302.304 58.7439 303.84 58.5306 305.12 58.1039C306.443 57.6346 307.445 56.8879 308.128 55.8639C308.853 54.7972 309.216 53.4106 309.216 51.7039C309.216 49.6559 308.576 48.0772 307.296 46.9679C306.059 45.8586 304.117 45.3039 301.472 45.3039Z" fill="url(#paint24_linear_112_4174)" fill-opacity="0.7"/>
</g>
</g>
<path d="M184 72H1216V105C1216 111.627 1210.63 117 1204 117H196C189.373 117 184 111.627 184 105V72Z" fill="url(#paint25_linear_112_4174)"/>
<path d="M1098.7 35.4159C1102.54 35.4159 1105.57 36.4186 1107.79 38.4239C1110.01 40.4292 1111.12 43.6932 1111.12 48.2159V70.9999H1101.52V50.6479C1101.52 48.1306 1101.05 46.2532 1100.11 45.0159C1099.21 43.7359 1097.81 43.0959 1095.89 43.0959C1092.99 43.0959 1091 44.0986 1089.93 46.1039C1088.91 48.0666 1088.4 50.9039 1088.4 54.6159V70.9999H1078.73V36.0559H1086.16L1087.5 40.7279H1087.89C1088.65 39.5759 1089.57 38.6159 1090.64 37.8479C1091.75 37.0372 1092.96 36.4399 1094.29 36.0559C1095.65 35.6292 1097.12 35.4159 1098.7 35.4159Z" fill="url(#paint26_linear_112_4174)"/>
<path d="M1070.99 53.4639C1070.99 56.3652 1070.59 58.9466 1069.77 61.2079C1069.01 63.4692 1067.88 65.3679 1066.38 66.9039C1064.93 68.4399 1063.16 69.6132 1061.07 70.4239C1058.98 71.2346 1056.61 71.6399 1053.97 71.6399C1051.49 71.6399 1049.23 71.2346 1047.18 70.4239C1045.13 69.6132 1043.36 68.4399 1041.87 66.9039C1040.38 65.3679 1039.2 63.4692 1038.35 61.2079C1037.5 58.9466 1037.07 56.3652 1037.07 53.4639C1037.07 49.5812 1037.75 46.2959 1039.12 43.6079C1040.48 40.9199 1042.45 38.8932 1045.01 37.5279C1047.57 36.1199 1050.62 35.4159 1054.16 35.4159C1057.44 35.4159 1060.35 36.1199 1062.86 37.5279C1065.38 38.8932 1067.36 40.9199 1068.81 43.6079C1070.27 46.2959 1070.99 49.5812 1070.99 53.4639ZM1046.93 53.4639C1046.93 55.7252 1047.16 57.6666 1047.63 59.2879C1048.14 60.9092 1048.91 62.1466 1049.93 62.9999C1051 63.8532 1052.39 64.2799 1054.09 64.2799C1055.76 64.2799 1057.1 63.8532 1058.13 62.9999C1059.19 62.1466 1059.96 60.9092 1060.43 59.2879C1060.9 57.6666 1061.13 55.7252 1061.13 53.4639C1061.13 51.1599 1060.88 49.2186 1060.37 47.6399C1059.9 46.0612 1059.15 44.8666 1058.13 44.0559C1057.1 43.2026 1055.74 42.7759 1054.03 42.7759C1051.56 42.7759 1049.74 43.6932 1048.59 45.5279C1047.48 47.3626 1046.93 50.0079 1046.93 53.4639Z" fill="url(#paint27_linear_112_4174)"/>
<path d="M1029.34 36.0559V70.9999H1019.67V36.0559H1029.34ZM1024.54 22.2959C1025.95 22.2959 1027.16 22.6372 1028.19 23.3199C1029.25 23.9599 1029.79 25.1972 1029.79 27.0319C1029.79 28.7812 1029.25 29.9972 1028.19 30.6799C1027.16 31.3626 1025.95 31.7039 1024.54 31.7039C1023.09 31.7039 1021.85 31.3626 1020.83 30.6799C1019.8 29.9972 1019.29 28.7812 1019.29 27.0319C1019.29 25.1972 1019.8 23.9599 1020.83 23.3199C1021.85 22.6372 1023.09 22.2959 1024.54 22.2959Z" fill="url(#paint28_linear_112_4174)"/>
<path d="M1006.9 64.0239C1007.97 64.0239 1008.99 63.9172 1009.97 63.7039C1010.95 63.4906 1011.93 63.2346 1012.92 62.9359V70.0399C1011.89 70.4666 1010.61 70.8292 1009.08 71.1279C1007.58 71.4692 1005.94 71.6399 1004.15 71.6399C1002.06 71.6399 1000.18 71.2986 998.515 70.6159C996.894 69.9332 995.593 68.7599 994.611 67.0959C993.673 65.3892 993.203 63.0426 993.203 60.0559V43.2239H988.659V39.1919L993.907 35.9919L996.659 28.6319H1002.74V36.0559H1012.53V43.2239H1002.74V60.0559C1002.74 61.3786 1003.12 62.3812 1003.89 63.0639C1004.66 63.7039 1005.66 64.0239 1006.9 64.0239Z" fill="url(#paint29_linear_112_4174)"/>
<path d="M974.091 71.6399C970.721 71.6399 967.755 71.0212 965.195 69.7839C962.678 68.5039 960.715 66.5412 959.307 63.8959C957.899 61.2079 957.195 57.8159 957.195 53.7199C957.195 49.4106 957.963 45.9119 959.499 43.2239C961.035 40.5359 963.126 38.5732 965.771 37.3359C968.417 36.0559 971.425 35.4159 974.795 35.4159C976.843 35.4159 978.763 35.6292 980.555 36.0559C982.39 36.4826 984.011 37.0586 985.419 37.7839L982.539 45.0799C981.259 44.5252 979.958 44.0772 978.635 43.7359C977.355 43.3519 976.075 43.1599 974.795 43.1599C973.131 43.1599 971.723 43.5439 970.571 44.3119C969.419 45.0799 968.545 46.2532 967.947 47.8319C967.35 49.3679 967.051 51.3092 967.051 53.6559C967.051 55.9599 967.35 57.8586 967.947 59.3519C968.545 60.8452 969.419 61.9759 970.571 62.7439C971.723 63.4692 973.089 63.8319 974.667 63.8319C976.502 63.8319 978.23 63.5972 979.851 63.1279C981.473 62.6159 983.009 61.9546 984.459 61.1439V69.0159C983.137 69.8266 981.643 70.4666 979.979 70.9359C978.315 71.4052 976.353 71.6399 974.091 71.6399Z" fill="url(#paint30_linear_112_4174)"/>
<path d="M949.426 36.0559V70.9999H942.002L940.786 66.5199H940.21C939.485 67.7146 938.546 68.6959 937.394 69.4639C936.285 70.2319 935.048 70.7866 933.682 71.1279C932.36 71.4692 930.952 71.6399 929.458 71.6399C926.984 71.6399 924.808 71.1919 922.93 70.2959C921.096 69.3999 919.645 68.0132 918.578 66.1359C917.554 64.2586 917.042 61.8266 917.042 58.8399V36.0559H926.77V56.4079C926.77 58.8826 927.197 60.7599 928.05 62.0399C928.946 63.2772 930.354 63.8959 932.274 63.8959C934.237 63.8959 935.752 63.4692 936.818 62.6159C937.928 61.7199 938.696 60.4186 939.122 58.7119C939.549 57.0052 939.762 54.9146 939.762 52.4399V36.0559H949.426Z" fill="url(#paint31_linear_112_4174)"/>
<path d="M888.253 71.6399C884.413 71.6399 881.256 70.1252 878.781 67.0959C876.349 64.0239 875.133 59.5226 875.133 53.5919C875.133 47.5759 876.37 43.0532 878.845 40.0239C881.32 36.9519 884.562 35.4159 888.573 35.4159C890.237 35.4159 891.666 35.6506 892.861 36.1199C894.098 36.5466 895.165 37.1439 896.061 37.9119C896.957 38.6799 897.725 39.5546 898.365 40.5359H898.685C898.557 39.7679 898.429 38.7012 898.301 37.3359C898.216 35.9279 898.173 34.6479 898.173 33.4959V22.3599H907.901V70.9999H900.477L898.557 66.4559H898.173C897.576 67.4372 896.829 68.3119 895.933 69.0799C895.037 69.8479 893.949 70.4666 892.669 70.9359C891.432 71.4052 889.96 71.6399 888.253 71.6399ZM891.645 63.8959C894.29 63.8959 896.146 63.1492 897.213 61.6559C898.28 60.1199 898.813 57.7946 898.813 54.6799V53.6559C898.813 50.2852 898.301 47.7039 897.277 45.9119C896.253 44.1199 894.354 43.2239 891.581 43.2239C889.49 43.2239 887.848 44.1199 886.653 45.9119C885.501 47.7039 884.925 50.3066 884.925 53.7199C884.925 57.1332 885.501 59.6932 886.653 61.3999C887.848 63.0639 889.512 63.8959 891.645 63.8959Z" fill="url(#paint32_linear_112_4174)"/>
<path d="M854.1 35.4159C858.495 35.4159 861.844 36.4612 864.148 38.5519C866.452 40.5999 867.604 43.6506 867.604 47.7039V70.9999H860.884L859.028 66.2639H858.772C857.791 67.5012 856.767 68.5252 855.7 69.3359C854.676 70.1466 853.482 70.7226 852.116 71.0639C850.751 71.4479 849.087 71.6399 847.124 71.6399C845.076 71.6399 843.242 71.2559 841.62 70.4879C839.999 69.6772 838.719 68.4612 837.78 66.8399C836.842 65.2186 836.372 63.1706 836.372 60.6959C836.372 57.0266 837.695 54.2746 840.34 52.4399C842.986 50.6052 846.932 49.5812 852.18 49.3679L858.004 49.1759V48.0879C858.004 45.9972 857.535 44.5466 856.596 43.7359C855.658 42.8826 854.335 42.4559 852.628 42.4559C851.05 42.4559 849.428 42.7119 847.764 43.2239C846.1 43.7359 844.458 44.3546 842.836 45.0799L840.02 38.4879C841.855 37.5492 843.946 36.8026 846.292 36.2479C848.682 35.6932 851.284 35.4159 854.1 35.4159ZM854.356 54.9999C851.327 55.0852 849.215 55.5759 848.02 56.4719C846.826 57.3679 846.228 58.6266 846.228 60.2479C846.228 61.7412 846.634 62.8506 847.444 63.5759C848.298 64.2586 849.428 64.5999 850.836 64.5999C852.842 64.5999 854.527 64.0026 855.892 62.8079C857.3 61.6132 858.004 59.9066 858.004 57.6879V54.8079L854.356 54.9999Z" fill="url(#paint33_linear_112_4174)"/>
<path d="M830.437 35.4159C831.077 35.4159 831.76 35.4586 832.485 35.5439C833.253 35.5866 833.851 35.6719 834.277 35.7999L833.317 44.8239C832.848 44.7386 832.293 44.6532 831.653 44.5679C831.013 44.4826 830.245 44.4399 829.349 44.4399C828.368 44.4399 827.365 44.5892 826.341 44.8879C825.36 45.1866 824.443 45.6772 823.589 46.3599C822.736 47.0426 822.053 47.9386 821.541 49.0479C821.029 50.1572 820.773 51.5652 820.773 53.2719V70.9999H811.109V36.0559H818.469L819.877 41.9439H820.325C821.008 40.7066 821.861 39.5972 822.885 38.6159C823.909 37.6346 825.061 36.8666 826.341 36.3119C827.621 35.7146 828.987 35.4159 830.437 35.4159Z" fill="url(#paint34_linear_112_4174)"/>
<path d="M798.399 64.0239C799.466 64.0239 800.49 63.9172 801.471 63.7039C802.453 63.4906 803.434 63.2346 804.415 62.9359V70.0399C803.391 70.4666 802.111 70.8292 800.575 71.1279C799.082 71.4692 797.439 71.6399 795.647 71.6399C793.557 71.6399 791.679 71.2986 790.015 70.6159C788.394 69.9332 787.093 68.7599 786.111 67.0959C785.173 65.3892 784.703 63.0426 784.703 60.0559V43.2239H780.159V39.1919L785.407 35.9919L788.159 28.6319H794.239V36.0559H804.031V43.2239H794.239V60.0559C794.239 61.3786 794.623 62.3812 795.391 63.0639C796.159 63.7039 797.162 64.0239 798.399 64.0239Z" fill="url(#paint35_linear_112_4174)"/>
<path d="M743.459 35.4159C746.702 35.4159 749.496 36.0346 751.843 37.2719C754.19 38.4666 755.982 40.2586 757.219 42.6479C758.499 44.9946 759.139 47.8746 759.139 51.2879V55.9599H736.675C736.76 58.6052 737.571 60.6959 739.107 62.2319C740.643 63.7252 742.84 64.4719 745.699 64.4719C747.875 64.4719 749.859 64.2586 751.651 63.8319C753.443 63.4052 755.278 62.7652 757.155 61.9119V69.1439C755.448 69.9972 753.635 70.6159 751.715 70.9999C749.838 71.4266 747.491 71.6399 744.675 71.6399C741.219 71.6399 738.147 70.9999 735.459 69.7199C732.814 68.4399 730.723 66.4772 729.187 63.8319C727.651 61.1439 726.883 57.7946 726.883 53.7839C726.883 49.6879 727.566 46.2959 728.931 43.6079C730.339 40.8772 732.28 38.8292 734.755 37.4639C737.272 36.0986 740.174 35.4159 743.459 35.4159ZM743.715 42.2639C741.795 42.2639 740.238 42.8826 739.043 44.1199C737.848 45.3146 737.144 47.1066 736.931 49.4959H750.115C750.115 48.0879 749.88 46.8506 749.411 45.7839C748.942 44.7172 748.216 43.8639 747.235 43.2239C746.296 42.5839 745.123 42.2639 743.715 42.2639Z" fill="url(#paint36_linear_112_4174)"/>
<path d="M699.565 71.6399C695.725 71.6399 692.568 70.1252 690.093 67.0959C687.661 64.0239 686.445 59.5226 686.445 53.5919C686.445 47.5759 687.683 43.0532 690.157 40.0239C692.632 36.9519 695.875 35.4159 699.885 35.4159C701.549 35.4159 702.979 35.6506 704.173 36.1199C705.411 36.5466 706.477 37.1439 707.373 37.9119C708.269 38.6799 709.037 39.5546 709.677 40.5359H709.997C709.869 39.7679 709.741 38.7012 709.613 37.3359C709.528 35.9279 709.485 34.6479 709.485 33.4959V22.3599H719.213V70.9999H711.789L709.869 66.4559H709.485C708.888 67.4372 708.141 68.3119 707.245 69.0799C706.349 69.8479 705.261 70.4666 703.981 70.9359C702.744 71.4052 701.272 71.6399 699.565 71.6399ZM702.957 63.8959C705.603 63.8959 707.459 63.1492 708.525 61.6559C709.592 60.1199 710.125 57.7946 710.125 54.6799V53.6559C710.125 50.2852 709.613 47.7039 708.589 45.9119C707.565 44.1199 705.667 43.2239 702.893 43.2239C700.803 43.2239 699.16 44.1199 697.965 45.9119C696.813 47.7039 696.237 50.3066 696.237 53.7199C696.237 57.1332 696.813 59.6932 697.965 61.3999C699.16 63.0639 700.824 63.8959 702.957 63.8959Z" fill="url(#paint37_linear_112_4174)"/>
<path d="M664.127 60.6959C664.127 62.9146 663.594 64.8559 662.527 66.5199C661.503 68.1412 659.925 69.3999 657.791 70.2959C655.658 71.1919 652.949 71.6399 649.663 71.6399C647.189 71.6399 645.013 71.4692 643.135 71.1279C641.258 70.8292 639.445 70.3172 637.695 69.5919V61.5919C639.573 62.4879 641.599 63.1919 643.775 63.7039C645.951 64.2159 647.829 64.4719 649.407 64.4719C651.37 64.4719 652.778 64.1946 653.631 63.6399C654.527 63.0852 654.975 62.3386 654.975 61.3999C654.975 60.7599 654.741 60.1839 654.271 59.6719C653.845 59.1599 653.055 58.6266 651.903 58.0719C650.794 57.5172 649.194 56.8346 647.103 56.0239C645.013 55.1706 643.263 54.2959 641.855 53.3999C640.447 52.4612 639.381 51.3519 638.655 50.0719C637.973 48.7919 637.631 47.1919 637.631 45.2719C637.631 42.0719 638.89 39.6399 641.407 37.9759C643.967 36.2692 647.338 35.4159 651.519 35.4159C653.781 35.4159 655.871 35.6506 657.791 36.1199C659.754 36.5892 661.738 37.2506 663.743 38.1039L660.927 44.6959C659.306 43.9706 657.642 43.3732 655.935 42.9039C654.229 42.4346 652.714 42.1999 651.391 42.1999C649.941 42.1999 648.81 42.4346 647.999 42.9039C647.189 43.3306 646.783 43.9492 646.783 44.7599C646.783 45.3572 646.997 45.8906 647.423 46.3599C647.893 46.8292 648.682 47.3199 649.791 47.8319C650.943 48.3439 652.543 49.0052 654.591 49.8159C656.682 50.6266 658.431 51.5012 659.839 52.4399C661.29 53.3359 662.357 54.4452 663.039 55.7679C663.765 57.0479 664.127 58.6906 664.127 60.6959Z" fill="url(#paint38_linear_112_4174)"/>
<path d="M629.961 70.9999H620.297V22.3599H629.961V70.9999Z" fill="url(#paint39_linear_112_4174)"/>
<path d="M610.9 36.0559V70.9999H601.236V36.0559H610.9ZM606.1 22.2959C607.508 22.2959 608.724 22.6372 609.748 23.3199C610.815 23.9599 611.348 25.1972 611.348 27.0319C611.348 28.7812 610.815 29.9972 609.748 30.6799C608.724 31.3626 607.508 31.7039 606.1 31.7039C604.649 31.7039 603.412 31.3626 602.388 30.6799C601.364 29.9972 600.852 28.7812 600.852 27.0319C600.852 25.1972 601.364 23.9599 602.388 23.3199C603.412 22.6372 604.649 22.2959 606.1 22.2959Z" fill="url(#paint40_linear_112_4174)"/>
<path d="M588.462 64.0239C589.529 64.0239 590.553 63.9172 591.534 63.7039C592.515 63.4906 593.497 63.2346 594.478 62.9359V70.0399C593.454 70.4666 592.174 70.8292 590.638 71.1279C589.145 71.4692 587.502 71.6399 585.71 71.6399C583.619 71.6399 581.742 71.2986 580.078 70.6159C578.457 69.9332 577.155 68.7599 576.174 67.0959C575.235 65.3892 574.766 63.0426 574.766 60.0559V43.2239H570.222V39.1919L575.47 35.9919L578.222 28.6319H584.302V36.0559H594.094V43.2239H584.302V60.0559C584.302 61.3786 584.686 62.3812 585.454 63.0639C586.222 63.7039 587.225 64.0239 588.462 64.0239Z" fill="url(#paint41_linear_112_4174)"/>
<path d="M563.989 36.0559V70.9999H556.565L555.349 66.5199H554.773C554.048 67.7146 553.109 68.6959 551.957 69.4639C550.848 70.2319 549.61 70.7866 548.245 71.1279C546.922 71.4692 545.514 71.6399 544.021 71.6399C541.546 71.6399 539.37 71.1919 537.493 70.2959C535.658 69.3999 534.208 68.0132 533.141 66.1359C532.117 64.2586 531.605 61.8266 531.605 58.8399V36.0559H541.333V56.4079C541.333 58.8826 541.76 60.7599 542.613 62.0399C543.509 63.2772 544.917 63.8959 546.837 63.8959C548.8 63.8959 550.314 63.4692 551.381 62.6159C552.49 61.7199 553.258 60.4186 553.685 58.7119C554.112 57.0052 554.325 54.9146 554.325 52.4399V36.0559H563.989Z" fill="url(#paint42_linear_112_4174)"/>
<path d="M524.053 53.4639C524.053 56.3652 523.648 58.9466 522.837 61.2079C522.069 63.4692 520.938 65.3679 519.445 66.9039C517.994 68.4399 516.224 69.6132 514.133 70.4239C512.042 71.2346 509.674 71.6399 507.029 71.6399C504.554 71.6399 502.293 71.2346 500.245 70.4239C498.197 69.6132 496.426 68.4399 494.933 66.9039C493.44 65.3679 492.266 63.4692 491.413 61.2079C490.56 58.9466 490.133 56.3652 490.133 53.4639C490.133 49.5812 490.816 46.2959 492.181 43.6079C493.546 40.9199 495.509 38.8932 498.069 37.5279C500.629 36.1199 503.68 35.4159 507.221 35.4159C510.506 35.4159 513.408 36.1199 515.925 37.5279C518.442 38.8932 520.426 40.9199 521.877 43.6079C523.328 46.2959 524.053 49.5812 524.053 53.4639ZM499.989 53.4639C499.989 55.7252 500.224 57.6666 500.693 59.2879C501.205 60.9092 501.973 62.1466 502.997 62.9999C504.064 63.8532 505.45 64.2799 507.157 64.2799C508.821 64.2799 510.165 63.8532 511.189 62.9999C512.256 62.1466 513.024 60.9092 513.493 59.2879C513.962 57.6666 514.197 55.7252 514.197 53.4639C514.197 51.1599 513.941 49.2186 513.429 47.6399C512.96 46.0612 512.213 44.8666 511.189 44.0559C510.165 43.2026 508.8 42.7759 507.093 42.7759C504.618 42.7759 502.805 43.6932 501.653 45.5279C500.544 47.3626 499.989 50.0079 499.989 53.4639Z" fill="url(#paint43_linear_112_4174)"/>
<path d="M487.057 25.3039L485.777 41.8159H479.121L477.841 25.3039H487.057Z" fill="url(#paint44_linear_112_4174)"/>
<path d="M449.628 71.6399C445.788 71.6399 442.631 70.1252 440.156 67.0959C437.724 64.0239 436.508 59.5226 436.508 53.5919C436.508 47.5759 437.745 43.0532 440.22 40.0239C442.695 36.9519 445.937 35.4159 449.948 35.4159C451.612 35.4159 453.041 35.6506 454.236 36.1199C455.473 36.5466 456.54 37.1439 457.436 37.9119C458.332 38.6799 459.1 39.5546 459.74 40.5359H460.06C459.932 39.7679 459.804 38.7012 459.676 37.3359C459.591 35.9279 459.548 34.6479 459.548 33.4959V22.3599H469.276V70.9999H461.852L459.932 66.4559H459.548C458.951 67.4372 458.204 68.3119 457.308 69.0799C456.412 69.8479 455.324 70.4666 454.044 70.9359C452.807 71.4052 451.335 71.6399 449.628 71.6399ZM453.02 63.8959C455.665 63.8959 457.521 63.1492 458.588 61.6559C459.655 60.1199 460.188 57.7946 460.188 54.6799V53.6559C460.188 50.2852 459.676 47.7039 458.652 45.9119C457.628 44.1199 455.729 43.2239 452.956 43.2239C450.865 43.2239 449.223 44.1199 448.028 45.9119C446.876 47.7039 446.3 50.3066 446.3 53.7199C446.3 57.1332 446.876 59.6932 448.028 61.3999C449.223 63.0639 450.887 63.8959 453.02 63.8959Z" fill="url(#paint45_linear_112_4174)"/>
<path d="M414.19 60.6959C414.19 62.9146 413.657 64.8559 412.59 66.5199C411.566 68.1412 409.987 69.3999 407.854 70.2959C405.721 71.1919 403.011 71.6399 399.726 71.6399C397.251 71.6399 395.075 71.4692 393.198 71.1279C391.321 70.8292 389.507 70.3172 387.758 69.5919V61.5919C389.635 62.4879 391.662 63.1919 393.838 63.7039C396.014 64.2159 397.891 64.4719 399.47 64.4719C401.433 64.4719 402.841 64.1946 403.694 63.6399C404.59 63.0852 405.038 62.3386 405.038 61.3999C405.038 60.7599 404.803 60.1839 404.334 59.6719C403.907 59.1599 403.118 58.6266 401.966 58.0719C400.857 57.5172 399.257 56.8346 397.166 56.0239C395.075 55.1706 393.326 54.2959 391.918 53.3999C390.51 52.4612 389.443 51.3519 388.718 50.0719C388.035 48.7919 387.694 47.1919 387.694 45.2719C387.694 42.0719 388.953 39.6399 391.47 37.9759C394.03 36.2692 397.401 35.4159 401.582 35.4159C403.843 35.4159 405.934 35.6506 407.854 36.1199C409.817 36.5892 411.801 37.2506 413.806 38.1039L410.99 44.6959C409.369 43.9706 407.705 43.3732 405.998 42.9039C404.291 42.4346 402.777 42.1999 401.454 42.1999C400.003 42.1999 398.873 42.4346 398.062 42.9039C397.251 43.3306 396.846 43.9492 396.846 44.7599C396.846 45.3572 397.059 45.8906 397.486 46.3599C397.955 46.8292 398.745 47.3199 399.854 47.8319C401.006 48.3439 402.606 49.0052 404.654 49.8159C406.745 50.6266 408.494 51.5012 409.902 52.4399C411.353 53.3359 412.419 54.4452 413.102 55.7679C413.827 57.0479 414.19 58.6906 414.19 60.6959Z" fill="url(#paint46_linear_112_4174)"/>
<path d="M379.989 36.0559V70.9999H372.565L371.349 66.5199H370.773C370.048 67.7146 369.109 68.6959 367.957 69.4639C366.848 70.2319 365.61 70.7866 364.245 71.1279C362.922 71.4692 361.514 71.6399 360.021 71.6399C357.546 71.6399 355.37 71.1919 353.493 70.2959C351.658 69.3999 350.208 68.0132 349.141 66.1359C348.117 64.2586 347.605 61.8266 347.605 58.8399V36.0559H357.333V56.4079C357.333 58.8826 357.76 60.7599 358.613 62.0399C359.509 63.2772 360.917 63.8959 362.837 63.8959C364.8 63.8959 366.314 63.4692 367.381 62.6159C368.49 61.7199 369.258 60.4186 369.685 58.7119C370.112 57.0052 370.325 54.9146 370.325 52.4399V36.0559H379.989Z" fill="url(#paint47_linear_112_4174)"/>
<path d="M338.398 70.9999H328.734V22.3599H338.398V70.9999Z" fill="url(#paint48_linear_112_4174)"/>
<path d="M304.088 25.3039C309.976 25.3039 314.328 26.5412 317.144 29.0159C319.96 31.4479 321.368 34.9039 321.368 39.3839C321.368 41.3892 321.07 43.3092 320.472 45.1439C319.875 46.9786 318.872 48.6426 317.464 50.1359C316.099 51.5866 314.286 52.7386 312.024 53.5919C309.763 54.4026 306.99 54.8079 303.704 54.8079H299.544V70.9999H289.752V25.3039H304.088ZM303.768 33.3039H299.544V46.7439H302.808C304.6 46.7439 306.136 46.5306 307.416 46.1039C308.739 45.6346 309.742 44.8879 310.424 43.8639C311.15 42.7972 311.512 41.4106 311.512 39.7039C311.512 37.6559 310.872 36.0772 309.592 34.9679C308.355 33.8586 306.414 33.3039 303.768 33.3039Z" fill="url(#paint49_linear_112_4174)"/>
<defs>
<filter id="filter0_f_112_4174" x="267.456" y="14.2959" width="861.366" height="89.3442" filterUnits="userSpaceOnUse" color-interpolation-filters="sRGB">
<feFlood flood-opacity="0" result="BackgroundImageFix"/>
<feBlend mode="normal" in="SourceGraphic" in2="BackgroundImageFix" result="shape"/>
<feGaussianBlur stdDeviation="10" result="effect1_foregroundBlur_112_4174"/>
</filter>
<linearGradient id="paint0_linear_112_4174" x1="184" y1="64.0036" x2="1216" y2="64.0024" gradientUnits="userSpaceOnUse">
<stop stop-color="white" stop-opacity="0.3"/>
<stop offset="0.495" stop-color="#CBB0F8"/>
<stop offset="1" stop-color="white" stop-opacity="0.3"/>
</linearGradient>
<linearGradient id="paint1_linear_112_4174" x1="1232.63" y1="49.666" x2="-19869.6" y2="49.7271" gradientUnits="userSpaceOnUse">
<stop stop-color="#F4439F"/>
<stop offset="1" stop-color="#7C3AED"/>
</linearGradient>
<linearGradient id="paint2_linear_112_4174" x1="2198.72" y1="49.3944" x2="-17948" y2="49.4511" gradientUnits="userSpaceOnUse">
<stop stop-color="#F4439F"/>
<stop offset="1" stop-color="#7C3AED"/>
</linearGradient>
<linearGradient id="paint3_linear_112_4174" x1="7855.53" y1="58.818" x2="-57252.6" y2="59.6143" gradientUnits="userSpaceOnUse">
<stop stop-color="#F4439F"/>
<stop offset="1" stop-color="#7C3AED"/>
</linearGradient>
<linearGradient id="paint4_linear_112_4174" x1="4599.5" y1="54.7962" x2="-23574" y2="54.9279" gradientUnits="userSpaceOnUse">
<stop stop-color="#F4439F"/>
<stop offset="1" stop-color="#7C3AED"/>
</linearGradient>
<linearGradient id="paint5_linear_112_4174" x1="4908.94" y1="49.3944" x2="-19303.7" y2="49.4763" gradientUnits="userSpaceOnUse">
<stop stop-color="#F4439F"/>
<stop offset="1" stop-color="#7C3AED"/>
</linearGradient>
<linearGradient id="paint6_linear_112_4174" x1="5333.68" y1="48.7785" x2="-15768.6" y2="48.8396" gradientUnits="userSpaceOnUse">
<stop stop-color="#F4439F"/>
<stop offset="1" stop-color="#7C3AED"/>
</linearGradient>
<linearGradient id="paint7_linear_112_4174" x1="6325.05" y1="58.4672" x2="-14529.9" y2="58.5499" gradientUnits="userSpaceOnUse">
<stop stop-color="#F4439F"/>
<stop offset="1" stop-color="#7C3AED"/>
</linearGradient>
<linearGradient id="paint8_linear_112_4174" x1="7641.34" y1="49.3944" x2="-14239.3" y2="49.4613" gradientUnits="userSpaceOnUse">
<stop stop-color="#F4439F"/>
<stop offset="1" stop-color="#7C3AED"/>
</linearGradient>
<linearGradient id="paint9_linear_112_4174" x1="11096.6" y1="49.666" x2="-18399.9" y2="49.7854" gradientUnits="userSpaceOnUse">
<stop stop-color="#F4439F"/>
<stop offset="1" stop-color="#7C3AED"/>
</linearGradient>
<linearGradient id="paint10_linear_112_4174" x1="11659.8" y1="54.7962" x2="-16513.7" y2="54.9279" gradientUnits="userSpaceOnUse">
<stop stop-color="#F4439F"/>
<stop offset="1" stop-color="#7C3AED"/>
</linearGradient>
<linearGradient id="paint11_linear_112_4174" x1="10195.9" y1="49.3945" x2="-10990.1" y2="49.4572" gradientUnits="userSpaceOnUse">
<stop stop-color="#F4439F"/>
<stop offset="1" stop-color="#7C3AED"/>
</linearGradient>
<linearGradient id="paint12_linear_112_4174" x1="11054.7" y1="58.4672" x2="-9800.28" y2="58.5499" gradientUnits="userSpaceOnUse">
<stop stop-color="#F4439F"/>
<stop offset="1" stop-color="#7C3AED"/>
</linearGradient>
<linearGradient id="paint13_linear_112_4174" x1="15116.7" y1="49.3945" x2="-10675" y2="49.4874" gradientUnits="userSpaceOnUse">
<stop stop-color="#F4439F"/>
<stop offset="1" stop-color="#7C3AED"/>
</linearGradient>
<linearGradient id="paint14_linear_112_4174" x1="42418.4" y1="58.7853" x2="-28295.2" y2="59.7233" gradientUnits="userSpaceOnUse">
<stop stop-color="#F4439F"/>
<stop offset="1" stop-color="#7C3AED"/>
</linearGradient>
<linearGradient id="paint15_linear_112_4174" x1="40600.4" y1="58.818" x2="-24507.8" y2="59.6143" gradientUnits="userSpaceOnUse">
<stop stop-color="#F4439F"/>
<stop offset="1" stop-color="#7C3AED"/>
</linearGradient>
<linearGradient id="paint16_linear_112_4174" x1="18768.8" y1="54.7962" x2="-9404.7" y2="54.9279" gradientUnits="userSpaceOnUse">
<stop stop-color="#F4439F"/>
<stop offset="1" stop-color="#7C3AED"/>
</linearGradient>
<linearGradient id="paint17_linear_112_4174" x1="15109.7" y1="48.7785" x2="-5992.63" y2="48.8396" gradientUnits="userSpaceOnUse">
<stop stop-color="#F4439F"/>
<stop offset="1" stop-color="#7C3AED"/>
</linearGradient>
<linearGradient id="paint18_linear_112_4174" x1="15442.7" y1="49.3945" x2="-4704.01" y2="49.4512" gradientUnits="userSpaceOnUse">
<stop stop-color="#F4439F"/>
<stop offset="1" stop-color="#7C3AED"/>
</linearGradient>
<linearGradient id="paint19_linear_112_4174" x1="57162.7" y1="97.6375" x2="-16988.5" y2="97.9877" gradientUnits="userSpaceOnUse">
<stop stop-color="#F4439F"/>
<stop offset="1" stop-color="#7C3AED"/>
</linearGradient>
<linearGradient id="paint20_linear_112_4174" x1="17319.7" y1="58.4672" x2="-3535.32" y2="58.5499" gradientUnits="userSpaceOnUse">
<stop stop-color="#F4439F"/>
<stop offset="1" stop-color="#7C3AED"/>
</linearGradient>
<linearGradient id="paint21_linear_112_4174" x1="22864.7" y1="49.3945" x2="-2927.02" y2="49.4874" gradientUnits="userSpaceOnUse">
<stop stop-color="#F4439F"/>
<stop offset="1" stop-color="#7C3AED"/>
</linearGradient>
<linearGradient id="paint22_linear_112_4174" x1="19776.5" y1="48.7785" x2="-1325.78" y2="48.8396" gradientUnits="userSpaceOnUse">
<stop stop-color="#F4439F"/>
<stop offset="1" stop-color="#7C3AED"/>
</linearGradient>
<linearGradient id="paint23_linear_112_4174" x1="67199" y1="58.7853" x2="-3514.64" y2="59.7233" gradientUnits="userSpaceOnUse">
<stop stop-color="#F4439F"/>
<stop offset="1" stop-color="#7C3AED"/>
</linearGradient>
<linearGradient id="paint24_linear_112_4174" x1="1113.7" y1="58.4997" x2="281.704" y2="58.4999" gradientUnits="userSpaceOnUse">
<stop stop-color="#F4439F"/>
<stop offset="1" stop-color="#7C3AED"/>
</linearGradient>
<linearGradient id="paint25_linear_112_4174" x1="700" y1="72" x2="700" y2="117" gradientUnits="userSpaceOnUse">
<stop offset="0.0001" stop-color="white" stop-opacity="0.1"/>
<stop offset="1" stop-color="white" stop-opacity="0"/>
</linearGradient>
<linearGradient id="paint26_linear_112_4174" x1="1234.93" y1="-22.6551" x2="1093.16" y2="1748.2" gradientUnits="userSpaceOnUse">
<stop stop-color="#F4439F"/>
<stop offset="1" stop-color="#7C3AED"/>
</linearGradient>
<linearGradient id="paint27_linear_112_4174" x1="2201.02" y1="-21.8609" x2="2057.77" y2="1717.06" gradientUnits="userSpaceOnUse">
<stop stop-color="#F4439F"/>
<stop offset="1" stop-color="#7C3AED"/>
</linearGradient>
<linearGradient id="paint28_linear_112_4174" x1="7857.82" y1="2.74633" x2="7833.15" y2="1304.39" gradientUnits="userSpaceOnUse">
<stop stop-color="#F4439F"/>
<stop offset="1" stop-color="#7C3AED"/>
</linearGradient>
<linearGradient id="paint29_linear_112_4174" x1="4601.8" y1="-7.11224" x2="4528.82" y2="1463.83" gradientUnits="userSpaceOnUse">
<stop stop-color="#F4439F"/>
<stop offset="1" stop-color="#7C3AED"/>
</linearGradient>
<linearGradient id="paint30_linear_112_4174" x1="4911.23" y1="-21.8609" x2="4791.8" y2="1720.67" gradientUnits="userSpaceOnUse">
<stop stop-color="#F4439F"/>
<stop offset="1" stop-color="#7C3AED"/>
</linearGradient>
<linearGradient id="paint31_linear_112_4174" x1="5335.97" y1="-23.5426" x2="5194.2" y2="1747.31" gradientUnits="userSpaceOnUse">
<stop stop-color="#F4439F"/>
<stop offset="1" stop-color="#7C3AED"/>
</linearGradient>
<linearGradient id="paint32_linear_112_4174" x1="6327.35" y1="2.91076" x2="6252.33" y2="1285.41" gradientUnits="userSpaceOnUse">
<stop stop-color="#F4439F"/>
<stop offset="1" stop-color="#7C3AED"/>
</linearGradient>
<linearGradient id="paint33_linear_112_4174" x1="7643.64" y1="-21.8609" x2="7511.61" y2="1718.84" gradientUnits="userSpaceOnUse">
<stop stop-color="#F4439F"/>
<stop offset="1" stop-color="#7C3AED"/>
</linearGradient>
<linearGradient id="paint34_linear_112_4174" x1="11098.9" y1="-22.6551" x2="10997.2" y2="1753.72" gradientUnits="userSpaceOnUse">
<stop stop-color="#F4439F"/>
<stop offset="1" stop-color="#7C3AED"/>
</linearGradient>
<linearGradient id="paint35_linear_112_4174" x1="11662.1" y1="-7.11223" x2="11589.1" y2="1463.83" gradientUnits="userSpaceOnUse">
<stop stop-color="#F4439F"/>
<stop offset="1" stop-color="#7C3AED"/>
</linearGradient>
<linearGradient id="paint36_linear_112_4174" x1="10198.2" y1="-21.8609" x2="10061.9" y2="1718.18" gradientUnits="userSpaceOnUse">
<stop stop-color="#F4439F"/>
<stop offset="1" stop-color="#7C3AED"/>
</linearGradient>
<linearGradient id="paint37_linear_112_4174" x1="11057" y1="2.91073" x2="10982" y2="1285.41" gradientUnits="userSpaceOnUse">
<stop stop-color="#F4439F"/>
<stop offset="1" stop-color="#7C3AED"/>
</linearGradient>
<linearGradient id="paint38_linear_112_4174" x1="15119" y1="-21.8609" x2="15006.8" y2="1721.64" gradientUnits="userSpaceOnUse">
<stop stop-color="#F4439F"/>
<stop offset="1" stop-color="#7C3AED"/>
</linearGradient>
<linearGradient id="paint39_linear_112_4174" x1="42420.7" y1="2.6557" x2="42397.9" y2="1306.08" gradientUnits="userSpaceOnUse">
<stop stop-color="#F4439F"/>
<stop offset="1" stop-color="#7C3AED"/>
</linearGradient>
<linearGradient id="paint40_linear_112_4174" x1="40602.7" y1="2.74633" x2="40578.1" y2="1304.39" gradientUnits="userSpaceOnUse">
<stop stop-color="#F4439F"/>
<stop offset="1" stop-color="#7C3AED"/>
</linearGradient>
<linearGradient id="paint41_linear_112_4174" x1="18771.1" y1="-7.11223" x2="18698.1" y2="1463.83" gradientUnits="userSpaceOnUse">
<stop stop-color="#F4439F"/>
<stop offset="1" stop-color="#7C3AED"/>
</linearGradient>
<linearGradient id="paint42_linear_112_4174" x1="15111.9" y1="-23.5426" x2="14970.2" y2="1747.31" gradientUnits="userSpaceOnUse">
<stop stop-color="#F4439F"/>
<stop offset="1" stop-color="#7C3AED"/>
</linearGradient>
<linearGradient id="paint43_linear_112_4174" x1="15445" y1="-21.8609" x2="15301.8" y2="1717.06" gradientUnits="userSpaceOnUse">
<stop stop-color="#F4439F"/>
<stop offset="1" stop-color="#7C3AED"/>
</linearGradient>
<linearGradient id="paint44_linear_112_4174" x1="57165" y1="-44.3567" x2="56976.9" y2="3787.12" gradientUnits="userSpaceOnUse">
<stop stop-color="#F4439F"/>
<stop offset="1" stop-color="#7C3AED"/>
</linearGradient>
<linearGradient id="paint45_linear_112_4174" x1="17322" y1="2.91078" x2="17246.9" y2="1285.41" gradientUnits="userSpaceOnUse">
<stop stop-color="#F4439F"/>
<stop offset="1" stop-color="#7C3AED"/>
</linearGradient>
<linearGradient id="paint46_linear_112_4174" x1="22867" y1="-21.8609" x2="22754.8" y2="1721.64" gradientUnits="userSpaceOnUse">
<stop stop-color="#F4439F"/>
<stop offset="1" stop-color="#7C3AED"/>
</linearGradient>
<linearGradient id="paint47_linear_112_4174" x1="19778.8" y1="-23.5426" x2="19637" y2="1747.31" gradientUnits="userSpaceOnUse">
<stop stop-color="#F4439F"/>
<stop offset="1" stop-color="#7C3AED"/>
</linearGradient>
<linearGradient id="paint48_linear_112_4174" x1="67201.3" y1="2.65569" x2="67178.5" y2="1306.08" gradientUnits="userSpaceOnUse">
<stop stop-color="#F4439F"/>
<stop offset="1" stop-color="#7C3AED"/>
</linearGradient>
<linearGradient id="paint49_linear_112_4174" x1="1116" y1="2.99972" x2="517.449" y2="411.762" gradientUnits="userSpaceOnUse">
<stop stop-color="#F4439F"/>
<stop offset="1" stop-color="#7C3AED"/>
</linearGradient>
</defs>
</svg>
