<svg width="1400" height="120" viewBox="0 0 1400 120" fill="none" xmlns="http://www.w3.org/2000/svg">
<path d="M203 56H1197V72H203V56Z" fill="url(#paint0_linear_112_4006)"/>
<mask id="mask0_112_4006" style="mask-type:alpha" maskUnits="userSpaceOnUse" x="203" y="72" width="994" height="45">
<path d="M203 72H1197V117H203V72Z" fill="#C4C4C4"/>
</mask>
<g mask="url(#mask0_112_4006)">
<g filter="url(#filter0_f_112_4006)">
<path d="M1093.56 72.6959C1093.56 74.9146 1093.03 76.8559 1091.96 78.5199C1090.94 80.1412 1089.36 81.3999 1087.23 82.2959C1085.09 83.1919 1082.38 83.6399 1079.1 83.6399C1076.62 83.6399 1074.45 83.4692 1072.57 83.1279C1070.69 82.8292 1068.88 82.3172 1067.13 81.5919V73.5919C1069.01 74.4879 1071.03 75.1919 1073.21 75.7039C1075.39 76.2159 1077.26 76.4719 1078.84 76.4719C1080.81 76.4719 1082.21 76.1946 1083.07 75.6399C1083.96 75.0852 1084.41 74.3386 1084.41 73.3999C1084.41 72.7599 1084.18 72.1839 1083.71 71.6719C1083.28 71.1599 1082.49 70.6266 1081.34 70.0719C1080.23 69.5172 1078.63 68.8346 1076.54 68.0239C1074.45 67.1706 1072.7 66.2959 1071.29 65.3999C1069.88 64.4612 1068.82 63.3519 1068.09 62.0719C1067.41 60.7919 1067.07 59.1919 1067.07 57.2719C1067.07 54.0719 1068.33 51.6399 1070.84 49.9759C1073.4 48.2692 1076.77 47.4159 1080.95 47.4159C1083.22 47.4159 1085.31 47.6506 1087.23 48.1199C1089.19 48.5892 1091.17 49.2506 1093.18 50.1039L1090.36 56.6959C1088.74 55.9706 1087.08 55.3732 1085.37 54.9039C1083.66 54.4346 1082.15 54.1999 1080.83 54.1999C1079.38 54.1999 1078.25 54.4346 1077.43 54.9039C1076.62 55.3306 1076.22 55.9492 1076.22 56.7599C1076.22 57.3572 1076.43 57.8906 1076.86 58.3599C1077.33 58.8292 1078.12 59.3199 1079.23 59.8319C1080.38 60.3439 1081.98 61.0052 1084.03 61.8159C1086.12 62.6266 1087.87 63.5012 1089.27 64.4399C1090.73 65.3359 1091.79 66.4452 1092.47 67.7679C1093.2 69.0479 1093.56 70.6906 1093.56 72.6959Z" fill="url(#paint1_linear_112_4006)" fill-opacity="0.7"/>
<path d="M1045.52 47.4159C1048.76 47.4159 1051.56 48.0346 1053.9 49.2719C1056.25 50.4666 1058.04 52.2586 1059.28 54.6479C1060.56 56.9946 1061.2 59.8746 1061.2 63.2879V67.9599H1038.74C1038.82 70.6052 1039.63 72.6959 1041.17 74.2319C1042.7 75.7252 1044.9 76.4719 1047.76 76.4719C1049.94 76.4719 1051.92 76.2586 1053.71 75.8319C1055.5 75.4052 1057.34 74.7652 1059.22 73.9119V81.1439C1057.51 81.9972 1055.7 82.6159 1053.78 82.9999C1051.9 83.4266 1049.55 83.6399 1046.74 83.6399C1043.28 83.6399 1040.21 82.9999 1037.52 81.7199C1034.87 80.4399 1032.78 78.4772 1031.25 75.8319C1029.71 73.1439 1028.94 69.7946 1028.94 65.7839C1028.94 61.6879 1029.63 58.2959 1030.99 55.6079C1032.4 52.8772 1034.34 50.8292 1036.82 49.4639C1039.33 48.0986 1042.23 47.4159 1045.52 47.4159ZM1045.78 54.2639C1043.86 54.2639 1042.3 54.8826 1041.1 56.1199C1039.91 57.3146 1039.2 59.1066 1038.99 61.4959H1052.18C1052.18 60.0879 1051.94 58.8506 1051.47 57.7839C1051 56.7172 1050.28 55.8639 1049.3 55.2239C1048.36 54.5839 1047.18 54.2639 1045.78 54.2639Z" fill="url(#paint2_linear_112_4006)" fill-opacity="0.7"/>
<path d="M1022.56 47.4159C1023.2 47.4159 1023.88 47.4586 1024.61 47.5439C1025.38 47.5866 1025.97 47.6719 1026.4 47.7999L1025.44 56.8239C1024.97 56.7386 1024.42 56.6532 1023.78 56.5679C1023.14 56.4826 1022.37 56.4399 1021.47 56.4399C1020.49 56.4399 1019.49 56.5892 1018.46 56.8879C1017.48 57.1866 1016.57 57.6772 1015.71 58.3599C1014.86 59.0426 1014.18 59.9386 1013.66 61.0479C1013.15 62.1572 1012.9 63.5652 1012.9 65.2719V82.9999H1003.23V48.0559H1010.59L1012 53.9439H1012.45C1013.13 52.7066 1013.98 51.5972 1015.01 50.6159C1016.03 49.6346 1017.18 48.8666 1018.46 48.3119C1019.74 47.7146 1021.11 47.4159 1022.56 47.4159Z" fill="url(#paint3_linear_112_4006)" fill-opacity="0.7"/>
<path d="M990.522 76.0239C991.589 76.0239 992.613 75.9172 993.594 75.7039C994.576 75.4906 995.557 75.2346 996.538 74.9359V82.0399C995.514 82.4666 994.234 82.8292 992.698 83.1279C991.205 83.4692 989.562 83.6399 987.77 83.6399C985.68 83.6399 983.802 83.2986 982.138 82.6159C980.517 81.9332 979.216 80.7599 978.234 79.0959C977.296 77.3892 976.826 75.0426 976.826 72.0559V55.2239H972.282V51.1919L977.53 47.9919L980.282 40.6319H986.362V48.0559H996.154V55.2239H986.362V72.0559C986.362 73.3786 986.746 74.3812 987.514 75.0639C988.282 75.7039 989.285 76.0239 990.522 76.0239Z" fill="url(#paint4_linear_112_4006)" fill-opacity="0.7"/>
<path d="M966.085 48.0559V82.9999H956.421V48.0559H966.085ZM961.285 34.2959C962.693 34.2959 963.909 34.6372 964.933 35.3199C966 35.9599 966.533 37.1972 966.533 39.0319C966.533 40.7812 966 41.9972 964.933 42.6799C963.909 43.3626 962.693 43.7039 961.285 43.7039C959.835 43.7039 958.597 43.3626 957.573 42.6799C956.549 41.9972 956.037 40.7812 956.037 39.0319C956.037 37.1972 956.549 35.9599 957.573 35.3199C958.597 34.6372 959.835 34.2959 961.285 34.2959Z" fill="url(#paint5_linear_112_4006)" fill-opacity="0.7"/>
<path d="M943.647 76.0239C944.714 76.0239 945.738 75.9172 946.719 75.7039C947.701 75.4906 948.682 75.2346 949.663 74.9359V82.0399C948.639 82.4666 947.359 82.8292 945.823 83.1279C944.33 83.4692 942.687 83.6399 940.895 83.6399C938.805 83.6399 936.927 83.2986 935.263 82.6159C933.642 81.9332 932.341 80.7599 931.359 79.0959C930.421 77.3892 929.951 75.0426 929.951 72.0559V55.2239H925.407V51.1919L930.655 47.9919L933.407 40.6319H939.487V48.0559H949.279V55.2239H939.487V72.0559C939.487 73.3786 939.871 74.3812 940.639 75.0639C941.407 75.7039 942.41 76.0239 943.647 76.0239Z" fill="url(#paint6_linear_112_4006)" fill-opacity="0.7"/>
<path d="M905.227 69.8159V61.8799H922.059V69.8159H905.227Z" fill="url(#paint7_linear_112_4006)" fill-opacity="0.7"/>
<path d="M900.75 72.6959C900.75 74.9146 900.217 76.8559 899.15 78.5199C898.126 80.1412 896.548 81.3999 894.414 82.2959C892.281 83.1919 889.572 83.6399 886.286 83.6399C883.812 83.6399 881.636 83.4692 879.758 83.1279C877.881 82.8292 876.068 82.3172 874.318 81.5919V73.5919C876.196 74.4879 878.222 75.1919 880.398 75.7039C882.574 76.2159 884.452 76.4719 886.03 76.4719C887.993 76.4719 889.401 76.1946 890.254 75.6399C891.15 75.0852 891.598 74.3386 891.598 73.3999C891.598 72.7599 891.364 72.1839 890.894 71.6719C890.468 71.1599 889.678 70.6266 888.526 70.0719C887.417 69.5172 885.817 68.8346 883.726 68.0239C881.636 67.1706 879.886 66.2959 878.478 65.3999C877.07 64.4612 876.004 63.3519 875.278 62.0719C874.596 60.7919 874.254 59.1919 874.254 57.2719C874.254 54.0719 875.513 51.6399 878.03 49.9759C880.59 48.2692 883.961 47.4159 888.142 47.4159C890.404 47.4159 892.494 47.6506 894.414 48.1199C896.377 48.5892 898.361 49.2506 900.366 50.1039L897.55 56.6959C895.929 55.9706 894.265 55.3732 892.558 54.9039C890.852 54.4346 889.337 54.1999 888.014 54.1999C886.564 54.1999 885.433 54.4346 884.622 54.9039C883.812 55.3306 883.406 55.9492 883.406 56.7599C883.406 57.3572 883.62 57.8906 884.046 58.3599C884.516 58.8292 885.305 59.3199 886.414 59.8319C887.566 60.3439 889.166 61.0052 891.214 61.8159C893.305 62.6266 895.054 63.5012 896.462 64.4399C897.913 65.3359 898.98 66.4452 899.662 67.7679C900.388 69.0479 900.75 70.6906 900.75 72.6959Z" fill="url(#paint8_linear_112_4006)" fill-opacity="0.7"/>
<path d="M866.549 48.0559V82.9999H859.125L857.909 78.5199H857.333C856.608 79.7146 855.669 80.6959 854.517 81.4639C853.408 82.2319 852.171 82.7866 850.805 83.1279C849.483 83.4692 848.075 83.6399 846.581 83.6399C844.107 83.6399 841.931 83.1919 840.053 82.2959C838.219 81.3999 836.768 80.0132 835.701 78.1359C834.677 76.2586 834.165 73.8266 834.165 70.8399V48.0559H843.893V68.4079C843.893 70.8826 844.32 72.7599 845.173 74.0399C846.069 75.2772 847.477 75.8959 849.397 75.8959C851.36 75.8959 852.875 75.4692 853.941 74.6159C855.051 73.7199 855.819 72.4186 856.245 70.7119C856.672 69.0052 856.885 66.9146 856.885 64.4399V48.0559H866.549Z" fill="url(#paint9_linear_112_4006)" fill-opacity="0.7"/>
<path d="M826.613 65.4639C826.613 68.3652 826.208 70.9466 825.397 73.2079C824.629 75.4692 823.499 77.3679 822.005 78.9039C820.555 80.4399 818.784 81.6132 816.693 82.4239C814.603 83.2346 812.235 83.6399 809.589 83.6399C807.115 83.6399 804.853 83.2346 802.805 82.4239C800.757 81.6132 798.987 80.4399 797.493 78.9039C796 77.3679 794.827 75.4692 793.973 73.2079C793.12 70.9466 792.693 68.3652 792.693 65.4639C792.693 61.5812 793.376 58.2959 794.741 55.6079C796.107 52.9199 798.069 50.8932 800.629 49.5279C803.189 48.1199 806.24 47.4159 809.781 47.4159C813.067 47.4159 815.968 48.1199 818.485 49.5279C821.003 50.8932 822.987 52.9199 824.437 55.6079C825.888 58.2959 826.613 61.5812 826.613 65.4639ZM802.549 65.4639C802.549 67.7252 802.784 69.6666 803.253 71.2879C803.765 72.9092 804.533 74.1466 805.557 74.9999C806.624 75.8532 808.011 76.2799 809.717 76.2799C811.381 76.2799 812.725 75.8532 813.749 74.9999C814.816 74.1466 815.584 72.9092 816.053 71.2879C816.523 69.6666 816.757 67.7252 816.757 65.4639C816.757 63.1599 816.501 61.2186 815.989 59.6399C815.52 58.0612 814.773 56.8666 813.749 56.0559C812.725 55.2026 811.36 54.7759 809.653 54.7759C807.179 54.7759 805.365 55.6932 804.213 57.5279C803.104 59.3626 802.549 62.0079 802.549 65.4639Z" fill="url(#paint10_linear_112_4006)" fill-opacity="0.7"/>
<path d="M787 72.6959C787 74.9146 786.467 76.8559 785.4 78.5199C784.376 80.1412 782.798 81.3999 780.664 82.2959C778.531 83.1919 775.822 83.6399 772.536 83.6399C770.062 83.6399 767.886 83.4692 766.008 83.1279C764.131 82.8292 762.318 82.3172 760.568 81.5919V73.5919C762.446 74.4879 764.472 75.1919 766.648 75.7039C768.824 76.2159 770.702 76.4719 772.28 76.4719C774.243 76.4719 775.651 76.1946 776.504 75.6399C777.4 75.0852 777.848 74.3386 777.848 73.3999C777.848 72.7599 777.614 72.1839 777.144 71.6719C776.718 71.1599 775.928 70.6266 774.776 70.0719C773.667 69.5172 772.067 68.8346 769.976 68.0239C767.886 67.1706 766.136 66.2959 764.728 65.3999C763.32 64.4612 762.254 63.3519 761.528 62.0719C760.846 60.7919 760.504 59.1919 760.504 57.2719C760.504 54.0719 761.763 51.6399 764.28 49.9759C766.84 48.2692 770.211 47.4159 774.392 47.4159C776.654 47.4159 778.744 47.6506 780.664 48.1199C782.627 48.5892 784.611 49.2506 786.616 50.1039L783.8 56.6959C782.179 55.9706 780.515 55.3732 778.808 54.9039C777.102 54.4346 775.587 54.1999 774.264 54.1999C772.814 54.1999 771.683 54.4346 770.872 54.9039C770.062 55.3306 769.656 55.9492 769.656 56.7599C769.656 57.3572 769.87 57.8906 770.296 58.3599C770.766 58.8292 771.555 59.3199 772.664 59.8319C773.816 60.3439 775.416 61.0052 777.464 61.8159C779.555 62.6266 781.304 63.5012 782.712 64.4399C784.163 65.3359 785.23 66.4452 785.912 67.7679C786.638 69.0479 787 70.6906 787 72.6959Z" fill="url(#paint11_linear_112_4006)" fill-opacity="0.7"/>
<path d="M722.332 47.4159C725.575 47.4159 728.369 48.0346 730.716 49.2719C733.063 50.4666 734.855 52.2586 736.092 54.6479C737.372 56.9946 738.012 59.8746 738.012 63.2879V67.9599H715.548C715.633 70.6052 716.444 72.6959 717.98 74.2319C719.516 75.7252 721.713 76.4719 724.572 76.4719C726.748 76.4719 728.732 76.2586 730.524 75.8319C732.316 75.4052 734.151 74.7652 736.028 73.9119V81.1439C734.321 81.9972 732.508 82.6159 730.588 82.9999C728.711 83.4266 726.364 83.6399 723.548 83.6399C720.092 83.6399 717.02 82.9999 714.332 81.7199C711.687 80.4399 709.596 78.4772 708.06 75.8319C706.524 73.1439 705.756 69.7946 705.756 65.7839C705.756 61.6879 706.439 58.2959 707.804 55.6079C709.212 52.8772 711.153 50.8292 713.628 49.4639C716.145 48.0986 719.047 47.4159 722.332 47.4159ZM722.588 54.2639C720.668 54.2639 719.111 54.8826 717.916 56.1199C716.721 57.3146 716.017 59.1066 715.804 61.4959H728.988C728.988 60.0879 728.753 58.8506 728.284 57.7839C727.815 56.7172 727.089 55.8639 726.108 55.2239C725.169 54.5839 723.996 54.2639 722.588 54.2639Z" fill="url(#paint12_linear_112_4006)" fill-opacity="0.7"/>
<path d="M678.438 83.6399C674.598 83.6399 671.441 82.1252 668.966 79.0959C666.534 76.0239 665.318 71.5226 665.318 65.5919C665.318 59.5759 666.556 55.0532 669.03 52.0239C671.505 48.9519 674.748 47.4159 678.758 47.4159C680.422 47.4159 681.852 47.6506 683.046 48.1199C684.284 48.5466 685.35 49.1439 686.246 49.9119C687.142 50.6799 687.91 51.5546 688.55 52.5359H688.87C688.742 51.7679 688.614 50.7012 688.486 49.3359C688.401 47.9279 688.358 46.6479 688.358 45.4959V34.3599H698.086V82.9999H690.662L688.742 78.4559H688.358C687.761 79.4372 687.014 80.3119 686.118 81.0799C685.222 81.8479 684.134 82.4666 682.854 82.9359C681.617 83.4052 680.145 83.6399 678.438 83.6399ZM681.83 75.8959C684.476 75.8959 686.332 75.1492 687.398 73.6559C688.465 72.1199 688.998 69.7946 688.998 66.6799V65.6559C688.998 62.2852 688.486 59.7039 687.462 57.9119C686.438 56.1199 684.54 55.2239 681.766 55.2239C679.676 55.2239 678.033 56.1199 676.838 57.9119C675.686 59.7039 675.11 62.3066 675.11 65.7199C675.11 69.1332 675.686 71.6932 676.838 73.3999C678.033 75.0639 679.697 75.8959 681.83 75.8959Z" fill="url(#paint13_linear_112_4006)" fill-opacity="0.7"/>
<path d="M628.7 47.4159C632.54 47.4159 635.57 48.4186 637.788 50.4239C640.007 52.4292 641.116 55.6932 641.116 60.2159V82.9999H631.516V62.6479C631.516 60.1306 631.047 58.2532 630.108 57.0159C629.212 55.7359 627.804 55.0959 625.884 55.0959C622.983 55.0959 620.999 56.0986 619.932 58.1039C618.908 60.0666 618.396 62.9039 618.396 66.6159V82.9999H608.732V48.0559H616.156L617.5 52.7279H617.884C618.652 51.5759 619.57 50.6159 620.636 49.8479C621.746 49.0372 622.962 48.4399 624.284 48.0559C625.65 47.6292 627.122 47.4159 628.7 47.4159Z" fill="url(#paint14_linear_112_4006)" fill-opacity="0.7"/>
<path d="M600.988 65.4639C600.988 68.3652 600.583 70.9466 599.772 73.2079C599.004 75.4692 597.874 77.3679 596.38 78.9039C594.93 80.4399 593.159 81.6132 591.068 82.4239C588.978 83.2346 586.61 83.6399 583.964 83.6399C581.49 83.6399 579.228 83.2346 577.18 82.4239C575.132 81.6132 573.362 80.4399 571.868 78.9039C570.375 77.3679 569.202 75.4692 568.348 73.2079C567.495 70.9466 567.068 68.3652 567.068 65.4639C567.068 61.5812 567.751 58.2959 569.116 55.6079C570.482 52.9199 572.444 50.8932 575.004 49.5279C577.564 48.1199 580.615 47.4159 584.156 47.4159C587.442 47.4159 590.343 48.1199 592.86 49.5279C595.378 50.8932 597.362 52.9199 598.812 55.6079C600.263 58.2959 600.988 61.5812 600.988 65.4639ZM576.924 65.4639C576.924 67.7252 577.159 69.6666 577.628 71.2879C578.14 72.9092 578.908 74.1466 579.932 74.9999C580.999 75.8532 582.386 76.2799 584.092 76.2799C585.756 76.2799 587.1 75.8532 588.124 74.9999C589.191 74.1466 589.959 72.9092 590.428 71.2879C590.898 69.6666 591.132 67.7252 591.132 65.4639C591.132 63.1599 590.876 61.2186 590.364 59.6399C589.895 58.0612 589.148 56.8666 588.124 56.0559C587.1 55.2026 585.735 54.7759 584.028 54.7759C581.554 54.7759 579.74 55.6932 578.588 57.5279C577.479 59.3626 576.924 62.0079 576.924 65.4639Z" fill="url(#paint15_linear_112_4006)" fill-opacity="0.7"/>
<path d="M559.335 48.0559V82.9999H549.671V48.0559H559.335ZM554.535 34.2959C555.943 34.2959 557.159 34.6372 558.183 35.3199C559.25 35.9599 559.783 37.1972 559.783 39.0319C559.783 40.7812 559.25 41.9972 558.183 42.6799C557.159 43.3626 555.943 43.7039 554.535 43.7039C553.085 43.7039 551.847 43.3626 550.823 42.6799C549.799 41.9972 549.287 40.7812 549.287 39.0319C549.287 37.1972 549.799 35.9599 550.823 35.3199C551.847 34.6372 553.085 34.2959 554.535 34.2959Z" fill="url(#paint16_linear_112_4006)" fill-opacity="0.7"/>
<path d="M536.897 76.0239C537.964 76.0239 538.988 75.9172 539.969 75.7039C540.951 75.4906 541.932 75.2346 542.913 74.9359V82.0399C541.889 82.4666 540.609 82.8292 539.073 83.1279C537.58 83.4692 535.937 83.6399 534.145 83.6399C532.055 83.6399 530.177 83.2986 528.513 82.6159C526.892 81.9332 525.591 80.7599 524.609 79.0959C523.671 77.3892 523.201 75.0426 523.201 72.0559V55.2239H518.657V51.1919L523.905 47.9919L526.657 40.6319H532.737V48.0559H542.529V55.2239H532.737V72.0559C532.737 73.3786 533.121 74.3812 533.889 75.0639C534.657 75.7039 535.66 76.0239 536.897 76.0239Z" fill="url(#paint17_linear_112_4006)" fill-opacity="0.7"/>
<path d="M504.089 83.6399C500.719 83.6399 497.753 83.0212 495.193 81.7839C492.676 80.5039 490.713 78.5412 489.305 75.8959C487.897 73.2079 487.193 69.8159 487.193 65.7199C487.193 61.4106 487.961 57.9119 489.497 55.2239C491.033 52.5359 493.124 50.5732 495.769 49.3359C498.415 48.0559 501.423 47.4159 504.793 47.4159C506.841 47.4159 508.761 47.6292 510.553 48.0559C512.388 48.4826 514.009 49.0586 515.417 49.7839L512.537 57.0799C511.257 56.5252 509.956 56.0772 508.633 55.7359C507.353 55.3519 506.073 55.1599 504.793 55.1599C503.129 55.1599 501.721 55.5439 500.569 56.3119C499.417 57.0799 498.543 58.2532 497.945 59.8319C497.348 61.3679 497.049 63.3092 497.049 65.6559C497.049 67.9599 497.348 69.8586 497.945 71.3519C498.543 72.8452 499.417 73.9759 500.569 74.7439C501.721 75.4692 503.087 75.8319 504.665 75.8319C506.5 75.8319 508.228 75.5972 509.849 75.1279C511.471 74.6159 513.007 73.9546 514.457 73.1439V81.0159C513.135 81.8266 511.641 82.4666 509.977 82.9359C508.313 83.4052 506.351 83.6399 504.089 83.6399Z" fill="url(#paint18_linear_112_4006)" fill-opacity="0.7"/>
<path d="M479.424 48.0559V82.9999H472L470.784 78.5199H470.208C469.483 79.7146 468.544 80.6959 467.392 81.4639C466.283 82.2319 465.046 82.7866 463.68 83.1279C462.358 83.4692 460.95 83.6399 459.456 83.6399C456.982 83.6399 454.806 83.1919 452.928 82.2959C451.094 81.3999 449.643 80.0132 448.576 78.1359C447.552 76.2586 447.04 73.8266 447.04 70.8399V48.0559H456.768V68.4079C456.768 70.8826 457.195 72.7599 458.048 74.0399C458.944 75.2772 460.352 75.8959 462.272 75.8959C464.235 75.8959 465.75 75.4692 466.816 74.6159C467.926 73.7199 468.694 72.4186 469.12 70.7119C469.547 69.0052 469.76 66.9146 469.76 64.4399V48.0559H479.424Z" fill="url(#paint19_linear_112_4006)" fill-opacity="0.7"/>
<path d="M418.251 83.6399C414.411 83.6399 411.254 82.1252 408.779 79.0959C406.347 76.0239 405.131 71.5226 405.131 65.5919C405.131 59.5759 406.368 55.0532 408.843 52.0239C411.318 48.9519 414.56 47.4159 418.571 47.4159C420.235 47.4159 421.664 47.6506 422.859 48.1199C424.096 48.5466 425.163 49.1439 426.059 49.9119C426.955 50.6799 427.723 51.5546 428.363 52.5359H428.683C428.555 51.7679 428.427 50.7012 428.299 49.3359C428.214 47.9279 428.171 46.6479 428.171 45.4959V34.3599H437.899V82.9999H430.475L428.555 78.4559H428.171C427.574 79.4372 426.827 80.3119 425.931 81.0799C425.035 81.8479 423.947 82.4666 422.667 82.9359C421.43 83.4052 419.958 83.6399 418.251 83.6399ZM421.643 75.8959C424.288 75.8959 426.144 75.1492 427.211 73.6559C428.278 72.1199 428.811 69.7946 428.811 66.6799V65.6559C428.811 62.2852 428.299 59.7039 427.275 57.9119C426.251 56.1199 424.352 55.2239 421.579 55.2239C419.488 55.2239 417.846 56.1199 416.651 57.9119C415.499 59.7039 414.923 62.3066 414.923 65.7199C414.923 69.1332 415.499 71.6932 416.651 73.3999C417.846 75.0639 419.51 75.8959 421.643 75.8959Z" fill="url(#paint20_linear_112_4006)" fill-opacity="0.7"/>
<path d="M384.098 47.4159C388.493 47.4159 391.842 48.4612 394.146 50.5519C396.45 52.5999 397.602 55.6506 397.602 59.7039V82.9999H390.882L389.026 78.2639H388.77C387.789 79.5012 386.765 80.5252 385.698 81.3359C384.674 82.1466 383.48 82.7226 382.114 83.0639C380.749 83.4479 379.085 83.6399 377.122 83.6399C375.074 83.6399 373.24 83.2559 371.618 82.4879C369.997 81.6772 368.717 80.4612 367.778 78.8399C366.84 77.2186 366.37 75.1706 366.37 72.6959C366.37 69.0266 367.693 66.2746 370.338 64.4399C372.984 62.6052 376.93 61.5812 382.178 61.3679L388.002 61.1759V60.0879C388.002 57.9972 387.533 56.5466 386.594 55.7359C385.656 54.8826 384.333 54.4559 382.626 54.4559C381.048 54.4559 379.426 54.7119 377.762 55.2239C376.098 55.7359 374.456 56.3546 372.834 57.0799L370.018 50.4879C371.853 49.5492 373.944 48.8026 376.29 48.2479C378.68 47.6932 381.282 47.4159 384.098 47.4159ZM384.354 66.9999C381.325 67.0852 379.213 67.5759 378.018 68.4719C376.824 69.3679 376.226 70.6266 376.226 72.2479C376.226 73.7412 376.632 74.8506 377.442 75.5759C378.296 76.2586 379.426 76.5999 380.834 76.5999C382.84 76.5999 384.525 76.0026 385.89 74.8079C387.298 73.6132 388.002 71.9066 388.002 69.6879V66.8079L384.354 66.9999Z" fill="url(#paint21_linear_112_4006)" fill-opacity="0.7"/>
<path d="M360.435 47.4159C361.075 47.4159 361.758 47.4586 362.483 47.5439C363.251 47.5866 363.849 47.6719 364.275 47.7999L363.315 56.8239C362.846 56.7386 362.291 56.6532 361.651 56.5679C361.011 56.4826 360.243 56.4399 359.347 56.4399C358.366 56.4399 357.363 56.5892 356.339 56.8879C355.358 57.1866 354.441 57.6772 353.587 58.3599C352.734 59.0426 352.051 59.9386 351.539 61.0479C351.027 62.1572 350.771 63.5652 350.771 65.2719V82.9999H341.107V48.0559H348.467L349.875 53.9439H350.323C351.006 52.7066 351.859 51.5972 352.883 50.6159C353.907 49.6346 355.059 48.8666 356.339 48.3119C357.619 47.7146 358.985 47.4159 360.435 47.4159Z" fill="url(#paint22_linear_112_4006)" fill-opacity="0.7"/>
<path d="M326.045 82.9999H316.253V45.4319H303.901V37.3039H338.397V45.4319H326.045V82.9999Z" fill="url(#paint23_linear_112_4006)" fill-opacity="0.7"/>
</g>
</g>
<path d="M203 72H1197V105C1197 111.627 1191.63 117 1185 117H215C208.373 117 203 111.627 203 105V72Z" fill="url(#paint24_linear_112_4006)"/>
<path d="M1094.1 60.6959C1094.1 62.9146 1093.56 64.8559 1092.5 66.5199C1091.47 68.1412 1089.89 69.3999 1087.76 70.2959C1085.63 71.1919 1082.92 71.6399 1079.63 71.6399C1077.16 71.6399 1074.98 71.4692 1073.1 71.1279C1071.23 70.8292 1069.41 70.3172 1067.66 69.5919V61.5919C1069.54 62.4879 1071.57 63.1919 1073.74 63.7039C1075.92 64.2159 1077.8 64.4719 1079.38 64.4719C1081.34 64.4719 1082.75 64.1946 1083.6 63.6399C1084.5 63.0852 1084.94 62.3386 1084.94 61.3999C1084.94 60.7599 1084.71 60.1839 1084.24 59.6719C1083.81 59.1599 1083.02 58.6266 1081.87 58.0719C1080.76 57.5172 1079.16 56.8346 1077.07 56.0239C1074.98 55.1706 1073.23 54.2959 1071.82 53.3999C1070.42 52.4612 1069.35 51.3519 1068.62 50.0719C1067.94 48.7919 1067.6 47.1919 1067.6 45.2719C1067.6 42.0719 1068.86 39.6399 1071.38 37.9759C1073.94 36.2692 1077.31 35.4159 1081.49 35.4159C1083.75 35.4159 1085.84 35.6506 1087.76 36.1199C1089.72 36.5892 1091.71 37.2506 1093.71 38.1039L1090.9 44.6959C1089.27 43.9706 1087.61 43.3732 1085.9 42.9039C1084.2 42.4346 1082.68 42.1999 1081.36 42.1999C1079.91 42.1999 1078.78 42.4346 1077.97 42.9039C1077.16 43.3306 1076.75 43.9492 1076.75 44.7599C1076.75 45.3572 1076.97 45.8906 1077.39 46.3599C1077.86 46.8292 1078.65 47.3199 1079.76 47.8319C1080.91 48.3439 1082.51 49.0052 1084.56 49.8159C1086.65 50.6266 1088.4 51.5012 1089.81 52.4399C1091.26 53.3359 1092.33 54.4452 1093.01 55.7679C1093.73 57.0479 1094.1 58.6906 1094.1 60.6959Z" fill="url(#paint25_linear_112_4006)"/>
<path d="M1046.05 35.4159C1049.3 35.4159 1052.09 36.0346 1054.44 37.2719C1056.78 38.4666 1058.58 40.2586 1059.81 42.6479C1061.09 44.9946 1061.73 47.8746 1061.73 51.2879V55.9599H1039.27C1039.35 58.6052 1040.16 60.6959 1041.7 62.2319C1043.24 63.7252 1045.43 64.4719 1048.29 64.4719C1050.47 64.4719 1052.45 64.2586 1054.24 63.8319C1056.04 63.4052 1057.87 62.7652 1059.75 61.9119V69.1439C1058.04 69.9972 1056.23 70.6159 1054.31 70.9999C1052.43 71.4266 1050.08 71.6399 1047.27 71.6399C1043.81 71.6399 1040.74 70.9999 1038.05 69.7199C1035.41 68.4399 1033.32 66.4772 1031.78 63.8319C1030.24 61.1439 1029.48 57.7946 1029.48 53.7839C1029.48 49.6879 1030.16 46.2959 1031.52 43.6079C1032.93 40.8772 1034.87 38.8292 1037.35 37.4639C1039.87 36.0986 1042.77 35.4159 1046.05 35.4159ZM1046.31 42.2639C1044.39 42.2639 1042.83 42.8826 1041.64 44.1199C1040.44 45.3146 1039.74 47.1066 1039.52 49.4959H1052.71C1052.71 48.0879 1052.47 46.8506 1052 45.7839C1051.54 44.7172 1050.81 43.8639 1049.83 43.2239C1048.89 42.5839 1047.72 42.2639 1046.31 42.2639Z" fill="url(#paint26_linear_112_4006)"/>
<path d="M1023.09 35.4159C1023.73 35.4159 1024.42 35.4586 1025.14 35.5439C1025.91 35.5866 1026.51 35.6719 1026.93 35.7999L1025.97 44.8239C1025.5 44.7386 1024.95 44.6532 1024.31 44.5679C1023.67 44.4826 1022.9 44.4399 1022.01 44.4399C1021.02 44.4399 1020.02 44.5892 1019 44.8879C1018.02 45.1866 1017.1 45.6772 1016.25 46.3599C1015.39 47.0426 1014.71 47.9386 1014.2 49.0479C1013.69 50.1572 1013.43 51.5652 1013.43 53.2719V70.9999H1003.77V36.0559H1011.13L1012.53 41.9439H1012.98C1013.66 40.7066 1014.52 39.5972 1015.54 38.6159C1016.57 37.6346 1017.72 36.8666 1019 36.3119C1020.28 35.7146 1021.64 35.4159 1023.09 35.4159Z" fill="url(#paint27_linear_112_4006)"/>
<path d="M991.056 64.0239C992.122 64.0239 993.146 63.9172 994.128 63.7039C995.109 63.4906 996.091 63.2346 997.072 62.9359V70.0399C996.048 70.4666 994.768 70.8292 993.232 71.1279C991.738 71.4692 990.096 71.6399 988.304 71.6399C986.213 71.6399 984.336 71.2986 982.672 70.6159C981.05 69.9332 979.749 68.7599 978.768 67.0959C977.829 65.3892 977.36 63.0426 977.36 60.0559V43.2239H972.816V39.1919L978.064 35.9919L980.816 28.6319H986.896V36.0559H996.688V43.2239H986.896V60.0559C986.896 61.3786 987.28 62.3812 988.048 63.0639C988.816 63.7039 989.818 64.0239 991.056 64.0239Z" fill="url(#paint28_linear_112_4006)"/>
<path d="M966.619 36.0559V70.9999H956.955V36.0559H966.619ZM961.819 22.2959C963.227 22.2959 964.443 22.6372 965.467 23.3199C966.533 23.9599 967.067 25.1972 967.067 27.0319C967.067 28.7812 966.533 29.9972 965.467 30.6799C964.443 31.3626 963.227 31.7039 961.819 31.7039C960.368 31.7039 959.131 31.3626 958.107 30.6799C957.083 29.9972 956.571 28.7812 956.571 27.0319C956.571 25.1972 957.083 23.9599 958.107 23.3199C959.131 22.6372 960.368 22.2959 961.819 22.2959Z" fill="url(#paint29_linear_112_4006)"/>
<path d="M944.181 64.0239C945.247 64.0239 946.271 63.9172 947.253 63.7039C948.234 63.4906 949.216 63.2346 950.197 62.9359V70.0399C949.173 70.4666 947.893 70.8292 946.357 71.1279C944.863 71.4692 943.221 71.6399 941.429 71.6399C939.338 71.6399 937.461 71.2986 935.797 70.6159C934.175 69.9332 932.874 68.7599 931.893 67.0959C930.954 65.3892 930.485 63.0426 930.485 60.0559V43.2239H925.941V39.1919L931.189 35.9919L933.941 28.6319H940.021V36.0559H949.813V43.2239H940.021V60.0559C940.021 61.3786 940.405 62.3812 941.173 63.0639C941.941 63.7039 942.943 64.0239 944.181 64.0239Z" fill="url(#paint30_linear_112_4006)"/>
<path d="M905.761 57.8159V49.8799H922.593V57.8159H905.761Z" fill="url(#paint31_linear_112_4006)"/>
<path d="M901.284 60.6959C901.284 62.9146 900.751 64.8559 899.684 66.5199C898.66 68.1412 897.081 69.3999 894.948 70.2959C892.814 71.1919 890.105 71.6399 886.82 71.6399C884.345 71.6399 882.169 71.4692 880.292 71.1279C878.414 70.8292 876.601 70.3172 874.852 69.5919V61.5919C876.729 62.4879 878.756 63.1919 880.932 63.7039C883.108 64.2159 884.985 64.4719 886.564 64.4719C888.526 64.4719 889.934 64.1946 890.788 63.6399C891.684 63.0852 892.132 62.3386 892.132 61.3999C892.132 60.7599 891.897 60.1839 891.428 59.6719C891.001 59.1599 890.212 58.6266 889.06 58.0719C887.95 57.5172 886.35 56.8346 884.26 56.0239C882.169 55.1706 880.42 54.2959 879.012 53.3999C877.604 52.4612 876.537 51.3519 875.812 50.0719C875.129 48.7919 874.788 47.1919 874.788 45.2719C874.788 42.0719 876.046 39.6399 878.564 37.9759C881.124 36.2692 884.495 35.4159 888.676 35.4159C890.937 35.4159 893.028 35.6506 894.948 36.1199C896.91 36.5892 898.895 37.2506 900.9 38.1039L898.084 44.6959C896.462 43.9706 894.798 43.3732 893.092 42.9039C891.385 42.4346 889.87 42.1999 888.548 42.1999C887.097 42.1999 885.966 42.4346 885.156 42.9039C884.345 43.3306 883.94 43.9492 883.94 44.7599C883.94 45.3572 884.153 45.8906 884.58 46.3599C885.049 46.8292 885.838 47.3199 886.948 47.8319C888.1 48.3439 889.7 49.0052 891.748 49.8159C893.838 50.6266 895.588 51.5012 896.996 52.4399C898.446 53.3359 899.513 54.4452 900.196 55.7679C900.921 57.0479 901.284 58.6906 901.284 60.6959Z" fill="url(#paint32_linear_112_4006)"/>
<path d="M867.083 36.0559V70.9999H859.659L858.443 66.5199H857.867C857.141 67.7146 856.203 68.6959 855.051 69.4639C853.942 70.2319 852.704 70.7866 851.339 71.1279C850.016 71.4692 848.608 71.6399 847.115 71.6399C844.64 71.6399 842.464 71.1919 840.587 70.2959C838.752 69.3999 837.301 68.0132 836.235 66.1359C835.211 64.2586 834.699 61.8266 834.699 58.8399V36.0559H844.427V56.4079C844.427 58.8826 844.853 60.7599 845.707 62.0399C846.603 63.2772 848.011 63.8959 849.931 63.8959C851.893 63.8959 853.408 63.4692 854.475 62.6159C855.584 61.7199 856.352 60.4186 856.779 58.7119C857.205 57.0052 857.419 54.9146 857.419 52.4399V36.0559H867.083Z" fill="url(#paint33_linear_112_4006)"/>
<path d="M827.147 53.4639C827.147 56.3652 826.741 58.9466 825.931 61.2079C825.163 63.4692 824.032 65.3679 822.539 66.9039C821.088 68.4399 819.317 69.6132 817.227 70.4239C815.136 71.2346 812.768 71.6399 810.123 71.6399C807.648 71.6399 805.387 71.2346 803.339 70.4239C801.291 69.6132 799.52 68.4399 798.027 66.9039C796.533 65.3679 795.36 63.4692 794.507 61.2079C793.653 58.9466 793.227 56.3652 793.227 53.4639C793.227 49.5812 793.909 46.2959 795.275 43.6079C796.64 40.9199 798.603 38.8932 801.163 37.5279C803.723 36.1199 806.773 35.4159 810.315 35.4159C813.6 35.4159 816.501 36.1199 819.019 37.5279C821.536 38.8932 823.52 40.9199 824.971 43.6079C826.421 46.2959 827.147 49.5812 827.147 53.4639ZM803.083 53.4639C803.083 55.7252 803.317 57.6666 803.787 59.2879C804.299 60.9092 805.067 62.1466 806.091 62.9999C807.157 63.8532 808.544 64.2799 810.251 64.2799C811.915 64.2799 813.259 63.8532 814.283 62.9999C815.349 62.1466 816.117 60.9092 816.587 59.2879C817.056 57.6666 817.291 55.7252 817.291 53.4639C817.291 51.1599 817.035 49.2186 816.523 47.6399C816.053 46.0612 815.307 44.8666 814.283 44.0559C813.259 43.2026 811.893 42.7759 810.187 42.7759C807.712 42.7759 805.899 43.6932 804.747 45.5279C803.637 47.3626 803.083 50.0079 803.083 53.4639Z" fill="url(#paint34_linear_112_4006)"/>
<path d="M787.534 60.6959C787.534 62.9146 787 64.8559 785.934 66.5199C784.91 68.1412 783.331 69.3999 781.198 70.2959C779.064 71.1919 776.355 71.6399 773.07 71.6399C770.595 71.6399 768.419 71.4692 766.542 71.1279C764.664 70.8292 762.851 70.3172 761.102 69.5919V61.5919C762.979 62.4879 765.006 63.1919 767.182 63.7039C769.358 64.2159 771.235 64.4719 772.814 64.4719C774.776 64.4719 776.184 64.1946 777.038 63.6399C777.934 63.0852 778.382 62.3386 778.382 61.3999C778.382 60.7599 778.147 60.1839 777.678 59.6719C777.251 59.1599 776.462 58.6266 775.31 58.0719C774.2 57.5172 772.6 56.8346 770.51 56.0239C768.419 55.1706 766.67 54.2959 765.262 53.3999C763.854 52.4612 762.787 51.3519 762.062 50.0719C761.379 48.7919 761.038 47.1919 761.038 45.2719C761.038 42.0719 762.296 39.6399 764.814 37.9759C767.374 36.2692 770.744 35.4159 774.926 35.4159C777.187 35.4159 779.278 35.6506 781.198 36.1199C783.16 36.5892 785.144 37.2506 787.15 38.1039L784.334 44.6959C782.712 43.9706 781.048 43.3732 779.342 42.9039C777.635 42.4346 776.12 42.1999 774.798 42.1999C773.347 42.1999 772.216 42.4346 771.406 42.9039C770.595 43.3306 770.19 43.9492 770.19 44.7599C770.19 45.3572 770.403 45.8906 770.83 46.3599C771.299 46.8292 772.088 47.3199 773.198 47.8319C774.35 48.3439 775.95 49.0052 777.998 49.8159C780.088 50.6266 781.838 51.5012 783.246 52.4399C784.696 53.3359 785.763 54.4452 786.446 55.7679C787.171 57.0479 787.534 58.6906 787.534 60.6959Z" fill="url(#paint35_linear_112_4006)"/>
<path d="M722.865 35.4159C726.108 35.4159 728.903 36.0346 731.249 37.2719C733.596 38.4666 735.388 40.2586 736.625 42.6479C737.905 44.9946 738.545 47.8746 738.545 51.2879V55.9599H716.081C716.167 58.6052 716.977 60.6959 718.513 62.2319C720.049 63.7252 722.247 64.4719 725.105 64.4719C727.281 64.4719 729.265 64.2586 731.057 63.8319C732.849 63.4052 734.684 62.7652 736.561 61.9119V69.1439C734.855 69.9972 733.041 70.6159 731.121 70.9999C729.244 71.4266 726.897 71.6399 724.081 71.6399C720.625 71.6399 717.553 70.9999 714.865 69.7199C712.22 68.4399 710.129 66.4772 708.593 63.8319C707.057 61.1439 706.289 57.7946 706.289 53.7839C706.289 49.6879 706.972 46.2959 708.337 43.6079C709.745 40.8772 711.687 38.8292 714.161 37.4639C716.679 36.0986 719.58 35.4159 722.865 35.4159ZM723.121 42.2639C721.201 42.2639 719.644 42.8826 718.449 44.1199C717.255 45.3146 716.551 47.1066 716.337 49.4959H729.521C729.521 48.0879 729.287 46.8506 728.817 45.7839C728.348 44.7172 727.623 43.8639 726.641 43.2239C725.703 42.5839 724.529 42.2639 723.121 42.2639Z" fill="url(#paint36_linear_112_4006)"/>
<path d="M678.972 71.6399C675.132 71.6399 671.974 70.1252 669.5 67.0959C667.068 64.0239 665.852 59.5226 665.852 53.5919C665.852 47.5759 667.089 43.0532 669.564 40.0239C672.038 36.9519 675.281 35.4159 679.292 35.4159C680.956 35.4159 682.385 35.6506 683.58 36.1199C684.817 36.5466 685.884 37.1439 686.78 37.9119C687.676 38.6799 688.444 39.5546 689.084 40.5359H689.404C689.276 39.7679 689.148 38.7012 689.02 37.3359C688.934 35.9279 688.892 34.6479 688.892 33.4959V22.3599H698.62V70.9999H691.196L689.276 66.4559H688.892C688.294 67.4372 687.548 68.3119 686.652 69.0799C685.756 69.8479 684.668 70.4666 683.388 70.9359C682.15 71.4052 680.678 71.6399 678.972 71.6399ZM682.364 63.8959C685.009 63.8959 686.865 63.1492 687.932 61.6559C688.998 60.1199 689.532 57.7946 689.532 54.6799V53.6559C689.532 50.2852 689.02 47.7039 687.996 45.9119C686.972 44.1199 685.073 43.2239 682.3 43.2239C680.209 43.2239 678.566 44.1199 677.372 45.9119C676.22 47.7039 675.644 50.3066 675.644 53.7199C675.644 57.1332 676.22 59.6932 677.372 61.3999C678.566 63.0639 680.23 63.8959 682.364 63.8959Z" fill="url(#paint37_linear_112_4006)"/>
<path d="M629.234 35.4159C633.074 35.4159 636.103 36.4186 638.322 38.4239C640.54 40.4292 641.65 43.6932 641.65 48.2159V70.9999H632.05V50.6479C632.05 48.1306 631.58 46.2532 630.642 45.0159C629.746 43.7359 628.338 43.0959 626.418 43.0959C623.516 43.0959 621.532 44.0986 620.466 46.1039C619.442 48.0666 618.93 50.9039 618.93 54.6159V70.9999H609.266V36.0559H616.69L618.034 40.7279H618.418C619.186 39.5759 620.103 38.6159 621.17 37.8479C622.279 37.0372 623.495 36.4399 624.818 36.0559C626.183 35.6292 627.655 35.4159 629.234 35.4159Z" fill="url(#paint38_linear_112_4006)"/>
<path d="M601.522 53.4639C601.522 56.3652 601.116 58.9466 600.306 61.2079C599.538 63.4692 598.407 65.3679 596.914 66.9039C595.463 68.4399 593.692 69.6132 591.602 70.4239C589.511 71.2346 587.143 71.6399 584.498 71.6399C582.023 71.6399 579.762 71.2346 577.714 70.4239C575.666 69.6132 573.895 68.4399 572.402 66.9039C570.908 65.3679 569.735 63.4692 568.882 61.2079C568.028 58.9466 567.602 56.3652 567.602 53.4639C567.602 49.5812 568.284 46.2959 569.65 43.6079C571.015 40.9199 572.978 38.8932 575.538 37.5279C578.098 36.1199 581.148 35.4159 584.69 35.4159C587.975 35.4159 590.876 36.1199 593.394 37.5279C595.911 38.8932 597.895 40.9199 599.346 43.6079C600.796 46.2959 601.522 49.5812 601.522 53.4639ZM577.458 53.4639C577.458 55.7252 577.692 57.6666 578.162 59.2879C578.674 60.9092 579.442 62.1466 580.466 62.9999C581.532 63.8532 582.919 64.2799 584.626 64.2799C586.29 64.2799 587.634 63.8532 588.658 62.9999C589.724 62.1466 590.492 60.9092 590.962 59.2879C591.431 57.6666 591.666 55.7252 591.666 53.4639C591.666 51.1599 591.41 49.2186 590.898 47.6399C590.428 46.0612 589.682 44.8666 588.658 44.0559C587.634 43.2026 586.268 42.7759 584.562 42.7759C582.087 42.7759 580.274 43.6932 579.122 45.5279C578.012 47.3626 577.458 50.0079 577.458 53.4639Z" fill="url(#paint39_linear_112_4006)"/>
<path d="M559.869 36.0559V70.9999H550.205V36.0559H559.869ZM555.069 22.2959C556.477 22.2959 557.693 22.6372 558.717 23.3199C559.783 23.9599 560.317 25.1972 560.317 27.0319C560.317 28.7812 559.783 29.9972 558.717 30.6799C557.693 31.3626 556.477 31.7039 555.069 31.7039C553.618 31.7039 552.381 31.3626 551.357 30.6799C550.333 29.9972 549.821 28.7812 549.821 27.0319C549.821 25.1972 550.333 23.9599 551.357 23.3199C552.381 22.6372 553.618 22.2959 555.069 22.2959Z" fill="url(#paint40_linear_112_4006)"/>
<path d="M537.431 64.0239C538.497 64.0239 539.521 63.9172 540.503 63.7039C541.484 63.4906 542.465 63.2346 543.447 62.9359V70.0399C542.423 70.4666 541.143 70.8292 539.607 71.1279C538.113 71.4692 536.471 71.6399 534.679 71.6399C532.588 71.6399 530.711 71.2986 529.047 70.6159C527.425 69.9332 526.124 68.7599 525.143 67.0959C524.204 65.3892 523.735 63.0426 523.735 60.0559V43.2239H519.191V39.1919L524.439 35.9919L527.191 28.6319H533.271V36.0559H543.063V43.2239H533.271V60.0559C533.271 61.3786 533.655 62.3812 534.423 63.0639C535.191 63.7039 536.193 64.0239 537.431 64.0239Z" fill="url(#paint41_linear_112_4006)"/>
<path d="M504.623 71.6399C501.252 71.6399 498.287 71.0212 495.727 69.7839C493.209 68.5039 491.247 66.5412 489.839 63.8959C488.431 61.2079 487.727 57.8159 487.727 53.7199C487.727 49.4106 488.495 45.9119 490.031 43.2239C491.567 40.5359 493.657 38.5732 496.303 37.3359C498.948 36.0559 501.956 35.4159 505.327 35.4159C507.375 35.4159 509.295 35.6292 511.087 36.0559C512.921 36.4826 514.543 37.0586 515.951 37.7839L513.071 45.0799C511.791 44.5252 510.489 44.0772 509.167 43.7359C507.887 43.3519 506.607 43.1599 505.327 43.1599C503.663 43.1599 502.255 43.5439 501.103 44.3119C499.951 45.0799 499.076 46.2532 498.479 47.8319C497.881 49.3679 497.583 51.3092 497.583 53.6559C497.583 55.9599 497.881 57.8586 498.479 59.3519C499.076 60.8452 499.951 61.9759 501.103 62.7439C502.255 63.4692 503.62 63.8319 505.199 63.8319C507.033 63.8319 508.761 63.5972 510.383 63.1279C512.004 62.6159 513.54 61.9546 514.991 61.1439V69.0159C513.668 69.8266 512.175 70.4666 510.511 70.9359C508.847 71.4052 506.884 71.6399 504.623 71.6399Z" fill="url(#paint42_linear_112_4006)"/>
<path d="M479.958 36.0559V70.9999H472.534L471.318 66.5199H470.742C470.016 67.7146 469.078 68.6959 467.926 69.4639C466.816 70.2319 465.579 70.7866 464.214 71.1279C462.891 71.4692 461.483 71.6399 459.99 71.6399C457.515 71.6399 455.339 71.1919 453.462 70.2959C451.627 69.3999 450.176 68.0132 449.11 66.1359C448.086 64.2586 447.574 61.8266 447.574 58.8399V36.0559H457.302V56.4079C457.302 58.8826 457.728 60.7599 458.582 62.0399C459.478 63.2772 460.886 63.8959 462.806 63.8959C464.768 63.8959 466.283 63.4692 467.35 62.6159C468.459 61.7199 469.227 60.4186 469.654 58.7119C470.08 57.0052 470.294 54.9146 470.294 52.4399V36.0559H479.958Z" fill="url(#paint43_linear_112_4006)"/>
<path d="M418.784 71.6399C414.944 71.6399 411.787 70.1252 409.312 67.0959C406.88 64.0239 405.664 59.5226 405.664 53.5919C405.664 47.5759 406.902 43.0532 409.376 40.0239C411.851 36.9519 415.094 35.4159 419.104 35.4159C420.768 35.4159 422.198 35.6506 423.392 36.1199C424.63 36.5466 425.696 37.1439 426.592 37.9119C427.488 38.6799 428.256 39.5546 428.896 40.5359H429.216C429.088 39.7679 428.96 38.7012 428.832 37.3359C428.747 35.9279 428.704 34.6479 428.704 33.4959V22.3599H438.432V70.9999H431.008L429.088 66.4559H428.704C428.107 67.4372 427.36 68.3119 426.464 69.0799C425.568 69.8479 424.48 70.4666 423.2 70.9359C421.963 71.4052 420.491 71.6399 418.784 71.6399ZM422.176 63.8959C424.822 63.8959 426.678 63.1492 427.744 61.6559C428.811 60.1199 429.344 57.7946 429.344 54.6799V53.6559C429.344 50.2852 428.832 47.7039 427.808 45.9119C426.784 44.1199 424.886 43.2239 422.112 43.2239C420.022 43.2239 418.379 44.1199 417.184 45.9119C416.032 47.7039 415.456 50.3066 415.456 53.7199C415.456 57.1332 416.032 59.6932 417.184 61.3999C418.379 63.0639 420.043 63.8959 422.176 63.8959Z" fill="url(#paint44_linear_112_4006)"/>
<path d="M384.632 35.4159C389.026 35.4159 392.376 36.4612 394.68 38.5519C396.984 40.5999 398.136 43.6506 398.136 47.7039V70.9999H391.416L389.56 66.2639H389.304C388.322 67.5012 387.298 68.5252 386.232 69.3359C385.208 70.1466 384.013 70.7226 382.648 71.0639C381.282 71.4479 379.618 71.6399 377.656 71.6399C375.608 71.6399 373.773 71.2559 372.152 70.4879C370.53 69.6772 369.25 68.4612 368.312 66.8399C367.373 65.2186 366.904 63.1706 366.904 60.6959C366.904 57.0266 368.226 54.2746 370.872 52.4399C373.517 50.6052 377.464 49.5812 382.712 49.3679L388.536 49.1759V48.0879C388.536 45.9972 388.066 44.5466 387.128 43.7359C386.189 42.8826 384.866 42.4559 383.16 42.4559C381.581 42.4559 379.96 42.7119 378.296 43.2239C376.632 43.7359 374.989 44.3546 373.368 45.0799L370.552 38.4879C372.386 37.5492 374.477 36.8026 376.824 36.2479C379.213 35.6932 381.816 35.4159 384.632 35.4159ZM384.888 54.9999C381.858 55.0852 379.746 55.5759 378.552 56.4719C377.357 57.3679 376.76 58.6266 376.76 60.2479C376.76 61.7412 377.165 62.8506 377.976 63.5759C378.829 64.2586 379.96 64.5999 381.368 64.5999C383.373 64.5999 385.058 64.0026 386.424 62.8079C387.832 61.6132 388.536 59.9066 388.536 57.6879V54.8079L384.888 54.9999Z" fill="url(#paint45_linear_112_4006)"/>
<path d="M360.969 35.4159C361.609 35.4159 362.291 35.4586 363.017 35.5439C363.785 35.5866 364.382 35.6719 364.809 35.7999L363.849 44.8239C363.379 44.7386 362.825 44.6532 362.185 44.5679C361.545 44.4826 360.777 44.4399 359.881 44.4399C358.899 44.4399 357.897 44.5892 356.873 44.8879C355.891 45.1866 354.974 45.6772 354.121 46.3599C353.267 47.0426 352.585 47.9386 352.073 49.0479C351.561 50.1572 351.305 51.5652 351.305 53.2719V70.9999H341.641V36.0559H349.001L350.409 41.9439H350.857C351.539 40.7066 352.393 39.5972 353.417 38.6159C354.441 37.6346 355.593 36.8666 356.873 36.3119C358.153 35.7146 359.518 35.4159 360.969 35.4159Z" fill="url(#paint46_linear_112_4006)"/>
<path d="M326.579 70.9999H316.787V33.4319H304.435V25.3039H338.931V33.4319H326.579V70.9999Z" fill="url(#paint47_linear_112_4006)"/>
<defs>
<filter id="filter0_f_112_4006" x="283.901" y="14.2959" width="829.662" height="89.3442" filterUnits="userSpaceOnUse" color-interpolation-filters="sRGB">
<feFlood flood-opacity="0" result="BackgroundImageFix"/>
<feBlend mode="normal" in="SourceGraphic" in2="BackgroundImageFix" result="shape"/>
<feGaussianBlur stdDeviation="10" result="effect1_foregroundBlur_112_4006"/>
</filter>
<linearGradient id="paint0_linear_112_4006" x1="203" y1="64.0036" x2="1197" y2="64.0025" gradientUnits="userSpaceOnUse">
<stop stop-color="white" stop-opacity="0.3"/>
<stop offset="0.359008" stop-color="#CBB0F8"/>
<stop offset="0.788712" stop-color="#FCD9ED"/>
<stop offset="1" stop-color="white" stop-opacity="0.3"/>
</linearGradient>
<linearGradient id="paint1_linear_112_4006" x1="1180.1" y1="49.3944" x2="-22483.5" y2="49.4726" gradientUnits="userSpaceOnUse">
<stop stop-color="#F4439F"/>
<stop offset="1" stop-color="#7C3AED"/>
</linearGradient>
<linearGradient id="paint2_linear_112_4006" x1="1956.94" y1="49.3944" x2="-17481" y2="49.4472" gradientUnits="userSpaceOnUse">
<stop stop-color="#F4439F"/>
<stop offset="1" stop-color="#7C3AED"/>
</linearGradient>
<linearGradient id="paint3_linear_112_4006" x1="3481.71" y1="49.666" x2="-23581.1" y2="49.7665" gradientUnits="userSpaceOnUse">
<stop stop-color="#F4439F"/>
<stop offset="1" stop-color="#7C3AED"/>
</linearGradient>
<linearGradient id="paint4_linear_112_4006" x1="4346.75" y1="54.7962" x2="-21502.1" y2="54.9071" gradientUnits="userSpaceOnUse">
<stop stop-color="#F4439F"/>
<stop offset="1" stop-color="#7C3AED"/>
</linearGradient>
<linearGradient id="paint5_linear_112_4006" x1="10869" y1="58.818" x2="-48867" y2="59.4883" gradientUnits="userSpaceOnUse">
<stop stop-color="#F4439F"/>
<stop offset="1" stop-color="#7C3AED"/>
</linearGradient>
<linearGradient id="paint6_linear_112_4006" x1="5872.78" y1="54.7962" x2="-19976.1" y2="54.9071" gradientUnits="userSpaceOnUse">
<stop stop-color="#F4439F"/>
<stop offset="1" stop-color="#7C3AED"/>
</linearGradient>
<linearGradient id="paint7_linear_112_4006" x1="9275.74" y1="13.28" x2="-27974.1" y2="13.3225" gradientUnits="userSpaceOnUse">
<stop stop-color="#F4439F"/>
<stop offset="1" stop-color="#7C3AED"/>
</linearGradient>
<linearGradient id="paint8_linear_112_4006" x1="6926.5" y1="49.3944" x2="-16737.1" y2="49.4726" gradientUnits="userSpaceOnUse">
<stop stop-color="#F4439F"/>
<stop offset="1" stop-color="#7C3AED"/>
</linearGradient>
<linearGradient id="paint9_linear_112_4006" x1="6699.93" y1="48.7785" x2="-12661.2" y2="48.8299" gradientUnits="userSpaceOnUse">
<stop stop-color="#F4439F"/>
<stop offset="1" stop-color="#7C3AED"/>
</linearGradient>
<linearGradient id="paint10_linear_112_4006" x1="7375.78" y1="49.3944" x2="-11108.6" y2="49.4421" gradientUnits="userSpaceOnUse">
<stop stop-color="#F4439F"/>
<stop offset="1" stop-color="#7C3AED"/>
</linearGradient>
<linearGradient id="paint11_linear_112_4006" x1="10316.6" y1="49.3944" x2="-13347" y2="49.4726" gradientUnits="userSpaceOnUse">
<stop stop-color="#F4439F"/>
<stop offset="1" stop-color="#7C3AED"/>
</linearGradient>
<linearGradient id="paint12_linear_112_4006" x1="9868.92" y1="49.3945" x2="-9569.05" y2="49.4473" gradientUnits="userSpaceOnUse">
<stop stop-color="#F4439F"/>
<stop offset="1" stop-color="#7C3AED"/>
</linearGradient>
<linearGradient id="paint13_linear_112_4006" x1="10694" y1="58.4672" x2="-8440.3" y2="58.5368" gradientUnits="userSpaceOnUse">
<stop stop-color="#F4439F"/>
<stop offset="1" stop-color="#7C3AED"/>
</linearGradient>
<linearGradient id="paint14_linear_112_4006" x1="12197" y1="49.666" x2="-7164.18" y2="49.7175" gradientUnits="userSpaceOnUse">
<stop stop-color="#F4439F"/>
<stop offset="1" stop-color="#7C3AED"/>
</linearGradient>
<linearGradient id="paint15_linear_112_4006" x1="12628.3" y1="49.3945" x2="-5856.05" y2="49.4422" gradientUnits="userSpaceOnUse">
<stop stop-color="#F4439F"/>
<stop offset="1" stop-color="#7C3AED"/>
</linearGradient>
<linearGradient id="paint16_linear_112_4006" x1="41470.7" y1="58.818" x2="-18265.6" y2="59.4883" gradientUnits="userSpaceOnUse">
<stop stop-color="#F4439F"/>
<stop offset="1" stop-color="#7C3AED"/>
</linearGradient>
<linearGradient id="paint17_linear_112_4006" x1="19114.7" y1="54.7962" x2="-6734.25" y2="54.9071" gradientUnits="userSpaceOnUse">
<stop stop-color="#F4439F"/>
<stop offset="1" stop-color="#7C3AED"/>
</linearGradient>
<linearGradient id="paint18_linear_112_4006" x1="17350.4" y1="49.3945" x2="-4864.45" y2="49.4634" gradientUnits="userSpaceOnUse">
<stop stop-color="#F4439F"/>
<stop offset="1" stop-color="#7C3AED"/>
</linearGradient>
<linearGradient id="paint19_linear_112_4006" x1="16139.7" y1="48.7785" x2="-3221.43" y2="48.8299" gradientUnits="userSpaceOnUse">
<stop stop-color="#F4439F"/>
<stop offset="1" stop-color="#7C3AED"/>
</linearGradient>
<linearGradient id="paint20_linear_112_4006" x1="16964.1" y1="58.4672" x2="-2170.16" y2="58.5368" gradientUnits="userSpaceOnUse">
<stop stop-color="#F4439F"/>
<stop offset="1" stop-color="#7C3AED"/>
</linearGradient>
<linearGradient id="paint21_linear_112_4006" x1="18763.5" y1="49.3945" x2="-1311.82" y2="49.4508" gradientUnits="userSpaceOnUse">
<stop stop-color="#F4439F"/>
<stop offset="1" stop-color="#7C3AED"/>
</linearGradient>
<linearGradient id="paint22_linear_112_4006" x1="26049.7" y1="49.666" x2="-1013.14" y2="49.7665" gradientUnits="userSpaceOnUse">
<stop stop-color="#F4439F"/>
<stop offset="1" stop-color="#7C3AED"/>
</linearGradient>
<linearGradient id="paint23_linear_112_4006" x1="1096.47" y1="58.4997" x2="302.467" y2="58.4999" gradientUnits="userSpaceOnUse">
<stop stop-color="#F4439F"/>
<stop offset="1" stop-color="#7C3AED"/>
</linearGradient>
<linearGradient id="paint24_linear_112_4006" x1="700" y1="72" x2="700" y2="117" gradientUnits="userSpaceOnUse">
<stop offset="0.0001" stop-color="white" stop-opacity="0.1"/>
<stop offset="1" stop-color="white" stop-opacity="0"/>
</linearGradient>
<linearGradient id="paint25_linear_112_4006" x1="1180.64" y1="-21.8609" x2="1058.46" y2="1720.29" gradientUnits="userSpaceOnUse">
<stop stop-color="#F4439F"/>
<stop offset="1" stop-color="#7C3AED"/>
</linearGradient>
<linearGradient id="paint26_linear_112_4006" x1="1957.48" y1="-21.8609" x2="1809.09" y2="1716.19" gradientUnits="userSpaceOnUse">
<stop stop-color="#F4439F"/>
<stop offset="1" stop-color="#7C3AED"/>
</linearGradient>
<linearGradient id="paint27_linear_112_4006" x1="3482.24" y1="-22.6551" x2="3371.42" y2="1752.63" gradientUnits="userSpaceOnUse">
<stop stop-color="#F4439F"/>
<stop offset="1" stop-color="#7C3AED"/>
</linearGradient>
<linearGradient id="paint28_linear_112_4006" x1="4347.28" y1="-7.11226" x2="4267.78" y2="1463.15" gradientUnits="userSpaceOnUse">
<stop stop-color="#F4439F"/>
<stop offset="1" stop-color="#7C3AED"/>
</linearGradient>
<linearGradient id="paint29_linear_112_4006" x1="10869.5" y1="2.74634" x2="10842.6" y2="1304.3" gradientUnits="userSpaceOnUse">
<stop stop-color="#F4439F"/>
<stop offset="1" stop-color="#7C3AED"/>
</linearGradient>
<linearGradient id="paint30_linear_112_4006" x1="5873.31" y1="-7.11224" x2="5793.81" y2="1463.15" gradientUnits="userSpaceOnUse">
<stop stop-color="#F4439F"/>
<stop offset="1" stop-color="#7C3AED"/>
</linearGradient>
<linearGradient id="paint31_linear_112_4006" x1="9276.27" y1="-269.192" x2="7715.74" y2="7404.63" gradientUnits="userSpaceOnUse">
<stop stop-color="#F4439F"/>
<stop offset="1" stop-color="#7C3AED"/>
</linearGradient>
<linearGradient id="paint32_linear_112_4006" x1="6927.03" y1="-21.8609" x2="6804.85" y2="1720.29" gradientUnits="userSpaceOnUse">
<stop stop-color="#F4439F"/>
<stop offset="1" stop-color="#7C3AED"/>
</linearGradient>
<linearGradient id="paint33_linear_112_4006" x1="6700.46" y1="-23.5426" x2="6546.13" y2="1745.19" gradientUnits="userSpaceOnUse">
<stop stop-color="#F4439F"/>
<stop offset="1" stop-color="#7C3AED"/>
</linearGradient>
<linearGradient id="paint34_linear_112_4006" x1="7376.31" y1="-21.8609" x2="7220.39" y2="1714.86" gradientUnits="userSpaceOnUse">
<stop stop-color="#F4439F"/>
<stop offset="1" stop-color="#7C3AED"/>
</linearGradient>
<linearGradient id="paint35_linear_112_4006" x1="10317.1" y1="-21.8609" x2="10195" y2="1720.29" gradientUnits="userSpaceOnUse">
<stop stop-color="#F4439F"/>
<stop offset="1" stop-color="#7C3AED"/>
</linearGradient>
<linearGradient id="paint36_linear_112_4006" x1="9869.45" y1="-21.8609" x2="9721.06" y2="1716.19" gradientUnits="userSpaceOnUse">
<stop stop-color="#F4439F"/>
<stop offset="1" stop-color="#7C3AED"/>
</linearGradient>
<linearGradient id="paint37_linear_112_4006" x1="10694.5" y1="2.91077" x2="10612.8" y2="1284.59" gradientUnits="userSpaceOnUse">
<stop stop-color="#F4439F"/>
<stop offset="1" stop-color="#7C3AED"/>
</linearGradient>
<linearGradient id="paint38_linear_112_4006" x1="12197.5" y1="-22.655" x2="12043.2" y2="1746.08" gradientUnits="userSpaceOnUse">
<stop stop-color="#F4439F"/>
<stop offset="1" stop-color="#7C3AED"/>
</linearGradient>
<linearGradient id="paint39_linear_112_4006" x1="12628.9" y1="-21.8609" x2="12473" y2="1714.86" gradientUnits="userSpaceOnUse">
<stop stop-color="#F4439F"/>
<stop offset="1" stop-color="#7C3AED"/>
</linearGradient>
<linearGradient id="paint40_linear_112_4006" x1="41471.3" y1="2.74634" x2="41444.4" y2="1304.3" gradientUnits="userSpaceOnUse">
<stop stop-color="#F4439F"/>
<stop offset="1" stop-color="#7C3AED"/>
</linearGradient>
<linearGradient id="paint41_linear_112_4006" x1="19115.2" y1="-7.11227" x2="19035.7" y2="1463.15" gradientUnits="userSpaceOnUse">
<stop stop-color="#F4439F"/>
<stop offset="1" stop-color="#7C3AED"/>
</linearGradient>
<linearGradient id="paint42_linear_112_4006" x1="17350.9" y1="-21.8609" x2="17220.8" y2="1719.14" gradientUnits="userSpaceOnUse">
<stop stop-color="#F4439F"/>
<stop offset="1" stop-color="#7C3AED"/>
</linearGradient>
<linearGradient id="paint43_linear_112_4006" x1="16140.2" y1="-23.5426" x2="15985.9" y2="1745.19" gradientUnits="userSpaceOnUse">
<stop stop-color="#F4439F"/>
<stop offset="1" stop-color="#7C3AED"/>
</linearGradient>
<linearGradient id="paint44_linear_112_4006" x1="16964.6" y1="2.91077" x2="16882.9" y2="1284.59" gradientUnits="userSpaceOnUse">
<stop stop-color="#F4439F"/>
<stop offset="1" stop-color="#7C3AED"/>
</linearGradient>
<linearGradient id="paint45_linear_112_4006" x1="18764" y1="-21.8609" x2="18620.2" y2="1716.97" gradientUnits="userSpaceOnUse">
<stop stop-color="#F4439F"/>
<stop offset="1" stop-color="#7C3AED"/>
</linearGradient>
<linearGradient id="paint46_linear_112_4006" x1="26050.2" y1="-22.6551" x2="25939.4" y2="1752.63" gradientUnits="userSpaceOnUse">
<stop stop-color="#F4439F"/>
<stop offset="1" stop-color="#7C3AED"/>
</linearGradient>
<linearGradient id="paint47_linear_112_4006" x1="1097" y1="2.99972" x2="509.097" y2="386.153" gradientUnits="userSpaceOnUse">
<stop stop-color="#F4439F"/>
<stop offset="1" stop-color="#7C3AED"/>
</linearGradient>
</defs>
</svg>
