<svg width="1400" height="120" viewBox="0 0 1400 120" fill="none" xmlns="http://www.w3.org/2000/svg">
<path d="M273 56H1128V72H273V56Z" fill="url(#paint0_linear_112_4062)"/>
<mask id="mask0_112_4062" style="mask-type:alpha" maskUnits="userSpaceOnUse" x="273" y="72" width="855" height="45">
<path d="M273 72H1128V117H273V72Z" fill="#C4C4C4"/>
</mask>
<g mask="url(#mask0_112_4062)">
<g filter="url(#filter0_f_112_4062)">
<path d="M1024.59 72.6959C1024.59 74.9146 1024.06 76.8559 1022.99 78.5199C1021.97 80.1412 1020.39 81.3999 1018.26 82.2959C1016.12 83.1919 1013.42 83.6399 1010.13 83.6399C1007.66 83.6399 1005.48 83.4692 1003.6 83.1279C1001.72 82.8292 999.911 82.3172 998.162 81.5919V73.5919C1000.04 74.4879 1002.07 75.1919 1004.24 75.7039C1006.42 76.2159 1008.3 76.4719 1009.87 76.4719C1011.84 76.4719 1013.24 76.1946 1014.1 75.6399C1014.99 75.0852 1015.44 74.3386 1015.44 73.3999C1015.44 72.7599 1015.21 72.1839 1014.74 71.6719C1014.31 71.1599 1013.52 70.6266 1012.37 70.0719C1011.26 69.5172 1009.66 68.8346 1007.57 68.0239C1005.48 67.1706 1003.73 66.2959 1002.32 65.3999C1000.91 64.4612 999.847 63.3519 999.122 62.0719C998.439 60.7919 998.098 59.1919 998.098 57.2719C998.098 54.0719 999.357 51.6399 1001.87 49.9759C1004.43 48.2692 1007.8 47.4159 1011.99 47.4159C1014.25 47.4159 1016.34 47.6506 1018.26 48.1199C1020.22 48.5892 1022.2 49.2506 1024.21 50.1039L1021.39 56.6959C1019.77 55.9706 1018.11 55.3732 1016.4 54.9039C1014.7 54.4346 1013.18 54.1999 1011.86 54.1999C1010.41 54.1999 1009.28 54.4346 1008.47 54.9039C1007.66 55.3306 1007.25 55.9492 1007.25 56.7599C1007.25 57.3572 1007.46 57.8906 1007.89 58.3599C1008.36 58.8292 1009.15 59.3199 1010.26 59.8319C1011.41 60.3439 1013.01 61.0052 1015.06 61.8159C1017.15 62.6266 1018.9 63.5012 1020.31 64.4399C1021.76 65.3359 1022.82 66.4452 1023.51 67.7679C1024.23 69.0479 1024.59 70.6906 1024.59 72.6959Z" fill="url(#paint1_linear_112_4062)" fill-opacity="0.7"/>
<path d="M976.551 47.4159C979.793 47.4159 982.588 48.0346 984.935 49.2719C987.281 50.4666 989.073 52.2586 990.311 54.6479C991.591 56.9946 992.231 59.8746 992.231 63.2879V67.9599H969.767C969.852 70.6052 970.663 72.6959 972.199 74.2319C973.735 75.7252 975.932 76.4719 978.791 76.4719C980.967 76.4719 982.951 76.2586 984.743 75.8319C986.535 75.4052 988.369 74.7652 990.247 73.9119V81.1439C988.54 81.9972 986.727 82.6159 984.807 82.9999C982.929 83.4266 980.583 83.6399 977.767 83.6399C974.311 83.6399 971.239 82.9999 968.551 81.7199C965.905 80.4399 963.815 78.4772 962.279 75.8319C960.743 73.1439 959.975 69.7946 959.975 65.7839C959.975 61.6879 960.657 58.2959 962.023 55.6079C963.431 52.8772 965.372 50.8292 967.847 49.4639C970.364 48.0986 973.265 47.4159 976.551 47.4159ZM976.807 54.2639C974.887 54.2639 973.329 54.8826 972.135 56.1199C970.94 57.3146 970.236 59.1066 970.023 61.4959H983.207C983.207 60.0879 982.972 58.8506 982.503 57.7839C982.033 56.7172 981.308 55.8639 980.327 55.2239C979.388 54.5839 978.215 54.2639 976.807 54.2639Z" fill="url(#paint2_linear_112_4062)" fill-opacity="0.7"/>
<path d="M948.929 76.0239C949.995 76.0239 951.019 75.9172 952.001 75.7039C952.982 75.4906 953.963 75.2346 954.945 74.9359V82.0399C953.921 82.4666 952.641 82.8292 951.105 83.1279C949.611 83.4692 947.969 83.6399 946.177 83.6399C944.086 83.6399 942.209 83.2986 940.545 82.6159C938.923 81.9332 937.622 80.7599 936.641 79.0959C935.702 77.3892 935.233 75.0426 935.233 72.0559V55.2239H930.689V51.1919L935.937 47.9919L938.689 40.6319H944.769V48.0559H954.561V55.2239H944.769V72.0559C944.769 73.3786 945.153 74.3812 945.921 75.0639C946.689 75.7039 947.691 76.0239 948.929 76.0239Z" fill="url(#paint3_linear_112_4062)" fill-opacity="0.7"/>
<path d="M904.377 65.1439L893.113 48.0559H903.929L910.713 59.1919L917.561 48.0559H928.377L916.985 65.1439L928.889 82.9999H918.073L910.713 71.0319L903.353 82.9999H892.537L904.377 65.1439Z" fill="url(#paint4_linear_112_4062)" fill-opacity="0.7"/>
<path d="M874.863 47.4159C878.106 47.4159 880.9 48.0346 883.247 49.2719C885.594 50.4666 887.386 52.2586 888.623 54.6479C889.903 56.9946 890.543 59.8746 890.543 63.2879V67.9599H868.079C868.164 70.6052 868.975 72.6959 870.511 74.2319C872.047 75.7252 874.244 76.4719 877.103 76.4719C879.279 76.4719 881.263 76.2586 883.055 75.8319C884.847 75.4052 886.682 74.7652 888.559 73.9119V81.1439C886.852 81.9972 885.039 82.6159 883.119 82.9999C881.242 83.4266 878.895 83.6399 876.079 83.6399C872.623 83.6399 869.551 82.9999 866.863 81.7199C864.218 80.4399 862.127 78.4772 860.591 75.8319C859.055 73.1439 858.287 69.7946 858.287 65.7839C858.287 61.6879 858.97 58.2959 860.335 55.6079C861.743 52.8772 863.684 50.8292 866.159 49.4639C868.676 48.0986 871.578 47.4159 874.863 47.4159ZM875.119 54.2639C873.199 54.2639 871.642 54.8826 870.447 56.1199C869.252 57.3146 868.548 59.1066 868.335 61.4959H881.519C881.519 60.0879 881.284 58.8506 880.815 57.7839C880.346 56.7172 879.62 55.8639 878.639 55.2239C877.7 54.5839 876.527 54.2639 875.119 54.2639Z" fill="url(#paint5_linear_112_4062)" fill-opacity="0.7"/>
<path d="M847.241 76.0239C848.308 76.0239 849.332 75.9172 850.313 75.7039C851.294 75.4906 852.276 75.2346 853.257 74.9359V82.0399C852.233 82.4666 850.953 82.8292 849.417 83.1279C847.924 83.4692 846.281 83.6399 844.489 83.6399C842.398 83.6399 840.521 83.2986 838.857 82.6159C837.236 81.9332 835.934 80.7599 834.953 79.0959C834.014 77.3892 833.545 75.0426 833.545 72.0559V55.2239H829.001V51.1919L834.249 47.9919L837.001 40.6319H843.081V48.0559H852.873V55.2239H843.081V72.0559C843.081 73.3786 843.465 74.3812 844.233 75.0639C845.001 75.7039 846.004 76.0239 847.241 76.0239Z" fill="url(#paint6_linear_112_4062)" fill-opacity="0.7"/>
<path d="M792.301 47.4159C795.543 47.4159 798.338 48.0346 800.685 49.2719C803.031 50.4666 804.823 52.2586 806.061 54.6479C807.341 56.9946 807.981 59.8746 807.981 63.2879V67.9599H785.517C785.602 70.6052 786.413 72.6959 787.949 74.2319C789.485 75.7252 791.682 76.4719 794.541 76.4719C796.717 76.4719 798.701 76.2586 800.493 75.8319C802.285 75.4052 804.119 74.7652 805.997 73.9119V81.1439C804.29 81.9972 802.477 82.6159 800.557 82.9999C798.679 83.4266 796.333 83.6399 793.517 83.6399C790.061 83.6399 786.989 82.9999 784.301 81.7199C781.655 80.4399 779.565 78.4772 778.029 75.8319C776.493 73.1439 775.725 69.7946 775.725 65.7839C775.725 61.6879 776.407 58.2959 777.773 55.6079C779.181 52.8772 781.122 50.8292 783.597 49.4639C786.114 48.0986 789.015 47.4159 792.301 47.4159ZM792.557 54.2639C790.637 54.2639 789.079 54.8826 787.885 56.1199C786.69 57.3146 785.986 59.1066 785.773 61.4959H798.957C798.957 60.0879 798.722 58.8506 798.253 57.7839C797.783 56.7172 797.058 55.8639 796.077 55.2239C795.138 54.5839 793.965 54.2639 792.557 54.2639Z" fill="url(#paint7_linear_112_4062)" fill-opacity="0.7"/>
<path d="M748.407 83.6399C744.567 83.6399 741.41 82.1252 738.935 79.0959C736.503 76.0239 735.287 71.5226 735.287 65.5919C735.287 59.5759 736.524 55.0532 738.999 52.0239C741.474 48.9519 744.716 47.4159 748.727 47.4159C750.391 47.4159 751.82 47.6506 753.015 48.1199C754.252 48.5466 755.319 49.1439 756.215 49.9119C757.111 50.6799 757.879 51.5546 758.519 52.5359H758.839C758.711 51.7679 758.583 50.7012 758.455 49.3359C758.37 47.9279 758.327 46.6479 758.327 45.4959V34.3599H768.055V82.9999H760.631L758.711 78.4559H758.327C757.73 79.4372 756.983 80.3119 756.087 81.0799C755.191 81.8479 754.103 82.4666 752.823 82.9359C751.586 83.4052 750.114 83.6399 748.407 83.6399ZM751.799 75.8959C754.444 75.8959 756.3 75.1492 757.367 73.6559C758.434 72.1199 758.967 69.7946 758.967 66.6799V65.6559C758.967 62.2852 758.455 59.7039 757.431 57.9119C756.407 56.1199 754.508 55.2239 751.735 55.2239C749.644 55.2239 748.002 56.1199 746.807 57.9119C745.655 59.7039 745.079 62.3066 745.079 65.7199C745.079 69.1332 745.655 71.6932 746.807 73.3999C748.002 75.0639 749.666 75.8959 751.799 75.8959Z" fill="url(#paint8_linear_112_4062)" fill-opacity="0.7"/>
<path d="M698.669 47.4159C702.509 47.4159 705.538 48.4186 707.757 50.4239C709.976 52.4292 711.085 55.6932 711.085 60.2159V82.9999H701.485V62.6479C701.485 60.1306 701.016 58.2532 700.077 57.0159C699.181 55.7359 697.773 55.0959 695.853 55.0959C692.952 55.0959 690.968 56.0986 689.901 58.1039C688.877 60.0666 688.365 62.9039 688.365 66.6159V82.9999H678.701V48.0559H686.125L687.469 52.7279H687.853C688.621 51.5759 689.538 50.6159 690.605 49.8479C691.714 49.0372 692.93 48.4399 694.253 48.0559C695.618 47.6292 697.09 47.4159 698.669 47.4159Z" fill="url(#paint9_linear_112_4062)" fill-opacity="0.7"/>
<path d="M670.957 65.4639C670.957 68.3652 670.552 70.9466 669.741 73.2079C668.973 75.4692 667.842 77.3679 666.349 78.9039C664.898 80.4399 663.128 81.6132 661.037 82.4239C658.946 83.2346 656.578 83.6399 653.933 83.6399C651.458 83.6399 649.197 83.2346 647.149 82.4239C645.101 81.6132 643.33 80.4399 641.837 78.9039C640.344 77.3679 639.17 75.4692 638.317 73.2079C637.464 70.9466 637.037 68.3652 637.037 65.4639C637.037 61.5812 637.72 58.2959 639.085 55.6079C640.45 52.9199 642.413 50.8932 644.973 49.5279C647.533 48.1199 650.584 47.4159 654.125 47.4159C657.41 47.4159 660.312 48.1199 662.829 49.5279C665.346 50.8932 667.33 52.9199 668.781 55.6079C670.232 58.2959 670.957 61.5812 670.957 65.4639ZM646.893 65.4639C646.893 67.7252 647.128 69.6666 647.597 71.2879C648.109 72.9092 648.877 74.1466 649.901 74.9999C650.968 75.8532 652.354 76.2799 654.061 76.2799C655.725 76.2799 657.069 75.8532 658.093 74.9999C659.16 74.1466 659.928 72.9092 660.397 71.2879C660.866 69.6666 661.101 67.7252 661.101 65.4639C661.101 63.1599 660.845 61.2186 660.333 59.6399C659.864 58.0612 659.117 56.8666 658.093 56.0559C657.069 55.2026 655.704 54.7759 653.997 54.7759C651.522 54.7759 649.709 55.6932 648.557 57.5279C647.448 59.3626 646.893 62.0079 646.893 65.4639Z" fill="url(#paint10_linear_112_4062)" fill-opacity="0.7"/>
<path d="M629.304 48.0559V82.9999H619.64V48.0559H629.304ZM624.504 34.2959C625.912 34.2959 627.128 34.6372 628.152 35.3199C629.219 35.9599 629.752 37.1972 629.752 39.0319C629.752 40.7812 629.219 41.9972 628.152 42.6799C627.128 43.3626 625.912 43.7039 624.504 43.7039C623.053 43.7039 621.816 43.3626 620.792 42.6799C619.768 41.9972 619.256 40.7812 619.256 39.0319C619.256 37.1972 619.768 35.9599 620.792 35.3199C621.816 34.6372 623.053 34.2959 624.504 34.2959Z" fill="url(#paint11_linear_112_4062)" fill-opacity="0.7"/>
<path d="M606.866 76.0239C607.933 76.0239 608.957 75.9172 609.938 75.7039C610.919 75.4906 611.901 75.2346 612.882 74.9359V82.0399C611.858 82.4666 610.578 82.8292 609.042 83.1279C607.549 83.4692 605.906 83.6399 604.114 83.6399C602.023 83.6399 600.146 83.2986 598.482 82.6159C596.861 81.9332 595.559 80.7599 594.578 79.0959C593.639 77.3892 593.17 75.0426 593.17 72.0559V55.2239H588.626V51.1919L593.874 47.9919L596.626 40.6319H602.706V48.0559H612.498V55.2239H602.706V72.0559C602.706 73.3786 603.09 74.3812 603.858 75.0639C604.626 75.7039 605.629 76.0239 606.866 76.0239Z" fill="url(#paint12_linear_112_4062)" fill-opacity="0.7"/>
<path d="M574.058 83.6399C570.687 83.6399 567.722 83.0212 565.162 81.7839C562.645 80.5039 560.682 78.5412 559.274 75.8959C557.866 73.2079 557.162 69.8159 557.162 65.7199C557.162 61.4106 557.93 57.9119 559.466 55.2239C561.002 52.5359 563.093 50.5732 565.738 49.3359C568.383 48.0559 571.391 47.4159 574.762 47.4159C576.81 47.4159 578.73 47.6292 580.522 48.0559C582.357 48.4826 583.978 49.0586 585.386 49.7839L582.506 57.0799C581.226 56.5252 579.925 56.0772 578.602 55.7359C577.322 55.3519 576.042 55.1599 574.762 55.1599C573.098 55.1599 571.69 55.5439 570.538 56.3119C569.386 57.0799 568.511 58.2532 567.914 59.8319C567.317 61.3679 567.018 63.3092 567.018 65.6559C567.018 67.9599 567.317 69.8586 567.914 71.3519C568.511 72.8452 569.386 73.9759 570.538 74.7439C571.69 75.4692 573.055 75.8319 574.634 75.8319C576.469 75.8319 578.197 75.5972 579.818 75.1279C581.439 74.6159 582.975 73.9546 584.426 73.1439V81.0159C583.103 81.8266 581.61 82.4666 579.946 82.9359C578.282 83.4052 576.319 83.6399 574.058 83.6399Z" fill="url(#paint13_linear_112_4062)" fill-opacity="0.7"/>
<path d="M549.393 48.0559V82.9999H541.969L540.753 78.5199H540.177C539.452 79.7146 538.513 80.6959 537.361 81.4639C536.252 82.2319 535.014 82.7866 533.649 83.1279C532.326 83.4692 530.918 83.6399 529.425 83.6399C526.95 83.6399 524.774 83.1919 522.897 82.2959C521.062 81.3999 519.612 80.0132 518.545 78.1359C517.521 76.2586 517.009 73.8266 517.009 70.8399V48.0559H526.737V68.4079C526.737 70.8826 527.164 72.7599 528.017 74.0399C528.913 75.2772 530.321 75.8959 532.241 75.8959C534.204 75.8959 535.718 75.4692 536.785 74.6159C537.894 73.7199 538.662 72.4186 539.089 70.7119C539.516 69.0052 539.729 66.9146 539.729 64.4399V48.0559H549.393Z" fill="url(#paint14_linear_112_4062)" fill-opacity="0.7"/>
<path d="M488.22 83.6399C484.38 83.6399 481.222 82.1252 478.748 79.0959C476.316 76.0239 475.1 71.5226 475.1 65.5919C475.1 59.5759 476.337 55.0532 478.812 52.0239C481.286 48.9519 484.529 47.4159 488.54 47.4159C490.204 47.4159 491.633 47.6506 492.828 48.1199C494.065 48.5466 495.132 49.1439 496.028 49.9119C496.924 50.6799 497.692 51.5546 498.332 52.5359H498.652C498.524 51.7679 498.396 50.7012 498.268 49.3359C498.182 47.9279 498.14 46.6479 498.14 45.4959V34.3599H507.868V82.9999H500.444L498.524 78.4559H498.14C497.542 79.4372 496.796 80.3119 495.9 81.0799C495.004 81.8479 493.916 82.4666 492.636 82.9359C491.398 83.4052 489.926 83.6399 488.22 83.6399ZM491.612 75.8959C494.257 75.8959 496.113 75.1492 497.18 73.6559C498.246 72.1199 498.78 69.7946 498.78 66.6799V65.6559C498.78 62.2852 498.268 59.7039 497.244 57.9119C496.22 56.1199 494.321 55.2239 491.548 55.2239C489.457 55.2239 487.814 56.1199 486.62 57.9119C485.468 59.7039 484.892 62.3066 484.892 65.7199C484.892 69.1332 485.468 71.6932 486.62 73.3999C487.814 75.0639 489.478 75.8959 491.612 75.8959Z" fill="url(#paint15_linear_112_4062)" fill-opacity="0.7"/>
<path d="M454.067 47.4159C458.462 47.4159 461.811 48.4612 464.115 50.5519C466.419 52.5999 467.571 55.6506 467.571 59.7039V82.9999H460.851L458.995 78.2639H458.739C457.758 79.5012 456.734 80.5252 455.667 81.3359C454.643 82.1466 453.448 82.7226 452.083 83.0639C450.718 83.4479 449.054 83.6399 447.091 83.6399C445.043 83.6399 443.208 83.2559 441.587 82.4879C439.966 81.6772 438.686 80.4612 437.747 78.8399C436.808 77.2186 436.339 75.1706 436.339 72.6959C436.339 69.0266 437.662 66.2746 440.307 64.4399C442.952 62.6052 446.899 61.5812 452.147 61.3679L457.971 61.1759V60.0879C457.971 57.9972 457.502 56.5466 456.563 55.7359C455.624 54.8826 454.302 54.4559 452.595 54.4559C451.016 54.4559 449.395 54.7119 447.731 55.2239C446.067 55.7359 444.424 56.3546 442.803 57.0799L439.987 50.4879C441.822 49.5492 443.912 48.8026 446.259 48.2479C448.648 47.6932 451.251 47.4159 454.067 47.4159ZM454.323 66.9999C451.294 67.0852 449.182 67.5759 447.987 68.4719C446.792 69.3679 446.195 70.6266 446.195 72.2479C446.195 73.7412 446.6 74.8506 447.411 75.5759C448.264 76.2586 449.395 76.5999 450.803 76.5999C452.808 76.5999 454.494 76.0026 455.859 74.8079C457.267 73.6132 457.971 71.9066 457.971 69.6879V66.8079L454.323 66.9999Z" fill="url(#paint16_linear_112_4062)" fill-opacity="0.7"/>
<path d="M430.404 47.4159C431.044 47.4159 431.727 47.4586 432.452 47.5439C433.22 47.5866 433.817 47.6719 434.244 47.7999L433.284 56.8239C432.815 56.7386 432.26 56.6532 431.62 56.5679C430.98 56.4826 430.212 56.4399 429.316 56.4399C428.335 56.4399 427.332 56.5892 426.308 56.8879C425.327 57.1866 424.409 57.6772 423.556 58.3599C422.703 59.0426 422.02 59.9386 421.508 61.0479C420.996 62.1572 420.74 63.5652 420.74 65.2719V82.9999H411.076V48.0559H418.436L419.844 53.9439H420.292C420.975 52.7066 421.828 51.5972 422.852 50.6159C423.876 49.6346 425.028 48.8666 426.308 48.3119C427.588 47.7146 428.953 47.4159 430.404 47.4159Z" fill="url(#paint17_linear_112_4062)" fill-opacity="0.7"/>
<path d="M396.014 82.9999H386.222V45.4319H373.87V37.3039H408.366V45.4319H396.014V82.9999Z" fill="url(#paint18_linear_112_4062)" fill-opacity="0.7"/>
</g>
</g>
<path d="M273 72H1128V105C1128 111.627 1122.63 117 1116 117H285C278.373 117 273 111.627 273 105V72Z" fill="url(#paint19_linear_112_4062)"/>
<path d="M1025.13 60.6959C1025.13 62.9146 1024.59 64.8559 1023.53 66.5199C1022.5 68.1412 1020.92 69.3999 1018.79 70.2959C1016.66 71.1919 1013.95 71.6399 1010.66 71.6399C1008.19 71.6399 1006.01 71.4692 1004.14 71.1279C1002.26 70.8292 1000.44 70.3172 998.696 69.5919V61.5919C1000.57 62.4879 1002.6 63.1919 1004.78 63.7039C1006.95 64.2159 1008.83 64.4719 1010.41 64.4719C1012.37 64.4719 1013.78 64.1946 1014.63 63.6399C1015.53 63.0852 1015.98 62.3386 1015.98 61.3999C1015.98 60.7599 1015.74 60.1839 1015.27 59.6719C1014.84 59.1599 1014.06 58.6266 1012.9 58.0719C1011.79 57.5172 1010.19 56.8346 1008.1 56.0239C1006.01 55.1706 1004.26 54.2959 1002.86 53.3999C1001.45 52.4612 1000.38 51.3519 999.656 50.0719C998.973 48.7919 998.632 47.1919 998.632 45.2719C998.632 42.0719 999.89 39.6399 1002.41 37.9759C1004.97 36.2692 1008.34 35.4159 1012.52 35.4159C1014.78 35.4159 1016.87 35.6506 1018.79 36.1199C1020.75 36.5892 1022.74 37.2506 1024.74 38.1039L1021.93 44.6959C1020.31 43.9706 1018.64 43.3732 1016.94 42.9039C1015.23 42.4346 1013.71 42.1999 1012.39 42.1999C1010.94 42.1999 1009.81 42.4346 1009 42.9039C1008.19 43.3306 1007.78 43.9492 1007.78 44.7599C1007.78 45.3572 1008 45.8906 1008.42 46.3599C1008.89 46.8292 1009.68 47.3199 1010.79 47.8319C1011.94 48.3439 1013.54 49.0052 1015.59 49.8159C1017.68 50.6266 1019.43 51.5012 1020.84 52.4399C1022.29 53.3359 1023.36 54.4452 1024.04 55.7679C1024.76 57.0479 1025.13 58.6906 1025.13 60.6959Z" fill="url(#paint20_linear_112_4062)"/>
<path d="M977.084 35.4159C980.327 35.4159 983.121 36.0346 985.468 37.2719C987.815 38.4666 989.607 40.2586 990.844 42.6479C992.124 44.9946 992.764 47.8746 992.764 51.2879V55.9599H970.3C970.385 58.6052 971.196 60.6959 972.732 62.2319C974.268 63.7252 976.465 64.4719 979.324 64.4719C981.5 64.4719 983.484 64.2586 985.276 63.8319C987.068 63.4052 988.903 62.7652 990.78 61.9119V69.1439C989.073 69.9972 987.26 70.6159 985.34 70.9999C983.463 71.4266 981.116 71.6399 978.3 71.6399C974.844 71.6399 971.772 70.9999 969.084 69.7199C966.439 68.4399 964.348 66.4772 962.812 63.8319C961.276 61.1439 960.508 57.7946 960.508 53.7839C960.508 49.6879 961.191 46.2959 962.556 43.6079C963.964 40.8772 965.905 38.8292 968.38 37.4639C970.897 36.0986 973.799 35.4159 977.084 35.4159ZM977.34 42.2639C975.42 42.2639 973.863 42.8826 972.668 44.1199C971.473 45.3146 970.769 47.1066 970.556 49.4959H983.74C983.74 48.0879 983.505 46.8506 983.036 45.7839C982.567 44.7172 981.841 43.8639 980.86 43.2239C979.921 42.5839 978.748 42.2639 977.34 42.2639Z" fill="url(#paint21_linear_112_4062)"/>
<path d="M949.462 64.0239C950.529 64.0239 951.553 63.9172 952.534 63.7039C953.515 63.4906 954.497 63.2346 955.478 62.9359V70.0399C954.454 70.4666 953.174 70.8292 951.638 71.1279C950.145 71.4692 948.502 71.6399 946.71 71.6399C944.619 71.6399 942.742 71.2986 941.078 70.6159C939.457 69.9332 938.155 68.7599 937.174 67.0959C936.235 65.3892 935.766 63.0426 935.766 60.0559V43.2239H931.222V39.1919L936.47 35.9919L939.222 28.6319H945.302V36.0559H955.094V43.2239H945.302V60.0559C945.302 61.3786 945.686 62.3812 946.454 63.0639C947.222 63.7039 948.225 64.0239 949.462 64.0239Z" fill="url(#paint22_linear_112_4062)"/>
<path d="M904.91 53.1439L893.646 36.0559H904.462L911.246 47.1919L918.094 36.0559H928.91L917.518 53.1439L929.422 70.9999H918.606L911.246 59.0319L903.886 70.9999H893.07L904.91 53.1439Z" fill="url(#paint23_linear_112_4062)"/>
<path d="M875.397 35.4159C878.639 35.4159 881.434 36.0346 883.781 37.2719C886.127 38.4666 887.919 40.2586 889.157 42.6479C890.437 44.9946 891.077 47.8746 891.077 51.2879V55.9599H868.613C868.698 58.6052 869.509 60.6959 871.045 62.2319C872.581 63.7252 874.778 64.4719 877.637 64.4719C879.813 64.4719 881.797 64.2586 883.589 63.8319C885.381 63.4052 887.215 62.7652 889.093 61.9119V69.1439C887.386 69.9972 885.573 70.6159 883.653 70.9999C881.775 71.4266 879.429 71.6399 876.613 71.6399C873.157 71.6399 870.085 70.9999 867.397 69.7199C864.751 68.4399 862.661 66.4772 861.125 63.8319C859.589 61.1439 858.821 57.7946 858.821 53.7839C858.821 49.6879 859.503 46.2959 860.869 43.6079C862.277 40.8772 864.218 38.8292 866.693 37.4639C869.21 36.0986 872.111 35.4159 875.397 35.4159ZM875.653 42.2639C873.733 42.2639 872.175 42.8826 870.981 44.1199C869.786 45.3146 869.082 47.1066 868.869 49.4959H882.053C882.053 48.0879 881.818 46.8506 881.349 45.7839C880.879 44.7172 880.154 43.8639 879.173 43.2239C878.234 42.5839 877.061 42.2639 875.653 42.2639Z" fill="url(#paint24_linear_112_4062)"/>
<path d="M847.775 64.0239C848.841 64.0239 849.865 63.9172 850.847 63.7039C851.828 63.4906 852.809 63.2346 853.791 62.9359V70.0399C852.767 70.4666 851.487 70.8292 849.951 71.1279C848.457 71.4692 846.815 71.6399 845.023 71.6399C842.932 71.6399 841.055 71.2986 839.391 70.6159C837.769 69.9332 836.468 68.7599 835.487 67.0959C834.548 65.3892 834.079 63.0426 834.079 60.0559V43.2239H829.535V39.1919L834.783 35.9919L837.535 28.6319H843.615V36.0559H853.407V43.2239H843.615V60.0559C843.615 61.3786 843.999 62.3812 844.767 63.0639C845.535 63.7039 846.537 64.0239 847.775 64.0239Z" fill="url(#paint25_linear_112_4062)"/>
<path d="M792.834 35.4159C796.077 35.4159 798.871 36.0346 801.218 37.2719C803.565 38.4666 805.357 40.2586 806.594 42.6479C807.874 44.9946 808.514 47.8746 808.514 51.2879V55.9599H786.05C786.135 58.6052 786.946 60.6959 788.482 62.2319C790.018 63.7252 792.215 64.4719 795.074 64.4719C797.25 64.4719 799.234 64.2586 801.026 63.8319C802.818 63.4052 804.653 62.7652 806.53 61.9119V69.1439C804.823 69.9972 803.01 70.6159 801.09 70.9999C799.213 71.4266 796.866 71.6399 794.05 71.6399C790.594 71.6399 787.522 70.9999 784.834 69.7199C782.189 68.4399 780.098 66.4772 778.562 63.8319C777.026 61.1439 776.258 57.7946 776.258 53.7839C776.258 49.6879 776.941 46.2959 778.306 43.6079C779.714 40.8772 781.655 38.8292 784.13 37.4639C786.647 36.0986 789.549 35.4159 792.834 35.4159ZM793.09 42.2639C791.17 42.2639 789.613 42.8826 788.418 44.1199C787.223 45.3146 786.519 47.1066 786.306 49.4959H799.49C799.49 48.0879 799.255 46.8506 798.786 45.7839C798.317 44.7172 797.591 43.8639 796.61 43.2239C795.671 42.5839 794.498 42.2639 793.09 42.2639Z" fill="url(#paint26_linear_112_4062)"/>
<path d="M748.941 71.6399C745.101 71.6399 741.943 70.1252 739.469 67.0959C737.037 64.0239 735.821 59.5226 735.821 53.5919C735.821 47.5759 737.058 43.0532 739.533 40.0239C742.007 36.9519 745.25 35.4159 749.261 35.4159C750.925 35.4159 752.354 35.6506 753.549 36.1199C754.786 36.5466 755.853 37.1439 756.749 37.9119C757.645 38.6799 758.413 39.5546 759.053 40.5359H759.373C759.245 39.7679 759.117 38.7012 758.989 37.3359C758.903 35.9279 758.861 34.6479 758.861 33.4959V22.3599H768.589V70.9999H761.165L759.245 66.4559H758.861C758.263 67.4372 757.517 68.3119 756.621 69.0799C755.725 69.8479 754.637 70.4666 753.357 70.9359C752.119 71.4052 750.647 71.6399 748.941 71.6399ZM752.333 63.8959C754.978 63.8959 756.834 63.1492 757.901 61.6559C758.967 60.1199 759.501 57.7946 759.501 54.6799V53.6559C759.501 50.2852 758.989 47.7039 757.965 45.9119C756.941 44.1199 755.042 43.2239 752.269 43.2239C750.178 43.2239 748.535 44.1199 747.341 45.9119C746.189 47.7039 745.613 50.3066 745.613 53.7199C745.613 57.1332 746.189 59.6932 747.341 61.3999C748.535 63.0639 750.199 63.8959 752.333 63.8959Z" fill="url(#paint27_linear_112_4062)"/>
<path d="M699.203 35.4159C703.043 35.4159 706.072 36.4186 708.291 38.4239C710.509 40.4292 711.619 43.6932 711.619 48.2159V70.9999H702.019V50.6479C702.019 48.1306 701.549 46.2532 700.611 45.0159C699.715 43.7359 698.307 43.0959 696.387 43.0959C693.485 43.0959 691.501 44.0986 690.435 46.1039C689.411 48.0666 688.899 50.9039 688.899 54.6159V70.9999H679.235V36.0559H686.659L688.003 40.7279H688.387C689.155 39.5759 690.072 38.6159 691.139 37.8479C692.248 37.0372 693.464 36.4399 694.787 36.0559C696.152 35.6292 697.624 35.4159 699.203 35.4159Z" fill="url(#paint28_linear_112_4062)"/>
<path d="M671.491 53.4639C671.491 56.3652 671.085 58.9466 670.275 61.2079C669.507 63.4692 668.376 65.3679 666.883 66.9039C665.432 68.4399 663.661 69.6132 661.571 70.4239C659.48 71.2346 657.112 71.6399 654.467 71.6399C651.992 71.6399 649.731 71.2346 647.683 70.4239C645.635 69.6132 643.864 68.4399 642.371 66.9039C640.877 65.3679 639.704 63.4692 638.851 61.2079C637.997 58.9466 637.571 56.3652 637.571 53.4639C637.571 49.5812 638.253 46.2959 639.619 43.6079C640.984 40.9199 642.947 38.8932 645.507 37.5279C648.067 36.1199 651.117 35.4159 654.659 35.4159C657.944 35.4159 660.845 36.1199 663.363 37.5279C665.88 38.8932 667.864 40.9199 669.315 43.6079C670.765 46.2959 671.491 49.5812 671.491 53.4639ZM647.427 53.4639C647.427 55.7252 647.661 57.6666 648.131 59.2879C648.643 60.9092 649.411 62.1466 650.435 62.9999C651.501 63.8532 652.888 64.2799 654.595 64.2799C656.259 64.2799 657.603 63.8532 658.627 62.9999C659.693 62.1466 660.461 60.9092 660.931 59.2879C661.4 57.6666 661.635 55.7252 661.635 53.4639C661.635 51.1599 661.379 49.2186 660.867 47.6399C660.397 46.0612 659.651 44.8666 658.627 44.0559C657.603 43.2026 656.237 42.7759 654.531 42.7759C652.056 42.7759 650.243 43.6932 649.091 45.5279C647.981 47.3626 647.427 50.0079 647.427 53.4639Z" fill="url(#paint29_linear_112_4062)"/>
<path d="M629.838 36.0559V70.9999H620.174V36.0559H629.838ZM625.038 22.2959C626.446 22.2959 627.662 22.6372 628.686 23.3199C629.752 23.9599 630.286 25.1972 630.286 27.0319C630.286 28.7812 629.752 29.9972 628.686 30.6799C627.662 31.3626 626.446 31.7039 625.038 31.7039C623.587 31.7039 622.35 31.3626 621.326 30.6799C620.302 29.9972 619.79 28.7812 619.79 27.0319C619.79 25.1972 620.302 23.9599 621.326 23.3199C622.35 22.6372 623.587 22.2959 625.038 22.2959Z" fill="url(#paint30_linear_112_4062)"/>
<path d="M607.4 64.0239C608.466 64.0239 609.49 63.9172 610.472 63.7039C611.453 63.4906 612.434 63.2346 613.416 62.9359V70.0399C612.392 70.4666 611.112 70.8292 609.576 71.1279C608.082 71.4692 606.44 71.6399 604.648 71.6399C602.557 71.6399 600.68 71.2986 599.016 70.6159C597.394 69.9332 596.093 68.7599 595.112 67.0959C594.173 65.3892 593.704 63.0426 593.704 60.0559V43.2239H589.16V39.1919L594.408 35.9919L597.16 28.6319H603.24V36.0559H613.032V43.2239H603.24V60.0559C603.24 61.3786 603.624 62.3812 604.392 63.0639C605.16 63.7039 606.162 64.0239 607.4 64.0239Z" fill="url(#paint31_linear_112_4062)"/>
<path d="M574.592 71.6399C571.221 71.6399 568.256 71.0212 565.696 69.7839C563.178 68.5039 561.216 66.5412 559.808 63.8959C558.4 61.2079 557.696 57.8159 557.696 53.7199C557.696 49.4106 558.464 45.9119 560 43.2239C561.536 40.5359 563.626 38.5732 566.272 37.3359C568.917 36.0559 571.925 35.4159 575.296 35.4159C577.344 35.4159 579.264 35.6292 581.056 36.0559C582.89 36.4826 584.512 37.0586 585.92 37.7839L583.04 45.0799C581.76 44.5252 580.458 44.0772 579.136 43.7359C577.856 43.3519 576.576 43.1599 575.296 43.1599C573.632 43.1599 572.224 43.5439 571.072 44.3119C569.92 45.0799 569.045 46.2532 568.448 47.8319C567.85 49.3679 567.552 51.3092 567.552 53.6559C567.552 55.9599 567.85 57.8586 568.448 59.3519C569.045 60.8452 569.92 61.9759 571.072 62.7439C572.224 63.4692 573.589 63.8319 575.168 63.8319C577.002 63.8319 578.73 63.5972 580.352 63.1279C581.973 62.6159 583.509 61.9546 584.96 61.1439V69.0159C583.637 69.8266 582.144 70.4666 580.48 70.9359C578.816 71.4052 576.853 71.6399 574.592 71.6399Z" fill="url(#paint32_linear_112_4062)"/>
<path d="M549.927 36.0559V70.9999H542.503L541.287 66.5199H540.711C539.985 67.7146 539.047 68.6959 537.895 69.4639C536.785 70.2319 535.548 70.7866 534.183 71.1279C532.86 71.4692 531.452 71.6399 529.959 71.6399C527.484 71.6399 525.308 71.1919 523.431 70.2959C521.596 69.3999 520.145 68.0132 519.079 66.1359C518.055 64.2586 517.543 61.8266 517.543 58.8399V36.0559H527.271V56.4079C527.271 58.8826 527.697 60.7599 528.551 62.0399C529.447 63.2772 530.855 63.8959 532.775 63.8959C534.737 63.8959 536.252 63.4692 537.319 62.6159C538.428 61.7199 539.196 60.4186 539.623 58.7119C540.049 57.0052 540.263 54.9146 540.263 52.4399V36.0559H549.927Z" fill="url(#paint33_linear_112_4062)"/>
<path d="M488.753 71.6399C484.913 71.6399 481.756 70.1252 479.281 67.0959C476.849 64.0239 475.633 59.5226 475.633 53.5919C475.633 47.5759 476.87 43.0532 479.345 40.0239C481.82 36.9519 485.062 35.4159 489.073 35.4159C490.737 35.4159 492.166 35.6506 493.361 36.1199C494.598 36.5466 495.665 37.1439 496.561 37.9119C497.457 38.6799 498.225 39.5546 498.865 40.5359H499.185C499.057 39.7679 498.929 38.7012 498.801 37.3359C498.716 35.9279 498.673 34.6479 498.673 33.4959V22.3599H508.401V70.9999H500.977L499.057 66.4559H498.673C498.076 67.4372 497.329 68.3119 496.433 69.0799C495.537 69.8479 494.449 70.4666 493.169 70.9359C491.932 71.4052 490.46 71.6399 488.753 71.6399ZM492.145 63.8959C494.79 63.8959 496.646 63.1492 497.713 61.6559C498.78 60.1199 499.313 57.7946 499.313 54.6799V53.6559C499.313 50.2852 498.801 47.7039 497.777 45.9119C496.753 44.1199 494.854 43.2239 492.081 43.2239C489.99 43.2239 488.348 44.1199 487.153 45.9119C486.001 47.7039 485.425 50.3066 485.425 53.7199C485.425 57.1332 486.001 59.6932 487.153 61.3999C488.348 63.0639 490.012 63.8959 492.145 63.8959Z" fill="url(#paint34_linear_112_4062)"/>
<path d="M454.601 35.4159C458.995 35.4159 462.345 36.4612 464.649 38.5519C466.953 40.5999 468.105 43.6506 468.105 47.7039V70.9999H461.385L459.529 66.2639H459.273C458.291 67.5012 457.267 68.5252 456.201 69.3359C455.177 70.1466 453.982 70.7226 452.617 71.0639C451.251 71.4479 449.587 71.6399 447.625 71.6399C445.577 71.6399 443.742 71.2559 442.121 70.4879C440.499 69.6772 439.219 68.4612 438.281 66.8399C437.342 65.2186 436.873 63.1706 436.873 60.6959C436.873 57.0266 438.195 54.2746 440.841 52.4399C443.486 50.6052 447.433 49.5812 452.681 49.3679L458.505 49.1759V48.0879C458.505 45.9972 458.035 44.5466 457.097 43.7359C456.158 42.8826 454.835 42.4559 453.129 42.4559C451.55 42.4559 449.929 42.7119 448.265 43.2239C446.601 43.7359 444.958 44.3546 443.337 45.0799L440.521 38.4879C442.355 37.5492 444.446 36.8026 446.793 36.2479C449.182 35.6932 451.785 35.4159 454.601 35.4159ZM454.857 54.9999C451.827 55.0852 449.715 55.5759 448.521 56.4719C447.326 57.3679 446.729 58.6266 446.729 60.2479C446.729 61.7412 447.134 62.8506 447.945 63.5759C448.798 64.2586 449.929 64.5999 451.337 64.5999C453.342 64.5999 455.027 64.0026 456.393 62.8079C457.801 61.6132 458.505 59.9066 458.505 57.6879V54.8079L454.857 54.9999Z" fill="url(#paint35_linear_112_4062)"/>
<path d="M430.938 35.4159C431.578 35.4159 432.26 35.4586 432.986 35.5439C433.754 35.5866 434.351 35.6719 434.778 35.7999L433.818 44.8239C433.348 44.7386 432.794 44.6532 432.154 44.5679C431.514 44.4826 430.746 44.4399 429.85 44.4399C428.868 44.4399 427.866 44.5892 426.842 44.8879C425.86 45.1866 424.943 45.6772 424.09 46.3599C423.236 47.0426 422.554 47.9386 422.042 49.0479C421.53 50.1572 421.274 51.5652 421.274 53.2719V70.9999H411.61V36.0559H418.97L420.378 41.9439H420.826C421.508 40.7066 422.362 39.5972 423.386 38.6159C424.41 37.6346 425.562 36.8666 426.842 36.3119C428.122 35.7146 429.487 35.4159 430.938 35.4159Z" fill="url(#paint36_linear_112_4062)"/>
<path d="M396.548 70.9999H386.756V33.4319H374.404V25.3039H408.9V33.4319H396.548V70.9999Z" fill="url(#paint37_linear_112_4062)"/>
<defs>
<filter id="filter0_f_112_4062" x="353.87" y="14.2959" width="690.724" height="89.3442" filterUnits="userSpaceOnUse" color-interpolation-filters="sRGB">
<feFlood flood-opacity="0" result="BackgroundImageFix"/>
<feBlend mode="normal" in="SourceGraphic" in2="BackgroundImageFix" result="shape"/>
<feGaussianBlur stdDeviation="10" result="effect1_foregroundBlur_112_4062"/>
</filter>
<linearGradient id="paint0_linear_112_4062" x1="273" y1="64.0036" x2="1128" y2="64.0028" gradientUnits="userSpaceOnUse">
<stop stop-color="white" stop-opacity="0.3"/>
<stop offset="0.359008" stop-color="#CBB0F8"/>
<stop offset="0.788712" stop-color="#FCD9ED"/>
<stop offset="1" stop-color="white" stop-opacity="0.3"/>
</linearGradient>
<linearGradient id="paint1_linear_112_4062" x1="1095.14" y1="49.3944" x2="-14991.2" y2="49.4306" gradientUnits="userSpaceOnUse">
<stop stop-color="#F4439F"/>
<stop offset="1" stop-color="#7C3AED"/>
</linearGradient>
<linearGradient id="paint2_linear_112_4062" x1="1735.44" y1="49.3944" x2="-11478.4" y2="49.4188" gradientUnits="userSpaceOnUse">
<stop stop-color="#F4439F"/>
<stop offset="1" stop-color="#7C3AED"/>
</linearGradient>
<linearGradient id="paint3_linear_112_4062" x1="2970.16" y1="54.7962" x2="-14601.7" y2="54.8475" gradientUnits="userSpaceOnUse">
<stop stop-color="#F4439F"/>
<stop offset="1" stop-color="#7C3AED"/>
</linearGradient>
<linearGradient id="paint4_linear_112_4062" x1="2789.2" y1="49.0437" x2="-8935.72" y2="49.0623" gradientUnits="userSpaceOnUse">
<stop stop-color="#F4439F"/>
<stop offset="1" stop-color="#7C3AED"/>
</linearGradient>
<linearGradient id="paint5_linear_112_4062" x1="3786.85" y1="49.3944" x2="-9426.95" y2="49.4188" gradientUnits="userSpaceOnUse">
<stop stop-color="#F4439F"/>
<stop offset="1" stop-color="#7C3AED"/>
</linearGradient>
<linearGradient id="paint6_linear_112_4062" x1="5698.17" y1="54.7962" x2="-11873.7" y2="54.8475" gradientUnits="userSpaceOnUse">
<stop stop-color="#F4439F"/>
<stop offset="1" stop-color="#7C3AED"/>
</linearGradient>
<linearGradient id="paint7_linear_112_4062" x1="5452.44" y1="49.3944" x2="-7761.35" y2="49.4188" gradientUnits="userSpaceOnUse">
<stop stop-color="#F4439F"/>
<stop offset="1" stop-color="#7C3AED"/>
</linearGradient>
<linearGradient id="paint8_linear_112_4062" x1="6176.12" y1="58.4672" x2="-6831.21" y2="58.4994" gradientUnits="userSpaceOnUse">
<stop stop-color="#F4439F"/>
<stop offset="1" stop-color="#7C3AED"/>
</linearGradient>
<linearGradient id="paint9_linear_112_4062" x1="7381.96" y1="49.666" x2="-5779.6" y2="49.6898" gradientUnits="userSpaceOnUse">
<stop stop-color="#F4439F"/>
<stop offset="1" stop-color="#7C3AED"/>
</linearGradient>
<linearGradient id="paint10_linear_112_4062" x1="7863.9" y1="49.3945" x2="-4701.67" y2="49.4165" gradientUnits="userSpaceOnUse">
<stop stop-color="#F4439F"/>
<stop offset="1" stop-color="#7C3AED"/>
</linearGradient>
<linearGradient id="paint11_linear_112_4062" x1="25681.9" y1="58.818" x2="-14926.4" y2="59.1277" gradientUnits="userSpaceOnUse">
<stop stop-color="#F4439F"/>
<stop offset="1" stop-color="#7C3AED"/>
</linearGradient>
<linearGradient id="paint12_linear_112_4062" x1="12146.8" y1="54.7962" x2="-5425.11" y2="54.8475" gradientUnits="userSpaceOnUse">
<stop stop-color="#F4439F"/>
<stop offset="1" stop-color="#7C3AED"/>
</linearGradient>
<linearGradient id="paint13_linear_112_4062" x1="11217.1" y1="49.3945" x2="-3884.41" y2="49.4263" gradientUnits="userSpaceOnUse">
<stop stop-color="#F4439F"/>
<stop offset="1" stop-color="#7C3AED"/>
</linearGradient>
<linearGradient id="paint14_linear_112_4062" x1="10631" y1="48.7785" x2="-2530.57" y2="48.8023" gradientUnits="userSpaceOnUse">
<stop stop-color="#F4439F"/>
<stop offset="1" stop-color="#7C3AED"/>
</linearGradient>
<linearGradient id="paint15_linear_112_4062" x1="11343.1" y1="58.4672" x2="-1664.27" y2="58.4994" gradientUnits="userSpaceOnUse">
<stop stop-color="#F4439F"/>
<stop offset="1" stop-color="#7C3AED"/>
</linearGradient>
<linearGradient id="paint16_linear_112_4062" x1="12690.1" y1="49.3945" x2="-956.924" y2="49.4205" gradientUnits="userSpaceOnUse">
<stop stop-color="#F4439F"/>
<stop offset="1" stop-color="#7C3AED"/>
</linearGradient>
<linearGradient id="paint17_linear_112_4062" x1="17686.5" y1="49.666" x2="-710.562" y2="49.7125" gradientUnits="userSpaceOnUse">
<stop stop-color="#F4439F"/>
<stop offset="1" stop-color="#7C3AED"/>
</linearGradient>
<linearGradient id="paint18_linear_112_4062" x1="1027.47" y1="58.4997" x2="372.467" y2="58.4998" gradientUnits="userSpaceOnUse">
<stop stop-color="#F4439F"/>
<stop offset="1" stop-color="#7C3AED"/>
</linearGradient>
<linearGradient id="paint19_linear_112_4062" x1="700.5" y1="72" x2="700.5" y2="117" gradientUnits="userSpaceOnUse">
<stop offset="0.0001" stop-color="white" stop-opacity="0.1"/>
<stop offset="1" stop-color="white" stop-opacity="0"/>
</linearGradient>
<linearGradient id="paint20_linear_112_4062" x1="1095.67" y1="-21.8609" x2="916.963" y2="1710.42" gradientUnits="userSpaceOnUse">
<stop stop-color="#F4439F"/>
<stop offset="1" stop-color="#7C3AED"/>
</linearGradient>
<linearGradient id="paint21_linear_112_4062" x1="1735.97" y1="-21.8609" x2="1519.51" y2="1701.67" gradientUnits="userSpaceOnUse">
<stop stop-color="#F4439F"/>
<stop offset="1" stop-color="#7C3AED"/>
</linearGradient>
<linearGradient id="paint22_linear_112_4062" x1="2970.7" y1="-7.11225" x2="2854.14" y2="1458.18" gradientUnits="userSpaceOnUse">
<stop stop-color="#F4439F"/>
<stop offset="1" stop-color="#7C3AED"/>
</linearGradient>
<linearGradient id="paint23_linear_112_4062" x1="2789.74" y1="-24.3821" x2="2529.07" y2="1752.22" gradientUnits="userSpaceOnUse">
<stop stop-color="#F4439F"/>
<stop offset="1" stop-color="#7C3AED"/>
</linearGradient>
<linearGradient id="paint24_linear_112_4062" x1="3787.39" y1="-21.8609" x2="3570.93" y2="1701.67" gradientUnits="userSpaceOnUse">
<stop stop-color="#F4439F"/>
<stop offset="1" stop-color="#7C3AED"/>
</linearGradient>
<linearGradient id="paint25_linear_112_4062" x1="5698.7" y1="-7.11224" x2="5582.14" y2="1458.18" gradientUnits="userSpaceOnUse">
<stop stop-color="#F4439F"/>
<stop offset="1" stop-color="#7C3AED"/>
</linearGradient>
<linearGradient id="paint26_linear_112_4062" x1="5452.98" y1="-21.8609" x2="5236.52" y2="1701.67" gradientUnits="userSpaceOnUse">
<stop stop-color="#F4439F"/>
<stop offset="1" stop-color="#7C3AED"/>
</linearGradient>
<linearGradient id="paint27_linear_112_4062" x1="6176.66" y1="2.91074" x2="6057.02" y2="1278.58" gradientUnits="userSpaceOnUse">
<stop stop-color="#F4439F"/>
<stop offset="1" stop-color="#7C3AED"/>
</linearGradient>
<linearGradient id="paint28_linear_112_4062" x1="7382.5" y1="-22.6551" x2="7157.44" y2="1730.66" gradientUnits="userSpaceOnUse">
<stop stop-color="#F4439F"/>
<stop offset="1" stop-color="#7C3AED"/>
</linearGradient>
<linearGradient id="paint29_linear_112_4062" x1="7864.43" y1="-21.8609" x2="7637.18" y2="1698.84" gradientUnits="userSpaceOnUse">
<stop stop-color="#F4439F"/>
<stop offset="1" stop-color="#7C3AED"/>
</linearGradient>
<linearGradient id="paint30_linear_112_4062" x1="25682.4" y1="2.74632" x2="25642.9" y2="1303.65" gradientUnits="userSpaceOnUse">
<stop stop-color="#F4439F"/>
<stop offset="1" stop-color="#7C3AED"/>
</linearGradient>
<linearGradient id="paint31_linear_112_4062" x1="12147.3" y1="-7.11223" x2="12030.8" y2="1458.18" gradientUnits="userSpaceOnUse">
<stop stop-color="#F4439F"/>
<stop offset="1" stop-color="#7C3AED"/>
</linearGradient>
<linearGradient id="paint32_linear_112_4062" x1="11217.6" y1="-21.8609" x2="11027.5" y2="1707.96" gradientUnits="userSpaceOnUse">
<stop stop-color="#F4439F"/>
<stop offset="1" stop-color="#7C3AED"/>
</linearGradient>
<linearGradient id="paint33_linear_112_4062" x1="10631.5" y1="-23.5426" x2="10406.5" y2="1729.77" gradientUnits="userSpaceOnUse">
<stop stop-color="#F4439F"/>
<stop offset="1" stop-color="#7C3AED"/>
</linearGradient>
<linearGradient id="paint34_linear_112_4062" x1="11343.6" y1="2.91077" x2="11224" y2="1278.58" gradientUnits="userSpaceOnUse">
<stop stop-color="#F4439F"/>
<stop offset="1" stop-color="#7C3AED"/>
</linearGradient>
<linearGradient id="paint35_linear_112_4062" x1="12690.6" y1="-21.8609" x2="12480.9" y2="1703.34" gradientUnits="userSpaceOnUse">
<stop stop-color="#F4439F"/>
<stop offset="1" stop-color="#7C3AED"/>
</linearGradient>
<linearGradient id="paint36_linear_112_4062" x1="17687.1" y1="-22.6551" x2="17524.8" y2="1744.65" gradientUnits="userSpaceOnUse">
<stop stop-color="#F4439F"/>
<stop offset="1" stop-color="#7C3AED"/>
</linearGradient>
<linearGradient id="paint37_linear_112_4062" x1="1028" y1="2.9997" x2="491.962" y2="291.192" gradientUnits="userSpaceOnUse">
<stop stop-color="#F4439F"/>
<stop offset="1" stop-color="#7C3AED"/>
</linearGradient>
</defs>
</svg>
