<svg width="1400" height="120" viewBox="0 0 1400 120" fill="none" xmlns="http://www.w3.org/2000/svg">
<path d="M202 56H1197V72H202V56Z" fill="url(#paint0_linear_112_3950)"/>
<mask id="mask0_112_3950" style="mask-type:alpha" maskUnits="userSpaceOnUse" x="202" y="72" width="995" height="45">
<path d="M202 72H1197V117H202V72Z" fill="#C4C4C4"/>
</mask>
<g mask="url(#mask0_112_3950)">
<g filter="url(#filter0_f_112_3950)">
<path d="M1070.62 45.6879C1070.62 47.0106 1070.57 48.2692 1070.49 49.4639C1070.45 50.6586 1070.36 51.7039 1070.23 52.5999H1070.62C1071.56 51.1492 1072.81 49.9332 1074.39 48.9519C1075.97 47.9279 1078.02 47.4159 1080.54 47.4159C1084.42 47.4159 1087.58 48.9519 1090.01 52.0239C1092.44 55.0532 1093.66 59.5332 1093.66 65.4639C1093.66 69.4319 1093.1 72.7812 1091.99 75.5119C1090.88 78.1999 1089.31 80.2266 1087.26 81.5919C1085.25 82.9572 1082.93 83.6399 1080.28 83.6399C1077.72 83.6399 1075.69 83.1919 1074.2 82.2959C1072.75 81.3572 1071.56 80.3332 1070.62 79.2239H1069.98L1068.38 82.9999H1060.95V34.3599H1070.62V45.6879ZM1077.4 55.0959C1075.78 55.0959 1074.46 55.4372 1073.43 56.1199C1072.45 56.8026 1071.73 57.8479 1071.26 59.2559C1070.83 60.6212 1070.62 62.4132 1070.62 64.6319V65.7839C1070.62 69.0692 1071.11 71.5652 1072.09 73.2719C1073.11 74.9786 1074.93 75.8319 1077.53 75.8319C1079.62 75.8319 1081.2 74.9359 1082.27 73.1439C1083.33 71.3519 1083.87 68.7492 1083.87 65.3359C1083.87 61.9652 1083.33 59.4266 1082.27 57.7199C1081.24 55.9706 1079.62 55.0959 1077.4 55.0959Z" fill="url(#paint1_linear_112_3950)" fill-opacity="0.7"/>
<path d="M1037.68 47.4159C1040.92 47.4159 1043.72 48.0346 1046.06 49.2719C1048.41 50.4666 1050.2 52.2586 1051.44 54.6479C1052.72 56.9946 1053.36 59.8746 1053.36 63.2879V67.9599H1030.89C1030.98 70.6052 1031.79 72.6959 1033.33 74.2319C1034.86 75.7252 1037.06 76.4719 1039.92 76.4719C1042.09 76.4719 1044.08 76.2586 1045.87 75.8319C1047.66 75.4052 1049.5 74.7652 1051.37 73.9119V81.1439C1049.67 81.9972 1047.85 82.6159 1045.93 82.9999C1044.06 83.4266 1041.71 83.6399 1038.89 83.6399C1035.44 83.6399 1032.37 82.9999 1029.68 81.7199C1027.03 80.4399 1024.94 78.4772 1023.41 75.8319C1021.87 73.1439 1021.1 69.7946 1021.1 65.7839C1021.1 61.6879 1021.78 58.2959 1023.15 55.6079C1024.56 52.8772 1026.5 50.8292 1028.97 49.4639C1031.49 48.0986 1034.39 47.4159 1037.68 47.4159ZM1037.93 54.2639C1036.01 54.2639 1034.46 54.8826 1033.26 56.1199C1032.07 57.3146 1031.36 59.1066 1031.15 61.4959H1044.33C1044.33 60.0879 1044.1 58.8506 1043.63 57.7839C1043.16 56.7172 1042.44 55.8639 1041.45 55.2239C1040.52 54.5839 1039.34 54.2639 1037.93 54.2639Z" fill="url(#paint2_linear_112_3950)" fill-opacity="0.7"/>
<path d="M994.321 70.7759C994.151 70.0506 993.895 68.9839 993.553 67.5759C993.255 66.1252 992.913 64.5892 992.529 62.9679C992.145 61.3039 991.783 59.7892 991.441 58.4239C991.1 57.0159 990.865 55.9919 990.737 55.3519H990.481C990.353 55.9919 990.119 57.0159 989.777 58.4239C989.479 59.7892 989.137 61.3039 988.753 62.9679C988.369 64.5892 988.007 66.1252 987.665 67.5759C987.324 69.0266 987.068 70.1359 986.897 70.9039L984.081 82.9999H973.841L963.921 48.0559H973.393L977.425 63.5439C977.724 64.6106 977.98 65.8906 978.193 67.3839C978.449 68.8772 978.684 70.3279 978.897 71.7359C979.111 73.1012 979.26 74.1892 979.345 74.9999H979.601C979.644 74.4026 979.729 73.6132 979.857 72.6319C979.985 71.6079 980.135 70.5626 980.305 69.4959C980.519 68.4292 980.689 67.4692 980.817 66.6159C980.988 65.7199 981.116 65.1226 981.201 64.8239L985.489 48.0559H995.985L1000.08 64.8239C1000.25 65.4212 1000.44 66.3812 1000.66 67.7039C1000.91 69.0266 1001.13 70.3706 1001.3 71.7359C1001.51 73.1012 1001.62 74.1892 1001.62 74.9999H1001.87C1001.96 74.2746 1002.11 73.2292 1002.32 71.8639C1002.53 70.4559 1002.77 68.9839 1003.03 67.4479C1003.32 65.9119 1003.62 64.6106 1003.92 63.5439L1008.08 48.0559H1017.43L1007.38 82.9999H997.009L994.321 70.7759Z" fill="url(#paint3_linear_112_3950)" fill-opacity="0.7"/>
<path d="M943.971 72.6959C943.971 74.9146 943.438 76.8559 942.371 78.5199C941.347 80.1412 939.769 81.3999 937.635 82.2959C935.502 83.1919 932.793 83.6399 929.507 83.6399C927.033 83.6399 924.857 83.4692 922.979 83.1279C921.102 82.8292 919.289 82.3172 917.539 81.5919V73.5919C919.417 74.4879 921.443 75.1919 923.619 75.7039C925.795 76.2159 927.673 76.4719 929.251 76.4719C931.214 76.4719 932.622 76.1946 933.475 75.6399C934.371 75.0852 934.819 74.3386 934.819 73.3999C934.819 72.7599 934.585 72.1839 934.115 71.6719C933.689 71.1599 932.899 70.6266 931.747 70.0719C930.638 69.5172 929.038 68.8346 926.947 68.0239C924.857 67.1706 923.107 66.2959 921.699 65.3999C920.291 64.4612 919.225 63.3519 918.499 62.0719C917.817 60.7919 917.475 59.1919 917.475 57.2719C917.475 54.0719 918.734 51.6399 921.251 49.9759C923.811 48.2692 927.182 47.4159 931.363 47.4159C933.625 47.4159 935.715 47.6506 937.635 48.1199C939.598 48.5892 941.582 49.2506 943.587 50.1039L940.771 56.6959C939.15 55.9706 937.486 55.3732 935.779 54.9039C934.073 54.4346 932.558 54.1999 931.235 54.1999C929.785 54.1999 928.654 54.4346 927.843 54.9039C927.033 55.3306 926.627 55.9492 926.627 56.7599C926.627 57.3572 926.841 57.8906 927.267 58.3599C927.737 58.8292 928.526 59.3199 929.635 59.8319C930.787 60.3439 932.387 61.0052 934.435 61.8159C936.526 62.6266 938.275 63.5012 939.683 64.4399C941.134 65.3359 942.201 66.4452 942.883 67.7679C943.609 69.0479 943.971 70.6906 943.971 72.6959Z" fill="url(#paint4_linear_112_3950)" fill-opacity="0.7"/>
<path d="M895.928 47.4159C899.17 47.4159 901.965 48.0346 904.312 49.2719C906.658 50.4666 908.45 52.2586 909.688 54.6479C910.968 56.9946 911.608 59.8746 911.608 63.2879V67.9599H889.144C889.229 70.6052 890.04 72.6959 891.576 74.2319C893.112 75.7252 895.309 76.4719 898.168 76.4719C900.344 76.4719 902.328 76.2586 904.12 75.8319C905.912 75.4052 907.747 74.7652 909.624 73.9119V81.1439C907.917 81.9972 906.104 82.6159 904.184 82.9999C902.307 83.4266 899.96 83.6399 897.144 83.6399C893.688 83.6399 890.616 82.9999 887.928 81.7199C885.282 80.4399 883.192 78.4772 881.656 75.8319C880.12 73.1439 879.352 69.7946 879.352 65.7839C879.352 61.6879 880.035 58.2959 881.4 55.6079C882.808 52.8772 884.749 50.8292 887.224 49.4639C889.741 48.0986 892.642 47.4159 895.928 47.4159ZM896.184 54.2639C894.264 54.2639 892.707 54.8826 891.512 56.1199C890.317 57.3146 889.613 59.1066 889.4 61.4959H902.584C902.584 60.0879 902.349 58.8506 901.88 57.7839C901.41 56.7172 900.685 55.8639 899.704 55.2239C898.765 54.5839 897.592 54.2639 896.184 54.2639Z" fill="url(#paint5_linear_112_3950)" fill-opacity="0.7"/>
<path d="M852.226 47.4159C854.658 47.4159 856.685 47.8852 858.306 48.8239C859.928 49.7199 861.272 50.9359 862.338 52.4719H862.594L863.49 48.0559H871.682V83.2559C871.682 86.5412 871.042 89.2932 869.762 91.5119C868.482 93.7732 866.541 95.4799 863.938 96.6319C861.378 97.7839 858.114 98.3599 854.146 98.3599C851.458 98.3599 849.048 98.1892 846.914 97.8479C844.781 97.5492 842.776 97.0159 840.898 96.2479V88.0559C842.818 88.9092 844.781 89.5706 846.786 90.0399C848.834 90.5092 851.181 90.7439 853.826 90.7439C856.514 90.7439 858.541 90.1252 859.906 88.8879C861.314 87.6506 862.018 85.9439 862.018 83.7679V82.8079C862.018 82.2959 862.04 81.6132 862.082 80.7599C862.168 79.9066 862.253 79.1599 862.338 78.5199H862.018C861.037 80.0559 859.736 81.2932 858.114 82.2319C856.536 83.1706 854.552 83.6399 852.162 83.6399C848.152 83.6399 844.93 82.0826 842.498 78.9679C840.109 75.8532 838.914 71.3946 838.914 65.5919C838.914 59.7892 840.13 55.3092 842.562 52.1519C844.994 48.9946 848.216 47.4159 852.226 47.4159ZM855.362 55.0319C853.954 55.0319 852.738 55.4372 851.714 56.2479C850.733 57.0586 849.986 58.2532 849.474 59.8319C849.005 61.4106 848.77 63.3732 848.77 65.7199C848.77 69.2186 849.325 71.8212 850.434 73.5279C851.586 75.2346 853.293 76.0879 855.554 76.0879C856.834 76.0879 857.922 75.8959 858.818 75.5119C859.714 75.1279 860.44 74.5732 860.994 73.8479C861.549 73.0799 861.954 72.1199 862.21 70.9679C862.509 69.8159 862.658 68.4506 862.658 66.8719V65.4639C862.658 63.1172 862.424 61.1759 861.954 59.6399C861.485 58.1039 860.717 56.9519 859.65 56.1839C858.584 55.4159 857.154 55.0319 855.362 55.0319Z" fill="url(#paint6_linear_112_3950)" fill-opacity="0.7"/>
<path d="M817.882 47.4159C822.277 47.4159 825.626 48.4612 827.93 50.5519C830.234 52.5999 831.386 55.6506 831.386 59.7039V82.9999H824.666L822.81 78.2639H822.554C821.572 79.5012 820.548 80.5252 819.482 81.3359C818.458 82.1466 817.263 82.7226 815.898 83.0639C814.532 83.4479 812.868 83.6399 810.906 83.6399C808.858 83.6399 807.023 83.2559 805.402 82.4879C803.78 81.6772 802.5 80.4612 801.562 78.8399C800.623 77.2186 800.154 75.1706 800.154 72.6959C800.154 69.0266 801.476 66.2746 804.122 64.4399C806.767 62.6052 810.714 61.5812 815.962 61.3679L821.786 61.1759V60.0879C821.786 57.9972 821.316 56.5466 820.378 55.7359C819.439 54.8826 818.116 54.4559 816.41 54.4559C814.831 54.4559 813.21 54.7119 811.546 55.2239C809.882 55.7359 808.239 56.3546 806.618 57.0799L803.802 50.4879C805.636 49.5492 807.727 48.8026 810.074 48.2479C812.463 47.6932 815.066 47.4159 817.882 47.4159ZM818.138 66.9999C815.108 67.0852 812.996 67.5759 811.802 68.4719C810.607 69.3679 810.01 70.6266 810.01 72.2479C810.01 73.7412 810.415 74.8506 811.226 75.5759C812.079 76.2586 813.21 76.5999 814.618 76.5999C816.623 76.5999 818.308 76.0026 819.674 74.8079C821.082 73.6132 821.786 71.9066 821.786 69.6879V66.8079L818.138 66.9999Z" fill="url(#paint7_linear_112_3950)" fill-opacity="0.7"/>
<path d="M781.412 47.4159C785.466 47.4159 788.666 48.9519 791.012 52.0239C793.359 55.0532 794.532 59.5332 794.532 65.4639C794.532 69.3892 793.956 72.7172 792.804 75.4479C791.695 78.1786 790.138 80.2266 788.132 81.5919C786.127 82.9572 783.802 83.6399 781.156 83.6399C779.45 83.6399 777.978 83.4266 776.74 82.9999C775.503 82.5306 774.458 81.9759 773.604 81.3359C772.794 80.6532 772.09 79.9492 771.492 79.2239H771.108C771.194 79.9919 771.279 80.8879 771.364 81.9119C771.45 82.8932 771.492 83.9172 771.492 84.9839V98.3599H761.828V48.0559H769.7L771.044 52.5999H771.492C772.132 51.6186 772.879 50.7439 773.732 49.9759C774.628 49.2079 775.695 48.5892 776.932 48.1199C778.212 47.6506 779.706 47.4159 781.412 47.4159ZM778.212 55.0959C776.591 55.0959 775.29 55.4372 774.308 56.1199C773.327 56.8026 772.623 57.8266 772.196 59.1919C771.77 60.5572 771.535 62.2852 771.492 64.3759V65.3999C771.492 67.6186 771.684 69.5172 772.068 71.0959C772.495 72.6319 773.199 73.8052 774.18 74.6159C775.204 75.4266 776.57 75.8319 778.276 75.8319C779.727 75.8319 780.922 75.4266 781.86 74.6159C782.842 73.8052 783.567 72.6319 784.036 71.0959C784.506 69.5172 784.74 67.5972 784.74 65.3359C784.74 61.8799 784.186 59.3199 783.076 57.6559C782.01 55.9492 780.388 55.0959 778.212 55.0959Z" fill="url(#paint8_linear_112_3950)" fill-opacity="0.7"/>
<path d="M721.928 47.4159C725.17 47.4159 727.965 48.0346 730.312 49.2719C732.658 50.4666 734.45 52.2586 735.688 54.6479C736.968 56.9946 737.608 59.8746 737.608 63.2879V67.9599H715.144C715.229 70.6052 716.04 72.6959 717.576 74.2319C719.112 75.7252 721.309 76.4719 724.168 76.4719C726.344 76.4719 728.328 76.2586 730.12 75.8319C731.912 75.4052 733.746 74.7652 735.624 73.9119V81.1439C733.917 81.9972 732.104 82.6159 730.184 82.9999C728.306 83.4266 725.96 83.6399 723.144 83.6399C719.688 83.6399 716.616 82.9999 713.928 81.7199C711.282 80.4399 709.192 78.4772 707.656 75.8319C706.12 73.1439 705.352 69.7946 705.352 65.7839C705.352 61.6879 706.034 58.2959 707.4 55.6079C708.808 52.8772 710.749 50.8292 713.224 49.4639C715.741 48.0986 718.642 47.4159 721.928 47.4159ZM722.184 54.2639C720.264 54.2639 718.706 54.8826 717.512 56.1199C716.317 57.3146 715.613 59.1066 715.4 61.4959H728.584C728.584 60.0879 728.349 58.8506 727.88 57.7839C727.41 56.7172 726.685 55.8639 725.704 55.2239C724.765 54.5839 723.592 54.2639 722.184 54.2639Z" fill="url(#paint9_linear_112_3950)" fill-opacity="0.7"/>
<path d="M678.034 83.6399C674.194 83.6399 671.037 82.1252 668.562 79.0959C666.13 76.0239 664.914 71.5226 664.914 65.5919C664.914 59.5759 666.152 55.0532 668.626 52.0239C671.101 48.9519 674.344 47.4159 678.354 47.4159C680.018 47.4159 681.448 47.6506 682.642 48.1199C683.88 48.5466 684.946 49.1439 685.842 49.9119C686.738 50.6799 687.506 51.5546 688.146 52.5359H688.466C688.338 51.7679 688.21 50.7012 688.082 49.3359C687.997 47.9279 687.954 46.6479 687.954 45.4959V34.3599H697.682V82.9999H690.258L688.338 78.4559H687.954C687.357 79.4372 686.61 80.3119 685.714 81.0799C684.818 81.8479 683.73 82.4666 682.45 82.9359C681.213 83.4052 679.741 83.6399 678.034 83.6399ZM681.426 75.8959C684.072 75.8959 685.928 75.1492 686.994 73.6559C688.061 72.1199 688.594 69.7946 688.594 66.6799V65.6559C688.594 62.2852 688.082 59.7039 687.058 57.9119C686.034 56.1199 684.136 55.2239 681.362 55.2239C679.272 55.2239 677.629 56.1199 676.434 57.9119C675.282 59.7039 674.706 62.3066 674.706 65.7199C674.706 69.1332 675.282 71.6932 676.434 73.3999C677.629 75.0639 679.293 75.8959 681.426 75.8959Z" fill="url(#paint10_linear_112_3950)" fill-opacity="0.7"/>
<path d="M628.296 47.4159C632.136 47.4159 635.166 48.4186 637.384 50.4239C639.603 52.4292 640.712 55.6932 640.712 60.2159V82.9999H631.112V62.6479C631.112 60.1306 630.643 58.2532 629.704 57.0159C628.808 55.7359 627.4 55.0959 625.48 55.0959C622.579 55.0959 620.595 56.0986 619.528 58.1039C618.504 60.0666 617.992 62.9039 617.992 66.6159V82.9999H608.328V48.0559H615.752L617.096 52.7279H617.48C618.248 51.5759 619.166 50.6159 620.232 49.8479C621.342 49.0372 622.558 48.4399 623.88 48.0559C625.246 47.6292 626.718 47.4159 628.296 47.4159Z" fill="url(#paint11_linear_112_3950)" fill-opacity="0.7"/>
<path d="M600.584 65.4639C600.584 68.3652 600.179 70.9466 599.368 73.2079C598.6 75.4692 597.47 77.3679 595.976 78.9039C594.526 80.4399 592.755 81.6132 590.664 82.4239C588.574 83.2346 586.206 83.6399 583.56 83.6399C581.086 83.6399 578.824 83.2346 576.776 82.4239C574.728 81.6132 572.958 80.4399 571.464 78.9039C569.971 77.3679 568.798 75.4692 567.944 73.2079C567.091 70.9466 566.664 68.3652 566.664 65.4639C566.664 61.5812 567.347 58.2959 568.712 55.6079C570.078 52.9199 572.04 50.8932 574.6 49.5279C577.16 48.1199 580.211 47.4159 583.752 47.4159C587.038 47.4159 589.939 48.1199 592.456 49.5279C594.974 50.8932 596.958 52.9199 598.408 55.6079C599.859 58.2959 600.584 61.5812 600.584 65.4639ZM576.52 65.4639C576.52 67.7252 576.755 69.6666 577.224 71.2879C577.736 72.9092 578.504 74.1466 579.528 74.9999C580.595 75.8532 581.982 76.2799 583.688 76.2799C585.352 76.2799 586.696 75.8532 587.72 74.9999C588.787 74.1466 589.555 72.9092 590.024 71.2879C590.494 69.6666 590.728 67.7252 590.728 65.4639C590.728 63.1599 590.472 61.2186 589.96 59.6399C589.491 58.0612 588.744 56.8666 587.72 56.0559C586.696 55.2026 585.331 54.7759 583.624 54.7759C581.15 54.7759 579.336 55.6932 578.184 57.5279C577.075 59.3626 576.52 62.0079 576.52 65.4639Z" fill="url(#paint12_linear_112_3950)" fill-opacity="0.7"/>
<path d="M558.931 48.0559V82.9999H549.267V48.0559H558.931ZM554.131 34.2959C555.539 34.2959 556.755 34.6372 557.779 35.3199C558.846 35.9599 559.379 37.1972 559.379 39.0319C559.379 40.7812 558.846 41.9972 557.779 42.6799C556.755 43.3626 555.539 43.7039 554.131 43.7039C552.681 43.7039 551.443 43.3626 550.419 42.6799C549.395 41.9972 548.883 40.7812 548.883 39.0319C548.883 37.1972 549.395 35.9599 550.419 35.3199C551.443 34.6372 552.681 34.2959 554.131 34.2959Z" fill="url(#paint13_linear_112_3950)" fill-opacity="0.7"/>
<path d="M536.493 76.0239C537.56 76.0239 538.584 75.9172 539.565 75.7039C540.547 75.4906 541.528 75.2346 542.509 74.9359V82.0399C541.485 82.4666 540.205 82.8292 538.669 83.1279C537.176 83.4692 535.533 83.6399 533.741 83.6399C531.651 83.6399 529.773 83.2986 528.109 82.6159C526.488 81.9332 525.187 80.7599 524.205 79.0959C523.267 77.3892 522.797 75.0426 522.797 72.0559V55.2239H518.253V51.1919L523.501 47.9919L526.253 40.6319H532.333V48.0559H542.125V55.2239H532.333V72.0559C532.333 73.3786 532.717 74.3812 533.485 75.0639C534.253 75.7039 535.256 76.0239 536.493 76.0239Z" fill="url(#paint14_linear_112_3950)" fill-opacity="0.7"/>
<path d="M503.685 83.6399C500.315 83.6399 497.349 83.0212 494.789 81.7839C492.272 80.5039 490.309 78.5412 488.901 75.8959C487.493 73.2079 486.789 69.8159 486.789 65.7199C486.789 61.4106 487.557 57.9119 489.093 55.2239C490.629 52.5359 492.72 50.5732 495.365 49.3359C498.011 48.0559 501.019 47.4159 504.389 47.4159C506.437 47.4159 508.357 47.6292 510.149 48.0559C511.984 48.4826 513.605 49.0586 515.013 49.7839L512.133 57.0799C510.853 56.5252 509.552 56.0772 508.229 55.7359C506.949 55.3519 505.669 55.1599 504.389 55.1599C502.725 55.1599 501.317 55.5439 500.165 56.3119C499.013 57.0799 498.139 58.2532 497.541 59.8319C496.944 61.3679 496.645 63.3092 496.645 65.6559C496.645 67.9599 496.944 69.8586 497.541 71.3519C498.139 72.8452 499.013 73.9759 500.165 74.7439C501.317 75.4692 502.683 75.8319 504.261 75.8319C506.096 75.8319 507.824 75.5972 509.445 75.1279C511.067 74.6159 512.603 73.9546 514.053 73.1439V81.0159C512.731 81.8266 511.237 82.4666 509.573 82.9359C507.909 83.4052 505.947 83.6399 503.685 83.6399Z" fill="url(#paint15_linear_112_3950)" fill-opacity="0.7"/>
<path d="M479.02 48.0559V82.9999H471.596L470.38 78.5199H469.804C469.079 79.7146 468.14 80.6959 466.988 81.4639C465.879 82.2319 464.642 82.7866 463.276 83.1279C461.954 83.4692 460.546 83.6399 459.052 83.6399C456.578 83.6399 454.402 83.1919 452.524 82.2959C450.69 81.3999 449.239 80.0132 448.172 78.1359C447.148 76.2586 446.636 73.8266 446.636 70.8399V48.0559H456.364V68.4079C456.364 70.8826 456.791 72.7599 457.644 74.0399C458.54 75.2772 459.948 75.8959 461.868 75.8959C463.831 75.8959 465.346 75.4692 466.412 74.6159C467.522 73.7199 468.29 72.4186 468.716 70.7119C469.143 69.0052 469.356 66.9146 469.356 64.4399V48.0559H479.02Z" fill="url(#paint16_linear_112_3950)" fill-opacity="0.7"/>
<path d="M417.847 83.6399C414.007 83.6399 410.849 82.1252 408.375 79.0959C405.943 76.0239 404.727 71.5226 404.727 65.5919C404.727 59.5759 405.964 55.0532 408.439 52.0239C410.913 48.9519 414.156 47.4159 418.167 47.4159C419.831 47.4159 421.26 47.6506 422.455 48.1199C423.692 48.5466 424.759 49.1439 425.655 49.9119C426.551 50.6799 427.319 51.5546 427.959 52.5359H428.279C428.151 51.7679 428.023 50.7012 427.895 49.3359C427.809 47.9279 427.767 46.6479 427.767 45.4959V34.3599H437.495V82.9999H430.071L428.151 78.4559H427.767C427.169 79.4372 426.423 80.3119 425.527 81.0799C424.631 81.8479 423.543 82.4666 422.263 82.9359C421.025 83.4052 419.553 83.6399 417.847 83.6399ZM421.239 75.8959C423.884 75.8959 425.74 75.1492 426.807 73.6559C427.873 72.1199 428.407 69.7946 428.407 66.6799V65.6559C428.407 62.2852 427.895 59.7039 426.871 57.9119C425.847 56.1199 423.948 55.2239 421.175 55.2239C419.084 55.2239 417.441 56.1199 416.247 57.9119C415.095 59.7039 414.519 62.3066 414.519 65.7199C414.519 69.1332 415.095 71.6932 416.247 73.3999C417.441 75.0639 419.105 75.8959 421.239 75.8959Z" fill="url(#paint17_linear_112_3950)" fill-opacity="0.7"/>
<path d="M383.694 47.4159C388.089 47.4159 391.438 48.4612 393.742 50.5519C396.046 52.5999 397.198 55.6506 397.198 59.7039V82.9999H390.478L388.622 78.2639H388.366C387.385 79.5012 386.361 80.5252 385.294 81.3359C384.27 82.1466 383.076 82.7226 381.71 83.0639C380.345 83.4479 378.681 83.6399 376.718 83.6399C374.67 83.6399 372.836 83.2559 371.214 82.4879C369.593 81.6772 368.313 80.4612 367.374 78.8399C366.436 77.2186 365.966 75.1706 365.966 72.6959C365.966 69.0266 367.289 66.2746 369.934 64.4399C372.58 62.6052 376.526 61.5812 381.774 61.3679L387.598 61.1759V60.0879C387.598 57.9972 387.129 56.5466 386.19 55.7359C385.252 54.8826 383.929 54.4559 382.222 54.4559C380.644 54.4559 379.022 54.7119 377.358 55.2239C375.694 55.7359 374.052 56.3546 372.43 57.0799L369.614 50.4879C371.449 49.5492 373.54 48.8026 375.886 48.2479C378.276 47.6932 380.878 47.4159 383.694 47.4159ZM383.95 66.9999C380.921 67.0852 378.809 67.5759 377.614 68.4719C376.42 69.3679 375.822 70.6266 375.822 72.2479C375.822 73.7412 376.228 74.8506 377.038 75.5759C377.892 76.2586 379.022 76.5999 380.43 76.5999C382.436 76.5999 384.121 76.0026 385.486 74.8079C386.894 73.6132 387.598 71.9066 387.598 69.6879V66.8079L383.95 66.9999Z" fill="url(#paint18_linear_112_3950)" fill-opacity="0.7"/>
<path d="M360.031 47.4159C360.671 47.4159 361.354 47.4586 362.079 47.5439C362.847 47.5866 363.445 47.6719 363.871 47.7999L362.911 56.8239C362.442 56.7386 361.887 56.6532 361.247 56.5679C360.607 56.4826 359.839 56.4399 358.943 56.4399C357.962 56.4399 356.959 56.5892 355.935 56.8879C354.954 57.1866 354.037 57.6772 353.183 58.3599C352.33 59.0426 351.647 59.9386 351.135 61.0479C350.623 62.1572 350.367 63.5652 350.367 65.2719V82.9999H340.703V48.0559H348.063L349.471 53.9439H349.919C350.602 52.7066 351.455 51.5972 352.479 50.6159C353.503 49.6346 354.655 48.8666 355.935 48.3119C357.215 47.7146 358.581 47.4159 360.031 47.4159Z" fill="url(#paint19_linear_112_3950)" fill-opacity="0.7"/>
<path d="M325.641 82.9999H315.849V45.4319H303.497V37.3039H337.993V45.4319H325.641V82.9999Z" fill="url(#paint20_linear_112_3950)" fill-opacity="0.7"/>
</g>
</g>
<path d="M202 72H1197V105C1197 111.627 1191.63 117 1185 117H214C207.373 117 202 111.627 202 105V72Z" fill="url(#paint21_linear_112_3950)"/>
<path d="M1070.62 33.6879C1070.62 35.0106 1070.57 36.2692 1070.49 37.4639C1070.45 38.6586 1070.36 39.7039 1070.23 40.5999H1070.62C1071.56 39.1492 1072.81 37.9332 1074.39 36.9519C1075.97 35.9279 1078.02 35.4159 1080.54 35.4159C1084.42 35.4159 1087.58 36.9519 1090.01 40.0239C1092.44 43.0532 1093.66 47.5332 1093.66 53.4639C1093.66 57.4319 1093.1 60.7812 1091.99 63.5119C1090.88 66.1999 1089.31 68.2266 1087.26 69.5919C1085.25 70.9572 1082.93 71.6399 1080.28 71.6399C1077.72 71.6399 1075.69 71.1919 1074.2 70.2959C1072.75 69.3572 1071.56 68.3332 1070.62 67.2239H1069.98L1068.38 70.9999H1060.95V22.3599H1070.62V33.6879ZM1077.4 43.0959C1075.78 43.0959 1074.46 43.4372 1073.43 44.1199C1072.45 44.8026 1071.73 45.8479 1071.26 47.2559C1070.83 48.6212 1070.62 50.4132 1070.62 52.6319V53.7839C1070.62 57.0692 1071.11 59.5652 1072.09 61.2719C1073.11 62.9786 1074.93 63.8319 1077.53 63.8319C1079.62 63.8319 1081.2 62.9359 1082.27 61.1439C1083.33 59.3519 1083.87 56.7492 1083.87 53.3359C1083.87 49.9652 1083.33 47.4266 1082.27 45.7199C1081.24 43.9706 1079.62 43.0959 1077.4 43.0959Z" fill="url(#paint22_linear_112_3950)"/>
<path d="M1037.68 35.4159C1040.92 35.4159 1043.72 36.0346 1046.06 37.2719C1048.41 38.4666 1050.2 40.2586 1051.44 42.6479C1052.72 44.9946 1053.36 47.8746 1053.36 51.2879V55.9599H1030.89C1030.98 58.6052 1031.79 60.6959 1033.33 62.2319C1034.86 63.7252 1037.06 64.4719 1039.92 64.4719C1042.09 64.4719 1044.08 64.2586 1045.87 63.8319C1047.66 63.4052 1049.5 62.7652 1051.37 61.9119V69.1439C1049.67 69.9972 1047.85 70.6159 1045.93 70.9999C1044.06 71.4266 1041.71 71.6399 1038.89 71.6399C1035.44 71.6399 1032.37 70.9999 1029.68 69.7199C1027.03 68.4399 1024.94 66.4772 1023.41 63.8319C1021.87 61.1439 1021.1 57.7946 1021.1 53.7839C1021.1 49.6879 1021.78 46.2959 1023.15 43.6079C1024.56 40.8772 1026.5 38.8292 1028.97 37.4639C1031.49 36.0986 1034.39 35.4159 1037.68 35.4159ZM1037.93 42.2639C1036.01 42.2639 1034.46 42.8826 1033.26 44.1199C1032.07 45.3146 1031.36 47.1066 1031.15 49.4959H1044.33C1044.33 48.0879 1044.1 46.8506 1043.63 45.7839C1043.16 44.7172 1042.44 43.8639 1041.45 43.2239C1040.52 42.5839 1039.34 42.2639 1037.93 42.2639Z" fill="url(#paint23_linear_112_3950)"/>
<path d="M994.321 58.7759C994.151 58.0506 993.895 56.9839 993.553 55.5759C993.255 54.1252 992.913 52.5892 992.529 50.9679C992.145 49.3039 991.783 47.7892 991.441 46.4239C991.1 45.0159 990.865 43.9919 990.737 43.3519H990.481C990.353 43.9919 990.119 45.0159 989.777 46.4239C989.479 47.7892 989.137 49.3039 988.753 50.9679C988.369 52.5892 988.007 54.1252 987.665 55.5759C987.324 57.0266 987.068 58.1359 986.897 58.9039L984.081 70.9999H973.841L963.921 36.0559H973.393L977.425 51.5439C977.724 52.6106 977.98 53.8906 978.193 55.3839C978.449 56.8772 978.684 58.3279 978.897 59.7359C979.111 61.1012 979.26 62.1892 979.345 62.9999H979.601C979.644 62.4026 979.729 61.6132 979.857 60.6319C979.985 59.6079 980.135 58.5626 980.305 57.4959C980.519 56.4292 980.689 55.4692 980.817 54.6159C980.988 53.7199 981.116 53.1226 981.201 52.8239L985.489 36.0559H995.985L1000.08 52.8239C1000.25 53.4212 1000.44 54.3812 1000.66 55.7039C1000.91 57.0266 1001.13 58.3706 1001.3 59.7359C1001.51 61.1012 1001.62 62.1892 1001.62 62.9999H1001.87C1001.96 62.2746 1002.11 61.2292 1002.32 59.8639C1002.53 58.4559 1002.77 56.9839 1003.03 55.4479C1003.32 53.9119 1003.62 52.6106 1003.92 51.5439L1008.08 36.0559H1017.43L1007.38 70.9999H997.009L994.321 58.7759Z" fill="url(#paint24_linear_112_3950)"/>
<path d="M943.971 60.6959C943.971 62.9146 943.438 64.8559 942.371 66.5199C941.347 68.1412 939.769 69.3999 937.635 70.2959C935.502 71.1919 932.793 71.6399 929.507 71.6399C927.033 71.6399 924.857 71.4692 922.979 71.1279C921.102 70.8292 919.289 70.3172 917.539 69.5919V61.5919C919.417 62.4879 921.443 63.1919 923.619 63.7039C925.795 64.2159 927.673 64.4719 929.251 64.4719C931.214 64.4719 932.622 64.1946 933.475 63.6399C934.371 63.0852 934.819 62.3386 934.819 61.3999C934.819 60.7599 934.585 60.1839 934.115 59.6719C933.689 59.1599 932.899 58.6266 931.747 58.0719C930.638 57.5172 929.038 56.8346 926.947 56.0239C924.857 55.1706 923.107 54.2959 921.699 53.3999C920.291 52.4612 919.225 51.3519 918.499 50.0719C917.817 48.7919 917.475 47.1919 917.475 45.2719C917.475 42.0719 918.734 39.6399 921.251 37.9759C923.811 36.2692 927.182 35.4159 931.363 35.4159C933.625 35.4159 935.715 35.6506 937.635 36.1199C939.598 36.5892 941.582 37.2506 943.587 38.1039L940.771 44.6959C939.15 43.9706 937.486 43.3732 935.779 42.9039C934.073 42.4346 932.558 42.1999 931.235 42.1999C929.785 42.1999 928.654 42.4346 927.843 42.9039C927.033 43.3306 926.627 43.9492 926.627 44.7599C926.627 45.3572 926.841 45.8906 927.267 46.3599C927.737 46.8292 928.526 47.3199 929.635 47.8319C930.787 48.3439 932.387 49.0052 934.435 49.8159C936.526 50.6266 938.275 51.5012 939.683 52.4399C941.134 53.3359 942.201 54.4452 942.883 55.7679C943.609 57.0479 943.971 58.6906 943.971 60.6959Z" fill="url(#paint25_linear_112_3950)"/>
<path d="M895.928 35.4159C899.17 35.4159 901.965 36.0346 904.312 37.2719C906.658 38.4666 908.45 40.2586 909.688 42.6479C910.968 44.9946 911.608 47.8746 911.608 51.2879V55.9599H889.144C889.229 58.6052 890.04 60.6959 891.576 62.2319C893.112 63.7252 895.309 64.4719 898.168 64.4719C900.344 64.4719 902.328 64.2586 904.12 63.8319C905.912 63.4052 907.747 62.7652 909.624 61.9119V69.1439C907.917 69.9972 906.104 70.6159 904.184 70.9999C902.307 71.4266 899.96 71.6399 897.144 71.6399C893.688 71.6399 890.616 70.9999 887.928 69.7199C885.282 68.4399 883.192 66.4772 881.656 63.8319C880.12 61.1439 879.352 57.7946 879.352 53.7839C879.352 49.6879 880.035 46.2959 881.4 43.6079C882.808 40.8772 884.749 38.8292 887.224 37.4639C889.741 36.0986 892.642 35.4159 895.928 35.4159ZM896.184 42.2639C894.264 42.2639 892.707 42.8826 891.512 44.1199C890.317 45.3146 889.613 47.1066 889.4 49.4959H902.584C902.584 48.0879 902.349 46.8506 901.88 45.7839C901.41 44.7172 900.685 43.8639 899.704 43.2239C898.765 42.5839 897.592 42.2639 896.184 42.2639Z" fill="url(#paint26_linear_112_3950)"/>
<path d="M852.226 35.4159C854.658 35.4159 856.685 35.8852 858.306 36.8239C859.928 37.7199 861.272 38.9359 862.338 40.4719H862.594L863.49 36.0559H871.682V71.2559C871.682 74.5412 871.042 77.2932 869.762 79.5119C868.482 81.7732 866.541 83.4799 863.938 84.6319C861.378 85.7839 858.114 86.3599 854.146 86.3599C851.458 86.3599 849.048 86.1892 846.914 85.8479C844.781 85.5492 842.776 85.0159 840.898 84.2479V76.0559C842.818 76.9092 844.781 77.5706 846.786 78.0399C848.834 78.5092 851.181 78.7439 853.826 78.7439C856.514 78.7439 858.541 78.1252 859.906 76.8879C861.314 75.6506 862.018 73.9439 862.018 71.7679V70.8079C862.018 70.2959 862.04 69.6132 862.082 68.7599C862.168 67.9066 862.253 67.1599 862.338 66.5199H862.018C861.037 68.0559 859.736 69.2932 858.114 70.2319C856.536 71.1706 854.552 71.6399 852.162 71.6399C848.152 71.6399 844.93 70.0826 842.498 66.9679C840.109 63.8532 838.914 59.3946 838.914 53.5919C838.914 47.7892 840.13 43.3092 842.562 40.1519C844.994 36.9946 848.216 35.4159 852.226 35.4159ZM855.362 43.0319C853.954 43.0319 852.738 43.4372 851.714 44.2479C850.733 45.0586 849.986 46.2532 849.474 47.8319C849.005 49.4106 848.77 51.3732 848.77 53.7199C848.77 57.2186 849.325 59.8212 850.434 61.5279C851.586 63.2346 853.293 64.0879 855.554 64.0879C856.834 64.0879 857.922 63.8959 858.818 63.5119C859.714 63.1279 860.44 62.5732 860.994 61.8479C861.549 61.0799 861.954 60.1199 862.21 58.9679C862.509 57.8159 862.658 56.4506 862.658 54.8719V53.4639C862.658 51.1172 862.424 49.1759 861.954 47.6399C861.485 46.1039 860.717 44.9519 859.65 44.1839C858.584 43.4159 857.154 43.0319 855.362 43.0319Z" fill="url(#paint27_linear_112_3950)"/>
<path d="M817.882 35.4159C822.277 35.4159 825.626 36.4612 827.93 38.5519C830.234 40.5999 831.386 43.6506 831.386 47.7039V70.9999H824.666L822.81 66.2639H822.554C821.572 67.5012 820.548 68.5252 819.482 69.3359C818.458 70.1466 817.263 70.7226 815.898 71.0639C814.532 71.4479 812.868 71.6399 810.906 71.6399C808.858 71.6399 807.023 71.2559 805.402 70.4879C803.78 69.6772 802.5 68.4612 801.562 66.8399C800.623 65.2186 800.154 63.1706 800.154 60.6959C800.154 57.0266 801.476 54.2746 804.122 52.4399C806.767 50.6052 810.714 49.5812 815.962 49.3679L821.786 49.1759V48.0879C821.786 45.9972 821.316 44.5466 820.378 43.7359C819.439 42.8826 818.116 42.4559 816.41 42.4559C814.831 42.4559 813.21 42.7119 811.546 43.2239C809.882 43.7359 808.239 44.3546 806.618 45.0799L803.802 38.4879C805.636 37.5492 807.727 36.8026 810.074 36.2479C812.463 35.6932 815.066 35.4159 817.882 35.4159ZM818.138 54.9999C815.108 55.0852 812.996 55.5759 811.802 56.4719C810.607 57.3679 810.01 58.6266 810.01 60.2479C810.01 61.7412 810.415 62.8506 811.226 63.5759C812.079 64.2586 813.21 64.5999 814.618 64.5999C816.623 64.5999 818.308 64.0026 819.674 62.8079C821.082 61.6132 821.786 59.9066 821.786 57.6879V54.8079L818.138 54.9999Z" fill="url(#paint28_linear_112_3950)"/>
<path d="M781.412 35.4159C785.466 35.4159 788.666 36.9519 791.012 40.0239C793.359 43.0532 794.532 47.5332 794.532 53.4639C794.532 57.3892 793.956 60.7172 792.804 63.4479C791.695 66.1786 790.138 68.2266 788.132 69.5919C786.127 70.9572 783.802 71.6399 781.156 71.6399C779.45 71.6399 777.978 71.4266 776.74 70.9999C775.503 70.5306 774.458 69.9759 773.604 69.3359C772.794 68.6532 772.09 67.9492 771.492 67.2239H771.108C771.194 67.9919 771.279 68.8879 771.364 69.9119C771.45 70.8932 771.492 71.9172 771.492 72.9839V86.3599H761.828V36.0559H769.7L771.044 40.5999H771.492C772.132 39.6186 772.879 38.7439 773.732 37.9759C774.628 37.2079 775.695 36.5892 776.932 36.1199C778.212 35.6506 779.706 35.4159 781.412 35.4159ZM778.212 43.0959C776.591 43.0959 775.29 43.4372 774.308 44.1199C773.327 44.8026 772.623 45.8266 772.196 47.1919C771.77 48.5572 771.535 50.2852 771.492 52.3759V53.3999C771.492 55.6186 771.684 57.5172 772.068 59.0959C772.495 60.6319 773.199 61.8052 774.18 62.6159C775.204 63.4266 776.57 63.8319 778.276 63.8319C779.727 63.8319 780.922 63.4266 781.86 62.6159C782.842 61.8052 783.567 60.6319 784.036 59.0959C784.506 57.5172 784.74 55.5972 784.74 53.3359C784.74 49.8799 784.186 47.3199 783.076 45.6559C782.01 43.9492 780.388 43.0959 778.212 43.0959Z" fill="url(#paint29_linear_112_3950)"/>
<path d="M721.928 35.4159C725.17 35.4159 727.965 36.0346 730.312 37.2719C732.658 38.4666 734.45 40.2586 735.688 42.6479C736.968 44.9946 737.608 47.8746 737.608 51.2879V55.9599H715.144C715.229 58.6052 716.04 60.6959 717.576 62.2319C719.112 63.7252 721.309 64.4719 724.168 64.4719C726.344 64.4719 728.328 64.2586 730.12 63.8319C731.912 63.4052 733.746 62.7652 735.624 61.9119V69.1439C733.917 69.9972 732.104 70.6159 730.184 70.9999C728.306 71.4266 725.96 71.6399 723.144 71.6399C719.688 71.6399 716.616 70.9999 713.928 69.7199C711.282 68.4399 709.192 66.4772 707.656 63.8319C706.12 61.1439 705.352 57.7946 705.352 53.7839C705.352 49.6879 706.034 46.2959 707.4 43.6079C708.808 40.8772 710.749 38.8292 713.224 37.4639C715.741 36.0986 718.642 35.4159 721.928 35.4159ZM722.184 42.2639C720.264 42.2639 718.706 42.8826 717.512 44.1199C716.317 45.3146 715.613 47.1066 715.4 49.4959H728.584C728.584 48.0879 728.349 46.8506 727.88 45.7839C727.41 44.7172 726.685 43.8639 725.704 43.2239C724.765 42.5839 723.592 42.2639 722.184 42.2639Z" fill="url(#paint30_linear_112_3950)"/>
<path d="M678.034 71.6399C674.194 71.6399 671.037 70.1252 668.562 67.0959C666.13 64.0239 664.914 59.5226 664.914 53.5919C664.914 47.5759 666.152 43.0532 668.626 40.0239C671.101 36.9519 674.344 35.4159 678.354 35.4159C680.018 35.4159 681.448 35.6506 682.642 36.1199C683.88 36.5466 684.946 37.1439 685.842 37.9119C686.738 38.6799 687.506 39.5546 688.146 40.5359H688.466C688.338 39.7679 688.21 38.7012 688.082 37.3359C687.997 35.9279 687.954 34.6479 687.954 33.4959V22.3599H697.682V70.9999H690.258L688.338 66.4559H687.954C687.357 67.4372 686.61 68.3119 685.714 69.0799C684.818 69.8479 683.73 70.4666 682.45 70.9359C681.213 71.4052 679.741 71.6399 678.034 71.6399ZM681.426 63.8959C684.072 63.8959 685.928 63.1492 686.994 61.6559C688.061 60.1199 688.594 57.7946 688.594 54.6799V53.6559C688.594 50.2852 688.082 47.7039 687.058 45.9119C686.034 44.1199 684.136 43.2239 681.362 43.2239C679.272 43.2239 677.629 44.1199 676.434 45.9119C675.282 47.7039 674.706 50.3066 674.706 53.7199C674.706 57.1332 675.282 59.6932 676.434 61.3999C677.629 63.0639 679.293 63.8959 681.426 63.8959Z" fill="url(#paint31_linear_112_3950)"/>
<path d="M628.296 35.4159C632.136 35.4159 635.166 36.4186 637.384 38.4239C639.603 40.4292 640.712 43.6932 640.712 48.2159V70.9999H631.112V50.6479C631.112 48.1306 630.643 46.2532 629.704 45.0159C628.808 43.7359 627.4 43.0959 625.48 43.0959C622.579 43.0959 620.595 44.0986 619.528 46.1039C618.504 48.0666 617.992 50.9039 617.992 54.6159V70.9999H608.328V36.0559H615.752L617.096 40.7279H617.48C618.248 39.5759 619.166 38.6159 620.232 37.8479C621.342 37.0372 622.558 36.4399 623.88 36.0559C625.246 35.6292 626.718 35.4159 628.296 35.4159Z" fill="url(#paint32_linear_112_3950)"/>
<path d="M600.584 53.4639C600.584 56.3652 600.179 58.9466 599.368 61.2079C598.6 63.4692 597.47 65.3679 595.976 66.9039C594.526 68.4399 592.755 69.6132 590.664 70.4239C588.574 71.2346 586.206 71.6399 583.56 71.6399C581.086 71.6399 578.824 71.2346 576.776 70.4239C574.728 69.6132 572.958 68.4399 571.464 66.9039C569.971 65.3679 568.798 63.4692 567.944 61.2079C567.091 58.9466 566.664 56.3652 566.664 53.4639C566.664 49.5812 567.347 46.2959 568.712 43.6079C570.078 40.9199 572.04 38.8932 574.6 37.5279C577.16 36.1199 580.211 35.4159 583.752 35.4159C587.038 35.4159 589.939 36.1199 592.456 37.5279C594.974 38.8932 596.958 40.9199 598.408 43.6079C599.859 46.2959 600.584 49.5812 600.584 53.4639ZM576.52 53.4639C576.52 55.7252 576.755 57.6666 577.224 59.2879C577.736 60.9092 578.504 62.1466 579.528 62.9999C580.595 63.8532 581.982 64.2799 583.688 64.2799C585.352 64.2799 586.696 63.8532 587.72 62.9999C588.787 62.1466 589.555 60.9092 590.024 59.2879C590.494 57.6666 590.728 55.7252 590.728 53.4639C590.728 51.1599 590.472 49.2186 589.96 47.6399C589.491 46.0612 588.744 44.8666 587.72 44.0559C586.696 43.2026 585.331 42.7759 583.624 42.7759C581.15 42.7759 579.336 43.6932 578.184 45.5279C577.075 47.3626 576.52 50.0079 576.52 53.4639Z" fill="url(#paint33_linear_112_3950)"/>
<path d="M558.931 36.0559V70.9999H549.267V36.0559H558.931ZM554.131 22.2959C555.539 22.2959 556.755 22.6372 557.779 23.3199C558.846 23.9599 559.379 25.1972 559.379 27.0319C559.379 28.7812 558.846 29.9972 557.779 30.6799C556.755 31.3626 555.539 31.7039 554.131 31.7039C552.681 31.7039 551.443 31.3626 550.419 30.6799C549.395 29.9972 548.883 28.7812 548.883 27.0319C548.883 25.1972 549.395 23.9599 550.419 23.3199C551.443 22.6372 552.681 22.2959 554.131 22.2959Z" fill="url(#paint34_linear_112_3950)"/>
<path d="M536.493 64.0239C537.56 64.0239 538.584 63.9172 539.565 63.7039C540.547 63.4906 541.528 63.2346 542.509 62.9359V70.0399C541.485 70.4666 540.205 70.8292 538.669 71.1279C537.176 71.4692 535.533 71.6399 533.741 71.6399C531.651 71.6399 529.773 71.2986 528.109 70.6159C526.488 69.9332 525.187 68.7599 524.205 67.0959C523.267 65.3892 522.797 63.0426 522.797 60.0559V43.2239H518.253V39.1919L523.501 35.9919L526.253 28.6319H532.333V36.0559H542.125V43.2239H532.333V60.0559C532.333 61.3786 532.717 62.3812 533.485 63.0639C534.253 63.7039 535.256 64.0239 536.493 64.0239Z" fill="url(#paint35_linear_112_3950)"/>
<path d="M503.685 71.6399C500.315 71.6399 497.349 71.0212 494.789 69.7839C492.272 68.5039 490.309 66.5412 488.901 63.8959C487.493 61.2079 486.789 57.8159 486.789 53.7199C486.789 49.4106 487.557 45.9119 489.093 43.2239C490.629 40.5359 492.72 38.5732 495.365 37.3359C498.011 36.0559 501.019 35.4159 504.389 35.4159C506.437 35.4159 508.357 35.6292 510.149 36.0559C511.984 36.4826 513.605 37.0586 515.013 37.7839L512.133 45.0799C510.853 44.5252 509.552 44.0772 508.229 43.7359C506.949 43.3519 505.669 43.1599 504.389 43.1599C502.725 43.1599 501.317 43.5439 500.165 44.3119C499.013 45.0799 498.139 46.2532 497.541 47.8319C496.944 49.3679 496.645 51.3092 496.645 53.6559C496.645 55.9599 496.944 57.8586 497.541 59.3519C498.139 60.8452 499.013 61.9759 500.165 62.7439C501.317 63.4692 502.683 63.8319 504.261 63.8319C506.096 63.8319 507.824 63.5972 509.445 63.1279C511.067 62.6159 512.603 61.9546 514.053 61.1439V69.0159C512.731 69.8266 511.237 70.4666 509.573 70.9359C507.909 71.4052 505.947 71.6399 503.685 71.6399Z" fill="url(#paint36_linear_112_3950)"/>
<path d="M479.02 36.0559V70.9999H471.596L470.38 66.5199H469.804C469.079 67.7146 468.14 68.6959 466.988 69.4639C465.879 70.2319 464.642 70.7866 463.276 71.1279C461.954 71.4692 460.546 71.6399 459.052 71.6399C456.578 71.6399 454.402 71.1919 452.524 70.2959C450.69 69.3999 449.239 68.0132 448.172 66.1359C447.148 64.2586 446.636 61.8266 446.636 58.8399V36.0559H456.364V56.4079C456.364 58.8826 456.791 60.7599 457.644 62.0399C458.54 63.2772 459.948 63.8959 461.868 63.8959C463.831 63.8959 465.346 63.4692 466.412 62.6159C467.522 61.7199 468.29 60.4186 468.716 58.7119C469.143 57.0052 469.356 54.9146 469.356 52.4399V36.0559H479.02Z" fill="url(#paint37_linear_112_3950)"/>
<path d="M417.847 71.6399C414.007 71.6399 410.849 70.1252 408.375 67.0959C405.943 64.0239 404.727 59.5226 404.727 53.5919C404.727 47.5759 405.964 43.0532 408.439 40.0239C410.913 36.9519 414.156 35.4159 418.167 35.4159C419.831 35.4159 421.26 35.6506 422.455 36.1199C423.692 36.5466 424.759 37.1439 425.655 37.9119C426.551 38.6799 427.319 39.5546 427.959 40.5359H428.279C428.151 39.7679 428.023 38.7012 427.895 37.3359C427.809 35.9279 427.767 34.6479 427.767 33.4959V22.3599H437.495V70.9999H430.071L428.151 66.4559H427.767C427.169 67.4372 426.423 68.3119 425.527 69.0799C424.631 69.8479 423.543 70.4666 422.263 70.9359C421.025 71.4052 419.553 71.6399 417.847 71.6399ZM421.239 63.8959C423.884 63.8959 425.74 63.1492 426.807 61.6559C427.873 60.1199 428.407 57.7946 428.407 54.6799V53.6559C428.407 50.2852 427.895 47.7039 426.871 45.9119C425.847 44.1199 423.948 43.2239 421.175 43.2239C419.084 43.2239 417.441 44.1199 416.247 45.9119C415.095 47.7039 414.519 50.3066 414.519 53.7199C414.519 57.1332 415.095 59.6932 416.247 61.3999C417.441 63.0639 419.105 63.8959 421.239 63.8959Z" fill="url(#paint38_linear_112_3950)"/>
<path d="M383.694 35.4159C388.089 35.4159 391.438 36.4612 393.742 38.5519C396.046 40.5999 397.198 43.6506 397.198 47.7039V70.9999H390.478L388.622 66.2639H388.366C387.385 67.5012 386.361 68.5252 385.294 69.3359C384.27 70.1466 383.076 70.7226 381.71 71.0639C380.345 71.4479 378.681 71.6399 376.718 71.6399C374.67 71.6399 372.836 71.2559 371.214 70.4879C369.593 69.6772 368.313 68.4612 367.374 66.8399C366.436 65.2186 365.966 63.1706 365.966 60.6959C365.966 57.0266 367.289 54.2746 369.934 52.4399C372.58 50.6052 376.526 49.5812 381.774 49.3679L387.598 49.1759V48.0879C387.598 45.9972 387.129 44.5466 386.19 43.7359C385.252 42.8826 383.929 42.4559 382.222 42.4559C380.644 42.4559 379.022 42.7119 377.358 43.2239C375.694 43.7359 374.052 44.3546 372.43 45.0799L369.614 38.4879C371.449 37.5492 373.54 36.8026 375.886 36.2479C378.276 35.6932 380.878 35.4159 383.694 35.4159ZM383.95 54.9999C380.921 55.0852 378.809 55.5759 377.614 56.4719C376.42 57.3679 375.822 58.6266 375.822 60.2479C375.822 61.7412 376.228 62.8506 377.038 63.5759C377.892 64.2586 379.022 64.5999 380.43 64.5999C382.436 64.5999 384.121 64.0026 385.486 62.8079C386.894 61.6132 387.598 59.9066 387.598 57.6879V54.8079L383.95 54.9999Z" fill="url(#paint39_linear_112_3950)"/>
<path d="M360.031 35.4159C360.671 35.4159 361.354 35.4586 362.079 35.5439C362.847 35.5866 363.445 35.6719 363.871 35.7999L362.911 44.8239C362.442 44.7386 361.887 44.6532 361.247 44.5679C360.607 44.4826 359.839 44.4399 358.943 44.4399C357.962 44.4399 356.959 44.5892 355.935 44.8879C354.954 45.1866 354.037 45.6772 353.183 46.3599C352.33 47.0426 351.647 47.9386 351.135 49.0479C350.623 50.1572 350.367 51.5652 350.367 53.2719V70.9999H340.703V36.0559H348.063L349.471 41.9439H349.919C350.602 40.7066 351.455 39.5972 352.479 38.6159C353.503 37.6346 354.655 36.8666 355.935 36.3119C357.215 35.7146 358.581 35.4159 360.031 35.4159Z" fill="url(#paint40_linear_112_3950)"/>
<path d="M325.641 70.9999H315.849V33.4319H303.497V25.3039H337.993V33.4319H325.641V70.9999Z" fill="url(#paint41_linear_112_3950)"/>
<defs>
<filter id="filter0_f_112_3950" x="283.497" y="14.2959" width="830.16" height="104.064" filterUnits="userSpaceOnUse" color-interpolation-filters="sRGB">
<feFlood flood-opacity="0" result="BackgroundImageFix"/>
<feBlend mode="normal" in="SourceGraphic" in2="BackgroundImageFix" result="shape"/>
<feGaussianBlur stdDeviation="10" result="effect1_foregroundBlur_112_3950"/>
</filter>
<linearGradient id="paint0_linear_112_3950" x1="202" y1="64.0036" x2="1197" y2="64.0025" gradientUnits="userSpaceOnUse">
<stop stop-color="white" stop-opacity="0.3"/>
<stop offset="0.359008" stop-color="#CBB0F8"/>
<stop offset="0.788712" stop-color="#FCD9ED"/>
<stop offset="1" stop-color="white" stop-opacity="0.3"/>
</linearGradient>
<linearGradient id="paint1_linear_112_3950" x1="1174.42" y1="65.6779" x2="-18033.6" y2="65.7319" gradientUnits="userSpaceOnUse">
<stop stop-color="#F4439F"/>
<stop offset="1" stop-color="#7C3AED"/>
</linearGradient>
<linearGradient id="paint2_linear_112_3950" x1="2162.74" y1="53.8985" x2="-17312" y2="53.9393" gradientUnits="userSpaceOnUse">
<stop stop-color="#F4439F"/>
<stop offset="1" stop-color="#7C3AED"/>
</linearGradient>
<linearGradient id="paint3_linear_112_3950" x1="2268.84" y1="53.4432" x2="-9471.92" y2="53.4575" gradientUnits="userSpaceOnUse">
<stop stop-color="#F4439F"/>
<stop offset="1" stop-color="#7C3AED"/>
</linearGradient>
<linearGradient id="paint4_linear_112_3950" x1="5657.25" y1="53.8985" x2="-18051.1" y2="53.959" gradientUnits="userSpaceOnUse">
<stop stop-color="#F4439F"/>
<stop offset="1" stop-color="#7C3AED"/>
</linearGradient>
<linearGradient id="paint5_linear_112_3950" x1="5635.13" y1="53.8985" x2="-13839.6" y2="53.9393" gradientUnits="userSpaceOnUse">
<stop stop-color="#F4439F"/>
<stop offset="1" stop-color="#7C3AED"/>
</linearGradient>
<linearGradient id="paint6_linear_112_3950" x1="6526.92" y1="48.2344" x2="-12643.5" y2="48.2901" gradientUnits="userSpaceOnUse">
<stop stop-color="#F4439F"/>
<stop offset="1" stop-color="#7C3AED"/>
</linearGradient>
<linearGradient id="paint7_linear_112_3950" x1="7813.62" y1="53.8985" x2="-12299.6" y2="53.942" gradientUnits="userSpaceOnUse">
<stop stop-color="#F4439F"/>
<stop offset="1" stop-color="#7C3AED"/>
</linearGradient>
<linearGradient id="paint8_linear_112_3950" x1="8401.57" y1="48.2344" x2="-10806.4" y2="48.2903" gradientUnits="userSpaceOnUse">
<stop stop-color="#F4439F"/>
<stop offset="1" stop-color="#7C3AED"/>
</linearGradient>
<linearGradient id="paint9_linear_112_3950" x1="9897.52" y1="53.8986" x2="-9577.22" y2="53.9394" gradientUnits="userSpaceOnUse">
<stop stop-color="#F4439F"/>
<stop offset="1" stop-color="#7C3AED"/>
</linearGradient>
<linearGradient id="paint10_linear_112_3950" x1="10722.7" y1="65.6779" x2="-8447.73" y2="65.7317" gradientUnits="userSpaceOnUse">
<stop stop-color="#F4439F"/>
<stop offset="1" stop-color="#7C3AED"/>
</linearGradient>
<linearGradient id="paint11_linear_112_3950" x1="12226.9" y1="54.2511" x2="-7170.82" y2="54.2909" gradientUnits="userSpaceOnUse">
<stop stop-color="#F4439F"/>
<stop offset="1" stop-color="#7C3AED"/>
</linearGradient>
<linearGradient id="paint12_linear_112_3950" x1="12657.6" y1="53.8986" x2="-5861.8" y2="53.9355" gradientUnits="userSpaceOnUse">
<stop stop-color="#F4439F"/>
<stop offset="1" stop-color="#7C3AED"/>
</linearGradient>
<linearGradient id="paint13_linear_112_3950" x1="41566.9" y1="66.1333" x2="-18282.4" y2="66.6515" gradientUnits="userSpaceOnUse">
<stop stop-color="#F4439F"/>
<stop offset="1" stop-color="#7C3AED"/>
</linearGradient>
<linearGradient id="paint14_linear_112_3950" x1="19156.7" y1="60.9118" x2="-6741.14" y2="60.9975" gradientUnits="userSpaceOnUse">
<stop stop-color="#F4439F"/>
<stop offset="1" stop-color="#7C3AED"/>
</linearGradient>
<linearGradient id="paint15_linear_112_3950" x1="17387" y1="53.8986" x2="-4869.87" y2="53.9519" gradientUnits="userSpaceOnUse">
<stop stop-color="#F4439F"/>
<stop offset="1" stop-color="#7C3AED"/>
</linearGradient>
<linearGradient id="paint16_linear_112_3950" x1="16172.2" y1="53.0988" x2="-3225.58" y2="53.1386" gradientUnits="userSpaceOnUse">
<stop stop-color="#F4439F"/>
<stop offset="1" stop-color="#7C3AED"/>
</linearGradient>
<linearGradient id="paint17_linear_112_3950" x1="16996.8" y1="65.6779" x2="-2173.63" y2="65.7317" gradientUnits="userSpaceOnUse">
<stop stop-color="#F4439F"/>
<stop offset="1" stop-color="#7C3AED"/>
</linearGradient>
<linearGradient id="paint18_linear_112_3950" x1="18798.4" y1="53.8986" x2="-1314.83" y2="53.9421" gradientUnits="userSpaceOnUse">
<stop stop-color="#F4439F"/>
<stop offset="1" stop-color="#7C3AED"/>
</linearGradient>
<linearGradient id="paint19_linear_112_3950" x1="26097.5" y1="54.2511" x2="-1016.5" y2="54.3289" gradientUnits="userSpaceOnUse">
<stop stop-color="#F4439F"/>
<stop offset="1" stop-color="#7C3AED"/>
</linearGradient>
<linearGradient id="paint20_linear_112_3950" x1="1097" y1="58.4997" x2="302" y2="58.4999" gradientUnits="userSpaceOnUse">
<stop stop-color="#F4439F"/>
<stop offset="1" stop-color="#7C3AED"/>
</linearGradient>
<linearGradient id="paint21_linear_112_3950" x1="699.5" y1="72" x2="699.5" y2="117" gradientUnits="userSpaceOnUse">
<stop offset="0.0001" stop-color="white" stop-opacity="0.1"/>
<stop offset="1" stop-color="white" stop-opacity="0"/>
</linearGradient>
<linearGradient id="paint22_linear_112_3950" x1="1174.42" y1="-2.87211" x2="1037.59" y2="1656.63" gradientUnits="userSpaceOnUse">
<stop stop-color="#F4439F"/>
<stop offset="1" stop-color="#7C3AED"/>
</linearGradient>
<linearGradient id="paint23_linear_112_3950" x1="2162.74" y1="-35.0334" x2="1914.31" y2="2210.46" gradientUnits="userSpaceOnUse">
<stop stop-color="#F4439F"/>
<stop offset="1" stop-color="#7C3AED"/>
</linearGradient>
<linearGradient id="paint24_linear_112_3950" x1="2268.84" y1="-38.3068" x2="1836.25" y2="2235.64" gradientUnits="userSpaceOnUse">
<stop stop-color="#F4439F"/>
<stop offset="1" stop-color="#7C3AED"/>
</linearGradient>
<linearGradient id="paint25_linear_112_3950" x1="5657.25" y1="-35.0334" x2="5452.38" y2="2219.33" gradientUnits="userSpaceOnUse">
<stop stop-color="#F4439F"/>
<stop offset="1" stop-color="#7C3AED"/>
</linearGradient>
<linearGradient id="paint26_linear_112_3950" x1="5635.13" y1="-35.0334" x2="5386.69" y2="2210.46" gradientUnits="userSpaceOnUse">
<stop stop-color="#F4439F"/>
<stop offset="1" stop-color="#7C3AED"/>
</linearGradient>
<linearGradient id="paint27_linear_112_3950" x1="6526.92" y1="-18.4684" x2="6398.57" y2="1587.49" gradientUnits="userSpaceOnUse">
<stop stop-color="#F4439F"/>
<stop offset="1" stop-color="#7C3AED"/>
</linearGradient>
<linearGradient id="paint28_linear_112_3950" x1="7813.62" y1="-35.0335" x2="7572.89" y2="2212.16" gradientUnits="userSpaceOnUse">
<stop stop-color="#F4439F"/>
<stop offset="1" stop-color="#7C3AED"/>
</linearGradient>
<linearGradient id="paint29_linear_112_3950" x1="8401.57" y1="-18.4685" x2="8273.47" y2="1587.53" gradientUnits="userSpaceOnUse">
<stop stop-color="#F4439F"/>
<stop offset="1" stop-color="#7C3AED"/>
</linearGradient>
<linearGradient id="paint30_linear_112_3950" x1="9897.52" y1="-35.0334" x2="9649.08" y2="2210.46" gradientUnits="userSpaceOnUse">
<stop stop-color="#F4439F"/>
<stop offset="1" stop-color="#7C3AED"/>
</linearGradient>
<linearGradient id="paint31_linear_112_3950" x1="10722.7" y1="-2.87211" x2="10585.6" y2="1656.59" gradientUnits="userSpaceOnUse">
<stop stop-color="#F4439F"/>
<stop offset="1" stop-color="#7C3AED"/>
</linearGradient>
<linearGradient id="paint32_linear_112_3950" x1="12226.9" y1="-36.0646" x2="11968.6" y2="2248.58" gradientUnits="userSpaceOnUse">
<stop stop-color="#F4439F"/>
<stop offset="1" stop-color="#7C3AED"/>
</linearGradient>
<linearGradient id="paint33_linear_112_3950" x1="12657.6" y1="-35.0335" x2="12396.6" y2="2207.59" gradientUnits="userSpaceOnUse">
<stop stop-color="#F4439F"/>
<stop offset="1" stop-color="#7C3AED"/>
</linearGradient>
<linearGradient id="paint34_linear_112_3950" x1="41566.9" y1="-3.08555" x2="41521.6" y2="1686.25" gradientUnits="userSpaceOnUse">
<stop stop-color="#F4439F"/>
<stop offset="1" stop-color="#7C3AED"/>
</linearGradient>
<linearGradient id="paint35_linear_112_3950" x1="19156.7" y1="-15.8851" x2="19023.2" y2="1889.2" gradientUnits="userSpaceOnUse">
<stop stop-color="#F4439F"/>
<stop offset="1" stop-color="#7C3AED"/>
</linearGradient>
<linearGradient id="paint36_linear_112_3950" x1="17387" y1="-35.0335" x2="17169" y2="2216.84" gradientUnits="userSpaceOnUse">
<stop stop-color="#F4439F"/>
<stop offset="1" stop-color="#7C3AED"/>
</linearGradient>
<linearGradient id="paint37_linear_112_3950" x1="16172.2" y1="-37.2168" x2="15913.8" y2="2247.43" gradientUnits="userSpaceOnUse">
<stop stop-color="#F4439F"/>
<stop offset="1" stop-color="#7C3AED"/>
</linearGradient>
<linearGradient id="paint38_linear_112_3950" x1="16996.8" y1="-2.87209" x2="16859.7" y2="1656.59" gradientUnits="userSpaceOnUse">
<stop stop-color="#F4439F"/>
<stop offset="1" stop-color="#7C3AED"/>
</linearGradient>
<linearGradient id="paint39_linear_112_3950" x1="18798.4" y1="-35.0335" x2="18557.7" y2="2212.16" gradientUnits="userSpaceOnUse">
<stop stop-color="#F4439F"/>
<stop offset="1" stop-color="#7C3AED"/>
</linearGradient>
<linearGradient id="paint40_linear_112_3950" x1="26097.5" y1="-36.0645" x2="25911.5" y2="2262.75" gradientUnits="userSpaceOnUse">
<stop stop-color="#F4439F"/>
<stop offset="1" stop-color="#7C3AED"/>
</linearGradient>
<linearGradient id="paint41_linear_112_3950" x1="1097" y1="2.99971" x2="508.798" y2="386.831" gradientUnits="userSpaceOnUse">
<stop stop-color="#F4439F"/>
<stop offset="1" stop-color="#7C3AED"/>
</linearGradient>
</defs>
</svg>
