<svg width="1400" height="120" viewBox="0 0 1400 120" fill="none" xmlns="http://www.w3.org/2000/svg">
<path d="M292 56H1108V72H292V56Z" fill="url(#paint0_linear_112_4094)"/>
<mask id="mask0_112_4094" style="mask-type:alpha" maskUnits="userSpaceOnUse" x="292" y="72" width="816" height="45">
<path d="M292 72H1108V117H292V72Z" fill="#C4C4C4"/>
</mask>
<g mask="url(#mask0_112_4094)">
<g filter="url(#filter0_f_112_4094)">
<path d="M999.65 76.0239C1000.72 76.0239 1001.74 75.9172 1002.72 75.7039C1003.7 75.4906 1004.68 75.2346 1005.67 74.9359V82.0399C1004.64 82.4666 1003.36 82.8292 1001.83 83.1279C1000.33 83.4692 998.69 83.6399 996.898 83.6399C994.807 83.6399 992.93 83.2986 991.266 82.6159C989.644 81.9332 988.343 80.7599 987.362 79.0959C986.423 77.3892 985.954 75.0426 985.954 72.0559V55.2239H981.41V51.1919L986.658 47.9919L989.41 40.6319H995.49V48.0559H1005.28V55.2239H995.49V72.0559C995.49 73.3786 995.874 74.3812 996.642 75.0639C997.41 75.7039 998.412 76.0239 999.65 76.0239Z" fill="url(#paint1_linear_112_4094)" fill-opacity="0.7"/>
<path d="M975.177 48.0559V82.9999H967.753L966.537 78.5199H965.961C965.235 79.7146 964.297 80.6959 963.145 81.4639C962.035 82.2319 960.798 82.7866 959.433 83.1279C958.11 83.4692 956.702 83.6399 955.209 83.6399C952.734 83.6399 950.558 83.1919 948.681 82.2959C946.846 81.3999 945.395 80.0132 944.329 78.1359C943.305 76.2586 942.793 73.8266 942.793 70.8399V48.0559H952.521V68.4079C952.521 70.8826 952.947 72.7599 953.801 74.0399C954.697 75.2772 956.105 75.8959 958.025 75.8959C959.987 75.8959 961.502 75.4692 962.569 74.6159C963.678 73.7199 964.446 72.4186 964.873 70.7119C965.299 69.0052 965.513 66.9146 965.513 64.4399V48.0559H975.177Z" fill="url(#paint2_linear_112_4094)" fill-opacity="0.7"/>
<path d="M922.131 47.4159C926.184 47.4159 929.384 48.9519 931.731 52.0239C934.078 55.0532 935.251 59.5332 935.251 65.4639C935.251 69.3892 934.675 72.7172 933.523 75.4479C932.414 78.1786 930.856 80.2266 928.851 81.5919C926.846 82.9572 924.52 83.6399 921.875 83.6399C920.168 83.6399 918.696 83.4266 917.459 82.9999C916.222 82.5306 915.176 81.9759 914.323 81.3359C913.512 80.6532 912.808 79.9492 912.211 79.2239H911.827C911.912 79.9919 911.998 80.8879 912.083 81.9119C912.168 82.8932 912.211 83.9172 912.211 84.9839V98.3599H902.547V48.0559H910.419L911.763 52.5999H912.211C912.851 51.6186 913.598 50.7439 914.451 49.9759C915.347 49.2079 916.414 48.5892 917.651 48.1199C918.931 47.6506 920.424 47.4159 922.131 47.4159ZM918.931 55.0959C917.31 55.0959 916.008 55.4372 915.027 56.1199C914.046 56.8026 913.342 57.8266 912.915 59.1919C912.488 60.5572 912.254 62.2852 912.211 64.3759V65.3999C912.211 67.6186 912.403 69.5172 912.787 71.0959C913.214 72.6319 913.918 73.8052 914.899 74.6159C915.923 75.4266 917.288 75.8319 918.995 75.8319C920.446 75.8319 921.64 75.4266 922.579 74.6159C923.56 73.8052 924.286 72.6319 924.755 71.0959C925.224 69.5172 925.459 67.5972 925.459 65.3359C925.459 61.8799 924.904 59.3199 923.795 57.6559C922.728 55.9492 921.107 55.0959 918.931 55.0959Z" fill="url(#paint3_linear_112_4094)" fill-opacity="0.7"/>
<path d="M880.89 47.4159C884.73 47.4159 887.759 48.4186 889.978 50.4239C892.197 52.4292 893.306 55.6932 893.306 60.2159V82.9999H883.706V62.6479C883.706 60.1306 883.237 58.2532 882.298 57.0159C881.402 55.7359 879.994 55.0959 878.074 55.0959C875.173 55.0959 873.189 56.0986 872.122 58.1039C871.098 60.0666 870.586 62.9039 870.586 66.6159V82.9999H860.922V48.0559H868.346L869.69 52.7279H870.074C870.842 51.5759 871.759 50.6159 872.826 49.8479C873.935 49.0372 875.151 48.4399 876.474 48.0559C877.839 47.6292 879.311 47.4159 880.89 47.4159Z" fill="url(#paint4_linear_112_4094)" fill-opacity="0.7"/>
<path d="M851.525 48.0559V82.9999H841.861V48.0559H851.525ZM846.725 34.2959C848.133 34.2959 849.349 34.6372 850.373 35.3199C851.44 35.9599 851.973 37.1972 851.973 39.0319C851.973 40.7812 851.44 41.9972 850.373 42.6799C849.349 43.3626 848.133 43.7039 846.725 43.7039C845.274 43.7039 844.037 43.3626 843.013 42.6799C841.989 41.9972 841.477 40.7812 841.477 39.0319C841.477 37.1972 841.989 35.9599 843.013 35.3199C844.037 34.6372 845.274 34.2959 846.725 34.2959Z" fill="url(#paint5_linear_112_4094)" fill-opacity="0.7"/>
<path d="M815.775 48.0559V82.9999H806.111V48.0559H815.775ZM810.975 34.2959C812.383 34.2959 813.599 34.6372 814.623 35.3199C815.69 35.9599 816.223 37.1972 816.223 39.0319C816.223 40.7812 815.69 41.9972 814.623 42.6799C813.599 43.3626 812.383 43.7039 810.975 43.7039C809.524 43.7039 808.287 43.3626 807.263 42.6799C806.239 41.9972 805.727 40.7812 805.727 39.0319C805.727 37.1972 806.239 35.9599 807.263 35.3199C808.287 34.6372 809.524 34.2959 810.975 34.2959Z" fill="url(#paint6_linear_112_4094)" fill-opacity="0.7"/>
<path d="M777.066 83.6399C773.226 83.6399 770.068 82.1252 767.594 79.0959C765.162 76.0239 763.946 71.5226 763.946 65.5919C763.946 59.5759 765.183 55.0532 767.658 52.0239C770.132 48.9519 773.375 47.4159 777.386 47.4159C779.05 47.4159 780.479 47.6506 781.674 48.1199C782.911 48.5466 783.978 49.1439 784.874 49.9119C785.77 50.6799 786.538 51.5546 787.178 52.5359H787.498C787.37 51.7679 787.242 50.7012 787.114 49.3359C787.028 47.9279 786.986 46.6479 786.986 45.4959V34.3599H796.714V82.9999H789.29L787.37 78.4559H786.986C786.388 79.4372 785.642 80.3119 784.746 81.0799C783.85 81.8479 782.762 82.4666 781.482 82.9359C780.244 83.4052 778.772 83.6399 777.066 83.6399ZM780.458 75.8959C783.103 75.8959 784.959 75.1492 786.026 73.6559C787.092 72.1199 787.626 69.7946 787.626 66.6799V65.6559C787.626 62.2852 787.114 59.7039 786.09 57.9119C785.066 56.1199 783.167 55.2239 780.394 55.2239C778.303 55.2239 776.66 56.1199 775.466 57.9119C774.314 59.7039 773.738 62.3066 773.738 65.7199C773.738 69.1332 774.314 71.6932 775.466 73.3999C776.66 75.0639 778.324 75.8959 780.458 75.8959Z" fill="url(#paint7_linear_112_4094)" fill-opacity="0.7"/>
<path d="M725.709 47.4159C728.952 47.4159 731.746 48.0346 734.093 49.2719C736.44 50.4666 738.232 52.2586 739.469 54.6479C740.749 56.9946 741.389 59.8746 741.389 63.2879V67.9599H718.925C719.01 70.6052 719.821 72.6959 721.357 74.2319C722.893 75.7252 725.09 76.4719 727.949 76.4719C730.125 76.4719 732.109 76.2586 733.901 75.8319C735.693 75.4052 737.528 74.7652 739.405 73.9119V81.1439C737.698 81.9972 735.885 82.6159 733.965 82.9999C732.088 83.4266 729.741 83.6399 726.925 83.6399C723.469 83.6399 720.397 82.9999 717.709 81.7199C715.064 80.4399 712.973 78.4772 711.437 75.8319C709.901 73.1439 709.133 69.7946 709.133 65.7839C709.133 61.6879 709.816 58.2959 711.181 55.6079C712.589 52.8772 714.53 50.8292 717.005 49.4639C719.522 48.0986 722.424 47.4159 725.709 47.4159ZM725.965 54.2639C724.045 54.2639 722.488 54.8826 721.293 56.1199C720.098 57.3146 719.394 59.1066 719.181 61.4959H732.365C732.365 60.0879 732.13 58.8506 731.661 57.7839C731.192 56.7172 730.466 55.8639 729.485 55.2239C728.546 54.5839 727.373 54.2639 725.965 54.2639Z" fill="url(#paint8_linear_112_4094)" fill-opacity="0.7"/>
<path d="M689.14 47.4159C692.98 47.4159 696.009 48.4186 698.228 50.4239C700.447 52.4292 701.556 55.6932 701.556 60.2159V82.9999H691.956V62.6479C691.956 60.1306 691.487 58.2532 690.548 57.0159C689.652 55.7359 688.244 55.0959 686.324 55.0959C683.423 55.0959 681.439 56.0986 680.372 58.1039C679.348 60.0666 678.836 62.9039 678.836 66.6159V82.9999H669.172V48.0559H676.596L677.94 52.7279H678.324C679.092 51.5759 680.009 50.6159 681.076 49.8479C682.185 49.0372 683.401 48.4399 684.724 48.0559C686.089 47.6292 687.561 47.4159 689.14 47.4159Z" fill="url(#paint9_linear_112_4094)" fill-opacity="0.7"/>
<path d="M661.428 65.4639C661.428 68.3652 661.023 70.9466 660.212 73.2079C659.444 75.4692 658.313 77.3679 656.82 78.9039C655.369 80.4399 653.599 81.6132 651.508 82.4239C649.417 83.2346 647.049 83.6399 644.404 83.6399C641.929 83.6399 639.668 83.2346 637.62 82.4239C635.572 81.6132 633.801 80.4399 632.308 78.9039C630.815 77.3679 629.641 75.4692 628.788 73.2079C627.935 70.9466 627.508 68.3652 627.508 65.4639C627.508 61.5812 628.191 58.2959 629.556 55.6079C630.921 52.9199 632.884 50.8932 635.444 49.5279C638.004 48.1199 641.055 47.4159 644.596 47.4159C647.881 47.4159 650.783 48.1199 653.3 49.5279C655.817 50.8932 657.801 52.9199 659.252 55.6079C660.703 58.2959 661.428 61.5812 661.428 65.4639ZM637.364 65.4639C637.364 67.7252 637.599 69.6666 638.068 71.2879C638.58 72.9092 639.348 74.1466 640.372 74.9999C641.439 75.8532 642.825 76.2799 644.532 76.2799C646.196 76.2799 647.54 75.8532 648.564 74.9999C649.631 74.1466 650.399 72.9092 650.868 71.2879C651.337 69.6666 651.572 67.7252 651.572 65.4639C651.572 63.1599 651.316 61.2186 650.804 59.6399C650.335 58.0612 649.588 56.8666 648.564 56.0559C647.54 55.2026 646.175 54.7759 644.468 54.7759C641.993 54.7759 640.18 55.6932 639.028 57.5279C637.919 59.3626 637.364 62.0079 637.364 65.4639Z" fill="url(#paint10_linear_112_4094)" fill-opacity="0.7"/>
<path d="M619.775 48.0559V82.9999H610.111V48.0559H619.775ZM614.975 34.2959C616.383 34.2959 617.599 34.6372 618.623 35.3199C619.69 35.9599 620.223 37.1972 620.223 39.0319C620.223 40.7812 619.69 41.9972 618.623 42.6799C617.599 43.3626 616.383 43.7039 614.975 43.7039C613.524 43.7039 612.287 43.3626 611.263 42.6799C610.239 41.9972 609.727 40.7812 609.727 39.0319C609.727 37.1972 610.239 35.9599 611.263 35.3199C612.287 34.6372 613.524 34.2959 614.975 34.2959Z" fill="url(#paint11_linear_112_4094)" fill-opacity="0.7"/>
<path d="M603.381 82.9999H575.733V77.3039L591.861 55.4159H576.629V48.0559H602.805V54.2639L587.125 75.5759H603.381V82.9999Z" fill="url(#paint12_linear_112_4094)" fill-opacity="0.7"/>
<path d="M569.052 48.0559V82.9999H561.628L560.412 78.5199H559.836C559.11 79.7146 558.172 80.6959 557.02 81.4639C555.91 82.2319 554.673 82.7866 553.308 83.1279C551.985 83.4692 550.577 83.6399 549.084 83.6399C546.609 83.6399 544.433 83.1919 542.556 82.2959C540.721 81.3999 539.27 80.0132 538.204 78.1359C537.18 76.2586 536.668 73.8266 536.668 70.8399V48.0559H546.396V68.4079C546.396 70.8826 546.822 72.7599 547.676 74.0399C548.572 75.2772 549.98 75.8959 551.9 75.8959C553.862 75.8959 555.377 75.4692 556.444 74.6159C557.553 73.7199 558.321 72.4186 558.748 70.7119C559.174 69.0052 559.388 66.9146 559.388 64.4399V48.0559H569.052Z" fill="url(#paint13_linear_112_4094)" fill-opacity="0.7"/>
<path d="M507.878 83.6399C504.038 83.6399 500.881 82.1252 498.406 79.0959C495.974 76.0239 494.758 71.5226 494.758 65.5919C494.758 59.5759 495.995 55.0532 498.47 52.0239C500.945 48.9519 504.187 47.4159 508.198 47.4159C509.862 47.4159 511.291 47.6506 512.486 48.1199C513.723 48.5466 514.79 49.1439 515.686 49.9119C516.582 50.6799 517.35 51.5546 517.99 52.5359H518.31C518.182 51.7679 518.054 50.7012 517.926 49.3359C517.841 47.9279 517.798 46.6479 517.798 45.4959V34.3599H527.526V82.9999H520.102L518.182 78.4559H517.798C517.201 79.4372 516.454 80.3119 515.558 81.0799C514.662 81.8479 513.574 82.4666 512.294 82.9359C511.057 83.4052 509.585 83.6399 507.878 83.6399ZM511.27 75.8959C513.915 75.8959 515.771 75.1492 516.838 73.6559C517.905 72.1199 518.438 69.7946 518.438 66.6799V65.6559C518.438 62.2852 517.926 59.7039 516.902 57.9119C515.878 56.1199 513.979 55.2239 511.206 55.2239C509.115 55.2239 507.473 56.1199 506.278 57.9119C505.126 59.7039 504.55 62.3066 504.55 65.7199C504.55 69.1332 505.126 71.6932 506.278 73.3999C507.473 75.0639 509.137 75.8959 511.27 75.8959Z" fill="url(#paint14_linear_112_4094)" fill-opacity="0.7"/>
<path d="M473.726 47.4159C478.12 47.4159 481.47 48.4612 483.774 50.5519C486.078 52.5999 487.23 55.6506 487.23 59.7039V82.9999H480.51L478.654 78.2639H478.398C477.416 79.5012 476.392 80.5252 475.326 81.3359C474.302 82.1466 473.107 82.7226 471.742 83.0639C470.376 83.4479 468.712 83.6399 466.75 83.6399C464.702 83.6399 462.867 83.2559 461.246 82.4879C459.624 81.6772 458.344 80.4612 457.406 78.8399C456.467 77.2186 455.998 75.1706 455.998 72.6959C455.998 69.0266 457.32 66.2746 459.966 64.4399C462.611 62.6052 466.558 61.5812 471.806 61.3679L477.63 61.1759V60.0879C477.63 57.9972 477.16 56.5466 476.222 55.7359C475.283 54.8826 473.96 54.4559 472.254 54.4559C470.675 54.4559 469.054 54.7119 467.39 55.2239C465.726 55.7359 464.083 56.3546 462.462 57.0799L459.646 50.4879C461.48 49.5492 463.571 48.8026 465.918 48.2479C468.307 47.6932 470.91 47.4159 473.726 47.4159ZM473.982 66.9999C470.952 67.0852 468.84 67.5759 467.646 68.4719C466.451 69.3679 465.854 70.6266 465.854 72.2479C465.854 73.7412 466.259 74.8506 467.07 75.5759C467.923 76.2586 469.054 76.5999 470.462 76.5999C472.467 76.5999 474.152 76.0026 475.518 74.8079C476.926 73.6132 477.63 71.9066 477.63 69.6879V66.8079L473.982 66.9999Z" fill="url(#paint15_linear_112_4094)" fill-opacity="0.7"/>
<path d="M450.063 47.4159C450.703 47.4159 451.385 47.4586 452.111 47.5439C452.879 47.5866 453.476 47.6719 453.903 47.7999L452.943 56.8239C452.473 56.7386 451.919 56.6532 451.279 56.5679C450.639 56.4826 449.871 56.4399 448.975 56.4399C447.993 56.4399 446.991 56.5892 445.967 56.8879C444.985 57.1866 444.068 57.6772 443.215 58.3599C442.361 59.0426 441.679 59.9386 441.167 61.0479C440.655 62.1572 440.399 63.5652 440.399 65.2719V82.9999H430.735V48.0559H438.095L439.503 53.9439H439.951C440.633 52.7066 441.487 51.5972 442.511 50.6159C443.535 49.6346 444.687 48.8666 445.967 48.3119C447.247 47.7146 448.612 47.4159 450.063 47.4159Z" fill="url(#paint16_linear_112_4094)" fill-opacity="0.7"/>
<path d="M415.673 82.9999H405.881V45.4319H393.529V37.3039H428.025V45.4319H415.673V82.9999Z" fill="url(#paint17_linear_112_4094)" fill-opacity="0.7"/>
</g>
</g>
<path d="M292 72H1108V105C1108 111.627 1102.63 117 1096 117H304C297.373 117 292 111.627 292 105V72Z" fill="url(#paint18_linear_112_4094)"/>
<path d="M999.65 64.0239C1000.72 64.0239 1001.74 63.9172 1002.72 63.7039C1003.7 63.4906 1004.68 63.2346 1005.67 62.9359V70.0399C1004.64 70.4666 1003.36 70.8292 1001.83 71.1279C1000.33 71.4692 998.69 71.6399 996.898 71.6399C994.807 71.6399 992.93 71.2986 991.266 70.6159C989.644 69.9332 988.343 68.7599 987.362 67.0959C986.423 65.3892 985.954 63.0426 985.954 60.0559V43.2239H981.41V39.1919L986.658 35.9919L989.41 28.6319H995.49V36.0559H1005.28V43.2239H995.49V60.0559C995.49 61.3786 995.874 62.3812 996.642 63.0639C997.41 63.7039 998.412 64.0239 999.65 64.0239Z" fill="url(#paint19_linear_112_4094)"/>
<path d="M975.177 36.0559V70.9999H967.753L966.537 66.5199H965.961C965.235 67.7146 964.297 68.6959 963.145 69.4639C962.035 70.2319 960.798 70.7866 959.433 71.1279C958.11 71.4692 956.702 71.6399 955.209 71.6399C952.734 71.6399 950.558 71.1919 948.681 70.2959C946.846 69.3999 945.395 68.0132 944.329 66.1359C943.305 64.2586 942.793 61.8266 942.793 58.8399V36.0559H952.521V56.4079C952.521 58.8826 952.947 60.7599 953.801 62.0399C954.697 63.2772 956.105 63.8959 958.025 63.8959C959.987 63.8959 961.502 63.4692 962.569 62.6159C963.678 61.7199 964.446 60.4186 964.873 58.7119C965.299 57.0052 965.513 54.9146 965.513 52.4399V36.0559H975.177Z" fill="url(#paint20_linear_112_4094)"/>
<path d="M922.131 35.4159C926.184 35.4159 929.384 36.9519 931.731 40.0239C934.078 43.0532 935.251 47.5332 935.251 53.4639C935.251 57.3892 934.675 60.7172 933.523 63.4479C932.414 66.1786 930.856 68.2266 928.851 69.5919C926.846 70.9572 924.52 71.6399 921.875 71.6399C920.168 71.6399 918.696 71.4266 917.459 70.9999C916.222 70.5306 915.176 69.9759 914.323 69.3359C913.512 68.6532 912.808 67.9492 912.211 67.2239H911.827C911.912 67.9919 911.998 68.8879 912.083 69.9119C912.168 70.8932 912.211 71.9172 912.211 72.9839V86.3599H902.547V36.0559H910.419L911.763 40.5999H912.211C912.851 39.6186 913.598 38.7439 914.451 37.9759C915.347 37.2079 916.414 36.5892 917.651 36.1199C918.931 35.6506 920.424 35.4159 922.131 35.4159ZM918.931 43.0959C917.31 43.0959 916.008 43.4372 915.027 44.1199C914.046 44.8026 913.342 45.8266 912.915 47.1919C912.488 48.5572 912.254 50.2852 912.211 52.3759V53.3999C912.211 55.6186 912.403 57.5172 912.787 59.0959C913.214 60.6319 913.918 61.8052 914.899 62.6159C915.923 63.4266 917.288 63.8319 918.995 63.8319C920.446 63.8319 921.64 63.4266 922.579 62.6159C923.56 61.8052 924.286 60.6319 924.755 59.0959C925.224 57.5172 925.459 55.5972 925.459 53.3359C925.459 49.8799 924.904 47.3199 923.795 45.6559C922.728 43.9492 921.107 43.0959 918.931 43.0959Z" fill="url(#paint21_linear_112_4094)"/>
<path d="M880.89 35.4159C884.73 35.4159 887.759 36.4186 889.978 38.4239C892.197 40.4292 893.306 43.6932 893.306 48.2159V70.9999H883.706V50.6479C883.706 48.1306 883.237 46.2532 882.298 45.0159C881.402 43.7359 879.994 43.0959 878.074 43.0959C875.173 43.0959 873.189 44.0986 872.122 46.1039C871.098 48.0666 870.586 50.9039 870.586 54.6159V70.9999H860.922V36.0559H868.346L869.69 40.7279H870.074C870.842 39.5759 871.759 38.6159 872.826 37.8479C873.935 37.0372 875.151 36.4399 876.474 36.0559C877.839 35.6292 879.311 35.4159 880.89 35.4159Z" fill="url(#paint22_linear_112_4094)"/>
<path d="M851.525 36.0559V70.9999H841.861V36.0559H851.525ZM846.725 22.2959C848.133 22.2959 849.349 22.6372 850.373 23.3199C851.44 23.9599 851.973 25.1972 851.973 27.0319C851.973 28.7812 851.44 29.9972 850.373 30.6799C849.349 31.3626 848.133 31.7039 846.725 31.7039C845.274 31.7039 844.037 31.3626 843.013 30.6799C841.989 29.9972 841.477 28.7812 841.477 27.0319C841.477 25.1972 841.989 23.9599 843.013 23.3199C844.037 22.6372 845.274 22.2959 846.725 22.2959Z" fill="url(#paint23_linear_112_4094)"/>
<path d="M815.775 36.0559V70.9999H806.111V36.0559H815.775ZM810.975 22.2959C812.383 22.2959 813.599 22.6372 814.623 23.3199C815.69 23.9599 816.223 25.1972 816.223 27.0319C816.223 28.7812 815.69 29.9972 814.623 30.6799C813.599 31.3626 812.383 31.7039 810.975 31.7039C809.524 31.7039 808.287 31.3626 807.263 30.6799C806.239 29.9972 805.727 28.7812 805.727 27.0319C805.727 25.1972 806.239 23.9599 807.263 23.3199C808.287 22.6372 809.524 22.2959 810.975 22.2959Z" fill="url(#paint24_linear_112_4094)"/>
<path d="M777.066 71.6399C773.226 71.6399 770.068 70.1252 767.594 67.0959C765.162 64.0239 763.946 59.5226 763.946 53.5919C763.946 47.5759 765.183 43.0532 767.658 40.0239C770.132 36.9519 773.375 35.4159 777.386 35.4159C779.05 35.4159 780.479 35.6506 781.674 36.1199C782.911 36.5466 783.978 37.1439 784.874 37.9119C785.77 38.6799 786.538 39.5546 787.178 40.5359H787.498C787.37 39.7679 787.242 38.7012 787.114 37.3359C787.028 35.9279 786.986 34.6479 786.986 33.4959V22.3599H796.714V70.9999H789.29L787.37 66.4559H786.986C786.388 67.4372 785.642 68.3119 784.746 69.0799C783.85 69.8479 782.762 70.4666 781.482 70.9359C780.244 71.4052 778.772 71.6399 777.066 71.6399ZM780.458 63.8959C783.103 63.8959 784.959 63.1492 786.026 61.6559C787.092 60.1199 787.626 57.7946 787.626 54.6799V53.6559C787.626 50.2852 787.114 47.7039 786.09 45.9119C785.066 44.1199 783.167 43.2239 780.394 43.2239C778.303 43.2239 776.66 44.1199 775.466 45.9119C774.314 47.7039 773.738 50.3066 773.738 53.7199C773.738 57.1332 774.314 59.6932 775.466 61.3999C776.66 63.0639 778.324 63.8959 780.458 63.8959Z" fill="url(#paint25_linear_112_4094)"/>
<path d="M725.709 35.4159C728.952 35.4159 731.746 36.0346 734.093 37.2719C736.44 38.4666 738.232 40.2586 739.469 42.6479C740.749 44.9946 741.389 47.8746 741.389 51.2879V55.9599H718.925C719.01 58.6052 719.821 60.6959 721.357 62.2319C722.893 63.7252 725.09 64.4719 727.949 64.4719C730.125 64.4719 732.109 64.2586 733.901 63.8319C735.693 63.4052 737.528 62.7652 739.405 61.9119V69.1439C737.698 69.9972 735.885 70.6159 733.965 70.9999C732.088 71.4266 729.741 71.6399 726.925 71.6399C723.469 71.6399 720.397 70.9999 717.709 69.7199C715.064 68.4399 712.973 66.4772 711.437 63.8319C709.901 61.1439 709.133 57.7946 709.133 53.7839C709.133 49.6879 709.816 46.2959 711.181 43.6079C712.589 40.8772 714.53 38.8292 717.005 37.4639C719.522 36.0986 722.424 35.4159 725.709 35.4159ZM725.965 42.2639C724.045 42.2639 722.488 42.8826 721.293 44.1199C720.098 45.3146 719.394 47.1066 719.181 49.4959H732.365C732.365 48.0879 732.13 46.8506 731.661 45.7839C731.192 44.7172 730.466 43.8639 729.485 43.2239C728.546 42.5839 727.373 42.2639 725.965 42.2639Z" fill="url(#paint26_linear_112_4094)"/>
<path d="M689.14 35.4159C692.98 35.4159 696.009 36.4186 698.228 38.4239C700.447 40.4292 701.556 43.6932 701.556 48.2159V70.9999H691.956V50.6479C691.956 48.1306 691.487 46.2532 690.548 45.0159C689.652 43.7359 688.244 43.0959 686.324 43.0959C683.423 43.0959 681.439 44.0986 680.372 46.1039C679.348 48.0666 678.836 50.9039 678.836 54.6159V70.9999H669.172V36.0559H676.596L677.94 40.7279H678.324C679.092 39.5759 680.009 38.6159 681.076 37.8479C682.185 37.0372 683.401 36.4399 684.724 36.0559C686.089 35.6292 687.561 35.4159 689.14 35.4159Z" fill="url(#paint27_linear_112_4094)"/>
<path d="M661.428 53.4639C661.428 56.3652 661.023 58.9466 660.212 61.2079C659.444 63.4692 658.313 65.3679 656.82 66.9039C655.369 68.4399 653.599 69.6132 651.508 70.4239C649.417 71.2346 647.049 71.6399 644.404 71.6399C641.929 71.6399 639.668 71.2346 637.62 70.4239C635.572 69.6132 633.801 68.4399 632.308 66.9039C630.815 65.3679 629.641 63.4692 628.788 61.2079C627.935 58.9466 627.508 56.3652 627.508 53.4639C627.508 49.5812 628.191 46.2959 629.556 43.6079C630.921 40.9199 632.884 38.8932 635.444 37.5279C638.004 36.1199 641.055 35.4159 644.596 35.4159C647.881 35.4159 650.783 36.1199 653.3 37.5279C655.817 38.8932 657.801 40.9199 659.252 43.6079C660.703 46.2959 661.428 49.5812 661.428 53.4639ZM637.364 53.4639C637.364 55.7252 637.599 57.6666 638.068 59.2879C638.58 60.9092 639.348 62.1466 640.372 62.9999C641.439 63.8532 642.825 64.2799 644.532 64.2799C646.196 64.2799 647.54 63.8532 648.564 62.9999C649.631 62.1466 650.399 60.9092 650.868 59.2879C651.337 57.6666 651.572 55.7252 651.572 53.4639C651.572 51.1599 651.316 49.2186 650.804 47.6399C650.335 46.0612 649.588 44.8666 648.564 44.0559C647.54 43.2026 646.175 42.7759 644.468 42.7759C641.993 42.7759 640.18 43.6932 639.028 45.5279C637.919 47.3626 637.364 50.0079 637.364 53.4639Z" fill="url(#paint28_linear_112_4094)"/>
<path d="M619.775 36.0559V70.9999H610.111V36.0559H619.775ZM614.975 22.2959C616.383 22.2959 617.599 22.6372 618.623 23.3199C619.69 23.9599 620.223 25.1972 620.223 27.0319C620.223 28.7812 619.69 29.9972 618.623 30.6799C617.599 31.3626 616.383 31.7039 614.975 31.7039C613.524 31.7039 612.287 31.3626 611.263 30.6799C610.239 29.9972 609.727 28.7812 609.727 27.0319C609.727 25.1972 610.239 23.9599 611.263 23.3199C612.287 22.6372 613.524 22.2959 614.975 22.2959Z" fill="url(#paint29_linear_112_4094)"/>
<path d="M603.381 70.9999H575.733V65.3039L591.861 43.4159H576.629V36.0559H602.805V42.2639L587.125 63.5759H603.381V70.9999Z" fill="url(#paint30_linear_112_4094)"/>
<path d="M569.052 36.0559V70.9999H561.628L560.412 66.5199H559.836C559.11 67.7146 558.172 68.6959 557.02 69.4639C555.91 70.2319 554.673 70.7866 553.308 71.1279C551.985 71.4692 550.577 71.6399 549.084 71.6399C546.609 71.6399 544.433 71.1919 542.556 70.2959C540.721 69.3999 539.27 68.0132 538.204 66.1359C537.18 64.2586 536.668 61.8266 536.668 58.8399V36.0559H546.396V56.4079C546.396 58.8826 546.822 60.7599 547.676 62.0399C548.572 63.2772 549.98 63.8959 551.9 63.8959C553.862 63.8959 555.377 63.4692 556.444 62.6159C557.553 61.7199 558.321 60.4186 558.748 58.7119C559.174 57.0052 559.388 54.9146 559.388 52.4399V36.0559H569.052Z" fill="url(#paint31_linear_112_4094)"/>
<path d="M507.878 71.6399C504.038 71.6399 500.881 70.1252 498.406 67.0959C495.974 64.0239 494.758 59.5226 494.758 53.5919C494.758 47.5759 495.995 43.0532 498.47 40.0239C500.945 36.9519 504.187 35.4159 508.198 35.4159C509.862 35.4159 511.291 35.6506 512.486 36.1199C513.723 36.5466 514.79 37.1439 515.686 37.9119C516.582 38.6799 517.35 39.5546 517.99 40.5359H518.31C518.182 39.7679 518.054 38.7012 517.926 37.3359C517.841 35.9279 517.798 34.6479 517.798 33.4959V22.3599H527.526V70.9999H520.102L518.182 66.4559H517.798C517.201 67.4372 516.454 68.3119 515.558 69.0799C514.662 69.8479 513.574 70.4666 512.294 70.9359C511.057 71.4052 509.585 71.6399 507.878 71.6399ZM511.27 63.8959C513.915 63.8959 515.771 63.1492 516.838 61.6559C517.905 60.1199 518.438 57.7946 518.438 54.6799V53.6559C518.438 50.2852 517.926 47.7039 516.902 45.9119C515.878 44.1199 513.979 43.2239 511.206 43.2239C509.115 43.2239 507.473 44.1199 506.278 45.9119C505.126 47.7039 504.55 50.3066 504.55 53.7199C504.55 57.1332 505.126 59.6932 506.278 61.3999C507.473 63.0639 509.137 63.8959 511.27 63.8959Z" fill="url(#paint32_linear_112_4094)"/>
<path d="M473.726 35.4159C478.12 35.4159 481.47 36.4612 483.774 38.5519C486.078 40.5999 487.23 43.6506 487.23 47.7039V70.9999H480.51L478.654 66.2639H478.398C477.416 67.5012 476.392 68.5252 475.326 69.3359C474.302 70.1466 473.107 70.7226 471.742 71.0639C470.376 71.4479 468.712 71.6399 466.75 71.6399C464.702 71.6399 462.867 71.2559 461.246 70.4879C459.624 69.6772 458.344 68.4612 457.406 66.8399C456.467 65.2186 455.998 63.1706 455.998 60.6959C455.998 57.0266 457.32 54.2746 459.966 52.4399C462.611 50.6052 466.558 49.5812 471.806 49.3679L477.63 49.1759V48.0879C477.63 45.9972 477.16 44.5466 476.222 43.7359C475.283 42.8826 473.96 42.4559 472.254 42.4559C470.675 42.4559 469.054 42.7119 467.39 43.2239C465.726 43.7359 464.083 44.3546 462.462 45.0799L459.646 38.4879C461.48 37.5492 463.571 36.8026 465.918 36.2479C468.307 35.6932 470.91 35.4159 473.726 35.4159ZM473.982 54.9999C470.952 55.0852 468.84 55.5759 467.646 56.4719C466.451 57.3679 465.854 58.6266 465.854 60.2479C465.854 61.7412 466.259 62.8506 467.07 63.5759C467.923 64.2586 469.054 64.5999 470.462 64.5999C472.467 64.5999 474.152 64.0026 475.518 62.8079C476.926 61.6132 477.63 59.9066 477.63 57.6879V54.8079L473.982 54.9999Z" fill="url(#paint33_linear_112_4094)"/>
<path d="M450.063 35.4159C450.703 35.4159 451.385 35.4586 452.111 35.5439C452.879 35.5866 453.476 35.6719 453.903 35.7999L452.943 44.8239C452.473 44.7386 451.919 44.6532 451.279 44.5679C450.639 44.4826 449.871 44.4399 448.975 44.4399C447.993 44.4399 446.991 44.5892 445.967 44.8879C444.985 45.1866 444.068 45.6772 443.215 46.3599C442.361 47.0426 441.679 47.9386 441.167 49.0479C440.655 50.1572 440.399 51.5652 440.399 53.2719V70.9999H430.735V36.0559H438.095L439.503 41.9439H439.951C440.633 40.7066 441.487 39.5972 442.511 38.6159C443.535 37.6346 444.687 36.8666 445.967 36.3119C447.247 35.7146 448.612 35.4159 450.063 35.4159Z" fill="url(#paint34_linear_112_4094)"/>
<path d="M415.673 70.9999H405.881V33.4319H393.529V25.3039H428.025V33.4319H415.673V70.9999Z" fill="url(#paint35_linear_112_4094)"/>
<defs>
<filter id="filter0_f_112_4094" x="373.529" y="14.2959" width="652.137" height="104.064" filterUnits="userSpaceOnUse" color-interpolation-filters="sRGB">
<feFlood flood-opacity="0" result="BackgroundImageFix"/>
<feBlend mode="normal" in="SourceGraphic" in2="BackgroundImageFix" result="shape"/>
<feGaussianBlur stdDeviation="10" result="effect1_foregroundBlur_112_4094"/>
</filter>
<linearGradient id="paint0_linear_112_4094" x1="292" y1="64.0036" x2="1108" y2="64.0028" gradientUnits="userSpaceOnUse">
<stop stop-color="white" stop-opacity="0.3"/>
<stop offset="0.495" stop-color="#CBB0F8"/>
<stop offset="1" stop-color="white" stop-opacity="0.3"/>
</linearGradient>
<linearGradient id="paint1_linear_112_4094" x1="1064.58" y1="60.9118" x2="-14481.1" y2="60.9427" gradientUnits="userSpaceOnUse">
<stop stop-color="#F4439F"/>
<stop offset="1" stop-color="#7C3AED"/>
</linearGradient>
<linearGradient id="paint2_linear_112_4094" x1="1626.11" y1="53.0989" x2="-10017.8" y2="53.1132" gradientUnits="userSpaceOnUse">
<stop stop-color="#F4439F"/>
<stop offset="1" stop-color="#7C3AED"/>
</linearGradient>
<linearGradient id="paint3_linear_112_4094" x1="2367.35" y1="48.2344" x2="-9162.64" y2="48.2546" gradientUnits="userSpaceOnUse">
<stop stop-color="#F4439F"/>
<stop offset="1" stop-color="#7C3AED"/>
</linearGradient>
<linearGradient id="paint4_linear_112_4094" x1="3173.66" y1="54.2511" x2="-8470.25" y2="54.2654" gradientUnits="userSpaceOnUse">
<stop stop-color="#F4439F"/>
<stop offset="1" stop-color="#7C3AED"/>
</linearGradient>
<linearGradient id="paint5_linear_112_4094" x1="10105.3" y1="66.1333" x2="-25820.4" y2="66.32" gradientUnits="userSpaceOnUse">
<stop stop-color="#F4439F"/>
<stop offset="1" stop-color="#7C3AED"/>
</linearGradient>
<linearGradient id="paint6_linear_112_4094" x1="12190.3" y1="66.1333" x2="-23735.4" y2="66.32" gradientUnits="userSpaceOnUse">
<stop stop-color="#F4439F"/>
<stop offset="1" stop-color="#7C3AED"/>
</linearGradient>
<linearGradient id="paint7_linear_112_4094" x1="4952.7" y1="65.6779" x2="-6554.76" y2="65.6973" gradientUnits="userSpaceOnUse">
<stop stop-color="#F4439F"/>
<stop offset="1" stop-color="#7C3AED"/>
</linearGradient>
<linearGradient id="paint8_linear_112_4094" x1="6065.26" y1="53.8986" x2="-5624.85" y2="53.9133" gradientUnits="userSpaceOnUse">
<stop stop-color="#F4439F"/>
<stop offset="1" stop-color="#7C3AED"/>
</linearGradient>
<linearGradient id="paint9_linear_112_4094" x1="6798.21" y1="54.2512" x2="-4845.7" y2="54.2655" gradientUnits="userSpaceOnUse">
<stop stop-color="#F4439F"/>
<stop offset="1" stop-color="#7C3AED"/>
</linearGradient>
<linearGradient id="paint10_linear_112_4094" x1="7260.07" y1="53.8986" x2="-3856.56" y2="53.9119" gradientUnits="userSpaceOnUse">
<stop stop-color="#F4439F"/>
<stop offset="1" stop-color="#7C3AED"/>
</linearGradient>
<linearGradient id="paint11_linear_112_4094" x1="23621.2" y1="66.1333" x2="-12304.5" y2="66.32" gradientUnits="userSpaceOnUse">
<stop stop-color="#F4439F"/>
<stop offset="1" stop-color="#7C3AED"/>
</linearGradient>
<linearGradient id="paint12_linear_112_4094" x1="9964.09" y1="53.4432" x2="-3674.38" y2="53.4625" gradientUnits="userSpaceOnUse">
<stop stop-color="#F4439F"/>
<stop offset="1" stop-color="#7C3AED"/>
</linearGradient>
<linearGradient id="paint13_linear_112_4094" x1="9302.87" y1="53.0988" x2="-2341.04" y2="53.1132" gradientUnits="userSpaceOnUse">
<stop stop-color="#F4439F"/>
<stop offset="1" stop-color="#7C3AED"/>
</linearGradient>
<linearGradient id="paint14_linear_112_4094" x1="9981.37" y1="65.6779" x2="-1526.09" y2="65.6973" gradientUnits="userSpaceOnUse">
<stop stop-color="#F4439F"/>
<stop offset="1" stop-color="#7C3AED"/>
</linearGradient>
<linearGradient id="paint15_linear_112_4094" x1="11212.6" y1="53.8986" x2="-860.801" y2="53.9143" gradientUnits="userSpaceOnUse">
<stop stop-color="#F4439F"/>
<stop offset="1" stop-color="#7C3AED"/>
</linearGradient>
<linearGradient id="paint16_linear_112_4094" x1="15645.8" y1="54.2511" x2="-629.901" y2="54.2791" gradientUnits="userSpaceOnUse">
<stop stop-color="#F4439F"/>
<stop offset="1" stop-color="#7C3AED"/>
</linearGradient>
<linearGradient id="paint17_linear_112_4094" x1="1008" y1="58.4997" x2="392" y2="58.4998" gradientUnits="userSpaceOnUse">
<stop stop-color="#F4439F"/>
<stop offset="1" stop-color="#7C3AED"/>
</linearGradient>
<linearGradient id="paint18_linear_112_4094" x1="700" y1="72" x2="700" y2="117" gradientUnits="userSpaceOnUse">
<stop offset="0.0001" stop-color="white" stop-opacity="0.1"/>
<stop offset="1" stop-color="white" stop-opacity="0"/>
</linearGradient>
<linearGradient id="paint19_linear_112_4094" x1="1064.58" y1="-15.8851" x2="844.098" y2="1872.82" gradientUnits="userSpaceOnUse">
<stop stop-color="#F4439F"/>
<stop offset="1" stop-color="#7C3AED"/>
</linearGradient>
<linearGradient id="paint20_linear_112_4094" x1="1626.11" y1="-37.2168" x2="1205.18" y2="2197.35" gradientUnits="userSpaceOnUse">
<stop stop-color="#F4439F"/>
<stop offset="1" stop-color="#7C3AED"/>
</linearGradient>
<linearGradient id="paint21_linear_112_4094" x1="2367.35" y1="-18.4685" x2="2156.32" y2="1569.7" gradientUnits="userSpaceOnUse">
<stop stop-color="#F4439F"/>
<stop offset="1" stop-color="#7C3AED"/>
</linearGradient>
<linearGradient id="paint22_linear_112_4094" x1="3173.66" y1="-36.0646" x2="2752.74" y2="2198.5" gradientUnits="userSpaceOnUse">
<stop stop-color="#F4439F"/>
<stop offset="1" stop-color="#7C3AED"/>
</linearGradient>
<linearGradient id="paint23_linear_112_4094" x1="10105.3" y1="-3.08556" x2="10030.1" y2="1684.1" gradientUnits="userSpaceOnUse">
<stop stop-color="#F4439F"/>
<stop offset="1" stop-color="#7C3AED"/>
</linearGradient>
<linearGradient id="paint24_linear_112_4094" x1="12190.3" y1="-3.08555" x2="12115" y2="1684.1" gradientUnits="userSpaceOnUse">
<stop stop-color="#F4439F"/>
<stop offset="1" stop-color="#7C3AED"/>
</linearGradient>
<linearGradient id="paint25_linear_112_4094" x1="4952.7" y1="-2.8721" x2="4727.02" y2="1636.85" gradientUnits="userSpaceOnUse">
<stop stop-color="#F4439F"/>
<stop offset="1" stop-color="#7C3AED"/>
</linearGradient>
<linearGradient id="paint26_linear_112_4094" x1="6065.26" y1="-35.0334" x2="5660.09" y2="2163.27" gradientUnits="userSpaceOnUse">
<stop stop-color="#F4439F"/>
<stop offset="1" stop-color="#7C3AED"/>
</linearGradient>
<linearGradient id="paint27_linear_112_4094" x1="6798.21" y1="-36.0645" x2="6377.28" y2="2198.5" gradientUnits="userSpaceOnUse">
<stop stop-color="#F4439F"/>
<stop offset="1" stop-color="#7C3AED"/>
</linearGradient>
<linearGradient id="paint28_linear_112_4094" x1="7260.07" y1="-35.0334" x2="6835.47" y2="2155.65" gradientUnits="userSpaceOnUse">
<stop stop-color="#F4439F"/>
<stop offset="1" stop-color="#7C3AED"/>
</linearGradient>
<linearGradient id="paint29_linear_112_4094" x1="23621.2" y1="-3.08554" x2="23545.9" y2="1684.1" gradientUnits="userSpaceOnUse">
<stop stop-color="#F4439F"/>
<stop offset="1" stop-color="#7C3AED"/>
</linearGradient>
<linearGradient id="paint30_linear_112_4094" x1="9964.09" y1="-38.3068" x2="9588.3" y2="2256.39" gradientUnits="userSpaceOnUse">
<stop stop-color="#F4439F"/>
<stop offset="1" stop-color="#7C3AED"/>
</linearGradient>
<linearGradient id="paint31_linear_112_4094" x1="9302.87" y1="-37.2168" x2="8881.94" y2="2197.35" gradientUnits="userSpaceOnUse">
<stop stop-color="#F4439F"/>
<stop offset="1" stop-color="#7C3AED"/>
</linearGradient>
<linearGradient id="paint32_linear_112_4094" x1="9981.37" y1="-2.87212" x2="9755.69" y2="1636.85" gradientUnits="userSpaceOnUse">
<stop stop-color="#F4439F"/>
<stop offset="1" stop-color="#7C3AED"/>
</linearGradient>
<linearGradient id="paint33_linear_112_4094" x1="11212.6" y1="-35.0335" x2="10819.5" y2="2167.79" gradientUnits="userSpaceOnUse">
<stop stop-color="#F4439F"/>
<stop offset="1" stop-color="#7C3AED"/>
</linearGradient>
<linearGradient id="paint34_linear_112_4094" x1="15645.8" y1="-36.0646" x2="15339.6" y2="2236.52" gradientUnits="userSpaceOnUse">
<stop stop-color="#F4439F"/>
<stop offset="1" stop-color="#7C3AED"/>
</linearGradient>
<linearGradient id="paint35_linear_112_4094" x1="1008" y1="2.9997" x2="490.471" y2="264.675" gradientUnits="userSpaceOnUse">
<stop stop-color="#F4439F"/>
<stop offset="1" stop-color="#7C3AED"/>
</linearGradient>
</defs>
</svg>
