<svg width="1400" height="120" viewBox="0 0 1400 120" fill="none" xmlns="http://www.w3.org/2000/svg">
<path d="M143 56H1257V72H143V56Z" fill="url(#paint0_linear_112_4150)"/>
<mask id="mask0_112_4150" style="mask-type:alpha" maskUnits="userSpaceOnUse" x="143" y="72" width="1114" height="45">
<path d="M143 72H1257V117H143V72Z" fill="#C4C4C4"/>
</mask>
<g mask="url(#mask0_112_4150)">
<g filter="url(#filter0_f_112_4150)">
<path d="M1135.85 47.4159C1139.09 47.4159 1141.89 48.0346 1144.23 49.2719C1146.58 50.4666 1148.37 52.2586 1149.61 54.6479C1150.89 56.9946 1151.53 59.8746 1151.53 63.2879V67.9599H1129.07C1129.15 70.6052 1129.96 72.6959 1131.5 74.2319C1133.03 75.7252 1135.23 76.4719 1138.09 76.4719C1140.27 76.4719 1142.25 76.2586 1144.04 75.8319C1145.83 75.4052 1147.67 74.7652 1149.55 73.9119V81.1439C1147.84 81.9972 1146.03 82.6159 1144.11 82.9999C1142.23 83.4266 1139.88 83.6399 1137.07 83.6399C1133.61 83.6399 1130.54 82.9999 1127.85 81.7199C1125.2 80.4399 1123.11 78.4772 1121.58 75.8319C1120.04 73.1439 1119.27 69.7946 1119.27 65.7839C1119.27 61.6879 1119.96 58.2959 1121.32 55.6079C1122.73 52.8772 1124.67 50.8292 1127.15 49.4639C1129.66 48.0986 1132.56 47.4159 1135.85 47.4159ZM1136.11 54.2639C1134.19 54.2639 1132.63 54.8826 1131.43 56.1199C1130.24 57.3146 1129.54 59.1066 1129.32 61.4959H1142.51C1142.51 60.0879 1142.27 58.8506 1141.8 57.7839C1141.33 56.7172 1140.61 55.8639 1139.63 55.2239C1138.69 54.5839 1137.51 54.2639 1136.11 54.2639Z" fill="url(#paint1_linear_112_4150)" fill-opacity="0.7"/>
<path d="M1099.28 47.4159C1103.12 47.4159 1106.15 48.4186 1108.37 50.4239C1110.59 52.4292 1111.7 55.6932 1111.7 60.2159V82.9999H1102.1V62.6479C1102.1 60.1306 1101.63 58.2532 1100.69 57.0159C1099.79 55.7359 1098.39 55.0959 1096.47 55.0959C1093.56 55.0959 1091.58 56.0986 1090.51 58.1039C1089.49 60.0666 1088.98 62.9039 1088.98 66.6159V82.9999H1079.31V48.0559H1086.74L1088.08 52.7279H1088.47C1089.23 51.5759 1090.15 50.6159 1091.22 49.8479C1092.33 49.0372 1093.54 48.4399 1094.87 48.0559C1096.23 47.6292 1097.7 47.4159 1099.28 47.4159Z" fill="url(#paint2_linear_112_4150)" fill-opacity="0.7"/>
<path d="M1071.57 65.4639C1071.57 68.3652 1071.16 70.9466 1070.35 73.2079C1069.59 75.4692 1068.45 77.3679 1066.96 78.9039C1065.51 80.4399 1063.74 81.6132 1061.65 82.4239C1059.56 83.2346 1057.19 83.6399 1054.55 83.6399C1052.07 83.6399 1049.81 83.2346 1047.76 82.4239C1045.71 81.6132 1043.94 80.4399 1042.45 78.9039C1040.96 77.3679 1039.78 75.4692 1038.93 73.2079C1038.08 70.9466 1037.65 68.3652 1037.65 65.4639C1037.65 61.5812 1038.33 58.2959 1039.7 55.6079C1041.06 52.9199 1043.03 50.8932 1045.59 49.5279C1048.15 48.1199 1051.2 47.4159 1054.74 47.4159C1058.02 47.4159 1060.92 48.1199 1063.44 49.5279C1065.96 50.8932 1067.94 52.9199 1069.39 55.6079C1070.84 58.2959 1071.57 61.5812 1071.57 65.4639ZM1047.51 65.4639C1047.51 67.7252 1047.74 69.6666 1048.21 71.2879C1048.72 72.9092 1049.49 74.1466 1050.51 74.9999C1051.58 75.8532 1052.97 76.2799 1054.67 76.2799C1056.34 76.2799 1057.68 75.8532 1058.71 74.9999C1059.77 74.1466 1060.54 72.9092 1061.01 71.2879C1061.48 69.6666 1061.71 67.7252 1061.71 65.4639C1061.71 63.1599 1061.46 61.2186 1060.95 59.6399C1060.48 58.0612 1059.73 56.8666 1058.71 56.0559C1057.68 55.2026 1056.32 54.7759 1054.61 54.7759C1052.13 54.7759 1050.32 55.6932 1049.17 57.5279C1048.06 59.3626 1047.51 62.0079 1047.51 65.4639Z" fill="url(#paint3_linear_112_4150)" fill-opacity="0.7"/>
<path d="M1029.92 48.0559V82.9999H1020.25V48.0559H1029.92ZM1025.12 34.2959C1026.52 34.2959 1027.74 34.6372 1028.76 35.3199C1029.83 35.9599 1030.36 37.1972 1030.36 39.0319C1030.36 40.7812 1029.83 41.9972 1028.76 42.6799C1027.74 43.3626 1026.52 43.7039 1025.12 43.7039C1023.67 43.7039 1022.43 43.3626 1021.4 42.6799C1020.38 41.9972 1019.87 40.7812 1019.87 39.0319C1019.87 37.1972 1020.38 35.9599 1021.4 35.3199C1022.43 34.6372 1023.67 34.2959 1025.12 34.2959Z" fill="url(#paint4_linear_112_4150)" fill-opacity="0.7"/>
<path d="M1013.52 82.9999H985.874V77.3039L1002 55.4159H986.77V48.0559H1012.95V54.2639L997.266 75.5759H1013.52V82.9999Z" fill="url(#paint5_linear_112_4150)" fill-opacity="0.7"/>
<path d="M979.193 48.0559V82.9999H971.769L970.553 78.5199H969.977C969.251 79.7146 968.313 80.6959 967.161 81.4639C966.051 82.2319 964.814 82.7866 963.449 83.1279C962.126 83.4692 960.718 83.6399 959.225 83.6399C956.75 83.6399 954.574 83.1919 952.697 82.2959C950.862 81.3999 949.411 80.0132 948.345 78.1359C947.321 76.2586 946.809 73.8266 946.809 70.8399V48.0559H956.537V68.4079C956.537 70.8826 956.963 72.7599 957.817 74.0399C958.713 75.2772 960.121 75.8959 962.041 75.8959C964.003 75.8959 965.518 75.4692 966.585 74.6159C967.694 73.7199 968.462 72.4186 968.889 70.7119C969.315 69.0052 969.529 66.9146 969.529 64.4399V48.0559H979.193Z" fill="url(#paint6_linear_112_4150)" fill-opacity="0.7"/>
<path d="M918.019 83.6399C914.179 83.6399 911.022 82.1252 908.547 79.0959C906.115 76.0239 904.899 71.5226 904.899 65.5919C904.899 59.5759 906.136 55.0532 908.611 52.0239C911.086 48.9519 914.328 47.4159 918.339 47.4159C920.003 47.4159 921.432 47.6506 922.627 48.1199C923.864 48.5466 924.931 49.1439 925.827 49.9119C926.723 50.6799 927.491 51.5546 928.131 52.5359H928.451C928.323 51.7679 928.195 50.7012 928.067 49.3359C927.982 47.9279 927.939 46.6479 927.939 45.4959V34.3599H937.667V82.9999H930.243L928.323 78.4559H927.939C927.342 79.4372 926.595 80.3119 925.699 81.0799C924.803 81.8479 923.715 82.4666 922.435 82.9359C921.198 83.4052 919.726 83.6399 918.019 83.6399ZM921.411 75.8959C924.056 75.8959 925.912 75.1492 926.979 73.6559C928.046 72.1199 928.579 69.7946 928.579 66.6799V65.6559C928.579 62.2852 928.067 59.7039 927.043 57.9119C926.019 56.1199 924.12 55.2239 921.347 55.2239C919.256 55.2239 917.614 56.1199 916.419 57.9119C915.267 59.7039 914.691 62.3066 914.691 65.7199C914.691 69.1332 915.267 71.6932 916.419 73.3999C917.614 75.0639 919.278 75.8959 921.411 75.8959Z" fill="url(#paint7_linear_112_4150)" fill-opacity="0.7"/>
<path d="M883.867 47.4159C888.261 47.4159 891.611 48.4612 893.915 50.5519C896.219 52.5999 897.371 55.6506 897.371 59.7039V82.9999H890.651L888.795 78.2639H888.539C887.557 79.5012 886.533 80.5252 885.467 81.3359C884.443 82.1466 883.248 82.7226 881.883 83.0639C880.517 83.4479 878.853 83.6399 876.891 83.6399C874.843 83.6399 873.008 83.2559 871.387 82.4879C869.765 81.6772 868.485 80.4612 867.547 78.8399C866.608 77.2186 866.139 75.1706 866.139 72.6959C866.139 69.0266 867.461 66.2746 870.107 64.4399C872.752 62.6052 876.699 61.5812 881.947 61.3679L887.771 61.1759V60.0879C887.771 57.9972 887.301 56.5466 886.363 55.7359C885.424 54.8826 884.101 54.4559 882.395 54.4559C880.816 54.4559 879.195 54.7119 877.531 55.2239C875.867 55.7359 874.224 56.3546 872.603 57.0799L869.787 50.4879C871.621 49.5492 873.712 48.8026 876.059 48.2479C878.448 47.6932 881.051 47.4159 883.867 47.4159ZM884.123 66.9999C881.093 67.0852 878.981 67.5759 877.787 68.4719C876.592 69.3679 875.995 70.6266 875.995 72.2479C875.995 73.7412 876.4 74.8506 877.211 75.5759C878.064 76.2586 879.195 76.5999 880.603 76.5999C882.608 76.5999 884.293 76.0026 885.659 74.8079C887.067 73.6132 887.771 71.9066 887.771 69.6879V66.8079L884.123 66.9999Z" fill="url(#paint8_linear_112_4150)" fill-opacity="0.7"/>
<path d="M860.204 47.4159C860.844 47.4159 861.526 47.4586 862.252 47.5439C863.02 47.5866 863.617 47.6719 864.044 47.7999L863.084 56.8239C862.614 56.7386 862.06 56.6532 861.42 56.5679C860.78 56.4826 860.012 56.4399 859.116 56.4399C858.134 56.4399 857.132 56.5892 856.108 56.8879C855.126 57.1866 854.209 57.6772 853.356 58.3599C852.502 59.0426 851.82 59.9386 851.308 61.0479C850.796 62.1572 850.54 63.5652 850.54 65.2719V82.9999H840.876V48.0559H848.236L849.644 53.9439H850.092C850.774 52.7066 851.628 51.5972 852.652 50.6159C853.676 49.6346 854.828 48.8666 856.108 48.3119C857.388 47.7146 858.753 47.4159 860.204 47.4159Z" fill="url(#paint9_linear_112_4150)" fill-opacity="0.7"/>
<path d="M828.166 76.0239C829.232 76.0239 830.256 75.9172 831.238 75.7039C832.219 75.4906 833.2 75.2346 834.182 74.9359V82.0399C833.158 82.4666 831.878 82.8292 830.342 83.1279C828.848 83.4692 827.206 83.6399 825.414 83.6399C823.323 83.6399 821.446 83.2986 819.782 82.6159C818.16 81.9332 816.859 80.7599 815.878 79.0959C814.939 77.3892 814.47 75.0426 814.47 72.0559V55.2239H809.926V51.1919L815.174 47.9919L817.926 40.6319H824.006V48.0559H833.798V55.2239H824.006V72.0559C824.006 73.3786 824.39 74.3812 825.158 75.0639C825.926 75.7039 826.928 76.0239 828.166 76.0239Z" fill="url(#paint10_linear_112_4150)" fill-opacity="0.7"/>
<path d="M787.104 48.0559V82.9999H777.44V48.0559H787.104ZM782.304 34.2959C783.712 34.2959 784.928 34.6372 785.952 35.3199C787.018 35.9599 787.552 37.1972 787.552 39.0319C787.552 40.7812 787.018 41.9972 785.952 42.6799C784.928 43.3626 783.712 43.7039 782.304 43.7039C780.853 43.7039 779.616 43.3626 778.592 42.6799C777.568 41.9972 777.056 40.7812 777.056 39.0319C777.056 37.1972 777.568 35.9599 778.592 35.3199C779.616 34.6372 780.853 34.2959 782.304 34.2959Z" fill="url(#paint11_linear_112_4150)" fill-opacity="0.7"/>
<path d="M748.394 83.6399C744.554 83.6399 741.397 82.1252 738.922 79.0959C736.49 76.0239 735.274 71.5226 735.274 65.5919C735.274 59.5759 736.511 55.0532 738.986 52.0239C741.461 48.9519 744.703 47.4159 748.714 47.4159C750.378 47.4159 751.807 47.6506 753.002 48.1199C754.239 48.5466 755.306 49.1439 756.202 49.9119C757.098 50.6799 757.866 51.5546 758.506 52.5359H758.826C758.698 51.7679 758.57 50.7012 758.442 49.3359C758.357 47.9279 758.314 46.6479 758.314 45.4959V34.3599H768.042V82.9999H760.618L758.698 78.4559H758.314C757.717 79.4372 756.97 80.3119 756.074 81.0799C755.178 81.8479 754.09 82.4666 752.81 82.9359C751.573 83.4052 750.101 83.6399 748.394 83.6399ZM751.786 75.8959C754.431 75.8959 756.287 75.1492 757.354 73.6559C758.421 72.1199 758.954 69.7946 758.954 66.6799V65.6559C758.954 62.2852 758.442 59.7039 757.418 57.9119C756.394 56.1199 754.495 55.2239 751.722 55.2239C749.631 55.2239 747.989 56.1199 746.794 57.9119C745.642 59.7039 745.066 62.3066 745.066 65.7199C745.066 69.1332 745.642 71.6932 746.794 73.3999C747.989 75.0639 749.653 75.8959 751.786 75.8959Z" fill="url(#paint12_linear_112_4150)" fill-opacity="0.7"/>
<path d="M710.916 48.0559V82.9999H701.252V48.0559H710.916ZM706.116 34.2959C707.524 34.2959 708.74 34.6372 709.764 35.3199C710.831 35.9599 711.364 37.1972 711.364 39.0319C711.364 40.7812 710.831 41.9972 709.764 42.6799C708.74 43.3626 707.524 43.7039 706.116 43.7039C704.665 43.7039 703.428 43.3626 702.404 42.6799C701.38 41.9972 700.868 40.7812 700.868 39.0319C700.868 37.1972 701.38 35.9599 702.404 35.3199C703.428 34.6372 704.665 34.2959 706.116 34.2959Z" fill="url(#paint13_linear_112_4150)" fill-opacity="0.7"/>
<path d="M688.478 76.0239C689.545 76.0239 690.569 75.9172 691.55 75.7039C692.531 75.4906 693.513 75.2346 694.494 74.9359V82.0399C693.47 82.4666 692.19 82.8292 690.654 83.1279C689.161 83.4692 687.518 83.6399 685.726 83.6399C683.635 83.6399 681.758 83.2986 680.094 82.6159C678.473 81.9332 677.171 80.7599 676.19 79.0959C675.251 77.3892 674.782 75.0426 674.782 72.0559V55.2239H670.238V51.1919L675.486 47.9919L678.238 40.6319H684.318V48.0559H694.11V55.2239H684.318V72.0559C684.318 73.3786 684.702 74.3812 685.47 75.0639C686.238 75.7039 687.241 76.0239 688.478 76.0239Z" fill="url(#paint14_linear_112_4150)" fill-opacity="0.7"/>
<path d="M651.781 47.4159C655.621 47.4159 658.65 48.4186 660.869 50.4239C663.088 52.4292 664.197 55.6932 664.197 60.2159V82.9999H654.597V62.6479C654.597 60.1306 654.128 58.2532 653.189 57.0159C652.293 55.7359 650.885 55.0959 648.965 55.0959C646.064 55.0959 644.08 56.0986 643.013 58.1039C641.989 60.0666 641.477 62.9039 641.477 66.6159V82.9999H631.813V48.0559H639.237L640.581 52.7279H640.965C641.733 51.5759 642.65 50.6159 643.717 49.8479C644.826 49.0372 646.042 48.4399 647.365 48.0559C648.73 47.6292 650.202 47.4159 651.781 47.4159Z" fill="url(#paint15_linear_112_4150)" fill-opacity="0.7"/>
<path d="M608.538 47.4159C611.78 47.4159 614.575 48.0346 616.922 49.2719C619.268 50.4666 621.06 52.2586 622.298 54.6479C623.578 56.9946 624.218 59.8746 624.218 63.2879V67.9599H601.754C601.839 70.6052 602.65 72.6959 604.186 74.2319C605.722 75.7252 607.919 76.4719 610.778 76.4719C612.954 76.4719 614.938 76.2586 616.73 75.8319C618.522 75.4052 620.356 74.7652 622.234 73.9119V81.1439C620.527 81.9972 618.714 82.6159 616.794 82.9999C614.916 83.4266 612.57 83.6399 609.754 83.6399C606.298 83.6399 603.226 82.9999 600.538 81.7199C597.892 80.4399 595.802 78.4772 594.266 75.8319C592.73 73.1439 591.962 69.7946 591.962 65.7839C591.962 61.6879 592.644 58.2959 594.01 55.6079C595.418 52.8772 597.359 50.8292 599.834 49.4639C602.351 48.0986 605.252 47.4159 608.538 47.4159ZM608.794 54.2639C606.874 54.2639 605.316 54.8826 604.122 56.1199C602.927 57.3146 602.223 59.1066 602.01 61.4959H615.194C615.194 60.0879 614.959 58.8506 614.49 57.7839C614.02 56.7172 613.295 55.8639 612.314 55.2239C611.375 54.5839 610.202 54.2639 608.794 54.2639Z" fill="url(#paint16_linear_112_4150)" fill-opacity="0.7"/>
<path d="M572.275 47.4159C576.285 47.4159 579.315 48.4186 581.363 50.4239C583.411 52.4292 584.435 55.6932 584.435 60.2159V82.9999H574.835V62.6479C574.835 59.9599 574.387 58.0399 573.491 56.8879C572.595 55.6932 571.251 55.0959 569.459 55.0959C566.984 55.0959 565.235 56.0132 564.211 57.8479C563.187 59.6399 562.675 62.1999 562.675 65.5279V82.9999H553.011V62.6479C553.011 60.8986 552.819 59.4692 552.435 58.3599C552.051 57.2506 551.475 56.4399 550.707 55.9279C549.939 55.3732 548.957 55.0959 547.763 55.0959C546.013 55.0959 544.627 55.5439 543.603 56.4399C542.621 57.3359 541.917 58.6372 541.491 60.3439C541.107 62.0506 540.915 64.1412 540.915 66.6159V82.9999H531.251V48.0559H538.675L540.083 52.5359H540.403C541.085 51.4692 541.917 50.5519 542.899 49.7839C543.923 49.0159 545.096 48.4399 546.419 48.0559C547.741 47.6292 549.213 47.4159 550.835 47.4159C553.437 47.4159 555.592 47.8639 557.299 48.7599C559.048 49.6559 560.413 50.9572 561.395 52.6639H561.715C562.867 50.9146 564.36 49.6132 566.195 48.7599C568.029 47.8639 570.056 47.4159 572.275 47.4159Z" fill="url(#paint17_linear_112_4150)" fill-opacity="0.7"/>
<path d="M521.818 48.0559V82.9999H514.394L513.178 78.5199H512.602C511.876 79.7146 510.938 80.6959 509.786 81.4639C508.676 82.2319 507.439 82.7866 506.074 83.1279C504.751 83.4692 503.343 83.6399 501.85 83.6399C499.375 83.6399 497.199 83.1919 495.322 82.2959C493.487 81.3999 492.036 80.0132 490.97 78.1359C489.946 76.2586 489.434 73.8266 489.434 70.8399V48.0559H499.162V68.4079C499.162 70.8826 499.588 72.7599 500.442 74.0399C501.338 75.2772 502.746 75.8959 504.666 75.8959C506.628 75.8959 508.143 75.4692 509.21 74.6159C510.319 73.7199 511.087 72.4186 511.514 70.7119C511.94 69.0052 512.154 66.9146 512.154 64.4399V48.0559H521.818Z" fill="url(#paint18_linear_112_4150)" fill-opacity="0.7"/>
<path d="M480.329 47.4159C480.969 47.4159 481.651 47.4586 482.377 47.5439C483.145 47.5866 483.742 47.6719 484.169 47.7999L483.209 56.8239C482.739 56.7386 482.185 56.6532 481.545 56.5679C480.905 56.4826 480.137 56.4399 479.241 56.4399C478.259 56.4399 477.257 56.5892 476.233 56.8879C475.251 57.1866 474.334 57.6772 473.481 58.3599C472.627 59.0426 471.945 59.9386 471.433 61.0479C470.921 62.1572 470.665 63.5652 470.665 65.2719V82.9999H461.001V48.0559H468.361L469.769 53.9439H470.217C470.899 52.7066 471.753 51.5972 472.777 50.6159C473.801 49.6346 474.953 48.8666 476.233 48.3119C477.513 47.7146 478.878 47.4159 480.329 47.4159Z" fill="url(#paint19_linear_112_4150)" fill-opacity="0.7"/>
<path d="M448.291 76.0239C449.357 76.0239 450.381 75.9172 451.363 75.7039C452.344 75.4906 453.325 75.2346 454.307 74.9359V82.0399C453.283 82.4666 452.003 82.8292 450.467 83.1279C448.973 83.4692 447.331 83.6399 445.539 83.6399C443.448 83.6399 441.571 83.2986 439.907 82.6159C438.285 81.9332 436.984 80.7599 436.003 79.0959C435.064 77.3892 434.595 75.0426 434.595 72.0559V55.2239H430.051V51.1919L435.299 47.9919L438.051 40.6319H444.131V48.0559H453.923V55.2239H444.131V72.0559C444.131 73.3786 444.515 74.3812 445.283 75.0639C446.051 75.7039 447.053 76.0239 448.291 76.0239Z" fill="url(#paint20_linear_112_4150)" fill-opacity="0.7"/>
<path d="M425.894 72.6959C425.894 74.9146 425.36 76.8559 424.294 78.5199C423.27 80.1412 421.691 81.3999 419.558 82.2959C417.424 83.1919 414.715 83.6399 411.43 83.6399C408.955 83.6399 406.779 83.4692 404.902 83.1279C403.024 82.8292 401.211 82.3172 399.462 81.5919V73.5919C401.339 74.4879 403.366 75.1919 405.542 75.7039C407.718 76.2159 409.595 76.4719 411.174 76.4719C413.136 76.4719 414.544 76.1946 415.398 75.6399C416.294 75.0852 416.742 74.3386 416.742 73.3999C416.742 72.7599 416.507 72.1839 416.038 71.6719C415.611 71.1599 414.822 70.6266 413.67 70.0719C412.56 69.5172 410.96 68.8346 408.87 68.0239C406.779 67.1706 405.03 66.2959 403.622 65.3999C402.214 64.4612 401.147 63.3519 400.422 62.0719C399.739 60.7919 399.398 59.1919 399.398 57.2719C399.398 54.0719 400.656 51.6399 403.174 49.9759C405.734 48.2692 409.104 47.4159 413.286 47.4159C415.547 47.4159 417.638 47.6506 419.558 48.1199C421.52 48.5892 423.504 49.2506 425.51 50.1039L422.694 56.6959C421.072 55.9706 419.408 55.3732 417.702 54.9039C415.995 54.4346 414.48 54.1999 413.158 54.1999C411.707 54.1999 410.576 54.4346 409.766 54.9039C408.955 55.3306 408.55 55.9492 408.55 56.7599C408.55 57.3572 408.763 57.8906 409.19 58.3599C409.659 58.8292 410.448 59.3199 411.558 59.8319C412.71 60.3439 414.31 61.0052 416.358 61.8159C418.448 62.6266 420.198 63.5012 421.606 64.4399C423.056 65.3359 424.123 66.4452 424.806 67.7679C425.531 69.0479 425.894 70.6906 425.894 72.6959Z" fill="url(#paint21_linear_112_4150)" fill-opacity="0.7"/>
<path d="M375.104 48.0559V82.9999H365.44V48.0559H375.104ZM370.304 34.2959C371.712 34.2959 372.928 34.6372 373.952 35.3199C375.018 35.9599 375.552 37.1972 375.552 39.0319C375.552 40.7812 375.018 41.9972 373.952 42.6799C372.928 43.3626 371.712 43.7039 370.304 43.7039C368.853 43.7039 367.616 43.3626 366.592 42.6799C365.568 41.9972 365.056 40.7812 365.056 39.0319C365.056 37.1972 365.568 35.9599 366.592 35.3199C367.616 34.6372 368.853 34.2959 370.304 34.2959Z" fill="url(#paint22_linear_112_4150)" fill-opacity="0.7"/>
<path d="M356.079 47.4159C356.719 47.4159 357.401 47.4586 358.127 47.5439C358.895 47.5866 359.492 47.6719 359.919 47.7999L358.959 56.8239C358.489 56.7386 357.935 56.6532 357.295 56.5679C356.655 56.4826 355.887 56.4399 354.991 56.4399C354.009 56.4399 353.007 56.5892 351.983 56.8879C351.001 57.1866 350.084 57.6772 349.231 58.3599C348.377 59.0426 347.695 59.9386 347.183 61.0479C346.671 62.1572 346.415 63.5652 346.415 65.2719V82.9999H336.751V48.0559H344.111L345.519 53.9439H345.967C346.649 52.7066 347.503 51.5972 348.527 50.6159C349.551 49.6346 350.703 48.8666 351.983 48.3119C353.263 47.7146 354.628 47.4159 356.079 47.4159Z" fill="url(#paint23_linear_112_4150)" fill-opacity="0.7"/>
<path d="M324.041 76.0239C325.107 76.0239 326.131 75.9172 327.113 75.7039C328.094 75.4906 329.075 75.2346 330.057 74.9359V82.0399C329.033 82.4666 327.753 82.8292 326.217 83.1279C324.723 83.4692 323.081 83.6399 321.289 83.6399C319.198 83.6399 317.321 83.2986 315.657 82.6159C314.035 81.9332 312.734 80.7599 311.753 79.0959C310.814 77.3892 310.345 75.0426 310.345 72.0559V55.2239H305.801V51.1919L311.049 47.9919L313.801 40.6319H319.881V48.0559H329.673V55.2239H319.881V72.0559C319.881 73.3786 320.265 74.3812 321.033 75.0639C321.801 75.7039 322.803 76.0239 324.041 76.0239Z" fill="url(#paint24_linear_112_4150)" fill-opacity="0.7"/>
<path d="M299.602 82.9999H289.938V34.3599H299.602V82.9999Z" fill="url(#paint25_linear_112_4150)" fill-opacity="0.7"/>
<path d="M274.682 82.9999L271.162 72.2479H255.034L251.514 82.9999H240.954L257.018 37.1119H269.05L285.242 82.9999H274.682ZM265.722 54.1359C265.551 53.4959 265.274 52.5359 264.89 51.2559C264.548 49.9759 264.207 48.6746 263.866 47.3519C263.524 45.9866 263.247 44.8772 263.034 44.0239C262.863 45.0052 262.607 46.1359 262.266 47.4159C261.967 48.6959 261.668 49.9332 261.37 51.1279C261.071 52.3226 260.815 53.3252 260.602 54.1359L257.338 64.0559H268.922L265.722 54.1359Z" fill="url(#paint26_linear_112_4150)" fill-opacity="0.7"/>
</g>
</g>
<path d="M143 72H1257V105C1257 111.627 1251.63 117 1245 117H155C148.373 117 143 111.627 143 105V72Z" fill="url(#paint27_linear_112_4150)"/>
<path d="M1138.15 35.4159C1141.39 35.4159 1144.18 36.0346 1146.53 37.2719C1148.88 38.4666 1150.67 40.2586 1151.91 42.6479C1153.19 44.9946 1153.83 47.8746 1153.83 51.2879V55.9599H1131.36C1131.45 58.6052 1132.26 60.6959 1133.79 62.2319C1135.33 63.7252 1137.53 64.4719 1140.39 64.4719C1142.56 64.4719 1144.55 64.2586 1146.34 63.8319C1148.13 63.4052 1149.97 62.7652 1151.84 61.9119V69.1439C1150.14 69.9972 1148.32 70.6159 1146.4 70.9999C1144.53 71.4266 1142.18 71.6399 1139.36 71.6399C1135.91 71.6399 1132.83 70.9999 1130.15 69.7199C1127.5 68.4399 1125.41 66.4772 1123.87 63.8319C1122.34 61.1439 1121.57 57.7946 1121.57 53.7839C1121.57 49.6879 1122.25 46.2959 1123.62 43.6079C1125.03 40.8772 1126.97 38.8292 1129.44 37.4639C1131.96 36.0986 1134.86 35.4159 1138.15 35.4159ZM1138.4 42.2639C1136.48 42.2639 1134.93 42.8826 1133.73 44.1199C1132.54 45.3146 1131.83 47.1066 1131.62 49.4959H1144.8C1144.8 48.0879 1144.57 46.8506 1144.1 45.7839C1143.63 44.7172 1142.9 43.8639 1141.92 43.2239C1140.98 42.5839 1139.81 42.2639 1138.4 42.2639Z" fill="url(#paint28_linear_112_4150)"/>
<path d="M1101.58 35.4159C1105.42 35.4159 1108.45 36.4186 1110.67 38.4239C1112.88 40.4292 1113.99 43.6932 1113.99 48.2159V70.9999H1104.39V50.6479C1104.39 48.1306 1103.92 46.2532 1102.99 45.0159C1102.09 43.7359 1100.68 43.0959 1098.76 43.0959C1095.86 43.0959 1093.88 44.0986 1092.81 46.1039C1091.79 48.0666 1091.27 50.9039 1091.27 54.6159V70.9999H1081.61V36.0559H1089.03L1090.38 40.7279H1090.76C1091.53 39.5759 1092.45 38.6159 1093.51 37.8479C1094.62 37.0372 1095.84 36.4399 1097.16 36.0559C1098.53 35.6292 1100 35.4159 1101.58 35.4159Z" fill="url(#paint29_linear_112_4150)"/>
<path d="M1073.87 53.4639C1073.87 56.3652 1073.46 58.9466 1072.65 61.2079C1071.88 63.4692 1070.75 65.3679 1069.26 66.9039C1067.81 68.4399 1066.04 69.6132 1063.95 70.4239C1061.85 71.2346 1059.49 71.6399 1056.84 71.6399C1054.37 71.6399 1052.11 71.2346 1050.06 70.4239C1048.01 69.6132 1046.24 68.4399 1044.75 66.9039C1043.25 65.3679 1042.08 63.4692 1041.23 61.2079C1040.37 58.9466 1039.95 56.3652 1039.95 53.4639C1039.95 49.5812 1040.63 46.2959 1041.99 43.6079C1043.36 40.9199 1045.32 38.8932 1047.88 37.5279C1050.44 36.1199 1053.49 35.4159 1057.03 35.4159C1060.32 35.4159 1063.22 36.1199 1065.74 37.5279C1068.25 38.8932 1070.24 40.9199 1071.69 43.6079C1073.14 46.2959 1073.87 49.5812 1073.87 53.4639ZM1049.8 53.4639C1049.8 55.7252 1050.04 57.6666 1050.51 59.2879C1051.02 60.9092 1051.79 62.1466 1052.81 62.9999C1053.88 63.8532 1055.26 64.2799 1056.97 64.2799C1058.63 64.2799 1059.98 63.8532 1061 62.9999C1062.07 62.1466 1062.84 60.9092 1063.31 59.2879C1063.77 57.6666 1064.01 55.7252 1064.01 53.4639C1064.01 51.1599 1063.75 49.2186 1063.24 47.6399C1062.77 46.0612 1062.03 44.8666 1061 44.0559C1059.98 43.2026 1058.61 42.7759 1056.91 42.7759C1054.43 42.7759 1052.62 43.6932 1051.47 45.5279C1050.36 47.3626 1049.8 50.0079 1049.8 53.4639Z" fill="url(#paint30_linear_112_4150)"/>
<path d="M1032.21 36.0559V70.9999H1022.55V36.0559H1032.21ZM1027.41 22.2959C1028.82 22.2959 1030.04 22.6372 1031.06 23.3199C1032.13 23.9599 1032.66 25.1972 1032.66 27.0319C1032.66 28.7812 1032.13 29.9972 1031.06 30.6799C1030.04 31.3626 1028.82 31.7039 1027.41 31.7039C1025.96 31.7039 1024.72 31.3626 1023.7 30.6799C1022.68 29.9972 1022.16 28.7812 1022.16 27.0319C1022.16 25.1972 1022.68 23.9599 1023.7 23.3199C1024.72 22.6372 1025.96 22.2959 1027.41 22.2959Z" fill="url(#paint31_linear_112_4150)"/>
<path d="M1015.82 70.9999H988.17V65.3039L1004.3 43.4159H989.066V36.0559H1015.24V42.2639L999.562 63.5759H1015.82V70.9999Z" fill="url(#paint32_linear_112_4150)"/>
<path d="M981.489 36.0559V70.9999H974.065L972.849 66.5199H972.273C971.548 67.7146 970.609 68.6959 969.457 69.4639C968.348 70.2319 967.11 70.7866 965.745 71.1279C964.422 71.4692 963.014 71.6399 961.521 71.6399C959.046 71.6399 956.87 71.1919 954.993 70.2959C953.158 69.3999 951.708 68.0132 950.641 66.1359C949.617 64.2586 949.105 61.8266 949.105 58.8399V36.0559H958.833V56.4079C958.833 58.8826 959.26 60.7599 960.113 62.0399C961.009 63.2772 962.417 63.8959 964.337 63.8959C966.3 63.8959 967.814 63.4692 968.881 62.6159C969.99 61.7199 970.758 60.4186 971.185 58.7119C971.612 57.0052 971.825 54.9146 971.825 52.4399V36.0559H981.489Z" fill="url(#paint33_linear_112_4150)"/>
<path d="M920.315 71.6399C916.475 71.6399 913.318 70.1252 910.844 67.0959C908.412 64.0239 907.195 59.5226 907.195 53.5919C907.195 47.5759 908.433 43.0532 910.907 40.0239C913.382 36.9519 916.625 35.4159 920.635 35.4159C922.299 35.4159 923.729 35.6506 924.924 36.1199C926.161 36.5466 927.227 37.1439 928.123 37.9119C929.019 38.6799 929.787 39.5546 930.427 40.5359H930.747C930.619 39.7679 930.492 38.7012 930.364 37.3359C930.278 35.9279 930.235 34.6479 930.235 33.4959V22.3599H939.964V70.9999H932.539L930.62 66.4559H930.235C929.638 67.4372 928.891 68.3119 927.995 69.0799C927.099 69.8479 926.012 70.4666 924.732 70.9359C923.494 71.4052 922.022 71.6399 920.315 71.6399ZM923.708 63.8959C926.353 63.8959 928.209 63.1492 929.276 61.6559C930.342 60.1199 930.875 57.7946 930.875 54.6799V53.6559C930.875 50.2852 930.363 47.7039 929.339 45.9119C928.315 44.1199 926.417 43.2239 923.643 43.2239C921.553 43.2239 919.91 44.1199 918.716 45.9119C917.564 47.7039 916.987 50.3066 916.987 53.7199C916.987 57.1332 917.564 59.6932 918.716 61.3999C919.91 63.0639 921.574 63.8959 923.708 63.8959Z" fill="url(#paint34_linear_112_4150)"/>
<path d="M886.163 35.4159C890.558 35.4159 893.907 36.4612 896.211 38.5519C898.515 40.5999 899.667 43.6506 899.667 47.7039V70.9999H892.947L891.091 66.2639H890.835C889.854 67.5012 888.83 68.5252 887.763 69.3359C886.739 70.1466 885.544 70.7226 884.179 71.0639C882.814 71.4479 881.15 71.6399 879.187 71.6399C877.139 71.6399 875.304 71.2559 873.683 70.4879C872.062 69.6772 870.782 68.4612 869.843 66.8399C868.904 65.2186 868.435 63.1706 868.435 60.6959C868.435 57.0266 869.758 54.2746 872.403 52.4399C875.048 50.6052 878.995 49.5812 884.243 49.3679L890.067 49.1759V48.0879C890.067 45.9972 889.598 44.5466 888.659 43.7359C887.72 42.8826 886.398 42.4559 884.691 42.4559C883.112 42.4559 881.491 42.7119 879.827 43.2239C878.163 43.7359 876.52 44.3546 874.899 45.0799L872.083 38.4879C873.918 37.5492 876.008 36.8026 878.355 36.2479C880.744 35.6932 883.347 35.4159 886.163 35.4159ZM886.419 54.9999C883.39 55.0852 881.278 55.5759 880.083 56.4719C878.888 57.3679 878.291 58.6266 878.291 60.2479C878.291 61.7412 878.696 62.8506 879.507 63.5759C880.36 64.2586 881.491 64.5999 882.899 64.5999C884.904 64.5999 886.59 64.0026 887.955 62.8079C889.363 61.6132 890.067 59.9066 890.067 57.6879V54.8079L886.419 54.9999Z" fill="url(#paint35_linear_112_4150)"/>
<path d="M862.5 35.4159C863.14 35.4159 863.823 35.4586 864.548 35.5439C865.316 35.5866 865.913 35.6719 866.34 35.7999L865.38 44.8239C864.911 44.7386 864.356 44.6532 863.716 44.5679C863.076 44.4826 862.308 44.4399 861.412 44.4399C860.431 44.4399 859.428 44.5892 858.404 44.8879C857.423 45.1866 856.505 45.6772 855.652 46.3599C854.799 47.0426 854.116 47.9386 853.604 49.0479C853.092 50.1572 852.836 51.5652 852.836 53.2719V70.9999H843.172V36.0559H850.532L851.94 41.9439H852.388C853.071 40.7066 853.924 39.5972 854.948 38.6159C855.972 37.6346 857.124 36.8666 858.404 36.3119C859.684 35.7146 861.049 35.4159 862.5 35.4159Z" fill="url(#paint36_linear_112_4150)"/>
<path d="M830.462 64.0239C831.529 64.0239 832.553 63.9172 833.534 63.7039C834.515 63.4906 835.497 63.2346 836.478 62.9359V70.0399C835.454 70.4666 834.174 70.8292 832.638 71.1279C831.145 71.4692 829.502 71.6399 827.71 71.6399C825.619 71.6399 823.742 71.2986 822.078 70.6159C820.457 69.9332 819.155 68.7599 818.174 67.0959C817.235 65.3892 816.766 63.0426 816.766 60.0559V43.2239H812.222V39.1919L817.47 35.9919L820.222 28.6319H826.302V36.0559H836.094V43.2239H826.302V60.0559C826.302 61.3786 826.686 62.3812 827.454 63.0639C828.222 63.7039 829.225 64.0239 830.462 64.0239Z" fill="url(#paint37_linear_112_4150)"/>
<path d="M789.4 36.0559V70.9999H779.736V36.0559H789.4ZM784.6 22.2959C786.008 22.2959 787.224 22.6372 788.248 23.3199C789.315 23.9599 789.848 25.1972 789.848 27.0319C789.848 28.7812 789.315 29.9972 788.248 30.6799C787.224 31.3626 786.008 31.7039 784.6 31.7039C783.149 31.7039 781.912 31.3626 780.888 30.6799C779.864 29.9972 779.352 28.7812 779.352 27.0319C779.352 25.1972 779.864 23.9599 780.888 23.3199C781.912 22.6372 783.149 22.2959 784.6 22.2959Z" fill="url(#paint38_linear_112_4150)"/>
<path d="M750.69 71.6399C746.85 71.6399 743.693 70.1252 741.219 67.0959C738.787 64.0239 737.57 59.5226 737.57 53.5919C737.57 47.5759 738.808 43.0532 741.283 40.0239C743.757 36.9519 747 35.4159 751.01 35.4159C752.674 35.4159 754.104 35.6506 755.299 36.1199C756.536 36.5466 757.602 37.1439 758.498 37.9119C759.394 38.6799 760.162 39.5546 760.802 40.5359H761.122C760.994 39.7679 760.867 38.7012 760.739 37.3359C760.653 35.9279 760.61 34.6479 760.61 33.4959V22.3599H770.339V70.9999H762.914L760.995 66.4559H760.61C760.013 67.4372 759.266 68.3119 758.37 69.0799C757.474 69.8479 756.387 70.4666 755.107 70.9359C753.869 71.4052 752.397 71.6399 750.69 71.6399ZM754.082 63.8959C756.728 63.8959 758.584 63.1492 759.651 61.6559C760.717 60.1199 761.25 57.7946 761.25 54.6799V53.6559C761.25 50.2852 760.738 47.7039 759.714 45.9119C758.69 44.1199 756.792 43.2239 754.018 43.2239C751.928 43.2239 750.285 44.1199 749.091 45.9119C747.939 47.7039 747.362 50.3066 747.362 53.7199C747.362 57.1332 747.939 59.6932 749.091 61.3999C750.285 63.0639 751.949 63.8959 754.082 63.8959Z" fill="url(#paint39_linear_112_4150)"/>
<path d="M713.212 36.0559V70.9999H703.548V36.0559H713.212ZM708.413 22.2959C709.821 22.2959 711.036 22.6372 712.06 23.3199C713.127 23.9599 713.66 25.1972 713.66 27.0319C713.66 28.7812 713.127 29.9972 712.06 30.6799C711.036 31.3626 709.821 31.7039 708.413 31.7039C706.962 31.7039 705.725 31.3626 704.701 30.6799C703.677 29.9972 703.164 28.7812 703.164 27.0319C703.164 25.1972 703.677 23.9599 704.701 23.3199C705.725 22.6372 706.962 22.2959 708.413 22.2959Z" fill="url(#paint40_linear_112_4150)"/>
<path d="M690.775 64.0239C691.841 64.0239 692.865 63.9172 693.846 63.7039C694.828 63.4906 695.809 63.2346 696.79 62.9359V70.0399C695.766 70.4666 694.487 70.8292 692.951 71.1279C691.457 71.4692 689.814 71.6399 688.022 71.6399C685.932 71.6399 684.055 71.2986 682.391 70.6159C680.769 69.9332 679.468 68.7599 678.487 67.0959C677.548 65.3892 677.078 63.0426 677.078 60.0559V43.2239H672.534V39.1919L677.783 35.9919L680.534 28.6319H686.615V36.0559H696.406V43.2239H686.615V60.0559C686.615 61.3786 686.999 62.3812 687.767 63.0639C688.535 63.7039 689.537 64.0239 690.775 64.0239Z" fill="url(#paint41_linear_112_4150)"/>
<path d="M654.078 35.4159C657.918 35.4159 660.947 36.4186 663.165 38.4239C665.384 40.4292 666.493 43.6932 666.493 48.2159V70.9999H656.893V50.6479C656.893 48.1306 656.424 46.2532 655.486 45.0159C654.59 43.7359 653.182 43.0959 651.262 43.0959C648.36 43.0959 646.376 44.0986 645.31 46.1039C644.286 48.0666 643.773 50.9039 643.773 54.6159V70.9999H634.109V36.0559H641.534L642.878 40.7279H643.262C644.03 39.5759 644.947 38.6159 646.013 37.8479C647.123 37.0372 648.339 36.4399 649.661 36.0559C651.027 35.6292 652.499 35.4159 654.078 35.4159Z" fill="url(#paint42_linear_112_4150)"/>
<path d="M610.834 35.4159C614.077 35.4159 616.871 36.0346 619.218 37.2719C621.565 38.4666 623.357 40.2586 624.594 42.6479C625.874 44.9946 626.514 47.8746 626.514 51.2879V55.9599H604.05C604.135 58.6052 604.946 60.6959 606.482 62.2319C608.018 63.7252 610.215 64.4719 613.074 64.4719C615.25 64.4719 617.234 64.2586 619.026 63.8319C620.818 63.4052 622.653 62.7652 624.53 61.9119V69.1439C622.823 69.9972 621.01 70.6159 619.09 70.9999C617.213 71.4266 614.866 71.6399 612.05 71.6399C608.594 71.6399 605.522 70.9999 602.834 69.7199C600.189 68.4399 598.098 66.4772 596.562 63.8319C595.026 61.1439 594.258 57.7946 594.258 53.7839C594.258 49.6879 594.941 46.2959 596.306 43.6079C597.714 40.8772 599.655 38.8292 602.13 37.4639C604.647 36.0986 607.549 35.4159 610.834 35.4159ZM611.09 42.2639C609.17 42.2639 607.613 42.8826 606.418 44.1199C605.223 45.3146 604.519 47.1066 604.306 49.4959H617.49C617.49 48.0879 617.255 46.8506 616.786 45.7839C616.317 44.7172 615.591 43.8639 614.61 43.2239C613.671 42.5839 612.498 42.2639 611.09 42.2639Z" fill="url(#paint43_linear_112_4150)"/>
<path d="M574.571 35.4159C578.582 35.4159 581.611 36.4186 583.659 38.4239C585.707 40.4292 586.731 43.6932 586.731 48.2159V70.9999H577.131V50.6479C577.131 47.9599 576.683 46.0399 575.787 44.8879C574.891 43.6932 573.547 43.0959 571.755 43.0959C569.28 43.0959 567.531 44.0132 566.507 45.8479C565.483 47.6399 564.971 50.1999 564.971 53.5279V70.9999H555.307V50.6479C555.307 48.8986 555.115 47.4692 554.731 46.3599C554.347 45.2506 553.771 44.4399 553.003 43.9279C552.235 43.3732 551.254 43.0959 550.059 43.0959C548.31 43.0959 546.923 43.5439 545.899 44.4399C544.918 45.3359 544.214 46.6372 543.787 48.3439C543.403 50.0506 543.211 52.1412 543.211 54.6159V70.9999H533.547V36.0559H540.971L542.379 40.5359H542.699C543.382 39.4692 544.214 38.5519 545.195 37.7839C546.219 37.0159 547.392 36.4399 548.715 36.0559C550.038 35.6292 551.51 35.4159 553.131 35.4159C555.734 35.4159 557.888 35.8639 559.595 36.7599C561.344 37.6559 562.71 38.9572 563.691 40.6639H564.011C565.163 38.9146 566.656 37.6132 568.491 36.7599C570.326 35.8639 572.352 35.4159 574.571 35.4159Z" fill="url(#paint44_linear_112_4150)"/>
<path d="M524.114 36.0559V70.9999H516.69L515.474 66.5199H514.898C514.173 67.7146 513.234 68.6959 512.082 69.4639C510.973 70.2319 509.735 70.7866 508.37 71.1279C507.047 71.4692 505.639 71.6399 504.146 71.6399C501.671 71.6399 499.495 71.1919 497.618 70.2959C495.783 69.3999 494.333 68.0132 493.266 66.1359C492.242 64.2586 491.73 61.8266 491.73 58.8399V36.0559H501.458V56.4079C501.458 58.8826 501.885 60.7599 502.738 62.0399C503.634 63.2772 505.042 63.8959 506.962 63.8959C508.925 63.8959 510.439 63.4692 511.506 62.6159C512.615 61.7199 513.383 60.4186 513.81 58.7119C514.237 57.0052 514.45 54.9146 514.45 52.4399V36.0559H524.114Z" fill="url(#paint45_linear_112_4150)"/>
<path d="M482.625 35.4159C483.265 35.4159 483.948 35.4586 484.673 35.5439C485.441 35.5866 486.038 35.6719 486.465 35.7999L485.505 44.8239C485.036 44.7386 484.481 44.6532 483.841 44.5679C483.201 44.4826 482.433 44.4399 481.537 44.4399C480.556 44.4399 479.553 44.5892 478.529 44.8879C477.548 45.1866 476.63 45.6772 475.777 46.3599C474.924 47.0426 474.241 47.9386 473.729 49.0479C473.217 50.1572 472.961 51.5652 472.961 53.2719V70.9999H463.297V36.0559H470.657L472.065 41.9439H472.513C473.196 40.7066 474.049 39.5972 475.073 38.6159C476.097 37.6346 477.249 36.8666 478.529 36.3119C479.809 35.7146 481.174 35.4159 482.625 35.4159Z" fill="url(#paint46_linear_112_4150)"/>
<path d="M450.587 64.0239C451.654 64.0239 452.678 63.9172 453.659 63.7039C454.64 63.4906 455.622 63.2346 456.603 62.9359V70.0399C455.579 70.4666 454.299 70.8292 452.763 71.1279C451.27 71.4692 449.627 71.6399 447.835 71.6399C445.744 71.6399 443.867 71.2986 442.203 70.6159C440.582 69.9332 439.28 68.7599 438.299 67.0959C437.36 65.3892 436.891 63.0426 436.891 60.0559V43.2239H432.347V39.1919L437.595 35.9919L440.347 28.6319H446.427V36.0559H456.219V43.2239H446.427V60.0559C446.427 61.3786 446.811 62.3812 447.579 63.0639C448.347 63.7039 449.35 64.0239 450.587 64.0239Z" fill="url(#paint47_linear_112_4150)"/>
<path d="M428.19 60.6959C428.19 62.9146 427.657 64.8559 426.59 66.5199C425.566 68.1412 423.987 69.3999 421.854 70.2959C419.721 71.1919 417.011 71.6399 413.726 71.6399C411.251 71.6399 409.075 71.4692 407.198 71.1279C405.321 70.8292 403.507 70.3172 401.758 69.5919V61.5919C403.635 62.4879 405.662 63.1919 407.838 63.7039C410.014 64.2159 411.891 64.4719 413.47 64.4719C415.433 64.4719 416.841 64.1946 417.694 63.6399C418.59 63.0852 419.038 62.3386 419.038 61.3999C419.038 60.7599 418.803 60.1839 418.334 59.6719C417.907 59.1599 417.118 58.6266 415.966 58.0719C414.857 57.5172 413.257 56.8346 411.166 56.0239C409.075 55.1706 407.326 54.2959 405.918 53.3999C404.51 52.4612 403.443 51.3519 402.718 50.0719C402.035 48.7919 401.694 47.1919 401.694 45.2719C401.694 42.0719 402.953 39.6399 405.47 37.9759C408.03 36.2692 411.401 35.4159 415.582 35.4159C417.843 35.4159 419.934 35.6506 421.854 36.1199C423.817 36.5892 425.801 37.2506 427.806 38.1039L424.99 44.6959C423.369 43.9706 421.705 43.3732 419.998 42.9039C418.291 42.4346 416.777 42.1999 415.454 42.1999C414.003 42.1999 412.873 42.4346 412.062 42.9039C411.251 43.3306 410.846 43.9492 410.846 44.7599C410.846 45.3572 411.059 45.8906 411.486 46.3599C411.955 46.8292 412.745 47.3199 413.854 47.8319C415.006 48.3439 416.606 49.0052 418.654 49.8159C420.745 50.6266 422.494 51.5012 423.902 52.4399C425.353 53.3359 426.419 54.4452 427.102 55.7679C427.827 57.0479 428.19 58.6906 428.19 60.6959Z" fill="url(#paint48_linear_112_4150)"/>
<path d="M377.4 36.0559V70.9999H367.736V36.0559H377.4ZM372.6 22.2959C374.008 22.2959 375.224 22.6372 376.248 23.3199C377.315 23.9599 377.848 25.1972 377.848 27.0319C377.848 28.7812 377.315 29.9972 376.248 30.6799C375.224 31.3626 374.008 31.7039 372.6 31.7039C371.149 31.7039 369.912 31.3626 368.888 30.6799C367.864 29.9972 367.352 28.7812 367.352 27.0319C367.352 25.1972 367.864 23.9599 368.888 23.3199C369.912 22.6372 371.149 22.2959 372.6 22.2959Z" fill="url(#paint49_linear_112_4150)"/>
<path d="M358.375 35.4159C359.015 35.4159 359.698 35.4586 360.423 35.5439C361.191 35.5866 361.788 35.6719 362.215 35.7999L361.255 44.8239C360.786 44.7386 360.231 44.6532 359.591 44.5679C358.951 44.4826 358.183 44.4399 357.287 44.4399C356.306 44.4399 355.303 44.5892 354.279 44.8879C353.298 45.1866 352.38 45.6772 351.527 46.3599C350.674 47.0426 349.991 47.9386 349.479 49.0479C348.967 50.1572 348.711 51.5652 348.711 53.2719V70.9999H339.047V36.0559H346.407L347.815 41.9439H348.263C348.946 40.7066 349.799 39.5972 350.823 38.6159C351.847 37.6346 352.999 36.8666 354.279 36.3119C355.559 35.7146 356.924 35.4159 358.375 35.4159Z" fill="url(#paint50_linear_112_4150)"/>
<path d="M326.337 64.0239C327.404 64.0239 328.428 63.9172 329.409 63.7039C330.39 63.4906 331.372 63.2346 332.353 62.9359V70.0399C331.329 70.4666 330.049 70.8292 328.513 71.1279C327.02 71.4692 325.377 71.6399 323.585 71.6399C321.494 71.6399 319.617 71.2986 317.953 70.6159C316.332 69.9332 315.03 68.7599 314.049 67.0959C313.11 65.3892 312.641 63.0426 312.641 60.0559V43.2239H308.097V39.1919L313.345 35.9919L316.097 28.6319H322.177V36.0559H331.969V43.2239H322.177V60.0559C322.177 61.3786 322.561 62.3812 323.329 63.0639C324.097 63.7039 325.1 64.0239 326.337 64.0239Z" fill="url(#paint51_linear_112_4150)"/>
<path d="M301.898 70.9999H292.234V22.3599H301.898V70.9999Z" fill="url(#paint52_linear_112_4150)"/>
<path d="M276.978 70.9999L273.458 60.2479H257.33L253.81 70.9999H243.25L259.314 25.1119H271.346L287.538 70.9999H276.978ZM268.018 42.1359C267.847 41.4959 267.57 40.5359 267.186 39.2559C266.845 37.9759 266.503 36.6746 266.162 35.3519C265.821 33.9866 265.543 32.8772 265.33 32.0239C265.159 33.0052 264.903 34.1359 264.562 35.4159C264.263 36.6959 263.965 37.9332 263.666 39.1279C263.367 40.3226 263.111 41.3252 262.898 42.1359L259.634 52.0559H271.218L268.018 42.1359Z" fill="url(#paint53_linear_112_4150)"/>
<defs>
<filter id="filter0_f_112_4150" x="220.954" y="14.2959" width="950.577" height="89.3442" filterUnits="userSpaceOnUse" color-interpolation-filters="sRGB">
<feFlood flood-opacity="0" result="BackgroundImageFix"/>
<feBlend mode="normal" in="SourceGraphic" in2="BackgroundImageFix" result="shape"/>
<feGaussianBlur stdDeviation="10" result="effect1_foregroundBlur_112_4150"/>
</filter>
<linearGradient id="paint0_linear_112_4150" x1="143" y1="64.0036" x2="1257" y2="64.0022" gradientUnits="userSpaceOnUse">
<stop stop-color="white" stop-opacity="0.3"/>
<stop offset="0.495" stop-color="#CBB0F8"/>
<stop offset="1" stop-color="white" stop-opacity="0.3"/>
</linearGradient>
<linearGradient id="paint1_linear_112_4150" x1="1241.12" y1="49.3944" x2="-24560.8" y2="49.4874" gradientUnits="userSpaceOnUse">
<stop stop-color="#F4439F"/>
<stop offset="1" stop-color="#7C3AED"/>
</linearGradient>
<linearGradient id="paint2_linear_112_4150" x1="2360.79" y1="49.666" x2="-23339.1" y2="49.7566" gradientUnits="userSpaceOnUse">
<stop stop-color="#F4439F"/>
<stop offset="1" stop-color="#7C3AED"/>
</linearGradient>
<linearGradient id="paint3_linear_112_4150" x1="3383.26" y1="49.3944" x2="-21152.9" y2="49.4785" gradientUnits="userSpaceOnUse">
<stop stop-color="#F4439F"/>
<stop offset="1" stop-color="#7C3AED"/>
</linearGradient>
<linearGradient id="paint4_linear_112_4150" x1="11938.5" y1="58.818" x2="-67355" y2="59.999" gradientUnits="userSpaceOnUse">
<stop stop-color="#F4439F"/>
<stop offset="1" stop-color="#7C3AED"/>
</linearGradient>
<linearGradient id="paint5_linear_112_4150" x1="5801.3" y1="49.0437" x2="-24300.9" y2="49.1659" gradientUnits="userSpaceOnUse">
<stop stop-color="#F4439F"/>
<stop offset="1" stop-color="#7C3AED"/>
</linearGradient>
<linearGradient id="paint6_linear_112_4150" x1="6086.56" y1="48.7785" x2="-19613.4" y2="48.8691" gradientUnits="userSpaceOnUse">
<stop stop-color="#F4439F"/>
<stop offset="1" stop-color="#7C3AED"/>
</linearGradient>
<linearGradient id="paint7_linear_112_4150" x1="7182.67" y1="58.4672" x2="-18216.1" y2="58.5899" gradientUnits="userSpaceOnUse">
<stop stop-color="#F4439F"/>
<stop offset="1" stop-color="#7C3AED"/>
</linearGradient>
<linearGradient id="paint8_linear_112_4150" x1="8654.14" y1="49.3944" x2="-17993.8" y2="49.4936" gradientUnits="userSpaceOnUse">
<stop stop-color="#F4439F"/>
<stop offset="1" stop-color="#7C3AED"/>
</linearGradient>
<linearGradient id="paint9_linear_112_4150" x1="12575.4" y1="49.666" x2="-23347.7" y2="49.8431" gradientUnits="userSpaceOnUse">
<stop stop-color="#F4439F"/>
<stop offset="1" stop-color="#7C3AED"/>
</linearGradient>
<linearGradient id="paint10_linear_112_4150" x1="13184" y1="54.7962" x2="-21127.7" y2="54.9915" gradientUnits="userSpaceOnUse">
<stop stop-color="#F4439F"/>
<stop offset="1" stop-color="#7C3AED"/>
</linearGradient>
<linearGradient id="paint11_linear_112_4150" x1="33003.6" y1="58.818" x2="-46289.9" y2="59.999" gradientUnits="userSpaceOnUse">
<stop stop-color="#F4439F"/>
<stop offset="1" stop-color="#7C3AED"/>
</linearGradient>
<linearGradient id="paint12_linear_112_4150" x1="11896.3" y1="58.4672" x2="-13502.5" y2="58.5899" gradientUnits="userSpaceOnUse">
<stop stop-color="#F4439F"/>
<stop offset="1" stop-color="#7C3AED"/>
</linearGradient>
<linearGradient id="paint13_linear_112_4150" x1="39613.3" y1="58.818" x2="-39680.4" y2="59.999" gradientUnits="userSpaceOnUse">
<stop stop-color="#F4439F"/>
<stop offset="1" stop-color="#7C3AED"/>
</linearGradient>
<linearGradient id="paint14_linear_112_4150" x1="18427.9" y1="54.7962" x2="-15883.9" y2="54.9915" gradientUnits="userSpaceOnUse">
<stop stop-color="#F4439F"/>
<stop offset="1" stop-color="#7C3AED"/>
</linearGradient>
<linearGradient id="paint15_linear_112_4150" x1="14943.6" y1="49.666" x2="-10756.3" y2="49.7567" gradientUnits="userSpaceOnUse">
<stop stop-color="#F4439F"/>
<stop offset="1" stop-color="#7C3AED"/>
</linearGradient>
<linearGradient id="paint16_linear_112_4150" x1="16127" y1="49.3945" x2="-9674.94" y2="49.4875" gradientUnits="userSpaceOnUse">
<stop stop-color="#F4439F"/>
<stop offset="1" stop-color="#7C3AED"/>
</linearGradient>
<linearGradient id="paint17_linear_112_4150" x1="10915.2" y1="49.666" x2="-4733.57" y2="49.6996" gradientUnits="userSpaceOnUse">
<stop stop-color="#F4439F"/>
<stop offset="1" stop-color="#7C3AED"/>
</linearGradient>
<linearGradient id="paint18_linear_112_4150" x1="18947.1" y1="48.7785" x2="-6752.86" y2="48.8691" gradientUnits="userSpaceOnUse">
<stop stop-color="#F4439F"/>
<stop offset="1" stop-color="#7C3AED"/>
</linearGradient>
<linearGradient id="paint19_linear_112_4150" x1="27505.7" y1="49.666" x2="-8417.42" y2="49.8431" gradientUnits="userSpaceOnUse">
<stop stop-color="#F4439F"/>
<stop offset="1" stop-color="#7C3AED"/>
</linearGradient>
<linearGradient id="paint20_linear_112_4150" x1="27444.6" y1="54.7962" x2="-6867.18" y2="54.9915" gradientUnits="userSpaceOnUse">
<stop stop-color="#F4439F"/>
<stop offset="1" stop-color="#7C3AED"/>
</linearGradient>
<linearGradient id="paint21_linear_112_4150" x1="26198.2" y1="49.3945" x2="-5212.81" y2="49.5323" gradientUnits="userSpaceOnUse">
<stop stop-color="#F4439F"/>
<stop offset="1" stop-color="#7C3AED"/>
</linearGradient>
<linearGradient id="paint22_linear_112_4150" x1="68746.5" y1="58.818" x2="-10547.1" y2="59.999" gradientUnits="userSpaceOnUse">
<stop stop-color="#F4439F"/>
<stop offset="1" stop-color="#7C3AED"/>
</linearGradient>
<linearGradient id="paint23_linear_112_4150" x1="32389.1" y1="49.666" x2="-3534" y2="49.8431" gradientUnits="userSpaceOnUse">
<stop stop-color="#F4439F"/>
<stop offset="1" stop-color="#7C3AED"/>
</linearGradient>
<linearGradient id="paint24_linear_112_4150" x1="32109" y1="54.7962" x2="-2202.8" y2="54.9915" gradientUnits="userSpaceOnUse">
<stop stop-color="#F4439F"/>
<stop offset="1" stop-color="#7C3AED"/>
</linearGradient>
<linearGradient id="paint25_linear_112_4150" x1="81722.3" y1="58.7853" x2="-4398.09" y2="60.1766" gradientUnits="userSpaceOnUse">
<stop stop-color="#F4439F"/>
<stop offset="1" stop-color="#7C3AED"/>
</linearGradient>
<linearGradient id="paint26_linear_112_4150" x1="1154.7" y1="58.4998" x2="240.704" y2="58.5" gradientUnits="userSpaceOnUse">
<stop stop-color="#F4439F"/>
<stop offset="1" stop-color="#7C3AED"/>
</linearGradient>
<linearGradient id="paint27_linear_112_4150" x1="700" y1="72" x2="700" y2="117" gradientUnits="userSpaceOnUse">
<stop offset="0.0001" stop-color="white" stop-opacity="0.1"/>
<stop offset="1" stop-color="white" stop-opacity="0"/>
</linearGradient>
<linearGradient id="paint28_linear_112_4150" x1="1243.41" y1="-21.8609" x2="1131.27" y2="1721.64" gradientUnits="userSpaceOnUse">
<stop stop-color="#F4439F"/>
<stop offset="1" stop-color="#7C3AED"/>
</linearGradient>
<linearGradient id="paint29_linear_112_4150" x1="2363.09" y1="-22.6551" x2="2246.43" y2="1751.88" gradientUnits="userSpaceOnUse">
<stop stop-color="#F4439F"/>
<stop offset="1" stop-color="#7C3AED"/>
</linearGradient>
<linearGradient id="paint30_linear_112_4150" x1="3385.56" y1="-21.8609" x2="3267.69" y2="1720.88" gradientUnits="userSpaceOnUse">
<stop stop-color="#F4439F"/>
<stop offset="1" stop-color="#7C3AED"/>
</linearGradient>
<linearGradient id="paint31_linear_112_4150" x1="11940.8" y1="2.74632" x2="11920.6" y2="1304.54" gradientUnits="userSpaceOnUse">
<stop stop-color="#F4439F"/>
<stop offset="1" stop-color="#7C3AED"/>
</linearGradient>
<linearGradient id="paint32_linear_112_4150" x1="5803.6" y1="-24.3821" x2="5700.22" y2="1784.55" gradientUnits="userSpaceOnUse">
<stop stop-color="#F4439F"/>
<stop offset="1" stop-color="#7C3AED"/>
</linearGradient>
<linearGradient id="paint33_linear_112_4150" x1="6088.86" y1="-23.5425" x2="5972.21" y2="1750.99" gradientUnits="userSpaceOnUse">
<stop stop-color="#F4439F"/>
<stop offset="1" stop-color="#7C3AED"/>
</linearGradient>
<linearGradient id="paint34_linear_112_4150" x1="7184.96" y1="2.91076" x2="7123.3" y2="1286.84" gradientUnits="userSpaceOnUse">
<stop stop-color="#F4439F"/>
<stop offset="1" stop-color="#7C3AED"/>
</linearGradient>
<linearGradient id="paint35_linear_112_4150" x1="8656.43" y1="-21.8609" x2="8547.83" y2="1722.09" gradientUnits="userSpaceOnUse">
<stop stop-color="#F4439F"/>
<stop offset="1" stop-color="#7C3AED"/>
</linearGradient>
<linearGradient id="paint36_linear_112_4150" x1="12577.7" y1="-22.6551" x2="12494" y2="1755.62" gradientUnits="userSpaceOnUse">
<stop stop-color="#F4439F"/>
<stop offset="1" stop-color="#7C3AED"/>
</linearGradient>
<linearGradient id="paint37_linear_112_4150" x1="13186.3" y1="-7.11226" x2="13126.3" y2="1465.01" gradientUnits="userSpaceOnUse">
<stop stop-color="#F4439F"/>
<stop offset="1" stop-color="#7C3AED"/>
</linearGradient>
<linearGradient id="paint38_linear_112_4150" x1="33005.9" y1="2.74633" x2="32985.6" y2="1304.54" gradientUnits="userSpaceOnUse">
<stop stop-color="#F4439F"/>
<stop offset="1" stop-color="#7C3AED"/>
</linearGradient>
<linearGradient id="paint39_linear_112_4150" x1="11898.6" y1="2.91077" x2="11836.9" y2="1286.84" gradientUnits="userSpaceOnUse">
<stop stop-color="#F4439F"/>
<stop offset="1" stop-color="#7C3AED"/>
</linearGradient>
<linearGradient id="paint40_linear_112_4150" x1="39615.6" y1="2.74636" x2="39595.3" y2="1304.54" gradientUnits="userSpaceOnUse">
<stop stop-color="#F4439F"/>
<stop offset="1" stop-color="#7C3AED"/>
</linearGradient>
<linearGradient id="paint41_linear_112_4150" x1="18430.2" y1="-7.11223" x2="18370.2" y2="1465.01" gradientUnits="userSpaceOnUse">
<stop stop-color="#F4439F"/>
<stop offset="1" stop-color="#7C3AED"/>
</linearGradient>
<linearGradient id="paint42_linear_112_4150" x1="14945.9" y1="-22.6551" x2="14829.3" y2="1751.88" gradientUnits="userSpaceOnUse">
<stop stop-color="#F4439F"/>
<stop offset="1" stop-color="#7C3AED"/>
</linearGradient>
<linearGradient id="paint43_linear_112_4150" x1="16129.3" y1="-21.8609" x2="16017.1" y2="1721.64" gradientUnits="userSpaceOnUse">
<stop stop-color="#F4439F"/>
<stop offset="1" stop-color="#7C3AED"/>
</linearGradient>
<linearGradient id="paint44_linear_112_4150" x1="10917.5" y1="-22.6551" x2="10727.4" y2="1739.02" gradientUnits="userSpaceOnUse">
<stop stop-color="#F4439F"/>
<stop offset="1" stop-color="#7C3AED"/>
</linearGradient>
<linearGradient id="paint45_linear_112_4150" x1="18949.4" y1="-23.5425" x2="18832.7" y2="1750.99" gradientUnits="userSpaceOnUse">
<stop stop-color="#F4439F"/>
<stop offset="1" stop-color="#7C3AED"/>
</linearGradient>
<linearGradient id="paint46_linear_112_4150" x1="27508" y1="-22.6551" x2="27424.4" y2="1755.62" gradientUnits="userSpaceOnUse">
<stop stop-color="#F4439F"/>
<stop offset="1" stop-color="#7C3AED"/>
</linearGradient>
<linearGradient id="paint47_linear_112_4150" x1="27446.9" y1="-7.11222" x2="27386.9" y2="1465.01" gradientUnits="userSpaceOnUse">
<stop stop-color="#F4439F"/>
<stop offset="1" stop-color="#7C3AED"/>
</linearGradient>
<linearGradient id="paint48_linear_112_4150" x1="26200.5" y1="-21.8609" x2="26108.3" y2="1723.98" gradientUnits="userSpaceOnUse">
<stop stop-color="#F4439F"/>
<stop offset="1" stop-color="#7C3AED"/>
</linearGradient>
<linearGradient id="paint49_linear_112_4150" x1="68748.8" y1="2.74633" x2="68728.5" y2="1304.54" gradientUnits="userSpaceOnUse">
<stop stop-color="#F4439F"/>
<stop offset="1" stop-color="#7C3AED"/>
</linearGradient>
<linearGradient id="paint50_linear_112_4150" x1="32391.4" y1="-22.6551" x2="32307.8" y2="1755.62" gradientUnits="userSpaceOnUse">
<stop stop-color="#F4439F"/>
<stop offset="1" stop-color="#7C3AED"/>
</linearGradient>
<linearGradient id="paint51_linear_112_4150" x1="32111.3" y1="-7.11223" x2="32051.3" y2="1465.01" gradientUnits="userSpaceOnUse">
<stop stop-color="#F4439F"/>
<stop offset="1" stop-color="#7C3AED"/>
</linearGradient>
<linearGradient id="paint52_linear_112_4150" x1="81724.6" y1="2.65567" x2="81705.8" y2="1306.21" gradientUnits="userSpaceOnUse">
<stop stop-color="#F4439F"/>
<stop offset="1" stop-color="#7C3AED"/>
</linearGradient>
<linearGradient id="paint53_linear_112_4150" x1="1157" y1="2.9998" x2="540.042" y2="465.859" gradientUnits="userSpaceOnUse">
<stop stop-color="#F4439F"/>
<stop offset="1" stop-color="#7C3AED"/>
</linearGradient>
</defs>
</svg>
