<svg width="1400" height="120" viewBox="0 0 1400 120" fill="none" xmlns="http://www.w3.org/2000/svg">
<path d="M217 56H1183V72H217V56Z" fill="url(#paint0_linear_112_3982)"/>
<mask id="mask0_112_3982" style="mask-type:alpha" maskUnits="userSpaceOnUse" x="217" y="72" width="966" height="45">
<path d="M217 72H1183V117H217V72Z" fill="#C4C4C4"/>
</mask>
<g mask="url(#mask0_112_3982)">
<g filter="url(#filter0_f_112_3982)">
<path d="M1077.37 48.0559V82.9999H1067.7V48.0559H1077.37ZM1072.57 34.2959C1073.97 34.2959 1075.19 34.6372 1076.21 35.3199C1077.28 35.9599 1077.81 37.1972 1077.81 39.0319C1077.81 40.7812 1077.28 41.9972 1076.21 42.6799C1075.19 43.3626 1073.97 43.7039 1072.57 43.7039C1071.12 43.7039 1069.88 43.3626 1068.85 42.6799C1067.83 41.9972 1067.32 40.7812 1067.32 39.0319C1067.32 37.1972 1067.83 35.9599 1068.85 35.3199C1069.88 34.6372 1071.12 34.2959 1072.57 34.2959Z" fill="url(#paint1_linear_112_3982)" fill-opacity="0.7"/>
<path d="M1058.24 82.9999H1048.58V34.3599H1058.24V82.9999Z" fill="url(#paint2_linear_112_3982)" fill-opacity="0.7"/>
<path d="M1040.83 65.4639C1040.83 68.3652 1040.43 70.9466 1039.62 73.2079C1038.85 75.4692 1037.72 77.3679 1036.22 78.9039C1034.77 80.4399 1033 81.6132 1030.91 82.4239C1028.82 83.2346 1026.45 83.6399 1023.81 83.6399C1021.33 83.6399 1019.07 83.2346 1017.02 82.4239C1014.98 81.6132 1013.21 80.4399 1011.71 78.9039C1010.22 77.3679 1009.05 75.4692 1008.19 73.2079C1007.34 70.9466 1006.91 68.3652 1006.91 65.4639C1006.91 61.5812 1007.59 58.2959 1008.96 55.6079C1010.33 52.9199 1012.29 50.8932 1014.85 49.5279C1017.41 48.1199 1020.46 47.4159 1024 47.4159C1027.29 47.4159 1030.19 48.1199 1032.7 49.5279C1035.22 50.8932 1037.21 52.9199 1038.66 55.6079C1040.11 58.2959 1040.83 61.5812 1040.83 65.4639ZM1016.77 65.4639C1016.77 67.7252 1017 69.6666 1017.47 71.2879C1017.98 72.9092 1018.75 74.1466 1019.78 74.9999C1020.84 75.8532 1022.23 76.2799 1023.94 76.2799C1025.6 76.2799 1026.94 75.8532 1027.97 74.9999C1029.03 74.1466 1029.8 72.9092 1030.27 71.2879C1030.74 69.6666 1030.98 67.7252 1030.98 65.4639C1030.98 63.1599 1030.72 61.2186 1030.21 59.6399C1029.74 58.0612 1028.99 56.8666 1027.97 56.0559C1026.94 55.2026 1025.58 54.7759 1023.87 54.7759C1021.4 54.7759 1019.58 55.6932 1018.43 57.5279C1017.32 59.3626 1016.77 62.0079 1016.77 65.4639Z" fill="url(#paint3_linear_112_3982)" fill-opacity="0.7"/>
<path d="M995.866 76.0239C996.933 76.0239 997.957 75.9172 998.938 75.7039C999.919 75.4906 1000.9 75.2346 1001.88 74.9359V82.0399C1000.86 82.4666 999.578 82.8292 998.042 83.1279C996.549 83.4692 994.906 83.6399 993.114 83.6399C991.023 83.6399 989.146 83.2986 987.482 82.6159C985.861 81.9332 984.559 80.7599 983.578 79.0959C982.639 77.3892 982.17 75.0426 982.17 72.0559V55.2239H977.626V51.1919L982.874 47.9919L985.626 40.6319H991.706V48.0559H1001.5V55.2239H991.706V72.0559C991.706 73.3786 992.09 74.3812 992.858 75.0639C993.626 75.7039 994.629 76.0239 995.866 76.0239Z" fill="url(#paint4_linear_112_3982)" fill-opacity="0.7"/>
<path d="M971.429 48.0559V82.9999H961.765V48.0559H971.429ZM966.629 34.2959C968.037 34.2959 969.253 34.6372 970.277 35.3199C971.344 35.9599 971.877 37.1972 971.877 39.0319C971.877 40.7812 971.344 41.9972 970.277 42.6799C969.253 43.3626 968.037 43.7039 966.629 43.7039C965.178 43.7039 963.941 43.3626 962.917 42.6799C961.893 41.9972 961.381 40.7812 961.381 39.0319C961.381 37.1972 961.893 35.9599 962.917 35.3199C963.941 34.6372 965.178 34.2959 966.629 34.2959Z" fill="url(#paint5_linear_112_3982)" fill-opacity="0.7"/>
<path d="M948.991 76.0239C950.058 76.0239 951.082 75.9172 952.063 75.7039C953.044 75.4906 954.026 75.2346 955.007 74.9359V82.0399C953.983 82.4666 952.703 82.8292 951.167 83.1279C949.674 83.4692 948.031 83.6399 946.239 83.6399C944.148 83.6399 942.271 83.2986 940.607 82.6159C938.986 81.9332 937.684 80.7599 936.703 79.0959C935.764 77.3892 935.295 75.0426 935.295 72.0559V55.2239H930.751V51.1919L935.999 47.9919L938.751 40.6319H944.831V48.0559H954.623V55.2239H944.831V72.0559C944.831 73.3786 945.215 74.3812 945.983 75.0639C946.751 75.7039 947.754 76.0239 948.991 76.0239Z" fill="url(#paint6_linear_112_3982)" fill-opacity="0.7"/>
<path d="M926.207 65.4639C926.207 68.3652 925.802 70.9466 924.991 73.2079C924.223 75.4692 923.092 77.3679 921.599 78.9039C920.148 80.4399 918.378 81.6132 916.287 82.4239C914.196 83.2346 911.828 83.6399 909.183 83.6399C906.708 83.6399 904.447 83.2346 902.399 82.4239C900.351 81.6132 898.58 80.4399 897.087 78.9039C895.594 77.3679 894.42 75.4692 893.567 73.2079C892.714 70.9466 892.287 68.3652 892.287 65.4639C892.287 61.5812 892.97 58.2959 894.335 55.6079C895.7 52.9199 897.663 50.8932 900.223 49.5279C902.783 48.1199 905.834 47.4159 909.375 47.4159C912.66 47.4159 915.562 48.1199 918.079 49.5279C920.596 50.8932 922.58 52.9199 924.031 55.6079C925.482 58.2959 926.207 61.5812 926.207 65.4639ZM902.143 65.4639C902.143 67.7252 902.378 69.6666 902.847 71.2879C903.359 72.9092 904.127 74.1466 905.151 74.9999C906.218 75.8532 907.604 76.2799 909.311 76.2799C910.975 76.2799 912.319 75.8532 913.343 74.9999C914.41 74.1466 915.178 72.9092 915.647 71.2879C916.116 69.6666 916.351 67.7252 916.351 65.4639C916.351 63.1599 916.095 61.2186 915.583 59.6399C915.114 58.0612 914.367 56.8666 913.343 56.0559C912.319 55.2026 910.954 54.7759 909.247 54.7759C906.772 54.7759 904.959 55.6932 903.807 57.5279C902.698 59.3626 902.143 62.0079 902.143 65.4639Z" fill="url(#paint7_linear_112_3982)" fill-opacity="0.7"/>
<path d="M881.241 76.0239C882.308 76.0239 883.332 75.9172 884.313 75.7039C885.294 75.4906 886.276 75.2346 887.257 74.9359V82.0399C886.233 82.4666 884.953 82.8292 883.417 83.1279C881.924 83.4692 880.281 83.6399 878.489 83.6399C876.398 83.6399 874.521 83.2986 872.857 82.6159C871.236 81.9332 869.934 80.7599 868.953 79.0959C868.014 77.3892 867.545 75.0426 867.545 72.0559V55.2239H863.001V51.1919L868.249 47.9919L871.001 40.6319H877.081V48.0559H886.873V55.2239H877.081V72.0559C877.081 73.3786 877.465 74.3812 878.233 75.0639C879.001 75.7039 880.004 76.0239 881.241 76.0239Z" fill="url(#paint8_linear_112_3982)" fill-opacity="0.7"/>
<path d="M853.491 76.0239C854.558 76.0239 855.582 75.9172 856.563 75.7039C857.544 75.4906 858.526 75.2346 859.507 74.9359V82.0399C858.483 82.4666 857.203 82.8292 855.667 83.1279C854.174 83.4692 852.531 83.6399 850.739 83.6399C848.648 83.6399 846.771 83.2986 845.107 82.6159C843.486 81.9332 842.184 80.7599 841.203 79.0959C840.264 77.3892 839.795 75.0426 839.795 72.0559V55.2239H835.251V51.1919L840.499 47.9919L843.251 40.6319H849.331V48.0559H859.123V55.2239H849.331V72.0559C849.331 73.3786 849.715 74.3812 850.483 75.0639C851.251 75.7039 852.254 76.0239 853.491 76.0239Z" fill="url(#paint9_linear_112_3982)" fill-opacity="0.7"/>
<path d="M830.707 65.4639C830.707 68.3652 830.302 70.9466 829.491 73.2079C828.723 75.4692 827.592 77.3679 826.099 78.9039C824.648 80.4399 822.878 81.6132 820.787 82.4239C818.696 83.2346 816.328 83.6399 813.683 83.6399C811.208 83.6399 808.947 83.2346 806.899 82.4239C804.851 81.6132 803.08 80.4399 801.587 78.9039C800.094 77.3679 798.92 75.4692 798.067 73.2079C797.214 70.9466 796.787 68.3652 796.787 65.4639C796.787 61.5812 797.47 58.2959 798.835 55.6079C800.2 52.9199 802.163 50.8932 804.723 49.5279C807.283 48.1199 810.334 47.4159 813.875 47.4159C817.16 47.4159 820.062 48.1199 822.579 49.5279C825.096 50.8932 827.08 52.9199 828.531 55.6079C829.982 58.2959 830.707 61.5812 830.707 65.4639ZM806.643 65.4639C806.643 67.7252 806.878 69.6666 807.347 71.2879C807.859 72.9092 808.627 74.1466 809.651 74.9999C810.718 75.8532 812.104 76.2799 813.811 76.2799C815.475 76.2799 816.819 75.8532 817.843 74.9999C818.91 74.1466 819.678 72.9092 820.147 71.2879C820.616 69.6666 820.851 67.7252 820.851 65.4639C820.851 63.1599 820.595 61.2186 820.083 59.6399C819.614 58.0612 818.867 56.8666 817.843 56.0559C816.819 55.2026 815.454 54.7759 813.747 54.7759C811.272 54.7759 809.459 55.6932 808.307 57.5279C807.198 59.3626 806.643 62.0079 806.643 65.4639Z" fill="url(#paint10_linear_112_3982)" fill-opacity="0.7"/>
<path d="M791.094 72.6959C791.094 74.9146 790.561 76.8559 789.494 78.5199C788.47 80.1412 786.891 81.3999 784.758 82.2959C782.625 83.1919 779.915 83.6399 776.63 83.6399C774.155 83.6399 771.979 83.4692 770.102 83.1279C768.225 82.8292 766.411 82.3172 764.662 81.5919V73.5919C766.539 74.4879 768.566 75.1919 770.742 75.7039C772.918 76.2159 774.795 76.4719 776.374 76.4719C778.337 76.4719 779.745 76.1946 780.598 75.6399C781.494 75.0852 781.942 74.3386 781.942 73.3999C781.942 72.7599 781.707 72.1839 781.238 71.6719C780.811 71.1599 780.022 70.6266 778.87 70.0719C777.761 69.5172 776.161 68.8346 774.07 68.0239C771.979 67.1706 770.23 66.2959 768.822 65.3999C767.414 64.4612 766.347 63.3519 765.622 62.0719C764.939 60.7919 764.598 59.1919 764.598 57.2719C764.598 54.0719 765.857 51.6399 768.374 49.9759C770.934 48.2692 774.305 47.4159 778.486 47.4159C780.747 47.4159 782.838 47.6506 784.758 48.1199C786.721 48.5892 788.705 49.2506 790.71 50.1039L787.894 56.6959C786.273 55.9706 784.609 55.3732 782.902 54.9039C781.195 54.4346 779.681 54.1999 778.358 54.1999C776.907 54.1999 775.777 54.4346 774.966 54.9039C774.155 55.3306 773.75 55.9492 773.75 56.7599C773.75 57.3572 773.963 57.8906 774.39 58.3599C774.859 58.8292 775.649 59.3199 776.758 59.8319C777.91 60.3439 779.51 61.0052 781.558 61.8159C783.649 62.6266 785.398 63.5012 786.806 64.4399C788.257 65.3359 789.323 66.4452 790.006 67.7679C790.731 69.0479 791.094 70.6906 791.094 72.6959Z" fill="url(#paint11_linear_112_3982)" fill-opacity="0.7"/>
<path d="M740.304 48.0559V82.9999H730.64V48.0559H740.304ZM735.504 34.2959C736.912 34.2959 738.128 34.6372 739.152 35.3199C740.219 35.9599 740.752 37.1972 740.752 39.0319C740.752 40.7812 740.219 41.9972 739.152 42.6799C738.128 43.3626 736.912 43.7039 735.504 43.7039C734.053 43.7039 732.816 43.3626 731.792 42.6799C730.768 41.9972 730.256 40.7812 730.256 39.0319C730.256 37.1972 730.768 35.9599 731.792 35.3199C732.816 34.6372 734.053 34.2959 735.504 34.2959Z" fill="url(#paint12_linear_112_3982)" fill-opacity="0.7"/>
<path d="M701.595 83.6399C697.755 83.6399 694.597 82.1252 692.123 79.0959C689.691 76.0239 688.475 71.5226 688.475 65.5919C688.475 59.5759 689.712 55.0532 692.187 52.0239C694.661 48.9519 697.904 47.4159 701.915 47.4159C703.579 47.4159 705.008 47.6506 706.203 48.1199C707.44 48.5466 708.507 49.1439 709.403 49.9119C710.299 50.6799 711.067 51.5546 711.707 52.5359H712.027C711.899 51.7679 711.771 50.7012 711.643 49.3359C711.557 47.9279 711.515 46.6479 711.515 45.4959V34.3599H721.243V82.9999H713.819L711.899 78.4559H711.515C710.917 79.4372 710.171 80.3119 709.275 81.0799C708.379 81.8479 707.291 82.4666 706.011 82.9359C704.773 83.4052 703.301 83.6399 701.595 83.6399ZM704.987 75.8959C707.632 75.8959 709.488 75.1492 710.555 73.6559C711.621 72.1199 712.155 69.7946 712.155 66.6799V65.6559C712.155 62.2852 711.643 59.7039 710.619 57.9119C709.595 56.1199 707.696 55.2239 704.923 55.2239C702.832 55.2239 701.189 56.1199 699.995 57.9119C698.843 59.7039 698.267 62.3066 698.267 65.7199C698.267 69.1332 698.843 71.6932 699.995 73.3999C701.189 75.0639 702.853 75.8959 704.987 75.8959Z" fill="url(#paint13_linear_112_3982)" fill-opacity="0.7"/>
<path d="M650.238 47.4159C653.481 47.4159 656.275 48.0346 658.622 49.2719C660.969 50.4666 662.761 52.2586 663.998 54.6479C665.278 56.9946 665.918 59.8746 665.918 63.2879V67.9599H643.454C643.539 70.6052 644.35 72.6959 645.886 74.2319C647.422 75.7252 649.619 76.4719 652.478 76.4719C654.654 76.4719 656.638 76.2586 658.43 75.8319C660.222 75.4052 662.057 74.7652 663.934 73.9119V81.1439C662.227 81.9972 660.414 82.6159 658.494 82.9999C656.617 83.4266 654.27 83.6399 651.454 83.6399C647.998 83.6399 644.926 82.9999 642.238 81.7199C639.593 80.4399 637.502 78.4772 635.966 75.8319C634.43 73.1439 633.662 69.7946 633.662 65.7839C633.662 61.6879 634.345 58.2959 635.71 55.6079C637.118 52.8772 639.059 50.8292 641.534 49.4639C644.051 48.0986 646.953 47.4159 650.238 47.4159ZM650.494 54.2639C648.574 54.2639 647.017 54.8826 645.822 56.1199C644.627 57.3146 643.923 59.1066 643.71 61.4959H656.894C656.894 60.0879 656.659 58.8506 656.19 57.7839C655.721 56.7172 654.995 55.8639 654.014 55.2239C653.075 54.5839 651.902 54.2639 650.494 54.2639Z" fill="url(#paint14_linear_112_3982)" fill-opacity="0.7"/>
<path d="M613.669 47.4159C617.509 47.4159 620.538 48.4186 622.757 50.4239C624.976 52.4292 626.085 55.6932 626.085 60.2159V82.9999H616.485V62.6479C616.485 60.1306 616.016 58.2532 615.077 57.0159C614.181 55.7359 612.773 55.0959 610.853 55.0959C607.952 55.0959 605.968 56.0986 604.901 58.1039C603.877 60.0666 603.365 62.9039 603.365 66.6159V82.9999H593.701V48.0559H601.125L602.469 52.7279H602.853C603.621 51.5759 604.538 50.6159 605.605 49.8479C606.714 49.0372 607.93 48.4399 609.253 48.0559C610.618 47.6292 612.09 47.4159 613.669 47.4159Z" fill="url(#paint15_linear_112_3982)" fill-opacity="0.7"/>
<path d="M585.957 65.4639C585.957 68.3652 585.552 70.9466 584.741 73.2079C583.973 75.4692 582.842 77.3679 581.349 78.9039C579.898 80.4399 578.128 81.6132 576.037 82.4239C573.946 83.2346 571.578 83.6399 568.933 83.6399C566.458 83.6399 564.197 83.2346 562.149 82.4239C560.101 81.6132 558.33 80.4399 556.837 78.9039C555.344 77.3679 554.17 75.4692 553.317 73.2079C552.464 70.9466 552.037 68.3652 552.037 65.4639C552.037 61.5812 552.72 58.2959 554.085 55.6079C555.45 52.9199 557.413 50.8932 559.973 49.5279C562.533 48.1199 565.584 47.4159 569.125 47.4159C572.41 47.4159 575.312 48.1199 577.829 49.5279C580.346 50.8932 582.33 52.9199 583.781 55.6079C585.232 58.2959 585.957 61.5812 585.957 65.4639ZM561.893 65.4639C561.893 67.7252 562.128 69.6666 562.597 71.2879C563.109 72.9092 563.877 74.1466 564.901 74.9999C565.968 75.8532 567.354 76.2799 569.061 76.2799C570.725 76.2799 572.069 75.8532 573.093 74.9999C574.16 74.1466 574.928 72.9092 575.397 71.2879C575.866 69.6666 576.101 67.7252 576.101 65.4639C576.101 63.1599 575.845 61.2186 575.333 59.6399C574.864 58.0612 574.117 56.8666 573.093 56.0559C572.069 55.2026 570.704 54.7759 568.997 54.7759C566.522 54.7759 564.709 55.6932 563.557 57.5279C562.448 59.3626 561.893 62.0079 561.893 65.4639Z" fill="url(#paint16_linear_112_3982)" fill-opacity="0.7"/>
<path d="M544.304 48.0559V82.9999H534.64V48.0559H544.304ZM539.504 34.2959C540.912 34.2959 542.128 34.6372 543.152 35.3199C544.219 35.9599 544.752 37.1972 544.752 39.0319C544.752 40.7812 544.219 41.9972 543.152 42.6799C542.128 43.3626 540.912 43.7039 539.504 43.7039C538.053 43.7039 536.816 43.3626 535.792 42.6799C534.768 41.9972 534.256 40.7812 534.256 39.0319C534.256 37.1972 534.768 35.9599 535.792 35.3199C536.816 34.6372 538.053 34.2959 539.504 34.2959Z" fill="url(#paint17_linear_112_3982)" fill-opacity="0.7"/>
<path d="M527.91 82.9999H500.262V77.3039L516.39 55.4159H501.158V48.0559H527.334V54.2639L511.654 75.5759H527.91V82.9999Z" fill="url(#paint18_linear_112_3982)" fill-opacity="0.7"/>
<path d="M493.581 48.0559V82.9999H486.157L484.941 78.5199H484.365C483.639 79.7146 482.701 80.6959 481.549 81.4639C480.439 82.2319 479.202 82.7866 477.837 83.1279C476.514 83.4692 475.106 83.6399 473.613 83.6399C471.138 83.6399 468.962 83.1919 467.085 82.2959C465.25 81.3999 463.799 80.0132 462.733 78.1359C461.709 76.2586 461.197 73.8266 461.197 70.8399V48.0559H470.925V68.4079C470.925 70.8826 471.351 72.7599 472.205 74.0399C473.101 75.2772 474.509 75.8959 476.429 75.8959C478.391 75.8959 479.906 75.4692 480.973 74.6159C482.082 73.7199 482.85 72.4186 483.277 70.7119C483.703 69.0052 483.917 66.9146 483.917 64.4399V48.0559H493.581Z" fill="url(#paint19_linear_112_3982)" fill-opacity="0.7"/>
<path d="M432.407 83.6399C428.567 83.6399 425.41 82.1252 422.935 79.0959C420.503 76.0239 419.287 71.5226 419.287 65.5919C419.287 59.5759 420.524 55.0532 422.999 52.0239C425.474 48.9519 428.716 47.4159 432.727 47.4159C434.391 47.4159 435.82 47.6506 437.015 48.1199C438.252 48.5466 439.319 49.1439 440.215 49.9119C441.111 50.6799 441.879 51.5546 442.519 52.5359H442.839C442.711 51.7679 442.583 50.7012 442.455 49.3359C442.37 47.9279 442.327 46.6479 442.327 45.4959V34.3599H452.055V82.9999H444.631L442.711 78.4559H442.327C441.73 79.4372 440.983 80.3119 440.087 81.0799C439.191 81.8479 438.103 82.4666 436.823 82.9359C435.586 83.4052 434.114 83.6399 432.407 83.6399ZM435.799 75.8959C438.444 75.8959 440.3 75.1492 441.367 73.6559C442.434 72.1199 442.967 69.7946 442.967 66.6799V65.6559C442.967 62.2852 442.455 59.7039 441.431 57.9119C440.407 56.1199 438.508 55.2239 435.735 55.2239C433.644 55.2239 432.002 56.1199 430.807 57.9119C429.655 59.7039 429.079 62.3066 429.079 65.7199C429.079 69.1332 429.655 71.6932 430.807 73.3999C432.002 75.0639 433.666 75.8959 435.799 75.8959Z" fill="url(#paint20_linear_112_3982)" fill-opacity="0.7"/>
<path d="M398.255 47.4159C402.649 47.4159 405.999 48.4612 408.303 50.5519C410.607 52.5999 411.759 55.6506 411.759 59.7039V82.9999H405.039L403.183 78.2639H402.927C401.945 79.5012 400.921 80.5252 399.855 81.3359C398.831 82.1466 397.636 82.7226 396.271 83.0639C394.905 83.4479 393.241 83.6399 391.279 83.6399C389.231 83.6399 387.396 83.2559 385.775 82.4879C384.153 81.6772 382.873 80.4612 381.935 78.8399C380.996 77.2186 380.527 75.1706 380.527 72.6959C380.527 69.0266 381.849 66.2746 384.495 64.4399C387.14 62.6052 391.087 61.5812 396.335 61.3679L402.159 61.1759V60.0879C402.159 57.9972 401.689 56.5466 400.751 55.7359C399.812 54.8826 398.489 54.4559 396.783 54.4559C395.204 54.4559 393.583 54.7119 391.919 55.2239C390.255 55.7359 388.612 56.3546 386.991 57.0799L384.175 50.4879C386.009 49.5492 388.1 48.8026 390.447 48.2479C392.836 47.6932 395.439 47.4159 398.255 47.4159ZM398.511 66.9999C395.481 67.0852 393.369 67.5759 392.175 68.4719C390.98 69.3679 390.383 70.6266 390.383 72.2479C390.383 73.7412 390.788 74.8506 391.599 75.5759C392.452 76.2586 393.583 76.5999 394.991 76.5999C396.996 76.5999 398.681 76.0026 400.047 74.8079C401.455 73.6132 402.159 71.9066 402.159 69.6879V66.8079L398.511 66.9999Z" fill="url(#paint21_linear_112_3982)" fill-opacity="0.7"/>
<path d="M374.592 47.4159C375.232 47.4159 375.914 47.4586 376.64 47.5439C377.408 47.5866 378.005 47.6719 378.432 47.7999L377.472 56.8239C377.002 56.7386 376.448 56.6532 375.808 56.5679C375.168 56.4826 374.4 56.4399 373.504 56.4399C372.522 56.4399 371.52 56.5892 370.496 56.8879C369.514 57.1866 368.597 57.6772 367.744 58.3599C366.89 59.0426 366.208 59.9386 365.696 61.0479C365.184 62.1572 364.928 63.5652 364.928 65.2719V82.9999H355.264V48.0559H362.624L364.032 53.9439H364.48C365.162 52.7066 366.016 51.5972 367.04 50.6159C368.064 49.6346 369.216 48.8666 370.496 48.3119C371.776 47.7146 373.141 47.4159 374.592 47.4159Z" fill="url(#paint22_linear_112_3982)" fill-opacity="0.7"/>
<path d="M340.202 82.9999H330.41V45.4319H318.058V37.3039H352.554V45.4319H340.202V82.9999Z" fill="url(#paint23_linear_112_3982)" fill-opacity="0.7"/>
</g>
</g>
<path d="M217 72H1183V105C1183 111.627 1177.63 117 1171 117H229C222.373 117 217 111.627 217 105V72Z" fill="url(#paint24_linear_112_3982)"/>
<path d="M1077.9 36.0559V70.9999H1068.24V36.0559H1077.9ZM1073.1 22.2959C1074.51 22.2959 1075.72 22.6372 1076.75 23.3199C1077.81 23.9599 1078.35 25.1972 1078.35 27.0319C1078.35 28.7812 1077.81 29.9972 1076.75 30.6799C1075.72 31.3626 1074.51 31.7039 1073.1 31.7039C1071.65 31.7039 1070.41 31.3626 1069.39 30.6799C1068.36 29.9972 1067.85 28.7812 1067.85 27.0319C1067.85 25.1972 1068.36 23.9599 1069.39 23.3199C1070.41 22.6372 1071.65 22.2959 1073.1 22.2959Z" fill="url(#paint25_linear_112_3982)"/>
<path d="M1058.77 70.9999H1049.11V22.3599H1058.77V70.9999Z" fill="url(#paint26_linear_112_3982)"/>
<path d="M1041.37 53.4639C1041.37 56.3652 1040.96 58.9466 1040.15 61.2079C1039.38 63.4692 1038.25 65.3679 1036.76 66.9039C1035.31 68.4399 1033.54 69.6132 1031.45 70.4239C1029.35 71.2346 1026.99 71.6399 1024.34 71.6399C1021.87 71.6399 1019.61 71.2346 1017.56 70.4239C1015.51 69.6132 1013.74 68.4399 1012.25 66.9039C1010.75 65.3679 1009.58 63.4692 1008.73 61.2079C1007.87 58.9466 1007.45 56.3652 1007.45 53.4639C1007.45 49.5812 1008.13 46.2959 1009.49 43.6079C1010.86 40.9199 1012.82 38.8932 1015.38 37.5279C1017.94 36.1199 1020.99 35.4159 1024.53 35.4159C1027.82 35.4159 1030.72 36.1199 1033.24 37.5279C1035.75 38.8932 1037.74 40.9199 1039.19 43.6079C1040.64 46.2959 1041.37 49.5812 1041.37 53.4639ZM1017.3 53.4639C1017.3 55.7252 1017.54 57.6666 1018.01 59.2879C1018.52 60.9092 1019.29 62.1466 1020.31 62.9999C1021.38 63.8532 1022.76 64.2799 1024.47 64.2799C1026.13 64.2799 1027.48 63.8532 1028.5 62.9999C1029.57 62.1466 1030.34 60.9092 1030.81 59.2879C1031.27 57.6666 1031.51 55.7252 1031.51 53.4639C1031.51 51.1599 1031.25 49.2186 1030.74 47.6399C1030.27 46.0612 1029.53 44.8666 1028.5 44.0559C1027.48 43.2026 1026.11 42.7759 1024.41 42.7759C1021.93 42.7759 1020.12 43.6932 1018.97 45.5279C1017.86 47.3626 1017.3 50.0079 1017.3 53.4639Z" fill="url(#paint27_linear_112_3982)"/>
<path d="M996.4 64.0239C997.466 64.0239 998.49 63.9172 999.472 63.7039C1000.45 63.4906 1001.43 63.2346 1002.42 62.9359V70.0399C1001.39 70.4666 1000.11 70.8292 998.576 71.1279C997.082 71.4692 995.44 71.6399 993.648 71.6399C991.557 71.6399 989.68 71.2986 988.016 70.6159C986.394 69.9332 985.093 68.7599 984.112 67.0959C983.173 65.3892 982.704 63.0426 982.704 60.0559V43.2239H978.16V39.1919L983.408 35.9919L986.16 28.6319H992.24V36.0559H1002.03V43.2239H992.24V60.0559C992.24 61.3786 992.624 62.3812 993.392 63.0639C994.16 63.7039 995.162 64.0239 996.4 64.0239Z" fill="url(#paint28_linear_112_3982)"/>
<path d="M971.963 36.0559V70.9999H962.299V36.0559H971.963ZM967.163 22.2959C968.571 22.2959 969.787 22.6372 970.811 23.3199C971.877 23.9599 972.411 25.1972 972.411 27.0319C972.411 28.7812 971.877 29.9972 970.811 30.6799C969.787 31.3626 968.571 31.7039 967.163 31.7039C965.712 31.7039 964.475 31.3626 963.451 30.6799C962.427 29.9972 961.915 28.7812 961.915 27.0319C961.915 25.1972 962.427 23.9599 963.451 23.3199C964.475 22.6372 965.712 22.2959 967.163 22.2959Z" fill="url(#paint29_linear_112_3982)"/>
<path d="M949.525 64.0239C950.591 64.0239 951.615 63.9172 952.597 63.7039C953.578 63.4906 954.559 63.2346 955.541 62.9359V70.0399C954.517 70.4666 953.237 70.8292 951.701 71.1279C950.207 71.4692 948.565 71.6399 946.773 71.6399C944.682 71.6399 942.805 71.2986 941.141 70.6159C939.519 69.9332 938.218 68.7599 937.237 67.0959C936.298 65.3892 935.829 63.0426 935.829 60.0559V43.2239H931.285V39.1919L936.533 35.9919L939.285 28.6319H945.365V36.0559H955.157V43.2239H945.365V60.0559C945.365 61.3786 945.749 62.3812 946.517 63.0639C947.285 63.7039 948.287 64.0239 949.525 64.0239Z" fill="url(#paint30_linear_112_3982)"/>
<path d="M926.741 53.4639C926.741 56.3652 926.335 58.9466 925.525 61.2079C924.757 63.4692 923.626 65.3679 922.133 66.9039C920.682 68.4399 918.911 69.6132 916.821 70.4239C914.73 71.2346 912.362 71.6399 909.717 71.6399C907.242 71.6399 904.981 71.2346 902.933 70.4239C900.885 69.6132 899.114 68.4399 897.621 66.9039C896.127 65.3679 894.954 63.4692 894.101 61.2079C893.247 58.9466 892.821 56.3652 892.821 53.4639C892.821 49.5812 893.503 46.2959 894.869 43.6079C896.234 40.9199 898.197 38.8932 900.757 37.5279C903.317 36.1199 906.367 35.4159 909.909 35.4159C913.194 35.4159 916.095 36.1199 918.613 37.5279C921.13 38.8932 923.114 40.9199 924.565 43.6079C926.015 46.2959 926.741 49.5812 926.741 53.4639ZM902.677 53.4639C902.677 55.7252 902.911 57.6666 903.381 59.2879C903.893 60.9092 904.661 62.1466 905.685 62.9999C906.751 63.8532 908.138 64.2799 909.845 64.2799C911.509 64.2799 912.853 63.8532 913.877 62.9999C914.943 62.1466 915.711 60.9092 916.181 59.2879C916.65 57.6666 916.885 55.7252 916.885 53.4639C916.885 51.1599 916.629 49.2186 916.117 47.6399C915.647 46.0612 914.901 44.8666 913.877 44.0559C912.853 43.2026 911.487 42.7759 909.781 42.7759C907.306 42.7759 905.493 43.6932 904.341 45.5279C903.231 47.3626 902.677 50.0079 902.677 53.4639Z" fill="url(#paint31_linear_112_3982)"/>
<path d="M881.775 64.0239C882.841 64.0239 883.865 63.9172 884.847 63.7039C885.828 63.4906 886.809 63.2346 887.791 62.9359V70.0399C886.767 70.4666 885.487 70.8292 883.951 71.1279C882.457 71.4692 880.815 71.6399 879.023 71.6399C876.932 71.6399 875.055 71.2986 873.391 70.6159C871.769 69.9332 870.468 68.7599 869.487 67.0959C868.548 65.3892 868.079 63.0426 868.079 60.0559V43.2239H863.535V39.1919L868.783 35.9919L871.535 28.6319H877.615V36.0559H887.407V43.2239H877.615V60.0559C877.615 61.3786 877.999 62.3812 878.767 63.0639C879.535 63.7039 880.537 64.0239 881.775 64.0239Z" fill="url(#paint32_linear_112_3982)"/>
<path d="M854.025 64.0239C855.091 64.0239 856.115 63.9172 857.097 63.7039C858.078 63.4906 859.059 63.2346 860.041 62.9359V70.0399C859.017 70.4666 857.737 70.8292 856.201 71.1279C854.707 71.4692 853.065 71.6399 851.273 71.6399C849.182 71.6399 847.305 71.2986 845.641 70.6159C844.019 69.9332 842.718 68.7599 841.737 67.0959C840.798 65.3892 840.329 63.0426 840.329 60.0559V43.2239H835.785V39.1919L841.033 35.9919L843.785 28.6319H849.865V36.0559H859.657V43.2239H849.865V60.0559C849.865 61.3786 850.249 62.3812 851.017 63.0639C851.785 63.7039 852.787 64.0239 854.025 64.0239Z" fill="url(#paint33_linear_112_3982)"/>
<path d="M831.241 53.4639C831.241 56.3652 830.835 58.9466 830.025 61.2079C829.257 63.4692 828.126 65.3679 826.633 66.9039C825.182 68.4399 823.411 69.6132 821.321 70.4239C819.23 71.2346 816.862 71.6399 814.217 71.6399C811.742 71.6399 809.481 71.2346 807.433 70.4239C805.385 69.6132 803.614 68.4399 802.121 66.9039C800.627 65.3679 799.454 63.4692 798.601 61.2079C797.747 58.9466 797.321 56.3652 797.321 53.4639C797.321 49.5812 798.003 46.2959 799.369 43.6079C800.734 40.9199 802.697 38.8932 805.257 37.5279C807.817 36.1199 810.867 35.4159 814.409 35.4159C817.694 35.4159 820.595 36.1199 823.113 37.5279C825.63 38.8932 827.614 40.9199 829.065 43.6079C830.515 46.2959 831.241 49.5812 831.241 53.4639ZM807.177 53.4639C807.177 55.7252 807.411 57.6666 807.881 59.2879C808.393 60.9092 809.161 62.1466 810.185 62.9999C811.251 63.8532 812.638 64.2799 814.345 64.2799C816.009 64.2799 817.353 63.8532 818.377 62.9999C819.443 62.1466 820.211 60.9092 820.681 59.2879C821.15 57.6666 821.385 55.7252 821.385 53.4639C821.385 51.1599 821.129 49.2186 820.617 47.6399C820.147 46.0612 819.401 44.8666 818.377 44.0559C817.353 43.2026 815.987 42.7759 814.281 42.7759C811.806 42.7759 809.993 43.6932 808.841 45.5279C807.731 47.3626 807.177 50.0079 807.177 53.4639Z" fill="url(#paint34_linear_112_3982)"/>
<path d="M791.628 60.6959C791.628 62.9146 791.094 64.8559 790.028 66.5199C789.004 68.1412 787.425 69.3999 785.292 70.2959C783.158 71.1919 780.449 71.6399 777.164 71.6399C774.689 71.6399 772.513 71.4692 770.636 71.1279C768.758 70.8292 766.945 70.3172 765.196 69.5919V61.5919C767.073 62.4879 769.1 63.1919 771.276 63.7039C773.452 64.2159 775.329 64.4719 776.908 64.4719C778.87 64.4719 780.278 64.1946 781.132 63.6399C782.028 63.0852 782.476 62.3386 782.476 61.3999C782.476 60.7599 782.241 60.1839 781.772 59.6719C781.345 59.1599 780.556 58.6266 779.404 58.0719C778.294 57.5172 776.694 56.8346 774.604 56.0239C772.513 55.1706 770.764 54.2959 769.356 53.3999C767.948 52.4612 766.881 51.3519 766.156 50.0719C765.473 48.7919 765.132 47.1919 765.132 45.2719C765.132 42.0719 766.39 39.6399 768.908 37.9759C771.468 36.2692 774.838 35.4159 779.02 35.4159C781.281 35.4159 783.372 35.6506 785.292 36.1199C787.254 36.5892 789.238 37.2506 791.244 38.1039L788.428 44.6959C786.806 43.9706 785.142 43.3732 783.436 42.9039C781.729 42.4346 780.214 42.1999 778.892 42.1999C777.441 42.1999 776.31 42.4346 775.5 42.9039C774.689 43.3306 774.284 43.9492 774.284 44.7599C774.284 45.3572 774.497 45.8906 774.924 46.3599C775.393 46.8292 776.182 47.3199 777.292 47.8319C778.444 48.3439 780.044 49.0052 782.092 49.8159C784.182 50.6266 785.932 51.5012 787.34 52.4399C788.79 53.3359 789.857 54.4452 790.54 55.7679C791.265 57.0479 791.628 58.6906 791.628 60.6959Z" fill="url(#paint35_linear_112_3982)"/>
<path d="M740.838 36.0559V70.9999H731.174V36.0559H740.838ZM736.038 22.2959C737.446 22.2959 738.662 22.6372 739.686 23.3199C740.752 23.9599 741.286 25.1972 741.286 27.0319C741.286 28.7812 740.752 29.9972 739.686 30.6799C738.662 31.3626 737.446 31.7039 736.038 31.7039C734.587 31.7039 733.35 31.3626 732.326 30.6799C731.302 29.9972 730.79 28.7812 730.79 27.0319C730.79 25.1972 731.302 23.9599 732.326 23.3199C733.35 22.6372 734.587 22.2959 736.038 22.2959Z" fill="url(#paint36_linear_112_3982)"/>
<path d="M702.128 71.6399C698.288 71.6399 695.131 70.1252 692.656 67.0959C690.224 64.0239 689.008 59.5226 689.008 53.5919C689.008 47.5759 690.245 43.0532 692.72 40.0239C695.195 36.9519 698.437 35.4159 702.448 35.4159C704.112 35.4159 705.541 35.6506 706.736 36.1199C707.973 36.5466 709.04 37.1439 709.936 37.9119C710.832 38.6799 711.6 39.5546 712.24 40.5359H712.56C712.432 39.7679 712.304 38.7012 712.176 37.3359C712.091 35.9279 712.048 34.6479 712.048 33.4959V22.3599H721.776V70.9999H714.352L712.432 66.4559H712.048C711.451 67.4372 710.704 68.3119 709.808 69.0799C708.912 69.8479 707.824 70.4666 706.544 70.9359C705.307 71.4052 703.835 71.6399 702.128 71.6399ZM705.52 63.8959C708.165 63.8959 710.021 63.1492 711.088 61.6559C712.155 60.1199 712.688 57.7946 712.688 54.6799V53.6559C712.688 50.2852 712.176 47.7039 711.152 45.9119C710.128 44.1199 708.229 43.2239 705.456 43.2239C703.365 43.2239 701.723 44.1199 700.528 45.9119C699.376 47.7039 698.8 50.3066 698.8 53.7199C698.8 57.1332 699.376 59.6932 700.528 61.3999C701.723 63.0639 703.387 63.8959 705.52 63.8959Z" fill="url(#paint37_linear_112_3982)"/>
<path d="M650.772 35.4159C654.014 35.4159 656.809 36.0346 659.156 37.2719C661.502 38.4666 663.294 40.2586 664.532 42.6479C665.812 44.9946 666.452 47.8746 666.452 51.2879V55.9599H643.988C644.073 58.6052 644.884 60.6959 646.42 62.2319C647.956 63.7252 650.153 64.4719 653.012 64.4719C655.188 64.4719 657.172 64.2586 658.964 63.8319C660.756 63.4052 662.59 62.7652 664.468 61.9119V69.1439C662.761 69.9972 660.948 70.6159 659.028 70.9999C657.15 71.4266 654.804 71.6399 651.988 71.6399C648.532 71.6399 645.46 70.9999 642.772 69.7199C640.126 68.4399 638.036 66.4772 636.5 63.8319C634.964 61.1439 634.196 57.7946 634.196 53.7839C634.196 49.6879 634.878 46.2959 636.244 43.6079C637.652 40.8772 639.593 38.8292 642.068 37.4639C644.585 36.0986 647.486 35.4159 650.772 35.4159ZM651.028 42.2639C649.108 42.2639 647.55 42.8826 646.356 44.1199C645.161 45.3146 644.457 47.1066 644.244 49.4959H657.428C657.428 48.0879 657.193 46.8506 656.724 45.7839C656.254 44.7172 655.529 43.8639 654.548 43.2239C653.609 42.5839 652.436 42.2639 651.028 42.2639Z" fill="url(#paint38_linear_112_3982)"/>
<path d="M614.203 35.4159C618.043 35.4159 621.072 36.4186 623.291 38.4239C625.509 40.4292 626.619 43.6932 626.619 48.2159V70.9999H617.019V50.6479C617.019 48.1306 616.549 46.2532 615.611 45.0159C614.715 43.7359 613.307 43.0959 611.387 43.0959C608.485 43.0959 606.501 44.0986 605.435 46.1039C604.411 48.0666 603.899 50.9039 603.899 54.6159V70.9999H594.235V36.0559H601.659L603.003 40.7279H603.387C604.155 39.5759 605.072 38.6159 606.139 37.8479C607.248 37.0372 608.464 36.4399 609.787 36.0559C611.152 35.6292 612.624 35.4159 614.203 35.4159Z" fill="url(#paint39_linear_112_3982)"/>
<path d="M586.491 53.4639C586.491 56.3652 586.085 58.9466 585.275 61.2079C584.507 63.4692 583.376 65.3679 581.883 66.9039C580.432 68.4399 578.661 69.6132 576.571 70.4239C574.48 71.2346 572.112 71.6399 569.467 71.6399C566.992 71.6399 564.731 71.2346 562.683 70.4239C560.635 69.6132 558.864 68.4399 557.371 66.9039C555.877 65.3679 554.704 63.4692 553.851 61.2079C552.997 58.9466 552.571 56.3652 552.571 53.4639C552.571 49.5812 553.253 46.2959 554.619 43.6079C555.984 40.9199 557.947 38.8932 560.507 37.5279C563.067 36.1199 566.117 35.4159 569.659 35.4159C572.944 35.4159 575.845 36.1199 578.363 37.5279C580.88 38.8932 582.864 40.9199 584.315 43.6079C585.765 46.2959 586.491 49.5812 586.491 53.4639ZM562.427 53.4639C562.427 55.7252 562.661 57.6666 563.131 59.2879C563.643 60.9092 564.411 62.1466 565.435 62.9999C566.501 63.8532 567.888 64.2799 569.595 64.2799C571.259 64.2799 572.603 63.8532 573.627 62.9999C574.693 62.1466 575.461 60.9092 575.931 59.2879C576.4 57.6666 576.635 55.7252 576.635 53.4639C576.635 51.1599 576.379 49.2186 575.867 47.6399C575.397 46.0612 574.651 44.8666 573.627 44.0559C572.603 43.2026 571.237 42.7759 569.531 42.7759C567.056 42.7759 565.243 43.6932 564.091 45.5279C562.981 47.3626 562.427 50.0079 562.427 53.4639Z" fill="url(#paint40_linear_112_3982)"/>
<path d="M544.838 36.0559V70.9999H535.174V36.0559H544.838ZM540.038 22.2959C541.446 22.2959 542.662 22.6372 543.686 23.3199C544.752 23.9599 545.286 25.1972 545.286 27.0319C545.286 28.7812 544.752 29.9972 543.686 30.6799C542.662 31.3626 541.446 31.7039 540.038 31.7039C538.587 31.7039 537.35 31.3626 536.326 30.6799C535.302 29.9972 534.79 28.7812 534.79 27.0319C534.79 25.1972 535.302 23.9599 536.326 23.3199C537.35 22.6372 538.587 22.2959 540.038 22.2959Z" fill="url(#paint41_linear_112_3982)"/>
<path d="M528.443 70.9999H500.795V65.3039L516.923 43.4159H501.691V36.0559H527.867V42.2639L512.187 63.5759H528.443V70.9999Z" fill="url(#paint42_linear_112_3982)"/>
<path d="M494.114 36.0559V70.9999H486.69L485.474 66.5199H484.898C484.173 67.7146 483.234 68.6959 482.082 69.4639C480.973 70.2319 479.735 70.7866 478.37 71.1279C477.047 71.4692 475.639 71.6399 474.146 71.6399C471.671 71.6399 469.495 71.1919 467.618 70.2959C465.783 69.3999 464.333 68.0132 463.266 66.1359C462.242 64.2586 461.73 61.8266 461.73 58.8399V36.0559H471.458V56.4079C471.458 58.8826 471.885 60.7599 472.738 62.0399C473.634 63.2772 475.042 63.8959 476.962 63.8959C478.925 63.8959 480.439 63.4692 481.506 62.6159C482.615 61.7199 483.383 60.4186 483.81 58.7119C484.237 57.0052 484.45 54.9146 484.45 52.4399V36.0559H494.114Z" fill="url(#paint43_linear_112_3982)"/>
<path d="M432.941 71.6399C429.101 71.6399 425.943 70.1252 423.469 67.0959C421.037 64.0239 419.821 59.5226 419.821 53.5919C419.821 47.5759 421.058 43.0532 423.533 40.0239C426.007 36.9519 429.25 35.4159 433.261 35.4159C434.925 35.4159 436.354 35.6506 437.549 36.1199C438.786 36.5466 439.853 37.1439 440.749 37.9119C441.645 38.6799 442.413 39.5546 443.053 40.5359H443.373C443.245 39.7679 443.117 38.7012 442.989 37.3359C442.903 35.9279 442.861 34.6479 442.861 33.4959V22.3599H452.589V70.9999H445.165L443.245 66.4559H442.861C442.263 67.4372 441.517 68.3119 440.621 69.0799C439.725 69.8479 438.637 70.4666 437.357 70.9359C436.119 71.4052 434.647 71.6399 432.941 71.6399ZM436.333 63.8959C438.978 63.8959 440.834 63.1492 441.901 61.6559C442.967 60.1199 443.501 57.7946 443.501 54.6799V53.6559C443.501 50.2852 442.989 47.7039 441.965 45.9119C440.941 44.1199 439.042 43.2239 436.269 43.2239C434.178 43.2239 432.535 44.1199 431.341 45.9119C430.189 47.7039 429.613 50.3066 429.613 53.7199C429.613 57.1332 430.189 59.6932 431.341 61.3999C432.535 63.0639 434.199 63.8959 436.333 63.8959Z" fill="url(#paint44_linear_112_3982)"/>
<path d="M398.788 35.4159C403.183 35.4159 406.532 36.4612 408.836 38.5519C411.14 40.5999 412.292 43.6506 412.292 47.7039V70.9999H405.572L403.716 66.2639H403.46C402.479 67.5012 401.455 68.5252 400.388 69.3359C399.364 70.1466 398.169 70.7226 396.804 71.0639C395.439 71.4479 393.775 71.6399 391.812 71.6399C389.764 71.6399 387.929 71.2559 386.308 70.4879C384.687 69.6772 383.407 68.4612 382.468 66.8399C381.529 65.2186 381.06 63.1706 381.06 60.6959C381.06 57.0266 382.383 54.2746 385.028 52.4399C387.673 50.6052 391.62 49.5812 396.868 49.3679L402.692 49.1759V48.0879C402.692 45.9972 402.223 44.5466 401.284 43.7359C400.345 42.8826 399.023 42.4559 397.316 42.4559C395.737 42.4559 394.116 42.7119 392.452 43.2239C390.788 43.7359 389.145 44.3546 387.524 45.0799L384.708 38.4879C386.543 37.5492 388.633 36.8026 390.98 36.2479C393.369 35.6932 395.972 35.4159 398.788 35.4159ZM399.044 54.9999C396.015 55.0852 393.903 55.5759 392.708 56.4719C391.513 57.3679 390.916 58.6266 390.916 60.2479C390.916 61.7412 391.321 62.8506 392.132 63.5759C392.985 64.2586 394.116 64.5999 395.524 64.5999C397.529 64.5999 399.215 64.0026 400.58 62.8079C401.988 61.6132 402.692 59.9066 402.692 57.6879V54.8079L399.044 54.9999Z" fill="url(#paint45_linear_112_3982)"/>
<path d="M375.125 35.4159C375.765 35.4159 376.448 35.4586 377.173 35.5439C377.941 35.5866 378.538 35.6719 378.965 35.7999L378.005 44.8239C377.536 44.7386 376.981 44.6532 376.341 44.5679C375.701 44.4826 374.933 44.4399 374.037 44.4399C373.056 44.4399 372.053 44.5892 371.029 44.8879C370.048 45.1866 369.13 45.6772 368.277 46.3599C367.424 47.0426 366.741 47.9386 366.229 49.0479C365.717 50.1572 365.461 51.5652 365.461 53.2719V70.9999H355.797V36.0559H363.157L364.565 41.9439H365.013C365.696 40.7066 366.549 39.5972 367.573 38.6159C368.597 37.6346 369.749 36.8666 371.029 36.3119C372.309 35.7146 373.674 35.4159 375.125 35.4159Z" fill="url(#paint46_linear_112_3982)"/>
<path d="M340.735 70.9999H330.943V33.4319H318.591V25.3039H353.087V33.4319H340.735V70.9999Z" fill="url(#paint47_linear_112_3982)"/>
<defs>
<filter id="filter0_f_112_3982" x="298.058" y="14.2959" width="799.757" height="89.3442" filterUnits="userSpaceOnUse" color-interpolation-filters="sRGB">
<feFlood flood-opacity="0" result="BackgroundImageFix"/>
<feBlend mode="normal" in="SourceGraphic" in2="BackgroundImageFix" result="shape"/>
<feGaussianBlur stdDeviation="10" result="effect1_foregroundBlur_112_3982"/>
</filter>
<linearGradient id="paint0_linear_112_3982" x1="217" y1="64.0036" x2="1183" y2="64.0025" gradientUnits="userSpaceOnUse">
<stop stop-color="white" stop-opacity="0.3"/>
<stop offset="0.359008" stop-color="#CBB0F8"/>
<stop offset="0.788712" stop-color="#FCD9ED"/>
<stop offset="1" stop-color="white" stop-opacity="0.3"/>
</linearGradient>
<linearGradient id="paint1_linear_112_3982" x1="1414.55" y1="58.818" x2="-54032.5" y2="59.3955" gradientUnits="userSpaceOnUse">
<stop stop-color="#F4439F"/>
<stop offset="1" stop-color="#7C3AED"/>
</linearGradient>
<linearGradient id="paint2_linear_112_3982" x1="2982.44" y1="58.7853" x2="-57238.4" y2="59.4656" gradientUnits="userSpaceOnUse">
<stop stop-color="#F4439F"/>
<stop offset="1" stop-color="#7C3AED"/>
</linearGradient>
<linearGradient id="paint3_linear_112_3982" x1="2010.37" y1="49.3944" x2="-15146.9" y2="49.4355" gradientUnits="userSpaceOnUse">
<stop stop-color="#F4439F"/>
<stop offset="1" stop-color="#7C3AED"/>
</linearGradient>
<linearGradient id="paint4_linear_112_3982" x1="3601.91" y1="54.7962" x2="-20391" y2="54.8917" gradientUnits="userSpaceOnUse">
<stop stop-color="#F4439F"/>
<stop offset="1" stop-color="#7C3AED"/>
</linearGradient>
<linearGradient id="paint5_linear_112_3982" x1="9082.85" y1="58.818" x2="-46364.2" y2="59.3955" gradientUnits="userSpaceOnUse">
<stop stop-color="#F4439F"/>
<stop offset="1" stop-color="#7C3AED"/>
</linearGradient>
<linearGradient id="paint6_linear_112_3982" x1="5070.15" y1="54.7962" x2="-18922.8" y2="54.8917" gradientUnits="userSpaceOnUse">
<stop stop-color="#F4439F"/>
<stop offset="1" stop-color="#7C3AED"/>
</linearGradient>
<linearGradient id="paint7_linear_112_3982" x1="4577.79" y1="49.3944" x2="-12579.5" y2="49.4355" gradientUnits="userSpaceOnUse">
<stop stop-color="#F4439F"/>
<stop offset="1" stop-color="#7C3AED"/>
</linearGradient>
<linearGradient id="paint8_linear_112_3982" x1="7192.24" y1="54.7962" x2="-16800.7" y2="54.8917" gradientUnits="userSpaceOnUse">
<stop stop-color="#F4439F"/>
<stop offset="1" stop-color="#7C3AED"/>
</linearGradient>
<linearGradient id="paint9_linear_112_3982" x1="8061.44" y1="54.7962" x2="-15931.5" y2="54.8917" gradientUnits="userSpaceOnUse">
<stop stop-color="#F4439F"/>
<stop offset="1" stop-color="#7C3AED"/>
</linearGradient>
<linearGradient id="paint10_linear_112_3982" x1="6716.85" y1="49.3944" x2="-10440.4" y2="49.4355" gradientUnits="userSpaceOnUse">
<stop stop-color="#F4439F"/>
<stop offset="1" stop-color="#7C3AED"/>
</linearGradient>
<linearGradient id="paint11_linear_112_3982" x1="9432.75" y1="49.3944" x2="-12531.8" y2="49.4618" gradientUnits="userSpaceOnUse">
<stop stop-color="#F4439F"/>
<stop offset="1" stop-color="#7C3AED"/>
</linearGradient>
<linearGradient id="paint12_linear_112_3982" x1="25812.9" y1="58.818" x2="-29634.2" y2="59.3955" gradientUnits="userSpaceOnUse">
<stop stop-color="#F4439F"/>
<stop offset="1" stop-color="#7C3AED"/>
</linearGradient>
<linearGradient id="paint13_linear_112_3982" x1="9453.13" y1="58.4672" x2="-8307.3" y2="58.5272" gradientUnits="userSpaceOnUse">
<stop stop-color="#F4439F"/>
<stop offset="1" stop-color="#7C3AED"/>
</linearGradient>
<linearGradient id="paint14_linear_112_3982" x1="10889.2" y1="49.3945" x2="-7153.15" y2="49.4399" gradientUnits="userSpaceOnUse">
<stop stop-color="#F4439F"/>
<stop offset="1" stop-color="#7C3AED"/>
</linearGradient>
<linearGradient id="paint15_linear_112_3982" x1="11784.9" y1="49.666" x2="-6186.11" y2="49.7103" gradientUnits="userSpaceOnUse">
<stop stop-color="#F4439F"/>
<stop offset="1" stop-color="#7C3AED"/>
</linearGradient>
<linearGradient id="paint16_linear_112_3982" x1="12198.9" y1="49.3945" x2="-4958.37" y2="49.4356" gradientUnits="userSpaceOnUse">
<stop stop-color="#F4439F"/>
<stop offset="1" stop-color="#7C3AED"/>
</linearGradient>
<linearGradient id="paint17_linear_112_3982" x1="40000.5" y1="58.818" x2="-15446.7" y2="59.3955" gradientUnits="userSpaceOnUse">
<stop stop-color="#F4439F"/>
<stop offset="1" stop-color="#7C3AED"/>
</linearGradient>
<linearGradient id="paint18_linear_112_3982" x1="16316.8" y1="49.0437" x2="-4732.56" y2="49.1035" gradientUnits="userSpaceOnUse">
<stop stop-color="#F4439F"/>
<stop offset="1" stop-color="#7C3AED"/>
</linearGradient>
<linearGradient id="paint19_linear_112_3982" x1="14893.6" y1="48.7785" x2="-3077.43" y2="48.8228" gradientUnits="userSpaceOnUse">
<stop stop-color="#F4439F"/>
<stop offset="1" stop-color="#7C3AED"/>
</linearGradient>
<linearGradient id="paint20_linear_112_3982" x1="15694.5" y1="58.4672" x2="-2065.93" y2="58.5272" gradientUnits="userSpaceOnUse">
<stop stop-color="#F4439F"/>
<stop offset="1" stop-color="#7C3AED"/>
</linearGradient>
<linearGradient id="paint21_linear_112_3982" x1="17393.6" y1="49.3945" x2="-1240.28" y2="49.443" gradientUnits="userSpaceOnUse">
<stop stop-color="#F4439F"/>
<stop offset="1" stop-color="#7C3AED"/>
</linearGradient>
<linearGradient id="paint22_linear_112_3982" x1="24165.5" y1="49.666" x2="-954.227" y2="49.7526" gradientUnits="userSpaceOnUse">
<stop stop-color="#F4439F"/>
<stop offset="1" stop-color="#7C3AED"/>
</linearGradient>
<linearGradient id="paint23_linear_112_3982" x1="1082.47" y1="58.4997" x2="316.467" y2="58.4999" gradientUnits="userSpaceOnUse">
<stop stop-color="#F4439F"/>
<stop offset="1" stop-color="#7C3AED"/>
</linearGradient>
<linearGradient id="paint24_linear_112_3982" x1="700" y1="72" x2="700" y2="117" gradientUnits="userSpaceOnUse">
<stop offset="0.0001" stop-color="white" stop-opacity="0.1"/>
<stop offset="1" stop-color="white" stop-opacity="0"/>
</linearGradient>
<linearGradient id="paint25_linear_112_3982" x1="1415.08" y1="2.74633" x2="1386.11" y2="1304.21" gradientUnits="userSpaceOnUse">
<stop stop-color="#F4439F"/>
<stop offset="1" stop-color="#7C3AED"/>
</linearGradient>
<linearGradient id="paint26_linear_112_3982" x1="2982.97" y1="2.65568" x2="2956.22" y2="1305.93" gradientUnits="userSpaceOnUse">
<stop stop-color="#F4439F"/>
<stop offset="1" stop-color="#7C3AED"/>
</linearGradient>
<linearGradient id="paint27_linear_112_3982" x1="2010.9" y1="-21.8609" x2="1843.13" y2="1712.63" gradientUnits="userSpaceOnUse">
<stop stop-color="#F4439F"/>
<stop offset="1" stop-color="#7C3AED"/>
</linearGradient>
<linearGradient id="paint28_linear_112_3982" x1="3602.45" y1="-7.11225" x2="3516.83" y2="1462.46" gradientUnits="userSpaceOnUse">
<stop stop-color="#F4439F"/>
<stop offset="1" stop-color="#7C3AED"/>
</linearGradient>
<linearGradient id="paint29_linear_112_3982" x1="9083.39" y1="2.74634" x2="9054.41" y2="1304.21" gradientUnits="userSpaceOnUse">
<stop stop-color="#F4439F"/>
<stop offset="1" stop-color="#7C3AED"/>
</linearGradient>
<linearGradient id="paint30_linear_112_3982" x1="5070.68" y1="-7.11225" x2="4985.07" y2="1462.46" gradientUnits="userSpaceOnUse">
<stop stop-color="#F4439F"/>
<stop offset="1" stop-color="#7C3AED"/>
</linearGradient>
<linearGradient id="paint31_linear_112_3982" x1="4578.33" y1="-21.8609" x2="4410.56" y2="1712.63" gradientUnits="userSpaceOnUse">
<stop stop-color="#F4439F"/>
<stop offset="1" stop-color="#7C3AED"/>
</linearGradient>
<linearGradient id="paint32_linear_112_3982" x1="7192.77" y1="-7.11224" x2="7107.16" y2="1462.46" gradientUnits="userSpaceOnUse">
<stop stop-color="#F4439F"/>
<stop offset="1" stop-color="#7C3AED"/>
</linearGradient>
<linearGradient id="paint33_linear_112_3982" x1="8061.97" y1="-7.11223" x2="7976.36" y2="1462.46" gradientUnits="userSpaceOnUse">
<stop stop-color="#F4439F"/>
<stop offset="1" stop-color="#7C3AED"/>
</linearGradient>
<linearGradient id="paint34_linear_112_3982" x1="6717.39" y1="-21.8609" x2="6549.62" y2="1712.63" gradientUnits="userSpaceOnUse">
<stop stop-color="#F4439F"/>
<stop offset="1" stop-color="#7C3AED"/>
</linearGradient>
<linearGradient id="paint35_linear_112_3982" x1="9433.28" y1="-21.8609" x2="9301.75" y2="1718.92" gradientUnits="userSpaceOnUse">
<stop stop-color="#F4439F"/>
<stop offset="1" stop-color="#7C3AED"/>
</linearGradient>
<linearGradient id="paint36_linear_112_3982" x1="25813.5" y1="2.74633" x2="25784.5" y2="1304.21" gradientUnits="userSpaceOnUse">
<stop stop-color="#F4439F"/>
<stop offset="1" stop-color="#7C3AED"/>
</linearGradient>
<linearGradient id="paint37_linear_112_3982" x1="9453.67" y1="2.91074" x2="9365.69" y2="1283.76" gradientUnits="userSpaceOnUse">
<stop stop-color="#F4439F"/>
<stop offset="1" stop-color="#7C3AED"/>
</linearGradient>
<linearGradient id="paint38_linear_112_3982" x1="10889.7" y1="-21.8609" x2="10730" y2="1714.17" gradientUnits="userSpaceOnUse">
<stop stop-color="#F4439F"/>
<stop offset="1" stop-color="#7C3AED"/>
</linearGradient>
<linearGradient id="paint39_linear_112_3982" x1="11785.5" y1="-22.6551" x2="11619.4" y2="1743.94" gradientUnits="userSpaceOnUse">
<stop stop-color="#F4439F"/>
<stop offset="1" stop-color="#7C3AED"/>
</linearGradient>
<linearGradient id="paint40_linear_112_3982" x1="12199.4" y1="-21.8609" x2="12031.6" y2="1712.63" gradientUnits="userSpaceOnUse">
<stop stop-color="#F4439F"/>
<stop offset="1" stop-color="#7C3AED"/>
</linearGradient>
<linearGradient id="paint41_linear_112_3982" x1="40001" y1="2.74634" x2="39972" y2="1304.21" gradientUnits="userSpaceOnUse">
<stop stop-color="#F4439F"/>
<stop offset="1" stop-color="#7C3AED"/>
</linearGradient>
<linearGradient id="paint42_linear_112_3982" x1="16317.4" y1="-24.3821" x2="16170" y2="1778.42" gradientUnits="userSpaceOnUse">
<stop stop-color="#F4439F"/>
<stop offset="1" stop-color="#7C3AED"/>
</linearGradient>
<linearGradient id="paint43_linear_112_3982" x1="14894.1" y1="-23.5425" x2="14728.1" y2="1743.05" gradientUnits="userSpaceOnUse">
<stop stop-color="#F4439F"/>
<stop offset="1" stop-color="#7C3AED"/>
</linearGradient>
<linearGradient id="paint44_linear_112_3982" x1="15695" y1="2.91076" x2="15607.1" y2="1283.76" gradientUnits="userSpaceOnUse">
<stop stop-color="#F4439F"/>
<stop offset="1" stop-color="#7C3AED"/>
</linearGradient>
<linearGradient id="paint45_linear_112_3982" x1="17394.1" y1="-21.8609" x2="17239.5" y2="1715.08" gradientUnits="userSpaceOnUse">
<stop stop-color="#F4439F"/>
<stop offset="1" stop-color="#7C3AED"/>
</linearGradient>
<linearGradient id="paint46_linear_112_3982" x1="24166" y1="-22.6551" x2="24046.7" y2="1751.52" gradientUnits="userSpaceOnUse">
<stop stop-color="#F4439F"/>
<stop offset="1" stop-color="#7C3AED"/>
</linearGradient>
<linearGradient id="paint47_linear_112_3982" x1="1083" y1="2.99973" x2="503.866" y2="367.128" gradientUnits="userSpaceOnUse">
<stop stop-color="#F4439F"/>
<stop offset="1" stop-color="#7C3AED"/>
</linearGradient>
</defs>
</svg>
