<svg width="1400" height="120" viewBox="0 0 1400 120" fill="none" xmlns="http://www.w3.org/2000/svg">
<path d="M305 56H1095V72H305V56Z" fill="url(#paint0_linear_112_4038)"/>
<mask id="mask0_112_4038" style="mask-type:alpha" maskUnits="userSpaceOnUse" x="305" y="72" width="790" height="45">
<path d="M305 72H1095V117H305V72Z" fill="#C4C4C4"/>
</mask>
<g mask="url(#mask0_112_4038)">
<g filter="url(#filter0_f_112_4038)">
<path d="M989.617 48.0559V82.9999H979.953V48.0559H989.617ZM984.817 34.2959C986.225 34.2959 987.441 34.6372 988.465 35.3199C989.531 35.9599 990.065 37.1972 990.065 39.0319C990.065 40.7812 989.531 41.9972 988.465 42.6799C987.441 43.3626 986.225 43.7039 984.817 43.7039C983.366 43.7039 982.129 43.3626 981.105 42.6799C980.081 41.9972 979.569 40.7812 979.569 39.0319C979.569 37.1972 980.081 35.9599 981.105 35.3199C982.129 34.6372 983.366 34.2959 984.817 34.2959Z" fill="url(#paint1_linear_112_4038)" fill-opacity="0.7"/>
<path d="M967.179 76.0239C968.245 76.0239 969.269 75.9172 970.251 75.7039C971.232 75.4906 972.213 75.2346 973.195 74.9359V82.0399C972.171 82.4666 970.891 82.8292 969.355 83.1279C967.861 83.4692 966.219 83.6399 964.427 83.6399C962.336 83.6399 960.459 83.2986 958.795 82.6159C957.173 81.9332 955.872 80.7599 954.891 79.0959C953.952 77.3892 953.483 75.0426 953.483 72.0559V55.2239H948.939V51.1919L954.187 47.9919L956.939 40.6319H963.019V48.0559H972.811V55.2239H963.019V72.0559C963.019 73.3786 963.403 74.3812 964.171 75.0639C964.939 75.7039 965.941 76.0239 967.179 76.0239Z" fill="url(#paint2_linear_112_4038)" fill-opacity="0.7"/>
<path d="M944.782 72.6959C944.782 74.9146 944.248 76.8559 943.182 78.5199C942.158 80.1412 940.579 81.3999 938.446 82.2959C936.312 83.1919 933.603 83.6399 930.318 83.6399C927.843 83.6399 925.667 83.4692 923.79 83.1279C921.912 82.8292 920.099 82.3172 918.35 81.5919V73.5919C920.227 74.4879 922.254 75.1919 924.43 75.7039C926.606 76.2159 928.483 76.4719 930.062 76.4719C932.024 76.4719 933.432 76.1946 934.286 75.6399C935.182 75.0852 935.63 74.3386 935.63 73.3999C935.63 72.7599 935.395 72.1839 934.926 71.6719C934.499 71.1599 933.71 70.6266 932.558 70.0719C931.448 69.5172 929.848 68.8346 927.758 68.0239C925.667 67.1706 923.918 66.2959 922.51 65.3999C921.102 64.4612 920.035 63.3519 919.31 62.0719C918.627 60.7919 918.286 59.1919 918.286 57.2719C918.286 54.0719 919.544 51.6399 922.062 49.9759C924.622 48.2692 927.992 47.4159 932.174 47.4159C934.435 47.4159 936.526 47.6506 938.446 48.1199C940.408 48.5892 942.392 49.2506 944.398 50.1039L941.582 56.6959C939.96 55.9706 938.296 55.3732 936.59 54.9039C934.883 54.4346 933.368 54.1999 932.046 54.1999C930.595 54.1999 929.464 54.4346 928.654 54.9039C927.843 55.3306 927.438 55.9492 927.438 56.7599C927.438 57.3572 927.651 57.8906 928.078 58.3599C928.547 58.8292 929.336 59.3199 930.446 59.8319C931.598 60.3439 933.198 61.0052 935.246 61.8159C937.336 62.6266 939.086 63.5012 940.494 64.4399C941.944 65.3359 943.011 66.4452 943.694 67.7679C944.419 69.0479 944.782 70.6906 944.782 72.6959Z" fill="url(#paint3_linear_112_4038)" fill-opacity="0.7"/>
<path d="M896.738 47.4159C899.981 47.4159 902.775 48.0346 905.122 49.2719C907.469 50.4666 909.261 52.2586 910.498 54.6479C911.778 56.9946 912.418 59.8746 912.418 63.2879V67.9599H889.954C890.039 70.6052 890.85 72.6959 892.386 74.2319C893.922 75.7252 896.119 76.4719 898.978 76.4719C901.154 76.4719 903.138 76.2586 904.93 75.8319C906.722 75.4052 908.557 74.7652 910.434 73.9119V81.1439C908.727 81.9972 906.914 82.6159 904.994 82.9999C903.117 83.4266 900.77 83.6399 897.954 83.6399C894.498 83.6399 891.426 82.9999 888.738 81.7199C886.093 80.4399 884.002 78.4772 882.466 75.8319C880.93 73.1439 880.162 69.7946 880.162 65.7839C880.162 61.6879 880.845 58.2959 882.21 55.6079C883.618 52.8772 885.559 50.8292 888.034 49.4639C890.551 48.0986 893.453 47.4159 896.738 47.4159ZM896.994 54.2639C895.074 54.2639 893.517 54.8826 892.322 56.1199C891.127 57.3146 890.423 59.1066 890.21 61.4959H903.394C903.394 60.0879 903.159 58.8506 902.69 57.7839C902.221 56.7172 901.495 55.8639 900.514 55.2239C899.575 54.5839 898.402 54.2639 896.994 54.2639Z" fill="url(#paint4_linear_112_4038)" fill-opacity="0.7"/>
<path d="M869.116 76.0239C870.183 76.0239 871.207 75.9172 872.188 75.7039C873.169 75.4906 874.151 75.2346 875.132 74.9359V82.0399C874.108 82.4666 872.828 82.8292 871.292 83.1279C869.799 83.4692 868.156 83.6399 866.364 83.6399C864.273 83.6399 862.396 83.2986 860.732 82.6159C859.111 81.9332 857.809 80.7599 856.828 79.0959C855.889 77.3892 855.42 75.0426 855.42 72.0559V55.2239H850.876V51.1919L856.124 47.9919L858.876 40.6319H864.956V48.0559H874.748V55.2239H864.956V72.0559C864.956 73.3786 865.34 74.3812 866.108 75.0639C866.876 75.7039 867.879 76.0239 869.116 76.0239Z" fill="url(#paint5_linear_112_4038)" fill-opacity="0.7"/>
<path d="M828.054 48.0559V82.9999H818.39V48.0559H828.054ZM823.254 34.2959C824.662 34.2959 825.878 34.6372 826.902 35.3199C827.969 35.9599 828.502 37.1972 828.502 39.0319C828.502 40.7812 827.969 41.9972 826.902 42.6799C825.878 43.3626 824.662 43.7039 823.254 43.7039C821.803 43.7039 820.566 43.3626 819.542 42.6799C818.518 41.9972 818.006 40.7812 818.006 39.0319C818.006 37.1972 818.518 35.9599 819.542 35.3199C820.566 34.6372 821.803 34.2959 823.254 34.2959Z" fill="url(#paint6_linear_112_4038)" fill-opacity="0.7"/>
<path d="M789.345 83.6399C785.505 83.6399 782.347 82.1252 779.873 79.0959C777.441 76.0239 776.225 71.5226 776.225 65.5919C776.225 59.5759 777.462 55.0532 779.937 52.0239C782.411 48.9519 785.654 47.4159 789.665 47.4159C791.329 47.4159 792.758 47.6506 793.953 48.1199C795.19 48.5466 796.257 49.1439 797.153 49.9119C798.049 50.6799 798.817 51.5546 799.457 52.5359H799.777C799.649 51.7679 799.521 50.7012 799.393 49.3359C799.307 47.9279 799.265 46.6479 799.265 45.4959V34.3599H808.993V82.9999H801.569L799.649 78.4559H799.265C798.667 79.4372 797.921 80.3119 797.025 81.0799C796.129 81.8479 795.041 82.4666 793.761 82.9359C792.523 83.4052 791.051 83.6399 789.345 83.6399ZM792.737 75.8959C795.382 75.8959 797.238 75.1492 798.305 73.6559C799.371 72.1199 799.905 69.7946 799.905 66.6799V65.6559C799.905 62.2852 799.393 59.7039 798.369 57.9119C797.345 56.1199 795.446 55.2239 792.673 55.2239C790.582 55.2239 788.939 56.1199 787.745 57.9119C786.593 59.7039 786.017 62.3066 786.017 65.7199C786.017 69.1332 786.593 71.6932 787.745 73.3999C788.939 75.0639 790.603 75.8959 792.737 75.8959Z" fill="url(#paint7_linear_112_4038)" fill-opacity="0.7"/>
<path d="M737.988 47.4159C741.231 47.4159 744.025 48.0346 746.372 49.2719C748.719 50.4666 750.511 52.2586 751.748 54.6479C753.028 56.9946 753.668 59.8746 753.668 63.2879V67.9599H731.204C731.289 70.6052 732.1 72.6959 733.636 74.2319C735.172 75.7252 737.369 76.4719 740.228 76.4719C742.404 76.4719 744.388 76.2586 746.18 75.8319C747.972 75.4052 749.807 74.7652 751.684 73.9119V81.1439C749.977 81.9972 748.164 82.6159 746.244 82.9999C744.367 83.4266 742.02 83.6399 739.204 83.6399C735.748 83.6399 732.676 82.9999 729.988 81.7199C727.343 80.4399 725.252 78.4772 723.716 75.8319C722.18 73.1439 721.412 69.7946 721.412 65.7839C721.412 61.6879 722.095 58.2959 723.46 55.6079C724.868 52.8772 726.809 50.8292 729.284 49.4639C731.801 48.0986 734.703 47.4159 737.988 47.4159ZM738.244 54.2639C736.324 54.2639 734.767 54.8826 733.572 56.1199C732.377 57.3146 731.673 59.1066 731.46 61.4959H744.644C744.644 60.0879 744.409 58.8506 743.94 57.7839C743.471 56.7172 742.745 55.8639 741.764 55.2239C740.825 54.5839 739.652 54.2639 738.244 54.2639Z" fill="url(#paint8_linear_112_4038)" fill-opacity="0.7"/>
<path d="M701.419 47.4159C705.259 47.4159 708.288 48.4186 710.507 50.4239C712.726 52.4292 713.835 55.6932 713.835 60.2159V82.9999H704.235V62.6479C704.235 60.1306 703.766 58.2532 702.827 57.0159C701.931 55.7359 700.523 55.0959 698.603 55.0959C695.702 55.0959 693.718 56.0986 692.651 58.1039C691.627 60.0666 691.115 62.9039 691.115 66.6159V82.9999H681.451V48.0559H688.875L690.219 52.7279H690.603C691.371 51.5759 692.288 50.6159 693.355 49.8479C694.464 49.0372 695.68 48.4399 697.003 48.0559C698.368 47.6292 699.84 47.4159 701.419 47.4159Z" fill="url(#paint9_linear_112_4038)" fill-opacity="0.7"/>
<path d="M673.707 65.4639C673.707 68.3652 673.302 70.9466 672.491 73.2079C671.723 75.4692 670.592 77.3679 669.099 78.9039C667.648 80.4399 665.878 81.6132 663.787 82.4239C661.696 83.2346 659.328 83.6399 656.683 83.6399C654.208 83.6399 651.947 83.2346 649.899 82.4239C647.851 81.6132 646.08 80.4399 644.587 78.9039C643.094 77.3679 641.92 75.4692 641.067 73.2079C640.214 70.9466 639.787 68.3652 639.787 65.4639C639.787 61.5812 640.47 58.2959 641.835 55.6079C643.2 52.9199 645.163 50.8932 647.723 49.5279C650.283 48.1199 653.334 47.4159 656.875 47.4159C660.16 47.4159 663.062 48.1199 665.579 49.5279C668.096 50.8932 670.08 52.9199 671.531 55.6079C672.982 58.2959 673.707 61.5812 673.707 65.4639ZM649.643 65.4639C649.643 67.7252 649.878 69.6666 650.347 71.2879C650.859 72.9092 651.627 74.1466 652.651 74.9999C653.718 75.8532 655.104 76.2799 656.811 76.2799C658.475 76.2799 659.819 75.8532 660.843 74.9999C661.91 74.1466 662.678 72.9092 663.147 71.2879C663.616 69.6666 663.851 67.7252 663.851 65.4639C663.851 63.1599 663.595 61.2186 663.083 59.6399C662.614 58.0612 661.867 56.8666 660.843 56.0559C659.819 55.2026 658.454 54.7759 656.747 54.7759C654.272 54.7759 652.459 55.6932 651.307 57.5279C650.198 59.3626 649.643 62.0079 649.643 65.4639Z" fill="url(#paint10_linear_112_4038)" fill-opacity="0.7"/>
<path d="M632.054 48.0559V82.9999H622.39V48.0559H632.054ZM627.254 34.2959C628.662 34.2959 629.878 34.6372 630.902 35.3199C631.969 35.9599 632.502 37.1972 632.502 39.0319C632.502 40.7812 631.969 41.9972 630.902 42.6799C629.878 43.3626 628.662 43.7039 627.254 43.7039C625.803 43.7039 624.566 43.3626 623.542 42.6799C622.518 41.9972 622.006 40.7812 622.006 39.0319C622.006 37.1972 622.518 35.9599 623.542 35.3199C624.566 34.6372 625.803 34.2959 627.254 34.2959Z" fill="url(#paint11_linear_112_4038)" fill-opacity="0.7"/>
<path d="M615.66 82.9999H588.012V77.3039L604.14 55.4159H588.908V48.0559H615.084V54.2639L599.404 75.5759H615.66V82.9999Z" fill="url(#paint12_linear_112_4038)" fill-opacity="0.7"/>
<path d="M581.331 48.0559V82.9999H573.907L572.691 78.5199H572.115C571.389 79.7146 570.451 80.6959 569.299 81.4639C568.189 82.2319 566.952 82.7866 565.587 83.1279C564.264 83.4692 562.856 83.6399 561.363 83.6399C558.888 83.6399 556.712 83.1919 554.835 82.2959C553 81.3999 551.549 80.0132 550.483 78.1359C549.459 76.2586 548.947 73.8266 548.947 70.8399V48.0559H558.675V68.4079C558.675 70.8826 559.101 72.7599 559.955 74.0399C560.851 75.2772 562.259 75.8959 564.179 75.8959C566.141 75.8959 567.656 75.4692 568.723 74.6159C569.832 73.7199 570.6 72.4186 571.027 70.7119C571.453 69.0052 571.667 66.9146 571.667 64.4399V48.0559H581.331Z" fill="url(#paint13_linear_112_4038)" fill-opacity="0.7"/>
<path d="M520.157 83.6399C516.317 83.6399 513.16 82.1252 510.685 79.0959C508.253 76.0239 507.037 71.5226 507.037 65.5919C507.037 59.5759 508.274 55.0532 510.749 52.0239C513.224 48.9519 516.466 47.4159 520.477 47.4159C522.141 47.4159 523.57 47.6506 524.765 48.1199C526.002 48.5466 527.069 49.1439 527.965 49.9119C528.861 50.6799 529.629 51.5546 530.269 52.5359H530.589C530.461 51.7679 530.333 50.7012 530.205 49.3359C530.12 47.9279 530.077 46.6479 530.077 45.4959V34.3599H539.805V82.9999H532.381L530.461 78.4559H530.077C529.48 79.4372 528.733 80.3119 527.837 81.0799C526.941 81.8479 525.853 82.4666 524.573 82.9359C523.336 83.4052 521.864 83.6399 520.157 83.6399ZM523.549 75.8959C526.194 75.8959 528.05 75.1492 529.117 73.6559C530.184 72.1199 530.717 69.7946 530.717 66.6799V65.6559C530.717 62.2852 530.205 59.7039 529.181 57.9119C528.157 56.1199 526.258 55.2239 523.485 55.2239C521.394 55.2239 519.752 56.1199 518.557 57.9119C517.405 59.7039 516.829 62.3066 516.829 65.7199C516.829 69.1332 517.405 71.6932 518.557 73.3999C519.752 75.0639 521.416 75.8959 523.549 75.8959Z" fill="url(#paint14_linear_112_4038)" fill-opacity="0.7"/>
<path d="M486.005 47.4159C490.399 47.4159 493.749 48.4612 496.053 50.5519C498.357 52.5999 499.509 55.6506 499.509 59.7039V82.9999H492.789L490.933 78.2639H490.677C489.695 79.5012 488.671 80.5252 487.605 81.3359C486.581 82.1466 485.386 82.7226 484.021 83.0639C482.655 83.4479 480.991 83.6399 479.029 83.6399C476.981 83.6399 475.146 83.2559 473.525 82.4879C471.903 81.6772 470.623 80.4612 469.685 78.8399C468.746 77.2186 468.277 75.1706 468.277 72.6959C468.277 69.0266 469.599 66.2746 472.245 64.4399C474.89 62.6052 478.837 61.5812 484.085 61.3679L489.909 61.1759V60.0879C489.909 57.9972 489.439 56.5466 488.501 55.7359C487.562 54.8826 486.239 54.4559 484.533 54.4559C482.954 54.4559 481.333 54.7119 479.669 55.2239C478.005 55.7359 476.362 56.3546 474.741 57.0799L471.925 50.4879C473.759 49.5492 475.85 48.8026 478.197 48.2479C480.586 47.6932 483.189 47.4159 486.005 47.4159ZM486.261 66.9999C483.231 67.0852 481.119 67.5759 479.925 68.4719C478.73 69.3679 478.133 70.6266 478.133 72.2479C478.133 73.7412 478.538 74.8506 479.349 75.5759C480.202 76.2586 481.333 76.5999 482.741 76.5999C484.746 76.5999 486.431 76.0026 487.797 74.8079C489.205 73.6132 489.909 71.9066 489.909 69.6879V66.8079L486.261 66.9999Z" fill="url(#paint15_linear_112_4038)" fill-opacity="0.7"/>
<path d="M462.342 47.4159C462.982 47.4159 463.664 47.4586 464.39 47.5439C465.158 47.5866 465.755 47.6719 466.182 47.7999L465.222 56.8239C464.752 56.7386 464.198 56.6532 463.558 56.5679C462.918 56.4826 462.15 56.4399 461.254 56.4399C460.272 56.4399 459.27 56.5892 458.246 56.8879C457.264 57.1866 456.347 57.6772 455.494 58.3599C454.64 59.0426 453.958 59.9386 453.446 61.0479C452.934 62.1572 452.678 63.5652 452.678 65.2719V82.9999H443.014V48.0559H450.374L451.782 53.9439H452.23C452.912 52.7066 453.766 51.5972 454.79 50.6159C455.814 49.6346 456.966 48.8666 458.246 48.3119C459.526 47.7146 460.891 47.4159 462.342 47.4159Z" fill="url(#paint16_linear_112_4038)" fill-opacity="0.7"/>
<path d="M427.952 82.9999H418.16V45.4319H405.808V37.3039H440.304V45.4319H427.952V82.9999Z" fill="url(#paint17_linear_112_4038)" fill-opacity="0.7"/>
</g>
</g>
<path d="M305 72H1095V105C1095 111.627 1089.63 117 1083 117H317C310.373 117 305 111.627 305 105V72Z" fill="url(#paint18_linear_112_4038)"/>
<path d="M990.15 36.0559V70.9999H980.486V36.0559H990.15ZM985.35 22.2959C986.758 22.2959 987.974 22.6372 988.998 23.3199C990.065 23.9599 990.598 25.1972 990.598 27.0319C990.598 28.7812 990.065 29.9972 988.998 30.6799C987.974 31.3626 986.758 31.7039 985.35 31.7039C983.899 31.7039 982.662 31.3626 981.638 30.6799C980.614 29.9972 980.102 28.7812 980.102 27.0319C980.102 25.1972 980.614 23.9599 981.638 23.3199C982.662 22.6372 983.899 22.2959 985.35 22.2959Z" fill="url(#paint19_linear_112_4038)"/>
<path d="M967.712 64.0239C968.779 64.0239 969.803 63.9172 970.784 63.7039C971.765 63.4906 972.747 63.2346 973.728 62.9359V70.0399C972.704 70.4666 971.424 70.8292 969.888 71.1279C968.395 71.4692 966.752 71.6399 964.96 71.6399C962.869 71.6399 960.992 71.2986 959.328 70.6159C957.707 69.9332 956.405 68.7599 955.424 67.0959C954.485 65.3892 954.016 63.0426 954.016 60.0559V43.2239H949.472V39.1919L954.72 35.9919L957.472 28.6319H963.552V36.0559H973.344V43.2239H963.552V60.0559C963.552 61.3786 963.936 62.3812 964.704 63.0639C965.472 63.7039 966.475 64.0239 967.712 64.0239Z" fill="url(#paint20_linear_112_4038)"/>
<path d="M945.315 60.6959C945.315 62.9146 944.782 64.8559 943.715 66.5199C942.691 68.1412 941.112 69.3999 938.979 70.2959C936.846 71.1919 934.136 71.6399 930.851 71.6399C928.376 71.6399 926.2 71.4692 924.323 71.1279C922.446 70.8292 920.632 70.3172 918.883 69.5919V61.5919C920.76 62.4879 922.787 63.1919 924.963 63.7039C927.139 64.2159 929.016 64.4719 930.595 64.4719C932.558 64.4719 933.966 64.1946 934.819 63.6399C935.715 63.0852 936.163 62.3386 936.163 61.3999C936.163 60.7599 935.928 60.1839 935.459 59.6719C935.032 59.1599 934.243 58.6266 933.091 58.0719C931.982 57.5172 930.382 56.8346 928.291 56.0239C926.2 55.1706 924.451 54.2959 923.043 53.3999C921.635 52.4612 920.568 51.3519 919.843 50.0719C919.16 48.7919 918.819 47.1919 918.819 45.2719C918.819 42.0719 920.078 39.6399 922.595 37.9759C925.155 36.2692 928.526 35.4159 932.707 35.4159C934.968 35.4159 937.059 35.6506 938.979 36.1199C940.942 36.5892 942.926 37.2506 944.931 38.1039L942.115 44.6959C940.494 43.9706 938.83 43.3732 937.123 42.9039C935.416 42.4346 933.902 42.1999 932.579 42.1999C931.128 42.1999 929.998 42.4346 929.187 42.9039C928.376 43.3306 927.971 43.9492 927.971 44.7599C927.971 45.3572 928.184 45.8906 928.611 46.3599C929.08 46.8292 929.87 47.3199 930.979 47.8319C932.131 48.3439 933.731 49.0052 935.779 49.8159C937.87 50.6266 939.619 51.5012 941.027 52.4399C942.478 53.3359 943.544 54.4452 944.227 55.7679C944.952 57.0479 945.315 58.6906 945.315 60.6959Z" fill="url(#paint21_linear_112_4038)"/>
<path d="M897.272 35.4159C900.514 35.4159 903.309 36.0346 905.656 37.2719C908.002 38.4666 909.794 40.2586 911.032 42.6479C912.312 44.9946 912.952 47.8746 912.952 51.2879V55.9599H890.488C890.573 58.6052 891.384 60.6959 892.92 62.2319C894.456 63.7252 896.653 64.4719 899.512 64.4719C901.688 64.4719 903.672 64.2586 905.464 63.8319C907.256 63.4052 909.09 62.7652 910.968 61.9119V69.1439C909.261 69.9972 907.448 70.6159 905.528 70.9999C903.65 71.4266 901.304 71.6399 898.488 71.6399C895.032 71.6399 891.96 70.9999 889.272 69.7199C886.626 68.4399 884.536 66.4772 883 63.8319C881.464 61.1439 880.696 57.7946 880.696 53.7839C880.696 49.6879 881.378 46.2959 882.744 43.6079C884.152 40.8772 886.093 38.8292 888.568 37.4639C891.085 36.0986 893.986 35.4159 897.272 35.4159ZM897.528 42.2639C895.608 42.2639 894.05 42.8826 892.856 44.1199C891.661 45.3146 890.957 47.1066 890.744 49.4959H903.928C903.928 48.0879 903.693 46.8506 903.224 45.7839C902.754 44.7172 902.029 43.8639 901.048 43.2239C900.109 42.5839 898.936 42.2639 897.528 42.2639Z" fill="url(#paint22_linear_112_4038)"/>
<path d="M869.65 64.0239C870.716 64.0239 871.74 63.9172 872.722 63.7039C873.703 63.4906 874.684 63.2346 875.666 62.9359V70.0399C874.642 70.4666 873.362 70.8292 871.826 71.1279C870.332 71.4692 868.69 71.6399 866.898 71.6399C864.807 71.6399 862.93 71.2986 861.266 70.6159C859.644 69.9332 858.343 68.7599 857.362 67.0959C856.423 65.3892 855.954 63.0426 855.954 60.0559V43.2239H851.41V39.1919L856.658 35.9919L859.41 28.6319H865.49V36.0559H875.282V43.2239H865.49V60.0559C865.49 61.3786 865.874 62.3812 866.642 63.0639C867.41 63.7039 868.412 64.0239 869.65 64.0239Z" fill="url(#paint23_linear_112_4038)"/>
<path d="M828.588 36.0559V70.9999H818.924V36.0559H828.588ZM823.788 22.2959C825.196 22.2959 826.412 22.6372 827.436 23.3199C828.502 23.9599 829.036 25.1972 829.036 27.0319C829.036 28.7812 828.502 29.9972 827.436 30.6799C826.412 31.3626 825.196 31.7039 823.788 31.7039C822.337 31.7039 821.1 31.3626 820.076 30.6799C819.052 29.9972 818.54 28.7812 818.54 27.0319C818.54 25.1972 819.052 23.9599 820.076 23.3199C821.1 22.6372 822.337 22.2959 823.788 22.2959Z" fill="url(#paint24_linear_112_4038)"/>
<path d="M789.878 71.6399C786.038 71.6399 782.881 70.1252 780.406 67.0959C777.974 64.0239 776.758 59.5226 776.758 53.5919C776.758 47.5759 777.995 43.0532 780.47 40.0239C782.945 36.9519 786.187 35.4159 790.198 35.4159C791.862 35.4159 793.291 35.6506 794.486 36.1199C795.723 36.5466 796.79 37.1439 797.686 37.9119C798.582 38.6799 799.35 39.5546 799.99 40.5359H800.31C800.182 39.7679 800.054 38.7012 799.926 37.3359C799.841 35.9279 799.798 34.6479 799.798 33.4959V22.3599H809.526V70.9999H802.102L800.182 66.4559H799.798C799.201 67.4372 798.454 68.3119 797.558 69.0799C796.662 69.8479 795.574 70.4666 794.294 70.9359C793.057 71.4052 791.585 71.6399 789.878 71.6399ZM793.27 63.8959C795.915 63.8959 797.771 63.1492 798.838 61.6559C799.905 60.1199 800.438 57.7946 800.438 54.6799V53.6559C800.438 50.2852 799.926 47.7039 798.902 45.9119C797.878 44.1199 795.979 43.2239 793.206 43.2239C791.115 43.2239 789.473 44.1199 788.278 45.9119C787.126 47.7039 786.55 50.3066 786.55 53.7199C786.55 57.1332 787.126 59.6932 788.278 61.3999C789.473 63.0639 791.137 63.8959 793.27 63.8959Z" fill="url(#paint25_linear_112_4038)"/>
<path d="M738.522 35.4159C741.764 35.4159 744.559 36.0346 746.906 37.2719C749.252 38.4666 751.044 40.2586 752.282 42.6479C753.562 44.9946 754.202 47.8746 754.202 51.2879V55.9599H731.738C731.823 58.6052 732.634 60.6959 734.17 62.2319C735.706 63.7252 737.903 64.4719 740.762 64.4719C742.938 64.4719 744.922 64.2586 746.714 63.8319C748.506 63.4052 750.34 62.7652 752.218 61.9119V69.1439C750.511 69.9972 748.698 70.6159 746.778 70.9999C744.9 71.4266 742.554 71.6399 739.738 71.6399C736.282 71.6399 733.21 70.9999 730.522 69.7199C727.876 68.4399 725.786 66.4772 724.25 63.8319C722.714 61.1439 721.946 57.7946 721.946 53.7839C721.946 49.6879 722.628 46.2959 723.994 43.6079C725.402 40.8772 727.343 38.8292 729.818 37.4639C732.335 36.0986 735.236 35.4159 738.522 35.4159ZM738.778 42.2639C736.858 42.2639 735.3 42.8826 734.106 44.1199C732.911 45.3146 732.207 47.1066 731.994 49.4959H745.178C745.178 48.0879 744.943 46.8506 744.474 45.7839C744.004 44.7172 743.279 43.8639 742.298 43.2239C741.359 42.5839 740.186 42.2639 738.778 42.2639Z" fill="url(#paint26_linear_112_4038)"/>
<path d="M701.953 35.4159C705.793 35.4159 708.822 36.4186 711.041 38.4239C713.259 40.4292 714.369 43.6932 714.369 48.2159V70.9999H704.769V50.6479C704.769 48.1306 704.299 46.2532 703.361 45.0159C702.465 43.7359 701.057 43.0959 699.137 43.0959C696.235 43.0959 694.251 44.0986 693.185 46.1039C692.161 48.0666 691.649 50.9039 691.649 54.6159V70.9999H681.985V36.0559H689.409L690.753 40.7279H691.137C691.905 39.5759 692.822 38.6159 693.889 37.8479C694.998 37.0372 696.214 36.4399 697.537 36.0559C698.902 35.6292 700.374 35.4159 701.953 35.4159Z" fill="url(#paint27_linear_112_4038)"/>
<path d="M674.241 53.4639C674.241 56.3652 673.835 58.9466 673.025 61.2079C672.257 63.4692 671.126 65.3679 669.633 66.9039C668.182 68.4399 666.411 69.6132 664.321 70.4239C662.23 71.2346 659.862 71.6399 657.217 71.6399C654.742 71.6399 652.481 71.2346 650.433 70.4239C648.385 69.6132 646.614 68.4399 645.121 66.9039C643.627 65.3679 642.454 63.4692 641.601 61.2079C640.747 58.9466 640.321 56.3652 640.321 53.4639C640.321 49.5812 641.003 46.2959 642.369 43.6079C643.734 40.9199 645.697 38.8932 648.257 37.5279C650.817 36.1199 653.867 35.4159 657.409 35.4159C660.694 35.4159 663.595 36.1199 666.113 37.5279C668.63 38.8932 670.614 40.9199 672.065 43.6079C673.515 46.2959 674.241 49.5812 674.241 53.4639ZM650.177 53.4639C650.177 55.7252 650.411 57.6666 650.881 59.2879C651.393 60.9092 652.161 62.1466 653.185 62.9999C654.251 63.8532 655.638 64.2799 657.345 64.2799C659.009 64.2799 660.353 63.8532 661.377 62.9999C662.443 62.1466 663.211 60.9092 663.681 59.2879C664.15 57.6666 664.385 55.7252 664.385 53.4639C664.385 51.1599 664.129 49.2186 663.617 47.6399C663.147 46.0612 662.401 44.8666 661.377 44.0559C660.353 43.2026 658.987 42.7759 657.281 42.7759C654.806 42.7759 652.993 43.6932 651.841 45.5279C650.731 47.3626 650.177 50.0079 650.177 53.4639Z" fill="url(#paint28_linear_112_4038)"/>
<path d="M632.588 36.0559V70.9999H622.924V36.0559H632.588ZM627.788 22.2959C629.196 22.2959 630.412 22.6372 631.436 23.3199C632.502 23.9599 633.036 25.1972 633.036 27.0319C633.036 28.7812 632.502 29.9972 631.436 30.6799C630.412 31.3626 629.196 31.7039 627.788 31.7039C626.337 31.7039 625.1 31.3626 624.076 30.6799C623.052 29.9972 622.54 28.7812 622.54 27.0319C622.54 25.1972 623.052 23.9599 624.076 23.3199C625.1 22.6372 626.337 22.2959 627.788 22.2959Z" fill="url(#paint29_linear_112_4038)"/>
<path d="M616.193 70.9999H588.545V65.3039L604.673 43.4159H589.441V36.0559H615.617V42.2639L599.937 63.5759H616.193V70.9999Z" fill="url(#paint30_linear_112_4038)"/>
<path d="M581.864 36.0559V70.9999H574.44L573.224 66.5199H572.648C571.923 67.7146 570.984 68.6959 569.832 69.4639C568.723 70.2319 567.485 70.7866 566.12 71.1279C564.797 71.4692 563.389 71.6399 561.896 71.6399C559.421 71.6399 557.245 71.1919 555.368 70.2959C553.533 69.3999 552.083 68.0132 551.016 66.1359C549.992 64.2586 549.48 61.8266 549.48 58.8399V36.0559H559.208V56.4079C559.208 58.8826 559.635 60.7599 560.488 62.0399C561.384 63.2772 562.792 63.8959 564.712 63.8959C566.675 63.8959 568.189 63.4692 569.256 62.6159C570.365 61.7199 571.133 60.4186 571.56 58.7119C571.987 57.0052 572.2 54.9146 572.2 52.4399V36.0559H581.864Z" fill="url(#paint31_linear_112_4038)"/>
<path d="M520.691 71.6399C516.851 71.6399 513.693 70.1252 511.219 67.0959C508.787 64.0239 507.571 59.5226 507.571 53.5919C507.571 47.5759 508.808 43.0532 511.283 40.0239C513.757 36.9519 517 35.4159 521.011 35.4159C522.675 35.4159 524.104 35.6506 525.299 36.1199C526.536 36.5466 527.603 37.1439 528.499 37.9119C529.395 38.6799 530.163 39.5546 530.803 40.5359H531.123C530.995 39.7679 530.867 38.7012 530.739 37.3359C530.653 35.9279 530.611 34.6479 530.611 33.4959V22.3599H540.339V70.9999H532.915L530.995 66.4559H530.611C530.013 67.4372 529.267 68.3119 528.371 69.0799C527.475 69.8479 526.387 70.4666 525.107 70.9359C523.869 71.4052 522.397 71.6399 520.691 71.6399ZM524.083 63.8959C526.728 63.8959 528.584 63.1492 529.651 61.6559C530.717 60.1199 531.251 57.7946 531.251 54.6799V53.6559C531.251 50.2852 530.739 47.7039 529.715 45.9119C528.691 44.1199 526.792 43.2239 524.019 43.2239C521.928 43.2239 520.285 44.1199 519.091 45.9119C517.939 47.7039 517.363 50.3066 517.363 53.7199C517.363 57.1332 517.939 59.6932 519.091 61.3999C520.285 63.0639 521.949 63.8959 524.083 63.8959Z" fill="url(#paint32_linear_112_4038)"/>
<path d="M486.538 35.4159C490.933 35.4159 494.282 36.4612 496.586 38.5519C498.89 40.5999 500.042 43.6506 500.042 47.7039V70.9999H493.322L491.466 66.2639H491.21C490.229 67.5012 489.205 68.5252 488.138 69.3359C487.114 70.1466 485.919 70.7226 484.554 71.0639C483.189 71.4479 481.525 71.6399 479.562 71.6399C477.514 71.6399 475.679 71.2559 474.058 70.4879C472.437 69.6772 471.157 68.4612 470.218 66.8399C469.279 65.2186 468.81 63.1706 468.81 60.6959C468.81 57.0266 470.133 54.2746 472.778 52.4399C475.423 50.6052 479.37 49.5812 484.618 49.3679L490.442 49.1759V48.0879C490.442 45.9972 489.973 44.5466 489.034 43.7359C488.095 42.8826 486.773 42.4559 485.066 42.4559C483.487 42.4559 481.866 42.7119 480.202 43.2239C478.538 43.7359 476.895 44.3546 475.274 45.0799L472.458 38.4879C474.293 37.5492 476.383 36.8026 478.73 36.2479C481.119 35.6932 483.722 35.4159 486.538 35.4159ZM486.794 54.9999C483.765 55.0852 481.653 55.5759 480.458 56.4719C479.263 57.3679 478.666 58.6266 478.666 60.2479C478.666 61.7412 479.071 62.8506 479.882 63.5759C480.735 64.2586 481.866 64.5999 483.274 64.5999C485.279 64.5999 486.965 64.0026 488.33 62.8079C489.738 61.6132 490.442 59.9066 490.442 57.6879V54.8079L486.794 54.9999Z" fill="url(#paint33_linear_112_4038)"/>
<path d="M462.875 35.4159C463.515 35.4159 464.198 35.4586 464.923 35.5439C465.691 35.5866 466.288 35.6719 466.715 35.7999L465.755 44.8239C465.286 44.7386 464.731 44.6532 464.091 44.5679C463.451 44.4826 462.683 44.4399 461.787 44.4399C460.806 44.4399 459.803 44.5892 458.779 44.8879C457.798 45.1866 456.88 45.6772 456.027 46.3599C455.174 47.0426 454.491 47.9386 453.979 49.0479C453.467 50.1572 453.211 51.5652 453.211 53.2719V70.9999H443.547V36.0559H450.907L452.315 41.9439H452.763C453.446 40.7066 454.299 39.5972 455.323 38.6159C456.347 37.6346 457.499 36.8666 458.779 36.3119C460.059 35.7146 461.424 35.4159 462.875 35.4159Z" fill="url(#paint34_linear_112_4038)"/>
<path d="M428.485 70.9999H418.693V33.4319H406.341V25.3039H440.837V33.4319H428.485V70.9999Z" fill="url(#paint35_linear_112_4038)"/>
<defs>
<filter id="filter0_f_112_4038" x="385.808" y="14.2959" width="624.257" height="89.3442" filterUnits="userSpaceOnUse" color-interpolation-filters="sRGB">
<feFlood flood-opacity="0" result="BackgroundImageFix"/>
<feBlend mode="normal" in="SourceGraphic" in2="BackgroundImageFix" result="shape"/>
<feGaussianBlur stdDeviation="10" result="effect1_foregroundBlur_112_4038"/>
</filter>
<linearGradient id="paint0_linear_112_4038" x1="305" y1="64.0036" x2="1095" y2="64.0029" gradientUnits="userSpaceOnUse">
<stop stop-color="white" stop-opacity="0.3"/>
<stop offset="0.359008" stop-color="#CBB0F8"/>
<stop offset="0.788712" stop-color="#FCD9ED"/>
<stop offset="1" stop-color="white" stop-opacity="0.3"/>
</linearGradient>
<linearGradient id="paint1_linear_112_4038" x1="1235.1" y1="58.818" x2="-31607" y2="59.0206" gradientUnits="userSpaceOnUse">
<stop stop-color="#F4439F"/>
<stop offset="1" stop-color="#7C3AED"/>
</linearGradient>
<linearGradient id="paint2_linear_112_4038" x1="1502.44" y1="54.7962" x2="-12708.9" y2="54.8297" gradientUnits="userSpaceOnUse">
<stop stop-color="#F4439F"/>
<stop offset="1" stop-color="#7C3AED"/>
</linearGradient>
<linearGradient id="paint3_linear_112_4038" x1="2085.66" y1="49.3944" x2="-10924.3" y2="49.4181" gradientUnits="userSpaceOnUse">
<stop stop-color="#F4439F"/>
<stop offset="1" stop-color="#7C3AED"/>
</linearGradient>
<linearGradient id="paint4_linear_112_4038" x1="2476.22" y1="49.3944" x2="-8210.52" y2="49.4104" gradientUnits="userSpaceOnUse">
<stop stop-color="#F4439F"/>
<stop offset="1" stop-color="#7C3AED"/>
</linearGradient>
<linearGradient id="paint5_linear_112_4038" x1="3864.49" y1="54.7962" x2="-10346.9" y2="54.8297" gradientUnits="userSpaceOnUse">
<stop stop-color="#F4439F"/>
<stop offset="1" stop-color="#7C3AED"/>
</linearGradient>
<linearGradient id="paint6_linear_112_4038" x1="10228.4" y1="58.818" x2="-22613.8" y2="59.0206" gradientUnits="userSpaceOnUse">
<stop stop-color="#F4439F"/>
<stop offset="1" stop-color="#7C3AED"/>
</linearGradient>
<linearGradient id="paint7_linear_112_4038" x1="4297.09" y1="58.4672" x2="-6222.68" y2="58.4883" gradientUnits="userSpaceOnUse">
<stop stop-color="#F4439F"/>
<stop offset="1" stop-color="#7C3AED"/>
</linearGradient>
<linearGradient id="paint8_linear_112_4038" x1="5351.68" y1="49.3944" x2="-5335.06" y2="49.4104" gradientUnits="userSpaceOnUse">
<stop stop-color="#F4439F"/>
<stop offset="1" stop-color="#7C3AED"/>
</linearGradient>
<linearGradient id="paint9_linear_112_4038" x1="6053.09" y1="49.666" x2="-4591.42" y2="49.6816" gradientUnits="userSpaceOnUse">
<stop stop-color="#F4439F"/>
<stop offset="1" stop-color="#7C3AED"/>
</linearGradient>
<linearGradient id="paint10_linear_112_4038" x1="6515" y1="49.3945" x2="-3647.48" y2="49.4089" gradientUnits="userSpaceOnUse">
<stop stop-color="#F4439F"/>
<stop offset="1" stop-color="#7C3AED"/>
</linearGradient>
<linearGradient id="paint11_linear_112_4038" x1="21138.7" y1="58.818" x2="-11703.5" y2="59.0206" gradientUnits="userSpaceOnUse">
<stop stop-color="#F4439F"/>
<stop offset="1" stop-color="#7C3AED"/>
</linearGradient>
<linearGradient id="paint12_linear_112_4038" x1="8995.01" y1="49.0437" x2="-3472.86" y2="49.0647" gradientUnits="userSpaceOnUse">
<stop stop-color="#F4439F"/>
<stop offset="1" stop-color="#7C3AED"/>
</linearGradient>
<linearGradient id="paint13_linear_112_4038" x1="8443.67" y1="48.7785" x2="-2200.83" y2="48.794" gradientUnits="userSpaceOnUse">
<stop stop-color="#F4439F"/>
<stop offset="1" stop-color="#7C3AED"/>
</linearGradient>
<linearGradient id="paint14_linear_112_4038" x1="9096.73" y1="58.4672" x2="-1423.04" y2="58.4883" gradientUnits="userSpaceOnUse">
<stop stop-color="#F4439F"/>
<stop offset="1" stop-color="#7C3AED"/>
</linearGradient>
<linearGradient id="paint15_linear_112_4038" x1="10249.2" y1="49.3945" x2="-787.886" y2="49.4115" gradientUnits="userSpaceOnUse">
<stop stop-color="#F4439F"/>
<stop offset="1" stop-color="#7C3AED"/>
</linearGradient>
<linearGradient id="paint16_linear_112_4038" x1="14312.5" y1="49.666" x2="-566.281" y2="49.6964" gradientUnits="userSpaceOnUse">
<stop stop-color="#F4439F"/>
<stop offset="1" stop-color="#7C3AED"/>
</linearGradient>
<linearGradient id="paint17_linear_112_4038" x1="994.467" y1="58.4997" x2="404.467" y2="58.4998" gradientUnits="userSpaceOnUse">
<stop stop-color="#F4439F"/>
<stop offset="1" stop-color="#7C3AED"/>
</linearGradient>
<linearGradient id="paint18_linear_112_4038" x1="700" y1="72" x2="700" y2="117" gradientUnits="userSpaceOnUse">
<stop offset="0.0001" stop-color="white" stop-opacity="0.1"/>
<stop offset="1" stop-color="white" stop-opacity="0"/>
</linearGradient>
<linearGradient id="paint19_linear_112_4038" x1="1235.63" y1="2.74633" x2="1186.76" y2="1303.02" gradientUnits="userSpaceOnUse">
<stop stop-color="#F4439F"/>
<stop offset="1" stop-color="#7C3AED"/>
</linearGradient>
<linearGradient id="paint20_linear_112_4038" x1="1502.98" y1="-7.11224" x2="1359.33" y2="1453.32" gradientUnits="userSpaceOnUse">
<stop stop-color="#F4439F"/>
<stop offset="1" stop-color="#7C3AED"/>
</linearGradient>
<linearGradient id="paint21_linear_112_4038" x1="2086.19" y1="-21.8609" x2="1866.44" y2="1700.82" gradientUnits="userSpaceOnUse">
<stop stop-color="#F4439F"/>
<stop offset="1" stop-color="#7C3AED"/>
</linearGradient>
<linearGradient id="paint22_linear_112_4038" x1="2476.75" y1="-21.8609" x2="2211.28" y2="1687.63" gradientUnits="userSpaceOnUse">
<stop stop-color="#F4439F"/>
<stop offset="1" stop-color="#7C3AED"/>
</linearGradient>
<linearGradient id="paint23_linear_112_4038" x1="3865.02" y1="-7.11225" x2="3721.38" y2="1453.32" gradientUnits="userSpaceOnUse">
<stop stop-color="#F4439F"/>
<stop offset="1" stop-color="#7C3AED"/>
</linearGradient>
<linearGradient id="paint24_linear_112_4038" x1="10229" y1="2.74632" x2="10180.1" y2="1303.02" gradientUnits="userSpaceOnUse">
<stop stop-color="#F4439F"/>
<stop offset="1" stop-color="#7C3AED"/>
</linearGradient>
<linearGradient id="paint25_linear_112_4038" x1="4297.62" y1="2.91073" x2="4150.37" y2="1272.73" gradientUnits="userSpaceOnUse">
<stop stop-color="#F4439F"/>
<stop offset="1" stop-color="#7C3AED"/>
</linearGradient>
<linearGradient id="paint26_linear_112_4038" x1="5352.21" y1="-21.8609" x2="5086.74" y2="1687.63" gradientUnits="userSpaceOnUse">
<stop stop-color="#F4439F"/>
<stop offset="1" stop-color="#7C3AED"/>
</linearGradient>
<linearGradient id="paint27_linear_112_4038" x1="6053.62" y1="-22.6551" x2="5777.71" y2="1715.76" gradientUnits="userSpaceOnUse">
<stop stop-color="#F4439F"/>
<stop offset="1" stop-color="#7C3AED"/>
</linearGradient>
<linearGradient id="paint28_linear_112_4038" x1="6515.54" y1="-21.8609" x2="6237.07" y2="1683.38" gradientUnits="userSpaceOnUse">
<stop stop-color="#F4439F"/>
<stop offset="1" stop-color="#7C3AED"/>
</linearGradient>
<linearGradient id="paint29_linear_112_4038" x1="21139.2" y1="2.74631" x2="21090.4" y2="1303.02" gradientUnits="userSpaceOnUse">
<stop stop-color="#F4439F"/>
<stop offset="1" stop-color="#7C3AED"/>
</linearGradient>
<linearGradient id="paint30_linear_112_4038" x1="8995.54" y1="-24.3821" x2="8749.8" y2="1756.56" gradientUnits="userSpaceOnUse">
<stop stop-color="#F4439F"/>
<stop offset="1" stop-color="#7C3AED"/>
</linearGradient>
<linearGradient id="paint31_linear_112_4038" x1="8444.2" y1="-23.5425" x2="8168.3" y2="1714.87" gradientUnits="userSpaceOnUse">
<stop stop-color="#F4439F"/>
<stop offset="1" stop-color="#7C3AED"/>
</linearGradient>
<linearGradient id="paint32_linear_112_4038" x1="9097.26" y1="2.91076" x2="8950.01" y2="1272.73" gradientUnits="userSpaceOnUse">
<stop stop-color="#F4439F"/>
<stop offset="1" stop-color="#7C3AED"/>
</linearGradient>
<linearGradient id="paint33_linear_112_4038" x1="10249.8" y1="-21.8609" x2="9992.36" y2="1690.15" gradientUnits="userSpaceOnUse">
<stop stop-color="#F4439F"/>
<stop offset="1" stop-color="#7C3AED"/>
</linearGradient>
<linearGradient id="paint34_linear_112_4038" x1="14313" y1="-22.655" x2="14113.2" y2="1736.86" gradientUnits="userSpaceOnUse">
<stop stop-color="#F4439F"/>
<stop offset="1" stop-color="#7C3AED"/>
</linearGradient>
<linearGradient id="paint35_linear_112_4038" x1="995" y1="2.99969" x2="490.832" y2="247.159" gradientUnits="userSpaceOnUse">
<stop stop-color="#F4439F"/>
<stop offset="1" stop-color="#7C3AED"/>
</linearGradient>
</defs>
</svg>
