<svg width="1400" height="120" viewBox="0 0 1400 120" fill="none" xmlns="http://www.w3.org/2000/svg">
<path d="M194 56H1207V72H194V56Z" fill="url(#paint0_linear_112_3926)"/>
<mask id="mask0_112_3926" style="mask-type:alpha" maskUnits="userSpaceOnUse" x="194" y="72" width="1013" height="45">
<path d="M194 72H1207V117H194V72Z" fill="#C4C4C4"/>
</mask>
<g mask="url(#mask0_112_3926)">
<g filter="url(#filter0_f_112_3926)">
<path d="M1080.9 45.6879C1080.9 47.0106 1080.86 48.2692 1080.77 49.4639C1080.73 50.6586 1080.64 51.7039 1080.51 52.5999H1080.9C1081.84 51.1492 1083.1 49.9332 1084.67 48.9519C1086.25 47.9279 1088.3 47.4159 1090.82 47.4159C1094.7 47.4159 1097.86 48.9519 1100.29 52.0239C1102.72 55.0532 1103.94 59.5332 1103.94 65.4639C1103.94 69.4319 1103.38 72.7812 1102.27 75.5119C1101.17 78.1999 1099.59 80.2266 1097.54 81.5919C1095.53 82.9572 1093.21 83.6399 1090.56 83.6399C1088 83.6399 1085.98 83.1919 1084.48 82.2959C1083.03 81.3572 1081.84 80.3332 1080.9 79.2239H1080.26L1078.66 82.9999H1071.23V34.3599H1080.9V45.6879ZM1087.68 55.0959C1086.06 55.0959 1084.74 55.4372 1083.71 56.1199C1082.73 56.8026 1082.01 57.8479 1081.54 59.2559C1081.11 60.6212 1080.9 62.4132 1080.9 64.6319V65.7839C1080.9 69.0692 1081.39 71.5652 1082.37 73.2719C1083.39 74.9786 1085.21 75.8319 1087.81 75.8319C1089.9 75.8319 1091.48 74.9359 1092.55 73.1439C1093.61 71.3519 1094.15 68.7492 1094.15 65.3359C1094.15 61.9652 1093.61 59.4266 1092.55 57.7199C1091.52 55.9706 1089.9 55.0959 1087.68 55.0959Z" fill="url(#paint1_linear_112_3926)" fill-opacity="0.7"/>
<path d="M1047.96 47.4159C1051.2 47.4159 1054 48.0346 1056.34 49.2719C1058.69 50.4666 1060.48 52.2586 1061.72 54.6479C1063 56.9946 1063.64 59.8746 1063.64 63.2879V67.9599H1041.18C1041.26 70.6052 1042.07 72.6959 1043.61 74.2319C1045.14 75.7252 1047.34 76.4719 1050.2 76.4719C1052.38 76.4719 1054.36 76.2586 1056.15 75.8319C1057.94 75.4052 1059.78 74.7652 1061.66 73.9119V81.1439C1059.95 81.9972 1058.14 82.6159 1056.22 82.9999C1054.34 83.4266 1051.99 83.6399 1049.18 83.6399C1045.72 83.6399 1042.65 82.9999 1039.96 81.7199C1037.31 80.4399 1035.22 78.4772 1033.69 75.8319C1032.15 73.1439 1031.38 69.7946 1031.38 65.7839C1031.38 61.6879 1032.07 58.2959 1033.43 55.6079C1034.84 52.8772 1036.78 50.8292 1039.26 49.4639C1041.77 48.0986 1044.67 47.4159 1047.96 47.4159ZM1048.22 54.2639C1046.3 54.2639 1044.74 54.8826 1043.54 56.1199C1042.35 57.3146 1041.64 59.1066 1041.43 61.4959H1054.62C1054.62 60.0879 1054.38 58.8506 1053.91 57.7839C1053.44 56.7172 1052.72 55.8639 1051.74 55.2239C1050.8 54.5839 1049.62 54.2639 1048.22 54.2639Z" fill="url(#paint2_linear_112_3926)" fill-opacity="0.7"/>
<path d="M1004.6 70.7759C1004.43 70.0506 1004.18 68.9839 1003.83 67.5759C1003.54 66.1252 1003.19 64.5892 1002.81 62.9679C1002.43 61.3039 1002.06 59.7892 1001.72 58.4239C1001.38 57.0159 1001.15 55.9919 1001.02 55.3519H1000.76C1000.63 55.9919 1000.4 57.0159 1000.06 58.4239C999.76 59.7892 999.419 61.3039 999.035 62.9679C998.651 64.5892 998.288 66.1252 997.947 67.5759C997.605 69.0266 997.349 70.1359 997.179 70.9039L994.363 82.9999H984.123L974.203 48.0559H983.675L987.707 63.5439C988.005 64.6106 988.261 65.8906 988.475 67.3839C988.731 68.8772 988.965 70.3279 989.179 71.7359C989.392 73.1012 989.541 74.1892 989.627 74.9999H989.883C989.925 74.4026 990.011 73.6132 990.139 72.6319C990.267 71.6079 990.416 70.5626 990.587 69.4959C990.8 68.4292 990.971 67.4692 991.099 66.6159C991.269 65.7199 991.397 65.1226 991.483 64.8239L995.771 48.0559H1006.27L1010.36 64.8239C1010.53 65.4212 1010.73 66.3812 1010.94 67.7039C1011.19 69.0266 1011.41 70.3706 1011.58 71.7359C1011.79 73.1012 1011.9 74.1892 1011.9 74.9999H1012.15C1012.24 74.2746 1012.39 73.2292 1012.6 71.8639C1012.82 70.4559 1013.05 68.9839 1013.31 67.4479C1013.61 65.9119 1013.9 64.6106 1014.2 63.5439L1018.36 48.0559H1027.71L1017.66 82.9999H1007.29L1004.6 70.7759Z" fill="url(#paint3_linear_112_3926)" fill-opacity="0.7"/>
<path d="M938.334 47.4159C941.577 47.4159 944.371 48.0346 946.718 49.2719C949.065 50.4666 950.857 52.2586 952.094 54.6479C953.374 56.9946 954.014 59.8746 954.014 63.2879V67.9599H931.55C931.635 70.6052 932.446 72.6959 933.982 74.2319C935.518 75.7252 937.715 76.4719 940.574 76.4719C942.75 76.4719 944.734 76.2586 946.526 75.8319C948.318 75.4052 950.153 74.7652 952.03 73.9119V81.1439C950.323 81.9972 948.51 82.6159 946.59 82.9999C944.713 83.4266 942.366 83.6399 939.55 83.6399C936.094 83.6399 933.022 82.9999 930.334 81.7199C927.689 80.4399 925.598 78.4772 924.062 75.8319C922.526 73.1439 921.758 69.7946 921.758 65.7839C921.758 61.6879 922.441 58.2959 923.806 55.6079C925.214 52.8772 927.155 50.8292 929.63 49.4639C932.147 48.0986 935.049 47.4159 938.334 47.4159ZM938.59 54.2639C936.67 54.2639 935.113 54.8826 933.918 56.1199C932.723 57.3146 932.019 59.1066 931.806 61.4959H944.99C944.99 60.0879 944.755 58.8506 944.286 57.7839C943.817 56.7172 943.091 55.8639 942.11 55.2239C941.171 54.5839 939.998 54.2639 938.59 54.2639Z" fill="url(#paint4_linear_112_3926)" fill-opacity="0.7"/>
<path d="M901.765 47.4159C905.605 47.4159 908.634 48.4186 910.853 50.4239C913.072 52.4292 914.181 55.6932 914.181 60.2159V82.9999H904.581V62.6479C904.581 60.1306 904.112 58.2532 903.173 57.0159C902.277 55.7359 900.869 55.0959 898.949 55.0959C896.048 55.0959 894.064 56.0986 892.997 58.1039C891.973 60.0666 891.461 62.9039 891.461 66.6159V82.9999H881.797V48.0559H889.221L890.565 52.7279H890.949C891.717 51.5759 892.634 50.6159 893.701 49.8479C894.81 49.0372 896.026 48.4399 897.349 48.0559C898.714 47.6292 900.186 47.4159 901.765 47.4159Z" fill="url(#paint5_linear_112_3926)" fill-opacity="0.7"/>
<path d="M872.4 48.0559V82.9999H862.736V48.0559H872.4ZM867.6 34.2959C869.008 34.2959 870.224 34.6372 871.248 35.3199C872.315 35.9599 872.848 37.1972 872.848 39.0319C872.848 40.7812 872.315 41.9972 871.248 42.6799C870.224 43.3626 869.008 43.7039 867.6 43.7039C866.149 43.7039 864.912 43.3626 863.888 42.6799C862.864 41.9972 862.352 40.7812 862.352 39.0319C862.352 37.1972 862.864 35.9599 863.888 35.3199C864.912 34.6372 866.149 34.2959 867.6 34.2959Z" fill="url(#paint6_linear_112_3926)" fill-opacity="0.7"/>
<path d="M833.883 47.4159C836.315 47.4159 838.341 47.8852 839.963 48.8239C841.584 49.7199 842.928 50.9359 843.995 52.4719H844.251L845.147 48.0559H853.339V83.2559C853.339 86.5412 852.699 89.2932 851.419 91.5119C850.139 93.7732 848.197 95.4799 845.595 96.6319C843.035 97.7839 839.771 98.3599 835.803 98.3599C833.115 98.3599 830.704 98.1892 828.571 97.8479C826.437 97.5492 824.432 97.0159 822.555 96.2479V88.0559C824.475 88.9092 826.437 89.5706 828.443 90.0399C830.491 90.5092 832.837 90.7439 835.483 90.7439C838.171 90.7439 840.197 90.1252 841.563 88.8879C842.971 87.6506 843.675 85.9439 843.675 83.7679V82.8079C843.675 82.2959 843.696 81.6132 843.739 80.7599C843.824 79.9066 843.909 79.1599 843.995 78.5199H843.675C842.693 80.0559 841.392 81.2932 839.771 82.2319C838.192 83.1706 836.208 83.6399 833.819 83.6399C829.808 83.6399 826.587 82.0826 824.155 78.9679C821.765 75.8532 820.571 71.3946 820.571 65.5919C820.571 59.7892 821.787 55.3092 824.219 52.1519C826.651 48.9946 829.872 47.4159 833.883 47.4159ZM837.019 55.0319C835.611 55.0319 834.395 55.4372 833.371 56.2479C832.389 57.0586 831.643 58.2532 831.131 59.8319C830.661 61.4106 830.427 63.3732 830.427 65.7199C830.427 69.2186 830.981 71.8212 832.091 73.5279C833.243 75.2346 834.949 76.0879 837.211 76.0879C838.491 76.0879 839.579 75.8959 840.475 75.5119C841.371 75.1279 842.096 74.5732 842.651 73.8479C843.205 73.0799 843.611 72.1199 843.867 70.9679C844.165 69.8159 844.315 68.4506 844.315 66.8719V65.4639C844.315 63.1172 844.08 61.1759 843.611 59.6399C843.141 58.1039 842.373 56.9519 841.307 56.1839C840.24 55.4159 838.811 55.0319 837.019 55.0319Z" fill="url(#paint7_linear_112_3926)" fill-opacity="0.7"/>
<path d="M799.538 47.4159C803.933 47.4159 807.282 48.4612 809.586 50.5519C811.89 52.5999 813.042 55.6506 813.042 59.7039V82.9999H806.322L804.466 78.2639H804.21C803.229 79.5012 802.205 80.5252 801.138 81.3359C800.114 82.1466 798.919 82.7226 797.554 83.0639C796.189 83.4479 794.525 83.6399 792.562 83.6399C790.514 83.6399 788.679 83.2559 787.058 82.4879C785.437 81.6772 784.157 80.4612 783.218 78.8399C782.279 77.2186 781.81 75.1706 781.81 72.6959C781.81 69.0266 783.133 66.2746 785.778 64.4399C788.423 62.6052 792.37 61.5812 797.618 61.3679L803.442 61.1759V60.0879C803.442 57.9972 802.973 56.5466 802.034 55.7359C801.095 54.8826 799.773 54.4559 798.066 54.4559C796.487 54.4559 794.866 54.7119 793.202 55.2239C791.538 55.7359 789.895 56.3546 788.274 57.0799L785.458 50.4879C787.293 49.5492 789.383 48.8026 791.73 48.2479C794.119 47.6932 796.722 47.4159 799.538 47.4159ZM799.794 66.9999C796.765 67.0852 794.653 67.5759 793.458 68.4719C792.263 69.3679 791.666 70.6266 791.666 72.2479C791.666 73.7412 792.071 74.8506 792.882 75.5759C793.735 76.2586 794.866 76.5999 796.274 76.5999C798.279 76.5999 799.965 76.0026 801.33 74.8079C802.738 73.6132 803.442 71.9066 803.442 69.6879V66.8079L799.794 66.9999Z" fill="url(#paint8_linear_112_3926)" fill-opacity="0.7"/>
<path d="M763.069 47.4159C767.122 47.4159 770.322 48.9519 772.669 52.0239C775.015 55.0532 776.189 59.5332 776.189 65.4639C776.189 69.3892 775.613 72.7172 774.461 75.4479C773.351 78.1786 771.794 80.2266 769.789 81.5919C767.783 82.9572 765.458 83.6399 762.813 83.6399C761.106 83.6399 759.634 83.4266 758.397 82.9999C757.159 82.5306 756.114 81.9759 755.261 81.3359C754.45 80.6532 753.746 79.9492 753.149 79.2239H752.765C752.85 79.9919 752.935 80.8879 753.021 81.9119C753.106 82.8932 753.149 83.9172 753.149 84.9839V98.3599H743.485V48.0559H751.357L752.701 52.5999H753.149C753.789 51.6186 754.535 50.7439 755.389 49.9759C756.285 49.2079 757.351 48.5892 758.589 48.1199C759.869 47.6506 761.362 47.4159 763.069 47.4159ZM759.869 55.0959C758.247 55.0959 756.946 55.4372 755.965 56.1199C754.983 56.8026 754.279 57.8266 753.853 59.1919C753.426 60.5572 753.191 62.2852 753.149 64.3759V65.3999C753.149 67.6186 753.341 69.5172 753.725 71.0959C754.151 72.6319 754.855 73.8052 755.837 74.6159C756.861 75.4266 758.226 75.8319 759.933 75.8319C761.383 75.8319 762.578 75.4266 763.517 74.6159C764.498 73.8052 765.223 72.6319 765.693 71.0959C766.162 69.5172 766.397 67.5972 766.397 65.3359C766.397 61.8799 765.842 59.3199 764.733 57.6559C763.666 55.9492 762.045 55.0959 759.869 55.0959Z" fill="url(#paint9_linear_112_3926)" fill-opacity="0.7"/>
<path d="M717.463 48.0559V82.9999H707.799V48.0559H717.463ZM712.663 34.2959C714.071 34.2959 715.287 34.6372 716.311 35.3199C717.377 35.9599 717.911 37.1972 717.911 39.0319C717.911 40.7812 717.377 41.9972 716.311 42.6799C715.287 43.3626 714.071 43.7039 712.663 43.7039C711.212 43.7039 709.975 43.3626 708.951 42.6799C707.927 41.9972 707.415 40.7812 707.415 39.0319C707.415 37.1972 707.927 35.9599 708.951 35.3199C709.975 34.6372 711.212 34.2959 712.663 34.2959Z" fill="url(#paint10_linear_112_3926)" fill-opacity="0.7"/>
<path d="M678.753 83.6399C674.913 83.6399 671.756 82.1252 669.281 79.0959C666.849 76.0239 665.633 71.5226 665.633 65.5919C665.633 59.5759 666.87 55.0532 669.345 52.0239C671.82 48.9519 675.062 47.4159 679.073 47.4159C680.737 47.4159 682.166 47.6506 683.361 48.1199C684.598 48.5466 685.665 49.1439 686.561 49.9119C687.457 50.6799 688.225 51.5546 688.865 52.5359H689.185C689.057 51.7679 688.929 50.7012 688.801 49.3359C688.716 47.9279 688.673 46.6479 688.673 45.4959V34.3599H698.401V82.9999H690.977L689.057 78.4559H688.673C688.076 79.4372 687.329 80.3119 686.433 81.0799C685.537 81.8479 684.449 82.4666 683.169 82.9359C681.932 83.4052 680.46 83.6399 678.753 83.6399ZM682.145 75.8959C684.79 75.8959 686.646 75.1492 687.713 73.6559C688.78 72.1199 689.313 69.7946 689.313 66.6799V65.6559C689.313 62.2852 688.801 59.7039 687.777 57.9119C686.753 56.1199 684.854 55.2239 682.081 55.2239C679.99 55.2239 678.348 56.1199 677.153 57.9119C676.001 59.7039 675.425 62.3066 675.425 65.7199C675.425 69.1332 676.001 71.6932 677.153 73.3999C678.348 75.0639 680.012 75.8959 682.145 75.8959Z" fill="url(#paint11_linear_112_3926)" fill-opacity="0.7"/>
<path d="M627.397 47.4159C630.639 47.4159 633.434 48.0346 635.781 49.2719C638.127 50.4666 639.919 52.2586 641.157 54.6479C642.437 56.9946 643.077 59.8746 643.077 63.2879V67.9599H620.613C620.698 70.6052 621.509 72.6959 623.045 74.2319C624.581 75.7252 626.778 76.4719 629.637 76.4719C631.813 76.4719 633.797 76.2586 635.589 75.8319C637.381 75.4052 639.215 74.7652 641.093 73.9119V81.1439C639.386 81.9972 637.573 82.6159 635.653 82.9999C633.775 83.4266 631.429 83.6399 628.613 83.6399C625.157 83.6399 622.085 82.9999 619.397 81.7199C616.751 80.4399 614.661 78.4772 613.125 75.8319C611.589 73.1439 610.821 69.7946 610.821 65.7839C610.821 61.6879 611.503 58.2959 612.869 55.6079C614.277 52.8772 616.218 50.8292 618.693 49.4639C621.21 48.0986 624.111 47.4159 627.397 47.4159ZM627.653 54.2639C625.733 54.2639 624.175 54.8826 622.981 56.1199C621.786 57.3146 621.082 59.1066 620.869 61.4959H634.053C634.053 60.0879 633.818 58.8506 633.349 57.7839C632.879 56.7172 632.154 55.8639 631.173 55.2239C630.234 54.5839 629.061 54.2639 627.653 54.2639Z" fill="url(#paint12_linear_112_3926)" fill-opacity="0.7"/>
<path d="M590.828 47.4159C594.668 47.4159 597.697 48.4186 599.916 50.4239C602.134 52.4292 603.244 55.6932 603.244 60.2159V82.9999H593.644V62.6479C593.644 60.1306 593.174 58.2532 592.236 57.0159C591.34 55.7359 589.932 55.0959 588.012 55.0959C585.11 55.0959 583.126 56.0986 582.06 58.1039C581.036 60.0666 580.524 62.9039 580.524 66.6159V82.9999H570.86V48.0559H578.284L579.628 52.7279H580.012C580.78 51.5759 581.697 50.6159 582.764 49.8479C583.873 49.0372 585.089 48.4399 586.412 48.0559C587.777 47.6292 589.249 47.4159 590.828 47.4159Z" fill="url(#paint13_linear_112_3926)" fill-opacity="0.7"/>
<path d="M563.116 65.4639C563.116 68.3652 562.71 70.9466 561.9 73.2079C561.132 75.4692 560.001 77.3679 558.508 78.9039C557.057 80.4399 555.286 81.6132 553.196 82.4239C551.105 83.2346 548.737 83.6399 546.092 83.6399C543.617 83.6399 541.356 83.2346 539.308 82.4239C537.26 81.6132 535.489 80.4399 533.996 78.9039C532.502 77.3679 531.329 75.4692 530.476 73.2079C529.622 70.9466 529.196 68.3652 529.196 65.4639C529.196 61.5812 529.878 58.2959 531.244 55.6079C532.609 52.9199 534.572 50.8932 537.132 49.5279C539.692 48.1199 542.742 47.4159 546.284 47.4159C549.569 47.4159 552.47 48.1199 554.988 49.5279C557.505 50.8932 559.489 52.9199 560.94 55.6079C562.39 58.2959 563.116 61.5812 563.116 65.4639ZM539.052 65.4639C539.052 67.7252 539.286 69.6666 539.756 71.2879C540.268 72.9092 541.036 74.1466 542.06 74.9999C543.126 75.8532 544.513 76.2799 546.22 76.2799C547.884 76.2799 549.228 75.8532 550.252 74.9999C551.318 74.1466 552.086 72.9092 552.556 71.2879C553.025 69.6666 553.26 67.7252 553.26 65.4639C553.26 63.1599 553.004 61.2186 552.492 59.6399C552.022 58.0612 551.276 56.8666 550.252 56.0559C549.228 55.2026 547.862 54.7759 546.156 54.7759C543.681 54.7759 541.868 55.6932 540.716 57.5279C539.606 59.3626 539.052 62.0079 539.052 65.4639Z" fill="url(#paint14_linear_112_3926)" fill-opacity="0.7"/>
<path d="M521.463 48.0559V82.9999H511.799V48.0559H521.463ZM516.663 34.2959C518.071 34.2959 519.287 34.6372 520.311 35.3199C521.377 35.9599 521.911 37.1972 521.911 39.0319C521.911 40.7812 521.377 41.9972 520.311 42.6799C519.287 43.3626 518.071 43.7039 516.663 43.7039C515.212 43.7039 513.975 43.3626 512.951 42.6799C511.927 41.9972 511.415 40.7812 511.415 39.0319C511.415 37.1972 511.927 35.9599 512.951 35.3199C513.975 34.6372 515.212 34.2959 516.663 34.2959Z" fill="url(#paint15_linear_112_3926)" fill-opacity="0.7"/>
<path d="M505.068 82.9999H477.42V77.3039L493.548 55.4159H478.316V48.0559H504.492V54.2639L488.812 75.5759H505.068V82.9999Z" fill="url(#paint16_linear_112_3926)" fill-opacity="0.7"/>
<path d="M470.739 48.0559V82.9999H463.315L462.099 78.5199H461.523C460.798 79.7146 459.859 80.6959 458.707 81.4639C457.598 82.2319 456.36 82.7866 454.995 83.1279C453.672 83.4692 452.264 83.6399 450.771 83.6399C448.296 83.6399 446.12 83.1919 444.243 82.2959C442.408 81.3999 440.958 80.0132 439.891 78.1359C438.867 76.2586 438.355 73.8266 438.355 70.8399V48.0559H448.083V68.4079C448.083 70.8826 448.51 72.7599 449.363 74.0399C450.259 75.2772 451.667 75.8959 453.587 75.8959C455.55 75.8959 457.064 75.4692 458.131 74.6159C459.24 73.7199 460.008 72.4186 460.435 70.7119C460.862 69.0052 461.075 66.9146 461.075 64.4399V48.0559H470.739Z" fill="url(#paint17_linear_112_3926)" fill-opacity="0.7"/>
<path d="M409.566 83.6399C405.726 83.6399 402.568 82.1252 400.094 79.0959C397.662 76.0239 396.446 71.5226 396.446 65.5919C396.446 59.5759 397.683 55.0532 400.158 52.0239C402.632 48.9519 405.875 47.4159 409.886 47.4159C411.55 47.4159 412.979 47.6506 414.174 48.1199C415.411 48.5466 416.478 49.1439 417.374 49.9119C418.27 50.6799 419.038 51.5546 419.678 52.5359H419.998C419.87 51.7679 419.742 50.7012 419.614 49.3359C419.528 47.9279 419.486 46.6479 419.486 45.4959V34.3599H429.214V82.9999H421.79L419.87 78.4559H419.486C418.888 79.4372 418.142 80.3119 417.246 81.0799C416.35 81.8479 415.262 82.4666 413.982 82.9359C412.744 83.4052 411.272 83.6399 409.566 83.6399ZM412.958 75.8959C415.603 75.8959 417.459 75.1492 418.526 73.6559C419.592 72.1199 420.126 69.7946 420.126 66.6799V65.6559C420.126 62.2852 419.614 59.7039 418.59 57.9119C417.566 56.1199 415.667 55.2239 412.894 55.2239C410.803 55.2239 409.16 56.1199 407.966 57.9119C406.814 59.7039 406.238 62.3066 406.238 65.7199C406.238 69.1332 406.814 71.6932 407.966 73.3999C409.16 75.0639 410.824 75.8959 412.958 75.8959Z" fill="url(#paint18_linear_112_3926)" fill-opacity="0.7"/>
<path d="M375.413 47.4159C379.808 47.4159 383.157 48.4612 385.461 50.5519C387.765 52.5999 388.917 55.6506 388.917 59.7039V82.9999H382.197L380.341 78.2639H380.085C379.104 79.5012 378.08 80.5252 377.013 81.3359C375.989 82.1466 374.794 82.7226 373.429 83.0639C372.064 83.4479 370.4 83.6399 368.437 83.6399C366.389 83.6399 364.554 83.2559 362.933 82.4879C361.312 81.6772 360.032 80.4612 359.093 78.8399C358.154 77.2186 357.685 75.1706 357.685 72.6959C357.685 69.0266 359.008 66.2746 361.653 64.4399C364.298 62.6052 368.245 61.5812 373.493 61.3679L379.317 61.1759V60.0879C379.317 57.9972 378.848 56.5466 377.909 55.7359C376.97 54.8826 375.648 54.4559 373.941 54.4559C372.362 54.4559 370.741 54.7119 369.077 55.2239C367.413 55.7359 365.77 56.3546 364.149 57.0799L361.333 50.4879C363.168 49.5492 365.258 48.8026 367.605 48.2479C369.994 47.6932 372.597 47.4159 375.413 47.4159ZM375.669 66.9999C372.64 67.0852 370.528 67.5759 369.333 68.4719C368.138 69.3679 367.541 70.6266 367.541 72.2479C367.541 73.7412 367.946 74.8506 368.757 75.5759C369.61 76.2586 370.741 76.5999 372.149 76.5999C374.154 76.5999 375.84 76.0026 377.205 74.8079C378.613 73.6132 379.317 71.9066 379.317 69.6879V66.8079L375.669 66.9999Z" fill="url(#paint19_linear_112_3926)" fill-opacity="0.7"/>
<path d="M351.75 47.4159C352.39 47.4159 353.073 47.4586 353.798 47.5439C354.566 47.5866 355.163 47.6719 355.59 47.7999L354.63 56.8239C354.161 56.7386 353.606 56.6532 352.966 56.5679C352.326 56.4826 351.558 56.4399 350.662 56.4399C349.681 56.4399 348.678 56.5892 347.654 56.8879C346.673 57.1866 345.755 57.6772 344.902 58.3599C344.049 59.0426 343.366 59.9386 342.854 61.0479C342.342 62.1572 342.086 63.5652 342.086 65.2719V82.9999H332.422V48.0559H339.782L341.19 53.9439H341.638C342.321 52.7066 343.174 51.5972 344.198 50.6159C345.222 49.6346 346.374 48.8666 347.654 48.3119C348.934 47.7146 350.299 47.4159 351.75 47.4159Z" fill="url(#paint20_linear_112_3926)" fill-opacity="0.7"/>
<path d="M317.36 82.9999H307.568V45.4319H295.216V37.3039H329.712V45.4319H317.36V82.9999Z" fill="url(#paint21_linear_112_3926)" fill-opacity="0.7"/>
</g>
</g>
<path d="M194 72H1207V105C1207 111.627 1201.63 117 1195 117H206C199.373 117 194 111.627 194 105V72Z" fill="url(#paint22_linear_112_3926)"/>
<path d="M1080.9 33.6879C1080.9 35.0106 1080.86 36.2692 1080.77 37.4639C1080.73 38.6586 1080.64 39.7039 1080.51 40.5999H1080.9C1081.84 39.1492 1083.1 37.9332 1084.67 36.9519C1086.25 35.9279 1088.3 35.4159 1090.82 35.4159C1094.7 35.4159 1097.86 36.9519 1100.29 40.0239C1102.72 43.0532 1103.94 47.5332 1103.94 53.4639C1103.94 57.4319 1103.38 60.7812 1102.27 63.5119C1101.17 66.1999 1099.59 68.2266 1097.54 69.5919C1095.53 70.9572 1093.21 71.6399 1090.56 71.6399C1088 71.6399 1085.98 71.1919 1084.48 70.2959C1083.03 69.3572 1081.84 68.3332 1080.9 67.2239H1080.26L1078.66 70.9999H1071.23V22.3599H1080.9V33.6879ZM1087.68 43.0959C1086.06 43.0959 1084.74 43.4372 1083.71 44.1199C1082.73 44.8026 1082.01 45.8479 1081.54 47.2559C1081.11 48.6212 1080.9 50.4132 1080.9 52.6319V53.7839C1080.9 57.0692 1081.39 59.5652 1082.37 61.2719C1083.39 62.9786 1085.21 63.8319 1087.81 63.8319C1089.9 63.8319 1091.48 62.9359 1092.55 61.1439C1093.61 59.3519 1094.15 56.7492 1094.15 53.3359C1094.15 49.9652 1093.61 47.4266 1092.55 45.7199C1091.52 43.9706 1089.9 43.0959 1087.68 43.0959Z" fill="url(#paint23_linear_112_3926)"/>
<path d="M1047.96 35.4159C1051.2 35.4159 1054 36.0346 1056.34 37.2719C1058.69 38.4666 1060.48 40.2586 1061.72 42.6479C1063 44.9946 1063.64 47.8746 1063.64 51.2879V55.9599H1041.18C1041.26 58.6052 1042.07 60.6959 1043.61 62.2319C1045.14 63.7252 1047.34 64.4719 1050.2 64.4719C1052.38 64.4719 1054.36 64.2586 1056.15 63.8319C1057.94 63.4052 1059.78 62.7652 1061.66 61.9119V69.1439C1059.95 69.9972 1058.14 70.6159 1056.22 70.9999C1054.34 71.4266 1051.99 71.6399 1049.18 71.6399C1045.72 71.6399 1042.65 70.9999 1039.96 69.7199C1037.31 68.4399 1035.22 66.4772 1033.69 63.8319C1032.15 61.1439 1031.38 57.7946 1031.38 53.7839C1031.38 49.6879 1032.07 46.2959 1033.43 43.6079C1034.84 40.8772 1036.78 38.8292 1039.26 37.4639C1041.77 36.0986 1044.67 35.4159 1047.96 35.4159ZM1048.22 42.2639C1046.3 42.2639 1044.74 42.8826 1043.54 44.1199C1042.35 45.3146 1041.64 47.1066 1041.43 49.4959H1054.62C1054.62 48.0879 1054.38 46.8506 1053.91 45.7839C1053.44 44.7172 1052.72 43.8639 1051.74 43.2239C1050.8 42.5839 1049.62 42.2639 1048.22 42.2639Z" fill="url(#paint24_linear_112_3926)"/>
<path d="M1004.6 58.7759C1004.43 58.0506 1004.18 56.9839 1003.83 55.5759C1003.54 54.1252 1003.19 52.5892 1002.81 50.9679C1002.43 49.3039 1002.06 47.7892 1001.72 46.4239C1001.38 45.0159 1001.15 43.9919 1001.02 43.3519H1000.76C1000.63 43.9919 1000.4 45.0159 1000.06 46.4239C999.76 47.7892 999.419 49.3039 999.035 50.9679C998.651 52.5892 998.288 54.1252 997.947 55.5759C997.605 57.0266 997.349 58.1359 997.179 58.9039L994.363 70.9999H984.123L974.203 36.0559H983.675L987.707 51.5439C988.005 52.6106 988.261 53.8906 988.475 55.3839C988.731 56.8772 988.965 58.3279 989.179 59.7359C989.392 61.1012 989.541 62.1892 989.627 62.9999H989.883C989.925 62.4026 990.011 61.6132 990.139 60.6319C990.267 59.6079 990.416 58.5626 990.587 57.4959C990.8 56.4292 990.971 55.4692 991.099 54.6159C991.269 53.7199 991.397 53.1226 991.483 52.8239L995.771 36.0559H1006.27L1010.36 52.8239C1010.53 53.4212 1010.73 54.3812 1010.94 55.7039C1011.19 57.0266 1011.41 58.3706 1011.58 59.7359C1011.79 61.1012 1011.9 62.1892 1011.9 62.9999H1012.15C1012.24 62.2746 1012.39 61.2292 1012.6 59.8639C1012.82 58.4559 1013.05 56.9839 1013.31 55.4479C1013.61 53.9119 1013.9 52.6106 1014.2 51.5439L1018.36 36.0559H1027.71L1017.66 70.9999H1007.29L1004.6 58.7759Z" fill="url(#paint25_linear_112_3926)"/>
<path d="M938.334 35.4159C941.577 35.4159 944.371 36.0346 946.718 37.2719C949.065 38.4666 950.857 40.2586 952.094 42.6479C953.374 44.9946 954.014 47.8746 954.014 51.2879V55.9599H931.55C931.635 58.6052 932.446 60.6959 933.982 62.2319C935.518 63.7252 937.715 64.4719 940.574 64.4719C942.75 64.4719 944.734 64.2586 946.526 63.8319C948.318 63.4052 950.153 62.7652 952.03 61.9119V69.1439C950.323 69.9972 948.51 70.6159 946.59 70.9999C944.713 71.4266 942.366 71.6399 939.55 71.6399C936.094 71.6399 933.022 70.9999 930.334 69.7199C927.689 68.4399 925.598 66.4772 924.062 63.8319C922.526 61.1439 921.758 57.7946 921.758 53.7839C921.758 49.6879 922.441 46.2959 923.806 43.6079C925.214 40.8772 927.155 38.8292 929.63 37.4639C932.147 36.0986 935.049 35.4159 938.334 35.4159ZM938.59 42.2639C936.67 42.2639 935.113 42.8826 933.918 44.1199C932.723 45.3146 932.019 47.1066 931.806 49.4959H944.99C944.99 48.0879 944.755 46.8506 944.286 45.7839C943.817 44.7172 943.091 43.8639 942.11 43.2239C941.171 42.5839 939.998 42.2639 938.59 42.2639Z" fill="url(#paint26_linear_112_3926)"/>
<path d="M901.765 35.4159C905.605 35.4159 908.634 36.4186 910.853 38.4239C913.072 40.4292 914.181 43.6932 914.181 48.2159V70.9999H904.581V50.6479C904.581 48.1306 904.112 46.2532 903.173 45.0159C902.277 43.7359 900.869 43.0959 898.949 43.0959C896.048 43.0959 894.064 44.0986 892.997 46.1039C891.973 48.0666 891.461 50.9039 891.461 54.6159V70.9999H881.797V36.0559H889.221L890.565 40.7279H890.949C891.717 39.5759 892.634 38.6159 893.701 37.8479C894.81 37.0372 896.026 36.4399 897.349 36.0559C898.714 35.6292 900.186 35.4159 901.765 35.4159Z" fill="url(#paint27_linear_112_3926)"/>
<path d="M872.4 36.0559V70.9999H862.736V36.0559H872.4ZM867.6 22.2959C869.008 22.2959 870.224 22.6372 871.248 23.3199C872.315 23.9599 872.848 25.1972 872.848 27.0319C872.848 28.7812 872.315 29.9972 871.248 30.6799C870.224 31.3626 869.008 31.7039 867.6 31.7039C866.149 31.7039 864.912 31.3626 863.888 30.6799C862.864 29.9972 862.352 28.7812 862.352 27.0319C862.352 25.1972 862.864 23.9599 863.888 23.3199C864.912 22.6372 866.149 22.2959 867.6 22.2959Z" fill="url(#paint28_linear_112_3926)"/>
<path d="M833.883 35.4159C836.315 35.4159 838.341 35.8852 839.963 36.8239C841.584 37.7199 842.928 38.9359 843.995 40.4719H844.251L845.147 36.0559H853.339V71.2559C853.339 74.5412 852.699 77.2932 851.419 79.5119C850.139 81.7732 848.197 83.4799 845.595 84.6319C843.035 85.7839 839.771 86.3599 835.803 86.3599C833.115 86.3599 830.704 86.1892 828.571 85.8479C826.437 85.5492 824.432 85.0159 822.555 84.2479V76.0559C824.475 76.9092 826.437 77.5706 828.443 78.0399C830.491 78.5092 832.837 78.7439 835.483 78.7439C838.171 78.7439 840.197 78.1252 841.563 76.8879C842.971 75.6506 843.675 73.9439 843.675 71.7679V70.8079C843.675 70.2959 843.696 69.6132 843.739 68.7599C843.824 67.9066 843.909 67.1599 843.995 66.5199H843.675C842.693 68.0559 841.392 69.2932 839.771 70.2319C838.192 71.1706 836.208 71.6399 833.819 71.6399C829.808 71.6399 826.587 70.0826 824.155 66.9679C821.765 63.8532 820.571 59.3946 820.571 53.5919C820.571 47.7892 821.787 43.3092 824.219 40.1519C826.651 36.9946 829.872 35.4159 833.883 35.4159ZM837.019 43.0319C835.611 43.0319 834.395 43.4372 833.371 44.2479C832.389 45.0586 831.643 46.2532 831.131 47.8319C830.661 49.4106 830.427 51.3732 830.427 53.7199C830.427 57.2186 830.981 59.8212 832.091 61.5279C833.243 63.2346 834.949 64.0879 837.211 64.0879C838.491 64.0879 839.579 63.8959 840.475 63.5119C841.371 63.1279 842.096 62.5732 842.651 61.8479C843.205 61.0799 843.611 60.1199 843.867 58.9679C844.165 57.8159 844.315 56.4506 844.315 54.8719V53.4639C844.315 51.1172 844.08 49.1759 843.611 47.6399C843.141 46.1039 842.373 44.9519 841.307 44.1839C840.24 43.4159 838.811 43.0319 837.019 43.0319Z" fill="url(#paint29_linear_112_3926)"/>
<path d="M799.538 35.4159C803.933 35.4159 807.282 36.4612 809.586 38.5519C811.89 40.5999 813.042 43.6506 813.042 47.7039V70.9999H806.322L804.466 66.2639H804.21C803.229 67.5012 802.205 68.5252 801.138 69.3359C800.114 70.1466 798.919 70.7226 797.554 71.0639C796.189 71.4479 794.525 71.6399 792.562 71.6399C790.514 71.6399 788.679 71.2559 787.058 70.4879C785.437 69.6772 784.157 68.4612 783.218 66.8399C782.279 65.2186 781.81 63.1706 781.81 60.6959C781.81 57.0266 783.133 54.2746 785.778 52.4399C788.423 50.6052 792.37 49.5812 797.618 49.3679L803.442 49.1759V48.0879C803.442 45.9972 802.973 44.5466 802.034 43.7359C801.095 42.8826 799.773 42.4559 798.066 42.4559C796.487 42.4559 794.866 42.7119 793.202 43.2239C791.538 43.7359 789.895 44.3546 788.274 45.0799L785.458 38.4879C787.293 37.5492 789.383 36.8026 791.73 36.2479C794.119 35.6932 796.722 35.4159 799.538 35.4159ZM799.794 54.9999C796.765 55.0852 794.653 55.5759 793.458 56.4719C792.263 57.3679 791.666 58.6266 791.666 60.2479C791.666 61.7412 792.071 62.8506 792.882 63.5759C793.735 64.2586 794.866 64.5999 796.274 64.5999C798.279 64.5999 799.965 64.0026 801.33 62.8079C802.738 61.6132 803.442 59.9066 803.442 57.6879V54.8079L799.794 54.9999Z" fill="url(#paint30_linear_112_3926)"/>
<path d="M763.069 35.4159C767.122 35.4159 770.322 36.9519 772.669 40.0239C775.015 43.0532 776.189 47.5332 776.189 53.4639C776.189 57.3892 775.613 60.7172 774.461 63.4479C773.351 66.1786 771.794 68.2266 769.789 69.5919C767.783 70.9572 765.458 71.6399 762.813 71.6399C761.106 71.6399 759.634 71.4266 758.397 70.9999C757.159 70.5306 756.114 69.9759 755.261 69.3359C754.45 68.6532 753.746 67.9492 753.149 67.2239H752.765C752.85 67.9919 752.935 68.8879 753.021 69.9119C753.106 70.8932 753.149 71.9172 753.149 72.9839V86.3599H743.485V36.0559H751.357L752.701 40.5999H753.149C753.789 39.6186 754.535 38.7439 755.389 37.9759C756.285 37.2079 757.351 36.5892 758.589 36.1199C759.869 35.6506 761.362 35.4159 763.069 35.4159ZM759.869 43.0959C758.247 43.0959 756.946 43.4372 755.965 44.1199C754.983 44.8026 754.279 45.8266 753.853 47.1919C753.426 48.5572 753.191 50.2852 753.149 52.3759V53.3999C753.149 55.6186 753.341 57.5172 753.725 59.0959C754.151 60.6319 754.855 61.8052 755.837 62.6159C756.861 63.4266 758.226 63.8319 759.933 63.8319C761.383 63.8319 762.578 63.4266 763.517 62.6159C764.498 61.8052 765.223 60.6319 765.693 59.0959C766.162 57.5172 766.397 55.5972 766.397 53.3359C766.397 49.8799 765.842 47.3199 764.733 45.6559C763.666 43.9492 762.045 43.0959 759.869 43.0959Z" fill="url(#paint31_linear_112_3926)"/>
<path d="M717.463 36.0559V70.9999H707.799V36.0559H717.463ZM712.663 22.2959C714.071 22.2959 715.287 22.6372 716.311 23.3199C717.377 23.9599 717.911 25.1972 717.911 27.0319C717.911 28.7812 717.377 29.9972 716.311 30.6799C715.287 31.3626 714.071 31.7039 712.663 31.7039C711.212 31.7039 709.975 31.3626 708.951 30.6799C707.927 29.9972 707.415 28.7812 707.415 27.0319C707.415 25.1972 707.927 23.9599 708.951 23.3199C709.975 22.6372 711.212 22.2959 712.663 22.2959Z" fill="url(#paint32_linear_112_3926)"/>
<path d="M678.753 71.6399C674.913 71.6399 671.756 70.1252 669.281 67.0959C666.849 64.0239 665.633 59.5226 665.633 53.5919C665.633 47.5759 666.87 43.0532 669.345 40.0239C671.82 36.9519 675.062 35.4159 679.073 35.4159C680.737 35.4159 682.166 35.6506 683.361 36.1199C684.598 36.5466 685.665 37.1439 686.561 37.9119C687.457 38.6799 688.225 39.5546 688.865 40.5359H689.185C689.057 39.7679 688.929 38.7012 688.801 37.3359C688.716 35.9279 688.673 34.6479 688.673 33.4959V22.3599H698.401V70.9999H690.977L689.057 66.4559H688.673C688.076 67.4372 687.329 68.3119 686.433 69.0799C685.537 69.8479 684.449 70.4666 683.169 70.9359C681.932 71.4052 680.46 71.6399 678.753 71.6399ZM682.145 63.8959C684.79 63.8959 686.646 63.1492 687.713 61.6559C688.78 60.1199 689.313 57.7946 689.313 54.6799V53.6559C689.313 50.2852 688.801 47.7039 687.777 45.9119C686.753 44.1199 684.854 43.2239 682.081 43.2239C679.99 43.2239 678.348 44.1199 677.153 45.9119C676.001 47.7039 675.425 50.3066 675.425 53.7199C675.425 57.1332 676.001 59.6932 677.153 61.3999C678.348 63.0639 680.012 63.8959 682.145 63.8959Z" fill="url(#paint33_linear_112_3926)"/>
<path d="M627.397 35.4159C630.639 35.4159 633.434 36.0346 635.781 37.2719C638.127 38.4666 639.919 40.2586 641.157 42.6479C642.437 44.9946 643.077 47.8746 643.077 51.2879V55.9599H620.613C620.698 58.6052 621.509 60.6959 623.045 62.2319C624.581 63.7252 626.778 64.4719 629.637 64.4719C631.813 64.4719 633.797 64.2586 635.589 63.8319C637.381 63.4052 639.215 62.7652 641.093 61.9119V69.1439C639.386 69.9972 637.573 70.6159 635.653 70.9999C633.775 71.4266 631.429 71.6399 628.613 71.6399C625.157 71.6399 622.085 70.9999 619.397 69.7199C616.751 68.4399 614.661 66.4772 613.125 63.8319C611.589 61.1439 610.821 57.7946 610.821 53.7839C610.821 49.6879 611.503 46.2959 612.869 43.6079C614.277 40.8772 616.218 38.8292 618.693 37.4639C621.21 36.0986 624.111 35.4159 627.397 35.4159ZM627.653 42.2639C625.733 42.2639 624.175 42.8826 622.981 44.1199C621.786 45.3146 621.082 47.1066 620.869 49.4959H634.053C634.053 48.0879 633.818 46.8506 633.349 45.7839C632.879 44.7172 632.154 43.8639 631.173 43.2239C630.234 42.5839 629.061 42.2639 627.653 42.2639Z" fill="url(#paint34_linear_112_3926)"/>
<path d="M590.828 35.4159C594.668 35.4159 597.697 36.4186 599.916 38.4239C602.134 40.4292 603.244 43.6932 603.244 48.2159V70.9999H593.644V50.6479C593.644 48.1306 593.174 46.2532 592.236 45.0159C591.34 43.7359 589.932 43.0959 588.012 43.0959C585.11 43.0959 583.126 44.0986 582.06 46.1039C581.036 48.0666 580.524 50.9039 580.524 54.6159V70.9999H570.86V36.0559H578.284L579.628 40.7279H580.012C580.78 39.5759 581.697 38.6159 582.764 37.8479C583.873 37.0372 585.089 36.4399 586.412 36.0559C587.777 35.6292 589.249 35.4159 590.828 35.4159Z" fill="url(#paint35_linear_112_3926)"/>
<path d="M563.116 53.4639C563.116 56.3652 562.71 58.9466 561.9 61.2079C561.132 63.4692 560.001 65.3679 558.508 66.9039C557.057 68.4399 555.286 69.6132 553.196 70.4239C551.105 71.2346 548.737 71.6399 546.092 71.6399C543.617 71.6399 541.356 71.2346 539.308 70.4239C537.26 69.6132 535.489 68.4399 533.996 66.9039C532.502 65.3679 531.329 63.4692 530.476 61.2079C529.622 58.9466 529.196 56.3652 529.196 53.4639C529.196 49.5812 529.878 46.2959 531.244 43.6079C532.609 40.9199 534.572 38.8932 537.132 37.5279C539.692 36.1199 542.742 35.4159 546.284 35.4159C549.569 35.4159 552.47 36.1199 554.988 37.5279C557.505 38.8932 559.489 40.9199 560.94 43.6079C562.39 46.2959 563.116 49.5812 563.116 53.4639ZM539.052 53.4639C539.052 55.7252 539.286 57.6666 539.756 59.2879C540.268 60.9092 541.036 62.1466 542.06 62.9999C543.126 63.8532 544.513 64.2799 546.22 64.2799C547.884 64.2799 549.228 63.8532 550.252 62.9999C551.318 62.1466 552.086 60.9092 552.556 59.2879C553.025 57.6666 553.26 55.7252 553.26 53.4639C553.26 51.1599 553.004 49.2186 552.492 47.6399C552.022 46.0612 551.276 44.8666 550.252 44.0559C549.228 43.2026 547.862 42.7759 546.156 42.7759C543.681 42.7759 541.868 43.6932 540.716 45.5279C539.606 47.3626 539.052 50.0079 539.052 53.4639Z" fill="url(#paint36_linear_112_3926)"/>
<path d="M521.463 36.0559V70.9999H511.799V36.0559H521.463ZM516.663 22.2959C518.071 22.2959 519.287 22.6372 520.311 23.3199C521.377 23.9599 521.911 25.1972 521.911 27.0319C521.911 28.7812 521.377 29.9972 520.311 30.6799C519.287 31.3626 518.071 31.7039 516.663 31.7039C515.212 31.7039 513.975 31.3626 512.951 30.6799C511.927 29.9972 511.415 28.7812 511.415 27.0319C511.415 25.1972 511.927 23.9599 512.951 23.3199C513.975 22.6372 515.212 22.2959 516.663 22.2959Z" fill="url(#paint37_linear_112_3926)"/>
<path d="M505.068 70.9999H477.42V65.3039L493.548 43.4159H478.316V36.0559H504.492V42.2639L488.812 63.5759H505.068V70.9999Z" fill="url(#paint38_linear_112_3926)"/>
<path d="M470.739 36.0559V70.9999H463.315L462.099 66.5199H461.523C460.798 67.7146 459.859 68.6959 458.707 69.4639C457.598 70.2319 456.36 70.7866 454.995 71.1279C453.672 71.4692 452.264 71.6399 450.771 71.6399C448.296 71.6399 446.12 71.1919 444.243 70.2959C442.408 69.3999 440.958 68.0132 439.891 66.1359C438.867 64.2586 438.355 61.8266 438.355 58.8399V36.0559H448.083V56.4079C448.083 58.8826 448.51 60.7599 449.363 62.0399C450.259 63.2772 451.667 63.8959 453.587 63.8959C455.55 63.8959 457.064 63.4692 458.131 62.6159C459.24 61.7199 460.008 60.4186 460.435 58.7119C460.862 57.0052 461.075 54.9146 461.075 52.4399V36.0559H470.739Z" fill="url(#paint39_linear_112_3926)"/>
<path d="M409.566 71.6399C405.726 71.6399 402.568 70.1252 400.094 67.0959C397.662 64.0239 396.446 59.5226 396.446 53.5919C396.446 47.5759 397.683 43.0532 400.158 40.0239C402.632 36.9519 405.875 35.4159 409.886 35.4159C411.55 35.4159 412.979 35.6506 414.174 36.1199C415.411 36.5466 416.478 37.1439 417.374 37.9119C418.27 38.6799 419.038 39.5546 419.678 40.5359H419.998C419.87 39.7679 419.742 38.7012 419.614 37.3359C419.528 35.9279 419.486 34.6479 419.486 33.4959V22.3599H429.214V70.9999H421.79L419.87 66.4559H419.486C418.888 67.4372 418.142 68.3119 417.246 69.0799C416.35 69.8479 415.262 70.4666 413.982 70.9359C412.744 71.4052 411.272 71.6399 409.566 71.6399ZM412.958 63.8959C415.603 63.8959 417.459 63.1492 418.526 61.6559C419.592 60.1199 420.126 57.7946 420.126 54.6799V53.6559C420.126 50.2852 419.614 47.7039 418.59 45.9119C417.566 44.1199 415.667 43.2239 412.894 43.2239C410.803 43.2239 409.16 44.1199 407.966 45.9119C406.814 47.7039 406.238 50.3066 406.238 53.7199C406.238 57.1332 406.814 59.6932 407.966 61.3999C409.16 63.0639 410.824 63.8959 412.958 63.8959Z" fill="url(#paint40_linear_112_3926)"/>
<path d="M375.413 35.4159C379.808 35.4159 383.157 36.4612 385.461 38.5519C387.765 40.5999 388.917 43.6506 388.917 47.7039V70.9999H382.197L380.341 66.2639H380.085C379.104 67.5012 378.08 68.5252 377.013 69.3359C375.989 70.1466 374.794 70.7226 373.429 71.0639C372.064 71.4479 370.4 71.6399 368.437 71.6399C366.389 71.6399 364.554 71.2559 362.933 70.4879C361.312 69.6772 360.032 68.4612 359.093 66.8399C358.154 65.2186 357.685 63.1706 357.685 60.6959C357.685 57.0266 359.008 54.2746 361.653 52.4399C364.298 50.6052 368.245 49.5812 373.493 49.3679L379.317 49.1759V48.0879C379.317 45.9972 378.848 44.5466 377.909 43.7359C376.97 42.8826 375.648 42.4559 373.941 42.4559C372.362 42.4559 370.741 42.7119 369.077 43.2239C367.413 43.7359 365.77 44.3546 364.149 45.0799L361.333 38.4879C363.168 37.5492 365.258 36.8026 367.605 36.2479C369.994 35.6932 372.597 35.4159 375.413 35.4159ZM375.669 54.9999C372.64 55.0852 370.528 55.5759 369.333 56.4719C368.138 57.3679 367.541 58.6266 367.541 60.2479C367.541 61.7412 367.946 62.8506 368.757 63.5759C369.61 64.2586 370.741 64.5999 372.149 64.5999C374.154 64.5999 375.84 64.0026 377.205 62.8079C378.613 61.6132 379.317 59.9066 379.317 57.6879V54.8079L375.669 54.9999Z" fill="url(#paint41_linear_112_3926)"/>
<path d="M351.75 35.4159C352.39 35.4159 353.073 35.4586 353.798 35.5439C354.566 35.5866 355.163 35.6719 355.59 35.7999L354.63 44.8239C354.161 44.7386 353.606 44.6532 352.966 44.5679C352.326 44.4826 351.558 44.4399 350.662 44.4399C349.681 44.4399 348.678 44.5892 347.654 44.8879C346.673 45.1866 345.755 45.6772 344.902 46.3599C344.049 47.0426 343.366 47.9386 342.854 49.0479C342.342 50.1572 342.086 51.5652 342.086 53.2719V70.9999H332.422V36.0559H339.782L341.19 41.9439H341.638C342.321 40.7066 343.174 39.5972 344.198 38.6159C345.222 37.6346 346.374 36.8666 347.654 36.3119C348.934 35.7146 350.299 35.4159 351.75 35.4159Z" fill="url(#paint42_linear_112_3926)"/>
<path d="M317.36 70.9999H307.568V33.4319H295.216V25.3039H329.712V33.4319H317.36V70.9999Z" fill="url(#paint43_linear_112_3926)"/>
<defs>
<filter id="filter0_f_112_3926" x="275.216" y="14.2959" width="848.722" height="104.064" filterUnits="userSpaceOnUse" color-interpolation-filters="sRGB">
<feFlood flood-opacity="0" result="BackgroundImageFix"/>
<feBlend mode="normal" in="SourceGraphic" in2="BackgroundImageFix" result="shape"/>
<feGaussianBlur stdDeviation="10" result="effect1_foregroundBlur_112_3926"/>
</filter>
<linearGradient id="paint0_linear_112_3926" x1="194" y1="64.0036" x2="1207" y2="64.0024" gradientUnits="userSpaceOnUse">
<stop stop-color="white" stop-opacity="0.3"/>
<stop offset="0.359008" stop-color="#CBB0F8"/>
<stop offset="0.788712" stop-color="#FCD9ED"/>
<stop offset="1" stop-color="white" stop-opacity="0.3"/>
</linearGradient>
<linearGradient id="paint1_linear_112_3926" x1="1179.65" y1="65.6779" x2="-18924.7" y2="65.7371" gradientUnits="userSpaceOnUse">
<stop stop-color="#F4439F"/>
<stop offset="1" stop-color="#7C3AED"/>
</linearGradient>
<linearGradient id="paint2_linear_112_3926" x1="2191.09" y1="53.8985" x2="-18192.5" y2="53.9432" gradientUnits="userSpaceOnUse">
<stop stop-color="#F4439F"/>
<stop offset="1" stop-color="#7C3AED"/>
</linearGradient>
<linearGradient id="paint3_linear_112_3926" x1="2302.48" y1="53.4432" x2="-9986.17" y2="53.4589" gradientUnits="userSpaceOnUse">
<stop stop-color="#F4439F"/>
<stop offset="1" stop-color="#7C3AED"/>
</linearGradient>
<linearGradient id="paint4_linear_112_3926" x1="4939.61" y1="53.8985" x2="-15443.9" y2="53.9432" gradientUnits="userSpaceOnUse">
<stop stop-color="#F4439F"/>
<stop offset="1" stop-color="#7C3AED"/>
</linearGradient>
<linearGradient id="paint5_linear_112_3926" x1="5919.18" y1="54.2511" x2="-14383.8" y2="54.2946" gradientUnits="userSpaceOnUse">
<stop stop-color="#F4439F"/>
<stop offset="1" stop-color="#7C3AED"/>
</linearGradient>
<linearGradient id="paint6_linear_112_3926" x1="19145.4" y1="66.1333" x2="-43496.5" y2="66.701" gradientUnits="userSpaceOnUse">
<stop stop-color="#F4439F"/>
<stop offset="1" stop-color="#7C3AED"/>
</linearGradient>
<linearGradient id="paint7_linear_112_3926" x1="7364.37" y1="48.2344" x2="-12700.7" y2="48.2954" gradientUnits="userSpaceOnUse">
<stop stop-color="#F4439F"/>
<stop offset="1" stop-color="#7C3AED"/>
</linearGradient>
<linearGradient id="paint8_linear_112_3926" x1="8715.7" y1="53.8985" x2="-12336.2" y2="53.9462" gradientUnits="userSpaceOnUse">
<stop stop-color="#F4439F"/>
<stop offset="1" stop-color="#7C3AED"/>
</linearGradient>
<linearGradient id="paint9_linear_112_3926" x1="9284.42" y1="48.2344" x2="-10819.9" y2="48.2956" gradientUnits="userSpaceOnUse">
<stop stop-color="#F4439F"/>
<stop offset="1" stop-color="#7C3AED"/>
</linearGradient>
<linearGradient id="paint10_linear_112_3926" x1="31083.5" y1="66.1333" x2="-31558.6" y2="66.701" gradientUnits="userSpaceOnUse">
<stop stop-color="#F4439F"/>
<stop offset="1" stop-color="#7C3AED"/>
</linearGradient>
<linearGradient id="paint11_linear_112_3926" x1="11188.3" y1="65.6779" x2="-8876.78" y2="65.7368" gradientUnits="userSpaceOnUse">
<stop stop-color="#F4439F"/>
<stop offset="1" stop-color="#7C3AED"/>
</linearGradient>
<linearGradient id="paint12_linear_112_3926" x1="12735.4" y1="53.8986" x2="-7648.1" y2="53.9433" gradientUnits="userSpaceOnUse">
<stop stop-color="#F4439F"/>
<stop offset="1" stop-color="#7C3AED"/>
</linearGradient>
<linearGradient id="paint13_linear_112_3926" x1="13684.2" y1="54.2511" x2="-6618.77" y2="54.2947" gradientUnits="userSpaceOnUse">
<stop stop-color="#F4439F"/>
<stop offset="1" stop-color="#7C3AED"/>
</linearGradient>
<linearGradient id="paint14_linear_112_3926" x1="14071.3" y1="53.8986" x2="-5312.33" y2="53.939" gradientUnits="userSpaceOnUse">
<stop stop-color="#F4439F"/>
<stop offset="1" stop-color="#7C3AED"/>
</linearGradient>
<linearGradient id="paint15_linear_112_3926" x1="46185.4" y1="66.1333" x2="-16456.7" y2="66.701" gradientUnits="userSpaceOnUse">
<stop stop-color="#F4439F"/>
<stop offset="1" stop-color="#7C3AED"/>
</linearGradient>
<linearGradient id="paint16_linear_112_3926" x1="18710.9" y1="53.4432" x2="-5069.94" y2="53.5019" gradientUnits="userSpaceOnUse">
<stop stop-color="#F4439F"/>
<stop offset="1" stop-color="#7C3AED"/>
</linearGradient>
<linearGradient id="paint17_linear_112_3926" x1="16993.2" y1="53.0988" x2="-3309.75" y2="53.1424" gradientUnits="userSpaceOnUse">
<stop stop-color="#F4439F"/>
<stop offset="1" stop-color="#7C3AED"/>
</linearGradient>
<linearGradient id="paint18_linear_112_3926" x1="17831.9" y1="65.6779" x2="-2233.16" y2="65.7368" gradientUnits="userSpaceOnUse">
<stop stop-color="#F4439F"/>
<stop offset="1" stop-color="#7C3AED"/>
</linearGradient>
<linearGradient id="paint19_linear_112_3926" x1="19698" y1="53.8986" x2="-1353.85" y2="53.9463" gradientUnits="userSpaceOnUse">
<stop stop-color="#F4439F"/>
<stop offset="1" stop-color="#7C3AED"/>
</linearGradient>
<linearGradient id="paint20_linear_112_3926" x1="27333.3" y1="54.2511" x2="-1045.97" y2="54.3363" gradientUnits="userSpaceOnUse">
<stop stop-color="#F4439F"/>
<stop offset="1" stop-color="#7C3AED"/>
</linearGradient>
<linearGradient id="paint21_linear_112_3926" x1="1107" y1="58.4997" x2="294" y2="58.4999" gradientUnits="userSpaceOnUse">
<stop stop-color="#F4439F"/>
<stop offset="1" stop-color="#7C3AED"/>
</linearGradient>
<linearGradient id="paint22_linear_112_3926" x1="700.5" y1="72" x2="700.5" y2="117" gradientUnits="userSpaceOnUse">
<stop offset="0.0001" stop-color="white" stop-opacity="0.1"/>
<stop offset="1" stop-color="white" stop-opacity="0"/>
</linearGradient>
<linearGradient id="paint23_linear_112_3926" x1="1179.65" y1="-2.87209" x2="1048.84" y2="1657.61" gradientUnits="userSpaceOnUse">
<stop stop-color="#F4439F"/>
<stop offset="1" stop-color="#7C3AED"/>
</linearGradient>
<linearGradient id="paint24_linear_112_3926" x1="2191.09" y1="-35.0335" x2="1953.48" y2="2212.83" gradientUnits="userSpaceOnUse">
<stop stop-color="#F4439F"/>
<stop offset="1" stop-color="#7C3AED"/>
</linearGradient>
<linearGradient id="paint25_linear_112_3926" x1="2302.47" y1="-38.3068" x2="1887.91" y2="2242.58" gradientUnits="userSpaceOnUse">
<stop stop-color="#F4439F"/>
<stop offset="1" stop-color="#7C3AED"/>
</linearGradient>
<linearGradient id="paint26_linear_112_3926" x1="4939.61" y1="-35.0335" x2="4702" y2="2212.83" gradientUnits="userSpaceOnUse">
<stop stop-color="#F4439F"/>
<stop offset="1" stop-color="#7C3AED"/>
</linearGradient>
<linearGradient id="paint27_linear_112_3926" x1="5919.18" y1="-36.0646" x2="5672.1" y2="2251.1" gradientUnits="userSpaceOnUse">
<stop stop-color="#F4439F"/>
<stop offset="1" stop-color="#7C3AED"/>
</linearGradient>
<linearGradient id="paint28_linear_112_3926" x1="19145.4" y1="-3.08557" x2="19102.2" y2="1686.36" gradientUnits="userSpaceOnUse">
<stop stop-color="#F4439F"/>
<stop offset="1" stop-color="#7C3AED"/>
</linearGradient>
<linearGradient id="paint29_linear_112_3926" x1="7364.37" y1="-18.4684" x2="7241.68" y2="1588.38" gradientUnits="userSpaceOnUse">
<stop stop-color="#F4439F"/>
<stop offset="1" stop-color="#7C3AED"/>
</linearGradient>
<linearGradient id="paint30_linear_112_3926" x1="8715.7" y1="-35.0335" x2="8485.48" y2="2214.38" gradientUnits="userSpaceOnUse">
<stop stop-color="#F4439F"/>
<stop offset="1" stop-color="#7C3AED"/>
</linearGradient>
<linearGradient id="paint31_linear_112_3926" x1="9284.42" y1="-18.4684" x2="9161.97" y2="1588.41" gradientUnits="userSpaceOnUse">
<stop stop-color="#F4439F"/>
<stop offset="1" stop-color="#7C3AED"/>
</linearGradient>
<linearGradient id="paint32_linear_112_3926" x1="31083.5" y1="-3.08558" x2="31040.3" y2="1686.36" gradientUnits="userSpaceOnUse">
<stop stop-color="#F4439F"/>
<stop offset="1" stop-color="#7C3AED"/>
</linearGradient>
<linearGradient id="paint33_linear_112_3926" x1="11188.3" y1="-2.87211" x2="11057.2" y2="1657.57" gradientUnits="userSpaceOnUse">
<stop stop-color="#F4439F"/>
<stop offset="1" stop-color="#7C3AED"/>
</linearGradient>
<linearGradient id="paint34_linear_112_3926" x1="12735.4" y1="-35.0335" x2="12497.8" y2="2212.83" gradientUnits="userSpaceOnUse">
<stop stop-color="#F4439F"/>
<stop offset="1" stop-color="#7C3AED"/>
</linearGradient>
<linearGradient id="paint35_linear_112_3926" x1="13684.2" y1="-36.0646" x2="13437.1" y2="2251.1" gradientUnits="userSpaceOnUse">
<stop stop-color="#F4439F"/>
<stop offset="1" stop-color="#7C3AED"/>
</linearGradient>
<linearGradient id="paint36_linear_112_3926" x1="14071.3" y1="-35.0334" x2="13821.7" y2="2210.2" gradientUnits="userSpaceOnUse">
<stop stop-color="#F4439F"/>
<stop offset="1" stop-color="#7C3AED"/>
</linearGradient>
<linearGradient id="paint37_linear_112_3926" x1="46185.4" y1="-3.08558" x2="46142.2" y2="1686.36" gradientUnits="userSpaceOnUse">
<stop stop-color="#F4439F"/>
<stop offset="1" stop-color="#7C3AED"/>
</linearGradient>
<linearGradient id="paint38_linear_112_3926" x1="18710.9" y1="-38.3068" x2="18491.5" y2="2297.33" gradientUnits="userSpaceOnUse">
<stop stop-color="#F4439F"/>
<stop offset="1" stop-color="#7C3AED"/>
</linearGradient>
<linearGradient id="paint39_linear_112_3926" x1="16993.2" y1="-37.2168" x2="16746.1" y2="2249.95" gradientUnits="userSpaceOnUse">
<stop stop-color="#F4439F"/>
<stop offset="1" stop-color="#7C3AED"/>
</linearGradient>
<linearGradient id="paint40_linear_112_3926" x1="17831.9" y1="-2.87209" x2="17700.8" y2="1657.57" gradientUnits="userSpaceOnUse">
<stop stop-color="#F4439F"/>
<stop offset="1" stop-color="#7C3AED"/>
</linearGradient>
<linearGradient id="paint41_linear_112_3926" x1="19698" y1="-35.0334" x2="19467.8" y2="2214.38" gradientUnits="userSpaceOnUse">
<stop stop-color="#F4439F"/>
<stop offset="1" stop-color="#7C3AED"/>
</linearGradient>
<linearGradient id="paint42_linear_112_3926" x1="27333.3" y1="-36.0646" x2="27155.5" y2="2264.06" gradientUnits="userSpaceOnUse">
<stop stop-color="#F4439F"/>
<stop offset="1" stop-color="#7C3AED"/>
</linearGradient>
<linearGradient id="paint43_linear_112_3926" x1="1107" y1="2.99971" x2="513.596" y2="398.993" gradientUnits="userSpaceOnUse">
<stop stop-color="#F4439F"/>
<stop offset="1" stop-color="#7C3AED"/>
</linearGradient>
</defs>
</svg>
