<svg width="1400" height="120" viewBox="0 0 1400 120" fill="none" xmlns="http://www.w3.org/2000/svg">
<path d="M312 65H1088V81H312V65Z" fill="url(#paint0_linear_112_3910)"/>
<mask id="mask0_112_3910" style="mask-type:alpha" maskUnits="userSpaceOnUse" x="312" y="81" width="776" height="38">
<path d="M312 81H1088V119H312V81Z" fill="#C4C4C4"/>
</mask>
<g mask="url(#mask0_112_3910)">
<g filter="url(#filter0_f_112_3910)">
<path d="M956.192 85.592C956.32 84.952 956.427 84.2267 956.512 83.416C956.64 82.5627 956.704 81.7093 956.704 80.856C956.704 80.3867 956.704 79.448 956.704 78.04C956.704 76.632 956.704 74.9253 956.704 72.92C956.704 70.9147 956.704 68.76 956.704 66.456C956.704 64.1093 956.704 61.7413 956.704 59.352C956.704 56.9627 956.704 54.7227 956.704 52.632C956.704 50.4987 956.704 48.6427 956.704 47.064C956.704 45.4427 956.704 44.2693 956.704 43.544C956.704 42.0933 956.618 40.8347 956.448 39.768C956.32 38.7013 956.234 38.1253 956.192 38.04H965.728C965.685 38.1253 965.6 38.7227 965.472 39.832C965.344 40.8987 965.28 42.1573 965.28 43.608C965.28 44.3333 965.28 45.4213 965.28 46.872C965.28 48.28 965.28 49.9227 965.28 51.8C965.28 53.6347 965.28 55.5973 965.28 57.688C965.28 59.7787 965.28 61.848 965.28 63.896C965.28 65.9013 965.28 67.8213 965.28 69.656C965.28 71.448 965.28 72.984 965.28 74.264C965.28 75.544 965.28 76.4827 965.28 77.08C967.029 76.312 968.842 75.2667 970.72 73.944C972.597 72.6213 974.432 71.0853 976.224 69.336C978.058 67.544 979.68 65.624 981.088 63.576L986.016 70.616C984.266 72.92 982.133 75.1813 979.616 77.4C977.141 79.6187 974.581 81.6453 971.936 83.48C969.29 85.3147 966.752 86.8507 964.32 88.088C963.637 88.472 963.082 88.8133 962.656 89.112C962.229 89.4533 961.866 89.752 961.568 90.008L956.192 85.592ZM926.56 84.632C929.376 82.6693 931.68 80.3013 933.472 77.528C935.264 74.7547 936.586 72.024 937.44 69.336C937.909 67.928 938.25 66.2 938.464 64.152C938.72 62.0613 938.912 59.8427 939.04 57.496C939.168 55.1067 939.232 52.76 939.232 50.456C939.274 48.1093 939.296 45.9547 939.296 43.992C939.296 42.712 939.232 41.624 939.104 40.728C939.018 39.7893 938.89 38.9147 938.72 38.104H948.128C948.085 38.1893 948.021 38.552 947.936 39.192C947.893 39.7893 947.829 40.5147 947.744 41.368C947.701 42.1787 947.68 43.032 947.68 43.928C947.68 45.8053 947.659 48.0027 947.616 50.52C947.573 52.9947 947.488 55.5333 947.36 58.136C947.232 60.7387 947.04 63.2133 946.784 65.56C946.528 67.864 946.186 69.8267 945.76 71.448C944.778 75.0747 943.306 78.4453 941.344 81.56C939.424 84.632 937.098 87.384 934.368 89.816L926.56 84.632Z" fill="url(#paint1_linear_112_3910)" fill-opacity="0.7"/>
<path d="M865.888 57.368C866.656 57.4107 867.637 57.4747 868.832 57.56C870.026 57.6027 871.264 57.6453 872.544 57.688C873.866 57.7307 875.082 57.752 876.192 57.752C877.259 57.752 878.581 57.752 880.16 57.752C881.738 57.752 883.445 57.752 885.28 57.752C887.157 57.752 889.077 57.752 891.04 57.752C893.045 57.752 895.029 57.752 896.992 57.752C898.954 57.752 900.81 57.752 902.56 57.752C904.309 57.752 905.866 57.752 907.232 57.752C908.64 57.752 909.749 57.752 910.56 57.752C912.053 57.752 913.461 57.7093 914.784 57.624C916.106 57.496 917.194 57.4107 918.048 57.368V67.416C917.322 67.3733 916.234 67.3093 914.784 67.224C913.333 67.1387 911.925 67.096 910.56 67.096C909.749 67.096 908.64 67.096 907.232 67.096C905.824 67.096 904.245 67.096 902.496 67.096C900.746 67.096 898.89 67.096 896.928 67.096C895.008 67.096 893.045 67.096 891.04 67.096C889.034 67.096 887.093 67.096 885.216 67.096C883.381 67.096 881.674 67.096 880.096 67.096C878.56 67.096 877.259 67.096 876.192 67.096C874.357 67.096 872.48 67.1387 870.56 67.224C868.64 67.2667 867.082 67.3307 865.888 67.416V57.368Z" fill="url(#paint2_linear_112_3910)" fill-opacity="0.7"/>
<path d="M826.272 37.144C826.698 37.912 827.21 39.0427 827.808 40.536C828.448 41.9867 829.088 43.5867 829.728 45.336C830.41 47.0427 831.05 48.7067 831.648 50.328C832.245 51.9067 832.693 53.2293 832.992 54.296L824.928 57.112C824.672 56.088 824.245 54.808 823.648 53.272C823.093 51.6933 822.496 50.072 821.856 48.408C821.216 46.7013 820.576 45.08 819.936 43.544C819.296 42.008 818.741 40.7493 818.272 39.768L826.272 37.144ZM855.52 42.264C855.136 43.032 854.794 43.864 854.496 44.76C854.24 45.656 854.026 46.488 853.856 47.256C853.258 49.56 852.448 52.1413 851.424 55C850.442 57.8587 849.248 60.7173 847.84 63.576C846.474 66.392 844.896 68.9733 843.104 71.32C840.885 74.264 838.389 76.952 835.616 79.384C832.885 81.7733 830.026 83.864 827.04 85.656C824.053 87.448 821.024 88.92 817.952 90.072L810.784 82.904C813.728 82.0507 816.714 80.856 819.744 79.32C822.816 77.784 825.76 75.928 828.576 73.752C831.434 71.576 833.93 69.1227 836.064 66.392C837.685 64.344 839.157 61.848 840.48 58.904C841.845 55.96 842.997 52.824 843.936 49.496C844.917 46.1253 845.578 42.7973 845.92 39.512L855.52 42.264ZM808.48 41.112C808.949 42.0933 809.525 43.3733 810.208 44.952C810.933 46.5307 811.658 48.1947 812.384 49.944C813.109 51.6933 813.77 53.3787 814.368 55C815.008 56.5787 815.52 57.9227 815.904 59.032L807.648 62.04C807.392 61.1867 807.029 60.1413 806.56 58.904C806.133 57.6667 805.621 56.3227 805.024 54.872C804.469 53.4213 803.893 51.992 803.296 50.584C802.698 49.176 802.144 47.896 801.632 46.744C801.12 45.592 800.672 44.6533 800.288 43.928L808.48 41.112Z" fill="url(#paint3_linear_112_3910)" fill-opacity="0.7"/>
<path d="M766.304 35.288H791.712V63H766.304V55.768H784.032V42.584H766.304V35.288ZM762.016 35.288H769.568V58.904C769.568 61.5067 769.44 64.3227 769.184 67.352C768.97 70.3813 768.544 73.432 767.904 76.504C767.264 79.576 766.325 82.52 765.088 85.336C763.893 88.152 762.293 90.648 760.288 92.824C759.904 92.3547 759.349 91.7787 758.624 91.096C757.898 90.4133 757.152 89.752 756.384 89.112C755.658 88.472 755.018 88.0027 754.464 87.704C756.213 85.7413 757.6 83.5867 758.624 81.24C759.648 78.8507 760.394 76.376 760.864 73.816C761.333 71.2133 761.632 68.6533 761.76 66.136C761.93 63.6187 762.016 61.208 762.016 58.904V35.288ZM782.176 59.736C782.688 63.832 783.392 67.4587 784.288 70.616C785.184 73.7733 786.464 76.6107 788.128 79.128C789.834 81.6027 792.096 83.9493 794.912 86.168C793.888 86.9787 792.885 87.9813 791.904 89.176C790.922 90.4133 790.176 91.6293 789.664 92.824C786.336 90.008 783.69 87.0213 781.728 83.864C779.765 80.7067 778.272 77.2293 777.248 73.432C776.224 69.6347 775.413 65.3893 774.816 60.696L782.176 59.736ZM736.928 52.248H756.256V58.072H736.928V52.248ZM737.184 34.648H756.128V40.408H737.184V34.648ZM736.928 61.016H756.256V66.776H736.928V61.016ZM733.92 43.224H758.368V49.304H733.92V43.224ZM740.256 69.848H756.384V89.368H740.256V83.288H749.792V75.928H740.256V69.848ZM736.8 69.848H743.264V91.864H736.8V69.848Z" fill="url(#paint4_linear_112_3910)" fill-opacity="0.7"/>
<path d="M670.624 47.768H698.72V53.336H670.624V47.768ZM675.744 75.608H694.368V80.536H675.744V75.608ZM675.936 83.928H693.92V89.624H675.936V83.928ZM682.272 38.68H688.672V65.88H682.272V38.68ZM682.784 70.296H687.968V86.872H682.784V70.296ZM695.136 32.792L698.912 37.848C696.48 38.4027 693.749 38.872 690.72 39.256C687.69 39.64 684.597 39.9387 681.44 40.152C678.325 40.3653 675.317 40.5147 672.416 40.6C672.33 39.8747 672.117 39.0427 671.776 38.104C671.477 37.1227 671.157 36.312 670.816 35.672C673.632 35.4587 676.533 35.224 679.52 34.968C682.506 34.712 685.344 34.4133 688.032 34.072C690.762 33.688 693.13 33.2613 695.136 32.792ZM687.84 51.736C688.437 52.0347 689.269 52.5467 690.336 53.272C691.445 53.9547 692.597 54.7013 693.792 55.512C695.029 56.3227 696.16 57.0907 697.184 57.816C698.208 58.4987 698.933 58.9893 699.36 59.288L695.52 65.24C694.965 64.5573 694.218 63.768 693.28 62.872C692.384 61.9333 691.381 60.9733 690.272 59.992C689.205 58.968 688.181 58.008 687.2 57.112C686.218 56.216 685.386 55.4907 684.704 54.936L687.84 51.736ZM672.928 41.816L677.856 40.536C678.282 41.56 678.709 42.6693 679.136 43.864C679.605 45.0587 679.946 46.0613 680.16 46.872L674.976 48.408C674.762 47.5547 674.464 46.5093 674.08 45.272C673.696 43.992 673.312 42.84 672.928 41.816ZM692.576 39.768L698.144 41.432C697.461 42.968 696.778 44.4827 696.096 45.976C695.456 47.4693 694.859 48.7493 694.304 49.816L689.632 48.408C689.973 47.5973 690.336 46.7013 690.72 45.72C691.104 44.696 691.445 43.672 691.744 42.648C692.085 41.5813 692.362 40.6213 692.576 39.768ZM681.184 50.52L685.536 53.016C684.512 54.808 683.296 56.7067 681.888 58.712C680.48 60.6747 678.965 62.5307 677.344 64.28C675.722 66.0293 674.101 67.48 672.48 68.632C672.224 67.608 671.797 66.456 671.2 65.176C670.645 63.8533 670.112 62.7227 669.6 61.784C671.05 60.9733 672.501 59.9493 673.952 58.712C675.445 57.432 676.832 56.088 678.112 54.68C679.392 53.2293 680.416 51.8427 681.184 50.52ZM672.416 66.84H698.336V91.928H692.384V72.536H678.048V92.696H672.416V66.84ZM700.448 35.288H711.264V41.688H700.448V35.288ZM707.872 35.288H714.016V85.208C714.016 86.7013 713.845 87.9387 713.504 88.92C713.205 89.9013 712.608 90.648 711.712 91.16C710.773 91.7147 709.642 92.056 708.32 92.184C706.997 92.3547 705.418 92.44 703.584 92.44C703.498 91.5867 703.264 90.52 702.88 89.24C702.496 88.0027 702.09 86.9573 701.664 86.104C702.773 86.1467 703.818 86.1893 704.8 86.232C705.824 86.232 706.528 86.2107 706.912 86.168C707.253 86.168 707.488 86.104 707.616 85.976C707.786 85.8053 707.872 85.5067 707.872 85.08V35.288ZM715.36 35.416H725.088V41.816H715.36V35.416ZM722.528 35.416H728.8V85.016C728.8 86.6373 728.629 87.9387 728.288 88.92C727.946 89.944 727.285 90.7333 726.304 91.288C725.322 91.8427 724.106 92.184 722.656 92.312C721.248 92.4827 719.541 92.568 717.536 92.568C717.45 91.672 717.194 90.5627 716.768 89.24C716.341 87.96 715.893 86.8933 715.424 86.04C716.661 86.0827 717.856 86.104 719.008 86.104C720.202 86.104 720.992 86.104 721.376 86.104C721.802 86.104 722.101 86.0187 722.272 85.848C722.442 85.6773 722.528 85.3787 722.528 84.952V35.416ZM699.424 48.024L704.224 46.808C704.778 48.088 705.312 49.496 705.824 51.032C706.378 52.5253 706.869 53.9973 707.296 55.448C707.722 56.856 708.042 58.0933 708.256 59.16L703.136 60.76C702.965 59.6507 702.666 58.3707 702.24 56.92C701.856 55.4693 701.408 53.9547 700.896 52.376C700.426 50.7973 699.936 49.3467 699.424 48.024ZM714.528 47.576L719.392 46.616C719.861 47.9387 720.309 49.3893 720.736 50.968C721.162 52.504 721.546 53.976 721.888 55.384C722.229 56.792 722.485 58.0293 722.656 59.096L717.472 60.376C717.344 59.2667 717.109 57.9867 716.768 56.536C716.469 55.0427 716.128 53.528 715.744 51.992C715.36 50.4133 714.954 48.9413 714.528 47.576ZM713.824 71.32C715.061 70.1253 716.597 68.632 718.432 66.84C720.266 65.0053 722.144 63.1067 724.064 61.144L726.944 66.008C725.365 67.7573 723.701 69.5493 721.952 71.384C720.202 73.2187 718.517 74.968 716.896 76.632L713.824 71.32ZM698.912 72.536C700.234 71.256 701.856 69.592 703.776 67.544C705.738 65.496 707.722 63.3627 709.728 61.144L712.8 65.944C711.05 67.9493 709.237 69.9973 707.36 72.088C705.482 74.136 703.669 76.0347 701.92 77.784L698.912 72.536Z" fill="url(#paint5_linear_112_3910)" fill-opacity="0.7"/>
<path d="M641.824 43.16C641.397 46.4027 640.842 49.8587 640.16 53.528C639.477 57.1973 638.56 60.9093 637.408 64.664C636.17 68.9733 634.72 72.6853 633.056 75.8C631.392 78.9147 629.557 81.3253 627.552 83.032C625.589 84.696 623.434 85.528 621.088 85.528C618.741 85.528 616.565 84.7387 614.56 83.16C612.597 81.5387 611.018 79.32 609.824 76.504C608.672 73.688 608.096 70.488 608.096 66.904C608.096 63.192 608.842 59.6933 610.336 56.408C611.829 53.1227 613.898 50.2213 616.544 47.704C619.232 45.144 622.346 43.1387 625.888 41.688C629.472 40.2373 633.333 39.512 637.472 39.512C641.44 39.512 645.002 40.152 648.16 41.432C651.36 42.712 654.09 44.4827 656.352 46.744C658.613 49.0053 660.341 51.6507 661.536 54.68C662.73 57.7093 663.328 60.9733 663.328 64.472C663.328 68.952 662.41 72.9627 660.576 76.504C658.741 80.0453 656.01 82.968 652.384 85.272C648.8 87.576 644.32 89.1547 638.944 90.008L634.144 82.392C635.381 82.264 636.469 82.1147 637.408 81.944C638.346 81.7733 639.242 81.5813 640.096 81.368C642.144 80.856 644.042 80.1307 645.792 79.192C647.584 78.2107 649.141 77.016 650.464 75.608C651.786 74.1573 652.81 72.472 653.536 70.552C654.304 68.632 654.688 66.52 654.688 64.216C654.688 61.6987 654.304 59.3947 653.536 57.304C652.768 55.2133 651.637 53.4 650.144 51.864C648.65 50.2853 646.837 49.0907 644.704 48.28C642.57 47.4267 640.117 47 637.344 47C633.93 47 630.922 47.6187 628.32 48.856C625.717 50.0507 623.52 51.608 621.728 53.528C619.936 55.448 618.57 57.5173 617.632 59.736C616.736 61.9547 616.288 64.0667 616.288 66.072C616.288 68.2053 616.544 69.9973 617.056 71.448C617.568 72.856 618.186 73.9227 618.912 74.648C619.68 75.3307 620.49 75.672 621.344 75.672C622.24 75.672 623.114 75.224 623.968 74.328C624.864 73.3893 625.738 71.9813 626.592 70.104C627.445 68.2267 628.298 65.8587 629.152 63C630.133 59.928 630.965 56.6427 631.648 53.144C632.33 49.6453 632.821 46.232 633.12 42.904L641.824 43.16Z" fill="url(#paint6_linear_112_3910)" fill-opacity="0.7"/>
<path d="M578.848 32.92H586.08V77.528H578.848V32.92ZM557.216 58.008L595.232 43.16L598.176 49.816L560.224 64.792L557.216 58.008ZM565.088 39.768H572.64V80.408C572.64 81.688 572.746 82.648 572.96 83.288C573.216 83.928 573.685 84.3547 574.368 84.568C575.093 84.7813 576.138 84.888 577.504 84.888C577.888 84.888 578.506 84.888 579.36 84.888C580.213 84.888 581.173 84.888 582.24 84.888C583.349 84.888 584.437 84.888 585.504 84.888C586.613 84.888 587.594 84.888 588.448 84.888C589.344 84.888 590.005 84.888 590.432 84.888C591.712 84.888 592.672 84.6533 593.312 84.184C593.952 83.7147 594.421 82.8613 594.72 81.624C595.018 80.344 595.274 78.488 595.488 76.056C596.341 76.6533 597.429 77.2293 598.752 77.784C600.117 78.3387 601.333 78.744 602.4 79C602.058 82.2 601.504 84.7387 600.736 86.616C600.01 88.4507 598.88 89.7733 597.344 90.584C595.85 91.3947 593.76 91.8 591.072 91.8C590.645 91.8 589.941 91.8 588.96 91.8C587.978 91.8 586.89 91.8 585.696 91.8C584.501 91.8 583.306 91.8 582.112 91.8C580.917 91.8 579.85 91.8 578.912 91.8C577.973 91.8 577.29 91.8 576.864 91.8C573.792 91.8 571.402 91.4587 569.696 90.776C567.989 90.136 566.794 88.984 566.112 87.32C565.429 85.656 565.088 83.352 565.088 80.408V39.768ZM592.672 44.44H592.16L594.848 42.52L600.096 44.504L599.84 45.72C599.84 49.432 599.818 52.76 599.776 55.704C599.733 58.6053 599.669 61.0587 599.584 63.064C599.498 65.0267 599.392 66.4773 599.264 67.416C599.136 69.0373 598.752 70.296 598.112 71.192C597.514 72.088 596.704 72.7707 595.68 73.24C594.698 73.6667 593.525 73.944 592.16 74.072C590.794 74.1573 589.536 74.1787 588.384 74.136C588.341 73.0693 588.17 71.832 587.872 70.424C587.573 69.016 587.189 67.9067 586.72 67.096C587.445 67.1387 588.192 67.1813 588.96 67.224C589.728 67.224 590.304 67.224 590.688 67.224C591.114 67.224 591.456 67.1387 591.712 66.968C591.968 66.7547 592.16 66.3493 592.288 65.752C592.373 65.24 592.437 64.1733 592.48 62.552C592.522 60.9307 592.565 58.6267 592.608 55.64C592.65 52.6533 592.672 48.92 592.672 44.44ZM555.488 32.856L562.592 35.16C561.226 38.744 559.605 42.3493 557.728 45.976C555.85 49.6027 553.824 53.0373 551.648 56.28C549.472 59.48 547.232 62.296 544.928 64.728C544.714 64.1307 544.352 63.3413 543.84 62.36C543.37 61.3787 542.858 60.3973 542.304 59.416C541.792 58.392 541.322 57.56 540.896 56.92C542.816 54.9573 544.672 52.696 546.464 50.136C548.298 47.576 549.984 44.824 551.52 41.88C553.098 38.936 554.421 35.928 555.488 32.856ZM549.024 50.584L556.512 43.032L556.576 43.096V92.632H549.024V50.584Z" fill="url(#paint7_linear_112_3910)" fill-opacity="0.7"/>
<path d="M513.824 43.16C513.397 46.4027 512.842 49.8587 512.16 53.528C511.477 57.1973 510.56 60.9093 509.408 64.664C508.17 68.9733 506.72 72.6853 505.056 75.8C503.392 78.9147 501.557 81.3253 499.552 83.032C497.589 84.696 495.434 85.528 493.088 85.528C490.741 85.528 488.565 84.7387 486.56 83.16C484.597 81.5387 483.018 79.32 481.824 76.504C480.672 73.688 480.096 70.488 480.096 66.904C480.096 63.192 480.842 59.6933 482.336 56.408C483.829 53.1227 485.898 50.2213 488.544 47.704C491.232 45.144 494.346 43.1387 497.888 41.688C501.472 40.2373 505.333 39.512 509.472 39.512C513.44 39.512 517.002 40.152 520.16 41.432C523.36 42.712 526.09 44.4827 528.352 46.744C530.613 49.0053 532.341 51.6507 533.536 54.68C534.73 57.7093 535.328 60.9733 535.328 64.472C535.328 68.952 534.41 72.9627 532.576 76.504C530.741 80.0453 528.01 82.968 524.384 85.272C520.8 87.576 516.32 89.1547 510.944 90.008L506.144 82.392C507.381 82.264 508.469 82.1147 509.408 81.944C510.346 81.7733 511.242 81.5813 512.096 81.368C514.144 80.856 516.042 80.1307 517.792 79.192C519.584 78.2107 521.141 77.016 522.464 75.608C523.786 74.1573 524.81 72.472 525.536 70.552C526.304 68.632 526.688 66.52 526.688 64.216C526.688 61.6987 526.304 59.3947 525.536 57.304C524.768 55.2133 523.637 53.4 522.144 51.864C520.65 50.2853 518.837 49.0907 516.704 48.28C514.57 47.4267 512.117 47 509.344 47C505.93 47 502.922 47.6187 500.32 48.856C497.717 50.0507 495.52 51.608 493.728 53.528C491.936 55.448 490.57 57.5173 489.632 59.736C488.736 61.9547 488.288 64.0667 488.288 66.072C488.288 68.2053 488.544 69.9973 489.056 71.448C489.568 72.856 490.186 73.9227 490.912 74.648C491.68 75.3307 492.49 75.672 493.344 75.672C494.24 75.672 495.114 75.224 495.968 74.328C496.864 73.3893 497.738 71.9813 498.592 70.104C499.445 68.2267 500.298 65.8587 501.152 63C502.133 59.928 502.965 56.6427 503.648 53.144C504.33 49.6453 504.821 46.232 505.12 42.904L513.824 43.16Z" fill="url(#paint8_linear_112_3910)" fill-opacity="0.7"/>
<path d="M427.68 38.04C428.704 38.0827 429.706 38.1253 430.688 38.168C431.669 38.2107 432.693 38.232 433.76 38.232C434.357 38.232 435.232 38.2107 436.384 38.168C437.536 38.1253 438.858 38.0827 440.352 38.04C441.888 37.9547 443.424 37.8693 444.96 37.784C446.538 37.6987 447.968 37.6133 449.248 37.528C450.57 37.4427 451.637 37.3573 452.448 37.272C453.514 37.144 454.41 37.016 455.136 36.888C455.861 36.76 456.437 36.6107 456.864 36.44L461.92 42.328C461.237 42.7547 460.384 43.3307 459.36 44.056C458.378 44.7387 457.546 45.336 456.864 45.848C455.968 46.5733 455.008 47.3627 453.984 48.216C452.96 49.0693 451.893 49.944 450.784 50.84C449.717 51.6933 448.65 52.568 447.584 53.464C446.517 54.3173 445.472 55.1707 444.448 56.024C443.466 56.8347 442.528 57.56 441.632 58.2C444.49 57.9013 447.498 57.6453 450.656 57.432C453.856 57.176 456.992 56.984 460.064 56.856C463.178 56.728 466.037 56.664 468.64 56.664V64.216C465.61 64.0453 462.602 63.96 459.616 63.96C456.629 63.96 454.154 64.1093 452.192 64.408C450.698 64.5787 449.312 64.9627 448.032 65.56C446.752 66.1573 445.6 66.9253 444.576 67.864C443.594 68.76 442.826 69.784 442.272 70.936C441.717 72.0453 441.44 73.2613 441.44 74.584C441.44 76.248 441.845 77.6133 442.656 78.68C443.466 79.7467 444.597 80.5573 446.048 81.112C447.541 81.6667 449.226 82.0507 451.104 82.264C452.938 82.4773 454.73 82.584 456.48 82.584C458.229 82.584 459.701 82.5413 460.896 82.456L459.168 90.84C450.976 91.1813 444.597 90.1147 440.032 87.64C435.509 85.1653 433.248 81.2613 433.248 75.928C433.248 74.6053 433.461 73.3253 433.888 72.088C434.357 70.808 434.933 69.6347 435.616 68.568C436.341 67.5013 437.109 66.584 437.92 65.816C434.976 66.0293 431.797 66.3707 428.384 66.84C425.013 67.3093 421.706 67.8213 418.464 68.376L417.696 60.632C419.402 60.4613 421.28 60.248 423.328 59.992C425.376 59.736 427.253 59.5227 428.96 59.352C430.368 58.4133 431.904 57.304 433.568 56.024C435.232 54.744 436.896 53.4213 438.56 52.056C440.224 50.648 441.781 49.3253 443.232 48.088C444.725 46.808 445.962 45.72 446.944 44.824C446.432 44.8667 445.728 44.9093 444.832 44.952C443.978 44.9947 443.018 45.0587 441.952 45.144C440.928 45.1867 439.882 45.2507 438.816 45.336C437.749 45.3787 436.768 45.4427 435.872 45.528C435.018 45.5707 434.336 45.6133 433.824 45.656C433.013 45.6987 432.096 45.784 431.072 45.912C430.09 45.9973 429.088 46.104 428.064 46.232L427.68 38.04Z" fill="url(#paint9_linear_112_3910)" fill-opacity="0.7"/>
</g>
</g>
<path d="M312 81H1088V107C1088 113.627 1082.63 119 1076 119H324C317.373 119 312 113.627 312 107V81Z" fill="url(#paint10_linear_112_3910)"/>
<path d="M956.192 73.592C956.32 72.952 956.427 72.2267 956.512 71.416C956.64 70.5627 956.704 69.7093 956.704 68.856C956.704 68.3867 956.704 67.448 956.704 66.04C956.704 64.632 956.704 62.9253 956.704 60.92C956.704 58.9147 956.704 56.76 956.704 54.456C956.704 52.1093 956.704 49.7413 956.704 47.352C956.704 44.9627 956.704 42.7227 956.704 40.632C956.704 38.4987 956.704 36.6427 956.704 35.064C956.704 33.4427 956.704 32.2693 956.704 31.544C956.704 30.0933 956.618 28.8347 956.448 27.768C956.32 26.7013 956.234 26.1253 956.192 26.04H965.728C965.685 26.1253 965.6 26.7227 965.472 27.832C965.344 28.8987 965.28 30.1573 965.28 31.608C965.28 32.3333 965.28 33.4213 965.28 34.872C965.28 36.28 965.28 37.9227 965.28 39.8C965.28 41.6347 965.28 43.5973 965.28 45.688C965.28 47.7787 965.28 49.848 965.28 51.896C965.28 53.9013 965.28 55.8213 965.28 57.656C965.28 59.448 965.28 60.984 965.28 62.264C965.28 63.544 965.28 64.4827 965.28 65.08C967.029 64.312 968.842 63.2667 970.72 61.944C972.597 60.6213 974.432 59.0853 976.224 57.336C978.058 55.544 979.68 53.624 981.088 51.576L986.016 58.616C984.266 60.92 982.133 63.1813 979.616 65.4C977.141 67.6187 974.581 69.6453 971.936 71.48C969.29 73.3147 966.752 74.8507 964.32 76.088C963.637 76.472 963.082 76.8133 962.656 77.112C962.229 77.4533 961.866 77.752 961.568 78.008L956.192 73.592ZM926.56 72.632C929.376 70.6693 931.68 68.3013 933.472 65.528C935.264 62.7547 936.586 60.024 937.44 57.336C937.909 55.928 938.25 54.2 938.464 52.152C938.72 50.0613 938.912 47.8427 939.04 45.496C939.168 43.1067 939.232 40.76 939.232 38.456C939.274 36.1093 939.296 33.9547 939.296 31.992C939.296 30.712 939.232 29.624 939.104 28.728C939.018 27.7893 938.89 26.9147 938.72 26.104H948.128C948.085 26.1893 948.021 26.552 947.936 27.192C947.893 27.7893 947.829 28.5147 947.744 29.368C947.701 30.1787 947.68 31.032 947.68 31.928C947.68 33.8053 947.659 36.0027 947.616 38.52C947.573 40.9947 947.488 43.5333 947.36 46.136C947.232 48.7387 947.04 51.2133 946.784 53.56C946.528 55.864 946.186 57.8267 945.76 59.448C944.778 63.0747 943.306 66.4453 941.344 69.56C939.424 72.632 937.098 75.384 934.368 77.816L926.56 72.632Z" fill="url(#paint11_linear_112_3910)"/>
<path d="M865.888 45.368C866.656 45.4107 867.637 45.4747 868.832 45.56C870.026 45.6027 871.264 45.6453 872.544 45.688C873.866 45.7307 875.082 45.752 876.192 45.752C877.259 45.752 878.581 45.752 880.16 45.752C881.738 45.752 883.445 45.752 885.28 45.752C887.157 45.752 889.077 45.752 891.04 45.752C893.045 45.752 895.029 45.752 896.992 45.752C898.954 45.752 900.81 45.752 902.56 45.752C904.309 45.752 905.866 45.752 907.232 45.752C908.64 45.752 909.749 45.752 910.56 45.752C912.053 45.752 913.461 45.7093 914.784 45.624C916.106 45.496 917.194 45.4107 918.048 45.368V55.416C917.322 55.3733 916.234 55.3093 914.784 55.224C913.333 55.1387 911.925 55.096 910.56 55.096C909.749 55.096 908.64 55.096 907.232 55.096C905.824 55.096 904.245 55.096 902.496 55.096C900.746 55.096 898.89 55.096 896.928 55.096C895.008 55.096 893.045 55.096 891.04 55.096C889.034 55.096 887.093 55.096 885.216 55.096C883.381 55.096 881.674 55.096 880.096 55.096C878.56 55.096 877.259 55.096 876.192 55.096C874.357 55.096 872.48 55.1387 870.56 55.224C868.64 55.2667 867.082 55.3307 865.888 55.416V45.368Z" fill="url(#paint12_linear_112_3910)"/>
<path d="M826.272 25.144C826.698 25.912 827.21 27.0427 827.808 28.536C828.448 29.9867 829.088 31.5867 829.728 33.336C830.41 35.0427 831.05 36.7067 831.648 38.328C832.245 39.9067 832.693 41.2293 832.992 42.296L824.928 45.112C824.672 44.088 824.245 42.808 823.648 41.272C823.093 39.6933 822.496 38.072 821.856 36.408C821.216 34.7013 820.576 33.08 819.936 31.544C819.296 30.008 818.741 28.7493 818.272 27.768L826.272 25.144ZM855.52 30.264C855.136 31.032 854.794 31.864 854.496 32.76C854.24 33.656 854.026 34.488 853.856 35.256C853.258 37.56 852.448 40.1413 851.424 43C850.442 45.8587 849.248 48.7173 847.84 51.576C846.474 54.392 844.896 56.9733 843.104 59.32C840.885 62.264 838.389 64.952 835.616 67.384C832.885 69.7733 830.026 71.864 827.04 73.656C824.053 75.448 821.024 76.92 817.952 78.072L810.784 70.904C813.728 70.0507 816.714 68.856 819.744 67.32C822.816 65.784 825.76 63.928 828.576 61.752C831.434 59.576 833.93 57.1227 836.064 54.392C837.685 52.344 839.157 49.848 840.48 46.904C841.845 43.96 842.997 40.824 843.936 37.496C844.917 34.1253 845.578 30.7973 845.92 27.512L855.52 30.264ZM808.48 29.112C808.949 30.0933 809.525 31.3733 810.208 32.952C810.933 34.5307 811.658 36.1947 812.384 37.944C813.109 39.6933 813.77 41.3787 814.368 43C815.008 44.5787 815.52 45.9227 815.904 47.032L807.648 50.04C807.392 49.1867 807.029 48.1413 806.56 46.904C806.133 45.6667 805.621 44.3227 805.024 42.872C804.469 41.4213 803.893 39.992 803.296 38.584C802.698 37.176 802.144 35.896 801.632 34.744C801.12 33.592 800.672 32.6533 800.288 31.928L808.48 29.112Z" fill="url(#paint13_linear_112_3910)"/>
<path d="M766.304 23.288H791.712V51H766.304V43.768H784.032V30.584H766.304V23.288ZM762.016 23.288H769.568V46.904C769.568 49.5067 769.44 52.3227 769.184 55.352C768.97 58.3813 768.544 61.432 767.904 64.504C767.264 67.576 766.325 70.52 765.088 73.336C763.893 76.152 762.293 78.648 760.288 80.824C759.904 80.3547 759.349 79.7787 758.624 79.096C757.898 78.4133 757.152 77.752 756.384 77.112C755.658 76.472 755.018 76.0027 754.464 75.704C756.213 73.7413 757.6 71.5867 758.624 69.24C759.648 66.8507 760.394 64.376 760.864 61.816C761.333 59.2133 761.632 56.6533 761.76 54.136C761.93 51.6187 762.016 49.208 762.016 46.904V23.288ZM782.176 47.736C782.688 51.832 783.392 55.4587 784.288 58.616C785.184 61.7733 786.464 64.6107 788.128 67.128C789.834 69.6027 792.096 71.9493 794.912 74.168C793.888 74.9787 792.885 75.9813 791.904 77.176C790.922 78.4133 790.176 79.6293 789.664 80.824C786.336 78.008 783.69 75.0213 781.728 71.864C779.765 68.7067 778.272 65.2293 777.248 61.432C776.224 57.6347 775.413 53.3893 774.816 48.696L782.176 47.736ZM736.928 40.248H756.256V46.072H736.928V40.248ZM737.184 22.648H756.128V28.408H737.184V22.648ZM736.928 49.016H756.256V54.776H736.928V49.016ZM733.92 31.224H758.368V37.304H733.92V31.224ZM740.256 57.848H756.384V77.368H740.256V71.288H749.792V63.928H740.256V57.848ZM736.8 57.848H743.264V79.864H736.8V57.848Z" fill="url(#paint14_linear_112_3910)"/>
<path d="M670.624 35.768H698.72V41.336H670.624V35.768ZM675.744 63.608H694.368V68.536H675.744V63.608ZM675.936 71.928H693.92V77.624H675.936V71.928ZM682.272 26.68H688.672V53.88H682.272V26.68ZM682.784 58.296H687.968V74.872H682.784V58.296ZM695.136 20.792L698.912 25.848C696.48 26.4027 693.749 26.872 690.72 27.256C687.69 27.64 684.597 27.9387 681.44 28.152C678.325 28.3653 675.317 28.5147 672.416 28.6C672.33 27.8747 672.117 27.0427 671.776 26.104C671.477 25.1227 671.157 24.312 670.816 23.672C673.632 23.4587 676.533 23.224 679.52 22.968C682.506 22.712 685.344 22.4133 688.032 22.072C690.762 21.688 693.13 21.2613 695.136 20.792ZM687.84 39.736C688.437 40.0347 689.269 40.5467 690.336 41.272C691.445 41.9547 692.597 42.7013 693.792 43.512C695.029 44.3227 696.16 45.0907 697.184 45.816C698.208 46.4987 698.933 46.9893 699.36 47.288L695.52 53.24C694.965 52.5573 694.218 51.768 693.28 50.872C692.384 49.9333 691.381 48.9733 690.272 47.992C689.205 46.968 688.181 46.008 687.2 45.112C686.218 44.216 685.386 43.4907 684.704 42.936L687.84 39.736ZM672.928 29.816L677.856 28.536C678.282 29.56 678.709 30.6693 679.136 31.864C679.605 33.0587 679.946 34.0613 680.16 34.872L674.976 36.408C674.762 35.5547 674.464 34.5093 674.08 33.272C673.696 31.992 673.312 30.84 672.928 29.816ZM692.576 27.768L698.144 29.432C697.461 30.968 696.778 32.4827 696.096 33.976C695.456 35.4693 694.859 36.7493 694.304 37.816L689.632 36.408C689.973 35.5973 690.336 34.7013 690.72 33.72C691.104 32.696 691.445 31.672 691.744 30.648C692.085 29.5813 692.362 28.6213 692.576 27.768ZM681.184 38.52L685.536 41.016C684.512 42.808 683.296 44.7067 681.888 46.712C680.48 48.6747 678.965 50.5307 677.344 52.28C675.722 54.0293 674.101 55.48 672.48 56.632C672.224 55.608 671.797 54.456 671.2 53.176C670.645 51.8533 670.112 50.7227 669.6 49.784C671.05 48.9733 672.501 47.9493 673.952 46.712C675.445 45.432 676.832 44.088 678.112 42.68C679.392 41.2293 680.416 39.8427 681.184 38.52ZM672.416 54.84H698.336V79.928H692.384V60.536H678.048V80.696H672.416V54.84ZM700.448 23.288H711.264V29.688H700.448V23.288ZM707.872 23.288H714.016V73.208C714.016 74.7013 713.845 75.9387 713.504 76.92C713.205 77.9013 712.608 78.648 711.712 79.16C710.773 79.7147 709.642 80.056 708.32 80.184C706.997 80.3547 705.418 80.44 703.584 80.44C703.498 79.5867 703.264 78.52 702.88 77.24C702.496 76.0027 702.09 74.9573 701.664 74.104C702.773 74.1467 703.818 74.1893 704.8 74.232C705.824 74.232 706.528 74.2107 706.912 74.168C707.253 74.168 707.488 74.104 707.616 73.976C707.786 73.8053 707.872 73.5067 707.872 73.08V23.288ZM715.36 23.416H725.088V29.816H715.36V23.416ZM722.528 23.416H728.8V73.016C728.8 74.6373 728.629 75.9387 728.288 76.92C727.946 77.944 727.285 78.7333 726.304 79.288C725.322 79.8427 724.106 80.184 722.656 80.312C721.248 80.4827 719.541 80.568 717.536 80.568C717.45 79.672 717.194 78.5627 716.768 77.24C716.341 75.96 715.893 74.8933 715.424 74.04C716.661 74.0827 717.856 74.104 719.008 74.104C720.202 74.104 720.992 74.104 721.376 74.104C721.802 74.104 722.101 74.0187 722.272 73.848C722.442 73.6773 722.528 73.3787 722.528 72.952V23.416ZM699.424 36.024L704.224 34.808C704.778 36.088 705.312 37.496 705.824 39.032C706.378 40.5253 706.869 41.9973 707.296 43.448C707.722 44.856 708.042 46.0933 708.256 47.16L703.136 48.76C702.965 47.6507 702.666 46.3707 702.24 44.92C701.856 43.4693 701.408 41.9547 700.896 40.376C700.426 38.7973 699.936 37.3467 699.424 36.024ZM714.528 35.576L719.392 34.616C719.861 35.9387 720.309 37.3893 720.736 38.968C721.162 40.504 721.546 41.976 721.888 43.384C722.229 44.792 722.485 46.0293 722.656 47.096L717.472 48.376C717.344 47.2667 717.109 45.9867 716.768 44.536C716.469 43.0427 716.128 41.528 715.744 39.992C715.36 38.4133 714.954 36.9413 714.528 35.576ZM713.824 59.32C715.061 58.1253 716.597 56.632 718.432 54.84C720.266 53.0053 722.144 51.1067 724.064 49.144L726.944 54.008C725.365 55.7573 723.701 57.5493 721.952 59.384C720.202 61.2187 718.517 62.968 716.896 64.632L713.824 59.32ZM698.912 60.536C700.234 59.256 701.856 57.592 703.776 55.544C705.738 53.496 707.722 51.3627 709.728 49.144L712.8 53.944C711.05 55.9493 709.237 57.9973 707.36 60.088C705.482 62.136 703.669 64.0347 701.92 65.784L698.912 60.536Z" fill="url(#paint15_linear_112_3910)"/>
<path d="M641.824 31.16C641.397 34.4027 640.842 37.8587 640.16 41.528C639.477 45.1973 638.56 48.9093 637.408 52.664C636.17 56.9733 634.72 60.6853 633.056 63.8C631.392 66.9147 629.557 69.3253 627.552 71.032C625.589 72.696 623.434 73.528 621.088 73.528C618.741 73.528 616.565 72.7387 614.56 71.16C612.597 69.5387 611.018 67.32 609.824 64.504C608.672 61.688 608.096 58.488 608.096 54.904C608.096 51.192 608.842 47.6933 610.336 44.408C611.829 41.1227 613.898 38.2213 616.544 35.704C619.232 33.144 622.346 31.1387 625.888 29.688C629.472 28.2373 633.333 27.512 637.472 27.512C641.44 27.512 645.002 28.152 648.16 29.432C651.36 30.712 654.09 32.4827 656.352 34.744C658.613 37.0053 660.341 39.6507 661.536 42.68C662.73 45.7093 663.328 48.9733 663.328 52.472C663.328 56.952 662.41 60.9627 660.576 64.504C658.741 68.0453 656.01 70.968 652.384 73.272C648.8 75.576 644.32 77.1547 638.944 78.008L634.144 70.392C635.381 70.264 636.469 70.1147 637.408 69.944C638.346 69.7733 639.242 69.5813 640.096 69.368C642.144 68.856 644.042 68.1307 645.792 67.192C647.584 66.2107 649.141 65.016 650.464 63.608C651.786 62.1573 652.81 60.472 653.536 58.552C654.304 56.632 654.688 54.52 654.688 52.216C654.688 49.6987 654.304 47.3947 653.536 45.304C652.768 43.2133 651.637 41.4 650.144 39.864C648.65 38.2853 646.837 37.0907 644.704 36.28C642.57 35.4267 640.117 35 637.344 35C633.93 35 630.922 35.6187 628.32 36.856C625.717 38.0507 623.52 39.608 621.728 41.528C619.936 43.448 618.57 45.5173 617.632 47.736C616.736 49.9547 616.288 52.0667 616.288 54.072C616.288 56.2053 616.544 57.9973 617.056 59.448C617.568 60.856 618.186 61.9227 618.912 62.648C619.68 63.3307 620.49 63.672 621.344 63.672C622.24 63.672 623.114 63.224 623.968 62.328C624.864 61.3893 625.738 59.9813 626.592 58.104C627.445 56.2267 628.298 53.8587 629.152 51C630.133 47.928 630.965 44.6427 631.648 41.144C632.33 37.6453 632.821 34.232 633.12 30.904L641.824 31.16Z" fill="url(#paint16_linear_112_3910)"/>
<path d="M578.848 20.92H586.08V65.528H578.848V20.92ZM557.216 46.008L595.232 31.16L598.176 37.816L560.224 52.792L557.216 46.008ZM565.088 27.768H572.64V68.408C572.64 69.688 572.746 70.648 572.96 71.288C573.216 71.928 573.685 72.3547 574.368 72.568C575.093 72.7813 576.138 72.888 577.504 72.888C577.888 72.888 578.506 72.888 579.36 72.888C580.213 72.888 581.173 72.888 582.24 72.888C583.349 72.888 584.437 72.888 585.504 72.888C586.613 72.888 587.594 72.888 588.448 72.888C589.344 72.888 590.005 72.888 590.432 72.888C591.712 72.888 592.672 72.6533 593.312 72.184C593.952 71.7147 594.421 70.8613 594.72 69.624C595.018 68.344 595.274 66.488 595.488 64.056C596.341 64.6533 597.429 65.2293 598.752 65.784C600.117 66.3387 601.333 66.744 602.4 67C602.058 70.2 601.504 72.7387 600.736 74.616C600.01 76.4507 598.88 77.7733 597.344 78.584C595.85 79.3947 593.76 79.8 591.072 79.8C590.645 79.8 589.941 79.8 588.96 79.8C587.978 79.8 586.89 79.8 585.696 79.8C584.501 79.8 583.306 79.8 582.112 79.8C580.917 79.8 579.85 79.8 578.912 79.8C577.973 79.8 577.29 79.8 576.864 79.8C573.792 79.8 571.402 79.4587 569.696 78.776C567.989 78.136 566.794 76.984 566.112 75.32C565.429 73.656 565.088 71.352 565.088 68.408V27.768ZM592.672 32.44H592.16L594.848 30.52L600.096 32.504L599.84 33.72C599.84 37.432 599.818 40.76 599.776 43.704C599.733 46.6053 599.669 49.0587 599.584 51.064C599.498 53.0267 599.392 54.4773 599.264 55.416C599.136 57.0373 598.752 58.296 598.112 59.192C597.514 60.088 596.704 60.7707 595.68 61.24C594.698 61.6667 593.525 61.944 592.16 62.072C590.794 62.1573 589.536 62.1787 588.384 62.136C588.341 61.0693 588.17 59.832 587.872 58.424C587.573 57.016 587.189 55.9067 586.72 55.096C587.445 55.1387 588.192 55.1813 588.96 55.224C589.728 55.224 590.304 55.224 590.688 55.224C591.114 55.224 591.456 55.1387 591.712 54.968C591.968 54.7547 592.16 54.3493 592.288 53.752C592.373 53.24 592.437 52.1733 592.48 50.552C592.522 48.9307 592.565 46.6267 592.608 43.64C592.65 40.6533 592.672 36.92 592.672 32.44ZM555.488 20.856L562.592 23.16C561.226 26.744 559.605 30.3493 557.728 33.976C555.85 37.6027 553.824 41.0373 551.648 44.28C549.472 47.48 547.232 50.296 544.928 52.728C544.714 52.1307 544.352 51.3413 543.84 50.36C543.37 49.3787 542.858 48.3973 542.304 47.416C541.792 46.392 541.322 45.56 540.896 44.92C542.816 42.9573 544.672 40.696 546.464 38.136C548.298 35.576 549.984 32.824 551.52 29.88C553.098 26.936 554.421 23.928 555.488 20.856ZM549.024 38.584L556.512 31.032L556.576 31.096V80.632H549.024V38.584Z" fill="url(#paint17_linear_112_3910)"/>
<path d="M513.824 31.16C513.397 34.4027 512.842 37.8587 512.16 41.528C511.477 45.1973 510.56 48.9093 509.408 52.664C508.17 56.9733 506.72 60.6853 505.056 63.8C503.392 66.9147 501.557 69.3253 499.552 71.032C497.589 72.696 495.434 73.528 493.088 73.528C490.741 73.528 488.565 72.7387 486.56 71.16C484.597 69.5387 483.018 67.32 481.824 64.504C480.672 61.688 480.096 58.488 480.096 54.904C480.096 51.192 480.842 47.6933 482.336 44.408C483.829 41.1227 485.898 38.2213 488.544 35.704C491.232 33.144 494.346 31.1387 497.888 29.688C501.472 28.2373 505.333 27.512 509.472 27.512C513.44 27.512 517.002 28.152 520.16 29.432C523.36 30.712 526.09 32.4827 528.352 34.744C530.613 37.0053 532.341 39.6507 533.536 42.68C534.73 45.7093 535.328 48.9733 535.328 52.472C535.328 56.952 534.41 60.9627 532.576 64.504C530.741 68.0453 528.01 70.968 524.384 73.272C520.8 75.576 516.32 77.1547 510.944 78.008L506.144 70.392C507.381 70.264 508.469 70.1147 509.408 69.944C510.346 69.7733 511.242 69.5813 512.096 69.368C514.144 68.856 516.042 68.1307 517.792 67.192C519.584 66.2107 521.141 65.016 522.464 63.608C523.786 62.1573 524.81 60.472 525.536 58.552C526.304 56.632 526.688 54.52 526.688 52.216C526.688 49.6987 526.304 47.3947 525.536 45.304C524.768 43.2133 523.637 41.4 522.144 39.864C520.65 38.2853 518.837 37.0907 516.704 36.28C514.57 35.4267 512.117 35 509.344 35C505.93 35 502.922 35.6187 500.32 36.856C497.717 38.0507 495.52 39.608 493.728 41.528C491.936 43.448 490.57 45.5173 489.632 47.736C488.736 49.9547 488.288 52.0667 488.288 54.072C488.288 56.2053 488.544 57.9973 489.056 59.448C489.568 60.856 490.186 61.9227 490.912 62.648C491.68 63.3307 492.49 63.672 493.344 63.672C494.24 63.672 495.114 63.224 495.968 62.328C496.864 61.3893 497.738 59.9813 498.592 58.104C499.445 56.2267 500.298 53.8587 501.152 51C502.133 47.928 502.965 44.6427 503.648 41.144C504.33 37.6453 504.821 34.232 505.12 30.904L513.824 31.16Z" fill="url(#paint18_linear_112_3910)"/>
<path d="M427.68 26.04C428.704 26.0827 429.706 26.1253 430.688 26.168C431.669 26.2107 432.693 26.232 433.76 26.232C434.357 26.232 435.232 26.2107 436.384 26.168C437.536 26.1253 438.858 26.0827 440.352 26.04C441.888 25.9547 443.424 25.8693 444.96 25.784C446.538 25.6987 447.968 25.6133 449.248 25.528C450.57 25.4427 451.637 25.3573 452.448 25.272C453.514 25.144 454.41 25.016 455.136 24.888C455.861 24.76 456.437 24.6107 456.864 24.44L461.92 30.328C461.237 30.7547 460.384 31.3307 459.36 32.056C458.378 32.7387 457.546 33.336 456.864 33.848C455.968 34.5733 455.008 35.3627 453.984 36.216C452.96 37.0693 451.893 37.944 450.784 38.84C449.717 39.6933 448.65 40.568 447.584 41.464C446.517 42.3173 445.472 43.1707 444.448 44.024C443.466 44.8347 442.528 45.56 441.632 46.2C444.49 45.9013 447.498 45.6453 450.656 45.432C453.856 45.176 456.992 44.984 460.064 44.856C463.178 44.728 466.037 44.664 468.64 44.664V52.216C465.61 52.0453 462.602 51.96 459.616 51.96C456.629 51.96 454.154 52.1093 452.192 52.408C450.698 52.5787 449.312 52.9627 448.032 53.56C446.752 54.1573 445.6 54.9253 444.576 55.864C443.594 56.76 442.826 57.784 442.272 58.936C441.717 60.0453 441.44 61.2613 441.44 62.584C441.44 64.248 441.845 65.6133 442.656 66.68C443.466 67.7467 444.597 68.5573 446.048 69.112C447.541 69.6667 449.226 70.0507 451.104 70.264C452.938 70.4773 454.73 70.584 456.48 70.584C458.229 70.584 459.701 70.5413 460.896 70.456L459.168 78.84C450.976 79.1813 444.597 78.1147 440.032 75.64C435.509 73.1653 433.248 69.2613 433.248 63.928C433.248 62.6053 433.461 61.3253 433.888 60.088C434.357 58.808 434.933 57.6347 435.616 56.568C436.341 55.5013 437.109 54.584 437.92 53.816C434.976 54.0293 431.797 54.3707 428.384 54.84C425.013 55.3093 421.706 55.8213 418.464 56.376L417.696 48.632C419.402 48.4613 421.28 48.248 423.328 47.992C425.376 47.736 427.253 47.5227 428.96 47.352C430.368 46.4133 431.904 45.304 433.568 44.024C435.232 42.744 436.896 41.4213 438.56 40.056C440.224 38.648 441.781 37.3253 443.232 36.088C444.725 34.808 445.962 33.72 446.944 32.824C446.432 32.8667 445.728 32.9093 444.832 32.952C443.978 32.9947 443.018 33.0587 441.952 33.144C440.928 33.1867 439.882 33.2507 438.816 33.336C437.749 33.3787 436.768 33.4427 435.872 33.528C435.018 33.5707 434.336 33.6133 433.824 33.656C433.013 33.6987 432.096 33.784 431.072 33.912C430.09 33.9973 429.088 34.104 428.064 34.232L427.68 26.04Z" fill="url(#paint19_linear_112_3910)"/>
<defs>
<filter id="filter0_f_112_3910" x="397.696" y="12.792" width="608.32" height="100.032" filterUnits="userSpaceOnUse" color-interpolation-filters="sRGB">
<feFlood flood-opacity="0" result="BackgroundImageFix"/>
<feBlend mode="normal" in="SourceGraphic" in2="BackgroundImageFix" result="shape"/>
<feGaussianBlur stdDeviation="10" result="effect1_foregroundBlur_112_3910"/>
</filter>
<linearGradient id="paint0_linear_112_3910" x1="312" y1="73.0036" x2="1088" y2="73.0029" gradientUnits="userSpaceOnUse">
<stop stop-color="white" stop-opacity="0.3"/>
<stop offset="0.495" stop-color="#CBB0F8"/>
<stop offset="1" stop-color="white" stop-opacity="0.3"/>
</linearGradient>
<linearGradient id="paint1_linear_112_3910" x1="1004.98" y1="57.582" x2="-4500.81" y2="57.5867" gradientUnits="userSpaceOnUse">
<stop stop-color="#F4439F"/>
<stop offset="1" stop-color="#7C3AED"/>
</linearGradient>
<linearGradient id="paint2_linear_112_3910" x1="1748.19" y1="45.5297" x2="-4527.73" y2="45.5309" gradientUnits="userSpaceOnUse">
<stop stop-color="#F4439F"/>
<stop offset="1" stop-color="#7C3AED"/>
</linearGradient>
<linearGradient id="paint3_linear_112_3910" x1="2349.19" y1="58.1486" x2="-3577.66" y2="58.1541" gradientUnits="userSpaceOnUse">
<stop stop-color="#F4439F"/>
<stop offset="1" stop-color="#7C3AED"/>
</linearGradient>
<linearGradient id="paint4_linear_112_3910" x1="2785.2" y1="58.4368" x2="-2581.94" y2="58.4418" gradientUnits="userSpaceOnUse">
<stop stop-color="#F4439F"/>
<stop offset="1" stop-color="#7C3AED"/>
</linearGradient>
<linearGradient id="paint5_linear_112_3910" x1="3474.34" y1="59.5571" x2="-2055.26" y2="59.5625" gradientUnits="userSpaceOnUse">
<stop stop-color="#F4439F"/>
<stop offset="1" stop-color="#7C3AED"/>
</linearGradient>
<linearGradient id="paint6_linear_112_3910" x1="4326.79" y1="56.5547" x2="-1600.07" y2="56.5599" gradientUnits="userSpaceOnUse">
<stop stop-color="#F4439F"/>
<stop offset="1" stop-color="#7C3AED"/>
</linearGradient>
<linearGradient id="paint7_linear_112_3910" x1="4549.1" y1="59.5501" x2="-773.352" y2="59.5551" gradientUnits="userSpaceOnUse">
<stop stop-color="#F4439F"/>
<stop offset="1" stop-color="#7C3AED"/>
</linearGradient>
<linearGradient id="paint8_linear_112_3910" x1="5643.87" y1="56.5547" x2="-282.991" y2="56.5599" gradientUnits="userSpaceOnUse">
<stop stop-color="#F4439F"/>
<stop offset="1" stop-color="#7C3AED"/>
</linearGradient>
<linearGradient id="paint9_linear_112_3910" x1="988" y1="59.5005" x2="412" y2="59.5005" gradientUnits="userSpaceOnUse">
<stop stop-color="#F4439F"/>
<stop offset="1" stop-color="#7C3AED"/>
</linearGradient>
<linearGradient id="paint10_linear_112_3910" x1="700" y1="81" x2="700" y2="119" gradientUnits="userSpaceOnUse">
<stop offset="0.0001" stop-color="white" stop-opacity="0.1"/>
<stop offset="1" stop-color="white" stop-opacity="0"/>
</linearGradient>
<linearGradient id="paint11_linear_112_3910" x1="1004.98" y1="-8.13352" x2="601.464" y2="1468.65" gradientUnits="userSpaceOnUse">
<stop stop-color="#F4439F"/>
<stop offset="1" stop-color="#7C3AED"/>
</linearGradient>
<linearGradient id="paint12_linear_112_3910" x1="1748.19" y1="-244.286" x2="-2262.87" y2="2991.04" gradientUnits="userSpaceOnUse">
<stop stop-color="#F4439F"/>
<stop offset="1" stop-color="#7C3AED"/>
</linearGradient>
<linearGradient id="paint13_linear_112_3910" x1="2349.19" y1="-6.59262" x2="1983.55" y2="1460.54" gradientUnits="userSpaceOnUse">
<stop stop-color="#F4439F"/>
<stop offset="1" stop-color="#7C3AED"/>
</linearGradient>
<linearGradient id="paint14_linear_112_3910" x1="2785.2" y1="-1.54664" x2="2451.17" y2="1332.5" gradientUnits="userSpaceOnUse">
<stop stop-color="#F4439F"/>
<stop offset="1" stop-color="#7C3AED"/>
</linearGradient>
<linearGradient id="paint15_linear_112_3910" x1="3474.34" y1="0.95772" x2="3166.53" y2="1305.1" gradientUnits="userSpaceOnUse">
<stop stop-color="#F4439F"/>
<stop offset="1" stop-color="#7C3AED"/>
</linearGradient>
<linearGradient id="paint16_linear_112_3910" x1="4326.79" y1="-10.7267" x2="3927.38" y2="1518.24" gradientUnits="userSpaceOnUse">
<stop stop-color="#F4439F"/>
<stop offset="1" stop-color="#7C3AED"/>
</linearGradient>
<linearGradient id="paint17_linear_112_3910" x1="4549.1" y1="0.850968" x2="4229.37" y2="1302.02" gradientUnits="userSpaceOnUse">
<stop stop-color="#F4439F"/>
<stop offset="1" stop-color="#7C3AED"/>
</linearGradient>
<linearGradient id="paint18_linear_112_3910" x1="5643.87" y1="-10.7267" x2="5244.46" y2="1518.24" gradientUnits="userSpaceOnUse">
<stop stop-color="#F4439F"/>
<stop offset="1" stop-color="#7C3AED"/>
</linearGradient>
<linearGradient id="paint19_linear_112_3910" x1="988" y1="1.00041" x2="479.777" y2="225.781" gradientUnits="userSpaceOnUse">
<stop stop-color="#F4439F"/>
<stop offset="1" stop-color="#7C3AED"/>
</linearGradient>
</defs>
</svg>
