<svg width="1400" height="120" viewBox="0 0 1400 120" fill="none" xmlns="http://www.w3.org/2000/svg">
<path d="M410 65H991V81H410V65Z" fill="url(#paint0_linear_112_3878)"/>
<mask id="mask0_112_3878" style="mask-type:alpha" maskUnits="userSpaceOnUse" x="410" y="81" width="581" height="38">
<path d="M410 81H991V119H410V81Z" fill="#C4C4C4"/>
</mask>
<g mask="url(#mask0_112_3878)">
<g filter="url(#filter0_f_112_3878)">
<path d="M862.275 35.288H887.683V63H862.275V55.768H880.003V42.584H862.275V35.288ZM857.987 35.288H865.539V58.904C865.539 61.5067 865.411 64.3227 865.155 67.352C864.942 70.3813 864.515 73.432 863.875 76.504C863.235 79.576 862.296 82.52 861.059 85.336C859.864 88.152 858.264 90.648 856.259 92.824C855.875 92.3547 855.32 91.7787 854.595 91.096C853.87 90.4133 853.123 89.752 852.355 89.112C851.63 88.472 850.99 88.0027 850.435 87.704C852.184 85.7413 853.571 83.5867 854.595 81.24C855.619 78.8507 856.366 76.376 856.835 73.816C857.304 71.2133 857.603 68.6533 857.731 66.136C857.902 63.6187 857.987 61.208 857.987 58.904V35.288ZM878.147 59.736C878.659 63.832 879.363 67.4587 880.259 70.616C881.155 73.7733 882.435 76.6107 884.099 79.128C885.806 81.6027 888.067 83.9493 890.883 86.168C889.859 86.9787 888.856 87.9813 887.875 89.176C886.894 90.4133 886.147 91.6293 885.635 92.824C882.307 90.008 879.662 87.0213 877.699 83.864C875.736 80.7067 874.243 77.2293 873.219 73.432C872.195 69.6347 871.384 65.3893 870.787 60.696L878.147 59.736ZM832.899 52.248H852.227V58.072H832.899V52.248ZM833.155 34.648H852.099V40.408H833.155V34.648ZM832.899 61.016H852.227V66.776H832.899V61.016ZM829.891 43.224H854.339V49.304H829.891V43.224ZM836.227 69.848H852.355V89.368H836.227V83.288H845.763V75.928H836.227V69.848ZM832.771 69.848H839.235V91.864H832.771V69.848Z" fill="url(#paint1_linear_112_3878)" fill-opacity="0.7"/>
<path d="M766.595 47.768H794.691V53.336H766.595V47.768ZM771.715 75.608H790.339V80.536H771.715V75.608ZM771.907 83.928H789.891V89.624H771.907V83.928ZM778.243 38.68H784.643V65.88H778.243V38.68ZM778.755 70.296H783.939V86.872H778.755V70.296ZM791.107 32.792L794.883 37.848C792.451 38.4027 789.72 38.872 786.691 39.256C783.662 39.64 780.568 39.9387 777.411 40.152C774.296 40.3653 771.288 40.5147 768.387 40.6C768.302 39.8747 768.088 39.0427 767.747 38.104C767.448 37.1227 767.128 36.312 766.787 35.672C769.603 35.4587 772.504 35.224 775.491 34.968C778.478 34.712 781.315 34.4133 784.003 34.072C786.734 33.688 789.102 33.2613 791.107 32.792ZM783.811 51.736C784.408 52.0347 785.24 52.5467 786.307 53.272C787.416 53.9547 788.568 54.7013 789.763 55.512C791 56.3227 792.131 57.0907 793.155 57.816C794.179 58.4987 794.904 58.9893 795.331 59.288L791.491 65.24C790.936 64.5573 790.19 63.768 789.251 62.872C788.355 61.9333 787.352 60.9733 786.243 59.992C785.176 58.968 784.152 58.008 783.171 57.112C782.19 56.216 781.358 55.4907 780.675 54.936L783.811 51.736ZM768.899 41.816L773.827 40.536C774.254 41.56 774.68 42.6693 775.107 43.864C775.576 45.0587 775.918 46.0613 776.131 46.872L770.947 48.408C770.734 47.5547 770.435 46.5093 770.051 45.272C769.667 43.992 769.283 42.84 768.899 41.816ZM788.547 39.768L794.115 41.432C793.432 42.968 792.75 44.4827 792.067 45.976C791.427 47.4693 790.83 48.7493 790.275 49.816L785.603 48.408C785.944 47.5973 786.307 46.7013 786.691 45.72C787.075 44.696 787.416 43.672 787.715 42.648C788.056 41.5813 788.334 40.6213 788.547 39.768ZM777.155 50.52L781.507 53.016C780.483 54.808 779.267 56.7067 777.859 58.712C776.451 60.6747 774.936 62.5307 773.315 64.28C771.694 66.0293 770.072 67.48 768.451 68.632C768.195 67.608 767.768 66.456 767.171 65.176C766.616 63.8533 766.083 62.7227 765.571 61.784C767.022 60.9733 768.472 59.9493 769.923 58.712C771.416 57.432 772.803 56.088 774.083 54.68C775.363 53.2293 776.387 51.8427 777.155 50.52ZM768.387 66.84H794.307V91.928H788.355V72.536H774.019V92.696H768.387V66.84ZM796.419 35.288H807.235V41.688H796.419V35.288ZM803.843 35.288H809.987V85.208C809.987 86.7013 809.816 87.9387 809.475 88.92C809.176 89.9013 808.579 90.648 807.683 91.16C806.744 91.7147 805.614 92.056 804.291 92.184C802.968 92.3547 801.39 92.44 799.555 92.44C799.47 91.5867 799.235 90.52 798.851 89.24C798.467 88.0027 798.062 86.9573 797.635 86.104C798.744 86.1467 799.79 86.1893 800.771 86.232C801.795 86.232 802.499 86.2107 802.883 86.168C803.224 86.168 803.459 86.104 803.587 85.976C803.758 85.8053 803.843 85.5067 803.843 85.08V35.288ZM811.331 35.416H821.059V41.816H811.331V35.416ZM818.499 35.416H824.771V85.016C824.771 86.6373 824.6 87.9387 824.259 88.92C823.918 89.944 823.256 90.7333 822.275 91.288C821.294 91.8427 820.078 92.184 818.627 92.312C817.219 92.4827 815.512 92.568 813.507 92.568C813.422 91.672 813.166 90.5627 812.739 89.24C812.312 87.96 811.864 86.8933 811.395 86.04C812.632 86.0827 813.827 86.104 814.979 86.104C816.174 86.104 816.963 86.104 817.347 86.104C817.774 86.104 818.072 86.0187 818.243 85.848C818.414 85.6773 818.499 85.3787 818.499 84.952V35.416ZM795.395 48.024L800.195 46.808C800.75 48.088 801.283 49.496 801.795 51.032C802.35 52.5253 802.84 53.9973 803.267 55.448C803.694 56.856 804.014 58.0933 804.227 59.16L799.107 60.76C798.936 59.6507 798.638 58.3707 798.211 56.92C797.827 55.4693 797.379 53.9547 796.867 52.376C796.398 50.7973 795.907 49.3467 795.395 48.024ZM810.499 47.576L815.363 46.616C815.832 47.9387 816.28 49.3893 816.707 50.968C817.134 52.504 817.518 53.976 817.859 55.384C818.2 56.792 818.456 58.0293 818.627 59.096L813.443 60.376C813.315 59.2667 813.08 57.9867 812.739 56.536C812.44 55.0427 812.099 53.528 811.715 51.992C811.331 50.4133 810.926 48.9413 810.499 47.576ZM809.795 71.32C811.032 70.1253 812.568 68.632 814.403 66.84C816.238 65.0053 818.115 63.1067 820.035 61.144L822.915 66.008C821.336 67.7573 819.672 69.5493 817.923 71.384C816.174 73.2187 814.488 74.968 812.867 76.632L809.795 71.32ZM794.883 72.536C796.206 71.256 797.827 69.592 799.747 67.544C801.71 65.496 803.694 63.3627 805.699 61.144L808.771 65.944C807.022 67.9493 805.208 69.9973 803.331 72.088C801.454 74.136 799.64 76.0347 797.891 77.784L794.883 72.536Z" fill="url(#paint2_linear_112_3878)" fill-opacity="0.7"/>
<path d="M720.067 80.856C720.067 80.0453 720.067 78.7227 720.067 76.888C720.067 75.0107 720.067 72.856 720.067 70.424C720.067 67.9493 720.067 65.368 720.067 62.68C720.067 59.992 720.067 57.4107 720.067 54.936C720.067 52.4187 720.067 50.2 720.067 48.28C720.067 46.36 720.067 44.952 720.067 44.056C720.067 42.9467 720.003 41.6667 719.875 40.216C719.79 38.7653 719.64 37.4853 719.427 36.376H729.411C729.283 37.4853 729.155 38.7227 729.027 40.088C728.899 41.4107 728.835 42.7333 728.835 44.056C728.835 45.2507 728.835 46.872 728.835 48.92C728.835 50.968 728.835 53.2507 728.835 55.768C728.835 58.2427 728.835 60.7813 728.835 63.384C728.835 65.944 728.835 68.4187 728.835 70.808C728.835 73.1973 728.835 75.288 728.835 77.08C728.835 78.8293 728.835 80.088 728.835 80.856C728.835 81.4533 728.856 82.3067 728.899 83.416C728.942 84.4827 729.027 85.592 729.155 86.744C729.283 87.896 729.368 88.92 729.411 89.816H719.427C719.598 88.536 719.747 87.0427 719.875 85.336C720.003 83.6293 720.067 82.136 720.067 80.856ZM726.915 52.952C729.048 53.5067 731.438 54.232 734.083 55.128C736.728 55.9813 739.395 56.8987 742.083 57.88C744.771 58.8613 747.288 59.8427 749.635 60.824C752.024 61.7627 754.008 62.6373 755.587 63.448L751.939 72.28C750.147 71.3413 748.163 70.4027 745.987 69.464C743.811 68.4827 741.592 67.544 739.331 66.648C737.112 65.752 734.915 64.92 732.739 64.152C730.606 63.384 728.664 62.7013 726.915 62.104V52.952Z" fill="url(#paint3_linear_112_3878)" fill-opacity="0.7"/>
<path d="M689.347 43.608C689.091 43.992 688.707 44.5893 688.195 45.4C687.726 46.2107 687.363 46.9573 687.107 47.64C686.211 49.6453 685.102 51.8853 683.779 54.36C682.499 56.8347 681.027 59.3307 679.363 61.848C677.742 64.3227 676.014 66.648 674.179 68.824C671.79 71.512 669.144 74.1787 666.243 76.824C663.384 79.4267 660.355 81.8373 657.155 84.056C653.998 86.232 650.755 88.1093 647.427 89.688L640.835 82.776C644.291 81.4533 647.64 79.7893 650.883 77.784C654.126 75.7787 657.134 73.6027 659.907 71.256C662.68 68.9093 665.07 66.6267 667.075 64.408C668.483 62.7867 669.806 61.0587 671.043 59.224C672.323 57.3893 673.454 55.576 674.435 53.784C675.416 51.9493 676.142 50.264 676.611 48.728C676.184 48.728 675.416 48.728 674.307 48.728C673.198 48.728 671.896 48.728 670.403 48.728C668.952 48.728 667.416 48.728 665.795 48.728C664.174 48.728 662.616 48.728 661.123 48.728C659.672 48.728 658.392 48.728 657.283 48.728C656.174 48.728 655.384 48.728 654.915 48.728C654.019 48.728 653.08 48.7707 652.099 48.856C651.118 48.8987 650.179 48.9627 649.283 49.048C648.43 49.0907 647.768 49.1333 647.299 49.176V40.088C647.939 40.1307 648.728 40.1947 649.667 40.28C650.606 40.3653 651.544 40.4293 652.483 40.472C653.464 40.5147 654.275 40.536 654.915 40.536C655.47 40.536 656.344 40.536 657.539 40.536C658.734 40.536 660.099 40.536 661.635 40.536C663.171 40.536 664.75 40.536 666.371 40.536C668.035 40.536 669.614 40.536 671.107 40.536C672.643 40.536 673.966 40.536 675.075 40.536C676.184 40.536 676.995 40.536 677.507 40.536C678.915 40.536 680.195 40.4507 681.347 40.28C682.542 40.1093 683.459 39.9173 684.099 39.704L689.347 43.608ZM675.011 63.512C676.675 64.8347 678.446 66.3707 680.323 68.12C682.2 69.8693 684.056 71.6827 685.891 73.56C687.726 75.4373 689.411 77.2507 690.947 79C692.526 80.7067 693.848 82.2 694.915 83.48L687.619 89.816C686.04 87.64 684.227 85.3787 682.179 83.032C680.174 80.6853 678.04 78.36 675.779 76.056C673.56 73.7093 671.299 71.4907 668.995 69.4L675.011 63.512Z" fill="url(#paint4_linear_112_3878)" fill-opacity="0.7"/>
<path d="M597.205 41.304C597.034 40.3653 596.821 39.512 596.565 38.744C596.351 37.976 596.138 37.208 595.925 36.44L604.949 34.968C605.034 35.608 605.119 36.4187 605.205 37.4C605.333 38.3387 605.482 39.192 605.653 39.96C605.738 40.5573 605.93 41.6667 606.229 43.288C606.527 44.9093 606.89 46.872 607.317 49.176C607.743 51.48 608.213 53.976 608.725 56.664C609.279 59.3093 609.813 61.9973 610.325 64.728C610.837 67.416 611.327 69.976 611.797 72.408C612.309 74.84 612.735 76.9947 613.077 78.872C613.461 80.7493 613.738 82.136 613.909 83.032C614.122 83.9707 614.378 84.9947 614.677 86.104C614.975 87.2133 615.274 88.28 615.573 89.304L606.293 90.968C606.122 89.7733 605.994 88.6213 605.909 87.512C605.823 86.4453 605.674 85.4427 605.461 84.504C605.29 83.6507 605.034 82.3493 604.693 80.6C604.394 78.808 604.01 76.7173 603.541 74.328C603.114 71.9387 602.645 69.4 602.133 66.712C601.621 64.024 601.109 61.336 600.597 58.648C600.085 55.96 599.594 53.4427 599.125 51.096C598.698 48.7493 598.314 46.7227 597.973 45.016C597.631 43.2667 597.375 42.0293 597.205 41.304ZM579.733 49.432C580.757 49.3893 581.759 49.3467 582.741 49.304C583.722 49.2187 584.703 49.112 585.685 48.984C586.623 48.856 587.946 48.6853 589.653 48.472C591.359 48.216 593.322 47.9387 595.541 47.64C597.759 47.2987 600.042 46.936 602.389 46.552C604.778 46.168 607.082 45.8053 609.301 45.464C611.519 45.08 613.482 44.7387 615.189 44.44C616.938 44.1413 618.303 43.9067 619.285 43.736C620.309 43.5227 621.375 43.3093 622.485 43.096C623.594 42.84 624.533 42.6053 625.301 42.392L626.837 50.776C626.154 50.8187 625.237 50.9253 624.085 51.096C622.933 51.2667 621.887 51.416 620.949 51.544C619.797 51.7147 618.282 51.9493 616.405 52.248C614.57 52.5467 612.522 52.888 610.261 53.272C607.999 53.6133 605.695 53.976 603.349 54.36C601.002 54.7013 598.762 55.064 596.629 55.448C594.495 55.7893 592.618 56.088 590.997 56.344C589.375 56.6 588.159 56.792 587.349 56.92C586.325 57.1333 585.365 57.3467 584.469 57.56C583.573 57.7307 582.57 57.9653 581.461 58.264L579.733 49.432ZM579.797 68.248C580.65 68.2053 581.717 68.12 582.997 67.992C584.319 67.8213 585.471 67.672 586.453 67.544C587.605 67.3733 589.141 67.1387 591.061 66.84C592.981 66.5413 595.135 66.2 597.525 65.816C599.957 65.432 602.453 65.048 605.013 64.664C607.573 64.2373 610.069 63.8107 612.501 63.384C614.933 62.9573 617.151 62.5733 619.157 62.232C621.162 61.8907 622.783 61.6133 624.021 61.4C625.258 61.144 626.431 60.888 627.541 60.632C628.693 60.376 629.695 60.12 630.549 59.864L632.277 68.312C631.423 68.3547 630.378 68.4827 629.141 68.696C627.946 68.8667 626.73 69.0587 625.493 69.272C624.127 69.4853 622.421 69.7627 620.373 70.104C618.325 70.4453 616.063 70.8293 613.589 71.256C611.157 71.64 608.661 72.0453 606.101 72.472C603.541 72.856 601.087 73.2613 598.741 73.688C596.394 74.072 594.282 74.4133 592.405 74.712C590.527 75.0107 589.055 75.2667 587.989 75.48C586.623 75.736 585.386 75.9707 584.277 76.184C583.21 76.3973 582.314 76.6107 581.589 76.824L579.797 68.248Z" fill="url(#paint5_linear_112_3878)" fill-opacity="0.7"/>
<path d="M522.773 37.912C523.839 38.0827 524.991 38.2107 526.229 38.296C527.466 38.3387 528.597 38.36 529.621 38.36C530.431 38.36 531.711 38.36 533.461 38.36C535.21 38.36 537.173 38.36 539.349 38.36C541.525 38.36 543.701 38.36 545.877 38.36C548.053 38.36 549.973 38.36 551.637 38.36C553.343 38.36 554.581 38.36 555.349 38.36C556.458 38.36 557.61 38.3387 558.805 38.296C559.999 38.2107 561.151 38.0827 562.261 37.912V46.168C561.151 46.0827 559.999 46.0187 558.805 45.976C557.61 45.9333 556.458 45.912 555.349 45.912C554.581 45.912 553.343 45.912 551.637 45.912C549.973 45.912 548.053 45.912 545.877 45.912C543.701 45.912 541.525 45.912 539.349 45.912C537.173 45.912 535.21 45.912 533.461 45.912C531.754 45.912 530.495 45.912 529.685 45.912C528.575 45.912 527.381 45.9333 526.101 45.976C524.863 46.0187 523.754 46.0827 522.773 46.168V37.912ZM515.349 54.296C516.287 54.3813 517.29 54.4667 518.357 54.552C519.466 54.6373 520.511 54.68 521.493 54.68C522.047 54.68 523.157 54.68 524.821 54.68C526.485 54.68 528.49 54.68 530.837 54.68C533.183 54.68 535.701 54.68 538.389 54.68C541.119 54.68 543.829 54.68 546.517 54.68C549.247 54.68 551.786 54.68 554.133 54.68C556.479 54.68 558.463 54.68 560.085 54.68C561.749 54.68 562.858 54.68 563.413 54.68C564.095 54.68 565.013 54.6587 566.165 54.616C567.359 54.5307 568.383 54.424 569.237 54.296V62.616C568.469 62.5307 567.53 62.488 566.421 62.488C565.311 62.4453 564.309 62.424 563.413 62.424C562.858 62.424 561.749 62.424 560.085 62.424C558.463 62.424 556.479 62.424 554.133 62.424C551.786 62.424 549.247 62.424 546.517 62.424C543.829 62.424 541.119 62.424 538.389 62.424C535.701 62.424 533.183 62.424 530.837 62.424C528.49 62.424 526.485 62.424 524.821 62.424C523.157 62.424 522.047 62.424 521.493 62.424C520.554 62.424 519.509 62.4453 518.357 62.488C517.247 62.5307 516.245 62.5947 515.349 62.68V54.296ZM548.117 58.712C548.117 62.8933 547.754 66.648 547.029 69.976C546.303 73.2613 545.258 76.2267 543.893 78.872C543.125 80.3227 542.101 81.816 540.821 83.352C539.541 84.888 538.069 86.3387 536.405 87.704C534.741 89.0693 532.949 90.2213 531.029 91.16L523.541 85.72C525.802 84.824 527.978 83.544 530.069 81.88C532.159 80.216 533.845 78.4453 535.125 76.568C536.746 74.0933 537.834 71.3627 538.389 68.376C538.943 65.3893 539.221 62.1893 539.221 58.776L548.117 58.712Z" fill="url(#paint6_linear_112_3878)" fill-opacity="0.7"/>
</g>
</g>
<path d="M410 81H991V107C991 113.627 985.627 119 979 119H422C415.373 119 410 113.627 410 107V81Z" fill="url(#paint7_linear_112_3878)"/>
<path d="M862.835 23.288H888.243V51H862.835V43.768H880.563V30.584H862.835V23.288ZM858.547 23.288H866.099V46.904C866.099 49.5067 865.971 52.3227 865.715 55.352C865.502 58.3813 865.075 61.432 864.435 64.504C863.795 67.576 862.857 70.52 861.619 73.336C860.425 76.152 858.825 78.648 856.819 80.824C856.435 80.3547 855.881 79.7787 855.155 79.096C854.43 78.4133 853.683 77.752 852.915 77.112C852.19 76.472 851.55 76.0027 850.995 75.704C852.745 73.7413 854.131 71.5867 855.155 69.24C856.179 66.8507 856.926 64.376 857.395 61.816C857.865 59.2133 858.163 56.6533 858.291 54.136C858.462 51.6187 858.547 49.208 858.547 46.904V23.288ZM878.707 47.736C879.219 51.832 879.923 55.4587 880.819 58.616C881.715 61.7733 882.995 64.6107 884.659 67.128C886.366 69.6027 888.627 71.9493 891.443 74.168C890.419 74.9787 889.417 75.9813 888.435 77.176C887.454 78.4133 886.707 79.6293 886.195 80.824C882.867 78.008 880.222 75.0213 878.259 71.864C876.297 68.7067 874.803 65.2293 873.779 61.432C872.755 57.6347 871.945 53.3893 871.347 48.696L878.707 47.736ZM833.459 40.248H852.787V46.072H833.459V40.248ZM833.715 22.648H852.659V28.408H833.715V22.648ZM833.459 49.016H852.787V54.776H833.459V49.016ZM830.451 31.224H854.899V37.304H830.451V31.224ZM836.787 57.848H852.915V77.368H836.787V71.288H846.323V63.928H836.787V57.848ZM833.331 57.848H839.795V79.864H833.331V57.848Z" fill="url(#paint8_linear_112_3878)"/>
<path d="M767.155 35.768H795.251V41.336H767.155V35.768ZM772.275 63.608H790.899V68.536H772.275V63.608ZM772.467 71.928H790.451V77.624H772.467V71.928ZM778.803 26.68H785.203V53.88H778.803V26.68ZM779.315 58.296H784.499V74.872H779.315V58.296ZM791.667 20.792L795.443 25.848C793.011 26.4027 790.281 26.872 787.251 27.256C784.222 27.64 781.129 27.9387 777.971 28.152C774.857 28.3653 771.849 28.5147 768.947 28.6C768.862 27.8747 768.649 27.0427 768.307 26.104C768.009 25.1227 767.689 24.312 767.347 23.672C770.163 23.4587 773.065 23.224 776.051 22.968C779.038 22.712 781.875 22.4133 784.563 22.072C787.294 21.688 789.662 21.2613 791.667 20.792ZM784.371 39.736C784.969 40.0347 785.801 40.5467 786.867 41.272C787.977 41.9547 789.129 42.7013 790.323 43.512C791.561 44.3227 792.691 45.0907 793.715 45.816C794.739 46.4987 795.465 46.9893 795.891 47.288L792.051 53.24C791.497 52.5573 790.75 51.768 789.811 50.872C788.915 49.9333 787.913 48.9733 786.803 47.992C785.737 46.968 784.713 46.008 783.731 45.112C782.75 44.216 781.918 43.4907 781.235 42.936L784.371 39.736ZM769.459 29.816L774.387 28.536C774.814 29.56 775.241 30.6693 775.667 31.864C776.137 33.0587 776.478 34.0613 776.691 34.872L771.507 36.408C771.294 35.5547 770.995 34.5093 770.611 33.272C770.227 31.992 769.843 30.84 769.459 29.816ZM789.107 27.768L794.675 29.432C793.993 30.968 793.31 32.4827 792.627 33.976C791.987 35.4693 791.39 36.7493 790.835 37.816L786.163 36.408C786.505 35.5973 786.867 34.7013 787.251 33.72C787.635 32.696 787.977 31.672 788.275 30.648C788.617 29.5813 788.894 28.6213 789.107 27.768ZM777.715 38.52L782.067 41.016C781.043 42.808 779.827 44.7067 778.419 46.712C777.011 48.6747 775.497 50.5307 773.875 52.28C772.254 54.0293 770.633 55.48 769.011 56.632C768.755 55.608 768.329 54.456 767.731 53.176C767.177 51.8533 766.643 50.7227 766.131 49.784C767.582 48.9733 769.033 47.9493 770.483 46.712C771.977 45.432 773.363 44.088 774.643 42.68C775.923 41.2293 776.947 39.8427 777.715 38.52ZM768.947 54.84H794.867V79.928H788.915V60.536H774.579V80.696H768.947V54.84ZM796.979 23.288H807.795V29.688H796.979V23.288ZM804.403 23.288H810.547V73.208C810.547 74.7013 810.377 75.9387 810.035 76.92C809.737 77.9013 809.139 78.648 808.243 79.16C807.305 79.7147 806.174 80.056 804.851 80.184C803.529 80.3547 801.95 80.44 800.115 80.44C800.03 79.5867 799.795 78.52 799.411 77.24C799.027 76.0027 798.622 74.9573 798.195 74.104C799.305 74.1467 800.35 74.1893 801.331 74.232C802.355 74.232 803.059 74.2107 803.443 74.168C803.785 74.168 804.019 74.104 804.147 73.976C804.318 73.8053 804.403 73.5067 804.403 73.08V23.288ZM811.891 23.416H821.619V29.816H811.891V23.416ZM819.059 23.416H825.331V73.016C825.331 74.6373 825.161 75.9387 824.819 76.92C824.478 77.944 823.817 78.7333 822.835 79.288C821.854 79.8427 820.638 80.184 819.187 80.312C817.779 80.4827 816.073 80.568 814.067 80.568C813.982 79.672 813.726 78.5627 813.299 77.24C812.873 75.96 812.425 74.8933 811.955 74.04C813.193 74.0827 814.387 74.104 815.539 74.104C816.734 74.104 817.523 74.104 817.907 74.104C818.334 74.104 818.633 74.0187 818.803 73.848C818.974 73.6773 819.059 73.3787 819.059 72.952V23.416ZM795.955 36.024L800.755 34.808C801.31 36.088 801.843 37.496 802.355 39.032C802.91 40.5253 803.401 41.9973 803.827 43.448C804.254 44.856 804.574 46.0933 804.787 47.16L799.667 48.76C799.497 47.6507 799.198 46.3707 798.771 44.92C798.387 43.4693 797.939 41.9547 797.427 40.376C796.958 38.7973 796.467 37.3467 795.955 36.024ZM811.059 35.576L815.923 34.616C816.393 35.9387 816.841 37.3893 817.267 38.968C817.694 40.504 818.078 41.976 818.419 43.384C818.761 44.792 819.017 46.0293 819.187 47.096L814.003 48.376C813.875 47.2667 813.641 45.9867 813.299 44.536C813.001 43.0427 812.659 41.528 812.275 39.992C811.891 38.4133 811.486 36.9413 811.059 35.576ZM810.355 59.32C811.593 58.1253 813.129 56.632 814.963 54.84C816.798 53.0053 818.675 51.1067 820.595 49.144L823.475 54.008C821.897 55.7573 820.233 57.5493 818.483 59.384C816.734 61.2187 815.049 62.968 813.427 64.632L810.355 59.32ZM795.443 60.536C796.766 59.256 798.387 57.592 800.307 55.544C802.27 53.496 804.254 51.3627 806.259 49.144L809.331 53.944C807.582 55.9493 805.769 57.9973 803.891 60.088C802.014 62.136 800.201 64.0347 798.451 65.784L795.443 60.536Z" fill="url(#paint9_linear_112_3878)"/>
<path d="M720.627 68.856C720.627 68.0453 720.627 66.7227 720.627 64.888C720.627 63.0107 720.627 60.856 720.627 58.424C720.627 55.9493 720.627 53.368 720.627 50.68C720.627 47.992 720.627 45.4107 720.627 42.936C720.627 40.4187 720.627 38.2 720.627 36.28C720.627 34.36 720.627 32.952 720.627 32.056C720.627 30.9467 720.563 29.6667 720.435 28.216C720.35 26.7653 720.201 25.4853 719.987 24.376H729.971C729.843 25.4853 729.715 26.7227 729.587 28.088C729.459 29.4107 729.395 30.7333 729.395 32.056C729.395 33.2507 729.395 34.872 729.395 36.92C729.395 38.968 729.395 41.2507 729.395 43.768C729.395 46.2427 729.395 48.7813 729.395 51.384C729.395 53.944 729.395 56.4187 729.395 58.808C729.395 61.1973 729.395 63.288 729.395 65.08C729.395 66.8293 729.395 68.088 729.395 68.856C729.395 69.4533 729.417 70.3067 729.459 71.416C729.502 72.4827 729.587 73.592 729.715 74.744C729.843 75.896 729.929 76.92 729.971 77.816H719.987C720.158 76.536 720.307 75.0427 720.435 73.336C720.563 71.6293 720.627 70.136 720.627 68.856ZM727.475 40.952C729.609 41.5067 731.998 42.232 734.643 43.128C737.289 43.9813 739.955 44.8987 742.643 45.88C745.331 46.8613 747.849 47.8427 750.195 48.824C752.585 49.7627 754.569 50.6373 756.147 51.448L752.499 60.28C750.707 59.3413 748.723 58.4027 746.547 57.464C744.371 56.4827 742.153 55.544 739.891 54.648C737.673 53.752 735.475 52.92 733.299 52.152C731.166 51.384 729.225 50.7013 727.475 50.104V40.952Z" fill="url(#paint10_linear_112_3878)"/>
<path d="M689.907 31.608C689.651 31.992 689.267 32.5893 688.755 33.4C688.286 34.2107 687.923 34.9573 687.667 35.64C686.771 37.6453 685.662 39.8853 684.339 42.36C683.059 44.8347 681.587 47.3307 679.923 49.848C678.302 52.3227 676.574 54.648 674.739 56.824C672.35 59.512 669.705 62.1787 666.803 64.824C663.945 67.4267 660.915 69.8373 657.715 72.056C654.558 74.232 651.315 76.1093 647.987 77.688L641.395 70.776C644.851 69.4533 648.201 67.7893 651.443 65.784C654.686 63.7787 657.694 61.6027 660.467 59.256C663.241 56.9093 665.63 54.6267 667.635 52.408C669.043 50.7867 670.366 49.0587 671.603 47.224C672.883 45.3893 674.014 43.576 674.995 41.784C675.977 39.9493 676.702 38.264 677.171 36.728C676.745 36.728 675.977 36.728 674.867 36.728C673.758 36.728 672.457 36.728 670.963 36.728C669.513 36.728 667.977 36.728 666.355 36.728C664.734 36.728 663.177 36.728 661.683 36.728C660.233 36.728 658.953 36.728 657.843 36.728C656.734 36.728 655.945 36.728 655.475 36.728C654.579 36.728 653.641 36.7707 652.659 36.856C651.678 36.8987 650.739 36.9627 649.843 37.048C648.99 37.0907 648.329 37.1333 647.859 37.176V28.088C648.499 28.1307 649.289 28.1947 650.227 28.28C651.166 28.3653 652.105 28.4293 653.043 28.472C654.025 28.5147 654.835 28.536 655.475 28.536C656.03 28.536 656.905 28.536 658.099 28.536C659.294 28.536 660.659 28.536 662.195 28.536C663.731 28.536 665.31 28.536 666.931 28.536C668.595 28.536 670.174 28.536 671.667 28.536C673.203 28.536 674.526 28.536 675.635 28.536C676.745 28.536 677.555 28.536 678.067 28.536C679.475 28.536 680.755 28.4507 681.907 28.28C683.102 28.1093 684.019 27.9173 684.659 27.704L689.907 31.608ZM675.571 51.512C677.235 52.8347 679.006 54.3707 680.883 56.12C682.761 57.8693 684.617 59.6827 686.451 61.56C688.286 63.4373 689.971 65.2507 691.507 67C693.086 68.7067 694.409 70.2 695.475 71.48L688.179 77.816C686.601 75.64 684.787 73.3787 682.739 71.032C680.734 68.6853 678.601 66.36 676.339 64.056C674.121 61.7093 671.859 59.4907 669.555 57.4L675.571 51.512Z" fill="url(#paint11_linear_112_3878)"/>
<path d="M597.765 29.304C597.594 28.3653 597.381 27.512 597.125 26.744C596.911 25.976 596.698 25.208 596.485 24.44L605.509 22.968C605.594 23.608 605.679 24.4187 605.765 25.4C605.893 26.3387 606.042 27.192 606.213 27.96C606.298 28.5573 606.49 29.6667 606.789 31.288C607.087 32.9093 607.45 34.872 607.877 37.176C608.303 39.48 608.773 41.976 609.285 44.664C609.839 47.3093 610.373 49.9973 610.885 52.728C611.397 55.416 611.887 57.976 612.357 60.408C612.869 62.84 613.295 64.9947 613.637 66.872C614.021 68.7493 614.298 70.136 614.469 71.032C614.682 71.9707 614.938 72.9947 615.237 74.104C615.535 75.2133 615.834 76.28 616.133 77.304L606.853 78.968C606.682 77.7733 606.554 76.6213 606.469 75.512C606.383 74.4453 606.234 73.4427 606.021 72.504C605.85 71.6507 605.594 70.3493 605.253 68.6C604.954 66.808 604.57 64.7173 604.101 62.328C603.674 59.9387 603.205 57.4 602.693 54.712C602.181 52.024 601.669 49.336 601.157 46.648C600.645 43.96 600.154 41.4427 599.685 39.096C599.258 36.7493 598.874 34.7227 598.533 33.016C598.191 31.2667 597.935 30.0293 597.765 29.304ZM580.293 37.432C581.317 37.3893 582.319 37.3467 583.301 37.304C584.282 37.2187 585.263 37.112 586.245 36.984C587.183 36.856 588.506 36.6853 590.213 36.472C591.919 36.216 593.882 35.9387 596.101 35.64C598.319 35.2987 600.602 34.936 602.949 34.552C605.338 34.168 607.642 33.8053 609.861 33.464C612.079 33.08 614.042 32.7387 615.749 32.44C617.498 32.1413 618.863 31.9067 619.845 31.736C620.869 31.5227 621.935 31.3093 623.045 31.096C624.154 30.84 625.093 30.6053 625.861 30.392L627.397 38.776C626.714 38.8187 625.797 38.9253 624.645 39.096C623.493 39.2667 622.447 39.416 621.509 39.544C620.357 39.7147 618.842 39.9493 616.965 40.248C615.13 40.5467 613.082 40.888 610.821 41.272C608.559 41.6133 606.255 41.976 603.909 42.36C601.562 42.7013 599.322 43.064 597.189 43.448C595.055 43.7893 593.178 44.088 591.557 44.344C589.935 44.6 588.719 44.792 587.909 44.92C586.885 45.1333 585.925 45.3467 585.029 45.56C584.133 45.7307 583.13 45.9653 582.021 46.264L580.293 37.432ZM580.357 56.248C581.21 56.2053 582.277 56.12 583.557 55.992C584.879 55.8213 586.031 55.672 587.013 55.544C588.165 55.3733 589.701 55.1387 591.621 54.84C593.541 54.5413 595.695 54.2 598.085 53.816C600.517 53.432 603.013 53.048 605.573 52.664C608.133 52.2373 610.629 51.8107 613.061 51.384C615.493 50.9573 617.711 50.5733 619.717 50.232C621.722 49.8907 623.343 49.6133 624.581 49.4C625.818 49.144 626.991 48.888 628.101 48.632C629.253 48.376 630.255 48.12 631.109 47.864L632.837 56.312C631.983 56.3547 630.938 56.4827 629.701 56.696C628.506 56.8667 627.29 57.0587 626.053 57.272C624.687 57.4853 622.981 57.7627 620.933 58.104C618.885 58.4453 616.623 58.8293 614.149 59.256C611.717 59.64 609.221 60.0453 606.661 60.472C604.101 60.856 601.647 61.2613 599.301 61.688C596.954 62.072 594.842 62.4133 592.965 62.712C591.087 63.0107 589.615 63.2667 588.549 63.48C587.183 63.736 585.946 63.9707 584.837 64.184C583.77 64.3973 582.874 64.6107 582.149 64.824L580.357 56.248Z" fill="url(#paint12_linear_112_3878)"/>
<path d="M523.333 25.912C524.399 26.0827 525.551 26.2107 526.789 26.296C528.026 26.3387 529.157 26.36 530.181 26.36C530.991 26.36 532.271 26.36 534.021 26.36C535.77 26.36 537.733 26.36 539.909 26.36C542.085 26.36 544.261 26.36 546.437 26.36C548.613 26.36 550.533 26.36 552.197 26.36C553.903 26.36 555.141 26.36 555.909 26.36C557.018 26.36 558.17 26.3387 559.365 26.296C560.559 26.2107 561.711 26.0827 562.821 25.912V34.168C561.711 34.0827 560.559 34.0187 559.365 33.976C558.17 33.9333 557.018 33.912 555.909 33.912C555.141 33.912 553.903 33.912 552.197 33.912C550.533 33.912 548.613 33.912 546.437 33.912C544.261 33.912 542.085 33.912 539.909 33.912C537.733 33.912 535.77 33.912 534.021 33.912C532.314 33.912 531.055 33.912 530.245 33.912C529.135 33.912 527.941 33.9333 526.661 33.976C525.423 34.0187 524.314 34.0827 523.333 34.168V25.912ZM515.909 42.296C516.847 42.3813 517.85 42.4667 518.917 42.552C520.026 42.6373 521.071 42.68 522.053 42.68C522.607 42.68 523.717 42.68 525.381 42.68C527.045 42.68 529.05 42.68 531.397 42.68C533.743 42.68 536.261 42.68 538.949 42.68C541.679 42.68 544.389 42.68 547.077 42.68C549.807 42.68 552.346 42.68 554.693 42.68C557.039 42.68 559.023 42.68 560.645 42.68C562.309 42.68 563.418 42.68 563.973 42.68C564.655 42.68 565.573 42.6587 566.725 42.616C567.919 42.5307 568.943 42.424 569.797 42.296V50.616C569.029 50.5307 568.09 50.488 566.981 50.488C565.871 50.4453 564.869 50.424 563.973 50.424C563.418 50.424 562.309 50.424 560.645 50.424C559.023 50.424 557.039 50.424 554.693 50.424C552.346 50.424 549.807 50.424 547.077 50.424C544.389 50.424 541.679 50.424 538.949 50.424C536.261 50.424 533.743 50.424 531.397 50.424C529.05 50.424 527.045 50.424 525.381 50.424C523.717 50.424 522.607 50.424 522.053 50.424C521.114 50.424 520.069 50.4453 518.917 50.488C517.807 50.5307 516.805 50.5947 515.909 50.68V42.296ZM548.677 46.712C548.677 50.8933 548.314 54.648 547.589 57.976C546.863 61.2613 545.818 64.2267 544.453 66.872C543.685 68.3227 542.661 69.816 541.381 71.352C540.101 72.888 538.629 74.3387 536.965 75.704C535.301 77.0693 533.509 78.2213 531.589 79.16L524.101 73.72C526.362 72.824 528.538 71.544 530.629 69.88C532.719 68.216 534.405 66.4453 535.685 64.568C537.306 62.0933 538.394 59.3627 538.949 56.376C539.503 53.3893 539.781 50.1893 539.781 46.776L548.677 46.712Z" fill="url(#paint13_linear_112_3878)"/>
<defs>
<filter id="filter0_f_112_3878" x="495.349" y="12.792" width="415.535" height="100.032" filterUnits="userSpaceOnUse" color-interpolation-filters="sRGB">
<feFlood flood-opacity="0" result="BackgroundImageFix"/>
<feBlend mode="normal" in="SourceGraphic" in2="BackgroundImageFix" result="shape"/>
<feGaussianBlur stdDeviation="10" result="effect1_foregroundBlur_112_3878"/>
</filter>
<linearGradient id="paint0_linear_112_3878" x1="410" y1="73.0036" x2="991" y2="73.0032" gradientUnits="userSpaceOnUse">
<stop stop-color="white" stop-opacity="0.3"/>
<stop offset="0.495" stop-color="#CBB0F8"/>
<stop offset="1" stop-color="white" stop-opacity="0.3"/>
</linearGradient>
<linearGradient id="paint1_linear_112_3878" x1="900.468" y1="58.4368" x2="-1457.71" y2="58.4378" gradientUnits="userSpaceOnUse">
<stop stop-color="#F4439F"/>
<stop offset="1" stop-color="#7C3AED"/>
</linearGradient>
<linearGradient id="paint2_linear_112_3878" x1="1320.14" y1="59.5571" x2="-1109.42" y2="59.5581" gradientUnits="userSpaceOnUse">
<stop stop-color="#F4439F"/>
<stop offset="1" stop-color="#7C3AED"/>
</linearGradient>
<linearGradient id="paint3_linear_112_3878" x1="2312.15" y1="58.7685" x2="-1665.44" y2="58.771" gradientUnits="userSpaceOnUse">
<stop stop-color="#F4439F"/>
<stop offset="1" stop-color="#7C3AED"/>
</linearGradient>
<linearGradient id="paint4_linear_112_3878" x1="2262.51" y1="56.5068" x2="-397.067" y2="56.5078" gradientUnits="userSpaceOnUse">
<stop stop-color="#F4439F"/>
<stop offset="1" stop-color="#7C3AED"/>
</linearGradient>
<linearGradient id="paint5_linear_112_3878" x1="2750.28" y1="59.0903" x2="12.963" y2="59.0915" gradientUnits="userSpaceOnUse">
<stop stop-color="#F4439F"/>
<stop offset="1" stop-color="#7C3AED"/>
</linearGradient>
<linearGradient id="paint6_linear_112_3878" x1="892.44" y1="59.5001" x2="509.44" y2="59.5001" gradientUnits="userSpaceOnUse">
<stop stop-color="#F4439F"/>
<stop offset="1" stop-color="#7C3AED"/>
</linearGradient>
<linearGradient id="paint7_linear_112_3878" x1="700.5" y1="81" x2="700.5" y2="119" gradientUnits="userSpaceOnUse">
<stop offset="0.0001" stop-color="white" stop-opacity="0.1"/>
<stop offset="1" stop-color="white" stop-opacity="0"/>
</linearGradient>
<linearGradient id="paint8_linear_112_3878" x1="901.028" y1="-1.54666" x2="291.177" y2="1068.6" gradientUnits="userSpaceOnUse">
<stop stop-color="#F4439F"/>
<stop offset="1" stop-color="#7C3AED"/>
</linearGradient>
<linearGradient id="paint9_linear_112_3878" x1="1320.7" y1="0.957706" x2="746.74" y2="1069.43" gradientUnits="userSpaceOnUse">
<stop stop-color="#F4439F"/>
<stop offset="1" stop-color="#7C3AED"/>
</linearGradient>
<linearGradient id="paint10_linear_112_3878" x1="2312.71" y1="-5.46753" x2="1812.71" y2="1353.96" gradientUnits="userSpaceOnUse">
<stop stop-color="#F4439F"/>
<stop offset="1" stop-color="#7C3AED"/>
</linearGradient>
<linearGradient id="paint11_linear_112_3878" x1="2263.07" y1="-11.1982" x2="1544.78" y2="1213.27" gradientUnits="userSpaceOnUse">
<stop stop-color="#F4439F"/>
<stop offset="1" stop-color="#7C3AED"/>
</linearGradient>
<linearGradient id="paint12_linear_112_3878" x1="2750.84" y1="-2.75773" x2="2154.75" y2="1166" gradientUnits="userSpaceOnUse">
<stop stop-color="#F4439F"/>
<stop offset="1" stop-color="#7C3AED"/>
</linearGradient>
<linearGradient id="paint13_linear_112_3878" x1="893" y1="1.00013" x2="521.124" y2="110.365" gradientUnits="userSpaceOnUse">
<stop stop-color="#F4439F"/>
<stop offset="1" stop-color="#7C3AED"/>
</linearGradient>
</defs>
</svg>
