<svg width="1400" height="120" viewBox="0 0 1400 120" fill="none" xmlns="http://www.w3.org/2000/svg">
<path d="M472 65H928V81H472V65Z" fill="url(#paint0_linear_112_3846)"/>
<mask id="mask0_112_3846" style="mask-type:alpha" maskUnits="userSpaceOnUse" x="472" y="81" width="456" height="38">
<path d="M472 81H928V119H472V81Z" fill="#C4C4C4"/>
</mask>
<g mask="url(#mask0_112_3846)">
<g filter="url(#filter0_f_112_3846)">
<path d="M797.304 35.2885H822.712V63.0005H797.304V55.7685H815.032V42.5845H797.304V35.2885ZM793.016 35.2885H800.568V58.9045C800.568 61.5072 800.44 64.3232 800.184 67.3525C799.971 70.3818 799.544 73.4325 798.904 76.5045C798.264 79.5765 797.325 82.5205 796.088 85.3365C794.893 88.1525 793.293 90.6485 791.288 92.8245C790.904 92.3552 790.349 91.7792 789.624 91.0965C788.899 90.4139 788.152 89.7525 787.384 89.1125C786.659 88.4725 786.019 88.0032 785.464 87.7045C787.213 85.7419 788.6 83.5872 789.624 81.2405C790.648 78.8512 791.395 76.3765 791.864 73.8165C792.333 71.2139 792.632 68.6539 792.76 66.1365C792.931 63.6192 793.016 61.2085 793.016 58.9045V35.2885ZM813.176 59.7365C813.688 63.8325 814.392 67.4592 815.288 70.6165C816.184 73.7738 817.464 76.6112 819.128 79.1285C820.835 81.6032 823.096 83.9499 825.912 86.1685C824.888 86.9792 823.885 87.9819 822.904 89.1765C821.923 90.4139 821.176 91.6298 820.664 92.8245C817.336 90.0085 814.691 87.0219 812.728 83.8645C810.765 80.7072 809.272 77.2299 808.248 73.4325C807.224 69.6352 806.413 65.3899 805.816 60.6965L813.176 59.7365ZM767.928 52.2485H787.256V58.0725H767.928V52.2485ZM768.184 34.6485H787.128V40.4085H768.184V34.6485ZM767.928 61.0165H787.256V66.7765H767.928V61.0165ZM764.92 43.2245H789.368V49.3045H764.92V43.2245ZM771.256 69.8485H787.384V89.3685H771.256V83.2885H780.792V75.9285H771.256V69.8485ZM767.8 69.8485H774.264V91.8645H767.8V69.8485Z" fill="url(#paint1_linear_112_3846)" fill-opacity="0.7"/>
<path d="M701.624 47.7685H729.72V53.3365H701.624V47.7685ZM706.744 75.6085H725.368V80.5365H706.744V75.6085ZM706.936 83.9285H724.92V89.6245H706.936V83.9285ZM713.272 38.6805H719.672V65.8805H713.272V38.6805ZM713.784 70.2965H718.968V86.8725H713.784V70.2965ZM726.136 32.7925L729.912 37.8485C727.48 38.4032 724.749 38.8725 721.72 39.2565C718.691 39.6405 715.597 39.9392 712.44 40.1525C709.325 40.3658 706.317 40.5152 703.416 40.6005C703.331 39.8752 703.117 39.0432 702.776 38.1045C702.477 37.1232 702.157 36.3125 701.816 35.6725C704.632 35.4592 707.533 35.2245 710.52 34.9685C713.507 34.7125 716.344 34.4138 719.032 34.0725C721.763 33.6885 724.131 33.2618 726.136 32.7925ZM718.84 51.7365C719.437 52.0352 720.269 52.5472 721.336 53.2725C722.445 53.9552 723.597 54.7019 724.792 55.5125C726.029 56.3232 727.16 57.0912 728.184 57.8165C729.208 58.4992 729.933 58.9899 730.36 59.2885L726.52 65.2405C725.965 64.5578 725.219 63.7685 724.28 62.8725C723.384 61.9339 722.381 60.9738 721.272 59.9925C720.205 58.9685 719.181 58.0085 718.2 57.1125C717.219 56.2165 716.387 55.4912 715.704 54.9365L718.84 51.7365ZM703.928 41.8165L708.856 40.5365C709.283 41.5605 709.709 42.6699 710.136 43.8645C710.605 45.0592 710.947 46.0619 711.16 46.8725L705.976 48.4085C705.763 47.5552 705.464 46.5099 705.08 45.2725C704.696 43.9925 704.312 42.8405 703.928 41.8165ZM723.576 39.7685L729.144 41.4325C728.461 42.9685 727.779 44.4832 727.096 45.9765C726.456 47.4699 725.859 48.7499 725.304 49.8165L720.632 48.4085C720.973 47.5978 721.336 46.7018 721.72 45.7205C722.104 44.6965 722.445 43.6725 722.744 42.6485C723.085 41.5818 723.363 40.6218 723.576 39.7685ZM712.184 50.5205L716.536 53.0165C715.512 54.8085 714.296 56.7072 712.888 58.7125C711.48 60.6752 709.965 62.5312 708.344 64.2805C706.723 66.0299 705.101 67.4805 703.48 68.6325C703.224 67.6085 702.797 66.4565 702.2 65.1765C701.645 63.8539 701.112 62.7232 700.6 61.7845C702.051 60.9738 703.501 59.9499 704.952 58.7125C706.445 57.4325 707.832 56.0885 709.112 54.6805C710.392 53.2299 711.416 51.8432 712.184 50.5205ZM703.416 66.8405H729.336V91.9285H723.384V72.5365H709.048V92.6965H703.416V66.8405ZM731.448 35.2885H742.264V41.6885H731.448V35.2885ZM738.872 35.2885H745.016V85.2085C745.016 86.7019 744.845 87.9392 744.504 88.9205C744.205 89.9019 743.608 90.6485 742.712 91.1605C741.773 91.7152 740.643 92.0565 739.32 92.1845C737.997 92.3552 736.419 92.4405 734.584 92.4405C734.499 91.5872 734.264 90.5205 733.88 89.2405C733.496 88.0032 733.091 86.9578 732.664 86.1045C733.773 86.1472 734.819 86.1899 735.8 86.2325C736.824 86.2325 737.528 86.2112 737.912 86.1685C738.253 86.1685 738.488 86.1045 738.616 85.9765C738.787 85.8059 738.872 85.5072 738.872 85.0805V35.2885ZM746.36 35.4165H756.088V41.8165H746.36V35.4165ZM753.528 35.4165H759.8V85.0165C759.8 86.6379 759.629 87.9392 759.288 88.9205C758.947 89.9445 758.285 90.7339 757.304 91.2885C756.323 91.8432 755.107 92.1845 753.656 92.3125C752.248 92.4832 750.541 92.5685 748.536 92.5685C748.451 91.6725 748.195 90.5632 747.768 89.2405C747.341 87.9605 746.893 86.8939 746.424 86.0405C747.661 86.0832 748.856 86.1045 750.008 86.1045C751.203 86.1045 751.992 86.1045 752.376 86.1045C752.803 86.1045 753.101 86.0192 753.272 85.8485C753.443 85.6779 753.528 85.3792 753.528 84.9525V35.4165ZM730.424 48.0245L735.224 46.8085C735.779 48.0885 736.312 49.4965 736.824 51.0325C737.379 52.5259 737.869 53.9979 738.296 55.4485C738.723 56.8565 739.043 58.0938 739.256 59.1605L734.136 60.7605C733.965 59.6512 733.667 58.3712 733.24 56.9205C732.856 55.4699 732.408 53.9552 731.896 52.3765C731.427 50.7979 730.936 49.3472 730.424 48.0245ZM745.528 47.5765L750.392 46.6165C750.861 47.9392 751.309 49.3899 751.736 50.9685C752.163 52.5045 752.547 53.9765 752.888 55.3845C753.229 56.7925 753.485 58.0299 753.656 59.0965L748.472 60.3765C748.344 59.2672 748.109 57.9872 747.768 56.5365C747.469 55.0432 747.128 53.5285 746.744 51.9925C746.36 50.4138 745.955 48.9418 745.528 47.5765ZM744.824 71.3205C746.061 70.1259 747.597 68.6325 749.432 66.8405C751.267 65.0058 753.144 63.1072 755.064 61.1445L757.944 66.0085C756.365 67.7579 754.701 69.5499 752.952 71.3845C751.203 73.2192 749.517 74.9685 747.896 76.6325L744.824 71.3205ZM729.912 72.5365C731.235 71.2565 732.856 69.5925 734.776 67.5445C736.739 65.4965 738.723 63.3632 740.728 61.1445L743.8 65.9445C742.051 67.9499 740.237 69.9978 738.36 72.0885C736.483 74.1365 734.669 76.0352 732.92 77.7845L729.912 72.5365Z" fill="url(#paint2_linear_112_3846)" fill-opacity="0.7"/>
<path d="M639.8 45.9765H688.888V53.8485H639.8V45.9765ZM685.688 45.9765H693.688C693.688 45.9765 693.688 46.2112 693.688 46.6805C693.688 47.1499 693.667 47.6832 693.624 48.2805C693.624 48.8352 693.603 49.2832 693.56 49.6245C693.219 56.0245 692.877 61.5072 692.536 66.0725C692.195 70.5952 691.811 74.3499 691.384 77.3365C691 80.3232 690.531 82.6912 689.976 84.4405C689.464 86.1899 688.845 87.4912 688.12 88.3445C687.139 89.5819 686.136 90.4352 685.112 90.9045C684.131 91.3739 682.936 91.6939 681.528 91.8645C680.376 92.0352 678.861 92.1205 676.984 92.1205C675.107 92.1205 673.187 92.0992 671.224 92.0565C671.181 90.9045 670.904 89.5605 670.392 88.0245C669.923 86.4885 669.325 85.1872 668.6 84.1205C670.648 84.2912 672.525 84.3979 674.232 84.4405C675.981 84.4405 677.283 84.4405 678.136 84.4405C678.776 84.4405 679.331 84.3765 679.8 84.2485C680.269 84.1205 680.696 83.8432 681.08 83.4165C681.635 82.8619 682.147 81.7952 682.616 80.2165C683.085 78.5952 683.491 76.3552 683.832 73.4965C684.216 70.6378 684.557 67.0752 684.856 62.8085C685.155 58.4992 685.432 53.4005 685.688 47.5125V45.9765ZM659.448 32.7285H667.64V45.9765C667.64 48.8779 667.491 51.9712 667.192 55.2565C666.936 58.5418 666.381 61.8912 665.528 65.3045C664.675 68.6752 663.373 72.0245 661.624 75.3525C659.875 78.6805 657.549 81.8592 654.648 84.8885C651.789 87.9179 648.184 90.6485 643.832 93.0805C643.405 92.4405 642.829 91.7152 642.104 90.9045C641.421 90.0939 640.675 89.3259 639.864 88.6005C639.096 87.8752 638.392 87.2779 637.752 86.8085C641.763 84.6752 645.069 82.2859 647.672 79.6405C650.317 76.9952 652.429 74.2432 654.008 71.3845C655.587 68.4832 656.76 65.5605 657.528 62.6165C658.339 59.6298 658.851 56.7285 659.064 53.9125C659.32 51.0538 659.448 48.4085 659.448 45.9765V32.7285Z" fill="url(#paint3_linear_112_3846)" fill-opacity="0.7"/>
<path d="M585.656 36.1845H603.832V43.9925H585.656V36.1845ZM600.056 36.1845H607.992C607.992 38.2325 608.077 40.5578 608.248 43.1605C608.419 45.7205 608.781 48.4725 609.336 51.4165C609.891 54.3178 610.723 57.3045 611.832 60.3765C612.941 63.4485 614.413 66.4992 616.248 69.5285C618.125 72.5152 620.472 75.3952 623.288 78.1685C626.104 80.9419 629.475 83.5019 633.4 85.8485C632.845 86.2752 632.163 86.8939 631.352 87.7045C630.541 88.5152 629.752 89.3472 628.984 90.2005C628.259 91.0965 627.661 91.8859 627.192 92.5685C623.181 90.0939 619.704 87.3205 616.76 84.2485C613.816 81.1339 611.341 77.8485 609.336 74.3925C607.331 70.8939 605.709 67.3739 604.472 63.8325C603.235 60.2485 602.296 56.7712 601.656 53.4005C601.016 49.9872 600.589 46.8085 600.376 43.8645C600.163 40.9205 600.056 38.3605 600.056 36.1845ZM597.304 50.2645L606.072 51.8645C604.621 58.1792 602.68 63.9179 600.248 69.0805C597.816 74.2432 594.893 78.7872 591.48 82.7125C588.109 86.6379 584.205 89.9445 579.768 92.6325C579.299 92.0779 578.637 91.3952 577.784 90.5845C576.931 89.8165 576.035 89.0272 575.096 88.2165C574.2 87.4485 573.411 86.8299 572.728 86.3605C579.427 82.9899 584.76 78.2539 588.728 72.1525C592.696 66.0085 595.555 58.7125 597.304 50.2645Z" fill="url(#paint4_linear_112_3846)" fill-opacity="0.7"/>
</g>
</g>
<path d="M472 81H928V107C928 113.627 922.627 119 916 119H484C477.373 119 472 113.627 472 107V81Z" fill="url(#paint5_linear_112_3846)"/>
<path d="M798.304 23.2885H823.712V51.0005H798.304V43.7685H816.032V30.5845H798.304V23.2885ZM794.016 23.2885H801.568V46.9045C801.568 49.5072 801.44 52.3232 801.184 55.3525C800.971 58.3818 800.544 61.4325 799.904 64.5045C799.264 67.5765 798.325 70.5205 797.088 73.3365C795.893 76.1525 794.293 78.6485 792.288 80.8245C791.904 80.3552 791.349 79.7792 790.624 79.0965C789.899 78.4139 789.152 77.7525 788.384 77.1125C787.659 76.4725 787.019 76.0032 786.464 75.7045C788.213 73.7419 789.6 71.5872 790.624 69.2405C791.648 66.8512 792.395 64.3765 792.864 61.8165C793.333 59.2139 793.632 56.6539 793.76 54.1365C793.931 51.6192 794.016 49.2085 794.016 46.9045V23.2885ZM814.176 47.7365C814.688 51.8325 815.392 55.4592 816.288 58.6165C817.184 61.7738 818.464 64.6112 820.128 67.1285C821.835 69.6032 824.096 71.9499 826.912 74.1685C825.888 74.9792 824.885 75.9819 823.904 77.1765C822.923 78.4139 822.176 79.6298 821.664 80.8245C818.336 78.0085 815.691 75.0219 813.728 71.8645C811.765 68.7072 810.272 65.2299 809.248 61.4325C808.224 57.6352 807.413 53.3899 806.816 48.6965L814.176 47.7365ZM768.928 40.2485H788.256V46.0725H768.928V40.2485ZM769.184 22.6485H788.128V28.4085H769.184V22.6485ZM768.928 49.0165H788.256V54.7765H768.928V49.0165ZM765.92 31.2245H790.368V37.3045H765.92V31.2245ZM772.256 57.8485H788.384V77.3685H772.256V71.2885H781.792V63.9285H772.256V57.8485ZM768.8 57.8485H775.264V79.8645H768.8V57.8485Z" fill="url(#paint6_linear_112_3846)"/>
<path d="M702.624 35.7685H730.72V41.3365H702.624V35.7685ZM707.744 63.6085H726.368V68.5365H707.744V63.6085ZM707.936 71.9285H725.92V77.6245H707.936V71.9285ZM714.272 26.6805H720.672V53.8805H714.272V26.6805ZM714.784 58.2965H719.968V74.8725H714.784V58.2965ZM727.136 20.7925L730.912 25.8485C728.48 26.4032 725.749 26.8725 722.72 27.2565C719.691 27.6405 716.597 27.9392 713.44 28.1525C710.325 28.3658 707.317 28.5152 704.416 28.6005C704.331 27.8752 704.117 27.0432 703.776 26.1045C703.477 25.1232 703.157 24.3125 702.816 23.6725C705.632 23.4592 708.533 23.2245 711.52 22.9685C714.507 22.7125 717.344 22.4138 720.032 22.0725C722.763 21.6885 725.131 21.2618 727.136 20.7925ZM719.84 39.7365C720.437 40.0352 721.269 40.5472 722.336 41.2725C723.445 41.9552 724.597 42.7019 725.792 43.5125C727.029 44.3232 728.16 45.0912 729.184 45.8165C730.208 46.4992 730.933 46.9899 731.36 47.2885L727.52 53.2405C726.965 52.5578 726.219 51.7685 725.28 50.8725C724.384 49.9339 723.381 48.9738 722.272 47.9925C721.205 46.9685 720.181 46.0085 719.2 45.1125C718.219 44.2165 717.387 43.4912 716.704 42.9365L719.84 39.7365ZM704.928 29.8165L709.856 28.5365C710.283 29.5605 710.709 30.6699 711.136 31.8645C711.605 33.0592 711.947 34.0619 712.16 34.8725L706.976 36.4085C706.763 35.5552 706.464 34.5099 706.08 33.2725C705.696 31.9925 705.312 30.8405 704.928 29.8165ZM724.576 27.7685L730.144 29.4325C729.461 30.9685 728.779 32.4832 728.096 33.9765C727.456 35.4699 726.859 36.7499 726.304 37.8165L721.632 36.4085C721.973 35.5978 722.336 34.7018 722.72 33.7205C723.104 32.6965 723.445 31.6725 723.744 30.6485C724.085 29.5818 724.363 28.6218 724.576 27.7685ZM713.184 38.5205L717.536 41.0165C716.512 42.8085 715.296 44.7072 713.888 46.7125C712.48 48.6752 710.965 50.5312 709.344 52.2805C707.723 54.0299 706.101 55.4805 704.48 56.6325C704.224 55.6085 703.797 54.4565 703.2 53.1765C702.645 51.8539 702.112 50.7232 701.6 49.7845C703.051 48.9738 704.501 47.9499 705.952 46.7125C707.445 45.4325 708.832 44.0885 710.112 42.6805C711.392 41.2299 712.416 39.8432 713.184 38.5205ZM704.416 54.8405H730.336V79.9285H724.384V60.5365H710.048V80.6965H704.416V54.8405ZM732.448 23.2885H743.264V29.6885H732.448V23.2885ZM739.872 23.2885H746.016V73.2085C746.016 74.7019 745.845 75.9392 745.504 76.9205C745.205 77.9019 744.608 78.6485 743.712 79.1605C742.773 79.7152 741.643 80.0565 740.32 80.1845C738.997 80.3552 737.419 80.4405 735.584 80.4405C735.499 79.5872 735.264 78.5205 734.88 77.2405C734.496 76.0032 734.091 74.9578 733.664 74.1045C734.773 74.1472 735.819 74.1899 736.8 74.2325C737.824 74.2325 738.528 74.2112 738.912 74.1685C739.253 74.1685 739.488 74.1045 739.616 73.9765C739.787 73.8059 739.872 73.5072 739.872 73.0805V23.2885ZM747.36 23.4165H757.088V29.8165H747.36V23.4165ZM754.528 23.4165H760.8V73.0165C760.8 74.6379 760.629 75.9392 760.288 76.9205C759.947 77.9445 759.285 78.7339 758.304 79.2885C757.323 79.8432 756.107 80.1845 754.656 80.3125C753.248 80.4832 751.541 80.5685 749.536 80.5685C749.451 79.6725 749.195 78.5632 748.768 77.2405C748.341 75.9605 747.893 74.8939 747.424 74.0405C748.661 74.0832 749.856 74.1045 751.008 74.1045C752.203 74.1045 752.992 74.1045 753.376 74.1045C753.803 74.1045 754.101 74.0192 754.272 73.8485C754.443 73.6779 754.528 73.3792 754.528 72.9525V23.4165ZM731.424 36.0245L736.224 34.8085C736.779 36.0885 737.312 37.4965 737.824 39.0325C738.379 40.5259 738.869 41.9979 739.296 43.4485C739.723 44.8565 740.043 46.0938 740.256 47.1605L735.136 48.7605C734.965 47.6512 734.667 46.3712 734.24 44.9205C733.856 43.4699 733.408 41.9552 732.896 40.3765C732.427 38.7979 731.936 37.3472 731.424 36.0245ZM746.528 35.5765L751.392 34.6165C751.861 35.9392 752.309 37.3899 752.736 38.9685C753.163 40.5045 753.547 41.9765 753.888 43.3845C754.229 44.7925 754.485 46.0299 754.656 47.0965L749.472 48.3765C749.344 47.2672 749.109 45.9872 748.768 44.5365C748.469 43.0432 748.128 41.5285 747.744 39.9925C747.36 38.4138 746.955 36.9418 746.528 35.5765ZM745.824 59.3205C747.061 58.1259 748.597 56.6325 750.432 54.8405C752.267 53.0058 754.144 51.1072 756.064 49.1445L758.944 54.0085C757.365 55.7579 755.701 57.5499 753.952 59.3845C752.203 61.2192 750.517 62.9685 748.896 64.6325L745.824 59.3205ZM730.912 60.5365C732.235 59.2565 733.856 57.5925 735.776 55.5445C737.739 53.4965 739.723 51.3632 741.728 49.1445L744.8 53.9445C743.051 55.9499 741.237 57.9978 739.36 60.0885C737.483 62.1365 735.669 64.0352 733.92 65.7845L730.912 60.5365Z" fill="url(#paint7_linear_112_3846)"/>
<path d="M640.8 33.9765H689.888V41.8485H640.8V33.9765ZM686.688 33.9765H694.688C694.688 33.9765 694.688 34.2112 694.688 34.6805C694.688 35.1499 694.667 35.6832 694.624 36.2805C694.624 36.8352 694.603 37.2832 694.56 37.6245C694.219 44.0245 693.877 49.5072 693.536 54.0725C693.195 58.5952 692.811 62.3499 692.384 65.3365C692 68.3232 691.531 70.6912 690.976 72.4405C690.464 74.1899 689.845 75.4912 689.12 76.3445C688.139 77.5819 687.136 78.4352 686.112 78.9045C685.131 79.3739 683.936 79.6939 682.528 79.8645C681.376 80.0352 679.861 80.1205 677.984 80.1205C676.107 80.1205 674.187 80.0992 672.224 80.0565C672.181 78.9045 671.904 77.5605 671.392 76.0245C670.923 74.4885 670.325 73.1872 669.6 72.1205C671.648 72.2912 673.525 72.3979 675.232 72.4405C676.981 72.4405 678.283 72.4405 679.136 72.4405C679.776 72.4405 680.331 72.3765 680.8 72.2485C681.269 72.1205 681.696 71.8432 682.08 71.4165C682.635 70.8619 683.147 69.7952 683.616 68.2165C684.085 66.5952 684.491 64.3552 684.832 61.4965C685.216 58.6378 685.557 55.0752 685.856 50.8085C686.155 46.4992 686.432 41.4005 686.688 35.5125V33.9765ZM660.448 20.7285H668.64V33.9765C668.64 36.8779 668.491 39.9712 668.192 43.2565C667.936 46.5418 667.381 49.8912 666.528 53.3045C665.675 56.6752 664.373 60.0245 662.624 63.3525C660.875 66.6805 658.549 69.8592 655.648 72.8885C652.789 75.9179 649.184 78.6485 644.832 81.0805C644.405 80.4405 643.829 79.7152 643.104 78.9045C642.421 78.0939 641.675 77.3259 640.864 76.6005C640.096 75.8752 639.392 75.2779 638.752 74.8085C642.763 72.6752 646.069 70.2859 648.672 67.6405C651.317 64.9952 653.429 62.2432 655.008 59.3845C656.587 56.4832 657.76 53.5605 658.528 50.6165C659.339 47.6298 659.851 44.7285 660.064 41.9125C660.32 39.0538 660.448 36.4085 660.448 33.9765V20.7285Z" fill="url(#paint8_linear_112_3846)"/>
<path d="M586.656 24.1845H604.832V31.9925H586.656V24.1845ZM601.056 24.1845H608.992C608.992 26.2325 609.077 28.5578 609.248 31.1605C609.419 33.7205 609.781 36.4725 610.336 39.4165C610.891 42.3178 611.723 45.3045 612.832 48.3765C613.941 51.4485 615.413 54.4992 617.248 57.5285C619.125 60.5152 621.472 63.3952 624.288 66.1685C627.104 68.9419 630.475 71.5019 634.4 73.8485C633.845 74.2752 633.163 74.8939 632.352 75.7045C631.541 76.5152 630.752 77.3472 629.984 78.2005C629.259 79.0965 628.661 79.8859 628.192 80.5685C624.181 78.0939 620.704 75.3205 617.76 72.2485C614.816 69.1339 612.341 65.8485 610.336 62.3925C608.331 58.8939 606.709 55.3739 605.472 51.8325C604.235 48.2485 603.296 44.7712 602.656 41.4005C602.016 37.9872 601.589 34.8085 601.376 31.8645C601.163 28.9205 601.056 26.3605 601.056 24.1845ZM598.304 38.2645L607.072 39.8645C605.621 46.1792 603.68 51.9179 601.248 57.0805C598.816 62.2432 595.893 66.7872 592.48 70.7125C589.109 74.6379 585.205 77.9445 580.768 80.6325C580.299 80.0779 579.637 79.3952 578.784 78.5845C577.931 77.8165 577.035 77.0272 576.096 76.2165C575.2 75.4485 574.411 74.8299 573.728 74.3605C580.427 70.9899 585.76 66.2539 589.728 60.1525C593.696 54.0085 596.555 46.7125 598.304 38.2645Z" fill="url(#paint9_linear_112_3846)"/>
<defs>
<filter id="filter0_f_112_3846" x="552.728" y="12.7285" width="293.184" height="100.352" filterUnits="userSpaceOnUse" color-interpolation-filters="sRGB">
<feFlood flood-opacity="0" result="BackgroundImageFix"/>
<feBlend mode="normal" in="SourceGraphic" in2="BackgroundImageFix" result="shape"/>
<feGaussianBlur stdDeviation="10" result="effect1_foregroundBlur_112_3846"/>
</filter>
<linearGradient id="paint0_linear_112_3846" x1="472" y1="73.0036" x2="928" y2="73.0033" gradientUnits="userSpaceOnUse">
<stop stop-color="white" stop-opacity="0.3"/>
<stop offset="0.495" stop-color="#CBB0F8"/>
<stop offset="1" stop-color="white" stop-opacity="0.3"/>
</linearGradient>
<linearGradient id="paint1_linear_112_3846" x1="830.428" y1="58.5101" x2="-232.253" y2="58.5103" gradientUnits="userSpaceOnUse">
<stop stop-color="#F4439F"/>
<stop offset="1" stop-color="#7C3AED"/>
</linearGradient>
<linearGradient id="paint2_linear_112_3846" x1="1113.31" y1="59.6363" x2="18.4603" y2="59.6365" gradientUnits="userSpaceOnUse">
<stop stop-color="#F4439F"/>
<stop offset="1" stop-color="#7C3AED"/>
</linearGradient>
<linearGradient id="paint3_linear_112_3846" x1="1429.32" y1="59.5005" x2="270.587" y2="59.5008" gradientUnits="userSpaceOnUse">
<stop stop-color="#F4439F"/>
<stop offset="1" stop-color="#7C3AED"/>
</linearGradient>
<linearGradient id="paint4_linear_112_3846" x1="827" y1="59.5006" x2="571" y2="59.5006" gradientUnits="userSpaceOnUse">
<stop stop-color="#F4439F"/>
<stop offset="1" stop-color="#7C3AED"/>
</linearGradient>
<linearGradient id="paint5_linear_112_3846" x1="700" y1="81" x2="700" y2="119" gradientUnits="userSpaceOnUse">
<stop offset="0.0001" stop-color="white" stop-opacity="0.1"/>
<stop offset="1" stop-color="white" stop-opacity="0"/>
</linearGradient>
<linearGradient id="paint6_linear_112_3846" x1="831.428" y1="-1.7292" x2="138.86" y2="543.025" gradientUnits="userSpaceOnUse">
<stop stop-color="#F4439F"/>
<stop offset="1" stop-color="#7C3AED"/>
</linearGradient>
<linearGradient id="paint7_linear_112_3846" x1="1114.31" y1="0.788486" x2="433.426" y2="568.954" gradientUnits="userSpaceOnUse">
<stop stop-color="#F4439F"/>
<stop offset="1" stop-color="#7C3AED"/>
</linearGradient>
<linearGradient id="paint8_linear_112_3846" x1="1430.32" y1="1.00051" x2="748.056" y2="608.048" gradientUnits="userSpaceOnUse">
<stop stop-color="#F4439F"/>
<stop offset="1" stop-color="#7C3AED"/>
</linearGradient>
<linearGradient id="paint9_linear_112_3846" x1="828" y1="1.00058" x2="567.985" y2="52.1125" gradientUnits="userSpaceOnUse">
<stop stop-color="#F4439F"/>
<stop offset="1" stop-color="#7C3AED"/>
</linearGradient>
</defs>
</svg>
