<svg width="1400" height="120" viewBox="0 0 1400 120" fill="none" xmlns="http://www.w3.org/2000/svg">
<path d="M472 65H928V81H472V65Z" fill="url(#paint0_linear_112_3814)"/>
<mask id="mask0_112_3814" style="mask-type:alpha" maskUnits="userSpaceOnUse" x="472" y="81" width="456" height="38">
<path d="M472 81H928V119H472V81Z" fill="#C4C4C4"/>
</mask>
<g mask="url(#mask0_112_3814)">
<g filter="url(#filter0_f_112_3814)">
<path d="M799.744 35.2886H825.152V63.0006H799.744V55.7686H817.472V42.5846H799.744V35.2886ZM795.456 35.2886H803.008V58.9046C803.008 61.5073 802.88 64.3233 802.624 67.3526C802.41 70.3819 801.984 73.4326 801.344 76.5046C800.704 79.5766 799.765 82.5206 798.528 85.3366C797.333 88.1526 795.733 90.6486 793.728 92.8246C793.344 92.3553 792.789 91.7793 792.064 91.0966C791.338 90.4139 790.592 89.7526 789.824 89.1126C789.098 88.4726 788.458 88.0033 787.904 87.7046C789.653 85.7419 791.04 83.5873 792.064 81.2406C793.088 78.8513 793.834 76.3766 794.304 73.8166C794.773 71.2139 795.072 68.6539 795.2 66.1366C795.37 63.6193 795.456 61.2086 795.456 58.9046V35.2886ZM815.616 59.7366C816.128 63.8326 816.832 67.4593 817.728 70.6166C818.624 73.7739 819.904 76.6113 821.568 79.1286C823.274 81.6033 825.536 83.9499 828.352 86.1686C827.328 86.9793 826.325 87.9819 825.344 89.1766C824.362 90.4139 823.616 91.6299 823.104 92.8246C819.776 90.0086 817.13 87.0219 815.168 83.8646C813.205 80.7073 811.712 77.2299 810.688 73.4326C809.664 69.6353 808.853 65.3899 808.256 60.6966L815.616 59.7366ZM770.368 52.2486H789.696V58.0726H770.368V52.2486ZM770.624 34.6486H789.568V40.4086H770.624V34.6486ZM770.368 61.0166H789.696V66.7766H770.368V61.0166ZM767.36 43.2246H791.808V49.3046H767.36V43.2246ZM773.696 69.8486H789.824V89.3686H773.696V83.2886H783.232V75.9286H773.696V69.8486ZM770.24 69.8486H776.704V91.8646H770.24V69.8486Z" fill="url(#paint1_linear_112_3814)" fill-opacity="0.7"/>
<path d="M704.064 47.7686H732.16V53.3366H704.064V47.7686ZM709.184 75.6086H727.808V80.5366H709.184V75.6086ZM709.376 83.9286H727.36V89.6246H709.376V83.9286ZM715.712 38.6806H722.112V65.8806H715.712V38.6806ZM716.224 70.2966H721.408V86.8726H716.224V70.2966ZM728.576 32.7926L732.352 37.8486C729.92 38.4033 727.189 38.8726 724.16 39.2566C721.13 39.6406 718.037 39.9393 714.88 40.1526C711.765 40.3659 708.757 40.5153 705.856 40.6006C705.77 39.8753 705.557 39.0433 705.216 38.1046C704.917 37.1233 704.597 36.3126 704.256 35.6726C707.072 35.4593 709.973 35.2246 712.96 34.9686C715.946 34.7126 718.784 34.4139 721.472 34.0726C724.202 33.6886 726.57 33.2619 728.576 32.7926ZM721.28 51.7366C721.877 52.0353 722.709 52.5473 723.776 53.2726C724.885 53.9553 726.037 54.7019 727.232 55.5126C728.469 56.3233 729.6 57.0913 730.624 57.8166C731.648 58.4993 732.373 58.9899 732.8 59.2886L728.96 65.2406C728.405 64.5579 727.658 63.7686 726.72 62.8726C725.824 61.9339 724.821 60.9739 723.712 59.9926C722.645 58.9686 721.621 58.0086 720.64 57.1126C719.658 56.2166 718.826 55.4913 718.144 54.9366L721.28 51.7366ZM706.368 41.8166L711.296 40.5366C711.722 41.5606 712.149 42.6699 712.576 43.8646C713.045 45.0593 713.386 46.0619 713.6 46.8726L708.416 48.4086C708.202 47.5553 707.904 46.5099 707.52 45.2726C707.136 43.9926 706.752 42.8406 706.368 41.8166ZM726.016 39.7686L731.584 41.4326C730.901 42.9686 730.218 44.4833 729.536 45.9766C728.896 47.4699 728.298 48.7499 727.744 49.8166L723.072 48.4086C723.413 47.5979 723.776 46.7019 724.16 45.7206C724.544 44.6966 724.885 43.6726 725.184 42.6486C725.525 41.5819 725.802 40.6219 726.016 39.7686ZM714.624 50.5206L718.976 53.0166C717.952 54.8086 716.736 56.7073 715.328 58.7126C713.92 60.6753 712.405 62.5313 710.784 64.2806C709.162 66.0299 707.541 67.4806 705.92 68.6326C705.664 67.6086 705.237 66.4566 704.64 65.1766C704.085 63.8539 703.552 62.7233 703.04 61.7846C704.49 60.9739 705.941 59.9499 707.392 58.7126C708.885 57.4326 710.272 56.0886 711.552 54.6806C712.832 53.2299 713.856 51.8433 714.624 50.5206ZM705.856 66.8406H731.776V91.9286H725.824V72.5366H711.488V92.6966H705.856V66.8406ZM733.888 35.2886H744.704V41.6886H733.888V35.2886ZM741.312 35.2886H747.456V85.2086C747.456 86.7019 747.285 87.9393 746.944 88.9206C746.645 89.9019 746.048 90.6486 745.152 91.1606C744.213 91.7153 743.082 92.0566 741.76 92.1846C740.437 92.3553 738.858 92.4406 737.024 92.4406C736.938 91.5873 736.704 90.5206 736.32 89.2406C735.936 88.0033 735.53 86.9579 735.104 86.1046C736.213 86.1473 737.258 86.1899 738.24 86.2326C739.264 86.2326 739.968 86.2113 740.352 86.1686C740.693 86.1686 740.928 86.1046 741.056 85.9766C741.226 85.8059 741.312 85.5073 741.312 85.0806V35.2886ZM748.8 35.4166H758.528V41.8166H748.8V35.4166ZM755.968 35.4166H762.24V85.0166C762.24 86.6379 762.069 87.9393 761.728 88.9206C761.386 89.9446 760.725 90.7339 759.744 91.2886C758.762 91.8433 757.546 92.1846 756.096 92.3126C754.688 92.4833 752.981 92.5686 750.976 92.5686C750.89 91.6726 750.634 90.5633 750.208 89.2406C749.781 87.9606 749.333 86.8939 748.864 86.0406C750.101 86.0833 751.296 86.1046 752.448 86.1046C753.642 86.1046 754.432 86.1046 754.816 86.1046C755.242 86.1046 755.541 86.0193 755.712 85.8486C755.882 85.6779 755.968 85.3793 755.968 84.9526V35.4166ZM732.864 48.0246L737.664 46.8086C738.218 48.0886 738.752 49.4966 739.264 51.0326C739.818 52.5259 740.309 53.9979 740.736 55.4486C741.162 56.8566 741.482 58.0939 741.696 59.1606L736.576 60.7606C736.405 59.6513 736.106 58.3713 735.68 56.9206C735.296 55.4699 734.848 53.9553 734.336 52.3766C733.866 50.7979 733.376 49.3473 732.864 48.0246ZM747.968 47.5766L752.832 46.6166C753.301 47.9393 753.749 49.3899 754.176 50.9686C754.602 52.5046 754.986 53.9766 755.328 55.3846C755.669 56.7926 755.925 58.0299 756.096 59.0966L750.912 60.3766C750.784 59.2673 750.549 57.9873 750.208 56.5366C749.909 55.0433 749.568 53.5286 749.184 51.9926C748.8 50.4139 748.394 48.9419 747.968 47.5766ZM747.264 71.3206C748.501 70.1259 750.037 68.6326 751.872 66.8406C753.706 65.0059 755.584 63.1073 757.504 61.1446L760.384 66.0086C758.805 67.7579 757.141 69.5499 755.392 71.3846C753.642 73.2193 751.957 74.9686 750.336 76.6326L747.264 71.3206ZM732.352 72.5366C733.674 71.2566 735.296 69.5926 737.216 67.5446C739.178 65.4966 741.162 63.3633 743.168 61.1446L746.24 65.9446C744.49 67.9499 742.677 69.9979 740.8 72.0886C738.922 74.1366 737.109 76.0353 735.36 77.7846L732.352 72.5366Z" fill="url(#paint2_linear_112_3814)" fill-opacity="0.7"/>
<path d="M640.576 66.0086H698.24V71.9606H640.576V66.0086ZM665.408 71.3206H672.832V92.7606H665.408V71.3206ZM659.136 62.0406L666.688 63.3206C664.597 67.6299 661.674 71.4913 657.92 74.9046C654.208 78.3179 649.28 81.2406 643.136 83.6726C642.88 83.0753 642.496 82.4139 641.984 81.6886C641.514 80.9633 641.002 80.2593 640.448 79.5766C639.893 78.8939 639.36 78.3606 638.848 77.9766C642.645 76.7393 645.866 75.2886 648.512 73.6246C651.157 71.9179 653.354 70.0833 655.104 68.1206C656.853 66.1579 658.197 64.1313 659.136 62.0406ZM682.368 67.8006C683.52 69.2513 685.013 70.6166 686.848 71.8966C688.682 73.1766 690.73 74.3073 692.992 75.2886C695.253 76.2273 697.6 76.9526 700.032 77.4646C699.264 78.1473 698.432 79.0646 697.536 80.2166C696.682 81.3259 696.021 82.3286 695.552 83.2246C692.949 82.4139 690.474 81.3473 688.128 80.0246C685.824 78.6593 683.712 77.1019 681.792 75.3526C679.872 73.6033 678.229 71.7046 676.864 69.6566L682.368 67.8006ZM650.688 75.0326H685.44V80.9846H658.048V90.4566H650.688V75.0326ZM681.472 75.0326H688.896V84.2486C688.896 85.7419 688.704 86.8939 688.32 87.7046C687.978 88.5153 687.296 89.1339 686.272 89.5606C685.248 89.9873 684.01 90.2219 682.56 90.2646C681.152 90.3499 679.53 90.3926 677.696 90.3926C677.568 89.4966 677.312 88.5579 676.928 87.5766C676.544 86.5953 676.16 85.7206 675.776 84.9526C676.757 84.9953 677.717 85.0379 678.656 85.0806C679.594 85.0806 680.234 85.0593 680.576 85.0166C680.917 85.0166 681.152 84.9526 681.28 84.8246C681.408 84.6966 681.472 84.4833 681.472 84.1846V75.0326ZM654.4 56.4086V59.0326H684.544V56.4086H654.4ZM654.4 49.5606V52.1206H684.544V49.5606H654.4ZM647.04 44.9526H692.224V63.6406H647.04V44.9526ZM641.344 35.7366H697.536V41.8806H641.344V35.7366ZM655.168 32.6006H662.592V44.0566H655.168V32.6006ZM676.032 32.6006H683.584V43.9926H676.032V32.6006Z" fill="url(#paint3_linear_112_3814)" fill-opacity="0.7"/>
<path d="M588.416 51.0966H617.024V58.0726H588.416V51.0966ZM577.536 66.9686H633.536V74.2646H577.536V66.9686ZM601.28 62.9366H609.472V83.9286C609.472 85.9766 609.173 87.5766 608.576 88.7286C608.021 89.8806 606.954 90.7553 605.376 91.3526C603.882 91.9073 602.09 92.2486 600 92.3766C597.952 92.5473 595.584 92.6326 592.896 92.6326C592.768 91.8646 592.512 90.9899 592.128 90.0086C591.744 89.0699 591.338 88.1313 590.912 87.1926C590.485 86.2539 590.058 85.4433 589.632 84.7606C590.954 84.8033 592.298 84.8459 593.664 84.8886C595.029 84.8886 596.266 84.8886 597.376 84.8886C598.485 84.8886 599.232 84.8886 599.616 84.8886C600.256 84.8886 600.682 84.8033 600.896 84.6326C601.152 84.4619 601.28 84.1633 601.28 83.7366V62.9366ZM614.656 51.0966H616.704L618.432 50.7766L623.424 54.5526C622.016 56.1313 620.437 57.7526 618.688 59.4166C616.981 61.0379 615.125 62.5739 613.12 64.0246C611.157 65.4753 609.152 66.7553 607.104 67.8646C606.634 67.1819 605.973 66.4353 605.12 65.6246C604.309 64.7713 603.626 64.0886 603.072 63.5766C604.608 62.6379 606.122 61.5286 607.616 60.2486C609.109 58.9686 610.474 57.6459 611.712 56.2806C612.949 54.9153 613.93 53.6993 614.656 52.6326V51.0966ZM601.216 32.6006H609.408V44.3126H601.216V32.6006ZM577.728 38.7446H633.024V55.3846H625.088V46.0406H585.28V55.3846H577.728V38.7446Z" fill="url(#paint4_linear_112_3814)" fill-opacity="0.7"/>
</g>
</g>
<path d="M472 81H928V107C928 113.627 922.627 119 916 119H484C477.373 119 472 113.627 472 107V81Z" fill="url(#paint5_linear_112_3814)"/>
<path d="M798.304 23.2886H823.712V51.0006H798.304V43.7686H816.032V30.5846H798.304V23.2886ZM794.016 23.2886H801.568V46.9046C801.568 49.5073 801.44 52.3233 801.184 55.3526C800.97 58.3819 800.544 61.4326 799.904 64.5046C799.264 67.5766 798.325 70.5206 797.088 73.3366C795.893 76.1526 794.293 78.6486 792.288 80.8246C791.904 80.3553 791.349 79.7793 790.624 79.0966C789.898 78.4139 789.152 77.7526 788.384 77.1126C787.658 76.4726 787.018 76.0033 786.464 75.7046C788.213 73.7419 789.6 71.5873 790.624 69.2406C791.648 66.8513 792.394 64.3766 792.864 61.8166C793.333 59.2139 793.632 56.6539 793.76 54.1366C793.93 51.6193 794.016 49.2086 794.016 46.9046V23.2886ZM814.176 47.7366C814.688 51.8326 815.392 55.4593 816.288 58.6166C817.184 61.7739 818.464 64.6113 820.128 67.1286C821.834 69.6033 824.096 71.9499 826.912 74.1686C825.888 74.9793 824.885 75.9819 823.904 77.1766C822.922 78.4139 822.176 79.6299 821.664 80.8246C818.336 78.0086 815.69 75.0219 813.728 71.8646C811.765 68.7073 810.272 65.2299 809.248 61.4326C808.224 57.6353 807.413 53.3899 806.816 48.6966L814.176 47.7366ZM768.928 40.2486H788.256V46.0726H768.928V40.2486ZM769.184 22.6486H788.128V28.4086H769.184V22.6486ZM768.928 49.0166H788.256V54.7766H768.928V49.0166ZM765.92 31.2246H790.368V37.3046H765.92V31.2246ZM772.256 57.8486H788.384V77.3686H772.256V71.2886H781.792V63.9286H772.256V57.8486ZM768.8 57.8486H775.264V79.8646H768.8V57.8486Z" fill="url(#paint6_linear_112_3814)"/>
<path d="M702.624 35.7686H730.72V41.3366H702.624V35.7686ZM707.744 63.6086H726.368V68.5366H707.744V63.6086ZM707.936 71.9286H725.92V77.6246H707.936V71.9286ZM714.272 26.6806H720.672V53.8806H714.272V26.6806ZM714.784 58.2966H719.968V74.8726H714.784V58.2966ZM727.136 20.7926L730.912 25.8486C728.48 26.4033 725.749 26.8726 722.72 27.2566C719.69 27.6406 716.597 27.9393 713.44 28.1526C710.325 28.3659 707.317 28.5153 704.416 28.6006C704.33 27.8753 704.117 27.0433 703.776 26.1046C703.477 25.1233 703.157 24.3126 702.816 23.6726C705.632 23.4593 708.533 23.2246 711.52 22.9686C714.506 22.7126 717.344 22.4139 720.032 22.0726C722.762 21.6886 725.13 21.2619 727.136 20.7926ZM719.84 39.7366C720.437 40.0353 721.269 40.5473 722.336 41.2726C723.445 41.9553 724.597 42.7019 725.792 43.5126C727.029 44.3233 728.16 45.0913 729.184 45.8166C730.208 46.4993 730.933 46.9899 731.36 47.2886L727.52 53.2406C726.965 52.5579 726.218 51.7686 725.28 50.8726C724.384 49.9339 723.381 48.9739 722.272 47.9926C721.205 46.9686 720.181 46.0086 719.2 45.1126C718.218 44.2166 717.386 43.4913 716.704 42.9366L719.84 39.7366ZM704.928 29.8166L709.856 28.5366C710.282 29.5606 710.709 30.6699 711.136 31.8646C711.605 33.0593 711.946 34.0619 712.16 34.8726L706.976 36.4086C706.762 35.5553 706.464 34.5099 706.08 33.2726C705.696 31.9926 705.312 30.8406 704.928 29.8166ZM724.576 27.7686L730.144 29.4326C729.461 30.9686 728.778 32.4833 728.096 33.9766C727.456 35.4699 726.858 36.7499 726.304 37.8166L721.632 36.4086C721.973 35.5979 722.336 34.7019 722.72 33.7206C723.104 32.6966 723.445 31.6726 723.744 30.6486C724.085 29.5819 724.362 28.6219 724.576 27.7686ZM713.184 38.5206L717.536 41.0166C716.512 42.8086 715.296 44.7073 713.888 46.7126C712.48 48.6753 710.965 50.5313 709.344 52.2806C707.722 54.0299 706.101 55.4806 704.48 56.6326C704.224 55.6086 703.797 54.4566 703.2 53.1766C702.645 51.8539 702.112 50.7233 701.6 49.7846C703.05 48.9739 704.501 47.9499 705.952 46.7126C707.445 45.4326 708.832 44.0886 710.112 42.6806C711.392 41.2299 712.416 39.8433 713.184 38.5206ZM704.416 54.8406H730.336V79.9286H724.384V60.5366H710.048V80.6966H704.416V54.8406ZM732.448 23.2886H743.264V29.6886H732.448V23.2886ZM739.872 23.2886H746.016V73.2086C746.016 74.7019 745.845 75.9393 745.504 76.9206C745.205 77.9019 744.608 78.6486 743.712 79.1606C742.773 79.7153 741.642 80.0566 740.32 80.1846C738.997 80.3553 737.418 80.4406 735.584 80.4406C735.498 79.5873 735.264 78.5206 734.88 77.2406C734.496 76.0033 734.09 74.9579 733.664 74.1046C734.773 74.1473 735.818 74.1899 736.8 74.2326C737.824 74.2326 738.528 74.2113 738.912 74.1686C739.253 74.1686 739.488 74.1046 739.616 73.9766C739.786 73.8059 739.872 73.5073 739.872 73.0806V23.2886ZM747.36 23.4166H757.088V29.8166H747.36V23.4166ZM754.528 23.4166H760.8V73.0166C760.8 74.6379 760.629 75.9393 760.288 76.9206C759.946 77.9446 759.285 78.7339 758.304 79.2886C757.322 79.8433 756.106 80.1846 754.656 80.3126C753.248 80.4833 751.541 80.5686 749.536 80.5686C749.45 79.6726 749.194 78.5633 748.768 77.2406C748.341 75.9606 747.893 74.8939 747.424 74.0406C748.661 74.0833 749.856 74.1046 751.008 74.1046C752.202 74.1046 752.992 74.1046 753.376 74.1046C753.802 74.1046 754.101 74.0193 754.272 73.8486C754.442 73.6779 754.528 73.3793 754.528 72.9526V23.4166ZM731.424 36.0246L736.224 34.8086C736.778 36.0886 737.312 37.4966 737.824 39.0326C738.378 40.5259 738.869 41.9979 739.296 43.4486C739.722 44.8566 740.042 46.0939 740.256 47.1606L735.136 48.7606C734.965 47.6513 734.666 46.3713 734.24 44.9206C733.856 43.4699 733.408 41.9553 732.896 40.3766C732.426 38.7979 731.936 37.3473 731.424 36.0246ZM746.528 35.5766L751.392 34.6166C751.861 35.9393 752.309 37.3899 752.736 38.9686C753.162 40.5046 753.546 41.9766 753.888 43.3846C754.229 44.7926 754.485 46.0299 754.656 47.0966L749.472 48.3766C749.344 47.2673 749.109 45.9873 748.768 44.5366C748.469 43.0433 748.128 41.5286 747.744 39.9926C747.36 38.4139 746.954 36.9419 746.528 35.5766ZM745.824 59.3206C747.061 58.1259 748.597 56.6326 750.432 54.8406C752.266 53.0059 754.144 51.1073 756.064 49.1446L758.944 54.0086C757.365 55.7579 755.701 57.5499 753.952 59.3846C752.202 61.2193 750.517 62.9686 748.896 64.6326L745.824 59.3206ZM730.912 60.5366C732.234 59.2566 733.856 57.5926 735.776 55.5446C737.738 53.4966 739.722 51.3633 741.728 49.1446L744.8 53.9446C743.05 55.9499 741.237 57.9979 739.36 60.0886C737.482 62.1366 735.669 64.0353 733.92 65.7846L730.912 60.5366Z" fill="url(#paint7_linear_112_3814)"/>
<path d="M639.136 54.0086H696.8V59.9606H639.136V54.0086ZM663.968 59.3206H671.392V80.7606H663.968V59.3206ZM657.696 50.0406L665.248 51.3206C663.157 55.6299 660.234 59.4913 656.48 62.9046C652.768 66.3179 647.84 69.2406 641.696 71.6726C641.44 71.0753 641.056 70.4139 640.544 69.6886C640.074 68.9633 639.562 68.2593 639.008 67.5766C638.453 66.8939 637.92 66.3606 637.408 65.9766C641.205 64.7393 644.426 63.2886 647.072 61.6246C649.717 59.9179 651.914 58.0833 653.664 56.1206C655.413 54.1579 656.757 52.1313 657.696 50.0406ZM680.928 55.8006C682.08 57.2513 683.573 58.6166 685.408 59.8966C687.242 61.1766 689.29 62.3073 691.552 63.2886C693.813 64.2273 696.16 64.9526 698.592 65.4646C697.824 66.1473 696.992 67.0646 696.096 68.2166C695.242 69.3259 694.581 70.3286 694.112 71.2246C691.509 70.4139 689.034 69.3473 686.688 68.0246C684.384 66.6593 682.272 65.1019 680.352 63.3526C678.432 61.6033 676.789 59.7046 675.424 57.6566L680.928 55.8006ZM649.248 63.0326H684V68.9846H656.608V78.4566H649.248V63.0326ZM680.032 63.0326H687.456V72.2486C687.456 73.7419 687.264 74.8939 686.88 75.7046C686.538 76.5153 685.856 77.1339 684.832 77.5606C683.808 77.9873 682.57 78.2219 681.12 78.2646C679.712 78.3499 678.09 78.3926 676.256 78.3926C676.128 77.4966 675.872 76.5579 675.488 75.5766C675.104 74.5953 674.72 73.7206 674.336 72.9526C675.317 72.9953 676.277 73.0379 677.216 73.0806C678.154 73.0806 678.794 73.0593 679.136 73.0166C679.477 73.0166 679.712 72.9526 679.84 72.8246C679.968 72.6966 680.032 72.4833 680.032 72.1846V63.0326ZM652.96 44.4086V47.0326H683.104V44.4086H652.96ZM652.96 37.5606V40.1206H683.104V37.5606H652.96ZM645.6 32.9526H690.784V51.6406H645.6V32.9526ZM639.904 23.7366H696.096V29.8806H639.904V23.7366ZM653.728 20.6006H661.152V32.0566H653.728V20.6006ZM674.592 20.6006H682.144V31.9926H674.592V20.6006Z" fill="url(#paint8_linear_112_3814)"/>
<path d="M586.976 39.0966H615.584V46.0726H586.976V39.0966ZM576.096 54.9686H632.096V62.2646H576.096V54.9686ZM599.84 50.9366H608.032V71.9286C608.032 73.9766 607.733 75.5766 607.136 76.7286C606.581 77.8806 605.514 78.7553 603.936 79.3526C602.442 79.9073 600.65 80.2486 598.56 80.3766C596.512 80.5473 594.144 80.6326 591.456 80.6326C591.328 79.8646 591.072 78.9899 590.688 78.0086C590.304 77.0699 589.898 76.1313 589.472 75.1926C589.045 74.2539 588.618 73.4433 588.192 72.7606C589.514 72.8033 590.858 72.8459 592.224 72.8886C593.589 72.8886 594.826 72.8886 595.936 72.8886C597.045 72.8886 597.792 72.8886 598.176 72.8886C598.816 72.8886 599.242 72.8033 599.456 72.6326C599.712 72.4619 599.84 72.1633 599.84 71.7366V50.9366ZM613.216 39.0966H615.264L616.992 38.7766L621.984 42.5526C620.576 44.1313 618.997 45.7526 617.248 47.4166C615.541 49.0379 613.685 50.5739 611.68 52.0246C609.717 53.4753 607.712 54.7553 605.664 55.8646C605.194 55.1819 604.533 54.4353 603.68 53.6246C602.869 52.7713 602.186 52.0886 601.632 51.5766C603.168 50.6379 604.682 49.5286 606.176 48.2486C607.669 46.9686 609.034 45.6459 610.272 44.2806C611.509 42.9153 612.49 41.6993 613.216 40.6326V39.0966ZM599.776 20.6006H607.968V32.3126H599.776V20.6006ZM576.288 26.7446H631.584V43.3846H623.648V34.0406H583.84V43.3846H576.288V26.7446Z" fill="url(#paint9_linear_112_3814)"/>
<defs>
<filter id="filter0_f_112_3814" x="557.536" y="12.6006" width="290.816" height="100.224" filterUnits="userSpaceOnUse" color-interpolation-filters="sRGB">
<feFlood flood-opacity="0" result="BackgroundImageFix"/>
<feBlend mode="normal" in="SourceGraphic" in2="BackgroundImageFix" result="shape"/>
<feGaussianBlur stdDeviation="10" result="effect1_foregroundBlur_112_3814"/>
</filter>
<linearGradient id="paint0_linear_112_3814" x1="472" y1="73.0036" x2="928" y2="73.0033" gradientUnits="userSpaceOnUse">
<stop stop-color="white" stop-opacity="0.3"/>
<stop offset="0.495" stop-color="#CBB0F8"/>
<stop offset="1" stop-color="white" stop-opacity="0.3"/>
</linearGradient>
<linearGradient id="paint1_linear_112_3814" x1="832.826" y1="58.3275" x2="-219.917" y2="58.3277" gradientUnits="userSpaceOnUse">
<stop stop-color="#F4439F"/>
<stop offset="1" stop-color="#7C3AED"/>
</linearGradient>
<linearGradient id="paint2_linear_112_3814" x1="1113.06" y1="59.4513" x2="28.452" y2="59.4515" gradientUnits="userSpaceOnUse">
<stop stop-color="#F4439F"/>
<stop offset="1" stop-color="#7C3AED"/>
</linearGradient>
<linearGradient id="paint3_linear_112_3814" x1="1358.84" y1="59.5292" x2="309.404" y2="59.5294" gradientUnits="userSpaceOnUse">
<stop stop-color="#F4439F"/>
<stop offset="1" stop-color="#7C3AED"/>
</linearGradient>
<linearGradient id="paint4_linear_112_3814" x1="829.44" y1="59.5006" x2="573.44" y2="59.5006" gradientUnits="userSpaceOnUse">
<stop stop-color="#F4439F"/>
<stop offset="1" stop-color="#7C3AED"/>
</linearGradient>
<linearGradient id="paint5_linear_112_3814" x1="700" y1="81" x2="700" y2="119" gradientUnits="userSpaceOnUse">
<stop offset="0.0001" stop-color="white" stop-opacity="0.1"/>
<stop offset="1" stop-color="white" stop-opacity="0"/>
</linearGradient>
<linearGradient id="paint6_linear_112_3814" x1="831.386" y1="-1.80949" x2="141.487" y2="536.913" gradientUnits="userSpaceOnUse">
<stop stop-color="#F4439F"/>
<stop offset="1" stop-color="#7C3AED"/>
</linearGradient>
<linearGradient id="paint7_linear_112_3814" x1="1111.62" y1="0.702849" x2="433.083" y2="562.808" gradientUnits="userSpaceOnUse">
<stop stop-color="#F4439F"/>
<stop offset="1" stop-color="#7C3AED"/>
</linearGradient>
<linearGradient id="paint8_linear_112_3814" x1="1357.4" y1="0.979714" x2="685.616" y2="541.746" gradientUnits="userSpaceOnUse">
<stop stop-color="#F4439F"/>
<stop offset="1" stop-color="#7C3AED"/>
</linearGradient>
<linearGradient id="paint9_linear_112_3814" x1="828" y1="1.00055" x2="567.984" y2="52.1124" gradientUnits="userSpaceOnUse">
<stop stop-color="#F4439F"/>
<stop offset="1" stop-color="#7C3AED"/>
</linearGradient>
</defs>
</svg>
