<svg width="1400" height="120" viewBox="0 0 1400 120" fill="none" xmlns="http://www.w3.org/2000/svg">
<path d="M345 65H1056V81H345V65Z" fill="url(#paint0_linear_112_4222)"/>
<mask id="mask0_112_4222" style="mask-type:alpha" maskUnits="userSpaceOnUse" x="345" y="81" width="711" height="38">
<path d="M345 81H1056V119H345V81Z" fill="#C4C4C4"/>
</mask>
<g mask="url(#mask0_112_4222)">
<g filter="url(#filter0_f_112_4222)">
<path d="M925.619 35.2878H951.027V62.9998H925.619V55.7678H943.347V42.5838H925.619V35.2878ZM921.331 35.2878H928.883V58.9038C928.883 61.5064 928.755 64.3224 928.499 67.3518C928.286 70.3811 927.859 73.4318 927.219 76.5038C926.579 79.5758 925.64 82.5198 924.403 85.3358C923.208 88.1518 921.608 90.6478 919.603 92.8238C919.219 92.3544 918.664 91.7784 917.939 91.0958C917.214 90.4131 916.467 89.7518 915.699 89.1118C914.974 88.4718 914.334 88.0024 913.779 87.7038C915.528 85.7411 916.915 83.5864 917.939 81.2398C918.963 78.8504 919.71 76.3758 920.179 73.8158C920.648 71.2131 920.947 68.6531 921.075 66.1358C921.246 63.6184 921.331 61.2078 921.331 58.9038V35.2878ZM941.491 59.7358C942.003 63.8318 942.707 67.4584 943.603 70.6158C944.499 73.7731 945.779 76.6104 947.443 79.1278C949.15 81.6024 951.411 83.9491 954.227 86.1678C953.203 86.9784 952.2 87.9811 951.219 89.1758C950.238 90.4131 949.491 91.6291 948.979 92.8238C945.651 90.0078 943.006 87.0211 941.043 83.8638C939.08 80.7064 937.587 77.2291 936.563 73.4318C935.539 69.6344 934.728 65.3891 934.131 60.6958L941.491 59.7358ZM896.243 52.2478H915.571V58.0718H896.243V52.2478ZM896.499 34.6478H915.443V40.4078H896.499V34.6478ZM896.243 61.0158H915.571V66.7758H896.243V61.0158ZM893.235 43.2238H917.683V49.3038H893.235V43.2238ZM899.571 69.8478H915.699V89.3678H899.571V83.2878H909.107V75.9278H899.571V69.8478ZM896.115 69.8478H902.579V91.8638H896.115V69.8478Z" fill="url(#paint1_linear_112_4222)" fill-opacity="0.7"/>
<path d="M829.939 47.7678H858.035V53.3358H829.939V47.7678ZM835.059 75.6078H853.683V80.5358H835.059V75.6078ZM835.251 83.9278H853.235V89.6238H835.251V83.9278ZM841.587 38.6798H847.987V65.8798H841.587V38.6798ZM842.099 70.2958H847.283V86.8718H842.099V70.2958ZM854.451 32.7918L858.227 37.8478C855.795 38.4024 853.064 38.8718 850.035 39.2558C847.006 39.6398 843.912 39.9384 840.755 40.1518C837.64 40.3651 834.632 40.5144 831.731 40.5998C831.646 39.8744 831.432 39.0424 831.091 38.1038C830.792 37.1224 830.472 36.3118 830.131 35.6718C832.947 35.4584 835.848 35.2238 838.835 34.9678C841.822 34.7118 844.659 34.4131 847.347 34.0718C850.078 33.6878 852.446 33.2611 854.451 32.7918ZM847.155 51.7358C847.752 52.0344 848.584 52.5464 849.651 53.2718C850.76 53.9544 851.912 54.7011 853.107 55.5118C854.344 56.3224 855.475 57.0904 856.499 57.8158C857.523 58.4984 858.248 58.9891 858.675 59.2878L854.835 65.2398C854.28 64.5571 853.534 63.7678 852.595 62.8718C851.699 61.9331 850.696 60.9731 849.587 59.9918C848.52 58.9678 847.496 58.0078 846.515 57.1118C845.534 56.2158 844.702 55.4904 844.019 54.9358L847.155 51.7358ZM832.243 41.8158L837.171 40.5358C837.598 41.5598 838.024 42.6691 838.451 43.8638C838.92 45.0584 839.262 46.0611 839.475 46.8718L834.291 48.4078C834.078 47.5544 833.779 46.5091 833.395 45.2718C833.011 43.9918 832.627 42.8398 832.243 41.8158ZM851.891 39.7678L857.459 41.4318C856.776 42.9678 856.094 44.4824 855.411 45.9758C854.771 47.4691 854.174 48.7491 853.619 49.8158L848.947 48.4078C849.288 47.5971 849.651 46.7011 850.035 45.7198C850.419 44.6958 850.76 43.6718 851.059 42.6478C851.4 41.5811 851.678 40.6211 851.891 39.7678ZM840.499 50.5198L844.851 53.0158C843.827 54.8078 842.611 56.7064 841.203 58.7118C839.795 60.6744 838.28 62.5304 836.659 64.2798C835.038 66.0291 833.416 67.4798 831.795 68.6318C831.539 67.6078 831.112 66.4558 830.515 65.1758C829.96 63.8531 829.427 62.7224 828.915 61.7838C830.366 60.9731 831.816 59.9491 833.267 58.7118C834.76 57.4318 836.147 56.0878 837.427 54.6798C838.707 53.2291 839.731 51.8424 840.499 50.5198ZM831.731 66.8398H857.651V91.9278H851.699V72.5358H837.363V92.6958H831.731V66.8398ZM859.763 35.2878H870.579V41.6878H859.763V35.2878ZM867.187 35.2878H873.331V85.2078C873.331 86.7011 873.16 87.9384 872.819 88.9198C872.52 89.9011 871.923 90.6478 871.027 91.1598C870.088 91.7144 868.958 92.0558 867.635 92.1838C866.312 92.3544 864.734 92.4398 862.899 92.4398C862.814 91.5864 862.579 90.5198 862.195 89.2398C861.811 88.0024 861.406 86.9571 860.979 86.1038C862.088 86.1464 863.134 86.1891 864.115 86.2318C865.139 86.2318 865.843 86.2104 866.227 86.1678C866.568 86.1678 866.803 86.1038 866.931 85.9758C867.102 85.8051 867.187 85.5064 867.187 85.0798V35.2878ZM874.675 35.4158H884.403V41.8158H874.675V35.4158ZM881.843 35.4158H888.115V85.0158C888.115 86.6371 887.944 87.9384 887.603 88.9198C887.262 89.9438 886.6 90.7331 885.619 91.2878C884.638 91.8424 883.422 92.1838 881.971 92.3118C880.563 92.4824 878.856 92.5678 876.851 92.5678C876.766 91.6718 876.51 90.5624 876.083 89.2398C875.656 87.9598 875.208 86.8931 874.739 86.0398C875.976 86.0824 877.171 86.1038 878.323 86.1038C879.518 86.1038 880.307 86.1038 880.691 86.1038C881.118 86.1038 881.416 86.0184 881.587 85.8478C881.758 85.6771 881.843 85.3784 881.843 84.9518V35.4158ZM858.739 48.0238L863.539 46.8078C864.094 48.0878 864.627 49.4958 865.139 51.0318C865.694 52.5251 866.184 53.9971 866.611 55.4478C867.038 56.8558 867.358 58.0931 867.571 59.1598L862.451 60.7598C862.28 59.6504 861.982 58.3704 861.555 56.9198C861.171 55.4691 860.723 53.9544 860.211 52.3758C859.742 50.7971 859.251 49.3464 858.739 48.0238ZM873.843 47.5758L878.707 46.6158C879.176 47.9384 879.624 49.3891 880.051 50.9678C880.478 52.5038 880.862 53.9758 881.203 55.3838C881.544 56.7918 881.8 58.0291 881.971 59.0958L876.787 60.3758C876.659 59.2664 876.424 57.9864 876.083 56.5358C875.784 55.0424 875.443 53.5278 875.059 51.9918C874.675 50.4131 874.27 48.9411 873.843 47.5758ZM873.139 71.3198C874.376 70.1251 875.912 68.6318 877.747 66.8398C879.582 65.0051 881.459 63.1064 883.379 61.1438L886.259 66.0078C884.68 67.7571 883.016 69.5491 881.267 71.3838C879.518 73.2184 877.832 74.9678 876.211 76.6318L873.139 71.3198ZM858.227 72.5358C859.55 71.2558 861.171 69.5918 863.091 67.5438C865.054 65.4958 867.038 63.3624 869.043 61.1438L872.115 65.9438C870.366 67.9491 868.552 69.9971 866.675 72.0878C864.798 74.1358 862.984 76.0344 861.235 77.7838L858.227 72.5358Z" fill="url(#paint2_linear_112_4222)" fill-opacity="0.7"/>
<path d="M810.035 37.8478C810.632 38.7438 811.272 39.7891 811.955 40.9838C812.68 42.1358 813.384 43.3091 814.067 44.5038C814.75 45.6558 815.347 46.7438 815.859 47.7678L810.291 50.1358C809.651 48.7704 809.054 47.5544 808.499 46.4878C807.944 45.3784 807.347 44.3118 806.707 43.2878C806.11 42.2211 805.427 41.1544 804.659 40.0878L810.035 37.8478ZM818.803 34.7758C819.486 35.5864 820.19 36.5678 820.915 37.7198C821.64 38.8718 822.344 40.0238 823.027 41.1758C823.71 42.3278 824.307 43.3731 824.819 44.3118L819.379 46.7438C818.696 45.4211 818.035 44.2264 817.395 43.1598C816.798 42.0931 816.179 41.0691 815.539 40.0878C814.899 39.1064 814.174 38.0824 813.363 37.0158L818.803 34.7758ZM782.195 36.6318C783.262 37.1864 784.456 37.8691 785.779 38.6798C787.102 39.4904 788.446 40.3438 789.811 41.2398C791.176 42.0931 792.478 42.9251 793.715 43.7358C794.952 44.5038 795.976 45.1864 796.787 45.7838L792.051 52.8238C791.155 52.2264 790.088 51.5224 788.851 50.7118C787.656 49.9011 786.376 49.0691 785.011 48.2158C783.688 47.3624 782.366 46.5518 781.043 45.7838C779.763 44.9731 778.611 44.2691 777.587 43.6718L782.195 36.6318ZM770.355 82.0718C772.744 81.6451 775.176 81.1118 777.651 80.4718C780.126 79.8318 782.579 79.0638 785.011 78.1678C787.443 77.2291 789.811 76.1198 792.115 74.8398C795.742 72.7918 799.112 70.4878 802.227 67.9278C805.384 65.3678 808.222 62.6584 810.739 59.7998C813.256 56.8984 815.347 53.9118 817.011 50.8398L821.939 59.5438C818.995 63.9811 815.326 68.1838 810.931 72.1518C806.579 76.0771 801.779 79.5544 796.531 82.5838C794.355 83.7784 791.966 84.9304 789.363 86.0398C786.76 87.1064 784.2 88.0238 781.683 88.7918C779.208 89.5598 777.032 90.1144 775.155 90.4558L770.355 82.0718ZM772.339 51.2238C773.406 51.7784 774.622 52.4611 775.987 53.2718C777.352 54.0824 778.718 54.9144 780.083 55.7678C781.448 56.5784 782.728 57.3891 783.923 58.1998C785.16 58.9678 786.184 59.6504 786.995 60.2478L782.323 67.4158C781.384 66.7758 780.296 66.0504 779.059 65.2398C777.864 64.4291 776.584 63.5971 775.219 62.7438C773.896 61.8904 772.574 61.0798 771.251 60.3118C769.971 59.5011 768.798 58.8184 767.731 58.2638L772.339 51.2238Z" fill="url(#paint3_linear_112_4222)" fill-opacity="0.7"/>
<path d="M706.453 57.3678C707.221 57.4104 708.202 57.4744 709.397 57.5598C710.592 57.6024 711.829 57.6451 713.109 57.6878C714.432 57.7304 715.648 57.7518 716.757 57.7518C717.824 57.7518 719.146 57.7518 720.725 57.7518C722.304 57.7518 724.01 57.7518 725.845 57.7518C727.722 57.7518 729.642 57.7518 731.605 57.7518C733.61 57.7518 735.594 57.7518 737.557 57.7518C739.52 57.7518 741.376 57.7518 743.125 57.7518C744.874 57.7518 746.432 57.7518 747.797 57.7518C749.205 57.7518 750.314 57.7518 751.125 57.7518C752.618 57.7518 754.026 57.7091 755.349 57.6238C756.672 57.4958 757.76 57.4104 758.613 57.3678V67.4158C757.888 67.3731 756.8 67.3091 755.349 67.2238C753.898 67.1384 752.49 67.0958 751.125 67.0958C750.314 67.0958 749.205 67.0958 747.797 67.0958C746.389 67.0958 744.81 67.0958 743.061 67.0958C741.312 67.0958 739.456 67.0958 737.493 67.0958C735.573 67.0958 733.61 67.0958 731.605 67.0958C729.6 67.0958 727.658 67.0958 725.781 67.0958C723.946 67.0958 722.24 67.0958 720.661 67.0958C719.125 67.0958 717.824 67.0958 716.757 67.0958C714.922 67.0958 713.045 67.1384 711.125 67.2238C709.205 67.2664 707.648 67.3304 706.453 67.4158V57.3678Z" fill="url(#paint4_linear_112_4222)" fill-opacity="0.7"/>
<path d="M682.837 47.8318C682.837 48.9411 683.221 49.9011 683.989 50.7118C684.8 51.4798 685.76 51.8638 686.869 51.8638C688.021 51.8638 688.981 51.4798 689.749 50.7118C690.56 49.9011 690.965 48.9411 690.965 47.8318C690.965 46.6798 690.56 45.7198 689.749 44.9518C688.981 44.1411 688.021 43.7358 686.869 43.7358C685.76 43.7358 684.8 44.1411 683.989 44.9518C683.221 45.7198 682.837 46.6798 682.837 47.8318ZM678.613 47.8318C678.613 46.2531 678.976 44.8451 679.701 43.6078C680.469 42.3704 681.472 41.3891 682.709 40.6638C683.946 39.8958 685.333 39.5118 686.869 39.5118C688.448 39.5118 689.856 39.8958 691.093 40.6638C692.33 41.3891 693.312 42.3704 694.037 43.6078C694.805 44.8451 695.189 46.2531 695.189 47.8318C695.189 49.3251 694.805 50.7118 694.037 51.9918C693.312 53.2291 692.33 54.2318 691.093 54.9998C689.856 55.7251 688.448 56.0878 686.869 56.0878C685.333 56.0878 683.946 55.7251 682.709 54.9998C681.472 54.2318 680.469 53.2291 679.701 51.9918C678.976 50.7118 678.613 49.3251 678.613 47.8318ZM638.805 68.7598C639.786 67.9491 640.661 67.1811 641.429 66.4558C642.197 65.7304 643.093 64.8771 644.117 63.8958C644.842 63.1278 645.674 62.2104 646.613 61.1438C647.552 60.0771 648.554 58.8824 649.621 57.5598C650.73 56.2371 651.861 54.8931 653.013 53.5278C654.165 52.1198 655.296 50.7544 656.405 49.4318C658.282 47.1704 660.224 45.9331 662.229 45.7198C664.234 45.4638 666.474 46.5304 668.949 48.9198C670.4 50.2424 671.872 51.6718 673.365 53.2078C674.901 54.7438 676.394 56.2798 677.845 57.8158C679.338 59.3518 680.725 60.8238 682.005 62.2318C683.456 63.7251 685.077 65.4531 686.869 67.4158C688.704 69.3784 690.56 71.3838 692.437 73.4318C694.357 75.4798 696.128 77.3784 697.749 79.1278L690.709 86.6798C689.301 84.8878 687.786 83.0104 686.165 81.0478C684.544 79.0851 682.965 77.1864 681.429 75.3518C679.893 73.4744 678.485 71.8104 677.205 70.3598C676.309 69.2504 675.285 68.0771 674.133 66.8398C673.024 65.5598 671.914 64.3011 670.805 63.0638C669.696 61.8264 668.672 60.7171 667.733 59.7358C666.794 58.7544 666.048 57.9651 665.493 57.3678C664.426 56.3438 663.509 55.8744 662.741 55.9598C662.016 56.0024 661.184 56.5998 660.245 57.7518C659.648 58.5624 658.922 59.5224 658.069 60.6318C657.216 61.7411 656.341 62.9144 655.445 64.1518C654.549 65.3891 653.674 66.5838 652.821 67.7358C652.01 68.8878 651.285 69.8904 650.645 70.7438C649.92 71.7678 649.194 72.8131 648.469 73.8798C647.744 74.9038 647.082 75.8424 646.485 76.6958L638.805 68.7598Z" fill="url(#paint5_linear_112_4222)" fill-opacity="0.7"/>
<path d="M621.141 33.0478C621.696 33.8584 622.272 34.7758 622.869 35.7998C623.509 36.8238 624.106 37.8478 624.661 38.8718C625.216 39.8531 625.685 40.7278 626.069 41.4958L620.693 43.7358C620.266 42.8824 619.776 41.9651 619.221 40.9838C618.709 40.0024 618.154 39.0211 617.557 38.0398C617.002 37.0158 616.448 36.0771 615.893 35.2238L621.141 33.0478ZM630.101 31.4478C630.656 32.2158 631.253 33.1118 631.893 34.1358C632.533 35.1598 633.152 36.1838 633.749 37.2078C634.346 38.2318 634.837 39.1278 635.221 39.8958L629.909 42.1998C629.184 40.8771 628.352 39.4051 627.413 37.7838C626.517 36.1624 625.642 34.7544 624.789 33.5598L630.101 31.4478ZM627.797 45.1438C627.498 45.7411 627.221 46.4664 626.965 47.3198C626.752 48.1304 626.56 48.8771 626.389 49.5598C626.005 51.1384 625.536 52.9091 624.981 54.8718C624.469 56.7918 623.808 58.7971 622.997 60.8878C622.229 62.9784 621.312 65.0478 620.245 67.0958C619.221 69.1438 618.048 71.0638 616.725 72.8558C614.805 75.4158 612.565 77.8051 610.005 80.0238C607.488 82.2424 604.629 84.2478 601.429 86.0398C598.272 87.8318 594.794 89.3464 590.997 90.5838L584.021 82.9038C588.288 81.8798 591.957 80.6211 595.029 79.1278C598.144 77.6344 600.832 75.9278 603.093 74.0078C605.354 72.0878 607.36 70.0398 609.109 67.8638C610.517 66.0718 611.733 64.1304 612.757 62.0398C613.781 59.9491 614.613 57.8584 615.253 55.7678C615.893 53.6344 616.341 51.6504 616.597 49.8158C616 49.8158 614.954 49.8158 613.461 49.8158C611.968 49.8158 610.24 49.8158 608.277 49.8158C606.314 49.8158 604.245 49.8158 602.069 49.8158C599.893 49.8158 597.802 49.8158 595.797 49.8158C593.792 49.8158 591.978 49.8158 590.357 49.8158C588.778 49.8158 587.605 49.8158 586.837 49.8158C585.344 49.8158 583.914 49.8371 582.549 49.8798C581.184 49.9224 580.074 49.9864 579.221 50.0718V41.0478C579.861 41.1331 580.629 41.2184 581.525 41.3038C582.464 41.3891 583.402 41.4531 584.341 41.4958C585.322 41.5384 586.154 41.5598 586.837 41.5598C587.52 41.5598 588.501 41.5598 589.781 41.5598C591.061 41.5598 592.512 41.5598 594.133 41.5598C595.797 41.5598 597.525 41.5598 599.317 41.5598C601.152 41.5598 602.965 41.5598 604.757 41.5598C606.592 41.5598 608.298 41.5598 609.877 41.5598C611.456 41.5598 612.821 41.5598 613.973 41.5598C615.125 41.5598 615.957 41.5598 616.469 41.5598C617.109 41.5598 617.877 41.5384 618.773 41.4958C619.712 41.4531 620.608 41.3038 621.461 41.0478L627.797 45.1438Z" fill="url(#paint6_linear_112_4222)" fill-opacity="0.7"/>
<path d="M521.173 52.3118C521.898 52.4398 522.752 52.5251 523.733 52.5678C524.714 52.6104 525.546 52.6318 526.229 52.6318H555.541C556.309 52.6318 557.141 52.6104 558.037 52.5678C558.933 52.5251 559.765 52.4398 560.533 52.3118V60.3758C559.722 60.2904 558.869 60.2264 557.973 60.1838C557.077 60.1411 556.266 60.1198 555.541 60.1198H526.229C525.546 60.1198 524.714 60.1411 523.733 60.1838C522.752 60.2264 521.898 60.2904 521.173 60.3758V52.3118ZM536.213 85.0798V56.7278H544.597V85.0798H536.213ZM517.909 80.3438C518.72 80.4291 519.594 80.5144 520.533 80.5998C521.472 80.6851 522.346 80.7278 523.157 80.7278H558.549C559.445 80.7278 560.298 80.6851 561.109 80.5998C561.962 80.4718 562.73 80.3864 563.413 80.3438V88.7278C562.73 88.5998 561.877 88.5144 560.853 88.4718C559.872 88.4291 559.104 88.4078 558.549 88.4078H523.157C522.389 88.4078 521.536 88.4291 520.597 88.4718C519.658 88.5144 518.762 88.5998 517.909 88.7278V80.3438Z" fill="url(#paint7_linear_112_4222)" fill-opacity="0.7"/>
<path d="M481.173 34.7118C481.045 36.0771 480.938 37.1864 480.853 38.0398C480.768 38.8504 480.725 39.7038 480.725 40.5998C480.725 41.1544 480.725 42.0078 480.725 43.1598C480.725 44.3118 480.725 45.5064 480.725 46.7438C480.725 47.9811 480.725 49.0051 480.725 49.8158H471.829C471.829 48.9198 471.829 47.8531 471.829 46.6158C471.829 45.3784 471.829 44.2051 471.829 43.0958C471.829 41.9864 471.829 41.1544 471.829 40.5998C471.829 39.7038 471.786 38.8504 471.701 38.0398C471.658 37.1864 471.53 36.0771 471.317 34.7118H481.173ZM502.741 48.2158C502.485 48.8984 502.229 49.7731 501.973 50.8398C501.76 51.8638 501.589 52.6958 501.461 53.3358C501.205 54.8291 500.885 56.3438 500.501 57.8798C500.16 59.4158 499.733 60.9518 499.221 62.4878C498.752 64.0238 498.197 65.5384 497.557 67.0318C496.96 68.5251 496.277 69.9971 495.509 71.4478C493.802 74.5624 491.626 77.3998 488.981 79.9598C486.378 82.5198 483.413 84.6958 480.085 86.4878C476.757 88.2371 473.194 89.6238 469.397 90.6478L462.741 82.9678C464.192 82.7118 465.728 82.3704 467.349 81.9438C468.97 81.4744 470.442 80.9838 471.765 80.4718C473.557 79.7891 475.328 78.9358 477.077 77.9118C478.869 76.8451 480.554 75.6078 482.133 74.1998C483.712 72.7918 485.098 71.2344 486.293 69.5278C487.36 67.9491 488.277 66.2638 489.045 64.4718C489.813 62.6371 490.432 60.7598 490.901 58.8398C491.37 56.8771 491.733 54.9571 491.989 53.0798H460.245C460.245 53.6344 460.245 54.3384 460.245 55.1918C460.245 56.0024 460.245 56.8984 460.245 57.8798C460.245 58.8184 460.245 59.6931 460.245 60.5038C460.245 61.2718 460.245 61.9118 460.245 62.4238C460.245 63.1491 460.266 63.9598 460.309 64.8558C460.352 65.7518 460.394 66.5198 460.437 67.1598H451.605C451.69 66.3491 451.754 65.4744 451.797 64.5358C451.882 63.5544 451.925 62.6371 451.925 61.7838C451.925 61.2718 451.925 60.5251 451.925 59.5438C451.925 58.5624 451.925 57.5171 451.925 56.4078C451.925 55.2558 451.925 54.1678 451.925 53.1438C451.925 52.1198 451.925 51.3091 451.925 50.7118C451.925 49.9864 451.904 49.0904 451.861 48.0238C451.818 46.9144 451.733 45.9758 451.605 45.2078C452.714 45.3358 453.781 45.4211 454.805 45.4638C455.829 45.5064 456.938 45.5278 458.133 45.5278H491.861C493.184 45.5278 494.25 45.4638 495.061 45.3358C495.914 45.1651 496.618 44.9944 497.173 44.8238L502.741 48.2158Z" fill="url(#paint8_linear_112_4222)" fill-opacity="0.7"/>
</g>
</g>
<path d="M345 81H1056V107C1056 113.627 1050.63 119 1044 119H357C350.373 119 345 113.627 345 107V81Z" fill="url(#paint9_linear_112_4222)"/>
<path d="M926.179 23.2878H951.587V50.9998H926.179V43.7678H943.907V30.5838H926.179V23.2878ZM921.891 23.2878H929.443V46.9038C929.443 49.5064 929.315 52.3224 929.059 55.3518C928.846 58.3811 928.419 61.4318 927.779 64.5038C927.139 67.5758 926.2 70.5198 924.963 73.3358C923.768 76.1518 922.168 78.6478 920.163 80.8238C919.779 80.3544 919.224 79.7784 918.499 79.0958C917.774 78.4131 917.027 77.7518 916.259 77.1118C915.534 76.4718 914.894 76.0024 914.339 75.7038C916.088 73.7411 917.475 71.5864 918.499 69.2398C919.523 66.8504 920.27 64.3758 920.739 61.8158C921.208 59.2131 921.507 56.6531 921.635 54.1358C921.806 51.6184 921.891 49.2078 921.891 46.9038V23.2878ZM942.051 47.7358C942.563 51.8318 943.267 55.4584 944.163 58.6158C945.059 61.7731 946.339 64.6104 948.003 67.1278C949.71 69.6024 951.971 71.9491 954.787 74.1678C953.763 74.9784 952.76 75.9811 951.779 77.1758C950.798 78.4131 950.051 79.6291 949.539 80.8238C946.211 78.0078 943.566 75.0211 941.603 71.8638C939.64 68.7064 938.147 65.2291 937.123 61.4318C936.099 57.6344 935.288 53.3891 934.691 48.6958L942.051 47.7358ZM896.803 40.2478H916.131V46.0718H896.803V40.2478ZM897.059 22.6478H916.003V28.4078H897.059V22.6478ZM896.803 49.0158H916.131V54.7758H896.803V49.0158ZM893.795 31.2238H918.243V37.3038H893.795V31.2238ZM900.131 57.8478H916.259V77.3678H900.131V71.2878H909.667V63.9278H900.131V57.8478ZM896.675 57.8478H903.139V79.8638H896.675V57.8478Z" fill="url(#paint10_linear_112_4222)"/>
<path d="M830.499 35.7678H858.595V41.3358H830.499V35.7678ZM835.619 63.6078H854.243V68.5358H835.619V63.6078ZM835.811 71.9278H853.795V77.6238H835.811V71.9278ZM842.147 26.6798H848.547V53.8798H842.147V26.6798ZM842.659 58.2958H847.843V74.8718H842.659V58.2958ZM855.011 20.7918L858.787 25.8478C856.355 26.4024 853.624 26.8718 850.595 27.2558C847.566 27.6398 844.472 27.9384 841.315 28.1518C838.2 28.3651 835.192 28.5144 832.291 28.5998C832.206 27.8744 831.992 27.0424 831.651 26.1038C831.352 25.1224 831.032 24.3118 830.691 23.6718C833.507 23.4584 836.408 23.2238 839.395 22.9678C842.382 22.7118 845.219 22.4131 847.907 22.0718C850.638 21.6878 853.006 21.2611 855.011 20.7918ZM847.715 39.7358C848.312 40.0344 849.144 40.5464 850.211 41.2718C851.32 41.9544 852.472 42.7011 853.667 43.5118C854.904 44.3224 856.035 45.0904 857.059 45.8158C858.083 46.4984 858.808 46.9891 859.235 47.2878L855.395 53.2398C854.84 52.5571 854.094 51.7678 853.155 50.8718C852.259 49.9331 851.256 48.9731 850.147 47.9918C849.08 46.9678 848.056 46.0078 847.075 45.1118C846.094 44.2158 845.262 43.4904 844.579 42.9358L847.715 39.7358ZM832.803 29.8158L837.731 28.5358C838.158 29.5598 838.584 30.6691 839.011 31.8638C839.48 33.0584 839.822 34.0611 840.035 34.8718L834.851 36.4078C834.638 35.5544 834.339 34.5091 833.955 33.2718C833.571 31.9918 833.187 30.8398 832.803 29.8158ZM852.451 27.7678L858.019 29.4318C857.336 30.9678 856.654 32.4824 855.971 33.9758C855.331 35.4691 854.734 36.7491 854.179 37.8158L849.507 36.4078C849.848 35.5971 850.211 34.7011 850.595 33.7198C850.979 32.6958 851.32 31.6718 851.619 30.6478C851.96 29.5811 852.238 28.6211 852.451 27.7678ZM841.059 38.5198L845.411 41.0158C844.387 42.8078 843.171 44.7064 841.763 46.7118C840.355 48.6744 838.84 50.5304 837.219 52.2798C835.598 54.0291 833.976 55.4798 832.355 56.6318C832.099 55.6078 831.672 54.4558 831.075 53.1758C830.52 51.8531 829.987 50.7224 829.475 49.7838C830.926 48.9731 832.376 47.9491 833.827 46.7118C835.32 45.4318 836.707 44.0878 837.987 42.6798C839.267 41.2291 840.291 39.8424 841.059 38.5198ZM832.291 54.8398H858.211V79.9278H852.259V60.5358H837.923V80.6958H832.291V54.8398ZM860.323 23.2878H871.139V29.6878H860.323V23.2878ZM867.747 23.2878H873.891V73.2078C873.891 74.7011 873.72 75.9384 873.379 76.9198C873.08 77.9011 872.483 78.6478 871.587 79.1598C870.648 79.7144 869.518 80.0558 868.195 80.1838C866.872 80.3544 865.294 80.4398 863.459 80.4398C863.374 79.5864 863.139 78.5198 862.755 77.2398C862.371 76.0024 861.966 74.9571 861.539 74.1038C862.648 74.1464 863.694 74.1891 864.675 74.2318C865.699 74.2318 866.403 74.2104 866.787 74.1678C867.128 74.1678 867.363 74.1038 867.491 73.9758C867.662 73.8051 867.747 73.5064 867.747 73.0798V23.2878ZM875.235 23.4158H884.963V29.8158H875.235V23.4158ZM882.403 23.4158H888.675V73.0158C888.675 74.6371 888.504 75.9384 888.163 76.9198C887.822 77.9438 887.16 78.7331 886.179 79.2878C885.198 79.8424 883.982 80.1838 882.531 80.3118C881.123 80.4824 879.416 80.5678 877.411 80.5678C877.326 79.6718 877.07 78.5624 876.643 77.2398C876.216 75.9598 875.768 74.8931 875.299 74.0398C876.536 74.0824 877.731 74.1038 878.883 74.1038C880.078 74.1038 880.867 74.1038 881.251 74.1038C881.678 74.1038 881.976 74.0184 882.147 73.8478C882.318 73.6771 882.403 73.3784 882.403 72.9518V23.4158ZM859.299 36.0238L864.099 34.8078C864.654 36.0878 865.187 37.4958 865.699 39.0318C866.254 40.5251 866.744 41.9971 867.171 43.4478C867.598 44.8558 867.918 46.0931 868.131 47.1598L863.011 48.7598C862.84 47.6504 862.542 46.3704 862.115 44.9198C861.731 43.4691 861.283 41.9544 860.771 40.3758C860.302 38.7971 859.811 37.3464 859.299 36.0238ZM874.403 35.5758L879.267 34.6158C879.736 35.9384 880.184 37.3891 880.611 38.9678C881.038 40.5038 881.422 41.9758 881.763 43.3838C882.104 44.7918 882.36 46.0291 882.531 47.0958L877.347 48.3758C877.219 47.2664 876.984 45.9864 876.643 44.5358C876.344 43.0424 876.003 41.5278 875.619 39.9918C875.235 38.4131 874.83 36.9411 874.403 35.5758ZM873.699 59.3198C874.936 58.1251 876.472 56.6318 878.307 54.8398C880.142 53.0051 882.019 51.1064 883.939 49.1438L886.819 54.0078C885.24 55.7571 883.576 57.5491 881.827 59.3838C880.078 61.2184 878.392 62.9678 876.771 64.6318L873.699 59.3198ZM858.787 60.5358C860.11 59.2558 861.731 57.5918 863.651 55.5438C865.614 53.4958 867.598 51.3624 869.603 49.1438L872.675 53.9438C870.926 55.9491 869.112 57.9971 867.235 60.0878C865.358 62.1358 863.544 64.0344 861.795 65.7838L858.787 60.5358Z" fill="url(#paint11_linear_112_4222)"/>
<path d="M810.595 25.8478C811.192 26.7438 811.832 27.7891 812.515 28.9838C813.24 30.1358 813.944 31.3091 814.627 32.5038C815.31 33.6558 815.907 34.7438 816.419 35.7678L810.851 38.1358C810.211 36.7704 809.614 35.5544 809.059 34.4878C808.504 33.3784 807.907 32.3118 807.267 31.2878C806.67 30.2211 805.987 29.1544 805.219 28.0878L810.595 25.8478ZM819.363 22.7758C820.046 23.5864 820.75 24.5678 821.475 25.7198C822.2 26.8718 822.904 28.0238 823.587 29.1758C824.27 30.3278 824.867 31.3731 825.379 32.3118L819.939 34.7438C819.256 33.4211 818.595 32.2264 817.955 31.1598C817.358 30.0931 816.739 29.0691 816.099 28.0878C815.459 27.1064 814.734 26.0824 813.923 25.0158L819.363 22.7758ZM782.755 24.6318C783.822 25.1864 785.016 25.8691 786.339 26.6798C787.662 27.4904 789.006 28.3438 790.371 29.2398C791.736 30.0931 793.038 30.9251 794.275 31.7358C795.512 32.5038 796.536 33.1864 797.347 33.7838L792.611 40.8238C791.715 40.2264 790.648 39.5224 789.411 38.7118C788.216 37.9011 786.936 37.0691 785.571 36.2158C784.248 35.3624 782.926 34.5518 781.603 33.7838C780.323 32.9731 779.171 32.2691 778.147 31.6718L782.755 24.6318ZM770.915 70.0718C773.304 69.6451 775.736 69.1118 778.211 68.4718C780.686 67.8318 783.139 67.0638 785.571 66.1678C788.003 65.2291 790.371 64.1198 792.675 62.8398C796.302 60.7918 799.672 58.4878 802.787 55.9278C805.944 53.3678 808.782 50.6584 811.299 47.7998C813.816 44.8984 815.907 41.9118 817.571 38.8398L822.499 47.5438C819.555 51.9811 815.886 56.1838 811.491 60.1518C807.139 64.0771 802.339 67.5544 797.091 70.5838C794.915 71.7784 792.526 72.9304 789.923 74.0398C787.32 75.1064 784.76 76.0238 782.243 76.7918C779.768 77.5598 777.592 78.1144 775.715 78.4558L770.915 70.0718ZM772.899 39.2238C773.966 39.7784 775.182 40.4611 776.547 41.2718C777.912 42.0824 779.278 42.9144 780.643 43.7678C782.008 44.5784 783.288 45.3891 784.483 46.1998C785.72 46.9678 786.744 47.6504 787.555 48.2478L782.883 55.4158C781.944 54.7758 780.856 54.0504 779.619 53.2398C778.424 52.4291 777.144 51.5971 775.779 50.7438C774.456 49.8904 773.134 49.0798 771.811 48.3118C770.531 47.5011 769.358 46.8184 768.291 46.2638L772.899 39.2238Z" fill="url(#paint12_linear_112_4222)"/>
<path d="M707.013 45.3678C707.781 45.4104 708.762 45.4744 709.957 45.5598C711.152 45.6024 712.389 45.6451 713.669 45.6878C714.992 45.7304 716.208 45.7518 717.317 45.7518C718.384 45.7518 719.706 45.7518 721.285 45.7518C722.864 45.7518 724.57 45.7518 726.405 45.7518C728.282 45.7518 730.202 45.7518 732.165 45.7518C734.17 45.7518 736.154 45.7518 738.117 45.7518C740.08 45.7518 741.936 45.7518 743.685 45.7518C745.434 45.7518 746.992 45.7518 748.357 45.7518C749.765 45.7518 750.874 45.7518 751.685 45.7518C753.178 45.7518 754.586 45.7091 755.909 45.6238C757.232 45.4958 758.32 45.4104 759.173 45.3678V55.4158C758.448 55.3731 757.36 55.3091 755.909 55.2238C754.458 55.1384 753.05 55.0958 751.685 55.0958C750.874 55.0958 749.765 55.0958 748.357 55.0958C746.949 55.0958 745.37 55.0958 743.621 55.0958C741.872 55.0958 740.016 55.0958 738.053 55.0958C736.133 55.0958 734.17 55.0958 732.165 55.0958C730.16 55.0958 728.218 55.0958 726.341 55.0958C724.506 55.0958 722.8 55.0958 721.221 55.0958C719.685 55.0958 718.384 55.0958 717.317 55.0958C715.482 55.0958 713.605 55.1384 711.685 55.2238C709.765 55.2664 708.208 55.3304 707.013 55.4158V45.3678Z" fill="url(#paint13_linear_112_4222)"/>
<path d="M683.397 35.8318C683.397 36.9411 683.781 37.9011 684.549 38.7118C685.36 39.4798 686.32 39.8638 687.429 39.8638C688.581 39.8638 689.541 39.4798 690.309 38.7118C691.12 37.9011 691.525 36.9411 691.525 35.8318C691.525 34.6798 691.12 33.7198 690.309 32.9518C689.541 32.1411 688.581 31.7358 687.429 31.7358C686.32 31.7358 685.36 32.1411 684.549 32.9518C683.781 33.7198 683.397 34.6798 683.397 35.8318ZM679.173 35.8318C679.173 34.2531 679.536 32.8451 680.261 31.6078C681.029 30.3704 682.032 29.3891 683.269 28.6638C684.506 27.8958 685.893 27.5118 687.429 27.5118C689.008 27.5118 690.416 27.8958 691.653 28.6638C692.89 29.3891 693.872 30.3704 694.597 31.6078C695.365 32.8451 695.749 34.2531 695.749 35.8318C695.749 37.3251 695.365 38.7118 694.597 39.9918C693.872 41.2291 692.89 42.2318 691.653 42.9998C690.416 43.7251 689.008 44.0878 687.429 44.0878C685.893 44.0878 684.506 43.7251 683.269 42.9998C682.032 42.2318 681.029 41.2291 680.261 39.9918C679.536 38.7118 679.173 37.3251 679.173 35.8318ZM639.365 56.7598C640.346 55.9491 641.221 55.1811 641.989 54.4558C642.757 53.7304 643.653 52.8771 644.677 51.8958C645.402 51.1278 646.234 50.2104 647.173 49.1438C648.112 48.0771 649.114 46.8824 650.181 45.5598C651.29 44.2371 652.421 42.8931 653.573 41.5278C654.725 40.1198 655.856 38.7544 656.965 37.4318C658.842 35.1704 660.784 33.9331 662.789 33.7198C664.794 33.4638 667.034 34.5304 669.509 36.9198C670.96 38.2424 672.432 39.6718 673.925 41.2078C675.461 42.7438 676.954 44.2798 678.405 45.8158C679.898 47.3518 681.285 48.8238 682.565 50.2318C684.016 51.7251 685.637 53.4531 687.429 55.4158C689.264 57.3784 691.12 59.3838 692.997 61.4318C694.917 63.4798 696.688 65.3784 698.309 67.1278L691.269 74.6798C689.861 72.8878 688.346 71.0104 686.725 69.0478C685.104 67.0851 683.525 65.1864 681.989 63.3518C680.453 61.4744 679.045 59.8104 677.765 58.3598C676.869 57.2504 675.845 56.0771 674.693 54.8398C673.584 53.5598 672.474 52.3011 671.365 51.0638C670.256 49.8264 669.232 48.7171 668.293 47.7358C667.354 46.7544 666.608 45.9651 666.053 45.3678C664.986 44.3438 664.069 43.8744 663.301 43.9598C662.576 44.0024 661.744 44.5998 660.805 45.7518C660.208 46.5624 659.482 47.5224 658.629 48.6318C657.776 49.7411 656.901 50.9144 656.005 52.1518C655.109 53.3891 654.234 54.5838 653.381 55.7358C652.57 56.8878 651.845 57.8904 651.205 58.7438C650.48 59.7678 649.754 60.8131 649.029 61.8798C648.304 62.9038 647.642 63.8424 647.045 64.6958L639.365 56.7598Z" fill="url(#paint14_linear_112_4222)"/>
<path d="M621.701 21.0478C622.256 21.8584 622.832 22.7758 623.429 23.7998C624.069 24.8238 624.666 25.8478 625.221 26.8718C625.776 27.8531 626.245 28.7278 626.629 29.4958L621.253 31.7358C620.826 30.8824 620.336 29.9651 619.781 28.9838C619.269 28.0024 618.714 27.0211 618.117 26.0398C617.562 25.0158 617.008 24.0771 616.453 23.2238L621.701 21.0478ZM630.661 19.4478C631.216 20.2158 631.813 21.1118 632.453 22.1358C633.093 23.1598 633.712 24.1838 634.309 25.2078C634.906 26.2318 635.397 27.1278 635.781 27.8958L630.469 30.1998C629.744 28.8771 628.912 27.4051 627.973 25.7838C627.077 24.1624 626.202 22.7544 625.349 21.5598L630.661 19.4478ZM628.357 33.1438C628.058 33.7411 627.781 34.4664 627.525 35.3198C627.312 36.1304 627.12 36.8771 626.949 37.5598C626.565 39.1384 626.096 40.9091 625.541 42.8718C625.029 44.7918 624.368 46.7971 623.557 48.8878C622.789 50.9784 621.872 53.0478 620.805 55.0958C619.781 57.1438 618.608 59.0638 617.285 60.8558C615.365 63.4158 613.125 65.8051 610.565 68.0238C608.048 70.2424 605.189 72.2478 601.989 74.0398C598.832 75.8318 595.354 77.3464 591.557 78.5838L584.581 70.9038C588.848 69.8798 592.517 68.6211 595.589 67.1278C598.704 65.6344 601.392 63.9278 603.653 62.0078C605.914 60.0878 607.92 58.0398 609.669 55.8638C611.077 54.0718 612.293 52.1304 613.317 50.0398C614.341 47.9491 615.173 45.8584 615.813 43.7678C616.453 41.6344 616.901 39.6504 617.157 37.8158C616.56 37.8158 615.514 37.8158 614.021 37.8158C612.528 37.8158 610.8 37.8158 608.837 37.8158C606.874 37.8158 604.805 37.8158 602.629 37.8158C600.453 37.8158 598.362 37.8158 596.357 37.8158C594.352 37.8158 592.538 37.8158 590.917 37.8158C589.338 37.8158 588.165 37.8158 587.397 37.8158C585.904 37.8158 584.474 37.8371 583.109 37.8798C581.744 37.9224 580.634 37.9864 579.781 38.0718V29.0478C580.421 29.1331 581.189 29.2184 582.085 29.3038C583.024 29.3891 583.962 29.4531 584.901 29.4958C585.882 29.5384 586.714 29.5598 587.397 29.5598C588.08 29.5598 589.061 29.5598 590.341 29.5598C591.621 29.5598 593.072 29.5598 594.693 29.5598C596.357 29.5598 598.085 29.5598 599.877 29.5598C601.712 29.5598 603.525 29.5598 605.317 29.5598C607.152 29.5598 608.858 29.5598 610.437 29.5598C612.016 29.5598 613.381 29.5598 614.533 29.5598C615.685 29.5598 616.517 29.5598 617.029 29.5598C617.669 29.5598 618.437 29.5384 619.333 29.4958C620.272 29.4531 621.168 29.3038 622.021 29.0478L628.357 33.1438Z" fill="url(#paint15_linear_112_4222)"/>
<path d="M521.733 40.3118C522.458 40.4398 523.312 40.5251 524.293 40.5678C525.274 40.6104 526.106 40.6318 526.789 40.6318H556.101C556.869 40.6318 557.701 40.6104 558.597 40.5678C559.493 40.5251 560.325 40.4398 561.093 40.3118V48.3758C560.282 48.2904 559.429 48.2264 558.533 48.1838C557.637 48.1411 556.826 48.1198 556.101 48.1198H526.789C526.106 48.1198 525.274 48.1411 524.293 48.1838C523.312 48.2264 522.458 48.2904 521.733 48.3758V40.3118ZM536.773 73.0798V44.7278H545.157V73.0798H536.773ZM518.469 68.3438C519.28 68.4291 520.154 68.5144 521.093 68.5998C522.032 68.6851 522.906 68.7278 523.717 68.7278H559.109C560.005 68.7278 560.858 68.6851 561.669 68.5998C562.522 68.4718 563.29 68.3864 563.973 68.3438V76.7278C563.29 76.5998 562.437 76.5144 561.413 76.4718C560.432 76.4291 559.664 76.4078 559.109 76.4078H523.717C522.949 76.4078 522.096 76.4291 521.157 76.4718C520.218 76.5144 519.322 76.5998 518.469 76.7278V68.3438Z" fill="url(#paint16_linear_112_4222)"/>
<path d="M481.733 22.7118C481.605 24.0771 481.498 25.1864 481.413 26.0398C481.328 26.8504 481.285 27.7038 481.285 28.5998C481.285 29.1544 481.285 30.0078 481.285 31.1598C481.285 32.3118 481.285 33.5064 481.285 34.7438C481.285 35.9811 481.285 37.0051 481.285 37.8158H472.389C472.389 36.9198 472.389 35.8531 472.389 34.6158C472.389 33.3784 472.389 32.2051 472.389 31.0958C472.389 29.9864 472.389 29.1544 472.389 28.5998C472.389 27.7038 472.346 26.8504 472.261 26.0398C472.218 25.1864 472.09 24.0771 471.877 22.7118H481.733ZM503.301 36.2158C503.045 36.8984 502.789 37.7731 502.533 38.8398C502.32 39.8638 502.149 40.6958 502.021 41.3358C501.765 42.8291 501.445 44.3438 501.061 45.8798C500.72 47.4158 500.293 48.9518 499.781 50.4878C499.312 52.0238 498.757 53.5384 498.117 55.0318C497.52 56.5251 496.837 57.9971 496.069 59.4478C494.362 62.5624 492.186 65.3998 489.541 67.9598C486.938 70.5198 483.973 72.6958 480.645 74.4878C477.317 76.2371 473.754 77.6238 469.957 78.6478L463.301 70.9678C464.752 70.7118 466.288 70.3704 467.909 69.9438C469.53 69.4744 471.002 68.9838 472.325 68.4718C474.117 67.7891 475.888 66.9358 477.637 65.9118C479.429 64.8451 481.114 63.6078 482.693 62.1998C484.272 60.7918 485.658 59.2344 486.853 57.5278C487.92 55.9491 488.837 54.2638 489.605 52.4718C490.373 50.6371 490.992 48.7598 491.461 46.8398C491.93 44.8771 492.293 42.9571 492.549 41.0798H460.805C460.805 41.6344 460.805 42.3384 460.805 43.1918C460.805 44.0024 460.805 44.8984 460.805 45.8798C460.805 46.8184 460.805 47.6931 460.805 48.5038C460.805 49.2718 460.805 49.9118 460.805 50.4238C460.805 51.1491 460.826 51.9598 460.869 52.8558C460.912 53.7518 460.954 54.5198 460.997 55.1598H452.165C452.25 54.3491 452.314 53.4744 452.357 52.5358C452.442 51.5544 452.485 50.6371 452.485 49.7838C452.485 49.2718 452.485 48.5251 452.485 47.5438C452.485 46.5624 452.485 45.5171 452.485 44.4078C452.485 43.2558 452.485 42.1678 452.485 41.1438C452.485 40.1198 452.485 39.3091 452.485 38.7118C452.485 37.9864 452.464 37.0904 452.421 36.0238C452.378 34.9144 452.293 33.9758 452.165 33.2078C453.274 33.3358 454.341 33.4211 455.365 33.4638C456.389 33.5064 457.498 33.5278 458.693 33.5278H492.421C493.744 33.5278 494.81 33.4638 495.621 33.3358C496.474 33.1651 497.178 32.9944 497.733 32.8238L503.301 36.2158Z" fill="url(#paint17_linear_112_4222)"/>
<defs>
<filter id="filter0_f_112_4222" x="431.605" y="11.4478" width="542.622" height="101.376" filterUnits="userSpaceOnUse" color-interpolation-filters="sRGB">
<feFlood flood-opacity="0" result="BackgroundImageFix"/>
<feBlend mode="normal" in="SourceGraphic" in2="BackgroundImageFix" result="shape"/>
<feGaussianBlur stdDeviation="10" result="effect1_foregroundBlur_112_4222"/>
</filter>
<linearGradient id="paint0_linear_112_4222" x1="345" y1="73.0036" x2="1056" y2="73.003" gradientUnits="userSpaceOnUse">
<stop stop-color="white" stop-opacity="0.3"/>
<stop offset="0.495" stop-color="#CBB0F8"/>
<stop offset="1" stop-color="white" stop-opacity="0.3"/>
</linearGradient>
<linearGradient id="paint1_linear_112_4222" x1="964.223" y1="57.6667" x2="-3246.82" y2="57.6697" gradientUnits="userSpaceOnUse">
<stop stop-color="#F4439F"/>
<stop offset="1" stop-color="#7C3AED"/>
</linearGradient>
<linearGradient id="paint2_linear_112_4222" x1="1525.83" y1="58.8121" x2="-2812.68" y2="58.8153" gradientUnits="userSpaceOnUse">
<stop stop-color="#F4439F"/>
<stop offset="1" stop-color="#7C3AED"/>
</linearGradient>
<linearGradient id="paint3_linear_112_4222" x1="2104.26" y1="58.701" x2="-2394.76" y2="58.7043" gradientUnits="userSpaceOnUse">
<stop stop-color="#F4439F"/>
<stop offset="1" stop-color="#7C3AED"/>
</linearGradient>
<linearGradient id="paint4_linear_112_4222" x1="2850.88" y1="44.4706" x2="-2073.19" y2="44.4713" gradientUnits="userSpaceOnUse">
<stop stop-color="#F4439F"/>
<stop offset="1" stop-color="#7C3AED"/>
</linearGradient>
<linearGradient id="paint5_linear_112_4222" x1="3151.59" y1="57.4566" x2="-1205.77" y2="57.4592" gradientUnits="userSpaceOnUse">
<stop stop-color="#F4439F"/>
<stop offset="1" stop-color="#7C3AED"/>
</linearGradient>
<linearGradient id="paint6_linear_112_4222" x1="3828.32" y1="60.5624" x2="-758.108" y2="60.566" gradientUnits="userSpaceOnUse">
<stop stop-color="#F4439F"/>
<stop offset="1" stop-color="#7C3AED"/>
</linearGradient>
<linearGradient id="paint7_linear_112_4222" x1="5284.43" y1="43.5625" x2="-359.909" y2="43.5659" gradientUnits="userSpaceOnUse">
<stop stop-color="#F4439F"/>
<stop offset="1" stop-color="#7C3AED"/>
</linearGradient>
<linearGradient id="paint8_linear_112_4222" x1="955.44" y1="59.4999" x2="444.44" y2="59.5" gradientUnits="userSpaceOnUse">
<stop stop-color="#F4439F"/>
<stop offset="1" stop-color="#7C3AED"/>
</linearGradient>
<linearGradient id="paint9_linear_112_4222" x1="700.5" y1="81" x2="700.5" y2="119" gradientUnits="userSpaceOnUse">
<stop offset="0.0001" stop-color="white" stop-opacity="0.1"/>
<stop offset="1" stop-color="white" stop-opacity="0"/>
</linearGradient>
<linearGradient id="paint10_linear_112_4222" x1="964.783" y1="-3.39102" x2="537.373" y2="1306.58" gradientUnits="userSpaceOnUse">
<stop stop-color="#F4439F"/>
<stop offset="1" stop-color="#7C3AED"/>
</linearGradient>
<linearGradient id="paint11_linear_112_4222" x1="1526.39" y1="-0.830597" x2="1130.89" y2="1285.15" gradientUnits="userSpaceOnUse">
<stop stop-color="#F4439F"/>
<stop offset="1" stop-color="#7C3AED"/>
</linearGradient>
<linearGradient id="paint12_linear_112_4222" x1="2104.82" y1="-4.55592" x2="1666.26" y2="1369.91" gradientUnits="userSpaceOnUse">
<stop stop-color="#F4439F"/>
<stop offset="1" stop-color="#7C3AED"/>
</linearGradient>
<linearGradient id="paint13_linear_112_4222" x1="2851.44" y1="-251.564" x2="-904.14" y2="2073.13" gradientUnits="userSpaceOnUse">
<stop stop-color="#F4439F"/>
<stop offset="1" stop-color="#7C3AED"/>
</linearGradient>
<linearGradient id="paint14_linear_112_4222" x1="3152.15" y1="-15.0502" x2="2548.24" y2="1537.78" gradientUnits="userSpaceOnUse">
<stop stop-color="#F4439F"/>
<stop offset="1" stop-color="#7C3AED"/>
</linearGradient>
<linearGradient id="paint15_linear_112_4222" x1="3828.88" y1="0.300943" x2="3442.24" y2="1312.25" gradientUnits="userSpaceOnUse">
<stop stop-color="#F4439F"/>
<stop offset="1" stop-color="#7C3AED"/>
</linearGradient>
<linearGradient id="paint16_linear_112_4222" x1="5284.99" y1="-46.8092" x2="4502.82" y2="1964.54" gradientUnits="userSpaceOnUse">
<stop stop-color="#F4439F"/>
<stop offset="1" stop-color="#7C3AED"/>
</linearGradient>
<linearGradient id="paint17_linear_112_4222" x1="956" y1="0.99988" x2="488.852" y2="184.298" gradientUnits="userSpaceOnUse">
<stop stop-color="#F4439F"/>
<stop offset="1" stop-color="#7C3AED"/>
</linearGradient>
</defs>
</svg>
