<svg width="1400" height="120" viewBox="0 0 1400 120" fill="none" xmlns="http://www.w3.org/2000/svg">
<path d="M472 54H928V70H472V54Z" fill="url(#paint0_linear_24_3056)"/>
<mask id="mask0_24_3056" style="mask-type:alpha" maskUnits="userSpaceOnUse" x="472" y="70" width="456" height="47">
<path d="M472 70H928V117H472V70Z" fill="#C4C4C4"/>
</mask>
<g mask="url(#mask0_24_3056)">
<g filter="url(#filter0_f_24_3056)">
<path d="M788.407 30.904V37.368H766.519V30.904H774.391C773.581 28.1307 772.877 25.912 772.279 24.248L779.063 22.52C780.301 26.1467 781.175 28.9414 781.687 30.904H788.407ZM809.271 52.152C810.21 57.272 812.002 61.9227 814.647 66.104C817.293 70.2427 820.77 73.6134 825.079 76.216L821.047 82.808C815.714 79.0534 811.511 74.7014 808.439 69.752C805.41 64.76 803.191 58.8934 801.783 52.152H798.583C798.455 57.0587 798.093 61.1974 797.495 64.568C796.941 67.9387 796.023 71.0534 794.743 73.912C793.506 76.728 791.735 79.7147 789.431 82.872L783.095 78.52C783.266 78.264 783.415 78.072 783.543 77.944H767.799V57.912H786.743V73.08C788.663 69.7094 789.943 66.2107 790.583 62.584C791.266 58.9574 791.607 53.88 791.607 47.352V26.04H822.519V52.152H809.271ZM815.287 45.048V33.208H798.647V45.048H815.287ZM768.695 40.056H786.167V46.2H768.695V40.056ZM786.167 55.096H768.695V48.888H786.167V55.096ZM774.391 71.48H780.151V64.312H774.391V71.48Z" fill="url(#paint1_linear_24_3056)" fill-opacity="0.7"/>
<path d="M746.423 25.592H758.839V74.232C758.839 77.0054 758.391 78.968 757.495 80.12C756.642 81.272 755.021 81.848 752.631 81.848C751.053 81.848 749.41 81.6774 747.703 81.336L746.487 74.104C748.023 74.488 749.325 74.68 750.391 74.68C751.245 74.68 751.821 74.4027 752.119 73.848C752.461 73.2934 752.631 72.3974 752.631 71.16V62.136C749.73 64.696 748.002 66.2534 747.447 66.808L744.503 61.368L744.439 74.296C744.482 77.0694 744.098 79.0107 743.287 80.12C742.477 81.272 740.941 81.848 738.679 81.848C737.015 81.848 735.287 81.6774 733.495 81.336L732.407 74.104C734.029 74.488 735.33 74.68 736.311 74.68C737.25 74.68 737.89 74.3814 738.231 73.784C738.573 73.1867 738.743 72.2054 738.743 70.84V61.88C735.586 64.6107 733.709 66.2747 733.111 66.872L730.231 61.112V81.08H704.055V57.08L703.607 57.336L700.599 51.768C704.781 49.592 708.045 47.3094 710.391 44.92H702.199V39.352H707.191C706.551 38.2 705.485 36.4507 703.991 34.104L708.407 31.608L703.799 31.928L703.223 26.232C715.341 25.592 723.981 24.7814 729.143 23.8L729.847 29.496C726.391 30.008 723.191 30.392 720.247 30.648V39.352H725.431L721.399 37.368C722.893 35.1494 724.13 32.9094 725.111 30.648L730.231 32.888L726.903 39.352H730.679V44.92H723.255C728.077 47.7787 731.149 49.656 732.471 50.552L729.975 54.968H730.231V59.704C732.749 57.8267 735.586 55.5867 738.743 52.984V50.488L734.967 51.832C734.327 49.6134 733.538 47.096 732.599 44.28C731.703 41.4214 730.978 39.2454 730.423 37.752L735.095 35.96L738.743 47.288V33.08H731.703V25.592H744.567V37.304L748.471 35.704C749.794 39.3734 751.181 43.448 752.631 47.928V33.08H746.423V25.592ZM709.175 31.608C709.73 32.632 710.413 33.7627 711.223 35L712.631 37.24L708.599 39.352H713.719V31.224L709.175 31.608ZM744.503 59.896L752.631 53.304V50.424L748.727 51.832C747.789 48.632 746.381 44.3867 744.503 39.096V59.896ZM713.719 48.568C711.799 50.9574 709.581 53.0907 707.063 54.968H728.695C726.69 53.4747 723.874 51.4907 720.247 49.016V53.816H713.719V48.568ZM709.751 65.208H714.295V60.408H709.751V65.208ZM720.119 65.208H724.535V60.408H720.119V65.208ZM714.295 70.584H709.751V75.576H714.295V70.584ZM720.119 70.584V75.576H724.535V70.584H720.119Z" fill="url(#paint2_linear_24_3056)" fill-opacity="0.7"/>
<path d="M692.983 34.488C692.941 39.5227 692.727 45.7947 692.343 53.304C691.959 60.7707 691.533 66.5947 691.063 70.776C690.807 73.336 690.253 75.3627 689.399 76.856C688.546 78.392 687.287 79.5227 685.623 80.248C683.959 80.9734 681.741 81.3574 678.967 81.4H676.599C673.442 81.4 670.775 81.2934 668.599 81.08L666.935 72.888C670.775 73.3147 673.591 73.528 675.383 73.528C677.303 73.528 678.733 73.3787 679.671 73.08C680.61 72.7814 681.314 72.184 681.783 71.288C682.253 70.3494 682.615 68.8987 682.871 66.936C683.725 60.0667 684.215 51.9814 684.343 42.68H666.039C665.57 49.5494 664.631 55.16 663.223 59.512C661.815 63.8214 659.597 67.7254 656.567 71.224C653.581 74.68 649.229 78.4347 643.511 82.488L637.495 75.96C642.786 72.4187 646.754 69.2614 649.399 66.488C652.087 63.7147 654.05 60.536 655.287 56.952C656.567 53.368 657.421 48.6107 657.847 42.68H640.503V34.488H658.231L658.295 31.608C658.338 30.3707 658.381 29.0054 658.423 27.512C658.466 26.0187 658.53 24.5467 658.615 23.096H666.743C666.786 24.504 666.679 28.3014 666.423 34.488H692.983Z" fill="url(#paint3_linear_24_3056)" fill-opacity="0.7"/>
<path d="M606.711 33.144C607.607 42.0187 610.125 49.8267 614.263 56.568C618.402 63.3094 624.653 69.3894 633.015 74.808L627.127 82.104C620.77 77.2827 615.65 72.4827 611.767 67.704C607.885 62.8827 604.919 57.2934 602.871 50.936C598.605 61.7307 590.37 72.12 578.167 82.104L572.279 75.512C580.727 69.0694 587.063 62.5414 591.287 55.928C595.511 49.272 598.135 42.3814 599.159 35.256C598.775 34.8294 598.221 34.5307 597.495 34.36C596.813 34.1894 595.853 34.104 594.615 34.104H586.103V25.976H597.687C600.546 25.976 602.701 26.552 604.151 27.704C605.602 28.8134 606.455 30.6267 606.711 33.144Z" fill="url(#paint4_linear_24_3056)" fill-opacity="0.7"/>
</g>
</g>
<path d="M472 70H928V105C928 111.627 922.627 117 916 117H484C477.373 117 472 111.627 472 105V70Z" fill="url(#paint5_linear_24_3056)"/>
<path d="M789.407 18.904V25.368H767.519V18.904H775.391C774.581 16.1307 773.877 13.912 773.279 12.248L780.063 10.52C781.301 14.1467 782.175 16.9414 782.687 18.904H789.407ZM810.271 40.152C811.21 45.272 813.002 49.9227 815.647 54.104C818.293 58.2427 821.77 61.6134 826.079 64.216L822.047 70.808C816.714 67.0534 812.511 62.7014 809.439 57.752C806.41 52.76 804.191 46.8934 802.783 40.152H799.583C799.455 45.0587 799.093 49.1974 798.495 52.568C797.941 55.9387 797.023 59.0534 795.743 61.912C794.506 64.728 792.735 67.7147 790.431 70.872L784.095 66.52C784.266 66.264 784.415 66.072 784.543 65.944H768.799V45.912H787.743V61.08C789.663 57.7094 790.943 54.2107 791.583 50.584C792.266 46.9574 792.607 41.88 792.607 35.352V14.04H823.519V40.152H810.271ZM816.287 33.048V21.208H799.647V33.048H816.287ZM769.695 28.056H787.167V34.2H769.695V28.056ZM787.167 43.096H769.695V36.888H787.167V43.096ZM775.391 59.48H781.151V52.312H775.391V59.48Z" fill="url(#paint6_linear_24_3056)"/>
<path d="M747.423 13.592H759.839V62.232C759.839 65.0054 759.391 66.968 758.495 68.12C757.642 69.272 756.021 69.848 753.631 69.848C752.053 69.848 750.41 69.6774 748.703 69.336L747.487 62.104C749.023 62.488 750.325 62.68 751.391 62.68C752.245 62.68 752.821 62.4027 753.119 61.848C753.461 61.2934 753.631 60.3974 753.631 59.16V50.136C750.73 52.696 749.002 54.2534 748.447 54.808L745.503 49.368L745.439 62.296C745.482 65.0694 745.098 67.0107 744.287 68.12C743.477 69.272 741.941 69.848 739.679 69.848C738.015 69.848 736.287 69.6774 734.495 69.336L733.407 62.104C735.029 62.488 736.33 62.68 737.311 62.68C738.25 62.68 738.89 62.3814 739.231 61.784C739.573 61.1867 739.743 60.2054 739.743 58.84V49.88C736.586 52.6107 734.709 54.2747 734.111 54.872L731.231 49.112V69.08H705.055V45.08L704.607 45.336L701.599 39.768C705.781 37.592 709.045 35.3094 711.391 32.92H703.199V27.352H708.191C707.551 26.2 706.485 24.4507 704.991 22.104L709.407 19.608L704.799 19.928L704.223 14.232C716.341 13.592 724.981 12.7814 730.143 11.8L730.847 17.496C727.391 18.008 724.191 18.392 721.247 18.648V27.352H726.431L722.399 25.368C723.893 23.1494 725.13 20.9094 726.111 18.648L731.231 20.888L727.903 27.352H731.679V32.92H724.255C729.077 35.7787 732.149 37.656 733.471 38.552L730.975 42.968H731.231V47.704C733.749 45.8267 736.586 43.5867 739.743 40.984V38.488L735.967 39.832C735.327 37.6134 734.538 35.096 733.599 32.28C732.703 29.4214 731.978 27.2454 731.423 25.752L736.095 23.96L739.743 35.288V21.08H732.703V13.592H745.567V25.304L749.471 23.704C750.794 27.3734 752.181 31.448 753.631 35.928V21.08H747.423V13.592ZM710.175 19.608C710.73 20.632 711.413 21.7627 712.223 23L713.631 25.24L709.599 27.352H714.719V19.224L710.175 19.608ZM745.503 47.896L753.631 41.304V38.424L749.727 39.832C748.789 36.632 747.381 32.3867 745.503 27.096V47.896ZM714.719 36.568C712.799 38.9574 710.581 41.0907 708.063 42.968H729.695C727.69 41.4747 724.874 39.4907 721.247 37.016V41.816H714.719V36.568ZM710.751 53.208H715.295V48.408H710.751V53.208ZM721.119 53.208H725.535V48.408H721.119V53.208ZM715.295 58.584H710.751V63.576H715.295V58.584ZM721.119 58.584V63.576H725.535V58.584H721.119Z" fill="url(#paint7_linear_24_3056)"/>
<path d="M693.983 22.488C693.941 27.5227 693.727 33.7947 693.343 41.304C692.959 48.7707 692.533 54.5947 692.063 58.776C691.807 61.336 691.253 63.3627 690.399 64.856C689.546 66.392 688.287 67.5227 686.623 68.248C684.959 68.9734 682.741 69.3574 679.967 69.4H677.599C674.442 69.4 671.775 69.2934 669.599 69.08L667.935 60.888C671.775 61.3147 674.591 61.528 676.383 61.528C678.303 61.528 679.733 61.3787 680.671 61.08C681.61 60.7814 682.314 60.184 682.783 59.288C683.253 58.3494 683.615 56.8987 683.871 54.936C684.725 48.0667 685.215 39.9814 685.343 30.68H667.039C666.57 37.5494 665.631 43.16 664.223 47.512C662.815 51.8214 660.597 55.7254 657.567 59.224C654.581 62.68 650.229 66.4347 644.511 70.488L638.495 63.96C643.786 60.4187 647.754 57.2614 650.399 54.488C653.087 51.7147 655.05 48.536 656.287 44.952C657.567 41.368 658.421 36.6107 658.847 30.68H641.503V22.488H659.231L659.295 19.608C659.338 18.3707 659.381 17.0054 659.423 15.512C659.466 14.0187 659.53 12.5467 659.615 11.096H667.743C667.786 12.504 667.679 16.3014 667.423 22.488H693.983Z" fill="url(#paint8_linear_24_3056)"/>
<path d="M607.711 21.144C608.607 30.0187 611.125 37.8267 615.263 44.568C619.402 51.3094 625.653 57.3894 634.015 62.808L628.127 70.104C621.77 65.2827 616.65 60.4827 612.767 55.704C608.885 50.8827 605.919 45.2934 603.871 38.936C599.605 49.7307 591.37 60.12 579.167 70.104L573.279 63.512C581.727 57.0694 588.063 50.5414 592.287 43.928C596.511 37.272 599.135 30.3814 600.159 23.256C599.775 22.8294 599.221 22.5307 598.495 22.36C597.813 22.1894 596.853 22.104 595.615 22.104H587.103V13.976H598.687C601.546 13.976 603.701 14.552 605.151 15.704C606.602 16.8134 607.455 18.6267 607.711 21.144Z" fill="url(#paint9_linear_24_3056)"/>
<defs>
<filter id="filter0_f_24_3056" x="552.279" y="2.52002" width="292.8" height="100.352" filterUnits="userSpaceOnUse" color-interpolation-filters="sRGB">
<feFlood flood-opacity="0" result="BackgroundImageFix"/>
<feBlend mode="normal" in="SourceGraphic" in2="BackgroundImageFix" result="shape"/>
<feGaussianBlur stdDeviation="10" result="effect1_foregroundBlur_24_3056"/>
</filter>
<linearGradient id="paint0_linear_24_3056" x1="472" y1="62.0036" x2="928" y2="62.0033" gradientUnits="userSpaceOnUse">
<stop stop-color="white" stop-opacity="0.3"/>
<stop offset="0.495" stop-color="#CBB0F8"/>
<stop offset="1" stop-color="white" stop-opacity="0.3"/>
</linearGradient>
<linearGradient id="paint1_linear_24_3056" x1="833.368" y1="54" x2="-271.769" y2="54.0003" gradientUnits="userSpaceOnUse">
<stop stop-color="#F4439F"/>
<stop offset="1" stop-color="#7C3AED"/>
</linearGradient>
<linearGradient id="paint2_linear_24_3056" x1="1120.94" y1="53.9187" x2="9.72969" y2="53.919" gradientUnits="userSpaceOnUse">
<stop stop-color="#F4439F"/>
<stop offset="1" stop-color="#7C3AED"/>
</linearGradient>
<linearGradient id="paint3_linear_24_3056" x1="1435.65" y1="53.9235" x2="269.327" y2="53.9238" gradientUnits="userSpaceOnUse">
<stop stop-color="#F4439F"/>
<stop offset="1" stop-color="#7C3AED"/>
</linearGradient>
<linearGradient id="paint4_linear_24_3056" x1="826.999" y1="54.0001" x2="570.999" y2="54.0001" gradientUnits="userSpaceOnUse">
<stop stop-color="#F4439F"/>
<stop offset="1" stop-color="#7C3AED"/>
</linearGradient>
<linearGradient id="paint5_linear_24_3056" x1="700" y1="70" x2="700" y2="117" gradientUnits="userSpaceOnUse">
<stop offset="0.0001" stop-color="white" stop-opacity="0.1"/>
<stop offset="1" stop-color="white" stop-opacity="0"/>
</linearGradient>
<linearGradient id="paint6_linear_24_3056" x1="834.368" y1="3.00002" x2="258.274" y2="585.882" gradientUnits="userSpaceOnUse">
<stop stop-color="#F4439F"/>
<stop offset="1" stop-color="#7C3AED"/>
</linearGradient>
<linearGradient id="paint7_linear_24_3056" x1="1121.94" y1="1.37073" x2="523.079" y2="587.357" gradientUnits="userSpaceOnUse">
<stop stop-color="#F4439F"/>
<stop offset="1" stop-color="#7C3AED"/>
</linearGradient>
<linearGradient id="paint8_linear_24_3056" x1="1436.65" y1="2.29315" x2="851.921" y2="616.733" gradientUnits="userSpaceOnUse">
<stop stop-color="#F4439F"/>
<stop offset="1" stop-color="#7C3AED"/>
</linearGradient>
<linearGradient id="paint9_linear_24_3056" x1="827.999" y1="3.00009" x2="571.999" y2="63.0001" gradientUnits="userSpaceOnUse">
<stop stop-color="#F4439F"/>
<stop offset="1" stop-color="#7C3AED"/>
</linearGradient>
</defs>
</svg>
