<svg width="1400" height="120" viewBox="0 0 1400 120" fill="none" xmlns="http://www.w3.org/2000/svg">
<path d="M312 54H1088V70H312V54Z" fill="url(#paint0_linear_24_3120)"/>
<mask id="mask0_24_3120" style="mask-type:alpha" maskUnits="userSpaceOnUse" x="312" y="70" width="776" height="47">
<path d="M312 70H1088V117H312V70Z" fill="#C4C4C4"/>
</mask>
<g mask="url(#mask0_24_3120)">
<g filter="url(#filter0_f_24_3120)">
<path d="M960.304 77.496H956.528V28.536H966V70.008L965.04 67.512C967.173 67.512 969.093 67.0214 970.8 66.04C972.507 65.016 974.021 63.48 975.344 61.432C976.667 59.3414 977.797 56.6747 978.736 53.432L987.248 56.76C984.731 64.0987 981.296 69.3894 976.944 72.632C972.635 75.8747 967.088 77.496 960.304 77.496ZM931.376 80.824L924.912 73.336C929.477 70.4347 932.805 67.0854 934.896 63.288C937.029 59.448 938.096 54.8187 938.096 49.4V28.536H947.568V49.656C947.568 56.312 946.224 62.2214 943.536 67.384C940.891 72.5467 936.837 77.0267 931.376 80.824Z" fill="url(#paint1_linear_24_3120)" fill-opacity="0.7"/>
<path d="M918.32 49.016V58.296H864.56V49.016H918.32Z" fill="url(#paint2_linear_24_3120)" fill-opacity="0.7"/>
<path d="M815.664 80.568L812.4 71.928C820.08 70.1787 826.16 67.5974 830.64 64.184C835.12 60.728 838.384 56.4187 840.432 51.256C842.48 46.0507 843.739 39.5867 844.208 31.864L853.488 32.632C852.933 41.4214 851.269 49.0587 848.496 55.544C845.723 61.9867 841.648 67.32 836.272 71.544C830.896 75.768 824.027 78.776 815.664 80.568ZM817.648 55.672L808.944 58.616C807.963 55.288 806.555 51.32 804.72 46.712C802.928 42.104 801.285 38.7334 799.792 36.6L808.368 33.464C809.989 35.8107 811.696 39.2454 813.488 43.768C815.323 48.2907 816.709 52.2587 817.648 55.672ZM833.712 51.64L824.816 53.24C824.347 49.3574 823.643 45.3467 822.704 41.208C821.808 37.0267 820.805 33.336 819.696 30.136L828.912 28.344C830.021 31.8427 831.003 35.6187 831.856 39.672C832.709 43.7254 833.328 47.7147 833.712 51.64Z" fill="url(#paint3_linear_24_3120)" fill-opacity="0.7"/>
<path d="M756.848 30.904V37.368H734.96V30.904H742.832C742.021 28.1307 741.317 25.912 740.72 24.248L747.504 22.52C748.741 26.1467 749.616 28.9414 750.128 30.904H756.848ZM777.712 52.152C778.651 57.272 780.443 61.9227 783.088 66.104C785.733 70.2427 789.211 73.6134 793.52 76.216L789.488 82.808C784.155 79.0534 779.952 74.7014 776.88 69.752C773.851 64.76 771.632 58.8934 770.224 52.152H767.024C766.896 57.0587 766.533 61.1974 765.936 64.568C765.381 67.9387 764.464 71.0534 763.184 73.912C761.947 76.728 760.176 79.7147 757.872 82.872L751.536 78.52C751.707 78.264 751.856 78.072 751.984 77.944H736.24V57.912H755.184V73.08C757.104 69.7094 758.384 66.2107 759.024 62.584C759.707 58.9574 760.048 53.88 760.048 47.352V26.04H790.96V52.152H777.712ZM783.728 45.048V33.208H767.088V45.048H783.728ZM737.136 40.056H754.608V46.2H737.136V40.056ZM754.608 55.096H737.136V48.888H754.608V55.096ZM742.832 71.48H748.592V64.312H742.832V71.48Z" fill="url(#paint4_linear_24_3120)" fill-opacity="0.7"/>
<path d="M714.864 25.592H727.28V74.232C727.28 77.0054 726.832 78.968 725.936 80.12C725.083 81.272 723.461 81.848 721.072 81.848C719.493 81.848 717.851 81.6774 716.144 81.336L714.928 74.104C716.464 74.488 717.765 74.68 718.832 74.68C719.685 74.68 720.261 74.4027 720.56 73.848C720.901 73.2934 721.072 72.3974 721.072 71.16V62.136C718.171 64.696 716.443 66.2534 715.888 66.808L712.944 61.368L712.88 74.296C712.923 77.0694 712.539 79.0107 711.728 80.12C710.917 81.272 709.381 81.848 707.12 81.848C705.456 81.848 703.728 81.6774 701.936 81.336L700.848 74.104C702.469 74.488 703.771 74.68 704.752 74.68C705.691 74.68 706.331 74.3814 706.672 73.784C707.013 73.1867 707.184 72.2054 707.184 70.84V61.88C704.027 64.6107 702.149 66.2747 701.552 66.872L698.672 61.112V81.08H672.496V57.08L672.048 57.336L669.04 51.768C673.221 49.592 676.485 47.3094 678.832 44.92H670.64V39.352H675.632C674.992 38.2 673.925 36.4507 672.432 34.104L676.848 31.608L672.24 31.928L671.664 26.232C683.781 25.592 692.421 24.7814 697.584 23.8L698.288 29.496C694.832 30.008 691.632 30.392 688.688 30.648V39.352H693.872L689.84 37.368C691.333 35.1494 692.571 32.9094 693.552 30.648L698.672 32.888L695.344 39.352H699.12V44.92H691.696C696.517 47.7787 699.589 49.656 700.912 50.552L698.416 54.968H698.672V59.704C701.189 57.8267 704.027 55.5867 707.184 52.984V50.488L703.408 51.832C702.768 49.6134 701.979 47.096 701.04 44.28C700.144 41.4214 699.419 39.2454 698.864 37.752L703.536 35.96L707.184 47.288V33.08H700.144V25.592H713.008V37.304L716.912 35.704C718.235 39.3734 719.621 43.448 721.072 47.928V33.08H714.864V25.592ZM677.616 31.608C678.171 32.632 678.853 33.7627 679.664 35L681.072 37.24L677.04 39.352H682.16V31.224L677.616 31.608ZM712.944 59.896L721.072 53.304V50.424L717.168 51.832C716.229 48.632 714.821 44.3867 712.944 39.096V59.896ZM682.16 48.568C680.24 50.9574 678.021 53.0907 675.504 54.968H697.136C695.131 53.4747 692.315 51.4907 688.688 49.016V53.816H682.16V48.568ZM678.192 65.208H682.736V60.408H678.192V65.208ZM688.56 65.208H692.976V60.408H688.56V65.208ZM682.736 70.584H678.192V75.576H682.736V70.584ZM688.56 70.584V75.576H692.976V70.584H688.56Z" fill="url(#paint5_linear_24_3120)" fill-opacity="0.7"/>
<path d="M641.2 81.336L636.336 73.784C641.968 71.9067 646.235 69.304 649.136 65.976C652.037 62.648 653.488 58.7227 653.488 54.2C653.488 51.384 652.784 48.8454 651.376 46.584C649.968 44.3227 648.027 42.552 645.552 41.272C643.12 39.9494 640.368 39.288 637.296 39.288C633.413 39.288 629.915 40.1627 626.8 41.912C623.685 43.6187 621.232 46.0294 619.44 49.144C617.691 52.2587 616.816 55.8 616.816 59.768C616.816 61.1334 616.987 62.392 617.328 63.544C617.669 64.696 618.139 65.6134 618.736 66.296C619.333 66.936 619.973 67.256 620.656 67.256C621.893 67.256 623.067 66.1467 624.176 63.928C625.285 61.6667 626.331 58.232 627.312 53.624L630.512 38.136H639.536L636.528 53.624C635.589 58.488 634.416 62.5414 633.008 65.784C631.6 69.0267 629.787 71.5227 627.568 73.272C625.392 75.0214 622.704 75.896 619.504 75.896C617.243 75.896 615.195 75.256 613.36 73.976C611.525 72.696 610.075 70.9254 609.008 68.664C607.984 66.36 607.472 63.736 607.472 60.792C607.472 55.0747 608.795 49.912 611.44 45.304C614.128 40.6534 617.819 37.0054 622.512 34.36C627.248 31.7147 632.603 30.392 638.576 30.392C643.141 30.392 647.28 31.3734 650.992 33.336C654.747 35.256 657.669 37.9227 659.76 41.336C661.893 44.7067 662.96 48.4827 662.96 52.664C662.96 59.5334 661.147 65.4 657.52 70.264C653.936 75.0854 648.496 78.776 641.2 81.336Z" fill="url(#paint6_linear_24_3120)" fill-opacity="0.7"/>
<path d="M561.2 25.272C559.536 30.3494 557.808 34.872 556.016 38.84V82.04H548.784V52.536C547.291 54.968 545.691 57.4 543.984 59.832L540.656 51.32C543.003 48.504 545.413 44.472 547.888 39.224C550.405 33.9334 552.432 28.728 553.968 23.608L561.2 25.272ZM601.008 65.08C601.008 67.4267 600.901 70.264 600.688 73.592C600.517 75.5547 600.133 77.0907 599.536 78.2C598.939 79.352 598 80.184 596.72 80.696C595.483 81.2507 593.733 81.6134 591.472 81.784C588.101 82.04 584.731 82.168 581.36 82.168C577.989 82.168 574.597 82.04 571.184 81.784C568.027 81.5707 565.744 80.7174 564.336 79.224C562.971 77.7734 562.288 75.32 562.288 71.864V51.32L558.256 52.6L557.424 45.112L562.288 43.576V30.328H569.52V41.336L575.6 39.416V23.864H582.832V37.176L597.424 32.632C597.381 36.7707 597.253 41.2507 597.04 46.072C596.827 50.8934 596.571 54.6907 596.272 57.464C595.973 60.1094 595.248 61.9867 594.096 63.096C592.987 64.1627 591.131 64.696 588.528 64.696C587.376 64.696 586.288 64.632 585.264 64.504L583.728 57.08C584.539 57.2934 585.499 57.4 586.608 57.4C587.419 57.4 587.973 57.1867 588.272 56.76C588.613 56.3334 588.869 55.48 589.04 54.2C589.552 49.9334 589.808 46.0934 589.808 42.68L582.832 44.856V69.304H575.6V47.16L569.52 49.08V69.56C569.52 70.8827 569.627 71.8854 569.84 72.568C570.053 73.208 570.459 73.6774 571.056 73.976C571.653 74.2747 572.571 74.488 573.808 74.616C576.325 74.872 578.8 75 581.232 75C583.579 75 585.904 74.872 588.208 74.616C589.744 74.4454 590.853 74.232 591.536 73.976C592.219 73.72 592.667 73.3147 592.88 72.76C593.136 72.1627 593.307 71.224 593.392 69.944C593.435 69.5174 593.456 68.472 593.456 66.808L593.52 63.608L601.008 65.08Z" fill="url(#paint7_linear_24_3120)" fill-opacity="0.7"/>
<path d="M513.2 81.336L508.336 73.784C513.968 71.9067 518.235 69.304 521.136 65.976C524.037 62.648 525.488 58.7227 525.488 54.2C525.488 51.384 524.784 48.8454 523.376 46.584C521.968 44.3227 520.027 42.552 517.552 41.272C515.12 39.9494 512.368 39.288 509.296 39.288C505.413 39.288 501.915 40.1627 498.8 41.912C495.685 43.6187 493.232 46.0294 491.44 49.144C489.691 52.2587 488.816 55.8 488.816 59.768C488.816 61.1334 488.987 62.392 489.328 63.544C489.669 64.696 490.139 65.6134 490.736 66.296C491.333 66.936 491.973 67.256 492.656 67.256C493.893 67.256 495.067 66.1467 496.176 63.928C497.285 61.6667 498.331 58.232 499.312 53.624L502.512 38.136H511.536L508.528 53.624C507.589 58.488 506.416 62.5414 505.008 65.784C503.6 69.0267 501.787 71.5227 499.568 73.272C497.392 75.0214 494.704 75.896 491.504 75.896C489.243 75.896 487.195 75.256 485.36 73.976C483.525 72.696 482.075 70.9254 481.008 68.664C479.984 66.36 479.472 63.736 479.472 60.792C479.472 55.0747 480.795 49.912 483.44 45.304C486.128 40.6534 489.819 37.0054 494.512 34.36C499.248 31.7147 504.603 30.392 510.576 30.392C515.141 30.392 519.28 31.3734 522.992 33.336C526.747 35.256 529.669 37.9227 531.76 41.336C533.893 44.7067 534.96 48.4827 534.96 52.664C534.96 59.5334 533.147 65.4 529.52 70.264C525.936 75.0854 520.496 78.776 513.2 81.336Z" fill="url(#paint8_linear_24_3120)" fill-opacity="0.7"/>
<path d="M459.824 81.144H455.28C449.648 81.144 445.104 80.76 441.648 79.992C438.235 79.2667 435.717 78.072 434.096 76.408C432.475 74.7867 431.664 72.632 431.664 69.944C431.664 68.28 432.048 66.552 432.816 64.76C433.627 62.968 434.736 61.2614 436.144 59.64C437.552 57.976 439.216 56.568 441.136 55.416L453.616 54.648C451.013 55.8 448.773 57.1227 446.896 58.616C445.019 60.1094 443.589 61.6454 442.608 63.224C441.669 64.76 441.2 66.2107 441.2 67.576C441.2 68.728 441.691 69.6667 442.672 70.392C443.653 71.0747 445.168 71.5654 447.216 71.864C449.307 72.1627 452.059 72.312 455.472 72.312H461.104L459.824 81.144ZM441.136 48.76L427.376 49.336C434.331 45.5387 440.944 41.208 447.216 36.344H425.264L425.2 27.704H459.632L461.168 35.256C454.896 40.0347 448.219 44.536 441.136 48.76ZM469.36 45.368L470 54.136L417.136 58.36L416.496 49.592L469.36 45.368Z" fill="url(#paint9_linear_24_3120)" fill-opacity="0.7"/>
</g>
</g>
<path d="M312 70H1088V105C1088 111.627 1082.63 117 1076 117H324C317.373 117 312 111.627 312 105V70Z" fill="url(#paint10_linear_24_3120)"/>
<path d="M960.865 65.496H957.089V16.536H966.561V58.008L965.601 55.512C967.734 55.512 969.654 55.0214 971.361 54.04C973.067 53.016 974.582 51.48 975.905 49.432C977.227 47.3414 978.358 44.6747 979.297 41.432L987.809 44.76C985.291 52.0987 981.857 57.3894 977.505 60.632C973.195 63.8747 967.649 65.496 960.865 65.496ZM931.937 68.824L925.473 61.336C930.038 58.4347 933.366 55.0854 935.457 51.288C937.59 47.448 938.657 42.8187 938.657 37.4V16.536H948.129V37.656C948.129 44.312 946.785 50.2214 944.097 55.384C941.451 60.5467 937.398 65.0267 931.937 68.824Z" fill="url(#paint11_linear_24_3120)"/>
<path d="M918.881 37.016V46.296H865.121V37.016H918.881Z" fill="url(#paint12_linear_24_3120)"/>
<path d="M816.225 68.568L812.961 59.928C820.641 58.1787 826.721 55.5974 831.201 52.184C835.681 48.728 838.945 44.4187 840.993 39.256C843.041 34.0507 844.299 27.5867 844.769 19.864L854.049 20.632C853.494 29.4214 851.83 37.0587 849.057 43.544C846.283 49.9867 842.209 55.32 836.833 59.544C831.457 63.768 824.587 66.776 816.225 68.568ZM818.209 43.672L809.505 46.616C808.523 43.288 807.115 39.32 805.281 34.712C803.489 30.104 801.846 26.7334 800.353 24.6L808.929 21.464C810.55 23.8107 812.257 27.2454 814.049 31.768C815.883 36.2907 817.27 40.2587 818.209 43.672ZM834.273 39.64L825.377 41.24C824.907 37.3574 824.203 33.3467 823.265 29.208C822.369 25.0267 821.366 21.336 820.257 18.136L829.473 16.344C830.582 19.8427 831.563 23.6187 832.417 27.672C833.27 31.7254 833.889 35.7147 834.273 39.64Z" fill="url(#paint13_linear_24_3120)"/>
<path d="M757.409 18.904V25.368H735.521V18.904H743.393C742.582 16.1307 741.878 13.912 741.281 12.248L748.065 10.52C749.302 14.1467 750.177 16.9414 750.689 18.904H757.409ZM778.273 40.152C779.211 45.272 781.003 49.9227 783.649 54.104C786.294 58.2427 789.771 61.6134 794.081 64.216L790.049 70.808C784.715 67.0534 780.513 62.7014 777.441 57.752C774.411 52.76 772.193 46.8934 770.785 40.152H767.585C767.457 45.0587 767.094 49.1974 766.497 52.568C765.942 55.9387 765.025 59.0534 763.745 61.912C762.507 64.728 760.737 67.7147 758.433 70.872L752.097 66.52C752.267 66.264 752.417 66.072 752.545 65.944H736.801V45.912H755.745V61.08C757.665 57.7094 758.945 54.2107 759.585 50.584C760.267 46.9574 760.609 41.88 760.609 35.352V14.04H791.521V40.152H778.273ZM784.289 33.048V21.208H767.649V33.048H784.289ZM737.697 28.056H755.169V34.2H737.697V28.056ZM755.169 43.096H737.697V36.888H755.169V43.096ZM743.393 59.48H749.153V52.312H743.393V59.48Z" fill="url(#paint14_linear_24_3120)"/>
<path d="M715.425 13.592H727.841V62.232C727.841 65.0054 727.393 66.968 726.497 68.12C725.643 69.272 724.022 69.848 721.633 69.848C720.054 69.848 718.411 69.6774 716.705 69.336L715.489 62.104C717.025 62.488 718.326 62.68 719.393 62.68C720.246 62.68 720.822 62.4027 721.121 61.848C721.462 61.2934 721.633 60.3974 721.633 59.16V50.136C718.731 52.696 717.003 54.2534 716.449 54.808L713.505 49.368L713.441 62.296C713.483 65.0694 713.099 67.0107 712.289 68.12C711.478 69.272 709.942 69.848 707.681 69.848C706.017 69.848 704.289 69.6774 702.497 69.336L701.409 62.104C703.03 62.488 704.331 62.68 705.313 62.68C706.251 62.68 706.891 62.3814 707.233 61.784C707.574 61.1867 707.745 60.2054 707.745 58.84V49.88C704.587 52.6107 702.71 54.2747 702.113 54.872L699.233 49.112V69.08H673.057V45.08L672.609 45.336L669.601 39.768C673.782 37.592 677.046 35.3094 679.393 32.92H671.201V27.352H676.193C675.553 26.2 674.486 24.4507 672.993 22.104L677.409 19.608L672.801 19.928L672.225 14.232C684.342 13.592 692.982 12.7814 698.145 11.8L698.849 17.496C695.393 18.008 692.193 18.392 689.249 18.648V27.352H694.433L690.401 25.368C691.894 23.1494 693.131 20.9094 694.113 18.648L699.233 20.888L695.905 27.352H699.681V32.92H692.257C697.078 35.7787 700.15 37.656 701.473 38.552L698.977 42.968H699.233V47.704C701.75 45.8267 704.587 43.5867 707.745 40.984V38.488L703.969 39.832C703.329 37.6134 702.539 35.096 701.601 32.28C700.705 29.4214 699.979 27.2454 699.425 25.752L704.097 23.96L707.745 35.288V21.08H700.705V13.592H713.569V25.304L717.473 23.704C718.795 27.3734 720.182 31.448 721.633 35.928V21.08H715.425V13.592ZM678.177 19.608C678.731 20.632 679.414 21.7627 680.225 23L681.633 25.24L677.601 27.352H682.721V19.224L678.177 19.608ZM713.505 47.896L721.633 41.304V38.424L717.729 39.832C716.79 36.632 715.382 32.3867 713.505 27.096V47.896ZM682.721 36.568C680.801 38.9574 678.582 41.0907 676.065 42.968H697.697C695.691 41.4747 692.875 39.4907 689.249 37.016V41.816H682.721V36.568ZM678.753 53.208H683.297V48.408H678.753V53.208ZM689.121 53.208H693.537V48.408H689.121V53.208ZM683.297 58.584H678.753V63.576H683.297V58.584ZM689.121 58.584V63.576H693.537V58.584H689.121Z" fill="url(#paint15_linear_24_3120)"/>
<path d="M641.761 69.336L636.897 61.784C642.529 59.9067 646.795 57.304 649.697 53.976C652.598 50.648 654.049 46.7227 654.049 42.2C654.049 39.384 653.345 36.8454 651.937 34.584C650.529 32.3227 648.587 30.552 646.113 29.272C643.681 27.9494 640.929 27.288 637.857 27.288C633.974 27.288 630.475 28.1627 627.361 29.912C624.246 31.6187 621.793 34.0294 620.001 37.144C618.251 40.2587 617.377 43.8 617.377 47.768C617.377 49.1334 617.547 50.392 617.889 51.544C618.23 52.696 618.699 53.6134 619.297 54.296C619.894 54.936 620.534 55.256 621.217 55.256C622.454 55.256 623.627 54.1467 624.737 51.928C625.846 49.6667 626.891 46.232 627.873 41.624L631.073 26.136H640.097L637.089 41.624C636.15 46.488 634.977 50.5414 633.569 53.784C632.161 57.0267 630.347 59.5227 628.129 61.272C625.953 63.0214 623.265 63.896 620.065 63.896C617.803 63.896 615.755 63.256 613.921 61.976C612.086 60.696 610.635 58.9254 609.569 56.664C608.545 54.36 608.033 51.736 608.033 48.792C608.033 43.0747 609.355 37.912 612.001 33.304C614.689 28.6534 618.379 25.0054 623.073 22.36C627.809 19.7147 633.163 18.392 639.137 18.392C643.702 18.392 647.841 19.3734 651.553 21.336C655.307 23.256 658.23 25.9227 660.321 29.336C662.454 32.7067 663.521 36.4827 663.521 40.664C663.521 47.5334 661.707 53.4 658.081 58.264C654.497 63.0854 649.057 66.776 641.761 69.336Z" fill="url(#paint16_linear_24_3120)"/>
<path d="M561.761 13.272C560.097 18.3494 558.369 22.872 556.577 26.84V70.04H549.345V40.536C547.851 42.968 546.251 45.4 544.545 47.832L541.217 39.32C543.563 36.504 545.974 32.472 548.449 27.224C550.966 21.9334 552.993 16.728 554.529 11.608L561.761 13.272ZM601.569 53.08C601.569 55.4267 601.462 58.264 601.249 61.592C601.078 63.5547 600.694 65.0907 600.097 66.2C599.499 67.352 598.561 68.184 597.281 68.696C596.043 69.2507 594.294 69.6134 592.033 69.784C588.662 70.04 585.291 70.168 581.921 70.168C578.55 70.168 575.158 70.04 571.745 69.784C568.587 69.5707 566.305 68.7174 564.897 67.224C563.531 65.7734 562.849 63.32 562.849 59.864V39.32L558.817 40.6L557.985 33.112L562.849 31.576V18.328H570.081V29.336L576.161 27.416V11.864H583.393V25.176L597.985 20.632C597.942 24.7707 597.814 29.2507 597.601 34.072C597.387 38.8934 597.131 42.6907 596.833 45.464C596.534 48.1094 595.809 49.9867 594.657 51.096C593.547 52.1627 591.691 52.696 589.089 52.696C587.937 52.696 586.849 52.632 585.825 52.504L584.289 45.08C585.099 45.2934 586.059 45.4 587.169 45.4C587.979 45.4 588.534 45.1867 588.833 44.76C589.174 44.3334 589.43 43.48 589.601 42.2C590.113 37.9334 590.369 34.0934 590.369 30.68L583.393 32.856V57.304H576.161V35.16L570.081 37.08V57.56C570.081 58.8827 570.187 59.8854 570.401 60.568C570.614 61.208 571.019 61.6774 571.617 61.976C572.214 62.2747 573.131 62.488 574.369 62.616C576.886 62.872 579.361 63 581.793 63C584.139 63 586.465 62.872 588.769 62.616C590.305 62.4454 591.414 62.232 592.097 61.976C592.779 61.72 593.227 61.3147 593.441 60.76C593.697 60.1627 593.867 59.224 593.953 57.944C593.995 57.5174 594.017 56.472 594.017 54.808L594.081 51.608L601.569 53.08Z" fill="url(#paint17_linear_24_3120)"/>
<path d="M513.761 69.336L508.897 61.784C514.529 59.9067 518.795 57.304 521.697 53.976C524.598 50.648 526.049 46.7227 526.049 42.2C526.049 39.384 525.345 36.8454 523.937 34.584C522.529 32.3227 520.587 30.552 518.113 29.272C515.681 27.9494 512.929 27.288 509.857 27.288C505.974 27.288 502.475 28.1627 499.361 29.912C496.246 31.6187 493.793 34.0294 492.001 37.144C490.251 40.2587 489.377 43.8 489.377 47.768C489.377 49.1334 489.547 50.392 489.889 51.544C490.23 52.696 490.699 53.6134 491.297 54.296C491.894 54.936 492.534 55.256 493.217 55.256C494.454 55.256 495.627 54.1467 496.737 51.928C497.846 49.6667 498.891 46.232 499.873 41.624L503.073 26.136H512.097L509.089 41.624C508.15 46.488 506.977 50.5414 505.569 53.784C504.161 57.0267 502.347 59.5227 500.129 61.272C497.953 63.0214 495.265 63.896 492.065 63.896C489.803 63.896 487.755 63.256 485.921 61.976C484.086 60.696 482.635 58.9254 481.569 56.664C480.545 54.36 480.033 51.736 480.033 48.792C480.033 43.0747 481.355 37.912 484.001 33.304C486.689 28.6534 490.379 25.0054 495.073 22.36C499.809 19.7147 505.163 18.392 511.137 18.392C515.702 18.392 519.841 19.3734 523.553 21.336C527.307 23.256 530.23 25.9227 532.321 29.336C534.454 32.7067 535.521 36.4827 535.521 40.664C535.521 47.5334 533.707 53.4 530.081 58.264C526.497 63.0854 521.057 66.776 513.761 69.336Z" fill="url(#paint18_linear_24_3120)"/>
<path d="M460.385 69.144H455.841C450.209 69.144 445.665 68.76 442.209 67.992C438.795 67.2667 436.278 66.072 434.657 64.408C433.035 62.7867 432.225 60.632 432.225 57.944C432.225 56.28 432.609 54.552 433.377 52.76C434.187 50.968 435.297 49.2614 436.705 47.64C438.113 45.976 439.777 44.568 441.697 43.416L454.177 42.648C451.574 43.8 449.334 45.1227 447.457 46.616C445.579 48.1094 444.15 49.6454 443.169 51.224C442.23 52.76 441.761 54.2107 441.761 55.576C441.761 56.728 442.251 57.6667 443.233 58.392C444.214 59.0747 445.729 59.5654 447.777 59.864C449.867 60.1627 452.619 60.312 456.033 60.312H461.665L460.385 69.144ZM441.697 36.76L427.937 37.336C434.891 33.5387 441.505 29.208 447.777 24.344H425.825L425.761 15.704H460.193L461.729 23.256C455.457 28.0347 448.779 32.536 441.697 36.76ZM469.921 33.368L470.561 42.136L417.697 46.36L417.057 37.592L469.921 33.368Z" fill="url(#paint19_linear_24_3120)"/>
<defs>
<filter id="filter0_f_24_3120" x="396.496" y="2.52002" width="610.752" height="100.352" filterUnits="userSpaceOnUse" color-interpolation-filters="sRGB">
<feFlood flood-opacity="0" result="BackgroundImageFix"/>
<feBlend mode="normal" in="SourceGraphic" in2="BackgroundImageFix" result="shape"/>
<feGaussianBlur stdDeviation="10" result="effect1_foregroundBlur_24_3120"/>
</filter>
<linearGradient id="paint0_linear_24_3120" x1="312" y1="62.0036" x2="1088" y2="62.0029" gradientUnits="userSpaceOnUse">
<stop stop-color="white" stop-opacity="0.3"/>
<stop offset="0.495" stop-color="#CBB0F8"/>
<stop offset="1" stop-color="white" stop-opacity="0.3"/>
</linearGradient>
<linearGradient id="paint1_linear_24_3120" x1="989.006" y1="51.9112" x2="-4284.88" y2="51.9163" gradientUnits="userSpaceOnUse">
<stop stop-color="#F4439F"/>
<stop offset="1" stop-color="#7C3AED"/>
</linearGradient>
<linearGradient id="paint2_linear_24_3120" x1="1721.07" y1="54.9333" x2="-4394.13" y2="54.9346" gradientUnits="userSpaceOnUse">
<stop stop-color="#F4439F"/>
<stop offset="1" stop-color="#7C3AED"/>
</linearGradient>
<linearGradient id="paint3_linear_24_3120" x1="2411.07" y1="52.169" x2="-3711.42" y2="52.1759" gradientUnits="userSpaceOnUse">
<stop stop-color="#F4439F"/>
<stop offset="1" stop-color="#7C3AED"/>
</linearGradient>
<linearGradient id="paint4_linear_24_3120" x1="2877.28" y1="54" x2="-2736.67" y2="54.0067" gradientUnits="userSpaceOnUse">
<stop stop-color="#F4439F"/>
<stop offset="1" stop-color="#7C3AED"/>
</linearGradient>
<linearGradient id="paint5_linear_24_3120" x1="3536.82" y1="53.9187" x2="-2107.98" y2="53.9252" gradientUnits="userSpaceOnUse">
<stop stop-color="#F4439F"/>
<stop offset="1" stop-color="#7C3AED"/>
</linearGradient>
<linearGradient id="paint6_linear_24_3120" x1="4324.86" y1="50.4878" x2="-1599.9" y2="50.4941" gradientUnits="userSpaceOnUse">
<stop stop-color="#F4439F"/>
<stop offset="1" stop-color="#7C3AED"/>
</linearGradient>
<linearGradient id="paint7_linear_24_3120" x1="4641.76" y1="53.8421" x2="-805.506" y2="53.8482" gradientUnits="userSpaceOnUse">
<stop stop-color="#F4439F"/>
<stop offset="1" stop-color="#7C3AED"/>
</linearGradient>
<linearGradient id="paint8_linear_24_3120" x1="5641.48" y1="50.4878" x2="-283.284" y2="50.4941" gradientUnits="userSpaceOnUse">
<stop stop-color="#F4439F"/>
<stop offset="1" stop-color="#7C3AED"/>
</linearGradient>
<linearGradient id="paint9_linear_24_3120" x1="987.44" y1="54.0001" x2="411.44" y2="54.0002" gradientUnits="userSpaceOnUse">
<stop stop-color="#F4439F"/>
<stop offset="1" stop-color="#7C3AED"/>
</linearGradient>
<linearGradient id="paint10_linear_24_3120" x1="700" y1="70" x2="700" y2="117" gradientUnits="userSpaceOnUse">
<stop offset="0.0001" stop-color="white" stop-opacity="0.1"/>
<stop offset="1" stop-color="white" stop-opacity="0"/>
</linearGradient>
<linearGradient id="paint11_linear_24_3120" x1="989.567" y1="-5.10354" x2="688.824" y2="1252.98" gradientUnits="userSpaceOnUse">
<stop stop-color="#F4439F"/>
<stop offset="1" stop-color="#7C3AED"/>
</linearGradient>
<linearGradient id="paint12_linear_24_3120" x1="1721.63" y1="-210.701" x2="-1983.57" y2="2979" gradientUnits="userSpaceOnUse">
<stop stop-color="#F4439F"/>
<stop offset="1" stop-color="#7C3AED"/>
</linearGradient>
<linearGradient id="paint13_linear_24_3120" x1="2411.63" y1="-4.90083" x2="2148.29" y2="1272.41" gradientUnits="userSpaceOnUse">
<stop stop-color="#F4439F"/>
<stop offset="1" stop-color="#7C3AED"/>
</linearGradient>
<linearGradient id="paint14_linear_24_3120" x1="2877.84" y1="3.00001" x2="2661.83" y2="1113.24" gradientUnits="userSpaceOnUse">
<stop stop-color="#F4439F"/>
<stop offset="1" stop-color="#7C3AED"/>
</linearGradient>
<linearGradient id="paint15_linear_24_3120" x1="3537.38" y1="1.37071" x2="3305.74" y2="1152.77" gradientUnits="userSpaceOnUse">
<stop stop-color="#F4439F"/>
<stop offset="1" stop-color="#7C3AED"/>
</linearGradient>
<linearGradient id="paint16_linear_24_3120" x1="4325.42" y1="-7.71447" x2="4040.86" y2="1295.2" gradientUnits="userSpaceOnUse">
<stop stop-color="#F4439F"/>
<stop offset="1" stop-color="#7C3AED"/>
</linearGradient>
<linearGradient id="paint17_linear_24_3120" x1="4642.32" y1="1.6486" x2="4406.96" y2="1140.54" gradientUnits="userSpaceOnUse">
<stop stop-color="#F4439F"/>
<stop offset="1" stop-color="#7C3AED"/>
</linearGradient>
<linearGradient id="paint18_linear_24_3120" x1="5642.04" y1="-7.7145" x2="5357.48" y2="1295.2" gradientUnits="userSpaceOnUse">
<stop stop-color="#F4439F"/>
<stop offset="1" stop-color="#7C3AED"/>
</linearGradient>
<linearGradient id="paint19_linear_24_3120" x1="988.001" y1="3.00009" x2="512.572" y2="253.714" gradientUnits="userSpaceOnUse">
<stop stop-color="#F4439F"/>
<stop offset="1" stop-color="#7C3AED"/>
</linearGradient>
</defs>
</svg>
