<svg width="1400" height="120" viewBox="0 0 1400 120" fill="none" xmlns="http://www.w3.org/2000/svg">
<path d="M472 54H928V70H472V54Z" fill="url(#paint0_linear_24_3024)"/>
<mask id="mask0_24_3024" style="mask-type:alpha" maskUnits="userSpaceOnUse" x="472" y="70" width="456" height="47">
<path d="M472 70H928V117H472V70Z" fill="#C4C4C4"/>
</mask>
<g mask="url(#mask0_24_3024)">
<g filter="url(#filter0_f_24_3024)">
<path d="M790.848 30.904V37.368H768.96V30.904H776.832C776.021 28.1307 775.317 25.912 774.72 24.248L781.504 22.52C782.741 26.1467 783.616 28.9414 784.128 30.904H790.848ZM811.712 52.152C812.651 57.272 814.443 61.9227 817.088 66.104C819.733 70.2427 823.211 73.6134 827.52 76.216L823.488 82.808C818.155 79.0534 813.952 74.7014 810.88 69.752C807.851 64.76 805.632 58.8934 804.224 52.152H801.024C800.896 57.0587 800.533 61.1974 799.936 64.568C799.381 67.9387 798.464 71.0534 797.184 73.912C795.947 76.728 794.176 79.7147 791.872 82.872L785.536 78.52C785.707 78.264 785.856 78.072 785.984 77.944H770.24V57.912H789.184V73.08C791.104 69.7094 792.384 66.2107 793.024 62.584C793.707 58.9574 794.048 53.88 794.048 47.352V26.04H824.96V52.152H811.712ZM817.728 45.048V33.208H801.088V45.048H817.728ZM771.136 40.056H788.608V46.2H771.136V40.056ZM788.608 55.096H771.136V48.888H788.608V55.096ZM776.832 71.48H782.592V64.312H776.832V71.48Z" fill="url(#paint1_linear_24_3024)" fill-opacity="0.7"/>
<path d="M748.864 25.592H761.28V74.232C761.28 77.0054 760.832 78.968 759.936 80.12C759.083 81.272 757.461 81.848 755.072 81.848C753.493 81.848 751.851 81.6774 750.144 81.336L748.928 74.104C750.464 74.488 751.765 74.68 752.832 74.68C753.685 74.68 754.261 74.4027 754.56 73.848C754.901 73.2934 755.072 72.3974 755.072 71.16V62.136C752.171 64.696 750.443 66.2534 749.888 66.808L746.944 61.368L746.88 74.296C746.923 77.0694 746.539 79.0107 745.728 80.12C744.917 81.272 743.381 81.848 741.12 81.848C739.456 81.848 737.728 81.6774 735.936 81.336L734.848 74.104C736.469 74.488 737.771 74.68 738.752 74.68C739.691 74.68 740.331 74.3814 740.672 73.784C741.013 73.1867 741.184 72.2054 741.184 70.84V61.88C738.027 64.6107 736.149 66.2747 735.552 66.872L732.672 61.112V81.08H706.496V57.08L706.048 57.336L703.04 51.768C707.221 49.592 710.485 47.3094 712.832 44.92H704.64V39.352H709.632C708.992 38.2 707.925 36.4507 706.432 34.104L710.848 31.608L706.24 31.928L705.664 26.232C717.781 25.592 726.421 24.7814 731.584 23.8L732.288 29.496C728.832 30.008 725.632 30.392 722.688 30.648V39.352H727.872L723.84 37.368C725.333 35.1494 726.571 32.9094 727.552 30.648L732.672 32.888L729.344 39.352H733.12V44.92H725.696C730.517 47.7787 733.589 49.656 734.912 50.552L732.416 54.968H732.672V59.704C735.189 57.8267 738.027 55.5867 741.184 52.984V50.488L737.408 51.832C736.768 49.6134 735.979 47.096 735.04 44.28C734.144 41.4214 733.419 39.2454 732.864 37.752L737.536 35.96L741.184 47.288V33.08H734.144V25.592H747.008V37.304L750.912 35.704C752.235 39.3734 753.621 43.448 755.072 47.928V33.08H748.864V25.592ZM711.616 31.608C712.171 32.632 712.853 33.7627 713.664 35L715.072 37.24L711.04 39.352H716.16V31.224L711.616 31.608ZM746.944 59.896L755.072 53.304V50.424L751.168 51.832C750.229 48.632 748.821 44.3867 746.944 39.096V59.896ZM716.16 48.568C714.24 50.9574 712.021 53.0907 709.504 54.968H731.136C729.131 53.4747 726.315 51.4907 722.688 49.016V53.816H716.16V48.568ZM712.192 65.208H716.736V60.408H712.192V65.208ZM722.56 65.208H726.976V60.408H722.56V65.208ZM716.736 70.584H712.192V75.576H716.736V70.584ZM722.56 70.584V75.576H726.976V70.584H722.56Z" fill="url(#paint2_linear_24_3024)" fill-opacity="0.7"/>
<path d="M697.024 73.72C694.379 72.7814 692.011 71.8 689.92 70.776V74.104C689.92 76.536 689.408 78.2 688.384 79.096C687.403 80.0347 685.632 80.504 683.072 80.504C681.109 80.504 678.955 80.3974 676.608 80.184L675.52 75C677.824 75.256 679.531 75.4054 680.64 75.448C681.408 75.448 681.941 75.2774 682.24 74.936C682.581 74.5947 682.752 74.0187 682.752 73.208V70.968H673.088V82.68H665.856V70.968H656.256V80.248H649.216V70.968C646.869 72.2054 644.672 73.272 642.624 74.168L639.488 67.768C645.035 65.7627 649.451 63.5014 652.736 60.984H640.32V55.416H658.368C659.051 54.52 659.627 53.6667 660.096 52.856H646.656V34.936H655.744V32.248H641.088V26.808H655.744V23.032H663.36V26.808H675.52V23.032H683.328V26.808H697.856V32.248H683.328V34.936H692.416V52.856H668.48C668.053 53.6667 667.541 54.52 666.944 55.416H698.176V60.984H684.8C688.469 63.672 693.397 65.8267 699.584 67.448L697.024 73.72ZM675.52 32.248H663.36V34.936H675.52V32.248ZM684.672 41.848V39.352H654.08V41.848H684.672ZM684.672 45.752H654.08V48.184H684.672V45.752ZM673.088 65.848H681.728C679.68 64.312 677.824 62.6907 676.16 60.984H662.592C661.056 62.648 659.264 64.2694 657.216 65.848H665.856V62.584H673.088V65.848Z" fill="url(#paint3_linear_24_3024)" fill-opacity="0.7"/>
<path d="M585.856 37.112V44.92H577.984V29.688H601.536C601.237 28.9627 600.725 27.8107 600 26.232L599.104 24.312L608 22.712L611.136 29.688H633.216V44.984H625.28V37.112H585.856ZM633.728 58.04V65.528H609.792V73.208C609.792 75.8534 609.515 77.816 608.96 79.096C608.448 80.376 607.552 81.2294 606.272 81.656C604.992 82.1254 603.051 82.36 600.448 82.36C598.059 82.36 595.456 82.1894 592.64 81.848L591.104 74.616C594.475 75.0854 597.163 75.32 599.168 75.32C600.235 75.32 600.939 75.064 601.28 74.552C601.621 73.9974 601.792 72.8454 601.792 71.096V65.528H576.96V58.04H601.792V54.84L609.728 49.336H587.84V42.104H623.232V49.272L609.792 57.784V58.04H633.728Z" fill="url(#paint4_linear_24_3024)" fill-opacity="0.7"/>
</g>
</g>
<path d="M472 70H928V105C928 111.627 922.627 117 916 117H484C477.373 117 472 111.627 472 105V70Z" fill="url(#paint5_linear_24_3024)"/>
<path d="M789.409 18.904V25.368H767.521V18.904H775.393C774.582 16.1307 773.878 13.912 773.281 12.248L780.065 10.52C781.302 14.1467 782.177 16.9414 782.689 18.904H789.409ZM810.273 40.152C811.211 45.272 813.003 49.9227 815.649 54.104C818.294 58.2427 821.771 61.6134 826.081 64.216L822.049 70.808C816.715 67.0534 812.513 62.7014 809.441 57.752C806.411 52.76 804.193 46.8934 802.785 40.152H799.585C799.457 45.0587 799.094 49.1974 798.497 52.568C797.942 55.9387 797.025 59.0534 795.745 61.912C794.507 64.728 792.737 67.7147 790.433 70.872L784.097 66.52C784.267 66.264 784.417 66.072 784.545 65.944H768.801V45.912H787.745V61.08C789.665 57.7094 790.945 54.2107 791.585 50.584C792.267 46.9574 792.609 41.88 792.609 35.352V14.04H823.521V40.152H810.273ZM816.289 33.048V21.208H799.649V33.048H816.289ZM769.697 28.056H787.169V34.2H769.697V28.056ZM787.169 43.096H769.697V36.888H787.169V43.096ZM775.393 59.48H781.153V52.312H775.393V59.48Z" fill="url(#paint6_linear_24_3024)"/>
<path d="M747.425 13.592H759.841V62.232C759.841 65.0054 759.393 66.968 758.497 68.12C757.643 69.272 756.022 69.848 753.633 69.848C752.054 69.848 750.411 69.6774 748.705 69.336L747.489 62.104C749.025 62.488 750.326 62.68 751.393 62.68C752.246 62.68 752.822 62.4027 753.121 61.848C753.462 61.2934 753.633 60.3974 753.633 59.16V50.136C750.731 52.696 749.003 54.2534 748.449 54.808L745.505 49.368L745.441 62.296C745.483 65.0694 745.099 67.0107 744.289 68.12C743.478 69.272 741.942 69.848 739.681 69.848C738.017 69.848 736.289 69.6774 734.497 69.336L733.409 62.104C735.03 62.488 736.331 62.68 737.312 62.68C738.251 62.68 738.891 62.3814 739.233 61.784C739.574 61.1867 739.745 60.2054 739.745 58.84V49.88C736.587 52.6107 734.71 54.2747 734.113 54.872L731.233 49.112V69.08H705.057V45.08L704.609 45.336L701.601 39.768C705.782 37.592 709.046 35.3094 711.393 32.92H703.201V27.352H708.193C707.553 26.2 706.486 24.4507 704.993 22.104L709.409 19.608L704.801 19.928L704.225 14.232C716.342 13.592 724.982 12.7814 730.145 11.8L730.849 17.496C727.393 18.008 724.193 18.392 721.249 18.648V27.352H726.433L722.401 25.368C723.894 23.1494 725.131 20.9094 726.113 18.648L731.233 20.888L727.905 27.352H731.681V32.92H724.257C729.078 35.7787 732.15 37.656 733.473 38.552L730.977 42.968H731.233V47.704C733.75 45.8267 736.587 43.5867 739.745 40.984V38.488L735.969 39.832C735.329 37.6134 734.539 35.096 733.601 32.28C732.705 29.4214 731.979 27.2454 731.424 25.752L736.097 23.96L739.745 35.288V21.08H732.705V13.592H745.569V25.304L749.473 23.704C750.795 27.3734 752.182 31.448 753.633 35.928V21.08H747.425V13.592ZM710.177 19.608C710.731 20.632 711.414 21.7627 712.225 23L713.633 25.24L709.601 27.352H714.721V19.224L710.177 19.608ZM745.505 47.896L753.633 41.304V38.424L749.729 39.832C748.79 36.632 747.382 32.3867 745.505 27.096V47.896ZM714.721 36.568C712.801 38.9574 710.582 41.0907 708.065 42.968H729.697C727.691 41.4747 724.875 39.4907 721.249 37.016V41.816H714.721V36.568ZM710.753 53.208H715.297V48.408H710.753V53.208ZM721.121 53.208H725.536V48.408H721.121V53.208ZM715.297 58.584H710.753V63.576H715.297V58.584ZM721.121 58.584V63.576H725.536V58.584H721.121Z" fill="url(#paint7_linear_24_3024)"/>
<path d="M695.585 61.72C692.939 60.7814 690.571 59.8 688.481 58.776V62.104C688.481 64.536 687.969 66.2 686.945 67.096C685.963 68.0347 684.193 68.504 681.633 68.504C679.67 68.504 677.515 68.3974 675.169 68.184L674.081 63C676.385 63.256 678.091 63.4054 679.201 63.448C679.969 63.448 680.502 63.2774 680.801 62.936C681.142 62.5947 681.313 62.0187 681.313 61.208V58.968H671.649V70.68H664.417V58.968H654.817V68.248H647.777V58.968C645.43 60.2054 643.233 61.272 641.185 62.168L638.049 55.768C643.595 53.7627 648.011 51.5014 651.297 48.984H638.881V43.416H656.929C657.611 42.52 658.187 41.6667 658.657 40.856H645.217V22.936H654.305V20.248H639.649V14.808H654.305V11.032H661.921V14.808H674.081V11.032H681.889V14.808H696.417V20.248H681.889V22.936H690.977V40.856H667.041C666.614 41.6667 666.102 42.52 665.505 43.416H696.737V48.984H683.361C687.03 51.672 691.958 53.8267 698.145 55.448L695.585 61.72ZM674.081 20.248H661.921V22.936H674.081V20.248ZM683.233 29.848V27.352H652.641V29.848H683.233ZM683.233 33.752H652.641V36.184H683.233V33.752ZM671.649 53.848H680.289C678.241 52.312 676.385 50.6907 674.721 48.984H661.153C659.617 50.648 657.825 52.2694 655.777 53.848H664.417V50.584H671.649V53.848Z" fill="url(#paint8_linear_24_3024)"/>
<path d="M584.417 25.112V32.92H576.545V17.688H600.097C599.798 16.9627 599.286 15.8107 598.561 14.232L597.665 12.312L606.561 10.712L609.697 17.688H631.777V32.984H623.841V25.112H584.417ZM632.289 46.04V53.528H608.353V61.208C608.353 63.8534 608.075 65.816 607.521 67.096C607.009 68.376 606.113 69.2294 604.833 69.656C603.553 70.1254 601.611 70.36 599.009 70.36C596.619 70.36 594.017 70.1894 591.201 69.848L589.665 62.616C593.035 63.0854 595.723 63.32 597.729 63.32C598.795 63.32 599.499 63.064 599.841 62.552C600.182 61.9974 600.353 60.8454 600.353 59.096V53.528H575.521V46.04H600.353V42.84L608.289 37.336H586.401V30.104H621.793V37.272L608.353 45.784V46.04H632.289Z" fill="url(#paint9_linear_24_3024)"/>
<defs>
<filter id="filter0_f_24_3024" x="556.96" y="2.52002" width="290.56" height="100.352" filterUnits="userSpaceOnUse" color-interpolation-filters="sRGB">
<feFlood flood-opacity="0" result="BackgroundImageFix"/>
<feBlend mode="normal" in="SourceGraphic" in2="BackgroundImageFix" result="shape"/>
<feGaussianBlur stdDeviation="10" result="effect1_foregroundBlur_24_3024"/>
</filter>
<linearGradient id="paint0_linear_24_3024" x1="472" y1="62.0036" x2="928" y2="62.0033" gradientUnits="userSpaceOnUse">
<stop stop-color="white" stop-opacity="0.3"/>
<stop offset="0.495" stop-color="#CBB0F8"/>
<stop offset="1" stop-color="white" stop-opacity="0.3"/>
</linearGradient>
<linearGradient id="paint1_linear_24_3024" x1="835.735" y1="54" x2="-259.609" y2="54.0003" gradientUnits="userSpaceOnUse">
<stop stop-color="#F4439F"/>
<stop offset="1" stop-color="#7C3AED"/>
</linearGradient>
<linearGradient id="paint2_linear_24_3024" x1="1120.76" y1="53.9187" x2="19.395" y2="53.9189" gradientUnits="userSpaceOnUse">
<stop stop-color="#F4439F"/>
<stop offset="1" stop-color="#7C3AED"/>
</linearGradient>
<linearGradient id="paint3_linear_24_3024" x1="1368.93" y1="53.8535" x2="301.584" y2="53.8538" gradientUnits="userSpaceOnUse">
<stop stop-color="#F4439F"/>
<stop offset="1" stop-color="#7C3AED"/>
</linearGradient>
<linearGradient id="paint4_linear_24_3024" x1="829.44" y1="54.0001" x2="573.44" y2="54.0001" gradientUnits="userSpaceOnUse">
<stop stop-color="#F4439F"/>
<stop offset="1" stop-color="#7C3AED"/>
</linearGradient>
<linearGradient id="paint5_linear_24_3024" x1="700" y1="70" x2="700" y2="117" gradientUnits="userSpaceOnUse">
<stop offset="0.0001" stop-color="white" stop-opacity="0.1"/>
<stop offset="1" stop-color="white" stop-opacity="0"/>
</linearGradient>
<linearGradient id="paint6_linear_24_3024" x1="834.296" y1="3.00002" x2="258.164" y2="580.754" gradientUnits="userSpaceOnUse">
<stop stop-color="#F4439F"/>
<stop offset="1" stop-color="#7C3AED"/>
</linearGradient>
<linearGradient id="paint7_linear_24_3024" x1="1119.32" y1="1.37073" x2="520.598" y2="582.03" gradientUnits="userSpaceOnUse">
<stop stop-color="#F4439F"/>
<stop offset="1" stop-color="#7C3AED"/>
</linearGradient>
<linearGradient id="paint8_linear_24_3024" x1="1367.49" y1="2.39323" x2="784.913" y2="565.042" gradientUnits="userSpaceOnUse">
<stop stop-color="#F4439F"/>
<stop offset="1" stop-color="#7C3AED"/>
</linearGradient>
<linearGradient id="paint9_linear_24_3024" x1="828.001" y1="3.00004" x2="572.001" y2="63" gradientUnits="userSpaceOnUse">
<stop stop-color="#F4439F"/>
<stop offset="1" stop-color="#7C3AED"/>
</linearGradient>
</defs>
</svg>
