<svg width="1400" height="120" viewBox="0 0 1400 120" fill="none" xmlns="http://www.w3.org/2000/svg">
<path d="M408 54H992V70H408V54Z" fill="url(#paint0_linear_24_3088)"/>
<mask id="mask0_24_3088" style="mask-type:alpha" maskUnits="userSpaceOnUse" x="408" y="70" width="584" height="47">
<path d="M408 70H992V117H408V70Z" fill="#C4C4C4"/>
</mask>
<g mask="url(#mask0_24_3088)">
<g filter="url(#filter0_f_24_3088)">
<path d="M852.849 30.904V37.368H830.961V30.904H838.833C838.022 28.1307 837.318 25.912 836.721 24.248L843.505 22.52C844.742 26.1467 845.617 28.9414 846.129 30.904H852.849ZM873.713 52.152C874.651 57.272 876.443 61.9227 879.089 66.104C881.734 70.2427 885.211 73.6134 889.521 76.216L885.489 82.808C880.155 79.0534 875.953 74.7014 872.881 69.752C869.851 64.76 867.633 58.8934 866.225 52.152H863.025C862.897 57.0587 862.534 61.1974 861.937 64.568C861.382 67.9387 860.465 71.0534 859.185 73.912C857.947 76.728 856.177 79.7147 853.873 82.872L847.537 78.52C847.707 78.264 847.857 78.072 847.985 77.944H832.241V57.912H851.185V73.08C853.105 69.7094 854.385 66.2107 855.025 62.584C855.707 58.9574 856.049 53.88 856.049 47.352V26.04H886.961V52.152H873.713ZM879.729 45.048V33.208H863.089V45.048H879.729ZM833.137 40.056H850.609V46.2H833.137V40.056ZM850.609 55.096H833.137V48.888H850.609V55.096ZM838.833 71.48H844.593V64.312H838.833V71.48Z" fill="url(#paint1_linear_24_3088)" fill-opacity="0.7"/>
<path d="M810.865 25.592H823.281V74.232C823.281 77.0054 822.833 78.968 821.937 80.12C821.083 81.272 819.462 81.848 817.073 81.848C815.494 81.848 813.851 81.6774 812.145 81.336L810.929 74.104C812.465 74.488 813.766 74.68 814.833 74.68C815.686 74.68 816.262 74.4027 816.561 73.848C816.902 73.2934 817.073 72.3974 817.073 71.16V62.136C814.171 64.696 812.443 66.2534 811.889 66.808L808.945 61.368L808.881 74.296C808.923 77.0694 808.539 79.0107 807.729 80.12C806.918 81.272 805.382 81.848 803.121 81.848C801.457 81.848 799.729 81.6774 797.937 81.336L796.849 74.104C798.47 74.488 799.771 74.68 800.753 74.68C801.691 74.68 802.331 74.3814 802.673 73.784C803.014 73.1867 803.185 72.2054 803.185 70.84V61.88C800.027 64.6107 798.15 66.2747 797.553 66.872L794.673 61.112V81.08H768.497V57.08L768.049 57.336L765.041 51.768C769.222 49.592 772.486 47.3094 774.833 44.92H766.641V39.352H771.633C770.993 38.2 769.926 36.4507 768.433 34.104L772.849 31.608L768.241 31.928L767.665 26.232C779.782 25.592 788.422 24.7814 793.585 23.8L794.289 29.496C790.833 30.008 787.633 30.392 784.689 30.648V39.352H789.873L785.841 37.368C787.334 35.1494 788.571 32.9094 789.553 30.648L794.673 32.888L791.345 39.352H795.121V44.92H787.697C792.518 47.7787 795.59 49.656 796.913 50.552L794.417 54.968H794.673V59.704C797.19 57.8267 800.027 55.5867 803.185 52.984V50.488L799.409 51.832C798.769 49.6134 797.979 47.096 797.041 44.28C796.145 41.4214 795.419 39.2454 794.865 37.752L799.537 35.96L803.185 47.288V33.08H796.145V25.592H809.009V37.304L812.913 35.704C814.235 39.3734 815.622 43.448 817.073 47.928V33.08H810.865V25.592ZM773.617 31.608C774.171 32.632 774.854 33.7627 775.665 35L777.073 37.24L773.041 39.352H778.161V31.224L773.617 31.608ZM808.945 59.896L817.073 53.304V50.424L813.169 51.832C812.23 48.632 810.822 44.3867 808.945 39.096V59.896ZM778.161 48.568C776.241 50.9574 774.022 53.0907 771.505 54.968H793.137C791.131 53.4747 788.315 51.4907 784.689 49.016V53.816H778.161V48.568ZM774.193 65.208H778.737V60.408H774.193V65.208ZM784.561 65.208H788.977V60.408H784.561V65.208ZM778.737 70.584H774.193V75.576H778.737V70.584ZM784.561 70.584V75.576H788.977V70.584H784.561Z" fill="url(#paint2_linear_24_3088)" fill-opacity="0.7"/>
<path d="M755.889 57.336L749.809 65.464C745.713 62.0507 741.638 59.192 737.585 56.888C733.531 54.584 729.243 52.6854 724.721 51.192V41.848C730.481 43.3414 735.814 45.304 740.721 47.736C745.627 50.168 750.683 53.368 755.889 57.336ZM725.425 26.552V80.824H715.633V26.552H725.425Z" fill="url(#paint3_linear_24_3088)" fill-opacity="0.7"/>
<path d="M668.145 62.84L674.353 55.992C677.851 58.4667 681.435 61.3894 685.105 64.76C688.774 68.1307 692.123 71.544 695.153 75L687.793 81.528C685.062 78.2854 681.862 74.936 678.193 71.48C674.566 68.024 671.217 65.144 668.145 62.84ZM644.529 80.376L639.793 72.056C646.107 69.2827 651.611 66.2107 656.305 62.84C661.041 59.4267 664.881 55.6934 667.825 51.64C670.769 47.544 672.753 43.1707 673.777 38.52H645.809V29.496H685.681L684.977 33.848C683.91 41.3574 681.457 48.12 677.617 54.136C673.777 60.152 669.041 65.3147 663.409 69.624C657.777 73.9334 651.483 77.5174 644.529 80.376Z" fill="url(#paint4_linear_24_3088)" fill-opacity="0.7"/>
<path d="M628.913 52.152L629.873 60.856L609.137 63.48L611.633 80.568L601.905 81.656L599.473 64.696L578.289 67.384L577.201 58.616L598.193 55.992L596.721 45.944L579.441 47.992L578.481 39.224L595.441 37.24L593.905 26.488L603.505 25.336L605.105 36.088L622.833 33.976L623.793 42.68L606.385 44.792L607.857 54.776L628.913 52.152Z" fill="url(#paint5_linear_24_3088)" fill-opacity="0.7"/>
<path d="M537.969 51.832H547.505C547.547 59.4694 545.777 65.8267 542.193 70.904C538.609 75.9814 532.955 79.5227 525.233 81.528L521.521 73.144C525.617 71.992 528.838 70.5627 531.185 68.856C533.574 67.1067 535.302 64.888 536.369 62.2C537.435 59.4694 537.969 56.0134 537.969 51.832ZM558.641 28.728V37.496H520.241V28.728H558.641ZM513.265 45.816H565.553V54.584H513.265V45.816Z" fill="url(#paint6_linear_24_3088)" fill-opacity="0.7"/>
</g>
</g>
<path d="M408 70H992V105C992 111.627 986.627 117 980 117H420C413.373 117 408 111.627 408 105V70Z" fill="url(#paint7_linear_24_3088)"/>
<path d="M853.408 18.904V25.368H831.52V18.904H839.392C838.582 16.1307 837.878 13.912 837.28 12.248L844.064 10.52C845.302 14.1467 846.176 16.9414 846.688 18.904H853.408ZM874.272 40.152C875.211 45.272 877.003 49.9227 879.648 54.104C882.294 58.2427 885.771 61.6134 890.08 64.216L886.048 70.808C880.715 67.0534 876.512 62.7014 873.44 57.752C870.411 52.76 868.192 46.8934 866.784 40.152H863.584C863.456 45.0587 863.094 49.1974 862.496 52.568C861.942 55.9387 861.024 59.0534 859.744 61.912C858.507 64.728 856.736 67.7147 854.432 70.872L848.096 66.52C848.267 66.264 848.416 66.072 848.544 65.944H832.8V45.912H851.744V61.08C853.664 57.7094 854.944 54.2107 855.584 50.584C856.267 46.9574 856.608 41.88 856.608 35.352V14.04H887.52V40.152H874.272ZM880.288 33.048V21.208H863.648V33.048H880.288ZM833.696 28.056H851.168V34.2H833.696V28.056ZM851.168 43.096H833.696V36.888H851.168V43.096ZM839.392 59.48H845.152V52.312H839.392V59.48Z" fill="url(#paint8_linear_24_3088)"/>
<path d="M811.424 13.592H823.84V62.232C823.84 65.0054 823.392 66.968 822.496 68.12C821.643 69.272 820.022 69.848 817.632 69.848C816.054 69.848 814.411 69.6774 812.704 69.336L811.488 62.104C813.024 62.488 814.326 62.68 815.392 62.68C816.246 62.68 816.822 62.4027 817.12 61.848C817.462 61.2934 817.632 60.3974 817.632 59.16V50.136C814.731 52.696 813.003 54.2534 812.448 54.808L809.504 49.368L809.44 62.296C809.483 65.0694 809.099 67.0107 808.288 68.12C807.478 69.272 805.942 69.848 803.68 69.848C802.016 69.848 800.288 69.6774 798.496 69.336L797.408 62.104C799.03 62.488 800.331 62.68 801.312 62.68C802.251 62.68 802.891 62.3814 803.232 61.784C803.574 61.1867 803.744 60.2054 803.744 58.84V49.88C800.587 52.6107 798.71 54.2747 798.112 54.872L795.232 49.112V69.08H769.056V45.08L768.608 45.336L765.6 39.768C769.782 37.592 773.046 35.3094 775.392 32.92H767.2V27.352H772.192C771.552 26.2 770.486 24.4507 768.992 22.104L773.408 19.608L768.8 19.928L768.224 14.232C780.342 13.592 788.982 12.7814 794.144 11.8L794.848 17.496C791.392 18.008 788.192 18.392 785.248 18.648V27.352H790.432L786.4 25.368C787.894 23.1494 789.131 20.9094 790.112 18.648L795.232 20.888L791.904 27.352H795.68V32.92H788.256C793.078 35.7787 796.15 37.656 797.472 38.552L794.976 42.968H795.232V47.704C797.75 45.8267 800.587 43.5867 803.744 40.984V38.488L799.968 39.832C799.328 37.6134 798.539 35.096 797.6 32.28C796.704 29.4214 795.979 27.2454 795.424 25.752L800.096 23.96L803.744 35.288V21.08H796.704V13.592H809.568V25.304L813.472 23.704C814.795 27.3734 816.182 31.448 817.632 35.928V21.08H811.424V13.592ZM774.176 19.608C774.731 20.632 775.414 21.7627 776.224 23L777.632 25.24L773.6 27.352H778.72V19.224L774.176 19.608ZM809.504 47.896L817.632 41.304V38.424L813.728 39.832C812.79 36.632 811.382 32.3867 809.504 27.096V47.896ZM778.72 36.568C776.8 38.9574 774.582 41.0907 772.064 42.968H793.696C791.691 41.4747 788.875 39.4907 785.248 37.016V41.816H778.72V36.568ZM774.752 53.208H779.296V48.408H774.752V53.208ZM785.12 53.208H789.536V48.408H785.12V53.208ZM779.296 58.584H774.752V63.576H779.296V58.584ZM785.12 58.584V63.576H789.536V58.584H785.12Z" fill="url(#paint9_linear_24_3088)"/>
<path d="M756.448 45.336L750.368 53.464C746.272 50.0507 742.198 47.192 738.144 44.888C734.091 42.584 729.803 40.6854 725.28 39.192V29.848C731.04 31.3414 736.374 33.304 741.28 35.736C746.187 38.168 751.243 41.368 756.448 45.336ZM725.984 14.552V68.824H716.192V14.552H725.984Z" fill="url(#paint10_linear_24_3088)"/>
<path d="M668.704 50.84L674.912 43.992C678.411 46.4667 681.995 49.3894 685.664 52.76C689.334 56.1307 692.683 59.544 695.712 63L688.352 69.528C685.622 66.2854 682.422 62.936 678.752 59.48C675.126 56.024 671.776 53.144 668.704 50.84ZM645.088 68.376L640.352 60.056C646.667 57.2827 652.171 54.2107 656.864 50.84C661.6 47.4267 665.44 43.6934 668.384 39.64C671.328 35.544 673.312 31.1707 674.336 26.52H646.368V17.496H686.24L685.536 21.848C684.47 29.3574 682.016 36.12 678.176 42.136C674.336 48.152 669.6 53.3147 663.968 57.624C658.336 61.9334 652.043 65.5174 645.088 68.376Z" fill="url(#paint11_linear_24_3088)"/>
<path d="M629.472 40.152L630.432 48.856L609.696 51.48L612.192 68.568L602.464 69.656L600.032 52.696L578.848 55.384L577.76 46.616L598.752 43.992L597.28 33.944L580 35.992L579.04 27.224L596 25.24L594.464 14.488L604.064 13.336L605.664 24.088L623.392 21.976L624.352 30.68L606.944 32.792L608.416 42.776L629.472 40.152Z" fill="url(#paint12_linear_24_3088)"/>
<path d="M538.528 39.832H548.064C548.107 47.4694 546.336 53.8267 542.752 58.904C539.168 63.9814 533.515 67.5227 525.792 69.528L522.08 61.144C526.176 59.992 529.398 58.5627 531.744 56.856C534.134 55.1067 535.862 52.888 536.928 50.2C537.995 47.4694 538.528 44.0134 538.528 39.832ZM559.2 16.728V25.496H520.8V16.728H559.2ZM513.824 33.816H566.112V42.584H513.824V33.816Z" fill="url(#paint13_linear_24_3088)"/>
<defs>
<filter id="filter0_f_24_3088" x="493.265" y="2.52002" width="416.256" height="100.352" filterUnits="userSpaceOnUse" color-interpolation-filters="sRGB">
<feFlood flood-opacity="0" result="BackgroundImageFix"/>
<feBlend mode="normal" in="SourceGraphic" in2="BackgroundImageFix" result="shape"/>
<feGaussianBlur stdDeviation="10" result="effect1_foregroundBlur_24_3088"/>
</filter>
<linearGradient id="paint0_linear_24_3088" x1="408" y1="62.0036" x2="992" y2="62.0032" gradientUnits="userSpaceOnUse">
<stop stop-color="white" stop-opacity="0.3"/>
<stop offset="0.495" stop-color="#CBB0F8"/>
<stop offset="1" stop-color="white" stop-opacity="0.3"/>
</linearGradient>
<linearGradient id="paint1_linear_24_3088" x1="901.857" y1="54" x2="-1565.39" y2="54.0013" gradientUnits="userSpaceOnUse">
<stop stop-color="#F4439F"/>
<stop offset="1" stop-color="#7C3AED"/>
</linearGradient>
<linearGradient id="paint2_linear_24_3088" x1="1329.86" y1="53.9187" x2="-1150.94" y2="53.92" gradientUnits="userSpaceOnUse">
<stop stop-color="#F4439F"/>
<stop offset="1" stop-color="#7C3AED"/>
</linearGradient>
<linearGradient id="paint3_linear_24_3088" x1="2156.47" y1="53.043" x2="-1432.62" y2="53.0455" gradientUnits="userSpaceOnUse">
<stop stop-color="#F4439F"/>
<stop offset="1" stop-color="#7C3AED"/>
</linearGradient>
<linearGradient id="paint4_linear_24_3088" x1="2223.6" y1="50.9423" x2="-386.27" y2="50.9435" gradientUnits="userSpaceOnUse">
<stop stop-color="#F4439F"/>
<stop offset="1" stop-color="#7C3AED"/>
</linearGradient>
<linearGradient id="paint5_linear_24_3088" x1="2758" y1="53.2361" x2="14.9426" y2="53.2376" gradientUnits="userSpaceOnUse">
<stop stop-color="#F4439F"/>
<stop offset="1" stop-color="#7C3AED"/>
</linearGradient>
<linearGradient id="paint6_linear_24_3088" x1="891.441" y1="54" x2="507.441" y2="54.0001" gradientUnits="userSpaceOnUse">
<stop stop-color="#F4439F"/>
<stop offset="1" stop-color="#7C3AED"/>
</linearGradient>
<linearGradient id="paint7_linear_24_3088" x1="700" y1="70" x2="700" y2="117" gradientUnits="userSpaceOnUse">
<stop offset="0.0001" stop-color="white" stop-opacity="0.1"/>
<stop offset="1" stop-color="white" stop-opacity="0"/>
</linearGradient>
<linearGradient id="paint8_linear_24_3088" x1="902.416" y1="3.00004" x2="475.894" y2="966.443" gradientUnits="userSpaceOnUse">
<stop stop-color="#F4439F"/>
<stop offset="1" stop-color="#7C3AED"/>
</linearGradient>
<linearGradient id="paint9_linear_24_3088" x1="1330.42" y1="1.37074" x2="877.031" y2="991.826" gradientUnits="userSpaceOnUse">
<stop stop-color="#F4439F"/>
<stop offset="1" stop-color="#7C3AED"/>
</linearGradient>
<linearGradient id="paint10_linear_24_3088" x1="2157.03" y1="-2.32615" x2="1767.95" y2="1147.35" gradientUnits="userSpaceOnUse">
<stop stop-color="#F4439F"/>
<stop offset="1" stop-color="#7C3AED"/>
</linearGradient>
<linearGradient id="paint11_linear_24_3088" x1="2224.16" y1="-6.29393" x2="1699.1" y2="1075.34" gradientUnits="userSpaceOnUse">
<stop stop-color="#F4439F"/>
<stop offset="1" stop-color="#7C3AED"/>
</linearGradient>
<linearGradient id="paint12_linear_24_3088" x1="2758.56" y1="-0.555936" x2="2312.84" y2="1044.01" gradientUnits="userSpaceOnUse">
<stop stop-color="#F4439F"/>
<stop offset="1" stop-color="#7C3AED"/>
</linearGradient>
<linearGradient id="paint13_linear_24_3088" x1="892" y1="3.00002" x2="531.467" y2="129.75" gradientUnits="userSpaceOnUse">
<stop stop-color="#F4439F"/>
<stop offset="1" stop-color="#7C3AED"/>
</linearGradient>
</defs>
</svg>
