<svg width="1400" height="120" viewBox="0 0 1400 120" fill="none" xmlns="http://www.w3.org/2000/svg">
<path d="M344 54H1056V70H344V54Z" fill="url(#paint0_linear_24_3472)"/>
<mask id="mask0_24_3472" style="mask-type:alpha" maskUnits="userSpaceOnUse" x="344" y="70" width="712" height="47">
<path d="M344 70H1056V117H344V70Z" fill="#C4C4C4"/>
</mask>
<g mask="url(#mask0_24_3472)">
<g filter="url(#filter0_f_24_3472)">
<path d="M916.849 30.9041V37.3681H894.961V30.9041H902.833C902.022 28.1307 901.318 25.9121 900.721 24.2481L907.505 22.5201C908.742 26.1467 909.617 28.9414 910.129 30.9041H916.849ZM937.713 52.1521C938.651 57.2721 940.443 61.9227 943.089 66.1041C945.734 70.2427 949.211 73.6134 953.521 76.2161L949.489 82.8081C944.155 79.0534 939.953 74.7014 936.881 69.7521C933.851 64.7601 931.633 58.8934 930.225 52.1521H927.025C926.897 57.0587 926.534 61.1974 925.937 64.5681C925.382 67.9387 924.465 71.0534 923.185 73.9121C921.947 76.7281 920.177 79.7147 917.873 82.8721L911.537 78.5201C911.707 78.2641 911.857 78.0721 911.985 77.9441H896.241V57.9121H915.185V73.0801C917.105 69.7094 918.385 66.2107 919.025 62.5841C919.707 58.9574 920.049 53.8801 920.049 47.3521V26.0401H950.961V52.1521H937.713ZM943.729 45.0481V33.2081H927.089V45.0481H943.729ZM897.137 40.0561H914.609V46.2001H897.137V40.0561ZM914.609 55.0961H897.137V48.8881H914.609V55.0961ZM902.833 71.4801H908.593V64.3121H902.833V71.4801Z" fill="url(#paint1_linear_24_3472)" fill-opacity="0.7"/>
<path d="M874.865 25.5921H887.281V74.2321C887.281 77.0054 886.833 78.9681 885.937 80.1201C885.083 81.2721 883.462 81.8481 881.073 81.8481C879.494 81.8481 877.851 81.6774 876.145 81.3361L874.929 74.1041C876.465 74.4881 877.766 74.6801 878.833 74.6801C879.686 74.6801 880.262 74.4027 880.561 73.8481C880.902 73.2934 881.073 72.3974 881.073 71.1601V62.1361C878.171 64.6961 876.443 66.2534 875.889 66.8081L872.945 61.3681L872.881 74.2961C872.923 77.0694 872.539 79.0107 871.729 80.1201C870.918 81.2721 869.382 81.8481 867.121 81.8481C865.457 81.8481 863.729 81.6774 861.937 81.3361L860.849 74.1041C862.47 74.4881 863.771 74.6801 864.753 74.6801C865.691 74.6801 866.331 74.3814 866.673 73.7841C867.014 73.1867 867.185 72.2054 867.185 70.8401V61.8801C864.027 64.6107 862.15 66.2747 861.553 66.8721L858.673 61.1121V81.0801H832.497V57.0801L832.049 57.3361L829.041 51.7681C833.222 49.5921 836.486 47.3094 838.833 44.9201H830.641V39.3521H835.633C834.993 38.2001 833.926 36.4507 832.433 34.1041L836.849 31.6081L832.241 31.9281L831.665 26.2321C843.782 25.5921 852.422 24.7814 857.585 23.8001L858.289 29.4961C854.833 30.0081 851.633 30.3921 848.689 30.6481V39.3521H853.873L849.841 37.3681C851.334 35.1494 852.571 32.9094 853.553 30.6481L858.673 32.8881L855.345 39.3521H859.121V44.9201H851.697C856.518 47.7787 859.59 49.6561 860.913 50.5521L858.417 54.9681H858.673V59.7041C861.19 57.8267 864.027 55.5867 867.185 52.9841V50.4881L863.409 51.8321C862.769 49.6134 861.979 47.0961 861.041 44.2801C860.145 41.4214 859.419 39.2454 858.865 37.7521L863.537 35.9601L867.185 47.2881V33.0801H860.145V25.5921H873.009V37.3041L876.913 35.7041C878.235 39.3734 879.622 43.4481 881.073 47.9281V33.0801H874.865V25.5921ZM837.617 31.6081C838.171 32.6321 838.854 33.7627 839.665 35.0001L841.073 37.2401L837.041 39.3521H842.161V31.2241L837.617 31.6081ZM872.945 59.8961L881.073 53.3041V50.4241L877.169 51.8321C876.23 48.6321 874.822 44.3867 872.945 39.0961V59.8961ZM842.161 48.5681C840.241 50.9574 838.022 53.0907 835.505 54.9681H857.137C855.131 53.4747 852.315 51.4907 848.689 49.0161V53.8161H842.161V48.5681ZM838.193 65.2081H842.737V60.4081H838.193V65.2081ZM848.561 65.2081H852.977V60.4081H848.561V65.2081ZM842.737 70.5841H838.193V75.5761H842.737V70.5841ZM848.561 70.5841V75.5761H852.977V70.5841H848.561Z" fill="url(#paint2_linear_24_3472)" fill-opacity="0.7"/>
<path d="M775.345 80.0561L773.553 70.8401C780.507 70.2427 786.502 68.8134 791.537 66.5521C796.614 64.2481 800.945 61.0481 804.529 56.9521C808.155 52.8134 811.249 47.6294 813.809 41.4001L822.193 45.6241C819.59 52.3654 816.134 58.2107 811.825 63.1601C807.558 68.1094 802.374 72.0561 796.273 75.0001C790.171 77.9014 783.195 79.5867 775.345 80.0561ZM792.561 51.0001L789.873 59.8961C787.185 58.7867 783.899 57.6561 780.017 56.5041C776.134 55.3521 772.699 54.4774 769.713 53.8801L772.081 44.9201C774.939 45.4747 778.395 46.3494 782.449 47.5441C786.502 48.7387 789.873 49.8907 792.561 51.0001ZM798.961 36.4081L794.737 44.6641C792.305 43.2134 789.169 41.6134 785.329 39.8641C781.489 38.0721 778.182 36.6854 775.409 35.7041L779.249 27.3201C782.065 28.2587 785.435 29.6454 789.361 31.4801C793.286 33.2721 796.486 34.9147 798.961 36.4081ZM816.881 37.1121L810.481 37.7521C810.182 35.7894 809.755 33.7414 809.201 31.6081C808.689 29.4747 808.134 27.7254 807.537 26.3601L813.745 25.7201C814.427 27.1281 815.025 28.8774 815.537 30.9681C816.049 33.0161 816.497 35.0641 816.881 37.1121ZM826.033 36.0881L819.633 36.6641C819.334 34.7441 818.929 32.7174 818.417 30.5841C817.905 28.4081 817.35 26.6587 816.753 25.3361L822.961 24.6961C823.643 26.0614 824.262 27.8534 824.817 30.0721C825.371 32.2481 825.777 34.2534 826.033 36.0881Z" fill="url(#paint3_linear_24_3472)" fill-opacity="0.7"/>
<path d="M758.321 49.0161V58.2961H704.561V49.0161H758.321Z" fill="url(#paint4_linear_24_3472)" fill-opacity="0.7"/>
<path d="M690.225 74.0401L665.649 51.7041C665.563 51.6614 665.478 51.5974 665.393 51.5121C665.307 51.3841 665.243 51.2987 665.201 51.2561C664.091 50.2321 663.238 49.5281 662.641 49.1441C662.043 48.7601 661.489 48.5681 660.977 48.5681C660.337 48.5681 659.718 48.8241 659.121 49.3361C658.523 49.8481 657.819 50.6801 657.009 51.8321L646.193 67.1921L638.449 60.4081L651.953 43.5121C653.574 41.4641 655.025 40.0134 656.305 39.1601C657.627 38.2641 658.993 37.8161 660.401 37.8161C661.681 37.8161 662.961 38.2001 664.241 38.9681C665.521 39.6934 667.398 41.1227 669.873 43.2561L696.177 66.1041L690.225 74.0401ZM684.017 45.2401C681.798 45.2401 679.942 44.5147 678.449 43.0641C676.998 41.6134 676.273 39.8214 676.273 37.6881C676.273 35.5547 676.998 33.7627 678.449 32.3121C679.942 30.8614 681.798 30.1361 684.017 30.1361C686.235 30.1361 688.07 30.8614 689.521 32.3121C690.971 33.7627 691.718 35.5547 691.761 37.6881C691.761 39.8214 691.014 41.6134 689.521 43.0641C688.07 44.5147 686.235 45.2401 684.017 45.2401ZM684.017 40.9521C684.913 40.9521 685.659 40.6534 686.257 40.0561C686.854 39.4161 687.153 38.6267 687.153 37.6881C687.153 36.7921 686.854 36.0454 686.257 35.4481C685.659 34.8507 684.913 34.5521 684.017 34.5521C683.121 34.5521 682.374 34.8507 681.777 35.4481C681.179 36.0454 680.881 36.7921 680.881 37.6881C680.881 38.6267 681.179 39.4161 681.777 40.0561C682.374 40.6534 683.121 40.9521 684.017 40.9521Z" fill="url(#paint5_linear_24_3472)" fill-opacity="0.7"/>
<path d="M585.329 80.0561L582.257 70.9041C589.382 69.3681 595.014 67.3627 599.153 64.8881C603.334 62.4134 606.363 59.2561 608.241 55.4161C610.161 51.5334 611.163 46.6267 611.249 40.6961H575.217V31.4161H621.169V38.3281C621.126 46.0507 619.803 52.7281 617.201 58.3601C614.641 63.9921 610.715 68.6214 605.425 72.2481C600.177 75.8321 593.478 78.4347 585.329 80.0561ZM627.121 34.6161L620.977 36.6001C620.379 34.7654 619.633 32.8241 618.737 30.7761C617.841 28.7281 616.987 27.0641 616.177 25.7841L622.129 23.8001C622.982 25.0801 623.857 26.7227 624.753 28.7281C625.691 30.7334 626.481 32.6961 627.121 34.6161ZM635.953 31.6721L629.809 33.5921C629.169 31.6721 628.401 29.7094 627.505 27.7041C626.609 25.6561 625.755 24.0347 624.945 22.8401L630.961 20.8561C631.857 22.1361 632.774 23.8214 633.713 25.9121C634.694 28.0027 635.441 29.9227 635.953 31.6721Z" fill="url(#paint6_linear_24_3472)" fill-opacity="0.7"/>
<path d="M543.601 49.4641V68.8561H561.009V77.1761H517.809V68.8561H534.897V49.4641H521.457V41.2081H557.233V49.4641H543.601Z" fill="url(#paint7_linear_24_3472)" fill-opacity="0.7"/>
<path d="M470.065 80.5041L467.825 71.6081C473.115 70.8401 477.403 69.4321 480.689 67.3841C484.017 65.2934 486.406 62.7334 487.857 59.7041C489.307 56.6321 490.033 53.1121 490.033 49.1441V45.1121H461.297V57.2081H451.889V36.2161H470.769V26.1041H480.497V36.2161H499.441V49.0801C499.441 54.8401 498.246 60.0027 495.857 64.5681C493.467 69.0907 490.054 72.7387 485.617 75.5121C481.179 78.2854 475.995 79.9494 470.065 80.5041Z" fill="url(#paint8_linear_24_3472)" fill-opacity="0.7"/>
</g>
</g>
<path d="M344 70H1056V105C1056 111.627 1050.63 117 1044 117H356C349.373 117 344 111.627 344 105V70Z" fill="url(#paint9_linear_24_3472)"/>
<path d="M917.407 18.904V25.368H895.519V18.904H903.391C902.581 16.1306 901.877 13.912 901.279 12.248L908.063 10.52C909.301 14.1466 910.175 16.9413 910.687 18.904H917.407ZM938.271 40.152C939.21 45.272 941.002 49.9226 943.647 54.104C946.293 58.2426 949.77 61.6133 954.079 64.216L950.047 70.808C944.714 67.0533 940.511 62.7013 937.439 57.752C934.41 52.76 932.191 46.8933 930.783 40.152H927.583C927.455 45.0586 927.093 49.1973 926.495 52.568C925.941 55.9386 925.023 59.0533 923.743 61.912C922.506 64.728 920.735 67.7146 918.431 70.872L912.095 66.52C912.266 66.264 912.415 66.072 912.543 65.944H896.799V45.912H915.743V61.08C917.663 57.7093 918.943 54.2106 919.583 50.584C920.266 46.9573 920.607 41.88 920.607 35.352V14.04H951.519V40.152H938.271ZM944.287 33.048V21.208H927.647V33.048H944.287ZM897.695 28.056H915.167V34.2H897.695V28.056ZM915.167 43.096H897.695V36.888H915.167V43.096ZM903.391 59.48H909.151V52.312H903.391V59.48Z" fill="url(#paint10_linear_24_3472)"/>
<path d="M875.423 13.592H887.839V62.232C887.839 65.0053 887.391 66.968 886.495 68.12C885.642 69.272 884.021 69.848 881.631 69.848C880.053 69.848 878.41 69.6773 876.703 69.336L875.487 62.104C877.023 62.488 878.325 62.68 879.391 62.68C880.245 62.68 880.821 62.4026 881.119 61.848C881.461 61.2933 881.631 60.3973 881.631 59.16V50.136C878.73 52.696 877.002 54.2533 876.447 54.808L873.503 49.368L873.439 62.296C873.482 65.0693 873.098 67.0106 872.287 68.12C871.477 69.272 869.941 69.848 867.679 69.848C866.015 69.848 864.287 69.6773 862.495 69.336L861.407 62.104C863.029 62.488 864.33 62.68 865.311 62.68C866.25 62.68 866.89 62.3813 867.231 61.784C867.573 61.1866 867.743 60.2053 867.743 58.84V49.88C864.586 52.6106 862.709 54.2746 862.111 54.872L859.231 49.112V69.08H833.055V45.08L832.607 45.336L829.599 39.768C833.781 37.592 837.045 35.3093 839.391 32.92H831.199V27.352H836.191C835.551 26.2 834.485 24.4506 832.991 22.104L837.407 19.608L832.799 19.928L832.223 14.232C844.341 13.592 852.981 12.7813 858.143 11.8L858.847 17.496C855.391 18.008 852.191 18.392 849.247 18.648V27.352H854.431L850.399 25.368C851.893 23.1493 853.13 20.9093 854.111 18.648L859.231 20.888L855.903 27.352H859.679V32.92H852.255C857.077 35.7786 860.149 37.656 861.471 38.552L858.975 42.968H859.231V47.704C861.749 45.8266 864.586 43.5866 867.743 40.984V38.488L863.967 39.832C863.327 37.6133 862.538 35.096 861.599 32.28C860.703 29.4213 859.978 27.2453 859.423 25.752L864.095 23.96L867.743 35.288V21.08H860.703V13.592H873.567V25.304L877.471 23.704C878.794 27.3733 880.181 31.448 881.631 35.928V21.08H875.423V13.592ZM838.175 19.608C838.73 20.632 839.413 21.7626 840.223 23L841.631 25.24L837.599 27.352H842.719V19.224L838.175 19.608ZM873.503 47.896L881.631 41.304V38.424L877.727 39.832C876.789 36.632 875.381 32.3866 873.503 27.096V47.896ZM842.719 36.568C840.799 38.9573 838.581 41.0906 836.063 42.968H857.695C855.69 41.4746 852.874 39.4906 849.247 37.016V41.816H842.719V36.568ZM838.751 53.208H843.295V48.408H838.751V53.208ZM849.119 53.208H853.535V48.408H849.119V53.208ZM843.295 58.584H838.751V63.576H843.295V58.584ZM849.119 58.584V63.576H853.535V58.584H849.119Z" fill="url(#paint11_linear_24_3472)"/>
<path d="M775.903 68.056L774.111 58.84C781.066 58.2426 787.061 56.8133 792.095 54.552C797.173 52.248 801.503 49.048 805.087 44.952C808.714 40.8133 811.807 35.6293 814.367 29.4L822.751 33.624C820.149 40.3653 816.693 46.2106 812.383 51.16C808.117 56.1093 802.933 60.056 796.831 63C790.73 65.9013 783.754 67.5866 775.903 68.056ZM793.119 39L790.431 47.896C787.743 46.7866 784.458 45.656 780.575 44.504C776.693 43.352 773.258 42.4773 770.271 41.88L772.639 32.92C775.498 33.4746 778.954 34.3493 783.007 35.544C787.061 36.7386 790.431 37.8906 793.119 39ZM799.519 24.408L795.295 32.664C792.863 31.2133 789.727 29.6133 785.887 27.864C782.047 26.072 778.741 24.6853 775.967 23.704L779.807 15.32C782.623 16.2586 785.994 17.6453 789.919 19.48C793.845 21.272 797.045 22.9146 799.519 24.408ZM817.439 25.112L811.039 25.752C810.741 23.7893 810.314 21.7413 809.759 19.608C809.247 17.4746 808.693 15.7253 808.095 14.36L814.303 13.72C814.986 15.128 815.583 16.8773 816.095 18.968C816.607 21.016 817.055 23.064 817.439 25.112ZM826.591 24.088L820.191 24.664C819.893 22.744 819.487 20.7173 818.975 18.584C818.463 16.408 817.909 14.6586 817.311 13.336L823.519 12.696C824.202 14.0613 824.821 15.8533 825.375 18.072C825.93 20.248 826.335 22.2533 826.591 24.088Z" fill="url(#paint12_linear_24_3472)"/>
<path d="M758.879 37.016V46.296H705.119V37.016H758.879Z" fill="url(#paint13_linear_24_3472)"/>
<path d="M690.783 62.04L666.207 39.704C666.122 39.6613 666.037 39.5973 665.951 39.512C665.866 39.384 665.802 39.2986 665.759 39.256C664.65 38.232 663.797 37.528 663.199 37.144C662.602 36.76 662.047 36.568 661.535 36.568C660.895 36.568 660.277 36.824 659.679 37.336C659.082 37.848 658.378 38.68 657.567 39.832L646.751 55.192L639.007 48.408L652.511 31.512C654.133 29.464 655.583 28.0133 656.863 27.16C658.186 26.264 659.551 25.816 660.959 25.816C662.239 25.816 663.519 26.2 664.799 26.968C666.079 27.6933 667.957 29.1226 670.431 31.256L696.735 54.104L690.783 62.04ZM684.575 33.24C682.357 33.24 680.501 32.5146 679.007 31.064C677.557 29.6133 676.831 27.8213 676.831 25.688C676.831 23.5546 677.557 21.7626 679.007 20.312C680.501 18.8613 682.357 18.136 684.575 18.136C686.794 18.136 688.629 18.8613 690.079 20.312C691.53 21.7626 692.277 23.5546 692.319 25.688C692.319 27.8213 691.573 29.6133 690.079 31.064C688.629 32.5146 686.794 33.24 684.575 33.24ZM684.575 28.952C685.471 28.952 686.218 28.6533 686.815 28.056C687.413 27.416 687.711 26.6266 687.711 25.688C687.711 24.792 687.413 24.0453 686.815 23.448C686.218 22.8506 685.471 22.552 684.575 22.552C683.679 22.552 682.933 22.8506 682.335 23.448C681.738 24.0453 681.439 24.792 681.439 25.688C681.439 26.6266 681.738 27.416 682.335 28.056C682.933 28.6533 683.679 28.952 684.575 28.952Z" fill="url(#paint14_linear_24_3472)"/>
<path d="M585.887 68.056L582.815 58.904C589.941 57.368 595.573 55.3626 599.711 52.888C603.893 50.4133 606.922 47.256 608.799 43.416C610.719 39.5333 611.722 34.6266 611.807 28.696H575.775V19.416H621.727V26.328C621.685 34.0506 620.362 40.728 617.759 46.36C615.199 51.992 611.274 56.6213 605.983 60.248C600.735 63.832 594.037 66.4346 585.887 68.056ZM627.679 22.616L621.535 24.6C620.938 22.7653 620.191 20.824 619.295 18.776C618.399 16.728 617.546 15.064 616.735 13.784L622.687 11.8C623.541 13.08 624.415 14.7226 625.311 16.728C626.25 18.7333 627.039 20.696 627.679 22.616ZM636.511 19.672L630.367 21.592C629.727 19.672 628.959 17.7093 628.063 15.704C627.167 13.656 626.314 12.0346 625.503 10.84L631.519 8.85596C632.415 10.136 633.333 11.8213 634.271 13.912C635.253 16.0026 635.999 17.9226 636.511 19.672Z" fill="url(#paint15_linear_24_3472)"/>
<path d="M544.159 37.464V56.856H561.567V65.176H518.367V56.856H535.455V37.464H522.015V29.208H557.791V37.464H544.159Z" fill="url(#paint16_linear_24_3472)"/>
<path d="M470.623 68.504L468.383 59.608C473.674 58.84 477.962 57.432 481.247 55.384C484.575 53.2933 486.965 50.7333 488.415 47.704C489.866 44.632 490.591 41.112 490.591 37.144V33.112H461.855V45.208H452.447V24.216H471.327V14.104H481.055V24.216H499.999V37.08C499.999 42.84 498.805 48.0026 496.415 52.568C494.026 57.0906 490.613 60.7386 486.175 63.512C481.738 66.2853 476.554 67.9493 470.623 68.504Z" fill="url(#paint17_linear_24_3472)"/>
<defs>
<filter id="filter0_f_24_3472" x="431.889" y="0.856079" width="541.632" height="102.016" filterUnits="userSpaceOnUse" color-interpolation-filters="sRGB">
<feFlood flood-opacity="0" result="BackgroundImageFix"/>
<feBlend mode="normal" in="SourceGraphic" in2="BackgroundImageFix" result="shape"/>
<feGaussianBlur stdDeviation="10" result="effect1_foregroundBlur_24_3472"/>
</filter>
<linearGradient id="paint0_linear_24_3472" x1="344" y1="62.0036" x2="1056" y2="62.003" gradientUnits="userSpaceOnUse">
<stop stop-color="white" stop-opacity="0.3"/>
<stop offset="0.495" stop-color="#CBB0F8"/>
<stop offset="1" stop-color="white" stop-opacity="0.3"/>
</linearGradient>
<linearGradient id="paint1_linear_24_3472" x1="969.968" y1="53.204" x2="-3415.88" y2="53.208" gradientUnits="userSpaceOnUse">
<stop stop-color="#F4439F"/>
<stop offset="1" stop-color="#7C3AED"/>
</linearGradient>
<linearGradient id="paint2_linear_24_3472" x1="1540.6" y1="53.1205" x2="-2869.36" y2="53.1243" gradientUnits="userSpaceOnUse">
<stop stop-color="#F4439F"/>
<stop offset="1" stop-color="#7C3AED"/>
</linearGradient>
<linearGradient id="paint3_linear_24_3472" x1="2106.13" y1="53.6834" x2="-2454.16" y2="53.6873" gradientUnits="userSpaceOnUse">
<stop stop-color="#F4439F"/>
<stop offset="1" stop-color="#7C3AED"/>
</linearGradient>
<linearGradient id="paint4_linear_24_3472" x1="2792.84" y1="54.1631" x2="-1984.61" y2="54.1638" gradientUnits="userSpaceOnUse">
<stop stop-color="#F4439F"/>
<stop offset="1" stop-color="#7C3AED"/>
</linearGradient>
<linearGradient id="paint5_linear_24_3472" x1="3206.42" y1="54.5649" x2="-1242.65" y2="54.5678" gradientUnits="userSpaceOnUse">
<stop stop-color="#F4439F"/>
<stop offset="1" stop-color="#7C3AED"/>
</linearGradient>
<linearGradient id="paint6_linear_24_3472" x1="3592.24" y1="55.5767" x2="-636.478" y2="55.5803" gradientUnits="userSpaceOnUse">
<stop stop-color="#F4439F"/>
<stop offset="1" stop-color="#7C3AED"/>
</linearGradient>
<linearGradient id="paint7_linear_24_3472" x1="5533.61" y1="42.9121" x2="-411.661" y2="42.9164" gradientUnits="userSpaceOnUse">
<stop stop-color="#F4439F"/>
<stop offset="1" stop-color="#7C3AED"/>
</linearGradient>
<linearGradient id="paint8_linear_24_3472" x1="955.441" y1="54.0002" x2="443.441" y2="54.0002" gradientUnits="userSpaceOnUse">
<stop stop-color="#F4439F"/>
<stop offset="1" stop-color="#7C3AED"/>
</linearGradient>
<linearGradient id="paint9_linear_24_3472" x1="700" y1="70" x2="700" y2="117" gradientUnits="userSpaceOnUse">
<stop offset="0.0001" stop-color="white" stop-opacity="0.1"/>
<stop offset="1" stop-color="white" stop-opacity="0"/>
</linearGradient>
<linearGradient id="paint10_linear_24_3472" x1="970.526" y1="1.12861" x2="686.143" y2="1112.39" gradientUnits="userSpaceOnUse">
<stop stop-color="#F4439F"/>
<stop offset="1" stop-color="#7C3AED"/>
</linearGradient>
<linearGradient id="paint11_linear_24_3472" x1="1541.15" y1="-0.545603" x2="1236.72" y2="1149.93" gradientUnits="userSpaceOnUse">
<stop stop-color="#F4439F"/>
<stop offset="1" stop-color="#7C3AED"/>
</linearGradient>
<linearGradient id="paint12_linear_24_3472" x1="2106.69" y1="-2.00583" x2="1783.61" y2="1202.11" gradientUnits="userSpaceOnUse">
<stop stop-color="#F4439F"/>
<stop offset="1" stop-color="#7C3AED"/>
</linearGradient>
<linearGradient id="paint13_linear_24_3472" x1="2793.4" y1="-218.465" x2="-735.008" y2="2090.88" gradientUnits="userSpaceOnUse">
<stop stop-color="#F4439F"/>
<stop offset="1" stop-color="#7C3AED"/>
</linearGradient>
<linearGradient id="paint14_linear_24_3472" x1="3206.97" y1="-12.5242" x2="2703.13" y2="1440.37" gradientUnits="userSpaceOnUse">
<stop stop-color="#F4439F"/>
<stop offset="1" stop-color="#7C3AED"/>
</linearGradient>
<linearGradient id="paint15_linear_24_3472" x1="3592.8" y1="2.7214" x2="3288.47" y2="1127.45" gradientUnits="userSpaceOnUse">
<stop stop-color="#F4439F"/>
<stop offset="1" stop-color="#7C3AED"/>
</linearGradient>
<linearGradient id="paint16_linear_24_3472" x1="5534.17" y1="-36.3319" x2="4962.22" y2="1769.23" gradientUnits="userSpaceOnUse">
<stop stop-color="#F4439F"/>
<stop offset="1" stop-color="#7C3AED"/>
</linearGradient>
<linearGradient id="paint17_linear_24_3472" x1="955.999" y1="3" x2="513.175" y2="210.574" gradientUnits="userSpaceOnUse">
<stop stop-color="#F4439F"/>
<stop offset="1" stop-color="#7C3AED"/>
</linearGradient>
</defs>
</svg>
