<svg width="1400" height="120" viewBox="0 0 1400 120" fill="none" xmlns="http://www.w3.org/2000/svg">
<path d="M416 65H984V81H416V65Z" fill="url(#paint0_linear_112_4214)"/>
<mask id="mask0_112_4214" style="mask-type:alpha" maskUnits="userSpaceOnUse" x="416" y="81" width="568" height="38">
<path d="M416 81H984V119H416V81Z" fill="#C4C4C4"/>
</mask>
<g mask="url(#mask0_112_4214)">
<g filter="url(#filter0_f_112_4214)">
<path d="M853.24 41.3682H870.776V48.1522H853.24V41.3682ZM853.24 54.2322H870.776V61.0162H853.24V54.2322ZM836.216 71.1922H876.664V92.6962H868.088V77.9122H836.216V71.1922ZM868.088 33.4322H876.664V68.5042H868.088V33.4322ZM843.448 36.4402C846.392 36.4402 849.037 37.0802 851.384 38.3602C853.731 39.5975 855.587 41.3255 856.952 43.5442C858.36 45.7629 859.064 48.3015 859.064 51.1602C859.064 53.9762 858.36 56.5149 856.952 58.7762C855.587 60.9949 853.731 62.7442 851.384 64.0242C849.037 65.2615 846.392 65.8802 843.448 65.8802C840.504 65.8802 837.837 65.2615 835.448 64.0242C833.101 62.7442 831.224 60.9949 829.816 58.7762C828.451 56.5149 827.768 53.9762 827.768 51.1602C827.768 48.3015 828.451 45.7629 829.816 43.5442C831.224 41.3255 833.101 39.5975 835.448 38.3602C837.837 37.0802 840.504 36.4402 843.448 36.4402ZM843.384 43.7362C841.976 43.7362 840.696 44.0349 839.544 44.6322C838.392 45.1869 837.475 46.0189 836.792 47.1282C836.152 48.2375 835.832 49.5815 835.832 51.1602C835.832 52.6962 836.152 54.0402 836.792 55.1922C837.475 56.3015 838.392 57.1549 839.544 57.7522C840.696 58.3495 841.976 58.6482 843.384 58.6482C844.835 58.6482 846.115 58.3495 847.224 57.7522C848.376 57.1549 849.272 56.3015 849.912 55.1922C850.595 54.0402 850.936 52.6962 850.936 51.1602C850.936 49.5815 850.595 48.2375 849.912 47.1282C849.272 46.0189 848.376 45.1869 847.224 44.6322C846.115 44.0349 844.835 43.7362 843.384 43.7362Z" fill="url(#paint1_linear_112_4214)" fill-opacity="0.7"/>
<path d="M796.157 49.1122H811.389V55.9602H796.157V49.1122ZM809.213 33.4322H817.789V77.1442H809.213V33.4322ZM778.557 84.8242H819.069V91.6722H778.557V84.8242ZM778.557 72.8562H787.069V88.7282H778.557V72.8562ZM770.621 37.3362H779.069V46.2962H790.333V37.3362H798.717V67.9282H770.621V37.3362ZM779.069 52.8242V61.1442H790.333V52.8242H779.069Z" fill="url(#paint2_linear_112_4214)" fill-opacity="0.7"/>
<path d="M709.086 42.7762H715.87V49.4322C715.87 52.8455 715.507 56.1949 714.782 59.4802C714.099 62.7655 713.054 65.8589 711.646 68.7602C710.281 71.6189 708.553 74.1575 706.462 76.3762C704.371 78.5522 701.939 80.2802 699.166 81.5602L694.302 74.8402C696.777 73.6882 698.931 72.1949 700.766 70.3602C702.643 68.5255 704.179 66.4775 705.374 64.2162C706.611 61.9122 707.529 59.5015 708.126 56.9842C708.766 54.4242 709.086 51.9069 709.086 49.4322V42.7762ZM710.942 42.7762H717.662V49.4322C717.662 51.7789 717.961 54.1682 718.558 56.6002C719.198 58.9895 720.115 61.2722 721.31 63.4482C722.505 65.5815 724.019 67.5015 725.854 69.2082C727.689 70.9149 729.865 72.2802 732.382 73.3042L727.71 80.0882C724.894 78.8509 722.441 77.1869 720.35 75.0962C718.259 73.0055 716.51 70.5949 715.102 67.8642C713.694 65.1335 712.649 62.2109 711.966 59.0962C711.283 55.9389 710.942 52.7175 710.942 49.4322V42.7762ZM696.67 39.0642H729.95V46.1042H696.67V39.0642ZM735.454 33.4322H743.966V92.6962H735.454V33.4322Z" fill="url(#paint3_linear_112_4214)" fill-opacity="0.7"/>
<path d="M676.579 33.3042H685.091V92.7602H676.579V33.3042ZM653.155 37.4642C656.184 37.4642 658.872 38.3389 661.219 40.0882C663.566 41.7949 665.4 44.2482 666.723 47.4482C668.088 50.6055 668.771 54.3389 668.771 58.6482C668.771 63.0002 668.088 66.7762 666.723 69.9762C665.4 73.1335 663.566 75.5869 661.219 77.3362C658.872 79.0429 656.184 79.8962 653.155 79.8962C650.168 79.8962 647.502 79.0429 645.155 77.3362C642.808 75.5869 640.952 73.1335 639.587 69.9762C638.264 66.7762 637.603 63.0002 637.603 58.6482C637.603 54.3389 638.264 50.6055 639.587 47.4482C640.952 44.2482 642.808 41.7949 645.155 40.0882C647.502 38.3389 650.168 37.4642 653.155 37.4642ZM653.155 45.2082C651.704 45.2082 650.424 45.7202 649.315 46.7442C648.206 47.7682 647.331 49.2829 646.691 51.2882C646.094 53.2509 645.795 55.7042 645.795 58.6482C645.795 61.5495 646.094 64.0242 646.691 66.0722C647.331 68.0775 648.206 69.5922 649.315 70.6162C650.424 71.6402 651.704 72.1522 653.155 72.1522C654.648 72.1522 655.95 71.6402 657.059 70.6162C658.168 69.5922 659.022 68.0775 659.619 66.0722C660.259 64.0242 660.579 61.5495 660.579 58.6482C660.579 55.7042 660.259 53.2509 659.619 51.2882C659.022 49.2829 658.168 47.7682 657.059 46.7442C655.95 45.7202 654.648 45.2082 653.155 45.2082Z" fill="url(#paint4_linear_112_4214)" fill-opacity="0.7"/>
<path d="M620.392 33.4322H628.456V92.6962H620.392V33.4322ZM602.984 55.0002H610.92V62.4242H602.984V55.0002ZM608.616 34.5202H616.552V89.8802H608.616V34.5202ZM577.448 40.0882H604.456V46.8722H577.448V40.0882ZM577.384 79.2562L576.488 72.2802C578.323 72.2802 580.435 72.2802 582.824 72.2802C585.213 72.2375 587.709 72.1735 590.312 72.0882C592.915 71.9602 595.496 71.8109 598.056 71.6402C600.659 71.4269 603.091 71.1709 605.352 70.8722L605.864 77.0162C602.835 77.6989 599.571 78.2109 596.072 78.5522C592.573 78.8509 589.181 79.0429 585.896 79.1282C582.653 79.2135 579.816 79.2562 577.384 79.2562ZM581.096 44.3762H588.776V74.1362H581.096V44.3762ZM593.064 44.3762H600.68V74.1362H593.064V44.3762Z" fill="url(#paint5_linear_112_4214)" fill-opacity="0.7"/>
<path d="M561.389 33.4322H569.453V69.8482H561.389V33.4322ZM550.061 34.4562H557.997V69.7202H550.061V34.4562ZM541.357 62.3602H553.261V67.9282H541.357V62.3602ZM529.389 58.2002H537.517V69.5282H529.389V58.2002ZM518.573 61.6562L517.805 55.3202C519.725 55.3202 521.901 55.3202 524.333 55.3202C526.808 55.2775 529.389 55.2135 532.077 55.1282C534.765 55.0002 537.432 54.8295 540.077 54.6162C542.765 54.4029 545.304 54.1042 547.693 53.7202L548.269 59.3522C545.026 60.0775 541.592 60.6109 537.965 60.9522C534.381 61.2509 530.882 61.4429 527.469 61.5282C524.098 61.6135 521.133 61.6562 518.573 61.6562ZM527.277 71.7682H535.725V75.6722H561.069V71.7682H569.453V92.0562H527.277V71.7682ZM535.725 81.9442V85.4642H561.069V81.9442H535.725ZM533.165 35.3522C537.048 35.3522 540.184 36.1629 542.573 37.7842C544.962 39.4055 546.157 41.5602 546.157 44.2482C546.157 46.9362 544.962 49.0909 542.573 50.7122C540.184 52.3335 537.048 53.1442 533.165 53.1442C529.325 53.1442 526.21 52.3335 523.821 50.7122C521.432 49.0909 520.237 46.9362 520.237 44.2482C520.237 41.5602 521.432 39.4055 523.821 37.7842C526.21 36.1629 529.325 35.3522 533.165 35.3522ZM533.165 41.1762C531.544 41.1762 530.242 41.4322 529.261 41.9442C528.28 42.4562 527.789 43.2242 527.789 44.2482C527.789 45.2722 528.28 46.0402 529.261 46.5522C530.242 47.0642 531.544 47.3202 533.165 47.3202C534.786 47.3202 536.088 47.0642 537.069 46.5522C538.05 46.0402 538.541 45.2722 538.541 44.2482C538.541 43.2242 538.05 42.4562 537.069 41.9442C536.088 41.4322 534.786 41.1762 533.165 41.1762Z" fill="url(#paint6_linear_112_4214)" fill-opacity="0.7"/>
</g>
</g>
<path d="M416 81H984V107C984 113.627 978.627 119 972 119H428C421.373 119 416 113.627 416 107V81Z" fill="url(#paint7_linear_112_4214)"/>
<path d="M853.8 29.3682H871.336V36.1522H853.8V29.3682ZM853.8 42.2322H871.336V49.0162H853.8V42.2322ZM836.776 59.1922H877.224V80.6962H868.648V65.9122H836.776V59.1922ZM868.648 21.4322H877.224V56.5042H868.648V21.4322ZM844.008 24.4402C846.952 24.4402 849.597 25.0802 851.944 26.3602C854.291 27.5975 856.147 29.3255 857.512 31.5442C858.92 33.7629 859.624 36.3015 859.624 39.1602C859.624 41.9762 858.92 44.5149 857.512 46.7762C856.147 48.9949 854.291 50.7442 851.944 52.0242C849.597 53.2615 846.952 53.8802 844.008 53.8802C841.064 53.8802 838.397 53.2615 836.008 52.0242C833.661 50.7442 831.784 48.9949 830.376 46.7762C829.011 44.5149 828.328 41.9762 828.328 39.1602C828.328 36.3015 829.011 33.7629 830.376 31.5442C831.784 29.3255 833.661 27.5975 836.008 26.3602C838.397 25.0802 841.064 24.4402 844.008 24.4402ZM843.944 31.7362C842.536 31.7362 841.256 32.0349 840.104 32.6322C838.952 33.1869 838.035 34.0189 837.352 35.1282C836.712 36.2375 836.392 37.5815 836.392 39.1602C836.392 40.6962 836.712 42.0402 837.352 43.1922C838.035 44.3015 838.952 45.1549 840.104 45.7522C841.256 46.3495 842.536 46.6482 843.944 46.6482C845.395 46.6482 846.675 46.3495 847.784 45.7522C848.936 45.1549 849.832 44.3015 850.472 43.1922C851.155 42.0402 851.496 40.6962 851.496 39.1602C851.496 37.5815 851.155 36.2375 850.472 35.1282C849.832 34.0189 848.936 33.1869 847.784 32.6322C846.675 32.0349 845.395 31.7362 843.944 31.7362Z" fill="url(#paint8_linear_112_4214)"/>
<path d="M796.717 37.1122H811.949V43.9602H796.717V37.1122ZM809.773 21.4322H818.349V65.1442H809.773V21.4322ZM779.117 72.8242H819.629V79.6722H779.117V72.8242ZM779.117 60.8562H787.629V76.7282H779.117V60.8562ZM771.181 25.3362H779.629V34.2962H790.893V25.3362H799.277V55.9282H771.181V25.3362ZM779.629 40.8242V49.1442H790.893V40.8242H779.629Z" fill="url(#paint9_linear_112_4214)"/>
<path d="M709.646 30.7762H716.43V37.4322C716.43 40.8455 716.067 44.1949 715.342 47.4802C714.659 50.7655 713.614 53.8589 712.206 56.7602C710.841 59.6189 709.113 62.1575 707.022 64.3762C704.931 66.5522 702.499 68.2802 699.726 69.5602L694.862 62.8402C697.337 61.6882 699.491 60.1949 701.326 58.3602C703.203 56.5255 704.739 54.4775 705.934 52.2162C707.171 49.9122 708.089 47.5015 708.686 44.9842C709.326 42.4242 709.646 39.9069 709.646 37.4322V30.7762ZM711.502 30.7762H718.222V37.4322C718.222 39.7789 718.521 42.1682 719.118 44.6002C719.758 46.9895 720.675 49.2722 721.87 51.4482C723.065 53.5815 724.579 55.5015 726.414 57.2082C728.249 58.9149 730.425 60.2802 732.942 61.3042L728.27 68.0882C725.454 66.8509 723.001 65.1869 720.91 63.0962C718.819 61.0055 717.07 58.5949 715.662 55.8642C714.254 53.1335 713.209 50.2109 712.526 47.0962C711.843 43.9389 711.502 40.7175 711.502 37.4322V30.7762ZM697.23 27.0642H730.51V34.1042H697.23V27.0642ZM736.014 21.4322H744.526V80.6962H736.014V21.4322Z" fill="url(#paint10_linear_112_4214)"/>
<path d="M677.139 21.3042H685.651V80.7602H677.139V21.3042ZM653.715 25.4642C656.744 25.4642 659.432 26.3389 661.779 28.0882C664.126 29.7949 665.96 32.2482 667.283 35.4482C668.648 38.6055 669.331 42.3389 669.331 46.6482C669.331 51.0002 668.648 54.7762 667.283 57.9762C665.96 61.1335 664.126 63.5869 661.779 65.3362C659.432 67.0429 656.744 67.8962 653.715 67.8962C650.728 67.8962 648.062 67.0429 645.715 65.3362C643.368 63.5869 641.512 61.1335 640.147 57.9762C638.824 54.7762 638.163 51.0002 638.163 46.6482C638.163 42.3389 638.824 38.6055 640.147 35.4482C641.512 32.2482 643.368 29.7949 645.715 28.0882C648.062 26.3389 650.728 25.4642 653.715 25.4642ZM653.715 33.2082C652.264 33.2082 650.984 33.7202 649.875 34.7442C648.766 35.7682 647.891 37.2829 647.251 39.2882C646.654 41.2509 646.355 43.7042 646.355 46.6482C646.355 49.5495 646.654 52.0242 647.251 54.0722C647.891 56.0775 648.766 57.5922 649.875 58.6162C650.984 59.6402 652.264 60.1522 653.715 60.1522C655.208 60.1522 656.51 59.6402 657.619 58.6162C658.728 57.5922 659.582 56.0775 660.179 54.0722C660.819 52.0242 661.139 49.5495 661.139 46.6482C661.139 43.7042 660.819 41.2509 660.179 39.2882C659.582 37.2829 658.728 35.7682 657.619 34.7442C656.51 33.7202 655.208 33.2082 653.715 33.2082Z" fill="url(#paint11_linear_112_4214)"/>
<path d="M620.952 21.4322H629.016V80.6962H620.952V21.4322ZM603.544 43.0002H611.48V50.4242H603.544V43.0002ZM609.176 22.5202H617.112V77.8802H609.176V22.5202ZM578.008 28.0882H605.016V34.8722H578.008V28.0882ZM577.944 67.2562L577.048 60.2802C578.883 60.2802 580.995 60.2802 583.384 60.2802C585.773 60.2375 588.269 60.1735 590.872 60.0882C593.475 59.9602 596.056 59.8109 598.616 59.6402C601.219 59.4269 603.651 59.1709 605.912 58.8722L606.424 65.0162C603.395 65.6989 600.131 66.2109 596.632 66.5522C593.133 66.8509 589.741 67.0429 586.456 67.1282C583.213 67.2135 580.376 67.2562 577.944 67.2562ZM581.656 32.3762H589.336V62.1362H581.656V32.3762ZM593.624 32.3762H601.24V62.1362H593.624V32.3762Z" fill="url(#paint12_linear_112_4214)"/>
<path d="M561.949 21.4322H570.013V57.8482H561.949V21.4322ZM550.621 22.4562H558.557V57.7202H550.621V22.4562ZM541.917 50.3602H553.821V55.9282H541.917V50.3602ZM529.949 46.2002H538.077V57.5282H529.949V46.2002ZM519.133 49.6562L518.365 43.3202C520.285 43.3202 522.461 43.3202 524.893 43.3202C527.368 43.2775 529.949 43.2135 532.637 43.1282C535.325 43.0002 537.992 42.8295 540.637 42.6162C543.325 42.4029 545.864 42.1042 548.253 41.7202L548.829 47.3522C545.586 48.0775 542.152 48.6109 538.525 48.9522C534.941 49.2509 531.442 49.4429 528.029 49.5282C524.658 49.6135 521.693 49.6562 519.133 49.6562ZM527.837 59.7682H536.285V63.6722H561.629V59.7682H570.013V80.0562H527.837V59.7682ZM536.285 69.9442V73.4642H561.629V69.9442H536.285ZM533.725 23.3522C537.608 23.3522 540.744 24.1629 543.133 25.7842C545.522 27.4055 546.717 29.5602 546.717 32.2482C546.717 34.9362 545.522 37.0909 543.133 38.7122C540.744 40.3335 537.608 41.1442 533.725 41.1442C529.885 41.1442 526.77 40.3335 524.381 38.7122C521.992 37.0909 520.797 34.9362 520.797 32.2482C520.797 29.5602 521.992 27.4055 524.381 25.7842C526.77 24.1629 529.885 23.3522 533.725 23.3522ZM533.725 29.1762C532.104 29.1762 530.802 29.4322 529.821 29.9442C528.84 30.4562 528.349 31.2242 528.349 32.2482C528.349 33.2722 528.84 34.0402 529.821 34.5522C530.802 35.0642 532.104 35.3202 533.725 35.3202C535.346 35.3202 536.648 35.0642 537.629 34.5522C538.61 34.0402 539.101 33.2722 539.101 32.2482C539.101 31.2242 538.61 30.4562 537.629 29.9442C536.648 29.4322 535.346 29.1762 533.725 29.1762Z" fill="url(#paint13_linear_112_4214)"/>
<defs>
<filter id="filter0_f_112_4214" x="497.805" y="13.3042" width="398.859" height="99.4561" filterUnits="userSpaceOnUse" color-interpolation-filters="sRGB">
<feFlood flood-opacity="0" result="BackgroundImageFix"/>
<feBlend mode="normal" in="SourceGraphic" in2="BackgroundImageFix" result="shape"/>
<feGaussianBlur stdDeviation="10" result="effect1_foregroundBlur_112_4214"/>
</filter>
<linearGradient id="paint0_linear_112_4214" x1="416" y1="73.0036" x2="984" y2="73.0032" gradientUnits="userSpaceOnUse">
<stop stop-color="white" stop-opacity="0.3"/>
<stop offset="0.495" stop-color="#CBB0F8"/>
<stop offset="1" stop-color="white" stop-opacity="0.3"/>
</linearGradient>
<linearGradient id="paint1_linear_112_4214" x1="926.395" y1="59.4566" x2="-1774.44" y2="59.4579" gradientUnits="userSpaceOnUse">
<stop stop-color="#F4439F"/>
<stop offset="1" stop-color="#7C3AED"/>
</linearGradient>
<linearGradient id="paint2_linear_112_4214" x1="1353.47" y1="59.9165" x2="-1372.35" y2="59.9178" gradientUnits="userSpaceOnUse">
<stop stop-color="#F4439F"/>
<stop offset="1" stop-color="#7C3AED"/>
</linearGradient>
<linearGradient id="paint3_linear_112_4214" x1="1884.47" y1="59.4566" x2="-774.605" y2="59.4579" gradientUnits="userSpaceOnUse">
<stop stop-color="#F4439F"/>
<stop offset="1" stop-color="#7C3AED"/>
</linearGradient>
<linearGradient id="paint4_linear_112_4214" x1="2375.55" y1="59.5002" x2="-405.361" y2="59.5016" gradientUnits="userSpaceOnUse">
<stop stop-color="#F4439F"/>
<stop offset="1" stop-color="#7C3AED"/>
</linearGradient>
<linearGradient id="paint5_linear_112_4214" x1="2637.43" y1="59.4566" x2="96.2451" y2="59.4578" gradientUnits="userSpaceOnUse">
<stop stop-color="#F4439F"/>
<stop offset="1" stop-color="#7C3AED"/>
</linearGradient>
<linearGradient id="paint6_linear_112_4214" x1="883.44" y1="59.5002" x2="515.44" y2="59.5002" gradientUnits="userSpaceOnUse">
<stop stop-color="#F4439F"/>
<stop offset="1" stop-color="#7C3AED"/>
</linearGradient>
<linearGradient id="paint7_linear_112_4214" x1="700" y1="81" x2="700" y2="119" gradientUnits="userSpaceOnUse">
<stop offset="0.0001" stop-color="white" stop-opacity="0.1"/>
<stop offset="1" stop-color="white" stop-opacity="0"/>
</linearGradient>
<linearGradient id="paint8_linear_112_4214" x1="926.955" y1="0.806004" x2="386.638" y2="1117.73" gradientUnits="userSpaceOnUse">
<stop stop-color="#F4439F"/>
<stop offset="1" stop-color="#7C3AED"/>
</linearGradient>
<linearGradient id="paint9_linear_112_4214" x1="1354.03" y1="0.445598" x2="801.406" y2="1133.45" gradientUnits="userSpaceOnUse">
<stop stop-color="#F4439F"/>
<stop offset="1" stop-color="#7C3AED"/>
</linearGradient>
<linearGradient id="paint10_linear_112_4214" x1="1885.03" y1="0.805972" x2="1339.5" y2="1111.07" gradientUnits="userSpaceOnUse">
<stop stop-color="#F4439F"/>
<stop offset="1" stop-color="#7C3AED"/>
</linearGradient>
<linearGradient id="paint11_linear_112_4214" x1="2376.11" y1="1.00021" x2="1848.45" y2="1127.75" gradientUnits="userSpaceOnUse">
<stop stop-color="#F4439F"/>
<stop offset="1" stop-color="#7C3AED"/>
</linearGradient>
<linearGradient id="paint12_linear_112_4214" x1="2637.99" y1="0.805992" x2="2077.5" y2="1090.94" gradientUnits="userSpaceOnUse">
<stop stop-color="#F4439F"/>
<stop offset="1" stop-color="#7C3AED"/>
</linearGradient>
<linearGradient id="paint13_linear_112_4214" x1="884" y1="1.00016" x2="524.491" y2="102.588" gradientUnits="userSpaceOnUse">
<stop stop-color="#F4439F"/>
<stop offset="1" stop-color="#7C3AED"/>
</linearGradient>
</defs>
</svg>
