<svg width="1400" height="120" viewBox="0 0 1400 120" fill="none" xmlns="http://www.w3.org/2000/svg">
<path d="M409 65H992V81H409V65Z" fill="url(#paint0_linear_112_3902)"/>
<mask id="mask0_112_3902" style="mask-type:alpha" maskUnits="userSpaceOnUse" x="409" y="81" width="583" height="38">
<path d="M409 81H992V119H409V81Z" fill="#C4C4C4"/>
</mask>
<g mask="url(#mask0_112_3902)">
<g filter="url(#filter0_f_112_3902)">
<path d="M841.018 36.8247H878.138V43.5447H841.018V36.8247ZM834.874 62.0407H888.506V68.9527H834.874V62.0407ZM857.082 66.9047H865.658V92.6967H857.082V66.9047ZM873.786 36.8247H882.17V42.0727C882.17 44.206 882.127 46.4674 882.042 48.8567C881.999 51.246 881.828 53.87 881.53 56.7287C881.231 59.5447 880.676 62.702 879.866 66.2007L871.546 65.1767C872.655 60.27 873.295 55.982 873.466 52.3127C873.679 48.6007 873.786 45.1874 873.786 42.0727V36.8247Z" fill="url(#paint1_linear_112_3902)" fill-opacity="0.7"/>
<path d="M782.271 59.8007H823.935V66.6487H782.271V59.8007ZM775.999 79.0647H829.695V86.0407H775.999V79.0647ZM798.527 62.9367H806.975V81.3047H798.527V62.9367ZM782.271 37.4647H823.487V44.2487H790.719V62.7447H782.271V37.4647Z" fill="url(#paint2_linear_112_3902)" fill-opacity="0.7"/>
<path d="M728.8 41.3687H746.336V48.1527H728.8V41.3687ZM728.8 54.2327H746.336V61.0167H728.8V54.2327ZM711.776 71.1927H752.224V92.6967H743.648V77.9127H711.776V71.1927ZM743.648 33.4327H752.224V68.5047H743.648V33.4327ZM719.008 36.4407C721.952 36.4407 724.597 37.0807 726.944 38.3607C729.29 39.598 731.146 41.326 732.512 43.5447C733.92 45.7634 734.624 48.302 734.624 51.1607C734.624 53.9767 733.92 56.5154 732.512 58.7767C731.146 60.9954 729.29 62.7447 726.944 64.0247C724.597 65.262 721.952 65.8807 719.008 65.8807C716.064 65.8807 713.397 65.262 711.008 64.0247C708.661 62.7447 706.784 60.9954 705.376 58.7767C704.01 56.5154 703.328 53.9767 703.328 51.1607C703.328 48.302 704.01 45.7634 705.376 43.5447C706.784 41.326 708.661 39.598 711.008 38.3607C713.397 37.0807 716.064 36.4407 719.008 36.4407ZM718.944 43.7367C717.536 43.7367 716.256 44.0354 715.104 44.6327C713.952 45.1874 713.034 46.0194 712.352 47.1287C711.712 48.238 711.392 49.582 711.392 51.1607C711.392 52.6967 711.712 54.0407 712.352 55.1927C713.034 56.302 713.952 57.1554 715.104 57.7527C716.256 58.35 717.536 58.6487 718.944 58.6487C720.394 58.6487 721.674 58.35 722.784 57.7527C723.936 57.1554 724.832 56.302 725.472 55.1927C726.154 54.0407 726.496 52.6967 726.496 51.1607C726.496 49.582 726.154 48.238 725.472 47.1287C724.832 46.0194 723.936 45.1874 722.784 44.6327C721.674 44.0354 720.394 43.7367 718.944 43.7367Z" fill="url(#paint3_linear_112_3902)" fill-opacity="0.7"/>
<path d="M671.717 49.1127H686.949V55.9607H671.717V49.1127ZM684.773 33.4327H693.349V77.1447H684.773V33.4327ZM654.117 84.8247H694.629V91.6727H654.117V84.8247ZM654.117 72.8567H662.629V88.7287H654.117V72.8567ZM646.181 37.3367H654.629V46.2967H665.893V37.3367H674.277V67.9287H646.181V37.3367ZM654.629 52.8247V61.1447H665.893V52.8247H654.629Z" fill="url(#paint4_linear_112_3902)" fill-opacity="0.7"/>
<path d="M608.198 33.3047H616.774V92.5687H608.198V33.3047ZM614.598 56.0247H625.03V63.0007H614.598V56.0247ZM592.646 39.4487H601.03C601.03 45.3794 600.176 50.99 598.47 56.2807C596.806 61.5714 594.032 66.4354 590.15 70.8727C586.31 75.2674 581.104 79.1074 574.534 82.3927L569.734 75.9287C574.939 73.2407 579.227 70.2114 582.598 66.8407C586.011 63.47 588.528 59.6514 590.15 55.3847C591.814 51.0754 592.646 46.2754 592.646 40.9847V39.4487ZM572.998 39.4487H597.062V46.2967H572.998V39.4487Z" fill="url(#paint5_linear_112_3902)" fill-opacity="0.7"/>
<path d="M533.963 71.3207H542.475V92.7607H533.963V71.3207ZM511.499 68.8887H565.131V75.8007H511.499V68.8887ZM533.899 44.0567H541.387V45.4647C541.387 47.4274 541.045 49.3474 540.363 51.2247C539.723 53.0594 538.741 54.7874 537.419 56.4087C536.096 57.9874 534.453 59.438 532.491 60.7607C530.528 62.0407 528.267 63.1287 525.707 64.0247C523.147 64.878 520.309 65.4967 517.195 65.8807L514.187 59.1607C516.875 58.862 519.264 58.3714 521.355 57.6887C523.488 57.006 525.344 56.1954 526.923 55.2567C528.501 54.318 529.803 53.3154 530.827 52.2487C531.893 51.1394 532.661 50.0087 533.131 48.8567C533.643 47.662 533.899 46.5314 533.899 45.4647V44.0567ZM535.051 44.0567H542.475V45.4647C542.475 46.4887 542.731 47.598 543.243 48.7927C543.797 49.9447 544.587 51.0754 545.611 52.1847C546.635 53.2514 547.936 54.2754 549.515 55.2567C551.093 56.1954 552.928 57.006 555.019 57.6887C557.152 58.3714 559.541 58.862 562.187 59.1607L559.243 65.8807C556.085 65.5394 553.227 64.9207 550.667 64.0247C548.149 63.086 545.909 61.9767 543.947 60.6967C541.984 59.4167 540.341 57.966 539.019 56.3447C537.696 54.6807 536.693 52.9314 536.011 51.0967C535.371 49.262 535.051 47.3847 535.051 45.4647V44.0567ZM516.299 40.1527H560.203V46.8727H516.299V40.1527ZM533.963 33.5607H542.475V42.4567H533.963V33.5607Z" fill="url(#paint6_linear_112_3902)" fill-opacity="0.7"/>
</g>
</g>
<path d="M409 81H992V107C992 113.627 986.627 119 980 119H421C414.373 119 409 113.627 409 107V81Z" fill="url(#paint7_linear_112_3902)"/>
<path d="M841.518 24.8247H878.638V31.5447H841.518V24.8247ZM835.374 50.0407H889.006V56.9527H835.374V50.0407ZM857.582 54.9047H866.158V80.6967H857.582V54.9047ZM874.286 24.8247H882.67V30.0727C882.67 32.206 882.627 34.4674 882.542 36.8567C882.499 39.246 882.329 41.87 882.03 44.7287C881.731 47.5447 881.177 50.702 880.366 54.2007L872.046 53.1767C873.155 48.27 873.795 43.982 873.966 40.3127C874.179 36.6007 874.286 33.1874 874.286 30.0727V24.8247Z" fill="url(#paint8_linear_112_3902)"/>
<path d="M782.771 47.8007H824.435V54.6487H782.771V47.8007ZM776.499 67.0647H830.195V74.0407H776.499V67.0647ZM799.027 50.9367H807.475V69.3047H799.027V50.9367ZM782.771 25.4647H823.987V32.2487H791.219V50.7447H782.771V25.4647Z" fill="url(#paint9_linear_112_3902)"/>
<path d="M729.3 29.3687H746.836V36.1527H729.3V29.3687ZM729.3 42.2327H746.836V49.0167H729.3V42.2327ZM712.276 59.1927H752.724V80.6967H744.148V65.9127H712.276V59.1927ZM744.148 21.4327H752.724V56.5047H744.148V21.4327ZM719.508 24.4407C722.452 24.4407 725.097 25.0807 727.444 26.3607C729.791 27.598 731.647 29.326 733.012 31.5447C734.42 33.7634 735.124 36.302 735.124 39.1607C735.124 41.9767 734.42 44.5154 733.012 46.7767C731.647 48.9954 729.791 50.7447 727.444 52.0247C725.097 53.262 722.452 53.8807 719.508 53.8807C716.564 53.8807 713.897 53.262 711.508 52.0247C709.161 50.7447 707.284 48.9954 705.876 46.7767C704.511 44.5154 703.828 41.9767 703.828 39.1607C703.828 36.302 704.511 33.7634 705.876 31.5447C707.284 29.326 709.161 27.598 711.508 26.3607C713.897 25.0807 716.564 24.4407 719.508 24.4407ZM719.444 31.7367C718.036 31.7367 716.756 32.0354 715.604 32.6327C714.452 33.1874 713.535 34.0194 712.852 35.1287C712.212 36.238 711.892 37.582 711.892 39.1607C711.892 40.6967 712.212 42.0407 712.852 43.1927C713.535 44.302 714.452 45.1554 715.604 45.7527C716.756 46.35 718.036 46.6487 719.444 46.6487C720.895 46.6487 722.175 46.35 723.284 45.7527C724.436 45.1554 725.332 44.302 725.972 43.1927C726.655 42.0407 726.996 40.6967 726.996 39.1607C726.996 37.582 726.655 36.238 725.972 35.1287C725.332 34.0194 724.436 33.1874 723.284 32.6327C722.175 32.0354 720.895 31.7367 719.444 31.7367Z" fill="url(#paint10_linear_112_3902)"/>
<path d="M672.217 37.1127H687.449V43.9607H672.217V37.1127ZM685.273 21.4327H693.849V65.1447H685.273V21.4327ZM654.617 72.8247H695.129V79.6727H654.617V72.8247ZM654.617 60.8567H663.129V76.7287H654.617V60.8567ZM646.681 25.3367H655.129V34.2967H666.393V25.3367H674.777V55.9287H646.681V25.3367ZM655.129 40.8247V49.1447H666.393V40.8247H655.129Z" fill="url(#paint11_linear_112_3902)"/>
<path d="M608.698 21.3047H617.274V80.5687H608.698V21.3047ZM615.098 44.0247H625.53V51.0007H615.098V44.0247ZM593.146 27.4487H601.53C601.53 33.3794 600.677 38.99 598.97 44.2807C597.306 49.5714 594.533 54.4354 590.65 58.8727C586.81 63.2674 581.605 67.1074 575.034 70.3927L570.234 63.9287C575.439 61.2407 579.727 58.2114 583.098 54.8407C586.511 51.47 589.029 47.6514 590.65 43.3847C592.314 39.0754 593.146 34.2754 593.146 28.9847V27.4487ZM573.498 27.4487H597.562V34.2967H573.498V27.4487Z" fill="url(#paint12_linear_112_3902)"/>
<path d="M534.463 59.3207H542.975V80.7607H534.463V59.3207ZM511.999 56.8887H565.631V63.8007H511.999V56.8887ZM534.399 32.0567H541.887V33.4647C541.887 35.4274 541.546 37.3474 540.863 39.2247C540.223 41.0594 539.242 42.7874 537.919 44.4087C536.596 45.9874 534.954 47.438 532.991 48.7607C531.028 50.0407 528.767 51.1287 526.207 52.0247C523.647 52.878 520.81 53.4967 517.695 53.8807L514.687 47.1607C517.375 46.862 519.764 46.3714 521.855 45.6887C523.988 45.006 525.844 44.1954 527.423 43.2567C529.002 42.318 530.303 41.3154 531.327 40.2487C532.394 39.1394 533.162 38.0087 533.631 36.8567C534.143 35.662 534.399 34.5314 534.399 33.4647V32.0567ZM535.551 32.0567H542.975V33.4647C542.975 34.4887 543.231 35.598 543.743 36.7927C544.298 37.9447 545.087 39.0754 546.111 40.1847C547.135 41.2514 548.436 42.2754 550.015 43.2567C551.594 44.1954 553.428 45.006 555.519 45.6887C557.652 46.3714 560.042 46.862 562.687 47.1607L559.743 53.8807C556.586 53.5394 553.727 52.9207 551.167 52.0247C548.65 51.086 546.41 49.9767 544.447 48.6967C542.484 47.4167 540.842 45.966 539.519 44.3447C538.196 42.6807 537.194 40.9314 536.511 39.0967C535.871 37.262 535.551 35.3847 535.551 33.4647V32.0567ZM516.799 28.1527H560.703V34.8727H516.799V28.1527ZM534.463 21.5607H542.975V30.4567H534.463V21.5607Z" fill="url(#paint13_linear_112_3902)"/>
<defs>
<filter id="filter0_f_112_3902" x="491.499" y="13.3047" width="417.007" height="99.4561" filterUnits="userSpaceOnUse" color-interpolation-filters="sRGB">
<feFlood flood-opacity="0" result="BackgroundImageFix"/>
<feBlend mode="normal" in="SourceGraphic" in2="BackgroundImageFix" result="shape"/>
<feGaussianBlur stdDeviation="10" result="effect1_foregroundBlur_112_3902"/>
</filter>
<linearGradient id="paint0_linear_112_3902" x1="409" y1="73.0036" x2="992" y2="73.0032" gradientUnits="userSpaceOnUse">
<stop stop-color="white" stop-opacity="0.3"/>
<stop offset="0.495" stop-color="#CBB0F8"/>
<stop offset="1" stop-color="white" stop-opacity="0.3"/>
</linearGradient>
<linearGradient id="paint1_linear_112_3902" x1="931.062" y1="57.4353" x2="-1804.26" y2="57.4366" gradientUnits="userSpaceOnUse">
<stop stop-color="#F4439F"/>
<stop offset="1" stop-color="#7C3AED"/>
</linearGradient>
<linearGradient id="paint2_linear_112_3902" x1="1343.93" y1="60.2763" x2="-1388.13" y2="60.2774" gradientUnits="userSpaceOnUse">
<stop stop-color="#F4439F"/>
<stop offset="1" stop-color="#7C3AED"/>
</linearGradient>
<linearGradient id="paint3_linear_112_3902" x1="1985.97" y1="59.4571" x2="-1014.29" y2="59.4587" gradientUnits="userSpaceOnUse">
<stop stop-color="#F4439F"/>
<stop offset="1" stop-color="#7C3AED"/>
</linearGradient>
<linearGradient id="paint4_linear_112_3902" x1="2444.31" y1="59.917" x2="-583.703" y2="59.9186" gradientUnits="userSpaceOnUse">
<stop stop-color="#F4439F"/>
<stop offset="1" stop-color="#7C3AED"/>
</linearGradient>
<linearGradient id="paint5_linear_112_3902" x1="2726.16" y1="59.5856" x2="73.1435" y2="59.5868" gradientUnits="userSpaceOnUse">
<stop stop-color="#F4439F"/>
<stop offset="1" stop-color="#7C3AED"/>
</linearGradient>
<linearGradient id="paint6_linear_112_3902" x1="894.56" y1="59.5006" x2="505.44" y2="59.5006" gradientUnits="userSpaceOnUse">
<stop stop-color="#F4439F"/>
<stop offset="1" stop-color="#7C3AED"/>
</linearGradient>
<linearGradient id="paint7_linear_112_3902" x1="700.5" y1="81" x2="700.5" y2="119" gradientUnits="userSpaceOnUse">
<stop offset="0.0001" stop-color="white" stop-opacity="0.1"/>
<stop offset="1" stop-color="white" stop-opacity="0"/>
</linearGradient>
<linearGradient id="paint8_linear_112_3902" x1="910.052" y1="-4.04756" x2="315.132" y2="1151.7" gradientUnits="userSpaceOnUse">
<stop stop-color="#F4439F"/>
<stop offset="1" stop-color="#7C3AED"/>
</linearGradient>
<linearGradient id="paint9_linear_112_3902" x1="1322.95" y1="-8.63873" x2="585.341" y2="1235.7" gradientUnits="userSpaceOnUse">
<stop stop-color="#F4439F"/>
<stop offset="1" stop-color="#7C3AED"/>
</linearGradient>
<linearGradient id="paint10_linear_112_3902" x1="1962.88" y1="0.806485" x2="1452.9" y2="1153.48" gradientUnits="userSpaceOnUse">
<stop stop-color="#F4439F"/>
<stop offset="1" stop-color="#7C3AED"/>
</linearGradient>
<linearGradient id="paint11_linear_112_3902" x1="2420.99" y1="0.446079" x2="1899.18" y2="1170.21" gradientUnits="userSpaceOnUse">
<stop stop-color="#F4439F"/>
<stop offset="1" stop-color="#7C3AED"/>
</linearGradient>
<linearGradient id="paint12_linear_112_3902" x1="2705.79" y1="0.934882" x2="2154.24" y2="1103.28" gradientUnits="userSpaceOnUse">
<stop stop-color="#F4439F"/>
<stop offset="1" stop-color="#7C3AED"/>
</linearGradient>
<linearGradient id="paint13_linear_112_3902" x1="892" y1="1.00059" x2="520.125" y2="110.366" gradientUnits="userSpaceOnUse">
<stop stop-color="#F4439F"/>
<stop offset="1" stop-color="#7C3AED"/>
</linearGradient>
</defs>
</svg>
