<svg width="1400" height="120" viewBox="0 0 1400 120" fill="none" xmlns="http://www.w3.org/2000/svg">
<path d="M475 65H925V81H475V65Z" fill="url(#paint0_linear_112_3838)"/>
<mask id="mask0_112_3838" style="mask-type:alpha" maskUnits="userSpaceOnUse" x="475" y="81" width="450" height="38">
<path d="M475 81H925V119H475V81Z" fill="#C4C4C4"/>
</mask>
<g mask="url(#mask0_112_3838)">
<g filter="url(#filter0_f_112_3838)">
<path d="M794.925 41.3686H812.461V48.1526H794.925V41.3686ZM794.925 54.2326H812.461V61.0166H794.925V54.2326ZM777.901 71.1926H818.349V92.6966H809.773V77.9126H777.901V71.1926ZM809.773 33.4326H818.349V68.5046H809.773V33.4326ZM785.133 36.4406C788.077 36.4406 790.722 37.0806 793.069 38.3606C795.416 39.5979 797.272 41.326 798.637 43.5446C800.045 45.7633 800.749 48.3019 800.749 51.1606C800.749 53.9766 800.045 56.5153 798.637 58.7766C797.272 60.9953 795.416 62.7446 793.069 64.0246C790.722 65.262 788.077 65.8806 785.133 65.8806C782.189 65.8806 779.522 65.262 777.133 64.0246C774.786 62.7446 772.909 60.9953 771.501 58.7766C770.136 56.5153 769.453 53.9766 769.453 51.1606C769.453 48.3019 770.136 45.7633 771.501 43.5446C772.909 41.326 774.786 39.5979 777.133 38.3606C779.522 37.0806 782.189 36.4406 785.133 36.4406ZM785.069 43.7366C783.661 43.7366 782.381 44.0353 781.229 44.6326C780.077 45.1873 779.16 46.0193 778.477 47.1286C777.837 48.238 777.517 49.582 777.517 51.1606C777.517 52.6966 777.837 54.0406 778.477 55.1926C779.16 56.302 780.077 57.1553 781.229 57.7526C782.381 58.35 783.661 58.6486 785.069 58.6486C786.52 58.6486 787.8 58.35 788.909 57.7526C790.061 57.1553 790.957 56.302 791.597 55.1926C792.28 54.0406 792.621 52.6966 792.621 51.1606C792.621 49.582 792.28 48.238 791.597 47.1286C790.957 46.0193 790.061 45.1873 788.909 44.6326C787.8 44.0353 786.52 43.7366 785.069 43.7366Z" fill="url(#paint1_linear_112_3838)" fill-opacity="0.7"/>
<path d="M737.842 49.1126H753.074V55.9606H737.842V49.1126ZM750.898 33.4326H759.474V77.1446H750.898V33.4326ZM720.242 84.8246H760.754V91.6726H720.242V84.8246ZM720.242 72.8566H728.754V88.7286H720.242V72.8566ZM712.306 37.3366H720.754V46.2966H732.018V37.3366H740.402V67.9286H712.306V37.3366ZM720.754 52.8246V61.1446H732.018V52.8246H720.754Z" fill="url(#paint2_linear_112_3838)" fill-opacity="0.7"/>
<path d="M638.739 61.5926H643.219C646.931 61.5926 650.11 61.5713 652.755 61.5286C655.443 61.4433 657.896 61.294 660.115 61.0806C662.334 60.8673 664.531 60.5686 666.707 60.1846L667.603 66.9686C665.854 67.2673 664.126 67.5233 662.419 67.7366C660.755 67.95 658.963 68.0993 657.043 68.1846C655.166 68.2699 653.096 68.334 650.835 68.3766C648.616 68.4193 646.078 68.4406 643.219 68.4406H638.739V61.5926ZM638.611 36.7606H664.659V55.4486H647.187V66.1366H638.739V49.1126H656.275V43.5446H638.611V36.7606ZM677.523 33.4326H686.099V69.9766H677.523V33.4326ZM668.051 41.6246H679.123V48.4086H668.051V41.6246ZM668.051 54.2326H679.123V61.0166H668.051V54.2326ZM645.459 72.6646H686.099V92.6966H677.523V79.3846H645.459V72.6646Z" fill="url(#paint3_linear_112_3838)" fill-opacity="0.7"/>
<path d="M618.328 33.4326H626.84V65.2406H618.328V33.4326ZM587.48 67.8646H595.864V73.3686H618.392V67.8646H626.84V92.0566H587.48V67.8646ZM595.864 79.8966V85.2726H618.392V79.8966H595.864ZM594.584 35.8646C597.656 35.8646 600.408 36.4619 602.84 37.6566C605.272 38.8513 607.192 40.4939 608.6 42.5846C610.008 44.6753 610.712 47.0859 610.712 49.8166C610.712 52.5473 610.008 54.9793 608.6 57.1126C607.192 59.2033 605.272 60.846 602.84 62.0406C600.408 63.2353 597.656 63.8326 594.584 63.8326C591.512 63.8326 588.76 63.2353 586.328 62.0406C583.896 60.846 581.976 59.2033 580.568 57.1126C579.16 54.9793 578.456 52.5473 578.456 49.8166C578.456 47.0859 579.16 44.6753 580.568 42.5846C581.976 40.4939 583.896 38.8513 586.328 37.6566C588.76 36.4619 591.512 35.8646 594.584 35.8646ZM594.584 42.8406C593.091 42.8406 591.747 43.1179 590.552 43.6726C589.357 44.2273 588.419 45.0379 587.736 46.1046C587.096 47.1286 586.776 48.366 586.776 49.8166C586.776 51.31 587.096 52.59 587.736 53.6566C588.419 54.6806 589.357 55.47 590.552 56.0246C591.747 56.5366 593.091 56.7926 594.584 56.7926C596.077 56.7926 597.4 56.5366 598.552 56.0246C599.747 55.47 600.685 54.6806 601.368 53.6566C602.051 52.59 602.392 51.31 602.392 49.8166C602.392 48.366 602.051 47.1286 601.368 46.1046C600.685 45.0379 599.747 44.2273 598.552 43.6726C597.4 43.1179 596.077 42.8406 594.584 42.8406Z" fill="url(#paint4_linear_112_3838)" fill-opacity="0.7"/>
</g>
</g>
<path d="M475 81H925V107C925 113.627 919.627 119 913 119H487C480.373 119 475 113.627 475 107V81Z" fill="url(#paint5_linear_112_3838)"/>
<path d="M794.925 29.3686H812.461V36.1526H794.925V29.3686ZM794.925 42.2326H812.461V49.0166H794.925V42.2326ZM777.901 59.1926H818.349V80.6966H809.773V65.9126H777.901V59.1926ZM809.773 21.4326H818.349V56.5046H809.773V21.4326ZM785.133 24.4406C788.077 24.4406 790.722 25.0806 793.069 26.3606C795.416 27.5979 797.272 29.326 798.637 31.5446C800.045 33.7633 800.749 36.3019 800.749 39.1606C800.749 41.9766 800.045 44.5153 798.637 46.7766C797.272 48.9953 795.416 50.7446 793.069 52.0246C790.722 53.262 788.077 53.8806 785.133 53.8806C782.189 53.8806 779.522 53.262 777.133 52.0246C774.786 50.7446 772.909 48.9953 771.501 46.7766C770.136 44.5153 769.453 41.9766 769.453 39.1606C769.453 36.3019 770.136 33.7633 771.501 31.5446C772.909 29.326 774.786 27.5979 777.133 26.3606C779.522 25.0806 782.189 24.4406 785.133 24.4406ZM785.069 31.7366C783.661 31.7366 782.381 32.0353 781.229 32.6326C780.077 33.1873 779.16 34.0193 778.477 35.1286C777.837 36.238 777.517 37.582 777.517 39.1606C777.517 40.6966 777.837 42.0406 778.477 43.1926C779.16 44.302 780.077 45.1553 781.229 45.7526C782.381 46.35 783.661 46.6486 785.069 46.6486C786.52 46.6486 787.8 46.35 788.909 45.7526C790.061 45.1553 790.957 44.302 791.597 43.1926C792.28 42.0406 792.621 40.6966 792.621 39.1606C792.621 37.582 792.28 36.238 791.597 35.1286C790.957 34.0193 790.061 33.1873 788.909 32.6326C787.8 32.0353 786.52 31.7366 785.069 31.7366Z" fill="url(#paint6_linear_112_3838)"/>
<path d="M737.842 37.1126H753.074V43.9606H737.842V37.1126ZM750.898 21.4326H759.474V65.1446H750.898V21.4326ZM720.242 72.8246H760.754V79.6726H720.242V72.8246ZM720.242 60.8566H728.754V76.7286H720.242V60.8566ZM712.306 25.3366H720.754V34.2966H732.018V25.3366H740.402V55.9286H712.306V25.3366ZM720.754 40.8246V49.1446H732.018V40.8246H720.754Z" fill="url(#paint7_linear_112_3838)"/>
<path d="M638.739 49.5926H643.219C646.931 49.5926 650.11 49.5713 652.755 49.5286C655.443 49.4433 657.896 49.294 660.115 49.0806C662.334 48.8673 664.531 48.5686 666.707 48.1846L667.603 54.9686C665.854 55.2673 664.126 55.5233 662.419 55.7366C660.755 55.95 658.963 56.0993 657.043 56.1846C655.166 56.2699 653.096 56.334 650.835 56.3766C648.616 56.4193 646.078 56.4406 643.219 56.4406H638.739V49.5926ZM638.611 24.7606H664.659V43.4486H647.187V54.1366H638.739V37.1126H656.275V31.5446H638.611V24.7606ZM677.523 21.4326H686.099V57.9766H677.523V21.4326ZM668.051 29.6246H679.123V36.4086H668.051V29.6246ZM668.051 42.2326H679.123V49.0166H668.051V42.2326ZM645.459 60.6646H686.099V80.6966H677.523V67.3846H645.459V60.6646Z" fill="url(#paint8_linear_112_3838)"/>
<path d="M618.328 21.4326H626.84V53.2406H618.328V21.4326ZM587.48 55.8646H595.864V61.3686H618.392V55.8646H626.84V80.0566H587.48V55.8646ZM595.864 67.8966V73.2726H618.392V67.8966H595.864ZM594.584 23.8646C597.656 23.8646 600.408 24.4619 602.84 25.6566C605.272 26.8513 607.192 28.4939 608.6 30.5846C610.008 32.6753 610.712 35.0859 610.712 37.8166C610.712 40.5473 610.008 42.9793 608.6 45.1126C607.192 47.2033 605.272 48.846 602.84 50.0406C600.408 51.2353 597.656 51.8326 594.584 51.8326C591.512 51.8326 588.76 51.2353 586.328 50.0406C583.896 48.846 581.976 47.2033 580.568 45.1126C579.16 42.9793 578.456 40.5473 578.456 37.8166C578.456 35.0859 579.16 32.6753 580.568 30.5846C581.976 28.4939 583.896 26.8513 586.328 25.6566C588.76 24.4619 591.512 23.8646 594.584 23.8646ZM594.584 30.8406C593.091 30.8406 591.747 31.1179 590.552 31.6726C589.357 32.2273 588.419 33.0379 587.736 34.1046C587.096 35.1286 586.776 36.366 586.776 37.8166C586.776 39.31 587.096 40.59 587.736 41.6566C588.419 42.6806 589.357 43.47 590.552 44.0246C591.747 44.5366 593.091 44.7926 594.584 44.7926C596.077 44.7926 597.4 44.5366 598.552 44.0246C599.747 43.47 600.685 42.6806 601.368 41.6566C602.051 40.59 602.392 39.31 602.392 37.8166C602.392 36.366 602.051 35.1286 601.368 34.1046C600.685 33.0379 599.747 32.2273 598.552 31.6726C597.4 31.1179 596.077 30.8406 594.584 30.8406Z" fill="url(#paint9_linear_112_3838)"/>
<defs>
<filter id="filter0_f_112_3838" x="558.456" y="13.4326" width="279.893" height="99.2637" filterUnits="userSpaceOnUse" color-interpolation-filters="sRGB">
<feFlood flood-opacity="0" result="BackgroundImageFix"/>
<feBlend mode="normal" in="SourceGraphic" in2="BackgroundImageFix" result="shape"/>
<feGaussianBlur stdDeviation="10" result="effect1_foregroundBlur_112_3838"/>
</filter>
<linearGradient id="paint0_linear_112_3838" x1="475" y1="73.0036" x2="925" y2="73.0034" gradientUnits="userSpaceOnUse">
<stop stop-color="white" stop-opacity="0.3"/>
<stop offset="0.495" stop-color="#CBB0F8"/>
<stop offset="1" stop-color="white" stop-opacity="0.3"/>
</linearGradient>
<linearGradient id="paint1_linear_112_3838" x1="850.98" y1="59.5006" x2="-375.567" y2="59.5009" gradientUnits="userSpaceOnUse">
<stop stop-color="#F4439F"/>
<stop offset="1" stop-color="#7C3AED"/>
</linearGradient>
<linearGradient id="paint2_linear_112_3838" x1="1136.47" y1="59.9589" x2="-101.422" y2="59.9592" gradientUnits="userSpaceOnUse">
<stop stop-color="#F4439F"/>
<stop offset="1" stop-color="#7C3AED"/>
</linearGradient>
<linearGradient id="paint3_linear_112_3838" x1="1520.03" y1="59.5006" x2="257.115" y2="59.5009" gradientUnits="userSpaceOnUse">
<stop stop-color="#F4439F"/>
<stop offset="1" stop-color="#7C3AED"/>
</linearGradient>
<linearGradient id="paint4_linear_112_3838" x1="825" y1="59.5007" x2="575" y2="59.5007" gradientUnits="userSpaceOnUse">
<stop stop-color="#F4439F"/>
<stop offset="1" stop-color="#7C3AED"/>
</linearGradient>
<linearGradient id="paint5_linear_112_3838" x1="700" y1="81" x2="700" y2="119" gradientUnits="userSpaceOnUse">
<stop offset="0.0001" stop-color="white" stop-opacity="0.1"/>
<stop offset="1" stop-color="white" stop-opacity="0"/>
</linearGradient>
<linearGradient id="paint6_linear_112_3838" x1="850.98" y1="1.00062" x2="165.284" y2="646.802" gradientUnits="userSpaceOnUse">
<stop stop-color="#F4439F"/>
<stop offset="1" stop-color="#7C3AED"/>
</linearGradient>
<linearGradient id="paint7_linear_112_3838" x1="1136.47" y1="0.641369" x2="439.082" y2="652.071" gradientUnits="userSpaceOnUse">
<stop stop-color="#F4439F"/>
<stop offset="1" stop-color="#7C3AED"/>
</linearGradient>
<linearGradient id="paint8_linear_112_3838" x1="1520.03" y1="1.00061" x2="833.425" y2="666.83" gradientUnits="userSpaceOnUse">
<stop stop-color="#F4439F"/>
<stop offset="1" stop-color="#7C3AED"/>
</linearGradient>
<linearGradient id="paint9_linear_112_3838" x1="825" y1="1.00064" x2="570.64" y2="49.8289" gradientUnits="userSpaceOnUse">
<stop stop-color="#F4439F"/>
<stop offset="1" stop-color="#7C3AED"/>
</linearGradient>
</defs>
</svg>
