<svg width="1400" height="120" viewBox="0 0 1400 120" fill="none" xmlns="http://www.w3.org/2000/svg">
<path d="M446 65H955V81H446V65Z" fill="url(#paint0_linear_112_3870)"/>
<mask id="mask0_112_3870" style="mask-type:alpha" maskUnits="userSpaceOnUse" x="446" y="81" width="509" height="38">
<path d="M446 81H955V119H446V81Z" fill="#C4C4C4"/>
</mask>
<g mask="url(#mask0_112_3870)">
<g filter="url(#filter0_f_112_3870)">
<path d="M824.302 41.3682H841.838V48.1522H824.302V41.3682ZM824.302 54.2322H841.838V61.0162H824.302V54.2322ZM807.278 71.1922H847.726V92.6962H839.15V77.9122H807.278V71.1922ZM839.15 33.4322H847.726V68.5042H839.15V33.4322ZM814.51 36.4402C817.454 36.4402 820.1 37.0802 822.446 38.3602C824.793 39.5975 826.649 41.3255 828.014 43.5442C829.422 45.7628 830.126 48.3015 830.126 51.1602C830.126 53.9762 829.422 56.5148 828.014 58.7762C826.649 60.9948 824.793 62.7442 822.446 64.0242C820.1 65.2615 817.454 65.8802 814.51 65.8802C811.566 65.8802 808.9 65.2615 806.51 64.0242C804.164 62.7442 802.286 60.9948 800.878 58.7762C799.513 56.5148 798.83 53.9762 798.83 51.1602C798.83 48.3015 799.513 45.7628 800.878 43.5442C802.286 41.3255 804.164 39.5975 806.51 38.3602C808.9 37.0802 811.566 36.4402 814.51 36.4402ZM814.446 43.7362C813.038 43.7362 811.758 44.0348 810.606 44.6322C809.454 45.1868 808.537 46.0188 807.854 47.1282C807.214 48.2375 806.894 49.5815 806.894 51.1602C806.894 52.6962 807.214 54.0402 807.854 55.1922C808.537 56.3015 809.454 57.1548 810.606 57.7522C811.758 58.3495 813.038 58.6482 814.446 58.6482C815.897 58.6482 817.177 58.3495 818.286 57.7522C819.438 57.1548 820.334 56.3015 820.974 55.1922C821.657 54.0402 821.998 52.6962 821.998 51.1602C821.998 49.5815 821.657 48.2375 820.974 47.1282C820.334 46.0188 819.438 45.1868 818.286 44.6322C817.177 44.0348 815.897 43.7362 814.446 43.7362Z" fill="url(#paint1_linear_112_3870)" fill-opacity="0.7"/>
<path d="M767.219 49.1122H782.451V55.9602H767.219V49.1122ZM780.275 33.4322H788.851V77.1442H780.275V33.4322ZM749.619 84.8242H790.131V91.6722H749.619V84.8242ZM749.619 72.8562H758.131V88.7282H749.619V72.8562ZM741.683 37.3362H750.131V46.2962H761.395V37.3362H769.779V67.9282H741.683V37.3362ZM750.131 52.8242V61.1442H761.395V52.8242H750.131Z" fill="url(#paint2_linear_112_3870)" fill-opacity="0.7"/>
<path d="M672.148 63.8962H713.812V70.6162H672.148V63.8962ZM665.876 79.0002H719.572V85.9122H665.876V79.0002ZM672.148 37.7202H713.364V44.5042H680.788V65.7522H672.148V37.7202ZM678.164 50.7762H712.02V57.3682H678.164V50.7762Z" fill="url(#paint3_linear_112_3870)" fill-opacity="0.7"/>
<path d="M629.017 36.8242H636.377V41.1122C636.377 43.6722 636.015 46.1682 635.289 48.6002C634.607 50.9895 633.583 53.2508 632.217 55.3842C630.852 57.5175 629.167 59.4588 627.161 61.2082C625.199 62.9148 622.937 64.3868 620.377 65.6242C617.817 66.8615 615.001 67.7788 611.929 68.3762L608.281 61.2722C610.927 60.8028 613.337 60.0988 615.513 59.1602C617.732 58.1788 619.673 57.0055 621.337 55.6402C623.001 54.2748 624.409 52.8028 625.561 51.2242C626.713 49.6028 627.567 47.9388 628.121 46.2322C628.719 44.4828 629.017 42.7762 629.017 41.1122V36.8242ZM630.681 36.8242H638.105V41.1122C638.105 42.8188 638.383 44.5468 638.937 46.2962C639.535 48.0455 640.388 49.7308 641.497 51.3522C642.649 52.9308 644.057 54.3815 645.721 55.7042C647.385 57.0268 649.305 58.1788 651.481 59.1602C653.657 60.0988 656.111 60.8028 658.841 61.2722L655.193 68.3762C652.121 67.7788 649.305 66.8615 646.745 65.6242C644.185 64.3868 641.903 62.9148 639.897 61.2082C637.935 59.5015 636.249 57.5815 634.841 55.4482C633.476 53.3148 632.431 51.0322 631.705 48.6002C631.023 46.1682 630.681 43.6722 630.681 41.1122V36.8242ZM607.001 78.4882H660.697V85.4642H607.001V78.4882Z" fill="url(#paint4_linear_112_3870)" fill-opacity="0.7"/>
<path d="M573.15 48.4082H582.11V55.1922H573.15V48.4082ZM550.366 61.2082H554.462C557.278 61.2082 559.796 61.1868 562.014 61.1442C564.276 61.0588 566.43 60.9308 568.478 60.7602C570.526 60.5468 572.638 60.2482 574.814 59.8642L575.518 66.5202C573.3 66.9042 571.124 67.2028 568.99 67.4162C566.9 67.5868 564.681 67.7148 562.334 67.8002C559.988 67.8428 557.364 67.8642 554.462 67.8642H550.366V61.2082ZM550.366 37.2722H572.702V44.0562H558.558V64.0882H550.366V37.2722ZM556.19 49.2402H570.59V55.6402H556.19V49.2402ZM557.79 72.7282H598.622V92.6962H590.11V79.4482H557.79V72.7282ZM590.494 33.3682H598.622V70.4242H590.494V33.3682ZM578.91 34.5202H586.91V69.9762H578.91V34.5202Z" fill="url(#paint5_linear_112_3870)" fill-opacity="0.7"/>
</g>
</g>
<path d="M446 81H955V107C955 113.627 949.627 119 943 119H458C451.373 119 446 113.627 446 107V81Z" fill="url(#paint6_linear_112_3870)"/>
<path d="M824.862 29.3682H842.398V36.1522H824.862V29.3682ZM824.862 42.2322H842.398V49.0162H824.862V42.2322ZM807.839 59.1922H848.286V80.6962H839.711V65.9122H807.839V59.1922ZM839.711 21.4322H848.286V56.5042H839.711V21.4322ZM815.07 24.4402C818.014 24.4402 820.66 25.0802 823.007 26.3602C825.353 27.5975 827.209 29.3255 828.575 31.5442C829.983 33.7628 830.687 36.3015 830.687 39.1602C830.687 41.9762 829.983 44.5148 828.575 46.7762C827.209 48.9948 825.353 50.7442 823.007 52.0242C820.66 53.2615 818.014 53.8802 815.07 53.8802C812.126 53.8802 809.46 53.2615 807.07 52.0242C804.724 50.7442 802.847 48.9948 801.439 46.7762C800.073 44.5148 799.391 41.9762 799.391 39.1602C799.391 36.3015 800.073 33.7628 801.439 31.5442C802.847 29.3255 804.724 27.5975 807.07 26.3602C809.46 25.0802 812.126 24.4402 815.07 24.4402ZM815.007 31.7362C813.599 31.7362 812.319 32.0348 811.167 32.6322C810.015 33.1868 809.097 34.0188 808.414 35.1282C807.774 36.2375 807.455 37.5815 807.455 39.1602C807.455 40.6962 807.774 42.0402 808.414 43.1922C809.097 44.3015 810.015 45.1548 811.167 45.7522C812.319 46.3495 813.599 46.6482 815.007 46.6482C816.457 46.6482 817.737 46.3495 818.846 45.7522C819.998 45.1548 820.895 44.3015 821.535 43.1922C822.217 42.0402 822.559 40.6962 822.559 39.1602C822.559 37.5815 822.217 36.2375 821.535 35.1282C820.895 34.0188 819.998 33.1868 818.846 32.6322C817.737 32.0348 816.457 31.7362 815.007 31.7362Z" fill="url(#paint7_linear_112_3870)"/>
<path d="M767.78 37.1122H783.012V43.9602H767.78V37.1122ZM780.836 21.4322H789.412V65.1442H780.836V21.4322ZM750.18 72.8242H790.692V79.6722H750.18V72.8242ZM750.18 60.8562H758.692V76.7282H750.18V60.8562ZM742.244 25.3362H750.692V34.2962H761.956V25.3362H770.34V55.9282H742.244V25.3362ZM750.692 40.8242V49.1442H761.956V40.8242H750.692Z" fill="url(#paint8_linear_112_3870)"/>
<path d="M672.709 51.8962H714.372V58.6162H672.709V51.8962ZM666.437 67.0002H720.133V73.9122H666.437V67.0002ZM672.709 25.7202H713.924V32.5042H681.349V53.7522H672.709V25.7202ZM678.725 38.7762H712.581V45.3682H678.725V38.7762Z" fill="url(#paint9_linear_112_3870)"/>
<path d="M629.578 24.8242H636.938V29.1122C636.938 31.6722 636.575 34.1682 635.85 36.6002C635.167 38.9895 634.143 41.2508 632.778 43.3842C631.412 45.5175 629.727 47.4588 627.722 49.2082C625.759 50.9148 623.498 52.3868 620.938 53.6242C618.378 54.8615 615.562 55.7788 612.49 56.3762L608.842 49.2722C611.487 48.8028 613.898 48.0988 616.074 47.1602C618.292 46.1788 620.234 45.0055 621.898 43.6402C623.562 42.2748 624.97 40.8028 626.122 39.2242C627.274 37.6028 628.127 35.9388 628.682 34.2322C629.279 32.4828 629.578 30.7762 629.578 29.1122V24.8242ZM631.242 24.8242H638.666V29.1122C638.666 30.8188 638.943 32.5468 639.498 34.2962C640.095 36.0455 640.948 37.7308 642.058 39.3522C643.21 40.9308 644.618 42.3815 646.282 43.7042C647.946 45.0268 649.866 46.1788 652.042 47.1602C654.218 48.0988 656.671 48.8028 659.402 49.2722L655.754 56.3762C652.682 55.7788 649.866 54.8615 647.306 53.6242C644.746 52.3868 642.463 50.9148 640.458 49.2082C638.495 47.5015 636.81 45.5815 635.402 43.4482C634.036 41.3148 632.991 39.0322 632.266 36.6002C631.583 34.1682 631.242 31.6722 631.242 29.1122V24.8242ZM607.562 66.4882H661.258V73.4642H607.562V66.4882Z" fill="url(#paint10_linear_112_3870)"/>
<path d="M573.711 36.4082H582.671V43.1922H573.711V36.4082ZM550.927 49.2082H555.023C557.839 49.2082 560.356 49.1868 562.575 49.1442C564.836 49.0588 566.991 48.9308 569.039 48.7602C571.087 48.5468 573.199 48.2482 575.375 47.8642L576.079 54.5202C573.86 54.9042 571.684 55.2028 569.551 55.4162C567.46 55.5868 565.241 55.7148 562.895 55.8002C560.548 55.8428 557.924 55.8642 555.023 55.8642H550.927V49.2082ZM550.927 25.2722H573.263V32.0562H559.119V52.0882H550.927V25.2722ZM556.751 37.2402H571.151V43.6402H556.751V37.2402ZM558.351 60.7282H599.183V80.6962H590.671V67.4482H558.351V60.7282ZM591.055 21.3682H599.183V58.4242H591.055V21.3682ZM579.471 22.5202H587.471V57.9762H579.471V22.5202Z" fill="url(#paint11_linear_112_3870)"/>
<defs>
<filter id="filter0_f_112_3870" x="530.366" y="13.3682" width="337.36" height="99.3281" filterUnits="userSpaceOnUse" color-interpolation-filters="sRGB">
<feFlood flood-opacity="0" result="BackgroundImageFix"/>
<feBlend mode="normal" in="SourceGraphic" in2="BackgroundImageFix" result="shape"/>
<feGaussianBlur stdDeviation="10" result="effect1_foregroundBlur_112_3870"/>
</filter>
<linearGradient id="paint0_linear_112_3870" x1="446" y1="73.0036" x2="955" y2="73.0033" gradientUnits="userSpaceOnUse">
<stop stop-color="white" stop-opacity="0.3"/>
<stop offset="0.495" stop-color="#CBB0F8"/>
<stop offset="1" stop-color="white" stop-opacity="0.3"/>
</linearGradient>
<linearGradient id="paint1_linear_112_3870" x1="888.554" y1="59.4643" x2="-990.623" y2="59.4649" gradientUnits="userSpaceOnUse">
<stop stop-color="#F4439F"/>
<stop offset="1" stop-color="#7C3AED"/>
</linearGradient>
<linearGradient id="paint2_linear_112_3870" x1="1242.43" y1="59.9231" x2="-654.12" y2="59.9238" gradientUnits="userSpaceOnUse">
<stop stop-color="#F4439F"/>
<stop offset="1" stop-color="#7C3AED"/>
</linearGradient>
<linearGradient id="paint3_linear_112_3870" x1="1594.6" y1="60.181" x2="-116.592" y2="60.1814" gradientUnits="userSpaceOnUse">
<stop stop-color="#F4439F"/>
<stop offset="1" stop-color="#7C3AED"/>
</linearGradient>
<linearGradient id="paint4_linear_112_3870" x1="1920.64" y1="61.027" x2="209.449" y2="61.0274" gradientUnits="userSpaceOnUse">
<stop stop-color="#F4439F"/>
<stop offset="1" stop-color="#7C3AED"/>
</linearGradient>
<linearGradient id="paint5_linear_112_3870" x1="854.44" y1="59.5002" x2="545.44" y2="59.5002" gradientUnits="userSpaceOnUse">
<stop stop-color="#F4439F"/>
<stop offset="1" stop-color="#7C3AED"/>
</linearGradient>
<linearGradient id="paint6_linear_112_3870" x1="700.5" y1="81" x2="700.5" y2="119" gradientUnits="userSpaceOnUse">
<stop offset="0.0001" stop-color="white" stop-opacity="0.1"/>
<stop offset="1" stop-color="white" stop-opacity="0"/>
</linearGradient>
<linearGradient id="paint7_linear_112_3870" x1="889.115" y1="0.914081" x2="244.977" y2="929.368" gradientUnits="userSpaceOnUse">
<stop stop-color="#F4439F"/>
<stop offset="1" stop-color="#7C3AED"/>
</linearGradient>
<linearGradient id="paint8_linear_112_3870" x1="1242.99" y1="0.554471" x2="585.66" y2="940.269" gradientUnits="userSpaceOnUse">
<stop stop-color="#F4439F"/>
<stop offset="1" stop-color="#7C3AED"/>
</linearGradient>
<linearGradient id="paint9_linear_112_3870" x1="1595.16" y1="-9.064" x2="751.293" y2="891.619" gradientUnits="userSpaceOnUse">
<stop stop-color="#F4439F"/>
<stop offset="1" stop-color="#7C3AED"/>
</linearGradient>
<linearGradient id="paint10_linear_112_3870" x1="1921.2" y1="-7.69083" x2="1085.64" y2="892.412" gradientUnits="userSpaceOnUse">
<stop stop-color="#F4439F"/>
<stop offset="1" stop-color="#7C3AED"/>
</linearGradient>
<linearGradient id="paint11_linear_112_3870" x1="855" y1="1.00017" x2="546.399" y2="74.2216" gradientUnits="userSpaceOnUse">
<stop stop-color="#F4439F"/>
<stop offset="1" stop-color="#7C3AED"/>
</linearGradient>
</defs>
</svg>
