<svg width="1400" height="120" viewBox="0 0 1400 120" fill="none" xmlns="http://www.w3.org/2000/svg">
<path d="M475 65H925V81H475V65Z" fill="url(#paint0_linear_112_3806)"/>
<mask id="mask0_112_3806" style="mask-type:alpha" maskUnits="userSpaceOnUse" x="475" y="81" width="450" height="38">
<path d="M475 81H925V119H475V81Z" fill="#C4C4C4"/>
</mask>
<g mask="url(#mask0_112_3806)">
<g filter="url(#filter0_f_112_3806)">
<path d="M796.365 41.3686H813.901V48.1526H796.365V41.3686ZM796.365 54.2326H813.901V61.0166H796.365V54.2326ZM779.341 71.1926H819.789V92.6966H811.213V77.9126H779.341V71.1926ZM811.213 33.4326H819.789V68.5046H811.213V33.4326ZM786.573 36.4406C789.517 36.4406 792.162 37.0806 794.509 38.3606C796.856 39.5979 798.712 41.326 800.077 43.5446C801.485 45.7633 802.189 48.3019 802.189 51.1606C802.189 53.9766 801.485 56.5153 800.077 58.7766C798.712 60.9953 796.856 62.7446 794.509 64.0246C792.162 65.262 789.517 65.8806 786.573 65.8806C783.629 65.8806 780.962 65.262 778.573 64.0246C776.226 62.7446 774.349 60.9953 772.941 58.7766C771.576 56.5153 770.893 53.9766 770.893 51.1606C770.893 48.3019 771.576 45.7633 772.941 43.5446C774.349 41.326 776.226 39.5979 778.573 38.3606C780.962 37.0806 783.629 36.4406 786.573 36.4406ZM786.509 43.7366C785.101 43.7366 783.821 44.0353 782.669 44.6326C781.517 45.1873 780.6 46.0193 779.917 47.1286C779.277 48.238 778.957 49.582 778.957 51.1606C778.957 52.6966 779.277 54.0406 779.917 55.1926C780.6 56.302 781.517 57.1553 782.669 57.7526C783.821 58.35 785.101 58.6486 786.509 58.6486C787.96 58.6486 789.24 58.35 790.349 57.7526C791.501 57.1553 792.397 56.302 793.037 55.1926C793.72 54.0406 794.061 52.6966 794.061 51.1606C794.061 49.582 793.72 48.238 793.037 47.1286C792.397 46.0193 791.501 45.1873 790.349 44.6326C789.24 44.0353 787.96 43.7366 786.509 43.7366Z" fill="url(#paint1_linear_112_3806)" fill-opacity="0.7"/>
<path d="M739.282 49.1126H754.514V55.9606H739.282V49.1126ZM752.338 33.4326H760.914V77.1446H752.338V33.4326ZM721.682 84.8246H762.194V91.6726H721.682V84.8246ZM721.682 72.8566H730.194V88.7286H721.682V72.8566ZM713.746 37.3366H722.194V46.2966H733.458V37.3366H741.842V67.9286H713.746V37.3366ZM722.194 52.8246V61.1446H733.458V52.8246H722.194Z" fill="url(#paint2_linear_112_3806)" fill-opacity="0.7"/>
<path d="M639.603 37.5926H667.891V65.2406H639.603V37.5926ZM659.507 44.3126H647.987V58.5846H659.507V44.3126ZM676.019 33.4326H684.531V68.5686H676.019V33.4326ZM682.227 47.4486H692.403V54.4886H682.227V47.4486ZM644.979 71.1926H684.531V92.6966H676.019V77.9766H644.979V71.1926Z" fill="url(#paint3_linear_112_3806)" fill-opacity="0.7"/>
<path d="M592.312 42.7766H599.032V49.4326C599.032 52.7179 598.669 56.0033 597.944 59.2886C597.261 62.574 596.237 65.6673 594.872 68.5686C593.507 71.4273 591.779 73.9873 589.688 76.2486C587.64 78.51 585.251 80.2806 582.52 81.5606L577.72 74.8406C580.195 73.6886 582.328 72.1739 584.12 70.2966C585.955 68.4193 587.469 66.3286 588.664 64.0246C589.901 61.7206 590.819 59.3313 591.416 56.8566C592.013 54.3393 592.312 51.8646 592.312 49.4326V42.7766ZM594.104 42.7766H600.824V49.4326C600.824 51.6513 601.123 53.9339 601.72 56.2806C602.317 58.6273 603.192 60.8886 604.344 63.0646C605.539 65.2406 607.032 67.2246 608.824 69.0166C610.659 70.766 612.792 72.1953 615.224 73.3046L610.488 80.0886C607.757 78.8086 605.368 77.1019 603.32 74.9686C601.315 72.7926 599.608 70.3393 598.2 67.6086C596.835 64.8353 595.811 61.9126 595.128 58.8406C594.445 55.7259 594.104 52.59 594.104 49.4326V42.7766ZM580.024 39.0646H612.6V46.1046H580.024V39.0646ZM616.888 33.4326H625.464V92.6966H616.888V33.4326ZM623.608 56.0246H634.04V63.0006H623.608V56.0246Z" fill="url(#paint4_linear_112_3806)" fill-opacity="0.7"/>
</g>
</g>
<path d="M475 81H925V107C925 113.627 919.627 119 913 119H487C480.373 119 475 113.627 475 107V81Z" fill="url(#paint5_linear_112_3806)"/>
<path d="M794.925 29.3686H812.461V36.1526H794.925V29.3686ZM794.925 42.2326H812.461V49.0166H794.925V42.2326ZM777.901 59.1926H818.349V80.6966H809.773V65.9126H777.901V59.1926ZM809.773 21.4326H818.349V56.5046H809.773V21.4326ZM785.133 24.4406C788.077 24.4406 790.722 25.0806 793.069 26.3606C795.416 27.5979 797.272 29.326 798.637 31.5446C800.045 33.7633 800.749 36.3019 800.749 39.1606C800.749 41.9766 800.045 44.5153 798.637 46.7766C797.272 48.9953 795.416 50.7446 793.069 52.0246C790.722 53.262 788.077 53.8806 785.133 53.8806C782.189 53.8806 779.522 53.262 777.133 52.0246C774.786 50.7446 772.909 48.9953 771.501 46.7766C770.136 44.5153 769.453 41.9766 769.453 39.1606C769.453 36.3019 770.136 33.7633 771.501 31.5446C772.909 29.326 774.786 27.5979 777.133 26.3606C779.522 25.0806 782.189 24.4406 785.133 24.4406ZM785.069 31.7366C783.661 31.7366 782.381 32.0353 781.229 32.6326C780.077 33.1873 779.16 34.0193 778.477 35.1286C777.837 36.238 777.517 37.582 777.517 39.1606C777.517 40.6966 777.837 42.0406 778.477 43.1926C779.16 44.302 780.077 45.1553 781.229 45.7526C782.381 46.35 783.661 46.6486 785.069 46.6486C786.52 46.6486 787.8 46.35 788.909 45.7526C790.061 45.1553 790.957 44.302 791.597 43.1926C792.28 42.0406 792.621 40.6966 792.621 39.1606C792.621 37.582 792.28 36.238 791.597 35.1286C790.957 34.0193 790.061 33.1873 788.909 32.6326C787.8 32.0353 786.52 31.7366 785.069 31.7366Z" fill="url(#paint6_linear_112_3806)"/>
<path d="M737.842 37.1126H753.074V43.9606H737.842V37.1126ZM750.898 21.4326H759.474V65.1446H750.898V21.4326ZM720.242 72.8246H760.754V79.6726H720.242V72.8246ZM720.242 60.8566H728.754V76.7286H720.242V60.8566ZM712.306 25.3366H720.754V34.2966H732.018V25.3366H740.402V55.9286H712.306V25.3366ZM720.754 40.8246V49.1446H732.018V40.8246H720.754Z" fill="url(#paint7_linear_112_3806)"/>
<path d="M638.163 25.5926H666.451V53.2406H638.163V25.5926ZM658.067 32.3126H646.547V46.5846H658.067V32.3126ZM674.579 21.4326H683.091V56.5686H674.579V21.4326ZM680.787 35.4486H690.963V42.4886H680.787V35.4486ZM643.539 59.1926H683.091V80.6966H674.579V65.9766H643.539V59.1926Z" fill="url(#paint8_linear_112_3806)"/>
<path d="M590.872 30.7766H597.592V37.4326C597.592 40.7179 597.229 44.0033 596.504 47.2886C595.821 50.574 594.797 53.6673 593.432 56.5686C592.067 59.4273 590.339 61.9873 588.248 64.2486C586.2 66.51 583.811 68.2806 581.08 69.5606L576.28 62.8406C578.755 61.6886 580.888 60.1739 582.68 58.2966C584.515 56.4193 586.029 54.3286 587.224 52.0246C588.461 49.7206 589.379 47.3313 589.976 44.8566C590.573 42.3393 590.872 39.8646 590.872 37.4326V30.7766ZM592.664 30.7766H599.384V37.4326C599.384 39.6513 599.683 41.9339 600.28 44.2806C600.877 46.6273 601.752 48.8886 602.904 51.0646C604.099 53.2406 605.592 55.2246 607.384 57.0166C609.219 58.766 611.352 60.1953 613.784 61.3046L609.048 68.0886C606.317 66.8086 603.928 65.1019 601.88 62.9686C599.875 60.7926 598.168 58.3393 596.76 55.6086C595.395 52.8353 594.371 49.9126 593.688 46.8406C593.005 43.7259 592.664 40.59 592.664 37.4326V30.7766ZM578.584 27.0646H611.16V34.1046H578.584V27.0646ZM615.448 21.4326H624.024V80.6966H615.448V21.4326ZM622.168 44.0246H632.6V51.0006H622.168V44.0246Z" fill="url(#paint9_linear_112_3806)"/>
<defs>
<filter id="filter0_f_112_3806" x="557.72" y="13.4326" width="282.069" height="99.2637" filterUnits="userSpaceOnUse" color-interpolation-filters="sRGB">
<feFlood flood-opacity="0" result="BackgroundImageFix"/>
<feBlend mode="normal" in="SourceGraphic" in2="BackgroundImageFix" result="shape"/>
<feGaussianBlur stdDeviation="10" result="effect1_foregroundBlur_112_3806"/>
</filter>
<linearGradient id="paint0_linear_112_3806" x1="475" y1="73.0036" x2="925" y2="73.0034" gradientUnits="userSpaceOnUse">
<stop stop-color="white" stop-opacity="0.3"/>
<stop offset="0.495" stop-color="#CBB0F8"/>
<stop offset="1" stop-color="white" stop-opacity="0.3"/>
</linearGradient>
<linearGradient id="paint1_linear_112_3806" x1="852.716" y1="59.5006" x2="-384.957" y2="59.5009" gradientUnits="userSpaceOnUse">
<stop stop-color="#F4439F"/>
<stop offset="1" stop-color="#7C3AED"/>
</linearGradient>
<linearGradient id="paint2_linear_112_3806" x1="1140.79" y1="59.9589" x2="-108.325" y2="59.9592" gradientUnits="userSpaceOnUse">
<stop stop-color="#F4439F"/>
<stop offset="1" stop-color="#7C3AED"/>
</linearGradient>
<linearGradient id="paint3_linear_112_3806" x1="1434.3" y1="59.5006" x2="288.14" y2="59.5008" gradientUnits="userSpaceOnUse">
<stop stop-color="#F4439F"/>
<stop offset="1" stop-color="#7C3AED"/>
</linearGradient>
<linearGradient id="paint4_linear_112_3806" x1="826.44" y1="59.5007" x2="576.44" y2="59.5007" gradientUnits="userSpaceOnUse">
<stop stop-color="#F4439F"/>
<stop offset="1" stop-color="#7C3AED"/>
</linearGradient>
<linearGradient id="paint5_linear_112_3806" x1="700" y1="81" x2="700" y2="119" gradientUnits="userSpaceOnUse">
<stop offset="0.0001" stop-color="white" stop-opacity="0.1"/>
<stop offset="1" stop-color="white" stop-opacity="0"/>
</linearGradient>
<linearGradient id="paint6_linear_112_3806" x1="851.276" y1="1.00062" x2="165.237" y2="652.986" gradientUnits="userSpaceOnUse">
<stop stop-color="#F4439F"/>
<stop offset="1" stop-color="#7C3AED"/>
</linearGradient>
<linearGradient id="paint7_linear_112_3806" x1="1139.35" y1="0.641369" x2="441.567" y2="658.358" gradientUnits="userSpaceOnUse">
<stop stop-color="#F4439F"/>
<stop offset="1" stop-color="#7C3AED"/>
</linearGradient>
<linearGradient id="paint8_linear_112_3806" x1="1432.86" y1="1.00061" x2="751.498" y2="600.663" gradientUnits="userSpaceOnUse">
<stop stop-color="#F4439F"/>
<stop offset="1" stop-color="#7C3AED"/>
</linearGradient>
<linearGradient id="paint9_linear_112_3806" x1="825" y1="1.00063" x2="570.64" y2="49.8289" gradientUnits="userSpaceOnUse">
<stop stop-color="#F4439F"/>
<stop offset="1" stop-color="#7C3AED"/>
</linearGradient>
</defs>
</svg>
