<svg width="1400" height="120" viewBox="0 0 1400 120" fill="none" xmlns="http://www.w3.org/2000/svg">
<path d="M474 54H927V70H474V54Z" fill="url(#paint0_linear_24_3048)"/>
<mask id="mask0_24_3048" style="mask-type:alpha" maskUnits="userSpaceOnUse" x="474" y="70" width="453" height="47">
<path d="M474 70H927V117H474V70Z" fill="#C4C4C4"/>
</mask>
<g mask="url(#mask0_24_3048)">
<g filter="url(#filter0_f_24_3048)">
<path d="M796.24 29.368H813.776V36.152H796.24V29.368ZM796.24 42.232H813.776V49.016H796.24V42.232ZM779.216 59.192H819.664V80.696H811.088V65.912H779.216V59.192ZM811.088 21.432H819.664V56.504H811.088V21.432ZM786.448 24.44C789.392 24.44 792.037 25.08 794.384 26.36C796.73 27.5973 798.586 29.3253 799.952 31.544C801.36 33.7627 802.064 36.3013 802.064 39.16C802.064 41.976 801.36 44.5147 799.952 46.776C798.586 48.9947 796.73 50.744 794.384 52.024C792.037 53.2613 789.392 53.88 786.448 53.88C783.504 53.88 780.837 53.2613 778.448 52.024C776.101 50.744 774.224 48.9947 772.816 46.776C771.45 44.5147 770.768 41.976 770.768 39.16C770.768 36.3013 771.45 33.7627 772.816 31.544C774.224 29.3253 776.101 27.5973 778.448 26.36C780.837 25.08 783.504 24.44 786.448 24.44ZM786.384 31.736C784.976 31.736 783.696 32.0347 782.544 32.632C781.392 33.1867 780.474 34.0187 779.792 35.128C779.152 36.2373 778.832 37.5813 778.832 39.16C778.832 40.696 779.152 42.04 779.792 43.192C780.474 44.3013 781.392 45.1547 782.544 45.752C783.696 46.3493 784.976 46.648 786.384 46.648C787.834 46.648 789.114 46.3493 790.224 45.752C791.376 45.1547 792.272 44.3013 792.912 43.192C793.594 42.04 793.936 40.696 793.936 39.16C793.936 37.5813 793.594 36.2373 792.912 35.128C792.272 34.0187 791.376 33.1867 790.224 32.632C789.114 32.0347 787.834 31.736 786.384 31.736Z" fill="url(#paint1_linear_24_3048)" fill-opacity="0.7"/>
<path d="M739.157 37.112H754.389V43.96H739.157V37.112ZM752.213 21.432H760.789V65.144H752.213V21.432ZM721.557 72.824H762.069V79.672H721.557V72.824ZM721.557 60.856H730.069V76.728H721.557V60.856ZM713.621 25.336H722.069V34.296H733.333V25.336H741.717V55.928H713.621V25.336ZM722.069 40.824V49.144H733.333V40.824H722.069Z" fill="url(#paint2_linear_24_3048)" fill-opacity="0.7"/>
<path d="M637.303 49.592H641.784C645.495 49.592 648.674 49.5707 651.32 49.528C654.008 49.4427 656.461 49.2933 658.68 49.08C660.898 48.8667 663.095 48.568 665.271 48.184L666.167 54.968C664.418 55.2667 662.69 55.5227 660.983 55.736C659.319 55.9493 657.527 56.0987 655.607 56.184C653.73 56.2693 651.661 56.3333 649.399 56.376C647.181 56.4187 644.642 56.44 641.784 56.44H637.303V49.592ZM637.175 24.76H663.224V43.448H645.751V54.136H637.303V37.112H654.84V31.544H637.175V24.76ZM676.088 21.432H684.663V57.976H676.088V21.432ZM666.616 29.624H677.688V36.408H666.616V29.624ZM666.616 42.232H677.688V49.016H666.616V42.232ZM644.023 60.664H684.663V80.696H676.088V67.384H644.023V60.664Z" fill="url(#paint3_linear_24_3048)" fill-opacity="0.7"/>
<path d="M616.893 21.432H625.405V53.24H616.893V21.432ZM586.045 55.864H594.429V61.368H616.957V55.864H625.405V80.056H586.045V55.864ZM594.429 67.896V73.272H616.957V67.896H594.429ZM593.149 23.864C596.221 23.864 598.973 24.4613 601.405 25.656C603.837 26.8507 605.757 28.4933 607.165 30.584C608.573 32.6747 609.277 35.0853 609.277 37.816C609.277 40.5467 608.573 42.9787 607.165 45.112C605.757 47.2027 603.837 48.8453 601.405 50.04C598.973 51.2347 596.221 51.832 593.149 51.832C590.077 51.832 587.325 51.2347 584.893 50.04C582.461 48.8453 580.541 47.2027 579.133 45.112C577.725 42.9787 577.021 40.5467 577.021 37.816C577.021 35.0853 577.725 32.6747 579.133 30.584C580.541 28.4933 582.461 26.8507 584.893 25.656C587.325 24.4613 590.077 23.864 593.149 23.864ZM593.149 30.84C591.655 30.84 590.311 31.1173 589.117 31.672C587.922 32.2267 586.983 33.0373 586.301 34.104C585.661 35.128 585.341 36.3653 585.341 37.816C585.341 39.3093 585.661 40.5893 586.301 41.656C586.983 42.68 587.922 43.4693 589.117 44.024C590.311 44.536 591.655 44.792 593.149 44.792C594.642 44.792 595.965 44.536 597.117 44.024C598.311 43.4693 599.25 42.68 599.933 41.656C600.615 40.5893 600.957 39.3093 600.957 37.816C600.957 36.3653 600.615 35.128 599.933 34.104C599.25 33.0373 598.311 32.2267 597.117 31.672C595.965 31.1173 594.642 30.84 593.149 30.84Z" fill="url(#paint4_linear_24_3048)" fill-opacity="0.7"/>
</g>
</g>
<path d="M474 70H927V105C927 111.627 921.627 117 915 117H486C479.373 117 474 111.627 474 105V70Z" fill="url(#paint5_linear_24_3048)"/>
<path d="M796.8 17.368H814.336V24.152H796.8V17.368ZM796.8 30.232H814.336V37.016H796.8V30.232ZM779.776 47.192H820.224V68.696H811.648V53.912H779.776V47.192ZM811.648 9.43201H820.224V44.504H811.648V9.43201ZM787.008 12.44C789.952 12.44 792.597 13.08 794.944 14.36C797.291 15.5973 799.147 17.3253 800.512 19.544C801.92 21.7627 802.624 24.3013 802.624 27.16C802.624 29.976 801.92 32.5147 800.512 34.776C799.147 36.9947 797.291 38.744 794.944 40.024C792.597 41.2613 789.952 41.88 787.008 41.88C784.064 41.88 781.397 41.2613 779.008 40.024C776.661 38.744 774.784 36.9947 773.376 34.776C772.011 32.5147 771.328 29.976 771.328 27.16C771.328 24.3013 772.011 21.7627 773.376 19.544C774.784 17.3253 776.661 15.5973 779.008 14.36C781.397 13.08 784.064 12.44 787.008 12.44ZM786.944 19.736C785.536 19.736 784.256 20.0347 783.104 20.632C781.952 21.1867 781.035 22.0187 780.352 23.128C779.712 24.2373 779.392 25.5813 779.392 27.16C779.392 28.696 779.712 30.04 780.352 31.192C781.035 32.3013 781.952 33.1547 783.104 33.752C784.256 34.3493 785.536 34.648 786.944 34.648C788.395 34.648 789.675 34.3493 790.784 33.752C791.936 33.1547 792.832 32.3013 793.472 31.192C794.155 30.04 794.496 28.696 794.496 27.16C794.496 25.5813 794.155 24.2373 793.472 23.128C792.832 22.0187 791.936 21.1867 790.784 20.632C789.675 20.0347 788.395 19.736 786.944 19.736Z" fill="url(#paint6_linear_24_3048)"/>
<path d="M739.717 25.112H754.949V31.96H739.717V25.112ZM752.773 9.43201H761.349V53.144H752.773V9.43201ZM722.117 60.824H762.629V67.672H722.117V60.824ZM722.117 48.856H730.629V64.728H722.117V48.856ZM714.181 13.336H722.629V22.296H733.893V13.336H742.277V43.928H714.181V13.336ZM722.629 28.824V37.144H733.893V28.824H722.629Z" fill="url(#paint7_linear_24_3048)"/>
<path d="M637.864 37.592H642.344C646.056 37.592 649.235 37.5707 651.88 37.528C654.568 37.4427 657.021 37.2933 659.24 37.08C661.459 36.8667 663.656 36.568 665.832 36.184L666.728 42.968C664.979 43.2667 663.251 43.5227 661.544 43.736C659.88 43.9493 658.088 44.0987 656.168 44.184C654.291 44.2693 652.221 44.3333 649.96 44.376C647.741 44.4187 645.203 44.44 642.344 44.44H637.864V37.592ZM637.736 12.76H663.784V31.448H646.312V42.136H637.864V25.112H655.4V19.544H637.736V12.76ZM676.648 9.43201H685.224V45.976H676.648V9.43201ZM667.176 17.624H678.248V24.408H667.176V17.624ZM667.176 30.232H678.248V37.016H667.176V30.232ZM644.584 48.664H685.224V68.696H676.648V55.384H644.584V48.664Z" fill="url(#paint8_linear_24_3048)"/>
<path d="M617.453 9.43201H625.965V41.24H617.453V9.43201ZM586.605 43.864H594.989V49.368H617.517V43.864H625.965V68.056H586.605V43.864ZM594.989 55.896V61.272H617.517V55.896H594.989ZM593.709 11.864C596.781 11.864 599.533 12.4613 601.965 13.656C604.397 14.8507 606.317 16.4933 607.725 18.584C609.133 20.6747 609.837 23.0853 609.837 25.816C609.837 28.5467 609.133 30.9787 607.725 33.112C606.317 35.2027 604.397 36.8453 601.965 38.04C599.533 39.2347 596.781 39.832 593.709 39.832C590.637 39.832 587.885 39.2347 585.453 38.04C583.021 36.8453 581.101 35.2027 579.693 33.112C578.285 30.9787 577.581 28.5467 577.581 25.816C577.581 23.0853 578.285 20.6747 579.693 18.584C581.101 16.4933 583.021 14.8507 585.453 13.656C587.885 12.4613 590.637 11.864 593.709 11.864ZM593.709 18.84C592.216 18.84 590.872 19.1173 589.677 19.672C588.482 20.2267 587.544 21.0373 586.861 22.104C586.221 23.128 585.901 24.3653 585.901 25.816C585.901 27.3093 586.221 28.5893 586.861 29.656C587.544 30.68 588.482 31.4693 589.677 32.024C590.872 32.536 592.216 32.792 593.709 32.792C595.202 32.792 596.525 32.536 597.677 32.024C598.872 31.4693 599.81 30.68 600.493 29.656C601.176 28.5893 601.517 27.3093 601.517 25.816C601.517 24.3653 601.176 23.128 600.493 22.104C599.81 21.0373 598.872 20.2267 597.677 19.672C596.525 19.1173 595.202 18.84 593.709 18.84Z" fill="url(#paint9_linear_24_3048)"/>
<defs>
<filter id="filter0_f_24_3048" x="557.021" y="1.43201" width="282.643" height="99.264" filterUnits="userSpaceOnUse" color-interpolation-filters="sRGB">
<feFlood flood-opacity="0" result="BackgroundImageFix"/>
<feBlend mode="normal" in="SourceGraphic" in2="BackgroundImageFix" result="shape"/>
<feGaussianBlur stdDeviation="10" result="effect1_foregroundBlur_24_3048"/>
</filter>
<linearGradient id="paint0_linear_24_3048" x1="474" y1="62.0036" x2="927" y2="62.0033" gradientUnits="userSpaceOnUse">
<stop stop-color="white" stop-opacity="0.3"/>
<stop offset="0.495" stop-color="#CBB0F8"/>
<stop offset="1" stop-color="white" stop-opacity="0.3"/>
</linearGradient>
<linearGradient id="paint1_linear_24_3048" x1="853.289" y1="54" x2="-402.206" y2="54.0003" gradientUnits="userSpaceOnUse">
<stop stop-color="#F4439F"/>
<stop offset="1" stop-color="#7C3AED"/>
</linearGradient>
<linearGradient id="paint2_linear_24_3048" x1="1142.05" y1="54.5726" x2="-125.051" y2="54.573" gradientUnits="userSpaceOnUse">
<stop stop-color="#F4439F"/>
<stop offset="1" stop-color="#7C3AED"/>
</linearGradient>
<linearGradient id="paint3_linear_24_3048" x1="1544.08" y1="54" x2="251.357" y2="54.0004" gradientUnits="userSpaceOnUse">
<stop stop-color="#F4439F"/>
<stop offset="1" stop-color="#7C3AED"/>
</linearGradient>
<linearGradient id="paint4_linear_24_3048" x1="826.44" y1="54" x2="573.44" y2="54" gradientUnits="userSpaceOnUse">
<stop stop-color="#F4439F"/>
<stop offset="1" stop-color="#7C3AED"/>
</linearGradient>
<linearGradient id="paint5_linear_24_3048" x1="700.5" y1="70" x2="700.5" y2="117" gradientUnits="userSpaceOnUse">
<stop offset="0.0001" stop-color="white" stop-opacity="0.1"/>
<stop offset="1" stop-color="white" stop-opacity="0"/>
</linearGradient>
<linearGradient id="paint6_linear_24_3048" x1="853.849" y1="2.99999" x2="283.259" y2="658.859" gradientUnits="userSpaceOnUse">
<stop stop-color="#F4439F"/>
<stop offset="1" stop-color="#7C3AED"/>
</linearGradient>
<linearGradient id="paint7_linear_24_3048" x1="1142.61" y1="2.88693" x2="561.35" y2="665.543" gradientUnits="userSpaceOnUse">
<stop stop-color="#F4439F"/>
<stop offset="1" stop-color="#7C3AED"/>
</linearGradient>
<linearGradient id="paint8_linear_24_3048" x1="1544.64" y1="2.99999" x2="976.587" y2="675.3" gradientUnits="userSpaceOnUse">
<stop stop-color="#F4439F"/>
<stop offset="1" stop-color="#7C3AED"/>
</linearGradient>
<linearGradient id="paint9_linear_24_3048" x1="827" y1="2.99999" x2="573.693" y2="61.6732" gradientUnits="userSpaceOnUse">
<stop stop-color="#F4439F"/>
<stop offset="1" stop-color="#7C3AED"/>
</linearGradient>
</defs>
</svg>
