<svg width="1400" height="120" viewBox="0 0 1400 120" fill="none" xmlns="http://www.w3.org/2000/svg">
<path d="M406 54H994V70H406V54Z" fill="url(#paint0_linear_24_3112)"/>
<mask id="mask0_24_3112" style="mask-type:alpha" maskUnits="userSpaceOnUse" x="406" y="70" width="588" height="47">
<path d="M406 70H994V117H406V70Z" fill="#C4C4C4"/>
</mask>
<g mask="url(#mask0_24_3112)">
<g filter="url(#filter0_f_24_3112)">
<path d="M843.768 24.824H880.888V31.544H843.768V24.824ZM837.624 50.04H891.256V56.952H837.624V50.04ZM859.832 54.904H868.408V80.696H859.832V54.904ZM876.536 24.824H884.92V30.072C884.92 32.2053 884.877 34.4666 884.792 36.856C884.749 39.2453 884.579 41.8693 884.28 44.728C883.981 47.544 883.427 50.7013 882.616 54.2L874.296 53.176C875.405 48.2693 876.045 43.9813 876.216 40.312C876.429 36.6 876.536 33.1866 876.536 30.072V24.824Z" fill="url(#paint1_linear_24_3112)" fill-opacity="0.7"/>
<path d="M785.021 47.8H826.685V54.648H785.021V47.8ZM778.749 67.064H832.445V74.04H778.749V67.064ZM801.277 50.936H809.725V69.304H801.277V50.936ZM785.021 25.464H826.237V32.248H793.469V50.744H785.021V25.464Z" fill="url(#paint2_linear_24_3112)" fill-opacity="0.7"/>
<path d="M728.8 29.368H746.336V36.152H728.8V29.368ZM728.8 42.232H746.336V49.016H728.8V42.232ZM711.776 59.192H752.224V80.696H743.648V65.912H711.776V59.192ZM743.648 21.432H752.224V56.504H743.648V21.432ZM719.008 24.44C721.952 24.44 724.597 25.08 726.944 26.36C729.291 27.5973 731.147 29.3253 732.512 31.544C733.92 33.7626 734.624 36.3013 734.624 39.16C734.624 41.976 733.92 44.5146 732.512 46.776C731.147 48.9946 729.291 50.744 726.944 52.024C724.597 53.2613 721.952 53.88 719.008 53.88C716.064 53.88 713.397 53.2613 711.008 52.024C708.661 50.744 706.784 48.9946 705.376 46.776C704.011 44.5146 703.328 41.976 703.328 39.16C703.328 36.3013 704.011 33.7626 705.376 31.544C706.784 29.3253 708.661 27.5973 711.008 26.36C713.397 25.08 716.064 24.44 719.008 24.44ZM718.944 31.736C717.536 31.736 716.256 32.0346 715.104 32.632C713.952 33.1866 713.035 34.0186 712.352 35.128C711.712 36.2373 711.392 37.5813 711.392 39.16C711.392 40.696 711.712 42.04 712.352 43.192C713.035 44.3013 713.952 45.1546 715.104 45.752C716.256 46.3493 717.536 46.648 718.944 46.648C720.395 46.648 721.675 46.3493 722.784 45.752C723.936 45.1546 724.832 44.3013 725.472 43.192C726.155 42.04 726.496 40.696 726.496 39.16C726.496 37.5813 726.155 36.2373 725.472 35.128C724.832 34.0186 723.936 33.1866 722.784 32.632C721.675 32.0346 720.395 31.736 718.944 31.736Z" fill="url(#paint3_linear_24_3112)" fill-opacity="0.7"/>
<path d="M671.717 37.112H686.949V43.96H671.717V37.112ZM684.773 21.432H693.349V65.144H684.773V21.432ZM654.117 72.824H694.629V79.672H654.117V72.824ZM654.117 60.856H662.629V76.728H654.117V60.856ZM646.181 25.336H654.629V34.296H665.893V25.336H674.277V55.928H646.181V25.336ZM654.629 40.824V49.144H665.893V40.824H654.629Z" fill="url(#paint4_linear_24_3112)" fill-opacity="0.7"/>
<path d="M605.448 21.304H614.024V80.568H605.448V21.304ZM611.848 44.024H622.28V51H611.848V44.024ZM589.896 27.448H598.28C598.28 33.3786 597.427 38.9893 595.72 44.28C594.056 49.5706 591.283 54.4346 587.4 58.872C583.56 63.2666 578.355 67.1066 571.784 70.392L566.984 63.928C572.189 61.24 576.477 58.2106 579.848 54.84C583.261 51.4693 585.779 47.6506 587.4 43.384C589.064 39.0746 589.896 34.2746 589.896 28.984V27.448ZM570.248 27.448H594.312V34.296H570.248V27.448Z" fill="url(#paint5_linear_24_3112)" fill-opacity="0.7"/>
<path d="M531.213 59.32H539.725V80.76H531.213V59.32ZM508.749 56.888H562.381V63.8H508.749V56.888ZM531.149 32.056H538.637V33.464C538.637 35.4266 538.296 37.3466 537.613 39.224C536.973 41.0586 535.992 42.7866 534.669 44.408C533.346 45.9866 531.704 47.4373 529.741 48.76C527.778 50.04 525.517 51.128 522.957 52.024C520.397 52.8773 517.56 53.496 514.445 53.88L511.437 47.16C514.125 46.8613 516.514 46.3706 518.605 45.688C520.738 45.0053 522.594 44.1946 524.173 43.256C525.752 42.3173 527.053 41.3146 528.077 40.248C529.144 39.1386 529.912 38.008 530.381 36.856C530.893 35.6613 531.149 34.5306 531.149 33.464V32.056ZM532.301 32.056H539.725V33.464C539.725 34.488 539.981 35.5973 540.493 36.792C541.048 37.944 541.837 39.0746 542.861 40.184C543.885 41.2506 545.186 42.2746 546.765 43.256C548.344 44.1946 550.178 45.0053 552.269 45.688C554.402 46.3706 556.792 46.8613 559.437 47.16L556.493 53.88C553.336 53.5386 550.477 52.92 547.917 52.024C545.4 51.0853 543.16 49.976 541.197 48.696C539.234 47.416 537.592 45.9653 536.269 44.344C534.946 42.68 533.944 40.9306 533.261 39.096C532.621 37.2613 532.301 35.384 532.301 33.464V32.056ZM513.549 28.152H557.453V34.872H513.549V28.152ZM531.213 21.56H539.725V30.456H531.213V21.56Z" fill="url(#paint6_linear_24_3112)" fill-opacity="0.7"/>
</g>
</g>
<path d="M406 70H994V102.9C994 110.687 988.627 117 982 117H418C411.373 117 406 110.687 406 102.9V70Z" fill="url(#paint7_linear_24_3112)"/>
<path d="M843.768 12.824H880.888V19.544H843.768V12.824ZM837.624 38.04H891.256V44.952H837.624V38.04ZM859.832 42.904H868.408V68.696H859.832V42.904ZM876.536 12.824H884.92V18.072C884.92 20.2053 884.877 22.4666 884.792 24.856C884.749 27.2453 884.579 29.8693 884.28 32.728C883.981 35.544 883.427 38.7013 882.616 42.2L874.296 41.176C875.405 36.2693 876.045 31.9813 876.216 28.312C876.429 24.6 876.536 21.1866 876.536 18.072V12.824Z" fill="url(#paint8_linear_24_3112)"/>
<path d="M785.021 35.8H826.685V42.648H785.021V35.8ZM778.749 55.064H832.445V62.04H778.749V55.064ZM801.277 38.936H809.725V57.304H801.277V38.936ZM785.021 13.464H826.237V20.248H793.469V38.744H785.021V13.464Z" fill="url(#paint9_linear_24_3112)"/>
<path d="M728.8 17.368H746.336V24.152H728.8V17.368ZM728.8 30.232H746.336V37.016H728.8V30.232ZM711.776 47.192H752.224V68.696H743.648V53.912H711.776V47.192ZM743.648 9.43196H752.224V44.504H743.648V9.43196ZM719.008 12.44C721.952 12.44 724.597 13.08 726.944 14.36C729.291 15.5973 731.147 17.3253 732.512 19.544C733.92 21.7626 734.624 24.3013 734.624 27.16C734.624 29.976 733.92 32.5146 732.512 34.776C731.147 36.9946 729.291 38.744 726.944 40.024C724.597 41.2613 721.952 41.88 719.008 41.88C716.064 41.88 713.397 41.2613 711.008 40.024C708.661 38.744 706.784 36.9946 705.376 34.776C704.011 32.5146 703.328 29.976 703.328 27.16C703.328 24.3013 704.011 21.7626 705.376 19.544C706.784 17.3253 708.661 15.5973 711.008 14.36C713.397 13.08 716.064 12.44 719.008 12.44ZM718.944 19.736C717.536 19.736 716.256 20.0346 715.104 20.632C713.952 21.1866 713.035 22.0186 712.352 23.128C711.712 24.2373 711.392 25.5813 711.392 27.16C711.392 28.696 711.712 30.04 712.352 31.192C713.035 32.3013 713.952 33.1546 715.104 33.752C716.256 34.3493 717.536 34.648 718.944 34.648C720.395 34.648 721.675 34.3493 722.784 33.752C723.936 33.1546 724.832 32.3013 725.472 31.192C726.155 30.04 726.496 28.696 726.496 27.16C726.496 25.5813 726.155 24.2373 725.472 23.128C724.832 22.0186 723.936 21.1866 722.784 20.632C721.675 20.0346 720.395 19.736 718.944 19.736Z" fill="url(#paint10_linear_24_3112)"/>
<path d="M671.717 25.112H686.949V31.96H671.717V25.112ZM684.773 9.43196H693.349V53.144H684.773V9.43196ZM654.117 60.824H694.629V67.672H654.117V60.824ZM654.117 48.856H662.629V64.728H654.117V48.856ZM646.181 13.336H654.629V22.296H665.893V13.336H674.277V43.928H646.181V13.336ZM654.629 28.824V37.144H665.893V28.824H654.629Z" fill="url(#paint11_linear_24_3112)"/>
<path d="M605.448 9.30396H614.024V68.568H605.448V9.30396ZM611.848 32.024H622.28V39H611.848V32.024ZM589.896 15.448H598.28C598.28 21.3786 597.427 26.9893 595.72 32.28C594.056 37.5706 591.283 42.4346 587.4 46.872C583.56 51.2666 578.355 55.1066 571.784 58.392L566.984 51.928C572.189 49.24 576.477 46.2106 579.848 42.84C583.261 39.4693 585.779 35.6506 587.4 31.384C589.064 27.0746 589.896 22.2746 589.896 16.984V15.448ZM570.248 15.448H594.312V22.296H570.248V15.448Z" fill="url(#paint12_linear_24_3112)"/>
<path d="M531.213 47.32H539.725V68.76H531.213V47.32ZM508.749 44.888H562.381V51.8H508.749V44.888ZM531.149 20.056H538.637V21.464C538.637 23.4266 538.296 25.3466 537.613 27.224C536.973 29.0586 535.992 30.7866 534.669 32.408C533.346 33.9866 531.704 35.4373 529.741 36.76C527.778 38.04 525.517 39.128 522.957 40.024C520.397 40.8773 517.56 41.496 514.445 41.88L511.437 35.16C514.125 34.8613 516.514 34.3706 518.605 33.688C520.738 33.0053 522.594 32.1946 524.173 31.256C525.752 30.3173 527.053 29.3146 528.077 28.248C529.144 27.1386 529.912 26.008 530.381 24.856C530.893 23.6613 531.149 22.5306 531.149 21.464V20.056ZM532.301 20.056H539.725V21.464C539.725 22.488 539.981 23.5973 540.493 24.792C541.048 25.944 541.837 27.0746 542.861 28.184C543.885 29.2506 545.186 30.2746 546.765 31.256C548.344 32.1946 550.178 33.0053 552.269 33.688C554.402 34.3706 556.792 34.8613 559.437 35.16L556.493 41.88C553.336 41.5386 550.477 40.92 547.917 40.024C545.4 39.0853 543.16 37.976 541.197 36.696C539.234 35.416 537.592 33.9653 536.269 32.344C534.946 30.68 533.944 28.9306 533.261 27.096C532.621 25.2613 532.301 23.384 532.301 21.464V20.056ZM513.549 16.152H557.453V22.872H513.549V16.152ZM531.213 9.55996H539.725V18.456H531.213V9.55996Z" fill="url(#paint13_linear_24_3112)"/>
<defs>
<filter id="filter0_f_24_3112" x="488.749" y="1.30396" width="422.507" height="99.4561" filterUnits="userSpaceOnUse" color-interpolation-filters="sRGB">
<feFlood flood-opacity="0" result="BackgroundImageFix"/>
<feBlend mode="normal" in="SourceGraphic" in2="BackgroundImageFix" result="shape"/>
<feGaussianBlur stdDeviation="10" result="effect1_foregroundBlur_24_3112"/>
</filter>
<linearGradient id="paint0_linear_24_3112" x1="406" y1="62.0036" x2="994" y2="62.0032" gradientUnits="userSpaceOnUse">
<stop stop-color="white" stop-opacity="0.3"/>
<stop offset="0.495" stop-color="#CBB0F8"/>
<stop offset="1" stop-color="white" stop-opacity="0.3"/>
</linearGradient>
<linearGradient id="paint1_linear_24_3112" x1="914.82" y1="52.3515" x2="-1860.41" y2="52.353" gradientUnits="userSpaceOnUse">
<stop stop-color="#F4439F"/>
<stop offset="1" stop-color="#7C3AED"/>
</linearGradient>
<linearGradient id="paint2_linear_24_3112" x1="1333.74" y1="56.2314" x2="-1438.19" y2="56.2328" gradientUnits="userSpaceOnUse">
<stop stop-color="#F4439F"/>
<stop offset="1" stop-color="#7C3AED"/>
</linearGradient>
<linearGradient id="paint3_linear_24_3112" x1="2004.73" y1="53.9775" x2="-1039.3" y2="53.9794" gradientUnits="userSpaceOnUse">
<stop stop-color="#F4439F"/>
<stop offset="1" stop-color="#7C3AED"/>
</linearGradient>
<linearGradient id="paint4_linear_24_3112" x1="2469.75" y1="54.5519" x2="-602.43" y2="54.5539" gradientUnits="userSpaceOnUse">
<stop stop-color="#F4439F"/>
<stop offset="1" stop-color="#7C3AED"/>
</linearGradient>
<linearGradient id="paint5_linear_24_3112" x1="2774.74" y1="54.1059" x2="83.0218" y2="54.1074" gradientUnits="userSpaceOnUse">
<stop stop-color="#F4439F"/>
<stop offset="1" stop-color="#7C3AED"/>
</linearGradient>
<linearGradient id="paint6_linear_24_3112" x1="894.56" y1="54.0001" x2="505.44" y2="54.0001" gradientUnits="userSpaceOnUse">
<stop stop-color="#F4439F"/>
<stop offset="1" stop-color="#7C3AED"/>
</linearGradient>
<linearGradient id="paint7_linear_24_3112" x1="700" y1="70" x2="700" y2="117" gradientUnits="userSpaceOnUse">
<stop offset="0.0001" stop-color="white" stop-opacity="0.1"/>
<stop offset="1" stop-color="white" stop-opacity="0"/>
</linearGradient>
<linearGradient id="paint8_linear_24_3112" x1="910.826" y1="-1.15022" x2="473.03" y2="1041.14" gradientUnits="userSpaceOnUse">
<stop stop-color="#F4439F"/>
<stop offset="1" stop-color="#7C3AED"/>
</linearGradient>
<linearGradient id="paint9_linear_24_3112" x1="1329.75" y1="-3.50379" x2="776.908" y2="1139.44" gradientUnits="userSpaceOnUse">
<stop stop-color="#F4439F"/>
<stop offset="1" stop-color="#7C3AED"/>
</linearGradient>
<linearGradient id="paint10_linear_24_3112" x1="2000.35" y1="2.85112" x2="1631.13" y2="1025.55" gradientUnits="userSpaceOnUse">
<stop stop-color="#F4439F"/>
<stop offset="1" stop-color="#7C3AED"/>
</linearGradient>
<linearGradient id="paint11_linear_24_3112" x1="2465.33" y1="2.73764" x2="2087.24" y2="1041.44" gradientUnits="userSpaceOnUse">
<stop stop-color="#F4439F"/>
<stop offset="1" stop-color="#7C3AED"/>
</linearGradient>
<linearGradient id="paint12_linear_24_3112" x1="2770.86" y1="2.97952" x2="2366.33" y2="993.816" gradientUnits="userSpaceOnUse">
<stop stop-color="#F4439F"/>
<stop offset="1" stop-color="#7C3AED"/>
</linearGradient>
<linearGradient id="paint13_linear_24_3112" x1="894" y1="3.00008" x2="530.548" y2="132.107" gradientUnits="userSpaceOnUse">
<stop stop-color="#F4439F"/>
<stop offset="1" stop-color="#7C3AED"/>
</linearGradient>
</defs>
</svg>
