<svg width="1400" height="120" viewBox="0 0 1400 120" fill="none" xmlns="http://www.w3.org/2000/svg">
<path d="M474 54H927V70H474V54Z" fill="url(#paint0_linear_24_3016)"/>
<mask id="mask0_24_3016" style="mask-type:alpha" maskUnits="userSpaceOnUse" x="474" y="70" width="453" height="47">
<path d="M474 70H927V117H474V70Z" fill="#C4C4C4"/>
</mask>
<g mask="url(#mask0_24_3016)">
<g filter="url(#filter0_f_24_3016)">
<path d="M798.241 29.368H815.777V36.152H798.241V29.368ZM798.241 42.232H815.777V49.016H798.241V42.232ZM781.217 59.192H821.665V80.696H813.089V65.912H781.217V59.192ZM813.089 21.432H821.665V56.504H813.089V21.432ZM788.449 24.44C791.393 24.44 794.038 25.08 796.385 26.36C798.731 27.5973 800.587 29.3253 801.953 31.544C803.361 33.7627 804.065 36.3013 804.065 39.16C804.065 41.976 803.361 44.5147 801.953 46.776C800.587 48.9947 798.731 50.744 796.385 52.024C794.038 53.2613 791.393 53.88 788.449 53.88C785.505 53.88 782.838 53.2613 780.449 52.024C778.102 50.744 776.225 48.9947 774.817 46.776C773.451 44.5147 772.769 41.976 772.769 39.16C772.769 36.3013 773.451 33.7627 774.817 31.544C776.225 29.3253 778.102 27.5973 780.449 26.36C782.838 25.08 785.505 24.44 788.449 24.44ZM788.385 31.736C786.977 31.736 785.697 32.0347 784.545 32.632C783.393 33.1867 782.475 34.0187 781.793 35.128C781.153 36.2373 780.833 37.5813 780.833 39.16C780.833 40.696 781.153 42.04 781.793 43.192C782.475 44.3013 783.393 45.1547 784.545 45.752C785.697 46.3493 786.977 46.648 788.385 46.648C789.835 46.648 791.115 46.3493 792.225 45.752C793.377 45.1547 794.273 44.3013 794.913 43.192C795.595 42.04 795.937 40.696 795.937 39.16C795.937 37.5813 795.595 36.2373 794.913 35.128C794.273 34.0187 793.377 33.1867 792.225 32.632C791.115 32.0347 789.835 31.736 788.385 31.736Z" fill="url(#paint1_linear_24_3016)" fill-opacity="0.7"/>
<path d="M741.158 37.112H756.39V43.96H741.158V37.112ZM754.214 21.432H762.79V65.144H754.214V21.432ZM723.558 72.824H764.07V79.672H723.558V72.824ZM723.558 60.856H732.07V76.728H723.558V60.856ZM715.622 25.336H724.07V34.296H735.334V25.336H743.718V55.928H715.622V25.336ZM724.07 40.824V49.144H735.334V40.824H724.07Z" fill="url(#paint2_linear_24_3016)" fill-opacity="0.7"/>
<path d="M638.729 25.592H667.017V53.24H638.729V25.592ZM658.633 32.312H647.113V46.584H658.633V32.312ZM675.145 21.432H683.657V56.568H675.145V21.432ZM681.353 35.448H691.529V42.488H681.353V35.448ZM644.105 59.192H683.657V80.696H675.145V65.976H644.105V59.192Z" fill="url(#paint3_linear_24_3016)" fill-opacity="0.7"/>
<path d="M591.438 30.776H598.158V37.432C598.158 40.7173 597.795 44.0027 597.07 47.288C596.387 50.5733 595.363 53.6667 593.998 56.568C592.632 59.4267 590.904 61.9867 588.814 64.248C586.766 66.5093 584.376 68.28 581.646 69.56L576.846 62.84C579.32 61.688 581.454 60.1733 583.246 58.296C585.08 56.4187 586.595 54.328 587.79 52.024C589.027 49.72 589.944 47.3307 590.542 44.856C591.139 42.3387 591.438 39.864 591.438 37.432V30.776ZM593.23 30.776H599.95V37.432C599.95 39.6507 600.248 41.9333 600.846 44.28C601.443 46.6267 602.318 48.888 603.47 51.064C604.664 53.24 606.158 55.224 607.95 57.016C609.784 58.7653 611.918 60.1947 614.35 61.304L609.614 68.088C606.883 66.808 604.494 65.1013 602.446 62.968C600.44 60.792 598.734 58.3387 597.326 55.608C595.96 52.8347 594.936 49.912 594.254 46.84C593.571 43.7253 593.23 40.5893 593.23 37.432V30.776ZM579.15 27.064H611.726V34.104H579.15V27.064ZM616.014 21.432H624.59V80.696H616.014V21.432ZM622.734 44.024H633.166V51H622.734V44.024Z" fill="url(#paint4_linear_24_3016)" fill-opacity="0.7"/>
</g>
</g>
<path d="M474 70H927V105C927 111.627 921.627 117 915 117H486C479.373 117 474 111.627 474 105V70Z" fill="url(#paint5_linear_24_3016)"/>
<path d="M796.799 17.368H814.335V24.152H796.799V17.368ZM796.799 30.232H814.335V37.016H796.799V30.232ZM779.775 47.192H820.223V68.696H811.647V53.912H779.775V47.192ZM811.647 9.43201H820.223V44.504H811.647V9.43201ZM787.007 12.44C789.951 12.44 792.597 13.08 794.943 14.36C797.29 15.5973 799.146 17.3253 800.511 19.544C801.919 21.7627 802.623 24.3013 802.623 27.16C802.623 29.976 801.919 32.5147 800.511 34.776C799.146 36.9947 797.29 38.744 794.943 40.024C792.597 41.2613 789.951 41.88 787.007 41.88C784.063 41.88 781.397 41.2613 779.007 40.024C776.661 38.744 774.783 36.9947 773.375 34.776C772.01 32.5147 771.327 29.976 771.327 27.16C771.327 24.3013 772.01 21.7627 773.375 19.544C774.783 17.3253 776.661 15.5973 779.007 14.36C781.397 13.08 784.063 12.44 787.007 12.44ZM786.943 19.736C785.535 19.736 784.255 20.0347 783.103 20.632C781.951 21.1867 781.034 22.0187 780.351 23.128C779.711 24.2373 779.391 25.5813 779.391 27.16C779.391 28.696 779.711 30.04 780.351 31.192C781.034 32.3013 781.951 33.1547 783.103 33.752C784.255 34.3493 785.535 34.648 786.943 34.648C788.394 34.648 789.674 34.3493 790.783 33.752C791.935 33.1547 792.831 32.3013 793.471 31.192C794.154 30.04 794.495 28.696 794.495 27.16C794.495 25.5813 794.154 24.2373 793.471 23.128C792.831 22.0187 791.935 21.1867 790.783 20.632C789.674 20.0347 788.394 19.736 786.943 19.736Z" fill="url(#paint6_linear_24_3016)"/>
<path d="M739.716 25.112H754.948V31.96H739.716V25.112ZM752.772 9.43201H761.348V53.144H752.772V9.43201ZM722.116 60.824H762.628V67.672H722.116V60.824ZM722.116 48.856H730.628V64.728H722.116V48.856ZM714.18 13.336H722.628V22.296H733.892V13.336H742.276V43.928H714.18V13.336ZM722.628 28.824V37.144H733.892V28.824H722.628Z" fill="url(#paint7_linear_24_3016)"/>
<path d="M637.287 13.592H665.575V41.24H637.287V13.592ZM657.191 20.312H645.671V34.584H657.191V20.312ZM673.703 9.43201H682.215V44.568H673.703V9.43201ZM679.911 23.448H690.087V30.488H679.911V23.448ZM642.663 47.192H682.215V68.696H673.703V53.976H642.663V47.192Z" fill="url(#paint8_linear_24_3016)"/>
<path d="M589.996 18.776H596.716V25.432C596.716 28.7173 596.354 32.0027 595.628 35.288C594.946 38.5733 593.922 41.6667 592.556 44.568C591.191 47.4267 589.463 49.9867 587.372 52.248C585.324 54.5093 582.935 56.28 580.204 57.56L575.404 50.84C577.879 49.688 580.012 48.1733 581.804 46.296C583.639 44.4187 585.154 42.328 586.348 40.024C587.586 37.72 588.503 35.3307 589.1 32.856C589.698 30.3387 589.996 27.864 589.996 25.432V18.776ZM591.788 18.776H598.508V25.432C598.508 27.6507 598.807 29.9333 599.404 32.28C600.002 34.6267 600.876 36.888 602.028 39.064C603.223 41.24 604.716 43.224 606.508 45.016C608.343 46.7653 610.476 48.1947 612.908 49.304L608.172 56.088C605.442 54.808 603.052 53.1013 601.004 50.968C598.999 48.792 597.292 46.3387 595.884 43.608C594.519 40.8347 593.495 37.912 592.812 34.84C592.13 31.7253 591.788 28.5893 591.788 25.432V18.776ZM577.708 15.064H610.284V22.104H577.708V15.064ZM614.572 9.43201H623.148V68.696H614.572V9.43201ZM621.292 32.024H631.724V39H621.292V32.024Z" fill="url(#paint9_linear_24_3016)"/>
<defs>
<filter id="filter0_f_24_3016" x="556.846" y="1.43201" width="284.819" height="99.264" filterUnits="userSpaceOnUse" color-interpolation-filters="sRGB">
<feFlood flood-opacity="0" result="BackgroundImageFix"/>
<feBlend mode="normal" in="SourceGraphic" in2="BackgroundImageFix" result="shape"/>
<feGaussianBlur stdDeviation="10" result="effect1_foregroundBlur_24_3016"/>
</filter>
<linearGradient id="paint0_linear_24_3016" x1="474" y1="62.0036" x2="927" y2="62.0033" gradientUnits="userSpaceOnUse">
<stop stop-color="white" stop-opacity="0.3"/>
<stop offset="0.495" stop-color="#CBB0F8"/>
<stop offset="1" stop-color="white" stop-opacity="0.3"/>
</linearGradient>
<linearGradient id="paint1_linear_24_3016" x1="855.592" y1="54" x2="-411.162" y2="54.0003" gradientUnits="userSpaceOnUse">
<stop stop-color="#F4439F"/>
<stop offset="1" stop-color="#7C3AED"/>
</linearGradient>
<linearGradient id="paint2_linear_24_3016" x1="1146.95" y1="54.5726" x2="-131.521" y2="54.573" gradientUnits="userSpaceOnUse">
<stop stop-color="#F4439F"/>
<stop offset="1" stop-color="#7C3AED"/>
</linearGradient>
<linearGradient id="paint3_linear_24_3016" x1="1456.49" y1="54" x2="283.397" y2="54.0003" gradientUnits="userSpaceOnUse">
<stop stop-color="#F4439F"/>
<stop offset="1" stop-color="#7C3AED"/>
</linearGradient>
<linearGradient id="paint4_linear_24_3016" x1="828.441" y1="54" x2="575.441" y2="54.0001" gradientUnits="userSpaceOnUse">
<stop stop-color="#F4439F"/>
<stop offset="1" stop-color="#7C3AED"/>
</linearGradient>
<linearGradient id="paint5_linear_24_3016" x1="700.5" y1="70" x2="700.5" y2="117" gradientUnits="userSpaceOnUse">
<stop offset="0.0001" stop-color="white" stop-opacity="0.1"/>
<stop offset="1" stop-color="white" stop-opacity="0"/>
</linearGradient>
<linearGradient id="paint6_linear_24_3016" x1="854.15" y1="2.99999" x2="284.287" y2="663.898" gradientUnits="userSpaceOnUse">
<stop stop-color="#F4439F"/>
<stop offset="1" stop-color="#7C3AED"/>
</linearGradient>
<linearGradient id="paint7_linear_24_3016" x1="1145.5" y1="2.88693" x2="564.939" y2="670.682" gradientUnits="userSpaceOnUse">
<stop stop-color="#F4439F"/>
<stop offset="1" stop-color="#7C3AED"/>
</linearGradient>
<linearGradient id="paint8_linear_24_3016" x1="1455.05" y1="2.99999" x2="880.378" y2="620.192" gradientUnits="userSpaceOnUse">
<stop stop-color="#F4439F"/>
<stop offset="1" stop-color="#7C3AED"/>
</linearGradient>
<linearGradient id="paint9_linear_24_3016" x1="826.999" y1="2.99999" x2="573.692" y2="61.6732" gradientUnits="userSpaceOnUse">
<stop stop-color="#F4439F"/>
<stop offset="1" stop-color="#7C3AED"/>
</linearGradient>
</defs>
</svg>
