<svg width="1400" height="120" viewBox="0 0 1400 120" fill="none" xmlns="http://www.w3.org/2000/svg">
<path d="M444 54H956V70H444V54Z" fill="url(#paint0_linear_24_3080)"/>
<mask id="mask0_24_3080" style="mask-type:alpha" maskUnits="userSpaceOnUse" x="444" y="70" width="512" height="47">
<path d="M444 70H956V117H444V70Z" fill="#C4C4C4"/>
</mask>
<g mask="url(#mask0_24_3080)">
<g filter="url(#filter0_f_24_3080)">
<path d="M825.178 29.3682H842.714V36.1522H825.178V29.3682ZM825.178 42.2322H842.714V49.0162H825.178V42.2322ZM808.154 59.1922H848.602V80.6962H840.026V65.9122H808.154V59.1922ZM840.026 21.4322H848.602V56.5042H840.026V21.4322ZM815.386 24.4402C818.33 24.4402 820.976 25.0802 823.322 26.3602C825.669 27.5975 827.525 29.3255 828.89 31.5442C830.298 33.7628 831.002 36.3015 831.002 39.1602C831.002 41.9762 830.298 44.5148 828.89 46.7762C827.525 48.9948 825.669 50.7442 823.322 52.0242C820.976 53.2615 818.33 53.8802 815.386 53.8802C812.442 53.8802 809.776 53.2615 807.386 52.0242C805.039 50.7442 803.162 48.9948 801.754 46.7762C800.389 44.5148 799.706 41.9762 799.706 39.1602C799.706 36.3015 800.389 33.7628 801.754 31.5442C803.162 29.3255 805.039 27.5975 807.386 26.3602C809.776 25.0802 812.442 24.4402 815.386 24.4402ZM815.322 31.7362C813.914 31.7362 812.634 32.0348 811.482 32.6322C810.33 33.1868 809.413 34.0188 808.73 35.1282C808.09 36.2375 807.77 37.5815 807.77 39.1602C807.77 40.6962 808.09 42.0402 808.73 43.1922C809.413 44.3015 810.33 45.1548 811.482 45.7522C812.634 46.3495 813.914 46.6482 815.322 46.6482C816.773 46.6482 818.053 46.3495 819.162 45.7522C820.314 45.1548 821.21 44.3015 821.85 43.1922C822.533 42.0402 822.874 40.6962 822.874 39.1602C822.874 37.5815 822.533 36.2375 821.85 35.1282C821.21 34.0188 820.314 33.1868 819.162 32.6322C818.053 32.0348 816.773 31.7362 815.322 31.7362Z" fill="url(#paint1_linear_24_3080)" fill-opacity="0.7"/>
<path d="M768.095 37.1122H783.327V43.9602H768.095V37.1122ZM781.151 21.4322H789.727V65.1442H781.151V21.4322ZM750.495 72.8242H791.007V79.6722H750.495V72.8242ZM750.495 60.8562H759.007V76.7282H750.495V60.8562ZM742.559 25.3362H751.007V34.2962H762.271V25.3362H770.655V55.9282H742.559V25.3362ZM751.007 40.8242V49.1442H762.271V40.8242H751.007Z" fill="url(#paint2_linear_24_3080)" fill-opacity="0.7"/>
<path d="M670.274 51.8962H711.938V58.6162H670.274V51.8962ZM664.002 67.0002H717.698V73.9122H664.002V67.0002ZM670.274 25.7202H711.49V32.5042H678.914V53.7522H670.274V25.7202ZM676.29 38.7762H710.146V45.3682H676.29V38.7762Z" fill="url(#paint3_linear_24_3080)" fill-opacity="0.7"/>
<path d="M627.143 24.8242H634.503V29.1122C634.503 31.6722 634.141 34.1682 633.415 36.6002C632.733 38.9895 631.709 41.2508 630.343 43.3842C628.978 45.5175 627.293 47.4588 625.287 49.2082C623.325 50.9148 621.063 52.3868 618.503 53.6242C615.943 54.8615 613.127 55.7788 610.055 56.3762L606.407 49.2722C609.053 48.8028 611.463 48.0988 613.639 47.1602C615.858 46.1788 617.799 45.0055 619.463 43.6402C621.127 42.2748 622.535 40.8028 623.687 39.2242C624.839 37.6028 625.693 35.9388 626.247 34.2322C626.845 32.4828 627.143 30.7762 627.143 29.1122V24.8242ZM628.807 24.8242H636.231V29.1122C636.231 30.8188 636.509 32.5468 637.063 34.2962C637.661 36.0455 638.514 37.7308 639.623 39.3522C640.775 40.9308 642.183 42.3815 643.847 43.7042C645.511 45.0268 647.431 46.1788 649.607 47.1602C651.783 48.0988 654.237 48.8028 656.967 49.2722L653.319 56.3762C650.247 55.7788 647.431 54.8615 644.871 53.6242C642.311 52.3868 640.029 50.9148 638.023 49.2082C636.061 47.5015 634.375 45.5815 632.967 43.4482C631.602 41.3148 630.557 39.0322 629.831 36.6002C629.149 34.1682 628.807 31.6722 628.807 29.1122V24.8242ZM605.127 66.4882H658.823V73.4642H605.127V66.4882Z" fill="url(#paint4_linear_24_3080)" fill-opacity="0.7"/>
<path d="M571.276 36.4082H580.236V43.1922H571.276V36.4082ZM548.492 49.2082H552.588C555.404 49.2082 557.922 49.1868 560.14 49.1442C562.402 49.0588 564.556 48.9308 566.604 48.7602C568.652 48.5468 570.764 48.2482 572.94 47.8642L573.644 54.5202C571.426 54.9042 569.25 55.2028 567.116 55.4162C565.026 55.5868 562.807 55.7148 560.46 55.8002C558.114 55.8428 555.49 55.8642 552.588 55.8642H548.492V49.2082ZM548.492 25.2722H570.828V32.0562H556.684V52.0882H548.492V25.2722ZM554.316 37.2402H568.716V43.6402H554.316V37.2402ZM555.916 60.7282H596.748V80.6962H588.236V67.4482H555.916V60.7282ZM588.62 21.3682H596.748V58.4242H588.62V21.3682ZM577.036 22.5202H585.036V57.9762H577.036V22.5202Z" fill="url(#paint5_linear_24_3080)" fill-opacity="0.7"/>
</g>
</g>
<path d="M444 70H956V105C956 111.627 950.627 117 944 117H456C449.373 117 444 111.627 444 105V70Z" fill="url(#paint6_linear_24_3080)"/>
<path d="M825.737 17.3679H843.273V24.1519H825.737V17.3679ZM825.737 30.2319H843.273V37.0159H825.737V30.2319ZM808.713 47.1919H849.161V68.6959H840.585V53.9119H808.713V47.1919ZM840.585 9.43192H849.161V44.5039H840.585V9.43192ZM815.945 12.4399C818.889 12.4399 821.534 13.0799 823.881 14.3599C826.227 15.5973 828.083 17.3253 829.449 19.5439C830.857 21.7626 831.561 24.3013 831.561 27.1599C831.561 29.9759 830.857 32.5146 829.449 34.7759C828.083 36.9946 826.227 38.7439 823.881 40.0239C821.534 41.2613 818.889 41.8799 815.945 41.8799C813.001 41.8799 810.334 41.2613 807.945 40.0239C805.598 38.7439 803.721 36.9946 802.313 34.7759C800.947 32.5146 800.265 29.9759 800.265 27.1599C800.265 24.3013 800.947 21.7626 802.313 19.5439C803.721 17.3253 805.598 15.5973 807.945 14.3599C810.334 13.0799 813.001 12.4399 815.945 12.4399ZM815.881 19.7359C814.473 19.7359 813.193 20.0346 812.041 20.6319C810.889 21.1866 809.971 22.0186 809.289 23.1279C808.649 24.2373 808.329 25.5813 808.329 27.1599C808.329 28.6959 808.649 30.0399 809.289 31.1919C809.971 32.3013 810.889 33.1546 812.041 33.7519C813.193 34.3493 814.473 34.6479 815.881 34.6479C817.331 34.6479 818.611 34.3493 819.721 33.7519C820.873 33.1546 821.769 32.3013 822.409 31.1919C823.091 30.0399 823.433 28.6959 823.433 27.1599C823.433 25.5813 823.091 24.2373 822.409 23.1279C821.769 22.0186 820.873 21.1866 819.721 20.6319C818.611 20.0346 817.331 19.7359 815.881 19.7359Z" fill="url(#paint7_linear_24_3080)"/>
<path d="M768.654 25.1119H783.886V31.9599H768.654V25.1119ZM781.71 9.43192H790.286V53.1439H781.71V9.43192ZM751.054 60.8239H791.566V67.6719H751.054V60.8239ZM751.054 48.8559H759.566V64.7279H751.054V48.8559ZM743.118 13.3359H751.566V22.2959H762.83V13.3359H771.214V43.9279H743.118V13.3359ZM751.566 28.8239V37.1439H762.83V28.8239H751.566Z" fill="url(#paint8_linear_24_3080)"/>
<path d="M670.833 39.8959H712.497V46.6159H670.833V39.8959ZM664.561 54.9999H718.257V61.9119H664.561V54.9999ZM670.833 13.7199H712.049V20.5039H679.473V41.7519H670.833V13.7199ZM676.849 26.7759H710.705V33.3679H676.849V26.7759Z" fill="url(#paint9_linear_24_3080)"/>
<path d="M627.702 12.8239H635.062V17.1119C635.062 19.6719 634.699 22.1679 633.974 24.5999C633.291 26.9893 632.267 29.2506 630.902 31.3839C629.536 33.5173 627.851 35.4586 625.846 37.2079C623.883 38.9146 621.622 40.3866 619.062 41.6239C616.502 42.8613 613.686 43.7786 610.614 44.3759L606.966 37.2719C609.611 36.8026 612.022 36.0986 614.198 35.1599C616.416 34.1786 618.358 33.0053 620.022 31.6399C621.686 30.2746 623.094 28.8026 624.246 27.2239C625.398 25.6026 626.251 23.9386 626.806 22.2319C627.403 20.4826 627.702 18.7759 627.702 17.1119V12.8239ZM629.366 12.8239H636.79V17.1119C636.79 18.8186 637.067 20.5466 637.622 22.2959C638.219 24.0453 639.072 25.7306 640.182 27.3519C641.334 28.9306 642.742 30.3813 644.406 31.7039C646.07 33.0266 647.99 34.1786 650.166 35.1599C652.342 36.0986 654.795 36.8026 657.526 37.2719L653.878 44.3759C650.806 43.7786 647.99 42.8613 645.43 41.6239C642.87 40.3866 640.587 38.9146 638.582 37.2079C636.619 35.5013 634.934 33.5813 633.526 31.4479C632.16 29.3146 631.115 27.0319 630.39 24.5999C629.707 22.1679 629.366 19.6719 629.366 17.1119V12.8239ZM605.686 54.4879H659.382V61.4639H605.686V54.4879Z" fill="url(#paint10_linear_24_3080)"/>
<path d="M571.835 24.4079H580.795V31.1919H571.835V24.4079ZM549.051 37.2079H553.147C555.963 37.2079 558.48 37.1866 560.699 37.1439C562.96 37.0586 565.115 36.9306 567.163 36.7599C569.211 36.5466 571.323 36.2479 573.499 35.8639L574.203 42.5199C571.984 42.9039 569.808 43.2026 567.675 43.4159C565.584 43.5866 563.365 43.7146 561.019 43.7999C558.672 43.8426 556.048 43.8639 553.147 43.8639H549.051V37.2079ZM549.051 13.2719H571.387V20.0559H557.243V40.0879H549.051V13.2719ZM554.875 25.2399H569.275V31.6399H554.875V25.2399ZM556.475 48.7279H597.307V68.6959H588.795V55.4479H556.475V48.7279ZM589.179 9.36792H597.307V46.4239H589.179V9.36792ZM577.595 10.5199H585.595V45.9759H577.595V10.5199Z" fill="url(#paint11_linear_24_3080)"/>
<defs>
<filter id="filter0_f_24_3080" x="528.492" y="1.36816" width="340.11" height="99.3281" filterUnits="userSpaceOnUse" color-interpolation-filters="sRGB">
<feFlood flood-opacity="0" result="BackgroundImageFix"/>
<feBlend mode="normal" in="SourceGraphic" in2="BackgroundImageFix" result="shape"/>
<feGaussianBlur stdDeviation="10" result="effect1_foregroundBlur_24_3080"/>
</filter>
<linearGradient id="paint0_linear_24_3080" x1="444" y1="62.0036" x2="956" y2="62.0033" gradientUnits="userSpaceOnUse">
<stop stop-color="white" stop-opacity="0.3"/>
<stop offset="0.495" stop-color="#CBB0F8"/>
<stop offset="1" stop-color="white" stop-opacity="0.3"/>
</linearGradient>
<linearGradient id="paint1_linear_24_3080" x1="890.575" y1="53.9713" x2="-1024.39" y2="53.9721" gradientUnits="userSpaceOnUse">
<stop stop-color="#F4439F"/>
<stop offset="1" stop-color="#7C3AED"/>
</linearGradient>
<linearGradient id="paint2_linear_24_3080" x1="1247.73" y1="54.5446" x2="-684.943" y2="54.5454" gradientUnits="userSpaceOnUse">
<stop stop-color="#F4439F"/>
<stop offset="1" stop-color="#7C3AED"/>
</linearGradient>
<linearGradient id="paint3_linear_24_3080" x1="1618.45" y1="56.183" x2="-125.333" y2="56.1835" gradientUnits="userSpaceOnUse">
<stop stop-color="#F4439F"/>
<stop offset="1" stop-color="#7C3AED"/>
</linearGradient>
<linearGradient id="paint4_linear_24_3080" x1="1947.51" y1="56.9552" x2="203.723" y2="56.9558" gradientUnits="userSpaceOnUse">
<stop stop-color="#F4439F"/>
<stop offset="1" stop-color="#7C3AED"/>
</linearGradient>
<linearGradient id="paint5_linear_24_3080" x1="855.441" y1="54.0002" x2="543.441" y2="54.0002" gradientUnits="userSpaceOnUse">
<stop stop-color="#F4439F"/>
<stop offset="1" stop-color="#7C3AED"/>
</linearGradient>
<linearGradient id="paint6_linear_24_3080" x1="700" y1="70" x2="700" y2="117" gradientUnits="userSpaceOnUse">
<stop offset="0.0001" stop-color="white" stop-opacity="0.1"/>
<stop offset="1" stop-color="white" stop-opacity="0"/>
</linearGradient>
<linearGradient id="paint7_linear_24_3080" x1="891.134" y1="2.92898" x2="394.426" y2="872.82" gradientUnits="userSpaceOnUse">
<stop stop-color="#F4439F"/>
<stop offset="1" stop-color="#7C3AED"/>
</linearGradient>
<linearGradient id="paint8_linear_24_3080" x1="1248.29" y1="2.81577" x2="740.747" y2="884.407" gradientUnits="userSpaceOnUse">
<stop stop-color="#F4439F"/>
<stop offset="1" stop-color="#7C3AED"/>
</linearGradient>
<linearGradient id="paint9_linear_24_3080" x1="1619.01" y1="-3.82919" x2="933.049" y2="885.741" gradientUnits="userSpaceOnUse">
<stop stop-color="#F4439F"/>
<stop offset="1" stop-color="#7C3AED"/>
</linearGradient>
<linearGradient id="paint10_linear_24_3080" x1="1948.07" y1="-2.6148" x2="1270.05" y2="884.83" gradientUnits="userSpaceOnUse">
<stop stop-color="#F4439F"/>
<stop offset="1" stop-color="#7C3AED"/>
</linearGradient>
<linearGradient id="paint11_linear_24_3080" x1="855.999" y1="2.99991" x2="551.69" y2="89.9242" gradientUnits="userSpaceOnUse">
<stop stop-color="#F4439F"/>
<stop offset="1" stop-color="#7C3AED"/>
</linearGradient>
</defs>
</svg>
