<svg width="1400" height="120" viewBox="0 0 1400 120" fill="none" xmlns="http://www.w3.org/2000/svg">
<path d="M415 54H986V70H415V54Z" fill="url(#paint0_linear_24_3464)"/>
<mask id="mask0_24_3464" style="mask-type:alpha" maskUnits="userSpaceOnUse" x="415" y="70" width="571" height="47">
<path d="M415 70H986V117H415V70Z" fill="#C4C4C4"/>
</mask>
<g mask="url(#mask0_24_3464)">
<g filter="url(#filter0_f_24_3464)">
<path d="M855.116 29.3681H872.652V36.1521H855.116V29.3681ZM855.116 42.2321H872.652V49.0161H855.116V42.2321ZM838.092 59.1921H878.54V80.6961H869.964V65.9121H838.092V59.1921ZM869.964 21.4321H878.54V56.5041H869.964V21.4321ZM845.324 24.4401C848.268 24.4401 850.913 25.0801 853.26 26.3601C855.606 27.5974 857.462 29.3254 858.828 31.5441C860.236 33.7627 860.94 36.3014 860.94 39.1601C860.94 41.9761 860.236 44.5147 858.828 46.7761C857.462 48.9947 855.606 50.7441 853.26 52.0241C850.913 53.2614 848.268 53.8801 845.324 53.8801C842.38 53.8801 839.713 53.2614 837.324 52.0241C834.977 50.7441 833.1 48.9947 831.692 46.7761C830.326 44.5147 829.644 41.9761 829.644 39.1601C829.644 36.3014 830.326 33.7627 831.692 31.5441C833.1 29.3254 834.977 27.5974 837.324 26.3601C839.713 25.0801 842.38 24.4401 845.324 24.4401ZM845.26 31.7361C843.852 31.7361 842.572 32.0347 841.42 32.6321C840.268 33.1867 839.35 34.0187 838.668 35.1281C838.028 36.2374 837.708 37.5814 837.708 39.1601C837.708 40.6961 838.028 42.0401 838.668 43.1921C839.35 44.3014 840.268 45.1547 841.42 45.7521C842.572 46.3494 843.852 46.6481 845.26 46.6481C846.71 46.6481 847.99 46.3494 849.1 45.7521C850.252 45.1547 851.148 44.3014 851.788 43.1921C852.47 42.0401 852.812 40.6961 852.812 39.1601C852.812 37.5814 852.47 36.2374 851.788 35.1281C851.148 34.0187 850.252 33.1867 849.1 32.6321C847.99 32.0347 846.71 31.7361 845.26 31.7361Z" fill="url(#paint1_linear_24_3464)" fill-opacity="0.7"/>
<path d="M798.033 37.1121H813.265V43.9601H798.033V37.1121ZM811.089 21.4321H819.665V65.1441H811.089V21.4321ZM780.433 72.8241H820.945V79.6721H780.433V72.8241ZM780.433 60.8561H788.945V76.7281H780.433V60.8561ZM772.497 25.3361H780.945V34.2961H792.209V25.3361H800.593V55.9281H772.497V25.3361ZM780.945 40.8241V49.1441H792.209V40.8241H780.945Z" fill="url(#paint2_linear_24_3464)" fill-opacity="0.7"/>
<path d="M708.212 30.7761H714.996V37.4321C714.996 40.8454 714.633 44.1947 713.908 47.4801C713.225 50.7654 712.18 53.8587 710.772 56.7601C709.406 59.6187 707.678 62.1574 705.588 64.3761C703.497 66.5521 701.065 68.2801 698.292 69.5601L693.428 62.8401C695.902 61.6881 698.057 60.1947 699.892 58.3601C701.769 56.5254 703.305 54.4774 704.5 52.2161C705.737 49.9121 706.654 47.5014 707.252 44.9841C707.892 42.4241 708.212 39.9067 708.212 37.4321V30.7761ZM710.068 30.7761H716.788V37.4321C716.788 39.7787 717.086 42.1681 717.684 44.6001C718.324 46.9894 719.241 49.2721 720.436 51.4481C721.63 53.5814 723.145 55.5014 724.98 57.2081C726.814 58.9147 728.99 60.2801 731.508 61.3041L726.836 68.0881C724.02 66.8507 721.566 65.1867 719.476 63.0961C717.385 61.0054 715.636 58.5947 714.228 55.8641C712.82 53.1334 711.774 50.2107 711.092 47.0961C710.409 43.9387 710.068 40.7174 710.068 37.4321V30.7761ZM695.796 27.0641H729.076V34.1041H695.796V27.0641ZM734.58 21.4321H743.092V80.6961H734.58V21.4321Z" fill="url(#paint3_linear_24_3464)" fill-opacity="0.7"/>
<path d="M675.705 21.3041H684.217V80.7601H675.705V21.3041ZM652.281 25.4641C655.31 25.4641 657.998 26.3387 660.345 28.0881C662.691 29.7947 664.526 32.2481 665.849 35.4481C667.214 38.6054 667.897 42.3387 667.897 46.6481C667.897 51.0001 667.214 54.7761 665.849 57.9761C664.526 61.1334 662.691 63.5867 660.345 65.3361C657.998 67.0427 655.31 67.8961 652.281 67.8961C649.294 67.8961 646.627 67.0427 644.281 65.3361C641.934 63.5867 640.078 61.1334 638.713 57.9761C637.39 54.7761 636.729 51.0001 636.729 46.6481C636.729 42.3387 637.39 38.6054 638.713 35.4481C640.078 32.2481 641.934 29.7947 644.281 28.0881C646.627 26.3387 649.294 25.4641 652.281 25.4641ZM652.281 33.2081C650.83 33.2081 649.55 33.7201 648.441 34.7441C647.331 35.7681 646.457 37.2827 645.817 39.2881C645.219 41.2507 644.921 43.7041 644.921 46.6481C644.921 49.5494 645.219 52.0241 645.817 54.0721C646.457 56.0774 647.331 57.5921 648.441 58.6161C649.55 59.6401 650.83 60.1521 652.281 60.1521C653.774 60.1521 655.075 59.6401 656.185 58.6161C657.294 57.5921 658.147 56.0774 658.745 54.0721C659.385 52.0241 659.705 49.5494 659.705 46.6481C659.705 43.7041 659.385 41.2507 658.745 39.2881C658.147 37.2827 657.294 35.7681 656.185 34.7441C655.075 33.7201 653.774 33.2081 652.281 33.2081Z" fill="url(#paint4_linear_24_3464)" fill-opacity="0.7"/>
<path d="M619.518 21.4321H627.582V80.6961H619.518V21.4321ZM602.11 43.0001H610.046V50.4241H602.11V43.0001ZM607.742 22.5201H615.678V77.8801H607.742V22.5201ZM576.574 28.0881H603.582V34.8721H576.574V28.0881ZM576.51 67.2561L575.614 60.2801C577.448 60.2801 579.56 60.2801 581.95 60.2801C584.339 60.2374 586.835 60.1734 589.438 60.0881C592.04 59.9601 594.622 59.8107 597.182 59.6401C599.784 59.4267 602.216 59.1707 604.478 58.8721L604.99 65.0161C601.96 65.6987 598.696 66.2107 595.198 66.5521C591.699 66.8507 588.307 67.0427 585.022 67.1281C581.779 67.2134 578.942 67.2561 576.51 67.2561ZM580.222 32.3761H587.902V62.1361H580.222V32.3761ZM592.19 32.3761H599.806V62.1361H592.19V32.3761Z" fill="url(#paint5_linear_24_3464)" fill-opacity="0.7"/>
<path d="M560.515 21.4321H568.579V57.8481H560.515V21.4321ZM549.187 22.4561H557.123V57.7201H549.187V22.4561ZM540.483 50.3601H552.387V55.9281H540.483V50.3601ZM528.515 46.2001H536.643V57.5281H528.515V46.2001ZM517.699 49.6561L516.931 43.3201C518.851 43.3201 521.027 43.3201 523.459 43.3201C525.933 43.2774 528.515 43.2134 531.203 43.1281C533.891 43.0001 536.557 42.8294 539.203 42.6161C541.891 42.4027 544.429 42.1041 546.819 41.7201L547.395 47.3521C544.152 48.0774 540.717 48.6107 537.091 48.9521C533.507 49.2507 530.008 49.4427 526.595 49.5281C523.224 49.6134 520.259 49.6561 517.699 49.6561ZM526.403 59.7681H534.851V63.6721H560.195V59.7681H568.579V80.0561H526.403V59.7681ZM534.851 69.9441V73.4641H560.195V69.9441H534.851ZM532.291 23.3521C536.173 23.3521 539.309 24.1627 541.699 25.7841C544.088 27.4054 545.283 29.5601 545.283 32.2481C545.283 34.9361 544.088 37.0907 541.699 38.7121C539.309 40.3334 536.173 41.1441 532.291 41.1441C528.451 41.1441 525.336 40.3334 522.947 38.7121C520.557 37.0907 519.363 34.9361 519.363 32.2481C519.363 29.5601 520.557 27.4054 522.947 25.7841C525.336 24.1627 528.451 23.3521 532.291 23.3521ZM532.291 29.1761C530.669 29.1761 529.368 29.4321 528.387 29.9441C527.405 30.4561 526.915 31.2241 526.915 32.2481C526.915 33.2721 527.405 34.0401 528.387 34.5521C529.368 35.0641 530.669 35.3201 532.291 35.3201C533.912 35.3201 535.213 35.0641 536.195 34.5521C537.176 34.0401 537.667 33.2721 537.667 32.2481C537.667 31.2241 537.176 30.4561 536.195 29.9441C535.213 29.4321 533.912 29.1761 532.291 29.1761Z" fill="url(#paint6_linear_24_3464)" fill-opacity="0.7"/>
</g>
</g>
<path d="M415 70H986V105C986 111.627 980.627 117 974 117H427C420.373 117 415 111.627 415 105V70Z" fill="url(#paint7_linear_24_3464)"/>
<path d="M855.675 17.368H873.211V24.152H855.675V17.368ZM855.675 30.232H873.211V37.016H855.675V30.232ZM838.651 47.192H879.099V68.696H870.523V53.912H838.651V47.192ZM870.523 9.43196H879.099V44.504H870.523V9.43196ZM845.883 12.44C848.827 12.44 851.473 13.08 853.819 14.36C856.166 15.5973 858.022 17.3253 859.387 19.544C860.795 21.7626 861.499 24.3013 861.499 27.16C861.499 29.976 860.795 32.5146 859.387 34.776C858.022 36.9946 856.166 38.744 853.819 40.024C851.473 41.2613 848.827 41.88 845.883 41.88C842.939 41.88 840.273 41.2613 837.883 40.024C835.537 38.744 833.659 36.9946 832.251 34.776C830.886 32.5146 830.203 29.976 830.203 27.16C830.203 24.3013 830.886 21.7626 832.251 19.544C833.659 17.3253 835.537 15.5973 837.883 14.36C840.273 13.08 842.939 12.44 845.883 12.44ZM845.819 19.736C844.411 19.736 843.131 20.0346 841.979 20.632C840.827 21.1866 839.91 22.0186 839.227 23.128C838.587 24.2373 838.267 25.5813 838.267 27.16C838.267 28.696 838.587 30.04 839.227 31.192C839.91 32.3013 840.827 33.1546 841.979 33.752C843.131 34.3493 844.411 34.648 845.819 34.648C847.27 34.648 848.55 34.3493 849.659 33.752C850.811 33.1546 851.707 32.3013 852.347 31.192C853.03 30.04 853.371 28.696 853.371 27.16C853.371 25.5813 853.03 24.2373 852.347 23.128C851.707 22.0186 850.811 21.1866 849.659 20.632C848.55 20.0346 847.27 19.736 845.819 19.736Z" fill="url(#paint8_linear_24_3464)"/>
<path d="M798.592 25.112H813.824V31.96H798.592V25.112ZM811.648 9.43196H820.224V53.144H811.648V9.43196ZM780.992 60.824H821.504V67.672H780.992V60.824ZM780.992 48.856H789.504V64.728H780.992V48.856ZM773.056 13.336H781.504V22.296H792.768V13.336H801.152V43.928H773.056V13.336ZM781.504 28.824V37.144H792.768V28.824H781.504Z" fill="url(#paint9_linear_24_3464)"/>
<path d="M708.771 18.776H715.555V25.432C715.555 28.8453 715.193 32.1946 714.467 35.48C713.785 38.7653 712.739 41.8586 711.331 44.76C709.966 47.6186 708.238 50.1573 706.147 52.376C704.057 54.552 701.625 56.28 698.851 57.56L693.987 50.84C696.462 49.688 698.617 48.1946 700.451 46.36C702.329 44.5253 703.865 42.4773 705.059 40.216C706.297 37.912 707.214 35.5013 707.811 32.984C708.451 30.424 708.771 27.9066 708.771 25.432V18.776ZM710.627 18.776H717.347V25.432C717.347 27.7786 717.646 30.168 718.243 32.6C718.883 34.9893 719.801 37.272 720.995 39.448C722.19 41.5813 723.705 43.5013 725.539 45.208C727.374 46.9146 729.55 48.28 732.067 49.304L727.395 56.088C724.579 54.8506 722.126 53.1866 720.035 51.096C717.945 49.0053 716.195 46.5946 714.787 43.864C713.379 41.1333 712.334 38.2106 711.651 35.096C710.969 31.9386 710.627 28.7173 710.627 25.432V18.776ZM696.355 15.064H729.635V22.104H696.355V15.064ZM735.139 9.43196H743.651V68.696H735.139V9.43196Z" fill="url(#paint10_linear_24_3464)"/>
<path d="M676.264 9.30396H684.776V68.76H676.264V9.30396ZM652.84 13.464C655.87 13.464 658.558 14.3386 660.904 16.088C663.251 17.7946 665.086 20.248 666.408 23.448C667.774 26.6053 668.456 30.3386 668.456 34.648C668.456 39 667.774 42.776 666.408 45.976C665.086 49.1333 663.251 51.5866 660.904 53.336C658.558 55.0426 655.87 55.896 652.84 55.896C649.854 55.896 647.187 55.0426 644.84 53.336C642.494 51.5866 640.638 49.1333 639.272 45.976C637.95 42.776 637.288 39 637.288 34.648C637.288 30.3386 637.95 26.6053 639.272 23.448C640.638 20.248 642.494 17.7946 644.84 16.088C647.187 14.3386 649.854 13.464 652.84 13.464ZM652.84 21.208C651.39 21.208 650.11 21.72 649 22.744C647.891 23.768 647.016 25.2826 646.376 27.288C645.779 29.2506 645.48 31.704 645.48 34.648C645.48 37.5493 645.779 40.024 646.376 42.072C647.016 44.0773 647.891 45.592 649 46.616C650.11 47.64 651.39 48.152 652.84 48.152C654.334 48.152 655.635 47.64 656.744 46.616C657.854 45.592 658.707 44.0773 659.304 42.072C659.944 40.024 660.264 37.5493 660.264 34.648C660.264 31.704 659.944 29.2506 659.304 27.288C658.707 25.2826 657.854 23.768 656.744 22.744C655.635 21.72 654.334 21.208 652.84 21.208Z" fill="url(#paint11_linear_24_3464)"/>
<path d="M620.077 9.43196H628.141V68.696H620.077V9.43196ZM602.669 31H610.605V38.424H602.669V31ZM608.301 10.52H616.237V65.88H608.301V10.52ZM577.133 16.088H604.141V22.872H577.133V16.088ZM577.069 55.256L576.173 48.28C578.008 48.28 580.12 48.28 582.509 48.28C584.899 48.2373 587.395 48.1733 589.997 48.088C592.6 47.96 595.181 47.8106 597.741 47.64C600.344 47.4266 602.776 47.1706 605.037 46.872L605.549 53.016C602.52 53.6986 599.256 54.2106 595.757 54.552C592.259 54.8506 588.867 55.0426 585.581 55.128C582.339 55.2133 579.501 55.256 577.069 55.256ZM580.781 20.376H588.461V50.136H580.781V20.376ZM592.749 20.376H600.365V50.136H592.749V20.376Z" fill="url(#paint12_linear_24_3464)"/>
<path d="M561.074 9.43196H569.138V45.848H561.074V9.43196ZM549.746 10.456H557.682V45.72H549.746V10.456ZM541.042 38.36H552.946V43.928H541.042V38.36ZM529.074 34.2H537.202V45.528H529.074V34.2ZM518.258 37.656L517.49 31.32C519.41 31.32 521.586 31.32 524.018 31.32C526.493 31.2773 529.074 31.2133 531.762 31.128C534.45 31 537.117 30.8293 539.762 30.616C542.45 30.4026 544.989 30.104 547.378 29.72L547.954 35.352C544.712 36.0773 541.277 36.6106 537.65 36.952C534.066 37.2506 530.568 37.4426 527.154 37.528C523.784 37.6133 520.818 37.656 518.258 37.656ZM526.962 47.768H535.41V51.672H560.754V47.768H569.138V68.056H526.962V47.768ZM535.41 57.944V61.464H560.754V57.944H535.41ZM532.85 11.352C536.733 11.352 539.869 12.1626 542.258 13.784C544.648 15.4053 545.842 17.56 545.842 20.248C545.842 22.936 544.648 25.0906 542.258 26.712C539.869 28.3333 536.733 29.144 532.85 29.144C529.01 29.144 525.896 28.3333 523.506 26.712C521.117 25.0906 519.922 22.936 519.922 20.248C519.922 17.56 521.117 15.4053 523.506 13.784C525.896 12.1626 529.01 11.352 532.85 11.352ZM532.85 17.176C531.229 17.176 529.928 17.432 528.946 17.944C527.965 18.456 527.474 19.224 527.474 20.248C527.474 21.272 527.965 22.04 528.946 22.552C529.928 23.064 531.229 23.32 532.85 23.32C534.472 23.32 535.773 23.064 536.754 22.552C537.736 22.04 538.226 21.272 538.226 20.248C538.226 19.224 537.736 18.456 536.754 17.944C535.773 17.432 534.472 17.176 532.85 17.176Z" fill="url(#paint13_linear_24_3464)"/>
<defs>
<filter id="filter0_f_24_3464" x="496.931" y="1.30408" width="401.609" height="99.4561" filterUnits="userSpaceOnUse" color-interpolation-filters="sRGB">
<feFlood flood-opacity="0" result="BackgroundImageFix"/>
<feBlend mode="normal" in="SourceGraphic" in2="BackgroundImageFix" result="shape"/>
<feGaussianBlur stdDeviation="10" result="effect1_foregroundBlur_24_3464"/>
</filter>
<linearGradient id="paint0_linear_24_3464" x1="415" y1="62.0036" x2="986" y2="62.0032" gradientUnits="userSpaceOnUse">
<stop stop-color="white" stop-opacity="0.3"/>
<stop offset="0.495" stop-color="#CBB0F8"/>
<stop offset="1" stop-color="white" stop-opacity="0.3"/>
</linearGradient>
<linearGradient id="paint1_linear_24_3464" x1="929.576" y1="53.9776" x2="-1814.14" y2="53.9792" gradientUnits="userSpaceOnUse">
<stop stop-color="#F4439F"/>
<stop offset="1" stop-color="#7C3AED"/>
</linearGradient>
<linearGradient id="paint2_linear_24_3464" x1="1359.93" y1="54.5521" x2="-1409.16" y2="54.5537" gradientUnits="userSpaceOnUse">
<stop stop-color="#F4439F"/>
<stop offset="1" stop-color="#7C3AED"/>
</linearGradient>
<linearGradient id="paint3_linear_24_3464" x1="1915" y1="53.9776" x2="-786.293" y2="53.9791" gradientUnits="userSpaceOnUse">
<stop stop-color="#F4439F"/>
<stop offset="1" stop-color="#7C3AED"/>
</linearGradient>
<linearGradient id="paint4_linear_24_3464" x1="2410.81" y1="54.0001" x2="-414.261" y2="54.0018" gradientUnits="userSpaceOnUse">
<stop stop-color="#F4439F"/>
<stop offset="1" stop-color="#7C3AED"/>
</linearGradient>
<linearGradient id="paint5_linear_24_3464" x1="2672.8" y1="53.9776" x2="91.2706" y2="53.979" gradientUnits="userSpaceOnUse">
<stop stop-color="#F4439F"/>
<stop offset="1" stop-color="#7C3AED"/>
</linearGradient>
<linearGradient id="paint6_linear_24_3464" x1="885.441" y1="54.0001" x2="514.441" y2="54.0002" gradientUnits="userSpaceOnUse">
<stop stop-color="#F4439F"/>
<stop offset="1" stop-color="#7C3AED"/>
</linearGradient>
<linearGradient id="paint7_linear_24_3464" x1="700.5" y1="70" x2="700.5" y2="117" gradientUnits="userSpaceOnUse">
<stop offset="0.0001" stop-color="white" stop-opacity="0.1"/>
<stop offset="1" stop-color="white" stop-opacity="0"/>
</linearGradient>
<linearGradient id="paint8_linear_24_3464" x1="930.135" y1="2.85112" x2="531.958" y2="999.824" gradientUnits="userSpaceOnUse">
<stop stop-color="#F4439F"/>
<stop offset="1" stop-color="#7C3AED"/>
</linearGradient>
<linearGradient id="paint9_linear_24_3464" x1="1360.49" y1="2.73766" x2="952.893" y2="1014.93" gradientUnits="userSpaceOnUse">
<stop stop-color="#F4439F"/>
<stop offset="1" stop-color="#7C3AED"/>
</linearGradient>
<linearGradient id="paint10_linear_24_3464" x1="1915.56" y1="2.85109" x2="1512.88" y2="995.501" gradientUnits="userSpaceOnUse">
<stop stop-color="#F4439F"/>
<stop offset="1" stop-color="#7C3AED"/>
</linearGradient>
<linearGradient id="paint11_linear_24_3464" x1="2411.37" y1="2.99995" x2="2023.8" y2="1005.42" gradientUnits="userSpaceOnUse">
<stop stop-color="#F4439F"/>
<stop offset="1" stop-color="#7C3AED"/>
</linearGradient>
<linearGradient id="paint12_linear_24_3464" x1="2673.36" y1="2.8511" x2="2257.58" y2="982.361" gradientUnits="userSpaceOnUse">
<stop stop-color="#F4439F"/>
<stop offset="1" stop-color="#7C3AED"/>
</linearGradient>
<linearGradient id="paint13_linear_24_3464" x1="886" y1="3" x2="535.103" y2="122.186" gradientUnits="userSpaceOnUse">
<stop stop-color="#F4439F"/>
<stop offset="1" stop-color="#7C3AED"/>
</linearGradient>
</defs>
</svg>
