<svg width="1400" height="120" viewBox="0 0 1400 120" fill="none" xmlns="http://www.w3.org/2000/svg">
<path d="M272 56H1129V72H272V56Z" fill="url(#paint0_linear_112_4134)"/>
<mask id="mask0_112_4134" style="mask-type:alpha" maskUnits="userSpaceOnUse" x="272" y="72" width="857" height="45">
<path d="M272 72H1129V117H272V72Z" fill="#C4C4C4"/>
</mask>
<g mask="url(#mask0_112_4134)">
<g filter="url(#filter0_f_112_4134)">
<path d="M1010.82 47.4159C1015.21 47.4159 1018.56 48.4612 1020.87 50.5519C1023.17 52.5999 1024.32 55.6505 1024.32 59.7039V82.9999H1017.6L1015.75 78.2639H1015.49C1014.51 79.5012 1013.49 80.5252 1012.42 81.3359C1011.4 82.1465 1010.2 82.7225 1008.84 83.0639C1007.47 83.4479 1005.81 83.6399 1003.84 83.6399C1001.8 83.6399 999.961 83.2559 998.339 82.4879C996.718 81.6772 995.438 80.4612 994.499 78.8399C993.561 77.2185 993.091 75.1705 993.091 72.6959C993.091 69.0265 994.414 66.2745 997.059 64.4399C999.705 62.6052 1003.65 61.5812 1008.9 61.3679L1014.72 61.1759V60.0879C1014.72 57.9972 1014.25 56.5465 1013.32 55.7359C1012.38 54.8825 1011.05 54.4559 1009.35 54.4559C1007.77 54.4559 1006.15 54.7119 1004.48 55.2239C1002.82 55.7359 1001.18 56.3545 999.555 57.0799L996.739 50.4879C998.574 49.5492 1000.66 48.8025 1003.01 48.2479C1005.4 47.6932 1008 47.4159 1010.82 47.4159ZM1011.08 66.9999C1008.05 67.0852 1005.93 67.5759 1004.74 68.4719C1003.54 69.3679 1002.95 70.6265 1002.95 72.2479C1002.95 73.7412 1003.35 74.8505 1004.16 75.5759C1005.02 76.2585 1006.15 76.5999 1007.56 76.5999C1009.56 76.5999 1011.25 76.0025 1012.61 74.8079C1014.02 73.6132 1014.72 71.9065 1014.72 69.6879V66.8079L1011.08 66.9999Z" fill="url(#paint1_linear_112_4134)" fill-opacity="0.7"/>
<path d="M966.222 83.6399C962.382 83.6399 959.224 82.1252 956.75 79.0959C954.318 76.0239 953.102 71.5225 953.102 65.5919C953.102 59.5759 954.339 55.0532 956.814 52.0239C959.288 48.9519 962.531 47.4159 966.542 47.4159C968.206 47.4159 969.635 47.6505 970.83 48.1199C972.067 48.5465 973.134 49.1439 974.03 49.9119C974.926 50.6799 975.694 51.5545 976.334 52.5359H976.654C976.526 51.7679 976.398 50.7012 976.27 49.3359C976.185 47.9279 976.142 46.6479 976.142 45.4959V34.3599H985.87V82.9999H978.446L976.526 78.4559H976.142C975.544 79.4372 974.798 80.3119 973.902 81.0799C973.006 81.8479 971.918 82.4665 970.638 82.9359C969.4 83.4052 967.928 83.6399 966.222 83.6399ZM969.614 75.8959C972.259 75.8959 974.115 75.1492 975.182 73.6559C976.248 72.1199 976.782 69.7945 976.782 66.6799V65.6559C976.782 62.2852 976.27 59.7039 975.246 57.9119C974.222 56.1199 972.323 55.2239 969.55 55.2239C967.459 55.2239 965.816 56.1199 964.622 57.9119C963.47 59.7039 962.894 62.3065 962.894 65.7199C962.894 69.1332 963.47 71.6932 964.622 73.3999C965.816 75.0639 967.48 75.8959 969.614 75.8959Z" fill="url(#paint2_linear_112_4134)" fill-opacity="0.7"/>
<path d="M932.069 47.4159C936.464 47.4159 939.813 48.4612 942.117 50.5519C944.421 52.5999 945.573 55.6505 945.573 59.7039V82.9999H938.853L936.997 78.2639H936.741C935.76 79.5012 934.736 80.5252 933.669 81.3359C932.645 82.1465 931.451 82.7225 930.085 83.0639C928.72 83.4479 927.056 83.6399 925.093 83.6399C923.045 83.6399 921.211 83.2559 919.589 82.4879C917.968 81.6772 916.688 80.4612 915.749 78.8399C914.811 77.2185 914.341 75.1705 914.341 72.6959C914.341 69.0265 915.664 66.2745 918.309 64.4399C920.955 62.6052 924.901 61.5812 930.149 61.3679L935.973 61.1759V60.0879C935.973 57.9972 935.504 56.5465 934.565 55.7359C933.627 54.8825 932.304 54.4559 930.597 54.4559C929.019 54.4559 927.397 54.7119 925.733 55.2239C924.069 55.7359 922.427 56.3545 920.805 57.0799L917.989 50.4879C919.824 49.5492 921.915 48.8025 924.261 48.2479C926.651 47.6932 929.253 47.4159 932.069 47.4159ZM932.325 66.9999C929.296 67.0852 927.184 67.5759 925.989 68.4719C924.795 69.3679 924.197 70.6265 924.197 72.2479C924.197 73.7412 924.603 74.8505 925.413 75.5759C926.267 76.2585 927.397 76.5999 928.805 76.5999C930.811 76.5999 932.496 76.0025 933.861 74.8079C935.269 73.6132 935.973 71.9065 935.973 69.6879V66.8079L932.325 66.9999Z" fill="url(#paint3_linear_112_4134)" fill-opacity="0.7"/>
<path d="M908.406 47.4159C909.046 47.4159 909.729 47.4585 910.454 47.5439C911.222 47.5865 911.82 47.6719 912.246 47.7999L911.286 56.8239C910.817 56.7385 910.262 56.6532 909.622 56.5679C908.982 56.4825 908.214 56.4399 907.318 56.4399C906.337 56.4399 905.334 56.5892 904.31 56.8879C903.329 57.1865 902.412 57.6772 901.558 58.3599C900.705 59.0425 900.022 59.9385 899.51 61.0479C898.998 62.1572 898.742 63.5652 898.742 65.2719V82.9999H889.078V48.0559H896.438L897.846 53.9439H898.294C898.977 52.7065 899.83 51.5972 900.854 50.6159C901.878 49.6345 903.03 48.8665 904.31 48.3119C905.59 47.7145 906.956 47.4159 908.406 47.4159Z" fill="url(#paint4_linear_112_4134)" fill-opacity="0.7"/>
<path d="M876.368 76.0239C877.435 76.0239 878.459 75.9172 879.44 75.7039C880.422 75.4905 881.403 75.2345 882.384 74.9359V82.0399C881.36 82.4665 880.08 82.8292 878.544 83.1279C877.051 83.4692 875.408 83.6399 873.616 83.6399C871.526 83.6399 869.648 83.2985 867.984 82.6159C866.363 81.9332 865.062 80.7599 864.08 79.0959C863.142 77.3892 862.672 75.0425 862.672 72.0559V55.2239H858.128V51.1919L863.376 47.9919L866.128 40.6319H872.208V48.0559H882V55.2239H872.208V72.0559C872.208 73.3785 872.592 74.3812 873.36 75.0639C874.128 75.7039 875.131 76.0239 876.368 76.0239Z" fill="url(#paint5_linear_112_4134)" fill-opacity="0.7"/>
<path d="M839.671 47.4159C843.511 47.4159 846.541 48.4185 848.759 50.4239C850.978 52.4292 852.087 55.6932 852.087 60.2159V82.9999H842.487V62.6479C842.487 60.1305 842.018 58.2532 841.079 57.0159C840.183 55.7359 838.775 55.0959 836.855 55.0959C833.954 55.0959 831.97 56.0985 830.903 58.1039C829.879 60.0665 829.367 62.9039 829.367 66.6159V82.9999H819.703V48.0559H827.127L828.471 52.7279H828.855C829.623 51.5759 830.541 50.6159 831.607 49.8479C832.717 49.0372 833.933 48.4399 835.255 48.0559C836.621 47.6292 838.093 47.4159 839.671 47.4159Z" fill="url(#paint6_linear_112_4134)" fill-opacity="0.7"/>
<path d="M796.428 47.4159C799.67 47.4159 802.465 48.0345 804.812 49.2719C807.158 50.4665 808.95 52.2585 810.188 54.6479C811.468 56.9945 812.108 59.8745 812.108 63.2879V67.9599H789.644C789.729 70.6052 790.54 72.6959 792.076 74.2319C793.612 75.7252 795.809 76.4719 798.668 76.4719C800.844 76.4719 802.828 76.2585 804.62 75.8319C806.412 75.4052 808.246 74.7652 810.124 73.9119V81.1439C808.417 81.9972 806.604 82.6159 804.684 82.9999C802.806 83.4265 800.46 83.6399 797.644 83.6399C794.188 83.6399 791.116 82.9999 788.428 81.7199C785.782 80.4399 783.692 78.4772 782.156 75.8319C780.62 73.1439 779.852 69.7945 779.852 65.7839C779.852 61.6879 780.534 58.2959 781.9 55.6079C783.308 52.8772 785.249 50.8292 787.724 49.4639C790.241 48.0985 793.142 47.4159 796.428 47.4159ZM796.684 54.2639C794.764 54.2639 793.206 54.8825 792.012 56.1199C790.817 57.3145 790.113 59.1065 789.9 61.4959H803.084C803.084 60.0879 802.849 58.8505 802.38 57.7839C801.91 56.7172 801.185 55.8639 800.204 55.2239C799.265 54.5839 798.092 54.2639 796.684 54.2639Z" fill="url(#paint7_linear_112_4134)" fill-opacity="0.7"/>
<path d="M741.615 47.4159C744.858 47.4159 747.653 48.0345 749.999 49.2719C752.346 50.4665 754.138 52.2585 755.375 54.6479C756.655 56.9945 757.295 59.8745 757.295 63.2879V67.9599H734.831C734.917 70.6052 735.727 72.6959 737.263 74.2319C738.799 75.7252 740.997 76.4719 743.855 76.4719C746.031 76.4719 748.015 76.2585 749.807 75.8319C751.599 75.4052 753.434 74.7652 755.311 73.9119V81.1439C753.605 81.9972 751.791 82.6159 749.871 82.9999C747.994 83.4265 745.647 83.6399 742.831 83.6399C739.375 83.6399 736.303 82.9999 733.615 81.7199C730.97 80.4399 728.879 78.4772 727.343 75.8319C725.807 73.1439 725.039 69.7945 725.039 65.7839C725.039 61.6879 725.722 58.2959 727.087 55.6079C728.495 52.8772 730.437 50.8292 732.911 49.4639C735.429 48.0985 738.33 47.4159 741.615 47.4159ZM741.871 54.2639C739.951 54.2639 738.394 54.8825 737.199 56.1199C736.005 57.3145 735.301 59.1065 735.087 61.4959H748.271C748.271 60.0879 748.037 58.8505 747.567 57.7839C747.098 56.7172 746.373 55.8639 745.391 55.2239C744.453 54.5839 743.279 54.2639 741.871 54.2639Z" fill="url(#paint8_linear_112_4134)" fill-opacity="0.7"/>
<path d="M697.722 83.6399C693.882 83.6399 690.724 82.1252 688.25 79.0959C685.818 76.0239 684.602 71.5225 684.602 65.5919C684.602 59.5759 685.839 55.0532 688.314 52.0239C690.788 48.9519 694.031 47.4159 698.042 47.4159C699.706 47.4159 701.135 47.6505 702.33 48.1199C703.567 48.5465 704.634 49.1439 705.53 49.9119C706.426 50.6799 707.194 51.5545 707.834 52.5359H708.154C708.026 51.7679 707.898 50.7012 707.77 49.3359C707.684 47.9279 707.642 46.6479 707.642 45.4959V34.3599H717.37V82.9999H709.946L708.026 78.4559H707.642C707.044 79.4372 706.298 80.3119 705.402 81.0799C704.506 81.8479 703.418 82.4665 702.138 82.9359C700.9 83.4052 699.428 83.6399 697.722 83.6399ZM701.114 75.8959C703.759 75.8959 705.615 75.1492 706.682 73.6559C707.748 72.1199 708.282 69.7945 708.282 66.6799V65.6559C708.282 62.2852 707.77 59.7039 706.746 57.9119C705.722 56.1199 703.823 55.2239 701.05 55.2239C698.959 55.2239 697.316 56.1199 696.122 57.9119C694.97 59.7039 694.394 62.3065 694.394 65.7199C694.394 69.1332 694.97 71.6932 696.122 73.3999C697.316 75.0639 698.98 75.8959 701.114 75.8959Z" fill="url(#paint9_linear_112_4134)" fill-opacity="0.7"/>
<path d="M661.897 65.4639C661.897 68.3652 661.491 70.9465 660.681 73.2079C659.913 75.4692 658.782 77.3679 657.289 78.9039C655.838 80.4399 654.067 81.6132 651.977 82.4239C649.886 83.2345 647.518 83.6399 644.873 83.6399C642.398 83.6399 640.137 83.2345 638.089 82.4239C636.041 81.6132 634.27 80.4399 632.777 78.9039C631.283 77.3679 630.11 75.4692 629.257 73.2079C628.403 70.9465 627.977 68.3652 627.977 65.4639C627.977 61.5812 628.659 58.2959 630.025 55.6079C631.39 52.9199 633.353 50.8932 635.913 49.5279C638.473 48.1199 641.523 47.4159 645.065 47.4159C648.35 47.4159 651.251 48.1199 653.769 49.5279C656.286 50.8932 658.27 52.9199 659.721 55.6079C661.171 58.2959 661.897 61.5812 661.897 65.4639ZM637.833 65.4639C637.833 67.7252 638.067 69.6665 638.537 71.2879C639.049 72.9092 639.817 74.1465 640.841 74.9999C641.907 75.8532 643.294 76.2799 645.001 76.2799C646.665 76.2799 648.009 75.8532 649.033 74.9999C650.099 74.1465 650.867 72.9092 651.337 71.2879C651.806 69.6665 652.041 67.7252 652.041 65.4639C652.041 63.1599 651.785 61.2185 651.273 59.6399C650.803 58.0612 650.057 56.8665 649.033 56.0559C648.009 55.2025 646.643 54.7759 644.937 54.7759C642.462 54.7759 640.649 55.6932 639.497 57.5279C638.387 59.3625 637.833 62.0079 637.833 65.4639Z" fill="url(#paint10_linear_112_4134)" fill-opacity="0.7"/>
<path d="M606.944 47.4159C611.339 47.4159 614.688 48.4612 616.992 50.5519C619.296 52.5999 620.448 55.6505 620.448 59.7039V82.9999H613.728L611.872 78.2639H611.616C610.635 79.5012 609.611 80.5252 608.544 81.3359C607.52 82.1465 606.326 82.7225 604.96 83.0639C603.595 83.4479 601.931 83.6399 599.968 83.6399C597.92 83.6399 596.086 83.2559 594.464 82.4879C592.843 81.6772 591.563 80.4612 590.624 78.8399C589.686 77.2185 589.216 75.1705 589.216 72.6959C589.216 69.0265 590.539 66.2745 593.184 64.4399C595.83 62.6052 599.776 61.5812 605.024 61.3679L610.848 61.1759V60.0879C610.848 57.9972 610.379 56.5465 609.44 55.7359C608.502 54.8825 607.179 54.4559 605.472 54.4559C603.894 54.4559 602.272 54.7119 600.608 55.2239C598.944 55.7359 597.302 56.3545 595.68 57.0799L592.864 50.4879C594.699 49.5492 596.79 48.8025 599.136 48.2479C601.526 47.6932 604.128 47.4159 606.944 47.4159ZM607.2 66.9999C604.171 67.0852 602.059 67.5759 600.864 68.4719C599.67 69.3679 599.072 70.6265 599.072 72.2479C599.072 73.7412 599.478 74.8505 600.288 75.5759C601.142 76.2585 602.272 76.5999 603.68 76.5999C605.686 76.5999 607.371 76.0025 608.736 74.8079C610.144 73.6132 610.848 71.9065 610.848 69.6879V66.8079L607.2 66.9999ZM593.248 44.2799C593.376 42.6159 593.675 41.1865 594.144 39.9919C594.656 38.7545 595.296 37.7519 596.064 36.9839C596.832 36.1732 597.686 35.5759 598.624 35.1919C599.606 34.8079 600.651 34.6159 601.76 34.6159C602.614 34.6159 603.446 34.7865 604.256 35.1279C605.11 35.4265 605.92 35.8105 606.688 36.2799C607.499 36.7065 608.288 37.0905 609.056 37.4319C609.824 37.7305 610.592 37.8799 611.36 37.8799C612 37.8799 612.619 37.6025 613.216 37.0479C613.814 36.4932 614.24 35.6612 614.496 34.5519H619.168C618.912 37.8372 617.974 40.2692 616.352 41.8479C614.731 43.4265 612.832 44.2159 610.656 44.2159C609.803 44.2159 608.971 44.0665 608.16 43.7679C607.35 43.4265 606.539 43.0425 605.728 42.6159C604.918 42.1465 604.128 41.7625 603.36 41.4639C602.592 41.1225 601.824 40.9519 601.056 40.9519C600.416 40.9519 599.798 41.2292 599.2 41.7839C598.603 42.3385 598.176 43.1705 597.92 44.2799H593.248Z" fill="url(#paint11_linear_112_4134)" fill-opacity="0.7"/>
<path d="M573.56 83.6399C570.19 83.6399 567.224 83.0212 564.664 81.7839C562.147 80.5039 560.184 78.5412 558.776 75.8959C557.368 73.2079 556.664 69.8159 556.664 65.7199C556.664 61.4105 557.432 57.9119 558.968 55.2239C560.504 52.5359 562.595 50.5732 565.24 49.3359C567.886 48.0559 570.894 47.4159 574.264 47.4159C576.312 47.4159 578.232 47.6292 580.024 48.0559C581.859 48.4825 583.48 49.0585 584.888 49.7839L582.008 57.0799C580.728 56.5252 579.427 56.0772 578.104 55.7359C576.824 55.3519 575.544 55.1599 574.264 55.1599C572.6 55.1599 571.192 55.5439 570.04 56.3119C568.888 57.0799 568.014 58.2532 567.416 59.8319C566.819 61.3679 566.52 63.3092 566.52 65.6559C566.52 67.9599 566.819 69.8585 567.416 71.3519C568.014 72.8452 568.888 73.9759 570.04 74.7439C571.192 75.4692 572.558 75.8319 574.136 75.8319C575.971 75.8319 577.699 75.5972 579.32 75.1279C580.942 74.6159 582.478 73.9545 583.928 73.1439V81.0159C582.606 81.8265 581.112 82.4665 579.448 82.9359C577.784 83.4052 575.822 83.6399 573.56 83.6399ZM580.024 91.2559C580.024 93.4319 579.235 95.1599 577.656 96.4399C576.078 97.7199 573.88 98.3599 571.064 98.3599C569.955 98.3599 568.91 98.2745 567.928 98.1039C566.99 97.9759 566.222 97.8052 565.624 97.5919V92.5359C566.222 92.7065 566.84 92.8345 567.48 92.9199C568.163 93.0479 568.824 93.1119 569.464 93.1119C570.574 93.1119 571.406 92.9199 571.96 92.5359C572.558 92.1945 572.856 91.6399 572.856 90.8719C572.856 90.0185 572.43 89.3572 571.576 88.8879C570.723 88.4185 569.486 88.0559 567.864 87.7999L570.104 82.9999H575.224L574.264 85.4959C575.16 85.6665 576.056 85.9652 576.952 86.3919C577.848 86.8612 578.574 87.4799 579.128 88.2479C579.726 89.0159 580.024 90.0185 580.024 91.2559Z" fill="url(#paint12_linear_112_4134)" fill-opacity="0.7"/>
<path d="M548.895 48.0559V82.9999H541.471L540.255 78.5199H539.679C538.954 79.7145 538.015 80.6959 536.863 81.4639C535.754 82.2319 534.517 82.7865 533.151 83.1279C531.829 83.4692 530.421 83.6399 528.927 83.6399C526.453 83.6399 524.277 83.1919 522.399 82.2959C520.565 81.3999 519.114 80.0132 518.047 78.1359C517.023 76.2585 516.511 73.8265 516.511 70.8399V48.0559H526.239V68.4079C526.239 70.8825 526.666 72.7599 527.519 74.0399C528.415 75.2772 529.823 75.8959 531.743 75.8959C533.706 75.8959 535.221 75.4692 536.287 74.6159C537.397 73.7199 538.165 72.4185 538.591 70.7119C539.018 69.0052 539.231 66.9145 539.231 64.4399V48.0559H548.895Z" fill="url(#paint13_linear_112_4134)" fill-opacity="0.7"/>
<path d="M487.722 83.6399C483.882 83.6399 480.724 82.1252 478.25 79.0959C475.818 76.0239 474.602 71.5225 474.602 65.5919C474.602 59.5759 475.839 55.0532 478.314 52.0239C480.788 48.9519 484.031 47.4159 488.042 47.4159C489.706 47.4159 491.135 47.6505 492.33 48.1199C493.567 48.5465 494.634 49.1439 495.53 49.9119C496.426 50.6799 497.194 51.5545 497.834 52.5359H498.154C498.026 51.7679 497.898 50.7012 497.77 49.3359C497.684 47.9279 497.642 46.6479 497.642 45.4959V34.3599H507.37V82.9999H499.946L498.026 78.4559H497.642C497.044 79.4372 496.298 80.3119 495.402 81.0799C494.506 81.8479 493.418 82.4665 492.138 82.9359C490.9 83.4052 489.428 83.6399 487.722 83.6399ZM491.114 75.8959C493.759 75.8959 495.615 75.1492 496.682 73.6559C497.748 72.1199 498.282 69.7945 498.282 66.6799V65.6559C498.282 62.2852 497.77 59.7039 496.746 57.9119C495.722 56.1199 493.823 55.2239 491.05 55.2239C488.959 55.2239 487.316 56.1199 486.122 57.9119C484.97 59.7039 484.394 62.3065 484.394 65.7199C484.394 69.1332 484.97 71.6932 486.122 73.3999C487.316 75.0639 488.98 75.8959 491.114 75.8959Z" fill="url(#paint14_linear_112_4134)" fill-opacity="0.7"/>
<path d="M453.569 47.4159C457.964 47.4159 461.313 48.4612 463.617 50.5519C465.921 52.5999 467.073 55.6505 467.073 59.7039V82.9999H460.353L458.497 78.2639H458.241C457.26 79.5012 456.236 80.5252 455.169 81.3359C454.145 82.1465 452.951 82.7225 451.585 83.0639C450.22 83.4479 448.556 83.6399 446.593 83.6399C444.545 83.6399 442.711 83.2559 441.089 82.4879C439.468 81.6772 438.188 80.4612 437.249 78.8399C436.311 77.2185 435.841 75.1705 435.841 72.6959C435.841 69.0265 437.164 66.2745 439.809 64.4399C442.455 62.6052 446.401 61.5812 451.649 61.3679L457.473 61.1759V60.0879C457.473 57.9972 457.004 56.5465 456.065 55.7359C455.127 54.8825 453.804 54.4559 452.097 54.4559C450.519 54.4559 448.897 54.7119 447.233 55.2239C445.569 55.7359 443.927 56.3545 442.305 57.0799L439.489 50.4879C441.324 49.5492 443.415 48.8025 445.761 48.2479C448.151 47.6932 450.753 47.4159 453.569 47.4159ZM453.825 66.9999C450.796 67.0852 448.684 67.5759 447.489 68.4719C446.295 69.3679 445.697 70.6265 445.697 72.2479C445.697 73.7412 446.103 74.8505 446.913 75.5759C447.767 76.2585 448.897 76.5999 450.305 76.5999C452.311 76.5999 453.996 76.0025 455.361 74.8079C456.769 73.6132 457.473 71.9065 457.473 69.6879V66.8079L453.825 66.9999Z" fill="url(#paint15_linear_112_4134)" fill-opacity="0.7"/>
<path d="M429.906 47.4159C430.546 47.4159 431.229 47.4585 431.954 47.5439C432.722 47.5865 433.32 47.6719 433.746 47.7999L432.786 56.8239C432.317 56.7385 431.762 56.6532 431.122 56.5679C430.482 56.4825 429.714 56.4399 428.818 56.4399C427.837 56.4399 426.834 56.5892 425.81 56.8879C424.829 57.1865 423.912 57.6772 423.058 58.3599C422.205 59.0425 421.522 59.9385 421.01 61.0479C420.498 62.1572 420.242 63.5652 420.242 65.2719V82.9999H410.578V48.0559H417.938L419.346 53.9439H419.794C420.477 52.7065 421.33 51.5972 422.354 50.6159C423.378 49.6345 424.53 48.8665 425.81 48.3119C427.09 47.7145 428.456 47.4159 429.906 47.4159Z" fill="url(#paint16_linear_112_4134)" fill-opacity="0.7"/>
<path d="M395.516 82.9999H385.724V45.4319H373.372V37.3039H407.868V45.4319H395.516V82.9999Z" fill="url(#paint17_linear_112_4134)" fill-opacity="0.7"/>
</g>
</g>
<path d="M272 72H1129V105C1129 111.627 1123.63 117 1117 117H284C277.373 117 272 111.627 272 105V72Z" fill="url(#paint18_linear_112_4134)"/>
<path d="M1010.82 35.4159C1015.21 35.4159 1018.56 36.4612 1020.87 38.5519C1023.17 40.5999 1024.32 43.6505 1024.32 47.7039V70.9999H1017.6L1015.75 66.2639H1015.49C1014.51 67.5012 1013.49 68.5252 1012.42 69.3359C1011.4 70.1465 1010.2 70.7225 1008.84 71.0639C1007.47 71.4479 1005.81 71.6399 1003.84 71.6399C1001.8 71.6399 999.961 71.2559 998.339 70.4879C996.718 69.6772 995.438 68.4612 994.499 66.8399C993.561 65.2185 993.091 63.1705 993.091 60.6959C993.091 57.0265 994.414 54.2745 997.059 52.4399C999.705 50.6052 1003.65 49.5812 1008.9 49.3679L1014.72 49.1759V48.0879C1014.72 45.9972 1014.25 44.5465 1013.32 43.7359C1012.38 42.8825 1011.05 42.4559 1009.35 42.4559C1007.77 42.4559 1006.15 42.7119 1004.48 43.2239C1002.82 43.7359 1001.18 44.3545 999.555 45.0799L996.739 38.4879C998.574 37.5492 1000.66 36.8025 1003.01 36.2479C1005.4 35.6932 1008 35.4159 1010.82 35.4159ZM1011.08 54.9999C1008.05 55.0852 1005.93 55.5759 1004.74 56.4719C1003.54 57.3679 1002.95 58.6265 1002.95 60.2479C1002.95 61.7412 1003.35 62.8505 1004.16 63.5759C1005.02 64.2585 1006.15 64.5999 1007.56 64.5999C1009.56 64.5999 1011.25 64.0025 1012.61 62.8079C1014.02 61.6132 1014.72 59.9065 1014.72 57.6879V54.8079L1011.08 54.9999Z" fill="url(#paint19_linear_112_4134)"/>
<path d="M966.222 71.6399C962.382 71.6399 959.224 70.1252 956.75 67.0959C954.318 64.0239 953.102 59.5225 953.102 53.5919C953.102 47.5759 954.339 43.0532 956.814 40.0239C959.288 36.9519 962.531 35.4159 966.542 35.4159C968.206 35.4159 969.635 35.6505 970.83 36.1199C972.067 36.5465 973.134 37.1439 974.03 37.9119C974.926 38.6799 975.694 39.5545 976.334 40.5359H976.654C976.526 39.7679 976.398 38.7012 976.27 37.3359C976.185 35.9279 976.142 34.6479 976.142 33.4959V22.3599H985.87V70.9999H978.446L976.526 66.4559H976.142C975.544 67.4372 974.798 68.3119 973.902 69.0799C973.006 69.8479 971.918 70.4665 970.638 70.9359C969.4 71.4052 967.928 71.6399 966.222 71.6399ZM969.614 63.8959C972.259 63.8959 974.115 63.1492 975.182 61.6559C976.248 60.1199 976.782 57.7945 976.782 54.6799V53.6559C976.782 50.2852 976.27 47.7039 975.246 45.9119C974.222 44.1199 972.323 43.2239 969.55 43.2239C967.459 43.2239 965.816 44.1199 964.622 45.9119C963.47 47.7039 962.894 50.3065 962.894 53.7199C962.894 57.1332 963.47 59.6932 964.622 61.3999C965.816 63.0639 967.48 63.8959 969.614 63.8959Z" fill="url(#paint20_linear_112_4134)"/>
<path d="M932.069 35.4159C936.464 35.4159 939.813 36.4612 942.117 38.5519C944.421 40.5999 945.573 43.6505 945.573 47.7039V70.9999H938.853L936.997 66.2639H936.741C935.76 67.5012 934.736 68.5252 933.669 69.3359C932.645 70.1465 931.451 70.7225 930.085 71.0639C928.72 71.4479 927.056 71.6399 925.093 71.6399C923.045 71.6399 921.211 71.2559 919.589 70.4879C917.968 69.6772 916.688 68.4612 915.749 66.8399C914.811 65.2185 914.341 63.1705 914.341 60.6959C914.341 57.0265 915.664 54.2745 918.309 52.4399C920.955 50.6052 924.901 49.5812 930.149 49.3679L935.973 49.1759V48.0879C935.973 45.9972 935.504 44.5465 934.565 43.7359C933.627 42.8825 932.304 42.4559 930.597 42.4559C929.019 42.4559 927.397 42.7119 925.733 43.2239C924.069 43.7359 922.427 44.3545 920.805 45.0799L917.989 38.4879C919.824 37.5492 921.915 36.8025 924.261 36.2479C926.651 35.6932 929.253 35.4159 932.069 35.4159ZM932.325 54.9999C929.296 55.0852 927.184 55.5759 925.989 56.4719C924.795 57.3679 924.197 58.6265 924.197 60.2479C924.197 61.7412 924.603 62.8505 925.413 63.5759C926.267 64.2585 927.397 64.5999 928.805 64.5999C930.811 64.5999 932.496 64.0025 933.861 62.8079C935.269 61.6132 935.973 59.9065 935.973 57.6879V54.8079L932.325 54.9999Z" fill="url(#paint21_linear_112_4134)"/>
<path d="M908.406 35.4159C909.046 35.4159 909.729 35.4585 910.454 35.5439C911.222 35.5865 911.82 35.6719 912.246 35.7999L911.286 44.8239C910.817 44.7385 910.262 44.6532 909.622 44.5679C908.982 44.4825 908.214 44.4399 907.318 44.4399C906.337 44.4399 905.334 44.5892 904.31 44.8879C903.329 45.1865 902.412 45.6772 901.558 46.3599C900.705 47.0425 900.022 47.9385 899.51 49.0479C898.998 50.1572 898.742 51.5652 898.742 53.2719V70.9999H889.078V36.0559H896.438L897.846 41.9439H898.294C898.977 40.7065 899.83 39.5972 900.854 38.6159C901.878 37.6345 903.03 36.8665 904.31 36.3119C905.59 35.7145 906.956 35.4159 908.406 35.4159Z" fill="url(#paint22_linear_112_4134)"/>
<path d="M876.368 64.0239C877.435 64.0239 878.459 63.9172 879.44 63.7039C880.422 63.4905 881.403 63.2345 882.384 62.9359V70.0399C881.36 70.4665 880.08 70.8292 878.544 71.1279C877.051 71.4692 875.408 71.6399 873.616 71.6399C871.526 71.6399 869.648 71.2985 867.984 70.6159C866.363 69.9332 865.062 68.7599 864.08 67.0959C863.142 65.3892 862.672 63.0425 862.672 60.0559V43.2239H858.128V39.1919L863.376 35.9919L866.128 28.6319H872.208V36.0559H882V43.2239H872.208V60.0559C872.208 61.3785 872.592 62.3812 873.36 63.0639C874.128 63.7039 875.131 64.0239 876.368 64.0239Z" fill="url(#paint23_linear_112_4134)"/>
<path d="M839.671 35.4159C843.511 35.4159 846.541 36.4185 848.759 38.4239C850.978 40.4292 852.087 43.6932 852.087 48.2159V70.9999H842.487V50.6479C842.487 48.1305 842.018 46.2532 841.079 45.0159C840.183 43.7359 838.775 43.0959 836.855 43.0959C833.954 43.0959 831.97 44.0985 830.903 46.1039C829.879 48.0665 829.367 50.9039 829.367 54.6159V70.9999H819.703V36.0559H827.127L828.471 40.7279H828.855C829.623 39.5759 830.541 38.6159 831.607 37.8479C832.717 37.0372 833.933 36.4399 835.255 36.0559C836.621 35.6292 838.093 35.4159 839.671 35.4159Z" fill="url(#paint24_linear_112_4134)"/>
<path d="M796.428 35.4159C799.67 35.4159 802.465 36.0345 804.812 37.2719C807.158 38.4665 808.95 40.2585 810.188 42.6479C811.468 44.9945 812.108 47.8745 812.108 51.2879V55.9599H789.644C789.729 58.6052 790.54 60.6959 792.076 62.2319C793.612 63.7252 795.809 64.4719 798.668 64.4719C800.844 64.4719 802.828 64.2585 804.62 63.8319C806.412 63.4052 808.246 62.7652 810.124 61.9119V69.1439C808.417 69.9972 806.604 70.6159 804.684 70.9999C802.806 71.4265 800.46 71.6399 797.644 71.6399C794.188 71.6399 791.116 70.9999 788.428 69.7199C785.782 68.4399 783.692 66.4772 782.156 63.8319C780.62 61.1439 779.852 57.7945 779.852 53.7839C779.852 49.6879 780.534 46.2959 781.9 43.6079C783.308 40.8772 785.249 38.8292 787.724 37.4639C790.241 36.0985 793.142 35.4159 796.428 35.4159ZM796.684 42.2639C794.764 42.2639 793.206 42.8825 792.012 44.1199C790.817 45.3145 790.113 47.1065 789.9 49.4959H803.084C803.084 48.0879 802.849 46.8505 802.38 45.7839C801.91 44.7172 801.185 43.8639 800.204 43.2239C799.265 42.5839 798.092 42.2639 796.684 42.2639Z" fill="url(#paint25_linear_112_4134)"/>
<path d="M741.615 35.4159C744.858 35.4159 747.653 36.0345 749.999 37.2719C752.346 38.4665 754.138 40.2585 755.375 42.6479C756.655 44.9945 757.295 47.8745 757.295 51.2879V55.9599H734.831C734.917 58.6052 735.727 60.6959 737.263 62.2319C738.799 63.7252 740.997 64.4719 743.855 64.4719C746.031 64.4719 748.015 64.2585 749.807 63.8319C751.599 63.4052 753.434 62.7652 755.311 61.9119V69.1439C753.605 69.9972 751.791 70.6159 749.871 70.9999C747.994 71.4265 745.647 71.6399 742.831 71.6399C739.375 71.6399 736.303 70.9999 733.615 69.7199C730.97 68.4399 728.879 66.4772 727.343 63.8319C725.807 61.1439 725.039 57.7945 725.039 53.7839C725.039 49.6879 725.722 46.2959 727.087 43.6079C728.495 40.8772 730.437 38.8292 732.911 37.4639C735.429 36.0985 738.33 35.4159 741.615 35.4159ZM741.871 42.2639C739.951 42.2639 738.394 42.8825 737.199 44.1199C736.005 45.3145 735.301 47.1065 735.087 49.4959H748.271C748.271 48.0879 748.037 46.8505 747.567 45.7839C747.098 44.7172 746.373 43.8639 745.391 43.2239C744.453 42.5839 743.279 42.2639 741.871 42.2639Z" fill="url(#paint26_linear_112_4134)"/>
<path d="M697.722 71.6399C693.882 71.6399 690.724 70.1252 688.25 67.0959C685.818 64.0239 684.602 59.5225 684.602 53.5919C684.602 47.5759 685.839 43.0532 688.314 40.0239C690.788 36.9519 694.031 35.4159 698.042 35.4159C699.706 35.4159 701.135 35.6505 702.33 36.1199C703.567 36.5465 704.634 37.1439 705.53 37.9119C706.426 38.6799 707.194 39.5545 707.834 40.5359H708.154C708.026 39.7679 707.898 38.7012 707.77 37.3359C707.684 35.9279 707.642 34.6479 707.642 33.4959V22.3599H717.37V70.9999H709.946L708.026 66.4559H707.642C707.044 67.4372 706.298 68.3119 705.402 69.0799C704.506 69.8479 703.418 70.4665 702.138 70.9359C700.9 71.4052 699.428 71.6399 697.722 71.6399ZM701.114 63.8959C703.759 63.8959 705.615 63.1492 706.682 61.6559C707.748 60.1199 708.282 57.7945 708.282 54.6799V53.6559C708.282 50.2852 707.77 47.7039 706.746 45.9119C705.722 44.1199 703.823 43.2239 701.05 43.2239C698.959 43.2239 697.316 44.1199 696.122 45.9119C694.97 47.7039 694.394 50.3065 694.394 53.7199C694.394 57.1332 694.97 59.6932 696.122 61.3999C697.316 63.0639 698.98 63.8959 701.114 63.8959Z" fill="url(#paint27_linear_112_4134)"/>
<path d="M661.897 53.4639C661.897 56.3652 661.491 58.9465 660.681 61.2079C659.913 63.4692 658.782 65.3679 657.289 66.9039C655.838 68.4399 654.067 69.6132 651.977 70.4239C649.886 71.2345 647.518 71.6399 644.873 71.6399C642.398 71.6399 640.137 71.2345 638.089 70.4239C636.041 69.6132 634.27 68.4399 632.777 66.9039C631.283 65.3679 630.11 63.4692 629.257 61.2079C628.403 58.9465 627.977 56.3652 627.977 53.4639C627.977 49.5812 628.659 46.2959 630.025 43.6079C631.39 40.9199 633.353 38.8932 635.913 37.5279C638.473 36.1199 641.523 35.4159 645.065 35.4159C648.35 35.4159 651.251 36.1199 653.769 37.5279C656.286 38.8932 658.27 40.9199 659.721 43.6079C661.171 46.2959 661.897 49.5812 661.897 53.4639ZM637.833 53.4639C637.833 55.7252 638.067 57.6665 638.537 59.2879C639.049 60.9092 639.817 62.1465 640.841 62.9999C641.907 63.8532 643.294 64.2799 645.001 64.2799C646.665 64.2799 648.009 63.8532 649.033 62.9999C650.099 62.1465 650.867 60.9092 651.337 59.2879C651.806 57.6665 652.041 55.7252 652.041 53.4639C652.041 51.1599 651.785 49.2185 651.273 47.6399C650.803 46.0612 650.057 44.8665 649.033 44.0559C648.009 43.2025 646.643 42.7759 644.937 42.7759C642.462 42.7759 640.649 43.6932 639.497 45.5279C638.387 47.3625 637.833 50.0079 637.833 53.4639Z" fill="url(#paint28_linear_112_4134)"/>
<path d="M606.944 35.4159C611.339 35.4159 614.688 36.4612 616.992 38.5519C619.296 40.5999 620.448 43.6505 620.448 47.7039V70.9999H613.728L611.872 66.2639H611.616C610.635 67.5012 609.611 68.5252 608.544 69.3359C607.52 70.1465 606.326 70.7225 604.96 71.0639C603.595 71.4479 601.931 71.6399 599.968 71.6399C597.92 71.6399 596.086 71.2559 594.464 70.4879C592.843 69.6772 591.563 68.4612 590.624 66.8399C589.686 65.2185 589.216 63.1705 589.216 60.6959C589.216 57.0265 590.539 54.2745 593.184 52.4399C595.83 50.6052 599.776 49.5812 605.024 49.3679L610.848 49.1759V48.0879C610.848 45.9972 610.379 44.5465 609.44 43.7359C608.502 42.8825 607.179 42.4559 605.472 42.4559C603.894 42.4559 602.272 42.7119 600.608 43.2239C598.944 43.7359 597.302 44.3545 595.68 45.0799L592.864 38.4879C594.699 37.5492 596.79 36.8025 599.136 36.2479C601.526 35.6932 604.128 35.4159 606.944 35.4159ZM607.2 54.9999C604.171 55.0852 602.059 55.5759 600.864 56.4719C599.67 57.3679 599.072 58.6265 599.072 60.2479C599.072 61.7412 599.478 62.8505 600.288 63.5759C601.142 64.2585 602.272 64.5999 603.68 64.5999C605.686 64.5999 607.371 64.0025 608.736 62.8079C610.144 61.6132 610.848 59.9065 610.848 57.6879V54.8079L607.2 54.9999ZM593.248 32.2799C593.376 30.6159 593.675 29.1865 594.144 27.9919C594.656 26.7545 595.296 25.7519 596.064 24.9839C596.832 24.1732 597.686 23.5759 598.624 23.1919C599.606 22.8079 600.651 22.6159 601.76 22.6159C602.614 22.6159 603.446 22.7865 604.256 23.1279C605.11 23.4265 605.92 23.8105 606.688 24.2799C607.499 24.7065 608.288 25.0905 609.056 25.4319C609.824 25.7305 610.592 25.8799 611.36 25.8799C612 25.8799 612.619 25.6025 613.216 25.0479C613.814 24.4932 614.24 23.6612 614.496 22.5519H619.168C618.912 25.8372 617.974 28.2692 616.352 29.8479C614.731 31.4265 612.832 32.2159 610.656 32.2159C609.803 32.2159 608.971 32.0665 608.16 31.7679C607.35 31.4265 606.539 31.0425 605.728 30.6159C604.918 30.1465 604.128 29.7625 603.36 29.4639C602.592 29.1225 601.824 28.9519 601.056 28.9519C600.416 28.9519 599.798 29.2292 599.2 29.7839C598.603 30.3385 598.176 31.1705 597.92 32.2799H593.248Z" fill="url(#paint29_linear_112_4134)"/>
<path d="M573.56 71.6399C570.19 71.6399 567.224 71.0212 564.664 69.7839C562.147 68.5039 560.184 66.5412 558.776 63.8959C557.368 61.2079 556.664 57.8159 556.664 53.7199C556.664 49.4105 557.432 45.9119 558.968 43.2239C560.504 40.5359 562.595 38.5732 565.24 37.3359C567.886 36.0559 570.894 35.4159 574.264 35.4159C576.312 35.4159 578.232 35.6292 580.024 36.0559C581.859 36.4825 583.48 37.0585 584.888 37.7839L582.008 45.0799C580.728 44.5252 579.427 44.0772 578.104 43.7359C576.824 43.3519 575.544 43.1599 574.264 43.1599C572.6 43.1599 571.192 43.5439 570.04 44.3119C568.888 45.0799 568.014 46.2532 567.416 47.8319C566.819 49.3679 566.52 51.3092 566.52 53.6559C566.52 55.9599 566.819 57.8585 567.416 59.3519C568.014 60.8452 568.888 61.9759 570.04 62.7439C571.192 63.4692 572.558 63.8319 574.136 63.8319C575.971 63.8319 577.699 63.5972 579.32 63.1279C580.942 62.6159 582.478 61.9545 583.928 61.1439V69.0159C582.606 69.8265 581.112 70.4665 579.448 70.9359C577.784 71.4052 575.822 71.6399 573.56 71.6399ZM580.024 79.2559C580.024 81.4319 579.235 83.1599 577.656 84.4399C576.078 85.7199 573.88 86.3599 571.064 86.3599C569.955 86.3599 568.91 86.2745 567.928 86.1039C566.99 85.9759 566.222 85.8052 565.624 85.5919V80.5359C566.222 80.7065 566.84 80.8345 567.48 80.9199C568.163 81.0479 568.824 81.1119 569.464 81.1119C570.574 81.1119 571.406 80.9199 571.96 80.5359C572.558 80.1945 572.856 79.6399 572.856 78.8719C572.856 78.0185 572.43 77.3572 571.576 76.8879C570.723 76.4185 569.486 76.0559 567.864 75.7999L570.104 70.9999H575.224L574.264 73.4959C575.16 73.6665 576.056 73.9652 576.952 74.3919C577.848 74.8612 578.574 75.4799 579.128 76.2479C579.726 77.0159 580.024 78.0185 580.024 79.2559Z" fill="url(#paint30_linear_112_4134)"/>
<path d="M548.895 36.0559V70.9999H541.471L540.255 66.5199H539.679C538.954 67.7145 538.015 68.6959 536.863 69.4639C535.754 70.2319 534.517 70.7865 533.151 71.1279C531.829 71.4692 530.421 71.6399 528.927 71.6399C526.453 71.6399 524.277 71.1919 522.399 70.2959C520.565 69.3999 519.114 68.0132 518.047 66.1359C517.023 64.2585 516.511 61.8265 516.511 58.8399V36.0559H526.239V56.4079C526.239 58.8825 526.666 60.7599 527.519 62.0399C528.415 63.2772 529.823 63.8959 531.743 63.8959C533.706 63.8959 535.221 63.4692 536.287 62.6159C537.397 61.7199 538.165 60.4185 538.591 58.7119C539.018 57.0052 539.231 54.9145 539.231 52.4399V36.0559H548.895Z" fill="url(#paint31_linear_112_4134)"/>
<path d="M487.722 71.6399C483.882 71.6399 480.724 70.1252 478.25 67.0959C475.818 64.0239 474.602 59.5225 474.602 53.5919C474.602 47.5759 475.839 43.0532 478.314 40.0239C480.788 36.9519 484.031 35.4159 488.042 35.4159C489.706 35.4159 491.135 35.6505 492.33 36.1199C493.567 36.5465 494.634 37.1439 495.53 37.9119C496.426 38.6799 497.194 39.5545 497.834 40.5359H498.154C498.026 39.7679 497.898 38.7012 497.77 37.3359C497.684 35.9279 497.642 34.6479 497.642 33.4959V22.3599H507.37V70.9999H499.946L498.026 66.4559H497.642C497.044 67.4372 496.298 68.3119 495.402 69.0799C494.506 69.8479 493.418 70.4665 492.138 70.9359C490.9 71.4052 489.428 71.6399 487.722 71.6399ZM491.114 63.8959C493.759 63.8959 495.615 63.1492 496.682 61.6559C497.748 60.1199 498.282 57.7945 498.282 54.6799V53.6559C498.282 50.2852 497.77 47.7039 496.746 45.9119C495.722 44.1199 493.823 43.2239 491.05 43.2239C488.959 43.2239 487.316 44.1199 486.122 45.9119C484.97 47.7039 484.394 50.3065 484.394 53.7199C484.394 57.1332 484.97 59.6932 486.122 61.3999C487.316 63.0639 488.98 63.8959 491.114 63.8959Z" fill="url(#paint32_linear_112_4134)"/>
<path d="M453.569 35.4159C457.964 35.4159 461.313 36.4612 463.617 38.5519C465.921 40.5999 467.073 43.6505 467.073 47.7039V70.9999H460.353L458.497 66.2639H458.241C457.26 67.5012 456.236 68.5252 455.169 69.3359C454.145 70.1465 452.951 70.7225 451.585 71.0639C450.22 71.4479 448.556 71.6399 446.593 71.6399C444.545 71.6399 442.711 71.2559 441.089 70.4879C439.468 69.6772 438.188 68.4612 437.249 66.8399C436.311 65.2185 435.841 63.1705 435.841 60.6959C435.841 57.0265 437.164 54.2745 439.809 52.4399C442.455 50.6052 446.401 49.5812 451.649 49.3679L457.473 49.1759V48.0879C457.473 45.9972 457.004 44.5465 456.065 43.7359C455.127 42.8825 453.804 42.4559 452.097 42.4559C450.519 42.4559 448.897 42.7119 447.233 43.2239C445.569 43.7359 443.927 44.3545 442.305 45.0799L439.489 38.4879C441.324 37.5492 443.415 36.8025 445.761 36.2479C448.151 35.6932 450.753 35.4159 453.569 35.4159ZM453.825 54.9999C450.796 55.0852 448.684 55.5759 447.489 56.4719C446.295 57.3679 445.697 58.6265 445.697 60.2479C445.697 61.7412 446.103 62.8505 446.913 63.5759C447.767 64.2585 448.897 64.5999 450.305 64.5999C452.311 64.5999 453.996 64.0025 455.361 62.8079C456.769 61.6132 457.473 59.9065 457.473 57.6879V54.8079L453.825 54.9999Z" fill="url(#paint33_linear_112_4134)"/>
<path d="M429.906 35.4159C430.546 35.4159 431.229 35.4585 431.954 35.5439C432.722 35.5865 433.32 35.6719 433.746 35.7999L432.786 44.8239C432.317 44.7385 431.762 44.6532 431.122 44.5679C430.482 44.4825 429.714 44.4399 428.818 44.4399C427.837 44.4399 426.834 44.5892 425.81 44.8879C424.829 45.1865 423.912 45.6772 423.058 46.3599C422.205 47.0425 421.522 47.9385 421.01 49.0479C420.498 50.1572 420.242 51.5652 420.242 53.2719V70.9999H410.578V36.0559H417.938L419.346 41.9439H419.794C420.477 40.7065 421.33 39.5972 422.354 38.6159C423.378 37.6345 424.53 36.8665 425.81 36.3119C427.09 35.7145 428.456 35.4159 429.906 35.4159Z" fill="url(#paint34_linear_112_4134)"/>
<path d="M395.516 70.9999H385.724V33.4319H373.372V25.3039H407.868V33.4319H395.516V70.9999Z" fill="url(#paint35_linear_112_4134)"/>
<defs>
<filter id="filter0_f_112_4134" x="353.372" y="14.3599" width="690.951" height="104" filterUnits="userSpaceOnUse" color-interpolation-filters="sRGB">
<feFlood flood-opacity="0" result="BackgroundImageFix"/>
<feBlend mode="normal" in="SourceGraphic" in2="BackgroundImageFix" result="shape"/>
<feGaussianBlur stdDeviation="10" result="effect1_foregroundBlur_112_4134"/>
</filter>
<linearGradient id="paint0_linear_112_4134" x1="272" y1="64.0036" x2="1129" y2="64.0028" gradientUnits="userSpaceOnUse">
<stop stop-color="white" stop-opacity="0.3"/>
<stop offset="0.495" stop-color="#CBB0F8"/>
<stop offset="1" stop-color="white" stop-opacity="0.3"/>
</linearGradient>
<linearGradient id="paint1_linear_112_4134" x1="1121.8" y1="53.9429" x2="-12571.7" y2="53.9631" gradientUnits="userSpaceOnUse">
<stop stop-color="#F4439F"/>
<stop offset="1" stop-color="#7C3AED"/>
</linearGradient>
<linearGradient id="paint2_linear_112_4134" x1="1881.12" y1="65.7105" x2="-11170.5" y2="65.7355" gradientUnits="userSpaceOnUse">
<stop stop-color="#F4439F"/>
<stop offset="1" stop-color="#7C3AED"/>
</linearGradient>
<linearGradient id="paint3_linear_112_4134" x1="2763.14" y1="53.9429" x2="-10930.3" y2="53.9631" gradientUnits="userSpaceOnUse">
<stop stop-color="#F4439F"/>
<stop offset="1" stop-color="#7C3AED"/>
</linearGradient>
<linearGradient id="paint4_linear_112_4134" x1="4304.75" y1="54.2951" x2="-14154.9" y2="54.3312" gradientUnits="userSpaceOnUse">
<stop stop-color="#F4439F"/>
<stop offset="1" stop-color="#7C3AED"/>
</linearGradient>
<linearGradient id="paint5_linear_112_4134" x1="4959" y1="60.9492" x2="-12672.7" y2="60.9889" gradientUnits="userSpaceOnUse">
<stop stop-color="#F4439F"/>
<stop offset="1" stop-color="#7C3AED"/>
</linearGradient>
<linearGradient id="paint6_linear_112_4134" x1="4580.45" y1="54.2951" x2="-8625.91" y2="54.3136" gradientUnits="userSpaceOnUse">
<stop stop-color="#F4439F"/>
<stop offset="1" stop-color="#7C3AED"/>
</linearGradient>
<linearGradient id="paint7_linear_112_4134" x1="5401.37" y1="53.9429" x2="-7857.39" y2="53.9618" gradientUnits="userSpaceOnUse">
<stop stop-color="#F4439F"/>
<stop offset="1" stop-color="#7C3AED"/>
</linearGradient>
<linearGradient id="paint8_linear_112_4134" x1="6507.53" y1="53.9429" x2="-6751.23" y2="53.9618" gradientUnits="userSpaceOnUse">
<stop stop-color="#F4439F"/>
<stop offset="1" stop-color="#7C3AED"/>
</linearGradient>
<linearGradient id="paint9_linear_112_4134" x1="7215" y1="65.7105" x2="-5836.6" y2="65.7355" gradientUnits="userSpaceOnUse">
<stop stop-color="#F4439F"/>
<stop offset="1" stop-color="#7C3AED"/>
</linearGradient>
<linearGradient id="paint10_linear_112_4134" x1="8069.32" y1="53.943" x2="-4539.02" y2="53.9601" gradientUnits="userSpaceOnUse">
<stop stop-color="#F4439F"/>
<stop offset="1" stop-color="#7C3AED"/>
</linearGradient>
<linearGradient id="paint11_linear_112_4134" x1="9539.54" y1="65.5828" x2="-4153.94" y2="65.6102" gradientUnits="userSpaceOnUse">
<stop stop-color="#F4439F"/>
<stop offset="1" stop-color="#7C3AED"/>
</linearGradient>
<linearGradient id="paint12_linear_112_4134" x1="11267.2" y1="48.2845" x2="-3885.68" y2="48.3193" gradientUnits="userSpaceOnUse">
<stop stop-color="#F4439F"/>
<stop offset="1" stop-color="#7C3AED"/>
</linearGradient>
<linearGradient id="paint13_linear_112_4134" x1="10674.9" y1="53.144" x2="-2531.45" y2="53.1625" gradientUnits="userSpaceOnUse">
<stop stop-color="#F4439F"/>
<stop offset="1" stop-color="#7C3AED"/>
</linearGradient>
<linearGradient id="paint14_linear_112_4134" x1="11386.7" y1="65.7105" x2="-1664.86" y2="65.7355" gradientUnits="userSpaceOnUse">
<stop stop-color="#F4439F"/>
<stop offset="1" stop-color="#7C3AED"/>
</linearGradient>
<linearGradient id="paint15_linear_112_4134" x1="12736.2" y1="53.943" x2="-957.235" y2="53.9632" gradientUnits="userSpaceOnUse">
<stop stop-color="#F4439F"/>
<stop offset="1" stop-color="#7C3AED"/>
</linearGradient>
<linearGradient id="paint16_linear_112_4134" x1="17749.2" y1="54.2952" x2="-710.56" y2="54.3312" gradientUnits="userSpaceOnUse">
<stop stop-color="#F4439F"/>
<stop offset="1" stop-color="#7C3AED"/>
</linearGradient>
<linearGradient id="paint17_linear_112_4134" x1="1029" y1="58.4997" x2="372" y2="58.4998" gradientUnits="userSpaceOnUse">
<stop stop-color="#F4439F"/>
<stop offset="1" stop-color="#7C3AED"/>
</linearGradient>
<linearGradient id="paint18_linear_112_4134" x1="700.5" y1="72" x2="700.5" y2="117" gradientUnits="userSpaceOnUse">
<stop offset="0.0001" stop-color="white" stop-opacity="0.1"/>
<stop offset="1" stop-color="white" stop-opacity="0"/>
</linearGradient>
<linearGradient id="paint19_linear_112_4134" x1="1121.8" y1="-34.9122" x2="773.474" y2="2181.04" gradientUnits="userSpaceOnUse">
<stop stop-color="#F4439F"/>
<stop offset="1" stop-color="#7C3AED"/>
</linearGradient>
<linearGradient id="paint20_linear_112_4134" x1="1881.12" y1="-2.78299" x2="1681.71" y2="1642.16" gradientUnits="userSpaceOnUse">
<stop stop-color="#F4439F"/>
<stop offset="1" stop-color="#7C3AED"/>
</linearGradient>
<linearGradient id="paint21_linear_112_4134" x1="2763.14" y1="-34.9122" x2="2414.82" y2="2181.04" gradientUnits="userSpaceOnUse">
<stop stop-color="#F4439F"/>
<stop offset="1" stop-color="#7C3AED"/>
</linearGradient>
<linearGradient id="paint22_linear_112_4134" x1="4304.75" y1="-35.9423" x2="4034.18" y2="2243.49" gradientUnits="userSpaceOnUse">
<stop stop-color="#F4439F"/>
<stop offset="1" stop-color="#7C3AED"/>
</linearGradient>
<linearGradient id="paint23_linear_112_4134" x1="4959" y1="-15.783" x2="4764.41" y2="1876.74" gradientUnits="userSpaceOnUse">
<stop stop-color="#F4439F"/>
<stop offset="1" stop-color="#7C3AED"/>
</linearGradient>
<linearGradient id="paint24_linear_112_4134" x1="4580.45" y1="-35.9423" x2="4207.19" y2="2213.68" gradientUnits="userSpaceOnUse">
<stop stop-color="#F4439F"/>
<stop offset="1" stop-color="#7C3AED"/>
</linearGradient>
<linearGradient id="paint25_linear_112_4134" x1="5401.37" y1="-34.9122" x2="5042.21" y2="2177.49" gradientUnits="userSpaceOnUse">
<stop stop-color="#F4439F"/>
<stop offset="1" stop-color="#7C3AED"/>
</linearGradient>
<linearGradient id="paint26_linear_112_4134" x1="6507.53" y1="-34.9122" x2="6148.36" y2="2177.49" gradientUnits="userSpaceOnUse">
<stop stop-color="#F4439F"/>
<stop offset="1" stop-color="#7C3AED"/>
</linearGradient>
<linearGradient id="paint27_linear_112_4134" x1="7215" y1="-2.783" x2="7015.59" y2="1642.16" gradientUnits="userSpaceOnUse">
<stop stop-color="#F4439F"/>
<stop offset="1" stop-color="#7C3AED"/>
</linearGradient>
<linearGradient id="paint28_linear_112_4134" x1="8069.31" y1="-34.9122" x2="7692.64" y2="2171.49" gradientUnits="userSpaceOnUse">
<stop stop-color="#F4439F"/>
<stop offset="1" stop-color="#7C3AED"/>
</linearGradient>
<linearGradient id="paint29_linear_112_4134" x1="9539.54" y1="-3.13169" x2="9347.75" y2="1650.27" gradientUnits="userSpaceOnUse">
<stop stop-color="#F4439F"/>
<stop offset="1" stop-color="#7C3AED"/>
</linearGradient>
<linearGradient id="paint30_linear_112_4134" x1="11267.2" y1="-18.3637" x2="11105.8" y2="1579.93" gradientUnits="userSpaceOnUse">
<stop stop-color="#F4439F"/>
<stop offset="1" stop-color="#7C3AED"/>
</linearGradient>
<linearGradient id="paint31_linear_112_4134" x1="10674.9" y1="-37.0934" x2="10301.7" y2="2212.52" gradientUnits="userSpaceOnUse">
<stop stop-color="#F4439F"/>
<stop offset="1" stop-color="#7C3AED"/>
</linearGradient>
<linearGradient id="paint32_linear_112_4134" x1="11386.7" y1="-2.78299" x2="11187.3" y2="1642.16" gradientUnits="userSpaceOnUse">
<stop stop-color="#F4439F"/>
<stop offset="1" stop-color="#7C3AED"/>
</linearGradient>
<linearGradient id="paint33_linear_112_4134" x1="12736.2" y1="-34.9122" x2="12387.9" y2="2181.04" gradientUnits="userSpaceOnUse">
<stop stop-color="#F4439F"/>
<stop offset="1" stop-color="#7C3AED"/>
</linearGradient>
<linearGradient id="paint34_linear_112_4134" x1="17749.2" y1="-35.9423" x2="17478.6" y2="2243.49" gradientUnits="userSpaceOnUse">
<stop stop-color="#F4439F"/>
<stop offset="1" stop-color="#7C3AED"/>
</linearGradient>
<linearGradient id="paint35_linear_112_4134" x1="1029" y1="2.99973" x2="492.062" y2="292.558" gradientUnits="userSpaceOnUse">
<stop stop-color="#F4439F"/>
<stop offset="1" stop-color="#7C3AED"/>
</linearGradient>
</defs>
</svg>
