<svg width="1400" height="120" viewBox="0 0 1400 120" fill="none" xmlns="http://www.w3.org/2000/svg">
<path d="M119 56H1282V72H119V56Z" fill="url(#paint0_linear_112_4190)"/>
<mask id="mask0_112_4190" style="mask-type:alpha" maskUnits="userSpaceOnUse" x="119" y="72" width="1163" height="45">
<path d="M119 72H1282V117H119V72Z" fill="#C4C4C4"/>
</mask>
<g mask="url(#mask0_112_4190)">
<g filter="url(#filter0_f_112_4190)">
<path d="M1179.87 65.464C1179.87 68.3654 1179.46 70.9467 1178.65 73.208C1177.88 75.4694 1176.75 77.368 1175.26 78.904C1173.81 80.44 1172.04 81.6134 1169.95 82.424C1167.85 83.2347 1165.49 83.64 1162.84 83.64C1160.37 83.64 1158.11 83.2347 1156.06 82.424C1154.01 81.6134 1152.24 80.44 1150.75 78.904C1149.25 77.368 1148.08 75.4694 1147.23 73.208C1146.37 70.9467 1145.95 68.3654 1145.95 65.464C1145.95 61.5814 1146.63 58.296 1147.99 55.608C1149.36 52.92 1151.32 50.8934 1153.88 49.528C1156.44 48.12 1159.49 47.416 1163.03 47.416C1166.32 47.416 1169.22 48.12 1171.74 49.528C1174.25 50.8934 1176.24 52.92 1177.69 55.608C1179.14 58.296 1179.87 61.5814 1179.87 65.464ZM1155.8 65.464C1155.8 67.7254 1156.04 69.6667 1156.51 71.288C1157.02 72.9094 1157.79 74.1467 1158.81 75C1159.88 75.8534 1161.26 76.28 1162.97 76.28C1164.63 76.28 1165.98 75.8534 1167 75C1168.07 74.1467 1168.84 72.9094 1169.31 71.288C1169.77 69.6667 1170.01 67.7254 1170.01 65.464C1170.01 63.16 1169.75 61.2187 1169.24 59.64C1168.77 58.0614 1168.03 56.8667 1167 56.056C1165.98 55.2027 1164.61 54.776 1162.91 54.776C1160.43 54.776 1158.62 55.6934 1157.47 57.528C1156.36 59.3627 1155.8 62.008 1155.8 65.464Z" fill="url(#paint1_linear_112_4190)" fill-opacity="0.7"/>
<path d="M1124.91 47.416C1129.31 47.416 1132.66 48.4614 1134.96 50.552C1137.26 52.6 1138.42 55.6507 1138.42 59.704V83H1131.7L1129.84 78.264H1129.59C1128.6 79.5014 1127.58 80.5254 1126.51 81.336C1125.49 82.1467 1124.29 82.7227 1122.93 83.064C1121.56 83.448 1119.9 83.64 1117.94 83.64C1115.89 83.64 1114.05 83.256 1112.43 82.488C1110.81 81.6774 1109.53 80.4614 1108.59 78.84C1107.65 77.2187 1107.18 75.1707 1107.18 72.696C1107.18 69.0267 1108.51 66.2747 1111.15 64.44C1113.8 62.6054 1117.74 61.5814 1122.99 61.368L1128.82 61.176V60.088C1128.82 57.9974 1128.35 56.5467 1127.41 55.736C1126.47 54.8827 1125.15 54.456 1123.44 54.456C1121.86 54.456 1120.24 54.712 1118.58 55.224C1116.91 55.736 1115.27 56.3547 1113.65 57.08L1110.83 50.488C1112.67 49.5494 1114.76 48.8027 1117.1 48.248C1119.49 47.6934 1122.1 47.416 1124.91 47.416ZM1125.17 67C1122.14 67.0854 1120.03 67.576 1118.83 68.472C1117.64 69.368 1117.04 70.6267 1117.04 72.248C1117.04 73.7414 1117.45 74.8507 1118.26 75.576C1119.11 76.2587 1120.24 76.6 1121.65 76.6C1123.65 76.6 1125.34 76.0027 1126.71 74.808C1128.11 73.6134 1128.82 71.9067 1128.82 69.688V66.808L1125.17 67ZM1111.22 44.28C1111.34 42.616 1111.64 41.1867 1112.11 39.992C1112.62 38.7547 1113.27 37.752 1114.03 36.984C1114.8 36.1734 1115.65 35.576 1116.59 35.192C1117.57 34.808 1118.62 34.616 1119.73 34.616C1120.58 34.616 1121.41 34.7867 1122.22 35.128C1123.08 35.4267 1123.89 35.8107 1124.66 36.28C1125.47 36.7067 1126.26 37.0907 1127.03 37.432C1127.79 37.7307 1128.56 37.88 1129.33 37.88C1129.97 37.88 1130.59 37.6027 1131.18 37.048C1131.78 36.4934 1132.21 35.6614 1132.47 34.552H1137.14C1136.88 37.8374 1135.94 40.2694 1134.32 41.848C1132.7 43.4267 1130.8 44.216 1128.62 44.216C1127.77 44.216 1126.94 44.0667 1126.13 43.768C1125.32 43.4267 1124.51 43.0427 1123.7 42.616C1122.89 42.1467 1122.1 41.7627 1121.33 41.464C1120.56 41.1227 1119.79 40.952 1119.03 40.952C1118.39 40.952 1117.77 41.2294 1117.17 41.784C1116.57 42.3387 1116.14 43.1707 1115.89 44.28H1111.22Z" fill="url(#paint2_linear_112_4190)" fill-opacity="0.7"/>
<path d="M1091.53 83.64C1088.16 83.64 1085.19 83.0214 1082.63 81.784C1080.12 80.504 1078.15 78.5414 1076.74 75.896C1075.34 73.208 1074.63 69.816 1074.63 65.72C1074.63 61.4107 1075.4 57.912 1076.94 55.224C1078.47 52.536 1080.56 50.5734 1083.21 49.336C1085.85 48.056 1088.86 47.416 1092.23 47.416C1094.28 47.416 1096.2 47.6294 1097.99 48.056C1099.83 48.4827 1101.45 49.0587 1102.86 49.784L1099.98 57.08C1098.7 56.5254 1097.4 56.0774 1096.07 55.736C1094.79 55.352 1093.51 55.16 1092.23 55.16C1090.57 55.16 1089.16 55.544 1088.01 56.312C1086.86 57.08 1085.98 58.2534 1085.39 59.832C1084.79 61.368 1084.49 63.3094 1084.49 65.656C1084.49 67.96 1084.79 69.8587 1085.39 71.352C1085.98 72.8454 1086.86 73.976 1088.01 74.744C1089.16 75.4694 1090.53 75.832 1092.1 75.832C1093.94 75.832 1095.67 75.5974 1097.29 75.128C1098.91 74.616 1100.45 73.9547 1101.9 73.144V81.016C1100.57 81.8267 1099.08 82.4667 1097.42 82.936C1095.75 83.4054 1093.79 83.64 1091.53 83.64ZM1097.99 91.256C1097.99 93.432 1097.2 95.16 1095.62 96.44C1094.05 97.72 1091.85 98.36 1089.03 98.36C1087.92 98.36 1086.88 98.2747 1085.9 98.104C1084.96 97.976 1084.19 97.8054 1083.59 97.592V92.536C1084.19 92.7067 1084.81 92.8347 1085.45 92.92C1086.13 93.048 1086.79 93.112 1087.43 93.112C1088.54 93.112 1089.37 92.92 1089.93 92.536C1090.53 92.1947 1090.83 91.64 1090.83 90.872C1090.83 90.0187 1090.4 89.3574 1089.54 88.888C1088.69 88.4187 1087.45 88.056 1085.83 87.8L1088.07 83H1093.19L1092.23 85.496C1093.13 85.6667 1094.03 85.9654 1094.92 86.392C1095.82 86.8614 1096.54 87.48 1097.1 88.248C1097.69 89.016 1097.99 90.0187 1097.99 91.256Z" fill="url(#paint3_linear_112_4190)" fill-opacity="0.7"/>
<path d="M1066.86 48.056V83H1059.44L1058.22 78.52H1057.65C1056.92 79.7147 1055.98 80.696 1054.83 81.464C1053.72 82.232 1052.49 82.7867 1051.12 83.128C1049.8 83.4694 1048.39 83.64 1046.9 83.64C1044.42 83.64 1042.25 83.192 1040.37 82.296C1038.53 81.4 1037.08 80.0134 1036.02 78.136C1034.99 76.2587 1034.48 73.8267 1034.48 70.84V48.056H1044.21V68.408C1044.21 70.8827 1044.63 72.76 1045.49 74.04C1046.38 75.2774 1047.79 75.896 1049.71 75.896C1051.67 75.896 1053.19 75.4694 1054.26 74.616C1055.37 73.72 1056.13 72.4187 1056.56 70.712C1056.99 69.0054 1057.2 66.9147 1057.2 64.44V48.056H1066.86Z" fill="url(#paint4_linear_112_4190)" fill-opacity="0.7"/>
<path d="M1005.69 83.64C1001.85 83.64 998.693 82.1254 996.219 79.096C993.787 76.024 992.57 71.5227 992.57 65.592C992.57 59.576 993.808 55.0534 996.282 52.024C998.757 48.952 1002 47.416 1006.01 47.416C1007.67 47.416 1009.1 47.6507 1010.3 48.12C1011.54 48.5467 1012.6 49.144 1013.5 49.912C1014.39 50.68 1015.16 51.5547 1015.8 52.536H1016.12C1015.99 51.768 1015.87 50.7014 1015.74 49.336C1015.65 47.928 1015.61 46.648 1015.61 45.496V34.36H1025.34V83H1017.91L1015.99 78.456H1015.61C1015.01 79.4374 1014.27 80.312 1013.37 81.08C1012.47 81.848 1011.39 82.4667 1010.11 82.936C1008.87 83.4054 1007.4 83.64 1005.69 83.64ZM1009.08 75.896C1011.73 75.896 1013.58 75.1494 1014.65 73.656C1015.72 72.12 1016.25 69.7947 1016.25 66.68V65.656C1016.25 62.2854 1015.74 59.704 1014.71 57.912C1013.69 56.12 1011.79 55.224 1009.02 55.224C1006.93 55.224 1005.29 56.12 1004.09 57.912C1002.94 59.704 1002.36 62.3067 1002.36 65.72C1002.36 69.1334 1002.94 71.6934 1004.09 73.4C1005.29 75.064 1006.95 75.896 1009.08 75.896Z" fill="url(#paint5_linear_112_4190)" fill-opacity="0.7"/>
<path d="M971.538 47.416C975.933 47.416 979.282 48.4614 981.586 50.552C983.89 52.6 985.042 55.6507 985.042 59.704V83H978.322L976.466 78.264H976.21C975.229 79.5014 974.205 80.5254 973.138 81.336C972.114 82.1467 970.919 82.7227 969.554 83.064C968.189 83.448 966.525 83.64 964.562 83.64C962.514 83.64 960.679 83.256 959.058 82.488C957.437 81.6774 956.157 80.4614 955.218 78.84C954.279 77.2187 953.81 75.1707 953.81 72.696C953.81 69.0267 955.133 66.2747 957.778 64.44C960.423 62.6054 964.37 61.5814 969.618 61.368L975.442 61.176V60.088C975.442 57.9974 974.973 56.5467 974.034 55.736C973.095 54.8827 971.773 54.456 970.066 54.456C968.487 54.456 966.866 54.712 965.202 55.224C963.538 55.736 961.895 56.3547 960.274 57.08L957.458 50.488C959.293 49.5494 961.383 48.8027 963.73 48.248C966.119 47.6934 968.722 47.416 971.538 47.416ZM971.794 67C968.765 67.0854 966.653 67.576 965.458 68.472C964.263 69.368 963.666 70.6267 963.666 72.248C963.666 73.7414 964.071 74.8507 964.882 75.576C965.735 76.2587 966.866 76.6 968.274 76.6C970.279 76.6 971.965 76.0027 973.33 74.808C974.738 73.6134 975.442 71.9067 975.442 69.688V66.808L971.794 67Z" fill="url(#paint6_linear_112_4190)" fill-opacity="0.7"/>
<path d="M947.875 47.416C948.515 47.416 949.198 47.4587 949.923 47.544C950.691 47.5867 951.288 47.672 951.715 47.8L950.755 56.824C950.286 56.7387 949.731 56.6534 949.091 56.568C948.451 56.4827 947.683 56.44 946.787 56.44C945.806 56.44 944.803 56.5894 943.779 56.888C942.798 57.1867 941.88 57.6774 941.027 58.36C940.174 59.0427 939.491 59.9387 938.979 61.048C938.467 62.1574 938.211 63.5654 938.211 65.272V83H928.547V48.056H935.907L937.315 53.944H937.763C938.446 52.7067 939.299 51.5974 940.323 50.616C941.347 49.6347 942.499 48.8667 943.779 48.312C945.059 47.7147 946.424 47.416 947.875 47.416Z" fill="url(#paint7_linear_112_4190)" fill-opacity="0.7"/>
<path d="M915.837 76.024C916.904 76.024 917.928 75.9174 918.909 75.704C919.89 75.4907 920.872 75.2347 921.853 74.936V82.04C920.829 82.4667 919.549 82.8294 918.013 83.128C916.52 83.4694 914.877 83.64 913.085 83.64C910.994 83.64 909.117 83.2987 907.453 82.616C905.832 81.9334 904.53 80.76 903.549 79.096C902.61 77.3894 902.141 75.0427 902.141 72.056V55.224H897.597V51.192L902.845 47.992L905.597 40.632H911.677V48.056H921.469V55.224H911.677V72.056C911.677 73.3787 912.061 74.3814 912.829 75.064C913.597 75.704 914.6 76.024 915.837 76.024Z" fill="url(#paint8_linear_112_4190)" fill-opacity="0.7"/>
<path d="M860.896 47.416C864.139 47.416 866.934 48.0347 869.281 49.272C871.627 50.4667 873.419 52.2587 874.656 54.648C875.936 56.9947 876.576 59.8747 876.576 63.288V67.96H854.112C854.198 70.6054 855.008 72.696 856.544 74.232C858.08 75.7254 860.278 76.472 863.136 76.472C865.312 76.472 867.297 76.2587 869.089 75.832C870.881 75.4054 872.715 74.7654 874.593 73.912V81.144C872.886 81.9974 871.073 82.616 869.153 83C867.275 83.4267 864.928 83.64 862.112 83.64C858.656 83.64 855.584 83 852.896 81.72C850.251 80.44 848.161 78.4774 846.625 75.832C845.089 73.144 844.32 69.7947 844.32 65.784C844.32 61.688 845.003 58.296 846.369 55.608C847.777 52.8774 849.718 50.8294 852.193 49.464C854.71 48.0987 857.611 47.416 860.896 47.416ZM861.153 54.264C859.233 54.264 857.675 54.8827 856.481 56.12C855.286 57.3147 854.582 59.1067 854.369 61.496H867.552C867.552 60.088 867.318 58.8507 866.849 57.784C866.379 56.7174 865.654 55.864 864.672 55.224C863.734 54.584 862.561 54.264 861.153 54.264Z" fill="url(#paint9_linear_112_4190)" fill-opacity="0.7"/>
<path d="M817.003 83.64C813.163 83.64 810.006 82.1254 807.531 79.096C805.099 76.024 803.883 71.5227 803.883 65.592C803.883 59.576 805.12 55.0534 807.595 52.024C810.07 48.952 813.312 47.416 817.323 47.416C818.987 47.416 820.416 47.6507 821.611 48.12C822.848 48.5467 823.915 49.144 824.811 49.912C825.707 50.68 826.475 51.5547 827.115 52.536H827.435C827.307 51.768 827.179 50.7014 827.051 49.336C826.966 47.928 826.923 46.648 826.923 45.496V34.36H836.651V83H829.227L827.307 78.456H826.923C826.326 79.4374 825.579 80.312 824.683 81.08C823.787 81.848 822.699 82.4667 821.419 82.936C820.182 83.4054 818.71 83.64 817.003 83.64ZM820.395 75.896C823.04 75.896 824.896 75.1494 825.963 73.656C827.03 72.12 827.563 69.7947 827.563 66.68V65.656C827.563 62.2854 827.051 59.704 826.027 57.912C825.003 56.12 823.104 55.224 820.331 55.224C818.24 55.224 816.598 56.12 815.403 57.912C814.251 59.704 813.675 62.3067 813.675 65.72C813.675 69.1334 814.251 71.6934 815.403 73.4C816.598 75.064 818.262 75.896 820.395 75.896Z" fill="url(#paint10_linear_112_4190)" fill-opacity="0.7"/>
<path d="M781.565 72.696C781.565 74.9147 781.032 76.856 779.965 78.52C778.941 80.1414 777.362 81.4 775.229 82.296C773.096 83.192 770.386 83.64 767.101 83.64C764.626 83.64 762.45 83.4694 760.573 83.128C758.696 82.8294 756.882 82.3174 755.133 81.592V73.592C757.01 74.488 759.037 75.192 761.213 75.704C763.389 76.216 765.266 76.472 766.845 76.472C768.808 76.472 770.216 76.1947 771.069 75.64C771.965 75.0854 772.413 74.3387 772.413 73.4C772.413 72.76 772.178 72.184 771.709 71.672C771.282 71.16 770.493 70.6267 769.341 70.072C768.232 69.5174 766.632 68.8347 764.541 68.024C762.45 67.1707 760.701 66.296 759.293 65.4C757.885 64.4614 756.818 63.352 756.093 62.072C755.41 60.792 755.069 59.192 755.069 57.272C755.069 54.072 756.328 51.64 758.845 49.976C761.405 48.2694 764.776 47.416 768.957 47.416C771.218 47.416 773.309 47.6507 775.229 48.12C777.192 48.5894 779.176 49.2507 781.181 50.104L778.365 56.696C776.744 55.9707 775.08 55.3734 773.373 54.904C771.666 54.4347 770.152 54.2 768.829 54.2C767.378 54.2 766.248 54.4347 765.437 54.904C764.626 55.3307 764.221 55.9494 764.221 56.76C764.221 57.3574 764.434 57.8907 764.861 58.36C765.33 58.8294 766.12 59.32 767.229 59.832C768.381 60.344 769.981 61.0054 772.029 61.816C774.12 62.6267 775.869 63.5014 777.277 64.44C778.728 65.336 779.794 66.4454 780.477 67.768C781.202 69.048 781.565 70.6907 781.565 72.696Z" fill="url(#paint11_linear_112_4190)" fill-opacity="0.7"/>
<path d="M734.101 47.416C738.495 47.416 741.844 48.4614 744.148 50.552C746.452 52.6 747.604 55.6507 747.604 59.704V83H740.885L739.029 78.264H738.773C737.791 79.5014 736.767 80.5254 735.701 81.336C734.677 82.1467 733.482 82.7227 732.117 83.064C730.751 83.448 729.087 83.64 727.125 83.64C725.077 83.64 723.242 83.256 721.621 82.488C719.999 81.6774 718.719 80.4614 717.78 78.84C716.842 77.2187 716.372 75.1707 716.372 72.696C716.372 69.0267 717.695 66.2747 720.341 64.44C722.986 62.6054 726.932 61.5814 732.18 61.368L738.005 61.176V60.088C738.005 57.9974 737.535 56.5467 736.596 55.736C735.658 54.8827 734.335 54.456 732.628 54.456C731.05 54.456 729.428 54.712 727.764 55.224C726.1 55.736 724.458 56.3547 722.836 57.08L720.021 50.488C721.855 49.5494 723.946 48.8027 726.293 48.248C728.682 47.6934 731.285 47.416 734.101 47.416ZM734.357 67C731.327 67.0854 729.215 67.576 728.021 68.472C726.826 69.368 726.229 70.6267 726.229 72.248C726.229 73.7414 726.634 74.8507 727.444 75.576C728.298 76.2587 729.428 76.6 730.836 76.6C732.842 76.6 734.527 76.0027 735.893 74.808C737.301 73.6134 738.005 71.9067 738.005 69.688V66.808L734.357 67Z" fill="url(#paint12_linear_112_4190)" fill-opacity="0.7"/>
<path d="M705.775 76.024C706.841 76.024 707.865 75.9174 708.846 75.704C709.828 75.4907 710.809 75.2347 711.79 74.936V82.04C710.766 82.4667 709.487 82.8294 707.951 83.128C706.457 83.4694 704.814 83.64 703.022 83.64C700.932 83.64 699.055 83.2987 697.391 82.616C695.769 81.9334 694.468 80.76 693.487 79.096C692.548 77.3894 692.078 75.0427 692.078 72.056V55.224H687.534V51.192L692.783 47.992L695.534 40.632H701.615V48.056H711.406V55.224H701.615V72.056C701.615 73.3787 701.999 74.3814 702.767 75.064C703.535 75.704 704.537 76.024 705.775 76.024Z" fill="url(#paint13_linear_112_4190)" fill-opacity="0.7"/>
<path d="M669.078 47.416C672.918 47.416 675.947 48.4187 678.165 50.424C680.384 52.4294 681.493 55.6934 681.493 60.216V83H671.893V62.648C671.893 60.1307 671.424 58.2534 670.486 57.016C669.59 55.736 668.182 55.096 666.262 55.096C663.36 55.096 661.376 56.0987 660.31 58.104C659.286 60.0667 658.773 62.904 658.773 66.616V83H649.109V48.056H656.534L657.878 52.728H658.262C659.03 51.576 659.947 50.616 661.013 49.848C662.123 49.0374 663.339 48.44 664.661 48.056C666.027 47.6294 667.499 47.416 669.078 47.416Z" fill="url(#paint14_linear_112_4190)" fill-opacity="0.7"/>
<path d="M625.834 47.416C629.077 47.416 631.871 48.0347 634.218 49.272C636.565 50.4667 638.357 52.2587 639.594 54.648C640.874 56.9947 641.514 59.8747 641.514 63.288V67.96H619.05C619.135 70.6054 619.946 72.696 621.482 74.232C623.018 75.7254 625.215 76.472 628.074 76.472C630.25 76.472 632.234 76.2587 634.026 75.832C635.818 75.4054 637.653 74.7654 639.53 73.912V81.144C637.823 81.9974 636.01 82.616 634.09 83C632.213 83.4267 629.866 83.64 627.05 83.64C623.594 83.64 620.522 83 617.834 81.72C615.189 80.44 613.098 78.4774 611.562 75.832C610.026 73.144 609.258 69.7947 609.258 65.784C609.258 61.688 609.941 58.296 611.306 55.608C612.714 52.8774 614.655 50.8294 617.13 49.464C619.647 48.0987 622.549 47.416 625.834 47.416ZM626.09 54.264C624.17 54.264 622.613 54.8827 621.418 56.12C620.223 57.3147 619.519 59.1067 619.306 61.496H632.49C632.49 60.088 632.255 58.8507 631.786 57.784C631.317 56.7174 630.591 55.864 629.61 55.224C628.671 54.584 627.498 54.264 626.09 54.264Z" fill="url(#paint15_linear_112_4190)" fill-opacity="0.7"/>
<path d="M589.571 47.416C593.582 47.416 596.611 48.4187 598.659 50.424C600.707 52.4294 601.731 55.6934 601.731 60.216V83H592.131V62.648C592.131 59.96 591.683 58.04 590.787 56.888C589.891 55.6934 588.547 55.096 586.755 55.096C584.28 55.096 582.531 56.0134 581.507 57.848C580.483 59.64 579.971 62.2 579.971 65.528V83H570.307V62.648C570.307 60.8987 570.115 59.4694 569.731 58.36C569.347 57.2507 568.771 56.44 568.003 55.928C567.235 55.3734 566.254 55.096 565.059 55.096C563.31 55.096 561.923 55.544 560.899 56.44C559.918 57.336 559.214 58.6374 558.787 60.344C558.403 62.0507 558.211 64.1414 558.211 66.616V83H548.547V48.056H555.971L557.379 52.536H557.699C558.382 51.4694 559.214 50.552 560.195 49.784C561.219 49.016 562.392 48.44 563.715 48.056C565.038 47.6294 566.51 47.416 568.131 47.416C570.734 47.416 572.888 47.864 574.595 48.76C576.344 49.656 577.71 50.9574 578.691 52.664H579.011C580.163 50.9147 581.656 49.6134 583.491 48.76C585.326 47.864 587.352 47.416 589.571 47.416Z" fill="url(#paint16_linear_112_4190)" fill-opacity="0.7"/>
<path d="M525.85 47.416C530.245 47.416 533.594 48.4614 535.898 50.552C538.202 52.6 539.354 55.6507 539.354 59.704V83H532.634L530.779 78.264H530.522C529.541 79.5014 528.517 80.5254 527.451 81.336C526.427 82.1467 525.232 82.7227 523.867 83.064C522.501 83.448 520.837 83.64 518.875 83.64C516.827 83.64 514.992 83.256 513.371 82.488C511.749 81.6774 510.469 80.4614 509.53 78.84C508.592 77.2187 508.122 75.1707 508.122 72.696C508.122 69.0267 509.445 66.2747 512.091 64.44C514.736 62.6054 518.683 61.5814 523.931 61.368L529.755 61.176V60.088C529.755 57.9974 529.285 56.5467 528.346 55.736C527.408 54.8827 526.085 54.456 524.379 54.456C522.8 54.456 521.178 54.712 519.514 55.224C517.85 55.736 516.208 56.3547 514.586 57.08L511.771 50.488C513.605 49.5494 515.696 48.8027 518.043 48.248C520.432 47.6934 523.034 47.416 525.85 47.416ZM526.107 67C523.077 67.0854 520.965 67.576 519.771 68.472C518.576 69.368 517.979 70.6267 517.979 72.248C517.979 73.7414 518.384 74.8507 519.194 75.576C520.048 76.2587 521.178 76.6 522.586 76.6C524.592 76.6 526.277 76.0027 527.643 74.808C529.051 73.6134 529.755 71.9067 529.755 69.688V66.808L526.107 67Z" fill="url(#paint17_linear_112_4190)" fill-opacity="0.7"/>
<path d="M502.188 47.416C502.827 47.416 503.51 47.4587 504.236 47.544C505.004 47.5867 505.601 47.672 506.027 47.8L505.068 56.824C504.598 56.7387 504.044 56.6534 503.404 56.568C502.764 56.4827 501.995 56.44 501.099 56.44C500.118 56.44 499.115 56.5894 498.091 56.888C497.11 57.1867 496.193 57.6774 495.34 58.36C494.486 59.0427 493.804 59.9387 493.292 61.048C492.78 62.1574 492.523 63.5654 492.523 65.272V83H482.859V48.056H490.22L491.628 53.944H492.076C492.758 52.7067 493.611 51.5974 494.635 50.616C495.659 49.6347 496.811 48.8667 498.091 48.312C499.371 47.7147 500.737 47.416 502.188 47.416Z" fill="url(#paint18_linear_112_4190)" fill-opacity="0.7"/>
<path d="M473.562 47.416C474.202 47.416 474.885 47.4587 475.611 47.544C476.379 47.5867 476.976 47.672 477.402 47.8L476.443 56.824C475.973 56.7387 475.419 56.6534 474.779 56.568C474.139 56.4827 473.371 56.44 472.475 56.44C471.493 56.44 470.491 56.5894 469.467 56.888C468.485 57.1867 467.568 57.6774 466.715 58.36C465.861 59.0427 465.179 59.9387 464.667 61.048C464.155 62.1574 463.898 63.5654 463.898 65.272V83H454.234V48.056H461.594L463.003 53.944H463.451C464.133 52.7067 464.986 51.5974 466.01 50.616C467.034 49.6347 468.187 48.8667 469.467 48.312C470.747 47.7147 472.112 47.416 473.562 47.416Z" fill="url(#paint19_linear_112_4190)" fill-opacity="0.7"/>
<path d="M430.959 47.416C434.202 47.416 436.996 48.0347 439.343 49.272C441.69 50.4667 443.482 52.2587 444.719 54.648C445.999 56.9947 446.639 59.8747 446.639 63.288V67.96H424.175C424.26 70.6054 425.071 72.696 426.607 74.232C428.143 75.7254 430.34 76.472 433.199 76.472C435.375 76.472 437.359 76.2587 439.151 75.832C440.943 75.4054 442.778 74.7654 444.655 73.912V81.144C442.948 81.9974 441.135 82.616 439.215 83C437.338 83.4267 434.991 83.64 432.175 83.64C428.719 83.64 425.647 83 422.959 81.72C420.314 80.44 418.223 78.4774 416.687 75.832C415.151 73.144 414.383 69.7947 414.383 65.784C414.383 61.688 415.066 58.296 416.431 55.608C417.839 52.8774 419.78 50.8294 422.255 49.464C424.772 48.0987 427.674 47.416 430.959 47.416ZM431.215 54.264C429.295 54.264 427.738 54.8827 426.543 56.12C425.348 57.3147 424.644 59.1067 424.431 61.496H437.615C437.615 60.088 437.38 58.8507 436.911 57.784C436.442 56.7174 435.716 55.864 434.735 55.224C433.796 54.584 432.623 54.264 431.215 54.264Z" fill="url(#paint20_linear_112_4190)" fill-opacity="0.7"/>
<path d="M410.945 55.224H402.689V83H393.153V55.224H387.905V50.616L393.153 48.056V45.496C393.153 42.5094 393.644 40.2054 394.625 38.584C395.649 36.92 397.078 35.7467 398.913 35.064C400.79 34.3814 402.988 34.04 405.505 34.04C407.382 34.04 409.068 34.1894 410.561 34.488C412.097 34.7867 413.334 35.128 414.273 35.512L411.841 42.488C411.116 42.2747 410.326 42.0827 409.473 41.912C408.62 41.6987 407.638 41.592 406.529 41.592C405.206 41.592 404.225 41.9974 403.585 42.808C402.988 43.6187 402.689 44.6427 402.689 45.88V48.056H410.945V55.224Z" fill="url(#paint21_linear_112_4190)" fill-opacity="0.7"/>
<path d="M367.315 72.696C367.315 74.9147 366.782 76.856 365.715 78.52C364.691 80.1414 363.112 81.4 360.979 82.296C358.846 83.192 356.136 83.64 352.851 83.64C350.376 83.64 348.2 83.4694 346.323 83.128C344.446 82.8294 342.632 82.3174 340.883 81.592V73.592C342.76 74.488 344.787 75.192 346.963 75.704C349.139 76.216 351.016 76.472 352.595 76.472C354.558 76.472 355.966 76.1947 356.819 75.64C357.715 75.0854 358.163 74.3387 358.163 73.4C358.163 72.76 357.928 72.184 357.459 71.672C357.032 71.16 356.243 70.6267 355.091 70.072C353.982 69.5174 352.382 68.8347 350.291 68.024C348.2 67.1707 346.451 66.296 345.043 65.4C343.635 64.4614 342.568 63.352 341.843 62.072C341.16 60.792 340.819 59.192 340.819 57.272C340.819 54.072 342.078 51.64 344.595 49.976C347.155 48.2694 350.526 47.416 354.707 47.416C356.968 47.416 359.059 47.6507 360.979 48.12C362.942 48.5894 364.926 49.2507 366.931 50.104L364.115 56.696C362.494 55.9707 360.83 55.3734 359.123 54.904C357.416 54.4347 355.902 54.2 354.579 54.2C353.128 54.2 351.998 54.4347 351.187 54.904C350.376 55.3307 349.971 55.9494 349.971 56.76C349.971 57.3574 350.184 57.8907 350.611 58.36C351.08 58.8294 351.87 59.32 352.979 59.832C354.131 60.344 355.731 61.0054 357.779 61.816C359.87 62.6267 361.619 63.5014 363.027 64.44C364.478 65.336 365.544 66.4454 366.227 67.768C366.952 69.048 367.315 70.6907 367.315 72.696Z" fill="url(#paint22_linear_112_4190)" fill-opacity="0.7"/>
<path d="M333.15 48.056V83H323.486V48.056H333.15ZM328.35 34.296C329.758 34.296 330.974 34.6374 331.998 35.32C333.065 35.96 333.598 37.1974 333.598 39.032C333.598 40.7814 333.065 41.9974 331.998 42.68C330.974 43.3627 329.758 43.704 328.35 43.704C326.899 43.704 325.662 43.3627 324.638 42.68C323.614 41.9974 323.102 40.7814 323.102 39.032C323.102 37.1974 323.614 35.96 324.638 35.32C325.662 34.6374 326.899 34.296 328.35 34.296Z" fill="url(#paint23_linear_112_4190)" fill-opacity="0.7"/>
<path d="M300.726 47.416C305.12 47.416 308.469 48.4614 310.773 50.552C313.077 52.6 314.23 55.6507 314.23 59.704V83H307.51L305.654 78.264H305.398C304.416 79.5014 303.392 80.5254 302.326 81.336C301.302 82.1467 300.107 82.7227 298.742 83.064C297.376 83.448 295.712 83.64 293.749 83.64C291.701 83.64 289.867 83.256 288.246 82.488C286.624 81.6774 285.344 80.4614 284.406 78.84C283.467 77.2187 282.998 75.1707 282.998 72.696C282.998 69.0267 284.32 66.2747 286.966 64.44C289.611 62.6054 293.557 61.5814 298.805 61.368L304.63 61.176V60.088C304.63 57.9974 304.16 56.5467 303.221 55.736C302.283 54.8827 300.96 54.456 299.254 54.456C297.675 54.456 296.054 54.712 294.39 55.224C292.726 55.736 291.083 56.3547 289.462 57.08L286.646 50.488C288.48 49.5494 290.571 48.8027 292.918 48.248C295.307 47.6934 297.91 47.416 300.726 47.416ZM300.982 67C297.952 67.0854 295.84 67.576 294.646 68.472C293.451 69.368 292.854 70.6267 292.854 72.248C292.854 73.7414 293.259 74.8507 294.07 75.576C294.923 76.2587 296.054 76.6 297.462 76.6C299.467 76.6 301.152 76.0027 302.518 74.808C303.926 73.6134 304.63 71.9067 304.63 69.688V66.808L300.982 67Z" fill="url(#paint24_linear_112_4190)" fill-opacity="0.7"/>
<path d="M245.151 83L234.143 47.16H233.887C233.929 48.0134 233.993 49.2934 234.079 51C234.164 52.7067 234.249 54.5414 234.335 56.504C234.42 58.424 234.463 60.1734 234.463 61.752V83H225.823V37.304H239.007L249.823 72.248H250.015L261.471 37.304H274.655V83H265.631V61.368C265.631 59.9174 265.652 58.2534 265.695 56.376C265.78 54.4987 265.844 52.728 265.887 51.064C265.972 49.3574 266.036 48.0774 266.079 47.224H265.823L254.047 83H245.151Z" fill="url(#paint25_linear_112_4190)" fill-opacity="0.7"/>
</g>
</g>
<path d="M119 72H1282V105C1282 111.627 1276.63 117 1270 117H131C124.373 117 119 111.627 119 105V72Z" fill="url(#paint26_linear_112_4190)"/>
<path d="M1178.87 53.464C1178.87 56.3654 1178.46 58.9467 1177.65 61.208C1176.88 63.4694 1175.75 65.368 1174.26 66.904C1172.81 68.44 1171.04 69.6134 1168.95 70.424C1166.85 71.2347 1164.49 71.64 1161.84 71.64C1159.37 71.64 1157.11 71.2347 1155.06 70.424C1153.01 69.6134 1151.24 68.44 1149.75 66.904C1148.25 65.368 1147.08 63.4694 1146.23 61.208C1145.37 58.9467 1144.95 56.3654 1144.95 53.464C1144.95 49.5814 1145.63 46.296 1146.99 43.608C1148.36 40.92 1150.32 38.8934 1152.88 37.528C1155.44 36.12 1158.49 35.416 1162.03 35.416C1165.32 35.416 1168.22 36.12 1170.74 37.528C1173.25 38.8934 1175.24 40.92 1176.69 43.608C1178.14 46.296 1178.87 49.5814 1178.87 53.464ZM1154.8 53.464C1154.8 55.7254 1155.04 57.6667 1155.51 59.288C1156.02 60.9094 1156.79 62.1467 1157.81 63C1158.88 63.8534 1160.26 64.28 1161.97 64.28C1163.63 64.28 1164.98 63.8534 1166 63C1167.07 62.1467 1167.84 60.9094 1168.31 59.288C1168.77 57.6667 1169.01 55.7254 1169.01 53.464C1169.01 51.16 1168.75 49.2187 1168.24 47.64C1167.77 46.0614 1167.03 44.8667 1166 44.056C1164.98 43.2027 1163.61 42.776 1161.91 42.776C1159.43 42.776 1157.62 43.6934 1156.47 45.528C1155.36 47.3627 1154.8 50.008 1154.8 53.464Z" fill="url(#paint27_linear_112_4190)"/>
<path d="M1123.91 35.416C1128.31 35.416 1131.66 36.4614 1133.96 38.552C1136.26 40.6 1137.42 43.6507 1137.42 47.704V71H1130.7L1128.84 66.264H1128.59C1127.6 67.5014 1126.58 68.5254 1125.51 69.336C1124.49 70.1467 1123.29 70.7227 1121.93 71.064C1120.56 71.448 1118.9 71.64 1116.94 71.64C1114.89 71.64 1113.05 71.256 1111.43 70.488C1109.81 69.6774 1108.53 68.4614 1107.59 66.84C1106.65 65.2187 1106.18 63.1707 1106.18 60.696C1106.18 57.0267 1107.51 54.2747 1110.15 52.44C1112.8 50.6054 1116.74 49.5814 1121.99 49.368L1127.82 49.176V48.088C1127.82 45.9974 1127.35 44.5467 1126.41 43.736C1125.47 42.8827 1124.15 42.456 1122.44 42.456C1120.86 42.456 1119.24 42.712 1117.58 43.224C1115.91 43.736 1114.27 44.3547 1112.65 45.08L1109.83 38.488C1111.67 37.5494 1113.76 36.8027 1116.1 36.248C1118.49 35.6934 1121.1 35.416 1123.91 35.416ZM1124.17 55C1121.14 55.0854 1119.03 55.576 1117.83 56.472C1116.64 57.368 1116.04 58.6267 1116.04 60.248C1116.04 61.7414 1116.45 62.8507 1117.26 63.576C1118.11 64.2587 1119.24 64.6 1120.65 64.6C1122.65 64.6 1124.34 64.0027 1125.71 62.808C1127.11 61.6134 1127.82 59.9067 1127.82 57.688V54.808L1124.17 55ZM1110.22 32.28C1110.34 30.616 1110.64 29.1867 1111.11 27.992C1111.62 26.7547 1112.27 25.752 1113.03 24.984C1113.8 24.1734 1114.65 23.576 1115.59 23.192C1116.57 22.808 1117.62 22.616 1118.73 22.616C1119.58 22.616 1120.41 22.7867 1121.22 23.128C1122.08 23.4267 1122.89 23.8107 1123.66 24.28C1124.47 24.7067 1125.26 25.0907 1126.03 25.432C1126.79 25.7307 1127.56 25.88 1128.33 25.88C1128.97 25.88 1129.59 25.6027 1130.18 25.048C1130.78 24.4934 1131.21 23.6614 1131.47 22.552H1136.14C1135.88 25.8374 1134.94 28.2694 1133.32 29.848C1131.7 31.4267 1129.8 32.216 1127.62 32.216C1126.77 32.216 1125.94 32.0667 1125.13 31.768C1124.32 31.4267 1123.51 31.0427 1122.7 30.616C1121.89 30.1467 1121.1 29.7627 1120.33 29.464C1119.56 29.1227 1118.79 28.952 1118.03 28.952C1117.39 28.952 1116.77 29.2294 1116.17 29.784C1115.57 30.3387 1115.14 31.1707 1114.89 32.28H1110.22Z" fill="url(#paint28_linear_112_4190)"/>
<path d="M1090.53 71.64C1087.16 71.64 1084.19 71.0214 1081.63 69.784C1079.12 68.504 1077.15 66.5414 1075.74 63.896C1074.34 61.208 1073.63 57.816 1073.63 53.72C1073.63 49.4107 1074.4 45.912 1075.94 43.224C1077.47 40.536 1079.56 38.5734 1082.21 37.336C1084.85 36.056 1087.86 35.416 1091.23 35.416C1093.28 35.416 1095.2 35.6294 1096.99 36.056C1098.83 36.4827 1100.45 37.0587 1101.86 37.784L1098.98 45.08C1097.7 44.5254 1096.4 44.0774 1095.07 43.736C1093.79 43.352 1092.51 43.16 1091.23 43.16C1089.57 43.16 1088.16 43.544 1087.01 44.312C1085.86 45.08 1084.98 46.2534 1084.39 47.832C1083.79 49.368 1083.49 51.3094 1083.49 53.656C1083.49 55.96 1083.79 57.8587 1084.39 59.352C1084.98 60.8454 1085.86 61.976 1087.01 62.744C1088.16 63.4694 1089.53 63.832 1091.1 63.832C1092.94 63.832 1094.67 63.5974 1096.29 63.128C1097.91 62.616 1099.45 61.9547 1100.9 61.144V69.016C1099.57 69.8267 1098.08 70.4667 1096.42 70.936C1094.75 71.4054 1092.79 71.64 1090.53 71.64ZM1096.99 79.256C1096.99 81.432 1096.2 83.16 1094.62 84.44C1093.05 85.72 1090.85 86.36 1088.03 86.36C1086.92 86.36 1085.88 86.2747 1084.9 86.104C1083.96 85.976 1083.19 85.8054 1082.59 85.592V80.536C1083.19 80.7067 1083.81 80.8347 1084.45 80.92C1085.13 81.048 1085.79 81.112 1086.43 81.112C1087.54 81.112 1088.37 80.92 1088.93 80.536C1089.53 80.1947 1089.83 79.64 1089.83 78.872C1089.83 78.0187 1089.4 77.3574 1088.54 76.888C1087.69 76.4187 1086.45 76.056 1084.83 75.8L1087.07 71H1092.19L1091.23 73.496C1092.13 73.6667 1093.03 73.9654 1093.92 74.392C1094.82 74.8614 1095.54 75.48 1096.1 76.248C1096.69 77.016 1096.99 78.0187 1096.99 79.256Z" fill="url(#paint29_linear_112_4190)"/>
<path d="M1065.86 36.056V71H1058.44L1057.22 66.52H1056.65C1055.92 67.7147 1054.98 68.696 1053.83 69.464C1052.72 70.232 1051.49 70.7867 1050.12 71.128C1048.8 71.4694 1047.39 71.64 1045.9 71.64C1043.42 71.64 1041.25 71.192 1039.37 70.296C1037.53 69.4 1036.08 68.0134 1035.02 66.136C1033.99 64.2587 1033.48 61.8267 1033.48 58.84V36.056H1043.21V56.408C1043.21 58.8827 1043.63 60.76 1044.49 62.04C1045.38 63.2774 1046.79 63.896 1048.71 63.896C1050.67 63.896 1052.19 63.4694 1053.26 62.616C1054.37 61.72 1055.13 60.4187 1055.56 58.712C1055.99 57.0054 1056.2 54.9147 1056.2 52.44V36.056H1065.86Z" fill="url(#paint30_linear_112_4190)"/>
<path d="M1004.69 71.64C1000.85 71.64 997.693 70.1254 995.219 67.096C992.787 64.024 991.57 59.5227 991.57 53.592C991.57 47.576 992.808 43.0534 995.282 40.024C997.757 36.952 1001 35.416 1005.01 35.416C1006.67 35.416 1008.1 35.6507 1009.3 36.12C1010.54 36.5467 1011.6 37.144 1012.5 37.912C1013.39 38.68 1014.16 39.5547 1014.8 40.536H1015.12C1014.99 39.768 1014.87 38.7014 1014.74 37.336C1014.65 35.928 1014.61 34.648 1014.61 33.496V22.36H1024.34V71H1016.91L1014.99 66.456H1014.61C1014.01 67.4374 1013.27 68.312 1012.37 69.08C1011.47 69.848 1010.39 70.4667 1009.11 70.936C1007.87 71.4054 1006.4 71.64 1004.69 71.64ZM1008.08 63.896C1010.73 63.896 1012.58 63.1494 1013.65 61.656C1014.72 60.12 1015.25 57.7947 1015.25 54.68V53.656C1015.25 50.2854 1014.74 47.704 1013.71 45.912C1012.69 44.12 1010.79 43.224 1008.02 43.224C1005.93 43.224 1004.29 44.12 1003.09 45.912C1001.94 47.704 1001.36 50.3067 1001.36 53.72C1001.36 57.1334 1001.94 59.6934 1003.09 61.4C1004.29 63.064 1005.95 63.896 1008.08 63.896Z" fill="url(#paint31_linear_112_4190)"/>
<path d="M970.538 35.416C974.933 35.416 978.282 36.4614 980.586 38.552C982.89 40.6 984.042 43.6507 984.042 47.704V71H977.322L975.466 66.264H975.21C974.229 67.5014 973.205 68.5254 972.138 69.336C971.114 70.1467 969.919 70.7227 968.554 71.064C967.189 71.448 965.525 71.64 963.562 71.64C961.514 71.64 959.679 71.256 958.058 70.488C956.437 69.6774 955.157 68.4614 954.218 66.84C953.279 65.2187 952.81 63.1707 952.81 60.696C952.81 57.0267 954.133 54.2747 956.778 52.44C959.423 50.6054 963.37 49.5814 968.618 49.368L974.442 49.176V48.088C974.442 45.9974 973.973 44.5467 973.034 43.736C972.095 42.8827 970.773 42.456 969.066 42.456C967.487 42.456 965.866 42.712 964.202 43.224C962.538 43.736 960.895 44.3547 959.274 45.08L956.458 38.488C958.293 37.5494 960.383 36.8027 962.73 36.248C965.119 35.6934 967.722 35.416 970.538 35.416ZM970.794 55C967.765 55.0854 965.653 55.576 964.458 56.472C963.263 57.368 962.666 58.6267 962.666 60.248C962.666 61.7414 963.071 62.8507 963.882 63.576C964.735 64.2587 965.866 64.6 967.274 64.6C969.279 64.6 970.965 64.0027 972.33 62.808C973.738 61.6134 974.442 59.9067 974.442 57.688V54.808L970.794 55Z" fill="url(#paint32_linear_112_4190)"/>
<path d="M946.875 35.416C947.515 35.416 948.198 35.4587 948.923 35.544C949.691 35.5867 950.288 35.672 950.715 35.8L949.755 44.824C949.286 44.7387 948.731 44.6534 948.091 44.568C947.451 44.4827 946.683 44.44 945.787 44.44C944.806 44.44 943.803 44.5894 942.779 44.888C941.798 45.1867 940.88 45.6774 940.027 46.36C939.174 47.0427 938.491 47.9387 937.979 49.048C937.467 50.1574 937.211 51.5654 937.211 53.272V71H927.547V36.056H934.907L936.315 41.944H936.763C937.446 40.7067 938.299 39.5974 939.323 38.616C940.347 37.6347 941.499 36.8667 942.779 36.312C944.059 35.7147 945.424 35.416 946.875 35.416Z" fill="url(#paint33_linear_112_4190)"/>
<path d="M914.837 64.024C915.904 64.024 916.928 63.9174 917.909 63.704C918.89 63.4907 919.872 63.2347 920.853 62.936V70.04C919.829 70.4667 918.549 70.8294 917.013 71.128C915.52 71.4694 913.877 71.64 912.085 71.64C909.994 71.64 908.117 71.2987 906.453 70.616C904.832 69.9334 903.53 68.76 902.549 67.096C901.61 65.3894 901.141 63.0427 901.141 60.056V43.224H896.597V39.192L901.845 35.992L904.597 28.632H910.677V36.056H920.469V43.224H910.677V60.056C910.677 61.3787 911.061 62.3814 911.829 63.064C912.597 63.704 913.6 64.024 914.837 64.024Z" fill="url(#paint34_linear_112_4190)"/>
<path d="M859.896 35.416C863.139 35.416 865.934 36.0347 868.281 37.272C870.627 38.4667 872.419 40.2587 873.656 42.648C874.936 44.9947 875.576 47.8747 875.576 51.288V55.96H853.112C853.198 58.6054 854.008 60.696 855.544 62.232C857.08 63.7254 859.278 64.472 862.136 64.472C864.312 64.472 866.297 64.2587 868.089 63.832C869.881 63.4054 871.715 62.7654 873.593 61.912V69.144C871.886 69.9974 870.073 70.616 868.153 71C866.275 71.4267 863.928 71.64 861.112 71.64C857.656 71.64 854.584 71 851.896 69.72C849.251 68.44 847.161 66.4774 845.625 63.832C844.089 61.144 843.32 57.7947 843.32 53.784C843.32 49.688 844.003 46.296 845.369 43.608C846.777 40.8774 848.718 38.8294 851.193 37.464C853.71 36.0987 856.611 35.416 859.896 35.416ZM860.153 42.264C858.233 42.264 856.675 42.8827 855.481 44.12C854.286 45.3147 853.582 47.1067 853.369 49.496H866.552C866.552 48.088 866.318 46.8507 865.849 45.784C865.379 44.7174 864.654 43.864 863.672 43.224C862.734 42.584 861.561 42.264 860.153 42.264Z" fill="url(#paint35_linear_112_4190)"/>
<path d="M816.003 71.64C812.163 71.64 809.006 70.1254 806.531 67.096C804.099 64.024 802.883 59.5227 802.883 53.592C802.883 47.576 804.12 43.0534 806.595 40.024C809.07 36.952 812.312 35.416 816.323 35.416C817.987 35.416 819.416 35.6507 820.611 36.12C821.848 36.5467 822.915 37.144 823.811 37.912C824.707 38.68 825.475 39.5547 826.115 40.536H826.435C826.307 39.768 826.179 38.7014 826.051 37.336C825.966 35.928 825.923 34.648 825.923 33.496V22.36H835.651V71H828.227L826.307 66.456H825.923C825.326 67.4374 824.579 68.312 823.683 69.08C822.787 69.848 821.699 70.4667 820.419 70.936C819.182 71.4054 817.71 71.64 816.003 71.64ZM819.395 63.896C822.04 63.896 823.896 63.1494 824.963 61.656C826.03 60.12 826.563 57.7947 826.563 54.68V53.656C826.563 50.2854 826.051 47.704 825.027 45.912C824.003 44.12 822.104 43.224 819.331 43.224C817.24 43.224 815.598 44.12 814.403 45.912C813.251 47.704 812.675 50.3067 812.675 53.72C812.675 57.1334 813.251 59.6934 814.403 61.4C815.598 63.064 817.262 63.896 819.395 63.896Z" fill="url(#paint36_linear_112_4190)"/>
<path d="M780.565 60.696C780.565 62.9147 780.032 64.856 778.965 66.52C777.941 68.1414 776.362 69.4 774.229 70.296C772.096 71.192 769.386 71.64 766.101 71.64C763.626 71.64 761.45 71.4694 759.573 71.128C757.696 70.8294 755.882 70.3174 754.133 69.592V61.592C756.01 62.488 758.037 63.192 760.213 63.704C762.389 64.216 764.266 64.472 765.845 64.472C767.808 64.472 769.216 64.1947 770.069 63.64C770.965 63.0854 771.413 62.3387 771.413 61.4C771.413 60.76 771.178 60.184 770.709 59.672C770.282 59.16 769.493 58.6267 768.341 58.072C767.232 57.5174 765.632 56.8347 763.541 56.024C761.45 55.1707 759.701 54.296 758.293 53.4C756.885 52.4614 755.818 51.352 755.093 50.072C754.41 48.792 754.069 47.192 754.069 45.272C754.069 42.072 755.328 39.64 757.845 37.976C760.405 36.2694 763.776 35.416 767.957 35.416C770.218 35.416 772.309 35.6507 774.229 36.12C776.192 36.5894 778.176 37.2507 780.181 38.104L777.365 44.696C775.744 43.9707 774.08 43.3734 772.373 42.904C770.666 42.4347 769.152 42.2 767.829 42.2C766.378 42.2 765.248 42.4347 764.437 42.904C763.626 43.3307 763.221 43.9494 763.221 44.76C763.221 45.3574 763.434 45.8907 763.861 46.36C764.33 46.8294 765.12 47.32 766.229 47.832C767.381 48.344 768.981 49.0054 771.029 49.816C773.12 50.6267 774.869 51.5014 776.277 52.44C777.728 53.336 778.794 54.4454 779.477 55.768C780.202 57.048 780.565 58.6907 780.565 60.696Z" fill="url(#paint37_linear_112_4190)"/>
<path d="M733.101 35.416C737.495 35.416 740.844 36.4614 743.148 38.552C745.452 40.6 746.604 43.6507 746.604 47.704V71H739.885L738.029 66.264H737.773C736.791 67.5014 735.767 68.5254 734.701 69.336C733.677 70.1467 732.482 70.7227 731.117 71.064C729.751 71.448 728.087 71.64 726.125 71.64C724.077 71.64 722.242 71.256 720.621 70.488C718.999 69.6774 717.719 68.4614 716.78 66.84C715.842 65.2187 715.372 63.1707 715.372 60.696C715.372 57.0267 716.695 54.2747 719.341 52.44C721.986 50.6054 725.932 49.5814 731.18 49.368L737.005 49.176V48.088C737.005 45.9974 736.535 44.5467 735.596 43.736C734.658 42.8827 733.335 42.456 731.628 42.456C730.05 42.456 728.428 42.712 726.764 43.224C725.1 43.736 723.458 44.3547 721.836 45.08L719.021 38.488C720.855 37.5494 722.946 36.8027 725.293 36.248C727.682 35.6934 730.285 35.416 733.101 35.416ZM733.357 55C730.327 55.0854 728.215 55.576 727.021 56.472C725.826 57.368 725.229 58.6267 725.229 60.248C725.229 61.7414 725.634 62.8507 726.444 63.576C727.298 64.2587 728.428 64.6 729.836 64.6C731.842 64.6 733.527 64.0027 734.893 62.808C736.301 61.6134 737.005 59.9067 737.005 57.688V54.808L733.357 55Z" fill="url(#paint38_linear_112_4190)"/>
<path d="M704.775 64.024C705.841 64.024 706.865 63.9174 707.846 63.704C708.828 63.4907 709.809 63.2347 710.79 62.936V70.04C709.766 70.4667 708.487 70.8294 706.951 71.128C705.457 71.4694 703.814 71.64 702.022 71.64C699.932 71.64 698.055 71.2987 696.391 70.616C694.769 69.9334 693.468 68.76 692.487 67.096C691.548 65.3894 691.078 63.0427 691.078 60.056V43.224H686.534V39.192L691.783 35.992L694.534 28.632H700.615V36.056H710.406V43.224H700.615V60.056C700.615 61.3787 700.999 62.3814 701.767 63.064C702.535 63.704 703.537 64.024 704.775 64.024Z" fill="url(#paint39_linear_112_4190)"/>
<path d="M668.078 35.416C671.918 35.416 674.947 36.4187 677.165 38.424C679.384 40.4294 680.493 43.6934 680.493 48.216V71H670.893V50.648C670.893 48.1307 670.424 46.2534 669.486 45.016C668.59 43.736 667.182 43.096 665.262 43.096C662.36 43.096 660.376 44.0987 659.31 46.104C658.286 48.0667 657.773 50.904 657.773 54.616V71H648.109V36.056H655.534L656.878 40.728H657.262C658.03 39.576 658.947 38.616 660.013 37.848C661.123 37.0374 662.339 36.44 663.661 36.056C665.027 35.6294 666.499 35.416 668.078 35.416Z" fill="url(#paint40_linear_112_4190)"/>
<path d="M624.834 35.416C628.077 35.416 630.871 36.0347 633.218 37.272C635.565 38.4667 637.357 40.2587 638.594 42.648C639.874 44.9947 640.514 47.8747 640.514 51.288V55.96H618.05C618.135 58.6054 618.946 60.696 620.482 62.232C622.018 63.7254 624.215 64.472 627.074 64.472C629.25 64.472 631.234 64.2587 633.026 63.832C634.818 63.4054 636.653 62.7654 638.53 61.912V69.144C636.823 69.9974 635.01 70.616 633.09 71C631.213 71.4267 628.866 71.64 626.05 71.64C622.594 71.64 619.522 71 616.834 69.72C614.189 68.44 612.098 66.4774 610.562 63.832C609.026 61.144 608.258 57.7947 608.258 53.784C608.258 49.688 608.941 46.296 610.306 43.608C611.714 40.8774 613.655 38.8294 616.13 37.464C618.647 36.0987 621.549 35.416 624.834 35.416ZM625.09 42.264C623.17 42.264 621.613 42.8827 620.418 44.12C619.223 45.3147 618.519 47.1067 618.306 49.496H631.49C631.49 48.088 631.255 46.8507 630.786 45.784C630.317 44.7174 629.591 43.864 628.61 43.224C627.671 42.584 626.498 42.264 625.09 42.264Z" fill="url(#paint41_linear_112_4190)"/>
<path d="M588.571 35.416C592.582 35.416 595.611 36.4187 597.659 38.424C599.707 40.4294 600.731 43.6934 600.731 48.216V71H591.131V50.648C591.131 47.96 590.683 46.04 589.787 44.888C588.891 43.6934 587.547 43.096 585.755 43.096C583.28 43.096 581.531 44.0134 580.507 45.848C579.483 47.64 578.971 50.2 578.971 53.528V71H569.307V50.648C569.307 48.8987 569.115 47.4694 568.731 46.36C568.347 45.2507 567.771 44.44 567.003 43.928C566.235 43.3734 565.254 43.096 564.059 43.096C562.31 43.096 560.923 43.544 559.899 44.44C558.918 45.336 558.214 46.6374 557.787 48.344C557.403 50.0507 557.211 52.1414 557.211 54.616V71H547.547V36.056H554.971L556.379 40.536H556.699C557.382 39.4694 558.214 38.552 559.195 37.784C560.219 37.016 561.392 36.44 562.715 36.056C564.038 35.6294 565.51 35.416 567.131 35.416C569.734 35.416 571.888 35.864 573.595 36.76C575.344 37.656 576.71 38.9574 577.691 40.664H578.011C579.163 38.9147 580.656 37.6134 582.491 36.76C584.326 35.864 586.352 35.416 588.571 35.416Z" fill="url(#paint42_linear_112_4190)"/>
<path d="M524.85 35.416C529.245 35.416 532.594 36.4614 534.898 38.552C537.202 40.6 538.354 43.6507 538.354 47.704V71H531.634L529.779 66.264H529.522C528.541 67.5014 527.517 68.5254 526.451 69.336C525.427 70.1467 524.232 70.7227 522.867 71.064C521.501 71.448 519.837 71.64 517.875 71.64C515.827 71.64 513.992 71.256 512.371 70.488C510.749 69.6774 509.469 68.4614 508.53 66.84C507.592 65.2187 507.122 63.1707 507.122 60.696C507.122 57.0267 508.445 54.2747 511.091 52.44C513.736 50.6054 517.683 49.5814 522.931 49.368L528.755 49.176V48.088C528.755 45.9974 528.285 44.5467 527.346 43.736C526.408 42.8827 525.085 42.456 523.379 42.456C521.8 42.456 520.178 42.712 518.514 43.224C516.85 43.736 515.208 44.3547 513.586 45.08L510.771 38.488C512.605 37.5494 514.696 36.8027 517.043 36.248C519.432 35.6934 522.034 35.416 524.85 35.416ZM525.107 55C522.077 55.0854 519.965 55.576 518.771 56.472C517.576 57.368 516.979 58.6267 516.979 60.248C516.979 61.7414 517.384 62.8507 518.194 63.576C519.048 64.2587 520.178 64.6 521.586 64.6C523.592 64.6 525.277 64.0027 526.643 62.808C528.051 61.6134 528.755 59.9067 528.755 57.688V54.808L525.107 55Z" fill="url(#paint43_linear_112_4190)"/>
<path d="M501.188 35.416C501.827 35.416 502.51 35.4587 503.236 35.544C504.004 35.5867 504.601 35.672 505.027 35.8L504.068 44.824C503.598 44.7387 503.044 44.6534 502.404 44.568C501.764 44.4827 500.995 44.44 500.099 44.44C499.118 44.44 498.115 44.5894 497.091 44.888C496.11 45.1867 495.193 45.6774 494.34 46.36C493.486 47.0427 492.804 47.9387 492.292 49.048C491.78 50.1574 491.523 51.5654 491.523 53.272V71H481.859V36.056H489.22L490.628 41.944H491.076C491.758 40.7067 492.611 39.5974 493.635 38.616C494.659 37.6347 495.811 36.8667 497.091 36.312C498.371 35.7147 499.737 35.416 501.188 35.416Z" fill="url(#paint44_linear_112_4190)"/>
<path d="M472.562 35.416C473.202 35.416 473.885 35.4587 474.611 35.544C475.379 35.5867 475.976 35.672 476.402 35.8L475.443 44.824C474.973 44.7387 474.419 44.6534 473.779 44.568C473.139 44.4827 472.371 44.44 471.475 44.44C470.493 44.44 469.491 44.5894 468.467 44.888C467.485 45.1867 466.568 45.6774 465.715 46.36C464.861 47.0427 464.179 47.9387 463.667 49.048C463.155 50.1574 462.898 51.5654 462.898 53.272V71H453.234V36.056H460.594L462.003 41.944H462.451C463.133 40.7067 463.986 39.5974 465.01 38.616C466.034 37.6347 467.187 36.8667 468.467 36.312C469.747 35.7147 471.112 35.416 472.562 35.416Z" fill="url(#paint45_linear_112_4190)"/>
<path d="M429.959 35.416C433.202 35.416 435.996 36.0347 438.343 37.272C440.69 38.4667 442.482 40.2587 443.719 42.648C444.999 44.9947 445.639 47.8747 445.639 51.288V55.96H423.175C423.26 58.6054 424.071 60.696 425.607 62.232C427.143 63.7254 429.34 64.472 432.199 64.472C434.375 64.472 436.359 64.2587 438.151 63.832C439.943 63.4054 441.778 62.7654 443.655 61.912V69.144C441.948 69.9974 440.135 70.616 438.215 71C436.338 71.4267 433.991 71.64 431.175 71.64C427.719 71.64 424.647 71 421.959 69.72C419.314 68.44 417.223 66.4774 415.687 63.832C414.151 61.144 413.383 57.7947 413.383 53.784C413.383 49.688 414.066 46.296 415.431 43.608C416.839 40.8774 418.78 38.8294 421.255 37.464C423.772 36.0987 426.674 35.416 429.959 35.416ZM430.215 42.264C428.295 42.264 426.738 42.8827 425.543 44.12C424.348 45.3147 423.644 47.1067 423.431 49.496H436.615C436.615 48.088 436.38 46.8507 435.911 45.784C435.442 44.7174 434.716 43.864 433.735 43.224C432.796 42.584 431.623 42.264 430.215 42.264Z" fill="url(#paint46_linear_112_4190)"/>
<path d="M409.945 43.224H401.689V71H392.153V43.224H386.905V38.616L392.153 36.056V33.496C392.153 30.5094 392.644 28.2054 393.625 26.584C394.649 24.92 396.078 23.7467 397.913 23.064C399.79 22.3814 401.988 22.04 404.505 22.04C406.382 22.04 408.068 22.1894 409.561 22.488C411.097 22.7867 412.334 23.128 413.273 23.512L410.841 30.488C410.116 30.2747 409.326 30.0827 408.473 29.912C407.62 29.6987 406.638 29.592 405.529 29.592C404.206 29.592 403.225 29.9974 402.585 30.808C401.988 31.6187 401.689 32.6427 401.689 33.88V36.056H409.945V43.224Z" fill="url(#paint47_linear_112_4190)"/>
<path d="M366.315 60.696C366.315 62.9147 365.782 64.856 364.715 66.52C363.691 68.1414 362.112 69.4 359.979 70.296C357.846 71.192 355.136 71.64 351.851 71.64C349.376 71.64 347.2 71.4694 345.323 71.128C343.446 70.8294 341.632 70.3174 339.883 69.592V61.592C341.76 62.488 343.787 63.192 345.963 63.704C348.139 64.216 350.016 64.472 351.595 64.472C353.558 64.472 354.966 64.1947 355.819 63.64C356.715 63.0854 357.163 62.3387 357.163 61.4C357.163 60.76 356.928 60.184 356.459 59.672C356.032 59.16 355.243 58.6267 354.091 58.072C352.982 57.5174 351.382 56.8347 349.291 56.024C347.2 55.1707 345.451 54.296 344.043 53.4C342.635 52.4614 341.568 51.352 340.843 50.072C340.16 48.792 339.819 47.192 339.819 45.272C339.819 42.072 341.078 39.64 343.595 37.976C346.155 36.2694 349.526 35.416 353.707 35.416C355.968 35.416 358.059 35.6507 359.979 36.12C361.942 36.5894 363.926 37.2507 365.931 38.104L363.115 44.696C361.494 43.9707 359.83 43.3734 358.123 42.904C356.416 42.4347 354.902 42.2 353.579 42.2C352.128 42.2 350.998 42.4347 350.187 42.904C349.376 43.3307 348.971 43.9494 348.971 44.76C348.971 45.3574 349.184 45.8907 349.611 46.36C350.08 46.8294 350.87 47.32 351.979 47.832C353.131 48.344 354.731 49.0054 356.779 49.816C358.87 50.6267 360.619 51.5014 362.027 52.44C363.478 53.336 364.544 54.4454 365.227 55.768C365.952 57.048 366.315 58.6907 366.315 60.696Z" fill="url(#paint48_linear_112_4190)"/>
<path d="M332.15 36.056V71H322.486V36.056H332.15ZM327.35 22.296C328.758 22.296 329.974 22.6374 330.998 23.32C332.065 23.96 332.598 25.1974 332.598 27.032C332.598 28.7814 332.065 29.9974 330.998 30.68C329.974 31.3627 328.758 31.704 327.35 31.704C325.899 31.704 324.662 31.3627 323.638 30.68C322.614 29.9974 322.102 28.7814 322.102 27.032C322.102 25.1974 322.614 23.96 323.638 23.32C324.662 22.6374 325.899 22.296 327.35 22.296Z" fill="url(#paint49_linear_112_4190)"/>
<path d="M299.726 35.416C304.12 35.416 307.469 36.4614 309.773 38.552C312.077 40.6 313.23 43.6507 313.23 47.704V71H306.51L304.654 66.264H304.398C303.416 67.5014 302.392 68.5254 301.326 69.336C300.302 70.1467 299.107 70.7227 297.742 71.064C296.376 71.448 294.712 71.64 292.749 71.64C290.701 71.64 288.867 71.256 287.246 70.488C285.624 69.6774 284.344 68.4614 283.406 66.84C282.467 65.2187 281.998 63.1707 281.998 60.696C281.998 57.0267 283.32 54.2747 285.966 52.44C288.611 50.6054 292.557 49.5814 297.805 49.368L303.63 49.176V48.088C303.63 45.9974 303.16 44.5467 302.221 43.736C301.283 42.8827 299.96 42.456 298.254 42.456C296.675 42.456 295.054 42.712 293.39 43.224C291.726 43.736 290.083 44.3547 288.462 45.08L285.646 38.488C287.48 37.5494 289.571 36.8027 291.918 36.248C294.307 35.6934 296.91 35.416 299.726 35.416ZM299.982 55C296.952 55.0854 294.84 55.576 293.646 56.472C292.451 57.368 291.854 58.6267 291.854 60.248C291.854 61.7414 292.259 62.8507 293.07 63.576C293.923 64.2587 295.054 64.6 296.462 64.6C298.467 64.6 300.152 64.0027 301.518 62.808C302.926 61.6134 303.63 59.9067 303.63 57.688V54.808L299.982 55Z" fill="url(#paint50_linear_112_4190)"/>
<path d="M244.151 71L233.143 35.16H232.887C232.929 36.0134 232.993 37.2934 233.079 39C233.164 40.7067 233.249 42.5414 233.335 44.504C233.42 46.424 233.463 48.1734 233.463 49.752V71H224.823V25.304H238.007L248.823 60.248H249.015L260.471 25.304H273.655V71H264.631V49.368C264.631 47.9174 264.652 46.2534 264.695 44.376C264.78 42.4987 264.844 40.728 264.887 39.064C264.972 37.3574 265.036 36.0774 265.079 35.224H264.823L253.047 71H244.151Z" fill="url(#paint51_linear_112_4190)"/>
<defs>
<filter id="filter0_f_112_4190" x="205.823" y="14.04" width="994.043" height="104.32" filterUnits="userSpaceOnUse" color-interpolation-filters="sRGB">
<feFlood flood-opacity="0" result="BackgroundImageFix"/>
<feBlend mode="normal" in="SourceGraphic" in2="BackgroundImageFix" result="shape"/>
<feGaussianBlur stdDeviation="10" result="effect1_foregroundBlur_112_4190"/>
</filter>
<linearGradient id="paint0_linear_112_4190" x1="119" y1="64.0036" x2="1282" y2="64.0021" gradientUnits="userSpaceOnUse">
<stop stop-color="white" stop-opacity="0.3"/>
<stop offset="0.495" stop-color="#CBB0F8"/>
<stop offset="1" stop-color="white" stop-opacity="0.3"/>
</linearGradient>
<linearGradient id="paint1_linear_112_4190" x1="1268.03" y1="53.721" x2="-25817.6" y2="53.7996" gradientUnits="userSpaceOnUse">
<stop stop-color="#F4439F"/>
<stop offset="1" stop-color="#7C3AED"/>
</linearGradient>
<linearGradient id="paint2_linear_112_4190" x1="2541.74" y1="65.4191" x2="-26875" y2="65.5448" gradientUnits="userSpaceOnUse">
<stop stop-color="#F4439F"/>
<stop offset="1" stop-color="#7C3AED"/>
</linearGradient>
<linearGradient id="paint3_linear_112_4190" x1="3888.9" y1="48.0343" x2="-28662.9" y2="48.194" gradientUnits="userSpaceOnUse">
<stop stop-color="#F4439F"/>
<stop offset="1" stop-color="#7C3AED"/>
</linearGradient>
<linearGradient id="paint4_linear_112_4190" x1="4601.27" y1="52.9181" x2="-23769" y2="53.0029" gradientUnits="userSpaceOnUse">
<stop stop-color="#F4439F"/>
<stop offset="1" stop-color="#7C3AED"/>
</linearGradient>
<linearGradient id="paint5_linear_112_4190" x1="5770.19" y1="65.5474" x2="-22267.6" y2="65.6621" gradientUnits="userSpaceOnUse">
<stop stop-color="#F4439F"/>
<stop offset="1" stop-color="#7C3AED"/>
</linearGradient>
<linearGradient id="paint6_linear_112_4190" x1="7226.88" y1="53.721" x2="-22189.9" y2="53.8137" gradientUnits="userSpaceOnUse">
<stop stop-color="#F4439F"/>
<stop offset="1" stop-color="#7C3AED"/>
</linearGradient>
<linearGradient id="paint7_linear_112_4190" x1="10704" y1="54.075" x2="-28951.6" y2="54.2405" gradientUnits="userSpaceOnUse">
<stop stop-color="#F4439F"/>
<stop offset="1" stop-color="#7C3AED"/>
</linearGradient>
<linearGradient id="paint8_linear_112_4190" x1="11451.3" y1="60.7623" x2="-26425.5" y2="60.9448" gradientUnits="userSpaceOnUse">
<stop stop-color="#F4439F"/>
<stop offset="1" stop-color="#7C3AED"/>
</linearGradient>
<linearGradient id="paint9_linear_112_4190" x1="10243" y1="53.721" x2="-18239.9" y2="53.8079" gradientUnits="userSpaceOnUse">
<stop stop-color="#F4439F"/>
<stop offset="1" stop-color="#7C3AED"/>
</linearGradient>
<linearGradient id="paint10_linear_112_4190" x1="11263.8" y1="65.5474" x2="-16774" y2="65.6621" gradientUnits="userSpaceOnUse">
<stop stop-color="#F4439F"/>
<stop offset="1" stop-color="#7C3AED"/>
</linearGradient>
<linearGradient id="paint11_linear_112_4190" x1="15634.3" y1="53.721" x2="-19040.4" y2="53.8498" gradientUnits="userSpaceOnUse">
<stop stop-color="#F4439F"/>
<stop offset="1" stop-color="#7C3AED"/>
</linearGradient>
<linearGradient id="paint12_linear_112_4190" x1="14479.9" y1="53.7211" x2="-14936.9" y2="53.8138" gradientUnits="userSpaceOnUse">
<stop stop-color="#F4439F"/>
<stop offset="1" stop-color="#7C3AED"/>
</linearGradient>
<linearGradient id="paint13_linear_112_4190" x1="19713.6" y1="60.7623" x2="-18163.3" y2="60.9448" gradientUnits="userSpaceOnUse">
<stop stop-color="#F4439F"/>
<stop offset="1" stop-color="#7C3AED"/>
</linearGradient>
<linearGradient id="paint14_linear_112_4190" x1="15954.4" y1="54.075" x2="-12415.9" y2="54.1598" gradientUnits="userSpaceOnUse">
<stop stop-color="#F4439F"/>
<stop offset="1" stop-color="#7C3AED"/>
</linearGradient>
<linearGradient id="paint15_linear_112_4190" x1="17195.5" y1="53.7211" x2="-11287.3" y2="53.808" gradientUnits="userSpaceOnUse">
<stop stop-color="#F4439F"/>
<stop offset="1" stop-color="#7C3AED"/>
</linearGradient>
<linearGradient id="paint16_linear_112_4190" x1="11607" y1="54.075" x2="-5667.83" y2="54.1065" gradientUnits="userSpaceOnUse">
<stop stop-color="#F4439F"/>
<stop offset="1" stop-color="#7C3AED"/>
</linearGradient>
<linearGradient id="paint17_linear_112_4190" x1="20841.3" y1="53.7211" x2="-8575.45" y2="53.8138" gradientUnits="userSpaceOnUse">
<stop stop-color="#F4439F"/>
<stop offset="1" stop-color="#7C3AED"/>
</linearGradient>
<linearGradient id="paint18_linear_112_4190" x1="29057.2" y1="54.075" x2="-10598.6" y2="54.2406" gradientUnits="userSpaceOnUse">
<stop stop-color="#F4439F"/>
<stop offset="1" stop-color="#7C3AED"/>
</linearGradient>
<linearGradient id="paint19_linear_112_4190" x1="30235.9" y1="54.075" x2="-9419.8" y2="54.2406" gradientUnits="userSpaceOnUse">
<stop stop-color="#F4439F"/>
<stop offset="1" stop-color="#7C3AED"/>
</linearGradient>
<linearGradient id="paint20_linear_112_4190" x1="22959.4" y1="53.7211" x2="-5523.48" y2="53.808" gradientUnits="userSpaceOnUse">
<stop stop-color="#F4439F"/>
<stop offset="1" stop-color="#7C3AED"/>
</linearGradient>
<linearGradient id="paint21_linear_112_4190" x1="28993.8" y1="66.1738" x2="-5849.29" y2="66.3497" gradientUnits="userSpaceOnUse">
<stop stop-color="#F4439F"/>
<stop offset="1" stop-color="#7C3AED"/>
</linearGradient>
<linearGradient id="paint22_linear_112_4190" x1="30550.3" y1="53.7211" x2="-4124.51" y2="53.8499" gradientUnits="userSpaceOnUse">
<stop stop-color="#F4439F"/>
<stop offset="1" stop-color="#7C3AED"/>
</linearGradient>
<linearGradient id="paint23_linear_112_4190" x1="78387" y1="66.0046" x2="-9145.72" y2="67.1087" gradientUnits="userSpaceOnUse">
<stop stop-color="#F4439F"/>
<stop offset="1" stop-color="#7C3AED"/>
</linearGradient>
<linearGradient id="paint24_linear_112_4190" x1="27718.2" y1="53.7211" x2="-1698.56" y2="53.8138" gradientUnits="userSpaceOnUse">
<stop stop-color="#F4439F"/>
<stop offset="1" stop-color="#7C3AED"/>
</linearGradient>
<linearGradient id="paint25_linear_112_4190" x1="1183" y1="58.5002" x2="220" y2="58.5004" gradientUnits="userSpaceOnUse">
<stop stop-color="#F4439F"/>
<stop offset="1" stop-color="#7C3AED"/>
</linearGradient>
<linearGradient id="paint26_linear_112_4190" x1="700.5" y1="72" x2="700.5" y2="117" gradientUnits="userSpaceOnUse">
<stop offset="0.0001" stop-color="white" stop-opacity="0.1"/>
<stop offset="1" stop-color="white" stop-opacity="0"/>
</linearGradient>
<linearGradient id="paint27_linear_112_4190" x1="1267.03" y1="-35.5184" x2="1085.92" y2="2232.08" gradientUnits="userSpaceOnUse">
<stop stop-color="#F4439F"/>
<stop offset="1" stop-color="#7C3AED"/>
</linearGradient>
<linearGradient id="paint28_linear_112_4190" x1="2540.74" y1="-3.57895" x2="2449.62" y2="1675.5" gradientUnits="userSpaceOnUse">
<stop stop-color="#F4439F"/>
<stop offset="1" stop-color="#7C3AED"/>
</linearGradient>
<linearGradient id="paint29_linear_112_4190" x1="3887.9" y1="-18.8872" x2="3811.4" y2="1600.17" gradientUnits="userSpaceOnUse">
<stop stop-color="#F4439F"/>
<stop offset="1" stop-color="#7C3AED"/>
</linearGradient>
<linearGradient id="paint30_linear_112_4190" x1="4600.27" y1="-37.7105" x2="4421.02" y2="2271.48" gradientUnits="userSpaceOnUse">
<stop stop-color="#F4439F"/>
<stop offset="1" stop-color="#7C3AED"/>
</linearGradient>
<linearGradient id="paint31_linear_112_4190" x1="5769.19" y1="-3.22854" x2="5674.36" y2="1668.86" gradientUnits="userSpaceOnUse">
<stop stop-color="#F4439F"/>
<stop offset="1" stop-color="#7C3AED"/>
</linearGradient>
<linearGradient id="paint32_linear_112_4190" x1="7225.88" y1="-35.5184" x2="7058.97" y2="2234.27" gradientUnits="userSpaceOnUse">
<stop stop-color="#F4439F"/>
<stop offset="1" stop-color="#7C3AED"/>
</linearGradient>
<linearGradient id="paint33_linear_112_4190" x1="10703" y1="-36.5537" x2="10574.4" y2="2279.41" gradientUnits="userSpaceOnUse">
<stop stop-color="#F4439F"/>
<stop offset="1" stop-color="#7C3AED"/>
</linearGradient>
<linearGradient id="paint34_linear_112_4190" x1="11450.3" y1="-16.2935" x2="11358.1" y2="1901.36" gradientUnits="userSpaceOnUse">
<stop stop-color="#F4439F"/>
<stop offset="1" stop-color="#7C3AED"/>
</linearGradient>
<linearGradient id="paint35_linear_112_4190" x1="10242" y1="-35.5184" x2="10069.7" y2="2233.46" gradientUnits="userSpaceOnUse">
<stop stop-color="#F4439F"/>
<stop offset="1" stop-color="#7C3AED"/>
</linearGradient>
<linearGradient id="paint36_linear_112_4190" x1="11262.8" y1="-3.22856" x2="11168" y2="1668.86" gradientUnits="userSpaceOnUse">
<stop stop-color="#F4439F"/>
<stop offset="1" stop-color="#7C3AED"/>
</linearGradient>
<linearGradient id="paint37_linear_112_4190" x1="15633.3" y1="-35.5184" x2="15491.5" y2="2237.7" gradientUnits="userSpaceOnUse">
<stop stop-color="#F4439F"/>
<stop offset="1" stop-color="#7C3AED"/>
</linearGradient>
<linearGradient id="paint38_linear_112_4190" x1="14478.9" y1="-35.5184" x2="14312" y2="2234.27" gradientUnits="userSpaceOnUse">
<stop stop-color="#F4439F"/>
<stop offset="1" stop-color="#7C3AED"/>
</linearGradient>
<linearGradient id="paint39_linear_112_4190" x1="19712.6" y1="-16.2935" x2="19620.3" y2="1901.36" gradientUnits="userSpaceOnUse">
<stop stop-color="#F4439F"/>
<stop offset="1" stop-color="#7C3AED"/>
</linearGradient>
<linearGradient id="paint40_linear_112_4190" x1="15953.4" y1="-36.5537" x2="15774.2" y2="2272.64" gradientUnits="userSpaceOnUse">
<stop stop-color="#F4439F"/>
<stop offset="1" stop-color="#7C3AED"/>
</linearGradient>
<linearGradient id="paint41_linear_112_4190" x1="17194.5" y1="-35.5184" x2="17022.2" y2="2233.46" gradientUnits="userSpaceOnUse">
<stop stop-color="#F4439F"/>
<stop offset="1" stop-color="#7C3AED"/>
</linearGradient>
<linearGradient id="paint42_linear_112_4190" x1="11606" y1="-36.5537" x2="11314.6" y2="2249.4" gradientUnits="userSpaceOnUse">
<stop stop-color="#F4439F"/>
<stop offset="1" stop-color="#7C3AED"/>
</linearGradient>
<linearGradient id="paint43_linear_112_4190" x1="20840.3" y1="-35.5184" x2="20673.4" y2="2234.27" gradientUnits="userSpaceOnUse">
<stop stop-color="#F4439F"/>
<stop offset="1" stop-color="#7C3AED"/>
</linearGradient>
<linearGradient id="paint44_linear_112_4190" x1="29056.1" y1="-36.5536" x2="28927.5" y2="2279.41" gradientUnits="userSpaceOnUse">
<stop stop-color="#F4439F"/>
<stop offset="1" stop-color="#7C3AED"/>
</linearGradient>
<linearGradient id="paint45_linear_112_4190" x1="30234.9" y1="-36.5536" x2="30106.3" y2="2279.41" gradientUnits="userSpaceOnUse">
<stop stop-color="#F4439F"/>
<stop offset="1" stop-color="#7C3AED"/>
</linearGradient>
<linearGradient id="paint46_linear_112_4190" x1="22958.4" y1="-35.5184" x2="22786" y2="2233.46" gradientUnits="userSpaceOnUse">
<stop stop-color="#F4439F"/>
<stop offset="1" stop-color="#7C3AED"/>
</linearGradient>
<linearGradient id="paint47_linear_112_4190" x1="28992.8" y1="-2.97331" x2="28915.4" y2="1681.9" gradientUnits="userSpaceOnUse">
<stop stop-color="#F4439F"/>
<stop offset="1" stop-color="#7C3AED"/>
</linearGradient>
<linearGradient id="paint48_linear_112_4190" x1="30549.3" y1="-35.5184" x2="30407.5" y2="2237.7" gradientUnits="userSpaceOnUse">
<stop stop-color="#F4439F"/>
<stop offset="1" stop-color="#7C3AED"/>
</linearGradient>
<linearGradient id="paint49_linear_112_4190" x1="78386" y1="-3.44289" x2="78354.8" y2="1693.29" gradientUnits="userSpaceOnUse">
<stop stop-color="#F4439F"/>
<stop offset="1" stop-color="#7C3AED"/>
</linearGradient>
<linearGradient id="paint50_linear_112_4190" x1="27717.2" y1="-35.5185" x2="27550.3" y2="2234.27" gradientUnits="userSpaceOnUse">
<stop stop-color="#F4439F"/>
<stop offset="1" stop-color="#7C3AED"/>
</linearGradient>
<linearGradient id="paint51_linear_112_4190" x1="1182" y1="3.00018" x2="556.757" y2="497.222" gradientUnits="userSpaceOnUse">
<stop stop-color="#F4439F"/>
<stop offset="1" stop-color="#7C3AED"/>
</linearGradient>
</defs>
</svg>
