<svg width="1400" height="120" viewBox="0 0 1400 120" fill="none" xmlns="http://www.w3.org/2000/svg">
<path d="M253 56H1147V72H253V56Z" fill="url(#paint0_linear_112_4022)"/>
<mask id="mask0_112_4022" style="mask-type:alpha" maskUnits="userSpaceOnUse" x="253" y="72" width="894" height="45">
<path d="M253 72H1147V117H253V72Z" fill="#C4C4C4"/>
</mask>
<g mask="url(#mask0_112_4022)">
<g filter="url(#filter0_f_112_4022)">
<path d="M1043.39 72.6959C1043.39 74.9145 1042.85 76.8559 1041.79 78.5199C1040.76 80.1412 1039.18 81.3999 1037.05 82.2959C1034.92 83.1919 1032.21 83.6399 1028.92 83.6399C1026.45 83.6399 1024.27 83.4692 1022.39 83.1279C1020.52 82.8292 1018.7 82.3172 1016.95 81.5919V73.5919C1018.83 74.4879 1020.86 75.1919 1023.03 75.7039C1025.21 76.2159 1027.09 76.4719 1028.67 76.4719C1030.63 76.4719 1032.04 76.1945 1032.89 75.6399C1033.79 75.0852 1034.23 74.3385 1034.23 73.3999C1034.23 72.7599 1034 72.1839 1033.53 71.6719C1033.1 71.1599 1032.31 70.6265 1031.16 70.0719C1030.05 69.5172 1028.45 68.8345 1026.36 68.0239C1024.27 67.1705 1022.52 66.2959 1021.11 65.3999C1019.71 64.4612 1018.64 63.3519 1017.91 62.0719C1017.23 60.7919 1016.89 59.1919 1016.89 57.2719C1016.89 54.0719 1018.15 51.6399 1020.67 49.9759C1023.23 48.2692 1026.6 47.4159 1030.78 47.4159C1033.04 47.4159 1035.13 47.6505 1037.05 48.1199C1039.01 48.5892 1041 49.2505 1043 50.1039L1040.19 56.6959C1038.57 55.9705 1036.9 55.3732 1035.19 54.9039C1033.49 54.4345 1031.97 54.1999 1030.65 54.1999C1029.2 54.1999 1028.07 54.4345 1027.26 54.9039C1026.45 55.3305 1026.04 55.9492 1026.04 56.7599C1026.04 57.3572 1026.26 57.8905 1026.68 58.3599C1027.15 58.8292 1027.94 59.3199 1029.05 59.8319C1030.2 60.3439 1031.8 61.0052 1033.85 61.8159C1035.94 62.6265 1037.69 63.5012 1039.1 64.4399C1040.55 65.3359 1041.62 66.4452 1042.3 67.7679C1043.02 69.0479 1043.39 70.6905 1043.39 72.6959Z" fill="url(#paint1_linear_112_4022)" fill-opacity="0.7"/>
<path d="M995.922 47.4159C1000.32 47.4159 1003.67 48.4612 1005.97 50.5519C1008.27 52.5999 1009.43 55.6505 1009.43 59.7039V82.9999H1002.71L1000.85 78.2639H1000.59C999.613 79.5012 998.589 80.5252 997.522 81.3359C996.498 82.1465 995.303 82.7225 993.938 83.0639C992.573 83.4479 990.909 83.6399 988.946 83.6399C986.898 83.6399 985.063 83.2559 983.442 82.4879C981.821 81.6772 980.541 80.4612 979.602 78.8399C978.663 77.2185 978.194 75.1705 978.194 72.6959C978.194 69.0265 979.517 66.2745 982.162 64.4399C984.807 62.6052 988.754 61.5812 994.002 61.3679L999.826 61.1759V60.0879C999.826 57.9972 999.357 56.5465 998.418 55.7359C997.479 54.8825 996.156 54.4559 994.45 54.4559C992.871 54.4559 991.25 54.7119 989.586 55.2239C987.922 55.7359 986.279 56.3545 984.658 57.0799L981.842 50.4879C983.677 49.5492 985.767 48.8025 988.114 48.2479C990.503 47.6932 993.106 47.4159 995.922 47.4159ZM996.178 66.9999C993.149 67.0852 991.037 67.5759 989.842 68.4719C988.647 69.3679 988.05 70.6265 988.05 72.2479C988.05 73.7412 988.455 74.8505 989.266 75.5759C990.119 76.2585 991.25 76.5999 992.658 76.5999C994.663 76.5999 996.349 76.0025 997.714 74.8079C999.122 73.6132 999.826 71.9065 999.826 69.6879V66.8079L996.178 66.9999Z" fill="url(#paint2_linear_112_4022)" fill-opacity="0.7"/>
<path d="M951.324 83.6399C947.484 83.6399 944.327 82.1252 941.852 79.0959C939.42 76.0239 938.204 71.5225 938.204 65.5919C938.204 59.5759 939.442 55.0532 941.916 52.0239C944.391 48.9519 947.634 47.4159 951.644 47.4159C953.308 47.4159 954.738 47.6505 955.932 48.1199C957.17 48.5465 958.236 49.1439 959.132 49.9119C960.028 50.6799 960.796 51.5545 961.436 52.5359H961.756C961.628 51.7679 961.5 50.7012 961.372 49.3359C961.287 47.9279 961.244 46.6479 961.244 45.4959V34.3599H970.972V82.9999H963.548L961.628 78.4559H961.244C960.647 79.4372 959.9 80.3119 959.004 81.0799C958.108 81.8479 957.02 82.4665 955.74 82.9359C954.503 83.4052 953.031 83.6399 951.324 83.6399ZM954.716 75.8959C957.362 75.8959 959.218 75.1492 960.284 73.6559C961.351 72.1199 961.884 69.7945 961.884 66.6799V65.6559C961.884 62.2852 961.372 59.7039 960.348 57.9119C959.324 56.1199 957.426 55.2239 954.652 55.2239C952.562 55.2239 950.919 56.1199 949.724 57.9119C948.572 59.7039 947.996 62.3065 947.996 65.7199C947.996 69.1332 948.572 71.6932 949.724 73.3999C950.919 75.0639 952.583 75.8959 954.716 75.8959Z" fill="url(#paint3_linear_112_4022)" fill-opacity="0.7"/>
<path d="M918.211 47.4159C922.051 47.4159 925.081 48.4185 927.299 50.4239C929.518 52.4292 930.627 55.6932 930.627 60.2159V82.9999H921.027V62.6479C921.027 60.1305 920.558 58.2532 919.619 57.0159C918.723 55.7359 917.315 55.0959 915.395 55.0959C912.494 55.0959 910.51 56.0985 909.443 58.1039C908.419 60.0665 907.907 62.9039 907.907 66.6159V82.9999H898.243V48.0559H905.667L907.011 52.7279H907.395C908.163 51.5759 909.081 50.6159 910.147 49.8479C911.257 49.0372 912.473 48.4399 913.795 48.0559C915.161 47.6292 916.633 47.4159 918.211 47.4159Z" fill="url(#paint4_linear_112_4022)" fill-opacity="0.7"/>
<path d="M874.968 47.4159C878.211 47.4159 881.005 48.0345 883.352 49.2719C885.699 50.4665 887.491 52.2585 888.728 54.6479C890.008 56.9945 890.648 59.8745 890.648 63.2879V67.9599H868.184C868.269 70.6052 869.08 72.6959 870.616 74.2319C872.152 75.7252 874.349 76.4719 877.208 76.4719C879.384 76.4719 881.368 76.2585 883.16 75.8319C884.952 75.4052 886.787 74.7652 888.664 73.9119V81.1439C886.957 81.9972 885.144 82.6159 883.224 82.9999C881.347 83.4265 879 83.6399 876.184 83.6399C872.728 83.6399 869.656 82.9999 866.968 81.7199C864.323 80.4399 862.232 78.4772 860.696 75.8319C859.16 73.1439 858.392 69.7945 858.392 65.7839C858.392 61.6879 859.075 58.2959 860.44 55.6079C861.848 52.8772 863.789 50.8292 866.264 49.4639C868.781 48.0985 871.683 47.4159 874.968 47.4159ZM875.224 54.2639C873.304 54.2639 871.747 54.8825 870.552 56.1199C869.357 57.3145 868.653 59.1065 868.44 61.4959H881.624C881.624 60.0879 881.389 58.8505 880.92 57.7839C880.451 56.7172 879.725 55.8639 878.744 55.2239C877.805 54.5839 876.632 54.2639 875.224 54.2639Z" fill="url(#paint5_linear_112_4022)" fill-opacity="0.7"/>
<path d="M831.266 47.4159C833.698 47.4159 835.725 47.8852 837.346 48.8239C838.968 49.7199 840.312 50.9359 841.378 52.4719H841.634L842.53 48.0559H850.722V83.2559C850.722 86.5412 850.082 89.2932 848.802 91.5119C847.522 93.7732 845.581 95.4799 842.978 96.6319C840.418 97.7839 837.154 98.3599 833.186 98.3599C830.498 98.3599 828.088 98.1892 825.954 97.8479C823.821 97.5492 821.816 97.0159 819.938 96.2479V88.0559C821.858 88.9092 823.821 89.5705 825.826 90.0399C827.874 90.5092 830.221 90.7439 832.866 90.7439C835.554 90.7439 837.581 90.1252 838.946 88.8879C840.354 87.6505 841.058 85.9439 841.058 83.7679V82.8079C841.058 82.2959 841.08 81.6132 841.122 80.7599C841.208 79.9065 841.293 79.1599 841.378 78.5199H841.058C840.077 80.0559 838.776 81.2932 837.154 82.2319C835.576 83.1705 833.592 83.6399 831.202 83.6399C827.192 83.6399 823.97 82.0825 821.538 78.9679C819.149 75.8532 817.954 71.3945 817.954 65.5919C817.954 59.7892 819.17 55.3092 821.602 52.1519C824.034 48.9945 827.256 47.4159 831.266 47.4159ZM834.402 55.0319C832.994 55.0319 831.778 55.4372 830.754 56.2479C829.773 57.0585 829.026 58.2532 828.514 59.8319C828.045 61.4105 827.81 63.3732 827.81 65.7199C827.81 69.2185 828.365 71.8212 829.474 73.5279C830.626 75.2345 832.333 76.0879 834.594 76.0879C835.874 76.0879 836.962 75.8959 837.858 75.5119C838.754 75.1279 839.48 74.5732 840.034 73.8479C840.589 73.0799 840.994 72.1199 841.25 70.9679C841.549 69.8159 841.698 68.4505 841.698 66.8719V65.4639C841.698 63.1172 841.464 61.1759 840.994 59.6399C840.525 58.1039 839.757 56.9519 838.69 56.1839C837.624 55.4159 836.194 55.0319 834.402 55.0319Z" fill="url(#paint6_linear_112_4022)" fill-opacity="0.7"/>
<path d="M796.343 47.4159C799.586 47.4159 802.38 48.0345 804.727 49.2719C807.074 50.4665 808.866 52.2585 810.103 54.6479C811.383 56.9945 812.023 59.8745 812.023 63.2879V67.9599H789.559C789.644 70.6052 790.455 72.6959 791.991 74.2319C793.527 75.7252 795.724 76.4719 798.583 76.4719C800.759 76.4719 802.743 76.2585 804.535 75.8319C806.327 75.4052 808.162 74.7652 810.039 73.9119V81.1439C808.332 81.9972 806.519 82.6159 804.599 82.9999C802.722 83.4265 800.375 83.6399 797.559 83.6399C794.103 83.6399 791.031 82.9999 788.343 81.7199C785.698 80.4399 783.607 78.4772 782.071 75.8319C780.535 73.1439 779.767 69.7945 779.767 65.7839C779.767 61.6879 780.45 58.2959 781.815 55.6079C783.223 52.8772 785.164 50.8292 787.639 49.4639C790.156 48.0985 793.058 47.4159 796.343 47.4159ZM796.599 54.2639C794.679 54.2639 793.122 54.8825 791.927 56.1199C790.732 57.3145 790.028 59.1065 789.815 61.4959H802.999C802.999 60.0879 802.764 58.8505 802.295 57.7839C801.826 56.7172 801.1 55.8639 800.119 55.2239C799.18 54.5839 798.007 54.2639 796.599 54.2639Z" fill="url(#paint7_linear_112_4022)" fill-opacity="0.7"/>
<path d="M772.032 82.9999H762.368V34.3599H772.032V82.9999Z" fill="url(#paint8_linear_112_4022)" fill-opacity="0.7"/>
<path d="M722.468 47.4159C725.711 47.4159 728.505 48.0345 730.852 49.2719C733.199 50.4665 734.991 52.2585 736.228 54.6479C737.508 56.9945 738.148 59.8745 738.148 63.2879V67.9599H715.684C715.769 70.6052 716.58 72.6959 718.116 74.2319C719.652 75.7252 721.849 76.4719 724.708 76.4719C726.884 76.4719 728.868 76.2585 730.66 75.8319C732.452 75.4052 734.287 74.7652 736.164 73.9119V81.1439C734.457 81.9972 732.644 82.6159 730.724 82.9999C728.847 83.4265 726.5 83.6399 723.684 83.6399C720.228 83.6399 717.156 82.9999 714.468 81.7199C711.823 80.4399 709.732 78.4772 708.196 75.8319C706.66 73.1439 705.892 69.7945 705.892 65.7839C705.892 61.6879 706.575 58.2959 707.94 55.6079C709.348 52.8772 711.289 50.8292 713.764 49.4639C716.281 48.0985 719.183 47.4159 722.468 47.4159ZM722.724 54.2639C720.804 54.2639 719.247 54.8825 718.052 56.1199C716.857 57.3145 716.153 59.1065 715.94 61.4959H729.124C729.124 60.0879 728.889 58.8505 728.42 57.7839C727.951 56.7172 727.225 55.8639 726.244 55.2239C725.305 54.5839 724.132 54.2639 722.724 54.2639Z" fill="url(#paint9_linear_112_4022)" fill-opacity="0.7"/>
<path d="M678.574 83.6399C674.734 83.6399 671.577 82.1252 669.102 79.0959C666.67 76.0239 665.454 71.5225 665.454 65.5919C665.454 59.5759 666.692 55.0532 669.166 52.0239C671.641 48.9519 674.884 47.4159 678.894 47.4159C680.558 47.4159 681.988 47.6505 683.182 48.1199C684.42 48.5465 685.486 49.1439 686.382 49.9119C687.278 50.6799 688.046 51.5545 688.686 52.5359H689.006C688.878 51.7679 688.75 50.7012 688.622 49.3359C688.537 47.9279 688.494 46.6479 688.494 45.4959V34.3599H698.222V82.9999H690.798L688.878 78.4559H688.494C687.897 79.4372 687.15 80.3119 686.254 81.0799C685.358 81.8479 684.27 82.4665 682.99 82.9359C681.753 83.4052 680.281 83.6399 678.574 83.6399ZM681.966 75.8959C684.612 75.8959 686.468 75.1492 687.534 73.6559C688.601 72.1199 689.134 69.7945 689.134 66.6799V65.6559C689.134 62.2852 688.622 59.7039 687.598 57.9119C686.574 56.1199 684.676 55.2239 681.902 55.2239C679.812 55.2239 678.169 56.1199 676.974 57.9119C675.822 59.7039 675.246 62.3065 675.246 65.7199C675.246 69.1332 675.822 71.6932 676.974 73.3999C678.169 75.0639 679.833 75.8959 681.966 75.8959Z" fill="url(#paint10_linear_112_4022)" fill-opacity="0.7"/>
<path d="M642.749 65.4639C642.749 68.3652 642.344 70.9465 641.533 73.2079C640.765 75.4692 639.635 77.3679 638.141 78.9039C636.691 80.4399 634.92 81.6132 632.829 82.4239C630.739 83.2345 628.371 83.6399 625.725 83.6399C623.251 83.6399 620.989 83.2345 618.941 82.4239C616.893 81.6132 615.123 80.4399 613.629 78.9039C612.136 77.3679 610.963 75.4692 610.109 73.2079C609.256 70.9465 608.829 68.3652 608.829 65.4639C608.829 61.5812 609.512 58.2959 610.877 55.6079C612.243 52.9199 614.205 50.8932 616.765 49.5279C619.325 48.1199 622.376 47.4159 625.917 47.4159C629.203 47.4159 632.104 48.1199 634.621 49.5279C637.139 50.8932 639.123 52.9199 640.573 55.6079C642.024 58.2959 642.749 61.5812 642.749 65.4639ZM618.685 65.4639C618.685 67.7252 618.92 69.6665 619.389 71.2879C619.901 72.9092 620.669 74.1465 621.693 74.9999C622.76 75.8532 624.147 76.2799 625.853 76.2799C627.517 76.2799 628.861 75.8532 629.885 74.9999C630.952 74.1465 631.72 72.9092 632.189 71.2879C632.659 69.6665 632.893 67.7252 632.893 65.4639C632.893 63.1599 632.637 61.2185 632.125 59.6399C631.656 58.0612 630.909 56.8665 629.885 56.0559C628.861 55.2025 627.496 54.7759 625.789 54.7759C623.315 54.7759 621.501 55.6932 620.349 57.5279C619.24 59.3625 618.685 62.0079 618.685 65.4639Z" fill="url(#paint11_linear_112_4022)" fill-opacity="0.7"/>
<path d="M587.797 47.4159C592.192 47.4159 595.541 48.4612 597.845 50.5519C600.149 52.5999 601.301 55.6505 601.301 59.7039V82.9999H594.581L592.725 78.2639H592.469C591.488 79.5012 590.464 80.5252 589.397 81.3359C588.373 82.1465 587.178 82.7225 585.813 83.0639C584.448 83.4479 582.784 83.6399 580.821 83.6399C578.773 83.6399 576.938 83.2559 575.317 82.4879C573.696 81.6772 572.416 80.4612 571.477 78.8399C570.538 77.2185 570.069 75.1705 570.069 72.6959C570.069 69.0265 571.392 66.2745 574.037 64.4399C576.682 62.6052 580.629 61.5812 585.877 61.3679L591.701 61.1759V60.0879C591.701 57.9972 591.232 56.5465 590.293 55.7359C589.354 54.8825 588.032 54.4559 586.325 54.4559C584.746 54.4559 583.125 54.7119 581.461 55.2239C579.797 55.7359 578.154 56.3545 576.533 57.0799L573.717 50.4879C575.552 49.5492 577.642 48.8025 579.989 48.2479C582.378 47.6932 584.981 47.4159 587.797 47.4159ZM588.053 66.9999C585.024 67.0852 582.912 67.5759 581.717 68.4719C580.522 69.3679 579.925 70.6265 579.925 72.2479C579.925 73.7412 580.33 74.8505 581.141 75.5759C581.994 76.2585 583.125 76.5999 584.533 76.5999C586.538 76.5999 588.224 76.0025 589.589 74.8079C590.997 73.6132 591.701 71.9065 591.701 69.6879V66.8079L588.053 66.9999ZM574.101 44.2799C574.229 42.6159 574.528 41.1865 574.997 39.9919C575.509 38.7545 576.149 37.7519 576.917 36.9839C577.685 36.1732 578.538 35.5759 579.477 35.1919C580.458 34.8079 581.504 34.6159 582.613 34.6159C583.466 34.6159 584.298 34.7865 585.109 35.1279C585.962 35.4265 586.773 35.8105 587.541 36.2799C588.352 36.7065 589.141 37.0905 589.909 37.4319C590.677 37.7305 591.445 37.8799 592.213 37.8799C592.853 37.8799 593.472 37.6025 594.069 37.0479C594.666 36.4932 595.093 35.6612 595.349 34.5519H600.021C599.765 37.8372 598.826 40.2692 597.205 41.8479C595.584 43.4265 593.685 44.2159 591.509 44.2159C590.656 44.2159 589.824 44.0665 589.013 43.7679C588.202 43.4265 587.392 43.0425 586.581 42.6159C585.77 42.1465 584.981 41.7625 584.213 41.4639C583.445 41.1225 582.677 40.9519 581.909 40.9519C581.269 40.9519 580.65 41.2292 580.053 41.7839C579.456 42.3385 579.029 43.1705 578.773 44.2799H574.101Z" fill="url(#paint12_linear_112_4022)" fill-opacity="0.7"/>
<path d="M554.413 83.6399C551.042 83.6399 548.077 83.0212 545.517 81.7839C543 80.5039 541.037 78.5412 539.629 75.8959C538.221 73.2079 537.517 69.8159 537.517 65.7199C537.517 61.4105 538.285 57.9119 539.821 55.2239C541.357 52.5359 543.448 50.5732 546.093 49.3359C548.738 48.0559 551.746 47.4159 555.117 47.4159C557.165 47.4159 559.085 47.6292 560.877 48.0559C562.712 48.4825 564.333 49.0585 565.741 49.7839L562.861 57.0799C561.581 56.5252 560.28 56.0772 558.957 55.7359C557.677 55.3519 556.397 55.1599 555.117 55.1599C553.453 55.1599 552.045 55.5439 550.893 56.3119C549.741 57.0799 548.866 58.2532 548.269 59.8319C547.672 61.3679 547.373 63.3092 547.373 65.6559C547.373 67.9599 547.672 69.8585 548.269 71.3519C548.866 72.8452 549.741 73.9759 550.893 74.7439C552.045 75.4692 553.41 75.8319 554.989 75.8319C556.824 75.8319 558.552 75.5972 560.173 75.1279C561.794 74.6159 563.33 73.9545 564.781 73.1439V81.0159C563.458 81.8265 561.965 82.4665 560.301 82.9359C558.637 83.4052 556.674 83.6399 554.413 83.6399ZM560.877 91.2559C560.877 93.4319 560.088 95.1599 558.509 96.4399C556.93 97.7199 554.733 98.3599 551.917 98.3599C550.808 98.3599 549.762 98.2745 548.781 98.1039C547.842 97.9759 547.074 97.8052 546.477 97.5919V92.5359C547.074 92.7065 547.693 92.8345 548.333 92.9199C549.016 93.0479 549.677 93.1119 550.317 93.1119C551.426 93.1119 552.258 92.9199 552.813 92.5359C553.41 92.1945 553.709 91.6399 553.709 90.8719C553.709 90.0185 553.282 89.3572 552.429 88.8879C551.576 88.4185 550.338 88.0559 548.717 87.7999L550.957 82.9999H556.077L555.117 85.4959C556.013 85.6665 556.909 85.9652 557.805 86.3919C558.701 86.8612 559.426 87.4799 559.981 88.2479C560.578 89.0159 560.877 90.0185 560.877 91.2559Z" fill="url(#paint13_linear_112_4022)" fill-opacity="0.7"/>
<path d="M529.748 48.0559V82.9999H522.324L521.108 78.5199H520.532C519.807 79.7145 518.868 80.6959 517.716 81.4639C516.607 82.2319 515.369 82.7865 514.004 83.1279C512.681 83.4692 511.273 83.6399 509.78 83.6399C507.305 83.6399 505.129 83.1919 503.252 82.2959C501.417 81.3999 499.967 80.0132 498.9 78.1359C497.876 76.2585 497.364 73.8265 497.364 70.8399V48.0559H507.092V68.4079C507.092 70.8825 507.519 72.7599 508.372 74.0399C509.268 75.2772 510.676 75.8959 512.596 75.8959C514.559 75.8959 516.073 75.4692 517.14 74.6159C518.249 73.7199 519.017 72.4185 519.444 70.7119C519.871 69.0052 520.084 66.9145 520.084 64.4399V48.0559H529.748Z" fill="url(#paint14_linear_112_4022)" fill-opacity="0.7"/>
<path d="M468.574 83.6399C464.734 83.6399 461.577 82.1252 459.102 79.0959C456.67 76.0239 455.454 71.5225 455.454 65.5919C455.454 59.5759 456.692 55.0532 459.166 52.0239C461.641 48.9519 464.884 47.4159 468.894 47.4159C470.558 47.4159 471.988 47.6505 473.182 48.1199C474.42 48.5465 475.486 49.1439 476.382 49.9119C477.278 50.6799 478.046 51.5545 478.686 52.5359H479.006C478.878 51.7679 478.75 50.7012 478.622 49.3359C478.537 47.9279 478.494 46.6479 478.494 45.4959V34.3599H488.222V82.9999H480.798L478.878 78.4559H478.494C477.897 79.4372 477.15 80.3119 476.254 81.0799C475.358 81.8479 474.27 82.4665 472.99 82.9359C471.753 83.4052 470.281 83.6399 468.574 83.6399ZM471.966 75.8959C474.612 75.8959 476.468 75.1492 477.534 73.6559C478.601 72.1199 479.134 69.7945 479.134 66.6799V65.6559C479.134 62.2852 478.622 59.7039 477.598 57.9119C476.574 56.1199 474.676 55.2239 471.902 55.2239C469.812 55.2239 468.169 56.1199 466.974 57.9119C465.822 59.7039 465.246 62.3065 465.246 65.7199C465.246 69.1332 465.822 71.6932 466.974 73.3999C468.169 75.0639 469.833 75.8959 471.966 75.8959Z" fill="url(#paint15_linear_112_4022)" fill-opacity="0.7"/>
<path d="M434.422 47.4159C438.817 47.4159 442.166 48.4612 444.47 50.5519C446.774 52.5999 447.926 55.6505 447.926 59.7039V82.9999H441.206L439.35 78.2639H439.094C438.113 79.5012 437.089 80.5252 436.022 81.3359C434.998 82.1465 433.803 82.7225 432.438 83.0639C431.073 83.4479 429.409 83.6399 427.446 83.6399C425.398 83.6399 423.563 83.2559 421.942 82.4879C420.321 81.6772 419.041 80.4612 418.102 78.8399C417.163 77.2185 416.694 75.1705 416.694 72.6959C416.694 69.0265 418.017 66.2745 420.662 64.4399C423.307 62.6052 427.254 61.5812 432.502 61.3679L438.326 61.1759V60.0879C438.326 57.9972 437.857 56.5465 436.918 55.7359C435.979 54.8825 434.657 54.4559 432.95 54.4559C431.371 54.4559 429.75 54.7119 428.086 55.2239C426.422 55.7359 424.779 56.3545 423.158 57.0799L420.342 50.4879C422.177 49.5492 424.267 48.8025 426.614 48.2479C429.003 47.6932 431.606 47.4159 434.422 47.4159ZM434.678 66.9999C431.649 67.0852 429.537 67.5759 428.342 68.4719C427.147 69.3679 426.55 70.6265 426.55 72.2479C426.55 73.7412 426.955 74.8505 427.766 75.5759C428.619 76.2585 429.75 76.5999 431.158 76.5999C433.163 76.5999 434.849 76.0025 436.214 74.8079C437.622 73.6132 438.326 71.9065 438.326 69.6879V66.8079L434.678 66.9999Z" fill="url(#paint16_linear_112_4022)" fill-opacity="0.7"/>
<path d="M410.759 47.4159C411.399 47.4159 412.082 47.4585 412.807 47.5439C413.575 47.5865 414.172 47.6719 414.599 47.7999L413.639 56.8239C413.17 56.7385 412.615 56.6532 411.975 56.5679C411.335 56.4825 410.567 56.4399 409.671 56.4399C408.69 56.4399 407.687 56.5892 406.663 56.8879C405.682 57.1865 404.764 57.6772 403.911 58.3599C403.058 59.0425 402.375 59.9385 401.863 61.0479C401.351 62.1572 401.095 63.5652 401.095 65.2719V82.9999H391.431V48.0559H398.791L400.199 53.9439H400.647C401.33 52.7065 402.183 51.5972 403.207 50.6159C404.231 49.6345 405.383 48.8665 406.663 48.3119C407.943 47.7145 409.308 47.4159 410.759 47.4159Z" fill="url(#paint17_linear_112_4022)" fill-opacity="0.7"/>
<path d="M376.369 82.9999H366.577V45.4319H354.225V37.3039H388.721V45.4319H376.369V82.9999Z" fill="url(#paint18_linear_112_4022)" fill-opacity="0.7"/>
</g>
</g>
<path d="M253 72H1147V105C1147 111.627 1141.63 117 1135 117H265C258.373 117 253 111.627 253 105V72Z" fill="url(#paint19_linear_112_4022)"/>
<path d="M1043.85 60.6959C1043.85 62.9145 1043.31 64.8559 1042.25 66.5199C1041.22 68.1412 1039.64 69.3999 1037.51 70.2959C1035.38 71.1919 1032.67 71.6399 1029.38 71.6399C1026.91 71.6399 1024.73 71.4692 1022.85 71.1279C1020.98 70.8292 1019.16 70.3172 1017.41 69.5919V61.5919C1019.29 62.4879 1021.32 63.1919 1023.49 63.7039C1025.67 64.2159 1027.55 64.4719 1029.13 64.4719C1031.09 64.4719 1032.5 64.1945 1033.35 63.6399C1034.25 63.0852 1034.69 62.3385 1034.69 61.3999C1034.69 60.7599 1034.46 60.1839 1033.99 59.6719C1033.56 59.1599 1032.77 58.6265 1031.62 58.0719C1030.51 57.5172 1028.91 56.8345 1026.82 56.0239C1024.73 55.1705 1022.98 54.2959 1021.57 53.3999C1020.17 52.4612 1019.1 51.3519 1018.37 50.0719C1017.69 48.7919 1017.35 47.1919 1017.35 45.2719C1017.35 42.0719 1018.61 39.6399 1021.13 37.9759C1023.69 36.2692 1027.06 35.4159 1031.24 35.4159C1033.5 35.4159 1035.59 35.6505 1037.51 36.1199C1039.47 36.5892 1041.46 37.2505 1043.46 38.1039L1040.65 44.6959C1039.02 43.9705 1037.36 43.3732 1035.65 42.9039C1033.95 42.4345 1032.43 42.1999 1031.11 42.1999C1029.66 42.1999 1028.53 42.4345 1027.72 42.9039C1026.91 43.3305 1026.5 43.9492 1026.5 44.7599C1026.5 45.3572 1026.72 45.8905 1027.14 46.3599C1027.61 46.8292 1028.4 47.3199 1029.51 47.8319C1030.66 48.3439 1032.26 49.0052 1034.31 49.8159C1036.4 50.6265 1038.15 51.5012 1039.56 52.4399C1041.01 53.3359 1042.08 54.4452 1042.76 55.7679C1043.48 57.0479 1043.85 58.6905 1043.85 60.6959Z" fill="url(#paint20_linear_112_4022)"/>
<path d="M996.382 35.4159C1000.78 35.4159 1004.13 36.4612 1006.43 38.5519C1008.73 40.5999 1009.89 43.6505 1009.89 47.7039V70.9999H1003.17L1001.31 66.2639H1001.05C1000.07 67.5012 999.048 68.5252 997.982 69.3359C996.958 70.1465 995.763 70.7225 994.398 71.0639C993.032 71.4479 991.368 71.6399 989.406 71.6399C987.358 71.6399 985.523 71.2559 983.902 70.4879C982.28 69.6772 981 68.4612 980.062 66.8399C979.123 65.2185 978.654 63.1705 978.654 60.6959C978.654 57.0265 979.976 54.2745 982.622 52.4399C985.267 50.6052 989.214 49.5812 994.462 49.3679L1000.29 49.1759V48.0879C1000.29 45.9972 999.816 44.5465 998.878 43.7359C997.939 42.8825 996.616 42.4559 994.91 42.4559C993.331 42.4559 991.71 42.7119 990.046 43.2239C988.382 43.7359 986.739 44.3545 985.118 45.0799L982.302 38.4879C984.136 37.5492 986.227 36.8025 988.574 36.2479C990.963 35.6932 993.566 35.4159 996.382 35.4159ZM996.638 54.9999C993.608 55.0852 991.496 55.5759 990.302 56.4719C989.107 57.3679 988.51 58.6265 988.51 60.2479C988.51 61.7412 988.915 62.8505 989.726 63.5759C990.579 64.2585 991.71 64.5999 993.118 64.5999C995.123 64.5999 996.808 64.0025 998.174 62.8079C999.582 61.6132 1000.29 59.9065 1000.29 57.6879V54.8079L996.638 54.9999Z" fill="url(#paint21_linear_112_4022)"/>
<path d="M951.784 71.6399C947.944 71.6399 944.787 70.1252 942.312 67.0959C939.88 64.0239 938.664 59.5225 938.664 53.5919C938.664 47.5759 939.902 43.0532 942.376 40.0239C944.851 36.9519 948.094 35.4159 952.104 35.4159C953.768 35.4159 955.198 35.6505 956.392 36.1199C957.63 36.5465 958.696 37.1439 959.592 37.9119C960.488 38.6799 961.256 39.5545 961.896 40.5359H962.216C962.088 39.7679 961.96 38.7012 961.832 37.3359C961.747 35.9279 961.704 34.6479 961.704 33.4959V22.3599H971.432V70.9999H964.008L962.088 66.4559H961.704C961.107 67.4372 960.36 68.3119 959.464 69.0799C958.568 69.8479 957.48 70.4665 956.2 70.9359C954.963 71.4052 953.491 71.6399 951.784 71.6399ZM955.176 63.8959C957.822 63.8959 959.678 63.1492 960.744 61.6559C961.811 60.1199 962.344 57.7945 962.344 54.6799V53.6559C962.344 50.2852 961.832 47.7039 960.808 45.9119C959.784 44.1199 957.886 43.2239 955.112 43.2239C953.022 43.2239 951.379 44.1199 950.184 45.9119C949.032 47.7039 948.456 50.3065 948.456 53.7199C948.456 57.1332 949.032 59.6932 950.184 61.3999C951.379 63.0639 953.043 63.8959 955.176 63.8959Z" fill="url(#paint22_linear_112_4022)"/>
<path d="M918.671 35.4159C922.511 35.4159 925.541 36.4185 927.759 38.4239C929.978 40.4292 931.087 43.6932 931.087 48.2159V70.9999H921.487V50.6479C921.487 48.1305 921.018 46.2532 920.079 45.0159C919.183 43.7359 917.775 43.0959 915.855 43.0959C912.954 43.0959 910.97 44.0985 909.903 46.1039C908.879 48.0665 908.367 50.9039 908.367 54.6159V70.9999H898.703V36.0559H906.127L907.471 40.7279H907.855C908.623 39.5759 909.541 38.6159 910.607 37.8479C911.717 37.0372 912.933 36.4399 914.255 36.0559C915.621 35.6292 917.093 35.4159 918.671 35.4159Z" fill="url(#paint23_linear_112_4022)"/>
<path d="M875.428 35.4159C878.67 35.4159 881.465 36.0345 883.812 37.2719C886.158 38.4665 887.95 40.2585 889.188 42.6479C890.468 44.9945 891.108 47.8745 891.108 51.2879V55.9599H868.644C868.729 58.6052 869.54 60.6959 871.076 62.2319C872.612 63.7252 874.809 64.4719 877.668 64.4719C879.844 64.4719 881.828 64.2585 883.62 63.8319C885.412 63.4052 887.247 62.7652 889.124 61.9119V69.1439C887.417 69.9972 885.604 70.6159 883.684 70.9999C881.807 71.4265 879.46 71.6399 876.644 71.6399C873.188 71.6399 870.116 70.9999 867.428 69.7199C864.782 68.4399 862.692 66.4772 861.156 63.8319C859.62 61.1439 858.852 57.7945 858.852 53.7839C858.852 49.6879 859.534 46.2959 860.9 43.6079C862.308 40.8772 864.249 38.8292 866.724 37.4639C869.241 36.0985 872.142 35.4159 875.428 35.4159ZM875.684 42.2639C873.764 42.2639 872.207 42.8825 871.012 44.1199C869.817 45.3145 869.113 47.1065 868.9 49.4959H882.084C882.084 48.0879 881.849 46.8505 881.38 45.7839C880.91 44.7172 880.185 43.8639 879.204 43.2239C878.265 42.5839 877.092 42.2639 875.684 42.2639Z" fill="url(#paint24_linear_112_4022)"/>
<path d="M831.726 35.4159C834.158 35.4159 836.185 35.8852 837.806 36.8239C839.428 37.7199 840.772 38.9359 841.838 40.4719H842.094L842.99 36.0559H851.182V71.2559C851.182 74.5412 850.542 77.2932 849.262 79.5119C847.982 81.7732 846.041 83.4799 843.438 84.6319C840.878 85.7839 837.614 86.3599 833.646 86.3599C830.958 86.3599 828.548 86.1892 826.414 85.8479C824.281 85.5492 822.276 85.0159 820.398 84.2479V76.0559C822.318 76.9092 824.281 77.5705 826.286 78.0399C828.334 78.5092 830.681 78.7439 833.326 78.7439C836.014 78.7439 838.041 78.1252 839.406 76.8879C840.814 75.6505 841.518 73.9439 841.518 71.7679V70.8079C841.518 70.2959 841.54 69.6132 841.582 68.7599C841.668 67.9065 841.753 67.1599 841.838 66.5199H841.518C840.537 68.0559 839.236 69.2932 837.614 70.2319C836.036 71.1705 834.052 71.6399 831.662 71.6399C827.652 71.6399 824.43 70.0825 821.998 66.9679C819.609 63.8532 818.414 59.3945 818.414 53.5919C818.414 47.7892 819.63 43.3092 822.062 40.1519C824.494 36.9945 827.716 35.4159 831.726 35.4159ZM834.862 43.0319C833.454 43.0319 832.238 43.4372 831.214 44.2479C830.233 45.0585 829.486 46.2532 828.974 47.8319C828.505 49.4105 828.27 51.3732 828.27 53.7199C828.27 57.2185 828.825 59.8212 829.934 61.5279C831.086 63.2345 832.793 64.0879 835.054 64.0879C836.334 64.0879 837.422 63.8959 838.318 63.5119C839.214 63.1279 839.94 62.5732 840.494 61.8479C841.049 61.0799 841.454 60.1199 841.71 58.9679C842.009 57.8159 842.158 56.4505 842.158 54.8719V53.4639C842.158 51.1172 841.924 49.1759 841.454 47.6399C840.985 46.1039 840.217 44.9519 839.15 44.1839C838.084 43.4159 836.654 43.0319 834.862 43.0319Z" fill="url(#paint25_linear_112_4022)"/>
<path d="M796.803 35.4159C800.045 35.4159 802.84 36.0345 805.187 37.2719C807.533 38.4665 809.325 40.2585 810.563 42.6479C811.843 44.9945 812.483 47.8745 812.483 51.2879V55.9599H790.019C790.104 58.6052 790.915 60.6959 792.451 62.2319C793.987 63.7252 796.184 64.4719 799.043 64.4719C801.219 64.4719 803.203 64.2585 804.995 63.8319C806.787 63.4052 808.621 62.7652 810.499 61.9119V69.1439C808.792 69.9972 806.979 70.6159 805.059 70.9999C803.181 71.4265 800.835 71.6399 798.019 71.6399C794.563 71.6399 791.491 70.9999 788.803 69.7199C786.157 68.4399 784.067 66.4772 782.531 63.8319C780.995 61.1439 780.227 57.7945 780.227 53.7839C780.227 49.6879 780.909 46.2959 782.275 43.6079C783.683 40.8772 785.624 38.8292 788.099 37.4639C790.616 36.0985 793.517 35.4159 796.803 35.4159ZM797.059 42.2639C795.139 42.2639 793.581 42.8825 792.387 44.1199C791.192 45.3145 790.488 47.1065 790.275 49.4959H803.459C803.459 48.0879 803.224 46.8505 802.755 45.7839C802.285 44.7172 801.56 43.8639 800.579 43.2239C799.64 42.5839 798.467 42.2639 797.059 42.2639Z" fill="url(#paint26_linear_112_4022)"/>
<path d="M772.492 70.9999H762.828V22.3599H772.492V70.9999Z" fill="url(#paint27_linear_112_4022)"/>
<path d="M722.928 35.4159C726.17 35.4159 728.965 36.0345 731.312 37.2719C733.658 38.4665 735.45 40.2585 736.688 42.6479C737.968 44.9945 738.608 47.8745 738.608 51.2879V55.9599H716.144C716.229 58.6052 717.04 60.6959 718.576 62.2319C720.112 63.7252 722.309 64.4719 725.168 64.4719C727.344 64.4719 729.328 64.2585 731.12 63.8319C732.912 63.4052 734.746 62.7652 736.624 61.9119V69.1439C734.917 69.9972 733.104 70.6159 731.184 70.9999C729.306 71.4265 726.96 71.6399 724.144 71.6399C720.688 71.6399 717.616 70.9999 714.928 69.7199C712.282 68.4399 710.192 66.4772 708.656 63.8319C707.12 61.1439 706.352 57.7945 706.352 53.7839C706.352 49.6879 707.034 46.2959 708.4 43.6079C709.808 40.8772 711.749 38.8292 714.224 37.4639C716.741 36.0985 719.642 35.4159 722.928 35.4159ZM723.184 42.2639C721.264 42.2639 719.706 42.8825 718.512 44.1199C717.317 45.3145 716.613 47.1065 716.4 49.4959H729.584C729.584 48.0879 729.349 46.8505 728.88 45.7839C728.41 44.7172 727.685 43.8639 726.704 43.2239C725.765 42.5839 724.592 42.2639 723.184 42.2639Z" fill="url(#paint28_linear_112_4022)"/>
<path d="M679.034 71.6399C675.194 71.6399 672.037 70.1252 669.562 67.0959C667.13 64.0239 665.914 59.5225 665.914 53.5919C665.914 47.5759 667.152 43.0532 669.626 40.0239C672.101 36.9519 675.344 35.4159 679.354 35.4159C681.018 35.4159 682.448 35.6505 683.642 36.1199C684.88 36.5465 685.946 37.1439 686.842 37.9119C687.738 38.6799 688.506 39.5545 689.146 40.5359H689.466C689.338 39.7679 689.21 38.7012 689.082 37.3359C688.997 35.9279 688.954 34.6479 688.954 33.4959V22.3599H698.682V70.9999H691.258L689.338 66.4559H688.954C688.357 67.4372 687.61 68.3119 686.714 69.0799C685.818 69.8479 684.73 70.4665 683.45 70.9359C682.213 71.4052 680.741 71.6399 679.034 71.6399ZM682.426 63.8959C685.072 63.8959 686.928 63.1492 687.994 61.6559C689.061 60.1199 689.594 57.7945 689.594 54.6799V53.6559C689.594 50.2852 689.082 47.7039 688.058 45.9119C687.034 44.1199 685.136 43.2239 682.362 43.2239C680.272 43.2239 678.629 44.1199 677.434 45.9119C676.282 47.7039 675.706 50.3065 675.706 53.7199C675.706 57.1332 676.282 59.6932 677.434 61.3999C678.629 63.0639 680.293 63.8959 682.426 63.8959Z" fill="url(#paint29_linear_112_4022)"/>
<path d="M643.209 53.4639C643.209 56.3652 642.804 58.9465 641.993 61.2079C641.225 63.4692 640.095 65.3679 638.601 66.9039C637.151 68.4399 635.38 69.6132 633.289 70.4239C631.199 71.2345 628.831 71.6399 626.185 71.6399C623.711 71.6399 621.449 71.2345 619.401 70.4239C617.353 69.6132 615.583 68.4399 614.089 66.9039C612.596 65.3679 611.423 63.4692 610.569 61.2079C609.716 58.9465 609.289 56.3652 609.289 53.4639C609.289 49.5812 609.972 46.2959 611.337 43.6079C612.703 40.9199 614.665 38.8932 617.225 37.5279C619.785 36.1199 622.836 35.4159 626.377 35.4159C629.663 35.4159 632.564 36.1199 635.081 37.5279C637.599 38.8932 639.583 40.9199 641.033 43.6079C642.484 46.2959 643.209 49.5812 643.209 53.4639ZM619.145 53.4639C619.145 55.7252 619.38 57.6665 619.849 59.2879C620.361 60.9092 621.129 62.1465 622.153 62.9999C623.22 63.8532 624.607 64.2799 626.313 64.2799C627.977 64.2799 629.321 63.8532 630.345 62.9999C631.412 62.1465 632.18 60.9092 632.649 59.2879C633.119 57.6665 633.353 55.7252 633.353 53.4639C633.353 51.1599 633.097 49.2185 632.585 47.6399C632.116 46.0612 631.369 44.8665 630.345 44.0559C629.321 43.2025 627.956 42.7759 626.249 42.7759C623.775 42.7759 621.961 43.6932 620.809 45.5279C619.7 47.3625 619.145 50.0079 619.145 53.4639Z" fill="url(#paint30_linear_112_4022)"/>
<path d="M588.257 35.4159C592.651 35.4159 596.001 36.4612 598.305 38.5519C600.609 40.5999 601.761 43.6505 601.761 47.7039V70.9999H595.041L593.185 66.2639H592.929C591.947 67.5012 590.923 68.5252 589.857 69.3359C588.833 70.1465 587.638 70.7225 586.273 71.0639C584.907 71.4479 583.243 71.6399 581.281 71.6399C579.233 71.6399 577.398 71.2559 575.777 70.4879C574.155 69.6772 572.875 68.4612 571.937 66.8399C570.998 65.2185 570.529 63.1705 570.529 60.6959C570.529 57.0265 571.851 54.2745 574.497 52.4399C577.142 50.6052 581.089 49.5812 586.337 49.3679L592.161 49.1759V48.0879C592.161 45.9972 591.691 44.5465 590.753 43.7359C589.814 42.8825 588.491 42.4559 586.785 42.4559C585.206 42.4559 583.585 42.7119 581.921 43.2239C580.257 43.7359 578.614 44.3545 576.993 45.0799L574.177 38.4879C576.011 37.5492 578.102 36.8025 580.449 36.2479C582.838 35.6932 585.441 35.4159 588.257 35.4159ZM588.513 54.9999C585.483 55.0852 583.371 55.5759 582.177 56.4719C580.982 57.3679 580.385 58.6265 580.385 60.2479C580.385 61.7412 580.79 62.8505 581.601 63.5759C582.454 64.2585 583.585 64.5999 584.993 64.5999C586.998 64.5999 588.683 64.0025 590.049 62.8079C591.457 61.6132 592.161 59.9065 592.161 57.6879V54.8079L588.513 54.9999ZM574.561 32.2799C574.689 30.6159 574.987 29.1865 575.457 27.9919C575.969 26.7545 576.609 25.7519 577.377 24.9839C578.145 24.1732 578.998 23.5759 579.937 23.1919C580.918 22.8079 581.963 22.6159 583.073 22.6159C583.926 22.6159 584.758 22.7865 585.569 23.1279C586.422 23.4265 587.233 23.8105 588.001 24.2799C588.811 24.7065 589.601 25.0905 590.369 25.4319C591.137 25.7305 591.905 25.8799 592.673 25.8799C593.313 25.8799 593.931 25.6025 594.529 25.0479C595.126 24.4932 595.553 23.6612 595.809 22.5519H600.481C600.225 25.8372 599.286 28.2692 597.665 29.8479C596.043 31.4265 594.145 32.2159 591.969 32.2159C591.115 32.2159 590.283 32.0665 589.473 31.7679C588.662 31.4265 587.851 31.0425 587.041 30.6159C586.23 30.1465 585.441 29.7625 584.673 29.4639C583.905 29.1225 583.137 28.9519 582.369 28.9519C581.729 28.9519 581.11 29.2292 580.513 29.7839C579.915 30.3385 579.489 31.1705 579.233 32.2799H574.561Z" fill="url(#paint31_linear_112_4022)"/>
<path d="M554.873 71.6399C551.502 71.6399 548.537 71.0212 545.977 69.7839C543.459 68.5039 541.497 66.5412 540.089 63.8959C538.681 61.2079 537.977 57.8159 537.977 53.7199C537.977 49.4105 538.745 45.9119 540.281 43.2239C541.817 40.5359 543.907 38.5732 546.553 37.3359C549.198 36.0559 552.206 35.4159 555.577 35.4159C557.625 35.4159 559.545 35.6292 561.337 36.0559C563.171 36.4825 564.793 37.0585 566.201 37.7839L563.321 45.0799C562.041 44.5252 560.739 44.0772 559.417 43.7359C558.137 43.3519 556.857 43.1599 555.577 43.1599C553.913 43.1599 552.505 43.5439 551.353 44.3119C550.201 45.0799 549.326 46.2532 548.729 47.8319C548.131 49.3679 547.833 51.3092 547.833 53.6559C547.833 55.9599 548.131 57.8585 548.729 59.3519C549.326 60.8452 550.201 61.9759 551.353 62.7439C552.505 63.4692 553.87 63.8319 555.449 63.8319C557.283 63.8319 559.011 63.5972 560.633 63.1279C562.254 62.6159 563.79 61.9545 565.241 61.1439V69.0159C563.918 69.8265 562.425 70.4665 560.761 70.9359C559.097 71.4052 557.134 71.6399 554.873 71.6399ZM561.337 79.2559C561.337 81.4319 560.547 83.1599 558.969 84.4399C557.39 85.7199 555.193 86.3599 552.377 86.3599C551.267 86.3599 550.222 86.2745 549.241 86.1039C548.302 85.9759 547.534 85.8052 546.937 85.5919V80.5359C547.534 80.7065 548.153 80.8345 548.793 80.9199C549.475 81.0479 550.137 81.1119 550.777 81.1119C551.886 81.1119 552.718 80.9199 553.273 80.5359C553.87 80.1945 554.169 79.6399 554.169 78.8719C554.169 78.0185 553.742 77.3572 552.889 76.8879C552.035 76.4185 550.798 76.0559 549.177 75.7999L551.417 70.9999H556.537L555.577 73.4959C556.473 73.6665 557.369 73.9652 558.265 74.3919C559.161 74.8612 559.886 75.4799 560.441 76.2479C561.038 77.0159 561.337 78.0185 561.337 79.2559Z" fill="url(#paint32_linear_112_4022)"/>
<path d="M530.208 36.0559V70.9999H522.784L521.568 66.5199H520.992C520.266 67.7145 519.328 68.6959 518.176 69.4639C517.066 70.2319 515.829 70.7865 514.464 71.1279C513.141 71.4692 511.733 71.6399 510.24 71.6399C507.765 71.6399 505.589 71.1919 503.712 70.2959C501.877 69.3999 500.426 68.0132 499.36 66.1359C498.336 64.2585 497.824 61.8265 497.824 58.8399V36.0559H507.552V56.4079C507.552 58.8825 507.978 60.7599 508.832 62.0399C509.728 63.2772 511.136 63.8959 513.056 63.8959C515.018 63.8959 516.533 63.4692 517.6 62.6159C518.709 61.7199 519.477 60.4185 519.904 58.7119C520.33 57.0052 520.544 54.9145 520.544 52.4399V36.0559H530.208Z" fill="url(#paint33_linear_112_4022)"/>
<path d="M469.034 71.6399C465.194 71.6399 462.037 70.1252 459.562 67.0959C457.13 64.0239 455.914 59.5225 455.914 53.5919C455.914 47.5759 457.152 43.0532 459.626 40.0239C462.101 36.9519 465.344 35.4159 469.354 35.4159C471.018 35.4159 472.448 35.6505 473.642 36.1199C474.88 36.5465 475.946 37.1439 476.842 37.9119C477.738 38.6799 478.506 39.5545 479.146 40.5359H479.466C479.338 39.7679 479.21 38.7012 479.082 37.3359C478.997 35.9279 478.954 34.6479 478.954 33.4959V22.3599H488.682V70.9999H481.258L479.338 66.4559H478.954C478.357 67.4372 477.61 68.3119 476.714 69.0799C475.818 69.8479 474.73 70.4665 473.45 70.9359C472.213 71.4052 470.741 71.6399 469.034 71.6399ZM472.426 63.8959C475.072 63.8959 476.928 63.1492 477.994 61.6559C479.061 60.1199 479.594 57.7945 479.594 54.6799V53.6559C479.594 50.2852 479.082 47.7039 478.058 45.9119C477.034 44.1199 475.136 43.2239 472.362 43.2239C470.272 43.2239 468.629 44.1199 467.434 45.9119C466.282 47.7039 465.706 50.3065 465.706 53.7199C465.706 57.1332 466.282 59.6932 467.434 61.3999C468.629 63.0639 470.293 63.8959 472.426 63.8959Z" fill="url(#paint34_linear_112_4022)"/>
<path d="M434.882 35.4159C439.276 35.4159 442.626 36.4612 444.93 38.5519C447.234 40.5999 448.386 43.6505 448.386 47.7039V70.9999H441.666L439.81 66.2639H439.554C438.572 67.5012 437.548 68.5252 436.482 69.3359C435.458 70.1465 434.263 70.7225 432.898 71.0639C431.532 71.4479 429.868 71.6399 427.906 71.6399C425.858 71.6399 424.023 71.2559 422.402 70.4879C420.78 69.6772 419.5 68.4612 418.562 66.8399C417.623 65.2185 417.154 63.1705 417.154 60.6959C417.154 57.0265 418.476 54.2745 421.122 52.4399C423.767 50.6052 427.714 49.5812 432.962 49.3679L438.786 49.1759V48.0879C438.786 45.9972 438.316 44.5465 437.378 43.7359C436.439 42.8825 435.116 42.4559 433.41 42.4559C431.831 42.4559 430.21 42.7119 428.546 43.2239C426.882 43.7359 425.239 44.3545 423.618 45.0799L420.802 38.4879C422.636 37.5492 424.727 36.8025 427.074 36.2479C429.463 35.6932 432.066 35.4159 434.882 35.4159ZM435.138 54.9999C432.108 55.0852 429.996 55.5759 428.802 56.4719C427.607 57.3679 427.01 58.6265 427.01 60.2479C427.01 61.7412 427.415 62.8505 428.226 63.5759C429.079 64.2585 430.21 64.5999 431.618 64.5999C433.623 64.5999 435.308 64.0025 436.674 62.8079C438.082 61.6132 438.786 59.9065 438.786 57.6879V54.8079L435.138 54.9999Z" fill="url(#paint35_linear_112_4022)"/>
<path d="M411.219 35.4159C411.859 35.4159 412.541 35.4585 413.267 35.5439C414.035 35.5865 414.632 35.6719 415.059 35.7999L414.099 44.8239C413.629 44.7385 413.075 44.6532 412.435 44.5679C411.795 44.4825 411.027 44.4399 410.131 44.4399C409.149 44.4399 408.147 44.5892 407.123 44.8879C406.141 45.1865 405.224 45.6772 404.371 46.3599C403.517 47.0425 402.835 47.9385 402.323 49.0479C401.811 50.1572 401.555 51.5652 401.555 53.2719V70.9999H391.891V36.0559H399.251L400.659 41.9439H401.107C401.789 40.7065 402.643 39.5972 403.667 38.6159C404.691 37.6345 405.843 36.8665 407.123 36.3119C408.403 35.7145 409.768 35.4159 411.219 35.4159Z" fill="url(#paint36_linear_112_4022)"/>
<path d="M376.829 70.9999H367.037V33.4319H354.685V25.3039H389.181V33.4319H376.829V70.9999Z" fill="url(#paint37_linear_112_4022)"/>
<defs>
<filter id="filter0_f_112_4022" x="334.225" y="14.3599" width="729.161" height="104" filterUnits="userSpaceOnUse" color-interpolation-filters="sRGB">
<feFlood flood-opacity="0" result="BackgroundImageFix"/>
<feBlend mode="normal" in="SourceGraphic" in2="BackgroundImageFix" result="shape"/>
<feGaussianBlur stdDeviation="10" result="effect1_foregroundBlur_112_4022"/>
</filter>
<linearGradient id="paint0_linear_112_4022" x1="253" y1="64.0036" x2="1147" y2="64.0027" gradientUnits="userSpaceOnUse">
<stop stop-color="white" stop-opacity="0.3"/>
<stop offset="0.495" stop-color="#CBB0F8"/>
<stop offset="1" stop-color="white" stop-opacity="0.3"/>
</linearGradient>
<linearGradient id="paint1_linear_112_4022" x1="1125.42" y1="53.9429" x2="-16925.5" y2="53.978" gradientUnits="userSpaceOnUse">
<stop stop-color="#F4439F"/>
<stop offset="1" stop-color="#7C3AED"/>
</linearGradient>
<linearGradient id="paint2_linear_112_4022" x1="1862.35" y1="53.9429" x2="-13451.4" y2="53.9682" gradientUnits="userSpaceOnUse">
<stop stop-color="#F4439F"/>
<stop offset="1" stop-color="#7C3AED"/>
</linearGradient>
<linearGradient id="paint3_linear_112_4022" x1="2632.69" y1="65.7105" x2="-11963.2" y2="65.7417" gradientUnits="userSpaceOnUse">
<stop stop-color="#F4439F"/>
<stop offset="1" stop-color="#7C3AED"/>
</linearGradient>
<linearGradient id="paint4_linear_112_4022" x1="3510.11" y1="54.2951" x2="-11258.8" y2="54.3182" gradientUnits="userSpaceOnUse">
<stop stop-color="#F4439F"/>
<stop offset="1" stop-color="#7C3AED"/>
</linearGradient>
<linearGradient id="paint5_linear_112_4022" x1="4374.08" y1="53.9429" x2="-10453.5" y2="53.9666" gradientUnits="userSpaceOnUse">
<stop stop-color="#F4439F"/>
<stop offset="1" stop-color="#7C3AED"/>
</linearGradient>
<linearGradient id="paint6_linear_112_4022" x1="5161.73" y1="48.2845" x2="-9434.15" y2="48.3167" gradientUnits="userSpaceOnUse">
<stop stop-color="#F4439F"/>
<stop offset="1" stop-color="#7C3AED"/>
</linearGradient>
<linearGradient id="paint7_linear_112_4022" x1="6053.93" y1="53.9429" x2="-8773.63" y2="53.9666" gradientUnits="userSpaceOnUse">
<stop stop-color="#F4439F"/>
<stop offset="1" stop-color="#7C3AED"/>
</linearGradient>
<linearGradient id="paint8_linear_112_4022" x1="20619.1" y1="66.123" x2="-28871.5" y2="66.4773" gradientUnits="userSpaceOnUse">
<stop stop-color="#F4439F"/>
<stop offset="1" stop-color="#7C3AED"/>
</linearGradient>
<linearGradient id="paint9_linear_112_4022" x1="7632.3" y1="53.943" x2="-7195.26" y2="53.9666" gradientUnits="userSpaceOnUse">
<stop stop-color="#F4439F"/>
<stop offset="1" stop-color="#7C3AED"/>
</linearGradient>
<linearGradient id="paint10_linear_112_4022" x1="8369.04" y1="65.7105" x2="-6226.84" y2="65.7417" gradientUnits="userSpaceOnUse">
<stop stop-color="#F4439F"/>
<stop offset="1" stop-color="#7C3AED"/>
</linearGradient>
<linearGradient id="paint11_linear_112_4022" x1="9247.31" y1="53.943" x2="-4852.87" y2="53.9644" gradientUnits="userSpaceOnUse">
<stop stop-color="#F4439F"/>
<stop offset="1" stop-color="#7C3AED"/>
</linearGradient>
<linearGradient id="paint12_linear_112_4022" x1="10868" y1="65.5828" x2="-4445.74" y2="65.617" gradientUnits="userSpaceOnUse">
<stop stop-color="#F4439F"/>
<stop offset="1" stop-color="#7C3AED"/>
</linearGradient>
<linearGradient id="paint13_linear_112_4022" x1="12783.3" y1="48.2845" x2="-4162.46" y2="48.328" gradientUnits="userSpaceOnUse">
<stop stop-color="#F4439F"/>
<stop offset="1" stop-color="#7C3AED"/>
</linearGradient>
<linearGradient id="paint14_linear_112_4022" x1="12041.2" y1="53.144" x2="-2727.76" y2="53.1671" gradientUnits="userSpaceOnUse">
<stop stop-color="#F4439F"/>
<stop offset="1" stop-color="#7C3AED"/>
</linearGradient>
<linearGradient id="paint15_linear_112_4022" x1="12785.7" y1="65.7105" x2="-1810.22" y2="65.7417" gradientUnits="userSpaceOnUse">
<stop stop-color="#F4439F"/>
<stop offset="1" stop-color="#7C3AED"/>
</linearGradient>
<linearGradient id="paint16_linear_112_4022" x1="14252.3" y1="53.943" x2="-1061.38" y2="53.9682" gradientUnits="userSpaceOnUse">
<stop stop-color="#F4439F"/>
<stop offset="1" stop-color="#7C3AED"/>
</linearGradient>
<linearGradient id="paint17_linear_112_4022" x1="19841.3" y1="54.2952" x2="-802.63" y2="54.3403" gradientUnits="userSpaceOnUse">
<stop stop-color="#F4439F"/>
<stop offset="1" stop-color="#7C3AED"/>
</linearGradient>
<linearGradient id="paint18_linear_112_4022" x1="1046.54" y1="58.4997" x2="352.54" y2="58.4998" gradientUnits="userSpaceOnUse">
<stop stop-color="#F4439F"/>
<stop offset="1" stop-color="#7C3AED"/>
</linearGradient>
<linearGradient id="paint19_linear_112_4022" x1="700" y1="72" x2="700" y2="117" gradientUnits="userSpaceOnUse">
<stop offset="0.0001" stop-color="white" stop-opacity="0.1"/>
<stop offset="1" stop-color="white" stop-opacity="0"/>
</linearGradient>
<linearGradient id="paint20_linear_112_4022" x1="1125.88" y1="-34.9122" x2="858.903" y2="2203.96" gradientUnits="userSpaceOnUse">
<stop stop-color="#F4439F"/>
<stop offset="1" stop-color="#7C3AED"/>
</linearGradient>
<linearGradient id="paint21_linear_112_4022" x1="1862.81" y1="-34.9122" x2="1549.82" y2="2191.8" gradientUnits="userSpaceOnUse">
<stop stop-color="#F4439F"/>
<stop offset="1" stop-color="#7C3AED"/>
</linearGradient>
<linearGradient id="paint22_linear_112_4022" x1="2633.15" y1="-2.78298" x2="2454.32" y2="1646.95" gradientUnits="userSpaceOnUse">
<stop stop-color="#F4439F"/>
<stop offset="1" stop-color="#7C3AED"/>
</linearGradient>
<linearGradient id="paint23_linear_112_4022" x1="3510.57" y1="-35.9423" x2="3175.01" y2="2225.82" gradientUnits="userSpaceOnUse">
<stop stop-color="#F4439F"/>
<stop offset="1" stop-color="#7C3AED"/>
</linearGradient>
<linearGradient id="paint24_linear_112_4022" x1="4374.54" y1="-34.9122" x2="4051.72" y2="2188.93" gradientUnits="userSpaceOnUse">
<stop stop-color="#F4439F"/>
<stop offset="1" stop-color="#7C3AED"/>
</linearGradient>
<linearGradient id="paint25_linear_112_4022" x1="5162.19" y1="-18.3637" x2="4994.73" y2="1578.67" gradientUnits="userSpaceOnUse">
<stop stop-color="#F4439F"/>
<stop offset="1" stop-color="#7C3AED"/>
</linearGradient>
<linearGradient id="paint26_linear_112_4022" x1="6054.39" y1="-34.9122" x2="5731.56" y2="2188.93" gradientUnits="userSpaceOnUse">
<stop stop-color="#F4439F"/>
<stop offset="1" stop-color="#7C3AED"/>
</linearGradient>
<linearGradient id="paint27_linear_112_4022" x1="20619.6" y1="-3.11383" x2="20564.9" y2="1686.19" gradientUnits="userSpaceOnUse">
<stop stop-color="#F4439F"/>
<stop offset="1" stop-color="#7C3AED"/>
</linearGradient>
<linearGradient id="paint28_linear_112_4022" x1="7632.76" y1="-34.9122" x2="7309.93" y2="2188.93" gradientUnits="userSpaceOnUse">
<stop stop-color="#F4439F"/>
<stop offset="1" stop-color="#7C3AED"/>
</linearGradient>
<linearGradient id="paint29_linear_112_4022" x1="8369.5" y1="-2.78298" x2="8190.67" y2="1646.95" gradientUnits="userSpaceOnUse">
<stop stop-color="#F4439F"/>
<stop offset="1" stop-color="#7C3AED"/>
</linearGradient>
<linearGradient id="paint30_linear_112_4022" x1="9247.76" y1="-34.9122" x2="8909.02" y2="2184.08" gradientUnits="userSpaceOnUse">
<stop stop-color="#F4439F"/>
<stop offset="1" stop-color="#7C3AED"/>
</linearGradient>
<linearGradient id="paint31_linear_112_4022" x1="10868.4" y1="-3.13166" x2="10696.5" y2="1654.68" gradientUnits="userSpaceOnUse">
<stop stop-color="#F4439F"/>
<stop offset="1" stop-color="#7C3AED"/>
</linearGradient>
<linearGradient id="paint32_linear_112_4022" x1="12783.8" y1="-18.3637" x2="12639.1" y2="1583.17" gradientUnits="userSpaceOnUse">
<stop stop-color="#F4439F"/>
<stop offset="1" stop-color="#7C3AED"/>
</linearGradient>
<linearGradient id="paint33_linear_112_4022" x1="12041.7" y1="-37.0934" x2="11706.1" y2="2224.67" gradientUnits="userSpaceOnUse">
<stop stop-color="#F4439F"/>
<stop offset="1" stop-color="#7C3AED"/>
</linearGradient>
<linearGradient id="paint34_linear_112_4022" x1="12786.1" y1="-2.78299" x2="12607.3" y2="1646.95" gradientUnits="userSpaceOnUse">
<stop stop-color="#F4439F"/>
<stop offset="1" stop-color="#7C3AED"/>
</linearGradient>
<linearGradient id="paint35_linear_112_4022" x1="14252.8" y1="-34.9122" x2="13939.8" y2="2191.8" gradientUnits="userSpaceOnUse">
<stop stop-color="#F4439F"/>
<stop offset="1" stop-color="#7C3AED"/>
</linearGradient>
<linearGradient id="paint36_linear_112_4022" x1="19841.7" y1="-35.9423" x2="19599.1" y2="2249.85" gradientUnits="userSpaceOnUse">
<stop stop-color="#F4439F"/>
<stop offset="1" stop-color="#7C3AED"/>
</linearGradient>
<linearGradient id="paint37_linear_112_4022" x1="1047" y1="2.9997" x2="494.245" y2="317.875" gradientUnits="userSpaceOnUse">
<stop stop-color="#F4439F"/>
<stop offset="1" stop-color="#7C3AED"/>
</linearGradient>
</defs>
</svg>
