<svg width="1400" height="120" viewBox="0 0 1400 120" fill="none" xmlns="http://www.w3.org/2000/svg">
<path d="M297 56H1104V72H297V56Z" fill="url(#paint0_linear_112_4078)"/>
<mask id="mask0_112_4078" style="mask-type:alpha" maskUnits="userSpaceOnUse" x="297" y="72" width="807" height="45">
<path d="M297 72H1104V117H297V72Z" fill="#C4C4C4"/>
</mask>
<g mask="url(#mask0_112_4078)">
<g filter="url(#filter0_f_112_4078)">
<path d="M1001.94 72.6959C1001.94 74.9145 1001.41 76.8559 1000.34 78.5199C999.316 80.1412 997.737 81.3999 995.604 82.2959C993.471 83.1919 990.761 83.6399 987.476 83.6399C985.001 83.6399 982.825 83.4692 980.948 83.1279C979.071 82.8292 977.257 82.3172 975.508 81.5919V73.5919C977.385 74.4879 979.412 75.1919 981.588 75.7039C983.764 76.2159 985.641 76.4719 987.22 76.4719C989.183 76.4719 990.591 76.1945 991.444 75.6399C992.34 75.0852 992.788 74.3385 992.788 73.3999C992.788 72.7599 992.553 72.1839 992.084 71.6719C991.657 71.1599 990.868 70.6265 989.716 70.0719C988.607 69.5172 987.007 68.8345 984.916 68.0239C982.825 67.1705 981.076 66.2959 979.668 65.3999C978.26 64.4612 977.193 63.3519 976.468 62.0719C975.785 60.7919 975.444 59.1919 975.444 57.2719C975.444 54.0719 976.703 51.6399 979.22 49.9759C981.78 48.2692 985.151 47.4159 989.332 47.4159C991.593 47.4159 993.684 47.6505 995.604 48.1199C997.567 48.5892 999.551 49.2505 1001.56 50.1039L998.74 56.6959C997.119 55.9705 995.455 55.3732 993.748 54.9039C992.041 54.4345 990.527 54.1999 989.204 54.1999C987.753 54.1999 986.623 54.4345 985.812 54.9039C985.001 55.3305 984.596 55.9492 984.596 56.7599C984.596 57.3572 984.809 57.8905 985.236 58.3599C985.705 58.8292 986.495 59.3199 987.604 59.8319C988.756 60.3439 990.356 61.0052 992.404 61.8159C994.495 62.6265 996.244 63.5012 997.652 64.4399C999.103 65.3359 1000.17 66.4452 1000.85 67.7679C1001.58 69.0479 1001.94 70.6905 1001.94 72.6959Z" fill="url(#paint1_linear_112_4078)" fill-opacity="0.7"/>
<path d="M969.428 65.4639C969.428 68.3652 969.023 70.9465 968.212 73.2079C967.444 75.4692 966.313 77.3679 964.82 78.9039C963.369 80.4399 961.599 81.6132 959.508 82.4239C957.417 83.2345 955.049 83.6399 952.404 83.6399C949.929 83.6399 947.668 83.2345 945.62 82.4239C943.572 81.6132 941.801 80.4399 940.308 78.9039C938.815 77.3679 937.641 75.4692 936.788 73.2079C935.935 70.9465 935.508 68.3652 935.508 65.4639C935.508 61.5812 936.191 58.2959 937.556 55.6079C938.921 52.9199 940.884 50.8932 943.444 49.5279C946.004 48.1199 949.055 47.4159 952.596 47.4159C955.881 47.4159 958.783 48.1199 961.3 49.5279C963.817 50.8932 965.801 52.9199 967.252 55.6079C968.703 58.2959 969.428 61.5812 969.428 65.4639ZM945.364 65.4639C945.364 67.7252 945.599 69.6665 946.068 71.2879C946.58 72.9092 947.348 74.1465 948.372 74.9999C949.439 75.8532 950.825 76.2799 952.532 76.2799C954.196 76.2799 955.54 75.8532 956.564 74.9999C957.631 74.1465 958.399 72.9092 958.868 71.2879C959.337 69.6665 959.572 67.7252 959.572 65.4639C959.572 63.1599 959.316 61.2185 958.804 59.6399C958.335 58.0612 957.588 56.8665 956.564 56.0559C955.54 55.2025 954.175 54.7759 952.468 54.7759C949.993 54.7759 948.18 55.6932 947.028 57.5279C945.919 59.3625 945.364 62.0079 945.364 65.4639Z" fill="url(#paint2_linear_112_4078)" fill-opacity="0.7"/>
<path d="M924.462 76.0239C925.529 76.0239 926.553 75.9172 927.534 75.7039C928.515 75.4905 929.497 75.2345 930.478 74.9359V82.0399C929.454 82.4665 928.174 82.8292 926.638 83.1279C925.145 83.4692 923.502 83.6399 921.71 83.6399C919.619 83.6399 917.742 83.2985 916.078 82.6159C914.457 81.9332 913.155 80.7599 912.174 79.0959C911.235 77.3892 910.766 75.0425 910.766 72.0559V55.2239H906.222V51.1919L911.47 47.9919L914.222 40.6319H920.302V48.0559H930.094V55.2239H920.302V72.0559C920.302 73.3785 920.686 74.3812 921.454 75.0639C922.222 75.7039 923.225 76.0239 924.462 76.0239Z" fill="url(#paint3_linear_112_4078)" fill-opacity="0.7"/>
<path d="M879.91 65.1439L868.646 48.0559H879.462L886.246 59.1919L893.094 48.0559H903.91L892.518 65.1439L904.422 82.9999H893.606L886.246 71.0319L878.886 82.9999H868.07L879.91 65.1439Z" fill="url(#paint4_linear_112_4078)" fill-opacity="0.7"/>
<path d="M850.397 47.4159C853.639 47.4159 856.434 48.0345 858.781 49.2719C861.127 50.4665 862.919 52.2585 864.157 54.6479C865.437 56.9945 866.077 59.8745 866.077 63.2879V67.9599H843.613C843.698 70.6052 844.509 72.6959 846.045 74.2319C847.581 75.7252 849.778 76.4719 852.637 76.4719C854.813 76.4719 856.797 76.2585 858.589 75.8319C860.381 75.4052 862.215 74.7652 864.093 73.9119V81.1439C862.386 81.9972 860.573 82.6159 858.653 82.9999C856.775 83.4265 854.429 83.6399 851.613 83.6399C848.157 83.6399 845.085 82.9999 842.397 81.7199C839.751 80.4399 837.661 78.4772 836.125 75.8319C834.589 73.1439 833.821 69.7945 833.821 65.7839C833.821 61.6879 834.503 58.2959 835.869 55.6079C837.277 52.8772 839.218 50.8292 841.693 49.4639C844.21 48.0985 847.111 47.4159 850.397 47.4159ZM850.653 54.2639C848.733 54.2639 847.175 54.8825 845.981 56.1199C844.786 57.3145 844.082 59.1065 843.869 61.4959H857.053C857.053 60.0879 856.818 58.8505 856.349 57.7839C855.879 56.7172 855.154 55.8639 854.173 55.2239C853.234 54.5839 852.061 54.2639 850.653 54.2639Z" fill="url(#paint5_linear_112_4078)" fill-opacity="0.7"/>
<path d="M822.775 76.0239C823.841 76.0239 824.865 75.9172 825.847 75.7039C826.828 75.4905 827.809 75.2345 828.791 74.9359V82.0399C827.767 82.4665 826.487 82.8292 824.951 83.1279C823.457 83.4692 821.815 83.6399 820.023 83.6399C817.932 83.6399 816.055 83.2985 814.391 82.6159C812.769 81.9332 811.468 80.7599 810.487 79.0959C809.548 77.3892 809.079 75.0425 809.079 72.0559V55.2239H804.535V51.1919L809.783 47.9919L812.535 40.6319H818.615V48.0559H828.407V55.2239H818.615V72.0559C818.615 73.3785 818.999 74.3812 819.767 75.0639C820.535 75.7039 821.537 76.0239 822.775 76.0239Z" fill="url(#paint6_linear_112_4078)" fill-opacity="0.7"/>
<path d="M767.834 47.4159C771.077 47.4159 773.871 48.0345 776.218 49.2719C778.565 50.4665 780.357 52.2585 781.594 54.6479C782.874 56.9945 783.514 59.8745 783.514 63.2879V67.9599H761.05C761.135 70.6052 761.946 72.6959 763.482 74.2319C765.018 75.7252 767.215 76.4719 770.074 76.4719C772.25 76.4719 774.234 76.2585 776.026 75.8319C777.818 75.4052 779.653 74.7652 781.53 73.9119V81.1439C779.823 81.9972 778.01 82.6159 776.09 82.9999C774.213 83.4265 771.866 83.6399 769.05 83.6399C765.594 83.6399 762.522 82.9999 759.834 81.7199C757.189 80.4399 755.098 78.4772 753.562 75.8319C752.026 73.1439 751.258 69.7945 751.258 65.7839C751.258 61.6879 751.941 58.2959 753.306 55.6079C754.714 52.8772 756.655 50.8292 759.13 49.4639C761.647 48.0985 764.549 47.4159 767.834 47.4159ZM768.09 54.2639C766.17 54.2639 764.613 54.8825 763.418 56.1199C762.223 57.3145 761.519 59.1065 761.306 61.4959H774.49C774.49 60.0879 774.255 58.8505 773.786 57.7839C773.317 56.7172 772.591 55.8639 771.61 55.2239C770.671 54.5839 769.498 54.2639 768.09 54.2639Z" fill="url(#paint7_linear_112_4078)" fill-opacity="0.7"/>
<path d="M723.941 83.6399C720.101 83.6399 716.943 82.1252 714.469 79.0959C712.037 76.0239 710.821 71.5225 710.821 65.5919C710.821 59.5759 712.058 55.0532 714.533 52.0239C717.007 48.9519 720.25 47.4159 724.261 47.4159C725.925 47.4159 727.354 47.6505 728.549 48.1199C729.786 48.5465 730.853 49.1439 731.749 49.9119C732.645 50.6799 733.413 51.5545 734.053 52.5359H734.373C734.245 51.7679 734.117 50.7012 733.989 49.3359C733.903 47.9279 733.861 46.6479 733.861 45.4959V34.3599H743.589V82.9999H736.165L734.245 78.4559H733.861C733.263 79.4372 732.517 80.3119 731.621 81.0799C730.725 81.8479 729.637 82.4665 728.357 82.9359C727.119 83.4052 725.647 83.6399 723.941 83.6399ZM727.333 75.8959C729.978 75.8959 731.834 75.1492 732.901 73.6559C733.967 72.1199 734.501 69.7945 734.501 66.6799V65.6559C734.501 62.2852 733.989 59.7039 732.965 57.9119C731.941 56.1199 730.042 55.2239 727.269 55.2239C725.178 55.2239 723.535 56.1199 722.341 57.9119C721.189 59.7039 720.613 62.3065 720.613 65.7199C720.613 69.1332 721.189 71.6932 722.341 73.3999C723.535 75.0639 725.199 75.8959 727.333 75.8959Z" fill="url(#paint8_linear_112_4078)" fill-opacity="0.7"/>
<path d="M688.116 65.4639C688.116 68.3652 687.71 70.9465 686.9 73.2079C686.132 75.4692 685.001 77.3679 683.508 78.9039C682.057 80.4399 680.286 81.6132 678.196 82.4239C676.105 83.2345 673.737 83.6399 671.092 83.6399C668.617 83.6399 666.356 83.2345 664.308 82.4239C662.26 81.6132 660.489 80.4399 658.996 78.9039C657.502 77.3679 656.329 75.4692 655.476 73.2079C654.622 70.9465 654.196 68.3652 654.196 65.4639C654.196 61.5812 654.878 58.2959 656.244 55.6079C657.609 52.9199 659.572 50.8932 662.132 49.5279C664.692 48.1199 667.742 47.4159 671.284 47.4159C674.569 47.4159 677.47 48.1199 679.988 49.5279C682.505 50.8932 684.489 52.9199 685.94 55.6079C687.39 58.2959 688.116 61.5812 688.116 65.4639ZM664.052 65.4639C664.052 67.7252 664.286 69.6665 664.756 71.2879C665.268 72.9092 666.036 74.1465 667.06 74.9999C668.126 75.8532 669.513 76.2799 671.22 76.2799C672.884 76.2799 674.228 75.8532 675.252 74.9999C676.318 74.1465 677.086 72.9092 677.556 71.2879C678.025 69.6665 678.26 67.7252 678.26 65.4639C678.26 63.1599 678.004 61.2185 677.492 59.6399C677.022 58.0612 676.276 56.8665 675.252 56.0559C674.228 55.2025 672.862 54.7759 671.156 54.7759C668.681 54.7759 666.868 55.6932 665.716 57.5279C664.606 59.3625 664.052 62.0079 664.052 65.4639Z" fill="url(#paint9_linear_112_4078)" fill-opacity="0.7"/>
<path d="M633.163 47.4159C637.558 47.4159 640.907 48.4612 643.211 50.5519C645.515 52.5999 646.667 55.6505 646.667 59.7039V82.9999H639.947L638.091 78.2639H637.835C636.854 79.5012 635.83 80.5252 634.763 81.3359C633.739 82.1465 632.544 82.7225 631.179 83.0639C629.814 83.4479 628.15 83.6399 626.187 83.6399C624.139 83.6399 622.304 83.2559 620.683 82.4879C619.062 81.6772 617.782 80.4612 616.843 78.8399C615.904 77.2185 615.435 75.1705 615.435 72.6959C615.435 69.0265 616.758 66.2745 619.403 64.4399C622.048 62.6052 625.995 61.5812 631.243 61.3679L637.067 61.1759V60.0879C637.067 57.9972 636.598 56.5465 635.659 55.7359C634.72 54.8825 633.398 54.4559 631.691 54.4559C630.112 54.4559 628.491 54.7119 626.827 55.2239C625.163 55.7359 623.52 56.3545 621.899 57.0799L619.083 50.4879C620.918 49.5492 623.008 48.8025 625.355 48.2479C627.744 47.6932 630.347 47.4159 633.163 47.4159ZM633.419 66.9999C630.39 67.0852 628.278 67.5759 627.083 68.4719C625.888 69.3679 625.291 70.6265 625.291 72.2479C625.291 73.7412 625.696 74.8505 626.507 75.5759C627.36 76.2585 628.491 76.5999 629.899 76.5999C631.904 76.5999 633.59 76.0025 634.955 74.8079C636.363 73.6132 637.067 71.9065 637.067 69.6879V66.8079L633.419 66.9999ZM619.467 44.2799C619.595 42.6159 619.894 41.1865 620.363 39.9919C620.875 38.7545 621.515 37.7519 622.283 36.9839C623.051 36.1732 623.904 35.5759 624.843 35.1919C625.824 34.8079 626.87 34.6159 627.979 34.6159C628.832 34.6159 629.664 34.7865 630.475 35.1279C631.328 35.4265 632.139 35.8105 632.907 36.2799C633.718 36.7065 634.507 37.0905 635.275 37.4319C636.043 37.7305 636.811 37.8799 637.579 37.8799C638.219 37.8799 638.838 37.6025 639.435 37.0479C640.032 36.4932 640.459 35.6612 640.715 34.5519H645.387C645.131 37.8372 644.192 40.2692 642.571 41.8479C640.95 43.4265 639.051 44.2159 636.875 44.2159C636.022 44.2159 635.19 44.0665 634.379 43.7679C633.568 43.4265 632.758 43.0425 631.947 42.6159C631.136 42.1465 630.347 41.7625 629.579 41.4639C628.811 41.1225 628.043 40.9519 627.275 40.9519C626.635 40.9519 626.016 41.2292 625.419 41.7839C624.822 42.3385 624.395 43.1705 624.139 44.2799H619.467Z" fill="url(#paint10_linear_112_4078)" fill-opacity="0.7"/>
<path d="M599.779 83.6399C596.408 83.6399 593.443 83.0212 590.883 81.7839C588.366 80.5039 586.403 78.5412 584.995 75.8959C583.587 73.2079 582.883 69.8159 582.883 65.7199C582.883 61.4105 583.651 57.9119 585.187 55.2239C586.723 52.5359 588.814 50.5732 591.459 49.3359C594.104 48.0559 597.112 47.4159 600.483 47.4159C602.531 47.4159 604.451 47.6292 606.243 48.0559C608.078 48.4825 609.699 49.0585 611.107 49.7839L608.227 57.0799C606.947 56.5252 605.646 56.0772 604.323 55.7359C603.043 55.3519 601.763 55.1599 600.483 55.1599C598.819 55.1599 597.411 55.5439 596.259 56.3119C595.107 57.0799 594.232 58.2532 593.635 59.8319C593.038 61.3679 592.739 63.3092 592.739 65.6559C592.739 67.9599 593.038 69.8585 593.635 71.3519C594.232 72.8452 595.107 73.9759 596.259 74.7439C597.411 75.4692 598.776 75.8319 600.355 75.8319C602.19 75.8319 603.918 75.5972 605.539 75.1279C607.16 74.6159 608.696 73.9545 610.147 73.1439V81.0159C608.824 81.8265 607.331 82.4665 605.667 82.9359C604.003 83.4052 602.04 83.6399 599.779 83.6399ZM606.243 91.2559C606.243 93.4319 605.454 95.1599 603.875 96.4399C602.296 97.7199 600.099 98.3599 597.283 98.3599C596.174 98.3599 595.128 98.2745 594.147 98.1039C593.208 97.9759 592.44 97.8052 591.843 97.5919V92.5359C592.44 92.7065 593.059 92.8345 593.699 92.9199C594.382 93.0479 595.043 93.1119 595.683 93.1119C596.792 93.1119 597.624 92.9199 598.179 92.5359C598.776 92.1945 599.075 91.6399 599.075 90.8719C599.075 90.0185 598.648 89.3572 597.795 88.8879C596.942 88.4185 595.704 88.0559 594.083 87.7999L596.323 82.9999H601.443L600.483 85.4959C601.379 85.6665 602.275 85.9652 603.171 86.3919C604.067 86.8612 604.792 87.4799 605.347 88.2479C605.944 89.0159 606.243 90.0185 606.243 91.2559Z" fill="url(#paint11_linear_112_4078)" fill-opacity="0.7"/>
<path d="M575.114 48.0559V82.9999H567.69L566.474 78.5199H565.898C565.173 79.7145 564.234 80.6959 563.082 81.4639C561.973 82.2319 560.735 82.7865 559.37 83.1279C558.047 83.4692 556.639 83.6399 555.146 83.6399C552.671 83.6399 550.495 83.1919 548.618 82.2959C546.783 81.3999 545.333 80.0132 544.266 78.1359C543.242 76.2585 542.73 73.8265 542.73 70.8399V48.0559H552.458V68.4079C552.458 70.8825 552.885 72.7599 553.738 74.0399C554.634 75.2772 556.042 75.8959 557.962 75.8959C559.925 75.8959 561.439 75.4692 562.506 74.6159C563.615 73.7199 564.383 72.4185 564.81 70.7119C565.237 69.0052 565.45 66.9145 565.45 64.4399V48.0559H575.114Z" fill="url(#paint12_linear_112_4078)" fill-opacity="0.7"/>
<path d="M513.941 83.6399C510.101 83.6399 506.943 82.1252 504.469 79.0959C502.037 76.0239 500.821 71.5225 500.821 65.5919C500.821 59.5759 502.058 55.0532 504.533 52.0239C507.007 48.9519 510.25 47.4159 514.261 47.4159C515.925 47.4159 517.354 47.6505 518.549 48.1199C519.786 48.5465 520.853 49.1439 521.749 49.9119C522.645 50.6799 523.413 51.5545 524.053 52.5359H524.373C524.245 51.7679 524.117 50.7012 523.989 49.3359C523.903 47.9279 523.861 46.6479 523.861 45.4959V34.3599H533.589V82.9999H526.165L524.245 78.4559H523.861C523.263 79.4372 522.517 80.3119 521.621 81.0799C520.725 81.8479 519.637 82.4665 518.357 82.9359C517.119 83.4052 515.647 83.6399 513.941 83.6399ZM517.333 75.8959C519.978 75.8959 521.834 75.1492 522.901 73.6559C523.967 72.1199 524.501 69.7945 524.501 66.6799V65.6559C524.501 62.2852 523.989 59.7039 522.965 57.9119C521.941 56.1199 520.042 55.2239 517.269 55.2239C515.178 55.2239 513.535 56.1199 512.341 57.9119C511.189 59.7039 510.613 62.3065 510.613 65.7199C510.613 69.1332 511.189 71.6932 512.341 73.3999C513.535 75.0639 515.199 75.8959 517.333 75.8959Z" fill="url(#paint13_linear_112_4078)" fill-opacity="0.7"/>
<path d="M479.788 47.4159C484.183 47.4159 487.532 48.4612 489.836 50.5519C492.14 52.5999 493.292 55.6505 493.292 59.7039V82.9999H486.572L484.716 78.2639H484.46C483.479 79.5012 482.455 80.5252 481.388 81.3359C480.364 82.1465 479.169 82.7225 477.804 83.0639C476.439 83.4479 474.775 83.6399 472.812 83.6399C470.764 83.6399 468.929 83.2559 467.308 82.4879C465.687 81.6772 464.407 80.4612 463.468 78.8399C462.529 77.2185 462.06 75.1705 462.06 72.6959C462.06 69.0265 463.383 66.2745 466.028 64.4399C468.673 62.6052 472.62 61.5812 477.868 61.3679L483.692 61.1759V60.0879C483.692 57.9972 483.223 56.5465 482.284 55.7359C481.345 54.8825 480.023 54.4559 478.316 54.4559C476.737 54.4559 475.116 54.7119 473.452 55.2239C471.788 55.7359 470.145 56.3545 468.524 57.0799L465.708 50.4879C467.543 49.5492 469.633 48.8025 471.98 48.2479C474.369 47.6932 476.972 47.4159 479.788 47.4159ZM480.044 66.9999C477.015 67.0852 474.903 67.5759 473.708 68.4719C472.513 69.3679 471.916 70.6265 471.916 72.2479C471.916 73.7412 472.321 74.8505 473.132 75.5759C473.985 76.2585 475.116 76.5999 476.524 76.5999C478.529 76.5999 480.215 76.0025 481.58 74.8079C482.988 73.6132 483.692 71.9065 483.692 69.6879V66.8079L480.044 66.9999Z" fill="url(#paint14_linear_112_4078)" fill-opacity="0.7"/>
<path d="M456.125 47.4159C456.765 47.4159 457.448 47.4585 458.173 47.5439C458.941 47.5865 459.538 47.6719 459.965 47.7999L459.005 56.8239C458.536 56.7385 457.981 56.6532 457.341 56.5679C456.701 56.4825 455.933 56.4399 455.037 56.4399C454.056 56.4399 453.053 56.5892 452.029 56.8879C451.048 57.1865 450.13 57.6772 449.277 58.3599C448.424 59.0425 447.741 59.9385 447.229 61.0479C446.717 62.1572 446.461 63.5652 446.461 65.2719V82.9999H436.797V48.0559H444.157L445.565 53.9439H446.013C446.696 52.7065 447.549 51.5972 448.573 50.6159C449.597 49.6345 450.749 48.8665 452.029 48.3119C453.309 47.7145 454.674 47.4159 456.125 47.4159Z" fill="url(#paint15_linear_112_4078)" fill-opacity="0.7"/>
<path d="M421.735 82.9999H411.943V45.4319H399.591V37.3039H434.087V45.4319H421.735V82.9999Z" fill="url(#paint16_linear_112_4078)" fill-opacity="0.7"/>
</g>
</g>
<path d="M297 72H1104V105C1104 111.627 1098.63 117 1092 117H309C302.373 117 297 111.627 297 105V72Z" fill="url(#paint17_linear_112_4078)"/>
<path d="M1000.94 60.6959C1000.94 62.9145 1000.41 64.8559 999.34 66.5199C998.316 68.1412 996.737 69.3999 994.604 70.2959C992.471 71.1919 989.761 71.6399 986.476 71.6399C984.001 71.6399 981.825 71.4692 979.948 71.1279C978.071 70.8292 976.257 70.3172 974.508 69.5919V61.5919C976.385 62.4879 978.412 63.1919 980.588 63.7039C982.764 64.2159 984.641 64.4719 986.22 64.4719C988.183 64.4719 989.591 64.1945 990.444 63.6399C991.34 63.0852 991.788 62.3385 991.788 61.3999C991.788 60.7599 991.553 60.1839 991.084 59.6719C990.657 59.1599 989.868 58.6265 988.716 58.0719C987.607 57.5172 986.007 56.8345 983.916 56.0239C981.825 55.1705 980.076 54.2959 978.668 53.3999C977.26 52.4612 976.193 51.3519 975.468 50.0719C974.785 48.7919 974.444 47.1919 974.444 45.2719C974.444 42.0719 975.703 39.6399 978.22 37.9759C980.78 36.2692 984.151 35.4159 988.332 35.4159C990.593 35.4159 992.684 35.6505 994.604 36.1199C996.567 36.5892 998.551 37.2505 1000.56 38.1039L997.74 44.6959C996.119 43.9705 994.455 43.3732 992.748 42.9039C991.041 42.4345 989.527 42.1999 988.204 42.1999C986.753 42.1999 985.623 42.4345 984.812 42.9039C984.001 43.3305 983.596 43.9492 983.596 44.7599C983.596 45.3572 983.809 45.8905 984.236 46.3599C984.705 46.8292 985.495 47.3199 986.604 47.8319C987.756 48.3439 989.356 49.0052 991.404 49.8159C993.495 50.6265 995.244 51.5012 996.652 52.4399C998.103 53.3359 999.169 54.4452 999.852 55.7679C1000.58 57.0479 1000.94 58.6905 1000.94 60.6959Z" fill="url(#paint18_linear_112_4078)"/>
<path d="M968.428 53.4639C968.428 56.3652 968.023 58.9465 967.212 61.2079C966.444 63.4692 965.313 65.3679 963.82 66.9039C962.369 68.4399 960.599 69.6132 958.508 70.4239C956.417 71.2345 954.049 71.6399 951.404 71.6399C948.929 71.6399 946.668 71.2345 944.62 70.4239C942.572 69.6132 940.801 68.4399 939.308 66.9039C937.815 65.3679 936.641 63.4692 935.788 61.2079C934.935 58.9465 934.508 56.3652 934.508 53.4639C934.508 49.5812 935.191 46.2959 936.556 43.6079C937.921 40.9199 939.884 38.8932 942.444 37.5279C945.004 36.1199 948.055 35.4159 951.596 35.4159C954.881 35.4159 957.783 36.1199 960.3 37.5279C962.817 38.8932 964.801 40.9199 966.252 43.6079C967.703 46.2959 968.428 49.5812 968.428 53.4639ZM944.364 53.4639C944.364 55.7252 944.599 57.6665 945.068 59.2879C945.58 60.9092 946.348 62.1465 947.372 62.9999C948.439 63.8532 949.825 64.2799 951.532 64.2799C953.196 64.2799 954.54 63.8532 955.564 62.9999C956.631 62.1465 957.399 60.9092 957.868 59.2879C958.337 57.6665 958.572 55.7252 958.572 53.4639C958.572 51.1599 958.316 49.2185 957.804 47.6399C957.335 46.0612 956.588 44.8665 955.564 44.0559C954.54 43.2025 953.175 42.7759 951.468 42.7759C948.993 42.7759 947.18 43.6932 946.028 45.5279C944.919 47.3625 944.364 50.0079 944.364 53.4639Z" fill="url(#paint19_linear_112_4078)"/>
<path d="M923.462 64.0239C924.529 64.0239 925.553 63.9172 926.534 63.7039C927.515 63.4905 928.497 63.2345 929.478 62.9359V70.0399C928.454 70.4665 927.174 70.8292 925.638 71.1279C924.145 71.4692 922.502 71.6399 920.71 71.6399C918.619 71.6399 916.742 71.2985 915.078 70.6159C913.457 69.9332 912.155 68.7599 911.174 67.0959C910.235 65.3892 909.766 63.0425 909.766 60.0559V43.2239H905.222V39.1919L910.47 35.9919L913.222 28.6319H919.302V36.0559H929.094V43.2239H919.302V60.0559C919.302 61.3785 919.686 62.3812 920.454 63.0639C921.222 63.7039 922.225 64.0239 923.462 64.0239Z" fill="url(#paint20_linear_112_4078)"/>
<path d="M878.91 53.1439L867.646 36.0559H878.462L885.246 47.1919L892.094 36.0559H902.91L891.518 53.1439L903.422 70.9999H892.606L885.246 59.0319L877.886 70.9999H867.07L878.91 53.1439Z" fill="url(#paint21_linear_112_4078)"/>
<path d="M849.397 35.4159C852.639 35.4159 855.434 36.0345 857.781 37.2719C860.127 38.4665 861.919 40.2585 863.157 42.6479C864.437 44.9945 865.077 47.8745 865.077 51.2879V55.9599H842.613C842.698 58.6052 843.509 60.6959 845.045 62.2319C846.581 63.7252 848.778 64.4719 851.637 64.4719C853.813 64.4719 855.797 64.2585 857.589 63.8319C859.381 63.4052 861.215 62.7652 863.093 61.9119V69.1439C861.386 69.9972 859.573 70.6159 857.653 70.9999C855.775 71.4265 853.429 71.6399 850.613 71.6399C847.157 71.6399 844.085 70.9999 841.397 69.7199C838.751 68.4399 836.661 66.4772 835.125 63.8319C833.589 61.1439 832.821 57.7945 832.821 53.7839C832.821 49.6879 833.503 46.2959 834.869 43.6079C836.277 40.8772 838.218 38.8292 840.693 37.4639C843.21 36.0985 846.111 35.4159 849.397 35.4159ZM849.653 42.2639C847.733 42.2639 846.175 42.8825 844.981 44.1199C843.786 45.3145 843.082 47.1065 842.869 49.4959H856.053C856.053 48.0879 855.818 46.8505 855.349 45.7839C854.879 44.7172 854.154 43.8639 853.173 43.2239C852.234 42.5839 851.061 42.2639 849.653 42.2639Z" fill="url(#paint22_linear_112_4078)"/>
<path d="M821.775 64.0239C822.841 64.0239 823.865 63.9172 824.847 63.7039C825.828 63.4905 826.809 63.2345 827.791 62.9359V70.0399C826.767 70.4665 825.487 70.8292 823.951 71.1279C822.457 71.4692 820.815 71.6399 819.023 71.6399C816.932 71.6399 815.055 71.2985 813.391 70.6159C811.769 69.9332 810.468 68.7599 809.487 67.0959C808.548 65.3892 808.079 63.0425 808.079 60.0559V43.2239H803.535V39.1919L808.783 35.9919L811.535 28.6319H817.615V36.0559H827.407V43.2239H817.615V60.0559C817.615 61.3785 817.999 62.3812 818.767 63.0639C819.535 63.7039 820.537 64.0239 821.775 64.0239Z" fill="url(#paint23_linear_112_4078)"/>
<path d="M766.834 35.4159C770.077 35.4159 772.871 36.0345 775.218 37.2719C777.565 38.4665 779.357 40.2585 780.594 42.6479C781.874 44.9945 782.514 47.8745 782.514 51.2879V55.9599H760.05C760.135 58.6052 760.946 60.6959 762.482 62.2319C764.018 63.7252 766.215 64.4719 769.074 64.4719C771.25 64.4719 773.234 64.2585 775.026 63.8319C776.818 63.4052 778.653 62.7652 780.53 61.9119V69.1439C778.823 69.9972 777.01 70.6159 775.09 70.9999C773.213 71.4265 770.866 71.6399 768.05 71.6399C764.594 71.6399 761.522 70.9999 758.834 69.7199C756.189 68.4399 754.098 66.4772 752.562 63.8319C751.026 61.1439 750.258 57.7945 750.258 53.7839C750.258 49.6879 750.941 46.2959 752.306 43.6079C753.714 40.8772 755.655 38.8292 758.13 37.4639C760.647 36.0985 763.549 35.4159 766.834 35.4159ZM767.09 42.2639C765.17 42.2639 763.613 42.8825 762.418 44.1199C761.223 45.3145 760.519 47.1065 760.306 49.4959H773.49C773.49 48.0879 773.255 46.8505 772.786 45.7839C772.317 44.7172 771.591 43.8639 770.61 43.2239C769.671 42.5839 768.498 42.2639 767.09 42.2639Z" fill="url(#paint24_linear_112_4078)"/>
<path d="M722.941 71.6399C719.101 71.6399 715.943 70.1252 713.469 67.0959C711.037 64.0239 709.821 59.5225 709.821 53.5919C709.821 47.5759 711.058 43.0532 713.533 40.0239C716.007 36.9519 719.25 35.4159 723.261 35.4159C724.925 35.4159 726.354 35.6505 727.549 36.1199C728.786 36.5465 729.853 37.1439 730.749 37.9119C731.645 38.6799 732.413 39.5545 733.053 40.5359H733.373C733.245 39.7679 733.117 38.7012 732.989 37.3359C732.903 35.9279 732.861 34.6479 732.861 33.4959V22.3599H742.589V70.9999H735.165L733.245 66.4559H732.861C732.263 67.4372 731.517 68.3119 730.621 69.0799C729.725 69.8479 728.637 70.4665 727.357 70.9359C726.119 71.4052 724.647 71.6399 722.941 71.6399ZM726.333 63.8959C728.978 63.8959 730.834 63.1492 731.901 61.6559C732.967 60.1199 733.501 57.7945 733.501 54.6799V53.6559C733.501 50.2852 732.989 47.7039 731.965 45.9119C730.941 44.1199 729.042 43.2239 726.269 43.2239C724.178 43.2239 722.535 44.1199 721.341 45.9119C720.189 47.7039 719.613 50.3065 719.613 53.7199C719.613 57.1332 720.189 59.6932 721.341 61.3999C722.535 63.0639 724.199 63.8959 726.333 63.8959Z" fill="url(#paint25_linear_112_4078)"/>
<path d="M687.116 53.4639C687.116 56.3652 686.71 58.9465 685.9 61.2079C685.132 63.4692 684.001 65.3679 682.508 66.9039C681.057 68.4399 679.286 69.6132 677.196 70.4239C675.105 71.2345 672.737 71.6399 670.092 71.6399C667.617 71.6399 665.356 71.2345 663.308 70.4239C661.26 69.6132 659.489 68.4399 657.996 66.9039C656.502 65.3679 655.329 63.4692 654.476 61.2079C653.622 58.9465 653.196 56.3652 653.196 53.4639C653.196 49.5812 653.878 46.2959 655.244 43.6079C656.609 40.9199 658.572 38.8932 661.132 37.5279C663.692 36.1199 666.742 35.4159 670.284 35.4159C673.569 35.4159 676.47 36.1199 678.988 37.5279C681.505 38.8932 683.489 40.9199 684.94 43.6079C686.39 46.2959 687.116 49.5812 687.116 53.4639ZM663.052 53.4639C663.052 55.7252 663.286 57.6665 663.756 59.2879C664.268 60.9092 665.036 62.1465 666.06 62.9999C667.126 63.8532 668.513 64.2799 670.22 64.2799C671.884 64.2799 673.228 63.8532 674.252 62.9999C675.318 62.1465 676.086 60.9092 676.556 59.2879C677.025 57.6665 677.26 55.7252 677.26 53.4639C677.26 51.1599 677.004 49.2185 676.492 47.6399C676.022 46.0612 675.276 44.8665 674.252 44.0559C673.228 43.2025 671.862 42.7759 670.156 42.7759C667.681 42.7759 665.868 43.6932 664.716 45.5279C663.606 47.3625 663.052 50.0079 663.052 53.4639Z" fill="url(#paint26_linear_112_4078)"/>
<path d="M632.163 35.4159C636.558 35.4159 639.907 36.4612 642.211 38.5519C644.515 40.5999 645.667 43.6505 645.667 47.7039V70.9999H638.947L637.091 66.2639H636.835C635.854 67.5012 634.83 68.5252 633.763 69.3359C632.739 70.1465 631.544 70.7225 630.179 71.0639C628.814 71.4479 627.15 71.6399 625.187 71.6399C623.139 71.6399 621.304 71.2559 619.683 70.4879C618.062 69.6772 616.782 68.4612 615.843 66.8399C614.904 65.2185 614.435 63.1705 614.435 60.6959C614.435 57.0265 615.758 54.2745 618.403 52.4399C621.048 50.6052 624.995 49.5812 630.243 49.3679L636.067 49.1759V48.0879C636.067 45.9972 635.598 44.5465 634.659 43.7359C633.72 42.8825 632.398 42.4559 630.691 42.4559C629.112 42.4559 627.491 42.7119 625.827 43.2239C624.163 43.7359 622.52 44.3545 620.899 45.0799L618.083 38.4879C619.918 37.5492 622.008 36.8025 624.355 36.2479C626.744 35.6932 629.347 35.4159 632.163 35.4159ZM632.419 54.9999C629.39 55.0852 627.278 55.5759 626.083 56.4719C624.888 57.3679 624.291 58.6265 624.291 60.2479C624.291 61.7412 624.696 62.8505 625.507 63.5759C626.36 64.2585 627.491 64.5999 628.899 64.5999C630.904 64.5999 632.59 64.0025 633.955 62.8079C635.363 61.6132 636.067 59.9065 636.067 57.6879V54.8079L632.419 54.9999ZM618.467 32.2799C618.595 30.6159 618.894 29.1865 619.363 27.9919C619.875 26.7545 620.515 25.7519 621.283 24.9839C622.051 24.1732 622.904 23.5759 623.843 23.1919C624.824 22.8079 625.87 22.6159 626.979 22.6159C627.832 22.6159 628.664 22.7865 629.475 23.1279C630.328 23.4265 631.139 23.8105 631.907 24.2799C632.718 24.7065 633.507 25.0905 634.275 25.4319C635.043 25.7305 635.811 25.8799 636.579 25.8799C637.219 25.8799 637.838 25.6025 638.435 25.0479C639.032 24.4932 639.459 23.6612 639.715 22.5519H644.387C644.131 25.8372 643.192 28.2692 641.571 29.8479C639.95 31.4265 638.051 32.2159 635.875 32.2159C635.022 32.2159 634.19 32.0665 633.379 31.7679C632.568 31.4265 631.758 31.0425 630.947 30.6159C630.136 30.1465 629.347 29.7625 628.579 29.4639C627.811 29.1225 627.043 28.9519 626.275 28.9519C625.635 28.9519 625.016 29.2292 624.419 29.7839C623.822 30.3385 623.395 31.1705 623.139 32.2799H618.467Z" fill="url(#paint27_linear_112_4078)"/>
<path d="M598.779 71.6399C595.408 71.6399 592.443 71.0212 589.883 69.7839C587.366 68.5039 585.403 66.5412 583.995 63.8959C582.587 61.2079 581.883 57.8159 581.883 53.7199C581.883 49.4105 582.651 45.9119 584.187 43.2239C585.723 40.5359 587.814 38.5732 590.459 37.3359C593.104 36.0559 596.112 35.4159 599.483 35.4159C601.531 35.4159 603.451 35.6292 605.243 36.0559C607.078 36.4825 608.699 37.0585 610.107 37.7839L607.227 45.0799C605.947 44.5252 604.646 44.0772 603.323 43.7359C602.043 43.3519 600.763 43.1599 599.483 43.1599C597.819 43.1599 596.411 43.5439 595.259 44.3119C594.107 45.0799 593.232 46.2532 592.635 47.8319C592.038 49.3679 591.739 51.3092 591.739 53.6559C591.739 55.9599 592.038 57.8585 592.635 59.3519C593.232 60.8452 594.107 61.9759 595.259 62.7439C596.411 63.4692 597.776 63.8319 599.355 63.8319C601.19 63.8319 602.918 63.5972 604.539 63.1279C606.16 62.6159 607.696 61.9545 609.147 61.1439V69.0159C607.824 69.8265 606.331 70.4665 604.667 70.9359C603.003 71.4052 601.04 71.6399 598.779 71.6399ZM605.243 79.2559C605.243 81.4319 604.454 83.1599 602.875 84.4399C601.296 85.7199 599.099 86.3599 596.283 86.3599C595.174 86.3599 594.128 86.2745 593.147 86.1039C592.208 85.9759 591.44 85.8052 590.843 85.5919V80.5359C591.44 80.7065 592.059 80.8345 592.699 80.9199C593.382 81.0479 594.043 81.1119 594.683 81.1119C595.792 81.1119 596.624 80.9199 597.179 80.5359C597.776 80.1945 598.075 79.6399 598.075 78.8719C598.075 78.0185 597.648 77.3572 596.795 76.8879C595.942 76.4185 594.704 76.0559 593.083 75.7999L595.323 70.9999H600.443L599.483 73.4959C600.379 73.6665 601.275 73.9652 602.171 74.3919C603.067 74.8612 603.792 75.4799 604.347 76.2479C604.944 77.0159 605.243 78.0185 605.243 79.2559Z" fill="url(#paint28_linear_112_4078)"/>
<path d="M574.114 36.0559V70.9999H566.69L565.474 66.5199H564.898C564.173 67.7145 563.234 68.6959 562.082 69.4639C560.973 70.2319 559.735 70.7865 558.37 71.1279C557.047 71.4692 555.639 71.6399 554.146 71.6399C551.671 71.6399 549.495 71.1919 547.618 70.2959C545.783 69.3999 544.333 68.0132 543.266 66.1359C542.242 64.2585 541.73 61.8265 541.73 58.8399V36.0559H551.458V56.4079C551.458 58.8825 551.885 60.7599 552.738 62.0399C553.634 63.2772 555.042 63.8959 556.962 63.8959C558.925 63.8959 560.439 63.4692 561.506 62.6159C562.615 61.7199 563.383 60.4185 563.81 58.7119C564.237 57.0052 564.45 54.9145 564.45 52.4399V36.0559H574.114Z" fill="url(#paint29_linear_112_4078)"/>
<path d="M512.941 71.6399C509.101 71.6399 505.943 70.1252 503.469 67.0959C501.037 64.0239 499.821 59.5225 499.821 53.5919C499.821 47.5759 501.058 43.0532 503.533 40.0239C506.007 36.9519 509.25 35.4159 513.261 35.4159C514.925 35.4159 516.354 35.6505 517.549 36.1199C518.786 36.5465 519.853 37.1439 520.749 37.9119C521.645 38.6799 522.413 39.5545 523.053 40.5359H523.373C523.245 39.7679 523.117 38.7012 522.989 37.3359C522.903 35.9279 522.861 34.6479 522.861 33.4959V22.3599H532.589V70.9999H525.165L523.245 66.4559H522.861C522.263 67.4372 521.517 68.3119 520.621 69.0799C519.725 69.8479 518.637 70.4665 517.357 70.9359C516.119 71.4052 514.647 71.6399 512.941 71.6399ZM516.333 63.8959C518.978 63.8959 520.834 63.1492 521.901 61.6559C522.967 60.1199 523.501 57.7945 523.501 54.6799V53.6559C523.501 50.2852 522.989 47.7039 521.965 45.9119C520.941 44.1199 519.042 43.2239 516.269 43.2239C514.178 43.2239 512.535 44.1199 511.341 45.9119C510.189 47.7039 509.613 50.3065 509.613 53.7199C509.613 57.1332 510.189 59.6932 511.341 61.3999C512.535 63.0639 514.199 63.8959 516.333 63.8959Z" fill="url(#paint30_linear_112_4078)"/>
<path d="M478.788 35.4159C483.183 35.4159 486.532 36.4612 488.836 38.5519C491.14 40.5999 492.292 43.6505 492.292 47.7039V70.9999H485.572L483.716 66.2639H483.46C482.479 67.5012 481.455 68.5252 480.388 69.3359C479.364 70.1465 478.169 70.7225 476.804 71.0639C475.439 71.4479 473.775 71.6399 471.812 71.6399C469.764 71.6399 467.929 71.2559 466.308 70.4879C464.687 69.6772 463.407 68.4612 462.468 66.8399C461.529 65.2185 461.06 63.1705 461.06 60.6959C461.06 57.0265 462.383 54.2745 465.028 52.4399C467.673 50.6052 471.62 49.5812 476.868 49.3679L482.692 49.1759V48.0879C482.692 45.9972 482.223 44.5465 481.284 43.7359C480.345 42.8825 479.023 42.4559 477.316 42.4559C475.737 42.4559 474.116 42.7119 472.452 43.2239C470.788 43.7359 469.145 44.3545 467.524 45.0799L464.708 38.4879C466.543 37.5492 468.633 36.8025 470.98 36.2479C473.369 35.6932 475.972 35.4159 478.788 35.4159ZM479.044 54.9999C476.015 55.0852 473.903 55.5759 472.708 56.4719C471.513 57.3679 470.916 58.6265 470.916 60.2479C470.916 61.7412 471.321 62.8505 472.132 63.5759C472.985 64.2585 474.116 64.5999 475.524 64.5999C477.529 64.5999 479.215 64.0025 480.58 62.8079C481.988 61.6132 482.692 59.9065 482.692 57.6879V54.8079L479.044 54.9999Z" fill="url(#paint31_linear_112_4078)"/>
<path d="M455.125 35.4159C455.765 35.4159 456.448 35.4585 457.173 35.5439C457.941 35.5865 458.538 35.6719 458.965 35.7999L458.005 44.8239C457.536 44.7385 456.981 44.6532 456.341 44.5679C455.701 44.4825 454.933 44.4399 454.037 44.4399C453.056 44.4399 452.053 44.5892 451.029 44.8879C450.048 45.1865 449.13 45.6772 448.277 46.3599C447.424 47.0425 446.741 47.9385 446.229 49.0479C445.717 50.1572 445.461 51.5652 445.461 53.2719V70.9999H435.797V36.0559H443.157L444.565 41.9439H445.013C445.696 40.7065 446.549 39.5972 447.573 38.6159C448.597 37.6345 449.749 36.8665 451.029 36.3119C452.309 35.7145 453.674 35.4159 455.125 35.4159Z" fill="url(#paint32_linear_112_4078)"/>
<path d="M420.735 70.9999H410.943V33.4319H398.591V25.3039H433.087V33.4319H420.735V70.9999Z" fill="url(#paint33_linear_112_4078)"/>
<defs>
<filter id="filter0_f_112_4078" x="379.591" y="14.3599" width="642.349" height="104" filterUnits="userSpaceOnUse" color-interpolation-filters="sRGB">
<feFlood flood-opacity="0" result="BackgroundImageFix"/>
<feBlend mode="normal" in="SourceGraphic" in2="BackgroundImageFix" result="shape"/>
<feGaussianBlur stdDeviation="10" result="effect1_foregroundBlur_112_4078"/>
</filter>
<linearGradient id="paint0_linear_112_4078" x1="297" y1="64.0036" x2="1104" y2="64.0028" gradientUnits="userSpaceOnUse">
<stop stop-color="white" stop-opacity="0.3"/>
<stop offset="0.495" stop-color="#CBB0F8"/>
<stop offset="1" stop-color="white" stop-opacity="0.3"/>
</linearGradient>
<linearGradient id="paint1_linear_112_4078" x1="1071.5" y1="53.9429" x2="-12727.8" y2="53.9634" gradientUnits="userSpaceOnUse">
<stop stop-color="#F4439F"/>
<stop offset="1" stop-color="#7C3AED"/>
</linearGradient>
<linearGradient id="paint2_linear_112_4078" x1="1633.63" y1="53.9429" x2="-9145.44" y2="53.9554" gradientUnits="userSpaceOnUse">
<stop stop-color="#F4439F"/>
<stop offset="1" stop-color="#7C3AED"/>
</linearGradient>
<linearGradient id="paint3_linear_112_4078" x1="2852.54" y1="60.9492" x2="-12221.1" y2="60.9782" gradientUnits="userSpaceOnUse">
<stop stop-color="#F4439F"/>
<stop offset="1" stop-color="#7C3AED"/>
</linearGradient>
<linearGradient id="paint4_linear_112_4078" x1="2668.51" y1="53.4881" x2="-7389.42" y2="53.4986" gradientUnits="userSpaceOnUse">
<stop stop-color="#F4439F"/>
<stop offset="1" stop-color="#7C3AED"/>
</linearGradient>
<linearGradient id="paint5_linear_112_4078" x1="3596.2" y1="53.9429" x2="-7738.92" y2="53.9567" gradientUnits="userSpaceOnUse">
<stop stop-color="#F4439F"/>
<stop offset="1" stop-color="#7C3AED"/>
</linearGradient>
<linearGradient id="paint6_linear_112_4078" x1="5377.75" y1="60.9492" x2="-9695.87" y2="60.9782" gradientUnits="userSpaceOnUse">
<stop stop-color="#F4439F"/>
<stop offset="1" stop-color="#7C3AED"/>
</linearGradient>
<linearGradient id="paint7_linear_112_4078" x1="5137.97" y1="53.9429" x2="-6197.15" y2="53.9567" gradientUnits="userSpaceOnUse">
<stop stop-color="#F4439F"/>
<stop offset="1" stop-color="#7C3AED"/>
</linearGradient>
<linearGradient id="paint8_linear_112_4078" x1="5807.27" y1="65.7105" x2="-5350.75" y2="65.7288" gradientUnits="userSpaceOnUse">
<stop stop-color="#F4439F"/>
<stop offset="1" stop-color="#7C3AED"/>
</linearGradient>
<linearGradient id="paint9_linear_112_4078" x1="6629.15" y1="53.943" x2="-4149.91" y2="53.9555" gradientUnits="userSpaceOnUse">
<stop stop-color="#F4439F"/>
<stop offset="1" stop-color="#7C3AED"/>
</linearGradient>
<linearGradient id="paint10_linear_112_4078" x1="7912.85" y1="65.5828" x2="-3793.92" y2="65.6028" gradientUnits="userSpaceOnUse">
<stop stop-color="#F4439F"/>
<stop offset="1" stop-color="#7C3AED"/>
</linearGradient>
<linearGradient id="paint11_linear_112_4078" x1="9408.3" y1="48.2845" x2="-3546.13" y2="48.31" gradientUnits="userSpaceOnUse">
<stop stop-color="#F4439F"/>
<stop offset="1" stop-color="#7C3AED"/>
</linearGradient>
<linearGradient id="paint12_linear_112_4078" x1="8997.91" y1="53.144" x2="-2292.42" y2="53.1575" gradientUnits="userSpaceOnUse">
<stop stop-color="#F4439F"/>
<stop offset="1" stop-color="#7C3AED"/>
</linearGradient>
<linearGradient id="paint13_linear_112_4078" x1="9667.54" y1="65.7105" x2="-1490.48" y2="65.7287" gradientUnits="userSpaceOnUse">
<stop stop-color="#F4439F"/>
<stop offset="1" stop-color="#7C3AED"/>
</linearGradient>
<linearGradient id="paint14_linear_112_4078" x1="10870.9" y1="53.943" x2="-835.887" y2="53.9577" gradientUnits="userSpaceOnUse">
<stop stop-color="#F4439F"/>
<stop offset="1" stop-color="#7C3AED"/>
</linearGradient>
<linearGradient id="paint15_linear_112_4078" x1="15172.4" y1="54.2952" x2="-609.099" y2="54.3215" gradientUnits="userSpaceOnUse">
<stop stop-color="#F4439F"/>
<stop offset="1" stop-color="#7C3AED"/>
</linearGradient>
<linearGradient id="paint16_linear_112_4078" x1="1005" y1="58.4997" x2="398" y2="58.4998" gradientUnits="userSpaceOnUse">
<stop stop-color="#F4439F"/>
<stop offset="1" stop-color="#7C3AED"/>
</linearGradient>
<linearGradient id="paint17_linear_112_4078" x1="700.5" y1="72" x2="700.5" y2="117" gradientUnits="userSpaceOnUse">
<stop offset="0.0001" stop-color="white" stop-opacity="0.1"/>
<stop offset="1" stop-color="white" stop-opacity="0"/>
</linearGradient>
<linearGradient id="paint18_linear_112_4078" x1="1070.5" y1="-34.9122" x2="724.723" y2="2181.86" gradientUnits="userSpaceOnUse">
<stop stop-color="#F4439F"/>
<stop offset="1" stop-color="#7C3AED"/>
</linearGradient>
<linearGradient id="paint19_linear_112_4078" x1="1632.63" y1="-34.9122" x2="1196.58" y2="2148.72" gradientUnits="userSpaceOnUse">
<stop stop-color="#F4439F"/>
<stop offset="1" stop-color="#7C3AED"/>
</linearGradient>
<linearGradient id="paint20_linear_112_4078" x1="2851.54" y1="-15.783" x2="2624.79" y2="1869.48" gradientUnits="userSpaceOnUse">
<stop stop-color="#F4439F"/>
<stop offset="1" stop-color="#7C3AED"/>
</linearGradient>
<linearGradient id="paint21_linear_112_4078" x1="2667.51" y1="-38.1823" x2="2169.8" y2="2205.29" gradientUnits="userSpaceOnUse">
<stop stop-color="#F4439F"/>
<stop offset="1" stop-color="#7C3AED"/>
</linearGradient>
<linearGradient id="paint22_linear_112_4078" x1="3595.2" y1="-34.9122" x2="3179.01" y2="2156.76" gradientUnits="userSpaceOnUse">
<stop stop-color="#F4439F"/>
<stop offset="1" stop-color="#7C3AED"/>
</linearGradient>
<linearGradient id="paint23_linear_112_4078" x1="5376.75" y1="-15.783" x2="5150" y2="1869.48" gradientUnits="userSpaceOnUse">
<stop stop-color="#F4439F"/>
<stop offset="1" stop-color="#7C3AED"/>
</linearGradient>
<linearGradient id="paint24_linear_112_4078" x1="5136.97" y1="-34.9122" x2="4720.78" y2="2156.76" gradientUnits="userSpaceOnUse">
<stop stop-color="#F4439F"/>
<stop offset="1" stop-color="#7C3AED"/>
</linearGradient>
<linearGradient id="paint25_linear_112_4078" x1="5806.27" y1="-2.78299" x2="5574.25" y2="1633.44" gradientUnits="userSpaceOnUse">
<stop stop-color="#F4439F"/>
<stop offset="1" stop-color="#7C3AED"/>
</linearGradient>
<linearGradient id="paint26_linear_112_4078" x1="6628.15" y1="-34.9122" x2="6192.1" y2="2148.72" gradientUnits="userSpaceOnUse">
<stop stop-color="#F4439F"/>
<stop offset="1" stop-color="#7C3AED"/>
</linearGradient>
<linearGradient id="paint27_linear_112_4078" x1="7911.85" y1="-3.13168" x2="7688.61" y2="1642.22" gradientUnits="userSpaceOnUse">
<stop stop-color="#F4439F"/>
<stop offset="1" stop-color="#7C3AED"/>
</linearGradient>
<linearGradient id="paint28_linear_112_4078" x1="9407.3" y1="-18.3638" x2="9219.16" y2="1574.01" gradientUnits="userSpaceOnUse">
<stop stop-color="#F4439F"/>
<stop offset="1" stop-color="#7C3AED"/>
</linearGradient>
<linearGradient id="paint29_linear_112_4078" x1="8996.91" y1="-37.0934" x2="8564.57" y2="2190.55" gradientUnits="userSpaceOnUse">
<stop stop-color="#F4439F"/>
<stop offset="1" stop-color="#7C3AED"/>
</linearGradient>
<linearGradient id="paint30_linear_112_4078" x1="9666.54" y1="-2.78302" x2="9434.52" y2="1633.44" gradientUnits="userSpaceOnUse">
<stop stop-color="#F4439F"/>
<stop offset="1" stop-color="#7C3AED"/>
</linearGradient>
<linearGradient id="paint31_linear_112_4078" x1="10869.9" y1="-34.9122" x2="10466" y2="2161.54" gradientUnits="userSpaceOnUse">
<stop stop-color="#F4439F"/>
<stop offset="1" stop-color="#7C3AED"/>
</linearGradient>
<linearGradient id="paint32_linear_112_4078" x1="15171.4" y1="-35.9423" x2="14856.5" y2="2231.89" gradientUnits="userSpaceOnUse">
<stop stop-color="#F4439F"/>
<stop offset="1" stop-color="#7C3AED"/>
</linearGradient>
<linearGradient id="paint33_linear_112_4078" x1="1004" y1="2.99971" x2="491.003" y2="258.594" gradientUnits="userSpaceOnUse">
<stop stop-color="#F4439F"/>
<stop offset="1" stop-color="#7C3AED"/>
</linearGradient>
</defs>
</svg>
