<svg width="1400" height="120" viewBox="0 0 1400 120" fill="none" xmlns="http://www.w3.org/2000/svg">
<path d="M197 56H1203V72H197V56Z" fill="url(#paint0_linear_112_3966)"/>
<mask id="mask0_112_3966" style="mask-type:alpha" maskUnits="userSpaceOnUse" x="197" y="72" width="1006" height="45">
<path d="M197 72H1203V117H197V72Z" fill="#C4C4C4"/>
</mask>
<g mask="url(#mask0_112_3966)">
<g filter="url(#filter0_f_112_3966)">
<path d="M1076 45.6881C1076 47.0107 1075.96 48.2694 1075.87 49.4641C1075.83 50.6587 1075.75 51.7041 1075.62 52.6001H1076C1076.94 51.1494 1078.2 49.9334 1079.78 48.9521C1081.36 47.9281 1083.4 47.4161 1085.92 47.4161C1089.8 47.4161 1092.96 48.9521 1095.39 52.0241C1097.83 55.0534 1099.04 59.5334 1099.04 65.4641C1099.04 69.4321 1098.49 72.7814 1097.38 75.5121C1096.27 78.2001 1094.69 80.2267 1092.64 81.5921C1090.64 82.9574 1088.31 83.6401 1085.67 83.6401C1083.11 83.6401 1081.08 83.1921 1079.59 82.2961C1078.13 81.3574 1076.94 80.3334 1076 79.2241H1075.36L1073.76 83.0001H1066.34V34.3601H1076V45.6881ZM1082.79 55.0961C1081.16 55.0961 1079.84 55.4374 1078.82 56.1201C1077.84 56.8027 1077.11 57.8481 1076.64 59.2561C1076.21 60.6214 1076 62.4134 1076 64.6321V65.7841C1076 69.0694 1076.49 71.5654 1077.47 73.2721C1078.5 74.9787 1080.31 75.8321 1082.91 75.8321C1085 75.8321 1086.58 74.9361 1087.65 73.1441C1088.72 71.3521 1089.25 68.7494 1089.25 65.3361C1089.25 61.9654 1088.72 59.4267 1087.65 57.7201C1086.63 55.9707 1085 55.0961 1082.79 55.0961Z" fill="url(#paint1_linear_112_3966)" fill-opacity="0.7"/>
<path d="M1043.06 47.4161C1046.3 47.4161 1049.1 48.0347 1051.45 49.2721C1053.79 50.4667 1055.58 52.2587 1056.82 54.6481C1058.1 56.9947 1058.74 59.8747 1058.74 63.2881V67.9601H1036.28C1036.36 70.6054 1037.17 72.6961 1038.71 74.2321C1040.25 75.7254 1042.44 76.4721 1045.3 76.4721C1047.48 76.4721 1049.46 76.2587 1051.25 75.8321C1053.05 75.4054 1054.88 74.7654 1056.76 73.9121V81.1441C1055.05 81.9974 1053.24 82.6161 1051.32 83.0001C1049.44 83.4267 1047.09 83.6401 1044.28 83.6401C1040.82 83.6401 1037.75 83.0001 1035.06 81.7201C1032.42 80.4401 1030.33 78.4774 1028.79 75.8321C1027.25 73.1441 1026.49 69.7947 1026.49 65.7841C1026.49 61.6881 1027.17 58.2961 1028.53 55.6081C1029.94 52.8774 1031.88 50.8294 1034.36 49.4641C1036.87 48.0987 1039.78 47.4161 1043.06 47.4161ZM1043.32 54.2641C1041.4 54.2641 1039.84 54.8827 1038.65 56.1201C1037.45 57.3147 1036.75 59.1067 1036.53 61.4961H1049.72C1049.72 60.0881 1049.48 58.8507 1049.01 57.7841C1048.54 56.7174 1047.82 55.8641 1046.84 55.2241C1045.9 54.5841 1044.73 54.2641 1043.32 54.2641Z" fill="url(#paint2_linear_112_3966)" fill-opacity="0.7"/>
<path d="M999.705 70.7761C999.534 70.0507 999.278 68.9841 998.937 67.5761C998.638 66.1254 998.297 64.5894 997.913 62.9681C997.529 61.3041 997.166 59.7894 996.825 58.4241C996.484 57.0161 996.249 55.9921 996.121 55.3521H995.865C995.737 55.9921 995.502 57.0161 995.161 58.4241C994.862 59.7894 994.521 61.3041 994.137 62.9681C993.753 64.5894 993.39 66.1254 993.049 67.5761C992.708 69.0267 992.452 70.1361 992.281 70.9041L989.465 83.0001H979.225L969.305 48.0561H978.777L982.809 63.5441C983.108 64.6107 983.364 65.8907 983.577 67.3841C983.833 68.8774 984.068 70.3281 984.281 71.7361C984.494 73.1014 984.644 74.1894 984.729 75.0001H984.985C985.028 74.4027 985.113 73.6134 985.241 72.6321C985.369 71.6081 985.518 70.5627 985.689 69.4961C985.902 68.4294 986.073 67.4694 986.201 66.6161C986.372 65.7201 986.5 65.1227 986.585 64.8241L990.873 48.0561H1001.37L1005.47 64.8241C1005.64 65.4214 1005.83 66.3814 1006.04 67.7041C1006.3 69.0267 1006.51 70.3707 1006.68 71.7361C1006.89 73.1014 1007 74.1894 1007 75.0001H1007.26C1007.34 74.2747 1007.49 73.2294 1007.71 71.8641C1007.92 70.4561 1008.15 68.9841 1008.41 67.4481C1008.71 65.9121 1009.01 64.6107 1009.31 63.5441L1013.47 48.0561H1022.81L1012.76 83.0001H1002.39L999.705 70.7761Z" fill="url(#paint3_linear_112_3966)" fill-opacity="0.7"/>
<path d="M949.355 72.6961C949.355 74.9147 948.822 76.8561 947.755 78.5201C946.731 80.1414 945.152 81.4001 943.019 82.2961C940.886 83.1921 938.176 83.6401 934.891 83.6401C932.416 83.6401 930.24 83.4694 928.363 83.1281C926.486 82.8294 924.672 82.3174 922.923 81.5921V73.5921C924.8 74.4881 926.827 75.1921 929.003 75.7041C931.179 76.2161 933.056 76.4721 934.635 76.4721C936.598 76.4721 938.006 76.1947 938.859 75.6401C939.755 75.0854 940.203 74.3387 940.203 73.4001C940.203 72.7601 939.968 72.1841 939.499 71.6721C939.072 71.1601 938.283 70.6267 937.131 70.0721C936.022 69.5174 934.422 68.8347 932.331 68.0241C930.24 67.1707 928.491 66.2961 927.083 65.4001C925.675 64.4614 924.608 63.3521 923.883 62.0721C923.2 60.7921 922.859 59.1921 922.859 57.2721C922.859 54.0721 924.118 51.6401 926.635 49.9761C929.195 48.2694 932.566 47.4161 936.747 47.4161C939.008 47.4161 941.099 47.6507 943.019 48.1201C944.982 48.5894 946.966 49.2507 948.971 50.1041L946.155 56.6961C944.534 55.9707 942.87 55.3734 941.163 54.9041C939.456 54.4347 937.942 54.2001 936.619 54.2001C935.168 54.2001 934.038 54.4347 933.227 54.9041C932.416 55.3307 932.011 55.9494 932.011 56.7601C932.011 57.3574 932.224 57.8907 932.651 58.3601C933.12 58.8294 933.91 59.3201 935.019 59.8321C936.171 60.3441 937.771 61.0054 939.819 61.8161C941.91 62.6267 943.659 63.5014 945.067 64.4401C946.518 65.3361 947.584 66.4454 948.267 67.7681C948.992 69.0481 949.355 70.6907 949.355 72.6961Z" fill="url(#paint4_linear_112_3966)" fill-opacity="0.7"/>
<path d="M901.891 47.4161C906.285 47.4161 909.635 48.4614 911.939 50.5521C914.243 52.6001 915.395 55.6507 915.395 59.7041V83.0001H908.675L906.819 78.2641H906.563C905.581 79.5014 904.557 80.5254 903.491 81.3361C902.467 82.1467 901.272 82.7227 899.907 83.0641C898.541 83.4481 896.877 83.6401 894.915 83.6401C892.867 83.6401 891.032 83.2561 889.411 82.4881C887.789 81.6774 886.509 80.4614 885.571 78.8401C884.632 77.2187 884.163 75.1707 884.163 72.6961C884.163 69.0267 885.485 66.2747 888.131 64.4401C890.776 62.6054 894.723 61.5814 899.971 61.3681L905.795 61.1761V60.0881C905.795 57.9974 905.325 56.5467 904.387 55.7361C903.448 54.8827 902.125 54.4561 900.419 54.4561C898.84 54.4561 897.219 54.7121 895.555 55.2241C893.891 55.7361 892.248 56.3547 890.627 57.0801L887.811 50.4881C889.645 49.5494 891.736 48.8027 894.083 48.2481C896.472 47.6934 899.075 47.4161 901.891 47.4161ZM902.147 67.0001C899.117 67.0854 897.005 67.5761 895.811 68.4721C894.616 69.3681 894.019 70.6267 894.019 72.2481C894.019 73.7414 894.424 74.8507 895.235 75.5761C896.088 76.2587 897.219 76.6001 898.627 76.6001C900.632 76.6001 902.317 76.0027 903.683 74.8081C905.091 73.6134 905.795 71.9067 905.795 69.6881V66.8081L902.147 67.0001Z" fill="url(#paint5_linear_112_3966)" fill-opacity="0.7"/>
<path d="M864.618 47.4161C868.458 47.4161 871.487 48.4187 873.706 50.4241C875.924 52.4294 877.034 55.6934 877.034 60.2161V83.0001H867.434V62.6481C867.434 60.1307 866.964 58.2534 866.026 57.0161C865.13 55.7361 863.722 55.0961 861.802 55.0961C858.9 55.0961 856.916 56.0987 855.85 58.1041C854.826 60.0667 854.314 62.9041 854.314 66.6161V83.0001H844.65V48.0561H852.074L853.418 52.7281H853.802C854.57 51.5761 855.487 50.6161 856.554 49.8481C857.663 49.0374 858.879 48.4401 860.202 48.0561C861.567 47.6294 863.039 47.4161 864.618 47.4161Z" fill="url(#paint6_linear_112_3966)" fill-opacity="0.7"/>
<path d="M835.253 48.0561V83.0001H825.589V48.0561H835.253ZM830.453 34.2961C831.861 34.2961 833.077 34.6374 834.101 35.3201C835.167 35.9601 835.701 37.1974 835.701 39.0321C835.701 40.7814 835.167 41.9974 834.101 42.6801C833.077 43.3627 831.861 43.7041 830.453 43.7041C829.002 43.7041 827.765 43.3627 826.741 42.6801C825.717 41.9974 825.205 40.7814 825.205 39.0321C825.205 37.1974 825.717 35.9601 826.741 35.3201C827.765 34.6374 829.002 34.2961 830.453 34.2961Z" fill="url(#paint7_linear_112_3966)" fill-opacity="0.7"/>
<path d="M796.735 47.4161C799.167 47.4161 801.194 47.8854 802.815 48.8241C804.436 49.7201 805.78 50.9361 806.847 52.4721H807.103L807.999 48.0561H816.191V83.2561C816.191 86.5414 815.551 89.2934 814.271 91.5121C812.991 93.7734 811.05 95.4801 808.447 96.6321C805.887 97.7841 802.623 98.3601 798.655 98.3601C795.967 98.3601 793.556 98.1894 791.423 97.8481C789.29 97.5494 787.284 97.0161 785.407 96.2481V88.0561C787.327 88.9094 789.29 89.5707 791.295 90.0401C793.343 90.5094 795.69 90.7441 798.335 90.7441C801.023 90.7441 803.05 90.1254 804.415 88.8881C805.823 87.6507 806.527 85.9441 806.527 83.7681V82.8081C806.527 82.2961 806.548 81.6134 806.591 80.7601C806.676 79.9067 806.762 79.1601 806.847 78.5201H806.527C805.546 80.0561 804.244 81.2934 802.623 82.2321C801.044 83.1707 799.06 83.6401 796.671 83.6401C792.66 83.6401 789.439 82.0827 787.007 78.9681C784.618 75.8534 783.423 71.3947 783.423 65.5921C783.423 59.7894 784.639 55.3094 787.071 52.1521C789.503 48.9947 792.724 47.4161 796.735 47.4161ZM799.871 55.0321C798.463 55.0321 797.247 55.4374 796.223 56.2481C795.242 57.0587 794.495 58.2534 793.983 59.8321C793.514 61.4107 793.279 63.3734 793.279 65.7201C793.279 69.2187 793.834 71.8214 794.943 73.5281C796.095 75.2347 797.802 76.0881 800.063 76.0881C801.343 76.0881 802.431 75.8961 803.327 75.5121C804.223 75.1281 804.948 74.5734 805.503 73.8481C806.058 73.0801 806.463 72.1201 806.719 70.9681C807.018 69.8161 807.167 68.4507 807.167 66.8721V65.4641C807.167 63.1174 806.932 61.1761 806.463 59.6401C805.994 58.1041 805.226 56.9521 804.159 56.1841C803.092 55.4161 801.663 55.0321 799.871 55.0321Z" fill="url(#paint8_linear_112_3966)" fill-opacity="0.7"/>
<path d="M762.391 47.4161C766.785 47.4161 770.135 48.4614 772.439 50.5521C774.743 52.6001 775.895 55.6507 775.895 59.7041V83.0001H769.175L767.319 78.2641H767.063C766.081 79.5014 765.057 80.5254 763.991 81.3361C762.967 82.1467 761.772 82.7227 760.407 83.0641C759.041 83.4481 757.377 83.6401 755.415 83.6401C753.367 83.6401 751.532 83.2561 749.911 82.4881C748.289 81.6774 747.009 80.4614 746.071 78.8401C745.132 77.2187 744.663 75.1707 744.663 72.6961C744.663 69.0267 745.985 66.2747 748.631 64.4401C751.276 62.6054 755.223 61.5814 760.471 61.3681L766.295 61.1761V60.0881C766.295 57.9974 765.825 56.5467 764.887 55.7361C763.948 54.8827 762.625 54.4561 760.919 54.4561C759.34 54.4561 757.719 54.7121 756.055 55.2241C754.391 55.7361 752.748 56.3547 751.127 57.0801L748.311 50.4881C750.145 49.5494 752.236 48.8027 754.583 48.2481C756.972 47.6934 759.575 47.4161 762.391 47.4161ZM762.647 67.0001C759.617 67.0854 757.505 67.5761 756.311 68.4721C755.116 69.3681 754.519 70.6267 754.519 72.2481C754.519 73.7414 754.924 74.8507 755.735 75.5761C756.588 76.2587 757.719 76.6001 759.127 76.6001C761.132 76.6001 762.817 76.0027 764.183 74.8081C765.591 73.6134 766.295 71.9067 766.295 69.6881V66.8081L762.647 67.0001ZM774.359 34.6161C773.719 35.2134 772.908 35.9601 771.927 36.8561C770.945 37.7094 769.879 38.6054 768.727 39.5441C767.575 40.4401 766.444 41.3147 765.335 42.1681C764.268 42.9787 763.329 43.6614 762.519 44.2161H756.119V43.3841C756.801 42.5734 757.591 41.6134 758.487 40.5041C759.425 39.3947 760.343 38.2641 761.239 37.1121C762.177 35.9601 762.945 34.9147 763.543 33.9761H774.359V34.6161Z" fill="url(#paint9_linear_112_3966)" fill-opacity="0.7"/>
<path d="M725.921 47.4161C729.974 47.4161 733.174 48.9521 735.521 52.0241C737.868 55.0534 739.041 59.5334 739.041 65.4641C739.041 69.3894 738.465 72.7174 737.313 75.4481C736.204 78.1787 734.646 80.2267 732.641 81.5921C730.636 82.9574 728.31 83.6401 725.665 83.6401C723.958 83.6401 722.486 83.4267 721.249 83.0001C720.012 82.5307 718.966 81.9761 718.113 81.3361C717.302 80.6534 716.598 79.9494 716.001 79.2241H715.617C715.702 79.9921 715.788 80.8881 715.873 81.9121C715.958 82.8934 716.001 83.9174 716.001 84.9841V98.3601H706.337V48.0561H714.209L715.553 52.6001H716.001C716.641 51.6187 717.388 50.7441 718.241 49.9761C719.137 49.2081 720.204 48.5894 721.441 48.1201C722.721 47.6507 724.214 47.4161 725.921 47.4161ZM722.721 55.0961C721.1 55.0961 719.798 55.4374 718.817 56.1201C717.836 56.8027 717.132 57.8267 716.705 59.1921C716.278 60.5574 716.044 62.2854 716.001 64.3761V65.4001C716.001 67.6187 716.193 69.5174 716.577 71.0961C717.004 72.6321 717.708 73.8054 718.689 74.6161C719.713 75.4267 721.078 75.8321 722.785 75.8321C724.236 75.8321 725.43 75.4267 726.369 74.6161C727.35 73.8054 728.076 72.6321 728.545 71.0961C729.014 69.5174 729.249 67.5974 729.249 65.3361C729.249 61.8801 728.694 59.3201 727.585 57.6561C726.518 55.9494 724.897 55.0961 722.721 55.0961Z" fill="url(#paint10_linear_112_3966)" fill-opacity="0.7"/>
<path d="M666.437 47.4161C669.679 47.4161 672.474 48.0347 674.821 49.2721C677.167 50.4667 678.959 52.2587 680.197 54.6481C681.477 56.9947 682.117 59.8747 682.117 63.2881V67.9601H659.653C659.738 70.6054 660.549 72.6961 662.085 74.2321C663.621 75.7254 665.818 76.4721 668.677 76.4721C670.853 76.4721 672.837 76.2587 674.629 75.8321C676.421 75.4054 678.255 74.7654 680.133 73.9121V81.1441C678.426 81.9974 676.613 82.6161 674.693 83.0001C672.815 83.4267 670.469 83.6401 667.653 83.6401C664.197 83.6401 661.125 83.0001 658.437 81.7201C655.791 80.4401 653.701 78.4774 652.165 75.8321C650.629 73.1441 649.861 69.7947 649.861 65.7841C649.861 61.6881 650.543 58.2961 651.909 55.6081C653.317 52.8774 655.258 50.8294 657.733 49.4641C660.25 48.0987 663.151 47.4161 666.437 47.4161ZM666.693 54.2641C664.773 54.2641 663.215 54.8827 662.021 56.1201C660.826 57.3147 660.122 59.1067 659.909 61.4961H673.093C673.093 60.0881 672.858 58.8507 672.389 57.7841C671.919 56.7174 671.194 55.8641 670.213 55.2241C669.274 54.5841 668.101 54.2641 666.693 54.2641Z" fill="url(#paint11_linear_112_3966)" fill-opacity="0.7"/>
<path d="M622.543 83.6401C618.703 83.6401 615.546 82.1254 613.071 79.0961C610.639 76.0241 609.423 71.5227 609.423 65.5921C609.423 59.5761 610.66 55.0534 613.135 52.0241C615.61 48.9521 618.852 47.4161 622.863 47.4161C624.527 47.4161 625.956 47.6507 627.151 48.1201C628.388 48.5467 629.455 49.1441 630.351 49.9121C631.247 50.6801 632.015 51.5547 632.655 52.5361H632.975C632.847 51.7681 632.719 50.7014 632.591 49.3361C632.506 47.9281 632.463 46.6481 632.463 45.4961V34.3601H642.191V83.0001H634.767L632.847 78.4561H632.463C631.866 79.4374 631.119 80.3121 630.223 81.0801C629.327 81.8481 628.239 82.4667 626.959 82.9361C625.722 83.4054 624.25 83.6401 622.543 83.6401ZM625.935 75.8961C628.58 75.8961 630.436 75.1494 631.503 73.6561C632.57 72.1201 633.103 69.7947 633.103 66.6801V65.6561C633.103 62.2854 632.591 59.7041 631.567 57.9121C630.543 56.1201 628.644 55.2241 625.871 55.2241C623.78 55.2241 622.138 56.1201 620.943 57.9121C619.791 59.7041 619.215 62.3067 619.215 65.7201C619.215 69.1334 619.791 71.6934 620.943 73.4001C622.138 75.0641 623.802 75.8961 625.935 75.8961Z" fill="url(#paint12_linear_112_3966)" fill-opacity="0.7"/>
<path d="M586.718 65.4641C586.718 68.3654 586.313 70.9467 585.502 73.2081C584.734 75.4694 583.603 77.3681 582.11 78.9041C580.659 80.4401 578.889 81.6134 576.798 82.4241C574.707 83.2347 572.339 83.6401 569.694 83.6401C567.219 83.6401 564.958 83.2347 562.91 82.4241C560.862 81.6134 559.091 80.4401 557.598 78.9041C556.105 77.3681 554.931 75.4694 554.078 73.2081C553.225 70.9467 552.798 68.3654 552.798 65.4641C552.798 61.5814 553.481 58.2961 554.846 55.6081C556.211 52.9201 558.174 50.8934 560.734 49.5281C563.294 48.1201 566.345 47.4161 569.886 47.4161C573.171 47.4161 576.073 48.1201 578.59 49.5281C581.107 50.8934 583.091 52.9201 584.542 55.6081C585.993 58.2961 586.718 61.5814 586.718 65.4641ZM562.654 65.4641C562.654 67.7254 562.889 69.6667 563.358 71.2881C563.87 72.9094 564.638 74.1467 565.662 75.0001C566.729 75.8534 568.115 76.2801 569.822 76.2801C571.486 76.2801 572.83 75.8534 573.854 75.0001C574.921 74.1467 575.689 72.9094 576.158 71.2881C576.627 69.6667 576.862 67.7254 576.862 65.4641C576.862 63.1601 576.606 61.2187 576.094 59.6401C575.625 58.0614 574.878 56.8667 573.854 56.0561C572.83 55.2027 571.465 54.7761 569.758 54.7761C567.283 54.7761 565.47 55.6934 564.318 57.5281C563.209 59.3627 562.654 62.0081 562.654 65.4641Z" fill="url(#paint13_linear_112_3966)" fill-opacity="0.7"/>
<path d="M531.766 47.4161C536.16 47.4161 539.51 48.4614 541.814 50.5521C544.118 52.6001 545.27 55.6507 545.27 59.7041V83.0001H538.55L536.694 78.2641H536.438C535.456 79.5014 534.432 80.5254 533.366 81.3361C532.342 82.1467 531.147 82.7227 529.782 83.0641C528.416 83.4481 526.752 83.6401 524.79 83.6401C522.742 83.6401 520.907 83.2561 519.286 82.4881C517.664 81.6774 516.384 80.4614 515.446 78.8401C514.507 77.2187 514.038 75.1707 514.038 72.6961C514.038 69.0267 515.36 66.2747 518.006 64.4401C520.651 62.6054 524.598 61.5814 529.846 61.3681L535.67 61.1761V60.0881C535.67 57.9974 535.2 56.5467 534.262 55.7361C533.323 54.8827 532 54.4561 530.294 54.4561C528.715 54.4561 527.094 54.7121 525.43 55.2241C523.766 55.7361 522.123 56.3547 520.502 57.0801L517.686 50.4881C519.52 49.5494 521.611 48.8027 523.958 48.2481C526.347 47.6934 528.95 47.4161 531.766 47.4161ZM532.022 67.0001C528.992 67.0854 526.88 67.5761 525.686 68.4721C524.491 69.3681 523.894 70.6267 523.894 72.2481C523.894 73.7414 524.299 74.8507 525.11 75.5761C525.963 76.2587 527.094 76.6001 528.502 76.6001C530.507 76.6001 532.192 76.0027 533.558 74.8081C534.966 73.6134 535.67 71.9067 535.67 69.6881V66.8081L532.022 67.0001ZM518.07 44.2801C518.198 42.6161 518.496 41.1867 518.966 39.9921C519.478 38.7547 520.118 37.7521 520.886 36.9841C521.654 36.1734 522.507 35.5761 523.446 35.1921C524.427 34.8081 525.472 34.6161 526.582 34.6161C527.435 34.6161 528.267 34.7867 529.078 35.1281C529.931 35.4267 530.742 35.8107 531.51 36.2801C532.32 36.7067 533.11 37.0907 533.878 37.4321C534.646 37.7307 535.414 37.8801 536.182 37.8801C536.822 37.8801 537.44 37.6027 538.038 37.0481C538.635 36.4934 539.062 35.6614 539.318 34.5521H543.99C543.734 37.8374 542.795 40.2694 541.174 41.8481C539.552 43.4267 537.654 44.2161 535.478 44.2161C534.624 44.2161 533.792 44.0667 532.982 43.7681C532.171 43.4267 531.36 43.0427 530.55 42.6161C529.739 42.1467 528.95 41.7627 528.182 41.4641C527.414 41.1227 526.646 40.9521 525.878 40.9521C525.238 40.9521 524.619 41.2294 524.022 41.7841C523.424 42.3387 522.998 43.1707 522.742 44.2801H518.07Z" fill="url(#paint14_linear_112_3966)" fill-opacity="0.7"/>
<path d="M498.382 83.6401C495.011 83.6401 492.046 83.0214 489.486 81.7841C486.968 80.5041 485.006 78.5414 483.598 75.8961C482.19 73.2081 481.486 69.8161 481.486 65.7201C481.486 61.4107 482.254 57.9121 483.79 55.2241C485.326 52.5361 487.416 50.5734 490.062 49.3361C492.707 48.0561 495.715 47.4161 499.086 47.4161C501.134 47.4161 503.054 47.6294 504.846 48.0561C506.68 48.4827 508.302 49.0587 509.71 49.7841L506.83 57.0801C505.55 56.5254 504.248 56.0774 502.926 55.7361C501.646 55.3521 500.366 55.1601 499.086 55.1601C497.422 55.1601 496.014 55.5441 494.862 56.3121C493.71 57.0801 492.835 58.2534 492.238 59.8321C491.64 61.3681 491.342 63.3094 491.342 65.6561C491.342 67.9601 491.64 69.8587 492.238 71.3521C492.835 72.8454 493.71 73.9761 494.862 74.7441C496.014 75.4694 497.379 75.8321 498.958 75.8321C500.792 75.8321 502.52 75.5974 504.142 75.1281C505.763 74.6161 507.299 73.9547 508.75 73.1441V81.0161C507.427 81.8267 505.934 82.4667 504.27 82.9361C502.606 83.4054 500.643 83.6401 498.382 83.6401ZM504.846 91.2561C504.846 93.4321 504.056 95.1601 502.478 96.4401C500.899 97.7201 498.702 98.3601 495.886 98.3601C494.776 98.3601 493.731 98.2747 492.75 98.1041C491.811 97.9761 491.043 97.8054 490.446 97.5921V92.5361C491.043 92.7067 491.662 92.8347 492.302 92.9201C492.984 93.0481 493.646 93.1121 494.286 93.1121C495.395 93.1121 496.227 92.9201 496.782 92.5361C497.379 92.1947 497.678 91.6401 497.678 90.8721C497.678 90.0187 497.251 89.3574 496.398 88.8881C495.544 88.4187 494.307 88.0561 492.686 87.8001L494.926 83.0001H500.046L499.086 85.4961C499.982 85.6667 500.878 85.9654 501.774 86.3921C502.67 86.8614 503.395 87.4801 503.95 88.2481C504.547 89.0161 504.846 90.0187 504.846 91.2561Z" fill="url(#paint15_linear_112_3966)" fill-opacity="0.7"/>
<path d="M473.717 48.0561V83.0001H466.293L465.077 78.5201H464.501C463.775 79.7147 462.837 80.6961 461.685 81.4641C460.575 82.2321 459.338 82.7867 457.973 83.1281C456.65 83.4694 455.242 83.6401 453.749 83.6401C451.274 83.6401 449.098 83.1921 447.221 82.2961C445.386 81.4001 443.935 80.0134 442.869 78.1361C441.845 76.2587 441.333 73.8267 441.333 70.8401V48.0561H451.061V68.4081C451.061 70.8827 451.487 72.7601 452.341 74.0401C453.237 75.2774 454.645 75.8961 456.565 75.8961C458.527 75.8961 460.042 75.4694 461.109 74.6161C462.218 73.7201 462.986 72.4187 463.413 70.7121C463.839 69.0054 464.053 66.9147 464.053 64.4401V48.0561H473.717Z" fill="url(#paint16_linear_112_3966)" fill-opacity="0.7"/>
<path d="M412.543 83.6401C408.703 83.6401 405.546 82.1254 403.071 79.0961C400.639 76.0241 399.423 71.5227 399.423 65.5921C399.423 59.5761 400.66 55.0534 403.135 52.0241C405.61 48.9521 408.852 47.4161 412.863 47.4161C414.527 47.4161 415.956 47.6507 417.151 48.1201C418.388 48.5467 419.455 49.1441 420.351 49.9121C421.247 50.6801 422.015 51.5547 422.655 52.5361H422.975C422.847 51.7681 422.719 50.7014 422.591 49.3361C422.506 47.9281 422.463 46.6481 422.463 45.4961V34.3601H432.191V83.0001H424.767L422.847 78.4561H422.463C421.866 79.4374 421.119 80.3121 420.223 81.0801C419.327 81.8481 418.239 82.4667 416.959 82.9361C415.722 83.4054 414.25 83.6401 412.543 83.6401ZM415.935 75.8961C418.58 75.8961 420.436 75.1494 421.503 73.6561C422.57 72.1201 423.103 69.7947 423.103 66.6801V65.6561C423.103 62.2854 422.591 59.7041 421.567 57.9121C420.543 56.1201 418.644 55.2241 415.871 55.2241C413.78 55.2241 412.138 56.1201 410.943 57.9121C409.791 59.7041 409.215 62.3067 409.215 65.7201C409.215 69.1334 409.791 71.6934 410.943 73.4001C412.138 75.0641 413.802 75.8961 415.935 75.8961Z" fill="url(#paint17_linear_112_3966)" fill-opacity="0.7"/>
<path d="M378.391 47.4161C382.785 47.4161 386.135 48.4614 388.439 50.5521C390.743 52.6001 391.895 55.6507 391.895 59.7041V83.0001H385.175L383.319 78.2641H383.063C382.081 79.5014 381.057 80.5254 379.991 81.3361C378.967 82.1467 377.772 82.7227 376.407 83.0641C375.041 83.4481 373.377 83.6401 371.415 83.6401C369.367 83.6401 367.532 83.2561 365.911 82.4881C364.289 81.6774 363.009 80.4614 362.071 78.8401C361.132 77.2187 360.663 75.1707 360.663 72.6961C360.663 69.0267 361.985 66.2747 364.631 64.4401C367.276 62.6054 371.223 61.5814 376.471 61.3681L382.295 61.1761V60.0881C382.295 57.9974 381.825 56.5467 380.887 55.7361C379.948 54.8827 378.625 54.4561 376.919 54.4561C375.34 54.4561 373.719 54.7121 372.055 55.2241C370.391 55.7361 368.748 56.3547 367.127 57.0801L364.311 50.4881C366.145 49.5494 368.236 48.8027 370.583 48.2481C372.972 47.6934 375.575 47.4161 378.391 47.4161ZM378.647 67.0001C375.617 67.0854 373.505 67.5761 372.311 68.4721C371.116 69.3681 370.519 70.6267 370.519 72.2481C370.519 73.7414 370.924 74.8507 371.735 75.5761C372.588 76.2587 373.719 76.6001 375.127 76.6001C377.132 76.6001 378.817 76.0027 380.183 74.8081C381.591 73.6134 382.295 71.9067 382.295 69.6881V66.8081L378.647 67.0001Z" fill="url(#paint18_linear_112_3966)" fill-opacity="0.7"/>
<path d="M354.728 47.4161C355.368 47.4161 356.05 47.4587 356.776 47.5441C357.544 47.5867 358.141 47.6721 358.568 47.8001L357.608 56.8241C357.138 56.7387 356.584 56.6534 355.944 56.5681C355.304 56.4827 354.536 56.4401 353.64 56.4401C352.658 56.4401 351.656 56.5894 350.632 56.8881C349.65 57.1867 348.733 57.6774 347.88 58.3601C347.026 59.0427 346.344 59.9387 345.832 61.0481C345.32 62.1574 345.064 63.5654 345.064 65.2721V83.0001H335.4V48.0561H342.76L344.168 53.9441H344.616C345.298 52.7067 346.152 51.5974 347.176 50.6161C348.2 49.6347 349.352 48.8667 350.632 48.3121C351.912 47.7147 353.277 47.4161 354.728 47.4161Z" fill="url(#paint19_linear_112_3966)" fill-opacity="0.7"/>
<path d="M320.338 83.0001H310.546V45.4321H298.194V37.3041H332.69V45.4321H320.338V83.0001Z" fill="url(#paint20_linear_112_3966)" fill-opacity="0.7"/>
</g>
</g>
<path d="M197 72H1203V105C1203 111.627 1197.63 117 1191 117H209C202.373 117 197 111.627 197 105V72Z" fill="url(#paint21_linear_112_3966)"/>
<path d="M1076.46 33.6881C1076.46 35.0107 1076.42 36.2694 1076.33 37.4641C1076.29 38.6587 1076.21 39.7041 1076.08 40.6001H1076.46C1077.4 39.1494 1078.66 37.9334 1080.24 36.9521C1081.82 35.9281 1083.86 35.4161 1086.38 35.4161C1090.26 35.4161 1093.42 36.9521 1095.85 40.0241C1098.29 43.0534 1099.5 47.5334 1099.5 53.4641C1099.5 57.4321 1098.95 60.7814 1097.84 63.5121C1096.73 66.2001 1095.15 68.2267 1093.1 69.5921C1091.1 70.9574 1088.77 71.6401 1086.13 71.6401C1083.57 71.6401 1081.54 71.1921 1080.05 70.2961C1078.59 69.3574 1077.4 68.3334 1076.46 67.2241H1075.82L1074.22 71.0001H1066.8V22.3601H1076.46V33.6881ZM1083.25 43.0961C1081.62 43.0961 1080.3 43.4374 1079.28 44.1201C1078.3 44.8027 1077.57 45.8481 1077.1 47.2561C1076.67 48.6214 1076.46 50.4134 1076.46 52.6321V53.7841C1076.46 57.0694 1076.95 59.5654 1077.93 61.2721C1078.96 62.9787 1080.77 63.8321 1083.37 63.8321C1085.46 63.8321 1087.04 62.9361 1088.11 61.1441C1089.18 59.3521 1089.71 56.7494 1089.71 53.3361C1089.71 49.9654 1089.18 47.4267 1088.11 45.7201C1087.09 43.9707 1085.46 43.0961 1083.25 43.0961Z" fill="url(#paint22_linear_112_3966)"/>
<path d="M1043.52 35.4161C1046.76 35.4161 1049.56 36.0347 1051.91 37.2721C1054.25 38.4667 1056.04 40.2587 1057.28 42.6481C1058.56 44.9947 1059.2 47.8747 1059.2 51.2881V55.9601H1036.74C1036.82 58.6054 1037.63 60.6961 1039.17 62.2321C1040.71 63.7254 1042.9 64.4721 1045.76 64.4721C1047.94 64.4721 1049.92 64.2587 1051.71 63.8321C1053.51 63.4054 1055.34 62.7654 1057.22 61.9121V69.1441C1055.51 69.9974 1053.7 70.6161 1051.78 71.0001C1049.9 71.4267 1047.55 71.6401 1044.74 71.6401C1041.28 71.6401 1038.21 71.0001 1035.52 69.7201C1032.88 68.4401 1030.79 66.4774 1029.25 63.8321C1027.71 61.1441 1026.95 57.7947 1026.95 53.7841C1026.95 49.6881 1027.63 46.2961 1028.99 43.6081C1030.4 40.8774 1032.34 38.8294 1034.82 37.4641C1037.33 36.0987 1040.24 35.4161 1043.52 35.4161ZM1043.78 42.2641C1041.86 42.2641 1040.3 42.8827 1039.11 44.1201C1037.91 45.3147 1037.21 47.1067 1036.99 49.4961H1050.18C1050.18 48.0881 1049.94 46.8507 1049.47 45.7841C1049 44.7174 1048.28 43.8641 1047.3 43.2241C1046.36 42.5841 1045.19 42.2641 1043.78 42.2641Z" fill="url(#paint23_linear_112_3966)"/>
<path d="M1000.17 58.7761C999.994 58.0507 999.738 56.9841 999.397 55.5761C999.098 54.1254 998.757 52.5894 998.373 50.9681C997.989 49.3041 997.626 47.7894 997.285 46.4241C996.944 45.0161 996.709 43.9921 996.581 43.3521H996.325C996.197 43.9921 995.962 45.0161 995.621 46.4241C995.322 47.7894 994.981 49.3041 994.597 50.9681C994.213 52.5894 993.85 54.1254 993.509 55.5761C993.168 57.0267 992.912 58.1361 992.741 58.9041L989.925 71.0001H979.685L969.765 36.0561H979.237L983.269 51.5441C983.568 52.6107 983.824 53.8907 984.037 55.3841C984.293 56.8774 984.528 58.3281 984.741 59.7361C984.954 61.1014 985.104 62.1894 985.189 63.0001H985.445C985.488 62.4027 985.573 61.6134 985.701 60.6321C985.829 59.6081 985.978 58.5627 986.149 57.4961C986.362 56.4294 986.533 55.4694 986.661 54.6161C986.832 53.7201 986.96 53.1227 987.045 52.8241L991.333 36.0561H1001.83L1005.93 52.8241C1006.1 53.4214 1006.29 54.3814 1006.5 55.7041C1006.76 57.0267 1006.97 58.3707 1007.14 59.7361C1007.35 61.1014 1007.46 62.1894 1007.46 63.0001H1007.72C1007.8 62.2747 1007.95 61.2294 1008.17 59.8641C1008.38 58.4561 1008.61 56.9841 1008.87 55.4481C1009.17 53.9121 1009.47 52.6107 1009.77 51.5441L1013.93 36.0561H1023.27L1013.22 71.0001H1002.85L1000.17 58.7761Z" fill="url(#paint24_linear_112_3966)"/>
<path d="M949.815 60.6961C949.815 62.9147 949.282 64.8561 948.215 66.5201C947.191 68.1414 945.612 69.4001 943.479 70.2961C941.346 71.1921 938.636 71.6401 935.351 71.6401C932.876 71.6401 930.7 71.4694 928.823 71.1281C926.946 70.8294 925.132 70.3174 923.383 69.5921V61.5921C925.26 62.4881 927.287 63.1921 929.463 63.7041C931.639 64.2161 933.516 64.4721 935.095 64.4721C937.058 64.4721 938.466 64.1947 939.319 63.6401C940.215 63.0854 940.663 62.3387 940.663 61.4001C940.663 60.7601 940.428 60.1841 939.959 59.6721C939.532 59.1601 938.743 58.6267 937.591 58.0721C936.482 57.5174 934.882 56.8347 932.791 56.0241C930.7 55.1707 928.951 54.2961 927.543 53.4001C926.135 52.4614 925.068 51.3521 924.343 50.0721C923.66 48.7921 923.319 47.1921 923.319 45.2721C923.319 42.0721 924.578 39.6401 927.095 37.9761C929.655 36.2694 933.026 35.4161 937.207 35.4161C939.468 35.4161 941.559 35.6507 943.479 36.1201C945.442 36.5894 947.426 37.2507 949.431 38.1041L946.615 44.6961C944.994 43.9707 943.33 43.3734 941.623 42.9041C939.916 42.4347 938.402 42.2001 937.079 42.2001C935.628 42.2001 934.498 42.4347 933.687 42.9041C932.876 43.3307 932.471 43.9494 932.471 44.7601C932.471 45.3574 932.684 45.8907 933.111 46.3601C933.58 46.8294 934.37 47.3201 935.479 47.8321C936.631 48.3441 938.231 49.0054 940.279 49.8161C942.37 50.6267 944.119 51.5014 945.527 52.4401C946.978 53.3361 948.044 54.4454 948.727 55.7681C949.452 57.0481 949.815 58.6907 949.815 60.6961Z" fill="url(#paint25_linear_112_3966)"/>
<path d="M902.351 35.4161C906.745 35.4161 910.095 36.4614 912.399 38.5521C914.703 40.6001 915.855 43.6507 915.855 47.7041V71.0001H909.135L907.279 66.2641H907.023C906.041 67.5014 905.017 68.5254 903.951 69.3361C902.927 70.1467 901.732 70.7227 900.367 71.0641C899.001 71.4481 897.337 71.6401 895.375 71.6401C893.327 71.6401 891.492 71.2561 889.871 70.4881C888.249 69.6774 886.969 68.4614 886.031 66.8401C885.092 65.2187 884.623 63.1707 884.623 60.6961C884.623 57.0267 885.945 54.2747 888.591 52.4401C891.236 50.6054 895.183 49.5814 900.431 49.3681L906.255 49.1761V48.0881C906.255 45.9974 905.785 44.5467 904.847 43.7361C903.908 42.8827 902.585 42.4561 900.879 42.4561C899.3 42.4561 897.679 42.7121 896.015 43.2241C894.351 43.7361 892.708 44.3547 891.087 45.0801L888.271 38.4881C890.105 37.5494 892.196 36.8027 894.543 36.2481C896.932 35.6934 899.535 35.4161 902.351 35.4161ZM902.607 55.0001C899.577 55.0854 897.465 55.5761 896.271 56.4721C895.076 57.3681 894.479 58.6267 894.479 60.2481C894.479 61.7414 894.884 62.8507 895.695 63.5761C896.548 64.2587 897.679 64.6001 899.087 64.6001C901.092 64.6001 902.777 64.0027 904.143 62.8081C905.551 61.6134 906.255 59.9067 906.255 57.6881V54.8081L902.607 55.0001Z" fill="url(#paint26_linear_112_3966)"/>
<path d="M865.078 35.4161C868.918 35.4161 871.947 36.4187 874.166 38.4241C876.384 40.4294 877.494 43.6934 877.494 48.2161V71.0001H867.894V50.6481C867.894 48.1307 867.424 46.2534 866.486 45.0161C865.59 43.7361 864.182 43.0961 862.262 43.0961C859.36 43.0961 857.376 44.0987 856.31 46.1041C855.286 48.0667 854.774 50.9041 854.774 54.6161V71.0001H845.11V36.0561H852.534L853.878 40.7281H854.262C855.03 39.5761 855.947 38.6161 857.014 37.8481C858.123 37.0374 859.339 36.4401 860.662 36.0561C862.027 35.6294 863.499 35.4161 865.078 35.4161Z" fill="url(#paint27_linear_112_3966)"/>
<path d="M835.713 36.0561V71.0001H826.049V36.0561H835.713ZM830.913 22.2961C832.321 22.2961 833.537 22.6374 834.561 23.3201C835.627 23.9601 836.161 25.1974 836.161 27.0321C836.161 28.7814 835.627 29.9974 834.561 30.6801C833.537 31.3627 832.321 31.7041 830.913 31.7041C829.462 31.7041 828.225 31.3627 827.201 30.6801C826.177 29.9974 825.665 28.7814 825.665 27.0321C825.665 25.1974 826.177 23.9601 827.201 23.3201C828.225 22.6374 829.462 22.2961 830.913 22.2961Z" fill="url(#paint28_linear_112_3966)"/>
<path d="M797.195 35.4161C799.627 35.4161 801.654 35.8854 803.275 36.8241C804.896 37.7201 806.24 38.9361 807.307 40.4721H807.563L808.459 36.0561H816.651V71.2561C816.651 74.5414 816.011 77.2934 814.731 79.5121C813.451 81.7734 811.51 83.4801 808.907 84.6321C806.347 85.7841 803.083 86.3601 799.115 86.3601C796.427 86.3601 794.016 86.1894 791.883 85.8481C789.75 85.5494 787.744 85.0161 785.867 84.2481V76.0561C787.787 76.9094 789.75 77.5707 791.755 78.0401C793.803 78.5094 796.15 78.7441 798.795 78.7441C801.483 78.7441 803.51 78.1254 804.875 76.8881C806.283 75.6507 806.987 73.9441 806.987 71.7681V70.8081C806.987 70.2961 807.008 69.6134 807.051 68.7601C807.136 67.9067 807.222 67.1601 807.307 66.5201H806.987C806.006 68.0561 804.704 69.2934 803.083 70.2321C801.504 71.1707 799.52 71.6401 797.131 71.6401C793.12 71.6401 789.899 70.0827 787.467 66.9681C785.078 63.8534 783.883 59.3947 783.883 53.5921C783.883 47.7894 785.099 43.3094 787.531 40.1521C789.963 36.9947 793.184 35.4161 797.195 35.4161ZM800.331 43.0321C798.923 43.0321 797.707 43.4374 796.683 44.2481C795.702 45.0587 794.955 46.2534 794.443 47.8321C793.974 49.4107 793.739 51.3734 793.739 53.7201C793.739 57.2187 794.294 59.8214 795.403 61.5281C796.555 63.2347 798.262 64.0881 800.523 64.0881C801.803 64.0881 802.891 63.8961 803.787 63.5121C804.683 63.1281 805.408 62.5734 805.963 61.8481C806.518 61.0801 806.923 60.1201 807.179 58.9681C807.478 57.8161 807.627 56.4507 807.627 54.8721V53.4641C807.627 51.1174 807.392 49.1761 806.923 47.6401C806.454 46.1041 805.686 44.9521 804.619 44.1841C803.552 43.4161 802.123 43.0321 800.331 43.0321Z" fill="url(#paint29_linear_112_3966)"/>
<path d="M762.851 35.4161C767.245 35.4161 770.595 36.4614 772.899 38.5521C775.203 40.6001 776.355 43.6507 776.355 47.7041V71.0001H769.635L767.779 66.2641H767.523C766.541 67.5014 765.517 68.5254 764.451 69.3361C763.427 70.1467 762.232 70.7227 760.867 71.0641C759.501 71.4481 757.837 71.6401 755.875 71.6401C753.827 71.6401 751.992 71.2561 750.371 70.4881C748.749 69.6774 747.469 68.4614 746.531 66.8401C745.592 65.2187 745.123 63.1707 745.123 60.6961C745.123 57.0267 746.445 54.2747 749.091 52.4401C751.736 50.6054 755.683 49.5814 760.931 49.3681L766.755 49.1761V48.0881C766.755 45.9974 766.285 44.5467 765.347 43.7361C764.408 42.8827 763.085 42.4561 761.379 42.4561C759.8 42.4561 758.179 42.7121 756.515 43.2241C754.851 43.7361 753.208 44.3547 751.587 45.0801L748.771 38.4881C750.605 37.5494 752.696 36.8027 755.043 36.2481C757.432 35.6934 760.035 35.4161 762.851 35.4161ZM763.107 55.0001C760.077 55.0854 757.965 55.5761 756.771 56.4721C755.576 57.3681 754.979 58.6267 754.979 60.2481C754.979 61.7414 755.384 62.8507 756.195 63.5761C757.048 64.2587 758.179 64.6001 759.587 64.6001C761.592 64.6001 763.277 64.0027 764.643 62.8081C766.051 61.6134 766.755 59.9067 766.755 57.6881V54.8081L763.107 55.0001ZM774.819 22.6161C774.179 23.2134 773.368 23.9601 772.387 24.8561C771.405 25.7094 770.339 26.6054 769.187 27.5441C768.035 28.4401 766.904 29.3147 765.795 30.1681C764.728 30.9787 763.789 31.6614 762.979 32.2161H756.579V31.3841C757.261 30.5734 758.051 29.6134 758.947 28.5041C759.885 27.3947 760.803 26.2641 761.699 25.1121C762.637 23.9601 763.405 22.9147 764.003 21.9761H774.819V22.6161Z" fill="url(#paint30_linear_112_3966)"/>
<path d="M726.381 35.4161C730.434 35.4161 733.634 36.9521 735.981 40.0241C738.328 43.0534 739.501 47.5334 739.501 53.4641C739.501 57.3894 738.925 60.7174 737.773 63.4481C736.664 66.1787 735.106 68.2267 733.101 69.5921C731.096 70.9574 728.77 71.6401 726.125 71.6401C724.418 71.6401 722.946 71.4267 721.709 71.0001C720.472 70.5307 719.426 69.9761 718.573 69.3361C717.762 68.6534 717.058 67.9494 716.461 67.2241H716.077C716.162 67.9921 716.248 68.8881 716.333 69.9121C716.418 70.8934 716.461 71.9174 716.461 72.9841V86.3601H706.797V36.0561H714.669L716.013 40.6001H716.461C717.101 39.6187 717.848 38.7441 718.701 37.9761C719.597 37.2081 720.664 36.5894 721.901 36.1201C723.181 35.6507 724.674 35.4161 726.381 35.4161ZM723.181 43.0961C721.56 43.0961 720.258 43.4374 719.277 44.1201C718.296 44.8027 717.592 45.8267 717.165 47.1921C716.738 48.5574 716.504 50.2854 716.461 52.3761V53.4001C716.461 55.6187 716.653 57.5174 717.037 59.0961C717.464 60.6321 718.168 61.8054 719.149 62.6161C720.173 63.4267 721.538 63.8321 723.245 63.8321C724.696 63.8321 725.89 63.4267 726.829 62.6161C727.81 61.8054 728.536 60.6321 729.005 59.0961C729.474 57.5174 729.709 55.5974 729.709 53.3361C729.709 49.8801 729.154 47.3201 728.045 45.6561C726.978 43.9494 725.357 43.0961 723.181 43.0961Z" fill="url(#paint31_linear_112_3966)"/>
<path d="M666.897 35.4161C670.139 35.4161 672.934 36.0347 675.281 37.2721C677.627 38.4667 679.419 40.2587 680.657 42.6481C681.937 44.9947 682.577 47.8747 682.577 51.2881V55.9601H660.113C660.198 58.6054 661.009 60.6961 662.545 62.2321C664.081 63.7254 666.278 64.4721 669.137 64.4721C671.313 64.4721 673.297 64.2587 675.089 63.8321C676.881 63.4054 678.715 62.7654 680.593 61.9121V69.1441C678.886 69.9974 677.073 70.6161 675.153 71.0001C673.275 71.4267 670.929 71.6401 668.113 71.6401C664.657 71.6401 661.585 71.0001 658.897 69.7201C656.251 68.4401 654.161 66.4774 652.625 63.8321C651.089 61.1441 650.321 57.7947 650.321 53.7841C650.321 49.6881 651.003 46.2961 652.369 43.6081C653.777 40.8774 655.718 38.8294 658.193 37.4641C660.71 36.0987 663.611 35.4161 666.897 35.4161ZM667.153 42.2641C665.233 42.2641 663.675 42.8827 662.481 44.1201C661.286 45.3147 660.582 47.1067 660.369 49.4961H673.553C673.553 48.0881 673.318 46.8507 672.849 45.7841C672.379 44.7174 671.654 43.8641 670.673 43.2241C669.734 42.5841 668.561 42.2641 667.153 42.2641Z" fill="url(#paint32_linear_112_3966)"/>
<path d="M623.003 71.6401C619.163 71.6401 616.006 70.1254 613.531 67.0961C611.099 64.0241 609.883 59.5227 609.883 53.5921C609.883 47.5761 611.12 43.0534 613.595 40.0241C616.07 36.9521 619.312 35.4161 623.323 35.4161C624.987 35.4161 626.416 35.6507 627.611 36.1201C628.848 36.5467 629.915 37.1441 630.811 37.9121C631.707 38.6801 632.475 39.5547 633.115 40.5361H633.435C633.307 39.7681 633.179 38.7014 633.051 37.3361C632.966 35.9281 632.923 34.6481 632.923 33.4961V22.3601H642.651V71.0001H635.227L633.307 66.4561H632.923C632.326 67.4374 631.579 68.3121 630.683 69.0801C629.787 69.8481 628.699 70.4667 627.419 70.9361C626.182 71.4054 624.71 71.6401 623.003 71.6401ZM626.395 63.8961C629.04 63.8961 630.896 63.1494 631.963 61.6561C633.03 60.1201 633.563 57.7947 633.563 54.6801V53.6561C633.563 50.2854 633.051 47.7041 632.027 45.9121C631.003 44.1201 629.104 43.2241 626.331 43.2241C624.24 43.2241 622.598 44.1201 621.403 45.9121C620.251 47.7041 619.675 50.3067 619.675 53.7201C619.675 57.1334 620.251 59.6934 621.403 61.4001C622.598 63.0641 624.262 63.8961 626.395 63.8961Z" fill="url(#paint33_linear_112_3966)"/>
<path d="M587.178 53.4641C587.178 56.3654 586.773 58.9467 585.962 61.2081C585.194 63.4694 584.063 65.3681 582.57 66.9041C581.119 68.4401 579.349 69.6134 577.258 70.4241C575.167 71.2347 572.799 71.6401 570.154 71.6401C567.679 71.6401 565.418 71.2347 563.37 70.4241C561.322 69.6134 559.551 68.4401 558.058 66.9041C556.565 65.3681 555.391 63.4694 554.538 61.2081C553.685 58.9467 553.258 56.3654 553.258 53.4641C553.258 49.5814 553.941 46.2961 555.306 43.6081C556.671 40.9201 558.634 38.8934 561.194 37.5281C563.754 36.1201 566.805 35.4161 570.346 35.4161C573.631 35.4161 576.533 36.1201 579.05 37.5281C581.567 38.8934 583.551 40.9201 585.002 43.6081C586.453 46.2961 587.178 49.5814 587.178 53.4641ZM563.114 53.4641C563.114 55.7254 563.349 57.6667 563.818 59.2881C564.33 60.9094 565.098 62.1467 566.122 63.0001C567.189 63.8534 568.575 64.2801 570.282 64.2801C571.946 64.2801 573.29 63.8534 574.314 63.0001C575.381 62.1467 576.149 60.9094 576.618 59.2881C577.087 57.6667 577.322 55.7254 577.322 53.4641C577.322 51.1601 577.066 49.2187 576.554 47.6401C576.085 46.0614 575.338 44.8667 574.314 44.0561C573.29 43.2027 571.925 42.7761 570.218 42.7761C567.743 42.7761 565.93 43.6934 564.778 45.5281C563.669 47.3627 563.114 50.0081 563.114 53.4641Z" fill="url(#paint34_linear_112_3966)"/>
<path d="M532.226 35.4161C536.62 35.4161 539.97 36.4614 542.274 38.5521C544.578 40.6001 545.73 43.6507 545.73 47.7041V71.0001H539.01L537.154 66.2641H536.898C535.916 67.5014 534.892 68.5254 533.826 69.3361C532.802 70.1467 531.607 70.7227 530.242 71.0641C528.876 71.4481 527.212 71.6401 525.25 71.6401C523.202 71.6401 521.367 71.2561 519.746 70.4881C518.124 69.6774 516.844 68.4614 515.906 66.8401C514.967 65.2187 514.498 63.1707 514.498 60.6961C514.498 57.0267 515.82 54.2747 518.466 52.4401C521.111 50.6054 525.058 49.5814 530.306 49.3681L536.13 49.1761V48.0881C536.13 45.9974 535.66 44.5467 534.722 43.7361C533.783 42.8827 532.46 42.4561 530.754 42.4561C529.175 42.4561 527.554 42.7121 525.89 43.2241C524.226 43.7361 522.583 44.3547 520.962 45.0801L518.146 38.4881C519.98 37.5494 522.071 36.8027 524.418 36.2481C526.807 35.6934 529.41 35.4161 532.226 35.4161ZM532.482 55.0001C529.452 55.0854 527.34 55.5761 526.146 56.4721C524.951 57.3681 524.354 58.6267 524.354 60.2481C524.354 61.7414 524.759 62.8507 525.57 63.5761C526.423 64.2587 527.554 64.6001 528.962 64.6001C530.967 64.6001 532.652 64.0027 534.018 62.8081C535.426 61.6134 536.13 59.9067 536.13 57.6881V54.8081L532.482 55.0001ZM518.53 32.2801C518.658 30.6161 518.956 29.1867 519.426 27.9921C519.938 26.7547 520.578 25.7521 521.346 24.9841C522.114 24.1734 522.967 23.5761 523.906 23.1921C524.887 22.8081 525.932 22.6161 527.042 22.6161C527.895 22.6161 528.727 22.7867 529.538 23.1281C530.391 23.4267 531.202 23.8107 531.97 24.2801C532.78 24.7067 533.57 25.0907 534.338 25.4321C535.106 25.7307 535.874 25.8801 536.642 25.8801C537.282 25.8801 537.9 25.6027 538.498 25.0481C539.095 24.4934 539.522 23.6614 539.778 22.5521H544.45C544.194 25.8374 543.255 28.2694 541.634 29.8481C540.012 31.4267 538.114 32.2161 535.938 32.2161C535.084 32.2161 534.252 32.0667 533.442 31.7681C532.631 31.4267 531.82 31.0427 531.01 30.6161C530.199 30.1467 529.41 29.7627 528.642 29.4641C527.874 29.1227 527.106 28.9521 526.338 28.9521C525.698 28.9521 525.079 29.2294 524.482 29.7841C523.884 30.3387 523.458 31.1707 523.202 32.2801H518.53Z" fill="url(#paint35_linear_112_3966)"/>
<path d="M498.842 71.6401C495.471 71.6401 492.506 71.0214 489.946 69.7841C487.428 68.5041 485.466 66.5414 484.058 63.8961C482.65 61.2081 481.946 57.8161 481.946 53.7201C481.946 49.4107 482.714 45.9121 484.25 43.2241C485.786 40.5361 487.876 38.5734 490.522 37.3361C493.167 36.0561 496.175 35.4161 499.546 35.4161C501.594 35.4161 503.514 35.6294 505.306 36.0561C507.14 36.4827 508.762 37.0587 510.17 37.7841L507.29 45.0801C506.01 44.5254 504.708 44.0774 503.386 43.7361C502.106 43.3521 500.826 43.1601 499.546 43.1601C497.882 43.1601 496.474 43.5441 495.322 44.3121C494.17 45.0801 493.295 46.2534 492.698 47.8321C492.1 49.3681 491.802 51.3094 491.802 53.6561C491.802 55.9601 492.1 57.8587 492.698 59.3521C493.295 60.8454 494.17 61.9761 495.322 62.7441C496.474 63.4694 497.839 63.8321 499.418 63.8321C501.252 63.8321 502.98 63.5974 504.602 63.1281C506.223 62.6161 507.759 61.9547 509.21 61.1441V69.0161C507.887 69.8267 506.394 70.4667 504.73 70.9361C503.066 71.4054 501.103 71.6401 498.842 71.6401ZM505.306 79.2561C505.306 81.4321 504.516 83.1601 502.938 84.4401C501.359 85.7201 499.162 86.3601 496.346 86.3601C495.236 86.3601 494.191 86.2747 493.21 86.1041C492.271 85.9761 491.503 85.8054 490.906 85.5921V80.5361C491.503 80.7067 492.122 80.8347 492.762 80.9201C493.444 81.0481 494.106 81.1121 494.746 81.1121C495.855 81.1121 496.687 80.9201 497.242 80.5361C497.839 80.1947 498.138 79.6401 498.138 78.8721C498.138 78.0187 497.711 77.3574 496.858 76.8881C496.004 76.4187 494.767 76.0561 493.146 75.8001L495.386 71.0001H500.506L499.546 73.4961C500.442 73.6667 501.338 73.9654 502.234 74.3921C503.13 74.8614 503.855 75.4801 504.41 76.2481C505.007 77.0161 505.306 78.0187 505.306 79.2561Z" fill="url(#paint36_linear_112_3966)"/>
<path d="M474.177 36.0561V71.0001H466.753L465.537 66.5201H464.961C464.235 67.7147 463.297 68.6961 462.145 69.4641C461.035 70.2321 459.798 70.7867 458.433 71.1281C457.11 71.4694 455.702 71.6401 454.209 71.6401C451.734 71.6401 449.558 71.1921 447.681 70.2961C445.846 69.4001 444.395 68.0134 443.329 66.1361C442.305 64.2587 441.793 61.8267 441.793 58.8401V36.0561H451.521V56.4081C451.521 58.8827 451.947 60.7601 452.801 62.0401C453.697 63.2774 455.105 63.8961 457.025 63.8961C458.987 63.8961 460.502 63.4694 461.569 62.6161C462.678 61.7201 463.446 60.4187 463.873 58.7121C464.299 57.0054 464.513 54.9147 464.513 52.4401V36.0561H474.177Z" fill="url(#paint37_linear_112_3966)"/>
<path d="M413.003 71.6401C409.163 71.6401 406.006 70.1254 403.531 67.0961C401.099 64.0241 399.883 59.5227 399.883 53.5921C399.883 47.5761 401.12 43.0534 403.595 40.0241C406.07 36.9521 409.312 35.4161 413.323 35.4161C414.987 35.4161 416.416 35.6507 417.611 36.1201C418.848 36.5467 419.915 37.1441 420.811 37.9121C421.707 38.6801 422.475 39.5547 423.115 40.5361H423.435C423.307 39.7681 423.179 38.7014 423.051 37.3361C422.966 35.9281 422.923 34.6481 422.923 33.4961V22.3601H432.651V71.0001H425.227L423.307 66.4561H422.923C422.326 67.4374 421.579 68.3121 420.683 69.0801C419.787 69.8481 418.699 70.4667 417.419 70.9361C416.182 71.4054 414.71 71.6401 413.003 71.6401ZM416.395 63.8961C419.04 63.8961 420.896 63.1494 421.963 61.6561C423.03 60.1201 423.563 57.7947 423.563 54.6801V53.6561C423.563 50.2854 423.051 47.7041 422.027 45.9121C421.003 44.1201 419.104 43.2241 416.331 43.2241C414.24 43.2241 412.598 44.1201 411.403 45.9121C410.251 47.7041 409.675 50.3067 409.675 53.7201C409.675 57.1334 410.251 59.6934 411.403 61.4001C412.598 63.0641 414.262 63.8961 416.395 63.8961Z" fill="url(#paint38_linear_112_3966)"/>
<path d="M378.851 35.4161C383.245 35.4161 386.595 36.4614 388.899 38.5521C391.203 40.6001 392.355 43.6507 392.355 47.7041V71.0001H385.635L383.779 66.2641H383.523C382.541 67.5014 381.517 68.5254 380.451 69.3361C379.427 70.1467 378.232 70.7227 376.867 71.0641C375.501 71.4481 373.837 71.6401 371.875 71.6401C369.827 71.6401 367.992 71.2561 366.371 70.4881C364.749 69.6774 363.469 68.4614 362.531 66.8401C361.592 65.2187 361.123 63.1707 361.123 60.6961C361.123 57.0267 362.445 54.2747 365.091 52.4401C367.736 50.6054 371.683 49.5814 376.931 49.3681L382.755 49.1761V48.0881C382.755 45.9974 382.285 44.5467 381.347 43.7361C380.408 42.8827 379.085 42.4561 377.379 42.4561C375.8 42.4561 374.179 42.7121 372.515 43.2241C370.851 43.7361 369.208 44.3547 367.587 45.0801L364.771 38.4881C366.605 37.5494 368.696 36.8027 371.043 36.2481C373.432 35.6934 376.035 35.4161 378.851 35.4161ZM379.107 55.0001C376.077 55.0854 373.965 55.5761 372.771 56.4721C371.576 57.3681 370.979 58.6267 370.979 60.2481C370.979 61.7414 371.384 62.8507 372.195 63.5761C373.048 64.2587 374.179 64.6001 375.587 64.6001C377.592 64.6001 379.277 64.0027 380.643 62.8081C382.051 61.6134 382.755 59.9067 382.755 57.6881V54.8081L379.107 55.0001Z" fill="url(#paint39_linear_112_3966)"/>
<path d="M355.188 35.4161C355.828 35.4161 356.51 35.4587 357.236 35.5441C358.004 35.5867 358.601 35.6721 359.028 35.8001L358.068 44.8241C357.598 44.7387 357.044 44.6534 356.404 44.5681C355.764 44.4827 354.996 44.4401 354.1 44.4401C353.118 44.4401 352.116 44.5894 351.092 44.8881C350.11 45.1867 349.193 45.6774 348.34 46.3601C347.486 47.0427 346.804 47.9387 346.292 49.0481C345.78 50.1574 345.524 51.5654 345.524 53.2721V71.0001H335.86V36.0561H343.22L344.628 41.9441H345.076C345.758 40.7067 346.612 39.5974 347.636 38.6161C348.66 37.6347 349.812 36.8667 351.092 36.3121C352.372 35.7147 353.737 35.4161 355.188 35.4161Z" fill="url(#paint40_linear_112_3966)"/>
<path d="M320.798 71.0001H311.006V33.4321H298.654V25.3041H333.15V33.4321H320.798V71.0001Z" fill="url(#paint41_linear_112_3966)"/>
<defs>
<filter id="filter0_f_112_3966" x="278.194" y="13.9761" width="840.847" height="104.384" filterUnits="userSpaceOnUse" color-interpolation-filters="sRGB">
<feFlood flood-opacity="0" result="BackgroundImageFix"/>
<feBlend mode="normal" in="SourceGraphic" in2="BackgroundImageFix" result="shape"/>
<feGaussianBlur stdDeviation="10" result="effect1_foregroundBlur_112_3966"/>
</filter>
<linearGradient id="paint0_linear_112_3966" x1="197" y1="64.0036" x2="1203" y2="64.0024" gradientUnits="userSpaceOnUse">
<stop stop-color="white" stop-opacity="0.3"/>
<stop offset="0.495" stop-color="#CBB0F8"/>
<stop offset="1" stop-color="white" stop-opacity="0.3"/>
</linearGradient>
<linearGradient id="paint1_linear_112_3966" x1="1184.72" y1="65.5148" x2="-18552.4" y2="65.5716" gradientUnits="userSpaceOnUse">
<stop stop-color="#F4439F"/>
<stop offset="1" stop-color="#7C3AED"/>
</linearGradient>
<linearGradient id="paint2_linear_112_3966" x1="2186.47" y1="53.6766" x2="-17824.8" y2="53.7195" gradientUnits="userSpaceOnUse">
<stop stop-color="#F4439F"/>
<stop offset="1" stop-color="#7C3AED"/>
</linearGradient>
<linearGradient id="paint3_linear_112_3966" x1="2292.46" y1="53.2191" x2="-9771.75" y2="53.2341" gradientUnits="userSpaceOnUse">
<stop stop-color="#F4439F"/>
<stop offset="1" stop-color="#7C3AED"/>
</linearGradient>
<linearGradient id="paint4_linear_112_3966" x1="5729.09" y1="53.6766" x2="-18632.4" y2="53.7401" gradientUnits="userSpaceOnUse">
<stop stop-color="#F4439F"/>
<stop offset="1" stop-color="#7C3AED"/>
</linearGradient>
<linearGradient id="paint5_linear_112_3966" x1="5897.81" y1="53.6766" x2="-14769.6" y2="53.7223" gradientUnits="userSpaceOnUse">
<stop stop-color="#F4439F"/>
<stop offset="1" stop-color="#7C3AED"/>
</linearGradient>
<linearGradient id="paint6_linear_112_3966" x1="6675.75" y1="54.0309" x2="-13256.4" y2="54.0727" gradientUnits="userSpaceOnUse">
<stop stop-color="#F4439F"/>
<stop offset="1" stop-color="#7C3AED"/>
</linearGradient>
<linearGradient id="paint7_linear_112_3966" x1="21458.9" y1="65.9725" x2="-40038.9" y2="66.5169" gradientUnits="userSpaceOnUse">
<stop stop-color="#F4439F"/>
<stop offset="1" stop-color="#7C3AED"/>
</linearGradient>
<linearGradient id="paint8_linear_112_3966" x1="8097.39" y1="47.9842" x2="-11601.2" y2="48.0427" gradientUnits="userSpaceOnUse">
<stop stop-color="#F4439F"/>
<stop offset="1" stop-color="#7C3AED"/>
</linearGradient>
<linearGradient id="paint9_linear_112_3966" x1="9474.85" y1="65.7688" x2="-11192.5" y2="65.8315" gradientUnits="userSpaceOnUse">
<stop stop-color="#F4439F"/>
<stop offset="1" stop-color="#7C3AED"/>
</linearGradient>
<linearGradient id="paint10_linear_112_3966" x1="10000.3" y1="47.9843" x2="-9736.81" y2="48.043" gradientUnits="userSpaceOnUse">
<stop stop-color="#F4439F"/>
<stop offset="1" stop-color="#7C3AED"/>
</linearGradient>
<linearGradient id="paint11_linear_112_3966" x1="11537.3" y1="53.6767" x2="-8474" y2="53.7196" gradientUnits="userSpaceOnUse">
<stop stop-color="#F4439F"/>
<stop offset="1" stop-color="#7C3AED"/>
</linearGradient>
<linearGradient id="paint12_linear_112_3966" x1="12349.9" y1="65.5148" x2="-7348.64" y2="65.5713" gradientUnits="userSpaceOnUse">
<stop stop-color="#F4439F"/>
<stop offset="1" stop-color="#7C3AED"/>
</linearGradient>
<linearGradient id="paint13_linear_112_3966" x1="13277.5" y1="53.6767" x2="-5752.03" y2="53.7154" gradientUnits="userSpaceOnUse">
<stop stop-color="#F4439F"/>
<stop offset="1" stop-color="#7C3AED"/>
</linearGradient>
<linearGradient id="paint14_linear_112_3966" x1="15388.5" y1="65.3864" x2="-5278.85" y2="65.4483" gradientUnits="userSpaceOnUse">
<stop stop-color="#F4439F"/>
<stop offset="1" stop-color="#7C3AED"/>
</linearGradient>
<linearGradient id="paint15_linear_112_3966" x1="17920.4" y1="47.9843" x2="-4949.58" y2="48.063" gradientUnits="userSpaceOnUse">
<stop stop-color="#F4439F"/>
<stop offset="1" stop-color="#7C3AED"/>
</linearGradient>
<linearGradient id="paint16_linear_112_3966" x1="16649.7" y1="52.8729" x2="-3282.48" y2="52.9147" gradientUnits="userSpaceOnUse">
<stop stop-color="#F4439F"/>
<stop offset="1" stop-color="#7C3AED"/>
</linearGradient>
<linearGradient id="paint17_linear_112_3966" x1="17482.3" y1="65.5148" x2="-2216.26" y2="65.5713" gradientUnits="userSpaceOnUse">
<stop stop-color="#F4439F"/>
<stop offset="1" stop-color="#7C3AED"/>
</linearGradient>
<linearGradient id="paint18_linear_112_3966" x1="19321.3" y1="53.6767" x2="-1346.03" y2="53.7224" gradientUnits="userSpaceOnUse">
<stop stop-color="#F4439F"/>
<stop offset="1" stop-color="#7C3AED"/>
</linearGradient>
<linearGradient id="paint19_linear_112_3966" x1="26815.9" y1="54.031" x2="-1045.06" y2="54.1126" gradientUnits="userSpaceOnUse">
<stop stop-color="#F4439F"/>
<stop offset="1" stop-color="#7C3AED"/>
</linearGradient>
<linearGradient id="paint20_linear_112_3966" x1="1102.54" y1="58.5002" x2="296.54" y2="58.5003" gradientUnits="userSpaceOnUse">
<stop stop-color="#F4439F"/>
<stop offset="1" stop-color="#7C3AED"/>
</linearGradient>
<linearGradient id="paint21_linear_112_3966" x1="700" y1="72" x2="700" y2="117" gradientUnits="userSpaceOnUse">
<stop offset="0.0001" stop-color="white" stop-opacity="0.1"/>
<stop offset="1" stop-color="white" stop-opacity="0"/>
</linearGradient>
<linearGradient id="paint22_linear_112_3966" x1="1185.18" y1="-3.31764" x2="1050.65" y2="1664.97" gradientUnits="userSpaceOnUse">
<stop stop-color="#F4439F"/>
<stop offset="1" stop-color="#7C3AED"/>
</linearGradient>
<linearGradient id="paint23_linear_112_3966" x1="2186.92" y1="-35.6397" x2="1942.6" y2="2222.25" gradientUnits="userSpaceOnUse">
<stop stop-color="#F4439F"/>
<stop offset="1" stop-color="#7C3AED"/>
</linearGradient>
<linearGradient id="paint24_linear_112_3966" x1="2292.91" y1="-38.9293" x2="1867.06" y2="2249.84" gradientUnits="userSpaceOnUse">
<stop stop-color="#F4439F"/>
<stop offset="1" stop-color="#7C3AED"/>
</linearGradient>
<linearGradient id="paint25_linear_112_3966" x1="5729.55" y1="-35.6397" x2="5528.09" y2="2230.79" gradientUnits="userSpaceOnUse">
<stop stop-color="#F4439F"/>
<stop offset="1" stop-color="#7C3AED"/>
</linearGradient>
<linearGradient id="paint26_linear_112_3966" x1="5898.27" y1="-35.6396" x2="5661.53" y2="2223.89" gradientUnits="userSpaceOnUse">
<stop stop-color="#F4439F"/>
<stop offset="1" stop-color="#7C3AED"/>
</linearGradient>
<linearGradient id="paint27_linear_112_3966" x1="6676.21" y1="-36.6759" x2="6422.14" y2="2260.64" gradientUnits="userSpaceOnUse">
<stop stop-color="#F4439F"/>
<stop offset="1" stop-color="#7C3AED"/>
</linearGradient>
<linearGradient id="paint28_linear_112_3966" x1="21459.4" y1="-3.53219" x2="21414.9" y2="1694.29" gradientUnits="userSpaceOnUse">
<stop stop-color="#F4439F"/>
<stop offset="1" stop-color="#7C3AED"/>
</linearGradient>
<linearGradient id="paint29_linear_112_3966" x1="8097.85" y1="-18.9919" x2="7971.66" y2="1595.43" gradientUnits="userSpaceOnUse">
<stop stop-color="#F4439F"/>
<stop offset="1" stop-color="#7C3AED"/>
</linearGradient>
<linearGradient id="paint30_linear_112_3966" x1="9475.31" y1="-2.62427" x2="9348.72" y2="1653.85" gradientUnits="userSpaceOnUse">
<stop stop-color="#F4439F"/>
<stop offset="1" stop-color="#7C3AED"/>
</linearGradient>
<linearGradient id="paint31_linear_112_3966" x1="10000.8" y1="-18.9919" x2="9874.83" y2="1595.47" gradientUnits="userSpaceOnUse">
<stop stop-color="#F4439F"/>
<stop offset="1" stop-color="#7C3AED"/>
</linearGradient>
<linearGradient id="paint32_linear_112_3966" x1="11537.7" y1="-35.6397" x2="11293.4" y2="2222.25" gradientUnits="userSpaceOnUse">
<stop stop-color="#F4439F"/>
<stop offset="1" stop-color="#7C3AED"/>
</linearGradient>
<linearGradient id="paint33_linear_112_3966" x1="12350.4" y1="-3.31764" x2="12215.6" y2="1664.92" gradientUnits="userSpaceOnUse">
<stop stop-color="#F4439F"/>
<stop offset="1" stop-color="#7C3AED"/>
</linearGradient>
<linearGradient id="paint34_linear_112_3966" x1="13278" y1="-35.6396" x2="13021.4" y2="2219.49" gradientUnits="userSpaceOnUse">
<stop stop-color="#F4439F"/>
<stop offset="1" stop-color="#7C3AED"/>
</linearGradient>
<linearGradient id="paint35_linear_112_3966" x1="15389" y1="-3.66837" x2="15259.4" y2="1672.02" gradientUnits="userSpaceOnUse">
<stop stop-color="#F4439F"/>
<stop offset="1" stop-color="#7C3AED"/>
</linearGradient>
<linearGradient id="paint36_linear_112_3966" x1="17920.9" y1="-18.9919" x2="17812" y2="1597.97" gradientUnits="userSpaceOnUse">
<stop stop-color="#F4439F"/>
<stop offset="1" stop-color="#7C3AED"/>
</linearGradient>
<linearGradient id="paint37_linear_112_3966" x1="16650.1" y1="-37.8339" x2="16396.1" y2="2259.49" gradientUnits="userSpaceOnUse">
<stop stop-color="#F4439F"/>
<stop offset="1" stop-color="#7C3AED"/>
</linearGradient>
<linearGradient id="paint38_linear_112_3966" x1="17482.8" y1="-3.31767" x2="17348" y2="1664.92" gradientUnits="userSpaceOnUse">
<stop stop-color="#F4439F"/>
<stop offset="1" stop-color="#7C3AED"/>
</linearGradient>
<linearGradient id="paint39_linear_112_3966" x1="19321.8" y1="-35.6397" x2="19085.1" y2="2223.89" gradientUnits="userSpaceOnUse">
<stop stop-color="#F4439F"/>
<stop offset="1" stop-color="#7C3AED"/>
</linearGradient>
<linearGradient id="paint40_linear_112_3966" x1="26816.4" y1="-36.6759" x2="26633.5" y2="2274.28" gradientUnits="userSpaceOnUse">
<stop stop-color="#F4439F"/>
<stop offset="1" stop-color="#7C3AED"/>
</linearGradient>
<linearGradient id="paint41_linear_112_3966" x1="1103" y1="3.00018" x2="511.581" y2="394.27" gradientUnits="userSpaceOnUse">
<stop stop-color="#F4439F"/>
<stop offset="1" stop-color="#7C3AED"/>
</linearGradient>
</defs>
</svg>
