<svg width="1400" height="120" viewBox="0 0 1400 120" fill="none" xmlns="http://www.w3.org/2000/svg">
<path d="M377 53H1024V69H377V53Z" fill="url(#paint0_linear_112_4126)"/>
<mask id="mask0_112_4126" style="mask-type:alpha" maskUnits="userSpaceOnUse" x="377" y="69" width="647" height="45">
<path d="M377 69H1024V114H377V69Z" fill="#C4C4C4"/>
</mask>
<g mask="url(#mask0_112_4126)">
<g filter="url(#filter0_f_112_4126)">
<path d="M901.81 80.5799C899.644 80.5799 897.788 80.1932 896.242 79.4199C894.734 78.6466 893.574 77.5446 892.762 76.1139C891.988 74.6446 891.602 72.8852 891.602 70.8359C891.602 67.5106 892.781 64.9779 895.14 63.2379C897.498 61.4979 901.075 60.5506 905.87 60.3959L911.148 60.2219V59.1779C911.148 57.4379 910.664 56.1812 909.698 55.4079C908.77 54.6346 907.262 54.2479 905.174 54.2479C903.82 54.2479 902.428 54.4219 900.998 54.7699C899.567 55.0792 897.962 55.5819 896.184 56.2779L893.69 50.3619C895.739 49.4726 897.808 48.8152 899.896 48.3899C902.022 47.9646 904.188 47.7519 906.392 47.7519C910.993 47.7519 914.376 48.7379 916.542 50.7099C918.746 52.6432 919.848 55.6399 919.848 59.6999V79.9999H913.7L912.018 75.6499H911.786C910.935 76.7712 910.007 77.6992 909.002 78.4339C907.996 79.1686 906.894 79.7099 905.696 80.0579C904.536 80.4059 903.24 80.5799 901.81 80.5799ZM904.826 74.1999C906.604 74.1999 908.093 73.6586 909.292 72.5759C910.529 71.4932 911.148 69.9466 911.148 67.9359V65.3839L907.784 65.4999C905.193 65.5772 903.337 66.0219 902.216 66.8339C901.094 67.6459 900.534 68.7866 900.534 70.2559C900.534 71.5706 900.92 72.5566 901.694 73.2139C902.467 73.8712 903.511 74.1999 904.826 74.1999Z" fill="url(#paint1_linear_112_4126)" fill-opacity="0.7"/>
<path d="M852.7 88.1199V73.3879H856.238C856.818 72.6532 857.321 71.8606 857.746 71.0099C858.21 70.1592 858.577 69.1926 858.848 68.1099C859.119 67.0272 859.312 65.8092 859.428 64.4559C859.505 63.4119 859.583 62.3099 859.66 61.1499C859.737 59.9512 859.796 58.6946 859.834 57.3799C859.912 56.0652 859.989 54.6539 860.066 53.1459C860.143 51.6379 860.201 50.0332 860.24 48.3319H884.31V73.3879H888.776V88.1199H880.714V79.9999H860.762V88.1199H852.7ZM864.764 73.3879H875.668V54.9439H867.722C867.684 56.1812 867.625 57.3799 867.548 58.5399C867.509 59.6612 867.451 60.7052 867.374 61.6719C867.335 62.6386 867.277 63.5279 867.2 64.3399C867.045 66.4666 866.756 68.2646 866.33 69.7339C865.905 71.1646 865.383 72.3826 864.764 73.3879Z" fill="url(#paint2_linear_112_4126)" fill-opacity="0.7"/>
<path d="M834.875 80.5799C832.478 80.5799 830.312 80.2126 828.379 79.4779C826.484 78.7046 824.86 77.6219 823.507 76.2299C822.192 74.7992 821.187 73.0786 820.491 71.0679C819.795 69.0186 819.447 66.6986 819.447 64.1079C819.447 60.7439 820.066 57.8439 821.303 55.4079C822.579 52.9332 824.377 51.0386 826.697 49.7239C829.056 48.4092 831.84 47.7519 835.049 47.7519C838.258 47.7519 841.004 48.4092 843.285 49.7239C845.605 51.0386 847.384 52.9139 848.621 55.3499C849.858 57.7859 850.477 60.7052 850.477 64.1079C850.477 66.6599 850.11 68.9606 849.375 71.0099C848.679 73.0592 847.654 74.7992 846.301 76.2299C844.948 77.6219 843.304 78.7046 841.371 79.4779C839.476 80.2126 837.311 80.5799 834.875 80.5799ZM834.991 73.9679C837.311 73.9679 838.993 73.1752 840.037 71.5899C841.12 70.0046 841.661 67.5106 841.661 64.1079C841.661 60.7052 841.12 58.2306 840.037 56.6839C838.993 55.1372 837.292 54.3639 834.933 54.3639C832.613 54.3639 830.912 55.1372 829.829 56.6839C828.785 58.2306 828.263 60.7052 828.263 64.1079C828.263 67.5106 828.804 70.0046 829.887 71.5899C830.97 73.1752 832.671 73.9679 834.991 73.9679Z" fill="url(#paint3_linear_112_4126)" fill-opacity="0.7"/>
<path d="M786.636 79.9999V48.3319H800.672C805.158 48.3319 808.464 49.0086 810.59 50.3619C812.717 51.7152 813.78 53.7452 813.78 56.4519C813.78 58.2306 813.239 59.7192 812.156 60.9179C811.112 62.0779 809.566 62.8512 807.516 63.2379V63.4699C809.72 63.7792 811.46 64.5719 812.736 65.8479C814.051 67.0852 814.708 68.7286 814.708 70.7779C814.708 72.4406 814.283 73.9679 813.432 75.3599C812.582 76.7519 811.132 77.8732 809.082 78.7239C807.072 79.5746 804.288 79.9999 800.73 79.9999H786.636ZM795.394 73.9679H800.208C802.18 73.9679 803.611 73.6586 804.5 73.0399C805.39 72.4212 805.834 71.5126 805.834 70.3139C805.834 69.0379 805.37 68.0906 804.442 67.4719C803.553 66.8532 802.161 66.5439 800.266 66.5439H795.394V73.9679ZM795.394 60.6859H799.918C801.697 60.6859 802.992 60.4346 803.804 59.9319C804.655 59.3906 805.08 58.5786 805.08 57.4959C805.08 56.4519 804.694 55.6786 803.92 55.1759C803.186 54.6346 802.064 54.3639 800.556 54.3639H795.394V60.6859Z" fill="url(#paint4_linear_112_4126)" fill-opacity="0.7"/>
<path d="M752.086 79.9999V48.3319H766.122C770.607 48.3319 773.913 49.0086 776.04 50.3619C778.166 51.7152 779.23 53.7452 779.23 56.4519C779.23 58.2306 778.688 59.7192 777.606 60.9179C776.562 62.0779 775.015 62.8512 772.966 63.2379V63.4699C775.17 63.7792 776.91 64.5719 778.186 65.8479C779.5 67.0852 780.158 68.7286 780.158 70.7779C780.158 72.4406 779.732 73.9679 778.882 75.3599C778.031 76.7519 776.581 77.8732 774.532 78.7239C772.521 79.5746 769.737 79.9999 766.18 79.9999H752.086ZM760.844 73.9679H765.658C767.63 73.9679 769.06 73.6586 769.95 73.0399C770.839 72.4212 771.284 71.5126 771.284 70.3139C771.284 69.0379 770.82 68.0906 769.892 67.4719C769.002 66.8532 767.61 66.5439 765.716 66.5439H760.844V73.9679ZM760.844 60.6859H765.368C767.146 60.6859 768.442 60.4346 769.254 59.9319C770.104 59.3906 770.53 58.5786 770.53 57.4959C770.53 56.4519 770.143 55.6786 769.37 55.1759C768.635 54.6346 767.514 54.3639 766.006 54.3639H760.844V60.6859Z" fill="url(#paint5_linear_112_4126)" fill-opacity="0.7"/>
<path d="M696.145 88.1199V73.3879H699.683C700.263 72.6532 700.766 71.8606 701.191 71.0099C701.655 70.1592 702.023 69.1926 702.293 68.1099C702.564 67.0272 702.757 65.8092 702.873 64.4559C702.951 63.4119 703.028 62.3099 703.105 61.1499C703.183 59.9512 703.241 58.6946 703.279 57.3799C703.357 56.0652 703.434 54.6539 703.511 53.1459C703.589 51.6379 703.647 50.0332 703.685 48.3319H727.755V73.3879H732.221V88.1199H724.159V79.9999H704.207V88.1199H696.145ZM708.209 73.3879H719.113V54.9439H711.167C711.129 56.1812 711.071 57.3799 710.993 58.5399C710.955 59.6612 710.897 60.7052 710.819 61.6719C710.781 62.6386 710.723 63.5279 710.645 64.3399C710.491 66.4666 710.201 68.2646 709.775 69.7339C709.35 71.1646 708.828 72.3826 708.209 73.3879Z" fill="url(#paint6_linear_112_4126)" fill-opacity="0.7"/>
<path d="M678.32 80.5799C675.923 80.5799 673.758 80.2126 671.824 79.4779C669.93 78.7046 668.306 77.6219 666.952 76.2299C665.638 74.7992 664.632 73.0786 663.936 71.0679C663.24 69.0186 662.892 66.6986 662.892 64.1079C662.892 60.7439 663.511 57.8439 664.748 55.4079C666.024 52.9332 667.822 51.0386 670.142 49.7239C672.501 48.4092 675.285 47.7519 678.494 47.7519C681.704 47.7519 684.449 48.4092 686.73 49.7239C689.05 51.0386 690.829 52.9139 692.066 55.3499C693.304 57.7859 693.922 60.7052 693.922 64.1079C693.922 66.6599 693.555 68.9606 692.82 71.0099C692.124 73.0592 691.1 74.7992 689.746 76.2299C688.393 77.6219 686.75 78.7046 684.816 79.4779C682.922 80.2126 680.756 80.5799 678.32 80.5799ZM678.436 73.9679C680.756 73.9679 682.438 73.1752 683.482 71.5899C684.565 70.0046 685.106 67.5106 685.106 64.1079C685.106 60.7052 684.565 58.2306 683.482 56.6839C682.438 55.1372 680.737 54.3639 678.378 54.3639C676.058 54.3639 674.357 55.1372 673.274 56.6839C672.23 58.2306 671.708 60.7052 671.708 64.1079C671.708 67.5106 672.25 70.0046 673.332 71.5899C674.415 73.1752 676.116 73.9679 678.436 73.9679Z" fill="url(#paint7_linear_112_4126)" fill-opacity="0.7"/>
<path d="M630.082 79.9999V48.3319H644.118C648.603 48.3319 651.909 49.0086 654.036 50.3619C656.162 51.7152 657.226 53.7452 657.226 56.4519C657.226 58.2306 656.684 59.7192 655.602 60.9179C654.558 62.0779 653.011 62.8512 650.962 63.2379V63.4699C653.166 63.7792 654.906 64.5719 656.182 65.8479C657.496 67.0852 658.154 68.7286 658.154 70.7779C658.154 72.4406 657.728 73.9679 656.878 75.3599C656.027 76.7519 654.577 77.8732 652.528 78.7239C650.517 79.5746 647.733 79.9999 644.176 79.9999H630.082ZM638.84 73.9679H643.654C645.626 73.9679 647.056 73.6586 647.946 73.0399C648.835 72.4212 649.28 71.5126 649.28 70.3139C649.28 69.0379 648.816 68.0906 647.888 67.4719C646.998 66.8532 645.606 66.5439 643.712 66.5439H638.84V73.9679ZM638.84 60.6859H643.364C645.142 60.6859 646.438 60.4346 647.25 59.9319C648.1 59.3906 648.526 58.5786 648.526 57.4959C648.526 56.4519 648.139 55.6786 647.366 55.1759C646.631 54.6346 645.51 54.3639 644.002 54.3639H638.84V60.6859Z" fill="url(#paint8_linear_112_4126)" fill-opacity="0.7"/>
<path d="M610.711 80.6379C607.463 80.6379 604.601 80.0386 602.127 78.8399C599.691 77.6026 597.796 75.7659 596.443 73.3299C595.089 70.8939 594.413 67.8779 594.413 64.2819C594.413 60.7632 595.051 57.7666 596.327 55.2919C597.603 52.8172 599.381 50.9419 601.663 49.6659C603.944 48.3899 606.631 47.7519 609.725 47.7519C612.702 47.7519 615.215 48.3319 617.265 49.4919C619.353 50.6519 620.938 52.3146 622.021 54.4799C623.103 56.6066 623.645 59.1586 623.645 62.1359V66.4279H603.345C603.422 68.7866 604.195 70.6232 605.665 71.9379C607.134 73.2526 609.183 73.9099 611.813 73.9099C613.514 73.9099 615.157 73.6972 616.743 73.2719C618.367 72.8466 620.049 72.2472 621.789 71.4739V78.3179C620.165 79.0912 618.463 79.6712 616.685 80.0579C614.945 80.4446 612.953 80.6379 610.711 80.6379ZM603.519 60.5119H615.409C615.409 59.2359 615.196 58.1146 614.771 57.1479C614.384 56.1812 613.765 55.4079 612.915 54.8279C612.064 54.2479 610.981 53.9579 609.667 53.9579C607.927 53.9579 606.515 54.5186 605.433 55.6399C604.35 56.7226 603.712 58.3466 603.519 60.5119Z" fill="url(#paint9_linear_112_4126)" fill-opacity="0.7"/>
<path d="M559.8 93.9199V48.3319H566.818L568.036 52.4499H568.442C569.022 51.5992 569.718 50.8259 570.53 50.1299C571.342 49.3952 572.309 48.8152 573.43 48.3899C574.59 47.9646 575.924 47.7519 577.432 47.7519C580.989 47.7519 583.87 49.1439 586.074 51.9279C588.278 54.6732 589.38 58.7332 589.38 64.1079C589.38 67.7039 588.858 70.7392 587.814 73.2139C586.77 75.6499 585.339 77.4866 583.522 78.7239C581.705 79.9612 579.597 80.5799 577.2 80.5799C575.692 80.5799 574.377 80.3866 573.256 79.9999C572.173 79.6132 571.245 79.1106 570.472 78.4919C569.699 77.8732 569.022 77.2159 568.442 76.5199H567.978C568.133 77.2546 568.249 78.0279 568.326 78.8399C568.403 79.6132 568.442 80.3866 568.442 81.1599V93.9199H559.8ZM574.764 73.5619C576.079 73.5619 577.161 73.1946 578.012 72.4599C578.863 71.7252 579.501 70.6426 579.926 69.2119C580.351 67.7812 580.564 66.0412 580.564 63.9919C580.564 60.8986 580.081 58.5786 579.114 57.0319C578.186 55.4466 576.697 54.6539 574.648 54.6539C573.14 54.6539 571.941 54.9632 571.052 55.5819C570.163 56.2006 569.505 57.1479 569.08 58.4239C568.693 59.6612 568.481 61.2272 568.442 63.1219V64.0499C568.442 66.0992 568.635 67.8392 569.022 69.2699C569.409 70.6619 570.066 71.7252 570.994 72.4599C571.922 73.1946 573.179 73.5619 574.764 73.5619Z" fill="url(#paint10_linear_112_4126)" fill-opacity="0.7"/>
<path d="M540.023 80.6379C536.775 80.6379 533.914 80.0386 531.439 78.8399C529.003 77.6026 527.108 75.7659 525.755 73.3299C524.402 70.8939 523.725 67.8779 523.725 64.2819C523.725 60.7632 524.363 57.7666 525.639 55.2919C526.915 52.8172 528.694 50.9419 530.975 49.6659C533.256 48.3899 535.944 47.7519 539.037 47.7519C542.014 47.7519 544.528 48.3319 546.577 49.4919C548.665 50.6519 550.25 52.3146 551.333 54.4799C552.416 56.6066 552.957 59.1586 552.957 62.1359V66.4279H532.657C532.734 68.7866 533.508 70.6232 534.977 71.9379C536.446 73.2526 538.496 73.9099 541.125 73.9099C542.826 73.9099 544.47 73.6972 546.055 73.2719C547.679 72.8466 549.361 72.2472 551.101 71.4739V78.3179C549.477 79.0912 547.776 79.6712 545.997 80.0579C544.257 80.4446 542.266 80.6379 540.023 80.6379ZM532.831 60.5119H544.721C544.721 59.2359 544.508 58.1146 544.083 57.1479C543.696 56.1812 543.078 55.4079 542.227 54.8279C541.376 54.2479 540.294 53.9579 538.979 53.9579C537.239 53.9579 535.828 54.5186 534.745 55.6399C533.662 56.7226 533.024 58.3466 532.831 60.5119Z" fill="url(#paint11_linear_112_4126)" fill-opacity="0.7"/>
<path d="M482.329 79.9999V38.5879H516.085V79.9999H507.327V45.8959H491.087V79.9999H482.329Z" fill="url(#paint12_linear_112_4126)" fill-opacity="0.7"/>
</g>
</g>
<path d="M377 69H1024V102C1024 108.627 1018.63 114 1012 114H389C382.373 114 377 108.627 377 102V69Z" fill="url(#paint13_linear_112_4126)"/>
<path d="M901.81 68.5799C899.644 68.5799 897.788 68.1932 896.242 67.4199C894.734 66.6466 893.574 65.5446 892.762 64.1139C891.988 62.6446 891.602 60.8852 891.602 58.8359C891.602 55.5106 892.781 52.9779 895.14 51.2379C897.498 49.4979 901.075 48.5506 905.87 48.3959L911.148 48.2219V47.1779C911.148 45.4379 910.664 44.1812 909.698 43.4079C908.77 42.6346 907.262 42.2479 905.174 42.2479C903.82 42.2479 902.428 42.4219 900.998 42.7699C899.567 43.0792 897.962 43.5819 896.184 44.2779L893.69 38.3619C895.739 37.4726 897.808 36.8152 899.896 36.3899C902.022 35.9646 904.188 35.7519 906.392 35.7519C910.993 35.7519 914.376 36.7379 916.542 38.7099C918.746 40.6432 919.848 43.6399 919.848 47.6999V67.9999H913.7L912.018 63.6499H911.786C910.935 64.7712 910.007 65.6992 909.002 66.4339C907.996 67.1686 906.894 67.7099 905.696 68.0579C904.536 68.4059 903.24 68.5799 901.81 68.5799ZM904.826 62.1999C906.604 62.1999 908.093 61.6586 909.292 60.5759C910.529 59.4932 911.148 57.9466 911.148 55.9359V53.3839L907.784 53.4999C905.193 53.5772 903.337 54.0219 902.216 54.8339C901.094 55.6459 900.534 56.7866 900.534 58.2559C900.534 59.5706 900.92 60.5566 901.694 61.2139C902.467 61.8712 903.511 62.1999 904.826 62.1999Z" fill="url(#paint14_linear_112_4126)"/>
<path d="M852.7 76.1199V61.3879H856.238C856.818 60.6532 857.321 59.8606 857.746 59.0099C858.21 58.1592 858.577 57.1926 858.848 56.1099C859.119 55.0272 859.312 53.8092 859.428 52.4559C859.505 51.4119 859.583 50.3099 859.66 49.1499C859.737 47.9512 859.796 46.6946 859.834 45.3799C859.912 44.0652 859.989 42.6539 860.066 41.1459C860.143 39.6379 860.201 38.0332 860.24 36.3319H884.31V61.3879H888.776V76.1199H880.714V67.9999H860.762V76.1199H852.7ZM864.764 61.3879H875.668V42.9439H867.722C867.684 44.1812 867.625 45.3799 867.548 46.5399C867.509 47.6612 867.451 48.7052 867.374 49.6719C867.335 50.6386 867.277 51.5279 867.2 52.3399C867.045 54.4666 866.756 56.2646 866.33 57.7339C865.905 59.1646 865.383 60.3826 864.764 61.3879Z" fill="url(#paint15_linear_112_4126)"/>
<path d="M834.875 68.5799C832.478 68.5799 830.312 68.2126 828.379 67.4779C826.484 66.7046 824.86 65.6219 823.507 64.2299C822.192 62.7992 821.187 61.0786 820.491 59.0679C819.795 57.0186 819.447 54.6986 819.447 52.1079C819.447 48.7439 820.066 45.8439 821.303 43.4079C822.579 40.9332 824.377 39.0386 826.697 37.7239C829.056 36.4092 831.84 35.7519 835.049 35.7519C838.258 35.7519 841.004 36.4092 843.285 37.7239C845.605 39.0386 847.384 40.9139 848.621 43.3499C849.858 45.7859 850.477 48.7052 850.477 52.1079C850.477 54.6599 850.11 56.9606 849.375 59.0099C848.679 61.0592 847.654 62.7992 846.301 64.2299C844.948 65.6219 843.304 66.7046 841.371 67.4779C839.476 68.2126 837.311 68.5799 834.875 68.5799ZM834.991 61.9679C837.311 61.9679 838.993 61.1752 840.037 59.5899C841.12 58.0046 841.661 55.5106 841.661 52.1079C841.661 48.7052 841.12 46.2306 840.037 44.6839C838.993 43.1372 837.292 42.3639 834.933 42.3639C832.613 42.3639 830.912 43.1372 829.829 44.6839C828.785 46.2306 828.263 48.7052 828.263 52.1079C828.263 55.5106 828.804 58.0046 829.887 59.5899C830.97 61.1752 832.671 61.9679 834.991 61.9679Z" fill="url(#paint16_linear_112_4126)"/>
<path d="M786.636 67.9999V36.3319H800.672C805.158 36.3319 808.464 37.0086 810.59 38.3619C812.717 39.7152 813.78 41.7452 813.78 44.4519C813.78 46.2306 813.239 47.7192 812.156 48.9179C811.112 50.0779 809.566 50.8512 807.516 51.2379V51.4699C809.72 51.7792 811.46 52.5719 812.736 53.8479C814.051 55.0852 814.708 56.7286 814.708 58.7779C814.708 60.4406 814.283 61.9679 813.432 63.3599C812.582 64.7519 811.132 65.8732 809.082 66.7239C807.072 67.5746 804.288 67.9999 800.73 67.9999H786.636ZM795.394 61.9679H800.208C802.18 61.9679 803.611 61.6586 804.5 61.0399C805.39 60.4212 805.834 59.5126 805.834 58.3139C805.834 57.0379 805.37 56.0906 804.442 55.4719C803.553 54.8532 802.161 54.5439 800.266 54.5439H795.394V61.9679ZM795.394 48.6859H799.918C801.697 48.6859 802.992 48.4346 803.804 47.9319C804.655 47.3906 805.08 46.5786 805.08 45.4959C805.08 44.4519 804.694 43.6786 803.92 43.1759C803.186 42.6346 802.064 42.3639 800.556 42.3639H795.394V48.6859Z" fill="url(#paint17_linear_112_4126)"/>
<path d="M752.086 67.9999V36.3319H766.122C770.607 36.3319 773.913 37.0086 776.04 38.3619C778.166 39.7152 779.23 41.7452 779.23 44.4519C779.23 46.2306 778.688 47.7192 777.606 48.9179C776.562 50.0779 775.015 50.8512 772.966 51.2379V51.4699C775.17 51.7792 776.91 52.5719 778.186 53.8479C779.5 55.0852 780.158 56.7286 780.158 58.7779C780.158 60.4406 779.732 61.9679 778.882 63.3599C778.031 64.7519 776.581 65.8732 774.532 66.7239C772.521 67.5746 769.737 67.9999 766.18 67.9999H752.086ZM760.844 61.9679H765.658C767.63 61.9679 769.06 61.6586 769.95 61.0399C770.839 60.4212 771.284 59.5126 771.284 58.3139C771.284 57.0379 770.82 56.0906 769.892 55.4719C769.002 54.8532 767.61 54.5439 765.716 54.5439H760.844V61.9679ZM760.844 48.6859H765.368C767.146 48.6859 768.442 48.4346 769.254 47.9319C770.104 47.3906 770.53 46.5786 770.53 45.4959C770.53 44.4519 770.143 43.6786 769.37 43.1759C768.635 42.6346 767.514 42.3639 766.006 42.3639H760.844V48.6859Z" fill="url(#paint18_linear_112_4126)"/>
<path d="M696.145 76.1199V61.3879H699.683C700.263 60.6532 700.766 59.8606 701.191 59.0099C701.655 58.1592 702.023 57.1926 702.293 56.1099C702.564 55.0272 702.757 53.8092 702.873 52.4559C702.951 51.4119 703.028 50.3099 703.105 49.1499C703.183 47.9512 703.241 46.6946 703.279 45.3799C703.357 44.0652 703.434 42.6539 703.511 41.1459C703.589 39.6379 703.647 38.0332 703.685 36.3319H727.755V61.3879H732.221V76.1199H724.159V67.9999H704.207V76.1199H696.145ZM708.209 61.3879H719.113V42.9439H711.167C711.129 44.1812 711.071 45.3799 710.993 46.5399C710.955 47.6612 710.897 48.7052 710.819 49.6719C710.781 50.6386 710.723 51.5279 710.645 52.3399C710.491 54.4666 710.201 56.2646 709.775 57.7339C709.35 59.1646 708.828 60.3826 708.209 61.3879Z" fill="url(#paint19_linear_112_4126)"/>
<path d="M678.32 68.5799C675.923 68.5799 673.758 68.2126 671.824 67.4779C669.93 66.7046 668.306 65.6219 666.952 64.2299C665.638 62.7992 664.632 61.0786 663.936 59.0679C663.24 57.0186 662.892 54.6986 662.892 52.1079C662.892 48.7439 663.511 45.8439 664.748 43.4079C666.024 40.9332 667.822 39.0386 670.142 37.7239C672.501 36.4092 675.285 35.7519 678.494 35.7519C681.704 35.7519 684.449 36.4092 686.73 37.7239C689.05 39.0386 690.829 40.9139 692.066 43.3499C693.304 45.7859 693.922 48.7052 693.922 52.1079C693.922 54.6599 693.555 56.9606 692.82 59.0099C692.124 61.0592 691.1 62.7992 689.746 64.2299C688.393 65.6219 686.75 66.7046 684.816 67.4779C682.922 68.2126 680.756 68.5799 678.32 68.5799ZM678.436 61.9679C680.756 61.9679 682.438 61.1752 683.482 59.5899C684.565 58.0046 685.106 55.5106 685.106 52.1079C685.106 48.7052 684.565 46.2306 683.482 44.6839C682.438 43.1372 680.737 42.3639 678.378 42.3639C676.058 42.3639 674.357 43.1372 673.274 44.6839C672.23 46.2306 671.708 48.7052 671.708 52.1079C671.708 55.5106 672.25 58.0046 673.332 59.5899C674.415 61.1752 676.116 61.9679 678.436 61.9679Z" fill="url(#paint20_linear_112_4126)"/>
<path d="M630.082 67.9999V36.3319H644.118C648.603 36.3319 651.909 37.0086 654.036 38.3619C656.162 39.7152 657.226 41.7452 657.226 44.4519C657.226 46.2306 656.684 47.7192 655.602 48.9179C654.558 50.0779 653.011 50.8512 650.962 51.2379V51.4699C653.166 51.7792 654.906 52.5719 656.182 53.8479C657.496 55.0852 658.154 56.7286 658.154 58.7779C658.154 60.4406 657.728 61.9679 656.878 63.3599C656.027 64.7519 654.577 65.8732 652.528 66.7239C650.517 67.5746 647.733 67.9999 644.176 67.9999H630.082ZM638.84 61.9679H643.654C645.626 61.9679 647.056 61.6586 647.946 61.0399C648.835 60.4212 649.28 59.5126 649.28 58.3139C649.28 57.0379 648.816 56.0906 647.888 55.4719C646.998 54.8532 645.606 54.5439 643.712 54.5439H638.84V61.9679ZM638.84 48.6859H643.364C645.142 48.6859 646.438 48.4346 647.25 47.9319C648.1 47.3906 648.526 46.5786 648.526 45.4959C648.526 44.4519 648.139 43.6786 647.366 43.1759C646.631 42.6346 645.51 42.3639 644.002 42.3639H638.84V48.6859Z" fill="url(#paint21_linear_112_4126)"/>
<path d="M610.711 68.6379C607.463 68.6379 604.601 68.0386 602.127 66.8399C599.691 65.6026 597.796 63.7659 596.443 61.3299C595.089 58.8939 594.413 55.8779 594.413 52.2819C594.413 48.7632 595.051 45.7666 596.327 43.2919C597.603 40.8172 599.381 38.9419 601.663 37.6659C603.944 36.3899 606.631 35.7519 609.725 35.7519C612.702 35.7519 615.215 36.3319 617.265 37.4919C619.353 38.6519 620.938 40.3146 622.021 42.4799C623.103 44.6066 623.645 47.1586 623.645 50.1359V54.4279H603.345C603.422 56.7866 604.195 58.6232 605.665 59.9379C607.134 61.2526 609.183 61.9099 611.813 61.9099C613.514 61.9099 615.157 61.6972 616.743 61.2719C618.367 60.8466 620.049 60.2472 621.789 59.4739V66.3179C620.165 67.0912 618.463 67.6712 616.685 68.0579C614.945 68.4446 612.953 68.6379 610.711 68.6379ZM603.519 48.5119H615.409C615.409 47.2359 615.196 46.1146 614.771 45.1479C614.384 44.1812 613.765 43.4079 612.915 42.8279C612.064 42.2479 610.981 41.9579 609.667 41.9579C607.927 41.9579 606.515 42.5186 605.433 43.6399C604.35 44.7226 603.712 46.3466 603.519 48.5119Z" fill="url(#paint22_linear_112_4126)"/>
<path d="M559.8 81.9199V36.3319H566.818L568.036 40.4499H568.442C569.022 39.5992 569.718 38.8259 570.53 38.1299C571.342 37.3952 572.309 36.8152 573.43 36.3899C574.59 35.9646 575.924 35.7519 577.432 35.7519C580.989 35.7519 583.87 37.1439 586.074 39.9279C588.278 42.6732 589.38 46.7332 589.38 52.1079C589.38 55.7039 588.858 58.7392 587.814 61.2139C586.77 63.6499 585.339 65.4866 583.522 66.7239C581.705 67.9612 579.597 68.5799 577.2 68.5799C575.692 68.5799 574.377 68.3866 573.256 67.9999C572.173 67.6132 571.245 67.1106 570.472 66.4919C569.699 65.8732 569.022 65.2159 568.442 64.5199H567.978C568.133 65.2546 568.249 66.0279 568.326 66.8399C568.403 67.6132 568.442 68.3866 568.442 69.1599V81.9199H559.8ZM574.764 61.5619C576.079 61.5619 577.161 61.1946 578.012 60.4599C578.863 59.7252 579.501 58.6426 579.926 57.2119C580.351 55.7812 580.564 54.0412 580.564 51.9919C580.564 48.8986 580.081 46.5786 579.114 45.0319C578.186 43.4466 576.697 42.6539 574.648 42.6539C573.14 42.6539 571.941 42.9632 571.052 43.5819C570.163 44.2006 569.505 45.1479 569.08 46.4239C568.693 47.6612 568.481 49.2272 568.442 51.1219V52.0499C568.442 54.0992 568.635 55.8392 569.022 57.2699C569.409 58.6619 570.066 59.7252 570.994 60.4599C571.922 61.1946 573.179 61.5619 574.764 61.5619Z" fill="url(#paint23_linear_112_4126)"/>
<path d="M540.023 68.6379C536.775 68.6379 533.914 68.0386 531.439 66.8399C529.003 65.6026 527.108 63.7659 525.755 61.3299C524.402 58.8939 523.725 55.8779 523.725 52.2819C523.725 48.7632 524.363 45.7666 525.639 43.2919C526.915 40.8172 528.694 38.9419 530.975 37.6659C533.256 36.3899 535.944 35.7519 539.037 35.7519C542.014 35.7519 544.528 36.3319 546.577 37.4919C548.665 38.6519 550.25 40.3146 551.333 42.4799C552.416 44.6066 552.957 47.1586 552.957 50.1359V54.4279H532.657C532.734 56.7866 533.508 58.6232 534.977 59.9379C536.446 61.2526 538.496 61.9099 541.125 61.9099C542.826 61.9099 544.47 61.6972 546.055 61.2719C547.679 60.8466 549.361 60.2472 551.101 59.4739V66.3179C549.477 67.0912 547.776 67.6712 545.997 68.0579C544.257 68.4446 542.266 68.6379 540.023 68.6379ZM532.831 48.5119H544.721C544.721 47.2359 544.508 46.1146 544.083 45.1479C543.696 44.1812 543.078 43.4079 542.227 42.8279C541.376 42.2479 540.294 41.9579 538.979 41.9579C537.239 41.9579 535.828 42.5186 534.745 43.6399C533.662 44.7226 533.024 46.3466 532.831 48.5119Z" fill="url(#paint24_linear_112_4126)"/>
<path d="M482.329 67.9999V26.5879H516.085V67.9999H507.327V33.8959H491.087V67.9999H482.329Z" fill="url(#paint25_linear_112_4126)"/>
<defs>
<filter id="filter0_f_112_4126" x="462.329" y="18.5879" width="477.518" height="95.332" filterUnits="userSpaceOnUse" color-interpolation-filters="sRGB">
<feFlood flood-opacity="0" result="BackgroundImageFix"/>
<feBlend mode="normal" in="SourceGraphic" in2="BackgroundImageFix" result="shape"/>
<feGaussianBlur stdDeviation="10" result="effect1_foregroundBlur_112_4126"/>
</filter>
<linearGradient id="paint0_linear_112_4126" x1="377" y1="61.0036" x2="1024" y2="61.0031" gradientUnits="userSpaceOnUse">
<stop stop-color="white" stop-opacity="0.3"/>
<stop offset="0.495" stop-color="#CBB0F8"/>
<stop offset="1" stop-color="white" stop-opacity="0.3"/>
</linearGradient>
<linearGradient id="paint1_linear_112_4126" x1="984.164" y1="55.0183" x2="-5939.67" y2="55.0242" gradientUnits="userSpaceOnUse">
<stop stop-color="#F4439F"/>
<stop offset="1" stop-color="#7C3AED"/>
</linearGradient>
<linearGradient id="paint2_linear_112_4126" x1="1347.03" y1="51.3376" x2="-4074.05" y2="51.342" gradientUnits="userSpaceOnUse">
<stop stop-color="#F4439F"/>
<stop offset="1" stop-color="#7C3AED"/>
</linearGradient>
<linearGradient id="paint3_linear_112_4126" x1="1956.51" y1="55.0183" x2="-4346.12" y2="55.0232" gradientUnits="userSpaceOnUse">
<stop stop-color="#F4439F"/>
<stop offset="1" stop-color="#7C3AED"/>
</linearGradient>
<linearGradient id="paint4_linear_112_4126" x1="2623.22" y1="54.6067" x2="-4343.53" y2="54.6125" gradientUnits="userSpaceOnUse">
<stop stop-color="#F4439F"/>
<stop offset="1" stop-color="#7C3AED"/>
</linearGradient>
<linearGradient id="paint5_linear_112_4126" x1="3161.72" y1="54.6067" x2="-3805.04" y2="54.6125" gradientUnits="userSpaceOnUse">
<stop stop-color="#F4439F"/>
<stop offset="1" stop-color="#7C3AED"/>
</linearGradient>
<linearGradient id="paint6_linear_112_4126" x1="3245.68" y1="51.3375" x2="-2175.4" y2="51.342" gradientUnits="userSpaceOnUse">
<stop stop-color="#F4439F"/>
<stop offset="1" stop-color="#7C3AED"/>
</linearGradient>
<linearGradient id="paint7_linear_112_4126" x1="4163.91" y1="55.0183" x2="-2138.73" y2="55.0233" gradientUnits="userSpaceOnUse">
<stop stop-color="#F4439F"/>
<stop offset="1" stop-color="#7C3AED"/>
</linearGradient>
<linearGradient id="paint8_linear_112_4126" x1="5063.22" y1="54.6067" x2="-1903.54" y2="54.6125" gradientUnits="userSpaceOnUse">
<stop stop-color="#F4439F"/>
<stop offset="1" stop-color="#7C3AED"/>
</linearGradient>
<linearGradient id="paint9_linear_112_4126" x1="5415.3" y1="54.9893" x2="-1275" y2="54.9949" gradientUnits="userSpaceOnUse">
<stop stop-color="#F4439F"/>
<stop offset="1" stop-color="#7C3AED"/>
</linearGradient>
<linearGradient id="paint10_linear_112_4126" x1="5869.22" y1="50.2708" x2="-742.37" y2="50.2785" gradientUnits="userSpaceOnUse">
<stop stop-color="#F4439F"/>
<stop offset="1" stop-color="#7C3AED"/>
</linearGradient>
<linearGradient id="paint11_linear_112_4126" x1="6473.29" y1="54.9893" x2="-217.01" y2="54.9949" gradientUnits="userSpaceOnUse">
<stop stop-color="#F4439F"/>
<stop offset="1" stop-color="#7C3AED"/>
</linearGradient>
<linearGradient id="paint12_linear_112_4126" x1="924" y1="57.4999" x2="477" y2="57.4999" gradientUnits="userSpaceOnUse">
<stop stop-color="#F4439F"/>
<stop offset="1" stop-color="#7C3AED"/>
</linearGradient>
<linearGradient id="paint13_linear_112_4126" x1="700.5" y1="69" x2="700.5" y2="114" gradientUnits="userSpaceOnUse">
<stop offset="0.0001" stop-color="white" stop-opacity="0.1"/>
<stop offset="1" stop-color="white" stop-opacity="0"/>
</linearGradient>
<linearGradient id="paint14_linear_112_4126" x1="984.164" y1="43.0183" x2="-5939.67" y2="43.0242" gradientUnits="userSpaceOnUse">
<stop stop-color="#F4439F"/>
<stop offset="1" stop-color="#7C3AED"/>
</linearGradient>
<linearGradient id="paint15_linear_112_4126" x1="1347.03" y1="39.3376" x2="-4074.05" y2="39.342" gradientUnits="userSpaceOnUse">
<stop stop-color="#F4439F"/>
<stop offset="1" stop-color="#7C3AED"/>
</linearGradient>
<linearGradient id="paint16_linear_112_4126" x1="1956.51" y1="43.0183" x2="-4346.12" y2="43.0232" gradientUnits="userSpaceOnUse">
<stop stop-color="#F4439F"/>
<stop offset="1" stop-color="#7C3AED"/>
</linearGradient>
<linearGradient id="paint17_linear_112_4126" x1="2623.22" y1="42.6067" x2="-4343.53" y2="42.6125" gradientUnits="userSpaceOnUse">
<stop stop-color="#F4439F"/>
<stop offset="1" stop-color="#7C3AED"/>
</linearGradient>
<linearGradient id="paint18_linear_112_4126" x1="3161.72" y1="42.6067" x2="-3805.04" y2="42.6125" gradientUnits="userSpaceOnUse">
<stop stop-color="#F4439F"/>
<stop offset="1" stop-color="#7C3AED"/>
</linearGradient>
<linearGradient id="paint19_linear_112_4126" x1="3245.68" y1="39.3375" x2="-2175.4" y2="39.342" gradientUnits="userSpaceOnUse">
<stop stop-color="#F4439F"/>
<stop offset="1" stop-color="#7C3AED"/>
</linearGradient>
<linearGradient id="paint20_linear_112_4126" x1="4163.91" y1="43.0183" x2="-2138.73" y2="43.0233" gradientUnits="userSpaceOnUse">
<stop stop-color="#F4439F"/>
<stop offset="1" stop-color="#7C3AED"/>
</linearGradient>
<linearGradient id="paint21_linear_112_4126" x1="5063.22" y1="42.6067" x2="-1903.54" y2="42.6125" gradientUnits="userSpaceOnUse">
<stop stop-color="#F4439F"/>
<stop offset="1" stop-color="#7C3AED"/>
</linearGradient>
<linearGradient id="paint22_linear_112_4126" x1="5415.3" y1="42.9893" x2="-1275" y2="42.9949" gradientUnits="userSpaceOnUse">
<stop stop-color="#F4439F"/>
<stop offset="1" stop-color="#7C3AED"/>
</linearGradient>
<linearGradient id="paint23_linear_112_4126" x1="5869.22" y1="38.2708" x2="-742.37" y2="38.2785" gradientUnits="userSpaceOnUse">
<stop stop-color="#F4439F"/>
<stop offset="1" stop-color="#7C3AED"/>
</linearGradient>
<linearGradient id="paint24_linear_112_4126" x1="6473.29" y1="42.9893" x2="-217.01" y2="42.9949" gradientUnits="userSpaceOnUse">
<stop stop-color="#F4439F"/>
<stop offset="1" stop-color="#7C3AED"/>
</linearGradient>
<linearGradient id="paint25_linear_112_4126" x1="924" y1="45.4999" x2="477" y2="45.4999" gradientUnits="userSpaceOnUse">
<stop stop-color="#F4439F"/>
<stop offset="1" stop-color="#7C3AED"/>
</linearGradient>
</defs>
</svg>
