<svg width="1400" height="120" viewBox="0 0 1400 120" fill="none" xmlns="http://www.w3.org/2000/svg">
<path d="M0 53H1400V69H0V53Z" fill="url(#paint0_linear_112_4182)"/>
<mask id="mask0_112_4182" style="mask-type:alpha" maskUnits="userSpaceOnUse" x="0" y="69" width="1400" height="45">
<path d="M0 69H1400V114H0V69Z" fill="#C4C4C4"/>
</mask>
<g mask="url(#mask0_112_4182)">
<g filter="url(#filter0_f_112_4182)">
<path d="M1299.78 80.5799C1297.61 80.5799 1295.75 80.1932 1294.21 79.4199C1292.7 78.6466 1291.54 77.5446 1290.73 76.1139C1289.95 74.6446 1289.57 72.8852 1289.57 70.8359C1289.57 67.5106 1290.75 64.9779 1293.11 63.2379C1295.46 61.4979 1299.04 60.5506 1303.84 60.3959L1309.11 60.2219V59.1779C1309.11 57.4379 1308.63 56.1812 1307.66 55.4079C1306.74 54.6346 1305.23 54.2479 1303.14 54.2479C1301.79 54.2479 1300.39 54.4219 1298.96 54.7699C1297.53 55.0792 1295.93 55.5819 1294.15 56.2779L1291.66 50.3619C1293.71 49.4726 1295.77 48.8152 1297.86 48.3899C1299.99 47.9646 1302.15 47.7519 1304.36 47.7519C1308.96 47.7519 1312.34 48.7379 1314.51 50.7099C1316.71 52.6432 1317.81 55.6399 1317.81 59.6999V79.9999H1311.67L1309.98 75.6499H1309.75C1308.9 76.7712 1307.97 77.6992 1306.97 78.4339C1305.96 79.1686 1304.86 79.7099 1303.66 80.0579C1302.5 80.4059 1301.21 80.5799 1299.78 80.5799ZM1302.79 74.1999C1304.57 74.1999 1306.06 73.6586 1307.26 72.5759C1308.5 71.4932 1309.11 69.9466 1309.11 67.9359V65.3839L1305.75 65.4999C1303.16 65.5772 1301.3 66.0219 1300.18 66.8339C1299.06 67.6459 1298.5 68.7866 1298.5 70.2559C1298.5 71.5706 1298.89 72.5566 1299.66 73.2139C1300.43 73.8712 1301.48 74.1999 1302.79 74.1999Z" fill="url(#paint1_linear_112_4182)" fill-opacity="0.7"/>
<path d="M1250.67 88.1199V73.3879H1254.2C1254.78 72.6532 1255.29 71.8606 1255.71 71.0099C1256.18 70.1592 1256.54 69.1926 1256.81 68.1099C1257.08 67.0272 1257.28 65.8092 1257.39 64.4559C1257.47 63.4119 1257.55 62.3099 1257.63 61.1499C1257.7 59.9512 1257.76 58.6946 1257.8 57.3799C1257.88 56.0652 1257.95 54.6539 1258.03 53.1459C1258.11 51.6379 1258.17 50.0332 1258.21 48.3319H1282.28V73.3879H1286.74V88.1199H1278.68V79.9999H1258.73V88.1199H1250.67ZM1262.73 73.3879H1273.63V54.9439H1265.69C1265.65 56.1812 1265.59 57.3799 1265.51 58.5399C1265.48 59.6612 1265.42 60.7052 1265.34 61.6719C1265.3 62.6386 1265.24 63.5279 1265.17 64.3399C1265.01 66.4666 1264.72 68.2646 1264.3 69.7339C1263.87 71.1646 1263.35 72.3826 1262.73 73.3879Z" fill="url(#paint2_linear_112_4182)" fill-opacity="0.7"/>
<path d="M1232.84 80.5799C1230.44 80.5799 1228.28 80.2126 1226.35 79.4779C1224.45 78.7046 1222.83 77.6219 1221.47 76.2299C1220.16 74.7992 1219.15 73.0786 1218.46 71.0679C1217.76 69.0186 1217.41 66.6986 1217.41 64.1079C1217.41 60.7439 1218.03 57.8439 1219.27 55.4079C1220.54 52.9332 1222.34 51.0386 1224.66 49.7239C1227.02 48.4092 1229.81 47.7519 1233.01 47.7519C1236.22 47.7519 1238.97 48.4092 1241.25 49.7239C1243.57 51.0386 1245.35 52.9139 1246.59 55.3499C1247.82 57.7859 1248.44 60.7052 1248.44 64.1079C1248.44 66.6599 1248.08 68.9606 1247.34 71.0099C1246.64 73.0592 1245.62 74.7992 1244.27 76.2299C1242.91 77.6219 1241.27 78.7046 1239.34 79.4779C1237.44 80.2126 1235.28 80.5799 1232.84 80.5799ZM1232.96 73.9679C1235.28 73.9679 1236.96 73.1752 1238 71.5899C1239.09 70.0046 1239.63 67.5106 1239.63 64.1079C1239.63 60.7052 1239.09 58.2306 1238 56.6839C1236.96 55.1372 1235.26 54.3639 1232.9 54.3639C1230.58 54.3639 1228.88 55.1372 1227.79 56.6839C1226.75 58.2306 1226.23 60.7052 1226.23 64.1079C1226.23 67.5106 1226.77 70.0046 1227.85 71.5899C1228.94 73.1752 1230.64 73.9679 1232.96 73.9679Z" fill="url(#paint3_linear_112_4182)" fill-opacity="0.7"/>
<path d="M1184.6 79.9999V48.3319H1198.64C1203.12 48.3319 1206.43 49.0086 1208.56 50.3619C1210.68 51.7152 1211.75 53.7452 1211.75 56.4519C1211.75 58.2306 1211.2 59.7192 1210.12 60.9179C1209.08 62.0779 1207.53 62.8512 1205.48 63.2379V63.4699C1207.69 63.7792 1209.43 64.5719 1210.7 65.8479C1212.02 67.0852 1212.67 68.7286 1212.67 70.7779C1212.67 72.4406 1212.25 73.9679 1211.4 75.3599C1210.55 76.7519 1209.1 77.8732 1207.05 78.7239C1205.04 79.5746 1202.25 79.9999 1198.7 79.9999H1184.6ZM1193.36 73.9679H1198.17C1200.15 73.9679 1201.58 73.6586 1202.47 73.0399C1203.36 72.4212 1203.8 71.5126 1203.8 70.3139C1203.8 69.0379 1203.34 68.0906 1202.41 67.4719C1201.52 66.8532 1200.13 66.5439 1198.23 66.5439H1193.36V73.9679ZM1193.36 60.6859H1197.88C1199.66 60.6859 1200.96 60.4346 1201.77 59.9319C1202.62 59.3906 1203.05 58.5786 1203.05 57.4959C1203.05 56.4519 1202.66 55.6786 1201.89 55.1759C1201.15 54.6346 1200.03 54.3639 1198.52 54.3639H1193.36V60.6859Z" fill="url(#paint4_linear_112_4182)" fill-opacity="0.7"/>
<path d="M1165.23 80.6379C1161.98 80.6379 1159.12 80.0386 1156.65 78.8399C1154.21 77.6026 1152.32 75.7659 1150.96 73.3299C1149.61 70.8939 1148.93 67.8779 1148.93 64.2819C1148.93 60.7632 1149.57 57.7666 1150.85 55.2919C1152.12 52.8172 1153.9 50.9419 1156.18 49.6659C1158.46 48.3899 1161.15 47.7519 1164.25 47.7519C1167.22 47.7519 1169.74 48.3319 1171.79 49.4919C1173.87 50.6519 1175.46 52.3146 1176.54 54.4799C1177.62 56.6066 1178.17 59.1586 1178.17 62.1359V66.4279H1157.87C1157.94 68.7866 1158.72 70.6232 1160.19 71.9379C1161.65 73.2526 1163.7 73.9099 1166.33 73.9099C1168.03 73.9099 1169.68 73.6972 1171.26 73.2719C1172.89 72.8466 1174.57 72.2472 1176.31 71.4739V78.3179C1174.69 79.0912 1172.98 79.6712 1171.21 80.0579C1169.47 80.4446 1167.47 80.6379 1165.23 80.6379ZM1158.04 60.5119H1169.93C1169.93 59.2359 1169.72 58.1146 1169.29 57.1479C1168.9 56.1812 1168.29 55.4079 1167.44 54.8279C1166.58 54.2479 1165.5 53.9579 1164.19 53.9579C1162.45 53.9579 1161.04 54.5186 1159.95 55.6399C1158.87 56.7226 1158.23 58.3466 1158.04 60.5119Z" fill="url(#paint5_linear_112_4182)" fill-opacity="0.7"/>
<path d="M1114.32 93.9199V48.3319H1121.34L1122.56 52.4499H1122.96C1123.54 51.5992 1124.24 50.8259 1125.05 50.1299C1125.86 49.3952 1126.83 48.8152 1127.95 48.3899C1129.11 47.9646 1130.44 47.7519 1131.95 47.7519C1135.51 47.7519 1138.39 49.1439 1140.59 51.9279C1142.8 54.6732 1143.9 58.7332 1143.9 64.1079C1143.9 67.7039 1143.38 70.7392 1142.33 73.2139C1141.29 75.6499 1139.86 77.4866 1138.04 78.7239C1136.23 79.9612 1134.12 80.5799 1131.72 80.5799C1130.21 80.5799 1128.9 80.3866 1127.78 79.9999C1126.69 79.6132 1125.77 79.1106 1124.99 78.4919C1124.22 77.8732 1123.54 77.2159 1122.96 76.5199H1122.5C1122.65 77.2546 1122.77 78.0279 1122.85 78.8399C1122.92 79.6132 1122.96 80.3866 1122.96 81.1599V93.9199H1114.32ZM1129.28 73.5619C1130.6 73.5619 1131.68 73.1946 1132.53 72.4599C1133.38 71.7252 1134.02 70.6426 1134.45 69.2119C1134.87 67.7812 1135.08 66.0412 1135.08 63.9919C1135.08 60.8986 1134.6 58.5786 1133.63 57.0319C1132.71 55.4466 1131.22 54.6539 1129.17 54.6539C1127.66 54.6539 1126.46 54.9632 1125.57 55.5819C1124.68 56.2006 1124.03 57.1479 1123.6 58.4239C1123.21 59.6612 1123 61.2272 1122.96 63.1219V64.0499C1122.96 66.0992 1123.16 67.8392 1123.54 69.2699C1123.93 70.6619 1124.59 71.7252 1125.51 72.4599C1126.44 73.1946 1127.7 73.5619 1129.28 73.5619Z" fill="url(#paint6_linear_112_4182)" fill-opacity="0.7"/>
<path d="M1094.54 80.6379C1091.3 80.6379 1088.43 80.0386 1085.96 78.8399C1083.52 77.6026 1081.63 75.7659 1080.28 73.3299C1078.92 70.8939 1078.25 67.8779 1078.25 64.2819C1078.25 60.7632 1078.88 57.7666 1080.16 55.2919C1081.44 52.8172 1083.21 50.9419 1085.5 49.6659C1087.78 48.3899 1090.46 47.7519 1093.56 47.7519C1096.53 47.7519 1099.05 48.3319 1101.1 49.4919C1103.19 50.6519 1104.77 52.3146 1105.85 54.4799C1106.94 56.6066 1107.48 59.1586 1107.48 62.1359V66.4279H1087.18C1087.25 68.7866 1088.03 70.6232 1089.5 71.9379C1090.97 73.2526 1093.02 73.9099 1095.65 73.9099C1097.35 73.9099 1098.99 73.6972 1100.58 73.2719C1102.2 72.8466 1103.88 72.2472 1105.62 71.4739V78.3179C1104 79.0912 1102.3 79.6712 1100.52 80.0579C1098.78 80.4446 1096.79 80.6379 1094.54 80.6379ZM1087.35 60.5119H1099.24C1099.24 59.2359 1099.03 58.1146 1098.6 57.1479C1098.22 56.1812 1097.6 55.4079 1096.75 54.8279C1095.9 54.2479 1094.81 53.9579 1093.5 53.9579C1091.76 53.9579 1090.35 54.5186 1089.27 55.6399C1088.18 56.7226 1087.54 58.3466 1087.35 60.5119Z" fill="url(#paint7_linear_112_4182)" fill-opacity="0.7"/>
<path d="M1042.73 79.9999V48.3319H1071.15V79.9999H1062.5V54.9439H1051.37V79.9999H1042.73Z" fill="url(#paint8_linear_112_4182)" fill-opacity="0.7"/>
<path d="M978.157 79.9999V48.3319H986.799V58.3079H990.627C995.537 58.3079 999.172 59.2166 1001.53 61.0339C1003.93 62.8126 1005.13 65.4999 1005.13 69.0959C1005.13 72.6919 1003.93 75.4179 1001.53 77.2739C999.172 79.0912 995.595 79.9999 990.801 79.9999H978.157ZM986.799 73.5039H990.569C992.579 73.5039 994.049 73.1366 994.977 72.4019C995.905 71.6286 996.369 70.5652 996.369 69.2119C996.369 67.7426 995.885 66.6406 994.919 65.9059C993.991 65.1712 992.502 64.8039 990.453 64.8039H986.799V73.5039ZM1009.77 79.9999V48.3319H1018.41V79.9999H1009.77Z" fill="url(#paint9_linear_112_4182)" fill-opacity="0.7"/>
<path d="M954.557 79.9999V54.8279H944.813V48.3319H972.943V54.8279H963.199V79.9999H954.557Z" fill="url(#paint10_linear_112_4182)" fill-opacity="0.7"/>
<path d="M910.811 79.9999V48.3319H919.453V60.6859H930.937V48.3319H939.579V79.9999H930.937V67.2979H919.453V79.9999H910.811Z" fill="url(#paint11_linear_112_4182)" fill-opacity="0.7"/>
<path d="M891.034 80.6379C887.786 80.6379 884.924 80.0386 882.45 78.8399C880.014 77.6026 878.119 75.7659 876.766 73.3299C875.412 70.8939 874.736 67.8779 874.736 64.2819C874.736 60.7632 875.374 57.7666 876.65 55.2919C877.926 52.8172 879.704 50.9419 881.986 49.6659C884.267 48.3899 886.954 47.7519 890.048 47.7519C893.025 47.7519 895.538 48.3319 897.588 49.4919C899.676 50.6519 901.261 52.3146 902.344 54.4799C903.426 56.6066 903.968 59.1586 903.968 62.1359V66.4279H883.668C883.745 68.7866 884.518 70.6232 885.988 71.9379C887.457 73.2526 889.506 73.9099 892.136 73.9099C893.837 73.9099 895.48 73.6972 897.066 73.2719C898.69 72.8466 900.372 72.2472 902.112 71.4739V78.3179C900.488 79.0912 898.786 79.6712 897.008 80.0579C895.268 80.4446 893.276 80.6379 891.034 80.6379ZM883.842 60.5119H895.732C895.732 59.2359 895.519 58.1146 895.094 57.1479C894.707 56.1812 894.088 55.4079 893.238 54.8279C892.387 54.2479 891.304 53.9579 889.99 53.9579C888.25 53.9579 886.838 54.5186 885.756 55.6399C884.673 56.7226 884.035 58.3466 883.842 60.5119Z" fill="url(#paint12_linear_112_4182)" fill-opacity="0.7"/>
<path d="M828.399 79.9999V48.3319H840.579L849.511 73.5039H846.843L855.891 48.3319H867.665V79.9999H859.603V64.4559C859.603 62.9092 859.622 61.4012 859.661 59.9319C859.738 58.4626 859.835 57.1092 859.951 55.8719H859.777L851.309 79.9999H844.871L836.287 55.8139H836.055C836.209 57.0899 836.306 58.4626 836.345 59.9319C836.422 61.3626 836.461 62.9479 836.461 64.6879V79.9999H828.399Z" fill="url(#paint13_linear_112_4182)" fill-opacity="0.7"/>
<path d="M797.004 93.9199C796.076 93.9199 795.225 93.8619 794.452 93.7459C793.679 93.6299 793.021 93.5139 792.48 93.3979V86.3219C792.983 86.4379 793.505 86.5346 794.046 86.6119C794.587 86.6892 795.187 86.7279 795.844 86.7279C797.197 86.7279 798.299 86.4959 799.15 86.0319C800.039 85.5679 800.755 84.9492 801.296 84.1759C801.876 83.4026 802.359 82.5326 802.746 81.5659L804.892 76.0559L804.66 83.4799L790.566 48.3319H800.02L805.878 66.3119C806.071 66.8532 806.245 67.4332 806.4 68.0519C806.593 68.6706 806.767 69.2892 806.922 69.9079C807.077 70.5266 807.173 71.1259 807.212 71.7059H807.444C807.599 70.8552 807.811 69.9659 808.082 69.0379C808.353 68.0712 808.623 67.1626 808.894 66.3119L814.694 48.3319H823.742L810.75 82.8999C809.861 85.2586 808.836 87.2499 807.676 88.8739C806.516 90.5366 805.066 91.7932 803.326 92.6439C801.625 93.4946 799.517 93.9199 797.004 93.9199Z" fill="url(#paint14_linear_112_4182)" fill-opacity="0.7"/>
<path d="M760.203 93.9199V48.3319H767.221L768.439 52.4499H768.845C769.425 51.5992 770.121 50.8259 770.933 50.1299C771.745 49.3952 772.712 48.8152 773.833 48.3899C774.993 47.9646 776.327 47.7519 777.835 47.7519C781.393 47.7519 784.273 49.1439 786.477 51.9279C788.681 54.6732 789.783 58.7332 789.783 64.1079C789.783 67.7039 789.261 70.7392 788.217 73.2139C787.173 75.6499 785.743 77.4866 783.925 78.7239C782.108 79.9612 780.001 80.5799 777.603 80.5799C776.095 80.5799 774.781 80.3866 773.659 79.9999C772.577 79.6132 771.649 79.1106 770.875 78.4919C770.102 77.8732 769.425 77.2159 768.845 76.5199H768.381C768.536 77.2546 768.652 78.0279 768.729 78.8399C768.807 79.6132 768.845 80.3866 768.845 81.1599V93.9199H760.203ZM775.167 73.5619C776.482 73.5619 777.565 73.1946 778.415 72.4599C779.266 71.7252 779.904 70.6426 780.329 69.2119C780.755 67.7812 780.967 66.0412 780.967 63.9919C780.967 60.8986 780.484 58.5786 779.517 57.0319C778.589 55.4466 777.101 54.6539 775.051 54.6539C773.543 54.6539 772.345 54.9632 771.455 55.5819C770.566 56.2006 769.909 57.1479 769.483 58.4239C769.097 59.6612 768.884 61.2272 768.845 63.1219V64.0499C768.845 66.0992 769.039 67.8392 769.425 69.2699C769.812 70.6619 770.469 71.7252 771.397 72.4599C772.325 73.1946 773.582 73.5619 775.167 73.5619Z" fill="url(#paint15_linear_112_4182)" fill-opacity="0.7"/>
<path d="M736.604 79.9999V54.8279H726.86V48.3319H754.99V54.8279H745.246V79.9999H736.604Z" fill="url(#paint16_linear_112_4182)" fill-opacity="0.7"/>
<path d="M714.076 80.5799C709.011 80.5799 705.106 79.1879 702.36 76.4039C699.654 73.6199 698.3 69.6372 698.3 64.4559C698.3 60.7052 698.977 57.5926 700.33 55.1179C701.722 52.6432 703.617 50.8066 706.014 49.6079C708.45 48.3706 711.273 47.7519 714.482 47.7519C716.377 47.7519 718.136 47.9259 719.76 48.2739C721.423 48.6219 722.912 49.1246 724.226 49.7819L721.674 56.2779C720.437 55.7366 719.296 55.3499 718.252 55.1179C717.208 54.8472 716.126 54.7119 715.004 54.7119C712.491 54.7119 710.558 55.5239 709.204 57.1479C707.89 58.7719 707.232 61.1499 707.232 64.2819C707.232 67.3752 707.909 69.6952 709.262 71.2419C710.616 72.7499 712.704 73.5039 715.526 73.5039C716.686 73.5039 717.924 73.3879 719.238 73.1559C720.553 72.8852 721.868 72.4792 723.182 71.9379V78.7819C721.984 79.3232 720.592 79.7486 719.006 80.0579C717.421 80.4059 715.778 80.5799 714.076 80.5799Z" fill="url(#paint17_linear_112_4182)" fill-opacity="0.7"/>
<path d="M662.442 79.9999V48.3319H671.084V60.6859H682.568V48.3319H691.21V79.9999H682.568V67.2979H671.084V79.9999H662.442Z" fill="url(#paint18_linear_112_4182)" fill-opacity="0.7"/>
<path d="M623.36 79.9999V48.3319H631.77V60.8599C631.77 61.9039 631.731 63.1026 631.654 64.4559C631.576 65.8092 631.48 67.0659 631.364 68.2259C631.286 69.3859 631.19 70.2172 631.074 70.7199H631.248L643.312 48.3319H653.172V79.9999H644.762V67.3559C644.762 66.1186 644.8 64.8812 644.878 63.6439C644.955 62.3679 645.032 61.2079 645.11 60.1639C645.226 59.1199 645.322 58.3079 645.4 57.7279H645.168L633.22 79.9999H623.36Z" fill="url(#paint19_linear_112_4182)" fill-opacity="0.7"/>
<path d="M588.516 80.6379C585.268 80.6379 582.407 80.0386 579.932 78.8399C577.496 77.6026 575.602 75.7659 574.248 73.3299C572.895 70.8939 572.218 67.8779 572.218 64.2819C572.218 60.7632 572.856 57.7666 574.132 55.2919C575.408 52.8172 577.187 50.9419 579.468 49.6659C581.75 48.3899 584.437 47.7519 587.53 47.7519C590.508 47.7519 593.021 48.3319 595.07 49.4919C597.158 50.6519 598.744 52.3146 599.826 54.4799C600.909 56.6066 601.45 59.1586 601.45 62.1359V66.4279H581.15C581.228 68.7866 582.001 70.6232 583.47 71.9379C584.94 73.2526 586.989 73.9099 589.618 73.9099C591.32 73.9099 592.963 73.6972 594.548 73.2719C596.172 72.8466 597.854 72.2472 599.594 71.4739V78.3179C597.97 79.0912 596.269 79.6712 594.49 80.0579C592.75 80.4446 590.759 80.6379 588.516 80.6379ZM581.324 60.5119H593.214C593.214 59.2359 593.002 58.1146 592.576 57.1479C592.19 56.1812 591.571 55.4079 590.72 54.8279C589.87 54.2479 588.787 53.9579 587.472 53.9579C585.732 53.9579 584.321 54.5186 583.238 55.6399C582.156 56.7226 581.518 58.3466 581.324 60.5119Z" fill="url(#paint20_linear_112_4182)" fill-opacity="0.7"/>
<path d="M524.918 79.9999V48.3319H533.56V58.3079H537.388C542.299 58.3079 545.934 59.2166 548.292 61.0339C550.69 62.8126 551.888 65.4999 551.888 69.0959C551.888 72.6919 550.69 75.4179 548.292 77.2739C545.934 79.0912 542.357 79.9999 537.562 79.9999H524.918ZM533.56 73.5039H537.33C539.341 73.5039 540.81 73.1366 541.738 72.4019C542.666 71.6286 543.13 70.5652 543.13 69.2119C543.13 67.7426 542.647 66.6406 541.68 65.9059C540.752 65.1712 539.264 64.8039 537.214 64.8039H533.56V73.5039ZM556.528 79.9999V48.3319H565.17V79.9999H556.528Z" fill="url(#paint21_linear_112_4182)" fill-opacity="0.7"/>
<path d="M486.856 79.9999V48.3319H495.498V60.6859H506.982V48.3319H515.624V79.9999H506.982V67.2979H495.498V79.9999H486.856Z" fill="url(#paint22_linear_112_4182)" fill-opacity="0.7"/>
<path d="M452.588 79.9999V48.3319H461.23V58.4819H465.522C470.394 58.4819 474.01 59.3712 476.368 61.1499C478.727 62.8899 479.906 65.5192 479.906 69.0379C479.906 72.6726 478.727 75.4179 476.368 77.2739C474.01 79.0912 470.472 79.9999 465.754 79.9999H452.588ZM461.23 73.5039H465.116C467.166 73.5039 468.674 73.1559 469.64 72.4599C470.646 71.7252 471.148 70.6426 471.148 69.2119C471.148 67.8199 470.646 66.7952 469.64 66.1379C468.674 65.4419 467.127 65.0939 465 65.0939H461.23V73.5039Z" fill="url(#paint23_linear_112_4182)" fill-opacity="0.7"/>
<path d="M416.219 80.4059C415.485 80.4059 414.75 80.3479 414.016 80.2319C413.32 80.1159 412.643 79.9806 411.986 79.8259V72.9819C412.372 73.0979 412.72 73.1752 413.029 73.2139C413.377 73.2526 413.706 73.2719 414.016 73.2719C414.828 73.2719 415.485 73.0979 415.988 72.7499C416.529 72.4019 416.954 71.8606 417.264 71.1259C417.573 70.3526 417.786 69.3086 417.902 67.9939C418.018 66.7952 418.114 65.5579 418.192 64.2819C418.308 63.0059 418.404 61.6139 418.482 60.1059C418.559 58.5592 418.636 56.8386 418.714 54.9439C418.83 53.0106 418.946 50.8066 419.062 48.3319H443.712V79.9999H434.954V55.1179H426.602C426.524 56.6259 426.447 58.0179 426.37 59.2939C426.292 60.5699 426.215 61.7879 426.137 62.9479C426.06 64.1079 425.983 65.2292 425.906 66.3119C425.828 67.3946 425.731 68.4579 425.615 69.5019C425.267 73.3299 424.339 76.1139 422.831 77.8539C421.362 79.5552 419.158 80.4059 416.219 80.4059Z" fill="url(#paint24_linear_112_4182)" fill-opacity="0.7"/>
<path d="M396.674 80.6379C393.426 80.6379 390.565 80.0386 388.09 78.8399C385.654 77.6026 383.76 75.7659 382.406 73.3299C381.053 70.8939 380.376 67.8779 380.376 64.2819C380.376 60.7632 381.014 57.7666 382.29 55.2919C383.566 52.8172 385.345 50.9419 387.626 49.6659C389.908 48.3899 392.595 47.7519 395.688 47.7519C398.666 47.7519 401.179 48.3319 403.228 49.4919C405.316 50.6519 406.902 52.3146 407.984 54.4799C409.067 56.6066 409.608 59.1586 409.608 62.1359V66.4279H389.308C389.386 68.7866 390.159 70.6232 391.628 71.9379C393.098 73.2526 395.147 73.9099 397.776 73.9099C399.478 73.9099 401.121 73.6972 402.706 73.2719C404.33 72.8466 406.012 72.2472 407.752 71.4739V78.3179C406.128 79.0912 404.427 79.6712 402.648 80.0579C400.908 80.4446 398.917 80.6379 396.674 80.6379ZM389.482 60.5119H401.372C401.372 59.2359 401.16 58.1146 400.734 57.1479C400.348 56.1812 399.729 55.4079 398.878 54.8279C398.028 54.2479 396.945 53.9579 395.63 53.9579C393.89 53.9579 392.479 54.5186 391.396 55.6399C390.314 56.7226 389.676 58.3466 389.482 60.5119Z" fill="url(#paint25_linear_112_4182)" fill-opacity="0.7"/>
<path d="M359.548 79.9999V54.8279H349.804V48.3319H377.934V54.8279H368.19V79.9999H359.548Z" fill="url(#paint26_linear_112_4182)" fill-opacity="0.7"/>
<path d="M314.782 79.9999V48.3319H323.192V60.8599C323.192 61.9039 323.153 63.1026 323.076 64.4559C322.998 65.8092 322.902 67.0659 322.786 68.2259C322.708 69.3859 322.612 70.2172 322.496 70.7199H322.67L334.734 48.3319H344.594V79.9999H336.184V67.3559C336.184 66.1186 336.222 64.8812 336.3 63.6439C336.377 62.3679 336.454 61.2079 336.532 60.1639C336.648 59.1199 336.744 58.3079 336.822 57.7279H336.59L324.642 79.9999H314.782Z" fill="url(#paint27_linear_112_4182)" fill-opacity="0.7"/>
<path d="M276.719 79.9999V48.3319H285.361V60.6859H296.845V48.3319H305.487V79.9999H296.845V67.2979H285.361V79.9999H276.719Z" fill="url(#paint28_linear_112_4182)" fill-opacity="0.7"/>
<path d="M240.35 80.4059C239.616 80.4059 238.881 80.3479 238.146 80.2319C237.45 80.1159 236.774 79.9806 236.116 79.8259V72.9819C236.503 73.0979 236.851 73.1752 237.16 73.2139C237.508 73.2526 237.837 73.2719 238.146 73.2719C238.958 73.2719 239.616 73.0979 240.118 72.7499C240.66 72.4019 241.085 71.8606 241.394 71.1259C241.704 70.3526 241.916 69.3086 242.032 67.9939C242.148 66.7952 242.245 65.5579 242.322 64.2819C242.438 63.0059 242.535 61.6139 242.612 60.1059C242.69 58.5592 242.767 56.8386 242.844 54.9439C242.96 53.0106 243.076 50.8066 243.192 48.3319H267.842V79.9999H259.084V55.1179H250.732C250.655 56.6259 250.578 58.0179 250.5 59.2939C250.423 60.5699 250.346 61.7879 250.268 62.9479C250.191 64.1079 250.114 65.2292 250.036 66.3119C249.959 67.3946 249.862 68.4579 249.746 69.5019C249.398 73.3299 248.47 76.1139 246.962 77.8539C245.493 79.5552 243.289 80.4059 240.35 80.4059Z" fill="url(#paint29_linear_112_4182)" fill-opacity="0.7"/>
<path d="M217.841 80.5799C215.444 80.5799 213.278 80.2126 211.345 79.4779C209.45 78.7046 207.826 77.6219 206.473 76.2299C205.158 74.7992 204.153 73.0786 203.457 71.0679C202.761 69.0186 202.413 66.6986 202.413 64.1079C202.413 60.7439 203.032 57.8439 204.269 55.4079C205.545 52.9332 207.343 51.0386 209.663 49.7239C212.022 48.4092 214.806 47.7519 218.015 47.7519C221.224 47.7519 223.97 48.4092 226.251 49.7239C228.571 51.0386 230.35 52.9139 231.587 55.3499C232.824 57.7859 233.443 60.7052 233.443 64.1079C233.443 66.6599 233.076 68.9606 232.341 71.0099C231.645 73.0592 230.62 74.7992 229.267 76.2299C227.914 77.6219 226.27 78.7046 224.337 79.4779C222.442 80.2126 220.277 80.5799 217.841 80.5799ZM217.957 73.9679C220.277 73.9679 221.959 73.1752 223.003 71.5899C224.086 70.0046 224.627 67.5106 224.627 64.1079C224.627 60.7052 224.086 58.2306 223.003 56.6839C221.959 55.1372 220.258 54.3639 217.899 54.3639C215.579 54.3639 213.878 55.1372 212.795 56.6839C211.751 58.2306 211.229 60.7052 211.229 64.1079C211.229 67.5106 211.77 70.0046 212.853 71.5899C213.936 73.1752 215.637 73.9679 217.957 73.9679Z" fill="url(#paint30_linear_112_4182)" fill-opacity="0.7"/>
<path d="M166.836 79.9999V48.3319H195.256V79.9999H186.614V54.9439H175.478V79.9999H166.836Z" fill="url(#paint31_linear_112_4182)" fill-opacity="0.7"/>
<path d="M144.095 80.5799C141.698 80.5799 139.532 80.2126 137.599 79.4779C135.704 78.7046 134.08 77.6219 132.727 76.2299C131.412 74.7992 130.407 73.0786 129.711 71.0679C129.015 69.0186 128.667 66.6986 128.667 64.1079C128.667 60.7439 129.286 57.8439 130.523 55.4079C131.799 52.9332 133.597 51.0386 135.917 49.7239C138.276 48.4092 141.06 47.7519 144.269 47.7519C147.478 47.7519 150.224 48.4092 152.505 49.7239C154.825 51.0386 156.604 52.9139 157.841 55.3499C159.078 57.7859 159.697 60.7052 159.697 64.1079C159.697 66.6599 159.33 68.9606 158.595 71.0099C157.899 73.0592 156.874 74.7992 155.521 76.2299C154.168 77.6219 152.524 78.7046 150.591 79.4779C148.696 80.2126 146.531 80.5799 144.095 80.5799ZM144.211 73.9679C146.531 73.9679 148.213 73.1752 149.257 71.5899C150.34 70.0046 150.881 67.5106 150.881 64.1079C150.881 60.7052 150.34 58.2306 149.257 56.6839C148.213 55.1372 146.512 54.3639 144.153 54.3639C141.833 54.3639 140.132 55.1372 139.049 56.6839C138.005 58.2306 137.483 60.7052 137.483 64.1079C137.483 67.5106 138.024 70.0046 139.107 71.5899C140.19 73.1752 141.891 73.9679 144.211 73.9679Z" fill="url(#paint32_linear_112_4182)" fill-opacity="0.7"/>
<path d="M81.7236 88.5839V72.6919H86.0736C87.1949 71.4546 88.0842 70.2172 88.7416 68.9799C89.3989 67.7039 89.9016 66.2539 90.2496 64.6299C90.5976 62.9672 90.8682 60.9372 91.0616 58.5399C91.1389 57.4959 91.2162 56.2586 91.2936 54.8279C91.4096 53.3586 91.5062 51.7732 91.5836 50.0719C91.6609 48.3319 91.7382 46.4952 91.8156 44.5619C91.8929 42.6286 91.9509 40.6372 91.9896 38.5879H120.004V72.6919H125.572V88.5839H117.104V79.9999H90.1916V88.5839H81.7236ZM95.2956 72.6919H111.246V45.8959H99.7616C99.7229 47.4812 99.6649 49.0472 99.5876 50.5939C99.5102 52.1019 99.4329 53.5712 99.3556 55.0019C99.2782 56.3939 99.1816 57.7086 99.0656 58.9459C98.8722 61.1886 98.6016 63.1606 98.2536 64.8619C97.9056 66.5632 97.4996 68.0519 97.0356 69.3279C96.5716 70.5652 95.9916 71.6866 95.2956 72.6919Z" fill="url(#paint33_linear_112_4182)" fill-opacity="0.7"/>
</g>
</g>
<path d="M0 69H1400V102C1400 108.627 1394.63 114 1388 114H12C5.37261 114 0 108.627 0 102V69Z" fill="url(#paint34_linear_112_4182)"/>
<path d="M1298.78 68.5799C1296.61 68.5799 1294.75 68.1932 1293.21 67.4199C1291.7 66.6466 1290.54 65.5446 1289.73 64.1139C1288.95 62.6446 1288.57 60.8852 1288.57 58.8359C1288.57 55.5106 1289.75 52.9779 1292.11 51.2379C1294.46 49.4979 1298.04 48.5506 1302.84 48.3959L1308.11 48.2219V47.1779C1308.11 45.4379 1307.63 44.1812 1306.66 43.4079C1305.74 42.6346 1304.23 42.2479 1302.14 42.2479C1300.79 42.2479 1299.39 42.4219 1297.96 42.7699C1296.53 43.0792 1294.93 43.5819 1293.15 44.2779L1290.66 38.3619C1292.71 37.4726 1294.77 36.8152 1296.86 36.3899C1298.99 35.9646 1301.15 35.7519 1303.36 35.7519C1307.96 35.7519 1311.34 36.7379 1313.51 38.7099C1315.71 40.6432 1316.81 43.6399 1316.81 47.6999V67.9999H1310.67L1308.98 63.6499H1308.75C1307.9 64.7712 1306.97 65.6992 1305.97 66.4339C1304.96 67.1686 1303.86 67.7099 1302.66 68.0579C1301.5 68.4059 1300.21 68.5799 1298.78 68.5799ZM1301.79 62.1999C1303.57 62.1999 1305.06 61.6586 1306.26 60.5759C1307.5 59.4932 1308.11 57.9466 1308.11 55.9359V53.3839L1304.75 53.4999C1302.16 53.5772 1300.3 54.0219 1299.18 54.8339C1298.06 55.6459 1297.5 56.7866 1297.5 58.2559C1297.5 59.5706 1297.89 60.5566 1298.66 61.2139C1299.43 61.8712 1300.48 62.1999 1301.79 62.1999Z" fill="url(#paint35_linear_112_4182)"/>
<path d="M1249.67 76.1199V61.3879H1253.2C1253.78 60.6532 1254.29 59.8606 1254.71 59.0099C1255.18 58.1592 1255.54 57.1926 1255.81 56.1099C1256.08 55.0272 1256.28 53.8092 1256.39 52.4559C1256.47 51.4119 1256.55 50.3099 1256.63 49.1499C1256.7 47.9512 1256.76 46.6946 1256.8 45.3799C1256.88 44.0652 1256.95 42.6539 1257.03 41.1459C1257.11 39.6379 1257.17 38.0332 1257.21 36.3319H1281.28V61.3879H1285.74V76.1199H1277.68V67.9999H1257.73V76.1199H1249.67ZM1261.73 61.3879H1272.63V42.9439H1264.69C1264.65 44.1812 1264.59 45.3799 1264.51 46.5399C1264.48 47.6612 1264.42 48.7052 1264.34 49.6719C1264.3 50.6386 1264.24 51.5279 1264.17 52.3399C1264.01 54.4666 1263.72 56.2646 1263.3 57.7339C1262.87 59.1646 1262.35 60.3826 1261.73 61.3879Z" fill="url(#paint36_linear_112_4182)"/>
<path d="M1231.84 68.5799C1229.44 68.5799 1227.28 68.2126 1225.35 67.4779C1223.45 66.7046 1221.83 65.6219 1220.47 64.2299C1219.16 62.7992 1218.15 61.0786 1217.46 59.0679C1216.76 57.0186 1216.41 54.6986 1216.41 52.1079C1216.41 48.7439 1217.03 45.8439 1218.27 43.4079C1219.54 40.9332 1221.34 39.0386 1223.66 37.7239C1226.02 36.4092 1228.81 35.7519 1232.01 35.7519C1235.22 35.7519 1237.97 36.4092 1240.25 37.7239C1242.57 39.0386 1244.35 40.9139 1245.59 43.3499C1246.82 45.7859 1247.44 48.7052 1247.44 52.1079C1247.44 54.6599 1247.08 56.9606 1246.34 59.0099C1245.64 61.0592 1244.62 62.7992 1243.27 64.2299C1241.91 65.6219 1240.27 66.7046 1238.34 67.4779C1236.44 68.2126 1234.28 68.5799 1231.84 68.5799ZM1231.96 61.9679C1234.28 61.9679 1235.96 61.1752 1237 59.5899C1238.09 58.0046 1238.63 55.5106 1238.63 52.1079C1238.63 48.7052 1238.09 46.2306 1237 44.6839C1235.96 43.1372 1234.26 42.3639 1231.9 42.3639C1229.58 42.3639 1227.88 43.1372 1226.79 44.6839C1225.75 46.2306 1225.23 48.7052 1225.23 52.1079C1225.23 55.5106 1225.77 58.0046 1226.85 59.5899C1227.94 61.1752 1229.64 61.9679 1231.96 61.9679Z" fill="url(#paint37_linear_112_4182)"/>
<path d="M1183.6 67.9999V36.3319H1197.64C1202.12 36.3319 1205.43 37.0086 1207.56 38.3619C1209.68 39.7152 1210.75 41.7452 1210.75 44.4519C1210.75 46.2306 1210.2 47.7192 1209.12 48.9179C1208.08 50.0779 1206.53 50.8512 1204.48 51.2379V51.4699C1206.69 51.7792 1208.43 52.5719 1209.7 53.8479C1211.02 55.0852 1211.67 56.7286 1211.67 58.7779C1211.67 60.4406 1211.25 61.9679 1210.4 63.3599C1209.55 64.7519 1208.1 65.8732 1206.05 66.7239C1204.04 67.5746 1201.25 67.9999 1197.7 67.9999H1183.6ZM1192.36 61.9679H1197.17C1199.15 61.9679 1200.58 61.6586 1201.47 61.0399C1202.36 60.4212 1202.8 59.5126 1202.8 58.3139C1202.8 57.0379 1202.34 56.0906 1201.41 55.4719C1200.52 54.8532 1199.13 54.5439 1197.23 54.5439H1192.36V61.9679ZM1192.36 48.6859H1196.88C1198.66 48.6859 1199.96 48.4346 1200.77 47.9319C1201.62 47.3906 1202.05 46.5786 1202.05 45.4959C1202.05 44.4519 1201.66 43.6786 1200.89 43.1759C1200.15 42.6346 1199.03 42.3639 1197.52 42.3639H1192.36V48.6859Z" fill="url(#paint38_linear_112_4182)"/>
<path d="M1164.23 68.6379C1160.98 68.6379 1158.12 68.0386 1155.65 66.8399C1153.21 65.6026 1151.32 63.7659 1149.96 61.3299C1148.61 58.8939 1147.93 55.8779 1147.93 52.2819C1147.93 48.7632 1148.57 45.7666 1149.85 43.2919C1151.12 40.8172 1152.9 38.9419 1155.18 37.6659C1157.46 36.3899 1160.15 35.7519 1163.25 35.7519C1166.22 35.7519 1168.74 36.3319 1170.79 37.4919C1172.87 38.6519 1174.46 40.3146 1175.54 42.4799C1176.62 44.6066 1177.17 47.1586 1177.17 50.1359V54.4279H1156.87C1156.94 56.7866 1157.72 58.6232 1159.19 59.9379C1160.65 61.2526 1162.7 61.9099 1165.33 61.9099C1167.03 61.9099 1168.68 61.6972 1170.26 61.2719C1171.89 60.8466 1173.57 60.2472 1175.31 59.4739V66.3179C1173.69 67.0912 1171.98 67.6712 1170.21 68.0579C1168.47 68.4446 1166.47 68.6379 1164.23 68.6379ZM1157.04 48.5119H1168.93C1168.93 47.2359 1168.72 46.1146 1168.29 45.1479C1167.9 44.1812 1167.29 43.4079 1166.44 42.8279C1165.58 42.2479 1164.5 41.9579 1163.19 41.9579C1161.45 41.9579 1160.04 42.5186 1158.95 43.6399C1157.87 44.7226 1157.23 46.3466 1157.04 48.5119Z" fill="url(#paint39_linear_112_4182)"/>
<path d="M1113.32 81.9199V36.3319H1120.34L1121.56 40.4499H1121.96C1122.54 39.5992 1123.24 38.8259 1124.05 38.1299C1124.86 37.3952 1125.83 36.8152 1126.95 36.3899C1128.11 35.9646 1129.44 35.7519 1130.95 35.7519C1134.51 35.7519 1137.39 37.1439 1139.59 39.9279C1141.8 42.6732 1142.9 46.7332 1142.9 52.1079C1142.9 55.7039 1142.38 58.7392 1141.33 61.2139C1140.29 63.6499 1138.86 65.4866 1137.04 66.7239C1135.23 67.9612 1133.12 68.5799 1130.72 68.5799C1129.21 68.5799 1127.9 68.3866 1126.78 67.9999C1125.69 67.6132 1124.77 67.1106 1123.99 66.4919C1123.22 65.8732 1122.54 65.2159 1121.96 64.5199H1121.5C1121.65 65.2546 1121.77 66.0279 1121.85 66.8399C1121.92 67.6132 1121.96 68.3866 1121.96 69.1599V81.9199H1113.32ZM1128.28 61.5619C1129.6 61.5619 1130.68 61.1946 1131.53 60.4599C1132.38 59.7252 1133.02 58.6426 1133.45 57.2119C1133.87 55.7812 1134.08 54.0412 1134.08 51.9919C1134.08 48.8986 1133.6 46.5786 1132.63 45.0319C1131.71 43.4466 1130.22 42.6539 1128.17 42.6539C1126.66 42.6539 1125.46 42.9632 1124.57 43.5819C1123.68 44.2006 1123.03 45.1479 1122.6 46.4239C1122.21 47.6612 1122 49.2272 1121.96 51.1219V52.0499C1121.96 54.0992 1122.16 55.8392 1122.54 57.2699C1122.93 58.6619 1123.59 59.7252 1124.51 60.4599C1125.44 61.1946 1126.7 61.5619 1128.28 61.5619Z" fill="url(#paint40_linear_112_4182)"/>
<path d="M1093.54 68.6379C1090.3 68.6379 1087.43 68.0386 1084.96 66.8399C1082.52 65.6026 1080.63 63.7659 1079.28 61.3299C1077.92 58.8939 1077.25 55.8779 1077.25 52.2819C1077.25 48.7632 1077.88 45.7666 1079.16 43.2919C1080.44 40.8172 1082.21 38.9419 1084.5 37.6659C1086.78 36.3899 1089.46 35.7519 1092.56 35.7519C1095.53 35.7519 1098.05 36.3319 1100.1 37.4919C1102.19 38.6519 1103.77 40.3146 1104.85 42.4799C1105.94 44.6066 1106.48 47.1586 1106.48 50.1359V54.4279H1086.18C1086.25 56.7866 1087.03 58.6232 1088.5 59.9379C1089.97 61.2526 1092.02 61.9099 1094.65 61.9099C1096.35 61.9099 1097.99 61.6972 1099.58 61.2719C1101.2 60.8466 1102.88 60.2472 1104.62 59.4739V66.3179C1103 67.0912 1101.3 67.6712 1099.52 68.0579C1097.78 68.4446 1095.79 68.6379 1093.54 68.6379ZM1086.35 48.5119H1098.24C1098.24 47.2359 1098.03 46.1146 1097.6 45.1479C1097.22 44.1812 1096.6 43.4079 1095.75 42.8279C1094.9 42.2479 1093.81 41.9579 1092.5 41.9579C1090.76 41.9579 1089.35 42.5186 1088.27 43.6399C1087.18 44.7226 1086.54 46.3466 1086.35 48.5119Z" fill="url(#paint41_linear_112_4182)"/>
<path d="M1041.73 67.9999V36.3319H1070.15V67.9999H1061.5V42.9439H1050.37V67.9999H1041.73Z" fill="url(#paint42_linear_112_4182)"/>
<path d="M977.157 67.9999V36.3319H985.799V46.3079H989.627C994.537 46.3079 998.172 47.2166 1000.53 49.0339C1002.93 50.8126 1004.13 53.4999 1004.13 57.0959C1004.13 60.6919 1002.93 63.4179 1000.53 65.2739C998.172 67.0912 994.595 67.9999 989.801 67.9999H977.157ZM985.799 61.5039H989.569C991.579 61.5039 993.049 61.1366 993.977 60.4019C994.905 59.6286 995.369 58.5652 995.369 57.2119C995.369 55.7426 994.885 54.6406 993.919 53.9059C992.991 53.1712 991.502 52.8039 989.453 52.8039H985.799V61.5039ZM1008.77 67.9999V36.3319H1017.41V67.9999H1008.77Z" fill="url(#paint43_linear_112_4182)"/>
<path d="M953.557 67.9999V42.8279H943.813V36.3319H971.943V42.8279H962.199V67.9999H953.557Z" fill="url(#paint44_linear_112_4182)"/>
<path d="M909.811 67.9999V36.3319H918.453V48.6859H929.937V36.3319H938.579V67.9999H929.937V55.2979H918.453V67.9999H909.811Z" fill="url(#paint45_linear_112_4182)"/>
<path d="M890.034 68.6379C886.786 68.6379 883.924 68.0386 881.45 66.8399C879.014 65.6026 877.119 63.7659 875.766 61.3299C874.412 58.8939 873.736 55.8779 873.736 52.2819C873.736 48.7632 874.374 45.7666 875.65 43.2919C876.926 40.8172 878.704 38.9419 880.986 37.6659C883.267 36.3899 885.954 35.7519 889.048 35.7519C892.025 35.7519 894.538 36.3319 896.588 37.4919C898.676 38.6519 900.261 40.3146 901.344 42.4799C902.426 44.6066 902.968 47.1586 902.968 50.1359V54.4279H882.668C882.745 56.7866 883.518 58.6232 884.988 59.9379C886.457 61.2526 888.506 61.9099 891.136 61.9099C892.837 61.9099 894.48 61.6972 896.066 61.2719C897.69 60.8466 899.372 60.2472 901.112 59.4739V66.3179C899.488 67.0912 897.786 67.6712 896.008 68.0579C894.268 68.4446 892.276 68.6379 890.034 68.6379ZM882.842 48.5119H894.732C894.732 47.2359 894.519 46.1146 894.094 45.1479C893.707 44.1812 893.088 43.4079 892.238 42.8279C891.387 42.2479 890.304 41.9579 888.99 41.9579C887.25 41.9579 885.838 42.5186 884.756 43.6399C883.673 44.7226 883.035 46.3466 882.842 48.5119Z" fill="url(#paint46_linear_112_4182)"/>
<path d="M827.399 67.9999V36.3319H839.579L848.511 61.5039H845.843L854.891 36.3319H866.665V67.9999H858.603V52.4559C858.603 50.9092 858.622 49.4012 858.661 47.9319C858.738 46.4626 858.835 45.1092 858.951 43.8719H858.777L850.309 67.9999H843.871L835.287 43.8139H835.055C835.209 45.0899 835.306 46.4626 835.345 47.9319C835.422 49.3626 835.461 50.9479 835.461 52.6879V67.9999H827.399Z" fill="url(#paint47_linear_112_4182)"/>
<path d="M796.004 81.9199C795.076 81.9199 794.225 81.8619 793.452 81.7459C792.679 81.6299 792.021 81.5139 791.48 81.3979V74.3219C791.983 74.4379 792.505 74.5346 793.046 74.6119C793.587 74.6892 794.187 74.7279 794.844 74.7279C796.197 74.7279 797.299 74.4959 798.15 74.0319C799.039 73.5679 799.755 72.9492 800.296 72.1759C800.876 71.4026 801.359 70.5326 801.746 69.5659L803.892 64.0559L803.66 71.4799L789.566 36.3319H799.02L804.878 54.3119C805.071 54.8532 805.245 55.4332 805.4 56.0519C805.593 56.6706 805.767 57.2892 805.922 57.9079C806.077 58.5266 806.173 59.1259 806.212 59.7059H806.444C806.599 58.8552 806.811 57.9659 807.082 57.0379C807.353 56.0712 807.623 55.1626 807.894 54.3119L813.694 36.3319H822.742L809.75 70.8999C808.861 73.2586 807.836 75.2499 806.676 76.8739C805.516 78.5366 804.066 79.7932 802.326 80.6439C800.625 81.4946 798.517 81.9199 796.004 81.9199Z" fill="url(#paint48_linear_112_4182)"/>
<path d="M759.203 81.9199V36.3319H766.221L767.439 40.4499H767.845C768.425 39.5992 769.121 38.8259 769.933 38.1299C770.745 37.3952 771.712 36.8152 772.833 36.3899C773.993 35.9646 775.327 35.7519 776.835 35.7519C780.393 35.7519 783.273 37.1439 785.477 39.9279C787.681 42.6732 788.783 46.7332 788.783 52.1079C788.783 55.7039 788.261 58.7392 787.217 61.2139C786.173 63.6499 784.743 65.4866 782.925 66.7239C781.108 67.9612 779.001 68.5799 776.603 68.5799C775.095 68.5799 773.781 68.3866 772.659 67.9999C771.577 67.6132 770.649 67.1106 769.875 66.4919C769.102 65.8732 768.425 65.2159 767.845 64.5199H767.381C767.536 65.2546 767.652 66.0279 767.729 66.8399C767.807 67.6132 767.845 68.3866 767.845 69.1599V81.9199H759.203ZM774.167 61.5619C775.482 61.5619 776.565 61.1946 777.415 60.4599C778.266 59.7252 778.904 58.6426 779.329 57.2119C779.755 55.7812 779.967 54.0412 779.967 51.9919C779.967 48.8986 779.484 46.5786 778.517 45.0319C777.589 43.4466 776.101 42.6539 774.051 42.6539C772.543 42.6539 771.345 42.9632 770.455 43.5819C769.566 44.2006 768.909 45.1479 768.483 46.4239C768.097 47.6612 767.884 49.2272 767.845 51.1219V52.0499C767.845 54.0992 768.039 55.8392 768.425 57.2699C768.812 58.6619 769.469 59.7252 770.397 60.4599C771.325 61.1946 772.582 61.5619 774.167 61.5619Z" fill="url(#paint49_linear_112_4182)"/>
<path d="M735.604 67.9999V42.8279H725.86V36.3319H753.99V42.8279H744.246V67.9999H735.604Z" fill="url(#paint50_linear_112_4182)"/>
<path d="M713.076 68.5799C708.011 68.5799 704.106 67.1879 701.36 64.4039C698.654 61.6199 697.3 57.6372 697.3 52.4559C697.3 48.7052 697.977 45.5926 699.33 43.1179C700.722 40.6432 702.617 38.8066 705.014 37.6079C707.45 36.3706 710.273 35.7519 713.482 35.7519C715.377 35.7519 717.136 35.9259 718.76 36.2739C720.423 36.6219 721.912 37.1246 723.226 37.7819L720.674 44.2779C719.437 43.7366 718.296 43.3499 717.252 43.1179C716.208 42.8472 715.126 42.7119 714.004 42.7119C711.491 42.7119 709.558 43.5239 708.204 45.1479C706.89 46.7719 706.232 49.1499 706.232 52.2819C706.232 55.3752 706.909 57.6952 708.262 59.2419C709.616 60.7499 711.704 61.5039 714.526 61.5039C715.686 61.5039 716.924 61.3879 718.238 61.1559C719.553 60.8852 720.868 60.4792 722.182 59.9379V66.7819C720.984 67.3232 719.592 67.7486 718.006 68.0579C716.421 68.4059 714.778 68.5799 713.076 68.5799Z" fill="url(#paint51_linear_112_4182)"/>
<path d="M661.442 67.9999V36.3319H670.084V48.6859H681.568V36.3319H690.21V67.9999H681.568V55.2979H670.084V67.9999H661.442Z" fill="url(#paint52_linear_112_4182)"/>
<path d="M622.36 67.9999V36.3319H630.77V48.8599C630.77 49.9039 630.731 51.1026 630.654 52.4559C630.576 53.8092 630.48 55.0659 630.364 56.2259C630.286 57.3859 630.19 58.2172 630.074 58.7199H630.248L642.312 36.3319H652.172V67.9999H643.762V55.3559C643.762 54.1186 643.8 52.8812 643.878 51.6439C643.955 50.3679 644.032 49.2079 644.11 48.1639C644.226 47.1199 644.322 46.3079 644.4 45.7279H644.168L632.22 67.9999H622.36Z" fill="url(#paint53_linear_112_4182)"/>
<path d="M587.516 68.6379C584.268 68.6379 581.407 68.0386 578.932 66.8399C576.496 65.6026 574.602 63.7659 573.248 61.3299C571.895 58.8939 571.218 55.8779 571.218 52.2819C571.218 48.7632 571.856 45.7666 573.132 43.2919C574.408 40.8172 576.187 38.9419 578.468 37.6659C580.75 36.3899 583.437 35.7519 586.53 35.7519C589.508 35.7519 592.021 36.3319 594.07 37.4919C596.158 38.6519 597.744 40.3146 598.826 42.4799C599.909 44.6066 600.45 47.1586 600.45 50.1359V54.4279H580.15C580.228 56.7866 581.001 58.6232 582.47 59.9379C583.94 61.2526 585.989 61.9099 588.618 61.9099C590.32 61.9099 591.963 61.6972 593.548 61.2719C595.172 60.8466 596.854 60.2472 598.594 59.4739V66.3179C596.97 67.0912 595.269 67.6712 593.49 68.0579C591.75 68.4446 589.759 68.6379 587.516 68.6379ZM580.324 48.5119H592.214C592.214 47.2359 592.002 46.1146 591.576 45.1479C591.19 44.1812 590.571 43.4079 589.72 42.8279C588.87 42.2479 587.787 41.9579 586.472 41.9579C584.732 41.9579 583.321 42.5186 582.238 43.6399C581.156 44.7226 580.518 46.3466 580.324 48.5119Z" fill="url(#paint54_linear_112_4182)"/>
<path d="M523.918 67.9999V36.3319H532.56V46.3079H536.388C541.299 46.3079 544.934 47.2166 547.292 49.0339C549.69 50.8126 550.888 53.4999 550.888 57.0959C550.888 60.6919 549.69 63.4179 547.292 65.2739C544.934 67.0912 541.357 67.9999 536.562 67.9999H523.918ZM532.56 61.5039H536.33C538.341 61.5039 539.81 61.1366 540.738 60.4019C541.666 59.6286 542.13 58.5652 542.13 57.2119C542.13 55.7426 541.647 54.6406 540.68 53.9059C539.752 53.1712 538.264 52.8039 536.214 52.8039H532.56V61.5039ZM555.528 67.9999V36.3319H564.17V67.9999H555.528Z" fill="url(#paint55_linear_112_4182)"/>
<path d="M485.856 67.9999V36.3319H494.498V48.6859H505.982V36.3319H514.624V67.9999H505.982V55.2979H494.498V67.9999H485.856Z" fill="url(#paint56_linear_112_4182)"/>
<path d="M451.588 67.9999V36.3319H460.23V46.4819H464.522C469.394 46.4819 473.01 47.3712 475.368 49.1499C477.727 50.8899 478.906 53.5192 478.906 57.0379C478.906 60.6726 477.727 63.4179 475.368 65.2739C473.01 67.0912 469.472 67.9999 464.754 67.9999H451.588ZM460.23 61.5039H464.116C466.166 61.5039 467.674 61.1559 468.64 60.4599C469.646 59.7252 470.148 58.6426 470.148 57.2119C470.148 55.8199 469.646 54.7952 468.64 54.1379C467.674 53.4419 466.127 53.0939 464 53.0939H460.23V61.5039Z" fill="url(#paint57_linear_112_4182)"/>
<path d="M415.219 68.4059C414.485 68.4059 413.75 68.3479 413.016 68.2319C412.32 68.1159 411.643 67.9806 410.986 67.8259V60.9819C411.372 61.0979 411.72 61.1752 412.029 61.2139C412.377 61.2526 412.706 61.2719 413.016 61.2719C413.828 61.2719 414.485 61.0979 414.988 60.7499C415.529 60.4019 415.954 59.8606 416.264 59.1259C416.573 58.3526 416.786 57.3086 416.902 55.9939C417.018 54.7952 417.114 53.5579 417.192 52.2819C417.308 51.0059 417.404 49.6139 417.482 48.1059C417.559 46.5592 417.636 44.8386 417.714 42.9439C417.83 41.0106 417.946 38.8066 418.062 36.3319H442.712V67.9999H433.954V43.1179H425.602C425.524 44.6259 425.447 46.0179 425.37 47.2939C425.292 48.5699 425.215 49.7879 425.137 50.9479C425.06 52.1079 424.983 53.2292 424.906 54.3119C424.828 55.3946 424.731 56.4579 424.615 57.5019C424.267 61.3299 423.339 64.1139 421.831 65.8539C420.362 67.5552 418.158 68.4059 415.219 68.4059Z" fill="url(#paint58_linear_112_4182)"/>
<path d="M395.674 68.6379C392.426 68.6379 389.565 68.0386 387.09 66.8399C384.654 65.6026 382.76 63.7659 381.406 61.3299C380.053 58.8939 379.376 55.8779 379.376 52.2819C379.376 48.7632 380.014 45.7666 381.29 43.2919C382.566 40.8172 384.345 38.9419 386.626 37.6659C388.908 36.3899 391.595 35.7519 394.688 35.7519C397.666 35.7519 400.179 36.3319 402.228 37.4919C404.316 38.6519 405.902 40.3146 406.984 42.4799C408.067 44.6066 408.608 47.1586 408.608 50.1359V54.4279H388.308C388.386 56.7866 389.159 58.6232 390.628 59.9379C392.098 61.2526 394.147 61.9099 396.776 61.9099C398.478 61.9099 400.121 61.6972 401.706 61.2719C403.33 60.8466 405.012 60.2472 406.752 59.4739V66.3179C405.128 67.0912 403.427 67.6712 401.648 68.0579C399.908 68.4446 397.917 68.6379 395.674 68.6379ZM388.482 48.5119H400.372C400.372 47.2359 400.16 46.1146 399.734 45.1479C399.348 44.1812 398.729 43.4079 397.878 42.8279C397.028 42.2479 395.945 41.9579 394.63 41.9579C392.89 41.9579 391.479 42.5186 390.396 43.6399C389.314 44.7226 388.676 46.3466 388.482 48.5119Z" fill="url(#paint59_linear_112_4182)"/>
<path d="M358.548 67.9999V42.8279H348.804V36.3319H376.934V42.8279H367.19V67.9999H358.548Z" fill="url(#paint60_linear_112_4182)"/>
<path d="M313.782 67.9999V36.3319H322.192V48.8599C322.192 49.9039 322.153 51.1026 322.076 52.4559C321.998 53.8092 321.902 55.0659 321.786 56.2259C321.708 57.3859 321.612 58.2172 321.496 58.7199H321.67L333.734 36.3319H343.594V67.9999H335.184V55.3559C335.184 54.1186 335.222 52.8812 335.3 51.6439C335.377 50.3679 335.454 49.2079 335.532 48.1639C335.648 47.1199 335.744 46.3079 335.822 45.7279H335.59L323.642 67.9999H313.782Z" fill="url(#paint61_linear_112_4182)"/>
<path d="M275.719 67.9999V36.3319H284.361V48.6859H295.845V36.3319H304.487V67.9999H295.845V55.2979H284.361V67.9999H275.719Z" fill="url(#paint62_linear_112_4182)"/>
<path d="M239.35 68.4059C238.616 68.4059 237.881 68.3479 237.146 68.2319C236.45 68.1159 235.774 67.9806 235.116 67.8259V60.9819C235.503 61.0979 235.851 61.1752 236.16 61.2139C236.508 61.2526 236.837 61.2719 237.146 61.2719C237.958 61.2719 238.616 61.0979 239.118 60.7499C239.66 60.4019 240.085 59.8606 240.394 59.1259C240.704 58.3526 240.916 57.3086 241.032 55.9939C241.148 54.7952 241.245 53.5579 241.322 52.2819C241.438 51.0059 241.535 49.6139 241.612 48.1059C241.69 46.5592 241.767 44.8386 241.844 42.9439C241.96 41.0106 242.076 38.8066 242.192 36.3319H266.842V67.9999H258.084V43.1179H249.732C249.655 44.6259 249.578 46.0179 249.5 47.2939C249.423 48.5699 249.346 49.7879 249.268 50.9479C249.191 52.1079 249.114 53.2292 249.036 54.3119C248.959 55.3946 248.862 56.4579 248.746 57.5019C248.398 61.3299 247.47 64.1139 245.962 65.8539C244.493 67.5552 242.289 68.4059 239.35 68.4059Z" fill="url(#paint63_linear_112_4182)"/>
<path d="M216.841 68.5799C214.444 68.5799 212.278 68.2126 210.345 67.4779C208.45 66.7046 206.826 65.6219 205.473 64.2299C204.158 62.7992 203.153 61.0786 202.457 59.0679C201.761 57.0186 201.413 54.6986 201.413 52.1079C201.413 48.7439 202.032 45.8439 203.269 43.4079C204.545 40.9332 206.343 39.0386 208.663 37.7239C211.022 36.4092 213.806 35.7519 217.015 35.7519C220.224 35.7519 222.97 36.4092 225.251 37.7239C227.571 39.0386 229.35 40.9139 230.587 43.3499C231.824 45.7859 232.443 48.7052 232.443 52.1079C232.443 54.6599 232.076 56.9606 231.341 59.0099C230.645 61.0592 229.62 62.7992 228.267 64.2299C226.914 65.6219 225.27 66.7046 223.337 67.4779C221.442 68.2126 219.277 68.5799 216.841 68.5799ZM216.957 61.9679C219.277 61.9679 220.959 61.1752 222.003 59.5899C223.086 58.0046 223.627 55.5106 223.627 52.1079C223.627 48.7052 223.086 46.2306 222.003 44.6839C220.959 43.1372 219.258 42.3639 216.899 42.3639C214.579 42.3639 212.878 43.1372 211.795 44.6839C210.751 46.2306 210.229 48.7052 210.229 52.1079C210.229 55.5106 210.77 58.0046 211.853 59.5899C212.936 61.1752 214.637 61.9679 216.957 61.9679Z" fill="url(#paint64_linear_112_4182)"/>
<path d="M165.836 67.9999V36.3319H194.256V67.9999H185.614V42.9439H174.478V67.9999H165.836Z" fill="url(#paint65_linear_112_4182)"/>
<path d="M143.095 68.5799C140.698 68.5799 138.532 68.2126 136.599 67.4779C134.704 66.7046 133.08 65.6219 131.727 64.2299C130.412 62.7992 129.407 61.0786 128.711 59.0679C128.015 57.0186 127.667 54.6986 127.667 52.1079C127.667 48.7439 128.286 45.8439 129.523 43.4079C130.799 40.9332 132.597 39.0386 134.917 37.7239C137.276 36.4092 140.06 35.7519 143.269 35.7519C146.478 35.7519 149.224 36.4092 151.505 37.7239C153.825 39.0386 155.604 40.9139 156.841 43.3499C158.078 45.7859 158.697 48.7052 158.697 52.1079C158.697 54.6599 158.33 56.9606 157.595 59.0099C156.899 61.0592 155.874 62.7992 154.521 64.2299C153.168 65.6219 151.524 66.7046 149.591 67.4779C147.696 68.2126 145.531 68.5799 143.095 68.5799ZM143.211 61.9679C145.531 61.9679 147.213 61.1752 148.257 59.5899C149.34 58.0046 149.881 55.5106 149.881 52.1079C149.881 48.7052 149.34 46.2306 148.257 44.6839C147.213 43.1372 145.512 42.3639 143.153 42.3639C140.833 42.3639 139.132 43.1372 138.049 44.6839C137.005 46.2306 136.483 48.7052 136.483 52.1079C136.483 55.5106 137.024 58.0046 138.107 59.5899C139.19 61.1752 140.891 61.9679 143.211 61.9679Z" fill="url(#paint66_linear_112_4182)"/>
<path d="M80.7236 76.5839V60.6919H85.0736C86.1949 59.4546 87.0842 58.2172 87.7416 56.9799C88.3989 55.7039 88.9016 54.2539 89.2496 52.6299C89.5976 50.9672 89.8682 48.9372 90.0616 46.5399C90.1389 45.4959 90.2162 44.2586 90.2936 42.8279C90.4096 41.3586 90.5062 39.7732 90.5836 38.0719C90.6609 36.3319 90.7382 34.4952 90.8156 32.5619C90.8929 30.6286 90.9509 28.6372 90.9896 26.5879H119.004V60.6919H124.572V76.5839H116.104V67.9999H89.1916V76.5839H80.7236ZM94.2956 60.6919H110.246V33.8959H98.7616C98.7229 35.4812 98.6649 37.0472 98.5876 38.5939C98.5102 40.1019 98.4329 41.5712 98.3556 43.0019C98.2782 44.3939 98.1816 45.7086 98.0656 46.9459C97.8722 49.1886 97.6016 51.1606 97.2536 52.8619C96.9056 54.5632 96.4996 56.0519 96.0356 57.3279C95.5716 58.5652 94.9916 59.6866 94.2956 60.6919Z" fill="url(#paint67_linear_112_4182)"/>
<defs>
<filter id="filter0_f_112_4182" x="61.7236" y="18.5879" width="1276.09" height="95.332" filterUnits="userSpaceOnUse" color-interpolation-filters="sRGB">
<feFlood flood-opacity="0" result="BackgroundImageFix"/>
<feBlend mode="normal" in="SourceGraphic" in2="BackgroundImageFix" result="shape"/>
<feGaussianBlur stdDeviation="10" result="effect1_foregroundBlur_112_4182"/>
</filter>
<linearGradient id="paint0_linear_112_4182" x1="6.33277e-06" y1="61.0036" x2="1400" y2="61.0014" gradientUnits="userSpaceOnUse">
<stop stop-color="white" stop-opacity="0.3"/>
<stop offset="0.495" stop-color="#CBB0F8"/>
<stop offset="1" stop-color="white" stop-opacity="0.3"/>
</linearGradient>
<linearGradient id="paint1_linear_112_4182" x1="1501.01" y1="55.0183" x2="-52807" y2="55.385" gradientUnits="userSpaceOnUse">
<stop stop-color="#F4439F"/>
<stop offset="1" stop-color="#7C3AED"/>
</linearGradient>
<linearGradient id="paint2_linear_112_4182" x1="2525.88" y1="51.3376" x2="-39995.2" y2="51.61" gradientUnits="userSpaceOnUse">
<stop stop-color="#F4439F"/>
<stop offset="1" stop-color="#7C3AED"/>
</linearGradient>
<linearGradient id="paint3_linear_112_4182" x1="4247.98" y1="55.0183" x2="-45187.6" y2="55.3221" gradientUnits="userSpaceOnUse">
<stop stop-color="#F4439F"/>
<stop offset="1" stop-color="#7C3AED"/>
</linearGradient>
<linearGradient id="paint4_linear_112_4182" x1="6131.74" y1="54.6067" x2="-48513" y2="54.9649" gradientUnits="userSpaceOnUse">
<stop stop-color="#F4439F"/>
<stop offset="1" stop-color="#7C3AED"/>
</linearGradient>
<linearGradient id="paint5_linear_112_4182" x1="7399.96" y1="54.9893" x2="-45076.5" y2="55.3323" gradientUnits="userSpaceOnUse">
<stop stop-color="#F4439F"/>
<stop offset="1" stop-color="#7C3AED"/>
</linearGradient>
<linearGradient id="paint6_linear_112_4182" x1="8760.25" y1="50.2708" x2="-43098.8" y2="50.7411" gradientUnits="userSpaceOnUse">
<stop stop-color="#F4439F"/>
<stop offset="1" stop-color="#7C3AED"/>
</linearGradient>
<linearGradient id="paint7_linear_112_4182" x1="10389" y1="54.9893" x2="-42087.3" y2="55.3323" gradientUnits="userSpaceOnUse">
<stop stop-color="#F4439F"/>
<stop offset="1" stop-color="#7C3AED"/>
</linearGradient>
<linearGradient id="paint8_linear_112_4182" x1="12228.3" y1="54.6067" x2="-41747.3" y2="54.9562" gradientUnits="userSpaceOnUse">
<stop stop-color="#F4439F"/>
<stop offset="1" stop-color="#7C3AED"/>
</linearGradient>
<linearGradient id="paint9_linear_112_4182" x1="10640.7" y1="54.6067" x2="-27468.9" y2="54.7809" gradientUnits="userSpaceOnUse">
<stop stop-color="#F4439F"/>
<stop offset="1" stop-color="#7C3AED"/>
</linearGradient>
<linearGradient id="paint10_linear_112_4182" x1="16656.1" y1="54.6067" x2="-37876" y2="54.9634" gradientUnits="userSpaceOnUse">
<stop stop-color="#F4439F"/>
<stop offset="1" stop-color="#7C3AED"/>
</linearGradient>
<linearGradient id="paint11_linear_112_4182" x1="17749.5" y1="54.6067" x2="-35573.2" y2="54.9477" gradientUnits="userSpaceOnUse">
<stop stop-color="#F4439F"/>
<stop offset="1" stop-color="#7C3AED"/>
</linearGradient>
<linearGradient id="paint12_linear_112_4182" x1="18994.5" y1="54.9893" x2="-33481.7" y2="55.3323" gradientUnits="userSpaceOnUse">
<stop stop-color="#F4439F"/>
<stop offset="1" stop-color="#7C3AED"/>
</linearGradient>
<linearGradient id="paint13_linear_112_4182" x1="15620.2" y1="54.6067" x2="-23446.3" y2="54.7898" gradientUnits="userSpaceOnUse">
<stop stop-color="#F4439F"/>
<stop offset="1" stop-color="#7C3AED"/>
</linearGradient>
<linearGradient id="paint14_linear_112_4182" x1="19882.2" y1="49.7155" x2="-26355.7" y2="50.0846" gradientUnits="userSpaceOnUse">
<stop stop-color="#F4439F"/>
<stop offset="1" stop-color="#7C3AED"/>
</linearGradient>
<linearGradient id="paint15_linear_112_4182" x1="23558.1" y1="50.2708" x2="-28300.8" y2="50.7411" gradientUnits="userSpaceOnUse">
<stop stop-color="#F4439F"/>
<stop offset="1" stop-color="#7C3AED"/>
</linearGradient>
<linearGradient id="paint16_linear_112_4182" x1="26233.4" y1="54.6067" x2="-28298.7" y2="54.9634" gradientUnits="userSpaceOnUse">
<stop stop-color="#F4439F"/>
<stop offset="1" stop-color="#7C3AED"/>
</linearGradient>
<linearGradient id="paint17_linear_112_4182" x1="29818.2" y1="55.0183" x2="-29349.7" y2="55.4536" gradientUnits="userSpaceOnUse">
<stop stop-color="#F4439F"/>
<stop offset="1" stop-color="#7C3AED"/>
</linearGradient>
<linearGradient id="paint18_linear_112_4182" x1="28421.3" y1="54.6067" x2="-24901.4" y2="54.9477" gradientUnits="userSpaceOnUse">
<stop stop-color="#F4439F"/>
<stop offset="1" stop-color="#7C3AED"/>
</linearGradient>
<linearGradient id="paint19_linear_112_4182" x1="29049.3" y1="54.6067" x2="-22406" y2="54.9243" gradientUnits="userSpaceOnUse">
<stop stop-color="#F4439F"/>
<stop offset="1" stop-color="#7C3AED"/>
</linearGradient>
<linearGradient id="paint20_linear_112_4182" x1="31786.6" y1="54.9893" x2="-20689.7" y2="55.3324" gradientUnits="userSpaceOnUse">
<stop stop-color="#F4439F"/>
<stop offset="1" stop-color="#7C3AED"/>
</linearGradient>
<linearGradient id="paint21_linear_112_4182" x1="24559.1" y1="54.6067" x2="-13550.5" y2="54.7809" gradientUnits="userSpaceOnUse">
<stop stop-color="#F4439F"/>
<stop offset="1" stop-color="#7C3AED"/>
</linearGradient>
<linearGradient id="paint22_linear_112_4182" x1="35965.8" y1="54.6067" x2="-17356.9" y2="54.9477" gradientUnits="userSpaceOnUse">
<stop stop-color="#F4439F"/>
<stop offset="1" stop-color="#7C3AED"/>
</linearGradient>
<linearGradient id="paint23_linear_112_4182" x1="39421" y1="54.6067" x2="-16732" y2="54.9849" gradientUnits="userSpaceOnUse">
<stop stop-color="#F4439F"/>
<stop offset="1" stop-color="#7C3AED"/>
</linearGradient>
<linearGradient id="paint24_linear_112_4182" x1="35537.2" y1="54.4039" x2="-12814" y2="54.6879" gradientUnits="userSpaceOnUse">
<stop stop-color="#F4439F"/>
<stop offset="1" stop-color="#7C3AED"/>
</linearGradient>
<linearGradient id="paint25_linear_112_4182" x1="39898.8" y1="54.9893" x2="-12577.6" y2="55.3324" gradientUnits="userSpaceOnUse">
<stop stop-color="#F4439F"/>
<stop offset="1" stop-color="#7C3AED"/>
</linearGradient>
<linearGradient id="paint26_linear_112_4182" x1="42802" y1="54.6067" x2="-11730.1" y2="54.9634" gradientUnits="userSpaceOnUse">
<stop stop-color="#F4439F"/>
<stop offset="1" stop-color="#7C3AED"/>
</linearGradient>
<linearGradient id="paint27_linear_112_4182" x1="41843.9" y1="54.6067" x2="-9611.53" y2="54.9243" gradientUnits="userSpaceOnUse">
<stop stop-color="#F4439F"/>
<stop offset="1" stop-color="#7C3AED"/>
</linearGradient>
<linearGradient id="paint28_linear_112_4182" x1="44994.9" y1="54.6067" x2="-8327.84" y2="54.9477" gradientUnits="userSpaceOnUse">
<stop stop-color="#F4439F"/>
<stop offset="1" stop-color="#7C3AED"/>
</linearGradient>
<linearGradient id="paint29_linear_112_4182" x1="42389.3" y1="54.4039" x2="-5961.83" y2="54.6879" gradientUnits="userSpaceOnUse">
<stop stop-color="#F4439F"/>
<stop offset="1" stop-color="#7C3AED"/>
</linearGradient>
<linearGradient id="paint30_linear_112_4182" x1="44680.8" y1="55.0183" x2="-4754.8" y2="55.3222" gradientUnits="userSpaceOnUse">
<stop stop-color="#F4439F"/>
<stop offset="1" stop-color="#7C3AED"/>
</linearGradient>
<linearGradient id="paint31_linear_112_4182" x1="50324" y1="54.6067" x2="-3651.61" y2="54.9561" gradientUnits="userSpaceOnUse">
<stop stop-color="#F4439F"/>
<stop offset="1" stop-color="#7C3AED"/>
</linearGradient>
<linearGradient id="paint32_linear_112_4182" x1="47618.5" y1="55.0183" x2="-1817.1" y2="55.3222" gradientUnits="userSpaceOnUse">
<stop stop-color="#F4439F"/>
<stop offset="1" stop-color="#7C3AED"/>
</linearGradient>
<linearGradient id="paint33_linear_112_4182" x1="1322" y1="57.4999" x2="81" y2="57.5002" gradientUnits="userSpaceOnUse">
<stop stop-color="#F4439F"/>
<stop offset="1" stop-color="#7C3AED"/>
</linearGradient>
<linearGradient id="paint34_linear_112_4182" x1="700" y1="69" x2="700" y2="114" gradientUnits="userSpaceOnUse">
<stop offset="0.0001" stop-color="white" stop-opacity="0.1"/>
<stop offset="1" stop-color="white" stop-opacity="0"/>
</linearGradient>
<linearGradient id="paint35_linear_112_4182" x1="1500.01" y1="43.0183" x2="-52808" y2="43.385" gradientUnits="userSpaceOnUse">
<stop stop-color="#F4439F"/>
<stop offset="1" stop-color="#7C3AED"/>
</linearGradient>
<linearGradient id="paint36_linear_112_4182" x1="2524.88" y1="39.3376" x2="-39996.2" y2="39.61" gradientUnits="userSpaceOnUse">
<stop stop-color="#F4439F"/>
<stop offset="1" stop-color="#7C3AED"/>
</linearGradient>
<linearGradient id="paint37_linear_112_4182" x1="4246.98" y1="43.0183" x2="-45188.6" y2="43.3221" gradientUnits="userSpaceOnUse">
<stop stop-color="#F4439F"/>
<stop offset="1" stop-color="#7C3AED"/>
</linearGradient>
<linearGradient id="paint38_linear_112_4182" x1="6130.74" y1="42.6067" x2="-48514" y2="42.9649" gradientUnits="userSpaceOnUse">
<stop stop-color="#F4439F"/>
<stop offset="1" stop-color="#7C3AED"/>
</linearGradient>
<linearGradient id="paint39_linear_112_4182" x1="7398.96" y1="42.9893" x2="-45077.5" y2="43.3323" gradientUnits="userSpaceOnUse">
<stop stop-color="#F4439F"/>
<stop offset="1" stop-color="#7C3AED"/>
</linearGradient>
<linearGradient id="paint40_linear_112_4182" x1="8759.25" y1="38.2708" x2="-43099.8" y2="38.7411" gradientUnits="userSpaceOnUse">
<stop stop-color="#F4439F"/>
<stop offset="1" stop-color="#7C3AED"/>
</linearGradient>
<linearGradient id="paint41_linear_112_4182" x1="10388" y1="42.9893" x2="-42088.3" y2="43.3323" gradientUnits="userSpaceOnUse">
<stop stop-color="#F4439F"/>
<stop offset="1" stop-color="#7C3AED"/>
</linearGradient>
<linearGradient id="paint42_linear_112_4182" x1="12227.3" y1="42.6067" x2="-41748.3" y2="42.9562" gradientUnits="userSpaceOnUse">
<stop stop-color="#F4439F"/>
<stop offset="1" stop-color="#7C3AED"/>
</linearGradient>
<linearGradient id="paint43_linear_112_4182" x1="10639.7" y1="42.6067" x2="-27469.9" y2="42.7809" gradientUnits="userSpaceOnUse">
<stop stop-color="#F4439F"/>
<stop offset="1" stop-color="#7C3AED"/>
</linearGradient>
<linearGradient id="paint44_linear_112_4182" x1="16655.1" y1="42.6067" x2="-37877" y2="42.9634" gradientUnits="userSpaceOnUse">
<stop stop-color="#F4439F"/>
<stop offset="1" stop-color="#7C3AED"/>
</linearGradient>
<linearGradient id="paint45_linear_112_4182" x1="17748.5" y1="42.6067" x2="-35574.2" y2="42.9477" gradientUnits="userSpaceOnUse">
<stop stop-color="#F4439F"/>
<stop offset="1" stop-color="#7C3AED"/>
</linearGradient>
<linearGradient id="paint46_linear_112_4182" x1="18993.5" y1="42.9893" x2="-33482.7" y2="43.3323" gradientUnits="userSpaceOnUse">
<stop stop-color="#F4439F"/>
<stop offset="1" stop-color="#7C3AED"/>
</linearGradient>
<linearGradient id="paint47_linear_112_4182" x1="15619.2" y1="42.6067" x2="-23447.3" y2="42.7898" gradientUnits="userSpaceOnUse">
<stop stop-color="#F4439F"/>
<stop offset="1" stop-color="#7C3AED"/>
</linearGradient>
<linearGradient id="paint48_linear_112_4182" x1="19881.2" y1="37.7155" x2="-26356.7" y2="38.0846" gradientUnits="userSpaceOnUse">
<stop stop-color="#F4439F"/>
<stop offset="1" stop-color="#7C3AED"/>
</linearGradient>
<linearGradient id="paint49_linear_112_4182" x1="23557.1" y1="38.2708" x2="-28301.8" y2="38.7411" gradientUnits="userSpaceOnUse">
<stop stop-color="#F4439F"/>
<stop offset="1" stop-color="#7C3AED"/>
</linearGradient>
<linearGradient id="paint50_linear_112_4182" x1="26232.4" y1="42.6067" x2="-28299.7" y2="42.9634" gradientUnits="userSpaceOnUse">
<stop stop-color="#F4439F"/>
<stop offset="1" stop-color="#7C3AED"/>
</linearGradient>
<linearGradient id="paint51_linear_112_4182" x1="29817.2" y1="43.0183" x2="-29350.7" y2="43.4536" gradientUnits="userSpaceOnUse">
<stop stop-color="#F4439F"/>
<stop offset="1" stop-color="#7C3AED"/>
</linearGradient>
<linearGradient id="paint52_linear_112_4182" x1="28420.3" y1="42.6067" x2="-24902.4" y2="42.9477" gradientUnits="userSpaceOnUse">
<stop stop-color="#F4439F"/>
<stop offset="1" stop-color="#7C3AED"/>
</linearGradient>
<linearGradient id="paint53_linear_112_4182" x1="29048.3" y1="42.6067" x2="-22407" y2="42.9243" gradientUnits="userSpaceOnUse">
<stop stop-color="#F4439F"/>
<stop offset="1" stop-color="#7C3AED"/>
</linearGradient>
<linearGradient id="paint54_linear_112_4182" x1="31785.6" y1="42.9893" x2="-20690.7" y2="43.3324" gradientUnits="userSpaceOnUse">
<stop stop-color="#F4439F"/>
<stop offset="1" stop-color="#7C3AED"/>
</linearGradient>
<linearGradient id="paint55_linear_112_4182" x1="24558.1" y1="42.6067" x2="-13551.5" y2="42.7809" gradientUnits="userSpaceOnUse">
<stop stop-color="#F4439F"/>
<stop offset="1" stop-color="#7C3AED"/>
</linearGradient>
<linearGradient id="paint56_linear_112_4182" x1="35964.8" y1="42.6067" x2="-17357.9" y2="42.9477" gradientUnits="userSpaceOnUse">
<stop stop-color="#F4439F"/>
<stop offset="1" stop-color="#7C3AED"/>
</linearGradient>
<linearGradient id="paint57_linear_112_4182" x1="39420" y1="42.6067" x2="-16733" y2="42.9849" gradientUnits="userSpaceOnUse">
<stop stop-color="#F4439F"/>
<stop offset="1" stop-color="#7C3AED"/>
</linearGradient>
<linearGradient id="paint58_linear_112_4182" x1="35536.2" y1="42.4039" x2="-12815" y2="42.6879" gradientUnits="userSpaceOnUse">
<stop stop-color="#F4439F"/>
<stop offset="1" stop-color="#7C3AED"/>
</linearGradient>
<linearGradient id="paint59_linear_112_4182" x1="39897.8" y1="42.9893" x2="-12578.6" y2="43.3324" gradientUnits="userSpaceOnUse">
<stop stop-color="#F4439F"/>
<stop offset="1" stop-color="#7C3AED"/>
</linearGradient>
<linearGradient id="paint60_linear_112_4182" x1="42801" y1="42.6067" x2="-11731.1" y2="42.9634" gradientUnits="userSpaceOnUse">
<stop stop-color="#F4439F"/>
<stop offset="1" stop-color="#7C3AED"/>
</linearGradient>
<linearGradient id="paint61_linear_112_4182" x1="41842.9" y1="42.6067" x2="-9612.53" y2="42.9243" gradientUnits="userSpaceOnUse">
<stop stop-color="#F4439F"/>
<stop offset="1" stop-color="#7C3AED"/>
</linearGradient>
<linearGradient id="paint62_linear_112_4182" x1="44993.9" y1="42.6067" x2="-8328.84" y2="42.9477" gradientUnits="userSpaceOnUse">
<stop stop-color="#F4439F"/>
<stop offset="1" stop-color="#7C3AED"/>
</linearGradient>
<linearGradient id="paint63_linear_112_4182" x1="42388.3" y1="42.4039" x2="-5962.83" y2="42.6879" gradientUnits="userSpaceOnUse">
<stop stop-color="#F4439F"/>
<stop offset="1" stop-color="#7C3AED"/>
</linearGradient>
<linearGradient id="paint64_linear_112_4182" x1="44679.8" y1="43.0183" x2="-4755.8" y2="43.3222" gradientUnits="userSpaceOnUse">
<stop stop-color="#F4439F"/>
<stop offset="1" stop-color="#7C3AED"/>
</linearGradient>
<linearGradient id="paint65_linear_112_4182" x1="50323" y1="42.6067" x2="-3652.61" y2="42.9561" gradientUnits="userSpaceOnUse">
<stop stop-color="#F4439F"/>
<stop offset="1" stop-color="#7C3AED"/>
</linearGradient>
<linearGradient id="paint66_linear_112_4182" x1="47617.5" y1="43.0183" x2="-1818.1" y2="43.3222" gradientUnits="userSpaceOnUse">
<stop stop-color="#F4439F"/>
<stop offset="1" stop-color="#7C3AED"/>
</linearGradient>
<linearGradient id="paint67_linear_112_4182" x1="1321" y1="45.4999" x2="80" y2="45.5002" gradientUnits="userSpaceOnUse">
<stop stop-color="#F4439F"/>
<stop offset="1" stop-color="#7C3AED"/>
</linearGradient>
</defs>
</svg>
