<svg width="1400" height="120" viewBox="0 0 1400 120" fill="none" xmlns="http://www.w3.org/2000/svg">
<path d="M313 53H1088V69H313V53Z" fill="url(#paint0_linear_112_4014)"/>
<mask id="mask0_112_4014" style="mask-type:alpha" maskUnits="userSpaceOnUse" x="313" y="69" width="775" height="46">
<path d="M313 69H1088V115H313V69Z" fill="#C4C4C4"/>
</mask>
<g mask="url(#mask0_112_4014)">
<g filter="url(#filter0_f_112_4014)">
<path d="M957.262 80.0001V48.3321H971.298C975.783 48.3321 979.089 49.0088 981.216 50.3621C983.343 51.7155 984.406 53.7455 984.406 56.4521C984.406 58.2308 983.865 59.7195 982.782 60.9181C981.738 62.0781 980.191 62.8515 978.142 63.2381V63.4701C980.346 63.7795 982.086 64.5721 983.362 65.8481C984.677 67.0855 985.334 68.7288 985.334 70.7781C985.334 72.4408 984.909 73.9681 984.058 75.3601C983.207 76.7521 981.757 77.8735 979.708 78.7241C977.697 79.5748 974.913 80.0001 971.356 80.0001H957.262ZM966.02 73.9681H970.834C972.806 73.9681 974.237 73.6588 975.126 73.0401C976.015 72.4215 976.46 71.5128 976.46 70.3141C976.46 69.0381 975.996 68.0908 975.068 67.4721C974.179 66.8535 972.787 66.5441 970.892 66.5441H966.02V73.9681ZM966.02 60.6861H970.544C972.323 60.6861 973.618 60.4348 974.43 59.9321C975.281 59.3908 975.706 58.5788 975.706 57.4961C975.706 56.4521 975.319 55.6788 974.546 55.1761C973.811 54.6348 972.69 54.3641 971.182 54.3641H966.02V60.6861Z" fill="url(#paint1_linear_112_4014)" fill-opacity="0.7"/>
<path d="M934.927 80.5801C932.529 80.5801 930.364 80.2128 928.431 79.4781C926.536 78.7048 924.912 77.6221 923.559 76.2301C922.244 74.7995 921.239 73.0788 920.543 71.0681C919.847 69.0188 919.499 66.6988 919.499 64.1081C919.499 60.7441 920.117 57.8441 921.355 55.4081C922.631 52.9335 924.429 51.0388 926.749 49.7241C929.107 48.4095 931.891 47.7521 935.101 47.7521C938.31 47.7521 941.055 48.4095 943.337 49.7241C945.657 51.0388 947.435 52.9141 948.673 55.3501C949.91 57.7861 950.529 60.7055 950.529 64.1081C950.529 66.6601 950.161 68.9608 949.427 71.0101C948.731 73.0595 947.706 74.7995 946.353 76.2301C944.999 77.6221 943.356 78.7048 941.423 79.4781C939.528 80.2128 937.363 80.5801 934.927 80.5801ZM935.043 73.9681C937.363 73.9681 939.045 73.1755 940.089 71.5901C941.171 70.0048 941.713 67.5108 941.713 64.1081C941.713 60.7055 941.171 58.2308 940.089 56.6841C939.045 55.1375 937.343 54.3641 934.985 54.3641C932.665 54.3641 930.963 55.1375 929.881 56.6841C928.837 58.2308 928.315 60.7055 928.315 64.1081C928.315 67.5108 928.856 70.0048 929.939 71.5901C931.021 73.1755 932.723 73.9681 935.043 73.9681Z" fill="url(#paint2_linear_112_4014)" fill-opacity="0.7"/>
<path d="M884.828 93.9201V48.3321H891.846L893.064 52.4501H893.47C894.05 51.5995 894.746 50.8261 895.558 50.1301C896.37 49.3955 897.337 48.8155 898.458 48.3901C899.618 47.9648 900.952 47.7521 902.46 47.7521C906.018 47.7521 908.898 49.1441 911.102 51.9281C913.306 54.6735 914.408 58.7335 914.408 64.1081C914.408 67.7041 913.886 70.7395 912.842 73.2141C911.798 75.6501 910.368 77.4868 908.55 78.7241C906.733 79.9615 904.626 80.5801 902.228 80.5801C900.72 80.5801 899.406 80.3868 898.284 80.0001C897.202 79.6135 896.274 79.1108 895.5 78.4921C894.727 77.8735 894.05 77.2161 893.47 76.5201H893.006C893.161 77.2548 893.277 78.0281 893.354 78.8401C893.432 79.6135 893.47 80.3868 893.47 81.1601V93.9201H884.828ZM899.792 73.5621C901.107 73.5621 902.19 73.1948 903.04 72.4601C903.891 71.7255 904.529 70.6428 904.954 69.2121C905.38 67.7815 905.592 66.0415 905.592 63.9921C905.592 60.8988 905.109 58.5788 904.142 57.0321C903.214 55.4468 901.726 54.6541 899.676 54.6541C898.168 54.6541 896.97 54.9635 896.08 55.5821C895.191 56.2008 894.534 57.1481 894.108 58.4241C893.722 59.6615 893.509 61.2275 893.47 63.1221V64.0501C893.47 66.0995 893.664 67.8395 894.05 69.2701C894.437 70.6621 895.094 71.7255 896.022 72.4601C896.95 73.1948 898.207 73.5621 899.792 73.5621Z" fill="url(#paint3_linear_112_4014)" fill-opacity="0.7"/>
<path d="M861.229 80.0001V54.8281H851.485V48.3321H879.615V54.8281H869.871V80.0001H861.229Z" fill="url(#paint4_linear_112_4014)" fill-opacity="0.7"/>
<path d="M816.463 80.0001V48.3321H824.873V60.8601C824.873 61.9041 824.834 63.1028 824.757 64.4561C824.68 65.8095 824.583 67.0661 824.467 68.2261C824.39 69.3861 824.293 70.2175 824.177 70.7201H824.351L836.415 48.3321H846.275V80.0001H837.865V67.3561C837.865 66.1188 837.904 64.8815 837.981 63.6441C838.058 62.3681 838.136 61.2081 838.213 60.1641C838.329 59.1201 838.426 58.3081 838.503 57.7281H838.271L826.323 80.0001H816.463Z" fill="url(#paint5_linear_112_4014)" fill-opacity="0.7"/>
<path d="M792.864 80.0001V54.8281H783.12V48.3321H811.25V54.8281H801.506V80.0001H792.864Z" fill="url(#paint6_linear_112_4014)" fill-opacity="0.7"/>
<path d="M765.241 80.5801C761.838 80.5801 758.977 79.8648 756.657 78.4341C754.337 76.9648 752.577 74.7608 751.379 71.8221C750.18 68.8448 749.581 65.0941 749.581 60.5701C749.581 56.8968 749.909 53.6875 750.567 50.9421C751.224 48.1968 752.21 45.8768 753.525 43.9821C754.839 42.0488 756.502 40.5021 758.513 39.3421C760.562 38.1435 762.94 37.2928 765.647 36.7901C766.459 36.6355 767.503 36.4615 768.779 36.2681C770.055 36.0748 771.427 35.8815 772.897 35.6881C774.366 35.4948 775.777 35.3401 777.131 35.2241L777.943 42.8221C776.821 42.9381 775.603 43.0928 774.289 43.2861C772.974 43.4408 771.698 43.6148 770.461 43.8081C769.262 43.9628 768.218 44.1175 767.329 44.2721C765.241 44.6588 763.539 45.2581 762.225 46.0701C760.91 46.8821 759.885 48.0035 759.151 49.4341C758.455 50.8648 757.952 52.7401 757.643 55.0601H758.049C758.783 53.9001 759.634 52.9335 760.601 52.1601C761.567 51.3481 762.669 50.7488 763.907 50.3621C765.183 49.9368 766.575 49.7241 768.083 49.7241C770.712 49.7241 772.955 50.3235 774.811 51.5221C776.705 52.6821 778.136 54.3641 779.103 56.5681C780.108 58.7335 780.611 61.3241 780.611 64.3401C780.611 67.9361 779.953 70.9328 778.639 73.3301C777.324 75.7275 775.507 77.5448 773.187 78.7821C770.905 79.9808 768.257 80.5801 765.241 80.5801ZM765.299 73.7361C766.807 73.7361 768.044 73.4268 769.011 72.8081C769.977 72.1895 770.693 71.2421 771.157 69.9661C771.621 68.6901 771.853 67.0855 771.853 65.1521C771.853 62.2521 771.331 60.1061 770.287 58.7141C769.243 57.2835 767.599 56.5681 765.357 56.5681C763.037 56.5681 761.335 57.2835 760.253 58.7141C759.209 60.1061 758.687 62.2328 758.687 65.0941C758.687 67.0275 758.919 68.6515 759.383 69.9661C759.847 71.2421 760.562 72.1895 761.529 72.8081C762.534 73.4268 763.791 73.7361 765.299 73.7361Z" fill="url(#paint7_linear_112_4014)" fill-opacity="0.7"/>
<path d="M720.158 93.9201C719.23 93.9201 718.379 93.8621 717.606 93.7461C716.833 93.6301 716.175 93.5141 715.634 93.3981V86.3221C716.137 86.4381 716.659 86.5348 717.2 86.6121C717.741 86.6895 718.341 86.7281 718.998 86.7281C720.351 86.7281 721.453 86.4961 722.304 86.0321C723.193 85.5681 723.909 84.9495 724.45 84.1761C725.03 83.4028 725.513 82.5328 725.9 81.5661L728.046 76.0561L727.814 83.4801L713.72 48.3321H723.174L729.032 66.3121C729.225 66.8535 729.399 67.4335 729.554 68.0521C729.747 68.6708 729.921 69.2895 730.076 69.9081C730.231 70.5268 730.327 71.1261 730.366 71.7061H730.598C730.753 70.8555 730.965 69.9661 731.236 69.0381C731.507 68.0715 731.777 67.1628 732.048 66.3121L737.848 48.3321H746.896L733.904 82.9001C733.015 85.2588 731.99 87.2501 730.83 88.8741C729.67 90.5368 728.22 91.7935 726.48 92.6441C724.779 93.4948 722.671 93.9201 720.158 93.9201Z" fill="url(#paint8_linear_112_4014)" fill-opacity="0.7"/>
<path d="M701.574 80.5801C696.509 80.5801 692.603 79.1881 689.858 76.4041C687.151 73.6201 685.798 69.6375 685.798 64.4561C685.798 60.7055 686.475 57.5928 687.828 55.1181C689.22 52.6435 691.115 50.8068 693.512 49.6081C695.948 48.3708 698.771 47.7521 701.98 47.7521C703.875 47.7521 705.634 47.9261 707.258 48.2741C708.921 48.6221 710.409 49.1248 711.724 49.7821L709.172 56.2781C707.935 55.7368 706.794 55.3501 705.75 55.1181C704.706 54.8475 703.623 54.7121 702.502 54.7121C699.989 54.7121 698.055 55.5241 696.702 57.1481C695.387 58.7721 694.73 61.1501 694.73 64.2821C694.73 67.3755 695.407 69.6955 696.76 71.2421C698.113 72.7501 700.201 73.5041 703.024 73.5041C704.184 73.5041 705.421 73.3881 706.736 73.1561C708.051 72.8855 709.365 72.4795 710.68 71.9381V78.7821C709.481 79.3235 708.089 79.7488 706.504 80.0581C704.919 80.4061 703.275 80.5801 701.574 80.5801Z" fill="url(#paint9_linear_112_4014)" fill-opacity="0.7"/>
<path d="M631.656 88.1201V73.3881H635.194C635.774 72.6535 636.277 71.8608 636.702 71.0101C637.166 70.1595 637.533 69.1928 637.804 68.1101C638.075 67.0275 638.268 65.8095 638.384 64.4561C638.461 63.4121 638.539 62.3101 638.616 61.1501C638.693 59.9515 638.751 58.6948 638.79 57.3801C638.867 56.0655 638.945 54.6541 639.022 53.1461C639.099 51.6381 639.157 50.0335 639.196 48.3321H663.266V73.3881H667.732V88.1201H659.67V80.0001H639.718V88.1201H631.656ZM643.72 73.3881H654.624V54.9441H646.678C646.639 56.1815 646.581 57.3801 646.504 58.5401C646.465 59.6615 646.407 60.7055 646.33 61.6721C646.291 62.6388 646.233 63.5281 646.156 64.3401C646.001 66.4668 645.711 68.2648 645.286 69.7341C644.861 71.1648 644.339 72.3828 643.72 73.3881Z" fill="url(#paint10_linear_112_4014)" fill-opacity="0.7"/>
<path d="M613.831 80.5801C611.434 80.5801 609.268 80.2128 607.335 79.4781C605.44 78.7048 603.816 77.6221 602.463 76.2301C601.148 74.7995 600.143 73.0788 599.447 71.0681C598.751 69.0188 598.403 66.6988 598.403 64.1081C598.403 60.7441 599.022 57.8441 600.259 55.4081C601.535 52.9335 603.333 51.0388 605.653 49.7241C608.012 48.4095 610.796 47.7521 614.005 47.7521C617.214 47.7521 619.96 48.4095 622.241 49.7241C624.561 51.0388 626.34 52.9141 627.577 55.3501C628.814 57.7861 629.433 60.7055 629.433 64.1081C629.433 66.6601 629.066 68.9608 628.331 71.0101C627.635 73.0595 626.61 74.7995 625.257 76.2301C623.904 77.6221 622.26 78.7048 620.327 79.4781C618.432 80.2128 616.267 80.5801 613.831 80.5801ZM613.947 73.9681C616.267 73.9681 617.949 73.1755 618.993 71.5901C620.076 70.0048 620.617 67.5108 620.617 64.1081C620.617 60.7055 620.076 58.2308 618.993 56.6841C617.949 55.1375 616.248 54.3641 613.889 54.3641C611.569 54.3641 609.868 55.1375 608.785 56.6841C607.741 58.2308 607.219 60.7055 607.219 64.1081C607.219 67.5108 607.76 70.0048 608.843 71.5901C609.926 73.1755 611.627 73.9681 613.947 73.9681Z" fill="url(#paint11_linear_112_4014)" fill-opacity="0.7"/>
<path d="M565.592 80.0001V48.3321H579.628C584.113 48.3321 587.419 49.0088 589.546 50.3621C591.673 51.7155 592.736 53.7455 592.736 56.4521C592.736 58.2308 592.195 59.7195 591.112 60.9181C590.068 62.0781 588.521 62.8515 586.472 63.2381V63.4701C588.676 63.7795 590.416 64.5721 591.692 65.8481C593.007 67.0855 593.664 68.7288 593.664 70.7781C593.664 72.4408 593.239 73.9681 592.388 75.3601C591.537 76.7521 590.087 77.8735 588.038 78.7241C586.027 79.5748 583.243 80.0001 579.686 80.0001H565.592ZM574.35 73.9681H579.164C581.136 73.9681 582.567 73.6588 583.456 73.0401C584.345 72.4215 584.79 71.5128 584.79 70.3141C584.79 69.0381 584.326 68.0908 583.398 67.4721C582.509 66.8535 581.117 66.5441 579.222 66.5441H574.35V73.9681ZM574.35 60.6861H578.874C580.653 60.6861 581.948 60.4348 582.76 59.9321C583.611 59.3908 584.036 58.5788 584.036 57.4961C584.036 56.4521 583.649 55.6788 582.876 55.1761C582.141 54.6348 581.02 54.3641 579.512 54.3641H574.35V60.6861Z" fill="url(#paint12_linear_112_4014)" fill-opacity="0.7"/>
<path d="M546.221 80.6381C542.973 80.6381 540.112 80.0388 537.637 78.8401C535.201 77.6028 533.306 75.7661 531.953 73.3301C530.6 70.8941 529.923 67.8781 529.923 64.2821C529.923 60.7635 530.561 57.7668 531.837 55.2921C533.113 52.8175 534.892 50.9421 537.173 49.6661C539.454 48.3901 542.142 47.7521 545.235 47.7521C548.212 47.7521 550.726 48.3321 552.775 49.4921C554.863 50.6521 556.448 52.3148 557.531 54.4801C558.614 56.6068 559.155 59.1588 559.155 62.1361V66.4281H538.855C538.932 68.7868 539.706 70.6235 541.175 71.9381C542.644 73.2528 544.694 73.9101 547.323 73.9101C549.024 73.9101 550.668 73.6975 552.253 73.2721C553.877 72.8468 555.559 72.2475 557.299 71.4741V78.3181C555.675 79.0915 553.974 79.6715 552.195 80.0581C550.455 80.4448 548.464 80.6381 546.221 80.6381ZM539.029 60.5121H550.919C550.919 59.2361 550.706 58.1148 550.281 57.1481C549.894 56.1815 549.276 55.4081 548.425 54.8281C547.574 54.2481 546.492 53.9581 545.177 53.9581C543.437 53.9581 542.026 54.5188 540.943 55.6401C539.86 56.7228 539.222 58.3468 539.029 60.5121Z" fill="url(#paint13_linear_112_4014)" fill-opacity="0.7"/>
<path d="M495.311 93.9201V48.3321H502.329L503.547 52.4501H503.953C504.533 51.5995 505.229 50.8261 506.041 50.1301C506.853 49.3955 507.819 48.8155 508.941 48.3901C510.101 47.9648 511.435 47.7521 512.943 47.7521C516.5 47.7521 519.381 49.1441 521.585 51.9281C523.789 54.6735 524.891 58.7335 524.891 64.1081C524.891 67.7041 524.369 70.7395 523.325 73.2141C522.281 75.6501 520.85 77.4868 519.033 78.7241C517.215 79.9615 515.108 80.5801 512.711 80.5801C511.203 80.5801 509.888 80.3868 508.767 80.0001C507.684 79.6135 506.756 79.1108 505.983 78.4921C505.209 77.8735 504.533 77.2161 503.953 76.5201H503.489C503.643 77.2548 503.759 78.0281 503.837 78.8401C503.914 79.6135 503.953 80.3868 503.953 81.1601V93.9201H495.311ZM510.275 73.5621C511.589 73.5621 512.672 73.1948 513.523 72.4601C514.373 71.7255 515.011 70.6428 515.437 69.2121C515.862 67.7815 516.075 66.0415 516.075 63.9921C516.075 60.8988 515.591 58.5788 514.625 57.0321C513.697 55.4468 512.208 54.6541 510.159 54.6541C508.651 54.6541 507.452 54.9635 506.563 55.5821C505.673 56.2008 505.016 57.1481 504.591 58.4241C504.204 59.6615 503.991 61.2275 503.953 63.1221V64.0501C503.953 66.0995 504.146 67.8395 504.533 69.2701C504.919 70.6621 505.577 71.7255 506.505 72.4601C507.433 73.1948 508.689 73.5621 510.275 73.5621Z" fill="url(#paint14_linear_112_4014)" fill-opacity="0.7"/>
<path d="M475.534 80.6381C472.286 80.6381 469.424 80.0388 466.95 78.8401C464.514 77.6028 462.619 75.7661 461.266 73.3301C459.912 70.8941 459.236 67.8781 459.236 64.2821C459.236 60.7635 459.874 57.7668 461.15 55.2921C462.426 52.8175 464.204 50.9421 466.486 49.6661C468.767 48.3901 471.454 47.7521 474.548 47.7521C477.525 47.7521 480.038 48.3321 482.088 49.4921C484.176 50.6521 485.761 52.3148 486.844 54.4801C487.926 56.6068 488.468 59.1588 488.468 62.1361V66.4281H468.168C468.245 68.7868 469.018 70.6235 470.488 71.9381C471.957 73.2528 474.006 73.9101 476.636 73.9101C478.337 73.9101 479.98 73.6975 481.566 73.2721C483.19 72.8468 484.872 72.2475 486.612 71.4741V78.3181C484.988 79.0915 483.286 79.6715 481.508 80.0581C479.768 80.4448 477.776 80.6381 475.534 80.6381ZM468.342 60.5121H480.232C480.232 59.2361 480.019 58.1148 479.594 57.1481C479.207 56.1815 478.588 55.4081 477.738 54.8281C476.887 54.2481 475.804 53.9581 474.49 53.9581C472.75 53.9581 471.338 54.5188 470.256 55.6401C469.173 56.7228 468.535 58.3468 468.342 60.5121Z" fill="url(#paint15_linear_112_4014)" fill-opacity="0.7"/>
<path d="M417.84 80.0001V38.5881H451.596V80.0001H442.838V45.8961H426.598V80.0001H417.84Z" fill="url(#paint16_linear_112_4014)" fill-opacity="0.7"/>
</g>
</g>
<path d="M313 69H1088V103C1088 109.627 1082.63 115 1076 115H325C318.373 115 313 109.627 313 103V69Z" fill="url(#paint17_linear_112_4014)"/>
<path d="M957.663 68.0001V36.3321H971.699C976.184 36.3321 979.49 37.0088 981.617 38.3621C983.743 39.7155 984.807 41.7455 984.807 44.4521C984.807 46.2308 984.265 47.7195 983.183 48.9181C982.139 50.0781 980.592 50.8515 978.543 51.2381V51.4701C980.747 51.7795 982.487 52.5721 983.763 53.8481C985.077 55.0855 985.735 56.7288 985.735 58.7781C985.735 60.4408 985.309 61.9681 984.459 63.3601C983.608 64.7521 982.158 65.8735 980.109 66.7241C978.098 67.5748 975.314 68.0001 971.757 68.0001H957.663ZM966.421 61.9681H971.235C973.207 61.9681 974.637 61.6588 975.527 61.0401C976.416 60.4215 976.861 59.5128 976.861 58.3141C976.861 57.0381 976.397 56.0908 975.469 55.4721C974.579 54.8535 973.187 54.5441 971.293 54.5441H966.421V61.9681ZM966.421 48.6861H970.945C972.723 48.6861 974.019 48.4348 974.831 47.9321C975.681 47.3908 976.107 46.5788 976.107 45.4961C976.107 44.4521 975.72 43.6788 974.947 43.1761C974.212 42.6348 973.091 42.3641 971.583 42.3641H966.421V48.6861Z" fill="url(#paint18_linear_112_4014)"/>
<path d="M935.327 68.5801C932.93 68.5801 930.765 68.2128 928.831 67.4781C926.937 66.7048 925.313 65.6221 923.959 64.2301C922.645 62.7995 921.639 61.0788 920.943 59.0681C920.247 57.0188 919.899 54.6988 919.899 52.1081C919.899 48.7441 920.518 45.8441 921.755 43.4081C923.031 40.9335 924.829 39.0388 927.149 37.7241C929.508 36.4095 932.292 35.7521 935.501 35.7521C938.711 35.7521 941.456 36.4095 943.737 37.7241C946.057 39.0388 947.836 40.9141 949.073 43.3501C950.311 45.7861 950.929 48.7055 950.929 52.1081C950.929 54.6601 950.562 56.9608 949.827 59.0101C949.131 61.0595 948.107 62.7995 946.753 64.2301C945.4 65.6221 943.757 66.7048 941.823 67.4781C939.929 68.2128 937.763 68.5801 935.327 68.5801ZM935.443 61.9681C937.763 61.9681 939.445 61.1755 940.489 59.5901C941.572 58.0048 942.113 55.5108 942.113 52.1081C942.113 48.7055 941.572 46.2308 940.489 44.6841C939.445 43.1375 937.744 42.3641 935.385 42.3641C933.065 42.3641 931.364 43.1375 930.281 44.6841C929.237 46.2308 928.715 48.7055 928.715 52.1081C928.715 55.5108 929.257 58.0048 930.339 59.5901C931.422 61.1755 933.123 61.9681 935.443 61.9681Z" fill="url(#paint19_linear_112_4014)"/>
<path d="M885.229 81.9201V36.3321H892.247L893.465 40.4501H893.871C894.451 39.5995 895.147 38.8261 895.959 38.1301C896.771 37.3955 897.738 36.8155 898.859 36.3901C900.019 35.9648 901.353 35.7521 902.861 35.7521C906.418 35.7521 909.299 37.1441 911.503 39.9281C913.707 42.6735 914.809 46.7335 914.809 52.1081C914.809 55.7041 914.287 58.7395 913.243 61.2141C912.199 63.6501 910.768 65.4868 908.951 66.7241C907.134 67.9615 905.026 68.5801 902.629 68.5801C901.121 68.5801 899.806 68.3868 898.685 68.0001C897.602 67.6135 896.674 67.1108 895.901 66.4921C895.128 65.8735 894.451 65.2161 893.871 64.5201H893.407C893.562 65.2548 893.678 66.0281 893.755 66.8401C893.832 67.6135 893.871 68.3868 893.871 69.1601V81.9201H885.229ZM900.193 61.5621C901.508 61.5621 902.59 61.1948 903.441 60.4601C904.292 59.7255 904.93 58.6428 905.355 57.2121C905.78 55.7815 905.993 54.0415 905.993 51.9921C905.993 48.8988 905.51 46.5788 904.543 45.0321C903.615 43.4468 902.126 42.6541 900.077 42.6541C898.569 42.6541 897.37 42.9635 896.481 43.5821C895.592 44.2008 894.934 45.1481 894.509 46.4241C894.122 47.6615 893.91 49.2275 893.871 51.1221V52.0501C893.871 54.0995 894.064 55.8395 894.451 57.2701C894.838 58.6621 895.495 59.7255 896.423 60.4601C897.351 61.1948 898.608 61.5621 900.193 61.5621Z" fill="url(#paint20_linear_112_4014)"/>
<path d="M861.63 68.0001V42.8281H851.886V36.3321H880.016V42.8281H870.272V68.0001H861.63Z" fill="url(#paint21_linear_112_4014)"/>
<path d="M816.864 68.0001V36.3321H825.274V48.8601C825.274 49.9041 825.235 51.1028 825.158 52.4561C825.08 53.8095 824.984 55.0661 824.868 56.2261C824.79 57.3861 824.694 58.2175 824.578 58.7201H824.752L836.816 36.3321H846.676V68.0001H838.266V55.3561C838.266 54.1188 838.304 52.8815 838.382 51.6441C838.459 50.3681 838.536 49.2081 838.614 48.1641C838.73 47.1201 838.826 46.3081 838.904 45.7281H838.672L826.724 68.0001H816.864Z" fill="url(#paint22_linear_112_4014)"/>
<path d="M793.264 68.0001V42.8281H783.52V36.3321H811.65V42.8281H801.906V68.0001H793.264Z" fill="url(#paint23_linear_112_4014)"/>
<path d="M765.641 68.5801C762.239 68.5801 759.377 67.8648 757.057 66.4341C754.737 64.9648 752.978 62.7608 751.779 59.8221C750.581 56.8448 749.981 53.0941 749.981 48.5701C749.981 44.8968 750.31 41.6875 750.967 38.9421C751.625 36.1968 752.611 33.8768 753.925 31.9821C755.24 30.0488 756.903 28.5021 758.913 27.3421C760.963 26.1435 763.341 25.2928 766.047 24.7901C766.859 24.6355 767.903 24.4615 769.179 24.2681C770.455 24.0748 771.828 23.8815 773.297 23.6881C774.767 23.4948 776.178 23.3401 777.531 23.2241L778.343 30.8221C777.222 30.9381 776.004 31.0928 774.689 31.2861C773.375 31.4408 772.099 31.6148 770.861 31.8081C769.663 31.9628 768.619 32.1175 767.729 32.2721C765.641 32.6588 763.94 33.2581 762.625 34.0701C761.311 34.8821 760.286 36.0035 759.551 37.4341C758.855 38.8648 758.353 40.7401 758.043 43.0601H758.449C759.184 41.9001 760.035 40.9335 761.001 40.1601C761.968 39.3481 763.07 38.7488 764.307 38.3621C765.583 37.9368 766.975 37.7241 768.483 37.7241C771.113 37.7241 773.355 38.3235 775.211 39.5221C777.106 40.6821 778.537 42.3641 779.503 44.5681C780.509 46.7335 781.011 49.3241 781.011 52.3401C781.011 55.9361 780.354 58.9328 779.039 61.3301C777.725 63.7275 775.907 65.5448 773.587 66.7821C771.306 67.9808 768.657 68.5801 765.641 68.5801ZM765.699 61.7361C767.207 61.7361 768.445 61.4268 769.411 60.8081C770.378 60.1895 771.093 59.2421 771.557 57.9661C772.021 56.6901 772.253 55.0855 772.253 53.1521C772.253 50.2521 771.731 48.1061 770.687 46.7141C769.643 45.2835 768 44.5681 765.757 44.5681C763.437 44.5681 761.736 45.2835 760.653 46.7141C759.609 48.1061 759.087 50.2328 759.087 53.0941C759.087 55.0275 759.319 56.6515 759.783 57.9661C760.247 59.2421 760.963 60.1895 761.929 60.8081C762.935 61.4268 764.191 61.7361 765.699 61.7361Z" fill="url(#paint24_linear_112_4014)"/>
<path d="M720.559 81.9201C719.631 81.9201 718.78 81.8621 718.007 81.7461C717.233 81.6301 716.576 81.5141 716.035 81.3981V74.3221C716.537 74.4381 717.059 74.5348 717.601 74.6121C718.142 74.6895 718.741 74.7281 719.399 74.7281C720.752 74.7281 721.854 74.4961 722.705 74.0321C723.594 73.5681 724.309 72.9495 724.851 72.1761C725.431 71.4028 725.914 70.5328 726.301 69.5661L728.447 64.0561L728.215 71.4801L714.121 36.3321H723.575L729.433 54.3121C729.626 54.8535 729.8 55.4335 729.955 56.0521C730.148 56.6708 730.322 57.2895 730.477 57.9081C730.631 58.5268 730.728 59.1261 730.767 59.7061H730.999C731.153 58.8555 731.366 57.9661 731.637 57.0381C731.907 56.0715 732.178 55.1628 732.449 54.3121L738.249 36.3321H747.297L734.305 70.9001C733.415 73.2588 732.391 75.2501 731.231 76.8741C730.071 78.5368 728.621 79.7935 726.881 80.6441C725.179 81.4948 723.072 81.9201 720.559 81.9201Z" fill="url(#paint25_linear_112_4014)"/>
<path d="M701.975 68.5801C696.909 68.5801 693.004 67.1881 690.259 64.4041C687.552 61.6201 686.199 57.6375 686.199 52.4561C686.199 48.7055 686.875 45.5928 688.229 43.1181C689.621 40.6435 691.515 38.8068 693.913 37.6081C696.349 36.3708 699.171 35.7521 702.381 35.7521C704.275 35.7521 706.035 35.9261 707.659 36.2741C709.321 36.6221 710.81 37.1248 712.125 37.7821L709.573 44.2781C708.335 43.7368 707.195 43.3501 706.151 43.1181C705.107 42.8475 704.024 42.7121 702.903 42.7121C700.389 42.7121 698.456 43.5241 697.103 45.1481C695.788 46.7721 695.131 49.1501 695.131 52.2821C695.131 55.3755 695.807 57.6955 697.161 59.2421C698.514 60.7501 700.602 61.5041 703.425 61.5041C704.585 61.5041 705.822 61.3881 707.137 61.1561C708.451 60.8855 709.766 60.4795 711.081 59.9381V66.7821C709.882 67.3235 708.49 67.7488 706.905 68.0581C705.319 68.4061 703.676 68.5801 701.975 68.5801Z" fill="url(#paint26_linear_112_4014)"/>
<path d="M632.057 76.1201V61.3881H635.595C636.175 60.6535 636.677 59.8608 637.103 59.0101C637.567 58.1595 637.934 57.1928 638.205 56.1101C638.475 55.0275 638.669 53.8095 638.785 52.4561C638.862 51.4121 638.939 50.3101 639.017 49.1501C639.094 47.9515 639.152 46.6948 639.191 45.3801C639.268 44.0655 639.345 42.6541 639.423 41.1461C639.5 39.6381 639.558 38.0335 639.597 36.3321H663.667V61.3881H668.133V76.1201H660.071V68.0001H640.119V76.1201H632.057ZM644.121 61.3881H655.025V42.9441H647.079C647.04 44.1815 646.982 45.3801 646.905 46.5401C646.866 47.6615 646.808 48.7055 646.731 49.6721C646.692 50.6388 646.634 51.5281 646.557 52.3401C646.402 54.4668 646.112 56.2648 645.687 57.7341C645.261 59.1648 644.739 60.3828 644.121 61.3881Z" fill="url(#paint27_linear_112_4014)"/>
<path d="M614.232 68.5801C611.834 68.5801 609.669 68.2128 607.736 67.4781C605.841 66.7048 604.217 65.6221 602.864 64.2301C601.549 62.7995 600.544 61.0788 599.848 59.0681C599.152 57.0188 598.804 54.6988 598.804 52.1081C598.804 48.7441 599.422 45.8441 600.66 43.4081C601.936 40.9335 603.734 39.0388 606.054 37.7241C608.412 36.4095 611.196 35.7521 614.406 35.7521C617.615 35.7521 620.36 36.4095 622.642 37.7241C624.962 39.0388 626.74 40.9141 627.978 43.3501C629.215 45.7861 629.834 48.7055 629.834 52.1081C629.834 54.6601 629.466 56.9608 628.732 59.0101C628.036 61.0595 627.011 62.7995 625.658 64.2301C624.304 65.6221 622.661 66.7048 620.728 67.4781C618.833 68.2128 616.668 68.5801 614.232 68.5801ZM614.348 61.9681C616.668 61.9681 618.35 61.1755 619.394 59.5901C620.476 58.0048 621.018 55.5108 621.018 52.1081C621.018 48.7055 620.476 46.2308 619.394 44.6841C618.35 43.1375 616.648 42.3641 614.29 42.3641C611.97 42.3641 610.268 43.1375 609.186 44.6841C608.142 46.2308 607.62 48.7055 607.62 52.1081C607.62 55.5108 608.161 58.0048 609.244 59.5901C610.326 61.1755 612.028 61.9681 614.348 61.9681Z" fill="url(#paint28_linear_112_4014)"/>
<path d="M565.993 68.0001V36.3321H580.029C584.514 36.3321 587.82 37.0088 589.947 38.3621C592.073 39.7155 593.137 41.7455 593.137 44.4521C593.137 46.2308 592.595 47.7195 591.513 48.9181C590.469 50.0781 588.922 50.8515 586.873 51.2381V51.4701C589.077 51.7795 590.817 52.5721 592.093 53.8481C593.407 55.0855 594.065 56.7288 594.065 58.7781C594.065 60.4408 593.639 61.9681 592.789 63.3601C591.938 64.7521 590.488 65.8735 588.439 66.7241C586.428 67.5748 583.644 68.0001 580.087 68.0001H565.993ZM574.751 61.9681H579.565C581.537 61.9681 582.967 61.6588 583.857 61.0401C584.746 60.4215 585.191 59.5128 585.191 58.3141C585.191 57.0381 584.727 56.0908 583.799 55.4721C582.909 54.8535 581.517 54.5441 579.623 54.5441H574.751V61.9681ZM574.751 48.6861H579.275C581.053 48.6861 582.349 48.4348 583.161 47.9321C584.011 47.3908 584.437 46.5788 584.437 45.4961C584.437 44.4521 584.05 43.6788 583.277 43.1761C582.542 42.6348 581.421 42.3641 579.913 42.3641H574.751V48.6861Z" fill="url(#paint29_linear_112_4014)"/>
<path d="M546.622 68.6381C543.374 68.6381 540.512 68.0388 538.038 66.8401C535.602 65.6028 533.707 63.7661 532.354 61.3301C531 58.8941 530.324 55.8781 530.324 52.2821C530.324 48.7635 530.962 45.7668 532.238 43.2921C533.514 40.8175 535.292 38.9421 537.574 37.6661C539.855 36.3901 542.542 35.7521 545.636 35.7521C548.613 35.7521 551.126 36.3321 553.176 37.4921C555.264 38.6521 556.849 40.3148 557.932 42.4801C559.014 44.6068 559.556 47.1588 559.556 50.1361V54.4281H539.256C539.333 56.7868 540.106 58.6235 541.576 59.9381C543.045 61.2528 545.094 61.9101 547.724 61.9101C549.425 61.9101 551.068 61.6975 552.654 61.2721C554.278 60.8468 555.96 60.2475 557.7 59.4741V66.3181C556.076 67.0915 554.374 67.6715 552.596 68.0581C550.856 68.4448 548.864 68.6381 546.622 68.6381ZM539.43 48.5121H551.32C551.32 47.2361 551.107 46.1148 550.682 45.1481C550.295 44.1815 549.676 43.4081 548.826 42.8281C547.975 42.2481 546.892 41.9581 545.578 41.9581C543.838 41.9581 542.426 42.5188 541.344 43.6401C540.261 44.7228 539.623 46.3468 539.43 48.5121Z" fill="url(#paint30_linear_112_4014)"/>
<path d="M495.711 81.9201V36.3321H502.729L503.947 40.4501H504.353C504.933 39.5995 505.629 38.8261 506.441 38.1301C507.253 37.3955 508.22 36.8155 509.341 36.3901C510.501 35.9648 511.835 35.7521 513.343 35.7521C516.901 35.7521 519.781 37.1441 521.985 39.9281C524.189 42.6735 525.291 46.7335 525.291 52.1081C525.291 55.7041 524.769 58.7395 523.725 61.2141C522.681 63.6501 521.251 65.4868 519.433 66.7241C517.616 67.9615 515.509 68.5801 513.111 68.5801C511.603 68.5801 510.289 68.3868 509.167 68.0001C508.085 67.6135 507.157 67.1108 506.383 66.4921C505.61 65.8735 504.933 65.2161 504.353 64.5201H503.889C504.044 65.2548 504.16 66.0281 504.237 66.8401C504.315 67.6135 504.353 68.3868 504.353 69.1601V81.9201H495.711ZM510.675 61.5621C511.99 61.5621 513.073 61.1948 513.923 60.4601C514.774 59.7255 515.412 58.6428 515.837 57.2121C516.263 55.7815 516.475 54.0415 516.475 51.9921C516.475 48.8988 515.992 46.5788 515.025 45.0321C514.097 43.4468 512.609 42.6541 510.559 42.6541C509.051 42.6541 507.853 42.9635 506.963 43.5821C506.074 44.2008 505.417 45.1481 504.991 46.4241C504.605 47.6615 504.392 49.2275 504.353 51.1221V52.0501C504.353 54.0995 504.547 55.8395 504.933 57.2701C505.32 58.6621 505.977 59.7255 506.905 60.4601C507.833 61.1948 509.09 61.5621 510.675 61.5621Z" fill="url(#paint31_linear_112_4014)"/>
<path d="M475.934 68.6381C472.686 68.6381 469.825 68.0388 467.35 66.8401C464.914 65.6028 463.02 63.7661 461.666 61.3301C460.313 58.8941 459.636 55.8781 459.636 52.2821C459.636 48.7635 460.274 45.7668 461.55 43.2921C462.826 40.8175 464.605 38.9421 466.886 37.6661C469.168 36.3901 471.855 35.7521 474.948 35.7521C477.926 35.7521 480.439 36.3321 482.488 37.4921C484.576 38.6521 486.162 40.3148 487.244 42.4801C488.327 44.6068 488.868 47.1588 488.868 50.1361V54.4281H468.568C468.646 56.7868 469.419 58.6235 470.888 59.9381C472.358 61.2528 474.407 61.9101 477.036 61.9101C478.738 61.9101 480.381 61.6975 481.966 61.2721C483.59 60.8468 485.272 60.2475 487.012 59.4741V66.3181C485.388 67.0915 483.687 67.6715 481.908 68.0581C480.168 68.4448 478.177 68.6381 475.934 68.6381ZM468.742 48.5121H480.632C480.632 47.2361 480.42 46.1148 479.994 45.1481C479.608 44.1815 478.989 43.4081 478.138 42.8281C477.288 42.2481 476.205 41.9581 474.89 41.9581C473.15 41.9581 471.739 42.5188 470.656 43.6401C469.574 44.7228 468.936 46.3468 468.742 48.5121Z" fill="url(#paint32_linear_112_4014)"/>
<path d="M418.241 68.0001V26.5881H451.997V68.0001H443.239V33.8961H426.999V68.0001H418.241Z" fill="url(#paint33_linear_112_4014)"/>
<defs>
<filter id="filter0_f_112_4014" x="397.84" y="15.2241" width="607.494" height="98.6958" filterUnits="userSpaceOnUse" color-interpolation-filters="sRGB">
<feFlood flood-opacity="0" result="BackgroundImageFix"/>
<feBlend mode="normal" in="SourceGraphic" in2="BackgroundImageFix" result="shape"/>
<feGaussianBlur stdDeviation="10" result="effect1_foregroundBlur_112_4014"/>
</filter>
<linearGradient id="paint0_linear_112_4014" x1="313" y1="61.0036" x2="1088" y2="61.0029" gradientUnits="userSpaceOnUse">
<stop stop-color="white" stop-opacity="0.3"/>
<stop offset="0.495" stop-color="#CBB0F8"/>
<stop offset="1" stop-color="white" stop-opacity="0.3"/>
</linearGradient>
<linearGradient id="paint1_linear_112_4014" x1="1942.04" y1="52.2168" x2="-11503.8" y2="52.2373" gradientUnits="userSpaceOnUse">
<stop stop-color="#F4439F"/>
<stop offset="1" stop-color="#7C3AED"/>
</linearGradient>
<linearGradient id="paint2_linear_112_4014" x1="2487.38" y1="52.6534" x2="-9676.71" y2="52.6707" gradientUnits="userSpaceOnUse">
<stop stop-color="#F4439F"/>
<stop offset="1" stop-color="#7C3AED"/>
</linearGradient>
<linearGradient id="paint3_linear_112_4014" x1="3253.98" y1="47.6173" x2="-9506.37" y2="47.6441" gradientUnits="userSpaceOnUse">
<stop stop-color="#F4439F"/>
<stop offset="1" stop-color="#7C3AED"/>
</linearGradient>
<linearGradient id="paint4_linear_112_4014" x1="4072.84" y1="52.2168" x2="-9345.26" y2="52.2372" gradientUnits="userSpaceOnUse">
<stop stop-color="#F4439F"/>
<stop offset="1" stop-color="#7C3AED"/>
</linearGradient>
<linearGradient id="paint5_linear_112_4014" x1="4533.3" y1="52.2168" x2="-8127.76" y2="52.2349" gradientUnits="userSpaceOnUse">
<stop stop-color="#F4439F"/>
<stop offset="1" stop-color="#7C3AED"/>
</linearGradient>
<linearGradient id="paint6_linear_112_4014" x1="5452.04" y1="52.2168" x2="-7966.06" y2="52.2372" gradientUnits="userSpaceOnUse">
<stop stop-color="#F4439F"/>
<stop offset="1" stop-color="#7C3AED"/>
</linearGradient>
<linearGradient id="paint7_linear_112_4014" x1="5594.93" y1="64.0519" x2="-6569.14" y2="64.0758" gradientUnits="userSpaceOnUse">
<stop stop-color="#F4439F"/>
<stop offset="1" stop-color="#7C3AED"/>
</linearGradient>
<linearGradient id="paint8_linear_112_4014" x1="5873.47" y1="47.0282" x2="-5503.76" y2="47.0493" gradientUnits="userSpaceOnUse">
<stop stop-color="#F4439F"/>
<stop offset="1" stop-color="#7C3AED"/>
</linearGradient>
<linearGradient id="paint9_linear_112_4014" x1="8010.28" y1="52.6535" x2="-6548.52" y2="52.6783" gradientUnits="userSpaceOnUse">
<stop stop-color="#F4439F"/>
<stop offset="1" stop-color="#7C3AED"/>
</linearGradient>
<linearGradient id="paint10_linear_112_4014" x1="6725.83" y1="48.7489" x2="-3736.85" y2="48.7645" gradientUnits="userSpaceOnUse">
<stop stop-color="#F4439F"/>
<stop offset="1" stop-color="#7C3AED"/>
</linearGradient>
<linearGradient id="paint11_linear_112_4014" x1="8359.76" y1="52.6535" x2="-3804.32" y2="52.6708" gradientUnits="userSpaceOnUse">
<stop stop-color="#F4439F"/>
<stop offset="1" stop-color="#7C3AED"/>
</linearGradient>
<linearGradient id="paint12_linear_112_4014" x1="9859.9" y1="52.2168" x2="-3585.92" y2="52.2373" gradientUnits="userSpaceOnUse">
<stop stop-color="#F4439F"/>
<stop offset="1" stop-color="#7C3AED"/>
</linearGradient>
<linearGradient id="paint13_linear_112_4014" x1="10177.7" y1="52.6227" x2="-2734.58" y2="52.6423" gradientUnits="userSpaceOnUse">
<stop stop-color="#F4439F"/>
<stop offset="1" stop-color="#7C3AED"/>
</linearGradient>
<linearGradient id="paint14_linear_112_4014" x1="10726.9" y1="47.6173" x2="-2033.45" y2="47.6442" gradientUnits="userSpaceOnUse">
<stop stop-color="#F4439F"/>
<stop offset="1" stop-color="#7C3AED"/>
</linearGradient>
<linearGradient id="paint15_linear_112_4014" x1="11550" y1="52.6227" x2="-1362.29" y2="52.6423" gradientUnits="userSpaceOnUse">
<stop stop-color="#F4439F"/>
<stop offset="1" stop-color="#7C3AED"/>
</linearGradient>
<linearGradient id="paint16_linear_112_4014" x1="1032.66" y1="57.4999" x2="367.54" y2="57.5" gradientUnits="userSpaceOnUse">
<stop stop-color="#F4439F"/>
<stop offset="1" stop-color="#7C3AED"/>
</linearGradient>
<linearGradient id="paint17_linear_112_4014" x1="700.5" y1="69" x2="700.5" y2="115" gradientUnits="userSpaceOnUse">
<stop offset="0.0001" stop-color="white" stop-opacity="0.1"/>
<stop offset="1" stop-color="white" stop-opacity="0"/>
</linearGradient>
<linearGradient id="paint18_linear_112_4014" x1="1031.53" y1="40.2168" x2="-10592.5" y2="40.2321" gradientUnits="userSpaceOnUse">
<stop stop-color="#F4439F"/>
<stop offset="1" stop-color="#7C3AED"/>
</linearGradient>
<linearGradient id="paint19_linear_112_4014" x1="1663.71" y1="40.6534" x2="-8852.22" y2="40.6664" gradientUnits="userSpaceOnUse">
<stop stop-color="#F4439F"/>
<stop offset="1" stop-color="#7C3AED"/>
</linearGradient>
<linearGradient id="paint20_linear_112_4014" x1="2389.91" y1="35.6173" x2="-8641.51" y2="35.6374" gradientUnits="userSpaceOnUse">
<stop stop-color="#F4439F"/>
<stop offset="1" stop-color="#7C3AED"/>
</linearGradient>
<linearGradient id="paint21_linear_112_4014" x1="3164.21" y1="40.2168" x2="-8435.83" y2="40.232" gradientUnits="userSpaceOnUse">
<stop stop-color="#F4439F"/>
<stop offset="1" stop-color="#7C3AED"/>
</linearGradient>
<linearGradient id="paint22_linear_112_4014" x1="3675.95" y1="40.2168" x2="-7269.62" y2="40.2304" gradientUnits="userSpaceOnUse">
<stop stop-color="#F4439F"/>
<stop offset="1" stop-color="#7C3AED"/>
</linearGradient>
<linearGradient id="paint23_linear_112_4014" x1="4543.41" y1="40.2168" x2="-7056.63" y2="40.232" gradientUnits="userSpaceOnUse">
<stop stop-color="#F4439F"/>
<stop offset="1" stop-color="#7C3AED"/>
</linearGradient>
<linearGradient id="paint24_linear_112_4014" x1="4771.26" y1="52.0519" x2="-5744.67" y2="52.0698" gradientUnits="userSpaceOnUse">
<stop stop-color="#F4439F"/>
<stop offset="1" stop-color="#7C3AED"/>
</linearGradient>
<linearGradient id="paint25_linear_112_4014" x1="5103.1" y1="35.0282" x2="-4732.6" y2="35.044" gradientUnits="userSpaceOnUse">
<stop stop-color="#F4439F"/>
<stop offset="1" stop-color="#7C3AED"/>
</linearGradient>
<linearGradient id="paint26_linear_112_4014" x1="7024.37" y1="40.6535" x2="-5561.81" y2="40.672" gradientUnits="userSpaceOnUse">
<stop stop-color="#F4439F"/>
<stop offset="1" stop-color="#7C3AED"/>
</linearGradient>
<linearGradient id="paint27_linear_112_4014" x1="6017.42" y1="36.7489" x2="-3027.63" y2="36.7605" gradientUnits="userSpaceOnUse">
<stop stop-color="#F4439F"/>
<stop offset="1" stop-color="#7C3AED"/>
</linearGradient>
<linearGradient id="paint28_linear_112_4014" x1="7536.09" y1="40.6535" x2="-2979.84" y2="40.6664" gradientUnits="userSpaceOnUse">
<stop stop-color="#F4439F"/>
<stop offset="1" stop-color="#7C3AED"/>
</linearGradient>
<linearGradient id="paint29_linear_112_4014" x1="8949.4" y1="40.2168" x2="-2674.61" y2="40.2321" gradientUnits="userSpaceOnUse">
<stop stop-color="#F4439F"/>
<stop offset="1" stop-color="#7C3AED"/>
</linearGradient>
<linearGradient id="paint30_linear_112_4014" x1="9303.32" y1="40.6227" x2="-1859.42" y2="40.6374" gradientUnits="userSpaceOnUse">
<stop stop-color="#F4439F"/>
<stop offset="1" stop-color="#7C3AED"/>
</linearGradient>
<linearGradient id="paint31_linear_112_4014" x1="9862.83" y1="35.6173" x2="-1168.58" y2="35.6374" gradientUnits="userSpaceOnUse">
<stop stop-color="#F4439F"/>
<stop offset="1" stop-color="#7C3AED"/>
</linearGradient>
<linearGradient id="paint32_linear_112_4014" x1="10675.6" y1="40.6227" x2="-487.129" y2="40.6374" gradientUnits="userSpaceOnUse">
<stop stop-color="#F4439F"/>
<stop offset="1" stop-color="#7C3AED"/>
</linearGradient>
<linearGradient id="paint33_linear_112_4014" x1="988" y1="45.4999" x2="413" y2="45.5" gradientUnits="userSpaceOnUse">
<stop stop-color="#F4439F"/>
<stop offset="1" stop-color="#7C3AED"/>
</linearGradient>
</defs>
</svg>
