<svg width="1400" height="120" viewBox="0 0 1400 120" fill="none" xmlns="http://www.w3.org/2000/svg">
<path d="M369 53H1032V69H369V53Z" fill="url(#paint0_linear_112_4070)"/>
<mask id="mask0_112_4070" style="mask-type:alpha" maskUnits="userSpaceOnUse" x="369" y="69" width="663" height="45">
<path d="M369 69H1032V114H369V69Z" fill="#C4C4C4"/>
</mask>
<g mask="url(#mask0_112_4070)">
<g filter="url(#filter0_f_112_4070)">
<path d="M910.513 80.5799C908.348 80.5799 906.492 80.1932 904.945 79.4199C903.437 78.6466 902.277 77.5446 901.465 76.1139C900.692 74.6446 900.305 72.8852 900.305 70.8359C900.305 67.5106 901.484 64.9779 903.843 63.2379C906.202 61.4979 909.778 60.5506 914.573 60.3959L919.851 60.2219V59.1779C919.851 57.4379 919.368 56.1812 918.401 55.4079C917.473 54.6346 915.965 54.2479 913.877 54.2479C912.524 54.2479 911.132 54.4219 909.701 54.7699C908.27 55.0792 906.666 55.5819 904.887 56.2779L902.393 50.3619C904.442 49.4726 906.511 48.8152 908.599 48.3899C910.726 47.9646 912.891 47.7519 915.095 47.7519C919.696 47.7519 923.08 48.7379 925.245 50.7099C927.449 52.6432 928.551 55.6399 928.551 59.6999V79.9999H922.403L920.721 75.6499H920.489C919.638 76.7712 918.71 77.6992 917.705 78.4339C916.7 79.1686 915.598 79.7099 914.399 80.0579C913.239 80.4059 911.944 80.5799 910.513 80.5799ZM913.529 74.1999C915.308 74.1999 916.796 73.6586 917.995 72.5759C919.232 71.4932 919.851 69.9466 919.851 67.9359V65.3839L916.487 65.4999C913.896 65.5772 912.04 66.0219 910.919 66.8339C909.798 67.6459 909.237 68.7866 909.237 70.2559C909.237 71.5706 909.624 72.5566 910.397 73.2139C911.17 73.8712 912.214 74.1999 913.529 74.1999Z" fill="url(#paint1_linear_112_4070)" fill-opacity="0.7"/>
<path d="M879.084 79.9999V54.8279H869.34V48.3319H897.47V54.8279H887.726V79.9999H879.084Z" fill="url(#paint2_linear_112_4070)" fill-opacity="0.7"/>
<path d="M856.556 80.5799C851.49 80.5799 847.585 79.1879 844.84 76.4039C842.133 73.6199 840.78 69.6372 840.78 64.4559C840.78 60.7052 841.456 57.5926 842.81 55.1179C844.202 52.6432 846.096 50.8066 848.494 49.6079C850.93 48.3706 853.752 47.7519 856.962 47.7519C858.856 47.7519 860.616 47.9259 862.24 48.2739C863.902 48.6219 865.391 49.1246 866.706 49.7819L864.154 56.2779C862.916 55.7366 861.776 55.3499 860.732 55.1179C859.688 54.8472 858.605 54.7119 857.484 54.7119C854.97 54.7119 853.037 55.5239 851.684 57.1479C850.369 58.7719 849.712 61.1499 849.712 64.2819C849.712 67.3752 850.388 69.6952 851.742 71.2419C853.095 72.7499 855.183 73.5039 858.006 73.5039C859.166 73.5039 860.403 73.3879 861.718 73.1559C863.032 72.8852 864.347 72.4792 865.662 71.9379V78.7819C864.463 79.3232 863.071 79.7486 861.486 80.0579C859.9 80.4059 858.257 80.5799 856.556 80.5799Z" fill="url(#paint3_linear_112_4070)" fill-opacity="0.7"/>
<path d="M829.198 79.9999L818.352 64.1079L818.236 63.6439L829.372 48.3319H838.304L826.472 64.6299L826.182 61.4399L839.174 79.9999H829.198ZM808.376 79.9999V48.3319H817.018V79.9999H808.376ZM815.858 67.1819V60.5699H822.006V67.1819H815.858Z" fill="url(#paint4_linear_112_4070)" fill-opacity="0.7"/>
<path d="M788.599 80.6379C785.351 80.6379 782.49 80.0386 780.015 78.8399C777.579 77.6026 775.685 75.7659 774.331 73.3299C772.978 70.8939 772.301 67.8779 772.301 64.2819C772.301 60.7632 772.939 57.7666 774.215 55.2919C775.491 52.8172 777.27 50.9419 779.551 49.6659C781.833 48.3899 784.52 47.7519 787.613 47.7519C790.591 47.7519 793.104 48.3319 795.153 49.4919C797.241 50.6519 798.827 52.3146 799.909 54.4799C800.992 56.6066 801.533 59.1586 801.533 62.1359V66.4279H781.233C781.311 68.7866 782.084 70.6232 783.553 71.9379C785.023 73.2526 787.072 73.9099 789.701 73.9099C791.403 73.9099 793.046 73.6972 794.631 73.2719C796.255 72.8466 797.937 72.2472 799.677 71.4739V78.3179C798.053 79.0912 796.352 79.6712 794.573 80.0579C792.833 80.4446 790.842 80.6379 788.599 80.6379ZM781.407 60.5119H793.297C793.297 59.2359 793.085 58.1146 792.659 57.1479C792.273 56.1812 791.654 55.4079 790.803 54.8279C789.953 54.2479 788.87 53.9579 787.555 53.9579C785.815 53.9579 784.404 54.5186 783.321 55.6399C782.239 56.7226 781.601 58.3466 781.407 60.5119Z" fill="url(#paint5_linear_112_4070)" fill-opacity="0.7"/>
<path d="M751.472 79.9999V54.8279H741.728V48.3319H769.858V54.8279H760.114V79.9999H751.472Z" fill="url(#paint6_linear_112_4070)" fill-opacity="0.7"/>
<path d="M689.442 88.1199V73.3879H692.98C693.56 72.6532 694.063 71.8606 694.488 71.0099C694.952 70.1592 695.32 69.1926 695.59 68.1099C695.861 67.0272 696.054 65.8092 696.17 64.4559C696.248 63.4119 696.325 62.3099 696.402 61.1499C696.48 59.9512 696.538 58.6946 696.576 57.3799C696.654 56.0652 696.731 54.6539 696.808 53.1459C696.886 51.6379 696.944 50.0332 696.982 48.3319H721.052V73.3879H725.518V88.1199H717.456V79.9999H697.504V88.1199H689.442ZM701.506 73.3879H712.41V54.9439H704.464C704.426 56.1812 704.368 57.3799 704.29 58.5399C704.252 59.6612 704.194 60.7052 704.116 61.6719C704.078 62.6386 704.02 63.5279 703.942 64.3399C703.788 66.4666 703.498 68.2646 703.072 69.7339C702.647 71.1646 702.125 72.3826 701.506 73.3879Z" fill="url(#paint7_linear_112_4070)" fill-opacity="0.7"/>
<path d="M671.617 80.5799C669.22 80.5799 667.055 80.2126 665.121 79.4779C663.227 78.7046 661.603 77.6219 660.249 76.2299C658.935 74.7992 657.929 73.0786 657.233 71.0679C656.537 69.0186 656.189 66.6986 656.189 64.1079C656.189 60.7439 656.808 57.8439 658.045 55.4079C659.321 52.9332 661.119 51.0386 663.439 49.7239C665.798 48.4092 668.582 47.7519 671.791 47.7519C675.001 47.7519 677.746 48.4092 680.027 49.7239C682.347 51.0386 684.126 52.9139 685.363 55.3499C686.601 57.7859 687.219 60.7052 687.219 64.1079C687.219 66.6599 686.852 68.9606 686.117 71.0099C685.421 73.0592 684.397 74.7992 683.043 76.2299C681.69 77.6219 680.047 78.7046 678.113 79.4779C676.219 80.2126 674.053 80.5799 671.617 80.5799ZM671.733 73.9679C674.053 73.9679 675.735 73.1752 676.779 71.5899C677.862 70.0046 678.403 67.5106 678.403 64.1079C678.403 60.7052 677.862 58.2306 676.779 56.6839C675.735 55.1372 674.034 54.3639 671.675 54.3639C669.355 54.3639 667.654 55.1372 666.571 56.6839C665.527 58.2306 665.005 60.7052 665.005 64.1079C665.005 67.5106 665.547 70.0046 666.629 71.5899C667.712 73.1752 669.413 73.9679 671.733 73.9679Z" fill="url(#paint8_linear_112_4070)" fill-opacity="0.7"/>
<path d="M623.379 79.9999V48.3319H637.415C641.9 48.3319 645.206 49.0086 647.333 50.3619C649.459 51.7152 650.523 53.7452 650.523 56.4519C650.523 58.2306 649.981 59.7192 648.899 60.9179C647.855 62.0779 646.308 62.8512 644.259 63.2379V63.4699C646.463 63.7792 648.203 64.5719 649.479 65.8479C650.793 67.0852 651.451 68.7286 651.451 70.7779C651.451 72.4406 651.025 73.9679 650.175 75.3599C649.324 76.7519 647.874 77.8732 645.825 78.7239C643.814 79.5746 641.03 79.9999 637.473 79.9999H623.379ZM632.137 73.9679H636.951C638.923 73.9679 640.353 73.6586 641.243 73.0399C642.132 72.4212 642.577 71.5126 642.577 70.3139C642.577 69.0379 642.113 68.0906 641.185 67.4719C640.295 66.8532 638.903 66.5439 637.009 66.5439H632.137V73.9679ZM632.137 60.6859H636.661C638.439 60.6859 639.735 60.4346 640.547 59.9319C641.397 59.3906 641.823 58.5786 641.823 57.4959C641.823 56.4519 641.436 55.6786 640.663 55.1759C639.928 54.6346 638.807 54.3639 637.299 54.3639H632.137V60.6859Z" fill="url(#paint9_linear_112_4070)" fill-opacity="0.7"/>
<path d="M604.007 80.6379C600.759 80.6379 597.898 80.0386 595.423 78.8399C592.987 77.6026 591.093 75.7659 589.739 73.3299C588.386 70.8939 587.709 67.8779 587.709 64.2819C587.709 60.7632 588.347 57.7666 589.623 55.2919C590.899 52.8172 592.678 50.9419 594.959 49.6659C597.241 48.3899 599.928 47.7519 603.021 47.7519C605.999 47.7519 608.512 48.3319 610.561 49.4919C612.649 50.6519 614.235 52.3146 615.317 54.4799C616.4 56.6066 616.941 59.1586 616.941 62.1359V66.4279H596.641C596.719 68.7866 597.492 70.6232 598.961 71.9379C600.431 73.2526 602.48 73.9099 605.109 73.9099C606.811 73.9099 608.454 73.6972 610.039 73.2719C611.663 72.8466 613.345 72.2472 615.085 71.4739V78.3179C613.461 79.0912 611.76 79.6712 609.981 80.0579C608.241 80.4446 606.25 80.6379 604.007 80.6379ZM596.815 60.5119H608.705C608.705 59.2359 608.493 58.1146 608.067 57.1479C607.681 56.1812 607.062 55.4079 606.211 54.8279C605.361 54.2479 604.278 53.9579 602.963 53.9579C601.223 53.9579 599.812 54.5186 598.729 55.6399C597.647 56.7226 597.009 58.3466 596.815 60.5119Z" fill="url(#paint10_linear_112_4070)" fill-opacity="0.7"/>
<path d="M553.097 93.9199V48.3319H560.115L561.333 52.4499H561.739C562.319 51.5992 563.015 50.8259 563.827 50.1299C564.639 49.3952 565.606 48.8152 566.727 48.3899C567.887 47.9646 569.221 47.7519 570.729 47.7519C574.286 47.7519 577.167 49.1439 579.371 51.9279C581.575 54.6732 582.677 58.7332 582.677 64.1079C582.677 67.7039 582.155 70.7392 581.111 73.2139C580.067 75.6499 578.636 77.4866 576.819 78.7239C575.002 79.9612 572.894 80.5799 570.497 80.5799C568.989 80.5799 567.674 80.3866 566.553 79.9999C565.47 79.6132 564.542 79.1106 563.769 78.4919C562.996 77.8732 562.319 77.2159 561.739 76.5199H561.275C561.43 77.2546 561.546 78.0279 561.623 78.8399C561.7 79.6132 561.739 80.3866 561.739 81.1599V93.9199H553.097ZM568.061 73.5619C569.376 73.5619 570.458 73.1946 571.309 72.4599C572.16 71.7252 572.798 70.6426 573.223 69.2119C573.648 67.7812 573.861 66.0412 573.861 63.9919C573.861 60.8986 573.378 58.5786 572.411 57.0319C571.483 55.4466 569.994 54.6539 567.945 54.6539C566.437 54.6539 565.238 54.9632 564.349 55.5819C563.46 56.2006 562.802 57.1479 562.377 58.4239C561.99 59.6612 561.778 61.2272 561.739 63.1219V64.0499C561.739 66.0992 561.932 67.8392 562.319 69.2699C562.706 70.6619 563.363 71.7252 564.291 72.4599C565.219 73.1946 566.476 73.5619 568.061 73.5619Z" fill="url(#paint11_linear_112_4070)" fill-opacity="0.7"/>
<path d="M533.32 80.6379C530.072 80.6379 527.211 80.0386 524.736 78.8399C522.3 77.6026 520.405 75.7659 519.052 73.3299C517.699 70.8939 517.022 67.8779 517.022 64.2819C517.022 60.7632 517.66 57.7666 518.936 55.2919C520.212 52.8172 521.991 50.9419 524.272 49.6659C526.553 48.3899 529.241 47.7519 532.334 47.7519C535.311 47.7519 537.825 48.3319 539.874 49.4919C541.962 50.6519 543.547 52.3146 544.63 54.4799C545.713 56.6066 546.254 59.1586 546.254 62.1359V66.4279H525.954C526.031 68.7866 526.805 70.6232 528.274 71.9379C529.743 73.2526 531.793 73.9099 534.422 73.9099C536.123 73.9099 537.767 73.6972 539.352 73.2719C540.976 72.8466 542.658 72.2472 544.398 71.4739V78.3179C542.774 79.0912 541.073 79.6712 539.294 80.0579C537.554 80.4446 535.563 80.6379 533.32 80.6379ZM526.128 60.5119H538.018C538.018 59.2359 537.805 58.1146 537.38 57.1479C536.993 56.1812 536.375 55.4079 535.524 54.8279C534.673 54.2479 533.591 53.9579 532.276 53.9579C530.536 53.9579 529.125 54.5186 528.042 55.6399C526.959 56.7226 526.321 58.3466 526.128 60.5119Z" fill="url(#paint12_linear_112_4070)" fill-opacity="0.7"/>
<path d="M475.626 79.9999V38.5879H509.382V79.9999H500.624V45.8959H484.384V79.9999H475.626Z" fill="url(#paint13_linear_112_4070)" fill-opacity="0.7"/>
</g>
</g>
<path d="M369 69H1032V102C1032 108.627 1026.63 114 1020 114H381C374.373 114 369 108.627 369 102V69Z" fill="url(#paint14_linear_112_4070)"/>
<path d="M909.513 68.5799C907.348 68.5799 905.492 68.1932 903.945 67.4199C902.437 66.6466 901.277 65.5446 900.465 64.1139C899.692 62.6446 899.305 60.8852 899.305 58.8359C899.305 55.5106 900.484 52.9779 902.843 51.2379C905.202 49.4979 908.778 48.5506 913.573 48.3959L918.851 48.2219V47.1779C918.851 45.4379 918.368 44.1812 917.401 43.4079C916.473 42.6346 914.965 42.2479 912.877 42.2479C911.524 42.2479 910.132 42.4219 908.701 42.7699C907.27 43.0792 905.666 43.5819 903.887 44.2779L901.393 38.3619C903.442 37.4726 905.511 36.8152 907.599 36.3899C909.726 35.9646 911.891 35.7519 914.095 35.7519C918.696 35.7519 922.08 36.7379 924.245 38.7099C926.449 40.6432 927.551 43.6399 927.551 47.6999V67.9999H921.403L919.721 63.6499H919.489C918.638 64.7712 917.71 65.6992 916.705 66.4339C915.7 67.1686 914.598 67.7099 913.399 68.0579C912.239 68.4059 910.944 68.5799 909.513 68.5799ZM912.529 62.1999C914.308 62.1999 915.796 61.6586 916.995 60.5759C918.232 59.4932 918.851 57.9466 918.851 55.9359V53.3839L915.487 53.4999C912.896 53.5772 911.04 54.0219 909.919 54.8339C908.798 55.6459 908.237 56.7866 908.237 58.2559C908.237 59.5706 908.624 60.5566 909.397 61.2139C910.17 61.8712 911.214 62.1999 912.529 62.1999Z" fill="url(#paint15_linear_112_4070)"/>
<path d="M878.084 67.9999V42.8279H868.34V36.3319H896.47V42.8279H886.726V67.9999H878.084Z" fill="url(#paint16_linear_112_4070)"/>
<path d="M855.556 68.5799C850.49 68.5799 846.585 67.1879 843.84 64.4039C841.133 61.6199 839.78 57.6372 839.78 52.4559C839.78 48.7052 840.456 45.5926 841.81 43.1179C843.202 40.6432 845.096 38.8066 847.494 37.6079C849.93 36.3706 852.752 35.7519 855.962 35.7519C857.856 35.7519 859.616 35.9259 861.24 36.2739C862.902 36.6219 864.391 37.1246 865.706 37.7819L863.154 44.2779C861.916 43.7366 860.776 43.3499 859.732 43.1179C858.688 42.8472 857.605 42.7119 856.484 42.7119C853.97 42.7119 852.037 43.5239 850.684 45.1479C849.369 46.7719 848.712 49.1499 848.712 52.2819C848.712 55.3752 849.388 57.6952 850.742 59.2419C852.095 60.7499 854.183 61.5039 857.006 61.5039C858.166 61.5039 859.403 61.3879 860.718 61.1559C862.032 60.8852 863.347 60.4792 864.662 59.9379V66.7819C863.463 67.3232 862.071 67.7486 860.486 68.0579C858.9 68.4059 857.257 68.5799 855.556 68.5799Z" fill="url(#paint17_linear_112_4070)"/>
<path d="M828.198 67.9999L817.352 52.1079L817.236 51.6439L828.372 36.3319H837.304L825.472 52.6299L825.182 49.4399L838.174 67.9999H828.198ZM807.376 67.9999V36.3319H816.018V67.9999H807.376ZM814.858 55.1819V48.5699H821.006V55.1819H814.858Z" fill="url(#paint18_linear_112_4070)"/>
<path d="M787.599 68.6379C784.351 68.6379 781.49 68.0386 779.015 66.8399C776.579 65.6026 774.685 63.7659 773.331 61.3299C771.978 58.8939 771.301 55.8779 771.301 52.2819C771.301 48.7632 771.939 45.7666 773.215 43.2919C774.491 40.8172 776.27 38.9419 778.551 37.6659C780.833 36.3899 783.52 35.7519 786.613 35.7519C789.591 35.7519 792.104 36.3319 794.153 37.4919C796.241 38.6519 797.827 40.3146 798.909 42.4799C799.992 44.6066 800.533 47.1586 800.533 50.1359V54.4279H780.233C780.311 56.7866 781.084 58.6232 782.553 59.9379C784.023 61.2526 786.072 61.9099 788.701 61.9099C790.403 61.9099 792.046 61.6972 793.631 61.2719C795.255 60.8466 796.937 60.2472 798.677 59.4739V66.3179C797.053 67.0912 795.352 67.6712 793.573 68.0579C791.833 68.4446 789.842 68.6379 787.599 68.6379ZM780.407 48.5119H792.297C792.297 47.2359 792.085 46.1146 791.659 45.1479C791.273 44.1812 790.654 43.4079 789.803 42.8279C788.953 42.2479 787.87 41.9579 786.555 41.9579C784.815 41.9579 783.404 42.5186 782.321 43.6399C781.239 44.7226 780.601 46.3466 780.407 48.5119Z" fill="url(#paint19_linear_112_4070)"/>
<path d="M750.472 67.9999V42.8279H740.728V36.3319H768.858V42.8279H759.114V67.9999H750.472Z" fill="url(#paint20_linear_112_4070)"/>
<path d="M688.442 76.1199V61.3879H691.98C692.56 60.6532 693.063 59.8606 693.488 59.0099C693.952 58.1592 694.32 57.1926 694.59 56.1099C694.861 55.0272 695.054 53.8092 695.17 52.4559C695.248 51.4119 695.325 50.3099 695.402 49.1499C695.48 47.9512 695.538 46.6946 695.576 45.3799C695.654 44.0652 695.731 42.6539 695.808 41.1459C695.886 39.6379 695.944 38.0332 695.982 36.3319H720.052V61.3879H724.518V76.1199H716.456V67.9999H696.504V76.1199H688.442ZM700.506 61.3879H711.41V42.9439H703.464C703.426 44.1812 703.368 45.3799 703.29 46.5399C703.252 47.6612 703.194 48.7052 703.116 49.6719C703.078 50.6386 703.02 51.5279 702.942 52.3399C702.788 54.4666 702.498 56.2646 702.072 57.7339C701.647 59.1646 701.125 60.3826 700.506 61.3879Z" fill="url(#paint21_linear_112_4070)"/>
<path d="M670.617 68.5799C668.22 68.5799 666.055 68.2126 664.121 67.4779C662.227 66.7046 660.603 65.6219 659.249 64.2299C657.935 62.7992 656.929 61.0786 656.233 59.0679C655.537 57.0186 655.189 54.6986 655.189 52.1079C655.189 48.7439 655.808 45.8439 657.045 43.4079C658.321 40.9332 660.119 39.0386 662.439 37.7239C664.798 36.4092 667.582 35.7519 670.791 35.7519C674.001 35.7519 676.746 36.4092 679.027 37.7239C681.347 39.0386 683.126 40.9139 684.363 43.3499C685.601 45.7859 686.219 48.7052 686.219 52.1079C686.219 54.6599 685.852 56.9606 685.117 59.0099C684.421 61.0592 683.397 62.7992 682.043 64.2299C680.69 65.6219 679.047 66.7046 677.113 67.4779C675.219 68.2126 673.053 68.5799 670.617 68.5799ZM670.733 61.9679C673.053 61.9679 674.735 61.1752 675.779 59.5899C676.862 58.0046 677.403 55.5106 677.403 52.1079C677.403 48.7052 676.862 46.2306 675.779 44.6839C674.735 43.1372 673.034 42.3639 670.675 42.3639C668.355 42.3639 666.654 43.1372 665.571 44.6839C664.527 46.2306 664.005 48.7052 664.005 52.1079C664.005 55.5106 664.547 58.0046 665.629 59.5899C666.712 61.1752 668.413 61.9679 670.733 61.9679Z" fill="url(#paint22_linear_112_4070)"/>
<path d="M622.379 67.9999V36.3319H636.415C640.9 36.3319 644.206 37.0086 646.333 38.3619C648.459 39.7152 649.523 41.7452 649.523 44.4519C649.523 46.2306 648.981 47.7192 647.899 48.9179C646.855 50.0779 645.308 50.8512 643.259 51.2379V51.4699C645.463 51.7792 647.203 52.5719 648.479 53.8479C649.793 55.0852 650.451 56.7286 650.451 58.7779C650.451 60.4406 650.025 61.9679 649.175 63.3599C648.324 64.7519 646.874 65.8732 644.825 66.7239C642.814 67.5746 640.03 67.9999 636.473 67.9999H622.379ZM631.137 61.9679H635.951C637.923 61.9679 639.353 61.6586 640.243 61.0399C641.132 60.4212 641.577 59.5126 641.577 58.3139C641.577 57.0379 641.113 56.0906 640.185 55.4719C639.295 54.8532 637.903 54.5439 636.009 54.5439H631.137V61.9679ZM631.137 48.6859H635.661C637.439 48.6859 638.735 48.4346 639.547 47.9319C640.397 47.3906 640.823 46.5786 640.823 45.4959C640.823 44.4519 640.436 43.6786 639.663 43.1759C638.928 42.6346 637.807 42.3639 636.299 42.3639H631.137V48.6859Z" fill="url(#paint23_linear_112_4070)"/>
<path d="M603.007 68.6379C599.759 68.6379 596.898 68.0386 594.423 66.8399C591.987 65.6026 590.093 63.7659 588.739 61.3299C587.386 58.8939 586.709 55.8779 586.709 52.2819C586.709 48.7632 587.347 45.7666 588.623 43.2919C589.899 40.8172 591.678 38.9419 593.959 37.6659C596.241 36.3899 598.928 35.7519 602.021 35.7519C604.999 35.7519 607.512 36.3319 609.561 37.4919C611.649 38.6519 613.235 40.3146 614.317 42.4799C615.4 44.6066 615.941 47.1586 615.941 50.1359V54.4279H595.641C595.719 56.7866 596.492 58.6232 597.961 59.9379C599.431 61.2526 601.48 61.9099 604.109 61.9099C605.811 61.9099 607.454 61.6972 609.039 61.2719C610.663 60.8466 612.345 60.2472 614.085 59.4739V66.3179C612.461 67.0912 610.76 67.6712 608.981 68.0579C607.241 68.4446 605.25 68.6379 603.007 68.6379ZM595.815 48.5119H607.705C607.705 47.2359 607.493 46.1146 607.067 45.1479C606.681 44.1812 606.062 43.4079 605.211 42.8279C604.361 42.2479 603.278 41.9579 601.963 41.9579C600.223 41.9579 598.812 42.5186 597.729 43.6399C596.647 44.7226 596.009 46.3466 595.815 48.5119Z" fill="url(#paint24_linear_112_4070)"/>
<path d="M552.097 81.9199V36.3319H559.115L560.333 40.4499H560.739C561.319 39.5992 562.015 38.8259 562.827 38.1299C563.639 37.3952 564.606 36.8152 565.727 36.3899C566.887 35.9646 568.221 35.7519 569.729 35.7519C573.286 35.7519 576.167 37.1439 578.371 39.9279C580.575 42.6732 581.677 46.7332 581.677 52.1079C581.677 55.7039 581.155 58.7392 580.111 61.2139C579.067 63.6499 577.636 65.4866 575.819 66.7239C574.002 67.9612 571.894 68.5799 569.497 68.5799C567.989 68.5799 566.674 68.3866 565.553 67.9999C564.47 67.6132 563.542 67.1106 562.769 66.4919C561.996 65.8732 561.319 65.2159 560.739 64.5199H560.275C560.43 65.2546 560.546 66.0279 560.623 66.8399C560.7 67.6132 560.739 68.3866 560.739 69.1599V81.9199H552.097ZM567.061 61.5619C568.376 61.5619 569.458 61.1946 570.309 60.4599C571.16 59.7252 571.798 58.6426 572.223 57.2119C572.648 55.7812 572.861 54.0412 572.861 51.9919C572.861 48.8986 572.378 46.5786 571.411 45.0319C570.483 43.4466 568.994 42.6539 566.945 42.6539C565.437 42.6539 564.238 42.9632 563.349 43.5819C562.46 44.2006 561.802 45.1479 561.377 46.4239C560.99 47.6612 560.778 49.2272 560.739 51.1219V52.0499C560.739 54.0992 560.932 55.8392 561.319 57.2699C561.706 58.6619 562.363 59.7252 563.291 60.4599C564.219 61.1946 565.476 61.5619 567.061 61.5619Z" fill="url(#paint25_linear_112_4070)"/>
<path d="M532.32 68.6379C529.072 68.6379 526.211 68.0386 523.736 66.8399C521.3 65.6026 519.405 63.7659 518.052 61.3299C516.699 58.8939 516.022 55.8779 516.022 52.2819C516.022 48.7632 516.66 45.7666 517.936 43.2919C519.212 40.8172 520.991 38.9419 523.272 37.6659C525.553 36.3899 528.241 35.7519 531.334 35.7519C534.311 35.7519 536.825 36.3319 538.874 37.4919C540.962 38.6519 542.547 40.3146 543.63 42.4799C544.713 44.6066 545.254 47.1586 545.254 50.1359V54.4279H524.954C525.031 56.7866 525.805 58.6232 527.274 59.9379C528.743 61.2526 530.793 61.9099 533.422 61.9099C535.123 61.9099 536.767 61.6972 538.352 61.2719C539.976 60.8466 541.658 60.2472 543.398 59.4739V66.3179C541.774 67.0912 540.073 67.6712 538.294 68.0579C536.554 68.4446 534.563 68.6379 532.32 68.6379ZM525.128 48.5119H537.018C537.018 47.2359 536.805 46.1146 536.38 45.1479C535.993 44.1812 535.375 43.4079 534.524 42.8279C533.673 42.2479 532.591 41.9579 531.276 41.9579C529.536 41.9579 528.125 42.5186 527.042 43.6399C525.959 44.7226 525.321 46.3466 525.128 48.5119Z" fill="url(#paint26_linear_112_4070)"/>
<path d="M474.626 67.9999V26.5879H508.382V67.9999H499.624V33.8959H483.384V67.9999H474.626Z" fill="url(#paint27_linear_112_4070)"/>
<defs>
<filter id="filter0_f_112_4070" x="455.626" y="18.5879" width="492.925" height="95.332" filterUnits="userSpaceOnUse" color-interpolation-filters="sRGB">
<feFlood flood-opacity="0" result="BackgroundImageFix"/>
<feBlend mode="normal" in="SourceGraphic" in2="BackgroundImageFix" result="shape"/>
<feGaussianBlur stdDeviation="10" result="effect1_foregroundBlur_112_4070"/>
</filter>
<linearGradient id="paint0_linear_112_4070" x1="369" y1="61.0036" x2="1032" y2="61.0031" gradientUnits="userSpaceOnUse">
<stop stop-color="white" stop-opacity="0.3"/>
<stop offset="0.495" stop-color="#CBB0F8"/>
<stop offset="1" stop-color="white" stop-opacity="0.3"/>
</linearGradient>
<linearGradient id="paint1_linear_112_4070" x1="999.892" y1="55.0183" x2="-6424.31" y2="55.0251" gradientUnits="userSpaceOnUse">
<stop stop-color="#F4439F"/>
<stop offset="1" stop-color="#7C3AED"/>
</linearGradient>
<linearGradient id="paint2_linear_112_4070" x1="1500.63" y1="54.6067" x2="-5954.19" y2="54.6134" gradientUnits="userSpaceOnUse">
<stop stop-color="#F4439F"/>
<stop offset="1" stop-color="#7C3AED"/>
</linearGradient>
<linearGradient id="paint3_linear_112_4070" x1="2086.71" y1="55.0183" x2="-6001.86" y2="55.0264" gradientUnits="userSpaceOnUse">
<stop stop-color="#F4439F"/>
<stop offset="1" stop-color="#7C3AED"/>
</linearGradient>
<linearGradient id="paint4_linear_112_4070" x1="2308.38" y1="54.6067" x2="-4500.64" y2="54.6123" gradientUnits="userSpaceOnUse">
<stop stop-color="#F4439F"/>
<stop offset="1" stop-color="#7C3AED"/>
</linearGradient>
<linearGradient id="paint5_linear_112_4070" x1="2965.52" y1="54.9893" x2="-4208.27" y2="54.9957" gradientUnits="userSpaceOnUse">
<stop stop-color="#F4439F"/>
<stop offset="1" stop-color="#7C3AED"/>
</linearGradient>
<linearGradient id="paint6_linear_112_4070" x1="3555.31" y1="54.6067" x2="-3899.51" y2="54.6134" gradientUnits="userSpaceOnUse">
<stop stop-color="#F4439F"/>
<stop offset="1" stop-color="#7C3AED"/>
</linearGradient>
<linearGradient id="paint7_linear_112_4070" x1="3533.43" y1="51.3375" x2="-2279.41" y2="51.3426" gradientUnits="userSpaceOnUse">
<stop stop-color="#F4439F"/>
<stop offset="1" stop-color="#7C3AED"/>
</linearGradient>
<linearGradient id="paint8_linear_112_4070" x1="4516.05" y1="55.0183" x2="-2242.06" y2="55.024" gradientUnits="userSpaceOnUse">
<stop stop-color="#F4439F"/>
<stop offset="1" stop-color="#7C3AED"/>
</linearGradient>
<linearGradient id="paint9_linear_112_4070" x1="5471.18" y1="54.6067" x2="-1999.04" y2="54.6134" gradientUnits="userSpaceOnUse">
<stop stop-color="#F4439F"/>
<stop offset="1" stop-color="#7C3AED"/>
</linearGradient>
<linearGradient id="paint10_linear_112_4070" x1="5825.61" y1="54.9893" x2="-1348.18" y2="54.9957" gradientUnits="userSpaceOnUse">
<stop stop-color="#F4439F"/>
<stop offset="1" stop-color="#7C3AED"/>
</linearGradient>
<linearGradient id="paint11_linear_112_4070" x1="6292.65" y1="50.2708" x2="-796.744" y2="50.2796" gradientUnits="userSpaceOnUse">
<stop stop-color="#F4439F"/>
<stop offset="1" stop-color="#7C3AED"/>
</linearGradient>
<linearGradient id="paint12_linear_112_4070" x1="6920.85" y1="54.9893" x2="-252.938" y2="54.9957" gradientUnits="userSpaceOnUse">
<stop stop-color="#F4439F"/>
<stop offset="1" stop-color="#7C3AED"/>
</linearGradient>
<linearGradient id="paint13_linear_112_4070" x1="933" y1="57.4999" x2="470" y2="57.4999" gradientUnits="userSpaceOnUse">
<stop stop-color="#F4439F"/>
<stop offset="1" stop-color="#7C3AED"/>
</linearGradient>
<linearGradient id="paint14_linear_112_4070" x1="700.5" y1="69" x2="700.5" y2="114" gradientUnits="userSpaceOnUse">
<stop offset="0.0001" stop-color="white" stop-opacity="0.1"/>
<stop offset="1" stop-color="white" stop-opacity="0"/>
</linearGradient>
<linearGradient id="paint15_linear_112_4070" x1="998.892" y1="43.0183" x2="-6425.31" y2="43.0251" gradientUnits="userSpaceOnUse">
<stop stop-color="#F4439F"/>
<stop offset="1" stop-color="#7C3AED"/>
</linearGradient>
<linearGradient id="paint16_linear_112_4070" x1="1499.63" y1="42.6067" x2="-5955.19" y2="42.6134" gradientUnits="userSpaceOnUse">
<stop stop-color="#F4439F"/>
<stop offset="1" stop-color="#7C3AED"/>
</linearGradient>
<linearGradient id="paint17_linear_112_4070" x1="2085.71" y1="43.0183" x2="-6002.86" y2="43.0264" gradientUnits="userSpaceOnUse">
<stop stop-color="#F4439F"/>
<stop offset="1" stop-color="#7C3AED"/>
</linearGradient>
<linearGradient id="paint18_linear_112_4070" x1="2307.38" y1="42.6067" x2="-4501.64" y2="42.6123" gradientUnits="userSpaceOnUse">
<stop stop-color="#F4439F"/>
<stop offset="1" stop-color="#7C3AED"/>
</linearGradient>
<linearGradient id="paint19_linear_112_4070" x1="2964.52" y1="42.9893" x2="-4209.27" y2="42.9957" gradientUnits="userSpaceOnUse">
<stop stop-color="#F4439F"/>
<stop offset="1" stop-color="#7C3AED"/>
</linearGradient>
<linearGradient id="paint20_linear_112_4070" x1="3554.31" y1="42.6067" x2="-3900.51" y2="42.6134" gradientUnits="userSpaceOnUse">
<stop stop-color="#F4439F"/>
<stop offset="1" stop-color="#7C3AED"/>
</linearGradient>
<linearGradient id="paint21_linear_112_4070" x1="3532.43" y1="39.3375" x2="-2280.41" y2="39.3426" gradientUnits="userSpaceOnUse">
<stop stop-color="#F4439F"/>
<stop offset="1" stop-color="#7C3AED"/>
</linearGradient>
<linearGradient id="paint22_linear_112_4070" x1="4515.05" y1="43.0183" x2="-2243.06" y2="43.024" gradientUnits="userSpaceOnUse">
<stop stop-color="#F4439F"/>
<stop offset="1" stop-color="#7C3AED"/>
</linearGradient>
<linearGradient id="paint23_linear_112_4070" x1="5470.18" y1="42.6067" x2="-2000.04" y2="42.6134" gradientUnits="userSpaceOnUse">
<stop stop-color="#F4439F"/>
<stop offset="1" stop-color="#7C3AED"/>
</linearGradient>
<linearGradient id="paint24_linear_112_4070" x1="5824.61" y1="42.9893" x2="-1349.18" y2="42.9957" gradientUnits="userSpaceOnUse">
<stop stop-color="#F4439F"/>
<stop offset="1" stop-color="#7C3AED"/>
</linearGradient>
<linearGradient id="paint25_linear_112_4070" x1="6291.65" y1="38.2708" x2="-797.744" y2="38.2796" gradientUnits="userSpaceOnUse">
<stop stop-color="#F4439F"/>
<stop offset="1" stop-color="#7C3AED"/>
</linearGradient>
<linearGradient id="paint26_linear_112_4070" x1="6919.85" y1="42.9893" x2="-253.938" y2="42.9957" gradientUnits="userSpaceOnUse">
<stop stop-color="#F4439F"/>
<stop offset="1" stop-color="#7C3AED"/>
</linearGradient>
<linearGradient id="paint27_linear_112_4070" x1="932" y1="45.4999" x2="469" y2="45.4999" gradientUnits="userSpaceOnUse">
<stop stop-color="#F4439F"/>
<stop offset="1" stop-color="#7C3AED"/>
</linearGradient>
</defs>
</svg>
