<svg width="1400" height="120" viewBox="0 0 1400 120" fill="none" xmlns="http://www.w3.org/2000/svg">
<path d="M280 53H1120V69H280V53Z" fill="url(#paint0_linear_112_3958)"/>
<mask id="mask0_112_3958" style="mask-type:alpha" maskUnits="userSpaceOnUse" x="280" y="69" width="840" height="45">
<path d="M280 69H1120V114H280V69Z" fill="#C4C4C4"/>
</mask>
<g mask="url(#mask0_112_3958)">
<g filter="url(#filter0_f_112_3958)">
<path d="M1010.52 88.1201V80.0001H986.044V48.3321H994.802V73.2141H1005.65V48.3321H1014.41V73.2141H1018.87V88.1201H1010.52Z" fill="url(#paint1_linear_112_3958)" fill-opacity="0.7"/>
<path d="M947.31 80.0001V48.3321H955.72V60.8601C955.72 61.9041 955.681 63.1028 955.604 64.4561C955.526 65.8095 955.43 67.0661 955.314 68.2261C955.236 69.3861 955.14 70.2175 955.024 70.7201H955.198L967.262 48.3321H977.122V80.0001H968.712V67.3561C968.712 66.1188 968.75 64.8815 968.828 63.6441C968.905 62.3681 968.982 61.2081 969.06 60.1641C969.176 59.1201 969.272 58.3081 969.35 57.7281H969.118L957.17 80.0001H947.31Z" fill="url(#paint2_linear_112_3958)" fill-opacity="0.7"/>
<path d="M909.247 80.0001V48.3321H917.889V60.6861H929.373V48.3321H938.015V80.0001H929.373V67.2981H917.889V80.0001H909.247Z" fill="url(#paint3_linear_112_3958)" fill-opacity="0.7"/>
<path d="M882.526 80.5801C880.361 80.5801 878.505 80.1935 876.958 79.4201C875.45 78.6468 874.29 77.5448 873.478 76.1141C872.705 74.6448 872.318 72.8855 872.318 70.8361C872.318 67.5108 873.498 64.9781 875.856 63.2381C878.215 61.4981 881.792 60.5508 886.586 60.3961L891.864 60.2221V59.1781C891.864 57.4381 891.381 56.1815 890.414 55.4081C889.486 54.6348 887.978 54.2481 885.89 54.2481C884.537 54.2481 883.145 54.4221 881.714 54.7701C880.284 55.0795 878.679 55.5821 876.9 56.2781L874.406 50.3621C876.456 49.4728 878.524 48.8155 880.612 48.3901C882.739 47.9648 884.904 47.7521 887.108 47.7521C891.71 47.7521 895.093 48.7381 897.258 50.7101C899.462 52.6435 900.564 55.6401 900.564 59.7001V80.0001H894.416L892.734 75.6501H892.502C891.652 76.7715 890.724 77.6995 889.718 78.4341C888.713 79.1688 887.611 79.7101 886.412 80.0581C885.252 80.4061 883.957 80.5801 882.526 80.5801ZM885.542 74.2001C887.321 74.2001 888.81 73.6588 890.008 72.5761C891.246 71.4935 891.864 69.9468 891.864 67.9361V65.3841L888.5 65.5001C885.91 65.5775 884.054 66.0221 882.932 66.8341C881.811 67.6461 881.25 68.7868 881.25 70.2561C881.25 71.5708 881.637 72.5568 882.41 73.2141C883.184 73.8715 884.228 74.2001 885.542 74.2001Z" fill="url(#paint4_linear_112_3958)" fill-opacity="0.7"/>
<path d="M837.88 93.9201V48.3321H844.898L846.116 52.4501H846.522C847.102 51.5995 847.798 50.8261 848.61 50.1301C849.422 49.3955 850.389 48.8155 851.51 48.3901C852.67 47.9648 854.004 47.7521 855.512 47.7521C859.069 47.7521 861.95 49.1441 864.154 51.9281C866.358 54.6735 867.46 58.7335 867.46 64.1081C867.46 67.7041 866.938 70.7395 865.894 73.2141C864.85 75.6501 863.419 77.4868 861.602 78.7241C859.785 79.9615 857.677 80.5801 855.28 80.5801C853.772 80.5801 852.457 80.3868 851.336 80.0001C850.253 79.6135 849.325 79.1108 848.552 78.4921C847.779 77.8735 847.102 77.2161 846.522 76.5201H846.058C846.213 77.2548 846.329 78.0281 846.406 78.8401C846.483 79.6135 846.522 80.3868 846.522 81.1601V93.9201H837.88ZM852.844 73.5621C854.159 73.5621 855.241 73.1948 856.092 72.4601C856.943 71.7255 857.581 70.6428 858.006 69.2121C858.431 67.7815 858.644 66.0415 858.644 63.9921C858.644 60.8988 858.161 58.5788 857.194 57.0321C856.266 55.4468 854.777 54.6541 852.728 54.6541C851.22 54.6541 850.021 54.9635 849.132 55.5821C848.243 56.2008 847.585 57.1481 847.16 58.4241C846.773 59.6615 846.561 61.2275 846.522 63.1221V64.0501C846.522 66.0995 846.715 67.8395 847.102 69.2701C847.489 70.6621 848.146 71.7255 849.074 72.4601C850.002 73.1948 851.259 73.5621 852.844 73.5621Z" fill="url(#paint5_linear_112_3958)" fill-opacity="0.7"/>
<path d="M814.281 80.0001V54.8281H804.537V48.3321H832.667V54.8281H822.923V80.0001H814.281Z" fill="url(#paint6_linear_112_3958)" fill-opacity="0.7"/>
<path d="M791.753 80.5801C786.687 80.5801 782.782 79.1881 780.037 76.4041C777.33 73.6201 775.977 69.6375 775.977 64.4561C775.977 60.7055 776.653 57.5928 778.007 55.1181C779.399 52.6435 781.293 50.8068 783.691 49.6081C786.127 48.3708 788.949 47.7521 792.159 47.7521C794.053 47.7521 795.813 47.9261 797.437 48.2741C799.099 48.6221 800.588 49.1248 801.903 49.7821L799.351 56.2781C798.113 55.7368 796.973 55.3501 795.929 55.1181C794.885 54.8475 793.802 54.7121 792.681 54.7121C790.167 54.7121 788.234 55.5241 786.881 57.1481C785.566 58.7721 784.909 61.1501 784.909 64.2821C784.909 67.3755 785.585 69.6955 786.939 71.2421C788.292 72.7501 790.38 73.5041 793.203 73.5041C794.363 73.5041 795.6 73.3881 796.915 73.1561C798.229 72.8855 799.544 72.4795 800.859 71.9381V78.7821C799.66 79.3235 798.268 79.7488 796.683 80.0581C795.097 80.4061 793.454 80.5801 791.753 80.5801Z" fill="url(#paint7_linear_112_3958)" fill-opacity="0.7"/>
<path d="M756.587 68.0521V60.8601H771.841V68.0521H756.587Z" fill="url(#paint8_linear_112_3958)" fill-opacity="0.7"/>
<path d="M737.097 80.5801C733.695 80.5801 730.833 79.8648 728.513 78.4341C726.193 76.9648 724.434 74.7608 723.235 71.8221C722.037 68.8448 721.437 65.0941 721.437 60.5701C721.437 56.8968 721.766 53.6875 722.423 50.9421C723.081 48.1968 724.067 45.8768 725.381 43.9821C726.696 42.0488 728.359 40.5021 730.369 39.3421C732.419 38.1435 734.797 37.2928 737.503 36.7901C738.315 36.6355 739.359 36.4615 740.635 36.2681C741.911 36.0748 743.284 35.8815 744.753 35.6881C746.223 35.4948 747.634 35.3401 748.987 35.2241L749.799 42.8221C748.678 42.9381 747.46 43.0928 746.145 43.2861C744.831 43.4408 743.555 43.6148 742.317 43.8081C741.119 43.9628 740.075 44.1175 739.185 44.2721C737.097 44.6588 735.396 45.2581 734.081 46.0701C732.767 46.8821 731.742 48.0035 731.007 49.4341C730.311 50.8648 729.809 52.7401 729.499 55.0601H729.905C730.64 53.9001 731.491 52.9335 732.457 52.1601C733.424 51.3481 734.526 50.7488 735.763 50.3621C737.039 49.9368 738.431 49.7241 739.939 49.7241C742.569 49.7241 744.811 50.3235 746.667 51.5221C748.562 52.6821 749.993 54.3641 750.959 56.5681C751.965 58.7335 752.467 61.3241 752.467 64.3401C752.467 67.9361 751.81 70.9328 750.495 73.3301C749.181 75.7275 747.363 77.5448 745.043 78.7821C742.762 79.9808 740.113 80.5801 737.097 80.5801ZM737.155 73.7361C738.663 73.7361 739.901 73.4268 740.867 72.8081C741.834 72.1895 742.549 71.2421 743.013 69.9661C743.477 68.6901 743.709 67.0855 743.709 65.1521C743.709 62.2521 743.187 60.1061 742.143 58.7141C741.099 57.2835 739.456 56.5681 737.213 56.5681C734.893 56.5681 733.192 57.2835 732.109 58.7141C731.065 60.1061 730.543 62.2328 730.543 65.0941C730.543 67.0275 730.775 68.6515 731.239 69.9661C731.703 71.2421 732.419 72.1895 733.385 72.8081C734.391 73.4268 735.647 73.7361 737.155 73.7361Z" fill="url(#paint9_linear_112_3958)" fill-opacity="0.7"/>
<path d="M703.632 80.6381C700.384 80.6381 697.523 80.0388 695.048 78.8401C692.612 77.6028 690.718 75.7661 689.364 73.3301C688.011 70.8941 687.334 67.8781 687.334 64.2821C687.334 60.7635 687.972 57.7668 689.248 55.2921C690.524 52.8175 692.303 50.9421 694.584 49.6661C696.866 48.3901 699.553 47.7521 702.646 47.7521C705.624 47.7521 708.137 48.3321 710.186 49.4921C712.274 50.6521 713.86 52.3148 714.942 54.4801C716.025 56.6068 716.566 59.1588 716.566 62.1361V66.4281H696.266C696.344 68.7868 697.117 70.6235 698.586 71.9381C700.056 73.2528 702.105 73.9101 704.734 73.9101C706.436 73.9101 708.079 73.6975 709.664 73.2721C711.288 72.8468 712.97 72.2475 714.71 71.4741V78.3181C713.086 79.0915 711.385 79.6715 709.606 80.0581C707.866 80.4448 705.875 80.6381 703.632 80.6381ZM696.44 60.5121H708.33C708.33 59.2361 708.118 58.1148 707.692 57.1481C707.306 56.1815 706.687 55.4081 705.836 54.8281C704.986 54.2481 703.903 53.9581 702.588 53.9581C700.848 53.9581 699.437 54.5188 698.354 55.6401C697.272 56.7228 696.634 58.3468 696.44 60.5121Z" fill="url(#paint10_linear_112_3958)" fill-opacity="0.7"/>
<path d="M654.581 80.0001V48.3321H668.617C673.103 48.3321 676.409 49.0088 678.535 50.3621C680.662 51.7155 681.725 53.7455 681.725 56.4521C681.725 58.2308 681.184 59.7195 680.101 60.9181C679.057 62.0781 677.511 62.8515 675.461 63.2381V63.4701C677.665 63.7795 679.405 64.5721 680.681 65.8481C681.996 67.0855 682.653 68.7288 682.653 70.7781C682.653 72.4408 682.228 73.9681 681.377 75.3601C680.527 76.7521 679.077 77.8735 677.027 78.7241C675.017 79.5748 672.233 80.0001 668.675 80.0001H654.581ZM663.339 73.9681H668.153C670.125 73.9681 671.556 73.6588 672.445 73.0401C673.335 72.4215 673.779 71.5128 673.779 70.3141C673.779 69.0381 673.315 68.0908 672.387 67.4721C671.498 66.8535 670.106 66.5441 668.211 66.5441H663.339V73.9681ZM663.339 60.6861H667.863C669.642 60.6861 670.937 60.4348 671.749 59.9321C672.6 59.3908 673.025 58.5788 673.025 57.4961C673.025 56.4521 672.639 55.6788 671.865 55.1761C671.131 54.6348 670.009 54.3641 668.501 54.3641H663.339V60.6861Z" fill="url(#paint11_linear_112_3958)" fill-opacity="0.7"/>
<path d="M598.641 88.1201V73.3881H602.179C602.759 72.6535 603.262 71.8608 603.687 71.0101C604.151 70.1595 604.519 69.1928 604.789 68.1101C605.06 67.0275 605.253 65.8095 605.369 64.4561C605.447 63.4121 605.524 62.3101 605.601 61.1501C605.679 59.9515 605.737 58.6948 605.775 57.3801C605.853 56.0655 605.93 54.6541 606.007 53.1461C606.085 51.6381 606.143 50.0335 606.181 48.3321H630.251V73.3881H634.717V88.1201H626.655V80.0001H606.703V88.1201H598.641ZM610.705 73.3881H621.609V54.9441H613.663C613.625 56.1815 613.567 57.3801 613.489 58.5401C613.451 59.6615 613.393 60.7055 613.315 61.6721C613.277 62.6388 613.219 63.5281 613.141 64.3401C612.987 66.4668 612.697 68.2648 612.271 69.7341C611.846 71.1648 611.324 72.3828 610.705 73.3881Z" fill="url(#paint12_linear_112_3958)" fill-opacity="0.7"/>
<path d="M580.816 80.5801C578.419 80.5801 576.254 80.2128 574.32 79.4781C572.426 78.7048 570.802 77.6221 569.448 76.2301C568.134 74.7995 567.128 73.0788 566.432 71.0681C565.736 69.0188 565.388 66.6988 565.388 64.1081C565.388 60.7441 566.007 57.8441 567.244 55.4081C568.52 52.9335 570.318 51.0388 572.638 49.7241C574.997 48.4095 577.781 47.7521 580.99 47.7521C584.2 47.7521 586.945 48.4095 589.226 49.7241C591.546 51.0388 593.325 52.9141 594.562 55.3501C595.8 57.7861 596.418 60.7055 596.418 64.1081C596.418 66.6601 596.051 68.9608 595.316 71.0101C594.62 73.0595 593.596 74.7995 592.242 76.2301C590.889 77.6221 589.246 78.7048 587.312 79.4781C585.418 80.2128 583.252 80.5801 580.816 80.5801ZM580.932 73.9681C583.252 73.9681 584.934 73.1755 585.978 71.5901C587.061 70.0048 587.602 67.5108 587.602 64.1081C587.602 60.7055 587.061 58.2308 585.978 56.6841C584.934 55.1375 583.233 54.3641 580.874 54.3641C578.554 54.3641 576.853 55.1375 575.77 56.6841C574.726 58.2308 574.204 60.7055 574.204 64.1081C574.204 67.5108 574.746 70.0048 575.828 71.5901C576.911 73.1755 578.612 73.9681 580.932 73.9681Z" fill="url(#paint13_linear_112_3958)" fill-opacity="0.7"/>
<path d="M532.577 80.0001V48.3321H546.614C551.099 48.3321 554.405 49.0088 556.532 50.3621C558.658 51.7155 559.722 53.7455 559.722 56.4521C559.722 58.2308 559.18 59.7195 558.098 60.9181C557.054 62.0781 555.507 62.8515 553.458 63.2381V63.4701C555.662 63.7795 557.402 64.5721 558.678 65.8481C559.992 67.0855 560.65 68.7288 560.65 70.7781C560.65 72.4408 560.224 73.9681 559.374 75.3601C558.523 76.7521 557.073 77.8735 555.024 78.7241C553.013 79.5748 550.229 80.0001 546.672 80.0001H532.577ZM541.336 73.9681H546.15C548.122 73.9681 549.552 73.6588 550.442 73.0401C551.331 72.4215 551.776 71.5128 551.776 70.3141C551.776 69.0381 551.312 68.0908 550.384 67.4721C549.494 66.8535 548.102 66.5441 546.208 66.5441H541.336V73.9681ZM541.336 60.6861H545.86C547.638 60.6861 548.934 60.4348 549.746 59.9321C550.596 59.3908 551.022 58.5788 551.022 57.4961C551.022 56.4521 550.635 55.6788 549.862 55.1761C549.127 54.6348 548.006 54.3641 546.498 54.3641H541.336V60.6861Z" fill="url(#paint14_linear_112_3958)" fill-opacity="0.7"/>
<path d="M513.206 80.6381C509.958 80.6381 507.097 80.0388 504.622 78.8401C502.186 77.6028 500.292 75.7661 498.938 73.3301C497.585 70.8941 496.908 67.8781 496.908 64.2821C496.908 60.7635 497.546 57.7668 498.822 55.2921C500.098 52.8175 501.877 50.9421 504.158 49.6661C506.44 48.3901 509.127 47.7521 512.22 47.7521C515.198 47.7521 517.711 48.3321 519.76 49.4921C521.848 50.6521 523.434 52.3148 524.516 54.4801C525.599 56.6068 526.14 59.1588 526.14 62.1361V66.4281H505.84C505.918 68.7868 506.691 70.6235 508.16 71.9381C509.63 73.2528 511.679 73.9101 514.308 73.9101C516.01 73.9101 517.653 73.6975 519.238 73.2721C520.862 72.8468 522.544 72.2475 524.284 71.4741V78.3181C522.66 79.0915 520.959 79.6715 519.18 80.0581C517.44 80.4448 515.449 80.6381 513.206 80.6381ZM506.014 60.5121H517.904C517.904 59.2361 517.692 58.1148 517.266 57.1481C516.88 56.1815 516.261 55.4081 515.41 54.8281C514.56 54.2481 513.477 53.9581 512.162 53.9581C510.422 53.9581 509.011 54.5188 507.928 55.6401C506.846 56.7228 506.208 58.3468 506.014 60.5121Z" fill="url(#paint15_linear_112_3958)" fill-opacity="0.7"/>
<path d="M462.296 93.9201V48.3321H469.314L470.532 52.4501H470.938C471.518 51.5995 472.214 50.8261 473.026 50.1301C473.838 49.3955 474.805 48.8155 475.926 48.3901C477.086 47.9648 478.42 47.7521 479.928 47.7521C483.485 47.7521 486.366 49.1441 488.57 51.9281C490.774 54.6735 491.876 58.7335 491.876 64.1081C491.876 67.7041 491.354 70.7395 490.31 73.2141C489.266 75.6501 487.835 77.4868 486.018 78.7241C484.201 79.9615 482.093 80.5801 479.696 80.5801C478.188 80.5801 476.873 80.3868 475.752 80.0001C474.669 79.6135 473.741 79.1108 472.968 78.4921C472.195 77.8735 471.518 77.2161 470.938 76.5201H470.474C470.629 77.2548 470.745 78.0281 470.822 78.8401C470.899 79.6135 470.938 80.3868 470.938 81.1601V93.9201H462.296ZM477.26 73.5621C478.575 73.5621 479.657 73.1948 480.508 72.4601C481.359 71.7255 481.997 70.6428 482.422 69.2121C482.847 67.7815 483.06 66.0415 483.06 63.9921C483.06 60.8988 482.577 58.5788 481.61 57.0321C480.682 55.4468 479.193 54.6541 477.144 54.6541C475.636 54.6541 474.437 54.9635 473.548 55.5821C472.659 56.2008 472.001 57.1481 471.576 58.4241C471.189 59.6615 470.977 61.2275 470.938 63.1221V64.0501C470.938 66.0995 471.131 67.8395 471.518 69.2701C471.905 70.6621 472.562 71.7255 473.49 72.4601C474.418 73.1948 475.675 73.5621 477.26 73.5621Z" fill="url(#paint16_linear_112_3958)" fill-opacity="0.7"/>
<path d="M442.519 80.6381C439.271 80.6381 436.41 80.0388 433.935 78.8401C431.499 77.6028 429.604 75.7661 428.251 73.3301C426.898 70.8941 426.221 67.8781 426.221 64.2821C426.221 60.7635 426.859 57.7668 428.135 55.2921C429.411 52.8175 431.19 50.9421 433.471 49.6661C435.752 48.3901 438.44 47.7521 441.533 47.7521C444.51 47.7521 447.024 48.3321 449.073 49.4921C451.161 50.6521 452.746 52.3148 453.829 54.4801C454.912 56.6068 455.453 59.1588 455.453 62.1361V66.4281H435.153C435.23 68.7868 436.004 70.6235 437.473 71.9381C438.942 73.2528 440.992 73.9101 443.621 73.9101C445.322 73.9101 446.966 73.6975 448.551 73.2721C450.175 72.8468 451.857 72.2475 453.597 71.4741V78.3181C451.973 79.0915 450.272 79.6715 448.493 80.0581C446.753 80.4448 444.762 80.6381 442.519 80.6381ZM435.327 60.5121H447.217C447.217 59.2361 447.004 58.1148 446.579 57.1481C446.192 56.1815 445.574 55.4081 444.723 54.8281C443.872 54.2481 442.79 53.9581 441.475 53.9581C439.735 53.9581 438.324 54.5188 437.241 55.6401C436.158 56.7228 435.52 58.3468 435.327 60.5121Z" fill="url(#paint17_linear_112_3958)" fill-opacity="0.7"/>
<path d="M384.825 80.0001V38.5881H418.581V80.0001H409.823V45.8961H393.583V80.0001H384.825Z" fill="url(#paint18_linear_112_3958)" fill-opacity="0.7"/>
</g>
</g>
<path d="M280 69H1120V102C1120 108.627 1114.63 114 1108 114H292C285.373 114 280 108.627 280 102V69Z" fill="url(#paint19_linear_112_3958)"/>
<path d="M1010.98 76.1201V68.0001H986.504V36.3321H995.262V61.2141H1006.11V36.3321H1014.87V61.2141H1019.33V76.1201H1010.98Z" fill="url(#paint20_linear_112_3958)"/>
<path d="M947.77 68.0001V36.3321H956.18V48.8601C956.18 49.9041 956.141 51.1028 956.064 52.4561C955.987 53.8095 955.89 55.0661 955.774 56.2261C955.697 57.3861 955.6 58.2175 955.484 58.7201H955.658L967.722 36.3321H977.582V68.0001H969.172V55.3561C969.172 54.1188 969.211 52.8815 969.288 51.6441C969.365 50.3681 969.443 49.2081 969.52 48.1641C969.636 47.1201 969.733 46.3081 969.81 45.7281H969.578L957.63 68.0001H947.77Z" fill="url(#paint21_linear_112_3958)"/>
<path d="M909.707 68.0001V36.3321H918.349V48.6861H929.833V36.3321H938.475V68.0001H929.833V55.2981H918.349V68.0001H909.707Z" fill="url(#paint22_linear_112_3958)"/>
<path d="M882.987 68.5801C880.821 68.5801 878.965 68.1935 877.419 67.4201C875.911 66.6468 874.751 65.5448 873.939 64.1141C873.165 62.6448 872.779 60.8855 872.779 58.8361C872.779 55.5108 873.958 52.9781 876.317 51.2381C878.675 49.4981 882.252 48.5508 887.047 48.3961L892.325 48.2221V47.1781C892.325 45.4381 891.841 44.1815 890.875 43.4081C889.947 42.6348 888.439 42.2481 886.351 42.2481C884.997 42.2481 883.605 42.4221 882.175 42.7701C880.744 43.0795 879.139 43.5821 877.361 44.2781L874.867 38.3621C876.916 37.4728 878.985 36.8155 881.073 36.3901C883.199 35.9648 885.365 35.7521 887.569 35.7521C892.17 35.7521 895.553 36.7381 897.719 38.7101C899.923 40.6435 901.025 43.6401 901.025 47.7001V68.0001H894.877L893.195 63.6501H892.963C892.112 64.7715 891.184 65.6995 890.179 66.4341C889.173 67.1688 888.071 67.7101 886.873 68.0581C885.713 68.4061 884.417 68.5801 882.987 68.5801ZM886.003 62.2001C887.781 62.2001 889.27 61.6588 890.469 60.5761C891.706 59.4935 892.325 57.9468 892.325 55.9361V53.3841L888.961 53.5001C886.37 53.5775 884.514 54.0221 883.393 54.8341C882.271 55.6461 881.711 56.7868 881.711 58.2561C881.711 59.5708 882.097 60.5568 882.871 61.2141C883.644 61.8715 884.688 62.2001 886.003 62.2001Z" fill="url(#paint23_linear_112_3958)"/>
<path d="M838.34 81.9201V36.3321H845.358L846.576 40.4501H846.982C847.562 39.5995 848.258 38.8261 849.07 38.1301C849.882 37.3955 850.849 36.8155 851.97 36.3901C853.13 35.9648 854.464 35.7521 855.972 35.7521C859.53 35.7521 862.41 37.1441 864.614 39.9281C866.818 42.6735 867.92 46.7335 867.92 52.1081C867.92 55.7041 867.398 58.7395 866.354 61.2141C865.31 63.6501 863.88 65.4868 862.062 66.7241C860.245 67.9615 858.138 68.5801 855.74 68.5801C854.232 68.5801 852.918 68.3868 851.796 68.0001C850.714 67.6135 849.786 67.1108 849.012 66.4921C848.239 65.8735 847.562 65.2161 846.982 64.5201H846.518C846.673 65.2548 846.789 66.0281 846.866 66.8401C846.944 67.6135 846.982 68.3868 846.982 69.1601V81.9201H838.34ZM853.304 61.5621C854.619 61.5621 855.702 61.1948 856.552 60.4601C857.403 59.7255 858.041 58.6428 858.466 57.2121C858.892 55.7815 859.104 54.0415 859.104 51.9921C859.104 48.8988 858.621 46.5788 857.654 45.0321C856.726 43.4468 855.238 42.6541 853.188 42.6541C851.68 42.6541 850.482 42.9635 849.592 43.5821C848.703 44.2008 848.046 45.1481 847.62 46.4241C847.234 47.6615 847.021 49.2275 846.982 51.1221V52.0501C846.982 54.0995 847.176 55.8395 847.562 57.2701C847.949 58.6621 848.606 59.7255 849.534 60.4601C850.462 61.1948 851.719 61.5621 853.304 61.5621Z" fill="url(#paint24_linear_112_3958)"/>
<path d="M814.741 68.0001V42.8281H804.997V36.3321H833.127V42.8281H823.383V68.0001H814.741Z" fill="url(#paint25_linear_112_3958)"/>
<path d="M792.213 68.5801C787.148 68.5801 783.242 67.1881 780.497 64.4041C777.79 61.6201 776.437 57.6375 776.437 52.4561C776.437 48.7055 777.114 45.5928 778.467 43.1181C779.859 40.6435 781.754 38.8068 784.151 37.6081C786.587 36.3708 789.41 35.7521 792.619 35.7521C794.514 35.7521 796.273 35.9261 797.897 36.2741C799.56 36.6221 801.048 37.1248 802.363 37.7821L799.811 44.2781C798.574 43.7368 797.433 43.3501 796.389 43.1181C795.345 42.8475 794.262 42.7121 793.141 42.7121C790.628 42.7121 788.694 43.5241 787.341 45.1481C786.026 46.7721 785.369 49.1501 785.369 52.2821C785.369 55.3755 786.046 57.6955 787.399 59.2421C788.752 60.7501 790.84 61.5041 793.663 61.5041C794.823 61.5041 796.06 61.3881 797.375 61.1561C798.69 60.8855 800.004 60.4795 801.319 59.9381V66.7821C800.12 67.3235 798.728 67.7488 797.143 68.0581C795.558 68.4061 793.914 68.5801 792.213 68.5801Z" fill="url(#paint26_linear_112_3958)"/>
<path d="M757.047 56.0521V48.8601H772.301V56.0521H757.047Z" fill="url(#paint27_linear_112_3958)"/>
<path d="M737.557 68.5801C734.155 68.5801 731.293 67.8648 728.973 66.4341C726.653 64.9648 724.894 62.7608 723.695 59.8221C722.497 56.8448 721.897 53.0941 721.897 48.5701C721.897 44.8968 722.226 41.6875 722.883 38.9421C723.541 36.1968 724.527 33.8768 725.841 31.9821C727.156 30.0488 728.819 28.5021 730.829 27.3421C732.879 26.1435 735.257 25.2928 737.964 24.7901C738.776 24.6355 739.819 24.4615 741.095 24.2681C742.371 24.0748 743.744 23.8815 745.214 23.6881C746.683 23.4948 748.094 23.3401 749.447 23.2241L750.259 30.8221C749.138 30.9381 747.92 31.0928 746.605 31.2861C745.291 31.4408 744.015 31.6148 742.777 31.8081C741.579 31.9628 740.535 32.1175 739.646 32.2721C737.558 32.6588 735.856 33.2581 734.542 34.0701C733.227 34.8821 732.202 36.0035 731.467 37.4341C730.771 38.8648 730.269 40.7401 729.96 43.0601H730.365C731.1 41.9001 731.951 40.9335 732.917 40.1601C733.884 39.3481 734.986 38.7488 736.223 38.3621C737.499 37.9368 738.892 37.7241 740.4 37.7241C743.029 37.7241 745.272 38.3235 747.128 39.5221C749.022 40.6821 750.453 42.3641 751.419 44.5681C752.425 46.7335 752.927 49.3241 752.927 52.3401C752.927 55.9361 752.27 58.9328 750.956 61.3301C749.641 63.7275 747.823 65.5448 745.503 66.7821C743.222 67.9808 740.573 68.5801 737.557 68.5801ZM737.615 61.7361C739.123 61.7361 740.361 61.4268 741.327 60.8081C742.294 60.1895 743.009 59.2421 743.473 57.9661C743.937 56.6901 744.169 55.0855 744.169 53.1521C744.169 50.2521 743.647 48.1061 742.603 46.7141C741.559 45.2835 739.916 44.5681 737.673 44.5681C735.353 44.5681 733.652 45.2835 732.569 46.7141C731.525 48.1061 731.003 50.2328 731.003 53.0941C731.003 55.0275 731.235 56.6515 731.699 57.9661C732.163 59.2421 732.879 60.1895 733.845 60.8081C734.851 61.4268 736.107 61.7361 737.615 61.7361Z" fill="url(#paint28_linear_112_3958)"/>
<path d="M704.092 68.6381C700.844 68.6381 697.983 68.0388 695.508 66.8401C693.072 65.6028 691.178 63.7661 689.824 61.3301C688.471 58.8941 687.794 55.8781 687.794 52.2821C687.794 48.7635 688.432 45.7668 689.708 43.2921C690.984 40.8175 692.763 38.9421 695.044 37.6661C697.326 36.3901 700.013 35.7521 703.106 35.7521C706.084 35.7521 708.597 36.3321 710.646 37.4921C712.734 38.6521 714.32 40.3148 715.402 42.4801C716.485 44.6068 717.026 47.1588 717.026 50.1361V54.4281H696.726C696.804 56.7868 697.577 58.6235 699.046 59.9381C700.516 61.2528 702.565 61.9101 705.194 61.9101C706.896 61.9101 708.539 61.6975 710.124 61.2721C711.748 60.8468 713.43 60.2475 715.17 59.4741V66.3181C713.546 67.0915 711.845 67.6715 710.066 68.0581C708.326 68.4448 706.335 68.6381 704.092 68.6381ZM696.9 48.5121H708.79C708.79 47.2361 708.578 46.1148 708.152 45.1481C707.766 44.1815 707.147 43.4081 706.296 42.8281C705.446 42.2481 704.363 41.9581 703.048 41.9581C701.308 41.9581 699.897 42.5188 698.814 43.6401C697.732 44.7228 697.094 46.3468 696.9 48.5121Z" fill="url(#paint29_linear_112_3958)"/>
<path d="M655.042 68.0001V36.3321H669.078C673.563 36.3321 676.869 37.0088 678.996 38.3621C681.122 39.7155 682.186 41.7455 682.186 44.4521C682.186 46.2308 681.644 47.7195 680.562 48.9181C679.518 50.0781 677.971 50.8515 675.922 51.2381V51.4701C678.126 51.7795 679.866 52.5721 681.142 53.8481C682.456 55.0855 683.114 56.7288 683.114 58.7781C683.114 60.4408 682.688 61.9681 681.838 63.3601C680.987 64.7521 679.537 65.8735 677.488 66.7241C675.477 67.5748 672.693 68.0001 669.136 68.0001H655.042ZM663.8 61.9681H668.614C670.586 61.9681 672.016 61.6588 672.906 61.0401C673.795 60.4215 674.24 59.5128 674.24 58.3141C674.24 57.0381 673.776 56.0908 672.848 55.4721C671.958 54.8535 670.566 54.5441 668.672 54.5441H663.8V61.9681ZM663.8 48.6861H668.324C670.102 48.6861 671.398 48.4348 672.21 47.9321C673.06 47.3908 673.486 46.5788 673.486 45.4961C673.486 44.4521 673.099 43.6788 672.326 43.1761C671.591 42.6348 670.47 42.3641 668.962 42.3641H663.8V48.6861Z" fill="url(#paint30_linear_112_3958)"/>
<path d="M599.102 76.1201V61.3881H602.64C603.22 60.6535 603.722 59.8608 604.148 59.0101C604.612 58.1595 604.979 57.1928 605.25 56.1101C605.52 55.0275 605.714 53.8095 605.83 52.4561C605.907 51.4121 605.984 50.3101 606.062 49.1501C606.139 47.9515 606.197 46.6948 606.236 45.3801C606.313 44.0655 606.39 42.6541 606.468 41.1461C606.545 39.6381 606.603 38.0335 606.642 36.3321H630.712V61.3881H635.178V76.1201H627.116V68.0001H607.164V76.1201H599.102ZM611.166 61.3881H622.07V42.9441H614.124C614.085 44.1815 614.027 45.3801 613.95 46.5401C613.911 47.6615 613.853 48.7055 613.776 49.6721C613.737 50.6388 613.679 51.5281 613.602 52.3401C613.447 54.4668 613.157 56.2648 612.732 57.7341C612.306 59.1648 611.784 60.3828 611.166 61.3881Z" fill="url(#paint31_linear_112_3958)"/>
<path d="M581.277 68.5801C578.879 68.5801 576.714 68.2128 574.781 67.4781C572.886 66.7048 571.262 65.6221 569.909 64.2301C568.594 62.7995 567.589 61.0788 566.893 59.0681C566.197 57.0188 565.849 54.6988 565.849 52.1081C565.849 48.7441 566.467 45.8441 567.705 43.4081C568.981 40.9335 570.779 39.0388 573.099 37.7241C575.457 36.4095 578.241 35.7521 581.451 35.7521C584.66 35.7521 587.405 36.4095 589.687 37.7241C592.007 39.0388 593.785 40.9141 595.023 43.3501C596.26 45.7861 596.879 48.7055 596.879 52.1081C596.879 54.6601 596.511 56.9608 595.777 59.0101C595.081 61.0595 594.056 62.7995 592.703 64.2301C591.349 65.6221 589.706 66.7048 587.773 67.4781C585.878 68.2128 583.713 68.5801 581.277 68.5801ZM581.393 61.9681C583.713 61.9681 585.395 61.1755 586.439 59.5901C587.521 58.0048 588.063 55.5108 588.063 52.1081C588.063 48.7055 587.521 46.2308 586.439 44.6841C585.395 43.1375 583.693 42.3641 581.335 42.3641C579.015 42.3641 577.313 43.1375 576.231 44.6841C575.187 46.2308 574.665 48.7055 574.665 52.1081C574.665 55.5108 575.206 58.0048 576.289 59.5901C577.371 61.1755 579.073 61.9681 581.393 61.9681Z" fill="url(#paint32_linear_112_3958)"/>
<path d="M533.038 68.0001V36.3321H547.074C551.559 36.3321 554.865 37.0088 556.992 38.3621C559.118 39.7155 560.182 41.7455 560.182 44.4521C560.182 46.2308 559.64 47.7195 558.558 48.9181C557.514 50.0781 555.967 50.8515 553.918 51.2381V51.4701C556.122 51.7795 557.862 52.5721 559.138 53.8481C560.452 55.0855 561.11 56.7288 561.11 58.7781C561.11 60.4408 560.684 61.9681 559.834 63.3601C558.983 64.7521 557.533 65.8735 555.484 66.7241C553.473 67.5748 550.689 68.0001 547.132 68.0001H533.038ZM541.796 61.9681H546.61C548.582 61.9681 550.012 61.6588 550.902 61.0401C551.791 60.4215 552.236 59.5128 552.236 58.3141C552.236 57.0381 551.772 56.0908 550.844 55.4721C549.954 54.8535 548.562 54.5441 546.668 54.5441H541.796V61.9681ZM541.796 48.6861H546.32C548.098 48.6861 549.394 48.4348 550.206 47.9321C551.056 47.3908 551.482 46.5788 551.482 45.4961C551.482 44.4521 551.095 43.6788 550.322 43.1761C549.587 42.6348 548.466 42.3641 546.958 42.3641H541.796V48.6861Z" fill="url(#paint33_linear_112_3958)"/>
<path d="M513.667 68.6381C510.419 68.6381 507.557 68.0388 505.083 66.8401C502.647 65.6028 500.752 63.7661 499.399 61.3301C498.045 58.8941 497.369 55.8781 497.369 52.2821C497.369 48.7635 498.007 45.7668 499.283 43.2921C500.559 40.8175 502.337 38.9421 504.619 37.6661C506.9 36.3901 509.587 35.7521 512.681 35.7521C515.658 35.7521 518.171 36.3321 520.221 37.4921C522.309 38.6521 523.894 40.3148 524.977 42.4801C526.059 44.6068 526.601 47.1588 526.601 50.1361V54.4281H506.301C506.378 56.7868 507.151 58.6235 508.621 59.9381C510.09 61.2528 512.139 61.9101 514.769 61.9101C516.47 61.9101 518.113 61.6975 519.699 61.2721C521.323 60.8468 523.005 60.2475 524.745 59.4741V66.3181C523.121 67.0915 521.419 67.6715 519.641 68.0581C517.901 68.4448 515.909 68.6381 513.667 68.6381ZM506.475 48.5121H518.365C518.365 47.2361 518.152 46.1148 517.727 45.1481C517.34 44.1815 516.721 43.4081 515.871 42.8281C515.02 42.2481 513.937 41.9581 512.623 41.9581C510.883 41.9581 509.471 42.5188 508.389 43.6401C507.306 44.7228 506.668 46.3468 506.475 48.5121Z" fill="url(#paint34_linear_112_3958)"/>
<path d="M462.756 81.9201V36.3321H469.774L470.992 40.4501H471.398C471.978 39.5995 472.674 38.8261 473.486 38.1301C474.298 37.3955 475.265 36.8155 476.386 36.3901C477.546 35.9648 478.88 35.7521 480.388 35.7521C483.946 35.7521 486.826 37.1441 489.03 39.9281C491.234 42.6735 492.336 46.7335 492.336 52.1081C492.336 55.7041 491.814 58.7395 490.77 61.2141C489.726 63.6501 488.296 65.4868 486.478 66.7241C484.661 67.9615 482.554 68.5801 480.156 68.5801C478.648 68.5801 477.334 68.3868 476.212 68.0001C475.13 67.6135 474.202 67.1108 473.428 66.4921C472.655 65.8735 471.978 65.2161 471.398 64.5201H470.934C471.089 65.2548 471.205 66.0281 471.282 66.8401C471.36 67.6135 471.398 68.3868 471.398 69.1601V81.9201H462.756ZM477.72 61.5621C479.035 61.5621 480.118 61.1948 480.968 60.4601C481.819 59.7255 482.457 58.6428 482.882 57.2121C483.308 55.7815 483.52 54.0415 483.52 51.9921C483.52 48.8988 483.037 46.5788 482.07 45.0321C481.142 43.4468 479.654 42.6541 477.604 42.6541C476.096 42.6541 474.898 42.9635 474.008 43.5821C473.119 44.2008 472.462 45.1481 472.036 46.4241C471.65 47.6615 471.437 49.2275 471.398 51.1221V52.0501C471.398 54.0995 471.592 55.8395 471.978 57.2701C472.365 58.6621 473.022 59.7255 473.95 60.4601C474.878 61.1948 476.135 61.5621 477.72 61.5621Z" fill="url(#paint35_linear_112_3958)"/>
<path d="M442.979 68.6381C439.731 68.6381 436.87 68.0388 434.395 66.8401C431.959 65.6028 430.064 63.7661 428.711 61.3301C427.358 58.8941 426.681 55.8781 426.681 52.2821C426.681 48.7635 427.319 45.7668 428.595 43.2921C429.871 40.8175 431.65 38.9421 433.931 37.6661C436.212 36.3901 438.9 35.7521 441.993 35.7521C444.97 35.7521 447.484 36.3321 449.533 37.4921C451.621 38.6521 453.206 40.3148 454.289 42.4801C455.372 44.6068 455.913 47.1588 455.913 50.1361V54.4281H435.613C435.69 56.7868 436.464 58.6235 437.933 59.9381C439.402 61.2528 441.452 61.9101 444.081 61.9101C445.782 61.9101 447.426 61.6975 449.011 61.2721C450.635 60.8468 452.317 60.2475 454.057 59.4741V66.3181C452.433 67.0915 450.732 67.6715 448.953 68.0581C447.213 68.4448 445.222 68.6381 442.979 68.6381ZM435.787 48.5121H447.677C447.677 47.2361 447.464 46.1148 447.039 45.1481C446.652 44.1815 446.034 43.4081 445.183 42.8281C444.332 42.2481 443.25 41.9581 441.935 41.9581C440.195 41.9581 438.784 42.5188 437.701 43.6401C436.618 44.7228 435.98 46.3468 435.787 48.5121Z" fill="url(#paint36_linear_112_3958)"/>
<path d="M385.285 68.0001V26.5881H419.041V68.0001H410.283V33.8961H394.043V68.0001H385.285Z" fill="url(#paint37_linear_112_3958)"/>
<defs>
<filter id="filter0_f_112_3958" x="364.825" y="15.2241" width="674.047" height="98.6958" filterUnits="userSpaceOnUse" color-interpolation-filters="sRGB">
<feFlood flood-opacity="0" result="BackgroundImageFix"/>
<feBlend mode="normal" in="SourceGraphic" in2="BackgroundImageFix" result="shape"/>
<feGaussianBlur stdDeviation="10" result="effect1_foregroundBlur_112_3958"/>
</filter>
<linearGradient id="paint0_linear_112_3958" x1="280" y1="61.0036" x2="1120" y2="61.0028" gradientUnits="userSpaceOnUse">
<stop stop-color="white" stop-opacity="0.3"/>
<stop offset="0.495" stop-color="#CBB0F8"/>
<stop offset="1" stop-color="white" stop-opacity="0.3"/>
</linearGradient>
<linearGradient id="paint1_linear_112_3958" x1="1031.78" y1="48.7489" x2="-11329.3" y2="48.7706" gradientUnits="userSpaceOnUse">
<stop stop-color="#F4439F"/>
<stop offset="1" stop-color="#7C3AED"/>
</linearGradient>
<linearGradient id="paint2_linear_112_3958" x1="1921.03" y1="52.2168" x2="-11690.6" y2="52.2378" gradientUnits="userSpaceOnUse">
<stop stop-color="#F4439F"/>
<stop offset="1" stop-color="#7C3AED"/>
</linearGradient>
<linearGradient id="paint3_linear_112_3958" x1="2815.67" y1="52.2168" x2="-11289.9" y2="52.2393" gradientUnits="userSpaceOnUse">
<stop stop-color="#F4439F"/>
<stop offset="1" stop-color="#7C3AED"/>
</linearGradient>
<linearGradient id="paint4_linear_112_3958" x1="3689.55" y1="52.6534" x2="-10676.7" y2="52.6776" gradientUnits="userSpaceOnUse">
<stop stop-color="#F4439F"/>
<stop offset="1" stop-color="#7C3AED"/>
</linearGradient>
<linearGradient id="paint5_linear_112_3958" x1="4278.7" y1="47.6173" x2="-9439.69" y2="47.6483" gradientUnits="userSpaceOnUse">
<stop stop-color="#F4439F"/>
<stop offset="1" stop-color="#7C3AED"/>
</linearGradient>
<linearGradient id="paint6_linear_112_3958" x1="5230.97" y1="52.2168" x2="-9194.55" y2="52.2403" gradientUnits="userSpaceOnUse">
<stop stop-color="#F4439F"/>
<stop offset="1" stop-color="#7C3AED"/>
</linearGradient>
<linearGradient id="paint7_linear_112_3958" x1="6341.41" y1="52.6534" x2="-9310.44" y2="52.6821" gradientUnits="userSpaceOnUse">
<stop stop-color="#F4439F"/>
<stop offset="1" stop-color="#7C3AED"/>
</linearGradient>
<linearGradient id="paint8_linear_112_3958" x1="11314.7" y1="7.80223" x2="-15287.5" y2="7.8204" gradientUnits="userSpaceOnUse">
<stop stop-color="#F4439F"/>
<stop offset="1" stop-color="#7C3AED"/>
</linearGradient>
<linearGradient id="paint9_linear_112_3958" x1="6476.06" y1="64.0519" x2="-6601.28" y2="64.0796" gradientUnits="userSpaceOnUse">
<stop stop-color="#F4439F"/>
<stop offset="1" stop-color="#7C3AED"/>
</linearGradient>
<linearGradient id="paint10_linear_112_3958" x1="7590.42" y1="52.6227" x2="-6291.28" y2="52.6454" gradientUnits="userSpaceOnUse">
<stop stop-color="#F4439F"/>
<stop offset="1" stop-color="#7C3AED"/>
</linearGradient>
<linearGradient id="paint11_linear_112_3958" x1="8627.94" y1="52.2168" x2="-5827.39" y2="52.2404" gradientUnits="userSpaceOnUse">
<stop stop-color="#F4439F"/>
<stop offset="1" stop-color="#7C3AED"/>
</linearGradient>
<linearGradient id="paint12_linear_112_3958" x1="7782.24" y1="48.7489" x2="-3465.95" y2="48.7669" gradientUnits="userSpaceOnUse">
<stop stop-color="#F4439F"/>
<stop offset="1" stop-color="#7C3AED"/>
</linearGradient>
<linearGradient id="paint13_linear_112_3958" x1="9664.66" y1="52.6535" x2="-3412.68" y2="52.6735" gradientUnits="userSpaceOnUse">
<stop stop-color="#F4439F"/>
<stop offset="1" stop-color="#7C3AED"/>
</linearGradient>
<linearGradient id="paint14_linear_112_3958" x1="11383.6" y1="52.2168" x2="-3071.75" y2="52.2404" gradientUnits="userSpaceOnUse">
<stop stop-color="#F4439F"/>
<stop offset="1" stop-color="#7C3AED"/>
</linearGradient>
<linearGradient id="paint15_linear_112_3958" x1="11720.8" y1="52.6227" x2="-2160.92" y2="52.6453" gradientUnits="userSpaceOnUse">
<stop stop-color="#F4439F"/>
<stop offset="1" stop-color="#7C3AED"/>
</linearGradient>
<linearGradient id="paint16_linear_112_3958" x1="12329.3" y1="47.6173" x2="-1389.05" y2="47.6484" gradientUnits="userSpaceOnUse">
<stop stop-color="#F4439F"/>
<stop offset="1" stop-color="#7C3AED"/>
</linearGradient>
<linearGradient id="paint17_linear_112_3958" x1="13254" y1="52.6227" x2="-627.695" y2="52.6453" gradientUnits="userSpaceOnUse">
<stop stop-color="#F4439F"/>
<stop offset="1" stop-color="#7C3AED"/>
</linearGradient>
<linearGradient id="paint18_linear_112_3958" x1="1019.54" y1="57.4999" x2="379.54" y2="57.5" gradientUnits="userSpaceOnUse">
<stop stop-color="#F4439F"/>
<stop offset="1" stop-color="#7C3AED"/>
</linearGradient>
<linearGradient id="paint19_linear_112_3958" x1="700" y1="69" x2="700" y2="114" gradientUnits="userSpaceOnUse">
<stop offset="0.0001" stop-color="white" stop-opacity="0.1"/>
<stop offset="1" stop-color="white" stop-opacity="0"/>
</linearGradient>
<linearGradient id="paint20_linear_112_3958" x1="1032.24" y1="36.7489" x2="-11328.9" y2="36.7706" gradientUnits="userSpaceOnUse">
<stop stop-color="#F4439F"/>
<stop offset="1" stop-color="#7C3AED"/>
</linearGradient>
<linearGradient id="paint21_linear_112_3958" x1="1921.49" y1="40.2168" x2="-11690.1" y2="40.2378" gradientUnits="userSpaceOnUse">
<stop stop-color="#F4439F"/>
<stop offset="1" stop-color="#7C3AED"/>
</linearGradient>
<linearGradient id="paint22_linear_112_3958" x1="2816.13" y1="40.2168" x2="-11289.5" y2="40.2393" gradientUnits="userSpaceOnUse">
<stop stop-color="#F4439F"/>
<stop offset="1" stop-color="#7C3AED"/>
</linearGradient>
<linearGradient id="paint23_linear_112_3958" x1="3690.01" y1="40.6534" x2="-10676.3" y2="40.6776" gradientUnits="userSpaceOnUse">
<stop stop-color="#F4439F"/>
<stop offset="1" stop-color="#7C3AED"/>
</linearGradient>
<linearGradient id="paint24_linear_112_3958" x1="4279.16" y1="35.6173" x2="-9439.23" y2="35.6483" gradientUnits="userSpaceOnUse">
<stop stop-color="#F4439F"/>
<stop offset="1" stop-color="#7C3AED"/>
</linearGradient>
<linearGradient id="paint25_linear_112_3958" x1="5231.43" y1="40.2168" x2="-9194.09" y2="40.2403" gradientUnits="userSpaceOnUse">
<stop stop-color="#F4439F"/>
<stop offset="1" stop-color="#7C3AED"/>
</linearGradient>
<linearGradient id="paint26_linear_112_3958" x1="6341.87" y1="40.6534" x2="-9309.98" y2="40.6821" gradientUnits="userSpaceOnUse">
<stop stop-color="#F4439F"/>
<stop offset="1" stop-color="#7C3AED"/>
</linearGradient>
<linearGradient id="paint27_linear_112_3958" x1="11315.2" y1="-4.19777" x2="-15287" y2="-4.1796" gradientUnits="userSpaceOnUse">
<stop stop-color="#F4439F"/>
<stop offset="1" stop-color="#7C3AED"/>
</linearGradient>
<linearGradient id="paint28_linear_112_3958" x1="6476.52" y1="52.0519" x2="-6600.82" y2="52.0796" gradientUnits="userSpaceOnUse">
<stop stop-color="#F4439F"/>
<stop offset="1" stop-color="#7C3AED"/>
</linearGradient>
<linearGradient id="paint29_linear_112_3958" x1="7590.88" y1="40.6227" x2="-6290.82" y2="40.6454" gradientUnits="userSpaceOnUse">
<stop stop-color="#F4439F"/>
<stop offset="1" stop-color="#7C3AED"/>
</linearGradient>
<linearGradient id="paint30_linear_112_3958" x1="8628.4" y1="40.2168" x2="-5826.93" y2="40.2404" gradientUnits="userSpaceOnUse">
<stop stop-color="#F4439F"/>
<stop offset="1" stop-color="#7C3AED"/>
</linearGradient>
<linearGradient id="paint31_linear_112_3958" x1="7782.7" y1="36.7489" x2="-3465.49" y2="36.7669" gradientUnits="userSpaceOnUse">
<stop stop-color="#F4439F"/>
<stop offset="1" stop-color="#7C3AED"/>
</linearGradient>
<linearGradient id="paint32_linear_112_3958" x1="9665.12" y1="40.6535" x2="-3412.22" y2="40.6735" gradientUnits="userSpaceOnUse">
<stop stop-color="#F4439F"/>
<stop offset="1" stop-color="#7C3AED"/>
</linearGradient>
<linearGradient id="paint33_linear_112_3958" x1="11384" y1="40.2168" x2="-3071.29" y2="40.2404" gradientUnits="userSpaceOnUse">
<stop stop-color="#F4439F"/>
<stop offset="1" stop-color="#7C3AED"/>
</linearGradient>
<linearGradient id="paint34_linear_112_3958" x1="11721.2" y1="40.6227" x2="-2160.46" y2="40.6453" gradientUnits="userSpaceOnUse">
<stop stop-color="#F4439F"/>
<stop offset="1" stop-color="#7C3AED"/>
</linearGradient>
<linearGradient id="paint35_linear_112_3958" x1="12329.8" y1="35.6173" x2="-1388.59" y2="35.6484" gradientUnits="userSpaceOnUse">
<stop stop-color="#F4439F"/>
<stop offset="1" stop-color="#7C3AED"/>
</linearGradient>
<linearGradient id="paint36_linear_112_3958" x1="13254.5" y1="40.6227" x2="-627.235" y2="40.6453" gradientUnits="userSpaceOnUse">
<stop stop-color="#F4439F"/>
<stop offset="1" stop-color="#7C3AED"/>
</linearGradient>
<linearGradient id="paint37_linear_112_3958" x1="1020" y1="45.4999" x2="380" y2="45.5" gradientUnits="userSpaceOnUse">
<stop stop-color="#F4439F"/>
<stop offset="1" stop-color="#7C3AED"/>
</linearGradient>
</defs>
</svg>
