<svg width="1400" height="120" viewBox="0 0 1400 120" fill="none" xmlns="http://www.w3.org/2000/svg">
<path d="M472 65H928V81H472V65Z" fill="url(#paint0_linear_112_3798)"/>
<mask id="mask0_112_3798" style="mask-type:alpha" maskUnits="userSpaceOnUse" x="472" y="81" width="456" height="38">
<path d="M472 81H928V119H472V81Z" fill="#C4C4C4"/>
</mask>
<g mask="url(#mask0_112_3798)">
<g filter="url(#filter0_f_112_3798)">
<path d="M768.24 52.1834H786.416V57.9434H768.24V52.1834ZM768.24 60.8234H786.416V66.6474H768.24V60.8234ZM765.424 43.2234H787.696V49.3034H765.424V43.2234ZM771.44 69.7194H786.416V89.1754H771.44V83.0314H779.824V75.7994H771.44V69.7194ZM768.048 69.7194H774.576V91.9274H768.048V69.7194ZM771.056 35.1594L777.008 32.3434C777.904 33.666 778.779 35.138 779.632 36.7594C780.528 38.338 781.232 39.7247 781.744 40.9194L775.6 44.2474C775.173 43.0527 774.512 41.602 773.616 39.8954C772.72 38.146 771.867 36.5674 771.056 35.1594ZM788.016 80.4074H824.944V85.9754H788.016V80.4074ZM790.576 53.2714H822.384V58.7114H790.576V53.2714ZM789.872 71.9594H823.152V77.5914H789.872V71.9594ZM787.888 61.4634H824.944V67.3514H787.888V61.4634ZM802.416 49.5594H809.712V63.8954H802.416V49.5594ZM802.416 74.0074H809.712V92.7594H802.416V74.0074ZM811.376 66.9674L818.224 68.6314C817.456 69.7834 816.688 70.8714 815.92 71.8954C815.152 72.8767 814.469 73.73 813.872 74.4554L808.496 72.8554C809.008 72.002 809.52 71.0207 810.032 69.9114C810.587 68.802 811.035 67.8207 811.376 66.9674ZM794.416 68.4394L800.368 66.9674C800.837 67.6927 801.264 68.5247 801.648 69.4634C802.075 70.3594 802.373 71.17 802.544 71.8954L796.336 73.6874C796.208 73.0047 795.952 72.1727 795.568 71.1914C795.227 70.21 794.843 69.2927 794.416 68.4394ZM813.552 40.2154V45.2714H817.072V40.2154H813.552ZM804.592 40.2154V45.2714H808.048V40.2154H804.592ZM795.76 40.2154V45.2714H799.216V40.2154H795.76ZM789.616 34.7754H823.536V50.7754H789.616V34.7754Z" fill="url(#paint1_linear_112_3798)" fill-opacity="0.7"/>
<path d="M702.064 48.1514H730.352V53.7194H702.064V48.1514ZM707.376 75.7354H725.808V80.6634H707.376V75.7354ZM707.504 84.0554H725.36V89.7514H707.504V84.0554ZM713.712 38.8714H720.112V65.6234H713.712V38.8714ZM714.16 70.4234H719.344V86.9994H714.16V70.4234ZM726.704 32.9194L730.544 38.1674C728.069 38.6794 725.296 39.1274 722.224 39.5114C719.195 39.8954 716.101 40.194 712.944 40.4074C709.787 40.6207 706.757 40.77 703.856 40.8554C703.771 40.13 703.557 39.2767 703.216 38.2954C702.875 37.314 702.533 36.482 702.192 35.7994C704.325 35.6714 706.501 35.522 708.72 35.3514C710.981 35.138 713.179 34.9247 715.312 34.7114C717.488 34.498 719.536 34.242 721.456 33.9434C723.419 33.602 725.168 33.2607 726.704 32.9194ZM704.496 42.1994L709.36 40.9194C709.787 41.9007 710.235 42.9887 710.704 44.1834C711.173 45.3354 711.515 46.3167 711.728 47.1274L706.544 48.6634C706.331 47.8527 706.032 46.8287 705.648 45.5914C705.264 44.354 704.88 43.2234 704.496 42.1994ZM724.016 40.0874L729.52 41.6874C728.837 43.2234 728.155 44.7594 727.472 46.2954C726.832 47.7887 726.213 49.09 725.616 50.1994L720.944 48.7274C721.499 47.5327 722.053 46.1034 722.608 44.4394C723.205 42.7754 723.675 41.3247 724.016 40.0874ZM712.496 50.8394L716.784 53.3354C715.76 55.17 714.501 57.09 713.008 59.0954C711.557 61.1007 710 62.978 708.336 64.7274C706.672 66.4767 704.987 67.906 703.28 69.0154C703.024 68.034 702.597 66.882 702 65.5594C701.445 64.2367 700.912 63.1487 700.4 62.2954C701.893 61.442 703.408 60.3754 704.944 59.0954C706.48 57.7727 707.909 56.4074 709.232 54.9994C710.555 53.5487 711.643 52.162 712.496 50.8394ZM703.984 66.9674H729.968V91.9274H724.08V72.6634H709.68V92.6954H703.984V66.9674ZM731.248 35.5434H741.36V42.0074H731.248V35.5434ZM739.056 35.5434H745.328V84.8234C745.328 86.402 745.157 87.7034 744.816 88.7274C744.517 89.794 743.877 90.626 742.896 91.2234C741.915 91.778 740.699 92.1194 739.248 92.2474C737.84 92.418 736.133 92.5034 734.128 92.5034C734.043 91.5647 733.808 90.4127 733.424 89.0474C733.04 87.7247 732.635 86.6154 732.208 85.7194C733.445 85.762 734.619 85.8047 735.728 85.8474C736.837 85.8474 737.605 85.8474 738.032 85.8474C738.715 85.8047 739.056 85.4207 739.056 84.6954V35.5434ZM746.608 35.5434H757.424V42.0074H746.608V35.5434ZM754.032 35.5434H760.304V84.7594C760.304 86.3807 760.133 87.7034 759.792 88.7274C759.451 89.7514 758.768 90.5407 757.744 91.0954C756.805 91.6927 755.589 92.0554 754.096 92.1834C752.645 92.3114 750.853 92.3754 748.72 92.3754C748.635 91.4794 748.4 90.3487 748.016 88.9834C747.632 87.6607 747.227 86.5727 746.8 85.7194C748.123 85.762 749.36 85.8047 750.512 85.8474C751.707 85.8474 752.517 85.8474 752.944 85.8474C753.371 85.8047 753.648 85.698 753.776 85.5274C753.947 85.3567 754.032 85.058 754.032 84.6314V35.5434ZM730.224 48.5994L735.152 46.8074C735.707 48.13 736.24 49.5807 736.752 51.1594C737.307 52.738 737.819 54.2527 738.288 55.7034C738.757 57.154 739.099 58.4127 739.312 59.4794L734.064 61.6554C733.893 60.546 733.595 59.2447 733.168 57.7514C732.741 56.2154 732.272 54.658 731.76 53.0794C731.291 51.458 730.779 49.9647 730.224 48.5994ZM745.648 48.5354L750.704 47.1914C751.173 48.514 751.6 49.9434 751.984 51.4794C752.411 52.9727 752.795 54.4234 753.136 55.8314C753.52 57.2394 753.797 58.4767 753.968 59.5434L748.592 61.2714C748.464 60.2047 748.229 58.946 747.888 57.4954C747.589 56.002 747.248 54.4874 746.864 52.9514C746.48 51.3727 746.075 49.9007 745.648 48.5354ZM744.496 73.3674C745.435 72.3007 746.587 70.9567 747.952 69.3354C749.317 67.714 750.725 65.986 752.176 64.1514L755.76 69.2714C754.608 70.8927 753.371 72.5354 752.048 74.1994C750.725 75.8634 749.381 77.4634 748.016 78.9994L744.496 73.3674ZM729.392 74.3914C730.373 73.282 731.547 71.9167 732.912 70.2954C734.32 68.6314 735.771 66.8607 737.264 64.9834L740.848 70.1674C739.611 71.8314 738.309 73.5167 736.944 75.2234C735.579 76.8874 734.192 78.5087 732.784 80.0874L729.392 74.3914ZM716.656 54.6154L720.816 50.9674C722.181 52.162 723.547 53.4847 724.912 54.9354C726.277 56.3434 727.557 57.7514 728.752 59.1594C729.947 60.5247 730.885 61.8047 731.568 62.9994L727.024 67.1594C726.384 65.9647 725.509 64.642 724.4 63.1914C723.291 61.698 722.053 60.2047 720.688 58.7114C719.323 57.1754 717.979 55.81 716.656 54.6154Z" fill="url(#paint2_linear_112_3798)" fill-opacity="0.7"/>
<path d="M638.576 65.9434H696.24V71.8954H638.576V65.9434ZM663.408 72.5354H670.832V92.6954H663.408V72.5354ZM657.584 61.9114L665.072 63.1914C662.981 67.5007 660.037 71.362 656.24 74.7754C652.485 78.146 647.493 81.026 641.264 83.4154C641.008 82.818 640.624 82.1567 640.112 81.4314C639.643 80.706 639.131 80.002 638.576 79.3194C638.021 78.6367 637.488 78.1034 636.976 77.7194C640.816 76.482 644.08 75.0527 646.768 73.4314C649.456 71.7674 651.696 69.954 653.488 67.9914C655.28 66.0287 656.645 64.002 657.584 61.9114ZM680.048 67.7354C681.2 69.186 682.693 70.5514 684.528 71.8314C686.405 73.1114 688.496 74.242 690.8 75.2234C693.104 76.162 695.493 76.9087 697.968 77.4634C697.2 78.1034 696.368 78.9994 695.472 80.1514C694.619 81.2607 693.936 82.2634 693.424 83.1594C690.821 82.3487 688.325 81.282 685.936 79.9594C683.589 78.594 681.435 77.0367 679.472 75.2874C677.509 73.538 675.845 71.6607 674.48 69.6554L680.048 67.7354ZM648.688 75.7994H683.44V81.5594H656.048V91.6074H648.688V75.7994ZM679.408 75.7994H686.768V85.2714C686.768 86.7647 686.597 87.9167 686.256 88.7274C685.915 89.5807 685.253 90.242 684.272 90.7114C683.291 91.138 682.117 91.394 680.752 91.4794C679.387 91.5647 677.829 91.6074 676.08 91.6074C675.909 90.6687 675.632 89.6874 675.248 88.6634C674.907 87.6394 674.544 86.722 674.16 85.9114C675.056 85.954 675.931 85.9754 676.784 85.9754C677.637 85.9754 678.213 85.9754 678.512 85.9754C678.853 85.9754 679.088 85.9327 679.216 85.8474C679.344 85.7194 679.408 85.506 679.408 85.2074V75.7994ZM652.528 56.3434V59.1594H682.032V56.3434H652.528ZM652.528 49.3674V52.1834H682.032V49.3674H652.528ZM645.168 45.0154H689.712V63.5754H645.168V45.0154ZM653.168 32.5994H660.592V44.1194H653.168V32.5994ZM674.032 32.5994H681.584V44.1194H674.032V32.5994ZM639.024 36.1834H666.672V42.1354H639.024V36.1834ZM668.592 36.1834H696.048V42.1354H668.592V36.1834Z" fill="url(#paint3_linear_112_3798)" fill-opacity="0.7"/>
<path d="M586.416 51.0954H615.024V58.2634H586.416V51.0954ZM575.472 66.9674H631.472V74.2634H575.472V66.9674ZM599.28 63.5754H607.472V83.9914C607.472 85.9967 607.173 87.5754 606.576 88.7274C606.021 89.8794 604.933 90.754 603.312 91.3514C601.819 91.906 600.027 92.2474 597.936 92.3754C595.888 92.546 593.541 92.6314 590.896 92.6314C590.725 91.8634 590.448 90.9887 590.064 90.0074C589.723 89.0687 589.317 88.13 588.848 87.1914C588.421 86.2527 587.995 85.4634 587.568 84.8234C588.891 84.866 590.235 84.9087 591.6 84.9514C593.008 84.9514 594.245 84.9514 595.312 84.9514C596.421 84.9514 597.189 84.9514 597.616 84.9514C598.256 84.9514 598.683 84.866 598.896 84.6954C599.152 84.5247 599.28 84.226 599.28 83.7994V63.5754ZM612.656 51.0954H614.832L616.624 50.7754L621.744 54.7434C620.165 56.3647 618.395 58.0074 616.432 59.6714C614.469 61.2927 612.379 62.8287 610.16 64.2794C607.984 65.73 605.723 66.9887 603.376 68.0554C602.907 67.4154 602.245 66.6474 601.392 65.7514C600.539 64.8127 599.835 64.0874 599.28 63.5754C600.987 62.6794 602.715 61.5914 604.464 60.3114C606.213 59.0314 607.813 57.73 609.264 56.4074C610.715 55.042 611.845 53.8047 612.656 52.6954V51.0954ZM575.728 38.6794H631.024V53.3994H623.088V45.9114H583.28V53.3994H575.728V38.6794ZM597.296 34.4554L604.976 32.1514C605.872 33.2607 606.704 34.5194 607.472 35.9274C608.283 37.2927 608.88 38.53 609.264 39.6394L601.2 42.3914C600.901 41.282 600.389 39.9807 599.664 38.4874C598.939 36.994 598.149 35.65 597.296 34.4554Z" fill="url(#paint4_linear_112_3798)" fill-opacity="0.7"/>
</g>
</g>
<path d="M472 81H928V107C928 113.627 922.627 119 916 119H484C477.373 119 472 113.627 472 107V81Z" fill="url(#paint5_linear_112_3798)"/>
<path d="M768.8 40.1834H786.976V45.9434H768.8V40.1834ZM768.8 48.8234H786.976V54.6474H768.8V48.8234ZM765.984 31.2234H788.256V37.3034H765.984V31.2234ZM772 57.7194H786.976V77.1754H772V71.0314H780.384V63.7994H772V57.7194ZM768.608 57.7194H775.136V79.9274H768.608V57.7194ZM771.616 23.1594L777.568 20.3434C778.464 21.666 779.339 23.138 780.192 24.7594C781.088 26.338 781.792 27.7247 782.304 28.9194L776.16 32.2474C775.733 31.0527 775.072 29.602 774.176 27.8954C773.28 26.146 772.427 24.5674 771.616 23.1594ZM788.576 68.4074H825.504V73.9754H788.576V68.4074ZM791.136 41.2714H822.944V46.7114H791.136V41.2714ZM790.432 59.9594H823.712V65.5914H790.432V59.9594ZM788.448 49.4634H825.504V55.3514H788.448V49.4634ZM802.976 37.5594H810.272V51.8954H802.976V37.5594ZM802.976 62.0074H810.272V80.7594H802.976V62.0074ZM811.936 54.9674L818.784 56.6314C818.016 57.7834 817.248 58.8714 816.48 59.8954C815.712 60.8767 815.029 61.73 814.432 62.4554L809.056 60.8554C809.568 60.002 810.08 59.0207 810.592 57.9114C811.147 56.802 811.595 55.8207 811.936 54.9674ZM794.976 56.4394L800.928 54.9674C801.397 55.6927 801.824 56.5247 802.208 57.4634C802.635 58.3594 802.933 59.17 803.104 59.8954L796.896 61.6874C796.768 61.0047 796.512 60.1727 796.128 59.1914C795.787 58.21 795.403 57.2927 794.976 56.4394ZM814.112 28.2154V33.2714H817.632V28.2154H814.112ZM805.152 28.2154V33.2714H808.608V28.2154H805.152ZM796.32 28.2154V33.2714H799.776V28.2154H796.32ZM790.176 22.7754H824.096V38.7754H790.176V22.7754Z" fill="url(#paint6_linear_112_3798)"/>
<path d="M702.624 36.1514H730.912V41.7194H702.624V36.1514ZM707.936 63.7354H726.368V68.6634H707.936V63.7354ZM708.064 72.0554H725.92V77.7514H708.064V72.0554ZM714.272 26.8714H720.672V53.6234H714.272V26.8714ZM714.72 58.4234H719.904V74.9994H714.72V58.4234ZM727.264 20.9194L731.104 26.1674C728.629 26.6794 725.856 27.1274 722.784 27.5114C719.755 27.8954 716.661 28.194 713.504 28.4074C710.347 28.6207 707.317 28.77 704.416 28.8554C704.331 28.13 704.117 27.2767 703.776 26.2954C703.435 25.314 703.093 24.482 702.752 23.7994C704.885 23.6714 707.061 23.522 709.28 23.3514C711.541 23.138 713.739 22.9247 715.872 22.7114C718.048 22.498 720.096 22.242 722.016 21.9434C723.979 21.602 725.728 21.2607 727.264 20.9194ZM705.056 30.1994L709.92 28.9194C710.347 29.9007 710.795 30.9887 711.264 32.1834C711.733 33.3354 712.075 34.3167 712.288 35.1274L707.104 36.6634C706.891 35.8527 706.592 34.8287 706.208 33.5914C705.824 32.354 705.44 31.2234 705.056 30.1994ZM724.576 28.0874L730.08 29.6874C729.397 31.2234 728.715 32.7594 728.032 34.2954C727.392 35.7887 726.773 37.09 726.176 38.1994L721.504 36.7274C722.059 35.5327 722.613 34.1034 723.168 32.4394C723.765 30.7754 724.235 29.3247 724.576 28.0874ZM713.056 38.8394L717.344 41.3354C716.32 43.17 715.061 45.09 713.568 47.0954C712.117 49.1007 710.56 50.978 708.896 52.7274C707.232 54.4767 705.547 55.906 703.84 57.0154C703.584 56.034 703.157 54.882 702.56 53.5594C702.005 52.2367 701.472 51.1487 700.96 50.2954C702.453 49.442 703.968 48.3754 705.504 47.0954C707.04 45.7727 708.469 44.4074 709.792 42.9994C711.115 41.5487 712.203 40.162 713.056 38.8394ZM704.544 54.9674H730.528V79.9274H724.64V60.6634H710.24V80.6954H704.544V54.9674ZM731.808 23.5434H741.92V30.0074H731.808V23.5434ZM739.616 23.5434H745.888V72.8234C745.888 74.402 745.717 75.7034 745.376 76.7274C745.077 77.794 744.437 78.626 743.456 79.2234C742.475 79.778 741.259 80.1194 739.808 80.2474C738.4 80.418 736.693 80.5034 734.688 80.5034C734.603 79.5647 734.368 78.4127 733.984 77.0474C733.6 75.7247 733.195 74.6154 732.768 73.7194C734.005 73.762 735.179 73.8047 736.288 73.8474C737.397 73.8474 738.165 73.8474 738.592 73.8474C739.275 73.8047 739.616 73.4207 739.616 72.6954V23.5434ZM747.168 23.5434H757.984V30.0074H747.168V23.5434ZM754.592 23.5434H760.864V72.7594C760.864 74.3807 760.693 75.7034 760.352 76.7274C760.011 77.7514 759.328 78.5407 758.304 79.0954C757.365 79.6927 756.149 80.0554 754.656 80.1834C753.205 80.3114 751.413 80.3754 749.28 80.3754C749.195 79.4794 748.96 78.3487 748.576 76.9834C748.192 75.6607 747.787 74.5727 747.36 73.7194C748.683 73.762 749.92 73.8047 751.072 73.8474C752.267 73.8474 753.077 73.8474 753.504 73.8474C753.931 73.8047 754.208 73.698 754.336 73.5274C754.507 73.3567 754.592 73.058 754.592 72.6314V23.5434ZM730.784 36.5994L735.712 34.8074C736.267 36.13 736.8 37.5807 737.312 39.1594C737.867 40.738 738.379 42.2527 738.848 43.7034C739.317 45.154 739.659 46.4127 739.872 47.4794L734.624 49.6554C734.453 48.546 734.155 47.2447 733.728 45.7514C733.301 44.2154 732.832 42.658 732.32 41.0794C731.851 39.458 731.339 37.9647 730.784 36.5994ZM746.208 36.5354L751.264 35.1914C751.733 36.514 752.16 37.9434 752.544 39.4794C752.971 40.9727 753.355 42.4234 753.696 43.8314C754.08 45.2394 754.357 46.4767 754.528 47.5434L749.152 49.2714C749.024 48.2047 748.789 46.946 748.448 45.4954C748.149 44.002 747.808 42.4874 747.424 40.9514C747.04 39.3727 746.635 37.9007 746.208 36.5354ZM745.056 61.3674C745.995 60.3007 747.147 58.9567 748.512 57.3354C749.877 55.714 751.285 53.986 752.736 52.1514L756.32 57.2714C755.168 58.8927 753.931 60.5354 752.608 62.1994C751.285 63.8634 749.941 65.4634 748.576 66.9994L745.056 61.3674ZM729.952 62.3914C730.933 61.282 732.107 59.9167 733.472 58.2954C734.88 56.6314 736.331 54.8607 737.824 52.9834L741.408 58.1674C740.171 59.8314 738.869 61.5167 737.504 63.2234C736.139 64.8874 734.752 66.5087 733.344 68.0874L729.952 62.3914ZM717.216 42.6154L721.376 38.9674C722.741 40.162 724.107 41.4847 725.472 42.9354C726.837 44.3434 728.117 45.7514 729.312 47.1594C730.507 48.5247 731.445 49.8047 732.128 50.9994L727.584 55.1594C726.944 53.9647 726.069 52.642 724.96 51.1914C723.851 49.698 722.613 48.2047 721.248 46.7114C719.883 45.1754 718.539 43.81 717.216 42.6154Z" fill="url(#paint7_linear_112_3798)"/>
<path d="M639.136 53.9434H696.8V59.8954H639.136V53.9434ZM663.968 60.5354H671.392V80.6954H663.968V60.5354ZM658.144 49.9114L665.632 51.1914C663.541 55.5007 660.597 59.362 656.8 62.7754C653.045 66.146 648.053 69.026 641.824 71.4154C641.568 70.818 641.184 70.1567 640.672 69.4314C640.203 68.706 639.691 68.002 639.136 67.3194C638.581 66.6367 638.048 66.1034 637.536 65.7194C641.376 64.482 644.64 63.0527 647.328 61.4314C650.016 59.7674 652.256 57.954 654.048 55.9914C655.84 54.0287 657.205 52.002 658.144 49.9114ZM680.608 55.7354C681.76 57.186 683.253 58.5514 685.088 59.8314C686.965 61.1114 689.056 62.242 691.36 63.2234C693.664 64.162 696.053 64.9087 698.528 65.4634C697.76 66.1034 696.928 66.9994 696.032 68.1514C695.179 69.2607 694.496 70.2634 693.984 71.1594C691.381 70.3487 688.885 69.282 686.496 67.9594C684.149 66.594 681.995 65.0367 680.032 63.2874C678.069 61.538 676.405 59.6607 675.04 57.6554L680.608 55.7354ZM649.248 63.7994H684V69.5594H656.608V79.6074H649.248V63.7994ZM679.968 63.7994H687.328V73.2714C687.328 74.7647 687.157 75.9167 686.816 76.7274C686.475 77.5807 685.813 78.242 684.832 78.7114C683.851 79.138 682.677 79.394 681.312 79.4794C679.947 79.5647 678.389 79.6074 676.64 79.6074C676.469 78.6687 676.192 77.6874 675.808 76.6634C675.467 75.6394 675.104 74.722 674.72 73.9114C675.616 73.954 676.491 73.9754 677.344 73.9754C678.197 73.9754 678.773 73.9754 679.072 73.9754C679.413 73.9754 679.648 73.9327 679.776 73.8474C679.904 73.7194 679.968 73.506 679.968 73.2074V63.7994ZM653.088 44.3434V47.1594H682.592V44.3434H653.088ZM653.088 37.3674V40.1834H682.592V37.3674H653.088ZM645.728 33.0154H690.272V51.5754H645.728V33.0154ZM653.728 20.5994H661.152V32.1194H653.728V20.5994ZM674.592 20.5994H682.144V32.1194H674.592V20.5994ZM639.584 24.1834H667.232V30.1354H639.584V24.1834ZM669.152 24.1834H696.608V30.1354H669.152V24.1834Z" fill="url(#paint8_linear_112_3798)"/>
<path d="M586.976 39.0954H615.584V46.2634H586.976V39.0954ZM576.032 54.9674H632.032V62.2634H576.032V54.9674ZM599.84 51.5754H608.032V71.9914C608.032 73.9967 607.733 75.5754 607.136 76.7274C606.581 77.8794 605.493 78.754 603.872 79.3514C602.379 79.906 600.587 80.2474 598.496 80.3754C596.448 80.546 594.101 80.6314 591.456 80.6314C591.285 79.8634 591.008 78.9887 590.624 78.0074C590.283 77.0687 589.877 76.13 589.408 75.1914C588.981 74.2527 588.555 73.4634 588.128 72.8234C589.451 72.866 590.795 72.9087 592.16 72.9514C593.568 72.9514 594.805 72.9514 595.872 72.9514C596.981 72.9514 597.749 72.9514 598.176 72.9514C598.816 72.9514 599.243 72.866 599.456 72.6954C599.712 72.5247 599.84 72.226 599.84 71.7994V51.5754ZM613.216 39.0954H615.392L617.184 38.7754L622.304 42.7434C620.725 44.3647 618.955 46.0074 616.992 47.6714C615.029 49.2927 612.939 50.8287 610.72 52.2794C608.544 53.73 606.283 54.9887 603.936 56.0554C603.467 55.4154 602.805 54.6474 601.952 53.7514C601.099 52.8127 600.395 52.0874 599.84 51.5754C601.547 50.6794 603.275 49.5914 605.024 48.3114C606.773 47.0314 608.373 45.73 609.824 44.4074C611.275 43.042 612.405 41.8047 613.216 40.6954V39.0954ZM576.288 26.6794H631.584V41.3994H623.648V33.9114H583.84V41.3994H576.288V26.6794ZM597.856 22.4554L605.536 20.1514C606.432 21.2607 607.264 22.5194 608.032 23.9274C608.843 25.2927 609.44 26.53 609.824 27.6394L601.76 30.3914C601.461 29.282 600.949 27.9807 600.224 26.4874C599.499 24.994 598.709 23.65 597.856 22.4554Z" fill="url(#paint9_linear_112_3798)"/>
<defs>
<filter id="filter0_f_112_3798" x="555.472" y="12.1514" width="289.472" height="100.608" filterUnits="userSpaceOnUse" color-interpolation-filters="sRGB">
<feFlood flood-opacity="0" result="BackgroundImageFix"/>
<feBlend mode="normal" in="SourceGraphic" in2="BackgroundImageFix" result="shape"/>
<feGaussianBlur stdDeviation="10" result="effect1_foregroundBlur_112_3798"/>
</filter>
<linearGradient id="paint0_linear_112_3798" x1="472" y1="73.0036" x2="928" y2="73.0033" gradientUnits="userSpaceOnUse">
<stop stop-color="white" stop-opacity="0.3"/>
<stop offset="0.495" stop-color="#CBB0F8"/>
<stop offset="1" stop-color="white" stop-opacity="0.3"/>
</linearGradient>
<linearGradient id="paint1_linear_112_3798" x1="835.406" y1="59.3937" x2="-237.592" y2="59.3939" gradientUnits="userSpaceOnUse">
<stop stop-color="#F4439F"/>
<stop offset="1" stop-color="#7C3AED"/>
</linearGradient>
<linearGradient id="paint2_linear_112_3798" x1="1104.53" y1="59.1013" x2="38.4141" y2="59.1015" gradientUnits="userSpaceOnUse">
<stop stop-color="#F4439F"/>
<stop offset="1" stop-color="#7C3AED"/>
</linearGradient>
<linearGradient id="paint3_linear_112_3798" x1="1354.52" y1="59.2805" x2="307.414" y2="59.2807" gradientUnits="userSpaceOnUse">
<stop stop-color="#F4439F"/>
<stop offset="1" stop-color="#7C3AED"/>
</linearGradient>
<linearGradient id="paint4_linear_112_3798" x1="827.44" y1="59.4994" x2="571.44" y2="59.4994" gradientUnits="userSpaceOnUse">
<stop stop-color="#F4439F"/>
<stop offset="1" stop-color="#7C3AED"/>
</linearGradient>
<linearGradient id="paint5_linear_112_3798" x1="700" y1="81" x2="700" y2="119" gradientUnits="userSpaceOnUse">
<stop offset="0.0001" stop-color="white" stop-opacity="0.1"/>
<stop offset="1" stop-color="white" stop-opacity="0"/>
</linearGradient>
<linearGradient id="paint6_linear_112_3798" x1="835.966" y1="0.745886" x2="159.995" y2="555.923" gradientUnits="userSpaceOnUse">
<stop stop-color="#F4439F"/>
<stop offset="1" stop-color="#7C3AED"/>
</linearGradient>
<linearGradient id="paint7_linear_112_3798" x1="1105.09" y1="-0.0459116" x2="424.246" y2="549.667" gradientUnits="userSpaceOnUse">
<stop stop-color="#F4439F"/>
<stop offset="1" stop-color="#7C3AED"/>
</linearGradient>
<linearGradient id="paint8_linear_112_3798" x1="1355.08" y1="0.384397" x2="679.709" y2="538.812" gradientUnits="userSpaceOnUse">
<stop stop-color="#F4439F"/>
<stop offset="1" stop-color="#7C3AED"/>
</linearGradient>
<linearGradient id="paint9_linear_112_3798" x1="828" y1="0.999385" x2="567.985" y2="52.1113" gradientUnits="userSpaceOnUse">
<stop stop-color="#F4439F"/>
<stop offset="1" stop-color="#7C3AED"/>
</linearGradient>
</defs>
</svg>
