<svg width="1400" height="120" viewBox="0 0 1400 120" fill="none" xmlns="http://www.w3.org/2000/svg">
<path d="M472 65H928V81H472V65Z" fill="url(#paint0_linear_112_3822)"/>
<mask id="mask0_112_3822" style="mask-type:alpha" maskUnits="userSpaceOnUse" x="472" y="81" width="456" height="38">
<path d="M472 81H928V119H472V81Z" fill="#C4C4C4"/>
</mask>
<g mask="url(#mask0_112_3822)">
<g filter="url(#filter0_f_112_3822)">
<path d="M768.24 37.2714L774.128 33.4954C775.024 34.6474 775.963 35.9274 776.944 37.3354C777.925 38.7007 778.821 40.0447 779.632 41.3674C780.485 42.6474 781.147 43.8207 781.616 44.8874L775.344 49.1754C774.917 48.1087 774.32 46.8927 773.552 45.5274C772.784 44.1194 771.931 42.69 770.992 41.2394C770.053 39.7887 769.136 38.466 768.24 37.2714ZM773.872 91.7994L772.08 84.7594L773.36 82.3274L784.368 73.2394C784.752 74.2634 785.221 75.4154 785.776 76.6954C786.331 77.9754 786.843 78.9567 787.312 79.6394C784.667 81.8154 782.512 83.6287 780.848 85.0794C779.227 86.4874 777.947 87.5967 777.008 88.4074C776.112 89.2607 775.429 89.9434 774.96 90.4554C774.491 90.9674 774.128 91.4154 773.872 91.7994ZM765.936 52.1834H778.224V59.5434H765.936V52.1834ZM785.776 35.2234H817.328V41.8154H785.776V35.2234ZM815.152 35.2234H816.496L817.776 34.9034L822.704 37.5914C821.04 41.0474 818.928 44.1834 816.368 46.9994C813.808 49.7727 810.907 52.2687 807.664 54.4874C804.464 56.706 801.029 58.626 797.36 60.2474C793.733 61.8687 790.021 63.2127 786.224 64.2794C785.968 63.6394 785.605 62.914 785.136 62.1034C784.709 61.2927 784.24 60.5034 783.728 59.7354C783.216 58.9247 782.704 58.2634 782.192 57.7514C785.776 56.9407 789.253 55.874 792.624 54.5514C796.037 53.186 799.216 51.586 802.16 49.7514C805.104 47.9167 807.685 45.8687 809.904 43.6074C812.123 41.346 813.872 38.9354 815.152 36.3754V35.2234ZM795.888 38.5514C797.765 41.538 800.197 44.226 803.184 46.6154C806.213 49.0047 809.691 51.0527 813.616 52.7594C817.541 54.4234 821.765 55.682 826.288 56.5354C825.776 57.0474 825.221 57.6874 824.624 58.4554C824.027 59.2234 823.451 60.0127 822.896 60.8234C822.384 61.634 821.936 62.3594 821.552 62.9994C816.859 61.8474 812.528 60.2474 808.56 58.1994C804.592 56.1514 801.029 53.6767 797.872 50.7754C794.757 47.8314 792.112 44.5034 789.936 40.7914L795.888 38.5514ZM789.168 65.4314H820.4V72.0874H789.168V65.4314ZM785.584 76.8874H824.688V83.6714H785.584V76.8874ZM800.624 60.3754H808.176V92.7594H800.624V60.3754ZM773.872 91.7994C773.659 91.2447 773.317 90.626 772.848 89.9434C772.379 89.2607 771.867 88.578 771.312 87.8954C770.8 87.2127 770.352 86.7007 769.968 86.3594C770.651 85.762 771.355 84.866 772.08 83.6714C772.848 82.434 773.232 80.962 773.232 79.2554V52.1834H780.656V83.4154C780.656 83.4154 780.421 83.6074 779.952 83.9914C779.525 84.3754 778.971 84.9087 778.288 85.5914C777.605 86.2314 776.923 86.914 776.24 87.6394C775.6 88.3647 775.045 89.09 774.576 89.8154C774.107 90.5834 773.872 91.2447 773.872 91.7994Z" fill="url(#paint1_linear_112_3822)" fill-opacity="0.7"/>
<path d="M702.064 47.7674H730.16V53.3354H702.064V47.7674ZM707.184 75.6074H725.808V80.5354H707.184V75.6074ZM707.376 83.9274H725.36V89.6234H707.376V83.9274ZM713.712 38.6794H720.112V65.8794H713.712V38.6794ZM714.224 70.2954H719.408V86.8714H714.224V70.2954ZM726.576 32.7914L730.352 37.8474C727.92 38.402 725.189 38.8714 722.16 39.2554C719.131 39.6394 716.037 39.938 712.88 40.1514C709.765 40.3647 706.757 40.514 703.856 40.5994C703.771 39.874 703.557 39.042 703.216 38.1034C702.917 37.122 702.597 36.3114 702.256 35.6714C705.072 35.458 707.973 35.2234 710.96 34.9674C713.947 34.7114 716.784 34.4127 719.472 34.0714C722.203 33.6874 724.571 33.2607 726.576 32.7914ZM719.28 51.7354C719.877 52.034 720.709 52.546 721.776 53.2714C722.885 53.954 724.037 54.7007 725.232 55.5114C726.469 56.322 727.6 57.09 728.624 57.8154C729.648 58.498 730.373 58.9887 730.8 59.2874L726.96 65.2394C726.405 64.5567 725.659 63.7674 724.72 62.8714C723.824 61.9327 722.821 60.9727 721.712 59.9914C720.645 58.9674 719.621 58.0074 718.64 57.1114C717.659 56.2154 716.827 55.49 716.144 54.9354L719.28 51.7354ZM704.368 41.8154L709.296 40.5354C709.723 41.5594 710.149 42.6687 710.576 43.8634C711.045 45.058 711.387 46.0607 711.6 46.8714L706.416 48.4074C706.203 47.554 705.904 46.5087 705.52 45.2714C705.136 43.9914 704.752 42.8394 704.368 41.8154ZM724.016 39.7674L729.584 41.4314C728.901 42.9674 728.219 44.482 727.536 45.9754C726.896 47.4687 726.299 48.7487 725.744 49.8154L721.072 48.4074C721.413 47.5967 721.776 46.7007 722.16 45.7194C722.544 44.6954 722.885 43.6714 723.184 42.6474C723.525 41.5807 723.803 40.6207 724.016 39.7674ZM712.624 50.5194L716.976 53.0154C715.952 54.8074 714.736 56.706 713.328 58.7114C711.92 60.674 710.405 62.53 708.784 64.2794C707.163 66.0287 705.541 67.4794 703.92 68.6314C703.664 67.6074 703.237 66.4554 702.64 65.1754C702.085 63.8527 701.552 62.722 701.04 61.7834C702.491 60.9727 703.941 59.9487 705.392 58.7114C706.885 57.4314 708.272 56.0874 709.552 54.6794C710.832 53.2287 711.856 51.842 712.624 50.5194ZM703.856 66.8394H729.776V91.9274H723.824V72.5354H709.488V92.6954H703.856V66.8394ZM731.888 35.2874H742.704V41.6874H731.888V35.2874ZM739.312 35.2874H745.456V85.2074C745.456 86.7007 745.285 87.938 744.944 88.9194C744.645 89.9007 744.048 90.6474 743.152 91.1594C742.213 91.714 741.083 92.0554 739.76 92.1834C738.437 92.354 736.859 92.4394 735.024 92.4394C734.939 91.586 734.704 90.5194 734.32 89.2394C733.936 88.002 733.531 86.9567 733.104 86.1034C734.213 86.146 735.259 86.1887 736.24 86.2314C737.264 86.2314 737.968 86.21 738.352 86.1674C738.693 86.1674 738.928 86.1034 739.056 85.9754C739.227 85.8047 739.312 85.506 739.312 85.0794V35.2874ZM746.8 35.4154H756.528V41.8154H746.8V35.4154ZM753.968 35.4154H760.24V85.0154C760.24 86.6367 760.069 87.938 759.728 88.9194C759.387 89.9434 758.725 90.7327 757.744 91.2874C756.763 91.842 755.547 92.1834 754.096 92.3114C752.688 92.482 750.981 92.5674 748.976 92.5674C748.891 91.6714 748.635 90.562 748.208 89.2394C747.781 87.9594 747.333 86.8927 746.864 86.0394C748.101 86.082 749.296 86.1034 750.448 86.1034C751.643 86.1034 752.432 86.1034 752.816 86.1034C753.243 86.1034 753.541 86.018 753.712 85.8474C753.883 85.6767 753.968 85.378 753.968 84.9514V35.4154ZM730.864 48.0234L735.664 46.8074C736.219 48.0874 736.752 49.4954 737.264 51.0314C737.819 52.5247 738.309 53.9967 738.736 55.4474C739.163 56.8554 739.483 58.0927 739.696 59.1594L734.576 60.7594C734.405 59.65 734.107 58.37 733.68 56.9194C733.296 55.4687 732.848 53.954 732.336 52.3754C731.867 50.7967 731.376 49.346 730.864 48.0234ZM745.968 47.5754L750.832 46.6154C751.301 47.938 751.749 49.3887 752.176 50.9674C752.603 52.5034 752.987 53.9754 753.328 55.3834C753.669 56.7914 753.925 58.0287 754.096 59.0954L748.912 60.3754C748.784 59.266 748.549 57.986 748.208 56.5354C747.909 55.042 747.568 53.5274 747.184 51.9914C746.8 50.4127 746.395 48.9407 745.968 47.5754ZM745.264 71.3194C746.501 70.1247 748.037 68.6314 749.872 66.8394C751.707 65.0047 753.584 63.106 755.504 61.1434L758.384 66.0074C756.805 67.7567 755.141 69.5487 753.392 71.3834C751.643 73.218 749.957 74.9674 748.336 76.6314L745.264 71.3194ZM730.352 72.5354C731.675 71.2554 733.296 69.5914 735.216 67.5434C737.179 65.4954 739.163 63.362 741.168 61.1434L744.24 65.9434C742.491 67.9487 740.677 69.9967 738.8 72.0874C736.923 74.1354 735.109 76.034 733.36 77.7834L730.352 72.5354Z" fill="url(#paint2_linear_112_3822)" fill-opacity="0.7"/>
<path d="M652.784 39.6394L657.584 32.9834C660.528 35.1167 663.067 37.378 665.2 39.7674C667.333 42.1567 669.232 44.6314 670.896 47.1914C672.603 49.7514 674.16 52.354 675.568 54.9994C677.019 57.602 678.448 60.2047 679.856 62.8074C681.307 65.3674 682.864 67.8634 684.528 70.2954C686.192 72.7274 688.112 75.0527 690.288 77.2714C692.507 79.4474 695.088 81.474 698.032 83.3514C697.648 84.034 697.179 84.93 696.624 86.0394C696.112 87.106 695.621 88.194 695.152 89.3034C694.725 90.4127 694.448 91.3727 694.32 92.1834C691.205 90.434 688.475 88.4074 686.128 86.1034C683.781 83.7994 681.691 81.3247 679.856 78.6794C678.021 75.9914 676.336 73.218 674.8 70.3594C673.264 67.5007 671.749 64.642 670.256 61.7834C668.763 58.9247 667.184 56.1514 665.52 53.4634C663.856 50.7327 661.979 48.194 659.888 45.8474C657.84 43.5007 655.472 41.4314 652.784 39.6394ZM663.152 48.0234L671.984 49.5594C670.448 56.2154 668.421 62.2314 665.904 67.6074C663.429 72.9407 660.421 77.6554 656.88 81.7514C653.339 85.8047 649.221 89.218 644.528 91.9914C644.059 91.4367 643.397 90.754 642.544 89.9434C641.733 89.1754 640.859 88.386 639.92 87.5754C638.981 86.8074 638.171 86.1887 637.488 85.7194C644.528 82.2634 650.117 77.3354 654.256 70.9354C658.395 64.5354 661.36 56.898 663.152 48.0234Z" fill="url(#paint3_linear_112_3822)" fill-opacity="0.7"/>
<path d="M573.68 39.7034H595.12V46.6154H573.68V39.7034ZM584.368 50.6474H590.832V92.5674H584.368V50.6474ZM573.488 75.1594C576.219 74.7327 579.504 74.1567 583.344 73.4314C587.184 72.6634 591.067 71.9167 594.992 71.1914L595.568 77.5274C592.027 78.3807 588.464 79.234 584.88 80.0874C581.296 80.898 578.011 81.6234 575.024 82.2634L573.488 75.1594ZM575.472 67.3514C575.344 66.9247 575.152 66.3487 574.896 65.6234C574.64 64.8554 574.363 64.0874 574.064 63.3194C573.808 62.5087 573.552 61.826 573.296 61.2714C573.936 61.1007 574.469 60.5674 574.896 59.6714C575.323 58.7327 575.771 57.538 576.24 56.0874C576.453 55.4047 576.752 54.274 577.136 52.6954C577.563 51.074 577.989 49.1754 578.416 46.9994C578.885 44.8234 579.312 42.498 579.696 40.0234C580.123 37.5487 580.4 35.0954 580.528 32.6634L587.504 33.6874C587.035 37.186 586.373 40.7487 585.52 44.3754C584.667 47.9594 583.728 51.4154 582.704 54.7434C581.68 58.0287 580.613 60.994 579.504 63.6394V63.7674C579.504 63.7674 579.291 63.8954 578.864 64.1514C578.48 64.4074 578.011 64.7274 577.456 65.1114C576.944 65.4527 576.475 65.8367 576.048 66.2634C575.664 66.69 575.472 67.0527 575.472 67.3514ZM575.472 67.3514V61.2074L578.672 59.4794H594.864V66.3914H580.208C579.227 66.3914 578.245 66.4767 577.264 66.6474C576.325 66.818 575.728 67.0527 575.472 67.3514ZM601.008 47.8314H626.736V53.8474H601.008V47.8314ZM597.296 56.8554H611.056V62.6794H603.312V92.5034H597.296V56.8554ZM609.52 56.8554H615.536V85.7194C615.536 87.1274 615.408 88.2794 615.152 89.1754C614.896 90.0714 614.341 90.7754 613.488 91.2874C612.635 91.7567 611.632 92.0554 610.48 92.1834C609.371 92.3114 608.069 92.3754 606.576 92.3754C606.533 91.522 606.341 90.5194 606 89.3674C605.701 88.2154 605.339 87.2127 604.912 86.3594C605.765 86.402 606.555 86.4234 607.28 86.4234C608.005 86.4234 608.517 86.4234 608.816 86.4234C609.285 86.4234 609.52 86.1674 609.52 85.6554V56.8554ZM601.904 65.9434H614.064V71.3834H601.904V65.9434ZM601.84 74.6474H614V80.0874H601.84V74.6474ZM617.712 58.5834H623.344V82.0714H617.712V58.5834ZM625.904 56.1514H631.728V85.1434C631.728 86.6794 631.557 87.8954 631.216 88.7914C630.917 89.73 630.256 90.4554 629.232 90.9674C628.251 91.4367 627.013 91.7354 625.52 91.8634C624.069 91.9914 622.32 92.0554 620.272 92.0554C620.144 91.202 619.909 90.1994 619.568 89.0474C619.227 87.8954 618.843 86.8927 618.416 86.0394C619.824 86.082 621.147 86.1034 622.384 86.1034C623.621 86.1034 624.432 86.1034 624.816 86.1034C625.541 86.0607 625.904 85.7407 625.904 85.1434V56.1514ZM613.424 32.1514L619.632 34.9674C617.883 37.5274 615.835 39.938 613.488 42.1994C611.141 44.4607 608.624 46.53 605.936 48.4074C603.291 50.2847 600.581 51.906 597.808 53.2714C597.296 52.3754 596.592 51.3727 595.696 50.2634C594.8 49.154 593.883 48.2154 592.944 47.4474C595.547 46.3807 598.128 45.058 600.688 43.4794C603.291 41.9007 605.701 40.1514 607.92 38.2314C610.139 36.3114 611.973 34.2847 613.424 32.1514ZM616.624 35.0314C619.141 37.89 621.915 40.2794 624.944 42.1994C628.016 44.0767 631.28 45.698 634.736 47.0634C633.883 47.874 633.008 48.834 632.112 49.9434C631.259 51.01 630.619 52.034 630.192 53.0154C626.395 51.0954 622.917 48.9194 619.76 46.4874C616.645 44.0127 613.659 40.9834 610.8 37.3994L616.624 35.0314Z" fill="url(#paint4_linear_112_3822)" fill-opacity="0.7"/>
</g>
</g>
<path d="M472 81H928V107C928 113.627 922.627 119 916 119H484C477.373 119 472 113.627 472 107V81Z" fill="url(#paint5_linear_112_3822)"/>
<path d="M768.8 25.2714L774.688 21.4954C775.584 22.6474 776.523 23.9274 777.504 25.3354C778.485 26.7007 779.381 28.0447 780.192 29.3674C781.045 30.6474 781.707 31.8207 782.176 32.8874L775.904 37.1754C775.477 36.1087 774.88 34.8927 774.112 33.5274C773.344 32.1194 772.491 30.69 771.552 29.2394C770.613 27.7887 769.696 26.466 768.8 25.2714ZM774.432 79.7994L772.64 72.7594L773.92 70.3274L784.928 61.2394C785.312 62.2634 785.781 63.4154 786.336 64.6954C786.891 65.9754 787.403 66.9567 787.872 67.6394C785.227 69.8154 783.072 71.6287 781.408 73.0794C779.787 74.4874 778.507 75.5967 777.568 76.4074C776.672 77.2607 775.989 77.9434 775.52 78.4554C775.051 78.9674 774.688 79.4154 774.432 79.7994ZM766.496 40.1834H778.784V47.5434H766.496V40.1834ZM786.336 23.2234H817.888V29.8154H786.336V23.2234ZM815.712 23.2234H817.056L818.336 22.9034L823.264 25.5914C821.6 29.0474 819.488 32.1834 816.928 34.9994C814.368 37.7727 811.467 40.2687 808.224 42.4874C805.024 44.706 801.589 46.626 797.92 48.2474C794.293 49.8687 790.581 51.2127 786.784 52.2794C786.528 51.6394 786.165 50.914 785.696 50.1034C785.269 49.2927 784.8 48.5034 784.288 47.7354C783.776 46.9247 783.264 46.2634 782.752 45.7514C786.336 44.9407 789.813 43.874 793.184 42.5514C796.597 41.186 799.776 39.586 802.72 37.7514C805.664 35.9167 808.245 33.8687 810.464 31.6074C812.683 29.346 814.432 26.9354 815.712 24.3754V23.2234ZM796.448 26.5514C798.325 29.538 800.757 32.226 803.744 34.6154C806.773 37.0047 810.251 39.0527 814.176 40.7594C818.101 42.4234 822.325 43.682 826.848 44.5354C826.336 45.0474 825.781 45.6874 825.184 46.4554C824.587 47.2234 824.011 48.0127 823.456 48.8234C822.944 49.634 822.496 50.3594 822.112 50.9994C817.419 49.8474 813.088 48.2474 809.12 46.1994C805.152 44.1514 801.589 41.6767 798.432 38.7754C795.317 35.8314 792.672 32.5034 790.496 28.7914L796.448 26.5514ZM789.728 53.4314H820.96V60.0874H789.728V53.4314ZM786.144 64.8874H825.248V71.6714H786.144V64.8874ZM801.184 48.3754H808.736V80.7594H801.184V48.3754ZM774.432 79.7994C774.219 79.2447 773.877 78.626 773.408 77.9434C772.939 77.2607 772.427 76.578 771.872 75.8954C771.36 75.2127 770.912 74.7007 770.528 74.3594C771.211 73.762 771.915 72.866 772.64 71.6714C773.408 70.434 773.792 68.962 773.792 67.2554V40.1834H781.216V71.4154C781.216 71.4154 780.981 71.6074 780.512 71.9914C780.085 72.3754 779.531 72.9087 778.848 73.5914C778.165 74.2314 777.483 74.914 776.8 75.6394C776.16 76.3647 775.605 77.09 775.136 77.8154C774.667 78.5834 774.432 79.2447 774.432 79.7994Z" fill="url(#paint6_linear_112_3822)"/>
<path d="M702.624 35.7674H730.72V41.3354H702.624V35.7674ZM707.744 63.6074H726.368V68.5354H707.744V63.6074ZM707.936 71.9274H725.92V77.6234H707.936V71.9274ZM714.272 26.6794H720.672V53.8794H714.272V26.6794ZM714.784 58.2954H719.968V74.8714H714.784V58.2954ZM727.136 20.7914L730.912 25.8474C728.48 26.402 725.749 26.8714 722.72 27.2554C719.691 27.6394 716.597 27.938 713.44 28.1514C710.325 28.3647 707.317 28.514 704.416 28.5994C704.331 27.874 704.117 27.042 703.776 26.1034C703.477 25.122 703.157 24.3114 702.816 23.6714C705.632 23.458 708.533 23.2234 711.52 22.9674C714.507 22.7114 717.344 22.4127 720.032 22.0714C722.763 21.6874 725.131 21.2607 727.136 20.7914ZM719.84 39.7354C720.437 40.034 721.269 40.546 722.336 41.2714C723.445 41.954 724.597 42.7007 725.792 43.5114C727.029 44.322 728.16 45.09 729.184 45.8154C730.208 46.498 730.933 46.9887 731.36 47.2874L727.52 53.2394C726.965 52.5567 726.219 51.7674 725.28 50.8714C724.384 49.9327 723.381 48.9727 722.272 47.9914C721.205 46.9674 720.181 46.0074 719.2 45.1114C718.219 44.2154 717.387 43.49 716.704 42.9354L719.84 39.7354ZM704.928 29.8154L709.856 28.5354C710.283 29.5594 710.709 30.6687 711.136 31.8634C711.605 33.058 711.947 34.0607 712.16 34.8714L706.976 36.4074C706.763 35.554 706.464 34.5087 706.08 33.2714C705.696 31.9914 705.312 30.8394 704.928 29.8154ZM724.576 27.7674L730.144 29.4314C729.461 30.9674 728.779 32.482 728.096 33.9754C727.456 35.4687 726.859 36.7487 726.304 37.8154L721.632 36.4074C721.973 35.5967 722.336 34.7007 722.72 33.7194C723.104 32.6954 723.445 31.6714 723.744 30.6474C724.085 29.5807 724.363 28.6207 724.576 27.7674ZM713.184 38.5194L717.536 41.0154C716.512 42.8074 715.296 44.706 713.888 46.7114C712.48 48.674 710.965 50.53 709.344 52.2794C707.723 54.0287 706.101 55.4794 704.48 56.6314C704.224 55.6074 703.797 54.4554 703.2 53.1754C702.645 51.8527 702.112 50.722 701.6 49.7834C703.051 48.9727 704.501 47.9487 705.952 46.7114C707.445 45.4314 708.832 44.0874 710.112 42.6794C711.392 41.2287 712.416 39.842 713.184 38.5194ZM704.416 54.8394H730.336V79.9274H724.384V60.5354H710.048V80.6954H704.416V54.8394ZM732.448 23.2874H743.264V29.6874H732.448V23.2874ZM739.872 23.2874H746.016V73.2074C746.016 74.7007 745.845 75.938 745.504 76.9194C745.205 77.9007 744.608 78.6474 743.712 79.1594C742.773 79.714 741.643 80.0554 740.32 80.1834C738.997 80.354 737.419 80.4394 735.584 80.4394C735.499 79.586 735.264 78.5194 734.88 77.2394C734.496 76.002 734.091 74.9567 733.664 74.1034C734.773 74.146 735.819 74.1887 736.8 74.2314C737.824 74.2314 738.528 74.21 738.912 74.1674C739.253 74.1674 739.488 74.1034 739.616 73.9754C739.787 73.8047 739.872 73.506 739.872 73.0794V23.2874ZM747.36 23.4154H757.088V29.8154H747.36V23.4154ZM754.528 23.4154H760.8V73.0154C760.8 74.6367 760.629 75.938 760.288 76.9194C759.947 77.9434 759.285 78.7327 758.304 79.2874C757.323 79.842 756.107 80.1834 754.656 80.3114C753.248 80.482 751.541 80.5674 749.536 80.5674C749.451 79.6714 749.195 78.562 748.768 77.2394C748.341 75.9594 747.893 74.8927 747.424 74.0394C748.661 74.082 749.856 74.1034 751.008 74.1034C752.203 74.1034 752.992 74.1034 753.376 74.1034C753.803 74.1034 754.101 74.018 754.272 73.8474C754.443 73.6767 754.528 73.378 754.528 72.9514V23.4154ZM731.424 36.0234L736.224 34.8074C736.779 36.0874 737.312 37.4954 737.824 39.0314C738.379 40.5247 738.869 41.9967 739.296 43.4474C739.723 44.8554 740.043 46.0927 740.256 47.1594L735.136 48.7594C734.965 47.65 734.667 46.37 734.24 44.9194C733.856 43.4687 733.408 41.954 732.896 40.3754C732.427 38.7967 731.936 37.346 731.424 36.0234ZM746.528 35.5754L751.392 34.6154C751.861 35.938 752.309 37.3887 752.736 38.9674C753.163 40.5034 753.547 41.9754 753.888 43.3834C754.229 44.7914 754.485 46.0287 754.656 47.0954L749.472 48.3754C749.344 47.266 749.109 45.986 748.768 44.5354C748.469 43.042 748.128 41.5274 747.744 39.9914C747.36 38.4127 746.955 36.9407 746.528 35.5754ZM745.824 59.3194C747.061 58.1247 748.597 56.6314 750.432 54.8394C752.267 53.0047 754.144 51.106 756.064 49.1434L758.944 54.0074C757.365 55.7567 755.701 57.5487 753.952 59.3834C752.203 61.218 750.517 62.9674 748.896 64.6314L745.824 59.3194ZM730.912 60.5354C732.235 59.2554 733.856 57.5914 735.776 55.5434C737.739 53.4954 739.723 51.362 741.728 49.1434L744.8 53.9434C743.051 55.9487 741.237 57.9967 739.36 60.0874C737.483 62.1354 735.669 64.034 733.92 65.7834L730.912 60.5354Z" fill="url(#paint7_linear_112_3822)"/>
<path d="M653.344 27.6394L658.144 20.9834C661.088 23.1167 663.627 25.378 665.76 27.7674C667.893 30.1567 669.792 32.6314 671.456 35.1914C673.163 37.7514 674.72 40.354 676.128 42.9994C677.579 45.602 679.008 48.2047 680.416 50.8074C681.867 53.3674 683.424 55.8634 685.088 58.2954C686.752 60.7274 688.672 63.0527 690.848 65.2714C693.067 67.4474 695.648 69.474 698.592 71.3514C698.208 72.034 697.739 72.93 697.184 74.0394C696.672 75.106 696.181 76.194 695.712 77.3034C695.285 78.4127 695.008 79.3727 694.88 80.1834C691.765 78.434 689.035 76.4074 686.688 74.1034C684.341 71.7994 682.251 69.3247 680.416 66.6794C678.581 63.9914 676.896 61.218 675.36 58.3594C673.824 55.5007 672.309 52.642 670.816 49.7834C669.323 46.9247 667.744 44.1514 666.08 41.4634C664.416 38.7327 662.539 36.194 660.448 33.8474C658.4 31.5007 656.032 29.4314 653.344 27.6394ZM663.712 36.0234L672.544 37.5594C671.008 44.2154 668.981 50.2314 666.464 55.6074C663.989 60.9407 660.981 65.6554 657.44 69.7514C653.899 73.8047 649.781 77.218 645.088 79.9914C644.619 79.4367 643.957 78.754 643.104 77.9434C642.293 77.1754 641.419 76.386 640.48 75.5754C639.541 74.8074 638.731 74.1887 638.048 73.7194C645.088 70.2634 650.677 65.3354 654.816 58.9354C658.955 52.5354 661.92 44.898 663.712 36.0234Z" fill="url(#paint8_linear_112_3822)"/>
<path d="M574.24 27.7034H595.68V34.6154H574.24V27.7034ZM584.928 38.6474H591.392V80.5674H584.928V38.6474ZM574.048 63.1594C576.779 62.7327 580.064 62.1567 583.904 61.4314C587.744 60.6634 591.627 59.9167 595.552 59.1914L596.128 65.5274C592.587 66.3807 589.024 67.234 585.44 68.0874C581.856 68.898 578.571 69.6234 575.584 70.2634L574.048 63.1594ZM576.032 55.3514C575.904 54.9247 575.712 54.3487 575.456 53.6234C575.2 52.8554 574.923 52.0874 574.624 51.3194C574.368 50.5087 574.112 49.826 573.856 49.2714C574.496 49.1007 575.029 48.5674 575.456 47.6714C575.883 46.7327 576.331 45.538 576.8 44.0874C577.013 43.4047 577.312 42.274 577.696 40.6954C578.123 39.074 578.549 37.1754 578.976 34.9994C579.445 32.8234 579.872 30.498 580.256 28.0234C580.683 25.5487 580.96 23.0954 581.088 20.6634L588.064 21.6874C587.595 25.186 586.933 28.7487 586.08 32.3754C585.227 35.9594 584.288 39.4154 583.264 42.7434C582.24 46.0287 581.173 48.994 580.064 51.6394V51.7674C580.064 51.7674 579.851 51.8954 579.424 52.1514C579.04 52.4074 578.571 52.7274 578.016 53.1114C577.504 53.4527 577.035 53.8367 576.608 54.2634C576.224 54.69 576.032 55.0527 576.032 55.3514ZM576.032 55.3514V49.2074L579.232 47.4794H595.424V54.3914H580.768C579.787 54.3914 578.805 54.4767 577.824 54.6474C576.885 54.818 576.288 55.0527 576.032 55.3514ZM601.568 35.8314H627.296V41.8474H601.568V35.8314ZM597.856 44.8554H611.616V50.6794H603.872V80.5034H597.856V44.8554ZM610.08 44.8554H616.096V73.7194C616.096 75.1274 615.968 76.2794 615.712 77.1754C615.456 78.0714 614.901 78.7754 614.048 79.2874C613.195 79.7567 612.192 80.0554 611.04 80.1834C609.931 80.3114 608.629 80.3754 607.136 80.3754C607.093 79.522 606.901 78.5194 606.56 77.3674C606.261 76.2154 605.899 75.2127 605.472 74.3594C606.325 74.402 607.115 74.4234 607.84 74.4234C608.565 74.4234 609.077 74.4234 609.376 74.4234C609.845 74.4234 610.08 74.1674 610.08 73.6554V44.8554ZM602.464 53.9434H614.624V59.3834H602.464V53.9434ZM602.4 62.6474H614.56V68.0874H602.4V62.6474ZM618.272 46.5834H623.904V70.0714H618.272V46.5834ZM626.464 44.1514H632.288V73.1434C632.288 74.6794 632.117 75.8954 631.776 76.7914C631.477 77.73 630.816 78.4554 629.792 78.9674C628.811 79.4367 627.573 79.7354 626.08 79.8634C624.629 79.9914 622.88 80.0554 620.832 80.0554C620.704 79.202 620.469 78.1994 620.128 77.0474C619.787 75.8954 619.403 74.8927 618.976 74.0394C620.384 74.082 621.707 74.1034 622.944 74.1034C624.181 74.1034 624.992 74.1034 625.376 74.1034C626.101 74.0607 626.464 73.7407 626.464 73.1434V44.1514ZM613.984 20.1514L620.192 22.9674C618.443 25.5274 616.395 27.938 614.048 30.1994C611.701 32.4607 609.184 34.53 606.496 36.4074C603.851 38.2847 601.141 39.906 598.368 41.2714C597.856 40.3754 597.152 39.3727 596.256 38.2634C595.36 37.154 594.443 36.2154 593.504 35.4474C596.107 34.3807 598.688 33.058 601.248 31.4794C603.851 29.9007 606.261 28.1514 608.48 26.2314C610.699 24.3114 612.533 22.2847 613.984 20.1514ZM617.184 23.0314C619.701 25.89 622.475 28.2794 625.504 30.1994C628.576 32.0767 631.84 33.698 635.296 35.0634C634.443 35.874 633.568 36.834 632.672 37.9434C631.819 39.01 631.179 40.034 630.752 41.0154C626.955 39.0954 623.477 36.9194 620.32 34.4874C617.205 32.0127 614.219 28.9834 611.36 25.3994L617.184 23.0314Z" fill="url(#paint9_linear_112_3822)"/>
<defs>
<filter id="filter0_f_112_3822" x="553.296" y="12.1514" width="292.992" height="100.608" filterUnits="userSpaceOnUse" color-interpolation-filters="sRGB">
<feFlood flood-opacity="0" result="BackgroundImageFix"/>
<feBlend mode="normal" in="SourceGraphic" in2="BackgroundImageFix" result="shape"/>
<feGaussianBlur stdDeviation="10" result="effect1_foregroundBlur_112_3822"/>
</filter>
<linearGradient id="paint0_linear_112_3822" x1="472" y1="73.0036" x2="928" y2="73.0033" gradientUnits="userSpaceOnUse">
<stop stop-color="white" stop-opacity="0.3"/>
<stop offset="0.495" stop-color="#CBB0F8"/>
<stop offset="1" stop-color="white" stop-opacity="0.3"/>
</linearGradient>
<linearGradient id="paint1_linear_112_3822" x1="831.117" y1="58.7451" x2="-242.02" y2="58.7453" gradientUnits="userSpaceOnUse">
<stop stop-color="#F4439F"/>
<stop offset="1" stop-color="#7C3AED"/>
</linearGradient>
<linearGradient id="paint2_linear_112_3822" x1="1113.47" y1="59.1733" x2="19.4485" y2="59.1735" gradientUnits="userSpaceOnUse">
<stop stop-color="#F4439F"/>
<stop offset="1" stop-color="#7C3AED"/>
</linearGradient>
<linearGradient id="paint3_linear_112_3822" x1="1367.04" y1="59.298" x2="297.305" y2="59.2982" gradientUnits="userSpaceOnUse">
<stop stop-color="#F4439F"/>
<stop offset="1" stop-color="#7C3AED"/>
</linearGradient>
<linearGradient id="paint4_linear_112_3822" x1="827.44" y1="59.4994" x2="571.44" y2="59.4994" gradientUnits="userSpaceOnUse">
<stop stop-color="#F4439F"/>
<stop offset="1" stop-color="#7C3AED"/>
</linearGradient>
<linearGradient id="paint5_linear_112_3822" x1="700" y1="81" x2="700" y2="119" gradientUnits="userSpaceOnUse">
<stop offset="0.0001" stop-color="white" stop-opacity="0.1"/>
<stop offset="1" stop-color="white" stop-opacity="0"/>
</linearGradient>
<linearGradient id="paint6_linear_112_3822" x1="831.677" y1="-0.809456" x2="145.244" y2="552.283" gradientUnits="userSpaceOnUse">
<stop stop-color="#F4439F"/>
<stop offset="1" stop-color="#7C3AED"/>
</linearGradient>
<linearGradient id="paint7_linear_112_3822" x1="1114.03" y1="0.126756" x2="430.874" y2="567.348" gradientUnits="userSpaceOnUse">
<stop stop-color="#F4439F"/>
<stop offset="1" stop-color="#7C3AED"/>
</linearGradient>
<linearGradient id="paint8_linear_112_3822" x1="1367.6" y1="-0.307924" x2="681.051" y2="550.526" gradientUnits="userSpaceOnUse">
<stop stop-color="#F4439F"/>
<stop offset="1" stop-color="#7C3AED"/>
</linearGradient>
<linearGradient id="paint9_linear_112_3822" x1="828" y1="0.999337" x2="567.985" y2="52.1112" gradientUnits="userSpaceOnUse">
<stop stop-color="#F4439F"/>
<stop offset="1" stop-color="#7C3AED"/>
</linearGradient>
</defs>
</svg>
