<svg width="1400" height="120" viewBox="0 0 1400 120" fill="none" xmlns="http://www.w3.org/2000/svg">
<path d="M472 65H928V81H472V65Z" fill="url(#paint0_linear_112_3830)"/>
<mask id="mask0_112_3830" style="mask-type:alpha" maskUnits="userSpaceOnUse" x="472" y="81" width="456" height="38">
<path d="M472 81H928V119H472V81Z" fill="#C4C4C4"/>
</mask>
<g mask="url(#mask0_112_3830)">
<g filter="url(#filter0_f_112_3830)">
<path d="M768.24 52.1838H786.416V57.9438H768.24V52.1838ZM768.24 60.8238H786.416V66.6478H768.24V60.8238ZM765.424 43.2238H787.696V49.3038H765.424V43.2238ZM771.44 69.7198H786.416V89.1758H771.44V83.0318H779.824V75.7998H771.44V69.7198ZM768.048 69.7198H774.576V91.9278H768.048V69.7198ZM771.056 35.1598L777.008 32.3438C777.904 33.6665 778.779 35.1385 779.632 36.7598C780.528 38.3385 781.232 39.7252 781.744 40.9198L775.6 44.2478C775.173 43.0532 774.512 41.6025 773.616 39.8958C772.72 38.1465 771.867 36.5678 771.056 35.1598ZM788.016 80.4078H824.944V85.9758H788.016V80.4078ZM790.576 53.2718H822.384V58.7118H790.576V53.2718ZM789.872 71.9598H823.152V77.5918H789.872V71.9598ZM787.888 61.4638H824.944V67.3518H787.888V61.4638ZM802.416 49.5598H809.712V63.8958H802.416V49.5598ZM802.416 74.0078H809.712V92.7598H802.416V74.0078ZM811.376 66.9678L818.224 68.6318C817.456 69.7838 816.688 70.8718 815.92 71.8958C815.152 72.8772 814.469 73.7305 813.872 74.4558L808.496 72.8558C809.008 72.0025 809.52 71.0212 810.032 69.9118C810.587 68.8025 811.035 67.8212 811.376 66.9678ZM794.416 68.4398L800.368 66.9678C800.837 67.6932 801.264 68.5252 801.648 69.4638C802.075 70.3598 802.373 71.1705 802.544 71.8958L796.336 73.6878C796.208 73.0052 795.952 72.1732 795.568 71.1918C795.227 70.2105 794.843 69.2932 794.416 68.4398ZM813.552 40.2158V45.2718H817.072V40.2158H813.552ZM804.592 40.2158V45.2718H808.048V40.2158H804.592ZM795.76 40.2158V45.2718H799.216V40.2158H795.76ZM789.616 34.7758H823.536V50.7758H789.616V34.7758Z" fill="url(#paint1_linear_112_3830)" fill-opacity="0.7"/>
<path d="M702.064 48.1518H730.352V53.7198H702.064V48.1518ZM707.376 75.7358H725.808V80.6638H707.376V75.7358ZM707.504 84.0558H725.36V89.7518H707.504V84.0558ZM713.712 38.8718H720.112V65.6238H713.712V38.8718ZM714.16 70.4238H719.344V86.9998H714.16V70.4238ZM726.704 32.9198L730.544 38.1678C728.069 38.6798 725.296 39.1278 722.224 39.5118C719.195 39.8958 716.101 40.1945 712.944 40.4078C709.787 40.6212 706.757 40.7705 703.856 40.8558C703.771 40.1305 703.557 39.2772 703.216 38.2958C702.875 37.3145 702.533 36.4825 702.192 35.7998C704.325 35.6718 706.501 35.5225 708.72 35.3518C710.981 35.1385 713.179 34.9252 715.312 34.7118C717.488 34.4985 719.536 34.2425 721.456 33.9438C723.419 33.6025 725.168 33.2612 726.704 32.9198ZM704.496 42.1998L709.36 40.9198C709.787 41.9012 710.235 42.9892 710.704 44.1838C711.173 45.3358 711.515 46.3172 711.728 47.1278L706.544 48.6638C706.331 47.8532 706.032 46.8292 705.648 45.5918C705.264 44.3545 704.88 43.2238 704.496 42.1998ZM724.016 40.0878L729.52 41.6878C728.837 43.2238 728.155 44.7598 727.472 46.2958C726.832 47.7892 726.213 49.0905 725.616 50.1998L720.944 48.7278C721.499 47.5332 722.053 46.1038 722.608 44.4398C723.205 42.7758 723.675 41.3252 724.016 40.0878ZM712.496 50.8398L716.784 53.3358C715.76 55.1705 714.501 57.0905 713.008 59.0958C711.557 61.1012 710 62.9785 708.336 64.7278C706.672 66.4772 704.987 67.9065 703.28 69.0158C703.024 68.0345 702.597 66.8825 702 65.5598C701.445 64.2372 700.912 63.1492 700.4 62.2958C701.893 61.4425 703.408 60.3758 704.944 59.0958C706.48 57.7732 707.909 56.4078 709.232 54.9998C710.555 53.5492 711.643 52.1625 712.496 50.8398ZM703.984 66.9678H729.968V91.9278H724.08V72.6638H709.68V92.6958H703.984V66.9678ZM731.248 35.5438H741.36V42.0078H731.248V35.5438ZM739.056 35.5438H745.328V84.8238C745.328 86.4025 745.157 87.7038 744.816 88.7278C744.517 89.7945 743.877 90.6265 742.896 91.2238C741.915 91.7785 740.699 92.1198 739.248 92.2478C737.84 92.4185 736.133 92.5038 734.128 92.5038C734.043 91.5652 733.808 90.4132 733.424 89.0478C733.04 87.7252 732.635 86.6158 732.208 85.7198C733.445 85.7625 734.619 85.8052 735.728 85.8478C736.837 85.8478 737.605 85.8478 738.032 85.8478C738.715 85.8052 739.056 85.4212 739.056 84.6958V35.5438ZM746.608 35.5438H757.424V42.0078H746.608V35.5438ZM754.032 35.5438H760.304V84.7598C760.304 86.3812 760.133 87.7038 759.792 88.7278C759.451 89.7518 758.768 90.5412 757.744 91.0958C756.805 91.6932 755.589 92.0558 754.096 92.1838C752.645 92.3118 750.853 92.3758 748.72 92.3758C748.635 91.4798 748.4 90.3492 748.016 88.9838C747.632 87.6612 747.227 86.5732 746.8 85.7198C748.123 85.7625 749.36 85.8052 750.512 85.8478C751.707 85.8478 752.517 85.8478 752.944 85.8478C753.371 85.8052 753.648 85.6985 753.776 85.5278C753.947 85.3572 754.032 85.0585 754.032 84.6318V35.5438ZM730.224 48.5998L735.152 46.8078C735.707 48.1305 736.24 49.5812 736.752 51.1598C737.307 52.7385 737.819 54.2532 738.288 55.7038C738.757 57.1545 739.099 58.4132 739.312 59.4798L734.064 61.6558C733.893 60.5465 733.595 59.2452 733.168 57.7518C732.741 56.2158 732.272 54.6585 731.76 53.0798C731.291 51.4585 730.779 49.9652 730.224 48.5998ZM745.648 48.5358L750.704 47.1918C751.173 48.5145 751.6 49.9438 751.984 51.4798C752.411 52.9732 752.795 54.4238 753.136 55.8318C753.52 57.2398 753.797 58.4772 753.968 59.5438L748.592 61.2718C748.464 60.2052 748.229 58.9465 747.888 57.4958C747.589 56.0025 747.248 54.4878 746.864 52.9518C746.48 51.3732 746.075 49.9012 745.648 48.5358ZM744.496 73.3678C745.435 72.3012 746.587 70.9572 747.952 69.3358C749.317 67.7145 750.725 65.9865 752.176 64.1518L755.76 69.2718C754.608 70.8932 753.371 72.5358 752.048 74.1998C750.725 75.8638 749.381 77.4638 748.016 78.9998L744.496 73.3678ZM729.392 74.3918C730.373 73.2825 731.547 71.9172 732.912 70.2958C734.32 68.6318 735.771 66.8612 737.264 64.9838L740.848 70.1678C739.611 71.8318 738.309 73.5172 736.944 75.2238C735.579 76.8878 734.192 78.5092 732.784 80.0878L729.392 74.3918ZM716.656 54.6158L720.816 50.9678C722.181 52.1625 723.547 53.4852 724.912 54.9358C726.277 56.3438 727.557 57.7518 728.752 59.1598C729.947 60.5252 730.885 61.8052 731.568 62.9998L727.024 67.1598C726.384 65.9652 725.509 64.6425 724.4 63.1918C723.291 61.6985 722.053 60.2052 720.688 58.7118C719.323 57.1758 717.979 55.8105 716.656 54.6158Z" fill="url(#paint2_linear_112_3830)" fill-opacity="0.7"/>
<path d="M650.096 36.1838H668.272V43.9918H650.096V36.1838ZM664.496 36.1838H672.432C672.432 38.2318 672.517 40.5572 672.688 43.1598C672.859 45.7198 673.221 48.4718 673.776 51.4158C674.331 54.3172 675.163 57.3038 676.272 60.3758C677.381 63.4478 678.853 66.4985 680.688 69.5278C682.565 72.5145 684.912 75.3945 687.728 78.1678C690.544 80.9412 693.915 83.5012 697.84 85.8478C697.285 86.2745 696.603 86.8932 695.792 87.7038C694.981 88.5145 694.192 89.3465 693.424 90.1998C692.699 91.0958 692.101 91.8852 691.632 92.5678C687.621 90.0932 684.144 87.3198 681.2 84.2478C678.256 81.1332 675.781 77.8478 673.776 74.3918C671.771 70.8932 670.149 67.3732 668.912 63.8318C667.675 60.2478 666.736 56.7705 666.096 53.3998C665.456 49.9865 665.029 46.8078 664.816 43.8638C664.603 40.9198 664.496 38.3598 664.496 36.1838ZM661.744 50.2638L670.512 51.8638C669.061 58.1785 667.12 63.9172 664.688 69.0798C662.256 74.2425 659.333 78.7865 655.92 82.7118C652.549 86.6372 648.645 89.9438 644.208 92.6318C643.739 92.0772 643.077 91.3945 642.224 90.5838C641.371 89.8158 640.475 89.0265 639.536 88.2158C638.64 87.4478 637.851 86.8292 637.168 86.3598C643.867 82.9892 649.2 78.2532 653.168 72.1518C657.136 66.0078 659.995 58.7118 661.744 50.2638Z" fill="url(#paint3_linear_112_3830)" fill-opacity="0.7"/>
<path d="M608.048 47.5118H624.432V53.1438H608.048V47.5118ZM602.928 65.9438H612.912V71.1918H602.928V65.9438ZM602.864 75.0958H612.848V80.3438H602.864V75.0958ZM618.928 58.1358H623.92V81.4318H618.928V58.1358ZM611.312 56.8558H616.816V85.9758C616.816 87.2132 616.667 88.2372 616.368 89.0478C616.112 89.9012 615.6 90.5838 614.832 91.0958C614.021 91.5652 613.061 91.8638 611.952 91.9918C610.885 92.1198 609.605 92.1838 608.112 92.1838C608.027 91.3732 607.813 90.4132 607.472 89.3038C607.131 88.2372 606.747 87.3412 606.32 86.6158C607.301 86.6585 608.176 86.6798 608.944 86.6798C609.712 86.6372 610.245 86.6158 610.544 86.6158C611.056 86.6158 611.312 86.3598 611.312 85.8478V56.8558ZM626.224 55.7038H631.6V85.6558C631.6 87.0212 631.451 88.1305 631.152 88.9838C630.853 89.8372 630.235 90.4985 629.296 90.9678C628.4 91.4372 627.269 91.7145 625.904 91.7998C624.539 91.9278 622.896 91.9918 620.976 91.9918C620.933 91.1812 620.741 90.2638 620.4 89.2398C620.059 88.2158 619.696 87.2985 619.312 86.4878C620.635 86.5305 621.851 86.5518 622.96 86.5518C624.069 86.5518 624.837 86.5518 625.264 86.5518C625.648 86.5092 625.904 86.4238 626.032 86.2958C626.16 86.1678 626.224 85.9332 626.224 85.5918V55.7038ZM614.448 32.2158L620.592 34.4558C619.227 37.3145 617.563 39.9812 615.6 42.4558C613.68 44.9305 611.568 47.1918 609.264 49.2398C607.003 51.2452 604.592 53.0372 602.032 54.6158C601.52 53.6772 600.816 52.7172 599.92 51.7358C599.067 50.7118 598.192 49.8372 597.296 49.1118C599.6 47.8745 601.84 46.4025 604.016 44.6958C606.235 42.9892 608.24 41.0905 610.032 38.9998C611.824 36.8665 613.296 34.6052 614.448 32.2158ZM618.672 35.0958C620.763 38.2105 623.109 40.8132 625.712 42.9038C628.357 44.9945 631.237 46.8292 634.352 48.4078C633.541 49.1332 632.709 50.0078 631.856 51.0318C631.045 52.0132 630.405 52.9518 629.936 53.8478C626.523 51.7572 623.451 49.3892 620.72 46.7438C618.032 44.0985 615.515 40.8558 613.168 37.0158L618.672 35.0958ZM603.056 56.8558H613.104V62.1038H603.056V56.8558ZM599.984 56.8558H605.616V70.6158C605.616 72.8772 605.509 75.3305 605.296 77.9758C605.125 80.5785 604.72 83.1598 604.08 85.7198C603.483 88.2798 602.587 90.5838 601.392 92.6318C601.008 92.2905 600.517 91.8852 599.92 91.4158C599.323 90.9892 598.704 90.5625 598.064 90.1358C597.467 89.7518 596.933 89.4745 596.464 89.3038C597.531 87.4692 598.299 85.4852 598.768 83.3518C599.28 81.1758 599.6 78.9998 599.728 76.8238C599.899 74.6052 599.984 72.5358 599.984 70.6158V56.8558ZM574.192 38.7438H598.448V45.2078H574.192V38.7438ZM573.552 76.3758H598.448V82.9038H573.552V76.3758ZM582.96 32.6638H589.424V51.4798H582.96V32.6638ZM583.664 51.3518H588.72V69.1438H589.68V92.6958H582.768V69.1438H583.664V51.3518ZM580.848 63.1278V67.1598H591.6V63.1278H580.848ZM580.848 54.1038V58.0718H591.6V54.1038H580.848ZM575.28 48.7918H597.36V72.5358H575.28V48.7918Z" fill="url(#paint4_linear_112_3830)" fill-opacity="0.7"/>
</g>
</g>
<path d="M472 81H928V107C928 113.627 922.627 119 916 119H484C477.373 119 472 113.627 472 107V81Z" fill="url(#paint5_linear_112_3830)"/>
<path d="M768.8 40.1838H786.976V45.9438H768.8V40.1838ZM768.8 48.8238H786.976V54.6478H768.8V48.8238ZM765.984 31.2238H788.256V37.3038H765.984V31.2238ZM772 57.7198H786.976V77.1758H772V71.0318H780.384V63.7998H772V57.7198ZM768.608 57.7198H775.136V79.9278H768.608V57.7198ZM771.616 23.1598L777.568 20.3438C778.464 21.6665 779.339 23.1385 780.192 24.7598C781.088 26.3385 781.792 27.7252 782.304 28.9198L776.16 32.2478C775.733 31.0532 775.072 29.6025 774.176 27.8958C773.28 26.1465 772.427 24.5678 771.616 23.1598ZM788.576 68.4078H825.504V73.9758H788.576V68.4078ZM791.136 41.2718H822.944V46.7118H791.136V41.2718ZM790.432 59.9598H823.712V65.5918H790.432V59.9598ZM788.448 49.4638H825.504V55.3518H788.448V49.4638ZM802.976 37.5598H810.272V51.8958H802.976V37.5598ZM802.976 62.0078H810.272V80.7598H802.976V62.0078ZM811.936 54.9678L818.784 56.6318C818.016 57.7838 817.248 58.8718 816.48 59.8958C815.712 60.8772 815.029 61.7305 814.432 62.4558L809.056 60.8558C809.568 60.0025 810.08 59.0212 810.592 57.9118C811.147 56.8025 811.595 55.8212 811.936 54.9678ZM794.976 56.4398L800.928 54.9678C801.397 55.6932 801.824 56.5252 802.208 57.4638C802.635 58.3598 802.933 59.1705 803.104 59.8958L796.896 61.6878C796.768 61.0052 796.512 60.1732 796.128 59.1918C795.787 58.2105 795.403 57.2932 794.976 56.4398ZM814.112 28.2158V33.2718H817.632V28.2158H814.112ZM805.152 28.2158V33.2718H808.608V28.2158H805.152ZM796.32 28.2158V33.2718H799.776V28.2158H796.32ZM790.176 22.7758H824.096V38.7758H790.176V22.7758Z" fill="url(#paint6_linear_112_3830)"/>
<path d="M702.624 36.1518H730.912V41.7198H702.624V36.1518ZM707.936 63.7358H726.368V68.6638H707.936V63.7358ZM708.064 72.0558H725.92V77.7518H708.064V72.0558ZM714.272 26.8718H720.672V53.6238H714.272V26.8718ZM714.72 58.4238H719.904V74.9998H714.72V58.4238ZM727.264 20.9198L731.104 26.1678C728.629 26.6798 725.856 27.1278 722.784 27.5118C719.755 27.8958 716.661 28.1945 713.504 28.4078C710.347 28.6212 707.317 28.7705 704.416 28.8558C704.331 28.1305 704.117 27.2772 703.776 26.2958C703.435 25.3145 703.093 24.4825 702.752 23.7998C704.885 23.6718 707.061 23.5225 709.28 23.3518C711.541 23.1385 713.739 22.9252 715.872 22.7118C718.048 22.4985 720.096 22.2425 722.016 21.9438C723.979 21.6025 725.728 21.2612 727.264 20.9198ZM705.056 30.1998L709.92 28.9198C710.347 29.9012 710.795 30.9892 711.264 32.1838C711.733 33.3358 712.075 34.3172 712.288 35.1278L707.104 36.6638C706.891 35.8532 706.592 34.8292 706.208 33.5918C705.824 32.3545 705.44 31.2238 705.056 30.1998ZM724.576 28.0878L730.08 29.6878C729.397 31.2238 728.715 32.7598 728.032 34.2958C727.392 35.7892 726.773 37.0905 726.176 38.1998L721.504 36.7278C722.059 35.5332 722.613 34.1038 723.168 32.4398C723.765 30.7758 724.235 29.3252 724.576 28.0878ZM713.056 38.8398L717.344 41.3358C716.32 43.1705 715.061 45.0905 713.568 47.0958C712.117 49.1012 710.56 50.9785 708.896 52.7278C707.232 54.4772 705.547 55.9065 703.84 57.0158C703.584 56.0345 703.157 54.8825 702.56 53.5598C702.005 52.2372 701.472 51.1492 700.96 50.2958C702.453 49.4425 703.968 48.3758 705.504 47.0958C707.04 45.7732 708.469 44.4078 709.792 42.9998C711.115 41.5492 712.203 40.1625 713.056 38.8398ZM704.544 54.9678H730.528V79.9278H724.64V60.6638H710.24V80.6958H704.544V54.9678ZM731.808 23.5438H741.92V30.0078H731.808V23.5438ZM739.616 23.5438H745.888V72.8238C745.888 74.4025 745.717 75.7038 745.376 76.7278C745.077 77.7945 744.437 78.6265 743.456 79.2238C742.475 79.7785 741.259 80.1198 739.808 80.2478C738.4 80.4185 736.693 80.5038 734.688 80.5038C734.603 79.5652 734.368 78.4132 733.984 77.0478C733.6 75.7252 733.195 74.6158 732.768 73.7198C734.005 73.7625 735.179 73.8052 736.288 73.8478C737.397 73.8478 738.165 73.8478 738.592 73.8478C739.275 73.8052 739.616 73.4212 739.616 72.6958V23.5438ZM747.168 23.5438H757.984V30.0078H747.168V23.5438ZM754.592 23.5438H760.864V72.7598C760.864 74.3812 760.693 75.7038 760.352 76.7278C760.011 77.7518 759.328 78.5412 758.304 79.0958C757.365 79.6932 756.149 80.0558 754.656 80.1838C753.205 80.3118 751.413 80.3758 749.28 80.3758C749.195 79.4798 748.96 78.3492 748.576 76.9838C748.192 75.6612 747.787 74.5732 747.36 73.7198C748.683 73.7625 749.92 73.8052 751.072 73.8478C752.267 73.8478 753.077 73.8478 753.504 73.8478C753.931 73.8052 754.208 73.6985 754.336 73.5278C754.507 73.3572 754.592 73.0585 754.592 72.6318V23.5438ZM730.784 36.5998L735.712 34.8078C736.267 36.1305 736.8 37.5812 737.312 39.1598C737.867 40.7385 738.379 42.2532 738.848 43.7038C739.317 45.1545 739.659 46.4132 739.872 47.4798L734.624 49.6558C734.453 48.5465 734.155 47.2452 733.728 45.7518C733.301 44.2158 732.832 42.6585 732.32 41.0798C731.851 39.4585 731.339 37.9652 730.784 36.5998ZM746.208 36.5358L751.264 35.1918C751.733 36.5145 752.16 37.9438 752.544 39.4798C752.971 40.9732 753.355 42.4238 753.696 43.8318C754.08 45.2398 754.357 46.4772 754.528 47.5438L749.152 49.2718C749.024 48.2052 748.789 46.9465 748.448 45.4958C748.149 44.0025 747.808 42.4878 747.424 40.9518C747.04 39.3732 746.635 37.9012 746.208 36.5358ZM745.056 61.3678C745.995 60.3012 747.147 58.9572 748.512 57.3358C749.877 55.7145 751.285 53.9865 752.736 52.1518L756.32 57.2718C755.168 58.8932 753.931 60.5358 752.608 62.1998C751.285 63.8638 749.941 65.4638 748.576 66.9998L745.056 61.3678ZM729.952 62.3918C730.933 61.2825 732.107 59.9172 733.472 58.2958C734.88 56.6318 736.331 54.8612 737.824 52.9838L741.408 58.1678C740.171 59.8318 738.869 61.5172 737.504 63.2238C736.139 64.8878 734.752 66.5092 733.344 68.0878L729.952 62.3918ZM717.216 42.6158L721.376 38.9678C722.741 40.1625 724.107 41.4852 725.472 42.9358C726.837 44.3438 728.117 45.7518 729.312 47.1598C730.507 48.5252 731.445 49.8052 732.128 50.9998L727.584 55.1598C726.944 53.9652 726.069 52.6425 724.96 51.1918C723.851 49.6985 722.613 48.2052 721.248 46.7118C719.883 45.1758 718.539 43.8105 717.216 42.6158Z" fill="url(#paint7_linear_112_3830)"/>
<path d="M650.656 24.1838H668.832V31.9918H650.656V24.1838ZM665.056 24.1838H672.992C672.992 26.2318 673.077 28.5572 673.248 31.1598C673.419 33.7198 673.781 36.4718 674.336 39.4158C674.891 42.3172 675.723 45.3038 676.832 48.3758C677.941 51.4478 679.413 54.4985 681.248 57.5278C683.125 60.5145 685.472 63.3945 688.288 66.1678C691.104 68.9412 694.475 71.5012 698.4 73.8478C697.845 74.2745 697.163 74.8932 696.352 75.7038C695.541 76.5145 694.752 77.3465 693.984 78.1998C693.259 79.0958 692.661 79.8852 692.192 80.5678C688.181 78.0932 684.704 75.3198 681.76 72.2478C678.816 69.1332 676.341 65.8478 674.336 62.3918C672.331 58.8932 670.709 55.3732 669.472 51.8318C668.235 48.2478 667.296 44.7705 666.656 41.3998C666.016 37.9865 665.589 34.8078 665.376 31.8638C665.163 28.9198 665.056 26.3598 665.056 24.1838ZM662.304 38.2638L671.072 39.8638C669.621 46.1785 667.68 51.9172 665.248 57.0798C662.816 62.2425 659.893 66.7865 656.48 70.7118C653.109 74.6372 649.205 77.9438 644.768 80.6318C644.299 80.0772 643.637 79.3945 642.784 78.5838C641.931 77.8158 641.035 77.0265 640.096 76.2158C639.2 75.4478 638.411 74.8292 637.728 74.3598C644.427 70.9892 649.76 66.2532 653.728 60.1518C657.696 54.0078 660.555 46.7118 662.304 38.2638Z" fill="url(#paint8_linear_112_3830)"/>
<path d="M608.608 35.5118H624.992V41.1438H608.608V35.5118ZM603.488 53.9438H613.472V59.1918H603.488V53.9438ZM603.424 63.0958H613.408V68.3438H603.424V63.0958ZM619.488 46.1358H624.48V69.4318H619.488V46.1358ZM611.872 44.8558H617.376V73.9758C617.376 75.2132 617.227 76.2372 616.928 77.0478C616.672 77.9012 616.16 78.5838 615.392 79.0958C614.581 79.5652 613.621 79.8638 612.512 79.9918C611.445 80.1198 610.165 80.1838 608.672 80.1838C608.587 79.3732 608.373 78.4132 608.032 77.3038C607.691 76.2372 607.307 75.3412 606.88 74.6158C607.861 74.6585 608.736 74.6798 609.504 74.6798C610.272 74.6372 610.805 74.6158 611.104 74.6158C611.616 74.6158 611.872 74.3598 611.872 73.8478V44.8558ZM626.784 43.7038H632.16V73.6558C632.16 75.0212 632.011 76.1305 631.712 76.9838C631.413 77.8372 630.795 78.4985 629.856 78.9678C628.96 79.4372 627.829 79.7145 626.464 79.7998C625.099 79.9278 623.456 79.9918 621.536 79.9918C621.493 79.1812 621.301 78.2638 620.96 77.2398C620.619 76.2158 620.256 75.2985 619.872 74.4878C621.195 74.5305 622.411 74.5518 623.52 74.5518C624.629 74.5518 625.397 74.5518 625.824 74.5518C626.208 74.5092 626.464 74.4238 626.592 74.2958C626.72 74.1678 626.784 73.9332 626.784 73.5918V43.7038ZM615.008 20.2158L621.152 22.4558C619.787 25.3145 618.123 27.9812 616.16 30.4558C614.24 32.9305 612.128 35.1918 609.824 37.2398C607.563 39.2452 605.152 41.0372 602.592 42.6158C602.08 41.6772 601.376 40.7172 600.48 39.7358C599.627 38.7118 598.752 37.8372 597.856 37.1118C600.16 35.8745 602.4 34.4025 604.576 32.6958C606.795 30.9892 608.8 29.0905 610.592 26.9998C612.384 24.8665 613.856 22.6052 615.008 20.2158ZM619.232 23.0958C621.323 26.2105 623.669 28.8132 626.272 30.9038C628.917 32.9945 631.797 34.8292 634.912 36.4078C634.101 37.1332 633.269 38.0078 632.416 39.0318C631.605 40.0132 630.965 40.9518 630.496 41.8478C627.083 39.7572 624.011 37.3892 621.28 34.7438C618.592 32.0985 616.075 28.8558 613.728 25.0158L619.232 23.0958ZM603.616 44.8558H613.664V50.1038H603.616V44.8558ZM600.544 44.8558H606.176V58.6158C606.176 60.8772 606.069 63.3305 605.856 65.9758C605.685 68.5785 605.28 71.1598 604.64 73.7198C604.043 76.2798 603.147 78.5838 601.952 80.6318C601.568 80.2905 601.077 79.8852 600.48 79.4158C599.883 78.9892 599.264 78.5625 598.624 78.1358C598.027 77.7518 597.493 77.4745 597.024 77.3038C598.091 75.4692 598.859 73.4852 599.328 71.3518C599.84 69.1758 600.16 66.9998 600.288 64.8238C600.459 62.6052 600.544 60.5358 600.544 58.6158V44.8558ZM574.752 26.7438H599.008V33.2078H574.752V26.7438ZM574.112 64.3758H599.008V70.9038H574.112V64.3758ZM583.52 20.6638H589.984V39.4798H583.52V20.6638ZM584.224 39.3518H589.28V57.1438H590.24V80.6958H583.328V57.1438H584.224V39.3518ZM581.408 51.1278V55.1598H592.16V51.1278H581.408ZM581.408 42.1038V46.0718H592.16V42.1038H581.408ZM575.84 36.7918H597.92V60.5358H575.84V36.7918Z" fill="url(#paint9_linear_112_3830)"/>
<defs>
<filter id="filter0_f_112_3830" x="553.552" y="12.2158" width="291.392" height="100.544" filterUnits="userSpaceOnUse" color-interpolation-filters="sRGB">
<feFlood flood-opacity="0" result="BackgroundImageFix"/>
<feBlend mode="normal" in="SourceGraphic" in2="BackgroundImageFix" result="shape"/>
<feGaussianBlur stdDeviation="10" result="effect1_foregroundBlur_112_3830"/>
</filter>
<linearGradient id="paint0_linear_112_3830" x1="472" y1="73.0036" x2="928" y2="73.0033" gradientUnits="userSpaceOnUse">
<stop stop-color="white" stop-opacity="0.3"/>
<stop offset="0.495" stop-color="#CBB0F8"/>
<stop offset="1" stop-color="white" stop-opacity="0.3"/>
</linearGradient>
<linearGradient id="paint1_linear_112_3830" x1="835.486" y1="59.4294" x2="-245.77" y2="59.4296" gradientUnits="userSpaceOnUse">
<stop stop-color="#F4439F"/>
<stop offset="1" stop-color="#7C3AED"/>
</linearGradient>
<linearGradient id="paint2_linear_112_3830" x1="1106.69" y1="59.1373" x2="32.3608" y2="59.1375" gradientUnits="userSpaceOnUse">
<stop stop-color="#F4439F"/>
<stop offset="1" stop-color="#7C3AED"/>
</linearGradient>
<linearGradient id="paint3_linear_112_3830" x1="1361.94" y1="57.2237" x2="301.211" y2="57.2239" gradientUnits="userSpaceOnUse">
<stop stop-color="#F4439F"/>
<stop offset="1" stop-color="#7C3AED"/>
</linearGradient>
<linearGradient id="paint4_linear_112_3830" x1="827.44" y1="59.4999" x2="571.44" y2="59.4999" gradientUnits="userSpaceOnUse">
<stop stop-color="#F4439F"/>
<stop offset="1" stop-color="#7C3AED"/>
</linearGradient>
<linearGradient id="paint5_linear_112_3830" x1="700" y1="81" x2="700" y2="119" gradientUnits="userSpaceOnUse">
<stop offset="0.0001" stop-color="white" stop-opacity="0.1"/>
<stop offset="1" stop-color="white" stop-opacity="0"/>
</linearGradient>
<linearGradient id="paint6_linear_112_3830" x1="836.046" y1="0.830831" x2="159.668" y2="561.209" gradientUnits="userSpaceOnUse">
<stop stop-color="#F4439F"/>
<stop offset="1" stop-color="#7C3AED"/>
</linearGradient>
<linearGradient id="paint7_linear_112_3830" x1="1107.25" y1="0.0398689" x2="425.89" y2="554.983" gradientUnits="userSpaceOnUse">
<stop stop-color="#F4439F"/>
<stop offset="1" stop-color="#7C3AED"/>
</linearGradient>
<linearGradient id="paint8_linear_112_3830" x1="1362.5" y1="-4.65045" x2="652.777" y2="534.302" gradientUnits="userSpaceOnUse">
<stop stop-color="#F4439F"/>
<stop offset="1" stop-color="#7C3AED"/>
</linearGradient>
<linearGradient id="paint9_linear_112_3830" x1="828" y1="0.99981" x2="567.985" y2="52.1117" gradientUnits="userSpaceOnUse">
<stop stop-color="#F4439F"/>
<stop offset="1" stop-color="#7C3AED"/>
</linearGradient>
</defs>
</svg>
