<svg width="1400" height="120" viewBox="0 0 1400 120" fill="none" xmlns="http://www.w3.org/2000/svg">
<path d="M472 65H928V81H472V65Z" fill="url(#paint0_linear_112_3854)"/>
<mask id="mask0_112_3854" style="mask-type:alpha" maskUnits="userSpaceOnUse" x="472" y="81" width="456" height="38">
<path d="M472 81H928V119H472V81Z" fill="#C4C4C4"/>
</mask>
<g mask="url(#mask0_112_3854)">
<g filter="url(#filter0_f_112_3854)">
<path d="M768.24 37.272L774.128 33.496C775.024 34.648 775.963 35.928 776.944 37.336C777.925 38.7013 778.821 40.0453 779.632 41.368C780.485 42.648 781.147 43.8213 781.616 44.888L775.344 49.176C774.917 48.1093 774.32 46.8933 773.552 45.528C772.784 44.12 771.931 42.6906 770.992 41.24C770.053 39.7893 769.136 38.4666 768.24 37.272ZM773.872 91.8L772.08 84.76L773.36 82.328L784.368 73.24C784.752 74.264 785.221 75.416 785.776 76.696C786.331 77.976 786.843 78.9573 787.312 79.64C784.667 81.816 782.512 83.6293 780.848 85.08C779.227 86.488 777.947 87.5973 777.008 88.408C776.112 89.2613 775.429 89.944 774.96 90.456C774.491 90.968 774.128 91.416 773.872 91.8ZM765.936 52.184H778.224V59.544H765.936V52.184ZM785.776 35.224H817.328V41.816H785.776V35.224ZM815.152 35.224H816.496L817.776 34.904L822.704 37.592C821.04 41.048 818.928 44.184 816.368 47C813.808 49.7733 810.907 52.2693 807.664 54.488C804.464 56.7066 801.029 58.6266 797.36 60.248C793.733 61.8693 790.021 63.2133 786.224 64.28C785.968 63.64 785.605 62.9146 785.136 62.104C784.709 61.2933 784.24 60.504 783.728 59.736C783.216 58.9253 782.704 58.264 782.192 57.752C785.776 56.9413 789.253 55.8746 792.624 54.552C796.037 53.1866 799.216 51.5866 802.16 49.752C805.104 47.9173 807.685 45.8693 809.904 43.608C812.123 41.3466 813.872 38.936 815.152 36.376V35.224ZM795.888 38.552C797.765 41.5386 800.197 44.2266 803.184 46.616C806.213 49.0053 809.691 51.0533 813.616 52.76C817.541 54.424 821.765 55.6826 826.288 56.536C825.776 57.048 825.221 57.688 824.624 58.456C824.027 59.224 823.451 60.0133 822.896 60.824C822.384 61.6346 821.936 62.36 821.552 63C816.859 61.848 812.528 60.248 808.56 58.2C804.592 56.152 801.029 53.6773 797.872 50.776C794.757 47.832 792.112 44.504 789.936 40.792L795.888 38.552ZM789.168 65.432H820.4V72.088H789.168V65.432ZM785.584 76.888H824.688V83.672H785.584V76.888ZM800.624 60.376H808.176V92.76H800.624V60.376ZM773.872 91.8C773.659 91.2453 773.317 90.6266 772.848 89.944C772.379 89.2613 771.867 88.5786 771.312 87.896C770.8 87.2133 770.352 86.7013 769.968 86.36C770.651 85.7626 771.355 84.8666 772.08 83.672C772.848 82.4346 773.232 80.9626 773.232 79.256V52.184H780.656V83.416C780.656 83.416 780.421 83.608 779.952 83.992C779.525 84.376 778.971 84.9093 778.288 85.592C777.605 86.232 776.923 86.9146 776.24 87.64C775.6 88.3653 775.045 89.0906 774.576 89.816C774.107 90.584 773.872 91.2453 773.872 91.8Z" fill="url(#paint1_linear_112_3854)" fill-opacity="0.7"/>
<path d="M702.064 47.768H730.16V53.336H702.064V47.768ZM707.184 75.608H725.808V80.536H707.184V75.608ZM707.376 83.928H725.36V89.624H707.376V83.928ZM713.712 38.68H720.112V65.88H713.712V38.68ZM714.224 70.296H719.408V86.872H714.224V70.296ZM726.576 32.792L730.352 37.848C727.92 38.4026 725.189 38.872 722.16 39.256C719.131 39.64 716.037 39.9386 712.88 40.152C709.765 40.3653 706.757 40.5146 703.856 40.6C703.771 39.8746 703.557 39.0426 703.216 38.104C702.917 37.1226 702.597 36.312 702.256 35.672C705.072 35.4586 707.973 35.224 710.96 34.968C713.947 34.712 716.784 34.4133 719.472 34.072C722.203 33.688 724.571 33.2613 726.576 32.792ZM719.28 51.736C719.877 52.0346 720.709 52.5466 721.776 53.272C722.885 53.9546 724.037 54.7013 725.232 55.512C726.469 56.3226 727.6 57.0906 728.624 57.816C729.648 58.4986 730.373 58.9893 730.8 59.288L726.96 65.24C726.405 64.5573 725.659 63.768 724.72 62.872C723.824 61.9333 722.821 60.9733 721.712 59.992C720.645 58.968 719.621 58.008 718.64 57.112C717.659 56.216 716.827 55.4906 716.144 54.936L719.28 51.736ZM704.368 41.816L709.296 40.536C709.723 41.56 710.149 42.6693 710.576 43.864C711.045 45.0586 711.387 46.0613 711.6 46.872L706.416 48.408C706.203 47.5546 705.904 46.5093 705.52 45.272C705.136 43.992 704.752 42.84 704.368 41.816ZM724.016 39.768L729.584 41.432C728.901 42.968 728.219 44.4826 727.536 45.976C726.896 47.4693 726.299 48.7493 725.744 49.816L721.072 48.408C721.413 47.5973 721.776 46.7013 722.16 45.72C722.544 44.696 722.885 43.672 723.184 42.648C723.525 41.5813 723.803 40.6213 724.016 39.768ZM712.624 50.52L716.976 53.016C715.952 54.808 714.736 56.7066 713.328 58.712C711.92 60.6746 710.405 62.5306 708.784 64.28C707.163 66.0293 705.541 67.48 703.92 68.632C703.664 67.608 703.237 66.456 702.64 65.176C702.085 63.8533 701.552 62.7226 701.04 61.784C702.491 60.9733 703.941 59.9493 705.392 58.712C706.885 57.432 708.272 56.088 709.552 54.68C710.832 53.2293 711.856 51.8426 712.624 50.52ZM703.856 66.84H729.776V91.928H723.824V72.536H709.488V92.696H703.856V66.84ZM731.888 35.288H742.704V41.688H731.888V35.288ZM739.312 35.288H745.456V85.208C745.456 86.7013 745.285 87.9386 744.944 88.92C744.645 89.9013 744.048 90.648 743.152 91.16C742.213 91.7146 741.083 92.056 739.76 92.184C738.437 92.3546 736.859 92.44 735.024 92.44C734.939 91.5866 734.704 90.52 734.32 89.24C733.936 88.0026 733.531 86.9573 733.104 86.104C734.213 86.1466 735.259 86.1893 736.24 86.232C737.264 86.232 737.968 86.2106 738.352 86.168C738.693 86.168 738.928 86.104 739.056 85.976C739.227 85.8053 739.312 85.5066 739.312 85.08V35.288ZM746.8 35.416H756.528V41.816H746.8V35.416ZM753.968 35.416H760.24V85.016C760.24 86.6373 760.069 87.9386 759.728 88.92C759.387 89.944 758.725 90.7333 757.744 91.288C756.763 91.8426 755.547 92.184 754.096 92.312C752.688 92.4826 750.981 92.568 748.976 92.568C748.891 91.672 748.635 90.5626 748.208 89.24C747.781 87.96 747.333 86.8933 746.864 86.04C748.101 86.0826 749.296 86.104 750.448 86.104C751.643 86.104 752.432 86.104 752.816 86.104C753.243 86.104 753.541 86.0186 753.712 85.848C753.883 85.6773 753.968 85.3786 753.968 84.952V35.416ZM730.864 48.024L735.664 46.808C736.219 48.088 736.752 49.496 737.264 51.032C737.819 52.5253 738.309 53.9973 738.736 55.448C739.163 56.856 739.483 58.0933 739.696 59.16L734.576 60.76C734.405 59.6506 734.107 58.3706 733.68 56.92C733.296 55.4693 732.848 53.9546 732.336 52.376C731.867 50.7973 731.376 49.3466 730.864 48.024ZM745.968 47.576L750.832 46.616C751.301 47.9386 751.749 49.3893 752.176 50.968C752.603 52.504 752.987 53.976 753.328 55.384C753.669 56.792 753.925 58.0293 754.096 59.096L748.912 60.376C748.784 59.2666 748.549 57.9866 748.208 56.536C747.909 55.0426 747.568 53.528 747.184 51.992C746.8 50.4133 746.395 48.9413 745.968 47.576ZM745.264 71.32C746.501 70.1253 748.037 68.632 749.872 66.84C751.707 65.0053 753.584 63.1066 755.504 61.144L758.384 66.008C756.805 67.7573 755.141 69.5493 753.392 71.384C751.643 73.2186 749.957 74.968 748.336 76.632L745.264 71.32ZM730.352 72.536C731.675 71.256 733.296 69.592 735.216 67.544C737.179 65.496 739.163 63.3626 741.168 61.144L744.24 65.944C742.491 67.9493 740.677 69.9973 738.8 72.088C736.923 74.136 735.109 76.0346 733.36 77.784L730.352 72.536Z" fill="url(#paint2_linear_112_3854)" fill-opacity="0.7"/>
<path d="M639.216 45.08H695.792V52.888H639.216V45.08ZM649.84 74.072H684.784V81.88H649.84V74.072ZM663.344 32.664H671.472V92.76H663.344V32.664ZM656.88 47.896L663.92 49.88C662.427 54.4453 660.613 58.7973 658.48 62.936C656.389 67.0746 654 70.872 651.312 74.328C648.667 77.7413 645.765 80.6853 642.608 83.16C642.181 82.52 641.627 81.816 640.944 81.048C640.304 80.28 639.621 79.5333 638.896 78.808C638.213 78.04 637.573 77.4213 636.976 76.952C639.877 74.9466 642.608 72.408 645.168 69.336C647.728 66.2213 650.011 62.8293 652.016 59.16C654.021 55.448 655.643 51.6933 656.88 47.896ZM677.744 48.088C678.981 51.8 680.581 55.4266 682.544 58.968C684.549 62.5093 686.832 65.7733 689.392 68.76C691.995 71.704 694.747 74.1573 697.648 76.12C697.008 76.6746 696.283 77.336 695.472 78.104C694.704 78.872 693.979 79.6826 693.296 80.536C692.613 81.3893 692.037 82.1786 691.568 82.904C688.496 80.5146 685.659 77.6133 683.056 74.2C680.453 70.744 678.128 66.968 676.08 62.872C674.032 58.776 672.261 54.5093 670.768 50.072L677.744 48.088Z" fill="url(#paint3_linear_112_3854)" fill-opacity="0.7"/>
<path d="M615.728 47L623.664 49.112C621.104 56.92 617.733 63.6613 613.552 69.336C609.371 74.968 604.315 79.6826 598.384 83.48C592.453 87.2773 585.563 90.328 577.712 92.632C577.456 91.992 577.051 91.224 576.496 90.328C575.941 89.432 575.344 88.536 574.704 87.64C574.107 86.744 573.552 85.9973 573.04 85.4C580.635 83.5226 587.227 80.9413 592.816 77.656C598.405 74.3706 603.077 70.2106 606.832 65.176C610.629 60.1413 613.595 54.0826 615.728 47ZM590.96 47.448C593.179 53.6773 596.229 59.3093 600.112 64.344C603.995 69.3786 608.752 73.6666 614.384 77.208C620.059 80.7066 626.629 83.3093 634.096 85.016C633.541 85.5706 632.923 86.2746 632.24 87.128C631.6 88.024 630.981 88.92 630.384 89.816C629.787 90.712 629.296 91.5013 628.912 92.184C621.061 90.0933 614.256 87.1066 608.496 83.224C602.779 79.3413 597.915 74.584 593.904 68.952C589.893 63.32 586.544 56.8773 583.856 49.624L590.96 47.448ZM574.256 43.416H632.88V50.904H574.256V43.416ZM597.808 34.392L606 31.96C606.896 33.4533 607.749 35.1173 608.56 36.952C609.413 38.7866 610.032 40.3653 610.416 41.688L601.712 44.44C601.413 43.1173 600.88 41.5173 600.112 39.64C599.387 37.72 598.619 35.9706 597.808 34.392Z" fill="url(#paint4_linear_112_3854)" fill-opacity="0.7"/>
</g>
</g>
<path d="M472 81H928V107C928 113.627 922.627 119 916 119H484C477.373 119 472 113.627 472 107V81Z" fill="url(#paint5_linear_112_3854)"/>
<path d="M768.8 25.272L774.688 21.496C775.584 22.648 776.523 23.928 777.504 25.336C778.485 26.7013 779.381 28.0453 780.192 29.368C781.045 30.648 781.707 31.8213 782.176 32.888L775.904 37.176C775.477 36.1093 774.88 34.8933 774.112 33.528C773.344 32.12 772.491 30.6906 771.552 29.24C770.613 27.7893 769.696 26.4666 768.8 25.272ZM774.432 79.8L772.64 72.76L773.92 70.328L784.928 61.24C785.312 62.264 785.781 63.416 786.336 64.696C786.891 65.976 787.403 66.9573 787.872 67.64C785.227 69.816 783.072 71.6293 781.408 73.08C779.787 74.488 778.507 75.5973 777.568 76.408C776.672 77.2613 775.989 77.944 775.52 78.456C775.051 78.968 774.688 79.416 774.432 79.8ZM766.496 40.184H778.784V47.544H766.496V40.184ZM786.336 23.224H817.888V29.816H786.336V23.224ZM815.712 23.224H817.056L818.336 22.904L823.264 25.592C821.6 29.048 819.488 32.184 816.928 35C814.368 37.7733 811.467 40.2693 808.224 42.488C805.024 44.7066 801.589 46.6266 797.92 48.248C794.293 49.8693 790.581 51.2133 786.784 52.28C786.528 51.64 786.165 50.9146 785.696 50.104C785.269 49.2933 784.8 48.504 784.288 47.736C783.776 46.9253 783.264 46.264 782.752 45.752C786.336 44.9413 789.813 43.8746 793.184 42.552C796.597 41.1866 799.776 39.5866 802.72 37.752C805.664 35.9173 808.245 33.8693 810.464 31.608C812.683 29.3466 814.432 26.936 815.712 24.376V23.224ZM796.448 26.552C798.325 29.5386 800.757 32.2266 803.744 34.616C806.773 37.0053 810.251 39.0533 814.176 40.76C818.101 42.424 822.325 43.6826 826.848 44.536C826.336 45.048 825.781 45.688 825.184 46.456C824.587 47.224 824.011 48.0133 823.456 48.824C822.944 49.6346 822.496 50.36 822.112 51C817.419 49.848 813.088 48.248 809.12 46.2C805.152 44.152 801.589 41.6773 798.432 38.776C795.317 35.832 792.672 32.504 790.496 28.792L796.448 26.552ZM789.728 53.432H820.96V60.088H789.728V53.432ZM786.144 64.888H825.248V71.672H786.144V64.888ZM801.184 48.376H808.736V80.76H801.184V48.376ZM774.432 79.8C774.219 79.2453 773.877 78.6266 773.408 77.944C772.939 77.2613 772.427 76.5786 771.872 75.896C771.36 75.2133 770.912 74.7013 770.528 74.36C771.211 73.7626 771.915 72.8666 772.64 71.672C773.408 70.4346 773.792 68.9626 773.792 67.256V40.184H781.216V71.416C781.216 71.416 780.981 71.608 780.512 71.992C780.085 72.376 779.531 72.9093 778.848 73.592C778.165 74.232 777.483 74.9146 776.8 75.64C776.16 76.3653 775.605 77.0906 775.136 77.816C774.667 78.584 774.432 79.2453 774.432 79.8Z" fill="url(#paint6_linear_112_3854)"/>
<path d="M702.624 35.768H730.72V41.336H702.624V35.768ZM707.744 63.608H726.368V68.536H707.744V63.608ZM707.936 71.928H725.92V77.624H707.936V71.928ZM714.272 26.68H720.672V53.88H714.272V26.68ZM714.784 58.296H719.968V74.872H714.784V58.296ZM727.136 20.792L730.912 25.848C728.48 26.4026 725.749 26.872 722.72 27.256C719.691 27.64 716.597 27.9386 713.44 28.152C710.325 28.3653 707.317 28.5146 704.416 28.6C704.331 27.8746 704.117 27.0426 703.776 26.104C703.477 25.1226 703.157 24.312 702.816 23.672C705.632 23.4586 708.533 23.224 711.52 22.968C714.507 22.712 717.344 22.4133 720.032 22.072C722.763 21.688 725.131 21.2613 727.136 20.792ZM719.84 39.736C720.437 40.0346 721.269 40.5466 722.336 41.272C723.445 41.9546 724.597 42.7013 725.792 43.512C727.029 44.3226 728.16 45.0906 729.184 45.816C730.208 46.4986 730.933 46.9893 731.36 47.288L727.52 53.24C726.965 52.5573 726.219 51.768 725.28 50.872C724.384 49.9333 723.381 48.9733 722.272 47.992C721.205 46.968 720.181 46.008 719.2 45.112C718.219 44.216 717.387 43.4906 716.704 42.936L719.84 39.736ZM704.928 29.816L709.856 28.536C710.283 29.56 710.709 30.6693 711.136 31.864C711.605 33.0586 711.947 34.0613 712.16 34.872L706.976 36.408C706.763 35.5546 706.464 34.5093 706.08 33.272C705.696 31.992 705.312 30.84 704.928 29.816ZM724.576 27.768L730.144 29.432C729.461 30.968 728.779 32.4826 728.096 33.976C727.456 35.4693 726.859 36.7493 726.304 37.816L721.632 36.408C721.973 35.5973 722.336 34.7013 722.72 33.72C723.104 32.696 723.445 31.672 723.744 30.648C724.085 29.5813 724.363 28.6213 724.576 27.768ZM713.184 38.52L717.536 41.016C716.512 42.808 715.296 44.7066 713.888 46.712C712.48 48.6746 710.965 50.5306 709.344 52.28C707.723 54.0293 706.101 55.48 704.48 56.632C704.224 55.608 703.797 54.456 703.2 53.176C702.645 51.8533 702.112 50.7226 701.6 49.784C703.051 48.9733 704.501 47.9493 705.952 46.712C707.445 45.432 708.832 44.088 710.112 42.68C711.392 41.2293 712.416 39.8426 713.184 38.52ZM704.416 54.84H730.336V79.928H724.384V60.536H710.048V80.696H704.416V54.84ZM732.448 23.288H743.264V29.688H732.448V23.288ZM739.872 23.288H746.016V73.208C746.016 74.7013 745.845 75.9386 745.504 76.92C745.205 77.9013 744.608 78.648 743.712 79.16C742.773 79.7146 741.643 80.056 740.32 80.184C738.997 80.3546 737.419 80.44 735.584 80.44C735.499 79.5866 735.264 78.52 734.88 77.24C734.496 76.0026 734.091 74.9573 733.664 74.104C734.773 74.1466 735.819 74.1893 736.8 74.232C737.824 74.232 738.528 74.2106 738.912 74.168C739.253 74.168 739.488 74.104 739.616 73.976C739.787 73.8053 739.872 73.5066 739.872 73.08V23.288ZM747.36 23.416H757.088V29.816H747.36V23.416ZM754.528 23.416H760.8V73.016C760.8 74.6373 760.629 75.9386 760.288 76.92C759.947 77.944 759.285 78.7333 758.304 79.288C757.323 79.8426 756.107 80.184 754.656 80.312C753.248 80.4826 751.541 80.568 749.536 80.568C749.451 79.672 749.195 78.5626 748.768 77.24C748.341 75.96 747.893 74.8933 747.424 74.04C748.661 74.0826 749.856 74.104 751.008 74.104C752.203 74.104 752.992 74.104 753.376 74.104C753.803 74.104 754.101 74.0186 754.272 73.848C754.443 73.6773 754.528 73.3786 754.528 72.952V23.416ZM731.424 36.024L736.224 34.808C736.779 36.088 737.312 37.496 737.824 39.032C738.379 40.5253 738.869 41.9973 739.296 43.448C739.723 44.856 740.043 46.0933 740.256 47.16L735.136 48.76C734.965 47.6506 734.667 46.3706 734.24 44.92C733.856 43.4693 733.408 41.9546 732.896 40.376C732.427 38.7973 731.936 37.3466 731.424 36.024ZM746.528 35.576L751.392 34.616C751.861 35.9386 752.309 37.3893 752.736 38.968C753.163 40.504 753.547 41.976 753.888 43.384C754.229 44.792 754.485 46.0293 754.656 47.096L749.472 48.376C749.344 47.2666 749.109 45.9866 748.768 44.536C748.469 43.0426 748.128 41.528 747.744 39.992C747.36 38.4133 746.955 36.9413 746.528 35.576ZM745.824 59.32C747.061 58.1253 748.597 56.632 750.432 54.84C752.267 53.0053 754.144 51.1066 756.064 49.144L758.944 54.008C757.365 55.7573 755.701 57.5493 753.952 59.384C752.203 61.2186 750.517 62.968 748.896 64.632L745.824 59.32ZM730.912 60.536C732.235 59.256 733.856 57.592 735.776 55.544C737.739 53.496 739.723 51.3626 741.728 49.144L744.8 53.944C743.051 55.9493 741.237 57.9973 739.36 60.088C737.483 62.136 735.669 64.0346 733.92 65.784L730.912 60.536Z" fill="url(#paint7_linear_112_3854)"/>
<path d="M639.776 33.08H696.352V40.888H639.776V33.08ZM650.4 62.072H685.344V69.88H650.4V62.072ZM663.904 20.664H672.032V80.76H663.904V20.664ZM657.44 35.896L664.48 37.88C662.987 42.4453 661.173 46.7973 659.04 50.936C656.949 55.0746 654.56 58.872 651.872 62.328C649.227 65.7413 646.325 68.6853 643.168 71.16C642.741 70.52 642.187 69.816 641.504 69.048C640.864 68.28 640.181 67.5333 639.456 66.808C638.773 66.04 638.133 65.4213 637.536 64.952C640.437 62.9466 643.168 60.408 645.728 57.336C648.288 54.2213 650.571 50.8293 652.576 47.16C654.581 43.448 656.203 39.6933 657.44 35.896ZM678.304 36.088C679.541 39.8 681.141 43.4266 683.104 46.968C685.109 50.5093 687.392 53.7733 689.952 56.76C692.555 59.704 695.307 62.1573 698.208 64.12C697.568 64.6746 696.843 65.336 696.032 66.104C695.264 66.872 694.539 67.6826 693.856 68.536C693.173 69.3893 692.597 70.1786 692.128 70.904C689.056 68.5146 686.219 65.6133 683.616 62.2C681.013 58.744 678.688 54.968 676.64 50.872C674.592 46.776 672.821 42.5093 671.328 38.072L678.304 36.088Z" fill="url(#paint8_linear_112_3854)"/>
<path d="M616.288 35L624.224 37.112C621.664 44.92 618.293 51.6613 614.112 57.336C609.931 62.968 604.875 67.6826 598.944 71.48C593.013 75.2773 586.123 78.328 578.272 80.632C578.016 79.992 577.611 79.224 577.056 78.328C576.501 77.432 575.904 76.536 575.264 75.64C574.667 74.744 574.112 73.9973 573.6 73.4C581.195 71.5226 587.787 68.9413 593.376 65.656C598.965 62.3706 603.637 58.2106 607.392 53.176C611.189 48.1413 614.155 42.0826 616.288 35ZM591.52 35.448C593.739 41.6773 596.789 47.3093 600.672 52.344C604.555 57.3786 609.312 61.6666 614.944 65.208C620.619 68.7066 627.189 71.3093 634.656 73.016C634.101 73.5706 633.483 74.2746 632.8 75.128C632.16 76.024 631.541 76.92 630.944 77.816C630.347 78.712 629.856 79.5013 629.472 80.184C621.621 78.0933 614.816 75.1066 609.056 71.224C603.339 67.3413 598.475 62.584 594.464 56.952C590.453 51.32 587.104 44.8773 584.416 37.624L591.52 35.448ZM574.816 31.416H633.44V38.904H574.816V31.416ZM598.368 22.392L606.56 19.96C607.456 21.4533 608.309 23.1173 609.12 24.952C609.973 26.7866 610.592 28.3653 610.976 29.688L602.272 32.44C601.973 31.1173 601.44 29.5173 600.672 27.64C599.947 25.72 599.179 23.9706 598.368 22.392Z" fill="url(#paint9_linear_112_3854)"/>
<defs>
<filter id="filter0_f_112_3854" x="553.04" y="11.96" width="293.248" height="100.8" filterUnits="userSpaceOnUse" color-interpolation-filters="sRGB">
<feFlood flood-opacity="0" result="BackgroundImageFix"/>
<feBlend mode="normal" in="SourceGraphic" in2="BackgroundImageFix" result="shape"/>
<feGaussianBlur stdDeviation="10" result="effect1_foregroundBlur_112_3854"/>
</filter>
<linearGradient id="paint0_linear_112_3854" x1="472" y1="73.0036" x2="928" y2="73.0033" gradientUnits="userSpaceOnUse">
<stop stop-color="white" stop-opacity="0.3"/>
<stop offset="0.495" stop-color="#CBB0F8"/>
<stop offset="1" stop-color="white" stop-opacity="0.3"/>
</linearGradient>
<linearGradient id="paint1_linear_112_3854" x1="831.122" y1="58.638" x2="-243.101" y2="58.6382" gradientUnits="userSpaceOnUse">
<stop stop-color="#F4439F"/>
<stop offset="1" stop-color="#7C3AED"/>
</linearGradient>
<linearGradient id="paint2_linear_112_3854" x1="1113.76" y1="59.0675" x2="18.6322" y2="59.0677" gradientUnits="userSpaceOnUse">
<stop stop-color="#F4439F"/>
<stop offset="1" stop-color="#7C3AED"/>
</linearGradient>
<linearGradient id="paint3_linear_112_3854" x1="1368.05" y1="59.1104" x2="299.489" y2="59.1106" gradientUnits="userSpaceOnUse">
<stop stop-color="#F4439F"/>
<stop offset="1" stop-color="#7C3AED"/>
</linearGradient>
<linearGradient id="paint4_linear_112_3854" x1="827.44" y1="59.5" x2="571.44" y2="59.5" gradientUnits="userSpaceOnUse">
<stop stop-color="#F4439F"/>
<stop offset="1" stop-color="#7C3AED"/>
</linearGradient>
<linearGradient id="paint5_linear_112_3854" x1="700" y1="81" x2="700" y2="119" gradientUnits="userSpaceOnUse">
<stop offset="0.0001" stop-color="white" stop-opacity="0.1"/>
<stop offset="1" stop-color="white" stop-opacity="0"/>
</linearGradient>
<linearGradient id="paint6_linear_112_3854" x1="831.682" y1="-1.06726" x2="143.391" y2="552.33" gradientUnits="userSpaceOnUse">
<stop stop-color="#F4439F"/>
<stop offset="1" stop-color="#7C3AED"/>
</linearGradient>
<linearGradient id="paint7_linear_112_3854" x1="1114.32" y1="-0.128085" x2="429.274" y2="567.441" gradientUnits="userSpaceOnUse">
<stop stop-color="#F4439F"/>
<stop offset="1" stop-color="#7C3AED"/>
</linearGradient>
<linearGradient id="paint8_linear_112_3854" x1="1368.61" y1="0.0656255" x2="688.606" y2="551.548" gradientUnits="userSpaceOnUse">
<stop stop-color="#F4439F"/>
<stop offset="1" stop-color="#7C3AED"/>
</linearGradient>
<linearGradient id="paint9_linear_112_3854" x1="828" y1="0.999959" x2="567.985" y2="52.1118" gradientUnits="userSpaceOnUse">
<stop stop-color="#F4439F"/>
<stop offset="1" stop-color="#7C3AED"/>
</linearGradient>
</defs>
</svg>
