<svg width="1400" height="120" viewBox="0 0 1400 120" fill="none" xmlns="http://www.w3.org/2000/svg">
<path d="M472 65H928V81H472V65Z" fill="url(#paint0_linear_112_4206)"/>
<mask id="mask0_112_4206" style="mask-type:alpha" maskUnits="userSpaceOnUse" x="472" y="81" width="456" height="38">
<path d="M472 81H928V119H472V81Z" fill="#C4C4C4"/>
</mask>
<g mask="url(#mask0_112_4206)">
<g filter="url(#filter0_f_112_4206)">
<path d="M768.24 52.1842H786.416V57.9442H768.24V52.1842ZM768.24 60.8242H786.416V66.6482H768.24V60.8242ZM765.424 43.2242H787.696V49.3042H765.424V43.2242ZM771.44 69.7202H786.416V89.1762H771.44V83.0322H779.824V75.8002H771.44V69.7202ZM768.048 69.7202H774.576V91.9282H768.048V69.7202ZM771.056 35.1602L777.008 32.3442C777.904 33.6669 778.779 35.1389 779.632 36.7602C780.528 38.3389 781.232 39.7256 781.744 40.9202L775.6 44.2482C775.173 43.0536 774.512 41.6029 773.616 39.8962C772.72 38.1469 771.867 36.5682 771.056 35.1602ZM788.016 80.4082H824.944V85.9762H788.016V80.4082ZM790.576 53.2722H822.384V58.7122H790.576V53.2722ZM789.872 71.9602H823.152V77.5922H789.872V71.9602ZM787.888 61.4642H824.944V67.3522H787.888V61.4642ZM802.416 49.5602H809.712V63.8962H802.416V49.5602ZM802.416 74.0082H809.712V92.7602H802.416V74.0082ZM811.376 66.9682L818.224 68.6322C817.456 69.7842 816.688 70.8722 815.92 71.8962C815.152 72.8776 814.469 73.7309 813.872 74.4562L808.496 72.8562C809.008 72.0029 809.52 71.0216 810.032 69.9122C810.587 68.8029 811.035 67.8216 811.376 66.9682ZM794.416 68.4402L800.368 66.9682C800.837 67.6936 801.264 68.5256 801.648 69.4642C802.075 70.3602 802.373 71.1709 802.544 71.8962L796.336 73.6882C796.208 73.0056 795.952 72.1736 795.568 71.1922C795.227 70.2109 794.843 69.2936 794.416 68.4402ZM813.552 40.2162V45.2722H817.072V40.2162H813.552ZM804.592 40.2162V45.2722H808.048V40.2162H804.592ZM795.76 40.2162V45.2722H799.216V40.2162H795.76ZM789.616 34.7762H823.536V50.7762H789.616V34.7762Z" fill="url(#paint1_linear_112_4206)" fill-opacity="0.7"/>
<path d="M702.064 48.1522H730.352V53.7202H702.064V48.1522ZM707.376 75.7362H725.808V80.6642H707.376V75.7362ZM707.504 84.0562H725.36V89.7522H707.504V84.0562ZM713.712 38.8722H720.112V65.6242H713.712V38.8722ZM714.16 70.4242H719.344V87.0002H714.16V70.4242ZM726.704 32.9202L730.544 38.1682C728.069 38.6802 725.296 39.1282 722.224 39.5122C719.195 39.8962 716.101 40.1949 712.944 40.4082C709.787 40.6216 706.757 40.7709 703.856 40.8562C703.771 40.1309 703.557 39.2776 703.216 38.2962C702.875 37.3149 702.533 36.4829 702.192 35.8002C704.325 35.6722 706.501 35.5229 708.72 35.3522C710.981 35.1389 713.179 34.9256 715.312 34.7122C717.488 34.4989 719.536 34.2429 721.456 33.9442C723.419 33.6029 725.168 33.2616 726.704 32.9202ZM704.496 42.2002L709.36 40.9202C709.787 41.9016 710.235 42.9896 710.704 44.1842C711.173 45.3362 711.515 46.3176 711.728 47.1282L706.544 48.6642C706.331 47.8536 706.032 46.8296 705.648 45.5922C705.264 44.3549 704.88 43.2242 704.496 42.2002ZM724.016 40.0882L729.52 41.6882C728.837 43.2242 728.155 44.7602 727.472 46.2962C726.832 47.7896 726.213 49.0909 725.616 50.2002L720.944 48.7282C721.499 47.5336 722.053 46.1042 722.608 44.4402C723.205 42.7762 723.675 41.3256 724.016 40.0882ZM712.496 50.8402L716.784 53.3362C715.76 55.1709 714.501 57.0909 713.008 59.0962C711.557 61.1016 710 62.9789 708.336 64.7282C706.672 66.4776 704.987 67.9069 703.28 69.0162C703.024 68.0349 702.597 66.8829 702 65.5602C701.445 64.2376 700.912 63.1496 700.4 62.2962C701.893 61.4429 703.408 60.3762 704.944 59.0962C706.48 57.7736 707.909 56.4082 709.232 55.0002C710.555 53.5496 711.643 52.1629 712.496 50.8402ZM703.984 66.9682H729.968V91.9282H724.08V72.6642H709.68V92.6962H703.984V66.9682ZM731.248 35.5442H741.36V42.0082H731.248V35.5442ZM739.056 35.5442H745.328V84.8242C745.328 86.4029 745.157 87.7042 744.816 88.7282C744.517 89.7949 743.877 90.6269 742.896 91.2242C741.915 91.7789 740.699 92.1202 739.248 92.2482C737.84 92.4189 736.133 92.5042 734.128 92.5042C734.043 91.5656 733.808 90.4136 733.424 89.0482C733.04 87.7256 732.635 86.6162 732.208 85.7202C733.445 85.7629 734.619 85.8056 735.728 85.8482C736.837 85.8482 737.605 85.8482 738.032 85.8482C738.715 85.8056 739.056 85.4216 739.056 84.6962V35.5442ZM746.608 35.5442H757.424V42.0082H746.608V35.5442ZM754.032 35.5442H760.304V84.7602C760.304 86.3816 760.133 87.7042 759.792 88.7282C759.451 89.7522 758.768 90.5416 757.744 91.0962C756.805 91.6936 755.589 92.0562 754.096 92.1842C752.645 92.3122 750.853 92.3762 748.72 92.3762C748.635 91.4802 748.4 90.3496 748.016 88.9842C747.632 87.6616 747.227 86.5736 746.8 85.7202C748.123 85.7629 749.36 85.8056 750.512 85.8482C751.707 85.8482 752.517 85.8482 752.944 85.8482C753.371 85.8056 753.648 85.6989 753.776 85.5282C753.947 85.3576 754.032 85.0589 754.032 84.6322V35.5442ZM730.224 48.6002L735.152 46.8082C735.707 48.1309 736.24 49.5816 736.752 51.1602C737.307 52.7389 737.819 54.2536 738.288 55.7042C738.757 57.1549 739.099 58.4136 739.312 59.4802L734.064 61.6562C733.893 60.5469 733.595 59.2456 733.168 57.7522C732.741 56.2162 732.272 54.6589 731.76 53.0802C731.291 51.4589 730.779 49.9656 730.224 48.6002ZM745.648 48.5362L750.704 47.1922C751.173 48.5149 751.6 49.9442 751.984 51.4802C752.411 52.9736 752.795 54.4242 753.136 55.8322C753.52 57.2402 753.797 58.4776 753.968 59.5442L748.592 61.2722C748.464 60.2056 748.229 58.9469 747.888 57.4962C747.589 56.0029 747.248 54.4882 746.864 52.9522C746.48 51.3736 746.075 49.9016 745.648 48.5362ZM744.496 73.3682C745.435 72.3016 746.587 70.9576 747.952 69.3362C749.317 67.7149 750.725 65.9869 752.176 64.1522L755.76 69.2722C754.608 70.8936 753.371 72.5362 752.048 74.2002C750.725 75.8642 749.381 77.4642 748.016 79.0002L744.496 73.3682ZM729.392 74.3922C730.373 73.2829 731.547 71.9176 732.912 70.2962C734.32 68.6322 735.771 66.8616 737.264 64.9842L740.848 70.1682C739.611 71.8322 738.309 73.5176 736.944 75.2242C735.579 76.8882 734.192 78.5096 732.784 80.0882L729.392 74.3922ZM716.656 54.6162L720.816 50.9682C722.181 52.1629 723.547 53.4856 724.912 54.9362C726.277 56.3442 727.557 57.7522 728.752 59.1602C729.947 60.5256 730.885 61.8056 731.568 63.0002L727.024 67.1602C726.384 65.9656 725.509 64.6429 724.4 63.1922C723.291 61.6989 722.053 60.2056 720.688 58.7122C719.323 57.1762 717.979 55.8109 716.656 54.6162Z" fill="url(#paint2_linear_112_4206)" fill-opacity="0.7"/>
<path d="M653.872 61.2722V64.8562H681.2V61.2722H653.872ZM653.872 70.3602V73.8802H681.2V70.3602H653.872ZM653.872 52.3122V55.8322H681.2V52.3122H653.872ZM645.872 46.4242H689.584V79.7682H645.872V46.4242ZM670.576 84.3762L676.272 79.3842C678.704 80.1949 681.2 81.0909 683.76 82.0722C686.32 83.0536 688.731 84.0349 690.992 85.0162C693.296 85.9976 695.259 86.8722 696.88 87.6402L689.2 92.7602C687.835 91.9496 686.128 91.0536 684.08 90.0722C682.075 89.0909 679.899 88.1096 677.552 87.1282C675.248 86.1469 672.923 85.2296 670.576 84.3762ZM640.368 35.6082H694.128V42.5842H640.368V35.6082ZM663.344 38.9362L672.688 39.9602C672.091 41.9656 671.472 43.8642 670.832 45.6562C670.192 47.4482 669.595 49.0056 669.04 50.3282L661.616 49.0482C662 47.5976 662.363 45.9336 662.704 44.0562C663.045 42.1789 663.259 40.4722 663.344 38.9362ZM657.776 78.9362L664.432 84.2482C662.512 85.2722 660.315 86.3176 657.84 87.3842C655.408 88.4509 652.912 89.4322 650.352 90.3282C647.835 91.2669 645.467 92.0562 643.248 92.6962C642.608 91.8429 641.776 90.8402 640.752 89.6882C639.771 88.5362 638.832 87.5549 637.936 86.7442C640.197 86.1896 642.565 85.4856 645.04 84.6322C647.557 83.7362 649.925 82.7976 652.144 81.8162C654.405 80.7922 656.283 79.8322 657.776 78.9362Z" fill="url(#paint3_linear_112_4206)" fill-opacity="0.7"/>
<path d="M618.032 43.3522L623.28 44.6962C622.683 46.4882 622.107 48.3229 621.552 50.2002C620.997 52.0776 620.464 53.6776 619.952 55.0002L615.664 53.7202C615.963 52.7389 616.261 51.6509 616.56 50.4562C616.901 49.2189 617.2 47.9816 617.456 46.7442C617.755 45.5069 617.947 44.3762 618.032 43.3522ZM606.832 44.6962L611.184 43.2242C611.824 44.5469 612.379 45.9976 612.848 47.5762C613.36 49.1549 613.701 50.5202 613.872 51.6722L609.328 53.2722C609.2 52.1202 608.901 50.7336 608.432 49.1122C607.963 47.4909 607.429 46.0189 606.832 44.6962ZM597.808 35.3522H627.248V42.0082H604.592V92.8242H597.808V35.3522ZM625.2 35.3522H632.048V85.2082C632.048 86.9149 631.856 88.2376 631.472 89.1762C631.131 90.1576 630.469 90.9256 629.488 91.4802C628.507 92.0349 627.291 92.3762 625.84 92.5042C624.389 92.6749 622.64 92.7602 620.592 92.7602C620.464 91.8216 620.208 90.7122 619.824 89.4322C619.483 88.1522 619.099 87.0856 618.672 86.2322C619.781 86.2749 620.869 86.3176 621.936 86.3602C623.003 86.3602 623.728 86.3602 624.112 86.3602C624.539 86.3176 624.816 86.2322 624.944 86.1042C625.115 85.9336 625.2 85.6349 625.2 85.2082V35.3522ZM605.744 53.0162H623.984V58.7122H605.744V53.0162ZM606.064 64.0882H623.728V69.9122H606.064V64.0882ZM610.992 59.9922L616.24 58.2642C616.667 59.0322 617.072 59.8856 617.456 60.8242C617.883 61.7629 618.181 62.5522 618.352 63.1922L612.912 65.1762C612.741 64.4936 612.464 63.6616 612.08 62.6802C611.696 61.6562 611.333 60.7602 610.992 59.9922ZM588.848 59.8642L593.776 58.0082C594.331 59.2882 594.864 60.6749 595.376 62.1682C595.931 63.6189 596.443 65.0482 596.912 66.4562C597.381 67.8216 597.744 68.9949 598 69.9762L592.624 72.2162C592.453 71.1496 592.155 69.9122 591.728 68.5042C591.301 67.0536 590.832 65.5816 590.32 64.0882C589.851 62.5949 589.36 61.1869 588.848 59.8642ZM582.512 75.7362L587.568 74.4562C587.952 76.5896 588.293 78.8936 588.592 81.3682C588.933 83.8429 589.168 85.9976 589.296 87.8322L583.92 89.3042C583.877 87.4269 583.707 85.2296 583.408 82.7122C583.152 80.1522 582.853 77.8269 582.512 75.7362ZM575.6 74.9042L581.168 75.8002C580.955 78.6589 580.592 81.4962 580.08 84.3122C579.611 87.1282 579.077 89.5176 578.48 91.4802C577.84 91.1389 576.965 90.7762 575.856 90.3922C574.747 90.0082 573.829 89.7309 573.104 89.5602C573.829 87.6402 574.363 85.3789 574.704 82.7762C575.088 80.1309 575.387 77.5069 575.6 74.9042ZM575.472 58.0722C575.344 57.6029 575.152 57.0056 574.896 56.2802C574.683 55.5122 574.427 54.7442 574.128 53.9762C573.872 53.1656 573.616 52.4829 573.36 51.9282C573.915 51.7576 574.469 51.3736 575.024 50.7762C575.621 50.1789 576.197 49.4109 576.752 48.4722C577.221 47.8749 577.883 46.7656 578.736 45.1442C579.632 43.4802 580.571 41.5602 581.552 39.3842C582.533 37.2082 583.387 35.0109 584.112 32.7922L590.256 35.3522C588.805 38.8082 587.099 42.2642 585.136 45.7202C583.173 49.1336 581.211 52.0989 579.248 54.6162V54.7442C579.248 54.7442 579.035 54.8509 578.608 55.0642C578.224 55.2776 577.797 55.5549 577.328 55.8962C576.859 56.2376 576.432 56.6002 576.048 56.9842C575.664 57.3682 575.472 57.7309 575.472 58.0722ZM575.472 58.0722L575.28 53.1442L578.096 51.2242L588.912 50.4562C588.699 51.3522 588.528 52.3336 588.4 53.4002C588.272 54.4669 588.187 55.3629 588.144 56.0882C585.755 56.3016 583.792 56.5149 582.256 56.7282C580.72 56.8989 579.504 57.0482 578.608 57.1762C577.755 57.3042 577.093 57.4536 576.624 57.6242C576.155 57.7522 575.771 57.9016 575.472 58.0722ZM575.856 72.9202C575.813 72.4936 575.664 71.8962 575.408 71.1282C575.152 70.3602 574.875 69.5709 574.576 68.7602C574.32 67.9496 574.064 67.2669 573.808 66.7122C574.619 66.4989 575.387 66.0296 576.112 65.3042C576.837 64.5362 577.669 63.5549 578.608 62.3602C579.12 61.7629 579.867 60.7816 580.848 59.4162C581.829 58.0082 582.896 56.3656 584.048 54.4882C585.243 52.5682 586.437 50.4989 587.632 48.2802C588.827 46.0616 589.915 43.8429 590.896 41.6242L596.464 45.2082C594.971 48.1096 593.307 51.0322 591.472 53.9762C589.637 56.8776 587.717 59.6509 585.712 62.2962C583.707 64.8989 581.701 67.2882 579.696 69.4642V69.6562C579.696 69.6562 579.504 69.7629 579.12 69.9762C578.736 70.1896 578.288 70.4669 577.776 70.8082C577.264 71.1496 576.816 71.5122 576.432 71.8962C576.048 72.2802 575.856 72.6216 575.856 72.9202ZM575.856 72.9202L575.6 67.8642L578.416 65.9442L594.672 63.7042C594.544 64.5149 594.437 65.4536 594.352 66.5202C594.309 67.5869 594.309 68.4616 594.352 69.1442C590.683 69.7416 587.696 70.2536 585.392 70.6802C583.131 71.0642 581.36 71.3842 580.08 71.6402C578.843 71.8962 577.904 72.1309 577.264 72.3442C576.667 72.5149 576.197 72.7069 575.856 72.9202ZM589.36 74.2002L594.032 72.6002C594.8 74.5202 595.504 76.6109 596.144 78.8722C596.827 81.0909 597.339 83.0109 597.68 84.6322L592.624 86.5522C592.368 84.8882 591.899 82.9042 591.216 80.6002C590.576 78.2962 589.957 76.1629 589.36 74.2002ZM607.92 67.2242H614.064V73.7522C614.064 74.4776 614.128 74.9896 614.256 75.2882C614.384 75.5869 614.704 75.7362 615.216 75.7362C615.387 75.7362 615.685 75.7362 616.112 75.7362C616.539 75.7362 616.987 75.7362 617.456 75.7362C617.925 75.7362 618.373 75.7362 618.8 75.7362C619.227 75.7362 619.547 75.7362 619.76 75.7362C620.229 75.7362 620.848 75.7149 621.616 75.6722C622.384 75.5869 622.981 75.4802 623.408 75.3522C623.493 76.1202 623.557 77.0162 623.6 78.0402C623.685 79.0216 623.771 79.8536 623.856 80.5362C623.429 80.7069 622.832 80.8136 622.064 80.8562C621.339 80.8989 620.613 80.9202 619.888 80.9202C619.632 80.9202 619.248 80.9202 618.736 80.9202C618.267 80.9202 617.755 80.9202 617.2 80.9202C616.645 80.9202 616.112 80.9202 615.6 80.9202C615.131 80.9202 614.768 80.9202 614.512 80.9202C612.72 80.9202 611.333 80.6856 610.352 80.2162C609.413 79.7042 608.773 78.9149 608.432 77.8482C608.091 76.7816 607.92 75.3949 607.92 73.6882V67.2242Z" fill="url(#paint4_linear_112_4206)" fill-opacity="0.7"/>
</g>
</g>
<path d="M472 81H928V107C928 113.627 922.627 119 916 119H484C477.373 119 472 113.627 472 107V81Z" fill="url(#paint5_linear_112_4206)"/>
<path d="M768.8 40.1842H786.976V45.9442H768.8V40.1842ZM768.8 48.8242H786.976V54.6482H768.8V48.8242ZM765.984 31.2242H788.256V37.3042H765.984V31.2242ZM772 57.7202H786.976V77.1762H772V71.0322H780.384V63.8002H772V57.7202ZM768.608 57.7202H775.136V79.9282H768.608V57.7202ZM771.616 23.1602L777.568 20.3442C778.464 21.6669 779.339 23.1389 780.192 24.7602C781.088 26.3389 781.792 27.7256 782.304 28.9202L776.16 32.2482C775.733 31.0536 775.072 29.6029 774.176 27.8962C773.28 26.1469 772.427 24.5682 771.616 23.1602ZM788.576 68.4082H825.504V73.9762H788.576V68.4082ZM791.136 41.2722H822.944V46.7122H791.136V41.2722ZM790.432 59.9602H823.712V65.5922H790.432V59.9602ZM788.448 49.4642H825.504V55.3522H788.448V49.4642ZM802.976 37.5602H810.272V51.8962H802.976V37.5602ZM802.976 62.0082H810.272V80.7602H802.976V62.0082ZM811.936 54.9682L818.784 56.6322C818.016 57.7842 817.248 58.8722 816.48 59.8962C815.712 60.8776 815.029 61.7309 814.432 62.4562L809.056 60.8562C809.568 60.0029 810.08 59.0216 810.592 57.9122C811.147 56.8029 811.595 55.8216 811.936 54.9682ZM794.976 56.4402L800.928 54.9682C801.397 55.6936 801.824 56.5256 802.208 57.4642C802.635 58.3602 802.933 59.1709 803.104 59.8962L796.896 61.6882C796.768 61.0056 796.512 60.1736 796.128 59.1922C795.787 58.2109 795.403 57.2936 794.976 56.4402ZM814.112 28.2162V33.2722H817.632V28.2162H814.112ZM805.152 28.2162V33.2722H808.608V28.2162H805.152ZM796.32 28.2162V33.2722H799.776V28.2162H796.32ZM790.176 22.7762H824.096V38.7762H790.176V22.7762Z" fill="url(#paint6_linear_112_4206)"/>
<path d="M702.624 36.1522H730.912V41.7202H702.624V36.1522ZM707.936 63.7362H726.368V68.6642H707.936V63.7362ZM708.064 72.0562H725.92V77.7522H708.064V72.0562ZM714.272 26.8722H720.672V53.6242H714.272V26.8722ZM714.72 58.4242H719.904V75.0002H714.72V58.4242ZM727.264 20.9202L731.104 26.1682C728.629 26.6802 725.856 27.1282 722.784 27.5122C719.755 27.8962 716.661 28.1949 713.504 28.4082C710.347 28.6216 707.317 28.7709 704.416 28.8562C704.331 28.1309 704.117 27.2776 703.776 26.2962C703.435 25.3149 703.093 24.4829 702.752 23.8002C704.885 23.6722 707.061 23.5229 709.28 23.3522C711.541 23.1389 713.739 22.9256 715.872 22.7122C718.048 22.4989 720.096 22.2429 722.016 21.9442C723.979 21.6029 725.728 21.2616 727.264 20.9202ZM705.056 30.2002L709.92 28.9202C710.347 29.9016 710.795 30.9896 711.264 32.1842C711.733 33.3362 712.075 34.3176 712.288 35.1282L707.104 36.6642C706.891 35.8536 706.592 34.8296 706.208 33.5922C705.824 32.3549 705.44 31.2242 705.056 30.2002ZM724.576 28.0882L730.08 29.6882C729.397 31.2242 728.715 32.7602 728.032 34.2962C727.392 35.7896 726.773 37.0909 726.176 38.2002L721.504 36.7282C722.059 35.5336 722.613 34.1042 723.168 32.4402C723.765 30.7762 724.235 29.3256 724.576 28.0882ZM713.056 38.8402L717.344 41.3362C716.32 43.1709 715.061 45.0909 713.568 47.0962C712.117 49.1016 710.56 50.9789 708.896 52.7282C707.232 54.4776 705.547 55.9069 703.84 57.0162C703.584 56.0349 703.157 54.8829 702.56 53.5602C702.005 52.2376 701.472 51.1496 700.96 50.2962C702.453 49.4429 703.968 48.3762 705.504 47.0962C707.04 45.7736 708.469 44.4082 709.792 43.0002C711.115 41.5496 712.203 40.1629 713.056 38.8402ZM704.544 54.9682H730.528V79.9282H724.64V60.6642H710.24V80.6962H704.544V54.9682ZM731.808 23.5442H741.92V30.0082H731.808V23.5442ZM739.616 23.5442H745.888V72.8242C745.888 74.4029 745.717 75.7042 745.376 76.7282C745.077 77.7949 744.437 78.6269 743.456 79.2242C742.475 79.7789 741.259 80.1202 739.808 80.2482C738.4 80.4189 736.693 80.5042 734.688 80.5042C734.603 79.5656 734.368 78.4136 733.984 77.0482C733.6 75.7256 733.195 74.6162 732.768 73.7202C734.005 73.7629 735.179 73.8056 736.288 73.8482C737.397 73.8482 738.165 73.8482 738.592 73.8482C739.275 73.8056 739.616 73.4216 739.616 72.6962V23.5442ZM747.168 23.5442H757.984V30.0082H747.168V23.5442ZM754.592 23.5442H760.864V72.7602C760.864 74.3816 760.693 75.7042 760.352 76.7282C760.011 77.7522 759.328 78.5416 758.304 79.0962C757.365 79.6936 756.149 80.0562 754.656 80.1842C753.205 80.3122 751.413 80.3762 749.28 80.3762C749.195 79.4802 748.96 78.3496 748.576 76.9842C748.192 75.6616 747.787 74.5736 747.36 73.7202C748.683 73.7629 749.92 73.8056 751.072 73.8482C752.267 73.8482 753.077 73.8482 753.504 73.8482C753.931 73.8056 754.208 73.6989 754.336 73.5282C754.507 73.3576 754.592 73.0589 754.592 72.6322V23.5442ZM730.784 36.6002L735.712 34.8082C736.267 36.1309 736.8 37.5816 737.312 39.1602C737.867 40.7389 738.379 42.2536 738.848 43.7042C739.317 45.1549 739.659 46.4136 739.872 47.4802L734.624 49.6562C734.453 48.5469 734.155 47.2456 733.728 45.7522C733.301 44.2162 732.832 42.6589 732.32 41.0802C731.851 39.4589 731.339 37.9656 730.784 36.6002ZM746.208 36.5362L751.264 35.1922C751.733 36.5149 752.16 37.9442 752.544 39.4802C752.971 40.9736 753.355 42.4242 753.696 43.8322C754.08 45.2402 754.357 46.4776 754.528 47.5442L749.152 49.2722C749.024 48.2056 748.789 46.9469 748.448 45.4962C748.149 44.0029 747.808 42.4882 747.424 40.9522C747.04 39.3736 746.635 37.9016 746.208 36.5362ZM745.056 61.3682C745.995 60.3016 747.147 58.9576 748.512 57.3362C749.877 55.7149 751.285 53.9869 752.736 52.1522L756.32 57.2722C755.168 58.8936 753.931 60.5362 752.608 62.2002C751.285 63.8642 749.941 65.4642 748.576 67.0002L745.056 61.3682ZM729.952 62.3922C730.933 61.2829 732.107 59.9176 733.472 58.2962C734.88 56.6322 736.331 54.8616 737.824 52.9842L741.408 58.1682C740.171 59.8322 738.869 61.5176 737.504 63.2242C736.139 64.8882 734.752 66.5096 733.344 68.0882L729.952 62.3922ZM717.216 42.6162L721.376 38.9682C722.741 40.1629 724.107 41.4856 725.472 42.9362C726.837 44.3442 728.117 45.7522 729.312 47.1602C730.507 48.5256 731.445 49.8056 732.128 51.0002L727.584 55.1602C726.944 53.9656 726.069 52.6429 724.96 51.1922C723.851 49.6989 722.613 48.2056 721.248 46.7122C719.883 45.1762 718.539 43.8109 717.216 42.6162Z" fill="url(#paint7_linear_112_4206)"/>
<path d="M654.432 49.2722V52.8562H681.76V49.2722H654.432ZM654.432 58.3602V61.8802H681.76V58.3602H654.432ZM654.432 40.3122V43.8322H681.76V40.3122H654.432ZM646.432 34.4242H690.144V67.7682H646.432V34.4242ZM671.136 72.3762L676.832 67.3842C679.264 68.1949 681.76 69.0909 684.32 70.0722C686.88 71.0536 689.291 72.0349 691.552 73.0162C693.856 73.9976 695.819 74.8722 697.44 75.6402L689.76 80.7602C688.395 79.9496 686.688 79.0536 684.64 78.0722C682.635 77.0909 680.459 76.1096 678.112 75.1282C675.808 74.1469 673.483 73.2296 671.136 72.3762ZM640.928 23.6082H694.688V30.5842H640.928V23.6082ZM663.904 26.9362L673.248 27.9602C672.651 29.9656 672.032 31.8642 671.392 33.6562C670.752 35.4482 670.155 37.0056 669.6 38.3282L662.176 37.0482C662.56 35.5976 662.923 33.9336 663.264 32.0562C663.605 30.1789 663.819 28.4722 663.904 26.9362ZM658.336 66.9362L664.992 72.2482C663.072 73.2722 660.875 74.3176 658.4 75.3842C655.968 76.4509 653.472 77.4322 650.912 78.3282C648.395 79.2669 646.027 80.0562 643.808 80.6962C643.168 79.8429 642.336 78.8402 641.312 77.6882C640.331 76.5362 639.392 75.5549 638.496 74.7442C640.757 74.1896 643.125 73.4856 645.6 72.6322C648.117 71.7362 650.485 70.7976 652.704 69.8162C654.965 68.7922 656.843 67.8322 658.336 66.9362Z" fill="url(#paint8_linear_112_4206)"/>
<path d="M618.592 31.3522L623.84 32.6962C623.243 34.4882 622.667 36.3229 622.112 38.2002C621.557 40.0776 621.024 41.6776 620.512 43.0002L616.224 41.7202C616.523 40.7389 616.821 39.6509 617.12 38.4562C617.461 37.2189 617.76 35.9816 618.016 34.7442C618.315 33.5069 618.507 32.3762 618.592 31.3522ZM607.392 32.6962L611.744 31.2242C612.384 32.5469 612.939 33.9976 613.408 35.5762C613.92 37.1549 614.261 38.5202 614.432 39.6722L609.888 41.2722C609.76 40.1202 609.461 38.7336 608.992 37.1122C608.523 35.4909 607.989 34.0189 607.392 32.6962ZM598.368 23.3522H627.808V30.0082H605.152V80.8242H598.368V23.3522ZM625.76 23.3522H632.608V73.2082C632.608 74.9149 632.416 76.2376 632.032 77.1762C631.691 78.1576 631.029 78.9256 630.048 79.4802C629.067 80.0349 627.851 80.3762 626.4 80.5042C624.949 80.6749 623.2 80.7602 621.152 80.7602C621.024 79.8216 620.768 78.7122 620.384 77.4322C620.043 76.1522 619.659 75.0856 619.232 74.2322C620.341 74.2749 621.429 74.3176 622.496 74.3602C623.563 74.3602 624.288 74.3602 624.672 74.3602C625.099 74.3176 625.376 74.2322 625.504 74.1042C625.675 73.9336 625.76 73.6349 625.76 73.2082V23.3522ZM606.304 41.0162H624.544V46.7122H606.304V41.0162ZM606.624 52.0882H624.288V57.9122H606.624V52.0882ZM611.552 47.9922L616.8 46.2642C617.227 47.0322 617.632 47.8856 618.016 48.8242C618.443 49.7629 618.741 50.5522 618.912 51.1922L613.472 53.1762C613.301 52.4936 613.024 51.6616 612.64 50.6802C612.256 49.6562 611.893 48.7602 611.552 47.9922ZM589.408 47.8642L594.336 46.0082C594.891 47.2882 595.424 48.6749 595.936 50.1682C596.491 51.6189 597.003 53.0482 597.472 54.4562C597.941 55.8216 598.304 56.9949 598.56 57.9762L593.184 60.2162C593.013 59.1496 592.715 57.9122 592.288 56.5042C591.861 55.0536 591.392 53.5816 590.88 52.0882C590.411 50.5949 589.92 49.1869 589.408 47.8642ZM583.072 63.7362L588.128 62.4562C588.512 64.5896 588.853 66.8936 589.152 69.3682C589.493 71.8429 589.728 73.9976 589.856 75.8322L584.48 77.3042C584.437 75.4269 584.267 73.2296 583.968 70.7122C583.712 68.1522 583.413 65.8269 583.072 63.7362ZM576.16 62.9042L581.728 63.8002C581.515 66.6589 581.152 69.4962 580.64 72.3122C580.171 75.1282 579.637 77.5176 579.04 79.4802C578.4 79.1389 577.525 78.7762 576.416 78.3922C575.307 78.0082 574.389 77.7309 573.664 77.5602C574.389 75.6402 574.923 73.3789 575.264 70.7762C575.648 68.1309 575.947 65.5069 576.16 62.9042ZM576.032 46.0722C575.904 45.6029 575.712 45.0056 575.456 44.2802C575.243 43.5122 574.987 42.7442 574.688 41.9762C574.432 41.1656 574.176 40.4829 573.92 39.9282C574.475 39.7576 575.029 39.3736 575.584 38.7762C576.181 38.1789 576.757 37.4109 577.312 36.4722C577.781 35.8749 578.443 34.7656 579.296 33.1442C580.192 31.4802 581.131 29.5602 582.112 27.3842C583.093 25.2082 583.947 23.0109 584.672 20.7922L590.816 23.3522C589.365 26.8082 587.659 30.2642 585.696 33.7202C583.733 37.1336 581.771 40.0989 579.808 42.6162V42.7442C579.808 42.7442 579.595 42.8509 579.168 43.0642C578.784 43.2776 578.357 43.5549 577.888 43.8962C577.419 44.2376 576.992 44.6002 576.608 44.9842C576.224 45.3682 576.032 45.7309 576.032 46.0722ZM576.032 46.0722L575.84 41.1442L578.656 39.2242L589.472 38.4562C589.259 39.3522 589.088 40.3336 588.96 41.4002C588.832 42.4669 588.747 43.3629 588.704 44.0882C586.315 44.3016 584.352 44.5149 582.816 44.7282C581.28 44.8989 580.064 45.0482 579.168 45.1762C578.315 45.3042 577.653 45.4536 577.184 45.6242C576.715 45.7522 576.331 45.9016 576.032 46.0722ZM576.416 60.9202C576.373 60.4936 576.224 59.8962 575.968 59.1282C575.712 58.3602 575.435 57.5709 575.136 56.7602C574.88 55.9496 574.624 55.2669 574.368 54.7122C575.179 54.4989 575.947 54.0296 576.672 53.3042C577.397 52.5362 578.229 51.5549 579.168 50.3602C579.68 49.7629 580.427 48.7816 581.408 47.4162C582.389 46.0082 583.456 44.3656 584.608 42.4882C585.803 40.5682 586.997 38.4989 588.192 36.2802C589.387 34.0616 590.475 31.8429 591.456 29.6242L597.024 33.2082C595.531 36.1096 593.867 39.0322 592.032 41.9762C590.197 44.8776 588.277 47.6509 586.272 50.2962C584.267 52.8989 582.261 55.2882 580.256 57.4642V57.6562C580.256 57.6562 580.064 57.7629 579.68 57.9762C579.296 58.1896 578.848 58.4669 578.336 58.8082C577.824 59.1496 577.376 59.5122 576.992 59.8962C576.608 60.2802 576.416 60.6216 576.416 60.9202ZM576.416 60.9202L576.16 55.8642L578.976 53.9442L595.232 51.7042C595.104 52.5149 594.997 53.4536 594.912 54.5202C594.869 55.5869 594.869 56.4616 594.912 57.1442C591.243 57.7416 588.256 58.2536 585.952 58.6802C583.691 59.0642 581.92 59.3842 580.64 59.6402C579.403 59.8962 578.464 60.1309 577.824 60.3442C577.227 60.5149 576.757 60.7069 576.416 60.9202ZM589.92 62.2002L594.592 60.6002C595.36 62.5202 596.064 64.6109 596.704 66.8722C597.387 69.0909 597.899 71.0109 598.24 72.6322L593.184 74.5522C592.928 72.8882 592.459 70.9042 591.776 68.6002C591.136 66.2962 590.517 64.1629 589.92 62.2002ZM608.48 55.2242H614.624V61.7522C614.624 62.4776 614.688 62.9896 614.816 63.2882C614.944 63.5869 615.264 63.7362 615.776 63.7362C615.947 63.7362 616.245 63.7362 616.672 63.7362C617.099 63.7362 617.547 63.7362 618.016 63.7362C618.485 63.7362 618.933 63.7362 619.36 63.7362C619.787 63.7362 620.107 63.7362 620.32 63.7362C620.789 63.7362 621.408 63.7149 622.176 63.6722C622.944 63.5869 623.541 63.4802 623.968 63.3522C624.053 64.1202 624.117 65.0162 624.16 66.0402C624.245 67.0216 624.331 67.8536 624.416 68.5362C623.989 68.7069 623.392 68.8136 622.624 68.8562C621.899 68.8989 621.173 68.9202 620.448 68.9202C620.192 68.9202 619.808 68.9202 619.296 68.9202C618.827 68.9202 618.315 68.9202 617.76 68.9202C617.205 68.9202 616.672 68.9202 616.16 68.9202C615.691 68.9202 615.328 68.9202 615.072 68.9202C613.28 68.9202 611.893 68.6856 610.912 68.2162C609.973 67.7042 609.333 66.9149 608.992 65.8482C608.651 64.7816 608.48 63.3949 608.48 61.6882V55.2242Z" fill="url(#paint9_linear_112_4206)"/>
<defs>
<filter id="filter0_f_112_4206" x="553.104" y="12.3442" width="291.84" height="100.48" filterUnits="userSpaceOnUse" color-interpolation-filters="sRGB">
<feFlood flood-opacity="0" result="BackgroundImageFix"/>
<feBlend mode="normal" in="SourceGraphic" in2="BackgroundImageFix" result="shape"/>
<feGaussianBlur stdDeviation="10" result="effect1_foregroundBlur_112_4206"/>
</filter>
<linearGradient id="paint0_linear_112_4206" x1="472" y1="73.0036" x2="928" y2="73.0033" gradientUnits="userSpaceOnUse">
<stop stop-color="white" stop-opacity="0.3"/>
<stop offset="0.495" stop-color="#CBB0F8"/>
<stop offset="1" stop-color="white" stop-opacity="0.3"/>
</linearGradient>
<linearGradient id="paint1_linear_112_4206" x1="835.505" y1="59.529" x2="-247.678" y2="59.5292" gradientUnits="userSpaceOnUse">
<stop stop-color="#F4439F"/>
<stop offset="1" stop-color="#7C3AED"/>
</linearGradient>
<linearGradient id="paint2_linear_112_4206" x1="1107.19" y1="59.2373" x2="30.9483" y2="59.2375" gradientUnits="userSpaceOnUse">
<stop stop-color="#F4439F"/>
<stop offset="1" stop-color="#7C3AED"/>
</linearGradient>
<linearGradient id="paint3_linear_112_4206" x1="1382.77" y1="57.6275" x2="288.998" y2="57.6277" gradientUnits="userSpaceOnUse">
<stop stop-color="#F4439F"/>
<stop offset="1" stop-color="#7C3AED"/>
</linearGradient>
<linearGradient id="paint4_linear_112_4206" x1="827.44" y1="59.5" x2="571.44" y2="59.5" gradientUnits="userSpaceOnUse">
<stop stop-color="#F4439F"/>
<stop offset="1" stop-color="#7C3AED"/>
</linearGradient>
<linearGradient id="paint5_linear_112_4206" x1="700" y1="81" x2="700" y2="119" gradientUnits="userSpaceOnUse">
<stop offset="0.0001" stop-color="white" stop-opacity="0.1"/>
<stop offset="1" stop-color="white" stop-opacity="0"/>
</linearGradient>
<linearGradient id="paint6_linear_112_4206" x1="836.065" y1="0.979743" x2="160.048" y2="562.651" gradientUnits="userSpaceOnUse">
<stop stop-color="#F4439F"/>
<stop offset="1" stop-color="#7C3AED"/>
</linearGradient>
<linearGradient id="paint7_linear_112_4206" x1="1107.75" y1="0.189617" x2="426.724" y2="556.439" gradientUnits="userSpaceOnUse">
<stop stop-color="#F4439F"/>
<stop offset="1" stop-color="#7C3AED"/>
</linearGradient>
<linearGradient id="paint8_linear_112_4206" x1="1383.33" y1="-3.58025" x2="675.388" y2="558.272" gradientUnits="userSpaceOnUse">
<stop stop-color="#F4439F"/>
<stop offset="1" stop-color="#7C3AED"/>
</linearGradient>
<linearGradient id="paint9_linear_112_4206" x1="828" y1="0.999982" x2="567.985" y2="52.1119" gradientUnits="userSpaceOnUse">
<stop stop-color="#F4439F"/>
<stop offset="1" stop-color="#7C3AED"/>
</linearGradient>
</defs>
</svg>
