<svg width="1400" height="120" viewBox="0 0 1400 120" fill="none" xmlns="http://www.w3.org/2000/svg">
<path d="M472 65H928V81H472V65Z" fill="url(#paint0_linear_112_3862)"/>
<mask id="mask0_112_3862" style="mask-type:alpha" maskUnits="userSpaceOnUse" x="472" y="81" width="456" height="38">
<path d="M472 81H928V119H472V81Z" fill="#C4C4C4"/>
</mask>
<g mask="url(#mask0_112_3862)">
<g filter="url(#filter0_f_112_3862)">
<path d="M768.24 52.184H786.416V57.944H768.24V52.184ZM768.24 60.824H786.416V66.648H768.24V60.824ZM765.424 43.224H787.696V49.304H765.424V43.224ZM771.44 69.72H786.416V89.176H771.44V83.032H779.824V75.8H771.44V69.72ZM768.048 69.72H774.576V91.928H768.048V69.72ZM771.056 35.16L777.008 32.344C777.904 33.6666 778.779 35.1386 779.632 36.76C780.528 38.3386 781.232 39.7253 781.744 40.92L775.6 44.248C775.173 43.0533 774.512 41.6026 773.616 39.896C772.72 38.1466 771.867 36.568 771.056 35.16ZM788.016 80.408H824.944V85.976H788.016V80.408ZM790.576 53.272H822.384V58.712H790.576V53.272ZM789.872 71.96H823.152V77.592H789.872V71.96ZM787.888 61.464H824.944V67.352H787.888V61.464ZM802.416 49.56H809.712V63.896H802.416V49.56ZM802.416 74.008H809.712V92.76H802.416V74.008ZM811.376 66.968L818.224 68.632C817.456 69.784 816.688 70.872 815.92 71.896C815.152 72.8773 814.469 73.7306 813.872 74.456L808.496 72.856C809.008 72.0026 809.52 71.0213 810.032 69.912C810.587 68.8026 811.035 67.8213 811.376 66.968ZM794.416 68.44L800.368 66.968C800.837 67.6933 801.264 68.5253 801.648 69.464C802.075 70.36 802.373 71.1706 802.544 71.896L796.336 73.688C796.208 73.0053 795.952 72.1733 795.568 71.192C795.227 70.2106 794.843 69.2933 794.416 68.44ZM813.552 40.216V45.272H817.072V40.216H813.552ZM804.592 40.216V45.272H808.048V40.216H804.592ZM795.76 40.216V45.272H799.216V40.216H795.76ZM789.616 34.776H823.536V50.776H789.616V34.776Z" fill="url(#paint1_linear_112_3862)" fill-opacity="0.7"/>
<path d="M702.064 48.152H730.352V53.72H702.064V48.152ZM707.376 75.736H725.808V80.664H707.376V75.736ZM707.504 84.056H725.36V89.752H707.504V84.056ZM713.712 38.872H720.112V65.624H713.712V38.872ZM714.16 70.424H719.344V87H714.16V70.424ZM726.704 32.92L730.544 38.168C728.069 38.68 725.296 39.128 722.224 39.512C719.195 39.896 716.101 40.1946 712.944 40.408C709.787 40.6213 706.757 40.7706 703.856 40.856C703.771 40.1306 703.557 39.2773 703.216 38.296C702.875 37.3146 702.533 36.4826 702.192 35.8C704.325 35.672 706.501 35.5226 708.72 35.352C710.981 35.1386 713.179 34.9253 715.312 34.712C717.488 34.4986 719.536 34.2426 721.456 33.944C723.419 33.6026 725.168 33.2613 726.704 32.92ZM704.496 42.2L709.36 40.92C709.787 41.9013 710.235 42.9893 710.704 44.184C711.173 45.336 711.515 46.3173 711.728 47.128L706.544 48.664C706.331 47.8533 706.032 46.8293 705.648 45.592C705.264 44.3546 704.88 43.224 704.496 42.2ZM724.016 40.088L729.52 41.688C728.837 43.224 728.155 44.76 727.472 46.296C726.832 47.7893 726.213 49.0906 725.616 50.2L720.944 48.728C721.499 47.5333 722.053 46.104 722.608 44.44C723.205 42.776 723.675 41.3253 724.016 40.088ZM712.496 50.84L716.784 53.336C715.76 55.1706 714.501 57.0906 713.008 59.096C711.557 61.1013 710 62.9786 708.336 64.728C706.672 66.4773 704.987 67.9066 703.28 69.016C703.024 68.0346 702.597 66.8826 702 65.56C701.445 64.2373 700.912 63.1493 700.4 62.296C701.893 61.4426 703.408 60.376 704.944 59.096C706.48 57.7733 707.909 56.408 709.232 55C710.555 53.5493 711.643 52.1626 712.496 50.84ZM703.984 66.968H729.968V91.928H724.08V72.664H709.68V92.696H703.984V66.968ZM731.248 35.544H741.36V42.008H731.248V35.544ZM739.056 35.544H745.328V84.824C745.328 86.4026 745.157 87.704 744.816 88.728C744.517 89.7946 743.877 90.6266 742.896 91.224C741.915 91.7786 740.699 92.12 739.248 92.248C737.84 92.4186 736.133 92.504 734.128 92.504C734.043 91.5653 733.808 90.4133 733.424 89.048C733.04 87.7253 732.635 86.616 732.208 85.72C733.445 85.7626 734.619 85.8053 735.728 85.848C736.837 85.848 737.605 85.848 738.032 85.848C738.715 85.8053 739.056 85.4213 739.056 84.696V35.544ZM746.608 35.544H757.424V42.008H746.608V35.544ZM754.032 35.544H760.304V84.76C760.304 86.3813 760.133 87.704 759.792 88.728C759.451 89.752 758.768 90.5413 757.744 91.096C756.805 91.6933 755.589 92.056 754.096 92.184C752.645 92.312 750.853 92.376 748.72 92.376C748.635 91.48 748.4 90.3493 748.016 88.984C747.632 87.6613 747.227 86.5733 746.8 85.72C748.123 85.7626 749.36 85.8053 750.512 85.848C751.707 85.848 752.517 85.848 752.944 85.848C753.371 85.8053 753.648 85.6986 753.776 85.528C753.947 85.3573 754.032 85.0586 754.032 84.632V35.544ZM730.224 48.6L735.152 46.808C735.707 48.1306 736.24 49.5813 736.752 51.16C737.307 52.7386 737.819 54.2533 738.288 55.704C738.757 57.1546 739.099 58.4133 739.312 59.48L734.064 61.656C733.893 60.5466 733.595 59.2453 733.168 57.752C732.741 56.216 732.272 54.6586 731.76 53.08C731.291 51.4586 730.779 49.9653 730.224 48.6ZM745.648 48.536L750.704 47.192C751.173 48.5146 751.6 49.944 751.984 51.48C752.411 52.9733 752.795 54.424 753.136 55.832C753.52 57.24 753.797 58.4773 753.968 59.544L748.592 61.272C748.464 60.2053 748.229 58.9466 747.888 57.496C747.589 56.0026 747.248 54.488 746.864 52.952C746.48 51.3733 746.075 49.9013 745.648 48.536ZM744.496 73.368C745.435 72.3013 746.587 70.9573 747.952 69.336C749.317 67.7146 750.725 65.9866 752.176 64.152L755.76 69.272C754.608 70.8933 753.371 72.536 752.048 74.2C750.725 75.864 749.381 77.464 748.016 79L744.496 73.368ZM729.392 74.392C730.373 73.2826 731.547 71.9173 732.912 70.296C734.32 68.632 735.771 66.8613 737.264 64.984L740.848 70.168C739.611 71.832 738.309 73.5173 736.944 75.224C735.579 76.888 734.192 78.5093 732.784 80.088L729.392 74.392ZM716.656 54.616L720.816 50.968C722.181 52.1626 723.547 53.4853 724.912 54.936C726.277 56.344 727.557 57.752 728.752 59.16C729.947 60.5253 730.885 61.8053 731.568 63L727.024 67.16C726.384 65.9653 725.509 64.6426 724.4 63.192C723.291 61.6986 722.053 60.2053 720.688 58.712C719.323 57.176 717.979 55.8106 716.656 54.616Z" fill="url(#paint2_linear_112_3862)" fill-opacity="0.7"/>
<path d="M639.216 45.08H695.792V52.888H639.216V45.08ZM649.84 74.072H684.784V81.88H649.84V74.072ZM663.344 32.664H671.472V92.76H663.344V32.664ZM656.88 47.896L663.92 49.88C662.427 54.4453 660.613 58.7973 658.48 62.936C656.389 67.0746 654 70.872 651.312 74.328C648.667 77.7413 645.765 80.6853 642.608 83.16C642.181 82.52 641.627 81.816 640.944 81.048C640.304 80.28 639.621 79.5333 638.896 78.808C638.213 78.04 637.573 77.4213 636.976 76.952C639.877 74.9466 642.608 72.408 645.168 69.336C647.728 66.2213 650.011 62.8293 652.016 59.16C654.021 55.448 655.643 51.6933 656.88 47.896ZM677.744 48.088C678.981 51.8 680.581 55.4266 682.544 58.968C684.549 62.5093 686.832 65.7733 689.392 68.76C691.995 71.704 694.747 74.1573 697.648 76.12C697.008 76.6746 696.283 77.336 695.472 78.104C694.704 78.872 693.979 79.6826 693.296 80.536C692.613 81.3893 692.037 82.1786 691.568 82.904C688.496 80.5146 685.659 77.6133 683.056 74.2C680.453 70.744 678.128 66.968 676.08 62.872C674.032 58.776 672.261 54.5093 670.768 50.072L677.744 48.088Z" fill="url(#paint3_linear_112_3862)" fill-opacity="0.7"/>
<path d="M615.728 47L623.664 49.112C621.104 56.92 617.733 63.6613 613.552 69.336C609.371 74.968 604.315 79.6826 598.384 83.48C592.453 87.2773 585.563 90.328 577.712 92.632C577.456 91.992 577.051 91.224 576.496 90.328C575.941 89.432 575.344 88.536 574.704 87.64C574.107 86.744 573.552 85.9973 573.04 85.4C580.635 83.5226 587.227 80.9413 592.816 77.656C598.405 74.3706 603.077 70.2106 606.832 65.176C610.629 60.1413 613.595 54.0826 615.728 47ZM590.96 47.448C593.179 53.6773 596.229 59.3093 600.112 64.344C603.995 69.3786 608.752 73.6666 614.384 77.208C620.059 80.7066 626.629 83.3093 634.096 85.016C633.541 85.5706 632.923 86.2746 632.24 87.128C631.6 88.024 630.981 88.92 630.384 89.816C629.787 90.712 629.296 91.5013 628.912 92.184C621.061 90.0933 614.256 87.1066 608.496 83.224C602.779 79.3413 597.915 74.584 593.904 68.952C589.893 63.32 586.544 56.8773 583.856 49.624L590.96 47.448ZM574.256 43.416H632.88V50.904H574.256V43.416ZM597.808 34.392L606 31.96C606.896 33.4533 607.749 35.1173 608.56 36.952C609.413 38.7866 610.032 40.3653 610.416 41.688L601.712 44.44C601.413 43.1173 600.88 41.5173 600.112 39.64C599.387 37.72 598.619 35.9706 597.808 34.392Z" fill="url(#paint4_linear_112_3862)" fill-opacity="0.7"/>
</g>
</g>
<path d="M472 81H928V107C928 113.627 922.627 119 916 119H484C477.373 119 472 113.627 472 107V81Z" fill="url(#paint5_linear_112_3862)"/>
<path d="M768.8 40.184H786.976V45.944H768.8V40.184ZM768.8 48.824H786.976V54.648H768.8V48.824ZM765.984 31.224H788.256V37.304H765.984V31.224ZM772 57.72H786.976V77.176H772V71.032H780.384V63.8H772V57.72ZM768.608 57.72H775.136V79.928H768.608V57.72ZM771.616 23.16L777.568 20.344C778.464 21.6666 779.339 23.1386 780.192 24.76C781.088 26.3386 781.792 27.7253 782.304 28.92L776.16 32.248C775.733 31.0533 775.072 29.6026 774.176 27.896C773.28 26.1466 772.427 24.568 771.616 23.16ZM788.576 68.408H825.504V73.976H788.576V68.408ZM791.136 41.272H822.944V46.712H791.136V41.272ZM790.432 59.96H823.712V65.592H790.432V59.96ZM788.448 49.464H825.504V55.352H788.448V49.464ZM802.976 37.56H810.272V51.896H802.976V37.56ZM802.976 62.008H810.272V80.76H802.976V62.008ZM811.936 54.968L818.784 56.632C818.016 57.784 817.248 58.872 816.48 59.896C815.712 60.8773 815.029 61.7306 814.432 62.456L809.056 60.856C809.568 60.0026 810.08 59.0213 810.592 57.912C811.147 56.8026 811.595 55.8213 811.936 54.968ZM794.976 56.44L800.928 54.968C801.397 55.6933 801.824 56.5253 802.208 57.464C802.635 58.36 802.933 59.1706 803.104 59.896L796.896 61.688C796.768 61.0053 796.512 60.1733 796.128 59.192C795.787 58.2106 795.403 57.2933 794.976 56.44ZM814.112 28.216V33.272H817.632V28.216H814.112ZM805.152 28.216V33.272H808.608V28.216H805.152ZM796.32 28.216V33.272H799.776V28.216H796.32ZM790.176 22.776H824.096V38.776H790.176V22.776Z" fill="url(#paint6_linear_112_3862)"/>
<path d="M702.624 36.152H730.912V41.72H702.624V36.152ZM707.936 63.736H726.368V68.664H707.936V63.736ZM708.064 72.056H725.92V77.752H708.064V72.056ZM714.272 26.872H720.672V53.624H714.272V26.872ZM714.72 58.424H719.904V75H714.72V58.424ZM727.264 20.92L731.104 26.168C728.629 26.68 725.856 27.128 722.784 27.512C719.755 27.896 716.661 28.1946 713.504 28.408C710.347 28.6213 707.317 28.7706 704.416 28.856C704.331 28.1306 704.117 27.2773 703.776 26.296C703.435 25.3146 703.093 24.4826 702.752 23.8C704.885 23.672 707.061 23.5226 709.28 23.352C711.541 23.1386 713.739 22.9253 715.872 22.712C718.048 22.4986 720.096 22.2426 722.016 21.944C723.979 21.6026 725.728 21.2613 727.264 20.92ZM705.056 30.2L709.92 28.92C710.347 29.9013 710.795 30.9893 711.264 32.184C711.733 33.336 712.075 34.3173 712.288 35.128L707.104 36.664C706.891 35.8533 706.592 34.8293 706.208 33.592C705.824 32.3546 705.44 31.224 705.056 30.2ZM724.576 28.088L730.08 29.688C729.397 31.224 728.715 32.76 728.032 34.296C727.392 35.7893 726.773 37.0906 726.176 38.2L721.504 36.728C722.059 35.5333 722.613 34.104 723.168 32.44C723.765 30.776 724.235 29.3253 724.576 28.088ZM713.056 38.84L717.344 41.336C716.32 43.1706 715.061 45.0906 713.568 47.096C712.117 49.1013 710.56 50.9786 708.896 52.728C707.232 54.4773 705.547 55.9066 703.84 57.016C703.584 56.0346 703.157 54.8826 702.56 53.56C702.005 52.2373 701.472 51.1493 700.96 50.296C702.453 49.4426 703.968 48.376 705.504 47.096C707.04 45.7733 708.469 44.408 709.792 43C711.115 41.5493 712.203 40.1626 713.056 38.84ZM704.544 54.968H730.528V79.928H724.64V60.664H710.24V80.696H704.544V54.968ZM731.808 23.544H741.92V30.008H731.808V23.544ZM739.616 23.544H745.888V72.824C745.888 74.4026 745.717 75.704 745.376 76.728C745.077 77.7946 744.437 78.6266 743.456 79.224C742.475 79.7786 741.259 80.12 739.808 80.248C738.4 80.4186 736.693 80.504 734.688 80.504C734.603 79.5653 734.368 78.4133 733.984 77.048C733.6 75.7253 733.195 74.616 732.768 73.72C734.005 73.7626 735.179 73.8053 736.288 73.848C737.397 73.848 738.165 73.848 738.592 73.848C739.275 73.8053 739.616 73.4213 739.616 72.696V23.544ZM747.168 23.544H757.984V30.008H747.168V23.544ZM754.592 23.544H760.864V72.76C760.864 74.3813 760.693 75.704 760.352 76.728C760.011 77.752 759.328 78.5413 758.304 79.096C757.365 79.6933 756.149 80.056 754.656 80.184C753.205 80.312 751.413 80.376 749.28 80.376C749.195 79.48 748.96 78.3493 748.576 76.984C748.192 75.6613 747.787 74.5733 747.36 73.72C748.683 73.7626 749.92 73.8053 751.072 73.848C752.267 73.848 753.077 73.848 753.504 73.848C753.931 73.8053 754.208 73.6986 754.336 73.528C754.507 73.3573 754.592 73.0586 754.592 72.632V23.544ZM730.784 36.6L735.712 34.808C736.267 36.1306 736.8 37.5813 737.312 39.16C737.867 40.7386 738.379 42.2533 738.848 43.704C739.317 45.1546 739.659 46.4133 739.872 47.48L734.624 49.656C734.453 48.5466 734.155 47.2453 733.728 45.752C733.301 44.216 732.832 42.6586 732.32 41.08C731.851 39.4586 731.339 37.9653 730.784 36.6ZM746.208 36.536L751.264 35.192C751.733 36.5146 752.16 37.944 752.544 39.48C752.971 40.9733 753.355 42.424 753.696 43.832C754.08 45.24 754.357 46.4773 754.528 47.544L749.152 49.272C749.024 48.2053 748.789 46.9466 748.448 45.496C748.149 44.0026 747.808 42.488 747.424 40.952C747.04 39.3733 746.635 37.9013 746.208 36.536ZM745.056 61.368C745.995 60.3013 747.147 58.9573 748.512 57.336C749.877 55.7146 751.285 53.9866 752.736 52.152L756.32 57.272C755.168 58.8933 753.931 60.536 752.608 62.2C751.285 63.864 749.941 65.464 748.576 67L745.056 61.368ZM729.952 62.392C730.933 61.2826 732.107 59.9173 733.472 58.296C734.88 56.632 736.331 54.8613 737.824 52.984L741.408 58.168C740.171 59.832 738.869 61.5173 737.504 63.224C736.139 64.888 734.752 66.5093 733.344 68.088L729.952 62.392ZM717.216 42.616L721.376 38.968C722.741 40.1626 724.107 41.4853 725.472 42.936C726.837 44.344 728.117 45.752 729.312 47.16C730.507 48.5253 731.445 49.8053 732.128 51L727.584 55.16C726.944 53.9653 726.069 52.6426 724.96 51.192C723.851 49.6986 722.613 48.2053 721.248 46.712C719.883 45.176 718.539 43.8106 717.216 42.616Z" fill="url(#paint7_linear_112_3862)"/>
<path d="M639.776 33.08H696.352V40.888H639.776V33.08ZM650.4 62.072H685.344V69.88H650.4V62.072ZM663.904 20.664H672.032V80.76H663.904V20.664ZM657.44 35.896L664.48 37.88C662.987 42.4453 661.173 46.7973 659.04 50.936C656.949 55.0746 654.56 58.872 651.872 62.328C649.227 65.7413 646.325 68.6853 643.168 71.16C642.741 70.52 642.187 69.816 641.504 69.048C640.864 68.28 640.181 67.5333 639.456 66.808C638.773 66.04 638.133 65.4213 637.536 64.952C640.437 62.9466 643.168 60.408 645.728 57.336C648.288 54.2213 650.571 50.8293 652.576 47.16C654.581 43.448 656.203 39.6933 657.44 35.896ZM678.304 36.088C679.541 39.8 681.141 43.4266 683.104 46.968C685.109 50.5093 687.392 53.7733 689.952 56.76C692.555 59.704 695.307 62.1573 698.208 64.12C697.568 64.6746 696.843 65.336 696.032 66.104C695.264 66.872 694.539 67.6826 693.856 68.536C693.173 69.3893 692.597 70.1786 692.128 70.904C689.056 68.5146 686.219 65.6133 683.616 62.2C681.013 58.744 678.688 54.968 676.64 50.872C674.592 46.776 672.821 42.5093 671.328 38.072L678.304 36.088Z" fill="url(#paint8_linear_112_3862)"/>
<path d="M616.288 35L624.224 37.112C621.664 44.92 618.293 51.6613 614.112 57.336C609.931 62.968 604.875 67.6826 598.944 71.48C593.013 75.2773 586.123 78.328 578.272 80.632C578.016 79.992 577.611 79.224 577.056 78.328C576.501 77.432 575.904 76.536 575.264 75.64C574.667 74.744 574.112 73.9973 573.6 73.4C581.195 71.5226 587.787 68.9413 593.376 65.656C598.965 62.3706 603.637 58.2106 607.392 53.176C611.189 48.1413 614.155 42.0826 616.288 35ZM591.52 35.448C593.739 41.6773 596.789 47.3093 600.672 52.344C604.555 57.3786 609.312 61.6666 614.944 65.208C620.619 68.7066 627.189 71.3093 634.656 73.016C634.101 73.5706 633.483 74.2746 632.8 75.128C632.16 76.024 631.541 76.92 630.944 77.816C630.347 78.712 629.856 79.5013 629.472 80.184C621.621 78.0933 614.816 75.1066 609.056 71.224C603.339 67.3413 598.475 62.584 594.464 56.952C590.453 51.32 587.104 44.8773 584.416 37.624L591.52 35.448ZM574.816 31.416H633.44V38.904H574.816V31.416ZM598.368 22.392L606.56 19.96C607.456 21.4533 608.309 23.1173 609.12 24.952C609.973 26.7866 610.592 28.3653 610.976 29.688L602.272 32.44C601.973 31.1173 601.44 29.5173 600.672 27.64C599.947 25.72 599.179 23.9706 598.368 22.392Z" fill="url(#paint9_linear_112_3862)"/>
<defs>
<filter id="filter0_f_112_3862" x="553.04" y="11.96" width="291.904" height="100.8" filterUnits="userSpaceOnUse" color-interpolation-filters="sRGB">
<feFlood flood-opacity="0" result="BackgroundImageFix"/>
<feBlend mode="normal" in="SourceGraphic" in2="BackgroundImageFix" result="shape"/>
<feGaussianBlur stdDeviation="10" result="effect1_foregroundBlur_112_3862"/>
</filter>
<linearGradient id="paint0_linear_112_3862" x1="472" y1="73.0036" x2="928" y2="73.0033" gradientUnits="userSpaceOnUse">
<stop stop-color="white" stop-opacity="0.3"/>
<stop offset="0.495" stop-color="#CBB0F8"/>
<stop offset="1" stop-color="white" stop-opacity="0.3"/>
</linearGradient>
<linearGradient id="paint1_linear_112_3862" x1="835.508" y1="59.2886" x2="-247.95" y2="59.2888" gradientUnits="userSpaceOnUse">
<stop stop-color="#F4439F"/>
<stop offset="1" stop-color="#7C3AED"/>
</linearGradient>
<linearGradient id="paint2_linear_112_3862" x1="1107.26" y1="58.9953" x2="30.7465" y2="58.9955" gradientUnits="userSpaceOnUse">
<stop stop-color="#F4439F"/>
<stop offset="1" stop-color="#7C3AED"/>
</linearGradient>
<linearGradient id="paint3_linear_112_3862" x1="1363.83" y1="59.1104" x2="300.941" y2="59.1106" gradientUnits="userSpaceOnUse">
<stop stop-color="#F4439F"/>
<stop offset="1" stop-color="#7C3AED"/>
</linearGradient>
<linearGradient id="paint4_linear_112_3862" x1="827.44" y1="59.5" x2="571.44" y2="59.5" gradientUnits="userSpaceOnUse">
<stop stop-color="#F4439F"/>
<stop offset="1" stop-color="#7C3AED"/>
</linearGradient>
<linearGradient id="paint5_linear_112_3862" x1="700" y1="81" x2="700" y2="119" gradientUnits="userSpaceOnUse">
<stop offset="0.0001" stop-color="white" stop-opacity="0.1"/>
<stop offset="1" stop-color="white" stop-opacity="0"/>
</linearGradient>
<linearGradient id="paint6_linear_112_3862" x1="836.068" y1="0.493006" x2="157.107" y2="561.783" gradientUnits="userSpaceOnUse">
<stop stop-color="#F4439F"/>
<stop offset="1" stop-color="#7C3AED"/>
</linearGradient>
<linearGradient id="paint7_linear_112_3862" x1="1107.82" y1="-0.3013" x2="423.887" y2="555.525" gradientUnits="userSpaceOnUse">
<stop stop-color="#F4439F"/>
<stop offset="1" stop-color="#7C3AED"/>
</linearGradient>
<linearGradient id="paint8_linear_112_3862" x1="1364.39" y1="0.0656255" x2="685.143" y2="548.012" gradientUnits="userSpaceOnUse">
<stop stop-color="#F4439F"/>
<stop offset="1" stop-color="#7C3AED"/>
</linearGradient>
<linearGradient id="paint9_linear_112_3862" x1="828" y1="0.999964" x2="567.985" y2="52.1118" gradientUnits="userSpaceOnUse">
<stop stop-color="#F4439F"/>
<stop offset="1" stop-color="#7C3AED"/>
</linearGradient>
</defs>
</svg>
