<svg width="1400" height="120" viewBox="0 0 1400 120" fill="none" xmlns="http://www.w3.org/2000/svg">
<path d="M408 65H992V81H408V65Z" fill="url(#paint0_linear_112_3886)"/>
<mask id="mask0_112_3886" style="mask-type:alpha" maskUnits="userSpaceOnUse" x="408" y="81" width="584" height="38">
<path d="M408 81H992V119H408V81Z" fill="#C4C4C4"/>
</mask>
<g mask="url(#mask0_112_3886)">
<g filter="url(#filter0_f_112_3886)">
<path d="M864.624 82.9042L869.552 77.5922C871.941 78.5735 874.373 79.6402 876.848 80.7922C879.365 81.9442 881.733 83.0749 883.952 84.1842C886.213 85.2509 888.133 86.2535 889.712 87.1922L883.376 92.8242C881.968 91.8855 880.24 90.8402 878.192 89.6882C876.144 88.5362 873.947 87.3842 871.6 86.2322C869.253 85.0375 866.928 83.9282 864.624 82.9042ZM830.32 72.0882H888.816V78.9362H830.32V72.0882ZM843.248 45.1442H874.8V50.5842H843.248V45.1442ZM843.248 53.9762H874.8V59.4162H843.248V53.9762ZM843.248 62.9362H874.8V68.3762H843.248V62.9362ZM847.536 77.9762L854.384 82.7762C852.677 84.0562 850.715 85.3149 848.496 86.5522C846.32 87.7895 844.037 88.9415 841.648 90.0082C839.301 91.0749 837.061 92.0135 834.928 92.8242C834.245 91.9709 833.349 91.0109 832.24 89.9442C831.173 88.8775 830.192 87.9815 829.296 87.2562C831.472 86.5309 833.712 85.6562 836.016 84.6322C838.32 83.5655 840.496 82.4562 842.544 81.3042C844.592 80.1522 846.256 79.0429 847.536 77.9762ZM840.368 35.6082H879.024V75.2882H871.28V41.6882H847.792V75.2882H840.368V35.6082Z" fill="url(#paint1_linear_112_3886)" fill-opacity="0.7"/>
<path d="M769.84 39.2562H821.232V47.3202H769.84V39.2562ZM766.32 80.5362H824.816V88.2802H766.32V80.5362ZM790.832 43.6722H799.6V83.6722H790.832V43.6722Z" fill="url(#paint2_linear_112_3886)" fill-opacity="0.7"/>
<path d="M704.24 37.2722L710.128 33.4962C711.024 34.6482 711.963 35.9282 712.944 37.3362C713.925 38.7015 714.821 40.0455 715.632 41.3682C716.485 42.6482 717.147 43.8215 717.616 44.8882L711.344 49.1762C710.917 48.1095 710.32 46.8935 709.552 45.5282C708.784 44.1202 707.931 42.6909 706.992 41.2402C706.053 39.7895 705.136 38.4669 704.24 37.2722ZM709.872 91.8002L708.08 84.7602L709.36 82.3282L720.368 73.2402C720.752 74.2642 721.221 75.4162 721.776 76.6962C722.331 77.9762 722.843 78.9575 723.312 79.6402C720.667 81.8162 718.512 83.6295 716.848 85.0802C715.227 86.4882 713.947 87.5975 713.008 88.4082C712.112 89.2615 711.429 89.9442 710.96 90.4562C710.491 90.9682 710.128 91.4162 709.872 91.8002ZM701.936 52.1842H714.224V59.5442H701.936V52.1842ZM721.776 35.2242H753.328V41.8162H721.776V35.2242ZM751.152 35.2242H752.496L753.776 34.9042L758.704 37.5922C757.04 41.0482 754.928 44.1842 752.368 47.0002C749.808 49.7735 746.907 52.2695 743.664 54.4882C740.464 56.7069 737.029 58.6269 733.36 60.2482C729.733 61.8695 726.021 63.2135 722.224 64.2802C721.968 63.6402 721.605 62.9149 721.136 62.1042C720.709 61.2935 720.24 60.5042 719.728 59.7362C719.216 58.9255 718.704 58.2642 718.192 57.7522C721.776 56.9415 725.253 55.8749 728.624 54.5522C732.037 53.1869 735.216 51.5869 738.16 49.7522C741.104 47.9175 743.685 45.8695 745.904 43.6082C748.123 41.3469 749.872 38.9362 751.152 36.3762V35.2242ZM731.888 38.5522C733.765 41.5389 736.197 44.2269 739.184 46.6162C742.213 49.0055 745.691 51.0535 749.616 52.7602C753.541 54.4242 757.765 55.6829 762.288 56.5362C761.776 57.0482 761.221 57.6882 760.624 58.4562C760.027 59.2242 759.451 60.0135 758.896 60.8242C758.384 61.6349 757.936 62.3602 757.552 63.0002C752.859 61.8482 748.528 60.2482 744.56 58.2002C740.592 56.1522 737.029 53.6775 733.872 50.7762C730.757 47.8322 728.112 44.5042 725.936 40.7922L731.888 38.5522ZM725.168 65.4322H756.4V72.0882H725.168V65.4322ZM721.584 76.8882H760.688V83.6722H721.584V76.8882ZM736.624 60.3762H744.176V92.7602H736.624V60.3762ZM709.872 91.8002C709.659 91.2455 709.317 90.6269 708.848 89.9442C708.379 89.2615 707.867 88.5789 707.312 87.8962C706.8 87.2135 706.352 86.7015 705.968 86.3602C706.651 85.7629 707.355 84.8669 708.08 83.6722C708.848 82.4349 709.232 80.9629 709.232 79.2562V52.1842H716.656V83.4162C716.656 83.4162 716.421 83.6082 715.952 83.9922C715.525 84.3762 714.971 84.9095 714.288 85.5922C713.605 86.2322 712.923 86.9149 712.24 87.6402C711.6 88.3655 711.045 89.0909 710.576 89.8162C710.107 90.5842 709.872 91.2455 709.872 91.8002Z" fill="url(#paint3_linear_112_3886)" fill-opacity="0.7"/>
<path d="M638.064 47.7682H666.16V53.3362H638.064V47.7682ZM643.184 75.6082H661.808V80.5362H643.184V75.6082ZM643.376 83.9282H661.36V89.6242H643.376V83.9282ZM649.712 38.6802H656.112V65.8802H649.712V38.6802ZM650.224 70.2962H655.408V86.8722H650.224V70.2962ZM662.576 32.7922L666.352 37.8482C663.92 38.4029 661.189 38.8722 658.16 39.2562C655.131 39.6402 652.037 39.9389 648.88 40.1522C645.765 40.3655 642.757 40.5149 639.856 40.6002C639.771 39.8749 639.557 39.0429 639.216 38.1042C638.917 37.1229 638.597 36.3122 638.256 35.6722C641.072 35.4589 643.973 35.2242 646.96 34.9682C649.947 34.7122 652.784 34.4135 655.472 34.0722C658.203 33.6882 660.571 33.2615 662.576 32.7922ZM655.28 51.7362C655.877 52.0349 656.709 52.5469 657.776 53.2722C658.885 53.9549 660.037 54.7015 661.232 55.5122C662.469 56.3229 663.6 57.0909 664.624 57.8162C665.648 58.4989 666.373 58.9895 666.8 59.2882L662.96 65.2402C662.405 64.5575 661.659 63.7682 660.72 62.8722C659.824 61.9335 658.821 60.9735 657.712 59.9922C656.645 58.9682 655.621 58.0082 654.64 57.1122C653.659 56.2162 652.827 55.4909 652.144 54.9362L655.28 51.7362ZM640.368 41.8162L645.296 40.5362C645.723 41.5602 646.149 42.6695 646.576 43.8642C647.045 45.0589 647.387 46.0615 647.6 46.8722L642.416 48.4082C642.203 47.5549 641.904 46.5095 641.52 45.2722C641.136 43.9922 640.752 42.8402 640.368 41.8162ZM660.016 39.7682L665.584 41.4322C664.901 42.9682 664.219 44.4829 663.536 45.9762C662.896 47.4695 662.299 48.7495 661.744 49.8162L657.072 48.4082C657.413 47.5975 657.776 46.7015 658.16 45.7202C658.544 44.6962 658.885 43.6722 659.184 42.6482C659.525 41.5815 659.803 40.6215 660.016 39.7682ZM648.624 50.5202L652.976 53.0162C651.952 54.8082 650.736 56.7069 649.328 58.7122C647.92 60.6749 646.405 62.5309 644.784 64.2802C643.163 66.0295 641.541 67.4802 639.92 68.6322C639.664 67.6082 639.237 66.4562 638.64 65.1762C638.085 63.8535 637.552 62.7229 637.04 61.7842C638.491 60.9735 639.941 59.9495 641.392 58.7122C642.885 57.4322 644.272 56.0882 645.552 54.6802C646.832 53.2295 647.856 51.8429 648.624 50.5202ZM639.856 66.8402H665.776V91.9282H659.824V72.5362H645.488V92.6962H639.856V66.8402ZM667.888 35.2882H678.704V41.6882H667.888V35.2882ZM675.312 35.2882H681.456V85.2082C681.456 86.7015 681.285 87.9389 680.944 88.9202C680.645 89.9015 680.048 90.6482 679.152 91.1602C678.213 91.7149 677.083 92.0562 675.76 92.1842C674.437 92.3549 672.859 92.4402 671.024 92.4402C670.939 91.5869 670.704 90.5202 670.32 89.2402C669.936 88.0029 669.531 86.9575 669.104 86.1042C670.213 86.1469 671.259 86.1895 672.24 86.2322C673.264 86.2322 673.968 86.2109 674.352 86.1682C674.693 86.1682 674.928 86.1042 675.056 85.9762C675.227 85.8055 675.312 85.5069 675.312 85.0802V35.2882ZM682.8 35.4162H692.528V41.8162H682.8V35.4162ZM689.968 35.4162H696.24V85.0162C696.24 86.6375 696.069 87.9389 695.728 88.9202C695.387 89.9442 694.725 90.7335 693.744 91.2882C692.763 91.8429 691.547 92.1842 690.096 92.3122C688.688 92.4829 686.981 92.5682 684.976 92.5682C684.891 91.6722 684.635 90.5629 684.208 89.2402C683.781 87.9602 683.333 86.8935 682.864 86.0402C684.101 86.0829 685.296 86.1042 686.448 86.1042C687.643 86.1042 688.432 86.1042 688.816 86.1042C689.243 86.1042 689.541 86.0189 689.712 85.8482C689.883 85.6775 689.968 85.3789 689.968 84.9522V35.4162ZM666.864 48.0242L671.664 46.8082C672.219 48.0882 672.752 49.4962 673.264 51.0322C673.819 52.5255 674.309 53.9975 674.736 55.4482C675.163 56.8562 675.483 58.0935 675.696 59.1602L670.576 60.7602C670.405 59.6509 670.107 58.3709 669.68 56.9202C669.296 55.4695 668.848 53.9549 668.336 52.3762C667.867 50.7975 667.376 49.3469 666.864 48.0242ZM681.968 47.5762L686.832 46.6162C687.301 47.9389 687.749 49.3895 688.176 50.9682C688.603 52.5042 688.987 53.9762 689.328 55.3842C689.669 56.7922 689.925 58.0295 690.096 59.0962L684.912 60.3762C684.784 59.2669 684.549 57.9869 684.208 56.5362C683.909 55.0429 683.568 53.5282 683.184 51.9922C682.8 50.4135 682.395 48.9415 681.968 47.5762ZM681.264 71.3202C682.501 70.1255 684.037 68.6322 685.872 66.8402C687.707 65.0055 689.584 63.1069 691.504 61.1442L694.384 66.0082C692.805 67.7575 691.141 69.5495 689.392 71.3842C687.643 73.2189 685.957 74.9682 684.336 76.6322L681.264 71.3202ZM666.352 72.5362C667.675 71.2562 669.296 69.5922 671.216 67.5442C673.179 65.4962 675.163 63.3629 677.168 61.1442L680.24 65.9442C678.491 67.9495 676.677 69.9975 674.8 72.0882C672.923 74.1362 671.109 76.0349 669.36 77.7842L666.352 72.5362Z" fill="url(#paint4_linear_112_3886)" fill-opacity="0.7"/>
<path d="M589.232 50.9042L594.992 47.2562C596.571 48.3229 598.235 49.5602 599.984 50.9682C601.776 52.3335 603.163 53.6135 604.144 54.8082L598 58.7762C597.445 58.0082 596.656 57.1549 595.632 56.2162C594.651 55.2775 593.605 54.3389 592.496 53.4002C591.387 52.4615 590.299 51.6295 589.232 50.9042ZM616.304 37.8482H617.776L619.12 37.5282L624.176 40.4722C622.085 44.1842 619.44 47.4909 616.24 50.3922C613.04 53.2509 609.435 55.7469 605.424 57.8802C601.413 60.0135 597.168 61.8269 592.688 63.3202C588.208 64.7709 583.664 65.9442 579.056 66.8402C578.672 65.8162 578.139 64.6429 577.456 63.3202C576.773 61.9549 576.112 60.8669 575.472 60.0562C579.739 59.4162 583.963 58.4989 588.144 57.3042C592.368 56.0669 596.315 54.5735 599.984 52.8242C603.653 51.0322 606.896 48.9842 609.712 46.6802C612.528 44.3335 614.725 41.7522 616.304 38.9362V37.8482ZM595.056 37.8482H617.456V44.5682H595.056V37.8482ZM599.408 32.4082L607.664 34.3282C604.464 37.8269 600.795 41.0909 596.656 44.1202C592.517 47.1069 587.717 49.8162 582.256 52.2482C581.915 51.6082 581.445 50.9469 580.848 50.2642C580.251 49.5815 579.611 48.9202 578.928 48.2802C578.245 47.6402 577.627 47.1282 577.072 46.7442C580.528 45.4642 583.664 44.0349 586.48 42.4562C589.339 40.8775 591.835 39.2349 593.968 37.5282C596.144 35.7789 597.957 34.0722 599.408 32.4082ZM597.488 75.8002L603.824 72.1522C604.891 72.8775 606 73.6882 607.152 74.5842C608.347 75.4802 609.477 76.4189 610.544 77.4002C611.653 78.3389 612.549 79.1922 613.232 79.9602L606.448 83.9922C605.851 83.2242 605.04 82.3709 604.016 81.4322C603.035 80.4509 601.968 79.4695 600.816 78.4882C599.664 77.5069 598.555 76.6109 597.488 75.8002ZM624.304 61.5922H625.904L627.312 61.2082L632.624 64.2162C630.363 69.1229 627.397 73.2829 623.728 76.6962C620.059 80.0669 615.835 82.8402 611.056 85.0162C606.32 87.1922 601.136 88.8989 595.504 90.1362C589.872 91.3735 583.984 92.2909 577.84 92.8882C577.669 92.2055 577.413 91.3949 577.072 90.4562C576.773 89.5602 576.432 88.6642 576.048 87.7682C575.664 86.8722 575.259 86.1042 574.832 85.4642C580.549 85.0802 586.011 84.3975 591.216 83.4162C596.421 82.4349 601.2 81.0482 605.552 79.2562C609.947 77.4642 613.744 75.2242 616.944 72.5362C620.144 69.8055 622.597 66.5202 624.304 62.6802V61.5922ZM605.616 61.5922H626.224V68.3762H605.616V61.5922ZM609.968 55.3842L618.352 57.2402C616.005 60.0562 613.339 62.7229 610.352 65.2402C607.365 67.7575 603.995 70.0829 600.24 72.2162C596.528 74.3069 592.347 76.2269 587.696 77.9762C587.397 77.3789 586.971 76.7175 586.416 75.9922C585.904 75.2242 585.328 74.4775 584.688 73.7522C584.091 73.0269 583.536 72.4509 583.024 72.0242C587.419 70.6162 591.344 69.0375 594.8 67.2882C598.256 65.4962 601.243 63.5762 603.76 61.5282C606.32 59.4802 608.389 57.4322 609.968 55.3842Z" fill="url(#paint5_linear_112_3886)" fill-opacity="0.7"/>
<path d="M511.28 35.5442H567.664V42.3922H511.28V35.5442ZM535.92 38.4242H543.984V64.2802C543.984 66.8829 543.728 69.3789 543.216 71.7682C542.704 74.1575 541.808 76.4189 540.528 78.5522C539.291 80.6855 537.563 82.6482 535.344 84.4402C533.168 86.2322 530.373 87.8322 526.96 89.2402C523.547 90.6482 519.429 91.8429 514.608 92.8242C514.309 92.2269 513.883 91.5015 513.328 90.6482C512.816 89.7949 512.261 88.9415 511.664 88.0882C511.067 87.2775 510.491 86.5735 509.936 85.9762C514.544 85.2935 518.405 84.4189 521.52 83.3522C524.635 82.2855 527.152 81.0909 529.072 79.7682C530.992 78.4029 532.443 76.9095 533.424 75.2882C534.405 73.6669 535.067 71.9389 535.408 70.1042C535.749 68.2269 535.92 66.2642 535.92 64.2162V38.4242ZM524.144 62.2322V66.3922H556.016V62.2322H524.144ZM524.144 52.3122V56.4722H556.016V52.3122H524.144ZM516.848 46.1042H563.632V72.6002H516.848V46.1042ZM524.464 72.2802C526.725 75.1389 529.349 77.4002 532.336 79.0642C535.365 80.7282 538.757 81.9655 542.512 82.7762C546.309 83.5442 550.512 84.0349 555.12 84.2482C559.771 84.4189 564.827 84.5042 570.288 84.5042C569.605 85.3575 568.944 86.5095 568.304 87.9602C567.664 89.4109 567.237 90.7762 567.024 92.0562C561.392 91.9709 556.123 91.6935 551.216 91.2242C546.309 90.7975 541.787 89.9869 537.648 88.7922C533.509 87.6402 529.776 85.9549 526.448 83.7362C523.12 81.5175 520.24 78.5949 517.808 74.9682L524.464 72.2802Z" fill="url(#paint6_linear_112_3886)" fill-opacity="0.7"/>
</g>
</g>
<path d="M408 81H992V107C992 113.627 986.627 119 980 119H420C413.373 119 408 113.627 408 107V81Z" fill="url(#paint7_linear_112_3886)"/>
<path d="M865.184 70.9042L870.112 65.5922C872.501 66.5735 874.933 67.6402 877.408 68.7922C879.925 69.9442 882.293 71.0749 884.512 72.1842C886.773 73.2509 888.693 74.2535 890.272 75.1922L883.936 80.8242C882.528 79.8855 880.8 78.8402 878.752 77.6882C876.704 76.5362 874.507 75.3842 872.16 74.2322C869.813 73.0375 867.488 71.9282 865.184 70.9042ZM830.88 60.0882H889.376V66.9362H830.88V60.0882ZM843.808 33.1442H875.36V38.5842H843.808V33.1442ZM843.808 41.9762H875.36V47.4162H843.808V41.9762ZM843.808 50.9362H875.36V56.3762H843.808V50.9362ZM848.096 65.9762L854.944 70.7762C853.237 72.0562 851.275 73.3149 849.056 74.5522C846.88 75.7895 844.597 76.9415 842.208 78.0082C839.861 79.0749 837.621 80.0135 835.488 80.8242C834.805 79.9709 833.909 79.0109 832.8 77.9442C831.733 76.8775 830.752 75.9815 829.856 75.2562C832.032 74.5309 834.272 73.6562 836.576 72.6322C838.88 71.5655 841.056 70.4562 843.104 69.3042C845.152 68.1522 846.816 67.0429 848.096 65.9762ZM840.928 23.6082H879.584V63.2882H871.84V29.6882H848.352V63.2882H840.928V23.6082Z" fill="url(#paint8_linear_112_3886)"/>
<path d="M770.4 27.2562H821.792V35.3202H770.4V27.2562ZM766.88 68.5362H825.376V76.2802H766.88V68.5362ZM791.392 31.6722H800.16V71.6722H791.392V31.6722Z" fill="url(#paint9_linear_112_3886)"/>
<path d="M704.8 25.2722L710.688 21.4962C711.584 22.6482 712.523 23.9282 713.504 25.3362C714.485 26.7015 715.381 28.0455 716.192 29.3682C717.045 30.6482 717.707 31.8215 718.176 32.8882L711.904 37.1762C711.477 36.1095 710.88 34.8935 710.112 33.5282C709.344 32.1202 708.491 30.6909 707.552 29.2402C706.613 27.7895 705.696 26.4669 704.8 25.2722ZM710.432 79.8002L708.64 72.7602L709.92 70.3282L720.928 61.2402C721.312 62.2642 721.781 63.4162 722.336 64.6962C722.891 65.9762 723.403 66.9575 723.872 67.6402C721.227 69.8162 719.072 71.6295 717.408 73.0802C715.787 74.4882 714.507 75.5975 713.568 76.4082C712.672 77.2615 711.989 77.9442 711.52 78.4562C711.051 78.9682 710.688 79.4162 710.432 79.8002ZM702.496 40.1842H714.784V47.5442H702.496V40.1842ZM722.336 23.2242H753.888V29.8162H722.336V23.2242ZM751.712 23.2242H753.056L754.336 22.9042L759.264 25.5922C757.6 29.0482 755.488 32.1842 752.928 35.0002C750.368 37.7735 747.467 40.2695 744.224 42.4882C741.024 44.7069 737.589 46.6269 733.92 48.2482C730.293 49.8695 726.581 51.2135 722.784 52.2802C722.528 51.6402 722.165 50.9149 721.696 50.1042C721.269 49.2935 720.8 48.5042 720.288 47.7362C719.776 46.9255 719.264 46.2642 718.752 45.7522C722.336 44.9415 725.813 43.8749 729.184 42.5522C732.597 41.1869 735.776 39.5869 738.72 37.7522C741.664 35.9175 744.245 33.8695 746.464 31.6082C748.683 29.3469 750.432 26.9362 751.712 24.3762V23.2242ZM732.448 26.5522C734.325 29.5389 736.757 32.2269 739.744 34.6162C742.773 37.0055 746.251 39.0535 750.176 40.7602C754.101 42.4242 758.325 43.6829 762.848 44.5362C762.336 45.0482 761.781 45.6882 761.184 46.4562C760.587 47.2242 760.011 48.0135 759.456 48.8242C758.944 49.6349 758.496 50.3602 758.112 51.0002C753.419 49.8482 749.088 48.2482 745.12 46.2002C741.152 44.1522 737.589 41.6775 734.432 38.7762C731.317 35.8322 728.672 32.5042 726.496 28.7922L732.448 26.5522ZM725.728 53.4322H756.96V60.0882H725.728V53.4322ZM722.144 64.8882H761.248V71.6722H722.144V64.8882ZM737.184 48.3762H744.736V80.7602H737.184V48.3762ZM710.432 79.8002C710.219 79.2455 709.877 78.6269 709.408 77.9442C708.939 77.2615 708.427 76.5789 707.872 75.8962C707.36 75.2135 706.912 74.7015 706.528 74.3602C707.211 73.7629 707.915 72.8669 708.64 71.6722C709.408 70.4349 709.792 68.9629 709.792 67.2562V40.1842H717.216V71.4162C717.216 71.4162 716.981 71.6082 716.512 71.9922C716.085 72.3762 715.531 72.9095 714.848 73.5922C714.165 74.2322 713.483 74.9149 712.8 75.6402C712.16 76.3655 711.605 77.0909 711.136 77.8162C710.667 78.5842 710.432 79.2455 710.432 79.8002Z" fill="url(#paint10_linear_112_3886)"/>
<path d="M638.624 35.7682H666.72V41.3362H638.624V35.7682ZM643.744 63.6082H662.368V68.5362H643.744V63.6082ZM643.936 71.9282H661.92V77.6242H643.936V71.9282ZM650.272 26.6802H656.672V53.8802H650.272V26.6802ZM650.784 58.2962H655.968V74.8722H650.784V58.2962ZM663.136 20.7922L666.912 25.8482C664.48 26.4029 661.749 26.8722 658.72 27.2562C655.691 27.6402 652.597 27.9389 649.44 28.1522C646.325 28.3655 643.317 28.5149 640.416 28.6002C640.331 27.8749 640.117 27.0429 639.776 26.1042C639.477 25.1229 639.157 24.3122 638.816 23.6722C641.632 23.4589 644.533 23.2242 647.52 22.9682C650.507 22.7122 653.344 22.4135 656.032 22.0722C658.763 21.6882 661.131 21.2615 663.136 20.7922ZM655.84 39.7362C656.437 40.0349 657.269 40.5469 658.336 41.2722C659.445 41.9549 660.597 42.7015 661.792 43.5122C663.029 44.3229 664.16 45.0909 665.184 45.8162C666.208 46.4989 666.933 46.9895 667.36 47.2882L663.52 53.2402C662.965 52.5575 662.219 51.7682 661.28 50.8722C660.384 49.9335 659.381 48.9735 658.272 47.9922C657.205 46.9682 656.181 46.0082 655.2 45.1122C654.219 44.2162 653.387 43.4909 652.704 42.9362L655.84 39.7362ZM640.928 29.8162L645.856 28.5362C646.283 29.5602 646.709 30.6695 647.136 31.8642C647.605 33.0589 647.947 34.0615 648.16 34.8722L642.976 36.4082C642.763 35.5549 642.464 34.5095 642.08 33.2722C641.696 31.9922 641.312 30.8402 640.928 29.8162ZM660.576 27.7682L666.144 29.4322C665.461 30.9682 664.779 32.4829 664.096 33.9762C663.456 35.4695 662.859 36.7495 662.304 37.8162L657.632 36.4082C657.973 35.5975 658.336 34.7015 658.72 33.7202C659.104 32.6962 659.445 31.6722 659.744 30.6482C660.085 29.5815 660.363 28.6215 660.576 27.7682ZM649.184 38.5202L653.536 41.0162C652.512 42.8082 651.296 44.7069 649.888 46.7122C648.48 48.6749 646.965 50.5309 645.344 52.2802C643.723 54.0295 642.101 55.4802 640.48 56.6322C640.224 55.6082 639.797 54.4562 639.2 53.1762C638.645 51.8535 638.112 50.7229 637.6 49.7842C639.051 48.9735 640.501 47.9495 641.952 46.7122C643.445 45.4322 644.832 44.0882 646.112 42.6802C647.392 41.2295 648.416 39.8429 649.184 38.5202ZM640.416 54.8402H666.336V79.9282H660.384V60.5362H646.048V80.6962H640.416V54.8402ZM668.448 23.2882H679.264V29.6882H668.448V23.2882ZM675.872 23.2882H682.016V73.2082C682.016 74.7015 681.845 75.9389 681.504 76.9202C681.205 77.9015 680.608 78.6482 679.712 79.1602C678.773 79.7149 677.643 80.0562 676.32 80.1842C674.997 80.3549 673.419 80.4402 671.584 80.4402C671.499 79.5869 671.264 78.5202 670.88 77.2402C670.496 76.0029 670.091 74.9575 669.664 74.1042C670.773 74.1469 671.819 74.1895 672.8 74.2322C673.824 74.2322 674.528 74.2109 674.912 74.1682C675.253 74.1682 675.488 74.1042 675.616 73.9762C675.787 73.8055 675.872 73.5069 675.872 73.0802V23.2882ZM683.36 23.4162H693.088V29.8162H683.36V23.4162ZM690.528 23.4162H696.8V73.0162C696.8 74.6375 696.629 75.9389 696.288 76.9202C695.947 77.9442 695.285 78.7335 694.304 79.2882C693.323 79.8429 692.107 80.1842 690.656 80.3122C689.248 80.4829 687.541 80.5682 685.536 80.5682C685.451 79.6722 685.195 78.5629 684.768 77.2402C684.341 75.9602 683.893 74.8935 683.424 74.0402C684.661 74.0829 685.856 74.1042 687.008 74.1042C688.203 74.1042 688.992 74.1042 689.376 74.1042C689.803 74.1042 690.101 74.0189 690.272 73.8482C690.443 73.6775 690.528 73.3789 690.528 72.9522V23.4162ZM667.424 36.0242L672.224 34.8082C672.779 36.0882 673.312 37.4962 673.824 39.0322C674.379 40.5255 674.869 41.9975 675.296 43.4482C675.723 44.8562 676.043 46.0935 676.256 47.1602L671.136 48.7602C670.965 47.6509 670.667 46.3709 670.24 44.9202C669.856 43.4695 669.408 41.9549 668.896 40.3762C668.427 38.7975 667.936 37.3469 667.424 36.0242ZM682.528 35.5762L687.392 34.6162C687.861 35.9389 688.309 37.3895 688.736 38.9682C689.163 40.5042 689.547 41.9762 689.888 43.3842C690.229 44.7922 690.485 46.0295 690.656 47.0962L685.472 48.3762C685.344 47.2669 685.109 45.9869 684.768 44.5362C684.469 43.0429 684.128 41.5282 683.744 39.9922C683.36 38.4135 682.955 36.9415 682.528 35.5762ZM681.824 59.3202C683.061 58.1255 684.597 56.6322 686.432 54.8402C688.267 53.0055 690.144 51.1069 692.064 49.1442L694.944 54.0082C693.365 55.7575 691.701 57.5495 689.952 59.3842C688.203 61.2189 686.517 62.9682 684.896 64.6322L681.824 59.3202ZM666.912 60.5362C668.235 59.2562 669.856 57.5922 671.776 55.5442C673.739 53.4962 675.723 51.3629 677.728 49.1442L680.8 53.9442C679.051 55.9495 677.237 57.9975 675.36 60.0882C673.483 62.1362 671.669 64.0349 669.92 65.7842L666.912 60.5362Z" fill="url(#paint11_linear_112_3886)"/>
<path d="M589.792 38.9042L595.552 35.2562C597.131 36.3229 598.795 37.5602 600.544 38.9682C602.336 40.3335 603.723 41.6135 604.704 42.8082L598.56 46.7762C598.005 46.0082 597.216 45.1549 596.192 44.2162C595.211 43.2775 594.165 42.3389 593.056 41.4002C591.947 40.4615 590.859 39.6295 589.792 38.9042ZM616.864 25.8482H618.336L619.68 25.5282L624.736 28.4722C622.645 32.1842 620 35.4909 616.8 38.3922C613.6 41.2509 609.995 43.7469 605.984 45.8802C601.973 48.0135 597.728 49.8269 593.248 51.3202C588.768 52.7709 584.224 53.9442 579.616 54.8402C579.232 53.8162 578.699 52.6429 578.016 51.3202C577.333 49.9549 576.672 48.8669 576.032 48.0562C580.299 47.4162 584.523 46.4989 588.704 45.3042C592.928 44.0669 596.875 42.5735 600.544 40.8242C604.213 39.0322 607.456 36.9842 610.272 34.6802C613.088 32.3335 615.285 29.7522 616.864 26.9362V25.8482ZM595.616 25.8482H618.016V32.5682H595.616V25.8482ZM599.968 20.4082L608.224 22.3282C605.024 25.8269 601.355 29.0909 597.216 32.1202C593.077 35.1069 588.277 37.8162 582.816 40.2482C582.475 39.6082 582.005 38.9469 581.408 38.2642C580.811 37.5815 580.171 36.9202 579.488 36.2802C578.805 35.6402 578.187 35.1282 577.632 34.7442C581.088 33.4642 584.224 32.0349 587.04 30.4562C589.899 28.8775 592.395 27.2349 594.528 25.5282C596.704 23.7789 598.517 22.0722 599.968 20.4082ZM598.048 63.8002L604.384 60.1522C605.451 60.8775 606.56 61.6882 607.712 62.5842C608.907 63.4802 610.037 64.4189 611.104 65.4002C612.213 66.3389 613.109 67.1922 613.792 67.9602L607.008 71.9922C606.411 71.2242 605.6 70.3709 604.576 69.4322C603.595 68.4509 602.528 67.4695 601.376 66.4882C600.224 65.5069 599.115 64.6109 598.048 63.8002ZM624.864 49.5922H626.464L627.872 49.2082L633.184 52.2162C630.923 57.1229 627.957 61.2829 624.288 64.6962C620.619 68.0669 616.395 70.8402 611.616 73.0162C606.88 75.1922 601.696 76.8989 596.064 78.1362C590.432 79.3735 584.544 80.2909 578.4 80.8882C578.229 80.2055 577.973 79.3949 577.632 78.4562C577.333 77.5602 576.992 76.6642 576.608 75.7682C576.224 74.8722 575.819 74.1042 575.392 73.4642C581.109 73.0802 586.571 72.3975 591.776 71.4162C596.981 70.4349 601.76 69.0482 606.112 67.2562C610.507 65.4642 614.304 63.2242 617.504 60.5362C620.704 57.8055 623.157 54.5202 624.864 50.6802V49.5922ZM606.176 49.5922H626.784V56.3762H606.176V49.5922ZM610.528 43.3842L618.912 45.2402C616.565 48.0562 613.899 50.7229 610.912 53.2402C607.925 55.7575 604.555 58.0829 600.8 60.2162C597.088 62.3069 592.907 64.2269 588.256 65.9762C587.957 65.3789 587.531 64.7175 586.976 63.9922C586.464 63.2242 585.888 62.4775 585.248 61.7522C584.651 61.0269 584.096 60.4509 583.584 60.0242C587.979 58.6162 591.904 57.0375 595.36 55.2882C598.816 53.4962 601.803 51.5762 604.32 49.5282C606.88 47.4802 608.949 45.4322 610.528 43.3842Z" fill="url(#paint12_linear_112_3886)"/>
<path d="M511.84 23.5442H568.224V30.3922H511.84V23.5442ZM536.48 26.4242H544.544V52.2802C544.544 54.8829 544.288 57.3789 543.776 59.7682C543.264 62.1575 542.368 64.4189 541.088 66.5522C539.851 68.6855 538.123 70.6482 535.904 72.4402C533.728 74.2322 530.933 75.8322 527.52 77.2402C524.107 78.6482 519.989 79.8429 515.168 80.8242C514.869 80.2269 514.443 79.5015 513.888 78.6482C513.376 77.7949 512.821 76.9415 512.224 76.0882C511.627 75.2775 511.051 74.5735 510.496 73.9762C515.104 73.2935 518.965 72.4189 522.08 71.3522C525.195 70.2855 527.712 69.0909 529.632 67.7682C531.552 66.4029 533.003 64.9095 533.984 63.2882C534.965 61.6669 535.627 59.9389 535.968 58.1042C536.309 56.2269 536.48 54.2642 536.48 52.2162V26.4242ZM524.704 50.2322V54.3922H556.576V50.2322H524.704ZM524.704 40.3122V44.4722H556.576V40.3122H524.704ZM517.408 34.1042H564.192V60.6002H517.408V34.1042ZM525.024 60.2802C527.285 63.1389 529.909 65.4002 532.896 67.0642C535.925 68.7282 539.317 69.9655 543.072 70.7762C546.869 71.5442 551.072 72.0349 555.68 72.2482C560.331 72.4189 565.387 72.5042 570.848 72.5042C570.165 73.3575 569.504 74.5095 568.864 75.9602C568.224 77.4109 567.797 78.7762 567.584 80.0562C561.952 79.9709 556.683 79.6935 551.776 79.2242C546.869 78.7975 542.347 77.9869 538.208 76.7922C534.069 75.6402 530.336 73.9549 527.008 71.7362C523.68 69.5175 520.8 66.5949 518.368 62.9682L525.024 60.2802Z" fill="url(#paint13_linear_112_3886)"/>
<defs>
<filter id="filter0_f_112_3886" x="489.936" y="12.4082" width="419.776" height="100.48" filterUnits="userSpaceOnUse" color-interpolation-filters="sRGB">
<feFlood flood-opacity="0" result="BackgroundImageFix"/>
<feBlend mode="normal" in="SourceGraphic" in2="BackgroundImageFix" result="shape"/>
<feGaussianBlur stdDeviation="10" result="effect1_foregroundBlur_112_3886"/>
</filter>
<linearGradient id="paint0_linear_112_3886" x1="408" y1="73.0036" x2="992" y2="73.0032" gradientUnits="userSpaceOnUse">
<stop stop-color="white" stop-opacity="0.3"/>
<stop offset="0.495" stop-color="#CBB0F8"/>
<stop offset="1" stop-color="white" stop-opacity="0.3"/>
</linearGradient>
<linearGradient id="paint1_linear_112_3886" x1="900.574" y1="57.6632" x2="-1513.26" y2="57.6642" gradientUnits="userSpaceOnUse">
<stop stop-color="#F4439F"/>
<stop offset="1" stop-color="#7C3AED"/>
</linearGradient>
<linearGradient id="paint2_linear_112_3886" x1="1322.26" y1="57.3828" x2="-1170.8" y2="57.3837" gradientUnits="userSpaceOnUse">
<stop stop-color="#F4439F"/>
<stop offset="1" stop-color="#7C3AED"/>
</linearGradient>
<linearGradient id="paint3_linear_112_3886" x1="1702.42" y1="58.9458" x2="-713.966" y2="58.9468" gradientUnits="userSpaceOnUse">
<stop stop-color="#F4439F"/>
<stop offset="1" stop-color="#7C3AED"/>
</linearGradient>
<linearGradient id="paint4_linear_112_3886" x1="2141.95" y1="59.373" x2="-321.466" y2="59.3741" gradientUnits="userSpaceOnUse">
<stop stop-color="#F4439F"/>
<stop offset="1" stop-color="#7C3AED"/>
</linearGradient>
<linearGradient id="paint5_linear_112_3886" x1="2590.5" y1="59.5002" x2="67.0744" y2="59.5013" gradientUnits="userSpaceOnUse">
<stop stop-color="#F4439F"/>
<stop offset="1" stop-color="#7C3AED"/>
</linearGradient>
<linearGradient id="paint6_linear_112_3886" x1="891.44" y1="59.5" x2="507.44" y2="59.5" gradientUnits="userSpaceOnUse">
<stop stop-color="#F4439F"/>
<stop offset="1" stop-color="#7C3AED"/>
</linearGradient>
<linearGradient id="paint7_linear_112_3886" x1="700" y1="81" x2="700" y2="119" gradientUnits="userSpaceOnUse">
<stop offset="0.0001" stop-color="white" stop-opacity="0.1"/>
<stop offset="1" stop-color="white" stop-opacity="0"/>
</linearGradient>
<linearGradient id="paint8_linear_112_3886" x1="901.134" y1="-3.48951" x2="276.185" y2="1092.33" gradientUnits="userSpaceOnUse">
<stop stop-color="#F4439F"/>
<stop offset="1" stop-color="#7C3AED"/>
</linearGradient>
<linearGradient id="paint9_linear_112_3886" x1="1322.82" y1="-11.9833" x2="551.062" y2="1185.56" gradientUnits="userSpaceOnUse">
<stop stop-color="#F4439F"/>
<stop offset="1" stop-color="#7C3AED"/>
</linearGradient>
<linearGradient id="paint10_linear_112_3886" x1="1702.98" y1="-0.508338" x2="1110.94" y2="1075.91" gradientUnits="userSpaceOnUse">
<stop stop-color="#F4439F"/>
<stop offset="1" stop-color="#7C3AED"/>
</linearGradient>
<linearGradient id="paint11_linear_112_3886" x1="2142.51" y1="0.425893" x2="1566.31" y2="1079.95" gradientUnits="userSpaceOnUse">
<stop stop-color="#F4439F"/>
<stop offset="1" stop-color="#7C3AED"/>
</linearGradient>
<linearGradient id="paint12_linear_112_3886" x1="2591.06" y1="1.0002" x2="2031.16" y2="1085.9" gradientUnits="userSpaceOnUse">
<stop stop-color="#F4439F"/>
<stop offset="1" stop-color="#7C3AED"/>
</linearGradient>
<linearGradient id="paint13_linear_112_3886" x1="892" y1="0.9999" x2="519.309" y2="110.891" gradientUnits="userSpaceOnUse">
<stop stop-color="#F4439F"/>
<stop offset="1" stop-color="#7C3AED"/>
</linearGradient>
</defs>
</svg>
