<svg width="1400" height="120" viewBox="0 0 1400 120" fill="none" xmlns="http://www.w3.org/2000/svg">
<path d="M472 65H928V81H472V65Z" fill="url(#paint0_linear_112_4198)"/>
<mask id="mask0_112_4198" style="mask-type:alpha" maskUnits="userSpaceOnUse" x="472" y="81" width="456" height="38">
<path d="M472 81H928V119H472V81Z" fill="#C4C4C4"/>
</mask>
<g mask="url(#mask0_112_4198)">
<g filter="url(#filter0_f_112_4198)">
<path d="M768.24 37.272L774.128 33.496C775.024 34.648 775.963 35.928 776.944 37.336C777.925 38.7013 778.821 40.0453 779.632 41.368C780.485 42.648 781.147 43.8213 781.616 44.888L775.344 49.176C774.917 48.1093 774.32 46.8933 773.552 45.528C772.784 44.12 771.931 42.6907 770.992 41.24C770.053 39.7893 769.136 38.4667 768.24 37.272ZM773.872 91.8L772.08 84.76L773.36 82.328L784.368 73.24C784.752 74.264 785.221 75.416 785.776 76.696C786.331 77.976 786.843 78.9573 787.312 79.64C784.667 81.816 782.512 83.6293 780.848 85.08C779.227 86.488 777.947 87.5973 777.008 88.408C776.112 89.2613 775.429 89.944 774.96 90.456C774.491 90.968 774.128 91.416 773.872 91.8ZM765.936 52.184H778.224V59.544H765.936V52.184ZM785.776 35.224H817.328V41.816H785.776V35.224ZM815.152 35.224H816.496L817.776 34.904L822.704 37.592C821.04 41.048 818.928 44.184 816.368 47C813.808 49.7733 810.907 52.2693 807.664 54.488C804.464 56.7067 801.029 58.6267 797.36 60.248C793.733 61.8693 790.021 63.2133 786.224 64.28C785.968 63.64 785.605 62.9147 785.136 62.104C784.709 61.2933 784.24 60.504 783.728 59.736C783.216 58.9253 782.704 58.264 782.192 57.752C785.776 56.9413 789.253 55.8747 792.624 54.552C796.037 53.1867 799.216 51.5867 802.16 49.752C805.104 47.9173 807.685 45.8693 809.904 43.608C812.123 41.3467 813.872 38.936 815.152 36.376V35.224ZM795.888 38.552C797.765 41.5387 800.197 44.2267 803.184 46.616C806.213 49.0053 809.691 51.0533 813.616 52.76C817.541 54.424 821.765 55.6827 826.288 56.536C825.776 57.048 825.221 57.688 824.624 58.456C824.027 59.224 823.451 60.0133 822.896 60.824C822.384 61.6347 821.936 62.36 821.552 63C816.859 61.848 812.528 60.248 808.56 58.2C804.592 56.152 801.029 53.6773 797.872 50.776C794.757 47.832 792.112 44.504 789.936 40.792L795.888 38.552ZM789.168 65.432H820.4V72.088H789.168V65.432ZM785.584 76.888H824.688V83.672H785.584V76.888ZM800.624 60.376H808.176V92.76H800.624V60.376ZM773.872 91.8C773.659 91.2453 773.317 90.6267 772.848 89.944C772.379 89.2613 771.867 88.5787 771.312 87.896C770.8 87.2133 770.352 86.7013 769.968 86.36C770.651 85.7627 771.355 84.8667 772.08 83.672C772.848 82.4347 773.232 80.9627 773.232 79.256V52.184H780.656V83.416C780.656 83.416 780.421 83.608 779.952 83.992C779.525 84.376 778.971 84.9093 778.288 85.592C777.605 86.232 776.923 86.9147 776.24 87.64C775.6 88.3653 775.045 89.0907 774.576 89.816C774.107 90.584 773.872 91.2453 773.872 91.8Z" fill="url(#paint1_linear_112_4198)" fill-opacity="0.7"/>
<path d="M702.064 47.768H730.16V53.336H702.064V47.768ZM707.184 75.608H725.808V80.536H707.184V75.608ZM707.376 83.928H725.36V89.624H707.376V83.928ZM713.712 38.68H720.112V65.88H713.712V38.68ZM714.224 70.296H719.408V86.872H714.224V70.296ZM726.576 32.792L730.352 37.848C727.92 38.4027 725.189 38.872 722.16 39.256C719.131 39.64 716.037 39.9387 712.88 40.152C709.765 40.3653 706.757 40.5147 703.856 40.6C703.771 39.8747 703.557 39.0427 703.216 38.104C702.917 37.1227 702.597 36.312 702.256 35.672C705.072 35.4587 707.973 35.224 710.96 34.968C713.947 34.712 716.784 34.4133 719.472 34.072C722.203 33.688 724.571 33.2613 726.576 32.792ZM719.28 51.736C719.877 52.0347 720.709 52.5467 721.776 53.272C722.885 53.9547 724.037 54.7013 725.232 55.512C726.469 56.3227 727.6 57.0907 728.624 57.816C729.648 58.4987 730.373 58.9893 730.8 59.288L726.96 65.24C726.405 64.5573 725.659 63.768 724.72 62.872C723.824 61.9333 722.821 60.9733 721.712 59.992C720.645 58.968 719.621 58.008 718.64 57.112C717.659 56.216 716.827 55.4907 716.144 54.936L719.28 51.736ZM704.368 41.816L709.296 40.536C709.723 41.56 710.149 42.6693 710.576 43.864C711.045 45.0587 711.387 46.0613 711.6 46.872L706.416 48.408C706.203 47.5547 705.904 46.5093 705.52 45.272C705.136 43.992 704.752 42.84 704.368 41.816ZM724.016 39.768L729.584 41.432C728.901 42.968 728.219 44.4827 727.536 45.976C726.896 47.4693 726.299 48.7493 725.744 49.816L721.072 48.408C721.413 47.5973 721.776 46.7013 722.16 45.72C722.544 44.696 722.885 43.672 723.184 42.648C723.525 41.5813 723.803 40.6213 724.016 39.768ZM712.624 50.52L716.976 53.016C715.952 54.808 714.736 56.7067 713.328 58.712C711.92 60.6747 710.405 62.5307 708.784 64.28C707.163 66.0293 705.541 67.48 703.92 68.632C703.664 67.608 703.237 66.456 702.64 65.176C702.085 63.8533 701.552 62.7227 701.04 61.784C702.491 60.9733 703.941 59.9493 705.392 58.712C706.885 57.432 708.272 56.088 709.552 54.68C710.832 53.2293 711.856 51.8427 712.624 50.52ZM703.856 66.84H729.776V91.928H723.824V72.536H709.488V92.696H703.856V66.84ZM731.888 35.288H742.704V41.688H731.888V35.288ZM739.312 35.288H745.456V85.208C745.456 86.7013 745.285 87.9387 744.944 88.92C744.645 89.9013 744.048 90.648 743.152 91.16C742.213 91.7147 741.083 92.056 739.76 92.184C738.437 92.3547 736.859 92.44 735.024 92.44C734.939 91.5867 734.704 90.52 734.32 89.24C733.936 88.0027 733.531 86.9573 733.104 86.104C734.213 86.1467 735.259 86.1893 736.24 86.232C737.264 86.232 737.968 86.2107 738.352 86.168C738.693 86.168 738.928 86.104 739.056 85.976C739.227 85.8053 739.312 85.5067 739.312 85.08V35.288ZM746.8 35.416H756.528V41.816H746.8V35.416ZM753.968 35.416H760.24V85.016C760.24 86.6373 760.069 87.9387 759.728 88.92C759.387 89.944 758.725 90.7333 757.744 91.288C756.763 91.8427 755.547 92.184 754.096 92.312C752.688 92.4827 750.981 92.568 748.976 92.568C748.891 91.672 748.635 90.5627 748.208 89.24C747.781 87.96 747.333 86.8933 746.864 86.04C748.101 86.0827 749.296 86.104 750.448 86.104C751.643 86.104 752.432 86.104 752.816 86.104C753.243 86.104 753.541 86.0187 753.712 85.848C753.883 85.6773 753.968 85.3787 753.968 84.952V35.416ZM730.864 48.024L735.664 46.808C736.219 48.088 736.752 49.496 737.264 51.032C737.819 52.5253 738.309 53.9973 738.736 55.448C739.163 56.856 739.483 58.0933 739.696 59.16L734.576 60.76C734.405 59.6507 734.107 58.3707 733.68 56.92C733.296 55.4693 732.848 53.9547 732.336 52.376C731.867 50.7973 731.376 49.3467 730.864 48.024ZM745.968 47.576L750.832 46.616C751.301 47.9387 751.749 49.3893 752.176 50.968C752.603 52.504 752.987 53.976 753.328 55.384C753.669 56.792 753.925 58.0293 754.096 59.096L748.912 60.376C748.784 59.2667 748.549 57.9867 748.208 56.536C747.909 55.0427 747.568 53.528 747.184 51.992C746.8 50.4133 746.395 48.9413 745.968 47.576ZM745.264 71.32C746.501 70.1253 748.037 68.632 749.872 66.84C751.707 65.0053 753.584 63.1067 755.504 61.144L758.384 66.008C756.805 67.7573 755.141 69.5493 753.392 71.384C751.643 73.2187 749.957 74.968 748.336 76.632L745.264 71.32ZM730.352 72.536C731.675 71.256 733.296 69.592 735.216 67.544C737.179 65.496 739.163 63.3627 741.168 61.144L744.24 65.944C742.491 67.9493 740.677 69.9973 738.8 72.088C736.923 74.136 735.109 76.0347 733.36 77.784L730.352 72.536Z" fill="url(#paint2_linear_112_4198)" fill-opacity="0.7"/>
<path d="M639.728 35.672H695.728V42.776H639.728V35.672ZM662.576 39.192L671.472 40.28C670.619 42.3707 669.701 44.3973 668.72 46.36C667.781 48.3227 666.928 49.9867 666.16 51.352L659.44 50.008C659.867 48.984 660.272 47.832 660.656 46.552C661.083 45.272 661.467 43.992 661.808 42.712C662.149 41.432 662.405 40.2587 662.576 39.192ZM663.664 58.264H671.6V69.848C671.6 71.6827 671.365 73.496 670.896 75.288C670.427 77.08 669.573 78.808 668.336 80.472C667.099 82.136 665.392 83.7147 663.216 85.208C661.04 86.7013 658.267 88.088 654.896 89.368C651.568 90.648 647.515 91.8 642.736 92.824C642.48 92.2693 642.075 91.608 641.52 90.84C640.965 90.072 640.389 89.304 639.792 88.536C639.195 87.768 638.597 87.128 638 86.616C642.395 85.8053 646.107 84.9093 649.136 83.928C652.165 82.904 654.64 81.8373 656.56 80.728C658.48 79.576 659.952 78.4027 660.976 77.208C662 75.9707 662.704 74.7333 663.088 73.496C663.472 72.216 663.664 70.9573 663.664 69.72V58.264ZM669.68 80.92L674.096 75.736C675.845 76.4187 677.744 77.2293 679.792 78.168C681.883 79.064 683.952 80.024 686 81.048C688.091 82.0293 690.032 83.032 691.824 84.056C693.659 85.0373 695.216 85.9547 696.496 86.808L691.76 92.824C690.565 91.9707 689.093 91.0107 687.344 89.944C685.637 88.92 683.76 87.8747 681.712 86.808C679.664 85.6987 677.616 84.6533 675.568 83.672C673.52 82.648 671.557 81.7307 669.68 80.92ZM644.976 48.536H690.928V78.168H682.672V55.576H652.848V78.36H644.976V48.536Z" fill="url(#paint3_linear_112_4198)" fill-opacity="0.7"/>
<path d="M595.696 46.168L602.48 46.936C601.456 55.0853 599.835 62.424 597.616 68.952C595.44 75.48 592.411 80.8773 588.528 85.144C588.144 84.8027 587.589 84.376 586.864 83.864C586.139 83.352 585.392 82.84 584.624 82.328C583.856 81.7733 583.195 81.368 582.64 81.112C585.243 78.5947 587.397 75.5653 589.104 72.024C590.811 68.4827 592.197 64.536 593.264 60.184C594.331 55.7893 595.141 51.1173 595.696 46.168ZM613.232 46.296L620.08 47C619.013 55.32 617.349 62.7867 615.088 69.4C612.827 76.0133 609.691 81.4533 605.68 85.72C605.253 85.3787 604.677 84.952 603.952 84.44C603.227 83.8853 602.48 83.352 601.712 82.84C600.944 82.328 600.283 81.9227 599.728 81.624C602.416 79.1493 604.656 76.12 606.448 72.536C608.24 68.952 609.669 64.9413 610.736 60.504C611.845 56.0667 612.677 51.3307 613.232 46.296ZM583.472 55.128L587.76 50.52C589.339 52.184 590.939 53.9547 592.56 55.832C594.181 57.7093 595.76 59.5867 597.296 61.464C598.875 63.3413 600.325 65.1547 601.648 66.904C602.971 68.6107 604.08 70.1467 604.976 71.512L600.368 76.888C599.472 75.48 598.384 73.88 597.104 72.088C595.824 70.2533 594.416 68.3547 592.88 66.392C591.344 64.4293 589.765 62.488 588.144 60.568C586.565 58.6053 585.008 56.792 583.472 55.128ZM601.52 55.064L606.128 50.84C607.792 52.5467 609.456 54.4027 611.12 56.408C612.827 58.3707 614.405 60.376 615.856 62.424C617.349 64.4293 618.693 66.392 619.888 68.312C621.083 70.232 622.085 72.0027 622.896 73.624L617.84 78.488C617.115 76.8667 616.155 75.0747 614.96 73.112C613.808 71.1067 612.485 69.0587 610.992 66.968C609.541 64.8347 608.005 62.7653 606.384 60.76C604.763 58.712 603.141 56.8133 601.52 55.064ZM576.368 36.184H627.76V43.416H584.048V92.632H576.368V36.184ZM622.96 36.184H630.64V83.48C630.64 85.6133 630.363 87.2773 629.808 88.472C629.253 89.6667 628.293 90.5627 626.928 91.16C625.52 91.8 623.771 92.2053 621.68 92.376C619.589 92.5467 617.008 92.6107 613.936 92.568C613.851 91.8427 613.637 91.0107 613.296 90.072C612.997 89.1333 612.656 88.1947 612.272 87.256C611.888 86.3173 611.483 85.5067 611.056 84.824C612.421 84.9093 613.787 84.9733 615.152 85.016C616.56 85.0587 617.797 85.08 618.864 85.08C619.973 85.08 620.741 85.08 621.168 85.08C621.808 85.0373 622.256 84.888 622.512 84.632C622.811 84.376 622.96 83.9493 622.96 83.352V36.184Z" fill="url(#paint4_linear_112_4198)" fill-opacity="0.7"/>
</g>
</g>
<path d="M472 81H928V107C928 113.627 922.627 119 916 119H484C477.373 119 472 113.627 472 107V81Z" fill="url(#paint5_linear_112_4198)"/>
<path d="M768.8 25.272L774.688 21.496C775.584 22.648 776.523 23.928 777.504 25.336C778.485 26.7013 779.381 28.0453 780.192 29.368C781.045 30.648 781.707 31.8213 782.176 32.888L775.904 37.176C775.477 36.1093 774.88 34.8933 774.112 33.528C773.344 32.12 772.491 30.6907 771.552 29.24C770.613 27.7893 769.696 26.4667 768.8 25.272ZM774.432 79.8L772.64 72.76L773.92 70.328L784.928 61.24C785.312 62.264 785.781 63.416 786.336 64.696C786.891 65.976 787.403 66.9573 787.872 67.64C785.227 69.816 783.072 71.6293 781.408 73.08C779.787 74.488 778.507 75.5973 777.568 76.408C776.672 77.2613 775.989 77.944 775.52 78.456C775.051 78.968 774.688 79.416 774.432 79.8ZM766.496 40.184H778.784V47.544H766.496V40.184ZM786.336 23.224H817.888V29.816H786.336V23.224ZM815.712 23.224H817.056L818.336 22.904L823.264 25.592C821.6 29.048 819.488 32.184 816.928 35C814.368 37.7733 811.467 40.2693 808.224 42.488C805.024 44.7067 801.589 46.6267 797.92 48.248C794.293 49.8693 790.581 51.2133 786.784 52.28C786.528 51.64 786.165 50.9147 785.696 50.104C785.269 49.2933 784.8 48.504 784.288 47.736C783.776 46.9253 783.264 46.264 782.752 45.752C786.336 44.9413 789.813 43.8747 793.184 42.552C796.597 41.1867 799.776 39.5867 802.72 37.752C805.664 35.9173 808.245 33.8693 810.464 31.608C812.683 29.3467 814.432 26.936 815.712 24.376V23.224ZM796.448 26.552C798.325 29.5387 800.757 32.2267 803.744 34.616C806.773 37.0053 810.251 39.0533 814.176 40.76C818.101 42.424 822.325 43.6827 826.848 44.536C826.336 45.048 825.781 45.688 825.184 46.456C824.587 47.224 824.011 48.0133 823.456 48.824C822.944 49.6347 822.496 50.36 822.112 51C817.419 49.848 813.088 48.248 809.12 46.2C805.152 44.152 801.589 41.6773 798.432 38.776C795.317 35.832 792.672 32.504 790.496 28.792L796.448 26.552ZM789.728 53.432H820.96V60.088H789.728V53.432ZM786.144 64.888H825.248V71.672H786.144V64.888ZM801.184 48.376H808.736V80.76H801.184V48.376ZM774.432 79.8C774.219 79.2453 773.877 78.6267 773.408 77.944C772.939 77.2613 772.427 76.5787 771.872 75.896C771.36 75.2133 770.912 74.7013 770.528 74.36C771.211 73.7627 771.915 72.8667 772.64 71.672C773.408 70.4347 773.792 68.9627 773.792 67.256V40.184H781.216V71.416C781.216 71.416 780.981 71.608 780.512 71.992C780.085 72.376 779.531 72.9093 778.848 73.592C778.165 74.232 777.483 74.9147 776.8 75.64C776.16 76.3653 775.605 77.0907 775.136 77.816C774.667 78.584 774.432 79.2453 774.432 79.8Z" fill="url(#paint6_linear_112_4198)"/>
<path d="M702.624 35.768H730.72V41.336H702.624V35.768ZM707.744 63.608H726.368V68.536H707.744V63.608ZM707.936 71.928H725.92V77.624H707.936V71.928ZM714.272 26.68H720.672V53.88H714.272V26.68ZM714.784 58.296H719.968V74.872H714.784V58.296ZM727.136 20.792L730.912 25.848C728.48 26.4027 725.749 26.872 722.72 27.256C719.691 27.64 716.597 27.9387 713.44 28.152C710.325 28.3653 707.317 28.5147 704.416 28.6C704.331 27.8747 704.117 27.0427 703.776 26.104C703.477 25.1227 703.157 24.312 702.816 23.672C705.632 23.4587 708.533 23.224 711.52 22.968C714.507 22.712 717.344 22.4133 720.032 22.072C722.763 21.688 725.131 21.2613 727.136 20.792ZM719.84 39.736C720.437 40.0347 721.269 40.5467 722.336 41.272C723.445 41.9547 724.597 42.7013 725.792 43.512C727.029 44.3227 728.16 45.0907 729.184 45.816C730.208 46.4987 730.933 46.9893 731.36 47.288L727.52 53.24C726.965 52.5573 726.219 51.768 725.28 50.872C724.384 49.9333 723.381 48.9733 722.272 47.992C721.205 46.968 720.181 46.008 719.2 45.112C718.219 44.216 717.387 43.4907 716.704 42.936L719.84 39.736ZM704.928 29.816L709.856 28.536C710.283 29.56 710.709 30.6693 711.136 31.864C711.605 33.0587 711.947 34.0613 712.16 34.872L706.976 36.408C706.763 35.5547 706.464 34.5093 706.08 33.272C705.696 31.992 705.312 30.84 704.928 29.816ZM724.576 27.768L730.144 29.432C729.461 30.968 728.779 32.4827 728.096 33.976C727.456 35.4693 726.859 36.7493 726.304 37.816L721.632 36.408C721.973 35.5973 722.336 34.7013 722.72 33.72C723.104 32.696 723.445 31.672 723.744 30.648C724.085 29.5813 724.363 28.6213 724.576 27.768ZM713.184 38.52L717.536 41.016C716.512 42.808 715.296 44.7067 713.888 46.712C712.48 48.6747 710.965 50.5307 709.344 52.28C707.723 54.0293 706.101 55.48 704.48 56.632C704.224 55.608 703.797 54.456 703.2 53.176C702.645 51.8533 702.112 50.7227 701.6 49.784C703.051 48.9733 704.501 47.9493 705.952 46.712C707.445 45.432 708.832 44.088 710.112 42.68C711.392 41.2293 712.416 39.8427 713.184 38.52ZM704.416 54.84H730.336V79.928H724.384V60.536H710.048V80.696H704.416V54.84ZM732.448 23.288H743.264V29.688H732.448V23.288ZM739.872 23.288H746.016V73.208C746.016 74.7013 745.845 75.9387 745.504 76.92C745.205 77.9013 744.608 78.648 743.712 79.16C742.773 79.7147 741.643 80.056 740.32 80.184C738.997 80.3547 737.419 80.44 735.584 80.44C735.499 79.5867 735.264 78.52 734.88 77.24C734.496 76.0027 734.091 74.9573 733.664 74.104C734.773 74.1467 735.819 74.1893 736.8 74.232C737.824 74.232 738.528 74.2107 738.912 74.168C739.253 74.168 739.488 74.104 739.616 73.976C739.787 73.8053 739.872 73.5067 739.872 73.08V23.288ZM747.36 23.416H757.088V29.816H747.36V23.416ZM754.528 23.416H760.8V73.016C760.8 74.6373 760.629 75.9387 760.288 76.92C759.947 77.944 759.285 78.7333 758.304 79.288C757.323 79.8427 756.107 80.184 754.656 80.312C753.248 80.4827 751.541 80.568 749.536 80.568C749.451 79.672 749.195 78.5627 748.768 77.24C748.341 75.96 747.893 74.8933 747.424 74.04C748.661 74.0827 749.856 74.104 751.008 74.104C752.203 74.104 752.992 74.104 753.376 74.104C753.803 74.104 754.101 74.0187 754.272 73.848C754.443 73.6773 754.528 73.3787 754.528 72.952V23.416ZM731.424 36.024L736.224 34.808C736.779 36.088 737.312 37.496 737.824 39.032C738.379 40.5253 738.869 41.9973 739.296 43.448C739.723 44.856 740.043 46.0933 740.256 47.16L735.136 48.76C734.965 47.6507 734.667 46.3707 734.24 44.92C733.856 43.4693 733.408 41.9547 732.896 40.376C732.427 38.7973 731.936 37.3467 731.424 36.024ZM746.528 35.576L751.392 34.616C751.861 35.9387 752.309 37.3893 752.736 38.968C753.163 40.504 753.547 41.976 753.888 43.384C754.229 44.792 754.485 46.0293 754.656 47.096L749.472 48.376C749.344 47.2667 749.109 45.9867 748.768 44.536C748.469 43.0427 748.128 41.528 747.744 39.992C747.36 38.4133 746.955 36.9413 746.528 35.576ZM745.824 59.32C747.061 58.1253 748.597 56.632 750.432 54.84C752.267 53.0053 754.144 51.1067 756.064 49.144L758.944 54.008C757.365 55.7573 755.701 57.5493 753.952 59.384C752.203 61.2187 750.517 62.968 748.896 64.632L745.824 59.32ZM730.912 60.536C732.235 59.256 733.856 57.592 735.776 55.544C737.739 53.496 739.723 51.3627 741.728 49.144L744.8 53.944C743.051 55.9493 741.237 57.9973 739.36 60.088C737.483 62.136 735.669 64.0347 733.92 65.784L730.912 60.536Z" fill="url(#paint7_linear_112_4198)"/>
<path d="M640.288 23.672H696.288V30.776H640.288V23.672ZM663.136 27.192L672.032 28.28C671.179 30.3707 670.261 32.3973 669.28 34.36C668.341 36.3227 667.488 37.9867 666.72 39.352L660 38.008C660.427 36.984 660.832 35.832 661.216 34.552C661.643 33.272 662.027 31.992 662.368 30.712C662.709 29.432 662.965 28.2587 663.136 27.192ZM664.224 46.264H672.16V57.848C672.16 59.6827 671.925 61.496 671.456 63.288C670.987 65.08 670.133 66.808 668.896 68.472C667.659 70.136 665.952 71.7147 663.776 73.208C661.6 74.7013 658.827 76.088 655.456 77.368C652.128 78.648 648.075 79.8 643.296 80.824C643.04 80.2693 642.635 79.608 642.08 78.84C641.525 78.072 640.949 77.304 640.352 76.536C639.755 75.768 639.157 75.128 638.56 74.616C642.955 73.8053 646.667 72.9093 649.696 71.928C652.725 70.904 655.2 69.8373 657.12 68.728C659.04 67.576 660.512 66.4027 661.536 65.208C662.56 63.9707 663.264 62.7333 663.648 61.496C664.032 60.216 664.224 58.9573 664.224 57.72V46.264ZM670.24 68.92L674.656 63.736C676.405 64.4187 678.304 65.2293 680.352 66.168C682.443 67.064 684.512 68.024 686.56 69.048C688.651 70.0293 690.592 71.032 692.384 72.056C694.219 73.0373 695.776 73.9547 697.056 74.808L692.32 80.824C691.125 79.9707 689.653 79.0107 687.904 77.944C686.197 76.92 684.32 75.8747 682.272 74.808C680.224 73.6987 678.176 72.6533 676.128 71.672C674.08 70.648 672.117 69.7307 670.24 68.92ZM645.536 36.536H691.488V66.168H683.232V43.576H653.408V66.36H645.536V36.536Z" fill="url(#paint8_linear_112_4198)"/>
<path d="M596.256 34.168L603.04 34.936C602.016 43.0853 600.395 50.424 598.176 56.952C596 63.48 592.971 68.8773 589.088 73.144C588.704 72.8027 588.149 72.376 587.424 71.864C586.699 71.352 585.952 70.84 585.184 70.328C584.416 69.7733 583.755 69.368 583.2 69.112C585.803 66.5947 587.957 63.5653 589.664 60.024C591.371 56.4827 592.757 52.536 593.824 48.184C594.891 43.7893 595.701 39.1173 596.256 34.168ZM613.792 34.296L620.64 35C619.573 43.32 617.909 50.7867 615.648 57.4C613.387 64.0133 610.251 69.4533 606.24 73.72C605.813 73.3787 605.237 72.952 604.512 72.44C603.787 71.8853 603.04 71.352 602.272 70.84C601.504 70.328 600.843 69.9227 600.288 69.624C602.976 67.1493 605.216 64.12 607.008 60.536C608.8 56.952 610.229 52.9413 611.296 48.504C612.405 44.0667 613.237 39.3307 613.792 34.296ZM584.032 43.128L588.32 38.52C589.899 40.184 591.499 41.9547 593.12 43.832C594.741 45.7093 596.32 47.5867 597.856 49.464C599.435 51.3413 600.885 53.1547 602.208 54.904C603.531 56.6107 604.64 58.1467 605.536 59.512L600.928 64.888C600.032 63.48 598.944 61.88 597.664 60.088C596.384 58.2533 594.976 56.3547 593.44 54.392C591.904 52.4293 590.325 50.488 588.704 48.568C587.125 46.6053 585.568 44.792 584.032 43.128ZM602.08 43.064L606.688 38.84C608.352 40.5467 610.016 42.4027 611.68 44.408C613.387 46.3707 614.965 48.376 616.416 50.424C617.909 52.4293 619.253 54.392 620.448 56.312C621.643 58.232 622.645 60.0027 623.456 61.624L618.4 66.488C617.675 64.8667 616.715 63.0747 615.52 61.112C614.368 59.1067 613.045 57.0587 611.552 54.968C610.101 52.8347 608.565 50.7653 606.944 48.76C605.323 46.712 603.701 44.8133 602.08 43.064ZM576.928 24.184H628.32V31.416H584.608V80.632H576.928V24.184ZM623.52 24.184H631.2V71.48C631.2 73.6133 630.923 75.2773 630.368 76.472C629.813 77.6667 628.853 78.5627 627.488 79.16C626.08 79.8 624.331 80.2053 622.24 80.376C620.149 80.5467 617.568 80.6107 614.496 80.568C614.411 79.8427 614.197 79.0107 613.856 78.072C613.557 77.1333 613.216 76.1947 612.832 75.256C612.448 74.3173 612.043 73.5067 611.616 72.824C612.981 72.9093 614.347 72.9733 615.712 73.016C617.12 73.0587 618.357 73.08 619.424 73.08C620.533 73.08 621.301 73.08 621.728 73.08C622.368 73.0373 622.816 72.888 623.072 72.632C623.371 72.376 623.52 71.9493 623.52 71.352V24.184Z" fill="url(#paint9_linear_112_4198)"/>
<defs>
<filter id="filter0_f_112_4198" x="556.368" y="12.792" width="289.92" height="100.032" filterUnits="userSpaceOnUse" color-interpolation-filters="sRGB">
<feFlood flood-opacity="0" result="BackgroundImageFix"/>
<feBlend mode="normal" in="SourceGraphic" in2="BackgroundImageFix" result="shape"/>
<feGaussianBlur stdDeviation="10" result="effect1_foregroundBlur_112_4198"/>
</filter>
<linearGradient id="paint0_linear_112_4198" x1="472" y1="73.0036" x2="928" y2="73.0033" gradientUnits="userSpaceOnUse">
<stop stop-color="white" stop-opacity="0.3"/>
<stop offset="0.495" stop-color="#CBB0F8"/>
<stop offset="1" stop-color="white" stop-opacity="0.3"/>
</linearGradient>
<linearGradient id="paint1_linear_112_4198" x1="831.058" y1="59.133" x2="-229.048" y2="59.1332" gradientUnits="userSpaceOnUse">
<stop stop-color="#F4439F"/>
<stop offset="1" stop-color="#7C3AED"/>
</linearGradient>
<linearGradient id="paint2_linear_112_4198" x1="1109.98" y1="59.5571" x2="29.2457" y2="59.5573" gradientUnits="userSpaceOnUse">
<stop stop-color="#F4439F"/>
<stop offset="1" stop-color="#7C3AED"/>
</linearGradient>
<linearGradient id="paint3_linear_112_4198" x1="1385.74" y1="57.8207" x2="291.995" y2="57.821" gradientUnits="userSpaceOnUse">
<stop stop-color="#F4439F"/>
<stop offset="1" stop-color="#7C3AED"/>
</linearGradient>
<linearGradient id="paint4_linear_112_4198" x1="827.44" y1="59.5001" x2="571.44" y2="59.5001" gradientUnits="userSpaceOnUse">
<stop stop-color="#F4439F"/>
<stop offset="1" stop-color="#7C3AED"/>
</linearGradient>
<linearGradient id="paint5_linear_112_4198" x1="700" y1="81" x2="700" y2="119" gradientUnits="userSpaceOnUse">
<stop offset="0.0001" stop-color="white" stop-opacity="0.1"/>
<stop offset="1" stop-color="white" stop-opacity="0"/>
</linearGradient>
<linearGradient id="paint6_linear_112_4198" x1="831.618" y1="0.030376" x2="152.097" y2="546.095" gradientUnits="userSpaceOnUse">
<stop stop-color="#F4439F"/>
<stop offset="1" stop-color="#7C3AED"/>
</linearGradient>
<linearGradient id="paint7_linear_112_4198" x1="1110.54" y1="0.95769" x2="434.214" y2="561.014" gradientUnits="userSpaceOnUse">
<stop stop-color="#F4439F"/>
<stop offset="1" stop-color="#7C3AED"/>
</linearGradient>
<linearGradient id="paint8_linear_112_4198" x1="1386.3" y1="-3.02251" x2="682.438" y2="559.748" gradientUnits="userSpaceOnUse">
<stop stop-color="#F4439F"/>
<stop offset="1" stop-color="#7C3AED"/>
</linearGradient>
<linearGradient id="paint9_linear_112_4198" x1="828" y1="1.00006" x2="567.985" y2="52.1119" gradientUnits="userSpaceOnUse">
<stop stop-color="#F4439F"/>
<stop offset="1" stop-color="#7C3AED"/>
</linearGradient>
</defs>
</svg>
