<svg width="1400" height="120" viewBox="0 0 1400 120" fill="none" xmlns="http://www.w3.org/2000/svg">
<path d="M408 65H992V81H408V65Z" fill="url(#paint0_linear_112_3894)"/>
<mask id="mask0_112_3894" style="mask-type:alpha" maskUnits="userSpaceOnUse" x="408" y="81" width="584" height="38">
<path d="M408 81H992V119H408V81Z" fill="#C4C4C4"/>
</mask>
<g mask="url(#mask0_112_3894)">
<g filter="url(#filter0_f_112_3894)">
<path d="M865.184 82.9047L870.112 77.5927C872.501 78.5741 874.933 79.6407 877.408 80.7927C879.925 81.9447 882.293 83.0754 884.512 84.1847C886.773 85.2514 888.693 86.2541 890.272 87.1927L883.936 92.8247C882.528 91.8861 880.8 90.8407 878.752 89.6887C876.704 88.5367 874.507 87.3847 872.16 86.2327C869.813 85.0381 867.488 83.9287 865.184 82.9047ZM830.88 72.0887H889.376V78.9367H830.88V72.0887ZM843.808 45.1447H875.36V50.5847H843.808V45.1447ZM843.808 53.9767H875.36V59.4167H843.808V53.9767ZM843.808 62.9367H875.36V68.3767H843.808V62.9367ZM848.096 77.9767L854.944 82.7767C853.237 84.0567 851.275 85.3154 849.056 86.5527C846.88 87.7901 844.597 88.9421 842.208 90.0087C839.861 91.0754 837.621 92.0141 835.488 92.8247C834.805 91.9714 833.909 91.0114 832.8 89.9447C831.733 88.8781 830.752 87.9821 829.856 87.2567C832.032 86.5314 834.272 85.6567 836.576 84.6327C838.88 83.5661 841.056 82.4567 843.104 81.3047C845.152 80.1527 846.816 79.0434 848.096 77.9767ZM840.928 35.6087H879.584V75.2887H871.84V41.6887H848.352V75.2887H840.928V35.6087Z" fill="url(#paint1_linear_112_3894)" fill-opacity="0.7"/>
<path d="M770.4 39.2567H821.792V47.3207H770.4V39.2567ZM766.88 80.5367H825.376V88.2807H766.88V80.5367ZM791.392 43.6727H800.16V83.6727H791.392V43.6727Z" fill="url(#paint2_linear_112_3894)" fill-opacity="0.7"/>
<path d="M704.8 52.1847H722.976V57.9447H704.8V52.1847ZM704.8 60.8247H722.976V66.6487H704.8V60.8247ZM701.984 43.2247H724.256V49.3047H701.984V43.2247ZM708 69.7207H722.976V89.1767H708V83.0327H716.384V75.8007H708V69.7207ZM704.608 69.7207H711.136V91.9287H704.608V69.7207ZM707.616 35.1607L713.568 32.3447C714.464 33.6674 715.339 35.1394 716.192 36.7607C717.088 38.3394 717.792 39.7261 718.304 40.9207L712.16 44.2487C711.733 43.0541 711.072 41.6034 710.176 39.8967C709.28 38.1474 708.427 36.5687 707.616 35.1607ZM724.576 80.4087H761.504V85.9767H724.576V80.4087ZM727.136 53.2727H758.944V58.7127H727.136V53.2727ZM726.432 71.9607H759.712V77.5927H726.432V71.9607ZM724.448 61.4647H761.504V67.3527H724.448V61.4647ZM738.976 49.5607H746.272V63.8967H738.976V49.5607ZM738.976 74.0087H746.272V92.7607H738.976V74.0087ZM747.936 66.9687L754.784 68.6327C754.016 69.7847 753.248 70.8727 752.48 71.8967C751.712 72.8781 751.029 73.7314 750.432 74.4567L745.056 72.8567C745.568 72.0034 746.08 71.0221 746.592 69.9127C747.147 68.8034 747.595 67.8221 747.936 66.9687ZM730.976 68.4407L736.928 66.9687C737.397 67.6941 737.824 68.5261 738.208 69.4647C738.635 70.3607 738.933 71.1714 739.104 71.8967L732.896 73.6887C732.768 73.0061 732.512 72.1741 732.128 71.1927C731.787 70.2114 731.403 69.2941 730.976 68.4407ZM750.112 40.2167V45.2727H753.632V40.2167H750.112ZM741.152 40.2167V45.2727H744.608V40.2167H741.152ZM732.32 40.2167V45.2727H735.776V40.2167H732.32ZM726.176 34.7767H760.096V50.7767H726.176V34.7767Z" fill="url(#paint3_linear_112_3894)" fill-opacity="0.7"/>
<path d="M638.624 48.1527H666.912V53.7207H638.624V48.1527ZM643.936 75.7367H662.368V80.6647H643.936V75.7367ZM644.064 84.0567H661.92V89.7527H644.064V84.0567ZM650.272 38.8727H656.672V65.6247H650.272V38.8727ZM650.72 70.4247H655.904V87.0007H650.72V70.4247ZM663.264 32.9207L667.104 38.1687C664.629 38.6807 661.856 39.1287 658.784 39.5127C655.755 39.8967 652.661 40.1954 649.504 40.4087C646.347 40.6221 643.317 40.7714 640.416 40.8567C640.331 40.1314 640.117 39.2781 639.776 38.2967C639.435 37.3154 639.093 36.4834 638.752 35.8007C640.885 35.6727 643.061 35.5234 645.28 35.3527C647.541 35.1394 649.739 34.9261 651.872 34.7127C654.048 34.4994 656.096 34.2434 658.016 33.9447C659.979 33.6034 661.728 33.2621 663.264 32.9207ZM641.056 42.2007L645.92 40.9207C646.347 41.9021 646.795 42.9901 647.264 44.1847C647.733 45.3367 648.075 46.3181 648.288 47.1287L643.104 48.6647C642.891 47.8541 642.592 46.8301 642.208 45.5927C641.824 44.3554 641.44 43.2247 641.056 42.2007ZM660.576 40.0887L666.08 41.6887C665.397 43.2247 664.715 44.7607 664.032 46.2967C663.392 47.7901 662.773 49.0914 662.176 50.2007L657.504 48.7287C658.059 47.5341 658.613 46.1047 659.168 44.4407C659.765 42.7767 660.235 41.3261 660.576 40.0887ZM649.056 50.8407L653.344 53.3367C652.32 55.1714 651.061 57.0914 649.568 59.0967C648.117 61.1021 646.56 62.9794 644.896 64.7287C643.232 66.4781 641.547 67.9074 639.84 69.0167C639.584 68.0354 639.157 66.8834 638.56 65.5607C638.005 64.2381 637.472 63.1501 636.96 62.2967C638.453 61.4434 639.968 60.3767 641.504 59.0967C643.04 57.7741 644.469 56.4087 645.792 55.0007C647.115 53.5501 648.203 52.1634 649.056 50.8407ZM640.544 66.9687H666.528V91.9287H660.64V72.6647H646.24V92.6967H640.544V66.9687ZM667.808 35.5447H677.92V42.0087H667.808V35.5447ZM675.616 35.5447H681.888V84.8247C681.888 86.4034 681.717 87.7047 681.376 88.7287C681.077 89.7954 680.437 90.6274 679.456 91.2247C678.475 91.7794 677.259 92.1207 675.808 92.2487C674.4 92.4194 672.693 92.5047 670.688 92.5047C670.603 91.5661 670.368 90.4141 669.984 89.0487C669.6 87.7261 669.195 86.6167 668.768 85.7207C670.005 85.7634 671.179 85.8061 672.288 85.8487C673.397 85.8487 674.165 85.8487 674.592 85.8487C675.275 85.8061 675.616 85.4221 675.616 84.6967V35.5447ZM683.168 35.5447H693.984V42.0087H683.168V35.5447ZM690.592 35.5447H696.864V84.7607C696.864 86.3821 696.693 87.7047 696.352 88.7287C696.011 89.7527 695.328 90.5421 694.304 91.0967C693.365 91.6941 692.149 92.0567 690.656 92.1847C689.205 92.3127 687.413 92.3767 685.28 92.3767C685.195 91.4807 684.96 90.3501 684.576 88.9847C684.192 87.6621 683.787 86.5741 683.36 85.7207C684.683 85.7634 685.92 85.8061 687.072 85.8487C688.267 85.8487 689.077 85.8487 689.504 85.8487C689.931 85.8061 690.208 85.6994 690.336 85.5287C690.507 85.3581 690.592 85.0594 690.592 84.6327V35.5447ZM666.784 48.6007L671.712 46.8087C672.267 48.1314 672.8 49.5821 673.312 51.1607C673.867 52.7394 674.379 54.2541 674.848 55.7047C675.317 57.1554 675.659 58.4141 675.872 59.4807L670.624 61.6567C670.453 60.5474 670.155 59.2461 669.728 57.7527C669.301 56.2167 668.832 54.6594 668.32 53.0807C667.851 51.4594 667.339 49.9661 666.784 48.6007ZM682.208 48.5367L687.264 47.1927C687.733 48.5154 688.16 49.9447 688.544 51.4807C688.971 52.9741 689.355 54.4247 689.696 55.8327C690.08 57.2407 690.357 58.4781 690.528 59.5447L685.152 61.2727C685.024 60.2061 684.789 58.9474 684.448 57.4967C684.149 56.0034 683.808 54.4887 683.424 52.9527C683.04 51.3741 682.635 49.9021 682.208 48.5367ZM681.056 73.3687C681.995 72.3021 683.147 70.9581 684.512 69.3367C685.877 67.7154 687.285 65.9874 688.736 64.1527L692.32 69.2727C691.168 70.8941 689.931 72.5367 688.608 74.2007C687.285 75.8647 685.941 77.4647 684.576 79.0007L681.056 73.3687ZM665.952 74.3927C666.933 73.2834 668.107 71.9181 669.472 70.2967C670.88 68.6327 672.331 66.8621 673.824 64.9847L677.408 70.1687C676.171 71.8327 674.869 73.5181 673.504 75.2247C672.139 76.8887 670.752 78.5101 669.344 80.0887L665.952 74.3927ZM653.216 54.6167L657.376 50.9687C658.741 52.1634 660.107 53.4861 661.472 54.9367C662.837 56.3447 664.117 57.7527 665.312 59.1607C666.507 60.5261 667.445 61.8061 668.128 63.0007L663.584 67.1607C662.944 65.9661 662.069 64.6434 660.96 63.1927C659.851 61.6994 658.613 60.2061 657.248 58.7127C655.883 57.1767 654.539 55.8114 653.216 54.6167Z" fill="url(#paint4_linear_112_3894)" fill-opacity="0.7"/>
<path d="M587.424 48.5367L592.544 44.2487C593.867 44.8461 595.253 45.5501 596.704 46.3607C598.155 47.1714 599.52 48.0034 600.8 48.8567C602.123 49.7101 603.189 50.5207 604 51.2887L598.624 56.0247C597.856 55.2567 596.832 54.4247 595.552 53.5287C594.272 52.6327 592.928 51.7367 591.52 50.8407C590.112 49.9447 588.747 49.1767 587.424 48.5367ZM616.288 37.4647H617.696L618.976 37.0807L623.904 40.0247C621.856 43.8647 619.232 47.2994 616.032 50.3287C612.832 53.3154 609.227 55.9181 605.216 58.1367C601.248 60.3554 597.024 62.2541 592.544 63.8327C588.064 65.3687 583.52 66.6061 578.912 67.5447C578.571 66.5634 578.059 65.4327 577.376 64.1527C576.736 62.8301 576.075 61.7634 575.392 60.9527C579.701 60.2701 583.947 59.2887 588.128 58.0087C592.309 56.6861 596.235 55.0861 599.904 53.2087C603.573 51.3314 606.816 49.1767 609.632 46.7447C612.448 44.2701 614.667 41.5394 616.288 38.5527V37.4647ZM596 37.4647H618.016V43.7367H596V37.4647ZM599.584 32.4087L607.968 34.2007C604.683 37.9127 600.843 41.2834 596.448 44.3127C592.096 47.3421 586.955 50.0514 581.024 52.4407C580.64 51.8434 580.149 51.1821 579.552 50.4567C578.997 49.7314 578.379 49.0274 577.696 48.3447C577.056 47.6621 576.459 47.1287 575.904 46.7447C579.659 45.5501 583.051 44.1634 586.08 42.5847C589.109 41.0061 591.755 39.3634 594.016 37.6567C596.277 35.9074 598.133 34.1581 599.584 32.4087ZM596.128 72.7927L601.696 68.4407C603.019 69.1661 604.405 69.9767 605.856 70.8727C607.307 71.7687 608.693 72.7074 610.016 73.6887C611.339 74.6274 612.405 75.5021 613.216 76.3127L607.264 81.0487C606.539 80.2381 605.536 79.3421 604.256 78.3607C603.019 77.3794 601.675 76.3981 600.224 75.4167C598.816 74.4354 597.451 73.5607 596.128 72.7927ZM624.352 60.7607H625.888L627.232 60.4407L632.288 63.0647C630.325 67.8434 627.744 71.9394 624.544 75.3527C621.387 78.7661 617.696 81.6247 613.472 83.9287C609.291 86.2327 604.704 88.0887 599.712 89.4967C594.763 90.9047 589.536 91.9927 584.032 92.7607C583.733 91.7367 583.264 90.5421 582.624 89.1767C581.984 87.8114 581.344 86.6807 580.704 85.7847C585.781 85.2727 590.624 84.4407 595.232 83.2887C599.84 82.1367 604.064 80.6221 607.904 78.7447C611.744 76.8247 615.051 74.4781 617.824 71.7047C620.64 68.8887 622.816 65.6034 624.352 61.8487V60.7607ZM605.472 60.7607H626.4V67.1607H605.472V60.7607ZM609.952 54.5527L618.336 56.4727C614.795 60.6967 610.485 64.5154 605.408 67.9287C600.373 71.2994 594.293 74.2647 587.168 76.8247C586.912 76.1847 586.507 75.5021 585.952 74.7767C585.397 74.0087 584.821 73.2621 584.224 72.5367C583.627 71.8114 583.051 71.2354 582.496 70.8087C586.976 69.4434 590.965 67.9074 594.464 66.2007C598.005 64.4514 601.056 62.5954 603.616 60.6327C606.219 58.6274 608.331 56.6007 609.952 54.5527Z" fill="url(#paint5_linear_112_3894)" fill-opacity="0.7"/>
<path d="M511.84 35.5447H568.224V42.3927H511.84V35.5447ZM536.48 38.4247H544.544V64.2807C544.544 66.8834 544.288 69.3794 543.776 71.7687C543.264 74.1581 542.368 76.4194 541.088 78.5527C539.851 80.6861 538.123 82.6487 535.904 84.4407C533.728 86.2327 530.933 87.8327 527.52 89.2407C524.107 90.6487 519.989 91.8434 515.168 92.8247C514.869 92.2274 514.443 91.5021 513.888 90.6487C513.376 89.7954 512.821 88.9421 512.224 88.0887C511.627 87.2781 511.051 86.5741 510.496 85.9767C515.104 85.2941 518.965 84.4194 522.08 83.3527C525.195 82.2861 527.712 81.0914 529.632 79.7687C531.552 78.4034 533.003 76.9101 533.984 75.2887C534.965 73.6674 535.627 71.9394 535.968 70.1047C536.309 68.2274 536.48 66.2647 536.48 64.2167V38.4247ZM524.704 62.2327V66.3927H556.576V62.2327H524.704ZM524.704 52.3127V56.4727H556.576V52.3127H524.704ZM517.408 46.1047H564.192V72.6007H517.408V46.1047ZM525.024 72.2807C527.285 75.1394 529.909 77.4007 532.896 79.0647C535.925 80.7287 539.317 81.9661 543.072 82.7767C546.869 83.5447 551.072 84.0354 555.68 84.2487C560.331 84.4194 565.387 84.5047 570.848 84.5047C570.165 85.3581 569.504 86.5101 568.864 87.9607C568.224 89.4114 567.797 90.7767 567.584 92.0567C561.952 91.9714 556.683 91.6941 551.776 91.2247C546.869 90.7981 542.347 89.9874 538.208 88.7927C534.069 87.6407 530.336 85.9554 527.008 83.7367C523.68 81.5181 520.8 78.5954 518.368 74.9687L525.024 72.2807Z" fill="url(#paint6_linear_112_3894)" fill-opacity="0.7"/>
</g>
</g>
<path d="M408 81H992V107C992 113.627 986.627 119 980 119H420C413.373 119 408 113.627 408 107V81Z" fill="url(#paint7_linear_112_3894)"/>
<path d="M865.184 70.9047L870.112 65.5927C872.501 66.5741 874.933 67.6407 877.408 68.7927C879.925 69.9447 882.293 71.0754 884.512 72.1847C886.773 73.2514 888.693 74.2541 890.272 75.1927L883.936 80.8247C882.528 79.8861 880.8 78.8407 878.752 77.6887C876.704 76.5367 874.507 75.3847 872.16 74.2327C869.813 73.0381 867.488 71.9287 865.184 70.9047ZM830.88 60.0887H889.376V66.9367H830.88V60.0887ZM843.808 33.1447H875.36V38.5847H843.808V33.1447ZM843.808 41.9767H875.36V47.4167H843.808V41.9767ZM843.808 50.9367H875.36V56.3767H843.808V50.9367ZM848.096 65.9767L854.944 70.7767C853.237 72.0567 851.275 73.3154 849.056 74.5527C846.88 75.7901 844.597 76.9421 842.208 78.0087C839.861 79.0754 837.621 80.0141 835.488 80.8247C834.805 79.9714 833.909 79.0114 832.8 77.9447C831.733 76.8781 830.752 75.9821 829.856 75.2567C832.032 74.5314 834.272 73.6567 836.576 72.6327C838.88 71.5661 841.056 70.4567 843.104 69.3047C845.152 68.1527 846.816 67.0434 848.096 65.9767ZM840.928 23.6087H879.584V63.2887H871.84V29.6887H848.352V63.2887H840.928V23.6087Z" fill="url(#paint8_linear_112_3894)"/>
<path d="M770.4 27.2567H821.792V35.3207H770.4V27.2567ZM766.88 68.5367H825.376V76.2807H766.88V68.5367ZM791.392 31.6727H800.16V71.6727H791.392V31.6727Z" fill="url(#paint9_linear_112_3894)"/>
<path d="M704.8 40.1847H722.976V45.9447H704.8V40.1847ZM704.8 48.8247H722.976V54.6487H704.8V48.8247ZM701.984 31.2247H724.256V37.3047H701.984V31.2247ZM708 57.7207H722.976V77.1767H708V71.0327H716.384V63.8007H708V57.7207ZM704.608 57.7207H711.136V79.9287H704.608V57.7207ZM707.616 23.1607L713.568 20.3447C714.464 21.6674 715.339 23.1394 716.192 24.7607C717.088 26.3394 717.792 27.7261 718.304 28.9207L712.16 32.2487C711.733 31.0541 711.072 29.6034 710.176 27.8967C709.28 26.1474 708.427 24.5687 707.616 23.1607ZM724.576 68.4087H761.504V73.9767H724.576V68.4087ZM727.136 41.2727H758.944V46.7127H727.136V41.2727ZM726.432 59.9607H759.712V65.5927H726.432V59.9607ZM724.448 49.4647H761.504V55.3527H724.448V49.4647ZM738.976 37.5607H746.272V51.8967H738.976V37.5607ZM738.976 62.0087H746.272V80.7607H738.976V62.0087ZM747.936 54.9687L754.784 56.6327C754.016 57.7847 753.248 58.8727 752.48 59.8967C751.712 60.8781 751.029 61.7314 750.432 62.4567L745.056 60.8567C745.568 60.0034 746.08 59.0221 746.592 57.9127C747.147 56.8034 747.595 55.8221 747.936 54.9687ZM730.976 56.4407L736.928 54.9687C737.397 55.6941 737.824 56.5261 738.208 57.4647C738.635 58.3607 738.933 59.1714 739.104 59.8967L732.896 61.6887C732.768 61.0061 732.512 60.1741 732.128 59.1927C731.787 58.2114 731.403 57.2941 730.976 56.4407ZM750.112 28.2167V33.2727H753.632V28.2167H750.112ZM741.152 28.2167V33.2727H744.608V28.2167H741.152ZM732.32 28.2167V33.2727H735.776V28.2167H732.32ZM726.176 22.7767H760.096V38.7767H726.176V22.7767Z" fill="url(#paint10_linear_112_3894)"/>
<path d="M638.624 36.1527H666.912V41.7207H638.624V36.1527ZM643.936 63.7367H662.368V68.6647H643.936V63.7367ZM644.064 72.0567H661.92V77.7527H644.064V72.0567ZM650.272 26.8727H656.672V53.6247H650.272V26.8727ZM650.72 58.4247H655.904V75.0007H650.72V58.4247ZM663.264 20.9207L667.104 26.1687C664.629 26.6807 661.856 27.1287 658.784 27.5127C655.755 27.8967 652.661 28.1954 649.504 28.4087C646.347 28.6221 643.317 28.7714 640.416 28.8567C640.331 28.1314 640.117 27.2781 639.776 26.2967C639.435 25.3154 639.093 24.4834 638.752 23.8007C640.885 23.6727 643.061 23.5234 645.28 23.3527C647.541 23.1394 649.739 22.9261 651.872 22.7127C654.048 22.4994 656.096 22.2434 658.016 21.9447C659.979 21.6034 661.728 21.2621 663.264 20.9207ZM641.056 30.2007L645.92 28.9207C646.347 29.9021 646.795 30.9901 647.264 32.1847C647.733 33.3367 648.075 34.3181 648.288 35.1287L643.104 36.6647C642.891 35.8541 642.592 34.8301 642.208 33.5927C641.824 32.3554 641.44 31.2247 641.056 30.2007ZM660.576 28.0887L666.08 29.6887C665.397 31.2247 664.715 32.7607 664.032 34.2967C663.392 35.7901 662.773 37.0914 662.176 38.2007L657.504 36.7287C658.059 35.5341 658.613 34.1047 659.168 32.4407C659.765 30.7767 660.235 29.3261 660.576 28.0887ZM649.056 38.8407L653.344 41.3367C652.32 43.1714 651.061 45.0914 649.568 47.0967C648.117 49.1021 646.56 50.9794 644.896 52.7287C643.232 54.4781 641.547 55.9074 639.84 57.0167C639.584 56.0354 639.157 54.8834 638.56 53.5607C638.005 52.2381 637.472 51.1501 636.96 50.2967C638.453 49.4434 639.968 48.3767 641.504 47.0967C643.04 45.7741 644.469 44.4087 645.792 43.0007C647.115 41.5501 648.203 40.1634 649.056 38.8407ZM640.544 54.9687H666.528V79.9287H660.64V60.6647H646.24V80.6967H640.544V54.9687ZM667.808 23.5447H677.92V30.0087H667.808V23.5447ZM675.616 23.5447H681.888V72.8247C681.888 74.4034 681.717 75.7047 681.376 76.7287C681.077 77.7954 680.437 78.6274 679.456 79.2247C678.475 79.7794 677.259 80.1207 675.808 80.2487C674.4 80.4194 672.693 80.5047 670.688 80.5047C670.603 79.5661 670.368 78.4141 669.984 77.0487C669.6 75.7261 669.195 74.6167 668.768 73.7207C670.005 73.7634 671.179 73.8061 672.288 73.8487C673.397 73.8487 674.165 73.8487 674.592 73.8487C675.275 73.8061 675.616 73.4221 675.616 72.6967V23.5447ZM683.168 23.5447H693.984V30.0087H683.168V23.5447ZM690.592 23.5447H696.864V72.7607C696.864 74.3821 696.693 75.7047 696.352 76.7287C696.011 77.7527 695.328 78.5421 694.304 79.0967C693.365 79.6941 692.149 80.0567 690.656 80.1847C689.205 80.3127 687.413 80.3767 685.28 80.3767C685.195 79.4807 684.96 78.3501 684.576 76.9847C684.192 75.6621 683.787 74.5741 683.36 73.7207C684.683 73.7634 685.92 73.8061 687.072 73.8487C688.267 73.8487 689.077 73.8487 689.504 73.8487C689.931 73.8061 690.208 73.6994 690.336 73.5287C690.507 73.3581 690.592 73.0594 690.592 72.6327V23.5447ZM666.784 36.6007L671.712 34.8087C672.267 36.1314 672.8 37.5821 673.312 39.1607C673.867 40.7394 674.379 42.2541 674.848 43.7047C675.317 45.1554 675.659 46.4141 675.872 47.4807L670.624 49.6567C670.453 48.5474 670.155 47.2461 669.728 45.7527C669.301 44.2167 668.832 42.6594 668.32 41.0807C667.851 39.4594 667.339 37.9661 666.784 36.6007ZM682.208 36.5367L687.264 35.1927C687.733 36.5154 688.16 37.9447 688.544 39.4807C688.971 40.9741 689.355 42.4247 689.696 43.8327C690.08 45.2407 690.357 46.4781 690.528 47.5447L685.152 49.2727C685.024 48.2061 684.789 46.9474 684.448 45.4967C684.149 44.0034 683.808 42.4887 683.424 40.9527C683.04 39.3741 682.635 37.9021 682.208 36.5367ZM681.056 61.3687C681.995 60.3021 683.147 58.9581 684.512 57.3367C685.877 55.7154 687.285 53.9874 688.736 52.1527L692.32 57.2727C691.168 58.8941 689.931 60.5367 688.608 62.2007C687.285 63.8647 685.941 65.4647 684.576 67.0007L681.056 61.3687ZM665.952 62.3927C666.933 61.2834 668.107 59.9181 669.472 58.2967C670.88 56.6327 672.331 54.8621 673.824 52.9847L677.408 58.1687C676.171 59.8327 674.869 61.5181 673.504 63.2247C672.139 64.8887 670.752 66.5101 669.344 68.0887L665.952 62.3927ZM653.216 42.6167L657.376 38.9687C658.741 40.1634 660.107 41.4861 661.472 42.9367C662.837 44.3447 664.117 45.7527 665.312 47.1607C666.507 48.5261 667.445 49.8061 668.128 51.0007L663.584 55.1607C662.944 53.9661 662.069 52.6434 660.96 51.1927C659.851 49.6994 658.613 48.2061 657.248 46.7127C655.883 45.1767 654.539 43.8114 653.216 42.6167Z" fill="url(#paint11_linear_112_3894)"/>
<path d="M587.424 36.5367L592.544 32.2487C593.867 32.8461 595.253 33.5501 596.704 34.3607C598.155 35.1714 599.52 36.0034 600.8 36.8567C602.123 37.7101 603.189 38.5207 604 39.2887L598.624 44.0247C597.856 43.2567 596.832 42.4247 595.552 41.5287C594.272 40.6327 592.928 39.7367 591.52 38.8407C590.112 37.9447 588.747 37.1767 587.424 36.5367ZM616.288 25.4647H617.696L618.976 25.0807L623.904 28.0247C621.856 31.8647 619.232 35.2994 616.032 38.3287C612.832 41.3154 609.227 43.9181 605.216 46.1367C601.248 48.3554 597.024 50.2541 592.544 51.8327C588.064 53.3687 583.52 54.6061 578.912 55.5447C578.571 54.5634 578.059 53.4327 577.376 52.1527C576.736 50.8301 576.075 49.7634 575.392 48.9527C579.701 48.2701 583.947 47.2887 588.128 46.0087C592.309 44.6861 596.235 43.0861 599.904 41.2087C603.573 39.3314 606.816 37.1767 609.632 34.7447C612.448 32.2701 614.667 29.5394 616.288 26.5527V25.4647ZM596 25.4647H618.016V31.7367H596V25.4647ZM599.584 20.4087L607.968 22.2007C604.683 25.9127 600.843 29.2834 596.448 32.3127C592.096 35.3421 586.955 38.0514 581.024 40.4407C580.64 39.8434 580.149 39.1821 579.552 38.4567C578.997 37.7314 578.379 37.0274 577.696 36.3447C577.056 35.6621 576.459 35.1287 575.904 34.7447C579.659 33.5501 583.051 32.1634 586.08 30.5847C589.109 29.0061 591.755 27.3634 594.016 25.6567C596.277 23.9074 598.133 22.1581 599.584 20.4087ZM596.128 60.7927L601.696 56.4407C603.019 57.1661 604.405 57.9767 605.856 58.8727C607.307 59.7687 608.693 60.7074 610.016 61.6887C611.339 62.6274 612.405 63.5021 613.216 64.3127L607.264 69.0487C606.539 68.2381 605.536 67.3421 604.256 66.3607C603.019 65.3794 601.675 64.3981 600.224 63.4167C598.816 62.4354 597.451 61.5607 596.128 60.7927ZM624.352 48.7607H625.888L627.232 48.4407L632.288 51.0647C630.325 55.8434 627.744 59.9394 624.544 63.3527C621.387 66.7661 617.696 69.6247 613.472 71.9287C609.291 74.2327 604.704 76.0887 599.712 77.4967C594.763 78.9047 589.536 79.9927 584.032 80.7607C583.733 79.7367 583.264 78.5421 582.624 77.1767C581.984 75.8114 581.344 74.6807 580.704 73.7847C585.781 73.2727 590.624 72.4407 595.232 71.2887C599.84 70.1367 604.064 68.6221 607.904 66.7447C611.744 64.8247 615.051 62.4781 617.824 59.7047C620.64 56.8887 622.816 53.6034 624.352 49.8487V48.7607ZM605.472 48.7607H626.4V55.1607H605.472V48.7607ZM609.952 42.5527L618.336 44.4727C614.795 48.6967 610.485 52.5154 605.408 55.9287C600.373 59.2994 594.293 62.2647 587.168 64.8247C586.912 64.1847 586.507 63.5021 585.952 62.7767C585.397 62.0087 584.821 61.2621 584.224 60.5367C583.627 59.8114 583.051 59.2354 582.496 58.8087C586.976 57.4434 590.965 55.9074 594.464 54.2007C598.005 52.4514 601.056 50.5954 603.616 48.6327C606.219 46.6274 608.331 44.6007 609.952 42.5527Z" fill="url(#paint12_linear_112_3894)"/>
<path d="M511.84 23.5447H568.224V30.3927H511.84V23.5447ZM536.48 26.4247H544.544V52.2807C544.544 54.8834 544.288 57.3794 543.776 59.7687C543.264 62.1581 542.368 64.4194 541.088 66.5527C539.851 68.6861 538.123 70.6487 535.904 72.4407C533.728 74.2327 530.933 75.8327 527.52 77.2407C524.107 78.6487 519.989 79.8434 515.168 80.8247C514.869 80.2274 514.443 79.5021 513.888 78.6487C513.376 77.7954 512.821 76.9421 512.224 76.0887C511.627 75.2781 511.051 74.5741 510.496 73.9767C515.104 73.2941 518.965 72.4194 522.08 71.3527C525.195 70.2861 527.712 69.0914 529.632 67.7687C531.552 66.4034 533.003 64.9101 533.984 63.2887C534.965 61.6674 535.627 59.9394 535.968 58.1047C536.309 56.2274 536.48 54.2647 536.48 52.2167V26.4247ZM524.704 50.2327V54.3927H556.576V50.2327H524.704ZM524.704 40.3127V44.4727H556.576V40.3127H524.704ZM517.408 34.1047H564.192V60.6007H517.408V34.1047ZM525.024 60.2807C527.285 63.1394 529.909 65.4007 532.896 67.0647C535.925 68.7287 539.317 69.9661 543.072 70.7767C546.869 71.5447 551.072 72.0354 555.68 72.2487C560.331 72.4194 565.387 72.5047 570.848 72.5047C570.165 73.3581 569.504 74.5101 568.864 75.9607C568.224 77.4114 567.797 78.7767 567.584 80.0567C561.952 79.9714 556.683 79.6941 551.776 79.2247C546.869 78.7981 542.347 77.9874 538.208 76.7927C534.069 75.6407 530.336 73.9554 527.008 71.7367C523.68 69.5181 520.8 66.5954 518.368 62.9687L525.024 60.2807Z" fill="url(#paint13_linear_112_3894)"/>
<defs>
<filter id="filter0_f_112_3894" x="490.496" y="12.3447" width="419.776" height="100.48" filterUnits="userSpaceOnUse" color-interpolation-filters="sRGB">
<feFlood flood-opacity="0" result="BackgroundImageFix"/>
<feBlend mode="normal" in="SourceGraphic" in2="BackgroundImageFix" result="shape"/>
<feGaussianBlur stdDeviation="10" result="effect1_foregroundBlur_112_3894"/>
</filter>
<linearGradient id="paint0_linear_112_3894" x1="408" y1="73.0036" x2="992" y2="73.0032" gradientUnits="userSpaceOnUse">
<stop stop-color="white" stop-opacity="0.3"/>
<stop offset="0.495" stop-color="#CBB0F8"/>
<stop offset="1" stop-color="white" stop-opacity="0.3"/>
</linearGradient>
<linearGradient id="paint1_linear_112_3894" x1="917.226" y1="57.5997" x2="-1528.79" y2="57.6007" gradientUnits="userSpaceOnUse">
<stop stop-color="#F4439F"/>
<stop offset="1" stop-color="#7C3AED"/>
</linearGradient>
<linearGradient id="paint2_linear_112_3894" x1="1339.44" y1="57.3194" x2="-1186.86" y2="57.3203" gradientUnits="userSpaceOnUse">
<stop stop-color="#F4439F"/>
<stop offset="1" stop-color="#7C3AED"/>
</linearGradient>
<linearGradient id="paint3_linear_112_3894" x1="1739.25" y1="59.5295" x2="-743.581" y2="59.5306" gradientUnits="userSpaceOnUse">
<stop stop-color="#F4439F"/>
<stop offset="1" stop-color="#7C3AED"/>
</linearGradient>
<linearGradient id="paint4_linear_112_3894" x1="2143.61" y1="59.2378" x2="-323.307" y2="59.2388" gradientUnits="userSpaceOnUse">
<stop stop-color="#F4439F"/>
<stop offset="1" stop-color="#7C3AED"/>
</linearGradient>
<linearGradient id="paint5_linear_112_3894" x1="2640.92" y1="59.4942" x2="43.5723" y2="59.4954" gradientUnits="userSpaceOnUse">
<stop stop-color="#F4439F"/>
<stop offset="1" stop-color="#7C3AED"/>
</linearGradient>
<linearGradient id="paint6_linear_112_3894" x1="894.56" y1="59.5009" x2="505.44" y2="59.501" gradientUnits="userSpaceOnUse">
<stop stop-color="#F4439F"/>
<stop offset="1" stop-color="#7C3AED"/>
</linearGradient>
<linearGradient id="paint7_linear_112_3894" x1="700" y1="81" x2="700" y2="119" gradientUnits="userSpaceOnUse">
<stop offset="0.0001" stop-color="white" stop-opacity="0.1"/>
<stop offset="1" stop-color="white" stop-opacity="0"/>
</linearGradient>
<linearGradient id="paint8_linear_112_3894" x1="901.134" y1="-3.55299" x2="276.185" y2="1092.27" gradientUnits="userSpaceOnUse">
<stop stop-color="#F4439F"/>
<stop offset="1" stop-color="#7C3AED"/>
</linearGradient>
<linearGradient id="paint9_linear_112_3894" x1="1322.82" y1="-12.0468" x2="551.062" y2="1185.5" gradientUnits="userSpaceOnUse">
<stop stop-color="#F4439F"/>
<stop offset="1" stop-color="#7C3AED"/>
</linearGradient>
<linearGradient id="paint10_linear_112_3894" x1="1722.92" y1="0.980229" x2="1152.6" y2="1072.83" gradientUnits="userSpaceOnUse">
<stop stop-color="#F4439F"/>
<stop offset="1" stop-color="#7C3AED"/>
</linearGradient>
<linearGradient id="paint11_linear_112_3894" x1="2127.38" y1="0.190099" x2="1545.49" y2="1075.28" gradientUnits="userSpaceOnUse">
<stop stop-color="#F4439F"/>
<stop offset="1" stop-color="#7C3AED"/>
</linearGradient>
<linearGradient id="paint12_linear_112_3894" x1="2623.83" y1="0.895561" x2="2067.14" y2="1094.22" gradientUnits="userSpaceOnUse">
<stop stop-color="#F4439F"/>
<stop offset="1" stop-color="#7C3AED"/>
</linearGradient>
<linearGradient id="paint13_linear_112_3894" x1="892" y1="1.00089" x2="519.309" y2="110.892" gradientUnits="userSpaceOnUse">
<stop stop-color="#F4439F"/>
<stop offset="1" stop-color="#7C3AED"/>
</linearGradient>
</defs>
</svg>
