<svg width="1400" height="120" viewBox="0 0 1400 120" fill="none" xmlns="http://www.w3.org/2000/svg">
<path d="M472 65H928V81H472V65Z" fill="url(#paint0_linear_112_3790)"/>
<mask id="mask0_112_3790" style="mask-type:alpha" maskUnits="userSpaceOnUse" x="472" y="81" width="456" height="38">
<path d="M472 81H928V119H472V81Z" fill="#C4C4C4"/>
</mask>
<g mask="url(#mask0_112_3790)">
<g filter="url(#filter0_f_112_3790)">
<path d="M768.149 37.2714L774.037 33.4954C774.933 34.6474 775.871 35.9274 776.853 37.3354C777.834 38.7007 778.73 40.0447 779.541 41.3674C780.394 42.6474 781.055 43.8207 781.525 44.8874L775.253 49.1754C774.826 48.1087 774.229 46.8927 773.461 45.5274C772.693 44.1194 771.839 42.69 770.901 41.2394C769.962 39.7887 769.045 38.466 768.149 37.2714ZM773.781 91.7994L771.989 84.7594L773.269 82.3274L784.277 73.2394C784.661 74.2634 785.13 75.4154 785.685 76.6954C786.239 77.9754 786.751 78.9567 787.221 79.6394C784.575 81.8154 782.421 83.6287 780.757 85.0794C779.135 86.4874 777.855 87.5967 776.917 88.4074C776.021 89.2607 775.338 89.9434 774.869 90.4554C774.399 90.9674 774.037 91.4154 773.781 91.7994ZM765.845 52.1834H778.133V59.5434H765.845V52.1834ZM785.685 35.2234H817.237V41.8154H785.685V35.2234ZM815.061 35.2234H816.405L817.685 34.9034L822.613 37.5914C820.949 41.0474 818.837 44.1834 816.277 46.9994C813.717 49.7727 810.815 52.2687 807.573 54.4874C804.373 56.706 800.938 58.626 797.269 60.2474C793.642 61.8687 789.93 63.2127 786.133 64.2794C785.877 63.6394 785.514 62.914 785.045 62.1034C784.618 61.2927 784.149 60.5034 783.637 59.7354C783.125 58.9247 782.613 58.2634 782.101 57.7514C785.685 56.9407 789.162 55.874 792.533 54.5514C795.946 53.186 799.125 51.586 802.069 49.7514C805.013 47.9167 807.594 45.8687 809.813 43.6074C812.031 41.346 813.781 38.9354 815.061 36.3754V35.2234ZM795.797 38.5514C797.674 41.538 800.106 44.226 803.093 46.6154C806.122 49.0047 809.599 51.0527 813.525 52.7594C817.45 54.4234 821.674 55.682 826.197 56.5354C825.685 57.0474 825.13 57.6874 824.533 58.4554C823.935 59.2234 823.359 60.0127 822.805 60.8234C822.293 61.634 821.845 62.3594 821.461 62.9994C816.767 61.8474 812.437 60.2474 808.469 58.1994C804.501 56.1514 800.938 53.6767 797.781 50.7754C794.666 47.8314 792.021 44.5034 789.845 40.7914L795.797 38.5514ZM789.077 65.4314H820.309V72.0874H789.077V65.4314ZM785.493 76.8874H824.597V83.6714H785.493V76.8874ZM800.533 60.3754H808.085V92.7594H800.533V60.3754ZM773.781 91.7994C773.567 91.2447 773.226 90.626 772.757 89.9434C772.287 89.2607 771.775 88.578 771.221 87.8954C770.709 87.2127 770.261 86.7007 769.877 86.3594C770.559 85.762 771.263 84.866 771.989 83.6714C772.757 82.434 773.141 80.962 773.141 79.2554V52.1834H780.565V83.4154C780.565 83.4154 780.33 83.6074 779.861 83.9914C779.434 84.3754 778.879 84.9087 778.197 85.5914C777.514 86.2314 776.831 86.914 776.149 87.6394C775.509 88.3647 774.954 89.09 774.485 89.8154C774.015 90.5834 773.781 91.2447 773.781 91.7994Z" fill="url(#paint1_linear_112_3790)" fill-opacity="0.7"/>
<path d="M701.973 47.7674H730.069V53.3354H701.973V47.7674ZM707.093 75.6074H725.717V80.5354H707.093V75.6074ZM707.285 83.9274H725.269V89.6234H707.285V83.9274ZM713.621 38.6794H720.021V65.8794H713.621V38.6794ZM714.133 70.2954H719.317V86.8714H714.133V70.2954ZM726.485 32.7914L730.261 37.8474C727.829 38.402 725.098 38.8714 722.069 39.2554C719.039 39.6394 715.946 39.938 712.789 40.1514C709.674 40.3647 706.666 40.514 703.765 40.5994C703.679 39.874 703.466 39.042 703.125 38.1034C702.826 37.122 702.506 36.3114 702.165 35.6714C704.981 35.458 707.882 35.2234 710.869 34.9674C713.855 34.7114 716.693 34.4127 719.381 34.0714C722.111 33.6874 724.479 33.2607 726.485 32.7914ZM719.189 51.7354C719.786 52.034 720.618 52.546 721.685 53.2714C722.794 53.954 723.946 54.7007 725.141 55.5114C726.378 56.322 727.509 57.09 728.533 57.8154C729.557 58.498 730.282 58.9887 730.709 59.2874L726.869 65.2394C726.314 64.5567 725.567 63.7674 724.629 62.8714C723.733 61.9327 722.73 60.9727 721.621 59.9914C720.554 58.9674 719.53 58.0074 718.549 57.1114C717.567 56.2154 716.735 55.49 716.053 54.9354L719.189 51.7354ZM704.277 41.8154L709.205 40.5354C709.631 41.5594 710.058 42.6687 710.485 43.8634C710.954 45.058 711.295 46.0607 711.509 46.8714L706.325 48.4074C706.111 47.554 705.813 46.5087 705.429 45.2714C705.045 43.9914 704.661 42.8394 704.277 41.8154ZM723.925 39.7674L729.493 41.4314C728.81 42.9674 728.127 44.482 727.445 45.9754C726.805 47.4687 726.207 48.7487 725.653 49.8154L720.981 48.4074C721.322 47.5967 721.685 46.7007 722.069 45.7194C722.453 44.6954 722.794 43.6714 723.093 42.6474C723.434 41.5807 723.711 40.6207 723.925 39.7674ZM712.533 50.5194L716.885 53.0154C715.861 54.8074 714.645 56.706 713.237 58.7114C711.829 60.674 710.314 62.53 708.693 64.2794C707.071 66.0287 705.45 67.4794 703.829 68.6314C703.573 67.6074 703.146 66.4554 702.549 65.1754C701.994 63.8527 701.461 62.722 700.949 61.7834C702.399 60.9727 703.85 59.9487 705.301 58.7114C706.794 57.4314 708.181 56.0874 709.461 54.6794C710.741 53.2287 711.765 51.842 712.533 50.5194ZM703.765 66.8394H729.685V91.9274H723.733V72.5354H709.397V92.6954H703.765V66.8394ZM731.797 35.2874H742.613V41.6874H731.797V35.2874ZM739.221 35.2874H745.365V85.2074C745.365 86.7007 745.194 87.938 744.853 88.9194C744.554 89.9007 743.957 90.6474 743.061 91.1594C742.122 91.714 740.991 92.0554 739.669 92.1834C738.346 92.354 736.767 92.4394 734.933 92.4394C734.847 91.586 734.613 90.5194 734.229 89.2394C733.845 88.002 733.439 86.9567 733.013 86.1034C734.122 86.146 735.167 86.1887 736.149 86.2314C737.173 86.2314 737.877 86.21 738.261 86.1674C738.602 86.1674 738.837 86.1034 738.965 85.9754C739.135 85.8047 739.221 85.506 739.221 85.0794V35.2874ZM746.709 35.4154H756.437V41.8154H746.709V35.4154ZM753.877 35.4154H760.149V85.0154C760.149 86.6367 759.978 87.938 759.637 88.9194C759.295 89.9434 758.634 90.7327 757.653 91.2874C756.671 91.842 755.455 92.1834 754.005 92.3114C752.597 92.482 750.89 92.5674 748.885 92.5674C748.799 91.6714 748.543 90.562 748.117 89.2394C747.69 87.9594 747.242 86.8927 746.773 86.0394C748.01 86.082 749.205 86.1034 750.357 86.1034C751.551 86.1034 752.341 86.1034 752.725 86.1034C753.151 86.1034 753.45 86.018 753.621 85.8474C753.791 85.6767 753.877 85.378 753.877 84.9514V35.4154ZM730.773 48.0234L735.573 46.8074C736.127 48.0874 736.661 49.4954 737.173 51.0314C737.727 52.5247 738.218 53.9967 738.645 55.4474C739.071 56.8554 739.391 58.0927 739.605 59.1594L734.485 60.7594C734.314 59.65 734.015 58.37 733.589 56.9194C733.205 55.4687 732.757 53.954 732.245 52.3754C731.775 50.7967 731.285 49.346 730.773 48.0234ZM745.877 47.5754L750.741 46.6154C751.21 47.938 751.658 49.3887 752.085 50.9674C752.511 52.5034 752.895 53.9754 753.237 55.3834C753.578 56.7914 753.834 58.0287 754.005 59.0954L748.821 60.3754C748.693 59.266 748.458 57.986 748.117 56.5354C747.818 55.042 747.477 53.5274 747.093 51.9914C746.709 50.4127 746.303 48.9407 745.877 47.5754ZM745.173 71.3194C746.41 70.1247 747.946 68.6314 749.781 66.8394C751.615 65.0047 753.493 63.106 755.413 61.1434L758.293 66.0074C756.714 67.7567 755.05 69.5487 753.301 71.3834C751.551 73.218 749.866 74.9674 748.245 76.6314L745.173 71.3194ZM730.261 72.5354C731.583 71.2554 733.205 69.5914 735.125 67.5434C737.087 65.4954 739.071 63.362 741.077 61.1434L744.149 65.9434C742.399 67.9487 740.586 69.9967 738.709 72.0874C736.831 74.1354 735.018 76.034 733.269 77.7834L730.261 72.5354Z" fill="url(#paint2_linear_112_3790)" fill-opacity="0.7"/>
<path d="M638.485 66.0074H696.149V71.9594H638.485V66.0074ZM663.317 71.3194H670.741V92.7594H663.317V71.3194ZM657.045 62.0394L664.597 63.3194C662.506 67.6287 659.583 71.49 655.829 74.9034C652.117 78.3167 647.189 81.2394 641.045 83.6714C640.789 83.074 640.405 82.4127 639.893 81.6874C639.423 80.962 638.911 80.258 638.357 79.5754C637.802 78.8927 637.269 78.3594 636.757 77.9754C640.554 76.738 643.775 75.2874 646.421 73.6234C649.066 71.9167 651.263 70.082 653.013 68.1194C654.762 66.1567 656.106 64.13 657.045 62.0394ZM680.277 67.7994C681.429 69.25 682.922 70.6154 684.757 71.8954C686.591 73.1754 688.639 74.306 690.901 75.2874C693.162 76.226 695.509 76.9514 697.941 77.4634C697.173 78.146 696.341 79.0634 695.445 80.2154C694.591 81.3247 693.93 82.3274 693.461 83.2234C690.858 82.4127 688.383 81.346 686.037 80.0234C683.733 78.658 681.621 77.1007 679.701 75.3514C677.781 73.602 676.138 71.7034 674.773 69.6554L680.277 67.7994ZM648.597 75.0314H683.349V80.9834H655.957V90.4554H648.597V75.0314ZM679.381 75.0314H686.805V84.2474C686.805 85.7407 686.613 86.8927 686.229 87.7034C685.887 88.514 685.205 89.1327 684.181 89.5594C683.157 89.986 681.919 90.2207 680.469 90.2634C679.061 90.3487 677.439 90.3914 675.605 90.3914C675.477 89.4954 675.221 88.5567 674.837 87.5754C674.453 86.594 674.069 85.7194 673.685 84.9514C674.666 84.994 675.626 85.0367 676.565 85.0794C677.503 85.0794 678.143 85.058 678.485 85.0154C678.826 85.0154 679.061 84.9514 679.189 84.8234C679.317 84.6954 679.381 84.482 679.381 84.1834V75.0314ZM652.309 56.4074V59.0314H682.453V56.4074H652.309ZM652.309 49.5594V52.1194H682.453V49.5594H652.309ZM644.949 44.9514H690.133V63.6394H644.949V44.9514ZM639.253 35.7354H695.445V41.8794H639.253V35.7354ZM653.077 32.5994H660.501V44.0554H653.077V32.5994ZM673.941 32.5994H681.493V43.9914H673.941V32.5994Z" fill="url(#paint3_linear_112_3790)" fill-opacity="0.7"/>
<path d="M586.325 51.0954H614.933V58.2634H586.325V51.0954ZM575.381 66.9674H631.381V74.2634H575.381V66.9674ZM599.189 63.5754H607.381V83.9914C607.381 85.9967 607.082 87.5754 606.485 88.7274C605.93 89.8794 604.842 90.754 603.221 91.3514C601.727 91.906 599.935 92.2474 597.845 92.3754C595.797 92.546 593.45 92.6314 590.805 92.6314C590.634 91.8634 590.357 90.9887 589.973 90.0074C589.631 89.0687 589.226 88.13 588.757 87.1914C588.33 86.2527 587.903 85.4634 587.477 84.8234C588.799 84.866 590.143 84.9087 591.509 84.9514C592.917 84.9514 594.154 84.9514 595.221 84.9514C596.33 84.9514 597.098 84.9514 597.525 84.9514C598.165 84.9514 598.591 84.866 598.805 84.6954C599.061 84.5247 599.189 84.226 599.189 83.7994V63.5754ZM612.565 51.0954H614.741L616.533 50.7754L621.653 54.7434C620.074 56.3647 618.303 58.0074 616.341 59.6714C614.378 61.2927 612.287 62.8287 610.069 64.2794C607.893 65.73 605.631 66.9887 603.285 68.0554C602.815 67.4154 602.154 66.6474 601.301 65.7514C600.447 64.8127 599.743 64.0874 599.189 63.5754C600.895 62.6794 602.623 61.5914 604.373 60.3114C606.122 59.0314 607.722 57.73 609.173 56.4074C610.623 55.042 611.754 53.8047 612.565 52.6954V51.0954ZM575.637 38.6794H630.933V53.3994H622.997V45.9114H583.189V53.3994H575.637V38.6794ZM597.205 34.4554L604.885 32.1514C605.781 33.2607 606.613 34.5194 607.381 35.9274C608.191 37.2927 608.789 38.53 609.173 39.6394L601.109 42.3914C600.81 41.282 600.298 39.9807 599.573 38.4874C598.847 36.994 598.058 35.65 597.205 34.4554Z" fill="url(#paint4_linear_112_3790)" fill-opacity="0.7"/>
</g>
</g>
<path d="M472 81H928V107C928 113.627 922.627 119 916 119H484C477.373 119 472 113.627 472 107V81Z" fill="url(#paint5_linear_112_3790)"/>
<path d="M768.8 25.2714L774.688 21.4954C775.584 22.6474 776.523 23.9274 777.504 25.3354C778.485 26.7007 779.381 28.0447 780.192 29.3674C781.045 30.6474 781.707 31.8207 782.176 32.8874L775.904 37.1754C775.477 36.1087 774.88 34.8927 774.112 33.5274C773.344 32.1194 772.491 30.69 771.552 29.2394C770.613 27.7887 769.696 26.466 768.8 25.2714ZM774.432 79.7994L772.64 72.7594L773.92 70.3274L784.928 61.2394C785.312 62.2634 785.781 63.4154 786.336 64.6954C786.891 65.9754 787.403 66.9567 787.872 67.6394C785.227 69.8154 783.072 71.6287 781.408 73.0794C779.787 74.4874 778.507 75.5967 777.568 76.4074C776.672 77.2607 775.989 77.9434 775.52 78.4554C775.051 78.9674 774.688 79.4154 774.432 79.7994ZM766.496 40.1834H778.784V47.5434H766.496V40.1834ZM786.336 23.2234H817.888V29.8154H786.336V23.2234ZM815.712 23.2234H817.056L818.336 22.9034L823.264 25.5914C821.6 29.0474 819.488 32.1834 816.928 34.9994C814.368 37.7727 811.467 40.2687 808.224 42.4874C805.024 44.706 801.589 46.626 797.92 48.2474C794.293 49.8687 790.581 51.2127 786.784 52.2794C786.528 51.6394 786.165 50.914 785.696 50.1034C785.269 49.2927 784.8 48.5034 784.288 47.7354C783.776 46.9247 783.264 46.2634 782.752 45.7514C786.336 44.9407 789.813 43.874 793.184 42.5514C796.597 41.186 799.776 39.586 802.72 37.7514C805.664 35.9167 808.245 33.8687 810.464 31.6074C812.683 29.346 814.432 26.9354 815.712 24.3754V23.2234ZM796.448 26.5514C798.325 29.538 800.757 32.226 803.744 34.6154C806.773 37.0047 810.251 39.0527 814.176 40.7594C818.101 42.4234 822.325 43.682 826.848 44.5354C826.336 45.0474 825.781 45.6874 825.184 46.4554C824.587 47.2234 824.011 48.0127 823.456 48.8234C822.944 49.634 822.496 50.3594 822.112 50.9994C817.419 49.8474 813.088 48.2474 809.12 46.1994C805.152 44.1514 801.589 41.6767 798.432 38.7754C795.317 35.8314 792.672 32.5034 790.496 28.7914L796.448 26.5514ZM789.728 53.4314H820.96V60.0874H789.728V53.4314ZM786.144 64.8874H825.248V71.6714H786.144V64.8874ZM801.184 48.3754H808.736V80.7594H801.184V48.3754ZM774.432 79.7994C774.219 79.2447 773.877 78.626 773.408 77.9434C772.939 77.2607 772.427 76.578 771.872 75.8954C771.36 75.2127 770.912 74.7007 770.528 74.3594C771.211 73.762 771.915 72.866 772.64 71.6714C773.408 70.434 773.792 68.962 773.792 67.2554V40.1834H781.216V71.4154C781.216 71.4154 780.981 71.6074 780.512 71.9914C780.085 72.3754 779.531 72.9087 778.848 73.5914C778.165 74.2314 777.483 74.914 776.8 75.6394C776.16 76.3647 775.605 77.09 775.136 77.8154C774.667 78.5834 774.432 79.2447 774.432 79.7994Z" fill="url(#paint6_linear_112_3790)"/>
<path d="M702.624 35.7674H730.72V41.3354H702.624V35.7674ZM707.744 63.6074H726.368V68.5354H707.744V63.6074ZM707.936 71.9274H725.92V77.6234H707.936V71.9274ZM714.272 26.6794H720.672V53.8794H714.272V26.6794ZM714.784 58.2954H719.968V74.8714H714.784V58.2954ZM727.136 20.7914L730.912 25.8474C728.48 26.402 725.749 26.8714 722.72 27.2554C719.691 27.6394 716.597 27.938 713.44 28.1514C710.325 28.3647 707.317 28.514 704.416 28.5994C704.331 27.874 704.117 27.042 703.776 26.1034C703.477 25.122 703.157 24.3114 702.816 23.6714C705.632 23.458 708.533 23.2234 711.52 22.9674C714.507 22.7114 717.344 22.4127 720.032 22.0714C722.763 21.6874 725.131 21.2607 727.136 20.7914ZM719.84 39.7354C720.437 40.034 721.269 40.546 722.336 41.2714C723.445 41.954 724.597 42.7007 725.792 43.5114C727.029 44.322 728.16 45.09 729.184 45.8154C730.208 46.498 730.933 46.9887 731.36 47.2874L727.52 53.2394C726.965 52.5567 726.219 51.7674 725.28 50.8714C724.384 49.9327 723.381 48.9727 722.272 47.9914C721.205 46.9674 720.181 46.0074 719.2 45.1114C718.219 44.2154 717.387 43.49 716.704 42.9354L719.84 39.7354ZM704.928 29.8154L709.856 28.5354C710.283 29.5594 710.709 30.6687 711.136 31.8634C711.605 33.058 711.947 34.0607 712.16 34.8714L706.976 36.4074C706.763 35.554 706.464 34.5087 706.08 33.2714C705.696 31.9914 705.312 30.8394 704.928 29.8154ZM724.576 27.7674L730.144 29.4314C729.461 30.9674 728.779 32.482 728.096 33.9754C727.456 35.4687 726.859 36.7487 726.304 37.8154L721.632 36.4074C721.973 35.5967 722.336 34.7007 722.72 33.7194C723.104 32.6954 723.445 31.6714 723.744 30.6474C724.085 29.5807 724.363 28.6207 724.576 27.7674ZM713.184 38.5194L717.536 41.0154C716.512 42.8074 715.296 44.706 713.888 46.7114C712.48 48.674 710.965 50.53 709.344 52.2794C707.723 54.0287 706.101 55.4794 704.48 56.6314C704.224 55.6074 703.797 54.4554 703.2 53.1754C702.645 51.8527 702.112 50.722 701.6 49.7834C703.051 48.9727 704.501 47.9487 705.952 46.7114C707.445 45.4314 708.832 44.0874 710.112 42.6794C711.392 41.2287 712.416 39.842 713.184 38.5194ZM704.416 54.8394H730.336V79.9274H724.384V60.5354H710.048V80.6954H704.416V54.8394ZM732.448 23.2874H743.264V29.6874H732.448V23.2874ZM739.872 23.2874H746.016V73.2074C746.016 74.7007 745.845 75.938 745.504 76.9194C745.205 77.9007 744.608 78.6474 743.712 79.1594C742.773 79.714 741.643 80.0554 740.32 80.1834C738.997 80.354 737.419 80.4394 735.584 80.4394C735.499 79.586 735.264 78.5194 734.88 77.2394C734.496 76.002 734.091 74.9567 733.664 74.1034C734.773 74.146 735.819 74.1887 736.8 74.2314C737.824 74.2314 738.528 74.21 738.912 74.1674C739.253 74.1674 739.488 74.1034 739.616 73.9754C739.787 73.8047 739.872 73.506 739.872 73.0794V23.2874ZM747.36 23.4154H757.088V29.8154H747.36V23.4154ZM754.528 23.4154H760.8V73.0154C760.8 74.6367 760.629 75.938 760.288 76.9194C759.947 77.9434 759.285 78.7327 758.304 79.2874C757.323 79.842 756.107 80.1834 754.656 80.3114C753.248 80.482 751.541 80.5674 749.536 80.5674C749.451 79.6714 749.195 78.562 748.768 77.2394C748.341 75.9594 747.893 74.8927 747.424 74.0394C748.661 74.082 749.856 74.1034 751.008 74.1034C752.203 74.1034 752.992 74.1034 753.376 74.1034C753.803 74.1034 754.101 74.018 754.272 73.8474C754.443 73.6767 754.528 73.378 754.528 72.9514V23.4154ZM731.424 36.0234L736.224 34.8074C736.779 36.0874 737.312 37.4954 737.824 39.0314C738.379 40.5247 738.869 41.9967 739.296 43.4474C739.723 44.8554 740.043 46.0927 740.256 47.1594L735.136 48.7594C734.965 47.65 734.667 46.37 734.24 44.9194C733.856 43.4687 733.408 41.954 732.896 40.3754C732.427 38.7967 731.936 37.346 731.424 36.0234ZM746.528 35.5754L751.392 34.6154C751.861 35.938 752.309 37.3887 752.736 38.9674C753.163 40.5034 753.547 41.9754 753.888 43.3834C754.229 44.7914 754.485 46.0287 754.656 47.0954L749.472 48.3754C749.344 47.266 749.109 45.986 748.768 44.5354C748.469 43.042 748.128 41.5274 747.744 39.9914C747.36 38.4127 746.955 36.9407 746.528 35.5754ZM745.824 59.3194C747.061 58.1247 748.597 56.6314 750.432 54.8394C752.267 53.0047 754.144 51.106 756.064 49.1434L758.944 54.0074C757.365 55.7567 755.701 57.5487 753.952 59.3834C752.203 61.218 750.517 62.9674 748.896 64.6314L745.824 59.3194ZM730.912 60.5354C732.235 59.2554 733.856 57.5914 735.776 55.5434C737.739 53.4954 739.723 51.362 741.728 49.1434L744.8 53.9434C743.051 55.9487 741.237 57.9967 739.36 60.0874C737.483 62.1354 735.669 64.034 733.92 65.7834L730.912 60.5354Z" fill="url(#paint7_linear_112_3790)"/>
<path d="M639.136 54.0074H696.8V59.9594H639.136V54.0074ZM663.968 59.3194H671.392V80.7594H663.968V59.3194ZM657.696 50.0394L665.248 51.3194C663.157 55.6287 660.235 59.49 656.48 62.9034C652.768 66.3167 647.84 69.2394 641.696 71.6714C641.44 71.074 641.056 70.4127 640.544 69.6874C640.075 68.962 639.563 68.258 639.008 67.5754C638.453 66.8927 637.92 66.3594 637.408 65.9754C641.205 64.738 644.427 63.2874 647.072 61.6234C649.717 59.9167 651.915 58.082 653.664 56.1194C655.413 54.1567 656.757 52.13 657.696 50.0394ZM680.928 55.7994C682.08 57.25 683.573 58.6154 685.408 59.8954C687.243 61.1754 689.291 62.306 691.552 63.2874C693.813 64.226 696.16 64.9514 698.592 65.4634C697.824 66.146 696.992 67.0634 696.096 68.2154C695.243 69.3247 694.581 70.3274 694.112 71.2234C691.509 70.4127 689.035 69.346 686.688 68.0234C684.384 66.658 682.272 65.1007 680.352 63.3514C678.432 61.602 676.789 59.7034 675.424 57.6554L680.928 55.7994ZM649.248 63.0314H684V68.9834H656.608V78.4554H649.248V63.0314ZM680.032 63.0314H687.456V72.2474C687.456 73.7407 687.264 74.8927 686.88 75.7034C686.539 76.514 685.856 77.1327 684.832 77.5594C683.808 77.986 682.571 78.2207 681.12 78.2634C679.712 78.3487 678.091 78.3914 676.256 78.3914C676.128 77.4954 675.872 76.5567 675.488 75.5754C675.104 74.594 674.72 73.7194 674.336 72.9514C675.317 72.994 676.277 73.0367 677.216 73.0794C678.155 73.0794 678.795 73.058 679.136 73.0154C679.477 73.0154 679.712 72.9514 679.84 72.8234C679.968 72.6954 680.032 72.482 680.032 72.1834V63.0314ZM652.96 44.4074V47.0314H683.104V44.4074H652.96ZM652.96 37.5594V40.1194H683.104V37.5594H652.96ZM645.6 32.9514H690.784V51.6394H645.6V32.9514ZM639.904 23.7354H696.096V29.8794H639.904V23.7354ZM653.728 20.5994H661.152V32.0554H653.728V20.5994ZM674.592 20.5994H682.144V31.9914H674.592V20.5994Z" fill="url(#paint8_linear_112_3790)"/>
<path d="M586.976 39.0954H615.584V46.2634H586.976V39.0954ZM576.032 54.9674H632.032V62.2634H576.032V54.9674ZM599.84 51.5754H608.032V71.9914C608.032 73.9967 607.733 75.5754 607.136 76.7274C606.581 77.8794 605.493 78.754 603.872 79.3514C602.379 79.906 600.587 80.2474 598.496 80.3754C596.448 80.546 594.101 80.6314 591.456 80.6314C591.285 79.8634 591.008 78.9887 590.624 78.0074C590.283 77.0687 589.877 76.13 589.408 75.1914C588.981 74.2527 588.555 73.4634 588.128 72.8234C589.451 72.866 590.795 72.9087 592.16 72.9514C593.568 72.9514 594.805 72.9514 595.872 72.9514C596.981 72.9514 597.749 72.9514 598.176 72.9514C598.816 72.9514 599.243 72.866 599.456 72.6954C599.712 72.5247 599.84 72.226 599.84 71.7994V51.5754ZM613.216 39.0954H615.392L617.184 38.7754L622.304 42.7434C620.725 44.3647 618.955 46.0074 616.992 47.6714C615.029 49.2927 612.939 50.8287 610.72 52.2794C608.544 53.73 606.283 54.9887 603.936 56.0554C603.467 55.4154 602.805 54.6474 601.952 53.7514C601.099 52.8127 600.395 52.0874 599.84 51.5754C601.547 50.6794 603.275 49.5914 605.024 48.3114C606.773 47.0314 608.373 45.73 609.824 44.4074C611.275 43.042 612.405 41.8047 613.216 40.6954V39.0954ZM576.288 26.6794H631.584V41.3994H623.648V33.9114H583.84V41.3994H576.288V26.6794ZM597.856 22.4554L605.536 20.1514C606.432 21.2607 607.264 22.5194 608.032 23.9274C608.843 25.2927 609.44 26.53 609.824 27.6394L601.76 30.3914C601.461 29.282 600.949 27.9807 600.224 26.4874C599.499 24.994 598.709 23.65 597.856 22.4554Z" fill="url(#paint9_linear_112_3790)"/>
<defs>
<filter id="filter0_f_112_3790" x="555.381" y="12.1514" width="290.816" height="100.608" filterUnits="userSpaceOnUse" color-interpolation-filters="sRGB">
<feFlood flood-opacity="0" result="BackgroundImageFix"/>
<feBlend mode="normal" in="SourceGraphic" in2="BackgroundImageFix" result="shape"/>
<feGaussianBlur stdDeviation="10" result="effect1_foregroundBlur_112_3790"/>
</filter>
<linearGradient id="paint0_linear_112_3790" x1="472" y1="73.0036" x2="928" y2="73.0033" gradientUnits="userSpaceOnUse">
<stop stop-color="white" stop-opacity="0.3"/>
<stop offset="0.495" stop-color="#CBB0F8"/>
<stop offset="1" stop-color="white" stop-opacity="0.3"/>
</linearGradient>
<linearGradient id="paint1_linear_112_3790" x1="917.834" y1="58.7451" x2="-319.772" y2="58.7454" gradientUnits="userSpaceOnUse">
<stop stop-color="#F4439F"/>
<stop offset="1" stop-color="#7C3AED"/>
</linearGradient>
<linearGradient id="paint2_linear_112_3790" x1="1199.45" y1="59.1733" x2="-62.2428" y2="59.1735" gradientUnits="userSpaceOnUse">
<stop stop-color="#F4439F"/>
<stop offset="1" stop-color="#7C3AED"/>
</linearGradient>
<linearGradient id="paint3_linear_112_3790" x1="1442.36" y1="59.2517" x2="221.58" y2="59.2519" gradientUnits="userSpaceOnUse">
<stop stop-color="#F4439F"/>
<stop offset="1" stop-color="#7C3AED"/>
</linearGradient>
<linearGradient id="paint4_linear_112_3790" x1="848.247" y1="59.4994" x2="550.451" y2="59.4994" gradientUnits="userSpaceOnUse">
<stop stop-color="#F4439F"/>
<stop offset="1" stop-color="#7C3AED"/>
</linearGradient>
<linearGradient id="paint5_linear_112_3790" x1="700" y1="81" x2="700" y2="119" gradientUnits="userSpaceOnUse">
<stop offset="0.0001" stop-color="white" stop-opacity="0.1"/>
<stop offset="1" stop-color="white" stop-opacity="0"/>
</linearGradient>
<linearGradient id="paint6_linear_112_3790" x1="831.636" y1="-0.809456" x2="146.486" y2="546.499" gradientUnits="userSpaceOnUse">
<stop stop-color="#F4439F"/>
<stop offset="1" stop-color="#7C3AED"/>
</linearGradient>
<linearGradient id="paint7_linear_112_3790" x1="1111.56" y1="0.126756" x2="429.513" y2="561.556" gradientUnits="userSpaceOnUse">
<stop stop-color="#F4439F"/>
<stop offset="1" stop-color="#7C3AED"/>
</linearGradient>
<linearGradient id="paint8_linear_112_3790" x1="1357.34" y1="0.405386" x2="682.199" y2="540.428" gradientUnits="userSpaceOnUse">
<stop stop-color="#F4439F"/>
<stop offset="1" stop-color="#7C3AED"/>
</linearGradient>
<linearGradient id="paint9_linear_112_3790" x1="828" y1="0.999381" x2="567.985" y2="52.1113" gradientUnits="userSpaceOnUse">
<stop stop-color="#F4439F"/>
<stop offset="1" stop-color="#7C3AED"/>
</linearGradient>
</defs>
</svg>
