<svg width="504" height="318" viewBox="0 0 504 318" fill="none" xmlns="http://www.w3.org/2000/svg">
<path fill-rule="evenodd" clip-rule="evenodd" d="M399.311 315.44C427.394 282.064 444.308 239.008 444.308 192.007C444.308 85.9644 358.209 0 252 0C145.791 0 59.6924 85.9644 59.6924 192.007C59.6924 239.008 76.6066 282.064 104.689 315.44H399.311Z" fill="#F0F3FD"/>
<g opacity="0.15">
<path fill-rule="evenodd" clip-rule="evenodd" d="M328.311 138.76C328.147 138.955 328.041 139.192 328.004 139.443L321.764 181.847C321.673 182.462 322.008 183.061 322.58 183.306L328.921 186.019C329.009 186.057 329.073 186.14 329.073 186.236V199.326C329.073 199.811 329.466 200.204 329.951 200.204C330.436 200.204 330.829 199.811 330.829 199.326V184.79C330.829 184.78 330.829 184.77 330.829 184.76L330.829 136.709C330.829 136.389 330.431 136.244 330.225 136.488L328.311 138.76Z" fill="#A4A4A4"/>
<path fill-rule="evenodd" clip-rule="evenodd" d="M328.311 137.884C328.147 138.079 328.041 138.315 328.004 138.567L321.764 180.97C321.673 181.586 322.008 182.185 322.58 182.429L328.921 185.142C329.009 185.18 329.073 185.263 329.073 185.359V198.45C329.073 198.935 329.466 199.328 329.951 199.328C330.436 199.328 330.829 198.935 330.829 198.45V183.913C330.829 183.903 330.829 183.893 330.829 183.883L330.829 135.832C330.829 135.513 330.431 135.368 330.225 135.612L328.311 137.884Z" fill="#C4C4C4"/>
<path fill-rule="evenodd" clip-rule="evenodd" d="M278.705 230.474C278.955 230.519 279.213 230.493 279.45 230.399L319.353 214.591C319.93 214.363 320.281 213.774 320.208 213.158L319.391 206.321C319.379 206.224 319.42 206.125 319.505 206.076L330.859 199.531C331.279 199.289 331.422 198.753 331.18 198.334C330.938 197.915 330.401 197.771 329.981 198.013L317.365 205.285C317.358 205.289 317.351 205.293 317.344 205.297L275.666 229.322C275.389 229.482 275.463 229.9 275.778 229.956L278.705 230.474Z" fill="#A4A4A4"/>
<path fill-rule="evenodd" clip-rule="evenodd" d="M278.266 230.036C278.517 230.08 278.775 230.054 279.011 229.961L318.914 214.153C319.492 213.924 319.843 213.336 319.769 212.719L318.953 205.883C318.941 205.785 318.982 205.687 319.067 205.638L330.421 199.093C330.84 198.851 330.984 198.315 330.741 197.895C330.499 197.476 329.962 197.332 329.543 197.574L316.926 204.847C316.919 204.851 316.913 204.855 316.906 204.858L275.228 228.884C274.951 229.043 275.025 229.461 275.339 229.517L278.266 230.036Z" fill="#C4C4C4"/>
<path fill-rule="evenodd" clip-rule="evenodd" d="M383.631 228.238C383.544 227.999 383.392 227.79 383.193 227.632L349.53 201.033C349.043 200.648 348.357 200.638 347.859 201.01L342.338 205.135C342.259 205.194 342.152 205.208 342.067 205.159L330.713 198.614C330.294 198.372 329.757 198.516 329.514 198.935C329.272 199.354 329.416 199.89 329.835 200.132L351.127 212.406C351.135 212.411 351.143 212.415 351.151 212.419L384.151 231.442C384.428 231.601 384.753 231.329 384.644 231.028L383.631 228.238Z" fill="#A4A4A4"/>
<path fill-rule="evenodd" clip-rule="evenodd" d="M383.631 227.361C383.544 227.123 383.392 226.913 383.193 226.755L349.53 200.156C349.043 199.771 348.357 199.762 347.859 200.134L342.338 204.258C342.259 204.317 342.152 204.331 342.067 204.282L330.713 197.737C330.294 197.495 329.757 197.639 329.514 198.058C329.272 198.478 329.416 199.014 329.835 199.256L351.127 211.529C351.135 211.534 351.144 211.539 351.152 211.543L384.151 230.565C384.428 230.725 384.753 230.452 384.644 230.152L383.631 227.361Z" fill="#C4C4C4"/>
<path fill-rule="evenodd" clip-rule="evenodd" d="M332.21 202.002C333.464 201.467 334.342 200.224 334.342 198.776C334.342 196.839 332.77 195.269 330.83 195.269C328.891 195.269 327.318 196.839 327.318 198.776C327.318 200.224 328.197 201.467 329.451 202.002L322.489 318H339.172L332.21 202.002Z" fill="#A4A4A4"/>
<path fill-rule="evenodd" clip-rule="evenodd" d="M331.333 202.002C332.587 201.467 333.465 200.224 333.465 198.776C333.465 196.839 331.893 195.269 329.953 195.269C328.014 195.269 326.441 196.839 326.441 198.776C326.441 200.224 327.32 201.467 328.574 202.002L321.612 318H338.295L331.333 202.002Z" fill="#C4C4C4"/>
</g>
<g opacity="0.6">
<rect x="64.8203" y="156.714" width="34.2485" height="80.6388" rx="17.1242" fill="#E9EBF2"/>
<rect x="81.1777" y="189.378" width="2.04469" height="126.062" rx="1.02234" fill="#E1E2E5"/>
<rect width="2.04389" height="17.2145" rx="1.02194" transform="matrix(0.866364 0.499413 -0.500587 0.865686 89.6143 193.86)" fill="#E1E2E5"/>
<rect width="2.04389" height="24.2188" rx="1.02194" transform="matrix(0.866364 -0.499413 -0.500587 -0.865686 81.7451 221.344)" fill="#E1E2E5"/>
</g>
<rect x="109.692" y="90.1519" width="48.9735" height="115.309" rx="24.4868" fill="#E9EBF2"/>
<rect x="133.082" y="136.859" width="2.92379" height="180.262" rx="1.4619" fill="#E1E2E5"/>
<rect width="2.92265" height="24.6158" rx="1.46133" transform="matrix(0.866364 0.499413 -0.500587 0.865686 145.146 143.269)" fill="#E1E2E5"/>
<rect width="2.92265" height="34.6316" rx="1.46133" transform="matrix(0.866364 -0.499413 -0.500587 -0.865686 133.894 182.569)" fill="#E1E2E5"/>
<path opacity="0.8" fill-rule="evenodd" clip-rule="evenodd" d="M175.077 63.184C175.077 63.2721 175.076 63.36 175.074 63.4476C180.571 63.5841 184.985 68.0763 184.985 73.5979C184.985 79.1184 180.573 83.6099 175.077 83.7482V83.7515H174.852C174.84 83.7515 174.828 83.7515 174.816 83.7515C174.804 83.7515 174.792 83.7515 174.78 83.7515H154.738V83.7482C154.651 83.7504 154.564 83.7515 154.477 83.7515C148.861 83.7515 144.308 79.2056 144.308 73.5979C144.308 67.9903 148.861 63.4444 154.477 63.4444C154.566 63.4444 154.654 63.4455 154.741 63.4477C154.739 63.3601 154.738 63.2722 154.738 63.184C154.738 57.5763 159.291 53.0304 164.908 53.0304C170.524 53.0304 175.077 57.5763 175.077 63.184Z" fill="white"/>
<path opacity="0.6" fill-rule="evenodd" clip-rule="evenodd" d="M362.387 93.8608C362.387 93.9052 362.387 93.9495 362.385 93.9936C365.158 94.0621 367.384 96.3276 367.384 99.1122C367.384 101.896 365.159 104.161 362.387 104.231V104.232H362.267C362.263 104.232 362.26 104.232 362.256 104.232C362.253 104.232 362.249 104.232 362.246 104.232H352.131V104.231C352.087 104.232 352.043 104.232 351.999 104.232C349.167 104.232 346.871 101.94 346.871 99.1122C346.871 96.2844 349.167 93.992 351.999 93.992C352.044 93.992 352.088 93.9926 352.132 93.9937C352.131 93.9495 352.131 93.9052 352.131 93.8608C352.131 91.033 354.427 88.7406 357.259 88.7406C360.091 88.7406 362.387 91.033 362.387 93.8608Z" fill="white"/>
<path fill-rule="evenodd" clip-rule="evenodd" d="M276.615 34.8898C276.615 25.821 283.993 18.4692 293.061 18.4692C299.792 18.4692 305.592 22.5192 308.134 28.3152C309.77 27.1588 311.767 26.4793 313.92 26.4793C318.981 26.4793 323.178 30.234 323.853 35.1098H327.628C332.223 35.1098 335.948 38.8349 335.948 43.4301C335.948 48.0253 332.223 51.7504 327.628 51.7504H278.269C273.673 51.7504 269.948 48.0253 269.948 43.4301C269.948 39.3995 272.814 36.0382 276.62 35.2732C276.617 35.1457 276.615 35.018 276.615 34.8898Z" fill="white"/>
<path opacity="0.6" fill-rule="evenodd" clip-rule="evenodd" d="M163.694 144.212C163.694 140.512 166.704 137.513 170.403 137.513C173.149 137.513 175.514 139.165 176.552 141.529C177.219 141.058 178.033 140.781 178.911 140.781C180.976 140.781 182.688 142.313 182.963 144.301H184.504C186.378 144.301 187.898 145.821 187.898 147.696C187.898 149.57 186.378 151.09 184.504 151.09H164.369C162.494 151.09 160.975 149.57 160.975 147.696C160.975 146.051 162.144 144.68 163.696 144.368C163.695 144.316 163.694 144.264 163.694 144.212Z" fill="white"/>
<path fill-rule="evenodd" clip-rule="evenodd" d="M399.817 36.1498C399.559 36.4559 399.391 36.8278 399.333 37.2238L389.521 103.902C389.379 104.87 389.906 105.812 390.805 106.196L400.776 110.463C400.915 110.522 401.015 110.653 401.015 110.804V131.389C401.015 132.151 401.633 132.769 402.396 132.769C403.158 132.769 403.776 132.151 403.776 131.389V108.525C403.777 108.511 403.777 108.497 403.777 108.483L403.777 32.9237C403.777 32.4215 403.15 32.1927 402.826 32.5768L399.817 36.1498Z" fill="#DCDFE6"/>
<path fill-rule="evenodd" clip-rule="evenodd" d="M399.817 34.7711C399.559 35.0772 399.391 35.4492 399.333 35.8451L389.521 102.524C389.379 103.491 389.906 104.433 390.805 104.818L400.776 109.084C400.915 109.144 401.015 109.274 401.015 109.425V130.01C401.015 130.772 401.633 131.391 402.396 131.391C403.158 131.391 403.776 130.772 403.776 130.01V107.146C403.777 107.132 403.777 107.118 403.777 107.104L403.777 31.545C403.777 31.0428 403.15 30.814 402.826 31.1981L399.817 34.7711Z" fill="#E9EBF2"/>
<path fill-rule="evenodd" clip-rule="evenodd" d="M321.81 180.367C322.204 180.437 322.61 180.396 322.981 180.249L385.728 155.392C386.637 155.032 387.188 154.106 387.073 153.137L385.788 142.387C385.77 142.234 385.834 142.079 385.968 142.002L403.822 131.71C404.482 131.33 404.708 130.487 404.326 129.827C403.945 129.168 403.101 128.942 402.441 129.322L382.609 140.754C382.596 140.762 382.583 140.769 382.57 140.776L317.032 178.556C316.597 178.807 316.713 179.464 317.208 179.552L321.81 180.367Z" fill="#DCDFE6"/>
<path fill-rule="evenodd" clip-rule="evenodd" d="M321.12 179.678C321.514 179.748 321.919 179.707 322.291 179.56L385.038 154.703C385.946 154.343 386.498 153.417 386.382 152.448L385.098 141.698C385.08 141.545 385.144 141.39 385.277 141.313L403.131 131.021C403.791 130.64 404.017 129.797 403.636 129.138C403.255 128.479 402.411 128.253 401.751 128.633L381.919 140.065C381.906 140.072 381.893 140.08 381.88 140.087L316.342 177.866C315.906 178.117 316.022 178.775 316.517 178.863L321.12 179.678Z" fill="#E9EBF2"/>
<path fill-rule="evenodd" clip-rule="evenodd" d="M486.802 176.851C486.665 176.476 486.427 176.146 486.114 175.898L433.179 134.071C432.413 133.466 431.335 133.452 430.552 134.036L421.87 140.522C421.745 140.614 421.578 140.637 421.444 140.559L403.59 130.268C402.93 129.887 402.086 130.114 401.705 130.773C401.324 131.432 401.55 132.275 402.209 132.656L435.691 151.956C435.704 151.963 435.717 151.971 435.73 151.978L487.62 181.889C488.055 182.14 488.567 181.711 488.396 181.239L486.802 176.851Z" fill="#DCDFE6"/>
<path fill-rule="evenodd" clip-rule="evenodd" d="M486.802 175.473C486.665 175.097 486.427 174.767 486.114 174.52L433.179 132.693C432.413 132.087 431.335 132.073 430.552 132.658L421.87 139.143C421.745 139.236 421.578 139.258 421.444 139.181L403.59 128.889C402.93 128.509 402.086 128.735 401.705 129.394C401.324 130.054 401.55 130.897 402.209 131.277L435.691 150.577C435.704 150.585 435.717 150.592 435.73 150.599L487.62 180.51C488.055 180.761 488.567 180.333 488.396 179.861L486.802 175.473Z" fill="#E9EBF2"/>
<path fill-rule="evenodd" clip-rule="evenodd" d="M405.945 135.595C407.917 134.754 409.299 132.799 409.299 130.522C409.299 127.477 406.827 125.008 403.776 125.008C400.726 125.008 398.254 127.477 398.254 130.522C398.254 132.799 399.636 134.754 401.608 135.595L390.66 318H416.893L405.945 135.595Z" fill="#DCDFE6"/>
<path fill-rule="evenodd" clip-rule="evenodd" d="M404.563 135.595C406.535 134.754 407.917 132.799 407.917 130.522C407.917 127.477 405.445 125.008 402.395 125.008C399.345 125.008 396.872 127.477 396.872 130.522C396.872 132.799 398.254 134.754 400.226 135.595L389.278 318H415.511L404.563 135.595Z" fill="#E9EBF2"/>
<path d="M418.546 314.16H404.521C388.273 314.16 395.283 309.339 399.393 308.404C390.205 305.132 396.975 298.967 401.62 301.538C398.718 290.32 408.632 292.657 410.566 298.967C414.435 292.423 421.205 295.695 417.095 302.707C424.107 299.669 424.107 305.746 421.205 307.615C428.218 308.784 424.299 310.975 420.43 310.975C425.024 313.546 421.639 314.16 418.546 314.16Z" fill="#D7D8DE"/>
<path d="M357.008 314.16H342.983C326.734 314.16 333.745 309.339 337.855 308.404C328.667 305.132 335.437 298.967 340.082 301.538C337.18 290.32 347.094 292.657 349.028 298.967C352.897 292.423 359.667 295.695 355.557 302.707C362.569 299.669 362.569 305.746 359.667 307.615C366.679 308.784 362.76 310.975 358.892 310.975C363.486 313.546 360.101 314.16 357.008 314.16Z" fill="#D7D8DE"/>
<path d="M398.843 315.44H371.379C339.558 315.44 353.287 306.401 361.337 304.648C343.343 298.512 356.601 286.954 365.697 291.775C360.014 270.739 379.429 275.122 383.217 286.954C390.793 274.683 404.052 280.819 396.002 293.966C409.734 288.269 409.734 299.663 404.052 303.169C417.784 305.36 410.109 309.468 402.533 309.468C411.53 314.289 404.9 315.44 398.843 315.44Z" fill="#E1E1E6"/>
<path d="M343.543 289.622C343.359 288.345 342.823 287.062 341.733 286.182C344.283 286.261 345.253 286.954 346.309 287.987C348.862 290.484 347.494 293.533 345.998 293.045C344.501 292.556 343.732 290.946 343.543 289.622Z" fill="#E5E6ED"/>
<path d="M343.343 286.859C346.011 288.162 347.022 291.611 347.382 293.317L347.042 293.403C346.586 289.828 344.785 287.58 343.343 286.859C343.297 286.836 343.25 286.814 343.203 286.793C343.249 286.813 343.296 286.835 343.343 286.859Z" fill="#727785"/>
<path d="M345.77 287.791C346.211 288.34 346.077 289.182 345.981 289.585L345.9 289.569C346.165 288.756 346.007 288.091 345.77 287.791C345.763 287.781 345.755 287.772 345.747 287.762C345.755 287.771 345.763 287.781 345.77 287.791Z" fill="#727785"/>
<path d="M344.483 288.27C344.702 288.589 345.141 288.657 345.355 288.673L345.358 288.628C344.916 288.633 344.603 288.442 344.483 288.27C344.479 288.264 344.475 288.259 344.472 288.253C344.475 288.258 344.479 288.264 344.483 288.27Z" fill="#727785"/>
<path d="M346.821 289.059C347.105 289.703 346.758 290.483 346.562 290.847L346.487 290.81C346.953 290.093 346.972 289.41 346.821 289.059C346.816 289.048 346.811 289.037 346.806 289.026C346.811 289.036 346.816 289.047 346.821 289.059Z" fill="#727785"/>
<path d="M344.616 289.481C345.008 290.066 345.853 290.193 346.266 290.222L346.275 290.14C345.419 290.148 344.832 289.797 344.616 289.481C344.609 289.471 344.602 289.461 344.596 289.451C344.602 289.461 344.609 289.471 344.616 289.481Z" fill="#727785"/>
<path d="M344.6 290.822C345.148 291.673 346.285 291.885 346.84 291.944L346.849 291.826C345.702 291.805 344.902 291.281 344.6 290.822C344.591 290.808 344.581 290.793 344.572 290.778C344.581 290.793 344.59 290.807 344.6 290.822Z" fill="#727785"/>
<path d="M418.68 292.763C419.425 291.708 420.487 290.808 421.858 290.519C419.551 289.432 418.371 289.61 416.96 290.05C413.55 291.115 413.379 294.453 414.935 294.697C416.491 294.941 417.908 293.855 418.68 292.763Z" fill="#E5E6ED"/>
<path d="M420.116 290.391C417.146 290.341 414.676 292.955 413.578 294.311L413.842 294.541C415.876 291.564 418.503 290.379 420.116 290.391C420.168 290.392 420.219 290.394 420.271 290.396C420.22 290.394 420.169 290.392 420.116 290.391Z" fill="#727785"/>
<path d="M417.53 290.12C416.887 290.41 416.623 291.22 416.525 291.622L416.605 291.645C416.739 290.801 417.183 290.28 417.53 290.12C417.541 290.115 417.552 290.11 417.563 290.105C417.552 290.11 417.541 290.115 417.53 290.12Z" fill="#727785"/>
<path d="M418.458 291.131C418.117 291.316 417.695 291.177 417.497 291.094L417.516 291.053C417.906 291.258 418.272 291.23 418.458 291.131C418.464 291.128 418.47 291.125 418.476 291.121C418.47 291.125 418.464 291.128 418.458 291.131Z" fill="#727785"/>
<path d="M416.017 290.773C415.471 291.218 415.425 292.069 415.434 292.483L415.517 292.485C415.429 291.634 415.723 291.017 416.017 290.773C416.027 290.765 416.036 290.758 416.046 290.75C416.036 290.757 416.027 290.765 416.017 290.773Z" fill="#727785"/>
<path d="M417.789 292.15C417.173 292.493 416.363 292.222 415.981 292.061L416.011 291.983C416.77 292.379 417.453 292.333 417.789 292.15C417.799 292.144 417.81 292.138 417.82 292.132C417.81 292.138 417.8 292.144 417.789 292.15Z" fill="#727785"/>
<path d="M417.191 293.352C416.316 293.86 415.207 293.534 414.686 293.334L414.731 293.225C415.763 293.727 416.714 293.624 417.191 293.352C417.206 293.343 417.221 293.334 417.236 293.325C417.222 293.334 417.207 293.343 417.191 293.352Z" fill="#727785"/>
<path d="M389.308 271.821C389.398 270.534 389.839 269.214 390.862 268.258C388.325 268.522 387.408 269.284 386.43 270.39C384.065 273.066 385.651 276.008 387.109 275.412C388.566 274.816 389.215 273.154 389.308 271.821Z" fill="#E5E6ED"/>
<path d="M389.306 269.05C386.739 270.543 385.983 274.056 385.748 275.784L386.093 275.845C386.287 272.246 387.92 269.873 389.306 269.05C389.35 269.024 389.395 268.999 389.44 268.974C389.396 268.998 389.351 269.023 389.306 269.05Z" fill="#727785"/>
<path d="M386.952 270.155C386.553 270.735 386.748 271.566 386.873 271.96L386.953 271.938C386.629 271.146 386.739 270.472 386.952 270.155C386.959 270.145 386.966 270.135 386.974 270.125C386.966 270.135 386.959 270.145 386.952 270.155Z" fill="#727785"/>
<path d="M388.272 270.54C388.077 270.874 387.644 270.974 387.431 271.005L387.426 270.96C387.866 270.933 388.165 270.72 388.272 270.54C388.276 270.534 388.279 270.528 388.282 270.522C388.279 270.528 388.276 270.534 388.272 270.54Z" fill="#727785"/>
<path d="M385.998 271.496C385.762 272.16 386.164 272.912 386.386 273.261L386.458 273.219C385.941 272.537 385.873 271.858 385.998 271.496C386.002 271.485 386.006 271.473 386.011 271.462C386.006 271.473 386.002 271.485 385.998 271.496Z" fill="#727785"/>
<path d="M388.228 271.758C387.88 272.369 387.047 272.557 386.637 272.617L386.621 272.535C387.476 272.481 388.036 272.088 388.228 271.758C388.234 271.747 388.24 271.737 388.246 271.726C388.241 271.736 388.235 271.747 388.228 271.758Z" fill="#727785"/>
<path d="M388.342 273.094C387.857 273.982 386.739 274.276 386.189 274.375L386.171 274.258C387.315 274.154 388.074 273.574 388.342 273.094C388.35 273.079 388.358 273.063 388.366 273.048C388.359 273.063 388.35 273.078 388.342 273.094Z" fill="#727785"/>
<path d="M361.614 272.851C361.571 272.093 361.321 271.314 360.726 270.743C362.217 270.917 362.751 271.372 363.318 272.031C364.69 273.622 363.735 275.341 362.882 274.98C362.029 274.619 361.659 273.636 361.614 272.851Z" fill="#E5E6ED"/>
<path d="M361.636 271.221C363.135 272.118 363.555 274.19 363.68 275.209L363.477 275.242C363.389 273.123 362.446 271.715 361.636 271.221C361.61 271.205 361.584 271.19 361.558 271.175C361.584 271.189 361.61 271.205 361.636 271.221Z" fill="#727785"/>
<path d="M363.012 271.888C363.243 272.233 363.122 272.72 363.046 272.952L362.999 272.938C363.195 272.474 363.136 272.077 363.012 271.888C363.008 271.882 363.004 271.877 363 271.871C363.004 271.876 363.008 271.882 363.012 271.888Z" fill="#727785"/>
<path d="M362.233 272.105C362.346 272.303 362.6 272.365 362.725 272.385L362.728 272.359C362.469 272.34 362.295 272.212 362.233 272.105C362.231 272.101 362.229 272.098 362.228 272.094C362.229 272.098 362.231 272.101 362.233 272.105Z" fill="#727785"/>
<path d="M363.564 272.684C363.698 273.077 363.456 273.517 363.322 273.72L363.28 273.695C363.59 273.298 363.635 272.898 363.564 272.684C363.562 272.678 363.559 272.671 363.557 272.664C363.559 272.671 363.562 272.677 363.564 272.684Z" fill="#727785"/>
<path d="M362.25 272.822C362.451 273.185 362.94 273.301 363.181 273.34L363.191 273.292C362.688 273.253 362.361 273.018 362.25 272.822C362.247 272.816 362.244 272.809 362.24 272.803C362.243 272.809 362.247 272.816 362.25 272.822Z" fill="#727785"/>
<path d="M362.174 273.607C362.453 274.133 363.109 274.315 363.431 274.377L363.443 274.308C362.771 274.238 362.328 273.891 362.174 273.607C362.169 273.598 362.165 273.589 362.16 273.58C362.165 273.589 362.169 273.598 362.174 273.607Z" fill="#727785"/>
<path d="M89.9355 315.44H76.3281C60.5623 315.44 67.3642 310.961 71.3526 310.093C62.4374 307.053 69.0065 301.326 73.5128 303.715C70.6974 293.292 80.3165 295.464 82.1934 301.326C85.9471 295.246 92.5163 298.286 88.5279 304.8C95.3316 301.978 95.3316 307.623 92.5163 309.36C99.32 310.446 95.5175 312.481 91.7637 312.481C96.2213 314.87 92.9368 315.44 89.9355 315.44Z" fill="#EDEEF2"/>
<path d="M97.4831 314.806H90.5346C82.484 314.806 85.9573 312.417 87.994 311.954C83.4415 310.333 86.7959 307.278 89.097 308.552C87.6594 302.994 92.5712 304.152 93.5297 307.278C95.4465 304.036 98.8009 305.657 96.7643 309.131C100.239 307.626 100.239 310.637 98.8009 311.563C102.275 312.142 100.333 313.228 98.4166 313.228C100.693 314.502 99.0157 314.806 97.4831 314.806Z" fill="#DFE0E6"/>
<path d="M66.4184 299.373C66.0494 298.851 65.5232 298.405 64.8438 298.261C65.9868 297.723 66.5715 297.811 67.2705 298.029C68.9601 298.557 69.0446 300.21 68.2739 300.331C67.5031 300.452 66.8007 299.914 66.4184 299.373Z" fill="#E5E6ED"/>
<path d="M65.7073 298.198C67.179 298.173 68.4027 299.468 68.9466 300.14L68.816 300.254C67.8084 298.779 66.5064 298.192 65.7073 298.198C65.6819 298.199 65.6564 298.199 65.6309 298.201C65.6558 298.199 65.6813 298.198 65.7073 298.198Z" fill="#727785"/>
<path d="M66.9883 298.064C67.3067 298.207 67.4378 298.609 67.4863 298.809L67.4466 298.82C67.3803 298.401 67.1605 298.143 66.9883 298.064C66.9828 298.061 66.9773 298.059 66.9717 298.056C66.9772 298.059 66.9827 298.061 66.9883 298.064Z" fill="#727785"/>
<path d="M66.5282 298.565C66.697 298.656 66.9063 298.588 67.0043 298.546L66.9952 298.526C66.8015 298.627 66.6203 298.613 66.5282 298.565C66.5253 298.563 66.5224 298.561 66.5195 298.56C66.5223 298.561 66.5252 298.563 66.5282 298.565Z" fill="#727785"/>
<path d="M67.7379 298.387C68.0085 298.608 68.0316 299.03 68.0271 299.235L67.9858 299.236C68.0297 298.814 67.8837 298.508 67.7379 298.387C67.7332 298.383 67.7285 298.38 67.7236 298.376C67.7284 298.38 67.7331 298.383 67.7379 298.387Z" fill="#727785"/>
<path d="M66.8605 299.069C67.1658 299.239 67.5673 299.105 67.7566 299.026L67.7421 298.987C67.3656 299.183 67.0271 299.16 66.8605 299.069C66.8552 299.066 66.8499 299.063 66.8447 299.06C66.8498 299.063 66.855 299.066 66.8605 299.069Z" fill="#727785"/>
<path d="M67.1552 299.665C67.5893 299.917 68.1393 299.756 68.3976 299.656L68.3751 299.602C67.8635 299.851 67.3919 299.8 67.1552 299.665C67.1477 299.661 67.1402 299.656 67.1328 299.651C67.14 299.656 67.1475 299.661 67.1552 299.665Z" fill="#727785"/>
<path d="M98.1265 303.812C98.4955 303.29 99.0217 302.844 99.7011 302.701C98.5581 302.162 97.9734 302.25 97.2744 302.469C95.5848 302.996 95.5003 304.65 96.2711 304.771C97.0419 304.892 97.7442 304.354 98.1265 303.812Z" fill="#E5E6ED"/>
<path d="M98.8386 302.638C97.3669 302.613 96.1432 303.908 95.5993 304.58L95.7299 304.694C96.7375 303.218 98.0395 302.632 98.8386 302.638C98.864 302.638 98.8895 302.639 98.915 302.64C98.8901 302.639 98.8646 302.638 98.8386 302.638Z" fill="#727785"/>
<path d="M97.5566 302.503C97.2382 302.647 97.1071 303.049 97.0587 303.248L97.0983 303.26C97.1647 302.841 97.3845 302.583 97.5566 302.503C97.5621 302.501 97.5676 302.498 97.5732 302.496C97.5677 302.498 97.5622 302.5 97.5566 302.503Z" fill="#727785"/>
<path d="M98.0167 303.004C97.8479 303.096 97.6387 303.027 97.5406 302.986L97.5497 302.965C97.7434 303.067 97.9246 303.053 98.0167 303.004C98.0196 303.002 98.0225 303.001 98.0254 302.999C98.0226 303.001 98.0197 303.002 98.0167 303.004Z" fill="#727785"/>
<path d="M96.8071 302.827C96.5364 303.047 96.5133 303.47 96.5179 303.675L96.5591 303.675C96.5152 303.254 96.6612 302.948 96.8071 302.827C96.8117 302.823 96.8165 302.819 96.8213 302.815C96.8165 302.819 96.8118 302.823 96.8071 302.827Z" fill="#727785"/>
<path d="M97.6845 303.509C97.3791 303.679 96.9776 303.545 96.7883 303.465L96.8028 303.427C97.1793 303.623 97.5178 303.6 97.6845 303.509C97.6897 303.506 97.695 303.503 97.7002 303.5C97.6951 303.503 97.6899 303.506 97.6845 303.509Z" fill="#727785"/>
<path d="M97.3897 304.104C96.9556 304.357 96.4057 304.195 96.1474 304.096L96.1698 304.042C96.6814 304.291 97.153 304.239 97.3897 304.104C97.3972 304.1 97.4047 304.096 97.4121 304.091C97.4049 304.096 97.3974 304.1 97.3897 304.104Z" fill="#727785"/>
<path d="M83.9411 296.365C83.9856 295.727 84.2043 295.074 84.7111 294.6C83.454 294.731 82.9996 295.108 82.515 295.657C81.3436 296.982 82.1293 298.44 82.8513 298.144C83.5733 297.849 83.895 297.026 83.9411 296.365Z" fill="#E5E6ED"/>
<path d="M83.9412 294.992C82.6695 295.732 82.2947 297.473 82.1782 298.329L82.3492 298.359C82.4454 296.576 83.2545 295.4 83.9412 294.992C83.9631 294.979 83.9853 294.967 84.0078 294.955C83.9857 294.966 83.9635 294.979 83.9412 294.992Z" fill="#727785"/>
<path d="M82.7747 295.54C82.5769 295.828 82.6734 296.239 82.7355 296.435L82.7752 296.424C82.6146 296.032 82.6687 295.697 82.7747 295.54C82.7781 295.535 82.7816 295.53 82.7852 295.525C82.7816 295.53 82.7781 295.535 82.7747 295.54Z" fill="#727785"/>
<path d="M83.4277 295.731C83.3308 295.896 83.1163 295.946 83.0111 295.961L83.0083 295.939C83.2266 295.926 83.3744 295.82 83.4277 295.731C83.4294 295.728 83.431 295.725 83.4326 295.722C83.4311 295.725 83.4294 295.728 83.4277 295.731Z" fill="#727785"/>
<path d="M82.3013 296.204C82.1843 296.533 82.3836 296.906 82.494 297.079L82.5296 297.059C82.2732 296.721 82.2394 296.384 82.3013 296.204C82.3033 296.199 82.3054 296.193 82.3076 296.188C82.3054 296.193 82.3033 296.199 82.3013 296.204Z" fill="#727785"/>
<path d="M83.4063 296.334C83.2333 296.637 82.8203 296.73 82.617 296.76L82.6095 296.72C83.0332 296.693 83.3109 296.498 83.4063 296.334C83.4093 296.329 83.4122 296.323 83.415 296.318C83.4123 296.323 83.4094 296.329 83.4063 296.334Z" fill="#727785"/>
<path d="M83.4615 296.996C83.2211 297.437 82.6668 297.583 82.3944 297.632L82.3855 297.574C82.9522 297.522 83.329 297.234 83.4615 296.996C83.4656 296.989 83.4697 296.981 83.4736 296.973C83.4698 296.981 83.4658 296.988 83.4615 296.996Z" fill="#727785"/>
<path d="M70.5459 296.241C70.5244 295.866 70.4005 295.48 70.1058 295.197C70.8444 295.283 71.1091 295.509 71.3902 295.835C72.0697 296.623 71.5967 297.475 71.1741 297.296C70.7515 297.117 70.5683 296.63 70.5459 296.241Z" fill="#E5E6ED"/>
<path d="M70.5565 295.434C71.2993 295.879 71.5071 296.905 71.5694 297.41L71.4686 297.426C71.425 296.377 70.9575 295.679 70.5565 295.434C70.5437 295.426 70.5307 295.419 70.5176 295.411C70.5305 295.418 70.5435 295.426 70.5565 295.434Z" fill="#727785"/>
<path d="M71.2385 295.765C71.3527 295.935 71.2929 296.177 71.255 296.291L71.2317 296.285C71.3291 296.055 71.2997 295.858 71.2385 295.765C71.2365 295.762 71.2345 295.759 71.2324 295.756C71.2345 295.759 71.2365 295.761 71.2385 295.765Z" fill="#727785"/>
<path d="M70.8524 295.872C70.9082 295.97 71.0341 296.001 71.0959 296.011L71.0977 295.997C70.9693 295.988 70.8832 295.925 70.8524 295.872C70.8515 295.87 70.8505 295.868 70.8496 295.867C70.8505 295.868 70.8514 295.87 70.8524 295.872Z" fill="#727785"/>
<path d="M71.5114 296.159C71.5778 296.353 71.4578 296.571 71.3916 296.672L71.3708 296.66C71.5241 296.463 71.5465 296.265 71.5114 296.159C71.5103 296.155 71.5091 296.152 71.5078 296.149C71.5091 296.152 71.5103 296.155 71.5114 296.159Z" fill="#727785"/>
<path d="M70.8605 296.227C70.9601 296.407 71.2023 296.464 71.3217 296.483L71.3265 296.46C71.0774 296.441 70.9154 296.324 70.8605 296.227C70.8588 296.224 70.8571 296.221 70.8555 296.218C70.857 296.221 70.8587 296.224 70.8605 296.227Z" fill="#727785"/>
<path d="M70.8224 296.616C70.9606 296.877 71.2857 296.967 71.4456 296.998L71.4512 296.964C71.1182 296.929 70.8986 296.757 70.8224 296.616C70.82 296.612 70.8177 296.607 70.8154 296.602C70.8176 296.607 70.8199 296.611 70.8224 296.616Z" fill="#727785"/>
<path d="M93.999 300.681C94.0205 300.305 94.1444 299.919 94.4391 299.637C93.7005 299.723 93.4358 299.948 93.1547 300.274C92.4753 301.063 92.9482 301.915 93.3708 301.736C93.7934 301.557 93.9767 301.07 93.999 300.681Z" fill="#E5E6ED"/>
<path d="M93.9884 299.873C93.2456 300.318 93.0378 301.345 92.9755 301.849L93.0764 301.866C93.12 300.816 93.5874 300.118 93.9884 299.873C94.0012 299.866 94.0142 299.858 94.0273 299.851C94.0144 299.858 94.0015 299.865 93.9884 299.873Z" fill="#727785"/>
<path d="M93.3064 300.204C93.1922 300.375 93.252 300.616 93.2899 300.731L93.3132 300.724C93.2158 300.494 93.2453 300.297 93.3064 300.204C93.3084 300.201 93.3104 300.198 93.3125 300.195C93.3104 300.198 93.3084 300.201 93.3064 300.204Z" fill="#727785"/>
<path d="M93.6925 300.311C93.6367 300.409 93.5108 300.44 93.449 300.45L93.4472 300.437C93.5756 300.428 93.6618 300.364 93.6925 300.311C93.6935 300.31 93.6944 300.308 93.6953 300.306C93.6944 300.308 93.6935 300.31 93.6925 300.311Z" fill="#727785"/>
<path d="M93.0335 300.598C92.9671 300.793 93.0871 301.011 93.1533 301.112L93.1741 301.099C93.0208 300.902 92.9984 300.704 93.0335 300.598C93.0346 300.595 93.0359 300.592 93.0371 300.588C93.0358 300.592 93.0346 300.595 93.0335 300.598Z" fill="#727785"/>
<path d="M93.6844 300.667C93.5849 300.846 93.3426 300.904 93.2232 300.923L93.2184 300.899C93.4676 300.88 93.6295 300.764 93.6844 300.667C93.6861 300.663 93.6878 300.66 93.6895 300.657C93.6879 300.66 93.6862 300.663 93.6844 300.667Z" fill="#727785"/>
<path d="M93.7225 301.056C93.5843 301.316 93.2592 301.407 93.0993 301.437L93.0937 301.403C93.4267 301.369 93.6463 301.197 93.7225 301.056C93.7249 301.051 93.7272 301.047 93.7295 301.042C93.7273 301.047 93.725 301.051 93.7225 301.056Z" fill="#727785"/>
<path d="M142.499 315.44H128.892C113.126 315.44 119.928 310.961 123.916 310.093C115.001 307.053 121.57 301.326 126.076 303.715C123.261 293.292 132.88 295.464 134.757 301.326C138.511 295.246 145.08 298.286 141.091 304.8C147.895 301.978 147.895 307.623 145.08 309.36C151.883 310.446 148.081 312.481 144.327 312.481C148.785 314.87 145.5 315.44 142.499 315.44Z" fill="#EDEEF2"/>
<path d="M150.048 314.806H143.099C135.048 314.806 138.522 312.417 140.558 311.954C136.006 310.333 139.36 307.278 141.661 308.552C140.224 302.994 145.136 304.152 146.094 307.278C148.011 304.036 151.365 305.657 149.329 309.131C152.803 307.626 152.803 310.637 151.365 311.563C154.84 312.142 152.898 313.228 150.981 313.228C153.257 314.502 151.58 314.806 150.048 314.806Z" fill="#DFE0E6"/>
<path d="M118.983 299.373C118.614 298.851 118.088 298.405 117.408 298.261C118.551 297.723 119.136 297.811 119.835 298.029C121.525 298.557 121.609 300.21 120.838 300.331C120.068 300.452 119.365 299.914 118.983 299.373Z" fill="#E5E6ED"/>
<path d="M118.271 298.198C119.742 298.173 120.966 299.468 121.51 300.14L121.379 300.254C120.372 298.779 119.07 298.192 118.271 298.198C118.245 298.199 118.22 298.199 118.194 298.201C118.219 298.199 118.245 298.198 118.271 298.198Z" fill="#727785"/>
<path d="M119.552 298.064C119.87 298.207 120.001 298.609 120.05 298.809L120.01 298.82C119.944 298.401 119.724 298.143 119.552 298.064C119.546 298.061 119.541 298.059 119.535 298.056C119.541 298.059 119.546 298.061 119.552 298.064Z" fill="#727785"/>
<path d="M119.093 298.565C119.261 298.656 119.471 298.588 119.569 298.546L119.56 298.526C119.366 298.627 119.185 298.613 119.093 298.565C119.09 298.563 119.087 298.561 119.084 298.56C119.087 298.561 119.09 298.563 119.093 298.565Z" fill="#727785"/>
<path d="M120.302 298.387C120.573 298.608 120.596 299.03 120.592 299.235L120.55 299.236C120.594 298.814 120.448 298.508 120.302 298.387C120.298 298.383 120.293 298.38 120.288 298.376C120.293 298.38 120.298 298.383 120.302 298.387Z" fill="#727785"/>
<path d="M119.425 299.069C119.73 299.239 120.132 299.105 120.321 299.026L120.307 298.987C119.93 299.183 119.592 299.16 119.425 299.069C119.42 299.066 119.414 299.063 119.409 299.06C119.414 299.063 119.419 299.066 119.425 299.069Z" fill="#727785"/>
<path d="M119.72 299.665C120.154 299.917 120.704 299.756 120.962 299.656L120.94 299.602C120.428 299.851 119.956 299.8 119.72 299.665C119.712 299.661 119.705 299.656 119.697 299.651C119.704 299.656 119.712 299.661 119.72 299.665Z" fill="#727785"/>
<path d="M150.691 303.812C151.06 303.29 151.586 302.844 152.266 302.701C151.123 302.162 150.538 302.25 149.839 302.469C148.149 302.996 148.065 304.65 148.836 304.771C149.606 304.892 150.309 304.354 150.691 303.812Z" fill="#E5E6ED"/>
<path d="M151.403 302.638C149.931 302.613 148.708 303.908 148.164 304.58L148.294 304.694C149.302 303.218 150.604 302.632 151.403 302.638C151.428 302.638 151.454 302.639 151.479 302.64C151.455 302.639 151.429 302.638 151.403 302.638Z" fill="#727785"/>
<path d="M150.122 302.503C149.804 302.647 149.673 303.049 149.624 303.248L149.664 303.26C149.73 302.841 149.95 302.583 150.122 302.503C150.128 302.501 150.133 302.498 150.139 302.496C150.133 302.498 150.128 302.5 150.122 302.503Z" fill="#727785"/>
<path d="M150.581 303.004C150.412 303.096 150.203 303.027 150.105 302.986L150.114 302.965C150.308 303.067 150.489 303.053 150.581 303.004C150.584 303.002 150.587 303.001 150.59 302.999C150.587 303.001 150.584 303.002 150.581 303.004Z" fill="#727785"/>
<path d="M149.372 302.827C149.101 303.047 149.078 303.47 149.082 303.675L149.124 303.675C149.08 303.254 149.226 302.948 149.372 302.827C149.376 302.823 149.381 302.819 149.386 302.815C149.381 302.819 149.376 302.823 149.372 302.827Z" fill="#727785"/>
<path d="M150.249 303.509C149.944 303.679 149.542 303.545 149.353 303.465L149.367 303.427C149.744 303.623 150.082 303.6 150.249 303.509C150.254 303.506 150.259 303.503 150.265 303.5C150.26 303.503 150.254 303.506 150.249 303.509Z" fill="#727785"/>
<path d="M149.954 304.104C149.52 304.357 148.97 304.195 148.712 304.096L148.734 304.042C149.246 304.291 149.717 304.239 149.954 304.104C149.962 304.1 149.969 304.096 149.977 304.091C149.969 304.096 149.962 304.1 149.954 304.104Z" fill="#727785"/>
<path d="M136.506 296.365C136.55 295.727 136.769 295.074 137.276 294.6C136.018 294.731 135.564 295.108 135.079 295.657C133.908 296.982 134.694 298.44 135.416 298.144C136.138 297.849 136.459 297.026 136.506 296.365Z" fill="#E5E6ED"/>
<path d="M136.505 294.992C135.233 295.732 134.858 297.473 134.742 298.329L134.913 298.359C135.009 296.576 135.818 295.4 136.505 294.992C136.527 294.979 136.549 294.967 136.571 294.955C136.549 294.966 136.527 294.979 136.505 294.992Z" fill="#727785"/>
<path d="M135.339 295.54C135.141 295.828 135.238 296.239 135.3 296.435L135.34 296.424C135.179 296.032 135.233 295.697 135.339 295.54C135.343 295.535 135.346 295.53 135.35 295.525C135.346 295.53 135.343 295.535 135.339 295.54Z" fill="#727785"/>
<path d="M135.992 295.731C135.895 295.896 135.681 295.946 135.576 295.961L135.573 295.939C135.791 295.926 135.939 295.82 135.992 295.731C135.994 295.728 135.995 295.725 135.997 295.722C135.996 295.725 135.994 295.728 135.992 295.731Z" fill="#727785"/>
<path d="M134.865 296.204C134.748 296.533 134.947 296.906 135.057 297.079L135.093 297.059C134.837 296.721 134.803 296.384 134.865 296.204C134.867 296.199 134.869 296.193 134.871 296.188C134.869 296.193 134.867 296.199 134.865 296.204Z" fill="#727785"/>
<path d="M135.971 296.334C135.798 296.637 135.385 296.73 135.181 296.76L135.174 296.72C135.598 296.693 135.875 296.498 135.971 296.334C135.974 296.329 135.977 296.323 135.979 296.318C135.977 296.323 135.974 296.329 135.971 296.334Z" fill="#727785"/>
<path d="M136.026 296.996C135.786 297.437 135.231 297.583 134.959 297.632L134.95 297.574C135.517 297.522 135.893 297.234 136.026 296.996C136.03 296.989 136.034 296.981 136.038 296.973C136.034 296.981 136.03 296.988 136.026 296.996Z" fill="#727785"/>
<path d="M123.109 296.242C123.088 295.866 122.964 295.48 122.669 295.197C123.408 295.283 123.673 295.509 123.954 295.835C124.633 296.623 124.16 297.475 123.738 297.296C123.315 297.117 123.132 296.631 123.109 296.242Z" fill="#E5E6ED"/>
<path d="M123.12 295.434C123.863 295.879 124.071 296.905 124.133 297.41L124.032 297.426C123.988 296.377 123.521 295.679 123.12 295.434C123.107 295.426 123.094 295.419 123.081 295.411C123.094 295.418 123.107 295.426 123.12 295.434Z" fill="#727785"/>
<path d="M123.802 295.765C123.916 295.935 123.856 296.177 123.818 296.291L123.795 296.285C123.893 296.055 123.863 295.858 123.802 295.765C123.8 295.762 123.798 295.759 123.796 295.756C123.798 295.759 123.8 295.761 123.802 295.765Z" fill="#727785"/>
<path d="M123.416 295.872C123.472 295.97 123.598 296.001 123.659 296.011L123.661 295.998C123.533 295.988 123.447 295.925 123.416 295.872C123.415 295.87 123.414 295.868 123.413 295.867C123.414 295.868 123.415 295.87 123.416 295.872Z" fill="#727785"/>
<path d="M124.075 296.159C124.141 296.353 124.021 296.571 123.955 296.672L123.934 296.66C124.088 296.463 124.11 296.265 124.075 296.159C124.074 296.156 124.073 296.152 124.071 296.149C124.073 296.152 124.074 296.156 124.075 296.159Z" fill="#727785"/>
<path d="M123.424 296.227C123.524 296.407 123.766 296.465 123.885 296.484L123.89 296.46C123.641 296.441 123.479 296.324 123.424 296.227C123.422 296.224 123.421 296.221 123.419 296.218C123.421 296.221 123.422 296.224 123.424 296.227Z" fill="#727785"/>
<path d="M123.386 296.616C123.524 296.877 123.849 296.967 124.009 296.998L124.015 296.964C123.682 296.929 123.462 296.757 123.386 296.616C123.384 296.612 123.381 296.607 123.379 296.603C123.381 296.607 123.383 296.612 123.386 296.616Z" fill="#727785"/>
<path d="M146.562 300.681C146.584 300.305 146.708 299.919 147.003 299.637C146.264 299.723 145.999 299.948 145.718 300.274C145.039 301.063 145.512 301.915 145.934 301.736C146.357 301.557 146.54 301.07 146.562 300.681Z" fill="#E5E6ED"/>
<path d="M146.552 299.873C145.809 300.318 145.601 301.345 145.539 301.849L145.64 301.866C145.683 300.816 146.151 300.119 146.552 299.873C146.565 299.866 146.578 299.858 146.591 299.851C146.578 299.858 146.565 299.865 146.552 299.873Z" fill="#727785"/>
<path d="M145.87 300.204C145.756 300.375 145.815 300.616 145.853 300.731L145.877 300.724C145.779 300.494 145.809 300.297 145.87 300.204C145.872 300.201 145.874 300.198 145.876 300.195C145.874 300.198 145.872 300.201 145.87 300.204Z" fill="#727785"/>
<path d="M146.256 300.311C146.2 300.409 146.074 300.44 146.013 300.45L146.011 300.437C146.139 300.428 146.225 300.364 146.256 300.311C146.257 300.31 146.258 300.308 146.259 300.306C146.258 300.308 146.257 300.31 146.256 300.311Z" fill="#727785"/>
<path d="M145.597 300.598C145.531 300.793 145.651 301.011 145.717 301.112L145.738 301.099C145.584 300.902 145.562 300.704 145.597 300.598C145.598 300.595 145.599 300.592 145.601 300.588C145.599 300.592 145.598 300.595 145.597 300.598Z" fill="#727785"/>
<path d="M146.248 300.667C146.148 300.846 145.906 300.904 145.787 300.923L145.782 300.899C146.031 300.88 146.193 300.764 146.248 300.667C146.25 300.663 146.251 300.66 146.253 300.657C146.251 300.66 146.25 300.663 146.248 300.667Z" fill="#727785"/>
<path d="M146.286 301.056C146.148 301.316 145.823 301.407 145.663 301.437L145.657 301.403C145.99 301.369 146.21 301.197 146.286 301.056C146.288 301.051 146.291 301.047 146.293 301.042C146.291 301.047 146.288 301.051 146.286 301.056Z" fill="#727785"/>
<rect x="245.59" y="147.754" width="10.2564" height="166.406" fill="#20242E"/>
<rect x="245.59" y="147.754" width="7.69231" height="166.406" fill="#334680"/>
<path d="M285.197 57.5918C288.506 57.5918 291.562 59.3536 293.216 62.2144L327.051 120.726C328.707 123.59 328.706 127.119 327.049 129.985L293.221 188.485C291.564 191.351 288.503 193.116 285.191 193.116L217.522 193.116C214.213 193.116 211.157 191.354 209.502 188.493L175.668 129.982C174.012 127.118 174.013 123.589 175.67 120.723L209.498 62.2226C211.155 59.3572 214.216 57.5918 217.528 57.5918L285.197 57.5918Z" fill="#7C3AED"/>
<path fill-rule="evenodd" clip-rule="evenodd" d="M192.499 159.087C241.947 153.725 280.435 111.903 280.435 61.1049C280.435 59.9289 280.415 58.7577 280.374 57.5917L217.528 57.5917C214.216 57.5917 211.155 59.3571 209.498 62.2225L175.67 120.723C174.013 123.588 174.012 127.118 175.668 129.982L192.499 159.087Z" fill="white" fill-opacity="0.15"/>
<path d="M280.834 65.602C283.258 65.602 285.497 66.8928 286.709 68.9888L316.978 121.333C318.191 123.431 318.19 126.018 316.977 128.117L286.714 180.452C285.5 182.551 283.257 183.844 280.83 183.844L220.293 183.844C217.869 183.844 215.63 182.554 214.418 180.458L184.15 128.113C182.936 126.015 182.937 123.429 184.151 121.33L214.414 68.9948C215.628 66.8955 217.87 65.602 220.297 65.602L280.834 65.602Z" stroke="white" stroke-width="3"/>
<path d="M238.653 126.146V121.546H236.413V115.066H231.173V121.546H225.853L233.733 102.946H228.493L220.613 121.546V126.146H231.173V130.546H236.413V126.146H238.653ZM244.072 128.626C245.432 130.226 247.512 130.986 250.312 130.986C253.112 130.986 255.152 130.186 256.512 128.586C257.872 126.986 258.552 124.626 258.552 121.466V111.706C258.552 108.666 257.872 106.386 256.512 104.826C255.152 103.306 253.112 102.506 250.312 102.506C247.592 102.506 245.552 103.306 244.152 104.866C242.752 106.426 242.072 108.706 242.072 111.706V121.466C242.072 124.666 242.712 127.026 244.072 128.626ZM252.672 125.226C252.272 126.026 251.472 126.426 250.312 126.426C249.152 126.426 248.352 126.026 247.952 125.226C247.552 124.426 247.352 123.026 247.352 121.026V112.466C247.352 110.506 247.552 109.106 247.952 108.306C248.352 107.506 249.112 107.106 250.312 107.106C251.472 107.106 252.272 107.506 252.672 108.306C253.072 109.106 253.312 110.506 253.312 112.466V121.026C253.312 123.026 253.072 124.426 252.672 125.226ZM279.981 126.146V121.546H277.741V115.066H272.501V121.546H267.181L275.061 102.946H269.821L261.941 121.546V126.146H272.501V130.546H277.741V126.146H279.981Z" fill="white"/>
<path d="M179.38 216.876H192.04L220.812 306.506H150.607L179.38 216.876Z" fill="white"/>
<path fill-rule="evenodd" clip-rule="evenodd" d="M179.38 216.876H192.04L203.659 253.073H167.76L179.38 216.876ZM164.44 263.414L160.198 276.629H211.221L206.979 263.414H164.44ZM156.878 286.971H214.541L220.812 306.505H150.607L156.878 286.971Z" fill="#7C3AED"/>
<rect x="132.769" y="306.505" width="105.882" height="8.04366" fill="#7C3AED"/>
<path fill-rule="evenodd" clip-rule="evenodd" d="M150.607 306.506L153.374 297.887H218.045L220.812 306.506L150.607 306.506Z" fill="black" fill-opacity="0.2"/>
<mask id="mask0_2969_4257" style="mask-type:alpha" maskUnits="userSpaceOnUse" x="132" y="216" width="107" height="99">
<path fill-rule="evenodd" clip-rule="evenodd" d="M179.38 216.876H192.04L203.659 253.073H167.76L179.38 216.876ZM164.44 263.414L160.198 276.629H211.221L206.979 263.414H164.44ZM156.878 286.971H214.541L220.812 306.505H150.607L156.878 286.971Z" fill="#2F63FF"/>
<rect x="132.769" y="306.505" width="105.882" height="8.04366" fill="#7C3AED"/>
<path fill-rule="evenodd" clip-rule="evenodd" d="M150.607 306.506L153.374 297.887H218.045L220.812 306.506L150.607 306.506Z" fill="black" fill-opacity="0.2"/>
</mask>
<g mask="url(#mask0_2969_4257)">
<ellipse cx="118.958" cy="195.043" rx="107.609" ry="107.44" fill="white" fill-opacity="0.2"/>
</g>
<path d="M2 315.44H502" stroke="#20242E" stroke-width="4" stroke-linecap="round" stroke-linejoin="round"/>
</svg>
