<svg width="100" height="100" viewBox="0 0 100 100" fill="none" xmlns="http://www.w3.org/2000/svg">
<path d="M100 100V45.4286L54.5714 0H5.96046e-06" fill="url(#paint0_linear_2713_7817)"/>
<path d="M50.6794 17.6613C51.1244 18.1063 51.6146 18.3778 52.1501 18.4758C52.6856 18.5739 53.2438 18.5211 53.8246 18.3175L54.2319 19.9014C53.7341 20.1126 53.2099 20.2144 52.6592 20.2068C52.1162 20.1918 51.5807 20.0635 51.0527 19.8222C50.5323 19.5884 50.0458 19.2452 49.5932 18.7926C48.8842 18.0836 48.4128 17.2577 48.179 16.3149C47.9603 15.3721 48.0055 14.4067 48.3148 13.4186C48.624 12.4306 49.1973 11.5179 50.0345 10.6807C50.8717 9.84349 51.7843 9.27026 52.7724 8.96102C53.7605 8.65178 54.7221 8.61029 55.6574 8.83657C56.6002 9.07038 57.4261 9.54179 58.1351 10.2508C58.5876 10.7033 58.9308 11.1898 59.1646 11.7102C59.406 12.2382 59.5304 12.7775 59.538 13.3281C59.5531 13.8712 59.455 14.3916 59.2438 14.8894L57.6599 14.4821C57.8636 13.9013 57.9164 13.3432 57.8183 12.8077C57.7202 12.2722 57.4487 11.7819 57.0037 11.3369C56.5135 10.8466 55.944 10.5412 55.2953 10.4205C54.6467 10.2998 53.9792 10.3715 53.2928 10.6354C52.6065 10.8994 51.9503 11.3444 51.3242 11.9705C50.6982 12.5965 50.2494 13.2565 49.9779 13.9504C49.7139 14.6367 49.6423 15.3042 49.7629 15.9529C49.8836 16.6015 50.1891 17.171 50.6794 17.6613ZM56.2585 19.3259C56.8544 18.73 57.5181 18.3303 58.2497 18.1266C58.9889 17.9305 59.7054 17.923 60.3993 18.104C61.0932 18.285 61.6966 18.632 62.2095 19.1449C62.7149 19.6502 63.058 20.2498 63.2391 20.9437C63.4201 21.6376 63.4088 22.3504 63.2051 23.082C63.009 23.8061 62.6093 24.4698 62.0059 25.0732C61.4025 25.6766 60.735 26.0802 60.0033 26.2838C59.2793 26.4799 58.5703 26.4875 57.8764 26.3064C57.1825 26.1254 56.5828 25.7822 56.0775 25.2769C55.5646 24.764 55.2139 24.1568 55.0253 23.4554C54.8443 22.7615 54.8518 22.0525 55.0479 21.3284C55.2516 20.5968 55.6551 19.9293 56.2585 19.3259ZM57.4804 20.5478C57.0656 20.9626 56.7789 21.3925 56.6205 21.8375C56.4622 22.2825 56.4244 22.7124 56.5074 23.1273C56.6055 23.5421 56.8091 23.9042 57.1184 24.2134C57.4351 24.5302 57.7972 24.7338 58.2045 24.8243C58.6193 24.9073 59.0492 24.8696 59.4942 24.7112C59.9392 24.5528 60.3692 24.2662 60.784 23.8514C61.1988 23.4365 61.4854 23.0066 61.6438 22.5616C61.8022 22.1166 61.8362 21.6904 61.7457 21.2831C61.6627 20.8683 61.4628 20.5025 61.146 20.1857C60.8368 19.8765 60.471 19.6766 60.0486 19.5861C59.6413 19.4956 59.2152 19.5295 58.7702 19.6879C58.3251 19.8463 57.8952 20.1329 57.4804 20.5478ZM72.6606 29.5959C73.2262 30.1616 73.4751 30.8253 73.4073 31.5871C73.3469 32.3414 72.9321 33.1031 72.1628 33.8725L68.5424 37.4929L67.411 36.3615L70.6467 33.1258C71.1898 32.5827 71.5179 32.0736 71.631 31.5984C71.7441 31.1232 71.6197 30.7046 71.2577 30.3426C71.0238 30.1088 70.7448 29.9579 70.4204 29.8901C70.0961 29.8222 69.7416 29.8599 69.357 30.0032C68.9874 30.1465 68.6178 30.4029 68.2482 30.7725L65.0351 33.9856L63.8924 32.8429L67.1282 29.6072C67.6712 29.0641 67.9993 28.555 68.1124 28.0799C68.2331 27.6122 68.1124 27.1974 67.7504 26.8353C67.5166 26.6015 67.2338 26.4545 66.9019 26.3941C66.5776 26.3262 66.2231 26.3639 65.8384 26.5073C65.4688 26.6506 65.103 26.9032 64.741 27.2653L61.5279 30.4784L60.3739 29.3244L66.2457 23.4526L67.2639 24.4708C66.9848 24.7649 66.7095 25.078 66.438 25.4098C66.9735 25.2665 67.4713 25.259 67.9314 25.3872C68.3991 25.5079 68.8101 25.7455 69.1646 26.1C69.5568 26.4922 69.7944 26.9409 69.8774 27.4463C69.9754 27.9516 69.8962 28.4758 69.6398 29.0189C70.2357 28.8002 70.79 28.7436 71.3029 28.8492C71.8233 28.9623 72.2759 29.2112 72.6606 29.5959ZM77.5068 32.813C77.3107 32.6169 77.2164 32.3717 77.224 32.0776C77.2315 31.7834 77.3371 31.5345 77.5407 31.3309C77.7368 31.1348 77.982 31.0329 78.2761 31.0254C78.5703 31.0179 78.8154 31.1121 79.0115 31.3082C79.2227 31.5194 79.3245 31.7721 79.317 32.0663C79.317 32.3529 79.2152 32.598 79.0115 32.8017C78.8079 33.0053 78.5552 33.1071 78.2535 33.1071C77.9594 33.1147 77.7104 33.0166 77.5068 32.813ZM77.1448 34.3516L71.2729 40.2234L70.1076 39.0581L75.9795 33.1863L77.1448 34.3516ZM81.9531 38.8884C82.5867 39.522 82.8808 40.2385 82.8356 41.038C82.7978 41.83 82.3906 42.6144 81.6137 43.3913L78.0272 46.9777L76.8619 45.8124L80.0976 42.5767C80.6407 42.0336 80.9575 41.5132 81.048 41.0154C81.1385 40.5176 80.9763 40.0613 80.5615 39.6464C80.29 39.3749 79.9694 39.1901 79.5998 39.0921C79.2378 38.9865 78.8569 38.9902 78.4572 39.1034C78.0649 39.2241 77.6841 39.4692 77.3145 39.8388L74.1014 43.0519L72.9361 41.8866L78.8079 36.0147L79.8374 37.0443C79.4603 37.4516 79.1624 37.7948 78.9436 38.0738C79.5018 37.9079 80.0373 37.9004 80.5502 38.0512C81.0706 38.1945 81.5383 38.4736 81.9531 38.8884ZM89.7357 46.9425L90.7539 47.9608L85.3347 53.38C84.1807 54.534 83.0795 55.0771 82.031 55.0092C80.9751 54.9489 80.0511 54.5227 79.2592 53.7308C78.6558 53.1274 78.2485 52.4636 78.0373 51.7396C77.8337 51.023 77.8751 50.348 78.1618 49.7144L79.6099 50.0991C79.4364 50.5742 79.4176 51.023 79.5533 51.4454C79.6816 51.8753 79.938 52.2826 80.3227 52.6673C80.6923 53.0369 81.0656 53.2745 81.4427 53.38C81.8274 53.4932 82.2498 53.4555 82.7099 53.2669C83.1775 53.0859 83.6866 52.7201 84.2372 52.1695L84.6671 51.8074C84.109 51.9432 83.581 51.9281 83.0832 51.7622C82.5854 51.6113 82.1442 51.3436 81.7595 50.9589C81.307 50.5064 81.0015 49.952 80.8431 49.2958C80.6847 48.6547 80.7111 47.9796 80.9223 47.2706C81.141 46.5541 81.5634 45.8828 82.1894 45.2568C82.8155 44.6308 83.483 44.2046 84.192 43.9784C84.9085 43.7596 85.5911 43.7332 86.2397 43.8992C86.8884 44.0651 87.439 44.3743 87.8915 44.8269C88.2762 45.2116 88.5477 45.6641 88.7061 46.1845C88.8645 46.705 88.8645 47.248 88.7061 47.8137C89.0757 47.5195 89.4189 47.2292 89.7357 46.9425ZM82.9701 50.0878C83.2567 50.3744 83.5923 50.5742 83.977 50.6874C84.3768 50.8005 84.8067 50.7854 85.2668 50.6421C85.7344 50.5064 86.202 50.2047 86.6697 49.737C87.1373 49.2694 87.4352 48.8055 87.5635 48.3454C87.6992 47.8929 87.7068 47.4705 87.5861 47.0783C87.4729 46.6936 87.2731 46.358 86.9865 46.0714C86.6697 45.7546 86.3114 45.5547 85.9116 45.4718C85.5194 45.3813 85.1046 45.419 84.6671 45.5849C84.2372 45.7584 83.8148 46.0525 83.4 46.4674C82.9701 46.8973 82.6722 47.331 82.5062 47.7684C82.3403 48.2059 82.295 48.6207 82.3705 49.013C82.4534 49.4127 82.6533 49.771 82.9701 50.0878ZM48.1792 36.363C47.8096 36.7326 47.3872 36.9588 46.9121 37.0418C46.452 37.1248 45.9768 37.0644 45.4865 36.8608C44.9963 36.6722 44.5324 36.3592 44.0949 35.9218C43.5066 35.3334 43.1257 34.6961 42.9523 34.0097C42.7863 33.3309 42.858 32.6936 43.1672 32.0977L44.5475 32.4598C44.3589 32.9048 44.3099 33.3385 44.4004 33.7608C44.4985 34.1757 44.7285 34.5641 45.0906 34.9262C45.4149 35.2505 45.7354 35.4428 46.0522 35.5032C46.3841 35.5635 46.6669 35.4768 46.9007 35.2429C47.0818 35.0619 47.1685 34.8545 47.161 34.6207C47.1685 34.3869 47.1157 34.153 47.0026 33.9192C46.897 33.6779 46.7348 33.3498 46.5161 32.9349C46.237 32.4296 46.0221 31.9959 45.8712 31.6339C45.7279 31.2794 45.6713 30.906 45.7015 30.5138C45.7392 30.1291 45.9278 29.7671 46.2672 29.4277C46.6368 29.0581 47.0554 28.8356 47.523 28.7602C47.9982 28.6923 48.4771 28.7564 48.9598 28.9525C49.4426 29.1486 49.8838 29.4465 50.2835 29.8463C50.8191 30.3818 51.1622 30.9588 51.3131 31.5773C51.4639 32.1958 51.3998 32.7652 51.1208 33.2857L49.7518 32.9123C49.8876 32.5503 49.9102 32.1882 49.8197 31.8262C49.7367 31.4717 49.5406 31.1398 49.2314 30.8306C48.9297 30.5289 48.628 30.3479 48.3263 30.2875C48.0397 30.2272 47.787 30.3064 47.5683 30.5251C47.4023 30.6911 47.3194 30.8796 47.3194 31.0908C47.3344 31.302 47.391 31.5245 47.4891 31.7583C47.5947 31.9846 47.753 32.2863 47.9642 32.6634C48.2659 33.1914 48.4884 33.6402 48.6317 34.0097C48.7901 34.3793 48.8429 34.7715 48.7901 35.1864C48.7524 35.6012 48.5488 35.9934 48.1792 36.363ZM50.1929 35.8876C50.7887 35.2918 51.4525 34.892 52.1841 34.6884C52.9232 34.4923 53.6398 34.4847 54.3337 34.6658C55.0276 34.8468 55.631 35.1937 56.1439 35.7066C56.6492 36.212 56.9924 36.8116 57.1734 37.5055C57.3544 38.1994 57.3431 38.9122 57.1395 39.6438C56.9434 40.3679 56.5436 41.0316 55.9402 41.635C55.3368 42.2384 54.6693 42.6419 53.9377 42.8456C53.2136 43.0417 52.5046 43.0492 51.8107 42.8682C51.1168 42.6872 50.5172 42.344 50.0118 41.8387C49.499 41.3258 49.1482 40.7186 48.9597 40.0171C48.7786 39.3232 48.7862 38.6142 48.9823 37.8902C49.1859 37.1585 49.5895 36.491 50.1929 35.8876ZM51.4147 37.1095C50.9999 37.5244 50.7133 37.9543 50.5549 38.3993C50.3965 38.8443 50.3588 39.2742 50.4418 39.689C50.5398 40.1039 50.7435 40.4659 51.0527 40.7752C51.3695 41.0919 51.7315 41.2956 52.1388 41.3861C52.5537 41.4691 52.9836 41.4314 53.4286 41.273C53.8736 41.1146 54.3035 40.828 54.7183 40.4131C55.1332 39.9983 55.4198 39.5684 55.5782 39.1234C55.7366 38.6784 55.7705 38.2522 55.68 37.8449C55.597 37.4301 55.3972 37.0643 55.0804 36.7475C54.7711 36.4382 54.4053 36.2384 53.983 36.1479C53.5757 36.0573 53.1495 36.0913 52.7045 36.2497C52.2595 36.4081 51.8296 36.6947 51.4147 37.1095ZM56.9104 42.6052C57.5062 42.0093 58.17 41.6095 58.9016 41.4059C59.6407 41.2098 60.3573 41.2023 61.0512 41.3833C61.7451 41.5643 62.3485 41.9112 62.8614 42.4241C63.3667 42.9295 63.7099 43.5291 63.8909 44.223C64.072 44.9169 64.0606 45.6297 63.857 46.3613C63.6609 47.0854 63.2611 47.7491 62.6577 48.3525C62.0543 48.9559 61.3868 49.3594 60.6552 49.5631C59.9311 49.7592 59.2221 49.7667 58.5282 49.5857C57.8343 49.4047 57.2347 49.0615 56.7294 48.5562C56.2165 48.0433 55.8657 47.4361 55.6772 46.7347C55.4962 46.0408 55.5037 45.3318 55.6998 44.6077C55.9035 43.8761 56.307 43.2086 56.9104 42.6052ZM58.1323 43.827C57.7174 44.2419 57.4308 44.6718 57.2724 45.1168C57.114 45.5618 57.0763 45.9917 57.1593 46.4066C57.2573 46.8214 57.461 47.1834 57.7702 47.4927C58.087 47.8095 58.449 48.0131 58.8563 48.1036C59.2712 48.1866 59.7011 48.1489 60.1461 47.9905C60.5911 47.8321 61.021 47.5455 61.4359 47.1306C61.8507 46.7158 62.1373 46.2859 62.2957 45.8409C62.4541 45.3959 62.488 44.9697 62.3975 44.5624C62.3146 44.1476 62.1147 43.7818 61.7979 43.465C61.4887 43.1558 61.1228 42.9559 60.7005 42.8654C60.2932 42.7749 59.867 42.8088 59.422 42.9672C58.977 43.1256 58.5471 43.4122 58.1323 43.827ZM70.0428 49.6055C70.6763 50.2391 70.9705 50.9556 70.9252 51.7551C70.8875 52.5471 70.4802 53.3315 69.7033 54.1084L66.1169 57.6948L64.9516 56.5295L68.1873 53.2938C68.7304 52.7507 69.0472 52.2303 69.1377 51.7325C69.2282 51.2347 69.066 50.7784 68.6512 50.3635C68.3796 50.092 68.0591 49.9072 67.6895 49.8092C67.3275 49.7036 66.9466 49.7073 66.5468 49.8205C66.1546 49.9412 65.7737 50.1863 65.4041 50.5559L62.191 53.769L61.0257 52.6036L66.8976 46.7318L67.9271 47.7614C67.55 48.1687 67.252 48.5119 67.0333 48.7909C67.5915 48.625 68.127 48.6174 68.6399 48.7683C69.1603 48.9116 69.6279 49.1907 70.0428 49.6055Z" fill="white"/>
<defs>
<linearGradient id="paint0_linear_2713_7817" x1="15" y1="13.75" x2="92" y2="15.5" gradientUnits="userSpaceOnUse">
<stop stop-color="#F4439F"/>
<stop offset="1" stop-color="#7C3AED"/>
</linearGradient>
</defs>
</svg>
