<svg width="31" height="31" viewBox="0 0 31 31" fill="none" xmlns="http://www.w3.org/2000/svg">
<path d="M19.7107 3.67778L24.9925 8.84743V27.6454H6.50569V3.67778H19.7107ZM19.8396 1.7168H6.18695C5.76428 1.7168 5.35892 1.88897 5.06004 2.19543C4.76117 2.50189 4.59326 2.91755 4.59326 3.35095V27.9722C4.59326 28.4056 4.76117 28.8213 5.06004 29.1277C5.35892 29.4342 5.76428 29.6064 6.18695 29.6064H25.3112C25.7339 29.6064 26.1393 29.4342 26.4381 29.1277C26.737 28.8213 26.9049 28.4056 26.9049 27.9722V8.70744C26.9049 8.48645 26.8612 8.26776 26.7764 8.06459C26.6916 7.86142 26.5676 7.67799 26.4117 7.5254L20.9389 2.16891C20.6427 1.87898 20.2491 1.71708 19.8396 1.7168Z" fill="#12141D"/>
<path d="M25.9487 9.75139H20.3177C20.1921 9.75139 20.0678 9.72603 19.9517 9.67675C19.8357 9.62748 19.7303 9.55526 19.6415 9.46421C19.5527 9.37316 19.4823 9.26507 19.4342 9.14612C19.3862 9.02716 19.3615 8.89966 19.3615 8.7709V2.99688C19.3615 2.73684 19.4622 2.48745 19.6415 2.30357C19.8208 2.11969 20.0641 2.01639 20.3177 2.01639C20.5713 2.01639 20.8145 2.11969 20.9938 2.30357C21.1731 2.48745 21.2739 2.73684 21.2739 2.99688V7.7904H25.9487C26.2023 7.7904 26.4455 7.89371 26.6248 8.07758C26.8042 8.26146 26.9049 8.51085 26.9049 8.7709C26.9049 9.03094 26.8042 9.28033 26.6248 9.46421C26.4455 9.64809 26.2023 9.75139 25.9487 9.75139Z" fill="#12141D"/>
<path d="M11.6091 22.7896L9.24152 12.8726H11.2912L12.7862 19.6846L14.5991 12.8726H16.9802L18.7188 19.7996L20.2408 12.8726H22.2567L19.8484 22.7896H17.7244L15.7491 15.3755L13.7806 22.7896H11.6091Z" fill="#12141D"/>
</svg>
