<svg width="31" height="31" viewBox="0 0 31 31" fill="none" xmlns="http://www.w3.org/2000/svg">
<path d="M15.7567 12.8047L11.0412 17.5202L15.7567 22.2371L19.2547 18.7391L19.2643 18.7487L21.843 16.17L23.1946 17.5202L15.7567 24.9581L8.32017 17.5202L15.7567 10.0837L20.2192 14.5448L15.7567 19.0072L14.2697 17.5216L17.371 14.4203L15.7567 12.806V12.8047Z" fill="#12141D"/>
<path d="M19.719 3.67778L25.0008 8.84743V27.6454H6.51399V3.67778H19.719ZM19.8479 1.7168H6.19525C5.77258 1.7168 5.36722 1.88897 5.06834 2.19543C4.76947 2.50189 4.60156 2.91755 4.60156 3.35095V27.9722C4.60156 28.4056 4.76947 28.8213 5.06834 29.1277C5.36722 29.4342 5.77258 29.6064 6.19525 29.6064H25.3195C25.7422 29.6064 26.1476 29.4342 26.4464 29.1277C26.7453 28.8213 26.9132 28.4056 26.9132 27.9722V8.70744C26.9132 8.48645 26.8695 8.26776 26.7847 8.06459C26.6999 7.86142 26.5759 7.67799 26.42 7.5254L20.9472 2.16891C20.651 1.87898 20.2574 1.71708 19.8479 1.7168Z" fill="#12141D"/>
<path d="M25.957 9.75139H20.326C20.2004 9.75139 20.0761 9.72603 19.96 9.67675C19.844 9.62748 19.7386 9.55526 19.6498 9.46421C19.561 9.37316 19.4906 9.26507 19.4425 9.14612C19.3945 9.02716 19.3698 8.89966 19.3698 8.7709V2.99688C19.3698 2.73684 19.4705 2.48745 19.6498 2.30357C19.8291 2.11969 20.0724 2.01639 20.326 2.01639C20.5796 2.01639 20.8228 2.11969 21.0021 2.30357C21.1814 2.48745 21.2822 2.73684 21.2822 2.99688V7.7904H25.957C26.2106 7.7904 26.4538 7.89371 26.6331 8.07758C26.8125 8.26146 26.9132 8.51085 26.9132 8.7709C26.9132 9.03094 26.8125 9.28033 26.6331 9.46421C26.4538 9.64809 26.2106 9.75139 25.957 9.75139Z" fill="#12141D"/>
</svg>
