<svg width="20" height="20" viewBox="0 0 20 20" fill="none" xmlns="http://www.w3.org/2000/svg">
<g clip-path="url(#clip0_47_977)">
<path d="M10 0C15.5229 0 20 4.47708 20 10C20 15.5229 15.5229 20 10 20C4.47708 20 0 15.5229 0 10C0 4.47708 4.47708 0 10 0ZM13.3154 10.8333H6.68458C6.86875 15.0871 8.43875 18.3333 10 18.3333C11.5608 18.3333 13.1313 15.0871 13.3154 10.8333ZM5.01625 10.8333L1.70792 10.8337C2.01375 13.9112 3.99375 16.4963 6.72458 17.665C5.7425 15.9904 5.12167 13.5567 5.01625 10.8337V10.8333ZM18.2921 10.8337H14.9838C14.8783 13.5571 14.2575 15.9904 13.2754 17.6646C16.0063 16.4967 17.9862 13.9112 18.2921 10.8337ZM6.725 2.33542L6.6325 2.37542C3.94875 3.56208 2.01 6.12375 1.70833 9.16667H5.01667C5.12208 6.44333 5.74292 4.00958 6.725 2.33542ZM10 1.66667L9.9375 1.66833C8.3975 1.75333 6.86667 4.97 6.68458 9.16667H13.3154C13.1313 4.91333 11.5612 1.66667 10 1.66667ZM13.2754 2.335L13.3367 2.44125C14.2833 4.11125 14.8804 6.5 14.9833 9.16667H18.2917C17.9862 6.08875 16.0058 3.50375 13.275 2.335H13.2754Z" fill="#333333"/>
</g>
<defs>
<clipPath id="clip0_47_977">
<rect width="20" height="20" fill="white"/>
</clipPath>
</defs>
</svg>
