<svg width="1511" height="617" viewBox="0 0 1511 617" fill="none" xmlns="http://www.w3.org/2000/svg">
<path d="M112.335 135.57L242.582 83.6611L218.051 249.887L413.128 162.4L513.587 265.635C576.082 233.751 703.291 171.265 712.169 176.398C721.047 181.53 796.469 258.247 833.07 295.964L974.414 176.398H1188.18L1404.28 405.031L1176.5 360.704L1024.06 485.52L756.558 471.522L523.516 525.764L385.093 416.696L124.017 445.859" stroke="#7C3AED" stroke-opacity="0.1" stroke-width="2.33571"/>
<g filter="url(#filter0_d_2713_7686)">
<ellipse cx="718.573" cy="173.258" rx="45.4267" ry="45.3633" fill="white"/>
</g>
<g filter="url(#filter1_d_2713_7686)">
<ellipse cx="1029.64" cy="485.895" rx="45.4267" ry="45.3633" fill="white"/>
</g>
<g filter="url(#filter2_d_2713_7686)">
<ellipse cx="523.97" cy="497.636" rx="45.4267" ry="45.3633" fill="white"/>
</g>
<g filter="url(#filter3_d_2713_7686)">
<ellipse cx="1398.57" cy="422.363" rx="45.4267" ry="45.3633" fill="white"/>
</g>
<g filter="url(#filter4_d_2713_7686)">
<ellipse cx="835.86" cy="294.665" rx="45.4267" ry="45.3633" fill="white"/>
</g>
<g filter="url(#filter5_d_2713_7686)">
<ellipse cx="1195.68" cy="170.261" rx="45.4267" ry="45.3633" fill="white"/>
</g>
<g filter="url(#filter6_d_2713_7686)">
<ellipse cx="257.466" cy="82.3633" rx="45.4267" ry="45.3633" fill="white"/>
</g>
<g filter="url(#filter7_d_2713_7686)">
<ellipse cx="1174.62" cy="363.488" rx="45.4267" ry="45.3633" fill="white"/>
</g>
<g filter="url(#filter8_d_2713_7686)">
<ellipse cx="425.464" cy="153.363" rx="45.4267" ry="45.3633" fill="white"/>
</g>
<g filter="url(#filter9_d_2713_7686)">
<ellipse cx="516.526" cy="281.132" rx="45.4267" ry="45.3633" fill="white"/>
</g>
<path d="M527.465 265.734H532.987L520.924 278.79L535.114 296.556H524.003L515.299 285.781L505.343 296.556H499.815L512.719 282.591L499.105 265.734H510.5L518.365 275.582L527.465 265.734ZM525.525 293.427H528.586L508.835 268.698H505.554L525.525 293.427Z" fill="#111111"/>
<g filter="url(#filter10_d_2713_7686)">
<ellipse cx="984.527" cy="179.363" rx="45.4267" ry="45.3633" fill="white"/>
</g>
<g filter="url(#filter11_d_2713_7686)">
<ellipse cx="217.921" cy="273.668" rx="45.4267" ry="45.3633" fill="white"/>
</g>
<path d="M237.399 264.947C237.167 264.088 236.714 263.305 236.084 262.676C235.455 262.047 234.671 261.595 233.811 261.364C230.644 260.508 217.919 260.508 217.919 260.508C217.919 260.508 205.195 260.508 202.028 261.364C201.168 261.595 200.384 262.047 199.755 262.676C199.125 263.305 198.672 264.088 198.44 264.947C197.849 268.172 197.562 271.445 197.583 274.723C197.562 278.002 197.849 281.275 198.44 284.5C198.672 285.359 199.125 286.142 199.755 286.771C200.384 287.399 201.168 287.852 202.028 288.083C205.195 288.939 217.919 288.939 217.919 288.939C217.919 288.939 230.644 288.939 233.811 288.083C234.671 287.852 235.455 287.399 236.084 286.771C236.714 286.142 237.167 285.359 237.399 284.5C237.99 281.275 238.277 278.002 238.256 274.723C238.277 271.445 237.99 268.172 237.399 264.947ZM213.852 280.816V268.631L224.413 274.723L213.852 280.816Z" fill="#E70000"/>
<g filter="url(#filter12_d_2713_7686)">
<ellipse cx="358.096" cy="432.313" rx="45.4267" ry="45.3633" fill="white"/>
</g>
<g filter="url(#filter13_d_2713_7686)">
<ellipse cx="89.4267" cy="461.363" rx="45.4267" ry="45.3633" fill="white"/>
</g>
<g filter="url(#filter14_d_2713_7686)">
<ellipse cx="764.427" cy="477.363" rx="45.4267" ry="45.3633" fill="white"/>
</g>
<g filter="url(#filter15_d_2713_7686)">
<ellipse cx="89.4267" cy="153.363" rx="45.4267" ry="45.3633" fill="white"/>
</g>
<path d="M831.684 283.141C829.649 283.286 827.925 284.995 827.925 287.405V298.872C827.925 299.287 827.617 299.644 827.168 299.644H823.581C815.817 299.653 816.507 289.745 823.116 289.732H827.081V286.852H822.972C820.339 286.852 818.388 287.833 817.07 289.296C815.753 290.759 815.091 292.73 815.088 294.694C815.085 296.659 815.737 298.617 817.086 300.08C818.434 301.54 820.472 302.524 823.264 302.524H830.028C830.474 302.524 830.843 302.14 830.843 301.694V287.709C830.84 286.99 831.247 286.431 831.776 286.268C832.306 286.105 832.928 286.311 833.291 286.837L833.306 286.852C835.23 289.994 842.868 302.229 842.88 302.251C843.09 302.549 843.339 302.601 843.521 302.543C843.702 302.481 843.887 302.285 843.884 301.799V287.71C843.881 286.99 844.287 286.431 844.817 286.268C845.346 286.105 845.953 286.311 846.319 286.837V286.852H846.347C848.271 289.994 855.908 302.229 855.921 302.251C856.127 302.546 856.37 302.604 856.561 302.543C856.752 302.481 856.943 302.297 856.94 301.814V283.215H854.04V294.07C854.04 294.07 852.31 291.119 849.348 286.037C846.445 281.06 840.969 283.12 840.969 287.405V294.07C840.969 294.07 839.269 291.119 836.304 286.037C835.036 283.861 833.266 283.027 831.684 283.141V283.141ZM823.48 283.215C807.339 283.215 807.496 306.182 823.698 306.195H830.037C832.761 306.195 834.501 304.584 834.498 301.611V295.788C834.498 295.788 838.056 301.663 839.454 303.966C841.824 307.879 847.557 307.108 847.541 302.22V295.789C847.541 295.789 851.088 301.663 852.482 303.966C854.853 307.879 860.6 307.108 860.585 302.22V283.212H857.685V301.811C857.688 302.524 857.313 303.053 856.795 303.222C856.278 303.391 855.684 303.179 855.324 302.669H855.308V302.641C855.308 302.641 847.668 290.44 845.719 287.258C845.713 287.252 845.709 287.264 845.703 287.258C845.7 287.258 845.706 287.242 845.703 287.242C845.503 286.975 845.245 286.916 845.032 286.981C844.814 287.049 844.607 287.236 844.61 287.71V301.795C844.614 302.506 844.247 303.065 843.736 303.238C843.225 303.41 842.637 303.182 842.28 302.669V302.653H842.265C842.265 302.653 834.618 290.427 832.675 287.255C832.472 286.966 832.21 286.895 831.992 286.962C831.773 287.03 831.567 287.218 831.57 287.691V301.691C831.57 302.539 830.871 303.25 830.025 303.25H823.261C820.293 303.25 818.043 302.183 816.556 300.572C815.069 298.961 814.336 296.825 814.339 294.691C814.343 292.561 815.075 290.409 816.525 288.798C817.975 287.187 820.152 286.123 822.966 286.12H827.075V283.209H823.477L823.48 283.215Z" fill="#CC0000"/>
<g clip-path="url(#clip0_2713_7686)">
<path d="M1195.77 363.62C1195.77 352.023 1186.36 342.623 1174.75 342.623C1163.13 342.623 1153.72 352.023 1153.72 363.62C1153.72 374.097 1161.41 382.783 1171.46 384.358V369.688H1166.12V363.618H1171.46V358.994C1171.46 353.73 1174.6 350.824 1179.4 350.824C1181.7 350.824 1184.11 351.234 1184.11 351.234V356.401H1181.46C1178.85 356.401 1178.03 358.019 1178.03 359.68V363.62H1183.86L1182.93 369.69H1178.03V384.36C1188.08 382.785 1195.77 374.099 1195.77 363.62H1195.77Z" fill="#3A6BED"/>
</g>
<g clip-path="url(#clip1_2713_7686)">
<path fill-rule="evenodd" clip-rule="evenodd" d="M1195.28 151.866C1185.32 151.866 1177.26 159.969 1177.26 169.994C1177.26 178.007 1182.42 184.79 1189.58 187.191C1190.48 187.371 1190.81 186.801 1190.81 186.321C1190.81 185.901 1190.78 184.46 1190.78 182.959C1185.76 184.04 1184.72 180.798 1184.72 180.798C1183.92 178.697 1182.72 178.157 1182.72 178.157C1181.08 177.047 1182.84 177.047 1182.84 177.047C1184.66 177.167 1185.62 178.908 1185.62 178.908C1187.23 181.669 1189.82 180.888 1190.87 180.408C1191.02 179.238 1191.49 178.427 1192 177.977C1188 177.557 1183.8 175.996 1183.8 169.033C1183.8 167.052 1184.51 165.432 1185.65 164.171C1185.47 163.721 1184.84 161.86 1185.82 159.369C1185.82 159.369 1187.35 158.889 1190.78 161.23C1192.25 160.833 1193.76 160.631 1195.28 160.63C1196.8 160.63 1198.35 160.84 1199.79 161.23C1203.22 158.889 1204.74 159.369 1204.74 159.369C1205.72 161.86 1205.1 163.721 1204.92 164.171C1206.08 165.432 1206.77 167.052 1206.77 169.033C1206.77 175.996 1202.56 177.527 1198.53 177.977C1199.19 178.547 1199.76 179.628 1199.76 181.338C1199.76 183.769 1199.73 185.72 1199.73 186.32C1199.73 186.801 1200.06 187.371 1200.95 187.191C1208.11 184.79 1213.27 178.007 1213.27 169.994C1213.3 159.969 1205.22 151.866 1195.28 151.866Z" fill="#24292F"/>
</g>
<g clip-path="url(#clip2_2713_7686)">
<path d="M730.635 161.088C728.34 160.037 725.879 159.262 723.306 158.818C723.259 158.81 723.212 158.831 723.188 158.874C722.871 159.436 722.521 160.169 722.275 160.746C719.507 160.332 716.754 160.332 714.043 160.746C713.797 160.157 713.434 159.436 713.116 158.874C713.092 158.833 713.045 158.811 712.998 158.818C710.427 159.261 707.965 160.035 705.669 161.088C705.649 161.097 705.632 161.111 705.621 161.13C700.953 168.094 699.674 174.887 700.301 181.596C700.304 181.629 700.322 181.661 700.348 181.681C703.428 183.939 706.411 185.311 709.339 186.219C709.386 186.234 709.436 186.217 709.466 186.178C710.158 185.233 710.776 184.238 711.305 183.19C711.336 183.129 711.307 183.056 711.243 183.032C710.263 182.661 709.331 182.209 708.434 181.695C708.363 181.654 708.357 181.552 708.422 181.504C708.611 181.362 708.8 181.215 708.98 181.067C709.013 181.04 709.058 181.034 709.097 181.051C714.99 183.738 721.37 183.738 727.193 181.051C727.231 181.033 727.277 181.039 727.311 181.066C727.491 181.214 727.68 181.362 727.87 181.504C727.935 181.552 727.931 181.654 727.86 181.695C726.963 182.219 726.031 182.661 725.05 183.03C724.986 183.055 724.958 183.129 724.989 183.19C725.53 184.236 726.147 185.232 726.827 186.177C726.855 186.217 726.906 186.234 726.953 186.219C729.895 185.311 732.879 183.939 735.959 181.681C735.986 181.661 736.003 181.631 736.006 181.598C736.756 173.842 734.748 167.104 730.682 161.131C730.672 161.111 730.655 161.097 730.635 161.088ZM712.185 177.511C710.411 177.511 708.949 175.885 708.949 173.887C708.949 171.89 710.383 170.263 712.185 170.263C714.002 170.263 715.45 171.904 715.421 173.887C715.421 175.885 713.988 177.511 712.185 177.511ZM724.15 177.511C722.376 177.511 720.914 175.885 720.914 173.887C720.914 171.89 722.347 170.263 724.15 170.263C725.967 170.263 727.414 171.904 727.386 173.887C727.386 175.885 725.967 177.511 724.15 177.511Z" fill="#5865F2"/>
</g>
<g clip-path="url(#clip3_2713_7686)">
<path d="M1024.23 503.458C1027.54 503.458 1030.23 500.773 1030.23 497.465V491.472H1024.23C1020.91 491.472 1018.23 494.157 1018.23 497.465C1018.23 500.773 1020.91 503.458 1024.23 503.458Z" fill="#0ACF83"/>
<path d="M1018.23 485.479C1018.23 482.171 1020.91 479.486 1024.23 479.486H1030.23V491.472H1024.23C1020.91 491.472 1018.23 488.788 1018.23 485.479Z" fill="#A259FF"/>
<path d="M1018.23 473.493C1018.23 470.185 1020.91 467.5 1024.23 467.5H1030.23V479.486H1024.23C1020.91 479.486 1018.23 476.801 1018.23 473.493Z" fill="#F24E1E"/>
<path d="M1030.23 467.5H1036.23C1039.54 467.5 1042.23 470.185 1042.23 473.493C1042.23 476.801 1039.54 479.486 1036.23 479.486H1030.23V467.5Z" fill="#FF7262"/>
<path d="M1042.23 485.479C1042.23 488.788 1039.54 491.472 1036.23 491.472C1032.92 491.472 1030.23 488.788 1030.23 485.479C1030.23 482.171 1032.92 479.486 1036.23 479.486C1039.54 479.486 1042.23 482.171 1042.23 485.479Z" fill="#1ABCFE"/>
</g>
<g clip-path="url(#clip4_2713_7686)">
<path d="M272.741 91.991C272.196 93.2473 271.552 94.4037 270.805 95.4669C269.787 96.9163 268.953 97.9195 268.311 98.4766C267.315 99.3911 266.248 99.8594 265.106 99.8861C264.286 99.8861 263.297 99.653 262.145 99.1802C260.99 98.7097 259.929 98.4766 258.958 98.4766C257.94 98.4766 256.848 98.7097 255.68 99.1802C254.511 99.653 253.569 99.8994 252.848 99.9238C251.753 99.9704 250.661 99.4888 249.571 98.4766C248.875 97.8707 248.005 96.8319 246.962 95.3604C245.844 93.7889 244.924 91.9666 244.204 89.8891C243.433 87.6451 243.046 85.4722 243.046 83.3685C243.046 80.9587 243.567 78.8803 244.612 77.1386C245.433 75.7396 246.525 74.636 247.891 73.8259C249.258 73.0157 250.735 72.6029 252.325 72.5765C253.195 72.5765 254.336 72.8453 255.754 73.3735C257.169 73.9036 258.076 74.1723 258.475 74.1723C258.772 74.1723 259.781 73.858 261.491 73.2315C263.108 72.6504 264.472 72.4098 265.59 72.5046C268.62 72.7487 270.896 73.9413 272.41 76.0898C269.7 77.7292 268.36 80.0253 268.387 82.9709C268.411 85.2653 269.244 87.1746 270.883 88.6905C271.625 89.3941 272.454 89.9379 273.376 90.3242C273.176 90.9035 272.965 91.4584 272.741 91.991ZM265.793 64.6881C265.793 66.4864 265.135 68.1655 263.823 69.7197C262.241 71.5672 260.327 72.6348 258.251 72.4664C258.224 72.2506 258.209 72.0236 258.209 71.785C258.209 70.0586 258.962 68.211 260.298 66.7004C260.965 65.9355 261.814 65.2995 262.843 64.7922C263.87 64.2925 264.841 64.0161 265.755 63.9688C265.782 64.2092 265.793 64.4496 265.793 64.6881V64.6881Z" fill="black"/>
</g>
<g clip-path="url(#clip5_2713_7686)">
<path d="M358.073 417.797C362.883 417.797 363.453 417.818 365.345 417.903C367.103 417.98 368.052 418.275 368.685 418.521C369.522 418.844 370.127 419.237 370.753 419.862C371.386 420.494 371.773 421.091 372.096 421.927C372.342 422.559 372.638 423.514 372.715 425.263C372.799 427.159 372.82 427.728 372.82 432.525C372.82 437.328 372.799 437.897 372.715 439.786C372.638 441.542 372.342 442.49 372.096 443.122C371.773 443.958 371.379 444.562 370.753 445.187C370.12 445.819 369.522 446.206 368.685 446.529C368.052 446.774 367.096 447.069 365.345 447.147C363.446 447.231 362.876 447.252 358.073 447.252C353.262 447.252 352.692 447.231 350.801 447.147C349.042 447.069 348.093 446.774 347.46 446.529C346.623 446.206 346.018 445.812 345.392 445.187C344.759 444.555 344.372 443.958 344.049 443.122C343.803 442.49 343.507 441.535 343.43 439.786C343.346 437.89 343.325 437.321 343.325 432.525C343.325 427.721 343.346 427.152 343.43 425.263C343.507 423.507 343.803 422.559 344.049 421.927C344.372 421.091 344.766 420.487 345.392 419.862C346.025 419.23 346.623 418.844 347.46 418.521C348.093 418.275 349.049 417.98 350.801 417.903C352.692 417.818 353.262 417.797 358.073 417.797ZM358.073 414.56C353.185 414.56 352.573 414.581 350.653 414.665C348.74 414.749 347.425 415.058 346.285 415.501C345.097 415.964 344.091 416.575 343.092 417.579C342.087 418.577 341.475 419.581 341.011 420.761C340.568 421.906 340.258 423.212 340.174 425.122C340.089 427.047 340.068 427.658 340.068 432.539C340.068 437.42 340.089 438.031 340.174 439.948C340.258 441.858 340.568 443.172 341.011 444.309C341.475 445.496 342.087 446.5 343.092 447.498C344.091 448.495 345.097 449.113 346.278 449.57C347.425 450.012 348.733 450.321 350.646 450.405C352.566 450.49 353.178 450.511 358.066 450.511C362.953 450.511 363.565 450.49 365.485 450.405C367.398 450.321 368.713 450.012 369.853 449.57C371.034 449.113 372.04 448.495 373.039 447.498C374.037 446.5 374.656 445.496 375.113 444.316C375.556 443.172 375.866 441.865 375.95 439.955C376.035 438.038 376.056 437.427 376.056 432.546C376.056 427.665 376.035 427.054 375.95 425.136C375.866 423.226 375.556 421.913 375.113 420.775C374.67 419.581 374.058 418.577 373.053 417.579C372.054 416.582 371.048 415.964 369.867 415.508C368.72 415.065 367.412 414.756 365.499 414.672C363.572 414.581 362.96 414.56 358.073 414.56Z" fill="#000100"/>
<path d="M358.072 423.304C352.967 423.304 348.824 427.44 348.824 432.539C348.824 437.638 352.967 441.774 358.072 441.774C363.178 441.774 367.321 437.638 367.321 432.539C367.321 427.44 363.178 423.304 358.072 423.304ZM358.072 438.53C354.76 438.53 352.073 435.847 352.073 432.539C352.073 429.231 354.76 426.548 358.072 426.548C361.385 426.548 364.072 429.231 364.072 432.539C364.072 435.847 361.385 438.53 358.072 438.53Z" fill="#000100"/>
<path d="M369.846 422.938C369.846 424.132 368.875 425.094 367.686 425.094C366.491 425.094 365.527 424.125 365.527 422.938C365.527 421.744 366.498 420.782 367.686 420.782C368.875 420.782 369.846 421.751 369.846 422.938Z" fill="#000100"/>
</g>
<path d="M428.856 146.688C425.949 147.031 422.177 147.25 419.445 148.5C416.298 149.937 414.101 152.844 414.101 157.094C414.101 162.562 417.367 165.312 421.583 165.312C425.146 165.312 427.074 164.437 429.837 161.5C430.759 162.875 431.056 163.563 432.719 165C433.103 165.219 433.578 165.187 433.906 164.875C434.916 163.937 436.725 162.281 437.735 161.375C438.151 161.031 438.063 160.469 437.766 159.969C436.844 158.625 435.866 157.563 435.866 155.094V146.937C435.866 143.469 436.104 140.281 433.669 137.875C431.737 135.937 428.559 135.25 426.124 135.25C421.374 135.25 416.061 137.125 414.932 143.312C414.814 143.969 415.257 144.312 415.673 144.406L420.514 144.969C420.958 144.938 421.286 144.469 421.374 144C421.789 141.875 423.483 140.844 425.384 140.844C426.421 140.844 427.581 141.25 428.203 142.219C428.915 143.312 428.796 144.781 428.796 146.031V146.688H428.859H428.856ZM427.906 157.656C427.106 159.125 425.859 160.062 424.433 160.062C422.502 160.062 421.402 158.531 421.402 156.25C421.402 151.781 425.234 150.938 428.856 150.938V152.062C428.856 154.094 428.887 155.812 427.906 157.656Z" fill="black"/>
<path d="M439.369 167.375C435.15 169.25 430.581 170.156 426.421 170.156C420.245 170.156 414.279 168.375 409.438 165.406C409.022 165.156 408.697 165.593 409.054 165.937C413.535 170.187 419.445 172.75 426.005 172.75C430.7 172.75 436.132 171.187 439.904 168.281C440.529 167.812 440.023 167.062 439.369 167.375Z" fill="#F59700"/>
<path d="M443.079 165.125C442.663 164.593 439.16 164.125 436.994 165.718C436.666 165.968 436.725 166.312 437.082 166.25C438.3 166.093 440.972 165.75 441.475 166.406C441.95 167.062 440.944 169.718 440.497 170.906C440.347 171.281 440.644 171.406 440.972 171.125C442.96 169.375 443.494 165.656 443.079 165.125Z" fill="#F59700"/>
<path d="M512.67 480.235C513.37 479.835 514.262 479.778 515.005 480.105C515.56 480.333 515.98 480.78 516.43 481.16C518.293 482.768 520.14 484.398 522.011 485.995H525.939C527.809 484.395 529.654 482.77 531.517 481.163C531.969 480.783 532.389 480.338 532.947 480.105C533.667 479.788 534.532 479.83 535.222 480.205C536.032 480.623 536.595 481.488 536.63 482.4C536.68 483.063 536.442 483.733 536.027 484.245C535.66 484.653 535.22 484.988 534.812 485.353C534.552 485.568 534.317 485.818 534.03 485.998C535.185 485.998 536.337 485.985 537.492 486.005C539.013 486.045 540.493 486.718 541.54 487.82C542.645 488.905 543.276 490.435 543.273 491.98C543.278 497.275 543.273 502.573 543.276 507.868C543.271 508.668 543.316 509.48 543.138 510.268C542.813 511.878 541.73 513.275 540.355 514.143C539.404 514.723 538.309 515.024 537.195 515.01H511.907C511.077 515.005 510.234 515.053 509.417 514.87C507.849 514.555 506.486 513.52 505.616 512.203C504.989 511.228 504.662 510.091 504.676 508.933V493.233C504.681 492.425 504.631 491.613 504.796 490.82C505.296 488.235 507.674 486.128 510.314 486.013C511.517 485.975 512.722 486.003 513.925 485.998C513.357 485.588 512.86 485.093 512.325 484.643C511.991 484.375 511.726 484.032 511.552 483.642C511.378 483.253 511.299 482.827 511.322 482.4C511.357 481.51 511.892 480.663 512.672 480.235M512.035 491.065C511.009 491.248 510.134 492.058 509.849 493.055C509.76 493.401 509.722 493.758 509.734 494.115C509.739 498.463 509.732 502.81 509.737 507.16C509.717 508.343 510.534 509.463 511.647 509.84C512.045 509.985 512.472 509.988 512.887 509.99C520.368 509.985 527.851 509.993 535.332 509.988C536.43 510.03 537.485 509.348 537.947 508.363C538.23 507.798 538.225 507.155 538.215 506.538V494.388C538.215 493.943 538.23 493.485 538.102 493.055C537.973 492.621 537.742 492.223 537.429 491.895C537.116 491.567 536.73 491.318 536.302 491.168C535.825 490.993 535.305 491.02 534.805 491.018H513.335C512.902 491.018 512.465 491.003 512.035 491.065Z" fill="#1296DB"/>
<path d="M516.568 495.243C517.283 495.17 518.025 495.403 518.571 495.868C519.178 496.368 519.526 497.143 519.536 497.925C519.553 498.873 519.541 499.823 519.541 500.77C519.541 501.395 519.376 502.03 518.988 502.525C518.715 502.888 518.355 503.176 517.941 503.362C517.527 503.548 517.073 503.625 516.62 503.588C516.175 503.555 515.746 503.411 515.37 503.17C514.995 502.929 514.685 502.599 514.47 502.208C514.138 501.638 514.11 500.963 514.12 500.323C514.14 499.403 514.07 498.478 514.163 497.56C514.245 496.96 514.528 496.406 514.964 495.985C515.4 495.565 515.965 495.303 516.568 495.243ZM530.849 495.243C531.217 495.206 531.588 495.245 531.939 495.357C532.291 495.47 532.615 495.653 532.893 495.895C533.171 496.138 533.397 496.435 533.555 496.769C533.713 497.102 533.802 497.464 533.815 497.833C533.855 498.723 533.82 499.613 533.835 500.503C533.84 501.128 533.765 501.778 533.42 502.315C532.92 503.148 531.94 503.66 530.969 503.59C530.545 503.569 530.132 503.447 529.764 503.235C529.396 503.023 529.083 502.727 528.852 502.37C528.464 501.795 528.389 501.088 528.407 500.413C528.424 499.498 528.374 498.583 528.437 497.67C528.527 496.42 529.604 495.35 530.849 495.245V495.243Z" fill="#1296DB"/>
<path d="M974.191 161.007L981.316 181.195V181.185L981.879 182.775C985.011 191.636 986.694 196.386 986.703 196.396C986.709 196.396 987.184 196.426 987.756 196.456C989.49 196.531 991.641 196.726 993.27 196.92C993.645 196.965 993.969 196.98 993.99 196.965L986.925 176.927L986.271 175.083L982.636 164.809C981.947 162.859 981.362 161.197 981.331 161.134L981.285 161L974.191 161.007ZM986.953 161.019L986.939 168.978L986.926 176.936L986.27 175.088V175.085L985.423 192.799C986.256 195.149 986.701 196.403 986.706 196.408C986.711 196.414 987.186 196.444 987.759 196.471C989.495 196.547 991.643 196.741 993.279 196.936C993.654 196.981 993.98 196.996 993.999 196.981C994.018 196.966 994.03 188.851 994.025 178.968L994.013 161.016L986.953 161.019ZM974.191 161.004V178.988C974.191 188.878 974.201 196.979 974.213 196.991C974.226 197.004 974.838 196.946 975.574 196.862C976.308 196.772 977.329 196.667 977.838 196.622C978.961 196.526 980.085 196.451 981.21 196.397C981.288 196.397 981.294 195.992 981.304 188.778L981.317 181.159L981.887 182.749L982.082 183.312L982.937 165.614L982.652 164.795L981.333 161.136L981.288 161.006L974.191 161.004Z" fill="#E50914"/>
<g clip-path="url(#clip6_2713_7686)">
<path d="M88.9994 439H89.0104C101.143 439 111.007 448.869 111.007 461C111.007 473.131 101.141 483 89.0104 483C84.5366 483 80.3855 481.667 76.9091 479.366L68.451 482.069L71.1921 473.894C68.4629 470.149 66.9956 465.634 67.0025 461C67.0025 448.869 76.8687 439 88.9994 439ZM82.7049 451.093C82.285 450.09 81.966 450.051 81.3297 450.026C81.088 450.01 80.8459 450.001 80.6037 450C79.7749 450 78.9095 450.242 78.3851 450.776C77.7525 451.423 76.1702 452.933 76.1702 456.037C76.1702 459.137 78.4382 462.137 78.7426 462.556C79.0616 462.975 83.1651 469.432 89.533 472.062C94.5147 474.121 95.9925 473.931 97.1275 473.688C98.7832 473.333 100.859 472.112 101.381 470.64C101.904 469.164 101.904 467.906 101.752 467.638C101.598 467.373 101.178 467.22 100.542 466.902C99.9035 466.584 96.8085 465.059 96.2217 464.856C95.6478 464.641 95.1014 464.716 94.6687 465.327C94.0563 466.177 93.4586 467.043 92.9727 467.563C92.5913 467.97 91.9661 468.022 91.4454 467.805C90.745 467.512 88.7831 466.826 86.361 464.678C84.4889 463.013 83.2146 460.941 82.8461 460.32C82.4757 459.684 82.8076 459.315 83.1009 458.972C83.4181 458.578 83.7243 458.299 84.0434 457.931C84.3624 457.562 84.5384 457.372 84.7438 456.939C84.9601 456.519 84.808 456.087 84.6539 455.77C84.5018 455.452 83.2274 452.35 82.7049 451.094V451.093Z" fill="#25D366"/>
</g>
<g clip-path="url(#clip7_2713_7686)">
<path d="M102.339 134H75.6712C72.0033 134 69.0029 137.001 69.0029 140.668V167.333C69.0029 171.003 72.0033 174 75.6712 174H102.339C106.007 174 109.007 171.003 109.007 167.333V140.668C109.007 137 106.007 134 102.339 134ZM100.759 151.114C99.4326 158.586 92.0193 164.915 89.7903 166.36C87.5613 167.805 85.526 165.781 84.7884 164.251C83.9446 162.505 81.4131 153.042 80.7505 152.259C80.0879 151.476 78.0989 153.042 78.0989 153.042L77.1338 151.778C77.1338 151.778 81.173 146.955 84.2459 146.352C87.5038 145.714 87.5 151.355 88.2826 154.487C89.0402 157.517 89.5502 159.251 90.2116 159.251C90.8741 159.251 92.1405 157.561 93.5269 154.971C94.9158 152.379 93.4669 150.087 90.7541 151.717C91.8392 145.207 102.085 143.642 100.76 151.114H100.759Z" fill="#42AAFF"/>
</g>
<path d="M1393.7 421.333L1394.85 422.001L1408.95 430.196L1393.73 439.048C1390.36 441.008 1386.04 439.846 1384.1 436.449C1382.15 433.053 1383.3 428.71 1386.68 426.75L1393.68 422.68C1393.91 422.543 1394.07 422.29 1394.07 422.001C1394.07 421.719 1393.92 421.472 1393.7 421.333Z" fill="url(#paint0_linear_2713_7686)"/>
<path d="M1408.95 413.802L1393.73 404.952C1390.35 402.992 1386.04 404.155 1384.1 407.551C1382.15 410.948 1383.3 415.29 1386.68 417.25L1394.85 422.001L1408.95 430.198C1415.22 426.555 1415.22 417.445 1408.95 413.802Z" fill="url(#paint1_linear_2713_7686)"/>
<path d="M755.586 481.635C755.586 483.717 754 485.406 752.043 485.406C750.087 485.406 748.5 483.717 748.5 481.635C748.5 479.553 750.087 477.864 752.043 477.864H755.586V481.635ZM757.358 481.635C757.358 479.55 758.944 477.862 760.902 477.862C762.858 477.862 764.445 479.551 764.445 481.633V491.065C764.445 493.149 762.858 494.838 760.902 494.838C758.944 494.838 757.358 493.149 757.358 491.065V481.633V481.635Z" fill="#E01E5A"/>
<path d="M760.901 466.545C758.944 466.545 757.358 464.856 757.358 462.772C757.358 460.689 758.944 459 760.901 459C762.858 459 764.445 460.689 764.445 462.772V466.545H760.901ZM760.901 468.431C762.858 468.431 764.445 470.121 764.445 472.203C764.445 474.288 762.858 475.976 760.901 475.976H752.043C750.087 475.976 748.5 474.286 748.5 472.203C748.5 470.121 750.087 468.431 752.043 468.431H760.901Z" fill="#36C5F0"/>
<path d="M775.074 472.203C775.074 470.121 776.659 468.431 778.617 468.431C780.573 468.431 782.16 470.121 782.16 472.203C782.16 474.288 780.573 475.976 778.617 475.976H775.074V472.203ZM773.302 472.203C773.302 474.288 771.715 475.976 769.758 475.976C767.802 475.976 766.215 474.286 766.215 472.203V462.772C766.215 460.689 767.802 459 769.758 459C771.715 459 773.302 460.689 773.302 462.772V472.203Z" fill="#2EB67D"/>
<path d="M769.759 487.293C771.715 487.293 773.302 488.982 773.302 491.066C773.302 493.149 771.715 494.838 769.759 494.838C767.802 494.838 766.215 493.149 766.215 491.066V487.293H769.759ZM769.759 485.406C767.802 485.406 766.215 483.717 766.215 481.634C766.215 479.552 767.802 477.861 769.759 477.861H778.615C780.573 477.861 782.158 479.552 782.158 481.634C782.158 483.719 780.573 485.406 778.615 485.406H769.759Z" fill="#ECB22E"/>
<defs>
<filter id="filter0_d_2713_7686" x="629.935" y="91.691" width="200.632" height="200.505" filterUnits="userSpaceOnUse" color-interpolation-filters="sRGB">
<feFlood flood-opacity="0" result="BackgroundImageFix"/>
<feColorMatrix in="SourceAlpha" type="matrix" values="0 0 0 0 0 0 0 0 0 0 0 0 0 0 0 0 0 0 127 0" result="hardAlpha"/>
<feOffset dx="11.6786" dy="18.6857"/>
<feGaussianBlur stdDeviation="27.4446"/>
<feComposite in2="hardAlpha" operator="out"/>
<feColorMatrix type="matrix" values="0 0 0 0 0.722882 0 0 0 0 0.750382 0 0 0 0 0.795833 0 0 0 0.47 0"/>
<feBlend mode="normal" in2="BackgroundImageFix" result="effect1_dropShadow_2713_7686"/>
<feBlend mode="normal" in="SourceGraphic" in2="effect1_dropShadow_2713_7686" result="shape"/>
</filter>
<filter id="filter1_d_2713_7686" x="941.008" y="404.328" width="200.632" height="200.505" filterUnits="userSpaceOnUse" color-interpolation-filters="sRGB">
<feFlood flood-opacity="0" result="BackgroundImageFix"/>
<feColorMatrix in="SourceAlpha" type="matrix" values="0 0 0 0 0 0 0 0 0 0 0 0 0 0 0 0 0 0 127 0" result="hardAlpha"/>
<feOffset dx="11.6786" dy="18.6857"/>
<feGaussianBlur stdDeviation="27.4446"/>
<feComposite in2="hardAlpha" operator="out"/>
<feColorMatrix type="matrix" values="0 0 0 0 0.722882 0 0 0 0 0.750382 0 0 0 0 0.795833 0 0 0 0.47 0"/>
<feBlend mode="normal" in2="BackgroundImageFix" result="effect1_dropShadow_2713_7686"/>
<feBlend mode="normal" in="SourceGraphic" in2="effect1_dropShadow_2713_7686" result="shape"/>
</filter>
<filter id="filter2_d_2713_7686" x="435.333" y="416.069" width="200.632" height="200.505" filterUnits="userSpaceOnUse" color-interpolation-filters="sRGB">
<feFlood flood-opacity="0" result="BackgroundImageFix"/>
<feColorMatrix in="SourceAlpha" type="matrix" values="0 0 0 0 0 0 0 0 0 0 0 0 0 0 0 0 0 0 127 0" result="hardAlpha"/>
<feOffset dx="11.6786" dy="18.6857"/>
<feGaussianBlur stdDeviation="27.4446"/>
<feComposite in2="hardAlpha" operator="out"/>
<feColorMatrix type="matrix" values="0 0 0 0 0.722882 0 0 0 0 0.750382 0 0 0 0 0.795833 0 0 0 0.47 0"/>
<feBlend mode="normal" in2="BackgroundImageFix" result="effect1_dropShadow_2713_7686"/>
<feBlend mode="normal" in="SourceGraphic" in2="effect1_dropShadow_2713_7686" result="shape"/>
</filter>
<filter id="filter3_d_2713_7686" x="1309.94" y="340.796" width="200.632" height="200.505" filterUnits="userSpaceOnUse" color-interpolation-filters="sRGB">
<feFlood flood-opacity="0" result="BackgroundImageFix"/>
<feColorMatrix in="SourceAlpha" type="matrix" values="0 0 0 0 0 0 0 0 0 0 0 0 0 0 0 0 0 0 127 0" result="hardAlpha"/>
<feOffset dx="11.6786" dy="18.6857"/>
<feGaussianBlur stdDeviation="27.4446"/>
<feComposite in2="hardAlpha" operator="out"/>
<feColorMatrix type="matrix" values="0 0 0 0 0.722882 0 0 0 0 0.750382 0 0 0 0 0.795833 0 0 0 0.47 0"/>
<feBlend mode="normal" in2="BackgroundImageFix" result="effect1_dropShadow_2713_7686"/>
<feBlend mode="normal" in="SourceGraphic" in2="effect1_dropShadow_2713_7686" result="shape"/>
</filter>
<filter id="filter4_d_2713_7686" x="747.223" y="213.098" width="200.632" height="200.505" filterUnits="userSpaceOnUse" color-interpolation-filters="sRGB">
<feFlood flood-opacity="0" result="BackgroundImageFix"/>
<feColorMatrix in="SourceAlpha" type="matrix" values="0 0 0 0 0 0 0 0 0 0 0 0 0 0 0 0 0 0 127 0" result="hardAlpha"/>
<feOffset dx="11.6786" dy="18.6857"/>
<feGaussianBlur stdDeviation="27.4446"/>
<feComposite in2="hardAlpha" operator="out"/>
<feColorMatrix type="matrix" values="0 0 0 0 0.722882 0 0 0 0 0.750382 0 0 0 0 0.795833 0 0 0 0.47 0"/>
<feBlend mode="normal" in2="BackgroundImageFix" result="effect1_dropShadow_2713_7686"/>
<feBlend mode="normal" in="SourceGraphic" in2="effect1_dropShadow_2713_7686" result="shape"/>
</filter>
<filter id="filter5_d_2713_7686" x="1107.05" y="88.6939" width="200.632" height="200.505" filterUnits="userSpaceOnUse" color-interpolation-filters="sRGB">
<feFlood flood-opacity="0" result="BackgroundImageFix"/>
<feColorMatrix in="SourceAlpha" type="matrix" values="0 0 0 0 0 0 0 0 0 0 0 0 0 0 0 0 0 0 127 0" result="hardAlpha"/>
<feOffset dx="11.6786" dy="18.6857"/>
<feGaussianBlur stdDeviation="27.4446"/>
<feComposite in2="hardAlpha" operator="out"/>
<feColorMatrix type="matrix" values="0 0 0 0 0.722882 0 0 0 0 0.750382 0 0 0 0 0.795833 0 0 0 0.47 0"/>
<feBlend mode="normal" in2="BackgroundImageFix" result="effect1_dropShadow_2713_7686"/>
<feBlend mode="normal" in="SourceGraphic" in2="effect1_dropShadow_2713_7686" result="shape"/>
</filter>
<filter id="filter6_d_2713_7686" x="168.828" y="0.796444" width="200.632" height="200.505" filterUnits="userSpaceOnUse" color-interpolation-filters="sRGB">
<feFlood flood-opacity="0" result="BackgroundImageFix"/>
<feColorMatrix in="SourceAlpha" type="matrix" values="0 0 0 0 0 0 0 0 0 0 0 0 0 0 0 0 0 0 127 0" result="hardAlpha"/>
<feOffset dx="11.6786" dy="18.6857"/>
<feGaussianBlur stdDeviation="27.4446"/>
<feComposite in2="hardAlpha" operator="out"/>
<feColorMatrix type="matrix" values="0 0 0 0 0.722882 0 0 0 0 0.750382 0 0 0 0 0.795833 0 0 0 0.47 0"/>
<feBlend mode="normal" in2="BackgroundImageFix" result="effect1_dropShadow_2713_7686"/>
<feBlend mode="normal" in="SourceGraphic" in2="effect1_dropShadow_2713_7686" result="shape"/>
</filter>
<filter id="filter7_d_2713_7686" x="1085.98" y="281.921" width="200.632" height="200.505" filterUnits="userSpaceOnUse" color-interpolation-filters="sRGB">
<feFlood flood-opacity="0" result="BackgroundImageFix"/>
<feColorMatrix in="SourceAlpha" type="matrix" values="0 0 0 0 0 0 0 0 0 0 0 0 0 0 0 0 0 0 127 0" result="hardAlpha"/>
<feOffset dx="11.6786" dy="18.6857"/>
<feGaussianBlur stdDeviation="27.4446"/>
<feComposite in2="hardAlpha" operator="out"/>
<feColorMatrix type="matrix" values="0 0 0 0 0.722882 0 0 0 0 0.750382 0 0 0 0 0.795833 0 0 0 0.47 0"/>
<feBlend mode="normal" in2="BackgroundImageFix" result="effect1_dropShadow_2713_7686"/>
<feBlend mode="normal" in="SourceGraphic" in2="effect1_dropShadow_2713_7686" result="shape"/>
</filter>
<filter id="filter8_d_2713_7686" x="336.827" y="71.7964" width="200.632" height="200.505" filterUnits="userSpaceOnUse" color-interpolation-filters="sRGB">
<feFlood flood-opacity="0" result="BackgroundImageFix"/>
<feColorMatrix in="SourceAlpha" type="matrix" values="0 0 0 0 0 0 0 0 0 0 0 0 0 0 0 0 0 0 127 0" result="hardAlpha"/>
<feOffset dx="11.6786" dy="18.6857"/>
<feGaussianBlur stdDeviation="27.4446"/>
<feComposite in2="hardAlpha" operator="out"/>
<feColorMatrix type="matrix" values="0 0 0 0 0.722882 0 0 0 0 0.750382 0 0 0 0 0.795833 0 0 0 0.47 0"/>
<feBlend mode="normal" in2="BackgroundImageFix" result="effect1_dropShadow_2713_7686"/>
<feBlend mode="normal" in="SourceGraphic" in2="effect1_dropShadow_2713_7686" result="shape"/>
</filter>
<filter id="filter9_d_2713_7686" x="427.888" y="199.565" width="200.632" height="200.505" filterUnits="userSpaceOnUse" color-interpolation-filters="sRGB">
<feFlood flood-opacity="0" result="BackgroundImageFix"/>
<feColorMatrix in="SourceAlpha" type="matrix" values="0 0 0 0 0 0 0 0 0 0 0 0 0 0 0 0 0 0 127 0" result="hardAlpha"/>
<feOffset dx="11.6786" dy="18.6857"/>
<feGaussianBlur stdDeviation="27.4446"/>
<feComposite in2="hardAlpha" operator="out"/>
<feColorMatrix type="matrix" values="0 0 0 0 0.722882 0 0 0 0 0.750382 0 0 0 0 0.795833 0 0 0 0.47 0"/>
<feBlend mode="normal" in2="BackgroundImageFix" result="effect1_dropShadow_2713_7686"/>
<feBlend mode="normal" in="SourceGraphic" in2="effect1_dropShadow_2713_7686" result="shape"/>
</filter>
<filter id="filter10_d_2713_7686" x="895.889" y="97.7964" width="200.632" height="200.505" filterUnits="userSpaceOnUse" color-interpolation-filters="sRGB">
<feFlood flood-opacity="0" result="BackgroundImageFix"/>
<feColorMatrix in="SourceAlpha" type="matrix" values="0 0 0 0 0 0 0 0 0 0 0 0 0 0 0 0 0 0 127 0" result="hardAlpha"/>
<feOffset dx="11.6786" dy="18.6857"/>
<feGaussianBlur stdDeviation="27.4446"/>
<feComposite in2="hardAlpha" operator="out"/>
<feColorMatrix type="matrix" values="0 0 0 0 0.722882 0 0 0 0 0.750382 0 0 0 0 0.795833 0 0 0 0.47 0"/>
<feBlend mode="normal" in2="BackgroundImageFix" result="effect1_dropShadow_2713_7686"/>
<feBlend mode="normal" in="SourceGraphic" in2="effect1_dropShadow_2713_7686" result="shape"/>
</filter>
<filter id="filter11_d_2713_7686" x="129.283" y="192.101" width="200.632" height="200.505" filterUnits="userSpaceOnUse" color-interpolation-filters="sRGB">
<feFlood flood-opacity="0" result="BackgroundImageFix"/>
<feColorMatrix in="SourceAlpha" type="matrix" values="0 0 0 0 0 0 0 0 0 0 0 0 0 0 0 0 0 0 127 0" result="hardAlpha"/>
<feOffset dx="11.6786" dy="18.6857"/>
<feGaussianBlur stdDeviation="27.4446"/>
<feComposite in2="hardAlpha" operator="out"/>
<feColorMatrix type="matrix" values="0 0 0 0 0.722882 0 0 0 0 0.750382 0 0 0 0 0.795833 0 0 0 0.47 0"/>
<feBlend mode="normal" in2="BackgroundImageFix" result="effect1_dropShadow_2713_7686"/>
<feBlend mode="normal" in="SourceGraphic" in2="effect1_dropShadow_2713_7686" result="shape"/>
</filter>
<filter id="filter12_d_2713_7686" x="269.459" y="350.747" width="200.632" height="200.505" filterUnits="userSpaceOnUse" color-interpolation-filters="sRGB">
<feFlood flood-opacity="0" result="BackgroundImageFix"/>
<feColorMatrix in="SourceAlpha" type="matrix" values="0 0 0 0 0 0 0 0 0 0 0 0 0 0 0 0 0 0 127 0" result="hardAlpha"/>
<feOffset dx="11.6786" dy="18.6857"/>
<feGaussianBlur stdDeviation="27.4446"/>
<feComposite in2="hardAlpha" operator="out"/>
<feColorMatrix type="matrix" values="0 0 0 0 0.722882 0 0 0 0 0.750382 0 0 0 0 0.795833 0 0 0 0.47 0"/>
<feBlend mode="normal" in2="BackgroundImageFix" result="effect1_dropShadow_2713_7686"/>
<feBlend mode="normal" in="SourceGraphic" in2="effect1_dropShadow_2713_7686" result="shape"/>
</filter>
<filter id="filter13_d_2713_7686" x="0.789304" y="379.796" width="200.632" height="200.505" filterUnits="userSpaceOnUse" color-interpolation-filters="sRGB">
<feFlood flood-opacity="0" result="BackgroundImageFix"/>
<feColorMatrix in="SourceAlpha" type="matrix" values="0 0 0 0 0 0 0 0 0 0 0 0 0 0 0 0 0 0 127 0" result="hardAlpha"/>
<feOffset dx="11.6786" dy="18.6857"/>
<feGaussianBlur stdDeviation="27.4446"/>
<feComposite in2="hardAlpha" operator="out"/>
<feColorMatrix type="matrix" values="0 0 0 0 0.722882 0 0 0 0 0.750382 0 0 0 0 0.795833 0 0 0 0.47 0"/>
<feBlend mode="normal" in2="BackgroundImageFix" result="effect1_dropShadow_2713_7686"/>
<feBlend mode="normal" in="SourceGraphic" in2="effect1_dropShadow_2713_7686" result="shape"/>
</filter>
<filter id="filter14_d_2713_7686" x="675.789" y="395.796" width="200.632" height="200.505" filterUnits="userSpaceOnUse" color-interpolation-filters="sRGB">
<feFlood flood-opacity="0" result="BackgroundImageFix"/>
<feColorMatrix in="SourceAlpha" type="matrix" values="0 0 0 0 0 0 0 0 0 0 0 0 0 0 0 0 0 0 127 0" result="hardAlpha"/>
<feOffset dx="11.6786" dy="18.6857"/>
<feGaussianBlur stdDeviation="27.4446"/>
<feComposite in2="hardAlpha" operator="out"/>
<feColorMatrix type="matrix" values="0 0 0 0 0.722882 0 0 0 0 0.750382 0 0 0 0 0.795833 0 0 0 0.47 0"/>
<feBlend mode="normal" in2="BackgroundImageFix" result="effect1_dropShadow_2713_7686"/>
<feBlend mode="normal" in="SourceGraphic" in2="effect1_dropShadow_2713_7686" result="shape"/>
</filter>
<filter id="filter15_d_2713_7686" x="0.789304" y="71.7964" width="200.632" height="200.505" filterUnits="userSpaceOnUse" color-interpolation-filters="sRGB">
<feFlood flood-opacity="0" result="BackgroundImageFix"/>
<feColorMatrix in="SourceAlpha" type="matrix" values="0 0 0 0 0 0 0 0 0 0 0 0 0 0 0 0 0 0 127 0" result="hardAlpha"/>
<feOffset dx="11.6786" dy="18.6857"/>
<feGaussianBlur stdDeviation="27.4446"/>
<feComposite in2="hardAlpha" operator="out"/>
<feColorMatrix type="matrix" values="0 0 0 0 0.722882 0 0 0 0 0.750382 0 0 0 0 0.795833 0 0 0 0.47 0"/>
<feBlend mode="normal" in2="BackgroundImageFix" result="effect1_dropShadow_2713_7686"/>
<feBlend mode="normal" in="SourceGraphic" in2="effect1_dropShadow_2713_7686" result="shape"/>
</filter>
<linearGradient id="paint0_linear_2713_7686" x1="2110.67" y1="1463.04" x2="3168.98" y2="681.254" gradientUnits="userSpaceOnUse">
<stop stop-color="#FF8000"/>
<stop offset="1" stop-color="#FF6400"/>
</linearGradient>
<linearGradient id="paint1_linear_2713_7686" x1="1939.98" y1="1245.65" x2="4161.67" y2="2562.41" gradientUnits="userSpaceOnUse">
<stop stop-color="#00C1FF"/>
<stop offset="0.39753" stop-color="#09B2FF"/>
<stop offset="1" stop-color="#2C78FF"/>
</linearGradient>
<clipPath id="clip0_2713_7686">
<rect width="42.0526" height="41.9939" fill="white" transform="translate(1153.72 342.623)"/>
</clipPath>
<clipPath id="clip1_2713_7686">
<rect width="36.0084" height="35.9581" fill="white" transform="translate(1177.26 151.866)"/>
</clipPath>
<clipPath id="clip2_2713_7686">
<rect width="36.0084" height="35.9581" fill="white" transform="translate(700.152 154.862)"/>
</clipPath>
<clipPath id="clip3_2713_7686">
<rect width="36.0084" height="35.9581" fill="white" transform="translate(1012.22 467.5)"/>
</clipPath>
<clipPath id="clip4_2713_7686">
<rect width="36.0084" height="35.9581" fill="white" transform="translate(240.045 63.9688)"/>
</clipPath>
<clipPath id="clip5_2713_7686">
<rect width="36.0084" height="35.9581" fill="white" transform="translate(340.068 414.56)"/>
</clipPath>
<clipPath id="clip6_2713_7686">
<rect width="44.0049" height="44" fill="white" transform="translate(67.0024 439)"/>
</clipPath>
<clipPath id="clip7_2713_7686">
<rect width="40.0045" height="40" fill="white" transform="translate(69.0029 134)"/>
</clipPath>
</defs>
</svg>
