<svg width="160" height="40" viewBox="0 0 160 40" fill="none" xmlns="http://www.w3.org/2000/svg">
<path d="M155.849 16.6312V18.2823C157.001 17.3502 158.393 16.7643 160 16.7643V19.1079C157.67 19.1079 156.064 21.0253 155.849 23.2889V29.9734H153.439V16.6312H155.849Z" fill="#333333"/>
<path d="M145.248 16.6844C148.809 16.6844 151.728 19.6405 151.728 23.3156C151.728 27.0173 148.809 29.9467 145.248 29.9467C141.659 29.9467 138.741 27.0173 138.741 23.3156C138.741 19.6405 141.659 16.6844 145.248 16.6844ZM145.248 27.5233C147.524 27.5233 149.371 25.6325 149.371 23.3156C149.371 20.9987 147.524 19.1079 145.248 19.1079C142.945 19.1079 141.097 20.9987 141.097 23.3156C141.097 25.6325 142.945 27.5233 145.248 27.5233Z" fill="#333333"/>
<path d="M134.519 16.6312H138.026V19.1611H134.519V29.9734H132.028V19.1611H128.386V16.6312H132.028V10H134.519V16.6312Z" fill="#333333"/>
<path d="M123.983 16.6312H126.42V29.9734H123.983V28.482C122.885 29.4141 121.492 29.9734 119.913 29.9734C116.378 29.9734 113.486 27.0439 113.486 23.3422C113.486 19.7204 116.378 16.7643 119.913 16.7643C121.492 16.7643 122.885 17.3236 123.983 18.2557V16.6312ZM119.913 27.5499C121.974 27.5499 123.688 25.9787 123.983 23.9281V22.8096C123.688 20.759 121.974 19.1877 119.913 19.1877C117.663 19.1877 115.816 21.0786 115.816 23.3422C115.816 25.6591 117.663 27.5499 119.913 27.5499Z" fill="#333333"/>
<path d="M111.614 10.0268V29.9735H109.151V10.0268H111.614Z" fill="#333333"/>
<path d="M103.161 21.8774C105.651 22.1704 107.258 23.7416 107.258 25.8988C107.258 28.1358 105.437 29.9467 103.08 29.9467H102.545C100.911 29.9467 99.3047 29.1744 98.4746 27.976L98.3407 27.8162L99.4654 25.8988L99.7599 26.3515C100.376 27.3102 101.634 27.7097 103.027 27.7363H103.08C104.178 27.7363 105.008 26.9374 105.008 25.8988C105.008 24.9667 104.446 24.434 103.027 24.221C100.938 24.1411 98.4478 22.9693 98.4478 20.4926C98.4478 18.3621 100.162 16.6045 102.223 16.6045H102.491C103.857 16.6045 105.303 17.2436 106.053 18.1757L106.213 18.3621L105.008 20.4926L104.687 20.1198C104.044 19.3741 103.321 19.0013 102.491 18.9747C101.608 18.9747 100.777 19.454 100.777 20.4926C100.777 21.0253 101.018 21.7976 103.161 21.8774Z" fill="#333333"/>
<path d="M96.5729 22.8628V29.9467H94.1361V22.1971C93.6274 20.4128 92.101 19.1611 90.2802 19.1611C88.5664 19.1611 87.2275 20.2263 86.6116 21.8242V29.9734H84.1749V16.6578H86.6116V17.9361C87.656 17.1638 88.9145 16.6578 90.2802 16.6578C93.6274 16.6578 96.2784 19.454 96.5729 22.8628Z" fill="#333333"/>
<path d="M79.6846 16.6312H82.1214V29.9734H79.6846V28.482C78.5867 29.4141 77.1943 29.9734 75.6144 29.9734C72.0798 29.9734 69.1878 27.0439 69.1878 23.3422C69.1878 19.7204 72.0798 16.7643 75.6144 16.7643C77.1943 16.7643 78.5867 17.3236 79.6846 18.2557V16.6312ZM75.6144 27.5499C77.6763 27.5499 79.3901 25.9787 79.6846 23.9281V22.8096C79.3901 20.759 77.6763 19.1877 75.6144 19.1877C73.3651 19.1877 71.5174 21.0786 71.5174 23.3422C71.5174 25.6591 73.3651 27.5499 75.6144 27.5499Z" fill="#333333"/>
<path d="M64.5596 16.6312V18.2823C65.7111 17.3502 67.1035 16.7643 68.7101 16.7643V19.1079C66.3805 19.1079 64.7738 21.0253 64.5596 23.2889V29.9734H62.1496V16.6312H64.5596Z" fill="#333333"/>
<path d="M48 11.3049H63.049V13.7816L56.7563 13.755L56.8098 30H54.1589L54.1856 13.755H48V11.3049Z" fill="#333333"/>
<path d="M19.8407 0.00129498C22.6012 -0.0289212 25.1949 0.469646 27.6217 1.497C30.0485 2.52435 32.1796 3.92185 34.0149 5.6895C35.8502 7.45714 37.2987 9.54206 38.3604 11.9443C39.4222 14.3464 39.9682 16.9224 39.9986 19.672C40.0289 22.2706 39.5814 24.7182 38.6562 27.0146C37.731 29.311 36.4417 31.3431 34.7884 33.1107C33.1352 34.8784 31.1937 36.3363 28.964 37.4845C26.7344 38.6327 24.3303 39.3428 21.7518 39.6147C21.0844 39.7054 20.3715 39.7809 19.6132 39.8414C18.8548 39.9018 18.013 39.9471 17.0877 39.9773C16.1625 40.0076 15.1311 40.0076 13.9935 39.9773C12.8559 39.9471 11.5743 39.8565 10.1485 39.7054C6.99362 39.4032 4.6502 39.0104 3.11826 38.527C1.58633 38.0435 0.972034 37.7716 1.27539 37.7111C2.88317 37.4392 4.26343 37.001 5.41617 36.3967C6.02288 36.0643 6.27315 35.5884 6.16698 34.969C6.0608 34.3496 5.76503 33.7679 5.27966 33.224C3.73256 31.5319 2.48122 29.5603 1.52566 27.3092C0.570089 25.0581 0.0619709 22.6332 0.00130009 20.0346C-0.0290353 17.285 0.471499 14.7015 1.5029 12.2842C2.53431 9.86689 3.94491 7.75175 5.7347 5.93878C7.52449 4.12581 9.6328 2.69054 12.0596 1.63297C14.4865 0.575403 17.0801 0.0315112 19.8407 0.00129498Z" fill="url(#paint0_linear_82_3645)"/>
<path d="M9.25104 16.8235C11.0005 16.7119 9.02826 20.2982 8.35989 22.019C7.69153 23.7402 7.15039 25.8186 7.81875 26.695C8.48712 27.5714 9.53716 27.4745 11.4783 26.1751C13.3542 24.9201 17.5883 20.0056 17.5883 20.0056C17.143 22.3113 16.3472 26.3701 17.3019 27.4419C18.2567 28.5137 19.2115 27.9618 20.9615 26.468C22.7116 24.9741 26.244 20.0708 26.244 20.0708C25.2895 28.9687 27.3795 28.3513 29.6811 26.9878C31.6539 25.8188 33.5001 22.9287 33.5001 22.9287C27.581 25.5589 30.4766 20.6879 30.9861 15.3623C31.4562 10.4475 28.1854 12.05 26.3395 13.6411C24.4936 15.2321 22.2344 18.2524 22.2344 18.2524C24.7806 9.61454 20.2295 12.0174 18.5109 13.3491C16.7925 14.6805 13.6101 17.9602 13.6101 17.9602C16.7605 11.2056 13.5145 11.7252 11.8597 12.9268C10.4663 13.9386 7.50011 16.921 7.50011 16.921C7.50011 16.921 8.74186 16.8558 9.25104 16.8235Z" fill="white"/>
<defs>
<linearGradient id="paint0_linear_82_3645" x1="34" y1="5.5" x2="1" y2="38" gradientUnits="userSpaceOnUse">
<stop stop-color="#F4439F"/>
<stop offset="1" stop-color="#7C3AED"/>
</linearGradient>
</defs>
</svg>
