<svg width="44" height="44" viewBox="0 0 44 44" fill="none" xmlns="http://www.w3.org/2000/svg">
<rect width="44" height="44" rx="22" fill="#DDDDDD"/>
<path d="M22 12C27.5229 12 32 16.4771 32 22C32 27.5229 27.5229 32 22 32C16.4771 32 12 27.5229 12 22C12 16.4771 16.4771 12 22 12ZM22 13.9048C17.529 13.9048 13.9048 17.529 13.9048 22C13.9048 26.471 17.529 30.0952 22 30.0952C26.471 30.0952 30.0952 26.471 30.0952 22C30.0952 17.529 26.471 13.9048 22 13.9048ZM18.999 17.1362C18.7782 17.7821 18.6659 18.4602 18.6667 19.1429C18.6667 22.5619 21.4381 25.3333 24.8571 25.3333C25.5595 25.3333 26.2343 25.2162 26.8633 25.001C26.3518 25.8308 25.6362 26.5158 24.7849 26.9908C23.9336 27.4657 22.9748 27.7148 22 27.7143C18.8443 27.7143 16.2857 25.1557 16.2857 22C16.2857 19.9448 17.3705 18.1429 18.999 17.1362Z" fill="#999999"/>
<path fill-rule="evenodd" clip-rule="evenodd" d="M27.7279 28.7279L15 16L16.4142 14.5858L29.1421 27.3137L27.7279 28.7279Z" fill="#999999"/>
</svg>
