<svg width="31" height="31" viewBox="0 0 31 31" fill="none" xmlns="http://www.w3.org/2000/svg">
<path d="M16.1719 15.1146L16.1854 15.0519C16.4451 13.9816 16.772 12.647 16.5168 11.4379C16.3466 10.484 15.6435 10.1122 15.0434 10.0854C14.3358 10.054 13.7043 10.4571 13.5476 11.0438C13.252 12.1186 13.5162 13.5875 13.9999 15.4595C13.3908 16.9105 12.419 19.0198 11.707 20.2738C10.3813 20.959 8.60341 22.0159 8.33918 23.3505C8.28544 23.5968 8.34814 23.9103 8.49592 24.1924C8.66162 24.5059 8.92585 24.7477 9.23486 24.8642C9.36922 24.9134 9.53044 24.9537 9.71853 24.9537C10.5067 24.9537 11.7831 24.3178 13.4849 21.3979C13.7446 21.3128 14.0133 21.2232 14.2731 21.1336C15.4912 20.7216 16.7541 20.2917 17.8961 20.0991C19.159 20.7754 20.5966 21.2098 21.5729 21.2098C22.5403 21.2098 22.9209 20.6365 23.0642 20.2917C23.315 19.6871 23.1941 18.9258 22.7866 18.5182C22.1954 17.9361 20.7578 17.7838 18.5186 18.0614C17.4169 17.3897 16.6959 16.4761 16.1719 15.1146ZM11.2591 21.9174C10.6366 22.822 10.1664 23.2743 9.91111 23.4714C10.2112 22.9205 10.7978 22.3383 11.2591 21.9174ZM15.1822 11.3707C15.4151 11.7693 15.3837 12.974 15.2046 13.583C14.9852 12.6918 14.9538 11.4289 15.0837 11.2811C15.1195 11.2856 15.1509 11.3125 15.1822 11.3707ZM15.1106 16.7672C15.5897 17.5957 16.1943 18.3078 16.8616 18.8362C15.8943 19.0557 15.012 19.4184 14.2238 19.7409C14.0357 19.817 13.8521 19.8931 13.673 19.9648C14.2686 18.8855 14.7657 17.6629 15.1106 16.7672ZM22.079 19.7006C22.0835 19.7095 22.0879 19.7229 22.0611 19.7409H22.0521L22.0431 19.7543C22.0073 19.7767 21.6401 19.9916 20.0592 19.3691C21.8774 19.2841 22.0745 19.6961 22.079 19.7006Z" fill="#12141D"/>
<path d="M19.719 3.67778L25.0008 8.84743V27.6454H6.51399V3.67778H19.719ZM19.8479 1.7168H6.19525C5.77258 1.7168 5.36722 1.88897 5.06834 2.19543C4.76947 2.50189 4.60156 2.91755 4.60156 3.35095V27.9722C4.60156 28.4056 4.76947 28.8213 5.06834 29.1277C5.36722 29.4342 5.77258 29.6064 6.19525 29.6064H25.3195C25.7422 29.6064 26.1476 29.4342 26.4464 29.1277C26.7453 28.8213 26.9132 28.4056 26.9132 27.9722V8.70744C26.9132 8.48645 26.8695 8.26776 26.7847 8.06459C26.6999 7.86142 26.5759 7.67799 26.42 7.5254L20.9472 2.16891C20.651 1.87898 20.2574 1.71708 19.8479 1.7168Z" fill="#12141D"/>
<path d="M25.957 9.75139H20.326C20.2004 9.75139 20.0761 9.72603 19.96 9.67675C19.844 9.62748 19.7386 9.55526 19.6498 9.46421C19.561 9.37316 19.4906 9.26507 19.4425 9.14612C19.3945 9.02716 19.3698 8.89966 19.3698 8.7709V2.99688C19.3698 2.73684 19.4705 2.48745 19.6498 2.30357C19.8291 2.11969 20.0724 2.01639 20.326 2.01639C20.5796 2.01639 20.8228 2.11969 21.0021 2.30357C21.1814 2.48745 21.2822 2.73684 21.2822 2.99688V7.7904H25.957C26.2106 7.7904 26.4538 7.89371 26.6331 8.07758C26.8125 8.26146 26.9132 8.51085 26.9132 8.7709C26.9132 9.03094 26.8125 9.28033 26.6331 9.46421C26.4538 9.64809 26.2106 9.75139 25.957 9.75139Z" fill="#12141D"/>
</svg>
