<svg width="31" height="31" viewBox="0 0 31 31" fill="none" xmlns="http://www.w3.org/2000/svg">
<path d="M9.73417 10.7573C9.73417 11.2139 9.91555 11.6518 10.2384 11.9747C10.5613 12.2975 10.9992 12.4789 11.4557 12.4789C11.9123 12.4789 12.3502 12.2975 12.6731 11.9747C12.9959 11.6518 13.1773 11.2139 13.1773 10.7573C13.1773 10.3007 12.9959 9.86284 12.6731 9.53998C12.3502 9.21712 11.9123 9.03574 11.4557 9.03574C10.9992 9.03574 10.5613 9.21712 10.2384 9.53998C9.91555 9.86284 9.73417 10.3007 9.73417 10.7573ZM23.4814 20.0353L20.9257 13.2084C20.862 13.0388 20.7166 12.9274 20.5323 12.9076C20.3486 12.8878 20.182 12.9661 20.0817 13.118L17.1908 17.5317C17.059 17.7323 16.7991 17.8029 16.5805 17.697L11.6288 15.2915C11.4105 15.1856 11.1502 15.2558 11.0189 15.4564L8.07843 19.9449C7.98245 20.0917 7.97642 20.2639 8.06209 20.4167C8.14775 20.5694 8.3001 20.6564 8.47827 20.6564H23.0372C23.1969 20.6564 23.3333 20.5871 23.425 20.4588C23.5162 20.3306 23.5361 20.1817 23.4814 20.0353Z" fill="#7C3AED"/>
<path fill-rule="evenodd" clip-rule="evenodd" d="M1.8042 5.16219C1.8042 4.59171 2.26667 4.12924 2.83715 4.12924H26.0785C26.6489 4.12924 27.1114 4.59171 27.1114 5.16219V28.4035C27.1114 28.974 26.6489 29.4365 26.0785 29.4365C25.508 29.4365 25.0455 28.974 25.0455 28.4035V6.19514H2.83715C2.26667 6.19514 1.8042 5.73267 1.8042 5.16219Z" fill="#7C3AED"/>
<path fill-rule="evenodd" clip-rule="evenodd" d="M29.6938 25.8211C29.6938 26.3916 29.2313 26.8541 28.6608 26.8541H5.41951C4.84903 26.8541 4.38656 26.3916 4.38656 25.8211V2.57982C4.38656 2.00934 4.84903 1.54688 5.41951 1.54688C5.98999 1.54688 6.45246 2.00934 6.45246 2.57982V24.7882H28.6608C29.2313 24.7882 29.6938 25.2507 29.6938 25.8211Z" fill="#7C3AED"/>
</svg>
