<svg width="456" height="107" viewBox="0 0 456 107" fill="none" xmlns="http://www.w3.org/2000/svg">
<rect y="51" width="456" height="16" fill="url(#paint0_linear_2713_7127)"/>
<path d="M112.416 22.112V29.92H104.544V14.688H128.096C127.797 13.9627 127.285 12.8107 126.56 11.232L125.664 9.312L134.56 7.712L137.696 14.688H159.776V29.984H151.84V22.112H112.416ZM160.288 43.04V50.528H136.352V58.208C136.352 60.8533 136.075 62.816 135.52 64.096C135.008 65.376 134.112 66.2293 132.832 66.656C131.552 67.1253 129.611 67.36 127.008 67.36C124.619 67.36 122.016 67.1893 119.2 66.848L117.664 59.616C121.035 60.0853 123.723 60.32 125.728 60.32C126.795 60.32 127.499 60.064 127.84 59.552C128.181 58.9973 128.352 57.8453 128.352 56.096V50.528H103.52V43.04H128.352V39.84L136.288 34.336H114.4V27.104H149.792V34.272L136.352 42.784V43.04H160.288ZM223.584 58.72C220.939 57.7813 218.571 56.8 216.48 55.776V59.104C216.48 61.536 215.968 63.2 214.944 64.096C213.963 65.0347 212.192 65.504 209.632 65.504C207.669 65.504 205.515 65.3973 203.168 65.184L202.08 60C204.384 60.256 206.091 60.4053 207.2 60.448C207.968 60.448 208.501 60.2773 208.8 59.936C209.141 59.5947 209.312 59.0187 209.312 58.208V55.968H199.648V67.68H192.416V55.968H182.816V65.248H175.776V55.968C173.429 57.2053 171.232 58.272 169.184 59.168L166.048 52.768C171.595 50.7627 176.011 48.5013 179.296 45.984H166.88V40.416H184.928C185.611 39.52 186.187 38.6667 186.656 37.856H173.216V19.936H182.304V17.248H167.648V11.808H182.304V8.032H189.92V11.808H202.08V8.032H209.888V11.808H224.416V17.248H209.888V19.936H218.976V37.856H195.04C194.613 38.6667 194.101 39.52 193.504 40.416H224.736V45.984H211.36C215.029 48.672 219.957 50.8267 226.144 52.448L223.584 58.72ZM202.08 17.248H189.92V19.936H202.08V17.248ZM211.232 26.848V24.352H180.64V26.848H211.232ZM211.232 30.752H180.64V33.184H211.232V30.752ZM199.648 50.848H208.288C206.24 49.312 204.384 47.6907 202.72 45.984H189.152C187.616 47.648 185.824 49.2693 183.776 50.848H192.416V47.584H199.648V50.848ZM275.424 10.592H287.84V59.232C287.84 62.0053 287.392 63.968 286.496 65.12C285.643 66.272 284.021 66.848 281.632 66.848C280.053 66.848 278.411 66.6773 276.704 66.336L275.488 59.104C277.024 59.488 278.325 59.68 279.392 59.68C280.245 59.68 280.821 59.4027 281.12 58.848C281.461 58.2933 281.632 57.3973 281.632 56.16V47.136C278.731 49.696 277.003 51.2533 276.448 51.808L273.504 46.368L273.44 59.296C273.483 62.0693 273.099 64.0107 272.288 65.12C271.477 66.272 269.941 66.848 267.68 66.848C266.016 66.848 264.288 66.6773 262.496 66.336L261.408 59.104C263.029 59.488 264.331 59.68 265.312 59.68C266.251 59.68 266.891 59.3813 267.232 58.784C267.573 58.1867 267.744 57.2053 267.744 55.84V46.88C264.587 49.6107 262.709 51.2747 262.112 51.872L259.232 46.112V66.08H233.056V42.08L232.608 42.336L229.6 36.768C233.781 34.592 237.045 32.3093 239.392 29.92H231.2V24.352H236.192C235.552 23.2 234.485 21.4507 232.992 19.104L237.408 16.608L232.8 16.928L232.224 11.232C244.341 10.592 252.981 9.78133 258.144 8.8L258.848 14.496C255.392 15.008 252.192 15.392 249.248 15.648V24.352H254.432L250.4 22.368C251.893 20.1493 253.131 17.9093 254.112 15.648L259.232 17.888L255.904 24.352H259.68V29.92H252.256C257.077 32.7787 260.149 34.656 261.472 35.552L258.976 39.968H259.232V44.704C261.749 42.8267 264.587 40.5867 267.744 37.984V35.488L263.968 36.832C263.328 34.6133 262.539 32.096 261.6 29.28C260.704 26.4213 259.979 24.2453 259.424 22.752L264.096 20.96L265.888 26.528L267.744 32.288V18.08H260.704V10.592H273.568V22.304L277.472 20.704C278.795 24.3733 280.181 28.448 281.632 32.928V18.08H275.424V10.592ZM238.176 16.608C238.731 17.632 239.413 18.7627 240.224 20L241.632 22.24L237.6 24.352H242.72V16.224L238.176 16.608ZM273.504 44.896L281.632 38.304V35.424L277.728 36.832C276.789 33.632 275.381 29.3867 273.504 24.096V44.896ZM242.72 33.568C240.8 35.9573 238.581 38.0907 236.064 39.968H257.696C255.691 38.4747 252.875 36.4907 249.248 34.016V38.816H242.72V33.568ZM238.752 50.208H243.296V45.408H238.752V50.208ZM249.12 50.208H253.536V45.408H249.12V50.208ZM243.296 55.584H238.752V60.576H243.296V55.584ZM249.12 55.584V60.576H253.536V55.584H249.12ZM305.504 24.544C304.48 23.008 303.008 21.0667 301.088 18.72C299.211 16.3307 297.653 14.496 296.416 13.216L302.304 8.288C303.499 9.61067 305.077 11.4667 307.04 13.856C309.045 16.2027 310.624 18.144 311.776 19.68L305.504 24.544ZM326.176 27.296C323.147 24.8213 320.309 21.6213 317.664 17.696H314.144V10.784H349.472V17.696C346.741 21.8347 343.584 25.1627 340 27.68C343.797 29.1307 348.491 30.176 354.08 30.816L351.328 37.536C343.776 36 337.653 34.0373 332.96 31.648C328.181 33.824 321.824 35.8293 313.888 37.664L310.624 31.2C316.512 30.2187 321.696 28.9173 326.176 27.296ZM332.896 24.224C336.139 22.3467 338.805 20.1707 340.896 17.696H325.536C327.755 20.256 330.208 22.432 332.896 24.224ZM307.808 51.936L310.368 49.056L314.016 55.2C310.816 58.5707 308.427 61.152 306.848 62.944L304.224 65.888L299.04 60.64C299.68 59.9573 300.085 59.2747 300.256 58.592C300.427 57.9093 300.512 57.0133 300.512 55.904V35.616H294.24V27.872H307.808V51.936ZM350.56 46.88H336.416V51.936H352.48V58.784H336.416V67.616H329.056V58.784H314.016V51.936H329.056V46.88H315.936V40.352H329.056V35.296H336.416V40.352H350.56V46.88Z" fill="url(#paint1_linear_2713_7127)"/>
<mask id="mask0_2713_7127" style="mask-type:alpha" maskUnits="userSpaceOnUse" x="32" y="67" width="392" height="24">
<rect x="32" y="67" width="392" height="24" fill="#C4C4C4"/>
</mask>
<g mask="url(#mask0_2713_7127)">
<path d="M112.416 35.112V42.92H104.544V27.688H128.096C127.797 26.9627 127.285 25.8107 126.56 24.232L125.664 22.312L134.56 20.712L137.696 27.688H159.776V42.984H151.84V35.112H112.416ZM160.288 56.04V63.528H136.352V71.208C136.352 73.8533 136.075 75.816 135.52 77.096C135.008 78.376 134.112 79.2293 132.832 79.656C131.552 80.1253 129.611 80.36 127.008 80.36C124.619 80.36 122.016 80.1893 119.2 79.848L117.664 72.616C121.035 73.0853 123.723 73.32 125.728 73.32C126.795 73.32 127.499 73.064 127.84 72.552C128.181 71.9973 128.352 70.8453 128.352 69.096V63.528H103.52V56.04H128.352V52.84L136.288 47.336H114.4V40.104H149.792V47.272L136.352 55.784V56.04H160.288ZM223.584 71.72C220.939 70.7813 218.571 69.8 216.48 68.776V72.104C216.48 74.536 215.968 76.2 214.944 77.096C213.963 78.0347 212.192 78.504 209.632 78.504C207.669 78.504 205.515 78.3973 203.168 78.184L202.08 73C204.384 73.256 206.091 73.4053 207.2 73.448C207.968 73.448 208.501 73.2773 208.8 72.936C209.141 72.5947 209.312 72.0187 209.312 71.208V68.968H199.648V80.68H192.416V68.968H182.816V78.248H175.776V68.968C173.429 70.2053 171.232 71.272 169.184 72.168L166.048 65.768C171.595 63.7627 176.011 61.5013 179.296 58.984H166.88V53.416H184.928C185.611 52.52 186.187 51.6667 186.656 50.856H173.216V32.936H182.304V30.248H167.648V24.808H182.304V21.032H189.92V24.808H202.08V21.032H209.888V24.808H224.416V30.248H209.888V32.936H218.976V50.856H195.04C194.613 51.6667 194.101 52.52 193.504 53.416H224.736V58.984H211.36C215.029 61.672 219.957 63.8267 226.144 65.448L223.584 71.72ZM202.08 30.248H189.92V32.936H202.08V30.248ZM211.232 39.848V37.352H180.64V39.848H211.232ZM211.232 43.752H180.64V46.184H211.232V43.752ZM199.648 63.848H208.288C206.24 62.312 204.384 60.6907 202.72 58.984H189.152C187.616 60.648 185.824 62.2693 183.776 63.848H192.416V60.584H199.648V63.848ZM275.424 23.592H287.84V72.232C287.84 75.0053 287.392 76.968 286.496 78.12C285.643 79.272 284.021 79.848 281.632 79.848C280.053 79.848 278.411 79.6773 276.704 79.336L275.488 72.104C277.024 72.488 278.325 72.68 279.392 72.68C280.245 72.68 280.821 72.4027 281.12 71.848C281.461 71.2933 281.632 70.3973 281.632 69.16V60.136C278.731 62.696 277.003 64.2533 276.448 64.808L273.504 59.368L273.44 72.296C273.483 75.0693 273.099 77.0107 272.288 78.12C271.477 79.272 269.941 79.848 267.68 79.848C266.016 79.848 264.288 79.6773 262.496 79.336L261.408 72.104C263.029 72.488 264.331 72.68 265.312 72.68C266.251 72.68 266.891 72.3813 267.232 71.784C267.573 71.1867 267.744 70.2053 267.744 68.84V59.88C264.587 62.6107 262.709 64.2747 262.112 64.872L259.232 59.112V79.08H233.056V55.08L232.608 55.336L229.6 49.768C233.781 47.592 237.045 45.3093 239.392 42.92H231.2V37.352H236.192C235.552 36.2 234.485 34.4507 232.992 32.104L237.408 29.608L232.8 29.928L232.224 24.232C244.341 23.592 252.981 22.7813 258.144 21.8L258.848 27.496C255.392 28.008 252.192 28.392 249.248 28.648V37.352H254.432L250.4 35.368C251.893 33.1493 253.131 30.9093 254.112 28.648L259.232 30.888L255.904 37.352H259.68V42.92H252.256C257.077 45.7787 260.149 47.656 261.472 48.552L258.976 52.968H259.232V57.704C261.749 55.8267 264.587 53.5867 267.744 50.984V48.488L263.968 49.832C263.328 47.6133 262.539 45.096 261.6 42.28C260.704 39.4213 259.979 37.2453 259.424 35.752L264.096 33.96L265.888 39.528L267.744 45.288V31.08H260.704V23.592H273.568V35.304L277.472 33.704C278.795 37.3733 280.181 41.448 281.632 45.928V31.08H275.424V23.592ZM238.176 29.608C238.731 30.632 239.413 31.7627 240.224 33L241.632 35.24L237.6 37.352H242.72V29.224L238.176 29.608ZM273.504 57.896L281.632 51.304V48.424L277.728 49.832C276.789 46.632 275.381 42.3867 273.504 37.096V57.896ZM242.72 46.568C240.8 48.9573 238.581 51.0907 236.064 52.968H257.696C255.691 51.4747 252.875 49.4907 249.248 47.016V51.816H242.72V46.568ZM238.752 63.208H243.296V58.408H238.752V63.208ZM249.12 63.208H253.536V58.408H249.12V63.208ZM243.296 68.584H238.752V73.576H243.296V68.584ZM249.12 68.584V73.576H253.536V68.584H249.12ZM305.504 37.544C304.48 36.008 303.008 34.0667 301.088 31.72C299.211 29.3307 297.653 27.496 296.416 26.216L302.304 21.288C303.499 22.6107 305.077 24.4667 307.04 26.856C309.045 29.2027 310.624 31.144 311.776 32.68L305.504 37.544ZM326.176 40.296C323.147 37.8213 320.309 34.6213 317.664 30.696H314.144V23.784H349.472V30.696C346.741 34.8347 343.584 38.1627 340 40.68C343.797 42.1307 348.491 43.176 354.08 43.816L351.328 50.536C343.776 49 337.653 47.0373 332.96 44.648C328.181 46.824 321.824 48.8293 313.888 50.664L310.624 44.2C316.512 43.2187 321.696 41.9173 326.176 40.296ZM332.896 37.224C336.139 35.3467 338.805 33.1707 340.896 30.696H325.536C327.755 33.256 330.208 35.432 332.896 37.224ZM307.808 64.936L310.368 62.056L314.016 68.2C310.816 71.5707 308.427 74.152 306.848 75.944L304.224 78.888L299.04 73.64C299.68 72.9573 300.085 72.2747 300.256 71.592C300.427 70.9093 300.512 70.0133 300.512 68.904V48.616H294.24V40.872H307.808V64.936ZM350.56 59.88H336.416V64.936H352.48V71.784H336.416V80.616H329.056V71.784H314.016V64.936H329.056V59.88H315.936V53.352H329.056V48.296H336.416V53.352H350.56V59.88Z" fill="url(#paint2_linear_2713_7127)" fill-opacity="0.7"/>
</g>
<g filter="url(#filter0_b_2713_7127)">
<path d="M0 67H456V95C456 101.627 450.627 107 444 107H12C5.37259 107 0 101.627 0 95V67Z" fill="url(#paint3_linear_2713_7127)"/>
</g>
<defs>
<filter id="filter0_b_2713_7127" x="-24" y="43" width="504" height="88" filterUnits="userSpaceOnUse" color-interpolation-filters="sRGB">
<feFlood flood-opacity="0" result="BackgroundImageFix"/>
<feGaussianBlur in="BackgroundImageFix" stdDeviation="12"/>
<feComposite in2="SourceAlpha" operator="in" result="effect1_backgroundBlur_2713_7127"/>
<feBlend mode="normal" in="SourceGraphic" in2="effect1_backgroundBlur_2713_7127" result="shape"/>
</filter>
<linearGradient id="paint0_linear_2713_7127" x1="2.06267e-06" y1="59.0036" x2="456" y2="59.0033" gradientUnits="userSpaceOnUse">
<stop stop-color="white" stop-opacity="0.3"/>
<stop offset="0.495" stop-color="#CBB0F8"/>
<stop offset="1" stop-color="white" stop-opacity="0.3"/>
</linearGradient>
<linearGradient id="paint1_linear_2713_7127" x1="356" y1="-5.23031e-06" x2="100" y2="60" gradientUnits="userSpaceOnUse">
<stop stop-color="#F4439F"/>
<stop offset="1" stop-color="#7C3AED"/>
</linearGradient>
<linearGradient id="paint2_linear_2713_7127" x1="422.56" y1="52" x2="33.4399" y2="52" gradientUnits="userSpaceOnUse">
<stop stop-color="#F4439F"/>
<stop offset="1" stop-color="#7C3AED"/>
</linearGradient>
<linearGradient id="paint3_linear_2713_7127" x1="228" y1="67" x2="228" y2="107" gradientUnits="userSpaceOnUse">
<stop offset="0.0001" stop-color="white" stop-opacity="0.1"/>
<stop offset="1" stop-color="white" stop-opacity="0"/>
</linearGradient>
</defs>
</svg>
