<svg width="44" height="44" viewBox="0 0 44 44" fill="none" xmlns="http://www.w3.org/2000/svg">
<rect width="44" height="44" rx="22" fill="#7C3AED" fill-opacity="0.15"/>
<path d="M22.87 25.07L20.33 22.56L20.36 22.53C22.1 20.59 23.34 18.36 24.07 16H27V14H20V12H18V14H11V15.99H22.17C21.5 17.92 20.44 19.75 19 21.35C18.07 20.32 17.3 19.19 16.69 18H14.69C15.42 19.63 16.42 21.17 17.67 22.56L12.58 27.58L14 29L19 24L22.11 27.11L22.87 25.07ZM28.5 20H26.5L22 32H24L25.12 29H29.87L31 32H33L28.5 20ZM25.88 27L27.5 22.67L29.12 27H25.88Z" fill="#7C3AED"/>
</svg>
