<svg width="456" height="78" viewBox="0 0 456 78" fill="none" xmlns="http://www.w3.org/2000/svg">
<rect y="51" width="456" height="16" fill="url(#paint0_linear_2745_11043)"/>
<path d="M105.312 10.528H158.56V57.76C158.56 60.2773 158.304 62.176 157.792 63.456C157.28 64.736 156.363 65.6533 155.04 66.208C153.717 66.8053 151.733 67.168 149.088 67.296L147.488 67.36C145.867 67.36 143.904 67.2107 141.6 66.912L140.064 59.616C142.197 59.9147 144.565 60.064 147.168 60.064C148.747 60.064 149.771 59.7867 150.24 59.232C150.752 58.6773 151.008 57.5467 151.008 55.84V52.96L145.76 56.032L144.672 53.792C144.245 52.9813 143.755 52.0427 143.2 50.976C142.688 49.8667 142.069 48.6293 141.344 47.264C138.955 51.744 136.331 55.9467 133.472 59.872L127.52 55.712C131.275 50.592 134.581 45.2587 137.44 39.712C135.008 35.1467 133.131 31.7333 131.808 29.472C130.443 33.0987 129.141 36.2773 127.904 39.008L131.424 45.792L132.576 48.096L126.432 51.808L124.128 46.944C121.824 51.296 119.541 55.1147 117.28 58.4L112.8 55.2V67.232H105.312V10.528ZM151.008 50.976V17.888H112.8V52.064C115.573 47.968 118.091 43.6587 120.352 39.136C117.195 32.736 114.891 28.256 113.44 25.696L119.136 22.368L122.336 28.256L124 31.392C125.707 27.3387 127.051 23.712 128.032 20.512L134.176 22.496C133.152 25.5253 132.491 27.4667 132.192 28.32L137.056 25.12L140.96 32.096C142.411 28.5547 143.691 25.0347 144.8 21.536L150.944 23.712C149.323 29.3013 147.381 34.6347 145.12 39.712L151.008 50.976ZM189.536 23.904L191.136 18.144H168.352V10.656H223.456V18.144H200.032L198.368 23.904H218.08V51.36H210.144V31.456H181.344V51.616H173.408V23.904H189.536ZM219.552 68C216.224 66.08 212.192 63.8613 207.456 61.344C202.763 58.8267 198.773 56.7787 195.488 55.2C193.483 57.6747 190.496 59.936 186.528 61.984C182.603 64.032 177.269 66.08 170.528 68.128L166.752 60.128C173.963 58.2933 179.296 56.5013 182.752 54.752C186.251 52.96 188.576 51.04 189.728 48.992C190.923 46.9013 191.605 44.128 191.776 40.672C191.819 39.648 191.84 37.536 191.84 34.336H199.776C199.776 37.7067 199.755 39.9253 199.712 40.992C199.627 43.9787 199.349 46.4107 198.88 48.288C202.208 49.7387 206.347 51.6373 211.296 53.984C216.245 56.3307 220.341 58.3147 223.584 59.936L219.552 68ZM275.424 10.592H287.84V59.232C287.84 62.0053 287.392 63.968 286.496 65.12C285.643 66.272 284.021 66.848 281.632 66.848C280.053 66.848 278.411 66.6773 276.704 66.336L275.488 59.104C277.024 59.488 278.325 59.68 279.392 59.68C280.245 59.68 280.821 59.4027 281.12 58.848C281.461 58.2933 281.632 57.3973 281.632 56.16V47.136C278.731 49.696 277.003 51.2533 276.448 51.808L273.504 46.368L273.44 59.296C273.483 62.0693 273.099 64.0107 272.288 65.12C271.477 66.272 269.941 66.848 267.68 66.848C266.016 66.848 264.288 66.6773 262.496 66.336L261.408 59.104C263.029 59.488 264.331 59.68 265.312 59.68C266.251 59.68 266.891 59.3813 267.232 58.784C267.573 58.1867 267.744 57.2053 267.744 55.84V46.88C264.587 49.6107 262.709 51.2747 262.112 51.872L259.232 46.112V66.08H233.056V42.08L232.608 42.336L229.6 36.768C233.781 34.592 237.045 32.3093 239.392 29.92H231.2V24.352H236.192C235.552 23.2 234.485 21.4507 232.992 19.104L237.408 16.608L232.8 16.928L232.224 11.232C244.341 10.592 252.981 9.78133 258.144 8.8L258.848 14.496C255.392 15.008 252.192 15.392 249.248 15.648V24.352H254.432L250.4 22.368C251.893 20.1493 253.131 17.9093 254.112 15.648L259.232 17.888L255.904 24.352H259.68V29.92H252.256C257.077 32.7787 260.149 34.656 261.472 35.552L258.976 39.968H259.232V44.704C261.749 42.8267 264.587 40.5867 267.744 37.984V35.488L263.968 36.832C263.328 34.6133 262.539 32.096 261.6 29.28C260.704 26.4213 259.979 24.2453 259.424 22.752L264.096 20.96L265.888 26.528L267.744 32.288V18.08H260.704V10.592H273.568V22.304L277.472 20.704C278.795 24.3733 280.181 28.448 281.632 32.928V18.08H275.424V10.592ZM238.176 16.608C238.731 17.632 239.413 18.7627 240.224 20L241.632 22.24L237.6 24.352H242.72V16.224L238.176 16.608ZM273.504 44.896L281.632 38.304V35.424L277.728 36.832C276.789 33.632 275.381 29.3867 273.504 24.096V44.896ZM242.72 33.568C240.8 35.9573 238.581 38.0907 236.064 39.968H257.696C255.691 38.4747 252.875 36.4907 249.248 34.016V38.816H242.72V33.568ZM238.752 50.208H243.296V45.408H238.752V50.208ZM249.12 50.208H253.536V45.408H249.12V50.208ZM243.296 55.584H238.752V60.576H243.296V55.584ZM249.12 55.584V60.576H253.536V55.584H249.12ZM305.504 24.544C304.48 23.008 303.008 21.0667 301.088 18.72C299.211 16.3307 297.653 14.496 296.416 13.216L302.304 8.288C303.499 9.61067 305.077 11.4667 307.04 13.856C309.045 16.2027 310.624 18.144 311.776 19.68L305.504 24.544ZM326.176 27.296C323.147 24.8213 320.309 21.6213 317.664 17.696H314.144V10.784H349.472V17.696C346.741 21.8347 343.584 25.1627 340 27.68C343.797 29.1307 348.491 30.176 354.08 30.816L351.328 37.536C343.776 36 337.653 34.0373 332.96 31.648C328.181 33.824 321.824 35.8293 313.888 37.664L310.624 31.2C316.512 30.2187 321.696 28.9173 326.176 27.296ZM332.896 24.224C336.139 22.3467 338.805 20.1707 340.896 17.696H325.536C327.755 20.256 330.208 22.432 332.896 24.224ZM307.808 51.936L310.368 49.056L314.016 55.2C310.816 58.5707 308.427 61.152 306.848 62.944L304.224 65.888L299.04 60.64C299.68 59.9573 300.085 59.2747 300.256 58.592C300.427 57.9093 300.512 57.0133 300.512 55.904V35.616H294.24V27.872H307.808V51.936ZM350.56 46.88H336.416V51.936H352.48V58.784H336.416V67.616H329.056V58.784H314.016V51.936H329.056V46.88H315.936V40.352H329.056V35.296H336.416V40.352H350.56V46.88Z" fill="url(#paint1_linear_2745_11043)"/>
<defs>
<linearGradient id="paint0_linear_2745_11043" x1="2.06267e-06" y1="59.0036" x2="456" y2="59.0033" gradientUnits="userSpaceOnUse">
<stop stop-color="white" stop-opacity="0.3"/>
<stop offset="0.495" stop-color="#CBB0F8"/>
<stop offset="1" stop-color="white" stop-opacity="0.3"/>
</linearGradient>
<linearGradient id="paint1_linear_2745_11043" x1="356" y1="-5.23031e-06" x2="100" y2="60" gradientUnits="userSpaceOnUse">
<stop stop-color="#F4439F"/>
<stop offset="1" stop-color="#7C3AED"/>
</linearGradient>
</defs>
</svg>
