<svg width="26" height="26" viewBox="0 0 26 26" fill="none" xmlns="http://www.w3.org/2000/svg">
<path d="M18.4263 8.38525H17.0653C16.7693 8.38525 16.4879 8.52744 16.3138 8.77119L11.7521 15.0971L9.68608 12.2301C9.51197 11.9893 9.2334 11.8442 8.93451 11.8442H7.57358C7.38496 11.8442 7.27469 12.0589 7.38496 12.2127L11.0006 17.227C11.086 17.3462 11.1986 17.4433 11.329 17.5104C11.4595 17.5774 11.604 17.6123 11.7507 17.6123C11.8974 17.6123 12.0419 17.5774 12.1723 17.5104C12.3028 17.4433 12.4154 17.3462 12.5008 17.227L18.612 8.75378C18.7251 8.59999 18.6149 8.38525 18.4263 8.38525Z" fill="url(#paint0_linear_3362_2015)"/>
<path d="M13 0C5.82098 0 0 5.82098 0 13C0 20.179 5.82098 26 13 26C20.179 26 26 20.179 26 13C26 5.82098 20.179 0 13 0ZM13 23.7946C7.03973 23.7946 2.20536 18.9603 2.20536 13C2.20536 7.03973 7.03973 2.20536 13 2.20536C18.9603 2.20536 23.7946 7.03973 23.7946 13C23.7946 18.9603 18.9603 23.7946 13 23.7946Z" fill="url(#paint1_linear_3362_2015)"/>
<defs>
<linearGradient id="paint0_linear_3362_2015" x1="22.1" y1="3.575" x2="0.325001" y2="24.7" gradientUnits="userSpaceOnUse">
<stop stop-color="#FE539A"/>
<stop offset="1" stop-color="#2828FA"/>
</linearGradient>
<linearGradient id="paint1_linear_3362_2015" x1="22.1" y1="3.575" x2="0.325001" y2="24.7" gradientUnits="userSpaceOnUse">
<stop stop-color="#FE539A"/>
<stop offset="1" stop-color="#2828FA"/>
</linearGradient>
</defs>
</svg>
