<svg width="20" height="8" viewBox="0 0 20 8" fill="none" xmlns="http://www.w3.org/2000/svg">
<path d="M4.28334 1.28452C4.42446 1.1434 4.50373 0.952016 4.50373 0.752453C4.50373 0.55289 4.42446 0.3615 4.28334 0.220388C4.14223 0.0792753 3.95084 0 3.75128 0C3.55172 0 3.36033 0.0792753 3.21922 0.220388L0.221666 3.21794C0.151427 3.2876 0.0956769 3.37048 0.0576315 3.4618C0.0195861 3.55312 0 3.65107 0 3.75C0 3.84893 0.0195861 3.94688 0.0576315 4.0382C0.0956769 4.12952 0.151427 4.2124 0.221666 4.28206L3.21922 7.27961C3.36033 7.42072 3.55172 7.5 3.75128 7.5C3.95084 7.5 4.14223 7.42072 4.28334 7.27961C4.42446 7.1385 4.50373 6.94711 4.50373 6.74755C4.50373 6.54798 4.42446 6.3566 4.28334 6.21548L2.56203 4.49938L1.81037 3.75L2.56203 3.00061L4.28334 1.28452Z" fill="white"/>
<path d="M1.81037 3.75L2.56203 4.49938H8.45493V3.00061H2.56203L1.81037 3.75Z" fill="white"/>
<path d="M15.7167 1.28452C15.5755 1.1434 15.4963 0.952016 15.4963 0.752453C15.4963 0.55289 15.5755 0.3615 15.7167 0.220388C15.8578 0.0792753 16.0492 0 16.2487 0C16.4483 0 16.6397 0.0792753 16.7808 0.220388L19.7783 3.21794C19.8486 3.2876 19.9043 3.37048 19.9424 3.4618C19.9804 3.55312 20 3.65107 20 3.75C20 3.84893 19.9804 3.94688 19.9424 4.0382C19.9043 4.12952 19.8486 4.2124 19.7783 4.28206L16.7808 7.27961C16.6397 7.42072 16.4483 7.5 16.2487 7.5C16.0492 7.5 15.8578 7.42072 15.7167 7.27961C15.5755 7.1385 15.4963 6.94711 15.4963 6.74755C15.4963 6.54798 15.5755 6.3566 15.7167 6.21548L17.438 4.49938L18.1896 3.75L17.438 3.00061L15.7167 1.28452Z" fill="white"/>
<path d="M18.1896 3.75L17.438 4.49938H11.5451V3.00061H17.438L18.1896 3.75Z" fill="white"/>
</svg>
