<svg width="673" height="988" viewBox="0 0 673 988" fill="none" xmlns="http://www.w3.org/2000/svg">
<g clip-path="url(#clip0_2387_6181)">
<mask id="mask0_2387_6181" style="mask-type:luminance" maskUnits="userSpaceOnUse" x="0" y="0" width="674" height="988">
<path d="M673 0H0.00012207V988H673V0Z" fill="white"/>
</mask>
<g mask="url(#mask0_2387_6181)">
<mask id="mask1_2387_6181" style="mask-type:alpha" maskUnits="userSpaceOnUse" x="12" y="160" width="1562" height="1023">
<path d="M407.463 1178.51L25.6055 1120.24C15.734 1118.73 9.71085 1108.58 13.1271 1099.2L279.009 369.783C331.055 227.003 476.809 140.872 627.361 163.868L1301.25 266.73C1501.39 297.338 1623.52 503.076 1554.34 692.942C1501.99 836.426 1355.58 923.104 1204.3 900.046L817.322 840.951C809.868 839.813 802.646 844.086 800.065 851.164L755.827 972.474C703.781 1115.26 558.016 1201.51 407.463 1178.51Z" fill="url(#paint0_linear_2387_6181)"/>
</mask>
<g mask="url(#mask1_2387_6181)">
<mask id="mask2_2387_6181" style="mask-type:luminance" maskUnits="userSpaceOnUse" x="-1258" y="0" width="1937" height="1221">
<path d="M-1257.85 0H678.418V1220.34H-1257.85V0Z" fill="white"/>
</mask>
<g mask="url(#mask2_2387_6181)">
<path d="M409.383 1175.98L29.4262 1118C19.6038 1116.5 13.6106 1106.4 17.0099 1097.08L281.568 371.283C333.355 229.212 478.383 143.51 628.186 166.392L1298.72 268.742C1497.86 299.197 1619.39 503.912 1550.55 692.834C1498.46 835.604 1352.78 921.851 1202.25 898.907L817.201 840.106C809.784 838.973 802.598 843.226 800.03 850.268L756.012 970.975C704.225 1113.05 559.186 1198.87 409.383 1175.98Z" fill="url(#paint1_linear_2387_6181)"/>
<path d="M676.385 16.2712V1204.07C676.385 1213.05 669.093 1220.34 660.113 1220.34H-1243.61C-1252.59 1220.34 -1259.88 1213.05 -1259.88 1204.07V16.2712C-1259.88 7.29112 -1252.59 0 -1243.61 0H660.113C669.093 0 676.385 7.29112 676.385 16.2712Z" fill="url(#paint2_linear_2387_6181)"/>
</g>
</g>
</g>
</g>
<defs>
<linearGradient id="paint0_linear_2387_6181" x1="679.893" y1="1233.99" x2="-1265.38" y2="7.54605" gradientUnits="userSpaceOnUse">
<stop stop-color="#E5F0FF"/>
<stop offset="0.5" stop-color="#E9EBFF"/>
<stop offset="1" stop-color="#EBE5FF"/>
</linearGradient>
<linearGradient id="paint1_linear_2387_6181" x1="680.456" y1="1231.19" x2="-1255.13" y2="10.8526" gradientUnits="userSpaceOnUse">
<stop stop-color="#E5F0FF"/>
<stop offset="0.5" stop-color="#E9EBFF"/>
<stop offset="1" stop-color="#EBE5FF"/>
</linearGradient>
<linearGradient id="paint2_linear_2387_6181" x1="-291.748" y1="0" x2="-291.748" y2="1220.34" gradientUnits="userSpaceOnUse">
<stop offset="0.35" stop-color="white" stop-opacity="0"/>
<stop offset="0.68" stop-color="white" stop-opacity="0.5"/>
<stop offset="1" stop-color="white"/>
</linearGradient>
<clipPath id="clip0_2387_6181">
<rect width="677.966" height="1220.34" fill="white" transform="translate(0.457642)"/>
</clipPath>
</defs>
</svg>
